<?xml version="1.0" encoding="UTF-8" standalone="no"?>
<!DOCTYPE svg PUBLIC "-//W3C//DTD SVG 1.1//EN"
 "http://www.w3.org/Graphics/SVG/1.1/DTD/svg11.dtd">
<!-- Generated by graphviz version 12.1.2 (20240928.0832)
 -->
<!-- Title: public.action_guarantee Pages: 1 -->
<svg width="1329pt" height="540pt"
 viewBox="0.00 0.00 1328.67 540.40" xmlns="http://www.w3.org/2000/svg" xmlns:xlink="http://www.w3.org/1999/xlink">
<g id="graph0" class="graph" transform="scale(1 1) rotate(0) translate(4 536.4)">
<title>public.action_guarantee</title>
<polygon fill="white" stroke="none" points="-4,4 -4,-536.4 1324.67,-536.4 1324.67,4 -4,4"/>
<!-- public.action_guarantee -->
<g id="node1" class="node">
<title>public.action_guarantee</title>
<polygon fill="#efefef" stroke="none" points="495.7,-450.6 495.7,-486.2 806.62,-486.2 806.62,-450.6 495.7,-450.6"/>
<polygon fill="none" stroke="black" points="495.7,-450.6 495.7,-486.2 806.62,-486.2 806.62,-450.6 495.7,-450.6"/>
<text text-anchor="start" x="502.7" y="-464" font-family="Arial Bold" font-size="18.00">public.action_guarantee</text>
<text text-anchor="start" x="675.13" y="-464" font-family="Arial" font-size="14.00">    </text>
<text text-anchor="start" x="706.24" y="-464" font-family="Arial" font-size="14.00" fill="#666666">[BASE TABLE]</text>
<polygon fill="none" stroke="black" points="495.7,-419.8 495.7,-450.6 806.62,-450.6 806.62,-419.8 495.7,-419.8"/>
<text text-anchor="start" x="502.7" y="-432" font-family="Arial" font-size="14.00">model_key </text>
<text text-anchor="start" x="574.3" y="-432" font-family="Arial" font-size="14.00" fill="#666666">[text]</text>
<polygon fill="none" stroke="black" points="495.7,-389 495.7,-419.8 806.62,-419.8 806.62,-389 495.7,-389"/>
<text text-anchor="start" x="502.7" y="-401.2" font-family="Arial" font-size="14.00">action_key </text>
<text text-anchor="start" x="573.52" y="-401.2" font-family="Arial" font-size="14.00" fill="#666666">[text]</text>
<polygon fill="none" stroke="black" points="495.7,-358.2 495.7,-389 806.62,-389 806.62,-358.2 495.7,-358.2"/>
<text text-anchor="start" x="502.7" y="-370.4" font-family="Arial" font-size="14.00">logic_key </text>
<text text-anchor="start" x="564.96" y="-370.4" font-family="Arial" font-size="14.00" fill="#666666">[text]</text>
<polygon fill="none" stroke="black" stroke-width="3" points="494.2,-356.7 494.2,-487.7 808.12,-487.7 808.12,-356.7 494.2,-356.7"/>
</g>
<!-- public.logic -->
<g id="node2" class="node">
<title>public.logic</title>
<polygon fill="#efefef" stroke="none" points="373.17,-197.2 373.17,-232.8 597.15,-232.8 597.15,-197.2 373.17,-197.2"/>
<polygon fill="none" stroke="black" points="373.17,-197.2 373.17,-232.8 597.15,-232.8 597.15,-197.2 373.17,-197.2"/>
<text text-anchor="start" x="380.17" y="-210.6" font-family="Arial Bold" font-size="18.00">public.logic</text>
<text text-anchor="start" x="465.66" y="-210.6" font-family="Arial" font-size="14.00">    </text>
<text text-anchor="start" x="496.77" y="-210.6" font-family="Arial" font-size="14.00" fill="#666666">[BASE TABLE]</text>
<polygon fill="none" stroke="black" points="373.17,-166.4 373.17,-197.2 597.15,-197.2 597.15,-166.4 373.17,-166.4"/>
<text text-anchor="start" x="380.17" y="-178.6" font-family="Arial" font-size="14.00">logic_key </text>
<text text-anchor="start" x="442.43" y="-178.6" font-family="Arial" font-size="14.00" fill="#666666">[text]</text>
<polygon fill="none" stroke="black" points="373.17,-135.6 373.17,-166.4 597.15,-166.4 597.15,-135.6 373.17,-135.6"/>
<text text-anchor="start" x="380.17" y="-147.8" font-family="Arial" font-size="14.00">model_key </text>
<text text-anchor="start" x="451.77" y="-147.8" font-family="Arial" font-size="14.00" fill="#666666">[text]</text>
<polygon fill="none" stroke="black" points="373.17,-104.8 373.17,-135.6 597.15,-135.6 597.15,-104.8 373.17,-104.8"/>
<text text-anchor="start" x="380.17" y="-117" font-family="Arial" font-size="14.00">description </text>
<text text-anchor="start" x="451.77" y="-117" font-family="Arial" font-size="14.00" fill="#666666">[text]</text>
<polygon fill="none" stroke="black" points="373.17,-74 373.17,-104.8 597.15,-104.8 597.15,-74 373.17,-74"/>
<text text-anchor="start" x="380.17" y="-86.2" font-family="Arial" font-size="14.00">notation </text>
<text text-anchor="start" x="433.88" y="-86.2" font-family="Arial" font-size="14.00" fill="#666666">[notation]</text>
<polygon fill="none" stroke="black" points="373.17,-43.2 373.17,-74 597.15,-74 597.15,-43.2 373.17,-43.2"/>
<text text-anchor="start" x="380.17" y="-55.4" font-family="Arial" font-size="14.00">specification </text>
<text text-anchor="start" x="461.1" y="-55.4" font-family="Arial" font-size="14.00" fill="#666666">[text]</text>
</g>
<!-- public.action_guarantee&#45;&gt;public.logic -->
<g id="edge1" class="edge">
<title>public.action_guarantee:model_key&#45;&gt;public.logic:model_key</title>
<path fill="none" stroke="black" d="M484.55,-434.13C443.26,-424.61 466.11,-353.55 495.7,-312 523.46,-273.03 569.39,-314.97 597.15,-276 629.38,-230.75 653.7,-151 598.15,-151"/>
<polygon fill="black" stroke="black" points="484.43,-434.12 493.9,-439.64 489.73,-434.68 494.04,-435.13 494.04,-435.13 494.04,-435.13 489.73,-434.68 494.84,-430.69 484.43,-434.12"/>
<text text-anchor="start" x="7" y="-445.2" font-family="Arial" font-size="10.00">FOREIGN KEY (model_key, logic_key) REFERENCES logic(model_key, logic_key) ON DELETE CASCADE</text>
</g>
<!-- public.action -->
<g id="node3" class="node">
<title>public.action</title>
<polygon fill="#efefef" stroke="none" points="701.18,-197.2 701.18,-232.8 933.14,-232.8 933.14,-197.2 701.18,-197.2"/>
<polygon fill="none" stroke="black" points="701.18,-197.2 701.18,-232.8 933.14,-232.8 933.14,-197.2 701.18,-197.2"/>
<text text-anchor="start" x="708.18" y="-210.6" font-family="Arial Bold" font-size="18.00">public.action</text>
<text text-anchor="start" x="801.65" y="-210.6" font-family="Arial" font-size="14.00">    </text>
<text text-anchor="start" x="832.77" y="-210.6" font-family="Arial" font-size="14.00" fill="#666666">[BASE TABLE]</text>
<polygon fill="none" stroke="black" points="701.18,-166.4 701.18,-197.2 933.14,-197.2 933.14,-166.4 701.18,-166.4"/>
<text text-anchor="start" x="708.18" y="-178.6" font-family="Arial" font-size="14.00">model_key </text>
<text text-anchor="start" x="779.77" y="-178.6" font-family="Arial" font-size="14.00" fill="#666666">[text]</text>
<polygon fill="none" stroke="black" points="701.18,-135.6 701.18,-166.4 933.14,-166.4 933.14,-135.6 701.18,-135.6"/>
<text text-anchor="start" x="708.18" y="-147.8" font-family="Arial" font-size="14.00">class_key </text>
<text text-anchor="start" x="773.54" y="-147.8" font-family="Arial" font-size="14.00" fill="#666666">[text]</text>
<polygon fill="none" stroke="black" points="701.18,-104.8 701.18,-135.6 933.14,-135.6 933.14,-104.8 701.18,-104.8"/>
<text text-anchor="start" x="708.18" y="-117" font-family="Arial" font-size="14.00">action_key </text>
<text text-anchor="start" x="779" y="-117" font-family="Arial" font-size="14.00" fill="#666666">[text]</text>
<polygon fill="none" stroke="black" points="701.18,-74 701.18,-104.8 933.14,-104.8 933.14,-74 701.18,-74"/>
<text text-anchor="start" x="708.18" y="-86.2" font-family="Arial" font-size="14.00">name </text>
<text text-anchor="start" x="747.09" y="-86.2" font-family="Arial" font-size="14.00" fill="#666666">[text]</text>
<polygon fill="none" stroke="black" points="701.18,-43.2 701.18,-74 933.14,-74 933.14,-43.2 701.18,-43.2"/>
<text text-anchor="start" x="708.18" y="-55.4" font-family="Arial" font-size="14.00">details </text>
<text text-anchor="start" x="752.54" y="-55.4" font-family="Arial" font-size="14.00" fill="#666666">[text]</text>
</g>
<!-- public.action_guarantee&#45;&gt;public.action -->
<g id="edge2" class="edge">
<title>public.action_guarantee:model_key&#45;&gt;public.action:model_key</title>
<path fill="none" stroke="black" d="M817.77,-434.13C859.09,-424.59 836.46,-353.37 806.62,-312 777.65,-271.84 730.2,-316.12 701.18,-276 676.64,-242.08 658.31,-181.8 700.18,-181.8"/>
<polygon fill="black" stroke="black" points="817.89,-434.12 807.48,-430.69 812.59,-434.68 808.28,-435.13 808.28,-435.13 808.28,-435.13 812.59,-434.68 808.42,-439.64 817.89,-434.12"/>
<text text-anchor="start" x="814.62" y="-445.2" font-family="Arial" font-size="10.00">FOREIGN KEY (model_key, action_key) REFERENCES action(model_key, action_key) ON DELETE CASCADE</text>
</g>
</g>
</svg>
