<?xml version="1.0" encoding="UTF-8" standalone="no"?>
<!DOCTYPE svg PUBLIC "-//W3C//DTD SVG 1.1//EN"
 "http://www.w3.org/Graphics/SVG/1.1/DTD/svg11.dtd">
<!-- Generated by graphviz version 12.1.2 (20240928.0832)
 -->
<!-- Title: public.state_action_parameter Pages: 1 -->
<svg width="1443pt" height="725pt"
 viewBox="0.00 0.00 1442.73 725.20" xmlns="http://www.w3.org/2000/svg" xmlns:xlink="http://www.w3.org/1999/xlink">
<g id="graph0" class="graph" transform="scale(1 1) rotate(0) translate(4 721.2)">
<title>public.state_action_parameter</title>
<polygon fill="white" stroke="none" points="-4,4 -4,-721.2 1438.73,-721.2 1438.73,4 -4,4"/>
<!-- public.state_action_parameter -->
<g id="node1" class="node">
<title>public.state_action_parameter</title>
<polygon fill="#efefef" stroke="none" points="565.78,-635.4 565.78,-671 920.67,-671 920.67,-635.4 565.78,-635.4"/>
<polygon fill="none" stroke="black" points="565.78,-635.4 565.78,-671 920.67,-671 920.67,-635.4 565.78,-635.4"/>
<text text-anchor="start" x="572.78" y="-648.8" font-family="Arial Bold" font-size="18.00">public.state_action_parameter</text>
<text text-anchor="start" x="789.19" y="-648.8" font-family="Arial" font-size="14.00">    </text>
<text text-anchor="start" x="820.3" y="-648.8" font-family="Arial" font-size="14.00" fill="#666666">[BASE TABLE]</text>
<polygon fill="none" stroke="black" points="565.78,-604.6 565.78,-635.4 920.67,-635.4 920.67,-604.6 565.78,-604.6"/>
<text text-anchor="start" x="572.78" y="-616.8" font-family="Arial" font-size="14.00">model_key </text>
<text text-anchor="start" x="644.37" y="-616.8" font-family="Arial" font-size="14.00" fill="#666666">[text]</text>
<polygon fill="none" stroke="black" points="565.78,-573.8 565.78,-604.6 920.67,-604.6 920.67,-573.8 565.78,-573.8"/>
<text text-anchor="start" x="572.78" y="-586" font-family="Arial" font-size="14.00">parameter_key </text>
<text text-anchor="start" x="670.05" y="-586" font-family="Arial" font-size="14.00" fill="#666666">[text]</text>
<polygon fill="none" stroke="black" points="565.78,-543 565.78,-573.8 920.67,-573.8 920.67,-543 565.78,-543"/>
<text text-anchor="start" x="572.78" y="-555.2" font-family="Arial" font-size="14.00">action_key </text>
<text text-anchor="start" x="643.6" y="-555.2" font-family="Arial" font-size="14.00" fill="#666666">[text]</text>
<polygon fill="none" stroke="black" points="565.78,-512.2 565.78,-543 920.67,-543 920.67,-512.2 565.78,-512.2"/>
<text text-anchor="start" x="572.78" y="-524.4" font-family="Arial" font-size="14.00">data_type_rules </text>
<text text-anchor="start" x="676.3" y="-524.4" font-family="Arial" font-size="14.00" fill="#666666">[text]</text>
<polygon fill="none" stroke="black" points="565.78,-481.4 565.78,-512.2 920.67,-512.2 920.67,-481.4 565.78,-481.4"/>
<text text-anchor="start" x="572.78" y="-493.6" font-family="Arial" font-size="14.00">data_type_key </text>
<text text-anchor="start" x="667.74" y="-493.6" font-family="Arial" font-size="14.00" fill="#666666">[text]</text>
<polygon fill="none" stroke="black" points="565.78,-450.6 565.78,-481.4 920.67,-481.4 920.67,-450.6 565.78,-450.6"/>
<text text-anchor="start" x="572.78" y="-462.8" font-family="Arial" font-size="14.00">name </text>
<text text-anchor="start" x="611.69" y="-462.8" font-family="Arial" font-size="14.00" fill="#666666">[text]</text>
<polygon fill="none" stroke="black" points="565.78,-419.8 565.78,-450.6 920.67,-450.6 920.67,-419.8 565.78,-419.8"/>
<text text-anchor="start" x="572.78" y="-432" font-family="Arial" font-size="14.00">details </text>
<text text-anchor="start" x="617.14" y="-432" font-family="Arial" font-size="14.00" fill="#666666">[text]</text>
<polygon fill="none" stroke="black" points="565.78,-389 565.78,-419.8 920.67,-419.8 920.67,-389 565.78,-389"/>
<text text-anchor="start" x="572.78" y="-401.2" font-family="Arial" font-size="14.00">uml_comment </text>
<text text-anchor="start" x="664.59" y="-401.2" font-family="Arial" font-size="14.00" fill="#666666">[text]</text>
<polygon fill="none" stroke="black" stroke-width="3" points="564.28,-387.5 564.28,-672.5 922.17,-672.5 922.17,-387.5 564.28,-387.5"/>
</g>
<!-- public.data_type -->
<g id="node2" class="node">
<title>public.data_type</title>
<polygon fill="#efefef" stroke="none" points="440.25,-228 440.25,-263.6 698.2,-263.6 698.2,-228 440.25,-228"/>
<polygon fill="none" stroke="black" points="440.25,-228 440.25,-263.6 698.2,-263.6 698.2,-228 440.25,-228"/>
<text text-anchor="start" x="447.25" y="-241.4" font-family="Arial Bold" font-size="18.00">public.data_type</text>
<text text-anchor="start" x="566.71" y="-241.4" font-family="Arial" font-size="14.00">    </text>
<text text-anchor="start" x="597.83" y="-241.4" font-family="Arial" font-size="14.00" fill="#666666">[BASE TABLE]</text>
<polygon fill="none" stroke="black" points="440.25,-197.2 440.25,-228 698.2,-228 698.2,-197.2 440.25,-197.2"/>
<text text-anchor="start" x="447.25" y="-209.4" font-family="Arial" font-size="14.00">model_key </text>
<text text-anchor="start" x="518.85" y="-209.4" font-family="Arial" font-size="14.00" fill="#666666">[text]</text>
<polygon fill="none" stroke="black" points="440.25,-166.4 440.25,-197.2 698.2,-197.2 698.2,-166.4 440.25,-166.4"/>
<text text-anchor="start" x="447.25" y="-178.6" font-family="Arial" font-size="14.00">data_type_key </text>
<text text-anchor="start" x="542.21" y="-178.6" font-family="Arial" font-size="14.00" fill="#666666">[text]</text>
<polygon fill="none" stroke="black" points="440.25,-135.6 440.25,-166.4 698.2,-166.4 698.2,-135.6 440.25,-135.6"/>
<text text-anchor="start" x="447.25" y="-147.8" font-family="Arial" font-size="14.00">collection_type </text>
<text text-anchor="start" x="543.76" y="-147.8" font-family="Arial" font-size="14.00" fill="#666666">[collection_type]</text>
<polygon fill="none" stroke="black" points="440.25,-104.8 440.25,-135.6 698.2,-135.6 698.2,-104.8 440.25,-104.8"/>
<text text-anchor="start" x="447.25" y="-117" font-family="Arial" font-size="14.00">collection_unique </text>
<text text-anchor="start" x="559.33" y="-117" font-family="Arial" font-size="14.00" fill="#666666">[boolean]</text>
<polygon fill="none" stroke="black" points="440.25,-74 440.25,-104.8 698.2,-104.8 698.2,-74 440.25,-74"/>
<text text-anchor="start" x="447.25" y="-86.2" font-family="Arial" font-size="14.00">collection_min </text>
<text text-anchor="start" x="539.85" y="-86.2" font-family="Arial" font-size="14.00" fill="#666666">[bigint]</text>
<polygon fill="none" stroke="black" points="440.25,-43.2 440.25,-74 698.2,-74 698.2,-43.2 440.25,-43.2"/>
<text text-anchor="start" x="447.25" y="-55.4" font-family="Arial" font-size="14.00">collection_max </text>
<text text-anchor="start" x="543.74" y="-55.4" font-family="Arial" font-size="14.00" fill="#666666">[bigint]</text>
</g>
<!-- public.state_action_parameter&#45;&gt;public.data_type -->
<g id="edge1" class="edge">
<title>public.state_action_parameter:model_key&#45;&gt;public.data_type:model_key</title>
<path fill="none" stroke="black" d="M554.39,-619.54C444.49,-609.56 492.98,-437.68 565.78,-342.8 602.91,-294.41 660.91,-355.06 698.2,-306.8 723.81,-273.67 741.07,-212.6 699.2,-212.6"/>
<polygon fill="black" stroke="black" points="554.46,-619.55 564.25,-624.48 559.79,-619.78 564.11,-619.97 564.11,-619.97 564.11,-619.97 559.79,-619.78 564.64,-615.49 554.46,-619.55"/>
<text text-anchor="start" x="7" y="-630" font-family="Arial" font-size="10.00">FOREIGN KEY (model_key, data_type_key) REFERENCES data_type(model_key, data_type_key) ON DELETE CASCADE</text>
</g>
<!-- public.action -->
<g id="node3" class="node">
<title>public.action</title>
<polygon fill="#efefef" stroke="none" points="802.25,-212.6 802.25,-248.2 1034.21,-248.2 1034.21,-212.6 802.25,-212.6"/>
<polygon fill="none" stroke="black" points="802.25,-212.6 802.25,-248.2 1034.21,-248.2 1034.21,-212.6 802.25,-212.6"/>
<text text-anchor="start" x="809.25" y="-226" font-family="Arial Bold" font-size="18.00">public.action</text>
<text text-anchor="start" x="902.72" y="-226" font-family="Arial" font-size="14.00">    </text>
<text text-anchor="start" x="933.84" y="-226" font-family="Arial" font-size="14.00" fill="#666666">[BASE TABLE]</text>
<polygon fill="none" stroke="black" points="802.25,-181.8 802.25,-212.6 1034.21,-212.6 1034.21,-181.8 802.25,-181.8"/>
<text text-anchor="start" x="809.25" y="-194" font-family="Arial" font-size="14.00">model_key </text>
<text text-anchor="start" x="880.84" y="-194" font-family="Arial" font-size="14.00" fill="#666666">[text]</text>
<polygon fill="none" stroke="black" points="802.25,-151 802.25,-181.8 1034.21,-181.8 1034.21,-151 802.25,-151"/>
<text text-anchor="start" x="809.25" y="-163.2" font-family="Arial" font-size="14.00">class_key </text>
<text text-anchor="start" x="874.61" y="-163.2" font-family="Arial" font-size="14.00" fill="#666666">[text]</text>
<polygon fill="none" stroke="black" points="802.25,-120.2 802.25,-151 1034.21,-151 1034.21,-120.2 802.25,-120.2"/>
<text text-anchor="start" x="809.25" y="-132.4" font-family="Arial" font-size="14.00">action_key </text>
<text text-anchor="start" x="880.07" y="-132.4" font-family="Arial" font-size="14.00" fill="#666666">[text]</text>
<polygon fill="none" stroke="black" points="802.25,-89.4 802.25,-120.2 1034.21,-120.2 1034.21,-89.4 802.25,-89.4"/>
<text text-anchor="start" x="809.25" y="-101.6" font-family="Arial" font-size="14.00">name </text>
<text text-anchor="start" x="848.16" y="-101.6" font-family="Arial" font-size="14.00" fill="#666666">[text]</text>
<polygon fill="none" stroke="black" points="802.25,-58.6 802.25,-89.4 1034.21,-89.4 1034.21,-58.6 802.25,-58.6"/>
<text text-anchor="start" x="809.25" y="-70.8" font-family="Arial" font-size="14.00">details </text>
<text text-anchor="start" x="853.61" y="-70.8" font-family="Arial" font-size="14.00" fill="#666666">[text]</text>
</g>
<!-- public.state_action_parameter&#45;&gt;public.action -->
<g id="edge2" class="edge">
<title>public.state_action_parameter:model_key&#45;&gt;public.action:model_key</title>
<path fill="none" stroke="black" d="M932.04,-619.56C1041.56,-609.85 986.46,-442.67 920.67,-342.8 889.11,-294.88 833.98,-339.21 802.25,-291.4 779.09,-256.52 759.38,-197.2 801.25,-197.2"/>
<polygon fill="black" stroke="black" points="932,-619.56 921.82,-615.49 926.67,-619.79 922.34,-619.97 922.34,-619.97 922.34,-619.97 926.67,-619.79 922.2,-624.48 932,-619.56"/>
<text text-anchor="start" x="928.67" y="-630" font-family="Arial" font-size="10.00">FOREIGN KEY (model_key, action_key) REFERENCES action(model_key, action_key) ON DELETE CASCADE</text>
</g>
</g>
</svg>
