<?xml version="1.0" encoding="UTF-8" standalone="no"?>
<!DOCTYPE svg PUBLIC "-//W3C//DTD SVG 1.1//EN"
 "http://www.w3.org/Graphics/SVG/1.1/DTD/svg11.dtd">
<!-- Generated by graphviz version 12.1.2 (20240928.0832)
 -->
<!-- Title: public.query_parameter Pages: 1 -->
<svg width="1625pt" height="1099pt"
 viewBox="0.00 0.00 1624.88 1098.80" xmlns="http://www.w3.org/2000/svg" xmlns:xlink="http://www.w3.org/1999/xlink">
<g id="graph0" class="graph" transform="scale(1 1) rotate(0) translate(4 1094.8)">
<title>public.query_parameter</title>
<polygon fill="white" stroke="none" points="-4,4 -4,-1094.8 1620.88,-1094.8 1620.88,4 -4,4"/>
<!-- public.query_parameter -->
<g id="node1" class="node">
<title>public.query_parameter</title>
<polygon fill="#efefef" stroke="none" points="565.78,-727.8 565.78,-763.4 875.69,-763.4 875.69,-727.8 565.78,-727.8"/>
<polygon fill="none" stroke="black" points="565.78,-727.8 565.78,-763.4 875.69,-763.4 875.69,-727.8 565.78,-727.8"/>
<text text-anchor="start" x="572.78" y="-741.2" font-family="Arial Bold" font-size="18.00">public.query_parameter</text>
<text text-anchor="start" x="744.2" y="-741.2" font-family="Arial" font-size="14.00">    </text>
<text text-anchor="start" x="775.32" y="-741.2" font-family="Arial" font-size="14.00" fill="#666666">[BASE TABLE]</text>
<polygon fill="none" stroke="black" points="565.78,-697 565.78,-727.8 875.69,-727.8 875.69,-697 565.78,-697"/>
<text text-anchor="start" x="572.78" y="-709.2" font-family="Arial" font-size="14.00">model_key </text>
<text text-anchor="start" x="644.37" y="-709.2" font-family="Arial" font-size="14.00" fill="#666666">[text]</text>
<polygon fill="none" stroke="black" points="565.78,-666.2 565.78,-697 875.69,-697 875.69,-666.2 565.78,-666.2"/>
<text text-anchor="start" x="572.78" y="-678.4" font-family="Arial" font-size="14.00">query_key </text>
<text text-anchor="start" x="641.26" y="-678.4" font-family="Arial" font-size="14.00" fill="#666666">[text]</text>
<polygon fill="none" stroke="black" points="565.78,-635.4 565.78,-666.2 875.69,-666.2 875.69,-635.4 565.78,-635.4"/>
<text text-anchor="start" x="572.78" y="-647.6" font-family="Arial" font-size="14.00">parameter_key </text>
<text text-anchor="start" x="670.05" y="-647.6" font-family="Arial" font-size="14.00" fill="#666666">[text]</text>
<polygon fill="none" stroke="black" points="565.78,-604.6 565.78,-635.4 875.69,-635.4 875.69,-604.6 565.78,-604.6"/>
<text text-anchor="start" x="572.78" y="-616.8" font-family="Arial" font-size="14.00">name </text>
<text text-anchor="start" x="611.69" y="-616.8" font-family="Arial" font-size="14.00" fill="#666666">[text]</text>
<polygon fill="none" stroke="black" points="565.78,-573.8 565.78,-604.6 875.69,-604.6 875.69,-573.8 565.78,-573.8"/>
<text text-anchor="start" x="572.78" y="-586" font-family="Arial" font-size="14.00">sort_order </text>
<text text-anchor="start" x="640.48" y="-586" font-family="Arial" font-size="14.00" fill="#666666">[integer]</text>
<polygon fill="none" stroke="black" points="565.78,-543 565.78,-573.8 875.69,-573.8 875.69,-543 565.78,-543"/>
<text text-anchor="start" x="572.78" y="-555.2" font-family="Arial" font-size="14.00">data_type_rules </text>
<text text-anchor="start" x="676.3" y="-555.2" font-family="Arial" font-size="14.00" fill="#666666">[text]</text>
<polygon fill="none" stroke="black" points="565.78,-512.2 565.78,-543 875.69,-543 875.69,-512.2 565.78,-512.2"/>
<text text-anchor="start" x="572.78" y="-524.4" font-family="Arial" font-size="14.00">data_type_key </text>
<text text-anchor="start" x="667.74" y="-524.4" font-family="Arial" font-size="14.00" fill="#666666">[text]</text>
<polygon fill="none" stroke="black" points="565.78,-481.4 565.78,-512.2 875.69,-512.2 875.69,-481.4 565.78,-481.4"/>
<text text-anchor="start" x="572.78" y="-493.6" font-family="Arial" font-size="14.00">nullable </text>
<text text-anchor="start" x="624.93" y="-493.6" font-family="Arial" font-size="14.00" fill="#666666">[boolean]</text>
<polygon fill="none" stroke="black" stroke-width="3" points="564.28,-479.9 564.28,-764.9 877.19,-764.9 877.19,-479.9 564.28,-479.9"/>
</g>
<!-- public.data_type -->
<g id="node2" class="node">
<title>public.data_type</title>
<polygon fill="#efefef" stroke="none" points="417.76,-320.4 417.76,-356 675.71,-356 675.71,-320.4 417.76,-320.4"/>
<polygon fill="none" stroke="black" points="417.76,-320.4 417.76,-356 675.71,-356 675.71,-320.4 417.76,-320.4"/>
<text text-anchor="start" x="424.76" y="-333.8" font-family="Arial Bold" font-size="18.00">public.data_type</text>
<text text-anchor="start" x="544.22" y="-333.8" font-family="Arial" font-size="14.00">    </text>
<text text-anchor="start" x="575.34" y="-333.8" font-family="Arial" font-size="14.00" fill="#666666">[BASE TABLE]</text>
<polygon fill="none" stroke="black" points="417.76,-289.6 417.76,-320.4 675.71,-320.4 675.71,-289.6 417.76,-289.6"/>
<text text-anchor="start" x="424.76" y="-301.8" font-family="Arial" font-size="14.00">model_key </text>
<text text-anchor="start" x="496.35" y="-301.8" font-family="Arial" font-size="14.00" fill="#666666">[text]</text>
<polygon fill="none" stroke="black" points="417.76,-258.8 417.76,-289.6 675.71,-289.6 675.71,-258.8 417.76,-258.8"/>
<text text-anchor="start" x="424.76" y="-271" font-family="Arial" font-size="14.00">data_type_key </text>
<text text-anchor="start" x="519.72" y="-271" font-family="Arial" font-size="14.00" fill="#666666">[text]</text>
<polygon fill="none" stroke="black" points="417.76,-228 417.76,-258.8 675.71,-258.8 675.71,-228 417.76,-228"/>
<text text-anchor="start" x="424.76" y="-240.2" font-family="Arial" font-size="14.00">collection_type </text>
<text text-anchor="start" x="521.26" y="-240.2" font-family="Arial" font-size="14.00" fill="#666666">[collection_type]</text>
<polygon fill="none" stroke="black" points="417.76,-197.2 417.76,-228 675.71,-228 675.71,-197.2 417.76,-197.2"/>
<text text-anchor="start" x="424.76" y="-209.4" font-family="Arial" font-size="14.00">collection_unique </text>
<text text-anchor="start" x="536.84" y="-209.4" font-family="Arial" font-size="14.00" fill="#666666">[boolean]</text>
<polygon fill="none" stroke="black" points="417.76,-166.4 417.76,-197.2 675.71,-197.2 675.71,-166.4 417.76,-166.4"/>
<text text-anchor="start" x="424.76" y="-178.6" font-family="Arial" font-size="14.00">collection_min </text>
<text text-anchor="start" x="517.36" y="-178.6" font-family="Arial" font-size="14.00" fill="#666666">[bigint]</text>
<polygon fill="none" stroke="black" points="417.76,-135.6 417.76,-166.4 675.71,-166.4 675.71,-135.6 417.76,-135.6"/>
<text text-anchor="start" x="424.76" y="-147.8" font-family="Arial" font-size="14.00">collection_max </text>
<text text-anchor="start" x="521.25" y="-147.8" font-family="Arial" font-size="14.00" fill="#666666">[bigint]</text>
<polygon fill="none" stroke="black" points="417.76,-104.8 417.76,-135.6 675.71,-135.6 675.71,-104.8 417.76,-104.8"/>
<text text-anchor="start" x="424.76" y="-117" font-family="Arial" font-size="14.00">element_data_type_key </text>
<text text-anchor="start" x="577.31" y="-117" font-family="Arial" font-size="14.00" fill="#666666">[text]</text>
<polygon fill="none" stroke="black" points="417.76,-74 417.76,-104.8 675.71,-104.8 675.71,-74 417.76,-74"/>
<text text-anchor="start" x="424.76" y="-86.2" font-family="Arial" font-size="14.00">type_spec_notation </text>
<text text-anchor="start" x="550.08" y="-86.2" font-family="Arial" font-size="14.00" fill="#666666">[notation]</text>
<polygon fill="none" stroke="black" points="417.76,-43.2 417.76,-74 675.71,-74 675.71,-43.2 417.76,-43.2"/>
<text text-anchor="start" x="424.76" y="-55.4" font-family="Arial" font-size="14.00">type_spec_specification </text>
<text text-anchor="start" x="577.3" y="-55.4" font-family="Arial" font-size="14.00" fill="#666666">[text]</text>
</g>
<!-- public.query_parameter&#45;&gt;public.data_type -->
<g id="edge1" class="edge">
<title>public.query_parameter:model_key&#45;&gt;public.data_type:model_key</title>
<path fill="none" stroke="black" d="M554.4,-711.95C444.63,-702.06 495.42,-531.91 565.78,-435.2 596.03,-393.63 645.32,-440.67 675.71,-399.2 700.46,-365.43 718.58,-305 676.71,-305"/>
<polygon fill="black" stroke="black" points="554.46,-711.95 564.25,-716.88 559.79,-712.18 564.11,-712.37 564.11,-712.37 564.11,-712.37 559.79,-712.18 564.64,-707.89 554.46,-711.95"/>
<text text-anchor="start" x="7" y="-722.4" font-family="Arial" font-size="10.00">FOREIGN KEY (model_key, data_type_key) REFERENCES data_type(model_key, data_type_key) ON DELETE CASCADE</text>
</g>
<!-- public.query -->
<g id="node3" class="node">
<title>public.query</title>
<polygon fill="#efefef" stroke="none" points="780.25,-258.8 780.25,-294.4 1009.22,-294.4 1009.22,-258.8 780.25,-258.8"/>
<polygon fill="none" stroke="black" points="780.25,-258.8 780.25,-294.4 1009.22,-294.4 1009.22,-258.8 780.25,-258.8"/>
<text text-anchor="start" x="787.25" y="-272.2" font-family="Arial Bold" font-size="18.00">public.query</text>
<text text-anchor="start" x="877.73" y="-272.2" font-family="Arial" font-size="14.00">    </text>
<text text-anchor="start" x="908.85" y="-272.2" font-family="Arial" font-size="14.00" fill="#666666">[BASE TABLE]</text>
<polygon fill="none" stroke="black" points="780.25,-228 780.25,-258.8 1009.22,-258.8 1009.22,-228 780.25,-228"/>
<text text-anchor="start" x="787.25" y="-240.2" font-family="Arial" font-size="14.00">model_key </text>
<text text-anchor="start" x="858.85" y="-240.2" font-family="Arial" font-size="14.00" fill="#666666">[text]</text>
<polygon fill="none" stroke="black" points="780.25,-197.2 780.25,-228 1009.22,-228 1009.22,-197.2 780.25,-197.2"/>
<text text-anchor="start" x="787.25" y="-209.4" font-family="Arial" font-size="14.00">class_key </text>
<text text-anchor="start" x="852.61" y="-209.4" font-family="Arial" font-size="14.00" fill="#666666">[text]</text>
<polygon fill="none" stroke="black" points="780.25,-166.4 780.25,-197.2 1009.22,-197.2 1009.22,-166.4 780.25,-166.4"/>
<text text-anchor="start" x="787.25" y="-178.6" font-family="Arial" font-size="14.00">query_key </text>
<text text-anchor="start" x="855.74" y="-178.6" font-family="Arial" font-size="14.00" fill="#666666">[text]</text>
<polygon fill="none" stroke="black" points="780.25,-135.6 780.25,-166.4 1009.22,-166.4 1009.22,-135.6 780.25,-135.6"/>
<text text-anchor="start" x="787.25" y="-147.8" font-family="Arial" font-size="14.00">name </text>
<text text-anchor="start" x="826.17" y="-147.8" font-family="Arial" font-size="14.00" fill="#666666">[text]</text>
<polygon fill="none" stroke="black" points="780.25,-104.8 780.25,-135.6 1009.22,-135.6 1009.22,-104.8 780.25,-104.8"/>
<text text-anchor="start" x="787.25" y="-117" font-family="Arial" font-size="14.00">details </text>
<text text-anchor="start" x="831.61" y="-117" font-family="Arial" font-size="14.00" fill="#666666">[text]</text>
</g>
<!-- public.query_parameter&#45;&gt;public.query -->
<g id="edge2" class="edge">
<title>public.query_parameter:model_key&#45;&gt;public.query:model_key</title>
<path fill="none" stroke="black" d="M887.01,-711.99C995.38,-702.88 921.04,-545.86 875.69,-435.2 852.69,-379.06 803.46,-393.66 780.25,-337.6 764.24,-298.91 737.39,-243.4 779.25,-243.4"/>
<polygon fill="black" stroke="black" points="887.02,-711.98 876.85,-707.89 881.69,-712.2 877.36,-712.37 877.36,-712.37 877.36,-712.37 881.69,-712.2 877.21,-716.88 887.02,-711.98"/>
<text text-anchor="start" x="883.69" y="-722.4" font-family="Arial" font-size="10.00">FOREIGN KEY (model_key, query_key) REFERENCES query(model_key, query_key) ON DELETE CASCADE</text>
</g>
<!-- public.query_parameter_invariant -->
<g id="node4" class="node">
<title>public.query_parameter_invariant</title>
<polygon fill="#efefef" stroke="none" points="529.29,-1012 529.29,-1047.6 912.18,-1047.6 912.18,-1012 529.29,-1012"/>
<polygon fill="none" stroke="black" points="529.29,-1012 529.29,-1047.6 912.18,-1047.6 912.18,-1012 529.29,-1012"/>
<text text-anchor="start" x="536.29" y="-1025.4" font-family="Arial Bold" font-size="18.00">public.query_parameter_invariant</text>
<text text-anchor="start" x="780.69" y="-1025.4" font-family="Arial" font-size="14.00">    </text>
<text text-anchor="start" x="811.81" y="-1025.4" font-family="Arial" font-size="14.00" fill="#666666">[BASE TABLE]</text>
<polygon fill="none" stroke="black" points="529.29,-981.2 529.29,-1012 912.18,-1012 912.18,-981.2 529.29,-981.2"/>
<text text-anchor="start" x="536.29" y="-993.4" font-family="Arial" font-size="14.00">model_key </text>
<text text-anchor="start" x="607.89" y="-993.4" font-family="Arial" font-size="14.00" fill="#666666">[text]</text>
<polygon fill="none" stroke="black" points="529.29,-950.4 529.29,-981.2 912.18,-981.2 912.18,-950.4 529.29,-950.4"/>
<text text-anchor="start" x="536.29" y="-962.6" font-family="Arial" font-size="14.00">query_key </text>
<text text-anchor="start" x="604.78" y="-962.6" font-family="Arial" font-size="14.00" fill="#666666">[text]</text>
<polygon fill="none" stroke="black" points="529.29,-919.6 529.29,-950.4 912.18,-950.4 912.18,-919.6 529.29,-919.6"/>
<text text-anchor="start" x="536.29" y="-931.8" font-family="Arial" font-size="14.00">parameter_key </text>
<text text-anchor="start" x="633.56" y="-931.8" font-family="Arial" font-size="14.00" fill="#666666">[text]</text>
<polygon fill="none" stroke="black" points="529.29,-888.8 529.29,-919.6 912.18,-919.6 912.18,-888.8 529.29,-888.8"/>
<text text-anchor="start" x="536.29" y="-901" font-family="Arial" font-size="14.00">logic_key </text>
<text text-anchor="start" x="598.55" y="-901" font-family="Arial" font-size="14.00" fill="#666666">[text]</text>
</g>
<!-- public.query_parameter_invariant&#45;&gt;public.query_parameter -->
<g id="edge3" class="edge">
<title>public.query_parameter_invariant:model_key&#45;&gt;public.query_parameter:model_key</title>
<path fill="none" stroke="black" d="M923.26,-995.97C1038.46,-981.27 1000.56,-712.4 876.69,-712.4"/>
<polygon fill="black" stroke="black" points="923.49,-995.96 913.24,-992.09 918.17,-996.29 913.85,-996.56 913.85,-996.56 913.85,-996.56 918.17,-996.29 913.79,-1001.07 923.49,-995.96"/>
<text text-anchor="start" x="920.18" y="-1006.6" font-family="Arial" font-size="10.00">FOREIGN KEY (model_key, query_key, parameter_key) REFERENCES query_parameter(model_key, query_key, parameter_key) ON DELETE CASCADE</text>
</g>
</g>
</svg>
