<?xml version="1.0" encoding="UTF-8" standalone="no"?>
<!DOCTYPE svg PUBLIC "-//W3C//DTD SVG 1.1//EN"
 "http://www.w3.org/Graphics/SVG/1.1/DTD/svg11.dtd">
<!-- Generated by graphviz version 12.1.2 (20240928.0832)
 -->
<!-- Title: public.action_guarantee Pages: 1 -->
<svg width="1329pt" height="602pt"
 viewBox="0.00 0.00 1328.67 602.00" xmlns="http://www.w3.org/2000/svg" xmlns:xlink="http://www.w3.org/1999/xlink">
<g id="graph0" class="graph" transform="scale(1 1) rotate(0) translate(4 598)">
<title>public.action_guarantee</title>
<polygon fill="white" stroke="none" points="-4,4 -4,-598 1324.67,-598 1324.67,4 -4,4"/>
<!-- public.action_guarantee -->
<g id="node1" class="node">
<title>public.action_guarantee</title>
<polygon fill="#efefef" stroke="none" points="495.7,-512.2 495.7,-547.8 806.62,-547.8 806.62,-512.2 495.7,-512.2"/>
<polygon fill="none" stroke="black" points="495.7,-512.2 495.7,-547.8 806.62,-547.8 806.62,-512.2 495.7,-512.2"/>
<text text-anchor="start" x="502.7" y="-525.6" font-family="Arial Bold" font-size="18.00">public.action_guarantee</text>
<text text-anchor="start" x="675.13" y="-525.6" font-family="Arial" font-size="14.00">    </text>
<text text-anchor="start" x="706.24" y="-525.6" font-family="Arial" font-size="14.00" fill="#666666">[BASE TABLE]</text>
<polygon fill="none" stroke="black" points="495.7,-481.4 495.7,-512.2 806.62,-512.2 806.62,-481.4 495.7,-481.4"/>
<text text-anchor="start" x="502.7" y="-493.6" font-family="Arial" font-size="14.00">model_key </text>
<text text-anchor="start" x="574.3" y="-493.6" font-family="Arial" font-size="14.00" fill="#666666">[text]</text>
<polygon fill="none" stroke="black" points="495.7,-450.6 495.7,-481.4 806.62,-481.4 806.62,-450.6 495.7,-450.6"/>
<text text-anchor="start" x="502.7" y="-462.8" font-family="Arial" font-size="14.00">action_key </text>
<text text-anchor="start" x="573.52" y="-462.8" font-family="Arial" font-size="14.00" fill="#666666">[text]</text>
<polygon fill="none" stroke="black" points="495.7,-419.8 495.7,-450.6 806.62,-450.6 806.62,-419.8 495.7,-419.8"/>
<text text-anchor="start" x="502.7" y="-432" font-family="Arial" font-size="14.00">logic_key </text>
<text text-anchor="start" x="564.96" y="-432" font-family="Arial" font-size="14.00" fill="#666666">[text]</text>
<polygon fill="none" stroke="black" stroke-width="3" points="494.2,-418.3 494.2,-549.3 808.12,-549.3 808.12,-418.3 494.2,-418.3"/>
</g>
<!-- public.logic -->
<g id="node2" class="node">
<title>public.logic</title>
<polygon fill="#efefef" stroke="none" points="373.17,-258.8 373.17,-294.4 597.15,-294.4 597.15,-258.8 373.17,-258.8"/>
<polygon fill="none" stroke="black" points="373.17,-258.8 373.17,-294.4 597.15,-294.4 597.15,-258.8 373.17,-258.8"/>
<text text-anchor="start" x="380.17" y="-272.2" font-family="Arial Bold" font-size="18.00">public.logic</text>
<text text-anchor="start" x="465.66" y="-272.2" font-family="Arial" font-size="14.00">    </text>
<text text-anchor="start" x="496.77" y="-272.2" font-family="Arial" font-size="14.00" fill="#666666">[BASE TABLE]</text>
<polygon fill="none" stroke="black" points="373.17,-228 373.17,-258.8 597.15,-258.8 597.15,-228 373.17,-228"/>
<text text-anchor="start" x="380.17" y="-240.2" font-family="Arial" font-size="14.00">logic_key </text>
<text text-anchor="start" x="442.43" y="-240.2" font-family="Arial" font-size="14.00" fill="#666666">[text]</text>
<polygon fill="none" stroke="black" points="373.17,-197.2 373.17,-228 597.15,-228 597.15,-197.2 373.17,-197.2"/>
<text text-anchor="start" x="380.17" y="-209.4" font-family="Arial" font-size="14.00">model_key </text>
<text text-anchor="start" x="451.77" y="-209.4" font-family="Arial" font-size="14.00" fill="#666666">[text]</text>
<polygon fill="none" stroke="black" points="373.17,-166.4 373.17,-197.2 597.15,-197.2 597.15,-166.4 373.17,-166.4"/>
<text text-anchor="start" x="380.17" y="-178.6" font-family="Arial" font-size="14.00">sort_order </text>
<text text-anchor="start" x="447.87" y="-178.6" font-family="Arial" font-size="14.00" fill="#666666">[integer]</text>
<polygon fill="none" stroke="black" points="373.17,-135.6 373.17,-166.4 597.15,-166.4 597.15,-135.6 373.17,-135.6"/>
<text text-anchor="start" x="380.17" y="-147.8" font-family="Arial" font-size="14.00">logic_type </text>
<text text-anchor="start" x="447.1" y="-147.8" font-family="Arial" font-size="14.00" fill="#666666">[logic_type]</text>
<polygon fill="none" stroke="black" points="373.17,-104.8 373.17,-135.6 597.15,-135.6 597.15,-104.8 373.17,-104.8"/>
<text text-anchor="start" x="380.17" y="-117" font-family="Arial" font-size="14.00">description </text>
<text text-anchor="start" x="451.77" y="-117" font-family="Arial" font-size="14.00" fill="#666666">[text]</text>
<polygon fill="none" stroke="black" points="373.17,-74 373.17,-104.8 597.15,-104.8 597.15,-74 373.17,-74"/>
<text text-anchor="start" x="380.17" y="-86.2" font-family="Arial" font-size="14.00">notation </text>
<text text-anchor="start" x="433.88" y="-86.2" font-family="Arial" font-size="14.00" fill="#666666">[notation]</text>
<polygon fill="none" stroke="black" points="373.17,-43.2 373.17,-74 597.15,-74 597.15,-43.2 373.17,-43.2"/>
<text text-anchor="start" x="380.17" y="-55.4" font-family="Arial" font-size="14.00">specification </text>
<text text-anchor="start" x="461.1" y="-55.4" font-family="Arial" font-size="14.00" fill="#666666">[text]</text>
</g>
<!-- public.action_guarantee&#45;&gt;public.logic -->
<g id="edge1" class="edge">
<title>public.action_guarantee:model_key&#45;&gt;public.logic:model_key</title>
<path fill="none" stroke="black" d="M484.55,-495.73C443.26,-486.21 466.11,-415.15 495.7,-373.6 523.46,-334.63 569.39,-376.57 597.15,-337.6 629.38,-292.35 653.7,-212.6 598.15,-212.6"/>
<polygon fill="black" stroke="black" points="484.43,-495.72 493.9,-501.24 489.73,-496.28 494.04,-496.73 494.04,-496.73 494.04,-496.73 489.73,-496.28 494.84,-492.29 484.43,-495.72"/>
<text text-anchor="start" x="7" y="-506.8" font-family="Arial" font-size="10.00">FOREIGN KEY (model_key, logic_key) REFERENCES logic(model_key, logic_key) ON DELETE CASCADE</text>
</g>
<!-- public.action -->
<g id="node3" class="node">
<title>public.action</title>
<polygon fill="#efefef" stroke="none" points="701.18,-228 701.18,-263.6 933.14,-263.6 933.14,-228 701.18,-228"/>
<polygon fill="none" stroke="black" points="701.18,-228 701.18,-263.6 933.14,-263.6 933.14,-228 701.18,-228"/>
<text text-anchor="start" x="708.18" y="-241.4" font-family="Arial Bold" font-size="18.00">public.action</text>
<text text-anchor="start" x="801.65" y="-241.4" font-family="Arial" font-size="14.00">    </text>
<text text-anchor="start" x="832.77" y="-241.4" font-family="Arial" font-size="14.00" fill="#666666">[BASE TABLE]</text>
<polygon fill="none" stroke="black" points="701.18,-197.2 701.18,-228 933.14,-228 933.14,-197.2 701.18,-197.2"/>
<text text-anchor="start" x="708.18" y="-209.4" font-family="Arial" font-size="14.00">model_key </text>
<text text-anchor="start" x="779.77" y="-209.4" font-family="Arial" font-size="14.00" fill="#666666">[text]</text>
<polygon fill="none" stroke="black" points="701.18,-166.4 701.18,-197.2 933.14,-197.2 933.14,-166.4 701.18,-166.4"/>
<text text-anchor="start" x="708.18" y="-178.6" font-family="Arial" font-size="14.00">class_key </text>
<text text-anchor="start" x="773.54" y="-178.6" font-family="Arial" font-size="14.00" fill="#666666">[text]</text>
<polygon fill="none" stroke="black" points="701.18,-135.6 701.18,-166.4 933.14,-166.4 933.14,-135.6 701.18,-135.6"/>
<text text-anchor="start" x="708.18" y="-147.8" font-family="Arial" font-size="14.00">action_key </text>
<text text-anchor="start" x="779" y="-147.8" font-family="Arial" font-size="14.00" fill="#666666">[text]</text>
<polygon fill="none" stroke="black" points="701.18,-104.8 701.18,-135.6 933.14,-135.6 933.14,-104.8 701.18,-104.8"/>
<text text-anchor="start" x="708.18" y="-117" font-family="Arial" font-size="14.00">name </text>
<text text-anchor="start" x="747.09" y="-117" font-family="Arial" font-size="14.00" fill="#666666">[text]</text>
<polygon fill="none" stroke="black" points="701.18,-74 701.18,-104.8 933.14,-104.8 933.14,-74 701.18,-74"/>
<text text-anchor="start" x="708.18" y="-86.2" font-family="Arial" font-size="14.00">details </text>
<text text-anchor="start" x="752.54" y="-86.2" font-family="Arial" font-size="14.00" fill="#666666">[text]</text>
</g>
<!-- public.action_guarantee&#45;&gt;public.action -->
<g id="edge2" class="edge">
<title>public.action_guarantee:model_key&#45;&gt;public.action:model_key</title>
<path fill="none" stroke="black" d="M817.95,-495.72C858.28,-486.34 831.34,-418.1 806.62,-373.6 779.68,-325.11 728.18,-355.26 701.18,-306.8 680.8,-270.23 658.31,-212.6 700.18,-212.6"/>
<polygon fill="black" stroke="black" points="817.89,-495.72 807.48,-492.29 812.59,-496.28 808.28,-496.73 808.28,-496.73 808.28,-496.73 812.59,-496.28 808.42,-501.24 817.89,-495.72"/>
<text text-anchor="start" x="814.62" y="-506.8" font-family="Arial" font-size="10.00">FOREIGN KEY (model_key, action_key) REFERENCES action(model_key, action_key) ON DELETE CASCADE</text>
</g>
</g>
</svg>
