<?xml version="1.0" encoding="UTF-8" standalone="no"?>
<!DOCTYPE svg PUBLIC "-//W3C//DTD SVG 1.1//EN"
 "http://www.w3.org/Graphics/SVG/1.1/DTD/svg11.dtd">
<!-- Generated by graphviz version 12.1.2 (20240928.0832)
 -->
<!-- Title: public.query Pages: 1 -->
<svg width="870pt" height="1191pt"
 viewBox="0.00 0.00 870.16 1191.20" xmlns="http://www.w3.org/2000/svg" xmlns:xlink="http://www.w3.org/1999/xlink">
<g id="graph0" class="graph" transform="scale(1 1) rotate(0) translate(4 1187.2)">
<title>public.query</title>
<polygon fill="white" stroke="none" points="-4,4 -4,-1187.2 866.16,-1187.2 866.16,4 -4,4"/>
<!-- public.query -->
<g id="node1" class="node">
<title>public.query</title>
<polygon fill="#efefef" stroke="none" points="83.67,-697 83.67,-732.6 312.64,-732.6 312.64,-697 83.67,-697"/>
<polygon fill="none" stroke="black" points="83.67,-697 83.67,-732.6 312.64,-732.6 312.64,-697 83.67,-697"/>
<text text-anchor="start" x="90.67" y="-710.4" font-family="Arial Bold" font-size="18.00">public.query</text>
<text text-anchor="start" x="181.15" y="-710.4" font-family="Arial" font-size="14.00">    </text>
<text text-anchor="start" x="212.27" y="-710.4" font-family="Arial" font-size="14.00" fill="#666666">[BASE TABLE]</text>
<polygon fill="none" stroke="black" points="83.67,-666.2 83.67,-697 312.64,-697 312.64,-666.2 83.67,-666.2"/>
<text text-anchor="start" x="90.67" y="-678.4" font-family="Arial" font-size="14.00">model_key </text>
<text text-anchor="start" x="162.27" y="-678.4" font-family="Arial" font-size="14.00" fill="#666666">[text]</text>
<polygon fill="none" stroke="black" points="83.67,-635.4 83.67,-666.2 312.64,-666.2 312.64,-635.4 83.67,-635.4"/>
<text text-anchor="start" x="90.67" y="-647.6" font-family="Arial" font-size="14.00">class_key </text>
<text text-anchor="start" x="156.03" y="-647.6" font-family="Arial" font-size="14.00" fill="#666666">[text]</text>
<polygon fill="none" stroke="black" points="83.67,-604.6 83.67,-635.4 312.64,-635.4 312.64,-604.6 83.67,-604.6"/>
<text text-anchor="start" x="90.67" y="-616.8" font-family="Arial" font-size="14.00">query_key </text>
<text text-anchor="start" x="159.16" y="-616.8" font-family="Arial" font-size="14.00" fill="#666666">[text]</text>
<polygon fill="none" stroke="black" points="83.67,-573.8 83.67,-604.6 312.64,-604.6 312.64,-573.8 83.67,-573.8"/>
<text text-anchor="start" x="90.67" y="-586" font-family="Arial" font-size="14.00">name </text>
<text text-anchor="start" x="129.58" y="-586" font-family="Arial" font-size="14.00" fill="#666666">[text]</text>
<polygon fill="none" stroke="black" points="83.67,-543 83.67,-573.8 312.64,-573.8 312.64,-543 83.67,-543"/>
<text text-anchor="start" x="90.67" y="-555.2" font-family="Arial" font-size="14.00">details </text>
<text text-anchor="start" x="135.03" y="-555.2" font-family="Arial" font-size="14.00" fill="#666666">[text]</text>
<polygon fill="none" stroke="black" points="83.67,-512.2 83.67,-543 312.64,-543 312.64,-512.2 83.67,-512.2"/>
<text text-anchor="start" x="90.67" y="-524.4" font-family="Arial" font-size="14.00">requires </text>
<text text-anchor="start" x="145.14" y="-524.4" font-family="Arial" font-size="14.00" fill="#666666">[text[]]</text>
<polygon fill="none" stroke="black" points="83.67,-481.4 83.67,-512.2 312.64,-512.2 312.64,-481.4 83.67,-481.4"/>
<text text-anchor="start" x="90.67" y="-493.6" font-family="Arial" font-size="14.00">guarantees </text>
<text text-anchor="start" x="164.62" y="-493.6" font-family="Arial" font-size="14.00" fill="#666666">[text[]]</text>
<polygon fill="none" stroke="black" stroke-width="3" points="82.17,-479.9 82.17,-734.1 314.14,-734.1 314.14,-479.9 82.17,-479.9"/>
</g>
<!-- public.class -->
<g id="node2" class="node">
<title>public.class</title>
<polygon fill="#efefef" stroke="none" points="86.67,-320.4 86.67,-356 309.64,-356 309.64,-320.4 86.67,-320.4"/>
<polygon fill="none" stroke="black" points="86.67,-320.4 86.67,-356 309.64,-356 309.64,-320.4 86.67,-320.4"/>
<text text-anchor="start" x="93.67" y="-333.8" font-family="Arial Bold" font-size="18.00">public.class</text>
<text text-anchor="start" x="178.15" y="-333.8" font-family="Arial" font-size="14.00">    </text>
<text text-anchor="start" x="209.27" y="-333.8" font-family="Arial" font-size="14.00" fill="#666666">[BASE TABLE]</text>
<polygon fill="none" stroke="black" points="86.67,-289.6 86.67,-320.4 309.64,-320.4 309.64,-289.6 86.67,-289.6"/>
<text text-anchor="start" x="93.67" y="-301.8" font-family="Arial" font-size="14.00">model_key </text>
<text text-anchor="start" x="165.26" y="-301.8" font-family="Arial" font-size="14.00" fill="#666666">[text]</text>
<polygon fill="none" stroke="black" points="86.67,-258.8 86.67,-289.6 309.64,-289.6 309.64,-258.8 86.67,-258.8"/>
<text text-anchor="start" x="93.67" y="-271" font-family="Arial" font-size="14.00">class_key </text>
<text text-anchor="start" x="159.03" y="-271" font-family="Arial" font-size="14.00" fill="#666666">[text]</text>
<polygon fill="none" stroke="black" points="86.67,-228 86.67,-258.8 309.64,-258.8 309.64,-228 86.67,-228"/>
<text text-anchor="start" x="93.67" y="-240.2" font-family="Arial" font-size="14.00">name </text>
<text text-anchor="start" x="132.58" y="-240.2" font-family="Arial" font-size="14.00" fill="#666666">[text]</text>
<polygon fill="none" stroke="black" points="86.67,-197.2 86.67,-228 309.64,-228 309.64,-197.2 86.67,-197.2"/>
<text text-anchor="start" x="93.67" y="-209.4" font-family="Arial" font-size="14.00">subdomain_key </text>
<text text-anchor="start" x="195.62" y="-209.4" font-family="Arial" font-size="14.00" fill="#666666">[text]</text>
<polygon fill="none" stroke="black" points="86.67,-166.4 86.67,-197.2 309.64,-197.2 309.64,-166.4 86.67,-166.4"/>
<text text-anchor="start" x="93.67" y="-178.6" font-family="Arial" font-size="14.00">actor_key </text>
<text text-anchor="start" x="158.26" y="-178.6" font-family="Arial" font-size="14.00" fill="#666666">[text]</text>
<polygon fill="none" stroke="black" points="86.67,-135.6 86.67,-166.4 309.64,-166.4 309.64,-135.6 86.67,-135.6"/>
<text text-anchor="start" x="93.67" y="-147.8" font-family="Arial" font-size="14.00">superclass_of_key </text>
<text text-anchor="start" x="213.51" y="-147.8" font-family="Arial" font-size="14.00" fill="#666666">[text]</text>
<polygon fill="none" stroke="black" points="86.67,-104.8 86.67,-135.6 309.64,-135.6 309.64,-104.8 86.67,-104.8"/>
<text text-anchor="start" x="93.67" y="-117" font-family="Arial" font-size="14.00">subclass_of_key </text>
<text text-anchor="start" x="201.06" y="-117" font-family="Arial" font-size="14.00" fill="#666666">[text]</text>
<polygon fill="none" stroke="black" points="86.67,-74 86.67,-104.8 309.64,-104.8 309.64,-74 86.67,-74"/>
<text text-anchor="start" x="93.67" y="-86.2" font-family="Arial" font-size="14.00">details </text>
<text text-anchor="start" x="138.03" y="-86.2" font-family="Arial" font-size="14.00" fill="#666666">[text]</text>
<polygon fill="none" stroke="black" points="86.67,-43.2 86.67,-74 309.64,-74 309.64,-43.2 86.67,-43.2"/>
<text text-anchor="start" x="93.67" y="-55.4" font-family="Arial" font-size="14.00">uml_comment </text>
<text text-anchor="start" x="185.48" y="-55.4" font-family="Arial" font-size="14.00" fill="#666666">[text]</text>
</g>
<!-- public.query&#45;&gt;public.class -->
<g id="edge1" class="edge">
<title>public.query:model_key&#45;&gt;public.class:model_key</title>
<path fill="none" stroke="black" d="M323.72,-681.13C480.83,-666.31 474.59,-305 310.64,-305"/>
<polygon fill="black" stroke="black" points="323.96,-681.12 313.76,-677.09 318.63,-681.37 314.31,-681.57 314.31,-681.57 314.31,-681.57 318.63,-681.37 314.18,-686.08 323.96,-681.12"/>
<text text-anchor="start" x="320.64" y="-691.6" font-family="Arial" font-size="10.00">FOREIGN KEY (model_key, class_key) REFERENCES class(model_key, class_key) ON DELETE CASCADE</text>
</g>
<!-- public.query_parameter -->
<g id="node3" class="node">
<title>public.query_parameter</title>
<polygon fill="#efefef" stroke="none" points="43.2,-1104.4 43.2,-1140 353.11,-1140 353.11,-1104.4 43.2,-1104.4"/>
<polygon fill="none" stroke="black" points="43.2,-1104.4 43.2,-1140 353.11,-1140 353.11,-1104.4 43.2,-1104.4"/>
<text text-anchor="start" x="50.2" y="-1117.8" font-family="Arial Bold" font-size="18.00">public.query_parameter</text>
<text text-anchor="start" x="221.62" y="-1117.8" font-family="Arial" font-size="14.00">    </text>
<text text-anchor="start" x="252.74" y="-1117.8" font-family="Arial" font-size="14.00" fill="#666666">[BASE TABLE]</text>
<polygon fill="none" stroke="black" points="43.2,-1073.6 43.2,-1104.4 353.11,-1104.4 353.11,-1073.6 43.2,-1073.6"/>
<text text-anchor="start" x="50.2" y="-1085.8" font-family="Arial" font-size="14.00">model_key </text>
<text text-anchor="start" x="121.79" y="-1085.8" font-family="Arial" font-size="14.00" fill="#666666">[text]</text>
<polygon fill="none" stroke="black" points="43.2,-1042.8 43.2,-1073.6 353.11,-1073.6 353.11,-1042.8 43.2,-1042.8"/>
<text text-anchor="start" x="50.2" y="-1055" font-family="Arial" font-size="14.00">parameter_key </text>
<text text-anchor="start" x="147.47" y="-1055" font-family="Arial" font-size="14.00" fill="#666666">[text]</text>
<polygon fill="none" stroke="black" points="43.2,-1012 43.2,-1042.8 353.11,-1042.8 353.11,-1012 43.2,-1012"/>
<text text-anchor="start" x="50.2" y="-1024.2" font-family="Arial" font-size="14.00">query_key </text>
<text text-anchor="start" x="118.68" y="-1024.2" font-family="Arial" font-size="14.00" fill="#666666">[text]</text>
<polygon fill="none" stroke="black" points="43.2,-981.2 43.2,-1012 353.11,-1012 353.11,-981.2 43.2,-981.2"/>
<text text-anchor="start" x="50.2" y="-993.4" font-family="Arial" font-size="14.00">data_type_rules </text>
<text text-anchor="start" x="153.72" y="-993.4" font-family="Arial" font-size="14.00" fill="#666666">[text]</text>
<polygon fill="none" stroke="black" points="43.2,-950.4 43.2,-981.2 353.11,-981.2 353.11,-950.4 43.2,-950.4"/>
<text text-anchor="start" x="50.2" y="-962.6" font-family="Arial" font-size="14.00">data_type_key </text>
<text text-anchor="start" x="145.16" y="-962.6" font-family="Arial" font-size="14.00" fill="#666666">[text]</text>
<polygon fill="none" stroke="black" points="43.2,-919.6 43.2,-950.4 353.11,-950.4 353.11,-919.6 43.2,-919.6"/>
<text text-anchor="start" x="50.2" y="-931.8" font-family="Arial" font-size="14.00">name </text>
<text text-anchor="start" x="89.11" y="-931.8" font-family="Arial" font-size="14.00" fill="#666666">[text]</text>
<polygon fill="none" stroke="black" points="43.2,-888.8 43.2,-919.6 353.11,-919.6 353.11,-888.8 43.2,-888.8"/>
<text text-anchor="start" x="50.2" y="-901" font-family="Arial" font-size="14.00">details </text>
<text text-anchor="start" x="94.56" y="-901" font-family="Arial" font-size="14.00" fill="#666666">[text]</text>
<polygon fill="none" stroke="black" points="43.2,-858 43.2,-888.8 353.11,-888.8 353.11,-858 43.2,-858"/>
<text text-anchor="start" x="50.2" y="-870.2" font-family="Arial" font-size="14.00">uml_comment </text>
<text text-anchor="start" x="142.01" y="-870.2" font-family="Arial" font-size="14.00" fill="#666666">[text]</text>
</g>
<!-- public.query_parameter&#45;&gt;public.query -->
<g id="edge2" class="edge">
<title>public.query_parameter:model_key&#45;&gt;public.query:model_key</title>
<path fill="none" stroke="black" d="M364.18,-1087.18C441.85,-1057.79 401.06,-681.6 313.64,-681.6"/>
<polygon fill="black" stroke="black" points="364.28,-1087.16 353.64,-1084.51 359.03,-1088.11 354.77,-1088.88 354.77,-1088.88 354.77,-1088.88 359.03,-1088.11 355.24,-1093.37 364.28,-1087.16"/>
<text text-anchor="start" x="361.11" y="-1099" font-family="Arial" font-size="10.00">FOREIGN KEY (model_key, query_key) REFERENCES query(model_key, query_key) ON DELETE CASCADE</text>
</g>
</g>
</svg>
