<?xml version="1.0" encoding="UTF-8" standalone="no"?>
<!DOCTYPE svg PUBLIC "-//W3C//DTD SVG 1.1//EN"
 "http://www.w3.org/Graphics/SVG/1.1/DTD/svg11.dtd">
<!-- Generated by graphviz version 12.1.2 (20240928.0832)
 -->
<!-- Title: public.logic Pages: 1 -->
<svg width="4634pt" height="1191pt"
 viewBox="0.00 0.00 4634.46 1191.20" xmlns="http://www.w3.org/2000/svg" xmlns:xlink="http://www.w3.org/1999/xlink">
<g id="graph0" class="graph" transform="scale(1 1) rotate(0) translate(4 1187.2)">
<title>public.logic</title>
<polygon fill="white" stroke="none" points="-4,4 -4,-1187.2 4630.46,-1187.2 4630.46,4 -4,4"/>
<!-- public.logic -->
<g id="node1" class="node">
<title>public.logic</title>
<polygon fill="#efefef" stroke="none" points="2213.74,-635.4 2213.74,-671 2437.71,-671 2437.71,-635.4 2213.74,-635.4"/>
<polygon fill="none" stroke="black" points="2213.74,-635.4 2213.74,-671 2437.71,-671 2437.71,-635.4 2213.74,-635.4"/>
<text text-anchor="start" x="2220.74" y="-648.8" font-family="Arial Bold" font-size="18.00">public.logic</text>
<text text-anchor="start" x="2306.22" y="-648.8" font-family="Arial" font-size="14.00">    </text>
<text text-anchor="start" x="2337.34" y="-648.8" font-family="Arial" font-size="14.00" fill="#666666">[BASE TABLE]</text>
<polygon fill="none" stroke="black" points="2213.74,-604.6 2213.74,-635.4 2437.71,-635.4 2437.71,-604.6 2213.74,-604.6"/>
<text text-anchor="start" x="2220.74" y="-616.8" font-family="Arial" font-size="14.00">logic_key </text>
<text text-anchor="start" x="2282.99" y="-616.8" font-family="Arial" font-size="14.00" fill="#666666">[text]</text>
<polygon fill="none" stroke="black" points="2213.74,-573.8 2213.74,-604.6 2437.71,-604.6 2437.71,-573.8 2213.74,-573.8"/>
<text text-anchor="start" x="2220.74" y="-586" font-family="Arial" font-size="14.00">model_key </text>
<text text-anchor="start" x="2292.33" y="-586" font-family="Arial" font-size="14.00" fill="#666666">[text]</text>
<polygon fill="none" stroke="black" points="2213.74,-543 2213.74,-573.8 2437.71,-573.8 2437.71,-543 2213.74,-543"/>
<text text-anchor="start" x="2220.74" y="-555.2" font-family="Arial" font-size="14.00">sort_order </text>
<text text-anchor="start" x="2288.44" y="-555.2" font-family="Arial" font-size="14.00" fill="#666666">[integer]</text>
<polygon fill="none" stroke="black" points="2213.74,-512.2 2213.74,-543 2437.71,-543 2437.71,-512.2 2213.74,-512.2"/>
<text text-anchor="start" x="2220.74" y="-524.4" font-family="Arial" font-size="14.00">logic_type </text>
<text text-anchor="start" x="2287.67" y="-524.4" font-family="Arial" font-size="14.00" fill="#666666">[logic_type]</text>
<polygon fill="none" stroke="black" points="2213.74,-481.4 2213.74,-512.2 2437.71,-512.2 2437.71,-481.4 2213.74,-481.4"/>
<text text-anchor="start" x="2220.74" y="-493.6" font-family="Arial" font-size="14.00">description </text>
<text text-anchor="start" x="2292.33" y="-493.6" font-family="Arial" font-size="14.00" fill="#666666">[text]</text>
<polygon fill="none" stroke="black" points="2213.74,-450.6 2213.74,-481.4 2437.71,-481.4 2437.71,-450.6 2213.74,-450.6"/>
<text text-anchor="start" x="2220.74" y="-462.8" font-family="Arial" font-size="14.00">target </text>
<text text-anchor="start" x="2260.43" y="-462.8" font-family="Arial" font-size="14.00" fill="#666666">[text]</text>
<polygon fill="none" stroke="black" points="2213.74,-419.8 2213.74,-450.6 2437.71,-450.6 2437.71,-419.8 2213.74,-419.8"/>
<text text-anchor="start" x="2220.74" y="-432" font-family="Arial" font-size="14.00">notation </text>
<text text-anchor="start" x="2274.45" y="-432" font-family="Arial" font-size="14.00" fill="#666666">[notation]</text>
<polygon fill="none" stroke="black" points="2213.74,-389 2213.74,-419.8 2437.71,-419.8 2437.71,-389 2213.74,-389"/>
<text text-anchor="start" x="2220.74" y="-401.2" font-family="Arial" font-size="14.00">specification </text>
<text text-anchor="start" x="2301.67" y="-401.2" font-family="Arial" font-size="14.00" fill="#666666">[text]</text>
<polygon fill="none" stroke="black" points="2213.74,-358.2 2213.74,-389 2437.71,-389 2437.71,-358.2 2213.74,-358.2"/>
<text text-anchor="start" x="2220.74" y="-370.4" font-family="Arial" font-size="14.00">target_type_notation </text>
<text text-anchor="start" x="2352.28" y="-370.4" font-family="Arial" font-size="14.00" fill="#666666">[notation]</text>
<polygon fill="none" stroke="black" points="2213.74,-327.4 2213.74,-358.2 2437.71,-358.2 2437.71,-327.4 2213.74,-327.4"/>
<text text-anchor="start" x="2220.74" y="-339.6" font-family="Arial" font-size="14.00">target_type_specification </text>
<text text-anchor="start" x="2379.5" y="-339.6" font-family="Arial" font-size="14.00" fill="#666666">[text]</text>
<polygon fill="none" stroke="black" stroke-width="3" points="2212.24,-325.9 2212.24,-672.5 2439.21,-672.5 2439.21,-325.9 2212.24,-325.9"/>
</g>
<!-- public.model -->
<g id="node13" class="node">
<title>public.model</title>
<polygon fill="#efefef" stroke="none" points="2209.24,-166.4 2209.24,-202 2442.21,-202 2442.21,-166.4 2209.24,-166.4"/>
<polygon fill="none" stroke="black" points="2209.24,-166.4 2209.24,-202 2442.21,-202 2442.21,-166.4 2209.24,-166.4"/>
<text text-anchor="start" x="2216.24" y="-179.8" font-family="Arial Bold" font-size="18.00">public.model</text>
<text text-anchor="start" x="2310.72" y="-179.8" font-family="Arial" font-size="14.00">    </text>
<text text-anchor="start" x="2341.84" y="-179.8" font-family="Arial" font-size="14.00" fill="#666666">[BASE TABLE]</text>
<polygon fill="none" stroke="black" points="2209.24,-135.6 2209.24,-166.4 2442.21,-166.4 2442.21,-135.6 2209.24,-135.6"/>
<text text-anchor="start" x="2216.24" y="-147.8" font-family="Arial" font-size="14.00">model_key </text>
<text text-anchor="start" x="2287.83" y="-147.8" font-family="Arial" font-size="14.00" fill="#666666">[text]</text>
<polygon fill="none" stroke="black" points="2209.24,-104.8 2209.24,-135.6 2442.21,-135.6 2442.21,-104.8 2209.24,-104.8"/>
<text text-anchor="start" x="2216.24" y="-117" font-family="Arial" font-size="14.00">name </text>
<text text-anchor="start" x="2255.15" y="-117" font-family="Arial" font-size="14.00" fill="#666666">[text]</text>
<polygon fill="none" stroke="black" points="2209.24,-74 2209.24,-104.8 2442.21,-104.8 2442.21,-74 2209.24,-74"/>
<text text-anchor="start" x="2216.24" y="-86.2" font-family="Arial" font-size="14.00">details </text>
<text text-anchor="start" x="2260.6" y="-86.2" font-family="Arial" font-size="14.00" fill="#666666">[text]</text>
<polygon fill="none" stroke="black" points="2209.24,-43.2 2209.24,-74 2442.21,-74 2442.21,-43.2 2209.24,-43.2"/>
<text text-anchor="start" x="2216.24" y="-55.4" font-family="Arial" font-size="14.00">unfinished_notes </text>
<text text-anchor="start" x="2325.99" y="-55.4" font-family="Arial" font-size="14.00" fill="#666666">[text]</text>
</g>
<!-- public.logic&#45;&gt;public.model -->
<g id="edge12" class="edge">
<title>public.logic:model_key&#45;&gt;public.model:model_key</title>
<path fill="none" stroke="black" d="M2449.08,-588.78C2633.57,-573.51 2634.46,-151 2443.21,-151"/>
<polygon fill="black" stroke="black" points="2449.04,-588.78 2438.86,-584.69 2443.71,-589 2439.38,-589.17 2439.38,-589.17 2439.38,-589.17 2443.71,-589 2439.23,-593.68 2449.04,-588.78"/>
<text text-anchor="start" x="2445.71" y="-599.2" font-family="Arial" font-size="10.00">FOREIGN KEY (model_key) REFERENCES model(model_key) ON DELETE CASCADE</text>
</g>
<!-- public.invariant -->
<g id="node2" class="node">
<title>public.invariant</title>
<polygon fill="#efefef" stroke="none" points="241.75,-981.2 241.75,-1016.8 493.7,-1016.8 493.7,-981.2 241.75,-981.2"/>
<polygon fill="none" stroke="black" points="241.75,-981.2 241.75,-1016.8 493.7,-1016.8 493.7,-981.2 241.75,-981.2"/>
<text text-anchor="start" x="248.75" y="-994.6" font-family="Arial Bold" font-size="18.00">public.invariant</text>
<text text-anchor="start" x="362.21" y="-994.6" font-family="Arial" font-size="14.00">    </text>
<text text-anchor="start" x="393.33" y="-994.6" font-family="Arial" font-size="14.00" fill="#666666">[BASE TABLE]</text>
<polygon fill="none" stroke="black" points="241.75,-950.4 241.75,-981.2 493.7,-981.2 493.7,-950.4 241.75,-950.4"/>
<text text-anchor="start" x="248.75" y="-962.6" font-family="Arial" font-size="14.00">model_key </text>
<text text-anchor="start" x="320.34" y="-962.6" font-family="Arial" font-size="14.00" fill="#666666">[text]</text>
<polygon fill="none" stroke="black" points="241.75,-919.6 241.75,-950.4 493.7,-950.4 493.7,-919.6 241.75,-919.6"/>
<text text-anchor="start" x="248.75" y="-931.8" font-family="Arial" font-size="14.00">logic_key </text>
<text text-anchor="start" x="311" y="-931.8" font-family="Arial" font-size="14.00" fill="#666666">[text]</text>
</g>
<!-- public.invariant&#45;&gt;public.logic -->
<g id="edge1" class="edge">
<title>public.invariant:model_key&#45;&gt;public.logic:model_key</title>
<path fill="none" stroke="black" d="M505.12,-965.13C582.84,-954.31 475.32,-814.54 545.73,-753.2 686.06,-630.94 2026.62,-589.2 2212.74,-589.2"/>
<polygon fill="black" stroke="black" points="505.02,-965.14 494.75,-961.29 499.69,-965.48 495.37,-965.76 495.37,-965.76 495.37,-965.76 499.69,-965.48 495.32,-970.27 505.02,-965.14"/>
<text text-anchor="start" x="7" y="-975.8" font-family="Arial" font-size="10.00">FOREIGN KEY (model_key, logic_key) REFERENCES logic(model_key, logic_key) ON DELETE CASCADE</text>
</g>
<!-- public.global_function -->
<g id="node3" class="node">
<title>public.global_function</title>
<polygon fill="#efefef" stroke="none" points="597.75,-1012 597.75,-1047.6 899.7,-1047.6 899.7,-1012 597.75,-1012"/>
<polygon fill="none" stroke="black" points="597.75,-1012 597.75,-1047.6 899.7,-1047.6 899.7,-1012 597.75,-1012"/>
<text text-anchor="start" x="604.75" y="-1025.4" font-family="Arial Bold" font-size="18.00">public.global_function</text>
<text text-anchor="start" x="768.21" y="-1025.4" font-family="Arial" font-size="14.00">    </text>
<text text-anchor="start" x="799.33" y="-1025.4" font-family="Arial" font-size="14.00" fill="#666666">[BASE TABLE]</text>
<polygon fill="none" stroke="black" points="597.75,-981.2 597.75,-1012 899.7,-1012 899.7,-981.2 597.75,-981.2"/>
<text text-anchor="start" x="604.75" y="-993.4" font-family="Arial" font-size="14.00">model_key </text>
<text text-anchor="start" x="676.34" y="-993.4" font-family="Arial" font-size="14.00" fill="#666666">[text]</text>
<polygon fill="none" stroke="black" points="597.75,-950.4 597.75,-981.2 899.7,-981.2 899.7,-950.4 597.75,-950.4"/>
<text text-anchor="start" x="604.75" y="-962.6" font-family="Arial" font-size="14.00">logic_key </text>
<text text-anchor="start" x="667" y="-962.6" font-family="Arial" font-size="14.00" fill="#666666">[text]</text>
<polygon fill="none" stroke="black" points="597.75,-919.6 597.75,-950.4 899.7,-950.4 899.7,-919.6 597.75,-919.6"/>
<text text-anchor="start" x="604.75" y="-931.8" font-family="Arial" font-size="14.00">name </text>
<text text-anchor="start" x="643.66" y="-931.8" font-family="Arial" font-size="14.00" fill="#666666">[text]</text>
<polygon fill="none" stroke="black" points="597.75,-888.8 597.75,-919.6 899.7,-919.6 899.7,-888.8 597.75,-888.8"/>
<text text-anchor="start" x="604.75" y="-901" font-family="Arial" font-size="14.00">parameters </text>
<text text-anchor="start" x="679.44" y="-901" font-family="Arial" font-size="14.00" fill="#666666">[text[]]</text>
</g>
<!-- public.global_function&#45;&gt;public.logic -->
<g id="edge2" class="edge">
<title>public.global_function:model_key&#45;&gt;public.logic:model_key</title>
<path fill="none" stroke="black" d="M910.9,-996.05C1002.14,-985.53 873.3,-825.78 951.73,-753.2 1055.42,-657.23 2071.45,-589.2 2212.74,-589.2"/>
<polygon fill="black" stroke="black" points="911.02,-996.05 900.8,-992.09 905.7,-996.33 901.37,-996.56 901.37,-996.56 901.37,-996.56 905.7,-996.33 901.28,-1001.08 911.02,-996.05"/>
<text text-anchor="start" x="413" y="-1006.6" font-family="Arial" font-size="10.00">FOREIGN KEY (model_key, logic_key) REFERENCES logic(model_key, logic_key) ON DELETE CASCADE</text>
</g>
<!-- public.attribute -->
<g id="node4" class="node">
<title>public.attribute</title>
<polygon fill="#efefef" stroke="none" points="1003.75,-1104.4 1003.75,-1140 1251.7,-1140 1251.7,-1104.4 1003.75,-1104.4"/>
<polygon fill="none" stroke="black" points="1003.75,-1104.4 1003.75,-1140 1251.7,-1140 1251.7,-1104.4 1003.75,-1104.4"/>
<text text-anchor="start" x="1010.75" y="-1117.8" font-family="Arial Bold" font-size="18.00">public.attribute</text>
<text text-anchor="start" x="1120.21" y="-1117.8" font-family="Arial" font-size="14.00">    </text>
<text text-anchor="start" x="1151.33" y="-1117.8" font-family="Arial" font-size="14.00" fill="#666666">[BASE TABLE]</text>
<polygon fill="none" stroke="black" points="1003.75,-1073.6 1003.75,-1104.4 1251.7,-1104.4 1251.7,-1073.6 1003.75,-1073.6"/>
<text text-anchor="start" x="1010.75" y="-1085.8" font-family="Arial" font-size="14.00">model_key </text>
<text text-anchor="start" x="1082.34" y="-1085.8" font-family="Arial" font-size="14.00" fill="#666666">[text]</text>
<polygon fill="none" stroke="black" points="1003.75,-1042.8 1003.75,-1073.6 1251.7,-1073.6 1251.7,-1042.8 1003.75,-1042.8"/>
<text text-anchor="start" x="1010.75" y="-1055" font-family="Arial" font-size="14.00">attribute_key </text>
<text text-anchor="start" x="1094.79" y="-1055" font-family="Arial" font-size="14.00" fill="#666666">[text]</text>
<polygon fill="none" stroke="black" points="1003.75,-1012 1003.75,-1042.8 1251.7,-1042.8 1251.7,-1012 1003.75,-1012"/>
<text text-anchor="start" x="1010.75" y="-1024.2" font-family="Arial" font-size="14.00">class_key </text>
<text text-anchor="start" x="1076.1" y="-1024.2" font-family="Arial" font-size="14.00" fill="#666666">[text]</text>
<polygon fill="none" stroke="black" points="1003.75,-981.2 1003.75,-1012 1251.7,-1012 1251.7,-981.2 1003.75,-981.2"/>
<text text-anchor="start" x="1010.75" y="-993.4" font-family="Arial" font-size="14.00">name </text>
<text text-anchor="start" x="1049.66" y="-993.4" font-family="Arial" font-size="14.00" fill="#666666">[text]</text>
<polygon fill="none" stroke="black" points="1003.75,-950.4 1003.75,-981.2 1251.7,-981.2 1251.7,-950.4 1003.75,-950.4"/>
<text text-anchor="start" x="1010.75" y="-962.6" font-family="Arial" font-size="14.00">details </text>
<text text-anchor="start" x="1055.1" y="-962.6" font-family="Arial" font-size="14.00" fill="#666666">[text]</text>
<polygon fill="none" stroke="black" points="1003.75,-919.6 1003.75,-950.4 1251.7,-950.4 1251.7,-919.6 1003.75,-919.6"/>
<text text-anchor="start" x="1010.75" y="-931.8" font-family="Arial" font-size="14.00">data_type_rules </text>
<text text-anchor="start" x="1114.26" y="-931.8" font-family="Arial" font-size="14.00" fill="#666666">[text]</text>
<polygon fill="none" stroke="black" points="1003.75,-888.8 1003.75,-919.6 1251.7,-919.6 1251.7,-888.8 1003.75,-888.8"/>
<text text-anchor="start" x="1010.75" y="-901" font-family="Arial" font-size="14.00">data_type_key </text>
<text text-anchor="start" x="1105.7" y="-901" font-family="Arial" font-size="14.00" fill="#666666">[text]</text>
<polygon fill="none" stroke="black" points="1003.75,-858 1003.75,-888.8 1251.7,-888.8 1251.7,-858 1003.75,-858"/>
<text text-anchor="start" x="1010.75" y="-870.2" font-family="Arial" font-size="14.00">derivation_policy_key </text>
<text text-anchor="start" x="1148.49" y="-870.2" font-family="Arial" font-size="14.00" fill="#666666">[text]</text>
<polygon fill="none" stroke="black" points="1003.75,-827.2 1003.75,-858 1251.7,-858 1251.7,-827.2 1003.75,-827.2"/>
<text text-anchor="start" x="1010.75" y="-839.4" font-family="Arial" font-size="14.00">nullable </text>
<text text-anchor="start" x="1062.9" y="-839.4" font-family="Arial" font-size="14.00" fill="#666666">[boolean]</text>
<polygon fill="none" stroke="black" points="1003.75,-796.4 1003.75,-827.2 1251.7,-827.2 1251.7,-796.4 1003.75,-796.4"/>
<text text-anchor="start" x="1010.75" y="-808.6" font-family="Arial" font-size="14.00">uml_comment </text>
<text text-anchor="start" x="1102.55" y="-808.6" font-family="Arial" font-size="14.00" fill="#666666">[text]</text>
</g>
<!-- public.attribute&#45;&gt;public.logic -->
<g id="edge3" class="edge">
<title>public.attribute:model_key&#45;&gt;public.logic:model_key</title>
<path fill="none" stroke="black" d="M1262.7,-1087.04C1320.96,-1062.03 1253.67,-804.66 1303.73,-753.2 1446.84,-606.06 2007.47,-589.2 2212.74,-589.2"/>
<polygon fill="black" stroke="black" points="1262.85,-1087.02 1252.17,-1084.52 1257.61,-1088.04 1253.36,-1088.87 1253.36,-1088.87 1253.36,-1088.87 1257.61,-1088.04 1253.9,-1093.35 1262.85,-1087.02"/>
<text text-anchor="start" x="1259.7" y="-1099" font-family="Arial" font-size="10.00">FOREIGN KEY (model_key, derivation_policy_key) REFERENCES logic(model_key, logic_key) ON DELETE CASCADE</text>
</g>
<!-- public.class_invariant -->
<g id="node5" class="node">
<title>public.class_invariant</title>
<polygon fill="#efefef" stroke="none" points="1355.75,-996.6 1355.75,-1032.2 1651.7,-1032.2 1651.7,-996.6 1355.75,-996.6"/>
<polygon fill="none" stroke="black" points="1355.75,-996.6 1355.75,-1032.2 1651.7,-1032.2 1651.7,-996.6 1355.75,-996.6"/>
<text text-anchor="start" x="1362.75" y="-1010" font-family="Arial Bold" font-size="18.00">public.class_invariant</text>
<text text-anchor="start" x="1520.21" y="-1010" font-family="Arial" font-size="14.00">    </text>
<text text-anchor="start" x="1551.33" y="-1010" font-family="Arial" font-size="14.00" fill="#666666">[BASE TABLE]</text>
<polygon fill="none" stroke="black" points="1355.75,-965.8 1355.75,-996.6 1651.7,-996.6 1651.7,-965.8 1355.75,-965.8"/>
<text text-anchor="start" x="1362.75" y="-978" font-family="Arial" font-size="14.00">model_key </text>
<text text-anchor="start" x="1434.35" y="-978" font-family="Arial" font-size="14.00" fill="#666666">[text]</text>
<polygon fill="none" stroke="black" points="1355.75,-935 1355.75,-965.8 1651.7,-965.8 1651.7,-935 1355.75,-935"/>
<text text-anchor="start" x="1362.75" y="-947.2" font-family="Arial" font-size="14.00">class_key </text>
<text text-anchor="start" x="1428.11" y="-947.2" font-family="Arial" font-size="14.00" fill="#666666">[text]</text>
<polygon fill="none" stroke="black" points="1355.75,-904.2 1355.75,-935 1651.7,-935 1651.7,-904.2 1355.75,-904.2"/>
<text text-anchor="start" x="1362.75" y="-916.4" font-family="Arial" font-size="14.00">logic_key </text>
<text text-anchor="start" x="1425.01" y="-916.4" font-family="Arial" font-size="14.00" fill="#666666">[text]</text>
</g>
<!-- public.class_invariant&#45;&gt;public.logic -->
<g id="edge4" class="edge">
<title>public.class_invariant:model_key&#45;&gt;public.logic:model_key</title>
<path fill="none" stroke="black" d="M1663.09,-980.62C1747.92,-970.36 1636.26,-827.14 1703.73,-753.2 1783.83,-665.41 2093.9,-589.2 2212.74,-589.2"/>
<polygon fill="black" stroke="black" points="1663.02,-980.62 1652.78,-976.69 1657.69,-980.92 1653.37,-981.16 1653.37,-981.16 1653.37,-981.16 1657.69,-980.92 1653.28,-985.67 1663.02,-980.62"/>
<text text-anchor="start" x="1412.35" y="-965.2" font-family="Arial" font-size="10.00">FOREIGN KEY (model_key, logic_key) REFERENCES logic(model_key, logic_key) ON DELETE CASCADE</text>
</g>
<!-- public.attribute_invariant -->
<g id="node6" class="node">
<title>public.attribute_invariant</title>
<polygon fill="#efefef" stroke="none" points="1756.26,-996.6 1756.26,-1032.2 2077.19,-1032.2 2077.19,-996.6 1756.26,-996.6"/>
<polygon fill="none" stroke="black" points="1756.26,-996.6 1756.26,-1032.2 2077.19,-1032.2 2077.19,-996.6 1756.26,-996.6"/>
<text text-anchor="start" x="1763.26" y="-1010" font-family="Arial Bold" font-size="18.00">public.attribute_invariant</text>
<text text-anchor="start" x="1945.7" y="-1010" font-family="Arial" font-size="14.00">    </text>
<text text-anchor="start" x="1976.82" y="-1010" font-family="Arial" font-size="14.00" fill="#666666">[BASE TABLE]</text>
<polygon fill="none" stroke="black" points="1756.26,-965.8 1756.26,-996.6 2077.19,-996.6 2077.19,-965.8 1756.26,-965.8"/>
<text text-anchor="start" x="1763.26" y="-978" font-family="Arial" font-size="14.00">model_key </text>
<text text-anchor="start" x="1834.85" y="-978" font-family="Arial" font-size="14.00" fill="#666666">[text]</text>
<polygon fill="none" stroke="black" points="1756.26,-935 1756.26,-965.8 2077.19,-965.8 2077.19,-935 1756.26,-935"/>
<text text-anchor="start" x="1763.26" y="-947.2" font-family="Arial" font-size="14.00">attribute_key </text>
<text text-anchor="start" x="1847.31" y="-947.2" font-family="Arial" font-size="14.00" fill="#666666">[text]</text>
<polygon fill="none" stroke="black" points="1756.26,-904.2 1756.26,-935 2077.19,-935 2077.19,-904.2 1756.26,-904.2"/>
<text text-anchor="start" x="1763.26" y="-916.4" font-family="Arial" font-size="14.00">logic_key </text>
<text text-anchor="start" x="1825.51" y="-916.4" font-family="Arial" font-size="14.00" fill="#666666">[text]</text>
</g>
<!-- public.attribute_invariant&#45;&gt;public.logic -->
<g id="edge5" class="edge">
<title>public.attribute_invariant:model_key&#45;&gt;public.logic:model_key</title>
<path fill="none" stroke="black" d="M2088.12,-978.65C2127.6,-956.65 2112.37,-798.59 2128.73,-753.2 2156.48,-676.15 2130.84,-589.2 2212.74,-589.2"/>
<polygon fill="black" stroke="black" points="2088.2,-978.63 2077.4,-976.76 2083.03,-979.96 2078.84,-981.03 2078.84,-981.03 2078.84,-981.03 2083.03,-979.96 2079.63,-985.48 2088.2,-978.63"/>
<text text-anchor="start" x="2085.19" y="-991.2" font-family="Arial" font-size="10.00">FOREIGN KEY (model_key, logic_key) REFERENCES logic(model_key, logic_key) ON DELETE CASCADE</text>
</g>
<!-- public.query_require -->
<g id="node7" class="node">
<title>public.query_require</title>
<polygon fill="#efefef" stroke="none" points="2181.26,-996.6 2181.26,-1032.2 2470.19,-1032.2 2470.19,-996.6 2181.26,-996.6"/>
<polygon fill="none" stroke="black" points="2181.26,-996.6 2181.26,-1032.2 2470.19,-1032.2 2470.19,-996.6 2181.26,-996.6"/>
<text text-anchor="start" x="2188.26" y="-1010" font-family="Arial Bold" font-size="18.00">public.query_require</text>
<text text-anchor="start" x="2338.7" y="-1010" font-family="Arial" font-size="14.00">    </text>
<text text-anchor="start" x="2369.82" y="-1010" font-family="Arial" font-size="14.00" fill="#666666">[BASE TABLE]</text>
<polygon fill="none" stroke="black" points="2181.26,-965.8 2181.26,-996.6 2470.19,-996.6 2470.19,-965.8 2181.26,-965.8"/>
<text text-anchor="start" x="2188.26" y="-978" font-family="Arial" font-size="14.00">model_key </text>
<text text-anchor="start" x="2259.85" y="-978" font-family="Arial" font-size="14.00" fill="#666666">[text]</text>
<polygon fill="none" stroke="black" points="2181.26,-935 2181.26,-965.8 2470.19,-965.8 2470.19,-935 2181.26,-935"/>
<text text-anchor="start" x="2188.26" y="-947.2" font-family="Arial" font-size="14.00">query_key </text>
<text text-anchor="start" x="2256.74" y="-947.2" font-family="Arial" font-size="14.00" fill="#666666">[text]</text>
<polygon fill="none" stroke="black" points="2181.26,-904.2 2181.26,-935 2470.19,-935 2470.19,-904.2 2181.26,-904.2"/>
<text text-anchor="start" x="2188.26" y="-916.4" font-family="Arial" font-size="14.00">logic_key </text>
<text text-anchor="start" x="2250.51" y="-916.4" font-family="Arial" font-size="14.00" fill="#666666">[text]</text>
</g>
<!-- public.query_require&#45;&gt;public.logic -->
<g id="edge6" class="edge">
<title>public.query_require:model_key&#45;&gt;public.logic:model_key</title>
<path fill="none" stroke="black" d="M2481.35,-979.28C2555.84,-949.7 2522.54,-589.2 2438.71,-589.2"/>
<polygon fill="black" stroke="black" points="2481.34,-979.28 2470.68,-976.72 2476.1,-980.27 2471.85,-981.08 2471.85,-981.08 2471.85,-981.08 2476.1,-980.27 2472.36,-985.56 2481.34,-979.28"/>
<text text-anchor="start" x="2230.84" y="-965.2" font-family="Arial" font-size="10.00">FOREIGN KEY (model_key, logic_key) REFERENCES logic(model_key, logic_key) ON DELETE CASCADE</text>
</g>
<!-- public.query_guarantee -->
<g id="node8" class="node">
<title>public.query_guarantee</title>
<polygon fill="#efefef" stroke="none" points="2574.77,-996.6 2574.77,-1032.2 2882.68,-1032.2 2882.68,-996.6 2574.77,-996.6"/>
<polygon fill="none" stroke="black" points="2574.77,-996.6 2574.77,-1032.2 2882.68,-1032.2 2882.68,-996.6 2574.77,-996.6"/>
<text text-anchor="start" x="2581.77" y="-1010" font-family="Arial Bold" font-size="18.00">public.query_guarantee</text>
<text text-anchor="start" x="2751.19" y="-1010" font-family="Arial" font-size="14.00">    </text>
<text text-anchor="start" x="2782.31" y="-1010" font-family="Arial" font-size="14.00" fill="#666666">[BASE TABLE]</text>
<polygon fill="none" stroke="black" points="2574.77,-965.8 2574.77,-996.6 2882.68,-996.6 2882.68,-965.8 2574.77,-965.8"/>
<text text-anchor="start" x="2581.77" y="-978" font-family="Arial" font-size="14.00">model_key </text>
<text text-anchor="start" x="2653.36" y="-978" font-family="Arial" font-size="14.00" fill="#666666">[text]</text>
<polygon fill="none" stroke="black" points="2574.77,-935 2574.77,-965.8 2882.68,-965.8 2882.68,-935 2574.77,-935"/>
<text text-anchor="start" x="2581.77" y="-947.2" font-family="Arial" font-size="14.00">query_key </text>
<text text-anchor="start" x="2650.25" y="-947.2" font-family="Arial" font-size="14.00" fill="#666666">[text]</text>
<polygon fill="none" stroke="black" points="2574.77,-904.2 2574.77,-935 2882.68,-935 2882.68,-904.2 2574.77,-904.2"/>
<text text-anchor="start" x="2581.77" y="-916.4" font-family="Arial" font-size="14.00">logic_key </text>
<text text-anchor="start" x="2644.02" y="-916.4" font-family="Arial" font-size="14.00" fill="#666666">[text]</text>
</g>
<!-- public.query_guarantee&#45;&gt;public.logic -->
<g id="edge7" class="edge">
<title>public.query_guarantee:model_key&#45;&gt;public.logic:model_key</title>
<path fill="none" stroke="black" d="M2563.82,-978.65C2524.27,-956.65 2539.13,-798.6 2522.73,-753.2 2494.89,-676.18 2520.61,-589.2 2438.71,-589.2"/>
<polygon fill="black" stroke="black" points="2563.76,-978.63 2572.33,-985.48 2568.92,-979.96 2573.12,-981.03 2573.12,-981.03 2573.12,-981.03 2568.92,-979.96 2574.56,-976.76 2563.76,-978.63"/>
<text text-anchor="start" x="2580.77" y="-991.2" font-family="Arial" font-size="10.00">FOREIGN KEY (model_key, logic_key) REFERENCES logic(model_key, logic_key) ON DELETE CASCADE</text>
</g>
<!-- public.guard -->
<g id="node9" class="node">
<title>public.guard</title>
<polygon fill="#efefef" stroke="none" points="2987.24,-1012 2987.24,-1047.6 3216.21,-1047.6 3216.21,-1012 2987.24,-1012"/>
<polygon fill="none" stroke="black" points="2987.24,-1012 2987.24,-1047.6 3216.21,-1047.6 3216.21,-1012 2987.24,-1012"/>
<text text-anchor="start" x="2994.24" y="-1025.4" font-family="Arial Bold" font-size="18.00">public.guard</text>
<text text-anchor="start" x="3084.72" y="-1025.4" font-family="Arial" font-size="14.00">    </text>
<text text-anchor="start" x="3115.83" y="-1025.4" font-family="Arial" font-size="14.00" fill="#666666">[BASE TABLE]</text>
<polygon fill="none" stroke="black" points="2987.24,-981.2 2987.24,-1012 3216.21,-1012 3216.21,-981.2 2987.24,-981.2"/>
<text text-anchor="start" x="2994.24" y="-993.4" font-family="Arial" font-size="14.00">model_key </text>
<text text-anchor="start" x="3065.84" y="-993.4" font-family="Arial" font-size="14.00" fill="#666666">[text]</text>
<polygon fill="none" stroke="black" points="2987.24,-950.4 2987.24,-981.2 3216.21,-981.2 3216.21,-950.4 2987.24,-950.4"/>
<text text-anchor="start" x="2994.24" y="-962.6" font-family="Arial" font-size="14.00">class_key </text>
<text text-anchor="start" x="3059.6" y="-962.6" font-family="Arial" font-size="14.00" fill="#666666">[text]</text>
<polygon fill="none" stroke="black" points="2987.24,-919.6 2987.24,-950.4 3216.21,-950.4 3216.21,-919.6 2987.24,-919.6"/>
<text text-anchor="start" x="2994.24" y="-931.8" font-family="Arial" font-size="14.00">guard_key </text>
<text text-anchor="start" x="3063.51" y="-931.8" font-family="Arial" font-size="14.00" fill="#666666">[text]</text>
<polygon fill="none" stroke="black" points="2987.24,-888.8 2987.24,-919.6 3216.21,-919.6 3216.21,-888.8 2987.24,-888.8"/>
<text text-anchor="start" x="2994.24" y="-901" font-family="Arial" font-size="14.00">name </text>
<text text-anchor="start" x="3033.15" y="-901" font-family="Arial" font-size="14.00" fill="#666666">[text]</text>
</g>
<!-- public.guard&#45;&gt;public.logic -->
<g id="edge8" class="edge">
<title>public.guard:model_key&#45;&gt;public.logic:model_key</title>
<path fill="none" stroke="black" d="M2976.02,-996.08C2884.26,-985.99 3006.02,-832.86 2934.73,-753.2 2857.3,-666.69 2554.8,-589.2 2438.71,-589.2"/>
<polygon fill="black" stroke="black" points="2975.92,-996.07 2985.68,-1001.08 2981.25,-996.34 2985.58,-996.57 2985.58,-996.57 2985.58,-996.57 2981.25,-996.34 2986.14,-992.09 2975.92,-996.07"/>
<text text-anchor="start" x="2993.24" y="-1006.6" font-family="Arial" font-size="10.00">FOREIGN KEY (model_key, guard_key) REFERENCES logic(model_key, logic_key) ON DELETE CASCADE</text>
</g>
<!-- public.action_require -->
<g id="node10" class="node">
<title>public.action_require</title>
<polygon fill="#efefef" stroke="none" points="3320.76,-996.6 3320.76,-1032.2 3612.69,-1032.2 3612.69,-996.6 3320.76,-996.6"/>
<polygon fill="none" stroke="black" points="3320.76,-996.6 3320.76,-1032.2 3612.69,-1032.2 3612.69,-996.6 3320.76,-996.6"/>
<text text-anchor="start" x="3327.76" y="-1010" font-family="Arial Bold" font-size="18.00">public.action_require</text>
<text text-anchor="start" x="3481.2" y="-1010" font-family="Arial" font-size="14.00">    </text>
<text text-anchor="start" x="3512.32" y="-1010" font-family="Arial" font-size="14.00" fill="#666666">[BASE TABLE]</text>
<polygon fill="none" stroke="black" points="3320.76,-965.8 3320.76,-996.6 3612.69,-996.6 3612.69,-965.8 3320.76,-965.8"/>
<text text-anchor="start" x="3327.76" y="-978" font-family="Arial" font-size="14.00">model_key </text>
<text text-anchor="start" x="3399.35" y="-978" font-family="Arial" font-size="14.00" fill="#666666">[text]</text>
<polygon fill="none" stroke="black" points="3320.76,-935 3320.76,-965.8 3612.69,-965.8 3612.69,-935 3320.76,-935"/>
<text text-anchor="start" x="3327.76" y="-947.2" font-family="Arial" font-size="14.00">action_key </text>
<text text-anchor="start" x="3398.58" y="-947.2" font-family="Arial" font-size="14.00" fill="#666666">[text]</text>
<polygon fill="none" stroke="black" points="3320.76,-904.2 3320.76,-935 3612.69,-935 3612.69,-904.2 3320.76,-904.2"/>
<text text-anchor="start" x="3327.76" y="-916.4" font-family="Arial" font-size="14.00">logic_key </text>
<text text-anchor="start" x="3390.02" y="-916.4" font-family="Arial" font-size="14.00" fill="#666666">[text]</text>
</g>
<!-- public.action_require&#45;&gt;public.logic -->
<g id="edge9" class="edge">
<title>public.action_require:model_key&#45;&gt;public.logic:model_key</title>
<path fill="none" stroke="black" d="M3309.39,-980.6C3224.85,-970.07 3340.38,-823.08 3268.73,-753.2 3134.12,-621.94 2626.72,-589.2 2438.71,-589.2"/>
<polygon fill="black" stroke="black" points="3309.44,-980.61 3319.17,-985.67 3314.77,-980.91 3319.09,-981.16 3319.09,-981.16 3319.09,-981.16 3314.77,-980.91 3319.69,-976.69 3309.44,-980.61"/>
<text text-anchor="start" x="2955.73" y="-965.2" font-family="Arial" font-size="10.00">FOREIGN KEY (model_key, logic_key) REFERENCES logic(model_key, logic_key) ON DELETE CASCADE</text>
</g>
<!-- public.action_guarantee -->
<g id="node11" class="node">
<title>public.action_guarantee</title>
<polygon fill="#efefef" stroke="none" points="3717.27,-996.6 3717.27,-1032.2 4028.18,-1032.2 4028.18,-996.6 3717.27,-996.6"/>
<polygon fill="none" stroke="black" points="3717.27,-996.6 3717.27,-1032.2 4028.18,-1032.2 4028.18,-996.6 3717.27,-996.6"/>
<text text-anchor="start" x="3724.27" y="-1010" font-family="Arial Bold" font-size="18.00">public.action_guarantee</text>
<text text-anchor="start" x="3896.69" y="-1010" font-family="Arial" font-size="14.00">    </text>
<text text-anchor="start" x="3927.81" y="-1010" font-family="Arial" font-size="14.00" fill="#666666">[BASE TABLE]</text>
<polygon fill="none" stroke="black" points="3717.27,-965.8 3717.27,-996.6 4028.18,-996.6 4028.18,-965.8 3717.27,-965.8"/>
<text text-anchor="start" x="3724.27" y="-978" font-family="Arial" font-size="14.00">model_key </text>
<text text-anchor="start" x="3795.86" y="-978" font-family="Arial" font-size="14.00" fill="#666666">[text]</text>
<polygon fill="none" stroke="black" points="3717.27,-935 3717.27,-965.8 4028.18,-965.8 4028.18,-935 3717.27,-935"/>
<text text-anchor="start" x="3724.27" y="-947.2" font-family="Arial" font-size="14.00">action_key </text>
<text text-anchor="start" x="3795.09" y="-947.2" font-family="Arial" font-size="14.00" fill="#666666">[text]</text>
<polygon fill="none" stroke="black" points="3717.27,-904.2 3717.27,-935 4028.18,-935 4028.18,-904.2 3717.27,-904.2"/>
<text text-anchor="start" x="3724.27" y="-916.4" font-family="Arial" font-size="14.00">logic_key </text>
<text text-anchor="start" x="3786.52" y="-916.4" font-family="Arial" font-size="14.00" fill="#666666">[text]</text>
</g>
<!-- public.action_guarantee&#45;&gt;public.logic -->
<g id="edge10" class="edge">
<title>public.action_guarantee:model_key&#45;&gt;public.logic:model_key</title>
<path fill="none" stroke="black" d="M3705.9,-980.59C3621.43,-969.9 3738.62,-820.77 3664.73,-753.2 3563.3,-660.45 2576.15,-589.2 2438.71,-589.2"/>
<polygon fill="black" stroke="black" points="3705.95,-980.6 3715.67,-985.67 3711.28,-980.91 3715.6,-981.16 3715.6,-981.16 3715.6,-981.16 3711.28,-980.91 3716.2,-976.69 3705.95,-980.6"/>
<text text-anchor="start" x="3475.92" y="-965.2" font-family="Arial" font-size="10.00">FOREIGN KEY (model_key, logic_key) REFERENCES logic(model_key, logic_key) ON DELETE CASCADE</text>
</g>
<!-- public.action_safety -->
<g id="node12" class="node">
<title>public.action_safety</title>
<polygon fill="#efefef" stroke="none" points="4132.76,-996.6 4132.76,-1032.2 4416.69,-1032.2 4416.69,-996.6 4132.76,-996.6"/>
<polygon fill="none" stroke="black" points="4132.76,-996.6 4132.76,-1032.2 4416.69,-1032.2 4416.69,-996.6 4132.76,-996.6"/>
<text text-anchor="start" x="4139.76" y="-1010" font-family="Arial Bold" font-size="18.00">public.action_safety</text>
<text text-anchor="start" x="4285.21" y="-1010" font-family="Arial" font-size="14.00">    </text>
<text text-anchor="start" x="4316.32" y="-1010" font-family="Arial" font-size="14.00" fill="#666666">[BASE TABLE]</text>
<polygon fill="none" stroke="black" points="4132.76,-965.8 4132.76,-996.6 4416.69,-996.6 4416.69,-965.8 4132.76,-965.8"/>
<text text-anchor="start" x="4139.76" y="-978" font-family="Arial" font-size="14.00">model_key </text>
<text text-anchor="start" x="4211.35" y="-978" font-family="Arial" font-size="14.00" fill="#666666">[text]</text>
<polygon fill="none" stroke="black" points="4132.76,-935 4132.76,-965.8 4416.69,-965.8 4416.69,-935 4132.76,-935"/>
<text text-anchor="start" x="4139.76" y="-947.2" font-family="Arial" font-size="14.00">action_key </text>
<text text-anchor="start" x="4210.58" y="-947.2" font-family="Arial" font-size="14.00" fill="#666666">[text]</text>
<polygon fill="none" stroke="black" points="4132.76,-904.2 4132.76,-935 4416.69,-935 4416.69,-904.2 4132.76,-904.2"/>
<text text-anchor="start" x="4139.76" y="-916.4" font-family="Arial" font-size="14.00">logic_key </text>
<text text-anchor="start" x="4202.01" y="-916.4" font-family="Arial" font-size="14.00" fill="#666666">[text]</text>
</g>
<!-- public.action_safety&#45;&gt;public.logic -->
<g id="edge11" class="edge">
<title>public.action_safety:model_key&#45;&gt;public.logic:model_key</title>
<path fill="none" stroke="black" d="M4121.4,-980.59C4037.08,-969.82 4155.64,-819.58 4080.73,-753.2 3943.49,-631.6 2622.06,-589.2 2438.71,-589.2"/>
<polygon fill="black" stroke="black" points="4121.44,-980.59 4131.16,-985.67 4126.76,-980.91 4131.09,-981.16 4131.09,-981.16 4131.09,-981.16 4126.76,-980.91 4131.69,-976.69 4121.44,-980.59"/>
<text text-anchor="start" x="4138.76" y="-991.2" font-family="Arial" font-size="10.00">FOREIGN KEY (model_key, logic_key) REFERENCES logic(model_key, logic_key) ON DELETE CASCADE</text>
</g>
</g>
</svg>
