<?xml version="1.0" encoding="UTF-8" standalone="no"?>
<!DOCTYPE svg PUBLIC "-//W3C//DTD SVG 1.1//EN"
 "http://www.w3.org/Graphics/SVG/1.1/DTD/svg11.dtd">
<!-- Generated by graphviz version 12.1.2 (20240928.0832)
 -->
<!-- Title: public.subdomain Pages: 1 -->
<svg width="1312pt" height="1130pt"
 viewBox="0.00 0.00 1312.17 1129.60" xmlns="http://www.w3.org/2000/svg" xmlns:xlink="http://www.w3.org/1999/xlink">
<g id="graph0" class="graph" transform="scale(1 1) rotate(0) translate(4 1125.6)">
<title>public.subdomain</title>
<polygon fill="white" stroke="none" points="-4,4 -4,-1125.6 1308.17,-1125.6 1308.17,4 -4,4"/>
<!-- public.subdomain -->
<g id="node1" class="node">
<title>public.subdomain</title>
<polygon fill="#efefef" stroke="none" points="504.79,-573.8 504.79,-609.4 771.77,-609.4 771.77,-573.8 504.79,-573.8"/>
<polygon fill="none" stroke="black" points="504.79,-573.8 504.79,-609.4 771.77,-609.4 771.77,-573.8 504.79,-573.8"/>
<text text-anchor="start" x="511.79" y="-587.2" font-family="Arial Bold" font-size="18.00">public.subdomain</text>
<text text-anchor="start" x="640.28" y="-587.2" font-family="Arial" font-size="14.00">    </text>
<text text-anchor="start" x="671.4" y="-587.2" font-family="Arial" font-size="14.00" fill="#666666">[BASE TABLE]</text>
<polygon fill="none" stroke="black" points="504.79,-543 504.79,-573.8 771.77,-573.8 771.77,-543 504.79,-543"/>
<text text-anchor="start" x="511.79" y="-555.2" font-family="Arial" font-size="14.00">subdomain_key </text>
<text text-anchor="start" x="613.74" y="-555.2" font-family="Arial" font-size="14.00" fill="#666666">[text]</text>
<polygon fill="none" stroke="black" points="504.79,-512.2 504.79,-543 771.77,-543 771.77,-512.2 504.79,-512.2"/>
<text text-anchor="start" x="511.79" y="-524.4" font-family="Arial" font-size="14.00">model_key </text>
<text text-anchor="start" x="583.39" y="-524.4" font-family="Arial" font-size="14.00" fill="#666666">[text]</text>
<polygon fill="none" stroke="black" points="504.79,-481.4 504.79,-512.2 771.77,-512.2 771.77,-481.4 504.79,-481.4"/>
<text text-anchor="start" x="511.79" y="-493.6" font-family="Arial" font-size="14.00">domain_key </text>
<text text-anchor="start" x="591.17" y="-493.6" font-family="Arial" font-size="14.00" fill="#666666">[text]</text>
<polygon fill="none" stroke="black" points="504.79,-450.6 504.79,-481.4 771.77,-481.4 771.77,-450.6 504.79,-450.6"/>
<text text-anchor="start" x="511.79" y="-462.8" font-family="Arial" font-size="14.00">name </text>
<text text-anchor="start" x="550.7" y="-462.8" font-family="Arial" font-size="14.00" fill="#666666">[text]</text>
<polygon fill="none" stroke="black" points="504.79,-419.8 504.79,-450.6 771.77,-450.6 771.77,-419.8 504.79,-419.8"/>
<text text-anchor="start" x="511.79" y="-432" font-family="Arial" font-size="14.00">details </text>
<text text-anchor="start" x="556.15" y="-432" font-family="Arial" font-size="14.00" fill="#666666">[text]</text>
<polygon fill="none" stroke="black" points="504.79,-389 504.79,-419.8 771.77,-419.8 771.77,-389 504.79,-389"/>
<text text-anchor="start" x="511.79" y="-401.2" font-family="Arial" font-size="14.00">uml_comment </text>
<text text-anchor="start" x="603.6" y="-401.2" font-family="Arial" font-size="14.00" fill="#666666">[text]</text>
<polygon fill="none" stroke="black" stroke-width="3" points="503.29,-387.5 503.29,-610.9 773.27,-610.9 773.27,-387.5 503.29,-387.5"/>
</g>
<!-- public.domain -->
<g id="node4" class="node">
<title>public.domain</title>
<polygon fill="#efefef" stroke="none" points="517.3,-228 517.3,-263.6 759.27,-263.6 759.27,-228 517.3,-228"/>
<polygon fill="none" stroke="black" points="517.3,-228 517.3,-263.6 759.27,-263.6 759.27,-228 517.3,-228"/>
<text text-anchor="start" x="524.3" y="-241.4" font-family="Arial Bold" font-size="18.00">public.domain</text>
<text text-anchor="start" x="627.78" y="-241.4" font-family="Arial" font-size="14.00">    </text>
<text text-anchor="start" x="658.9" y="-241.4" font-family="Arial" font-size="14.00" fill="#666666">[BASE TABLE]</text>
<polygon fill="none" stroke="black" points="517.3,-197.2 517.3,-228 759.27,-228 759.27,-197.2 517.3,-197.2"/>
<text text-anchor="start" x="524.3" y="-209.4" font-family="Arial" font-size="14.00">domain_key </text>
<text text-anchor="start" x="603.67" y="-209.4" font-family="Arial" font-size="14.00" fill="#666666">[text]</text>
<polygon fill="none" stroke="black" points="517.3,-166.4 517.3,-197.2 759.27,-197.2 759.27,-166.4 517.3,-166.4"/>
<text text-anchor="start" x="524.3" y="-178.6" font-family="Arial" font-size="14.00">model_key </text>
<text text-anchor="start" x="595.89" y="-178.6" font-family="Arial" font-size="14.00" fill="#666666">[text]</text>
<polygon fill="none" stroke="black" points="517.3,-135.6 517.3,-166.4 759.27,-166.4 759.27,-135.6 517.3,-135.6"/>
<text text-anchor="start" x="524.3" y="-147.8" font-family="Arial" font-size="14.00">name </text>
<text text-anchor="start" x="563.21" y="-147.8" font-family="Arial" font-size="14.00" fill="#666666">[text]</text>
<polygon fill="none" stroke="black" points="517.3,-104.8 517.3,-135.6 759.27,-135.6 759.27,-104.8 517.3,-104.8"/>
<text text-anchor="start" x="524.3" y="-117" font-family="Arial" font-size="14.00">details </text>
<text text-anchor="start" x="568.65" y="-117" font-family="Arial" font-size="14.00" fill="#666666">[text]</text>
<polygon fill="none" stroke="black" points="517.3,-74 517.3,-104.8 759.27,-104.8 759.27,-74 517.3,-74"/>
<text text-anchor="start" x="524.3" y="-86.2" font-family="Arial" font-size="14.00">realized </text>
<text text-anchor="start" x="577.21" y="-86.2" font-family="Arial" font-size="14.00" fill="#666666">[boolean]</text>
<polygon fill="none" stroke="black" points="517.3,-43.2 517.3,-74 759.27,-74 759.27,-43.2 517.3,-43.2"/>
<text text-anchor="start" x="524.3" y="-55.4" font-family="Arial" font-size="14.00">uml_comment </text>
<text text-anchor="start" x="616.1" y="-55.4" font-family="Arial" font-size="14.00" fill="#666666">[text]</text>
</g>
<!-- public.subdomain&#45;&gt;public.domain -->
<g id="edge3" class="edge">
<title>public.subdomain:model_key&#45;&gt;public.domain:model_key</title>
<path fill="none" stroke="black" d="M782.88,-527.08C925.93,-512.24 910.6,-181.8 760.27,-181.8"/>
<polygon fill="black" stroke="black" points="783.09,-527.07 772.87,-523.09 777.76,-527.35 773.44,-527.57 773.44,-527.57 773.44,-527.57 777.76,-527.35 773.33,-532.08 783.09,-527.07"/>
<text text-anchor="start" x="779.77" y="-537.6" font-family="Arial" font-size="10.00">FOREIGN KEY (model_key, domain_key) REFERENCES domain(model_key, domain_key) ON DELETE CASCADE</text>
</g>
<!-- public.class -->
<g id="node2" class="node">
<title>public.class</title>
<polygon fill="#efefef" stroke="none" points="355.8,-1027.4 355.8,-1063 578.77,-1063 578.77,-1027.4 355.8,-1027.4"/>
<polygon fill="none" stroke="black" points="355.8,-1027.4 355.8,-1063 578.77,-1063 578.77,-1027.4 355.8,-1027.4"/>
<text text-anchor="start" x="362.8" y="-1040.8" font-family="Arial Bold" font-size="18.00">public.class</text>
<text text-anchor="start" x="447.28" y="-1040.8" font-family="Arial" font-size="14.00">    </text>
<text text-anchor="start" x="478.39" y="-1040.8" font-family="Arial" font-size="14.00" fill="#666666">[BASE TABLE]</text>
<polygon fill="none" stroke="black" points="355.8,-996.6 355.8,-1027.4 578.77,-1027.4 578.77,-996.6 355.8,-996.6"/>
<text text-anchor="start" x="362.8" y="-1008.8" font-family="Arial" font-size="14.00">model_key </text>
<text text-anchor="start" x="434.39" y="-1008.8" font-family="Arial" font-size="14.00" fill="#666666">[text]</text>
<polygon fill="none" stroke="black" points="355.8,-965.8 355.8,-996.6 578.77,-996.6 578.77,-965.8 355.8,-965.8"/>
<text text-anchor="start" x="362.8" y="-978" font-family="Arial" font-size="14.00">class_key </text>
<text text-anchor="start" x="428.16" y="-978" font-family="Arial" font-size="14.00" fill="#666666">[text]</text>
<polygon fill="none" stroke="black" points="355.8,-935 355.8,-965.8 578.77,-965.8 578.77,-935 355.8,-935"/>
<text text-anchor="start" x="362.8" y="-947.2" font-family="Arial" font-size="14.00">name </text>
<text text-anchor="start" x="401.71" y="-947.2" font-family="Arial" font-size="14.00" fill="#666666">[text]</text>
<polygon fill="none" stroke="black" points="355.8,-904.2 355.8,-935 578.77,-935 578.77,-904.2 355.8,-904.2"/>
<text text-anchor="start" x="362.8" y="-916.4" font-family="Arial" font-size="14.00">subdomain_key </text>
<text text-anchor="start" x="464.75" y="-916.4" font-family="Arial" font-size="14.00" fill="#666666">[text]</text>
<polygon fill="none" stroke="black" points="355.8,-873.4 355.8,-904.2 578.77,-904.2 578.77,-873.4 355.8,-873.4"/>
<text text-anchor="start" x="362.8" y="-885.6" font-family="Arial" font-size="14.00">actor_key </text>
<text text-anchor="start" x="427.38" y="-885.6" font-family="Arial" font-size="14.00" fill="#666666">[text]</text>
<polygon fill="none" stroke="black" points="355.8,-842.6 355.8,-873.4 578.77,-873.4 578.77,-842.6 355.8,-842.6"/>
<text text-anchor="start" x="362.8" y="-854.8" font-family="Arial" font-size="14.00">superclass_of_key </text>
<text text-anchor="start" x="482.64" y="-854.8" font-family="Arial" font-size="14.00" fill="#666666">[text]</text>
<polygon fill="none" stroke="black" points="355.8,-811.8 355.8,-842.6 578.77,-842.6 578.77,-811.8 355.8,-811.8"/>
<text text-anchor="start" x="362.8" y="-824" font-family="Arial" font-size="14.00">subclass_of_key </text>
<text text-anchor="start" x="470.19" y="-824" font-family="Arial" font-size="14.00" fill="#666666">[text]</text>
<polygon fill="none" stroke="black" points="355.8,-781 355.8,-811.8 578.77,-811.8 578.77,-781 355.8,-781"/>
<text text-anchor="start" x="362.8" y="-793.2" font-family="Arial" font-size="14.00">details </text>
<text text-anchor="start" x="407.16" y="-793.2" font-family="Arial" font-size="14.00" fill="#666666">[text]</text>
<polygon fill="none" stroke="black" points="355.8,-750.2 355.8,-781 578.77,-781 578.77,-750.2 355.8,-750.2"/>
<text text-anchor="start" x="362.8" y="-762.4" font-family="Arial" font-size="14.00">uml_comment </text>
<text text-anchor="start" x="454.6" y="-762.4" font-family="Arial" font-size="14.00" fill="#666666">[text]</text>
</g>
<!-- public.class&#45;&gt;public.subdomain -->
<g id="edge1" class="edge">
<title>public.class:model_key&#45;&gt;public.subdomain:model_key</title>
<path fill="none" stroke="black" d="M589.96,-1009.87C643.49,-985.76 608.55,-763.73 578.77,-707 560.16,-671.55 523.48,-691 504.79,-655.6 478.24,-605.29 446.9,-527.6 503.79,-527.6"/>
<polygon fill="black" stroke="black" points="589.88,-1009.89 579.17,-1007.53 584.66,-1010.98 580.42,-1011.86 580.42,-1011.86 580.42,-1011.86 584.66,-1010.98 581.01,-1016.34 589.88,-1009.89"/>
<text text-anchor="start" x="7" y="-1022" font-family="Arial" font-size="10.00">FOREIGN KEY (model_key, subdomain_key) REFERENCES subdomain(model_key, subdomain_key) ON DELETE CASCADE</text>
</g>
<!-- public.use_case -->
<g id="node3" class="node">
<title>public.use_case</title>
<polygon fill="#efefef" stroke="none" points="683.31,-1042.8 683.31,-1078.4 935.26,-1078.4 935.26,-1042.8 683.31,-1042.8"/>
<polygon fill="none" stroke="black" points="683.31,-1042.8 683.31,-1078.4 935.26,-1078.4 935.26,-1042.8 683.31,-1042.8"/>
<text text-anchor="start" x="690.31" y="-1056.2" font-family="Arial Bold" font-size="18.00">public.use_case</text>
<text text-anchor="start" x="803.77" y="-1056.2" font-family="Arial" font-size="14.00">    </text>
<text text-anchor="start" x="834.88" y="-1056.2" font-family="Arial" font-size="14.00" fill="#666666">[BASE TABLE]</text>
<polygon fill="none" stroke="black" points="683.31,-1012 683.31,-1042.8 935.26,-1042.8 935.26,-1012 683.31,-1012"/>
<text text-anchor="start" x="690.31" y="-1024.2" font-family="Arial" font-size="14.00">model_key </text>
<text text-anchor="start" x="761.9" y="-1024.2" font-family="Arial" font-size="14.00" fill="#666666">[text]</text>
<polygon fill="none" stroke="black" points="683.31,-981.2 683.31,-1012 935.26,-1012 935.26,-981.2 683.31,-981.2"/>
<text text-anchor="start" x="690.31" y="-993.4" font-family="Arial" font-size="14.00">use_case_key </text>
<text text-anchor="start" x="783.7" y="-993.4" font-family="Arial" font-size="14.00" fill="#666666">[text]</text>
<polygon fill="none" stroke="black" points="683.31,-950.4 683.31,-981.2 935.26,-981.2 935.26,-950.4 683.31,-950.4"/>
<text text-anchor="start" x="690.31" y="-962.6" font-family="Arial" font-size="14.00">name </text>
<text text-anchor="start" x="729.22" y="-962.6" font-family="Arial" font-size="14.00" fill="#666666">[text]</text>
<polygon fill="none" stroke="black" points="683.31,-919.6 683.31,-950.4 935.26,-950.4 935.26,-919.6 683.31,-919.6"/>
<text text-anchor="start" x="690.31" y="-931.8" font-family="Arial" font-size="14.00">details </text>
<text text-anchor="start" x="734.67" y="-931.8" font-family="Arial" font-size="14.00" fill="#666666">[text]</text>
<polygon fill="none" stroke="black" points="683.31,-888.8 683.31,-919.6 935.26,-919.6 935.26,-888.8 683.31,-888.8"/>
<text text-anchor="start" x="690.31" y="-901" font-family="Arial" font-size="14.00">level </text>
<text text-anchor="start" x="722.99" y="-901" font-family="Arial" font-size="14.00" fill="#666666">[use_case_level]</text>
<polygon fill="none" stroke="black" points="683.31,-858 683.31,-888.8 935.26,-888.8 935.26,-858 683.31,-858"/>
<text text-anchor="start" x="690.31" y="-870.2" font-family="Arial" font-size="14.00">read_only </text>
<text text-anchor="start" x="755.69" y="-870.2" font-family="Arial" font-size="14.00" fill="#666666">[boolean]</text>
<polygon fill="none" stroke="black" points="683.31,-827.2 683.31,-858 935.26,-858 935.26,-827.2 683.31,-827.2"/>
<text text-anchor="start" x="690.31" y="-839.4" font-family="Arial" font-size="14.00">subdomain_key </text>
<text text-anchor="start" x="792.26" y="-839.4" font-family="Arial" font-size="14.00" fill="#666666">[text]</text>
<polygon fill="none" stroke="black" points="683.31,-796.4 683.31,-827.2 935.26,-827.2 935.26,-796.4 683.31,-796.4"/>
<text text-anchor="start" x="690.31" y="-808.6" font-family="Arial" font-size="14.00">superclass_of_key </text>
<text text-anchor="start" x="810.15" y="-808.6" font-family="Arial" font-size="14.00" fill="#666666">[text]</text>
<polygon fill="none" stroke="black" points="683.31,-765.6 683.31,-796.4 935.26,-796.4 935.26,-765.6 683.31,-765.6"/>
<text text-anchor="start" x="690.31" y="-777.8" font-family="Arial" font-size="14.00">subclass_of_key </text>
<text text-anchor="start" x="797.7" y="-777.8" font-family="Arial" font-size="14.00" fill="#666666">[text]</text>
<polygon fill="none" stroke="black" points="683.31,-734.8 683.31,-765.6 935.26,-765.6 935.26,-734.8 683.31,-734.8"/>
<text text-anchor="start" x="690.31" y="-747" font-family="Arial" font-size="14.00">uml_comment </text>
<text text-anchor="start" x="782.11" y="-747" font-family="Arial" font-size="14.00" fill="#666666">[text]</text>
</g>
<!-- public.use_case&#45;&gt;public.subdomain -->
<g id="edge2" class="edge">
<title>public.use_case:model_key&#45;&gt;public.subdomain:model_key</title>
<path fill="none" stroke="black" d="M672.14,-1025.5C611.01,-1001.15 643.6,-750.43 683.31,-691.6 707.05,-656.42 747.94,-690.73 771.77,-655.6 803.71,-608.52 829.66,-527.6 772.77,-527.6"/>
<polygon fill="black" stroke="black" points="672.15,-1025.5 681.15,-1031.76 677.39,-1026.48 681.65,-1027.28 681.65,-1027.28 681.65,-1027.28 677.39,-1026.48 682.81,-1022.92 672.15,-1025.5"/>
<text text-anchor="start" x="689.31" y="-1037.4" font-family="Arial" font-size="10.00">FOREIGN KEY (model_key, subdomain_key) REFERENCES subdomain(model_key, subdomain_key) ON DELETE CASCADE</text>
</g>
</g>
</svg>
