<?xml version="1.0" encoding="UTF-8" standalone="no"?>
<!DOCTYPE svg PUBLIC "-//W3C//DTD SVG 1.1//EN"
 "http://www.w3.org/Graphics/SVG/1.1/DTD/svg11.dtd">
<!-- Generated by graphviz version 12.1.2 (20240928.0832)
 -->
<!-- Title: public.use_case_actor Pages: 1 -->
<svg width="1368pt" height="725pt"
 viewBox="0.00 0.00 1368.05 725.20" xmlns="http://www.w3.org/2000/svg" xmlns:xlink="http://www.w3.org/1999/xlink">
<g id="graph0" class="graph" transform="scale(1 1) rotate(0) translate(4 721.2)">
<title>public.use_case_actor</title>
<polygon fill="white" stroke="none" points="-4,4 -4,-721.2 1364.05,-721.2 1364.05,4 -4,4"/>
<!-- public.use_case_actor -->
<g id="node1" class="node">
<title>public.use_case_actor</title>
<polygon fill="#efefef" stroke="none" points="500.7,-635.4 500.7,-671 797.62,-671 797.62,-635.4 500.7,-635.4"/>
<polygon fill="none" stroke="black" points="500.7,-635.4 500.7,-671 797.62,-671 797.62,-635.4 500.7,-635.4"/>
<text text-anchor="start" x="507.7" y="-648.8" font-family="Arial Bold" font-size="18.00">public.use_case_actor</text>
<text text-anchor="start" x="666.13" y="-648.8" font-family="Arial" font-size="14.00">    </text>
<text text-anchor="start" x="697.25" y="-648.8" font-family="Arial" font-size="14.00" fill="#666666">[BASE TABLE]</text>
<polygon fill="none" stroke="black" points="500.7,-604.6 500.7,-635.4 797.62,-635.4 797.62,-604.6 500.7,-604.6"/>
<text text-anchor="start" x="507.7" y="-616.8" font-family="Arial" font-size="14.00">model_key </text>
<text text-anchor="start" x="579.29" y="-616.8" font-family="Arial" font-size="14.00" fill="#666666">[text]</text>
<polygon fill="none" stroke="black" points="500.7,-573.8 500.7,-604.6 797.62,-604.6 797.62,-573.8 500.7,-573.8"/>
<text text-anchor="start" x="507.7" y="-586" font-family="Arial" font-size="14.00">use_case_key </text>
<text text-anchor="start" x="601.09" y="-586" font-family="Arial" font-size="14.00" fill="#666666">[text]</text>
<polygon fill="none" stroke="black" points="500.7,-543 500.7,-573.8 797.62,-573.8 797.62,-543 500.7,-543"/>
<text text-anchor="start" x="507.7" y="-555.2" font-family="Arial" font-size="14.00">actor_key </text>
<text text-anchor="start" x="572.28" y="-555.2" font-family="Arial" font-size="14.00" fill="#666666">[text]</text>
<polygon fill="none" stroke="black" points="500.7,-512.2 500.7,-543 797.62,-543 797.62,-512.2 500.7,-512.2"/>
<text text-anchor="start" x="507.7" y="-524.4" font-family="Arial" font-size="14.00">uml_comment </text>
<text text-anchor="start" x="599.5" y="-524.4" font-family="Arial" font-size="14.00" fill="#666666">[text]</text>
<polygon fill="none" stroke="black" stroke-width="3" points="499.2,-510.7 499.2,-672.5 799.12,-672.5 799.12,-510.7 499.2,-510.7"/>
</g>
<!-- public.actor -->
<g id="node2" class="node">
<title>public.actor</title>
<polygon fill="#efefef" stroke="none" points="366.18,-320.4 366.18,-356 590.14,-356 590.14,-320.4 366.18,-320.4"/>
<polygon fill="none" stroke="black" points="366.18,-320.4 366.18,-356 590.14,-356 590.14,-320.4 366.18,-320.4"/>
<text text-anchor="start" x="373.18" y="-333.8" font-family="Arial Bold" font-size="18.00">public.actor</text>
<text text-anchor="start" x="458.65" y="-333.8" font-family="Arial" font-size="14.00">    </text>
<text text-anchor="start" x="489.76" y="-333.8" font-family="Arial" font-size="14.00" fill="#666666">[BASE TABLE]</text>
<polygon fill="none" stroke="black" points="366.18,-289.6 366.18,-320.4 590.14,-320.4 590.14,-289.6 366.18,-289.6"/>
<text text-anchor="start" x="373.18" y="-301.8" font-family="Arial" font-size="14.00">model_key </text>
<text text-anchor="start" x="444.77" y="-301.8" font-family="Arial" font-size="14.00" fill="#666666">[text]</text>
<polygon fill="none" stroke="black" points="366.18,-258.8 366.18,-289.6 590.14,-289.6 590.14,-258.8 366.18,-258.8"/>
<text text-anchor="start" x="373.18" y="-271" font-family="Arial" font-size="14.00">actor_key </text>
<text text-anchor="start" x="437.77" y="-271" font-family="Arial" font-size="14.00" fill="#666666">[text]</text>
<polygon fill="none" stroke="black" points="366.18,-228 366.18,-258.8 590.14,-258.8 590.14,-228 366.18,-228"/>
<text text-anchor="start" x="373.18" y="-240.2" font-family="Arial" font-size="14.00">name </text>
<text text-anchor="start" x="412.09" y="-240.2" font-family="Arial" font-size="14.00" fill="#666666">[text]</text>
<polygon fill="none" stroke="black" points="366.18,-197.2 366.18,-228 590.14,-228 590.14,-197.2 366.18,-197.2"/>
<text text-anchor="start" x="373.18" y="-209.4" font-family="Arial" font-size="14.00">details </text>
<text text-anchor="start" x="417.54" y="-209.4" font-family="Arial" font-size="14.00" fill="#666666">[text]</text>
<polygon fill="none" stroke="black" points="366.18,-166.4 366.18,-197.2 590.14,-197.2 590.14,-166.4 366.18,-166.4"/>
<text text-anchor="start" x="373.18" y="-178.6" font-family="Arial" font-size="14.00">actor_type </text>
<text text-anchor="start" x="442.44" y="-178.6" font-family="Arial" font-size="14.00" fill="#666666">[actor_type]</text>
<polygon fill="none" stroke="black" points="366.18,-135.6 366.18,-166.4 590.14,-166.4 590.14,-135.6 366.18,-135.6"/>
<text text-anchor="start" x="373.18" y="-147.8" font-family="Arial" font-size="14.00">superclass_of_key </text>
<text text-anchor="start" x="493.02" y="-147.8" font-family="Arial" font-size="14.00" fill="#666666">[text]</text>
<polygon fill="none" stroke="black" points="366.18,-104.8 366.18,-135.6 590.14,-135.6 590.14,-104.8 366.18,-104.8"/>
<text text-anchor="start" x="373.18" y="-117" font-family="Arial" font-size="14.00">subclass_of_key </text>
<text text-anchor="start" x="480.57" y="-117" font-family="Arial" font-size="14.00" fill="#666666">[text]</text>
<polygon fill="none" stroke="black" points="366.18,-74 366.18,-104.8 590.14,-104.8 590.14,-74 366.18,-74"/>
<text text-anchor="start" x="373.18" y="-86.2" font-family="Arial" font-size="14.00">uml_comment </text>
<text text-anchor="start" x="464.99" y="-86.2" font-family="Arial" font-size="14.00" fill="#666666">[text]</text>
</g>
<!-- public.use_case_actor&#45;&gt;public.actor -->
<g id="edge1" class="edge">
<title>public.use_case_actor:model_key&#45;&gt;public.actor:model_key</title>
<path fill="none" stroke="black" d="M489.41,-619.19C435.45,-609.93 471.52,-523.75 500.7,-466 523.07,-421.72 567.67,-443.43 590.14,-399.2 609.1,-361.87 633,-305 591.14,-305"/>
<polygon fill="black" stroke="black" points="489.4,-619.19 499.01,-624.46 494.71,-619.61 499.03,-619.95 499.03,-619.95 499.03,-619.95 494.71,-619.61 499.72,-615.49 489.4,-619.19"/>
<text text-anchor="start" x="7" y="-630" font-family="Arial" font-size="10.00">FOREIGN KEY (model_key, actor_key) REFERENCES actor(model_key, actor_key) ON DELETE CASCADE</text>
</g>
<!-- public.use_case -->
<g id="node3" class="node">
<title>public.use_case</title>
<polygon fill="#efefef" stroke="none" points="694.19,-351.2 694.19,-386.8 946.13,-386.8 946.13,-351.2 694.19,-351.2"/>
<polygon fill="none" stroke="black" points="694.19,-351.2 694.19,-386.8 946.13,-386.8 946.13,-351.2 694.19,-351.2"/>
<text text-anchor="start" x="701.19" y="-364.6" font-family="Arial Bold" font-size="18.00">public.use_case</text>
<text text-anchor="start" x="814.64" y="-364.6" font-family="Arial" font-size="14.00">    </text>
<text text-anchor="start" x="845.76" y="-364.6" font-family="Arial" font-size="14.00" fill="#666666">[BASE TABLE]</text>
<polygon fill="none" stroke="black" points="694.19,-320.4 694.19,-351.2 946.13,-351.2 946.13,-320.4 694.19,-320.4"/>
<text text-anchor="start" x="701.19" y="-332.6" font-family="Arial" font-size="14.00">model_key </text>
<text text-anchor="start" x="772.78" y="-332.6" font-family="Arial" font-size="14.00" fill="#666666">[text]</text>
<polygon fill="none" stroke="black" points="694.19,-289.6 694.19,-320.4 946.13,-320.4 946.13,-289.6 694.19,-289.6"/>
<text text-anchor="start" x="701.19" y="-301.8" font-family="Arial" font-size="14.00">use_case_key </text>
<text text-anchor="start" x="794.58" y="-301.8" font-family="Arial" font-size="14.00" fill="#666666">[text]</text>
<polygon fill="none" stroke="black" points="694.19,-258.8 694.19,-289.6 946.13,-289.6 946.13,-258.8 694.19,-258.8"/>
<text text-anchor="start" x="701.19" y="-271" font-family="Arial" font-size="14.00">name </text>
<text text-anchor="start" x="740.1" y="-271" font-family="Arial" font-size="14.00" fill="#666666">[text]</text>
<polygon fill="none" stroke="black" points="694.19,-228 694.19,-258.8 946.13,-258.8 946.13,-228 694.19,-228"/>
<text text-anchor="start" x="701.19" y="-240.2" font-family="Arial" font-size="14.00">details </text>
<text text-anchor="start" x="745.54" y="-240.2" font-family="Arial" font-size="14.00" fill="#666666">[text]</text>
<polygon fill="none" stroke="black" points="694.19,-197.2 694.19,-228 946.13,-228 946.13,-197.2 694.19,-197.2"/>
<text text-anchor="start" x="701.19" y="-209.4" font-family="Arial" font-size="14.00">level </text>
<text text-anchor="start" x="733.87" y="-209.4" font-family="Arial" font-size="14.00" fill="#666666">[use_case_level]</text>
<polygon fill="none" stroke="black" points="694.19,-166.4 694.19,-197.2 946.13,-197.2 946.13,-166.4 694.19,-166.4"/>
<text text-anchor="start" x="701.19" y="-178.6" font-family="Arial" font-size="14.00">read_only </text>
<text text-anchor="start" x="766.56" y="-178.6" font-family="Arial" font-size="14.00" fill="#666666">[boolean]</text>
<polygon fill="none" stroke="black" points="694.19,-135.6 694.19,-166.4 946.13,-166.4 946.13,-135.6 694.19,-135.6"/>
<text text-anchor="start" x="701.19" y="-147.8" font-family="Arial" font-size="14.00">subdomain_key </text>
<text text-anchor="start" x="803.14" y="-147.8" font-family="Arial" font-size="14.00" fill="#666666">[text]</text>
<polygon fill="none" stroke="black" points="694.19,-104.8 694.19,-135.6 946.13,-135.6 946.13,-104.8 694.19,-104.8"/>
<text text-anchor="start" x="701.19" y="-117" font-family="Arial" font-size="14.00">superclass_of_key </text>
<text text-anchor="start" x="821.03" y="-117" font-family="Arial" font-size="14.00" fill="#666666">[text]</text>
<polygon fill="none" stroke="black" points="694.19,-74 694.19,-104.8 946.13,-104.8 946.13,-74 694.19,-74"/>
<text text-anchor="start" x="701.19" y="-86.2" font-family="Arial" font-size="14.00">subclass_of_key </text>
<text text-anchor="start" x="808.58" y="-86.2" font-family="Arial" font-size="14.00" fill="#666666">[text]</text>
<polygon fill="none" stroke="black" points="694.19,-43.2 694.19,-74 946.13,-74 946.13,-43.2 694.19,-43.2"/>
<text text-anchor="start" x="701.19" y="-55.4" font-family="Arial" font-size="14.00">uml_comment </text>
<text text-anchor="start" x="792.99" y="-55.4" font-family="Arial" font-size="14.00" fill="#666666">[text]</text>
</g>
<!-- public.use_case_actor&#45;&gt;public.use_case -->
<g id="edge2" class="edge">
<title>public.use_case_actor:model_key&#45;&gt;public.use_case:model_key</title>
<path fill="none" stroke="black" d="M808.98,-619.14C863.8,-609.37 835.28,-518.62 797.62,-466 769.29,-426.42 722.6,-469.52 694.19,-430 669.75,-396 651.32,-335.8 693.19,-335.8"/>
<polygon fill="black" stroke="black" points="808.92,-619.15 798.58,-615.49 803.6,-619.59 799.29,-619.94 799.29,-619.94 799.29,-619.94 803.6,-619.59 799.32,-624.46 808.92,-619.15"/>
<text text-anchor="start" x="805.62" y="-630" font-family="Arial" font-size="10.00">FOREIGN KEY (model_key, use_case_key) REFERENCES use_case(model_key, use_case_key) ON DELETE CASCADE</text>
</g>
</g>
</svg>
