<?xml version="1.0" encoding="UTF-8" standalone="no"?>
<!DOCTYPE svg PUBLIC "-//W3C//DTD SVG 1.1//EN"
 "http://www.w3.org/Graphics/SVG/1.1/DTD/svg11.dtd">
<!-- Generated by graphviz version 12.1.2 (20240928.0832)
 -->
<!-- Title: public.state_action Pages: 1 -->
<svg width="1295pt" height="633pt"
 viewBox="0.00 0.00 1295.05 632.80" xmlns="http://www.w3.org/2000/svg" xmlns:xlink="http://www.w3.org/1999/xlink">
<g id="graph0" class="graph" transform="scale(1 1) rotate(0) translate(4 628.8)">
<title>public.state_action</title>
<polygon fill="white" stroke="none" points="-4,4 -4,-628.8 1291.05,-628.8 1291.05,4 -4,4"/>
<!-- public.state_action -->
<g id="node1" class="node">
<title>public.state_action</title>
<polygon fill="#efefef" stroke="none" points="499.04,-543 499.04,-578.6 772.99,-578.6 772.99,-543 499.04,-543"/>
<polygon fill="none" stroke="black" points="499.04,-543 499.04,-578.6 772.99,-578.6 772.99,-543 499.04,-543"/>
<text text-anchor="start" x="506.04" y="-556.4" font-family="Arial Bold" font-size="18.00">public.state_action</text>
<text text-anchor="start" x="641.5" y="-556.4" font-family="Arial" font-size="14.00">    </text>
<text text-anchor="start" x="672.62" y="-556.4" font-family="Arial" font-size="14.00" fill="#666666">[BASE TABLE]</text>
<polygon fill="none" stroke="black" points="499.04,-512.2 499.04,-543 772.99,-543 772.99,-512.2 499.04,-512.2"/>
<text text-anchor="start" x="506.04" y="-524.4" font-family="Arial" font-size="14.00">model_key </text>
<text text-anchor="start" x="577.64" y="-524.4" font-family="Arial" font-size="14.00" fill="#666666">[text]</text>
<polygon fill="none" stroke="black" points="499.04,-481.4 499.04,-512.2 772.99,-512.2 772.99,-481.4 499.04,-481.4"/>
<text text-anchor="start" x="506.04" y="-493.6" font-family="Arial" font-size="14.00">state_key </text>
<text text-anchor="start" x="569.86" y="-493.6" font-family="Arial" font-size="14.00" fill="#666666">[text]</text>
<polygon fill="none" stroke="black" points="499.04,-450.6 499.04,-481.4 772.99,-481.4 772.99,-450.6 499.04,-450.6"/>
<text text-anchor="start" x="506.04" y="-462.8" font-family="Arial" font-size="14.00">state_action_key </text>
<text text-anchor="start" x="615" y="-462.8" font-family="Arial" font-size="14.00" fill="#666666">[text]</text>
<polygon fill="none" stroke="black" points="499.04,-419.8 499.04,-450.6 772.99,-450.6 772.99,-419.8 499.04,-419.8"/>
<text text-anchor="start" x="506.04" y="-432" font-family="Arial" font-size="14.00">action_key </text>
<text text-anchor="start" x="576.86" y="-432" font-family="Arial" font-size="14.00" fill="#666666">[text]</text>
<polygon fill="none" stroke="black" points="499.04,-389 499.04,-419.8 772.99,-419.8 772.99,-389 499.04,-389"/>
<text text-anchor="start" x="506.04" y="-401.2" font-family="Arial" font-size="14.00">action_when </text>
<text text-anchor="start" x="588.55" y="-401.2" font-family="Arial" font-size="14.00" fill="#666666">[state_action_when]</text>
<polygon fill="none" stroke="black" stroke-width="3" points="497.54,-387.5 497.54,-580.1 774.49,-580.1 774.49,-387.5 497.54,-387.5"/>
</g>
<!-- public.state -->
<g id="node2" class="node">
<title>public.state</title>
<polygon fill="#efefef" stroke="none" points="360.53,-228 360.53,-263.6 581.5,-263.6 581.5,-228 360.53,-228"/>
<polygon fill="none" stroke="black" points="360.53,-228 360.53,-263.6 581.5,-263.6 581.5,-228 360.53,-228"/>
<text text-anchor="start" x="367.53" y="-241.4" font-family="Arial Bold" font-size="18.00">public.state</text>
<text text-anchor="start" x="450.01" y="-241.4" font-family="Arial" font-size="14.00">    </text>
<text text-anchor="start" x="481.13" y="-241.4" font-family="Arial" font-size="14.00" fill="#666666">[BASE TABLE]</text>
<polygon fill="none" stroke="black" points="360.53,-197.2 360.53,-228 581.5,-228 581.5,-197.2 360.53,-197.2"/>
<text text-anchor="start" x="367.53" y="-209.4" font-family="Arial" font-size="14.00">model_key </text>
<text text-anchor="start" x="439.13" y="-209.4" font-family="Arial" font-size="14.00" fill="#666666">[text]</text>
<polygon fill="none" stroke="black" points="360.53,-166.4 360.53,-197.2 581.5,-197.2 581.5,-166.4 360.53,-166.4"/>
<text text-anchor="start" x="367.53" y="-178.6" font-family="Arial" font-size="14.00">class_key </text>
<text text-anchor="start" x="432.89" y="-178.6" font-family="Arial" font-size="14.00" fill="#666666">[text]</text>
<polygon fill="none" stroke="black" points="360.53,-135.6 360.53,-166.4 581.5,-166.4 581.5,-135.6 360.53,-135.6"/>
<text text-anchor="start" x="367.53" y="-147.8" font-family="Arial" font-size="14.00">state_key </text>
<text text-anchor="start" x="431.35" y="-147.8" font-family="Arial" font-size="14.00" fill="#666666">[text]</text>
<polygon fill="none" stroke="black" points="360.53,-104.8 360.53,-135.6 581.5,-135.6 581.5,-104.8 360.53,-104.8"/>
<text text-anchor="start" x="367.53" y="-117" font-family="Arial" font-size="14.00">name </text>
<text text-anchor="start" x="406.44" y="-117" font-family="Arial" font-size="14.00" fill="#666666">[text]</text>
<polygon fill="none" stroke="black" points="360.53,-74 360.53,-104.8 581.5,-104.8 581.5,-74 360.53,-74"/>
<text text-anchor="start" x="367.53" y="-86.2" font-family="Arial" font-size="14.00">details </text>
<text text-anchor="start" x="411.89" y="-86.2" font-family="Arial" font-size="14.00" fill="#666666">[text]</text>
<polygon fill="none" stroke="black" points="360.53,-43.2 360.53,-74 581.5,-74 581.5,-43.2 360.53,-43.2"/>
<text text-anchor="start" x="367.53" y="-55.4" font-family="Arial" font-size="14.00">uml_comment </text>
<text text-anchor="start" x="459.34" y="-55.4" font-family="Arial" font-size="14.00" fill="#666666">[text]</text>
</g>
<!-- public.state_action&#45;&gt;public.state -->
<g id="edge1" class="edge">
<title>public.state_action:model_key&#45;&gt;public.state:model_key</title>
<path fill="none" stroke="black" d="M487.69,-526.91C419.33,-517.26 455.9,-408.32 499.04,-342.8 521.03,-309.4 559.42,-340.14 581.5,-306.8 604.61,-271.89 624.37,-212.6 582.5,-212.6"/>
<polygon fill="black" stroke="black" points="487.73,-526.91 497.41,-532.07 493.05,-527.27 497.38,-527.56 497.38,-527.56 497.38,-527.56 493.05,-527.27 498.01,-523.09 487.73,-526.91"/>
<text text-anchor="start" x="7" y="-537.6" font-family="Arial" font-size="10.00">FOREIGN KEY (model_key, state_key) REFERENCES state(model_key, state_key) ON DELETE CASCADE</text>
</g>
<!-- public.action -->
<g id="node3" class="node">
<title>public.action</title>
<polygon fill="#efefef" stroke="none" points="686.04,-212.6 686.04,-248.2 918,-248.2 918,-212.6 686.04,-212.6"/>
<polygon fill="none" stroke="black" points="686.04,-212.6 686.04,-248.2 918,-248.2 918,-212.6 686.04,-212.6"/>
<text text-anchor="start" x="693.04" y="-226" font-family="Arial Bold" font-size="18.00">public.action</text>
<text text-anchor="start" x="786.51" y="-226" font-family="Arial" font-size="14.00">    </text>
<text text-anchor="start" x="817.62" y="-226" font-family="Arial" font-size="14.00" fill="#666666">[BASE TABLE]</text>
<polygon fill="none" stroke="black" points="686.04,-181.8 686.04,-212.6 918,-212.6 918,-181.8 686.04,-181.8"/>
<text text-anchor="start" x="693.04" y="-194" font-family="Arial" font-size="14.00">model_key </text>
<text text-anchor="start" x="764.63" y="-194" font-family="Arial" font-size="14.00" fill="#666666">[text]</text>
<polygon fill="none" stroke="black" points="686.04,-151 686.04,-181.8 918,-181.8 918,-151 686.04,-151"/>
<text text-anchor="start" x="693.04" y="-163.2" font-family="Arial" font-size="14.00">class_key </text>
<text text-anchor="start" x="758.39" y="-163.2" font-family="Arial" font-size="14.00" fill="#666666">[text]</text>
<polygon fill="none" stroke="black" points="686.04,-120.2 686.04,-151 918,-151 918,-120.2 686.04,-120.2"/>
<text text-anchor="start" x="693.04" y="-132.4" font-family="Arial" font-size="14.00">action_key </text>
<text text-anchor="start" x="763.86" y="-132.4" font-family="Arial" font-size="14.00" fill="#666666">[text]</text>
<polygon fill="none" stroke="black" points="686.04,-89.4 686.04,-120.2 918,-120.2 918,-89.4 686.04,-89.4"/>
<text text-anchor="start" x="693.04" y="-101.6" font-family="Arial" font-size="14.00">name </text>
<text text-anchor="start" x="731.95" y="-101.6" font-family="Arial" font-size="14.00" fill="#666666">[text]</text>
<polygon fill="none" stroke="black" points="686.04,-58.6 686.04,-89.4 918,-89.4 918,-58.6 686.04,-58.6"/>
<text text-anchor="start" x="693.04" y="-70.8" font-family="Arial" font-size="14.00">details </text>
<text text-anchor="start" x="737.39" y="-70.8" font-family="Arial" font-size="14.00" fill="#666666">[text]</text>
</g>
<!-- public.state_action&#45;&gt;public.action -->
<g id="edge2" class="edge">
<title>public.state_action:model_key&#45;&gt;public.action:model_key</title>
<path fill="none" stroke="black" d="M784.32,-526.93C852.33,-517.48 812.05,-410.83 772.99,-342.8 750.64,-303.87 708.49,-330.27 686.04,-291.4 665.09,-255.14 643.17,-197.2 685.04,-197.2"/>
<polygon fill="black" stroke="black" points="784.3,-526.93 774.03,-523.09 778.98,-527.27 774.66,-527.56 774.66,-527.56 774.66,-527.56 778.98,-527.27 774.62,-532.07 784.3,-526.93"/>
<text text-anchor="start" x="780.99" y="-537.6" font-family="Arial" font-size="10.00">FOREIGN KEY (model_key, action_key) REFERENCES action(model_key, action_key) ON DELETE CASCADE</text>
</g>
</g>
</svg>
