<?xml version="1.0" encoding="UTF-8" standalone="no"?>
<!DOCTYPE svg PUBLIC "-//W3C//DTD SVG 1.1//EN"
 "http://www.w3.org/Graphics/SVG/1.1/DTD/svg11.dtd">
<!-- Generated by graphviz version 12.1.2 (20240928.0832)
 -->
<!-- Title: public.action_parameter Pages: 1 -->
<svg width="1401pt" height="756pt"
 viewBox="0.00 0.00 1400.75 756.00" xmlns="http://www.w3.org/2000/svg" xmlns:xlink="http://www.w3.org/1999/xlink">
<g id="graph0" class="graph" transform="scale(1 1) rotate(0) translate(4 752)">
<title>public.action_parameter</title>
<polygon fill="white" stroke="none" points="-4,4 -4,-752 1396.75,-752 1396.75,4 -4,4"/>
<!-- public.action_parameter -->
<g id="node1" class="node">
<title>public.action_parameter</title>
<polygon fill="#efefef" stroke="none" points="565.78,-666.2 565.78,-701.8 878.69,-701.8 878.69,-666.2 565.78,-666.2"/>
<polygon fill="none" stroke="black" points="565.78,-666.2 565.78,-701.8 878.69,-701.8 878.69,-666.2 565.78,-666.2"/>
<text text-anchor="start" x="572.78" y="-679.6" font-family="Arial Bold" font-size="18.00">public.action_parameter</text>
<text text-anchor="start" x="747.2" y="-679.6" font-family="Arial" font-size="14.00">    </text>
<text text-anchor="start" x="778.32" y="-679.6" font-family="Arial" font-size="14.00" fill="#666666">[BASE TABLE]</text>
<polygon fill="none" stroke="black" points="565.78,-635.4 565.78,-666.2 878.69,-666.2 878.69,-635.4 565.78,-635.4"/>
<text text-anchor="start" x="572.78" y="-647.6" font-family="Arial" font-size="14.00">model_key </text>
<text text-anchor="start" x="644.37" y="-647.6" font-family="Arial" font-size="14.00" fill="#666666">[text]</text>
<polygon fill="none" stroke="black" points="565.78,-604.6 565.78,-635.4 878.69,-635.4 878.69,-604.6 565.78,-604.6"/>
<text text-anchor="start" x="572.78" y="-616.8" font-family="Arial" font-size="14.00">action_key </text>
<text text-anchor="start" x="643.6" y="-616.8" font-family="Arial" font-size="14.00" fill="#666666">[text]</text>
<polygon fill="none" stroke="black" points="565.78,-573.8 565.78,-604.6 878.69,-604.6 878.69,-573.8 565.78,-573.8"/>
<text text-anchor="start" x="572.78" y="-586" font-family="Arial" font-size="14.00">parameter_key </text>
<text text-anchor="start" x="670.05" y="-586" font-family="Arial" font-size="14.00" fill="#666666">[text]</text>
<polygon fill="none" stroke="black" points="565.78,-543 565.78,-573.8 878.69,-573.8 878.69,-543 565.78,-543"/>
<text text-anchor="start" x="572.78" y="-555.2" font-family="Arial" font-size="14.00">name </text>
<text text-anchor="start" x="611.69" y="-555.2" font-family="Arial" font-size="14.00" fill="#666666">[text]</text>
<polygon fill="none" stroke="black" points="565.78,-512.2 565.78,-543 878.69,-543 878.69,-512.2 565.78,-512.2"/>
<text text-anchor="start" x="572.78" y="-524.4" font-family="Arial" font-size="14.00">sort_order </text>
<text text-anchor="start" x="640.48" y="-524.4" font-family="Arial" font-size="14.00" fill="#666666">[integer]</text>
<polygon fill="none" stroke="black" points="565.78,-481.4 565.78,-512.2 878.69,-512.2 878.69,-481.4 565.78,-481.4"/>
<text text-anchor="start" x="572.78" y="-493.6" font-family="Arial" font-size="14.00">data_type_rules </text>
<text text-anchor="start" x="676.3" y="-493.6" font-family="Arial" font-size="14.00" fill="#666666">[text]</text>
<polygon fill="none" stroke="black" points="565.78,-450.6 565.78,-481.4 878.69,-481.4 878.69,-450.6 565.78,-450.6"/>
<text text-anchor="start" x="572.78" y="-462.8" font-family="Arial" font-size="14.00">data_type_key </text>
<text text-anchor="start" x="667.74" y="-462.8" font-family="Arial" font-size="14.00" fill="#666666">[text]</text>
<polygon fill="none" stroke="black" stroke-width="3" points="564.28,-449.1 564.28,-703.3 880.19,-703.3 880.19,-449.1 564.28,-449.1"/>
</g>
<!-- public.data_type -->
<g id="node2" class="node">
<title>public.data_type</title>
<polygon fill="#efefef" stroke="none" points="419.26,-289.6 419.26,-325.2 677.21,-325.2 677.21,-289.6 419.26,-289.6"/>
<polygon fill="none" stroke="black" points="419.26,-289.6 419.26,-325.2 677.21,-325.2 677.21,-289.6 419.26,-289.6"/>
<text text-anchor="start" x="426.26" y="-303" font-family="Arial Bold" font-size="18.00">public.data_type</text>
<text text-anchor="start" x="545.72" y="-303" font-family="Arial" font-size="14.00">    </text>
<text text-anchor="start" x="576.84" y="-303" font-family="Arial" font-size="14.00" fill="#666666">[BASE TABLE]</text>
<polygon fill="none" stroke="black" points="419.26,-258.8 419.26,-289.6 677.21,-289.6 677.21,-258.8 419.26,-258.8"/>
<text text-anchor="start" x="426.26" y="-271" font-family="Arial" font-size="14.00">model_key </text>
<text text-anchor="start" x="497.85" y="-271" font-family="Arial" font-size="14.00" fill="#666666">[text]</text>
<polygon fill="none" stroke="black" points="419.26,-228 419.26,-258.8 677.21,-258.8 677.21,-228 419.26,-228"/>
<text text-anchor="start" x="426.26" y="-240.2" font-family="Arial" font-size="14.00">data_type_key </text>
<text text-anchor="start" x="521.22" y="-240.2" font-family="Arial" font-size="14.00" fill="#666666">[text]</text>
<polygon fill="none" stroke="black" points="419.26,-197.2 419.26,-228 677.21,-228 677.21,-197.2 419.26,-197.2"/>
<text text-anchor="start" x="426.26" y="-209.4" font-family="Arial" font-size="14.00">collection_type </text>
<text text-anchor="start" x="522.76" y="-209.4" font-family="Arial" font-size="14.00" fill="#666666">[collection_type]</text>
<polygon fill="none" stroke="black" points="419.26,-166.4 419.26,-197.2 677.21,-197.2 677.21,-166.4 419.26,-166.4"/>
<text text-anchor="start" x="426.26" y="-178.6" font-family="Arial" font-size="14.00">collection_unique </text>
<text text-anchor="start" x="538.34" y="-178.6" font-family="Arial" font-size="14.00" fill="#666666">[boolean]</text>
<polygon fill="none" stroke="black" points="419.26,-135.6 419.26,-166.4 677.21,-166.4 677.21,-135.6 419.26,-135.6"/>
<text text-anchor="start" x="426.26" y="-147.8" font-family="Arial" font-size="14.00">collection_min </text>
<text text-anchor="start" x="518.86" y="-147.8" font-family="Arial" font-size="14.00" fill="#666666">[bigint]</text>
<polygon fill="none" stroke="black" points="419.26,-104.8 419.26,-135.6 677.21,-135.6 677.21,-104.8 419.26,-104.8"/>
<text text-anchor="start" x="426.26" y="-117" font-family="Arial" font-size="14.00">collection_max </text>
<text text-anchor="start" x="522.75" y="-117" font-family="Arial" font-size="14.00" fill="#666666">[bigint]</text>
<polygon fill="none" stroke="black" points="419.26,-74 419.26,-104.8 677.21,-104.8 677.21,-74 419.26,-74"/>
<text text-anchor="start" x="426.26" y="-86.2" font-family="Arial" font-size="14.00">type_spec_notation </text>
<text text-anchor="start" x="551.58" y="-86.2" font-family="Arial" font-size="14.00" fill="#666666">[notation]</text>
<polygon fill="none" stroke="black" points="419.26,-43.2 419.26,-74 677.21,-74 677.21,-43.2 419.26,-43.2"/>
<text text-anchor="start" x="426.26" y="-55.4" font-family="Arial" font-size="14.00">type_spec_specification </text>
<text text-anchor="start" x="578.8" y="-55.4" font-family="Arial" font-size="14.00" fill="#666666">[text]</text>
</g>
<!-- public.action_parameter&#45;&gt;public.data_type -->
<g id="edge1" class="edge">
<title>public.action_parameter:model_key&#45;&gt;public.data_type:model_key</title>
<path fill="none" stroke="black" d="M554.38,-650.29C458.34,-640.39 503.3,-489.88 565.78,-404.4 596.49,-362.38 646.36,-410.32 677.21,-368.4 702.03,-334.68 720.08,-274.2 678.21,-274.2"/>
<polygon fill="black" stroke="black" points="554.46,-650.29 564.22,-655.28 559.79,-650.55 564.11,-650.77 564.11,-650.77 564.11,-650.77 559.79,-650.55 564.67,-646.29 554.46,-650.29"/>
<text text-anchor="start" x="7" y="-660.8" font-family="Arial" font-size="10.00">FOREIGN KEY (model_key, data_type_key) REFERENCES data_type(model_key, data_type_key) ON DELETE CASCADE</text>
</g>
<!-- public.action -->
<g id="node3" class="node">
<title>public.action</title>
<polygon fill="#efefef" stroke="none" points="781.25,-243.4 781.25,-279 1013.22,-279 1013.22,-243.4 781.25,-243.4"/>
<polygon fill="none" stroke="black" points="781.25,-243.4 781.25,-279 1013.22,-279 1013.22,-243.4 781.25,-243.4"/>
<text text-anchor="start" x="788.25" y="-256.8" font-family="Arial Bold" font-size="18.00">public.action</text>
<text text-anchor="start" x="881.73" y="-256.8" font-family="Arial" font-size="14.00">    </text>
<text text-anchor="start" x="912.84" y="-256.8" font-family="Arial" font-size="14.00" fill="#666666">[BASE TABLE]</text>
<polygon fill="none" stroke="black" points="781.25,-212.6 781.25,-243.4 1013.22,-243.4 1013.22,-212.6 781.25,-212.6"/>
<text text-anchor="start" x="788.25" y="-224.8" font-family="Arial" font-size="14.00">model_key </text>
<text text-anchor="start" x="859.85" y="-224.8" font-family="Arial" font-size="14.00" fill="#666666">[text]</text>
<polygon fill="none" stroke="black" points="781.25,-181.8 781.25,-212.6 1013.22,-212.6 1013.22,-181.8 781.25,-181.8"/>
<text text-anchor="start" x="788.25" y="-194" font-family="Arial" font-size="14.00">class_key </text>
<text text-anchor="start" x="853.61" y="-194" font-family="Arial" font-size="14.00" fill="#666666">[text]</text>
<polygon fill="none" stroke="black" points="781.25,-151 781.25,-181.8 1013.22,-181.8 1013.22,-151 781.25,-151"/>
<text text-anchor="start" x="788.25" y="-163.2" font-family="Arial" font-size="14.00">action_key </text>
<text text-anchor="start" x="859.08" y="-163.2" font-family="Arial" font-size="14.00" fill="#666666">[text]</text>
<polygon fill="none" stroke="black" points="781.25,-120.2 781.25,-151 1013.22,-151 1013.22,-120.2 781.25,-120.2"/>
<text text-anchor="start" x="788.25" y="-132.4" font-family="Arial" font-size="14.00">name </text>
<text text-anchor="start" x="827.17" y="-132.4" font-family="Arial" font-size="14.00" fill="#666666">[text]</text>
<polygon fill="none" stroke="black" points="781.25,-89.4 781.25,-120.2 1013.22,-120.2 1013.22,-89.4 781.25,-89.4"/>
<text text-anchor="start" x="788.25" y="-101.6" font-family="Arial" font-size="14.00">details </text>
<text text-anchor="start" x="832.61" y="-101.6" font-family="Arial" font-size="14.00" fill="#666666">[text]</text>
</g>
<!-- public.action_parameter&#45;&gt;public.action -->
<g id="edge2" class="edge">
<title>public.action_parameter:model_key&#45;&gt;public.action:model_key</title>
<path fill="none" stroke="black" d="M890.03,-650.32C984.96,-641.08 923.5,-500.32 878.69,-404.4 854.71,-353.07 805.4,-373.45 781.25,-322.2 763.41,-284.32 738.39,-228 780.25,-228"/>
<polygon fill="black" stroke="black" points="890.01,-650.32 879.82,-646.29 884.68,-650.57 880.36,-650.77 880.36,-650.77 880.36,-650.77 884.68,-650.57 880.23,-655.28 890.01,-650.32"/>
<text text-anchor="start" x="886.69" y="-660.8" font-family="Arial" font-size="10.00">FOREIGN KEY (model_key, action_key) REFERENCES action(model_key, action_key) ON DELETE CASCADE</text>
</g>
</g>
</svg>
