<?xml version="1.0" encoding="UTF-8" standalone="no"?>
<!DOCTYPE svg PUBLIC "-//W3C//DTD SVG 1.1//EN"
 "http://www.w3.org/Graphics/SVG/1.1/DTD/svg11.dtd">
<!-- Generated by graphviz version 12.1.2 (20240928.0832)
 -->
<!-- Title: public.parameter Pages: 1 -->
<svg width="1348pt" height="756pt"
 viewBox="0.00 0.00 1347.77 756.00" xmlns="http://www.w3.org/2000/svg" xmlns:xlink="http://www.w3.org/1999/xlink">
<g id="graph0" class="graph" transform="scale(1 1) rotate(0) translate(4 752)">
<title>public.parameter</title>
<polygon fill="white" stroke="none" points="-4,4 -4,-752 1343.77,-752 1343.77,4 -4,4"/>
<!-- public.parameter -->
<g id="node1" class="node">
<title>public.parameter</title>
<polygon fill="#efefef" stroke="none" points="565.78,-666.2 565.78,-701.8 825.71,-701.8 825.71,-666.2 565.78,-666.2"/>
<polygon fill="none" stroke="black" points="565.78,-666.2 565.78,-701.8 825.71,-701.8 825.71,-666.2 565.78,-666.2"/>
<text text-anchor="start" x="572.78" y="-679.6" font-family="Arial Bold" font-size="18.00">public.parameter</text>
<text text-anchor="start" x="694.22" y="-679.6" font-family="Arial" font-size="14.00">    </text>
<text text-anchor="start" x="725.34" y="-679.6" font-family="Arial" font-size="14.00" fill="#666666">[BASE TABLE]</text>
<polygon fill="none" stroke="black" points="565.78,-635.4 565.78,-666.2 825.71,-666.2 825.71,-635.4 565.78,-635.4"/>
<text text-anchor="start" x="572.78" y="-647.6" font-family="Arial" font-size="14.00">model_key </text>
<text text-anchor="start" x="644.37" y="-647.6" font-family="Arial" font-size="14.00" fill="#666666">[text]</text>
<polygon fill="none" stroke="black" points="565.78,-604.6 565.78,-635.4 825.71,-635.4 825.71,-604.6 565.78,-604.6"/>
<text text-anchor="start" x="572.78" y="-616.8" font-family="Arial" font-size="14.00">parameter_key </text>
<text text-anchor="start" x="670.05" y="-616.8" font-family="Arial" font-size="14.00" fill="#666666">[text]</text>
<polygon fill="none" stroke="black" points="565.78,-573.8 565.78,-604.6 825.71,-604.6 825.71,-573.8 565.78,-573.8"/>
<text text-anchor="start" x="572.78" y="-586" font-family="Arial" font-size="14.00">action_key </text>
<text text-anchor="start" x="643.6" y="-586" font-family="Arial" font-size="14.00" fill="#666666">[text]</text>
<polygon fill="none" stroke="black" points="565.78,-543 565.78,-573.8 825.71,-573.8 825.71,-543 565.78,-543"/>
<text text-anchor="start" x="572.78" y="-555.2" font-family="Arial" font-size="14.00">data_type_rules </text>
<text text-anchor="start" x="676.3" y="-555.2" font-family="Arial" font-size="14.00" fill="#666666">[text]</text>
<polygon fill="none" stroke="black" points="565.78,-512.2 565.78,-543 825.71,-543 825.71,-512.2 565.78,-512.2"/>
<text text-anchor="start" x="572.78" y="-524.4" font-family="Arial" font-size="14.00">data_type_key </text>
<text text-anchor="start" x="667.74" y="-524.4" font-family="Arial" font-size="14.00" fill="#666666">[text]</text>
<polygon fill="none" stroke="black" points="565.78,-481.4 565.78,-512.2 825.71,-512.2 825.71,-481.4 565.78,-481.4"/>
<text text-anchor="start" x="572.78" y="-493.6" font-family="Arial" font-size="14.00">name </text>
<text text-anchor="start" x="611.69" y="-493.6" font-family="Arial" font-size="14.00" fill="#666666">[text]</text>
<polygon fill="none" stroke="black" points="565.78,-450.6 565.78,-481.4 825.71,-481.4 825.71,-450.6 565.78,-450.6"/>
<text text-anchor="start" x="572.78" y="-462.8" font-family="Arial" font-size="14.00">details </text>
<text text-anchor="start" x="617.14" y="-462.8" font-family="Arial" font-size="14.00" fill="#666666">[text]</text>
<polygon fill="none" stroke="black" points="565.78,-419.8 565.78,-450.6 825.71,-450.6 825.71,-419.8 565.78,-419.8"/>
<text text-anchor="start" x="572.78" y="-432" font-family="Arial" font-size="14.00">uml_comment </text>
<text text-anchor="start" x="664.59" y="-432" font-family="Arial" font-size="14.00" fill="#666666">[text]</text>
<polygon fill="none" stroke="black" stroke-width="3" points="564.28,-418.3 564.28,-703.3 827.21,-703.3 827.21,-418.3 564.28,-418.3"/>
</g>
<!-- public.data_type -->
<g id="node2" class="node">
<title>public.data_type</title>
<polygon fill="#efefef" stroke="none" points="392.77,-243.4 392.77,-279 650.72,-279 650.72,-243.4 392.77,-243.4"/>
<polygon fill="none" stroke="black" points="392.77,-243.4 392.77,-279 650.72,-279 650.72,-243.4 392.77,-243.4"/>
<text text-anchor="start" x="399.77" y="-256.8" font-family="Arial Bold" font-size="18.00">public.data_type</text>
<text text-anchor="start" x="519.23" y="-256.8" font-family="Arial" font-size="14.00">    </text>
<text text-anchor="start" x="550.35" y="-256.8" font-family="Arial" font-size="14.00" fill="#666666">[BASE TABLE]</text>
<polygon fill="none" stroke="black" points="392.77,-212.6 392.77,-243.4 650.72,-243.4 650.72,-212.6 392.77,-212.6"/>
<text text-anchor="start" x="399.77" y="-224.8" font-family="Arial" font-size="14.00">model_key </text>
<text text-anchor="start" x="471.36" y="-224.8" font-family="Arial" font-size="14.00" fill="#666666">[text]</text>
<polygon fill="none" stroke="black" points="392.77,-181.8 392.77,-212.6 650.72,-212.6 650.72,-181.8 392.77,-181.8"/>
<text text-anchor="start" x="399.77" y="-194" font-family="Arial" font-size="14.00">data_type_key </text>
<text text-anchor="start" x="494.73" y="-194" font-family="Arial" font-size="14.00" fill="#666666">[text]</text>
<polygon fill="none" stroke="black" points="392.77,-151 392.77,-181.8 650.72,-181.8 650.72,-151 392.77,-151"/>
<text text-anchor="start" x="399.77" y="-163.2" font-family="Arial" font-size="14.00">collection_type </text>
<text text-anchor="start" x="496.27" y="-163.2" font-family="Arial" font-size="14.00" fill="#666666">[collection_type]</text>
<polygon fill="none" stroke="black" points="392.77,-120.2 392.77,-151 650.72,-151 650.72,-120.2 392.77,-120.2"/>
<text text-anchor="start" x="399.77" y="-132.4" font-family="Arial" font-size="14.00">collection_unique </text>
<text text-anchor="start" x="511.85" y="-132.4" font-family="Arial" font-size="14.00" fill="#666666">[boolean]</text>
<polygon fill="none" stroke="black" points="392.77,-89.4 392.77,-120.2 650.72,-120.2 650.72,-89.4 392.77,-89.4"/>
<text text-anchor="start" x="399.77" y="-101.6" font-family="Arial" font-size="14.00">collection_min </text>
<text text-anchor="start" x="492.37" y="-101.6" font-family="Arial" font-size="14.00" fill="#666666">[bigint]</text>
<polygon fill="none" stroke="black" points="392.77,-58.6 392.77,-89.4 650.72,-89.4 650.72,-58.6 392.77,-58.6"/>
<text text-anchor="start" x="399.77" y="-70.8" font-family="Arial" font-size="14.00">collection_max </text>
<text text-anchor="start" x="496.26" y="-70.8" font-family="Arial" font-size="14.00" fill="#666666">[bigint]</text>
</g>
<!-- public.parameter&#45;&gt;public.data_type -->
<g id="edge1" class="edge">
<title>public.parameter:model_key&#45;&gt;public.data_type:model_key</title>
<path fill="none" stroke="black" d="M554.43,-650.37C445.3,-640.89 506.87,-477.67 565.78,-373.6 587.52,-335.2 628.85,-360.52 650.72,-322.2 671.47,-285.84 693.59,-228 651.72,-228"/>
<polygon fill="black" stroke="black" points="554.46,-650.37 564.26,-655.28 559.79,-650.59 564.11,-650.77 564.11,-650.77 564.11,-650.77 559.79,-650.59 564.63,-646.29 554.46,-650.37"/>
<text text-anchor="start" x="7" y="-660.8" font-family="Arial" font-size="10.00">FOREIGN KEY (model_key, data_type_key) REFERENCES data_type(model_key, data_type_key) ON DELETE CASCADE</text>
</g>
<!-- public.action -->
<g id="node3" class="node">
<title>public.action</title>
<polygon fill="#efefef" stroke="none" points="754.76,-258.8 754.76,-294.4 986.73,-294.4 986.73,-258.8 754.76,-258.8"/>
<polygon fill="none" stroke="black" points="754.76,-258.8 754.76,-294.4 986.73,-294.4 986.73,-258.8 754.76,-258.8"/>
<text text-anchor="start" x="761.76" y="-272.2" font-family="Arial Bold" font-size="18.00">public.action</text>
<text text-anchor="start" x="855.24" y="-272.2" font-family="Arial" font-size="14.00">    </text>
<text text-anchor="start" x="886.35" y="-272.2" font-family="Arial" font-size="14.00" fill="#666666">[BASE TABLE]</text>
<polygon fill="none" stroke="black" points="754.76,-228 754.76,-258.8 986.73,-258.8 986.73,-228 754.76,-228"/>
<text text-anchor="start" x="761.76" y="-240.2" font-family="Arial" font-size="14.00">model_key </text>
<text text-anchor="start" x="833.36" y="-240.2" font-family="Arial" font-size="14.00" fill="#666666">[text]</text>
<polygon fill="none" stroke="black" points="754.76,-197.2 754.76,-228 986.73,-228 986.73,-197.2 754.76,-197.2"/>
<text text-anchor="start" x="761.76" y="-209.4" font-family="Arial" font-size="14.00">class_key </text>
<text text-anchor="start" x="827.12" y="-209.4" font-family="Arial" font-size="14.00" fill="#666666">[text]</text>
<polygon fill="none" stroke="black" points="754.76,-166.4 754.76,-197.2 986.73,-197.2 986.73,-166.4 754.76,-166.4"/>
<text text-anchor="start" x="761.76" y="-178.6" font-family="Arial" font-size="14.00">action_key </text>
<text text-anchor="start" x="832.58" y="-178.6" font-family="Arial" font-size="14.00" fill="#666666">[text]</text>
<polygon fill="none" stroke="black" points="754.76,-135.6 754.76,-166.4 986.73,-166.4 986.73,-135.6 754.76,-135.6"/>
<text text-anchor="start" x="761.76" y="-147.8" font-family="Arial" font-size="14.00">name </text>
<text text-anchor="start" x="800.67" y="-147.8" font-family="Arial" font-size="14.00" fill="#666666">[text]</text>
<polygon fill="none" stroke="black" points="754.76,-104.8 754.76,-135.6 986.73,-135.6 986.73,-104.8 754.76,-104.8"/>
<text text-anchor="start" x="761.76" y="-117" font-family="Arial" font-size="14.00">details </text>
<text text-anchor="start" x="806.12" y="-117" font-family="Arial" font-size="14.00" fill="#666666">[text]</text>
<polygon fill="none" stroke="black" points="754.76,-74 754.76,-104.8 986.73,-104.8 986.73,-74 754.76,-74"/>
<text text-anchor="start" x="761.76" y="-86.2" font-family="Arial" font-size="14.00">requires </text>
<text text-anchor="start" x="816.23" y="-86.2" font-family="Arial" font-size="14.00" fill="#666666">[text[]]</text>
<polygon fill="none" stroke="black" points="754.76,-43.2 754.76,-74 986.73,-74 986.73,-43.2 754.76,-43.2"/>
<text text-anchor="start" x="761.76" y="-55.4" font-family="Arial" font-size="14.00">guarantees </text>
<text text-anchor="start" x="835.71" y="-55.4" font-family="Arial" font-size="14.00" fill="#666666">[text[]]</text>
</g>
<!-- public.parameter&#45;&gt;public.action -->
<g id="edge2" class="edge">
<title>public.parameter:model_key&#45;&gt;public.action:model_key</title>
<path fill="none" stroke="black" d="M837.07,-650.36C946.42,-640.76 888.46,-475.4 825.71,-373.6 807.16,-343.5 773.42,-367.63 754.76,-337.6 732.67,-302.04 711.9,-243.4 753.76,-243.4"/>
<polygon fill="black" stroke="black" points="837.03,-650.36 826.85,-646.29 831.7,-650.59 827.38,-650.77 827.38,-650.77 827.38,-650.77 831.7,-650.59 827.23,-655.28 837.03,-650.36"/>
<text text-anchor="start" x="833.71" y="-660.8" font-family="Arial" font-size="10.00">FOREIGN KEY (model_key, action_key) REFERENCES action(model_key, action_key) ON DELETE CASCADE</text>
</g>
</g>
</svg>
