<?xml version="1.0" encoding="UTF-8" standalone="no"?>
<!DOCTYPE svg PUBLIC "-//W3C//DTD SVG 1.1//EN"
 "http://www.w3.org/Graphics/SVG/1.1/DTD/svg11.dtd">
<!-- Generated by graphviz version 12.1.2 (20240928.0832)
 -->
<!-- Title: public.use_case_generalization Pages: 1 -->
<svg width="1392pt" height="1191pt"
 viewBox="0.00 0.00 1392.22 1191.20" xmlns="http://www.w3.org/2000/svg" xmlns:xlink="http://www.w3.org/1999/xlink">
<g id="graph0" class="graph" transform="scale(1 1) rotate(0) translate(4 1187.2)">
<title>public.use_case_generalization</title>
<polygon fill="white" stroke="none" points="-4,4 -4,-1187.2 1388.22,-1187.2 1388.22,4 -4,4"/>
<!-- public.use_case_generalization -->
<g id="node1" class="node">
<title>public.use_case_generalization</title>
<polygon fill="#efefef" stroke="none" points="407.88,-635.4 407.88,-671 770.77,-671 770.77,-635.4 407.88,-635.4"/>
<polygon fill="none" stroke="black" points="407.88,-635.4 407.88,-671 770.77,-671 770.77,-635.4 407.88,-635.4"/>
<text text-anchor="start" x="414.88" y="-648.8" font-family="Arial Bold" font-size="18.00">public.use_case_generalization</text>
<text text-anchor="start" x="639.28" y="-648.8" font-family="Arial" font-size="14.00">    </text>
<text text-anchor="start" x="670.4" y="-648.8" font-family="Arial" font-size="14.00" fill="#666666">[BASE TABLE]</text>
<polygon fill="none" stroke="black" points="407.88,-604.6 407.88,-635.4 770.77,-635.4 770.77,-604.6 407.88,-604.6"/>
<text text-anchor="start" x="414.88" y="-616.8" font-family="Arial" font-size="14.00">model_key </text>
<text text-anchor="start" x="486.47" y="-616.8" font-family="Arial" font-size="14.00" fill="#666666">[text]</text>
<polygon fill="none" stroke="black" points="407.88,-573.8 407.88,-604.6 770.77,-604.6 770.77,-573.8 407.88,-573.8"/>
<text text-anchor="start" x="414.88" y="-586" font-family="Arial" font-size="14.00">generalization_key </text>
<text text-anchor="start" x="535.51" y="-586" font-family="Arial" font-size="14.00" fill="#666666">[text]</text>
<polygon fill="none" stroke="black" points="407.88,-543 407.88,-573.8 770.77,-573.8 770.77,-543 407.88,-543"/>
<text text-anchor="start" x="414.88" y="-555.2" font-family="Arial" font-size="14.00">name </text>
<text text-anchor="start" x="453.79" y="-555.2" font-family="Arial" font-size="14.00" fill="#666666">[text]</text>
<polygon fill="none" stroke="black" points="407.88,-512.2 407.88,-543 770.77,-543 770.77,-512.2 407.88,-512.2"/>
<text text-anchor="start" x="414.88" y="-524.4" font-family="Arial" font-size="14.00">subdomain_key </text>
<text text-anchor="start" x="516.83" y="-524.4" font-family="Arial" font-size="14.00" fill="#666666">[text]</text>
<polygon fill="none" stroke="black" points="407.88,-481.4 407.88,-512.2 770.77,-512.2 770.77,-481.4 407.88,-481.4"/>
<text text-anchor="start" x="414.88" y="-493.6" font-family="Arial" font-size="14.00">is_complete </text>
<text text-anchor="start" x="493.47" y="-493.6" font-family="Arial" font-size="14.00" fill="#666666">[boolean]</text>
<polygon fill="none" stroke="black" points="407.88,-450.6 407.88,-481.4 770.77,-481.4 770.77,-450.6 407.88,-450.6"/>
<text text-anchor="start" x="414.88" y="-462.8" font-family="Arial" font-size="14.00">is_static </text>
<text text-anchor="start" x="469.34" y="-462.8" font-family="Arial" font-size="14.00" fill="#666666">[boolean]</text>
<polygon fill="none" stroke="black" points="407.88,-419.8 407.88,-450.6 770.77,-450.6 770.77,-419.8 407.88,-419.8"/>
<text text-anchor="start" x="414.88" y="-432" font-family="Arial" font-size="14.00">details </text>
<text text-anchor="start" x="459.24" y="-432" font-family="Arial" font-size="14.00" fill="#666666">[text]</text>
<polygon fill="none" stroke="black" points="407.88,-389 407.88,-419.8 770.77,-419.8 770.77,-389 407.88,-389"/>
<text text-anchor="start" x="414.88" y="-401.2" font-family="Arial" font-size="14.00">uml_comment </text>
<text text-anchor="start" x="506.69" y="-401.2" font-family="Arial" font-size="14.00" fill="#666666">[text]</text>
<polygon fill="none" stroke="black" stroke-width="3" points="406.38,-387.5 406.38,-672.5 772.27,-672.5 772.27,-387.5 406.38,-387.5"/>
</g>
<!-- public.model -->
<g id="node2" class="node">
<title>public.model</title>
<polygon fill="#efefef" stroke="none" points="295.84,-181.8 295.84,-217.4 528.81,-217.4 528.81,-181.8 295.84,-181.8"/>
<polygon fill="none" stroke="black" points="295.84,-181.8 295.84,-217.4 528.81,-217.4 528.81,-181.8 295.84,-181.8"/>
<text text-anchor="start" x="302.84" y="-195.2" font-family="Arial Bold" font-size="18.00">public.model</text>
<text text-anchor="start" x="397.32" y="-195.2" font-family="Arial" font-size="14.00">    </text>
<text text-anchor="start" x="428.44" y="-195.2" font-family="Arial" font-size="14.00" fill="#666666">[BASE TABLE]</text>
<polygon fill="none" stroke="black" points="295.84,-151 295.84,-181.8 528.81,-181.8 528.81,-151 295.84,-151"/>
<text text-anchor="start" x="302.84" y="-163.2" font-family="Arial" font-size="14.00">model_key </text>
<text text-anchor="start" x="374.43" y="-163.2" font-family="Arial" font-size="14.00" fill="#666666">[text]</text>
<polygon fill="none" stroke="black" points="295.84,-120.2 295.84,-151 528.81,-151 528.81,-120.2 295.84,-120.2"/>
<text text-anchor="start" x="302.84" y="-132.4" font-family="Arial" font-size="14.00">name </text>
<text text-anchor="start" x="341.75" y="-132.4" font-family="Arial" font-size="14.00" fill="#666666">[text]</text>
<polygon fill="none" stroke="black" points="295.84,-89.4 295.84,-120.2 528.81,-120.2 528.81,-89.4 295.84,-89.4"/>
<text text-anchor="start" x="302.84" y="-101.6" font-family="Arial" font-size="14.00">details </text>
<text text-anchor="start" x="347.2" y="-101.6" font-family="Arial" font-size="14.00" fill="#666666">[text]</text>
</g>
<!-- public.use_case_generalization&#45;&gt;public.model -->
<g id="edge1" class="edge">
<title>public.use_case_generalization:model_key&#45;&gt;public.model:model_key</title>
<path fill="none" stroke="black" d="M396.54,-619.57C287.56,-610.18 351.73,-448.39 407.88,-342.8 438.39,-285.42 498.1,-317.87 528.81,-260.6 548.6,-223.7 571.68,-166.4 529.81,-166.4"/>
<polygon fill="black" stroke="black" points="396.56,-619.57 406.36,-624.48 401.89,-619.79 406.21,-619.97 406.21,-619.97 406.21,-619.97 401.89,-619.79 406.73,-615.49 396.56,-619.57"/>
<text text-anchor="start" x="7" y="-630" font-family="Arial" font-size="10.00">FOREIGN KEY (model_key) REFERENCES model(model_key) ON DELETE CASCADE</text>
</g>
<!-- public.subdomain -->
<g id="node3" class="node">
<title>public.subdomain</title>
<polygon fill="#efefef" stroke="none" points="632.84,-228 632.84,-263.6 899.81,-263.6 899.81,-228 632.84,-228"/>
<polygon fill="none" stroke="black" points="632.84,-228 632.84,-263.6 899.81,-263.6 899.81,-228 632.84,-228"/>
<text text-anchor="start" x="639.84" y="-241.4" font-family="Arial Bold" font-size="18.00">public.subdomain</text>
<text text-anchor="start" x="768.33" y="-241.4" font-family="Arial" font-size="14.00">    </text>
<text text-anchor="start" x="799.44" y="-241.4" font-family="Arial" font-size="14.00" fill="#666666">[BASE TABLE]</text>
<polygon fill="none" stroke="black" points="632.84,-197.2 632.84,-228 899.81,-228 899.81,-197.2 632.84,-197.2"/>
<text text-anchor="start" x="639.84" y="-209.4" font-family="Arial" font-size="14.00">subdomain_key </text>
<text text-anchor="start" x="741.79" y="-209.4" font-family="Arial" font-size="14.00" fill="#666666">[text]</text>
<polygon fill="none" stroke="black" points="632.84,-166.4 632.84,-197.2 899.81,-197.2 899.81,-166.4 632.84,-166.4"/>
<text text-anchor="start" x="639.84" y="-178.6" font-family="Arial" font-size="14.00">model_key </text>
<text text-anchor="start" x="711.43" y="-178.6" font-family="Arial" font-size="14.00" fill="#666666">[text]</text>
<polygon fill="none" stroke="black" points="632.84,-135.6 632.84,-166.4 899.81,-166.4 899.81,-135.6 632.84,-135.6"/>
<text text-anchor="start" x="639.84" y="-147.8" font-family="Arial" font-size="14.00">domain_key </text>
<text text-anchor="start" x="719.22" y="-147.8" font-family="Arial" font-size="14.00" fill="#666666">[text]</text>
<polygon fill="none" stroke="black" points="632.84,-104.8 632.84,-135.6 899.81,-135.6 899.81,-104.8 632.84,-104.8"/>
<text text-anchor="start" x="639.84" y="-117" font-family="Arial" font-size="14.00">name </text>
<text text-anchor="start" x="678.75" y="-117" font-family="Arial" font-size="14.00" fill="#666666">[text]</text>
<polygon fill="none" stroke="black" points="632.84,-74 632.84,-104.8 899.81,-104.8 899.81,-74 632.84,-74"/>
<text text-anchor="start" x="639.84" y="-86.2" font-family="Arial" font-size="14.00">details </text>
<text text-anchor="start" x="684.2" y="-86.2" font-family="Arial" font-size="14.00" fill="#666666">[text]</text>
<polygon fill="none" stroke="black" points="632.84,-43.2 632.84,-74 899.81,-74 899.81,-43.2 632.84,-43.2"/>
<text text-anchor="start" x="639.84" y="-55.4" font-family="Arial" font-size="14.00">uml_comment </text>
<text text-anchor="start" x="731.65" y="-55.4" font-family="Arial" font-size="14.00" fill="#666666">[text]</text>
</g>
<!-- public.use_case_generalization&#45;&gt;public.subdomain -->
<g id="edge2" class="edge">
<title>public.use_case_generalization:model_key&#45;&gt;public.subdomain:model_key</title>
<path fill="none" stroke="black" d="M782.16,-619.54C892.1,-609.53 844.05,-437.31 770.77,-342.8 731.95,-292.73 671.77,-356.78 632.84,-306.8 598.7,-262.97 576.28,-181.8 631.84,-181.8"/>
<polygon fill="black" stroke="black" points="782.1,-619.55 771.91,-615.49 776.77,-619.78 772.44,-619.97 772.44,-619.97 772.44,-619.97 776.77,-619.78 772.3,-624.48 782.1,-619.55"/>
<text text-anchor="start" x="778.77" y="-630" font-family="Arial" font-size="10.00">FOREIGN KEY (model_key, subdomain_key) REFERENCES subdomain(model_key, subdomain_key) ON DELETE CASCADE</text>
</g>
<!-- public.use_case -->
<g id="node4" class="node">
<title>public.use_case</title>
<polygon fill="#efefef" stroke="none" points="463.35,-1104.4 463.35,-1140 715.3,-1140 715.3,-1104.4 463.35,-1104.4"/>
<polygon fill="none" stroke="black" points="463.35,-1104.4 463.35,-1140 715.3,-1140 715.3,-1104.4 463.35,-1104.4"/>
<text text-anchor="start" x="470.35" y="-1117.8" font-family="Arial Bold" font-size="18.00">public.use_case</text>
<text text-anchor="start" x="583.81" y="-1117.8" font-family="Arial" font-size="14.00">    </text>
<text text-anchor="start" x="614.93" y="-1117.8" font-family="Arial" font-size="14.00" fill="#666666">[BASE TABLE]</text>
<polygon fill="none" stroke="black" points="463.35,-1073.6 463.35,-1104.4 715.3,-1104.4 715.3,-1073.6 463.35,-1073.6"/>
<text text-anchor="start" x="470.35" y="-1085.8" font-family="Arial" font-size="14.00">model_key </text>
<text text-anchor="start" x="541.95" y="-1085.8" font-family="Arial" font-size="14.00" fill="#666666">[text]</text>
<polygon fill="none" stroke="black" points="463.35,-1042.8 463.35,-1073.6 715.3,-1073.6 715.3,-1042.8 463.35,-1042.8"/>
<text text-anchor="start" x="470.35" y="-1055" font-family="Arial" font-size="14.00">use_case_key </text>
<text text-anchor="start" x="563.75" y="-1055" font-family="Arial" font-size="14.00" fill="#666666">[text]</text>
<polygon fill="none" stroke="black" points="463.35,-1012 463.35,-1042.8 715.3,-1042.8 715.3,-1012 463.35,-1012"/>
<text text-anchor="start" x="470.35" y="-1024.2" font-family="Arial" font-size="14.00">name </text>
<text text-anchor="start" x="509.26" y="-1024.2" font-family="Arial" font-size="14.00" fill="#666666">[text]</text>
<polygon fill="none" stroke="black" points="463.35,-981.2 463.35,-1012 715.3,-1012 715.3,-981.2 463.35,-981.2"/>
<text text-anchor="start" x="470.35" y="-993.4" font-family="Arial" font-size="14.00">details </text>
<text text-anchor="start" x="514.71" y="-993.4" font-family="Arial" font-size="14.00" fill="#666666">[text]</text>
<polygon fill="none" stroke="black" points="463.35,-950.4 463.35,-981.2 715.3,-981.2 715.3,-950.4 463.35,-950.4"/>
<text text-anchor="start" x="470.35" y="-962.6" font-family="Arial" font-size="14.00">level </text>
<text text-anchor="start" x="503.04" y="-962.6" font-family="Arial" font-size="14.00" fill="#666666">[use_case_level]</text>
<polygon fill="none" stroke="black" points="463.35,-919.6 463.35,-950.4 715.3,-950.4 715.3,-919.6 463.35,-919.6"/>
<text text-anchor="start" x="470.35" y="-931.8" font-family="Arial" font-size="14.00">read_only </text>
<text text-anchor="start" x="535.73" y="-931.8" font-family="Arial" font-size="14.00" fill="#666666">[boolean]</text>
<polygon fill="none" stroke="black" points="463.35,-888.8 463.35,-919.6 715.3,-919.6 715.3,-888.8 463.35,-888.8"/>
<text text-anchor="start" x="470.35" y="-901" font-family="Arial" font-size="14.00">subdomain_key </text>
<text text-anchor="start" x="572.3" y="-901" font-family="Arial" font-size="14.00" fill="#666666">[text]</text>
<polygon fill="none" stroke="black" points="463.35,-858 463.35,-888.8 715.3,-888.8 715.3,-858 463.35,-858"/>
<text text-anchor="start" x="470.35" y="-870.2" font-family="Arial" font-size="14.00">superclass_of_key </text>
<text text-anchor="start" x="590.19" y="-870.2" font-family="Arial" font-size="14.00" fill="#666666">[text]</text>
<polygon fill="none" stroke="black" points="463.35,-827.2 463.35,-858 715.3,-858 715.3,-827.2 463.35,-827.2"/>
<text text-anchor="start" x="470.35" y="-839.4" font-family="Arial" font-size="14.00">subclass_of_key </text>
<text text-anchor="start" x="577.75" y="-839.4" font-family="Arial" font-size="14.00" fill="#666666">[text]</text>
<polygon fill="none" stroke="black" points="463.35,-796.4 463.35,-827.2 715.3,-827.2 715.3,-796.4 463.35,-796.4"/>
<text text-anchor="start" x="470.35" y="-808.6" font-family="Arial" font-size="14.00">uml_comment </text>
<text text-anchor="start" x="562.16" y="-808.6" font-family="Arial" font-size="14.00" fill="#666666">[text]</text>
</g>
<!-- public.use_case&#45;&gt;public.use_case_generalization -->
<g id="edge3" class="edge">
<title>public.use_case:model_key&#45;&gt;public.use_case_generalization:model_key</title>
<path fill="none" stroke="black" d="M726.47,-1088.59C919.02,-1073.11 969.24,-620 771.77,-620"/>
<polygon fill="black" stroke="black" points="726.63,-1088.59 716.45,-1084.49 721.3,-1088.8 716.97,-1088.97 716.97,-1088.97 716.97,-1088.97 721.3,-1088.8 716.81,-1093.48 726.63,-1088.59"/>
<text text-anchor="start" x="723.3" y="-1099" font-family="Arial" font-size="10.00">FOREIGN KEY (model_key, subclass_of_key) REFERENCES use_case_generalization(model_key, generalization_key) ON DELETE CASCADE</text>
</g>
<!-- public.use_case&#45;&gt;public.use_case_generalization -->
<g id="edge4" class="edge">
<title>public.use_case:model_key&#45;&gt;public.use_case_generalization:model_key</title>
<path fill="none" stroke="black" d="M726.74,-1088.64C936.81,-1074.03 987.1,-620.45 772.09,-620"/>
<polygon fill="black" stroke="black" points="726.95,-1088.63 716.79,-1084.49 721.62,-1088.82 717.29,-1088.98 717.29,-1088.98 717.29,-1088.98 721.62,-1088.82 717.12,-1093.48 726.95,-1088.63"/>
<text text-anchor="start" x="723.62" y="-1073" font-family="Arial" font-size="10.00">FOREIGN KEY (model_key, superclass_of_key) REFERENCES use_case_generalization(model_key, generalization_key) ON DELETE CASCADE</text>
</g>
</g>
</svg>
