<?xml version="1.0" encoding="UTF-8" standalone="no"?>
<!DOCTYPE svg PUBLIC "-//W3C//DTD SVG 1.1//EN"
 "http://www.w3.org/Graphics/SVG/1.1/DTD/svg11.dtd">
<!-- Generated by graphviz version 12.1.2 (20240928.0832)
 -->
<!-- Title: public.query_require Pages: 1 -->
<svg width="1302pt" height="602pt"
 viewBox="0.00 0.00 1301.68 602.00" xmlns="http://www.w3.org/2000/svg" xmlns:xlink="http://www.w3.org/1999/xlink">
<g id="graph0" class="graph" transform="scale(1 1) rotate(0) translate(4 598)">
<title>public.query_require</title>
<polygon fill="white" stroke="none" points="-4,4 -4,-598 1297.68,-598 1297.68,4 -4,4"/>
<!-- public.query_require -->
<g id="node1" class="node">
<title>public.query_require</title>
<polygon fill="#efefef" stroke="none" points="495.7,-512.2 495.7,-547.8 784.63,-547.8 784.63,-512.2 495.7,-512.2"/>
<polygon fill="none" stroke="black" points="495.7,-512.2 495.7,-547.8 784.63,-547.8 784.63,-512.2 495.7,-512.2"/>
<text text-anchor="start" x="502.7" y="-525.6" font-family="Arial Bold" font-size="18.00">public.query_require</text>
<text text-anchor="start" x="653.15" y="-525.6" font-family="Arial" font-size="14.00">    </text>
<text text-anchor="start" x="684.26" y="-525.6" font-family="Arial" font-size="14.00" fill="#666666">[BASE TABLE]</text>
<polygon fill="none" stroke="black" points="495.7,-481.4 495.7,-512.2 784.63,-512.2 784.63,-481.4 495.7,-481.4"/>
<text text-anchor="start" x="502.7" y="-493.6" font-family="Arial" font-size="14.00">model_key </text>
<text text-anchor="start" x="574.3" y="-493.6" font-family="Arial" font-size="14.00" fill="#666666">[text]</text>
<polygon fill="none" stroke="black" points="495.7,-450.6 495.7,-481.4 784.63,-481.4 784.63,-450.6 495.7,-450.6"/>
<text text-anchor="start" x="502.7" y="-462.8" font-family="Arial" font-size="14.00">query_key </text>
<text text-anchor="start" x="571.19" y="-462.8" font-family="Arial" font-size="14.00" fill="#666666">[text]</text>
<polygon fill="none" stroke="black" points="495.7,-419.8 495.7,-450.6 784.63,-450.6 784.63,-419.8 495.7,-419.8"/>
<text text-anchor="start" x="502.7" y="-432" font-family="Arial" font-size="14.00">logic_key </text>
<text text-anchor="start" x="564.96" y="-432" font-family="Arial" font-size="14.00" fill="#666666">[text]</text>
<polygon fill="none" stroke="black" stroke-width="3" points="494.2,-418.3 494.2,-549.3 786.13,-549.3 786.13,-418.3 494.2,-418.3"/>
</g>
<!-- public.logic -->
<g id="node2" class="node">
<title>public.logic</title>
<polygon fill="#efefef" stroke="none" points="363.18,-258.8 363.18,-294.4 587.15,-294.4 587.15,-258.8 363.18,-258.8"/>
<polygon fill="none" stroke="black" points="363.18,-258.8 363.18,-294.4 587.15,-294.4 587.15,-258.8 363.18,-258.8"/>
<text text-anchor="start" x="370.18" y="-272.2" font-family="Arial Bold" font-size="18.00">public.logic</text>
<text text-anchor="start" x="455.67" y="-272.2" font-family="Arial" font-size="14.00">    </text>
<text text-anchor="start" x="486.78" y="-272.2" font-family="Arial" font-size="14.00" fill="#666666">[BASE TABLE]</text>
<polygon fill="none" stroke="black" points="363.18,-228 363.18,-258.8 587.15,-258.8 587.15,-228 363.18,-228"/>
<text text-anchor="start" x="370.18" y="-240.2" font-family="Arial" font-size="14.00">logic_key </text>
<text text-anchor="start" x="432.44" y="-240.2" font-family="Arial" font-size="14.00" fill="#666666">[text]</text>
<polygon fill="none" stroke="black" points="363.18,-197.2 363.18,-228 587.15,-228 587.15,-197.2 363.18,-197.2"/>
<text text-anchor="start" x="370.18" y="-209.4" font-family="Arial" font-size="14.00">model_key </text>
<text text-anchor="start" x="441.78" y="-209.4" font-family="Arial" font-size="14.00" fill="#666666">[text]</text>
<polygon fill="none" stroke="black" points="363.18,-166.4 363.18,-197.2 587.15,-197.2 587.15,-166.4 363.18,-166.4"/>
<text text-anchor="start" x="370.18" y="-178.6" font-family="Arial" font-size="14.00">sort_order </text>
<text text-anchor="start" x="437.88" y="-178.6" font-family="Arial" font-size="14.00" fill="#666666">[integer]</text>
<polygon fill="none" stroke="black" points="363.18,-135.6 363.18,-166.4 587.15,-166.4 587.15,-135.6 363.18,-135.6"/>
<text text-anchor="start" x="370.18" y="-147.8" font-family="Arial" font-size="14.00">logic_type </text>
<text text-anchor="start" x="437.11" y="-147.8" font-family="Arial" font-size="14.00" fill="#666666">[logic_type]</text>
<polygon fill="none" stroke="black" points="363.18,-104.8 363.18,-135.6 587.15,-135.6 587.15,-104.8 363.18,-104.8"/>
<text text-anchor="start" x="370.18" y="-117" font-family="Arial" font-size="14.00">description </text>
<text text-anchor="start" x="441.78" y="-117" font-family="Arial" font-size="14.00" fill="#666666">[text]</text>
<polygon fill="none" stroke="black" points="363.18,-74 363.18,-104.8 587.15,-104.8 587.15,-74 363.18,-74"/>
<text text-anchor="start" x="370.18" y="-86.2" font-family="Arial" font-size="14.00">notation </text>
<text text-anchor="start" x="423.89" y="-86.2" font-family="Arial" font-size="14.00" fill="#666666">[notation]</text>
<polygon fill="none" stroke="black" points="363.18,-43.2 363.18,-74 587.15,-74 587.15,-43.2 363.18,-43.2"/>
<text text-anchor="start" x="370.18" y="-55.4" font-family="Arial" font-size="14.00">specification </text>
<text text-anchor="start" x="451.11" y="-55.4" font-family="Arial" font-size="14.00" fill="#666666">[text]</text>
</g>
<!-- public.query_require&#45;&gt;public.logic -->
<g id="edge1" class="edge">
<title>public.query_require:model_key&#45;&gt;public.logic:model_key</title>
<path fill="none" stroke="black" d="M484.56,-495.74C443.36,-486.28 466.82,-415.65 495.7,-373.6 520.44,-337.6 562.42,-373.6 587.15,-337.6 618.61,-291.81 643.71,-212.6 588.15,-212.6"/>
<polygon fill="black" stroke="black" points="484.42,-495.73 493.9,-501.24 489.73,-496.28 494.04,-496.73 494.04,-496.73 494.04,-496.73 489.73,-496.28 494.84,-492.29 484.42,-495.73"/>
<text text-anchor="start" x="7" y="-506.8" font-family="Arial" font-size="10.00">FOREIGN KEY (model_key, logic_key) REFERENCES logic(model_key, logic_key) ON DELETE CASCADE</text>
</g>
<!-- public.query -->
<g id="node3" class="node">
<title>public.query</title>
<polygon fill="#efefef" stroke="none" points="691.69,-228 691.69,-263.6 920.65,-263.6 920.65,-228 691.69,-228"/>
<polygon fill="none" stroke="black" points="691.69,-228 691.69,-263.6 920.65,-263.6 920.65,-228 691.69,-228"/>
<text text-anchor="start" x="698.69" y="-241.4" font-family="Arial Bold" font-size="18.00">public.query</text>
<text text-anchor="start" x="789.16" y="-241.4" font-family="Arial" font-size="14.00">    </text>
<text text-anchor="start" x="820.28" y="-241.4" font-family="Arial" font-size="14.00" fill="#666666">[BASE TABLE]</text>
<polygon fill="none" stroke="black" points="691.69,-197.2 691.69,-228 920.65,-228 920.65,-197.2 691.69,-197.2"/>
<text text-anchor="start" x="698.69" y="-209.4" font-family="Arial" font-size="14.00">model_key </text>
<text text-anchor="start" x="770.28" y="-209.4" font-family="Arial" font-size="14.00" fill="#666666">[text]</text>
<polygon fill="none" stroke="black" points="691.69,-166.4 691.69,-197.2 920.65,-197.2 920.65,-166.4 691.69,-166.4"/>
<text text-anchor="start" x="698.69" y="-178.6" font-family="Arial" font-size="14.00">class_key </text>
<text text-anchor="start" x="764.05" y="-178.6" font-family="Arial" font-size="14.00" fill="#666666">[text]</text>
<polygon fill="none" stroke="black" points="691.69,-135.6 691.69,-166.4 920.65,-166.4 920.65,-135.6 691.69,-135.6"/>
<text text-anchor="start" x="698.69" y="-147.8" font-family="Arial" font-size="14.00">query_key </text>
<text text-anchor="start" x="767.17" y="-147.8" font-family="Arial" font-size="14.00" fill="#666666">[text]</text>
<polygon fill="none" stroke="black" points="691.69,-104.8 691.69,-135.6 920.65,-135.6 920.65,-104.8 691.69,-104.8"/>
<text text-anchor="start" x="698.69" y="-117" font-family="Arial" font-size="14.00">name </text>
<text text-anchor="start" x="737.6" y="-117" font-family="Arial" font-size="14.00" fill="#666666">[text]</text>
<polygon fill="none" stroke="black" points="691.69,-74 691.69,-104.8 920.65,-104.8 920.65,-74 691.69,-74"/>
<text text-anchor="start" x="698.69" y="-86.2" font-family="Arial" font-size="14.00">details </text>
<text text-anchor="start" x="743.05" y="-86.2" font-family="Arial" font-size="14.00" fill="#666666">[text]</text>
</g>
<!-- public.query_require&#45;&gt;public.query -->
<g id="edge2" class="edge">
<title>public.query_require:model_key&#45;&gt;public.query:model_key</title>
<path fill="none" stroke="black" d="M795.95,-495.73C836.12,-486.44 808.05,-418.8 784.63,-373.6 761.24,-328.43 715.14,-351.94 691.69,-306.8 672.39,-269.65 648.82,-212.6 690.69,-212.6"/>
<polygon fill="black" stroke="black" points="795.91,-495.73 785.5,-492.29 790.61,-496.28 786.3,-496.73 786.3,-496.73 786.3,-496.73 790.61,-496.28 786.43,-501.24 795.91,-495.73"/>
<text text-anchor="start" x="792.63" y="-506.8" font-family="Arial" font-size="10.00">FOREIGN KEY (model_key, query_key) REFERENCES query(model_key, query_key) ON DELETE CASCADE</text>
</g>
</g>
</svg>
