<?xml version="1.0" encoding="UTF-8" standalone="no"?>
<!DOCTYPE svg PUBLIC "-//W3C//DTD SVG 1.1//EN"
 "http://www.w3.org/Graphics/SVG/1.1/DTD/svg11.dtd">
<!-- Generated by graphviz version 12.1.2 (20240928.0832)
 -->
<!-- Title: public.association Pages: 1 -->
<svg width="1242pt" height="972pt"
 viewBox="0.00 0.00 1241.79 971.60" xmlns="http://www.w3.org/2000/svg" xmlns:xlink="http://www.w3.org/1999/xlink">
<g id="graph0" class="graph" transform="scale(1 1) rotate(0) translate(4 967.6)">
<title>public.association</title>
<polygon fill="white" stroke="none" points="-4,4 -4,-967.6 1237.79,-967.6 1237.79,4 -4,4"/>
<!-- public.association -->
<g id="node1" class="node">
<title>public.association</title>
<polygon fill="#efefef" stroke="none" points="407.88,-881.8 407.88,-917.4 675.84,-917.4 675.84,-881.8 407.88,-881.8"/>
<polygon fill="none" stroke="black" points="407.88,-881.8 407.88,-917.4 675.84,-917.4 675.84,-881.8 407.88,-881.8"/>
<text text-anchor="start" x="414.88" y="-895.2" font-family="Arial Bold" font-size="18.00">public.association</text>
<text text-anchor="start" x="544.35" y="-895.2" font-family="Arial" font-size="14.00">    </text>
<text text-anchor="start" x="575.47" y="-895.2" font-family="Arial" font-size="14.00" fill="#666666">[BASE TABLE]</text>
<polygon fill="none" stroke="black" points="407.88,-851 407.88,-881.8 675.84,-881.8 675.84,-851 407.88,-851"/>
<text text-anchor="start" x="414.88" y="-863.2" font-family="Arial" font-size="14.00">model_key </text>
<text text-anchor="start" x="486.47" y="-863.2" font-family="Arial" font-size="14.00" fill="#666666">[text]</text>
<polygon fill="none" stroke="black" points="407.88,-820.2 407.88,-851 675.84,-851 675.84,-820.2 407.88,-820.2"/>
<text text-anchor="start" x="414.88" y="-832.4" font-family="Arial" font-size="14.00">association_key </text>
<text text-anchor="start" x="518.38" y="-832.4" font-family="Arial" font-size="14.00" fill="#666666">[text]</text>
<polygon fill="none" stroke="black" points="407.88,-789.4 407.88,-820.2 675.84,-820.2 675.84,-789.4 407.88,-789.4"/>
<text text-anchor="start" x="414.88" y="-801.6" font-family="Arial" font-size="14.00">from_class_key </text>
<text text-anchor="start" x="516.03" y="-801.6" font-family="Arial" font-size="14.00" fill="#666666">[text]</text>
<polygon fill="none" stroke="black" points="407.88,-758.6 407.88,-789.4 675.84,-789.4 675.84,-758.6 407.88,-758.6"/>
<text text-anchor="start" x="414.88" y="-770.8" font-family="Arial" font-size="14.00">from_multiplicity_lower </text>
<text text-anchor="start" x="560.36" y="-770.8" font-family="Arial" font-size="14.00" fill="#666666">[integer]</text>
<polygon fill="none" stroke="black" points="407.88,-727.8 407.88,-758.6 675.84,-758.6 675.84,-727.8 407.88,-727.8"/>
<text text-anchor="start" x="414.88" y="-740" font-family="Arial" font-size="14.00">from_multiplicity_higher </text>
<text text-anchor="start" x="565.83" y="-740" font-family="Arial" font-size="14.00" fill="#666666">[integer]</text>
<polygon fill="none" stroke="black" points="407.88,-697 407.88,-727.8 675.84,-727.8 675.84,-697 407.88,-697"/>
<text text-anchor="start" x="414.88" y="-709.2" font-family="Arial" font-size="14.00">to_class_key </text>
<text text-anchor="start" x="499.7" y="-709.2" font-family="Arial" font-size="14.00" fill="#666666">[text]</text>
<polygon fill="none" stroke="black" points="407.88,-666.2 407.88,-697 675.84,-697 675.84,-666.2 407.88,-666.2"/>
<text text-anchor="start" x="414.88" y="-678.4" font-family="Arial" font-size="14.00">to_multiplicity_lower </text>
<text text-anchor="start" x="544.04" y="-678.4" font-family="Arial" font-size="14.00" fill="#666666">[integer]</text>
<polygon fill="none" stroke="black" points="407.88,-635.4 407.88,-666.2 675.84,-666.2 675.84,-635.4 407.88,-635.4"/>
<text text-anchor="start" x="414.88" y="-647.6" font-family="Arial" font-size="14.00">to_multiplicity_higher </text>
<text text-anchor="start" x="549.5" y="-647.6" font-family="Arial" font-size="14.00" fill="#666666">[integer]</text>
<polygon fill="none" stroke="black" points="407.88,-604.6 407.88,-635.4 675.84,-635.4 675.84,-604.6 407.88,-604.6"/>
<text text-anchor="start" x="414.88" y="-616.8" font-family="Arial" font-size="14.00">name </text>
<text text-anchor="start" x="453.79" y="-616.8" font-family="Arial" font-size="14.00" fill="#666666">[text]</text>
<polygon fill="none" stroke="black" points="407.88,-573.8 407.88,-604.6 675.84,-604.6 675.84,-573.8 407.88,-573.8"/>
<text text-anchor="start" x="414.88" y="-586" font-family="Arial" font-size="14.00">association_class_key </text>
<text text-anchor="start" x="558.07" y="-586" font-family="Arial" font-size="14.00" fill="#666666">[text]</text>
<polygon fill="none" stroke="black" points="407.88,-543 407.88,-573.8 675.84,-573.8 675.84,-543 407.88,-543"/>
<text text-anchor="start" x="414.88" y="-555.2" font-family="Arial" font-size="14.00">details </text>
<text text-anchor="start" x="459.24" y="-555.2" font-family="Arial" font-size="14.00" fill="#666666">[text]</text>
<polygon fill="none" stroke="black" points="407.88,-512.2 407.88,-543 675.84,-543 675.84,-512.2 407.88,-512.2"/>
<text text-anchor="start" x="414.88" y="-524.4" font-family="Arial" font-size="14.00">uml_comment </text>
<text text-anchor="start" x="506.69" y="-524.4" font-family="Arial" font-size="14.00" fill="#666666">[text]</text>
<polygon fill="none" stroke="black" stroke-width="3" points="406.38,-510.7 406.38,-918.9 677.34,-918.9 677.34,-510.7 406.38,-510.7"/>
</g>
<!-- public.model -->
<g id="node2" class="node">
<title>public.model</title>
<polygon fill="#efefef" stroke="none" points="93.38,-258.8 93.38,-294.4 326.35,-294.4 326.35,-258.8 93.38,-258.8"/>
<polygon fill="none" stroke="black" points="93.38,-258.8 93.38,-294.4 326.35,-294.4 326.35,-258.8 93.38,-258.8"/>
<text text-anchor="start" x="100.38" y="-272.2" font-family="Arial Bold" font-size="18.00">public.model</text>
<text text-anchor="start" x="194.86" y="-272.2" font-family="Arial" font-size="14.00">    </text>
<text text-anchor="start" x="225.98" y="-272.2" font-family="Arial" font-size="14.00" fill="#666666">[BASE TABLE]</text>
<polygon fill="none" stroke="black" points="93.38,-228 93.38,-258.8 326.35,-258.8 326.35,-228 93.38,-228"/>
<text text-anchor="start" x="100.38" y="-240.2" font-family="Arial" font-size="14.00">model_key </text>
<text text-anchor="start" x="171.97" y="-240.2" font-family="Arial" font-size="14.00" fill="#666666">[text]</text>
<polygon fill="none" stroke="black" points="93.38,-197.2 93.38,-228 326.35,-228 326.35,-197.2 93.38,-197.2"/>
<text text-anchor="start" x="100.38" y="-209.4" font-family="Arial" font-size="14.00">name </text>
<text text-anchor="start" x="139.29" y="-209.4" font-family="Arial" font-size="14.00" fill="#666666">[text]</text>
<polygon fill="none" stroke="black" points="93.38,-166.4 93.38,-197.2 326.35,-197.2 326.35,-166.4 93.38,-166.4"/>
<text text-anchor="start" x="100.38" y="-178.6" font-family="Arial" font-size="14.00">details </text>
<text text-anchor="start" x="144.73" y="-178.6" font-family="Arial" font-size="14.00" fill="#666666">[text]</text>
<polygon fill="none" stroke="black" points="93.38,-135.6 93.38,-166.4 326.35,-166.4 326.35,-135.6 93.38,-135.6"/>
<text text-anchor="start" x="100.38" y="-147.8" font-family="Arial" font-size="14.00">unfinished_notes </text>
<text text-anchor="start" x="210.13" y="-147.8" font-family="Arial" font-size="14.00" fill="#666666">[text]</text>
</g>
<!-- public.association&#45;&gt;public.model -->
<g id="edge1" class="edge">
<title>public.association:model_key&#45;&gt;public.model:model_key</title>
<path fill="none" stroke="black" d="M397.56,-862.09C342.65,-807.05 393.72,-243.4 327.35,-243.4"/>
<polygon fill="black" stroke="black" points="397.5,-862.06 404.69,-870.34 402.34,-864.3 406.27,-866.12 406.27,-866.12 406.27,-866.12 402.34,-864.3 408.47,-862.18 397.5,-862.06"/>
<text text-anchor="start" x="7" y="-876.4" font-family="Arial" font-size="10.00">FOREIGN KEY (model_key) REFERENCES model(model_key) ON DELETE CASCADE</text>
</g>
<!-- public.class -->
<g id="node3" class="node">
<title>public.class</title>
<polygon fill="#efefef" stroke="none" points="430.38,-351.2 430.38,-386.8 653.35,-386.8 653.35,-351.2 430.38,-351.2"/>
<polygon fill="none" stroke="black" points="430.38,-351.2 430.38,-386.8 653.35,-386.8 653.35,-351.2 430.38,-351.2"/>
<text text-anchor="start" x="437.38" y="-364.6" font-family="Arial Bold" font-size="18.00">public.class</text>
<text text-anchor="start" x="521.86" y="-364.6" font-family="Arial" font-size="14.00">    </text>
<text text-anchor="start" x="552.97" y="-364.6" font-family="Arial" font-size="14.00" fill="#666666">[BASE TABLE]</text>
<polygon fill="none" stroke="black" points="430.38,-320.4 430.38,-351.2 653.35,-351.2 653.35,-320.4 430.38,-320.4"/>
<text text-anchor="start" x="437.38" y="-332.6" font-family="Arial" font-size="14.00">model_key </text>
<text text-anchor="start" x="508.97" y="-332.6" font-family="Arial" font-size="14.00" fill="#666666">[text]</text>
<polygon fill="none" stroke="black" points="430.38,-289.6 430.38,-320.4 653.35,-320.4 653.35,-289.6 430.38,-289.6"/>
<text text-anchor="start" x="437.38" y="-301.8" font-family="Arial" font-size="14.00">class_key </text>
<text text-anchor="start" x="502.73" y="-301.8" font-family="Arial" font-size="14.00" fill="#666666">[text]</text>
<polygon fill="none" stroke="black" points="430.38,-258.8 430.38,-289.6 653.35,-289.6 653.35,-258.8 430.38,-258.8"/>
<text text-anchor="start" x="437.38" y="-271" font-family="Arial" font-size="14.00">name </text>
<text text-anchor="start" x="476.29" y="-271" font-family="Arial" font-size="14.00" fill="#666666">[text]</text>
<polygon fill="none" stroke="black" points="430.38,-228 430.38,-258.8 653.35,-258.8 653.35,-228 430.38,-228"/>
<text text-anchor="start" x="437.38" y="-240.2" font-family="Arial" font-size="14.00">subdomain_key </text>
<text text-anchor="start" x="539.33" y="-240.2" font-family="Arial" font-size="14.00" fill="#666666">[text]</text>
<polygon fill="none" stroke="black" points="430.38,-197.2 430.38,-228 653.35,-228 653.35,-197.2 430.38,-197.2"/>
<text text-anchor="start" x="437.38" y="-209.4" font-family="Arial" font-size="14.00">actor_key </text>
<text text-anchor="start" x="501.96" y="-209.4" font-family="Arial" font-size="14.00" fill="#666666">[text]</text>
<polygon fill="none" stroke="black" points="430.38,-166.4 430.38,-197.2 653.35,-197.2 653.35,-166.4 430.38,-166.4"/>
<text text-anchor="start" x="437.38" y="-178.6" font-family="Arial" font-size="14.00">superclass_of_key </text>
<text text-anchor="start" x="557.22" y="-178.6" font-family="Arial" font-size="14.00" fill="#666666">[text]</text>
<polygon fill="none" stroke="black" points="430.38,-135.6 430.38,-166.4 653.35,-166.4 653.35,-135.6 430.38,-135.6"/>
<text text-anchor="start" x="437.38" y="-147.8" font-family="Arial" font-size="14.00">subclass_of_key </text>
<text text-anchor="start" x="544.77" y="-147.8" font-family="Arial" font-size="14.00" fill="#666666">[text]</text>
<polygon fill="none" stroke="black" points="430.38,-104.8 430.38,-135.6 653.35,-135.6 653.35,-104.8 430.38,-104.8"/>
<text text-anchor="start" x="437.38" y="-117" font-family="Arial" font-size="14.00">details </text>
<text text-anchor="start" x="481.73" y="-117" font-family="Arial" font-size="14.00" fill="#666666">[text]</text>
<polygon fill="none" stroke="black" points="430.38,-74 430.38,-104.8 653.35,-104.8 653.35,-74 430.38,-74"/>
<text text-anchor="start" x="437.38" y="-86.2" font-family="Arial" font-size="14.00">unfinished_notes </text>
<text text-anchor="start" x="547.13" y="-86.2" font-family="Arial" font-size="14.00" fill="#666666">[text]</text>
<polygon fill="none" stroke="black" points="430.38,-43.2 430.38,-74 653.35,-74 653.35,-43.2 430.38,-43.2"/>
<text text-anchor="start" x="437.38" y="-55.4" font-family="Arial" font-size="14.00">uml_comment </text>
<text text-anchor="start" x="529.18" y="-55.4" font-family="Arial" font-size="14.00" fill="#666666">[text]</text>
</g>
<!-- public.association&#45;&gt;public.class -->
<g id="edge2" class="edge">
<title>public.association:model_key&#45;&gt;public.class:model_key</title>
<path fill="none" stroke="black" d="M684.38,-859.3C714.69,-796.34 692.55,-335.8 654.35,-335.8"/>
<polygon fill="black" stroke="black" points="684.36,-859.31 674,-862.9 680.48,-862.97 677.33,-865.94 677.33,-865.94 677.33,-865.94 680.48,-862.97 680.17,-869.45 684.36,-859.31"/>
<text text-anchor="start" x="683.84" y="-876.4" font-family="Arial" font-size="10.00">FOREIGN KEY (model_key, association_class_key) REFERENCES class(model_key, class_key) ON DELETE CASCADE</text>
</g>
<!-- public.association&#45;&gt;public.class -->
<g id="edge3" class="edge">
<title>public.association:model_key&#45;&gt;public.class:model_key</title>
<path fill="none" stroke="black" d="M686.06,-861.52C733.1,-808.32 710.12,-337.75 654.69,-335.81"/>
<polygon fill="black" stroke="black" points="686.25,-861.42 675.31,-862.29 681.57,-863.99 677.77,-866.07 677.77,-866.07 677.77,-866.07 681.57,-863.99 679.65,-870.18 686.25,-861.42"/>
<text text-anchor="start" x="684.19" y="-850.39" font-family="Arial" font-size="10.00">FOREIGN KEY (model_key, from_class_key) REFERENCES class(model_key, class_key) ON DELETE CASCADE</text>
</g>
<!-- public.association&#45;&gt;public.class -->
<g id="edge4" class="edge">
<title>public.association:model_key&#45;&gt;public.class:model_key</title>
<path fill="none" stroke="black" d="M686.98,-863.04C751.5,-818.09 727.86,-337.77 654.8,-335.81"/>
<polygon fill="black" stroke="black" points="687.06,-863.01 676.14,-862.03 682.02,-864.76 677.92,-866.17 677.92,-866.17 677.92,-866.17 682.02,-864.76 679.08,-870.54 687.06,-863.01"/>
<text text-anchor="start" x="169.04" y="-850.39" font-family="Arial" font-size="10.00">FOREIGN KEY (model_key, to_class_key) REFERENCES class(model_key, class_key) ON DELETE CASCADE</text>
</g>
</g>
</svg>
