<?xml version="1.0" encoding="UTF-8" standalone="no"?>
<!DOCTYPE svg PUBLIC "-//W3C//DTD SVG 1.1//EN"
 "http://www.w3.org/Graphics/SVG/1.1/DTD/svg11.dtd">
<!-- Generated by graphviz version 12.1.2 (20240928.0832)
 -->
<!-- Title: public.data_type_atomic Pages: 1 -->
<svg width="936pt" height="725pt"
 viewBox="0.00 0.00 935.91 725.20" xmlns="http://www.w3.org/2000/svg" xmlns:xlink="http://www.w3.org/1999/xlink">
<g id="graph0" class="graph" transform="scale(1 1) rotate(0) translate(4 721.2)">
<title>public.data_type_atomic</title>
<polygon fill="white" stroke="none" points="-4,4 -4,-721.2 931.91,-721.2 931.91,4 -4,4"/>
<!-- public.data_type_atomic -->
<g id="node1" class="node">
<title>public.data_type_atomic</title>
<polygon fill="#efefef" stroke="none" points="46.2,-635.4 46.2,-671 362.13,-671 362.13,-635.4 46.2,-635.4"/>
<polygon fill="none" stroke="black" points="46.2,-635.4 46.2,-671 362.13,-671 362.13,-635.4 46.2,-635.4"/>
<text text-anchor="start" x="53.2" y="-648.8" font-family="Arial Bold" font-size="18.00">public.data_type_atomic</text>
<text text-anchor="start" x="230.64" y="-648.8" font-family="Arial" font-size="14.00">    </text>
<text text-anchor="start" x="261.76" y="-648.8" font-family="Arial" font-size="14.00" fill="#666666">[BASE TABLE]</text>
<polygon fill="none" stroke="black" points="46.2,-604.6 46.2,-635.4 362.13,-635.4 362.13,-604.6 46.2,-604.6"/>
<text text-anchor="start" x="53.2" y="-616.8" font-family="Arial" font-size="14.00">model_key </text>
<text text-anchor="start" x="124.79" y="-616.8" font-family="Arial" font-size="14.00" fill="#666666">[text]</text>
<polygon fill="none" stroke="black" points="46.2,-573.8 46.2,-604.6 362.13,-604.6 362.13,-573.8 46.2,-573.8"/>
<text text-anchor="start" x="53.2" y="-586" font-family="Arial" font-size="14.00">data_type_key </text>
<text text-anchor="start" x="148.16" y="-586" font-family="Arial" font-size="14.00" fill="#666666">[text]</text>
<polygon fill="none" stroke="black" points="46.2,-543 46.2,-573.8 362.13,-573.8 362.13,-543 46.2,-543"/>
<text text-anchor="start" x="53.2" y="-555.2" font-family="Arial" font-size="14.00">constraint_type </text>
<text text-anchor="start" x="152.03" y="-555.2" font-family="Arial" font-size="14.00" fill="#666666">[constraint_type]</text>
<polygon fill="none" stroke="black" points="46.2,-512.2 46.2,-543 362.13,-543 362.13,-512.2 46.2,-512.2"/>
<text text-anchor="start" x="53.2" y="-524.4" font-family="Arial" font-size="14.00">reference </text>
<text text-anchor="start" x="116.23" y="-524.4" font-family="Arial" font-size="14.00" fill="#666666">[text]</text>
<polygon fill="none" stroke="black" points="46.2,-481.4 46.2,-512.2 362.13,-512.2 362.13,-481.4 46.2,-481.4"/>
<text text-anchor="start" x="53.2" y="-493.6" font-family="Arial" font-size="14.00">enum_ordered </text>
<text text-anchor="start" x="148.15" y="-493.6" font-family="Arial" font-size="14.00" fill="#666666">[boolean]</text>
<polygon fill="none" stroke="black" points="46.2,-450.6 46.2,-481.4 362.13,-481.4 362.13,-450.6 46.2,-450.6"/>
<text text-anchor="start" x="53.2" y="-462.8" font-family="Arial" font-size="14.00">object_class_key </text>
<text text-anchor="start" x="163.7" y="-462.8" font-family="Arial" font-size="14.00" fill="#666666">[text]</text>
<polygon fill="none" stroke="black" stroke-width="3" points="44.7,-449.1 44.7,-672.5 363.63,-672.5 363.63,-449.1 44.7,-449.1"/>
</g>
<!-- public.data_type -->
<g id="node2" class="node">
<title>public.data_type</title>
<polygon fill="#efefef" stroke="none" points="75.19,-289.6 75.19,-325.2 333.14,-325.2 333.14,-289.6 75.19,-289.6"/>
<polygon fill="none" stroke="black" points="75.19,-289.6 75.19,-325.2 333.14,-325.2 333.14,-289.6 75.19,-289.6"/>
<text text-anchor="start" x="82.19" y="-303" font-family="Arial Bold" font-size="18.00">public.data_type</text>
<text text-anchor="start" x="201.65" y="-303" font-family="Arial" font-size="14.00">    </text>
<text text-anchor="start" x="232.77" y="-303" font-family="Arial" font-size="14.00" fill="#666666">[BASE TABLE]</text>
<polygon fill="none" stroke="black" points="75.19,-258.8 75.19,-289.6 333.14,-289.6 333.14,-258.8 75.19,-258.8"/>
<text text-anchor="start" x="82.19" y="-271" font-family="Arial" font-size="14.00">model_key </text>
<text text-anchor="start" x="153.78" y="-271" font-family="Arial" font-size="14.00" fill="#666666">[text]</text>
<polygon fill="none" stroke="black" points="75.19,-228 75.19,-258.8 333.14,-258.8 333.14,-228 75.19,-228"/>
<text text-anchor="start" x="82.19" y="-240.2" font-family="Arial" font-size="14.00">data_type_key </text>
<text text-anchor="start" x="177.15" y="-240.2" font-family="Arial" font-size="14.00" fill="#666666">[text]</text>
<polygon fill="none" stroke="black" points="75.19,-197.2 75.19,-228 333.14,-228 333.14,-197.2 75.19,-197.2"/>
<text text-anchor="start" x="82.19" y="-209.4" font-family="Arial" font-size="14.00">name </text>
<text text-anchor="start" x="121.1" y="-209.4" font-family="Arial" font-size="14.00" fill="#666666">[text]</text>
<polygon fill="none" stroke="black" points="75.19,-166.4 75.19,-197.2 333.14,-197.2 333.14,-166.4 75.19,-166.4"/>
<text text-anchor="start" x="82.19" y="-178.6" font-family="Arial" font-size="14.00">details </text>
<text text-anchor="start" x="126.55" y="-178.6" font-family="Arial" font-size="14.00" fill="#666666">[text]</text>
<polygon fill="none" stroke="black" points="75.19,-135.6 75.19,-166.4 333.14,-166.4 333.14,-135.6 75.19,-135.6"/>
<text text-anchor="start" x="82.19" y="-147.8" font-family="Arial" font-size="14.00">collection_type </text>
<text text-anchor="start" x="178.69" y="-147.8" font-family="Arial" font-size="14.00" fill="#666666">[collection_type]</text>
<polygon fill="none" stroke="black" points="75.19,-104.8 75.19,-135.6 333.14,-135.6 333.14,-104.8 75.19,-104.8"/>
<text text-anchor="start" x="82.19" y="-117" font-family="Arial" font-size="14.00">collection_unique </text>
<text text-anchor="start" x="194.27" y="-117" font-family="Arial" font-size="14.00" fill="#666666">[boolean]</text>
<polygon fill="none" stroke="black" points="75.19,-74 75.19,-104.8 333.14,-104.8 333.14,-74 75.19,-74"/>
<text text-anchor="start" x="82.19" y="-86.2" font-family="Arial" font-size="14.00">collection_min </text>
<text text-anchor="start" x="174.79" y="-86.2" font-family="Arial" font-size="14.00" fill="#666666">[bigint]</text>
<polygon fill="none" stroke="black" points="75.19,-43.2 75.19,-74 333.14,-74 333.14,-43.2 75.19,-43.2"/>
<text text-anchor="start" x="82.19" y="-55.4" font-family="Arial" font-size="14.00">collection_max </text>
<text text-anchor="start" x="178.68" y="-55.4" font-family="Arial" font-size="14.00" fill="#666666">[bigint]</text>
</g>
<!-- public.data_type_atomic&#45;&gt;public.data_type -->
<g id="edge1" class="edge">
<title>public.data_type_atomic:model_key&#45;&gt;public.data_type:model_key</title>
<path fill="none" stroke="black" d="M373.28,-617.79C437.42,-588.34 407.64,-274.2 334.14,-274.2"/>
<polygon fill="black" stroke="black" points="373.23,-617.8 362.5,-615.53 368.02,-618.94 363.79,-619.86 363.79,-619.86 363.79,-619.86 368.02,-618.94 364.42,-624.33 373.23,-617.8"/>
<text text-anchor="start" x="370.13" y="-630" font-family="Arial" font-size="10.00">FOREIGN KEY (model_key, data_type_key) REFERENCES data_type(model_key, data_type_key) ON DELETE CASCADE</text>
</g>
</g>
</svg>
