<?xml version="1.0" encoding="UTF-8" standalone="no"?>
<!DOCTYPE svg PUBLIC "-//W3C//DTD SVG 1.1//EN"
 "http://www.w3.org/Graphics/SVG/1.1/DTD/svg11.dtd">
<!-- Generated by graphviz version 12.1.2 (20240928.0832)
 -->
<!-- Title: public.domain_association Pages: 1 -->
<svg width="1321pt" height="664pt"
 viewBox="0.00 0.00 1320.92 663.60" xmlns="http://www.w3.org/2000/svg" xmlns:xlink="http://www.w3.org/1999/xlink">
<g id="graph0" class="graph" transform="scale(1 1) rotate(0) translate(4 659.6)">
<title>public.domain_association</title>
<polygon fill="white" stroke="none" points="-4,4 -4,-659.6 1316.92,-659.6 1316.92,4 -4,4"/>
<!-- public.domain_association -->
<g id="node1" class="node">
<title>public.domain_association</title>
<polygon fill="#efefef" stroke="none" points="407.88,-573.8 407.88,-609.4 738.83,-609.4 738.83,-573.8 407.88,-573.8"/>
<polygon fill="none" stroke="black" points="407.88,-573.8 407.88,-609.4 738.83,-609.4 738.83,-573.8 407.88,-573.8"/>
<text text-anchor="start" x="414.88" y="-587.2" font-family="Arial Bold" font-size="18.00">public.domain_association</text>
<text text-anchor="start" x="607.34" y="-587.2" font-family="Arial" font-size="14.00">    </text>
<text text-anchor="start" x="638.46" y="-587.2" font-family="Arial" font-size="14.00" fill="#666666">[BASE TABLE]</text>
<polygon fill="none" stroke="black" points="407.88,-543 407.88,-573.8 738.83,-573.8 738.83,-543 407.88,-543"/>
<text text-anchor="start" x="414.88" y="-555.2" font-family="Arial" font-size="14.00">model_key </text>
<text text-anchor="start" x="486.47" y="-555.2" font-family="Arial" font-size="14.00" fill="#666666">[text]</text>
<polygon fill="none" stroke="black" points="407.88,-512.2 407.88,-543 738.83,-543 738.83,-512.2 407.88,-512.2"/>
<text text-anchor="start" x="414.88" y="-524.4" font-family="Arial" font-size="14.00">association_key </text>
<text text-anchor="start" x="518.38" y="-524.4" font-family="Arial" font-size="14.00" fill="#666666">[text]</text>
<polygon fill="none" stroke="black" points="407.88,-481.4 407.88,-512.2 738.83,-512.2 738.83,-481.4 407.88,-481.4"/>
<text text-anchor="start" x="414.88" y="-493.6" font-family="Arial" font-size="14.00">problem_domain_key </text>
<text text-anchor="start" x="552.62" y="-493.6" font-family="Arial" font-size="14.00" fill="#666666">[text]</text>
<polygon fill="none" stroke="black" points="407.88,-450.6 407.88,-481.4 738.83,-481.4 738.83,-450.6 407.88,-450.6"/>
<text text-anchor="start" x="414.88" y="-462.8" font-family="Arial" font-size="14.00">solution_domain_key </text>
<text text-anchor="start" x="550.3" y="-462.8" font-family="Arial" font-size="14.00" fill="#666666">[text]</text>
<polygon fill="none" stroke="black" points="407.88,-419.8 407.88,-450.6 738.83,-450.6 738.83,-419.8 407.88,-419.8"/>
<text text-anchor="start" x="414.88" y="-432" font-family="Arial" font-size="14.00">uml_comment </text>
<text text-anchor="start" x="506.69" y="-432" font-family="Arial" font-size="14.00" fill="#666666">[text]</text>
<polygon fill="none" stroke="black" stroke-width="3" points="406.38,-418.3 406.38,-610.9 740.33,-610.9 740.33,-418.3 406.38,-418.3"/>
</g>
<!-- public.model -->
<g id="node2" class="node">
<title>public.model</title>
<polygon fill="#efefef" stroke="none" points="114.87,-212.6 114.87,-248.2 347.84,-248.2 347.84,-212.6 114.87,-212.6"/>
<polygon fill="none" stroke="black" points="114.87,-212.6 114.87,-248.2 347.84,-248.2 347.84,-212.6 114.87,-212.6"/>
<text text-anchor="start" x="121.87" y="-226" font-family="Arial Bold" font-size="18.00">public.model</text>
<text text-anchor="start" x="216.35" y="-226" font-family="Arial" font-size="14.00">    </text>
<text text-anchor="start" x="247.47" y="-226" font-family="Arial" font-size="14.00" fill="#666666">[BASE TABLE]</text>
<polygon fill="none" stroke="black" points="114.87,-181.8 114.87,-212.6 347.84,-212.6 347.84,-181.8 114.87,-181.8"/>
<text text-anchor="start" x="121.87" y="-194" font-family="Arial" font-size="14.00">model_key </text>
<text text-anchor="start" x="193.46" y="-194" font-family="Arial" font-size="14.00" fill="#666666">[text]</text>
<polygon fill="none" stroke="black" points="114.87,-151 114.87,-181.8 347.84,-181.8 347.84,-151 114.87,-151"/>
<text text-anchor="start" x="121.87" y="-163.2" font-family="Arial" font-size="14.00">name </text>
<text text-anchor="start" x="160.78" y="-163.2" font-family="Arial" font-size="14.00" fill="#666666">[text]</text>
<polygon fill="none" stroke="black" points="114.87,-120.2 114.87,-151 347.84,-151 347.84,-120.2 114.87,-120.2"/>
<text text-anchor="start" x="121.87" y="-132.4" font-family="Arial" font-size="14.00">details </text>
<text text-anchor="start" x="166.23" y="-132.4" font-family="Arial" font-size="14.00" fill="#666666">[text]</text>
<polygon fill="none" stroke="black" points="114.87,-89.4 114.87,-120.2 347.84,-120.2 347.84,-89.4 114.87,-89.4"/>
<text text-anchor="start" x="121.87" y="-101.6" font-family="Arial" font-size="14.00">unfinished_notes </text>
<text text-anchor="start" x="231.62" y="-101.6" font-family="Arial" font-size="14.00" fill="#666666">[text]</text>
</g>
<!-- public.domain_association&#45;&gt;public.model -->
<g id="edge1" class="edge">
<title>public.domain_association:model_key&#45;&gt;public.model:model_key</title>
<path fill="none" stroke="black" d="M397.02,-556.28C334.6,-526.68 426.49,-197.2 348.84,-197.2"/>
<polygon fill="black" stroke="black" points="396.78,-556.23 405.61,-562.73 401.99,-557.35 406.23,-558.26 406.23,-558.26 406.23,-558.26 401.99,-557.35 407.5,-553.93 396.78,-556.23"/>
<text text-anchor="start" x="7" y="-568.4" font-family="Arial" font-size="10.00">FOREIGN KEY (model_key) REFERENCES model(model_key) ON DELETE CASCADE</text>
</g>
<!-- public.domain -->
<g id="node3" class="node">
<title>public.domain</title>
<polygon fill="#efefef" stroke="none" points="452.37,-258.8 452.37,-294.4 694.34,-294.4 694.34,-258.8 452.37,-258.8"/>
<polygon fill="none" stroke="black" points="452.37,-258.8 452.37,-294.4 694.34,-294.4 694.34,-258.8 452.37,-258.8"/>
<text text-anchor="start" x="459.37" y="-272.2" font-family="Arial Bold" font-size="18.00">public.domain</text>
<text text-anchor="start" x="562.85" y="-272.2" font-family="Arial" font-size="14.00">    </text>
<text text-anchor="start" x="593.97" y="-272.2" font-family="Arial" font-size="14.00" fill="#666666">[BASE TABLE]</text>
<polygon fill="none" stroke="black" points="452.37,-228 452.37,-258.8 694.34,-258.8 694.34,-228 452.37,-228"/>
<text text-anchor="start" x="459.37" y="-240.2" font-family="Arial" font-size="14.00">domain_key </text>
<text text-anchor="start" x="538.75" y="-240.2" font-family="Arial" font-size="14.00" fill="#666666">[text]</text>
<polygon fill="none" stroke="black" points="452.37,-197.2 452.37,-228 694.34,-228 694.34,-197.2 452.37,-197.2"/>
<text text-anchor="start" x="459.37" y="-209.4" font-family="Arial" font-size="14.00">model_key </text>
<text text-anchor="start" x="530.96" y="-209.4" font-family="Arial" font-size="14.00" fill="#666666">[text]</text>
<polygon fill="none" stroke="black" points="452.37,-166.4 452.37,-197.2 694.34,-197.2 694.34,-166.4 452.37,-166.4"/>
<text text-anchor="start" x="459.37" y="-178.6" font-family="Arial" font-size="14.00">name </text>
<text text-anchor="start" x="498.28" y="-178.6" font-family="Arial" font-size="14.00" fill="#666666">[text]</text>
<polygon fill="none" stroke="black" points="452.37,-135.6 452.37,-166.4 694.34,-166.4 694.34,-135.6 452.37,-135.6"/>
<text text-anchor="start" x="459.37" y="-147.8" font-family="Arial" font-size="14.00">details </text>
<text text-anchor="start" x="503.73" y="-147.8" font-family="Arial" font-size="14.00" fill="#666666">[text]</text>
<polygon fill="none" stroke="black" points="452.37,-104.8 452.37,-135.6 694.34,-135.6 694.34,-104.8 452.37,-104.8"/>
<text text-anchor="start" x="459.37" y="-117" font-family="Arial" font-size="14.00">unfinished_notes </text>
<text text-anchor="start" x="569.12" y="-117" font-family="Arial" font-size="14.00" fill="#666666">[text]</text>
<polygon fill="none" stroke="black" points="452.37,-74 452.37,-104.8 694.34,-104.8 694.34,-74 452.37,-74"/>
<text text-anchor="start" x="459.37" y="-86.2" font-family="Arial" font-size="14.00">realized </text>
<text text-anchor="start" x="512.29" y="-86.2" font-family="Arial" font-size="14.00" fill="#666666">[boolean]</text>
<polygon fill="none" stroke="black" points="452.37,-43.2 452.37,-74 694.34,-74 694.34,-43.2 452.37,-43.2"/>
<text text-anchor="start" x="459.37" y="-55.4" font-family="Arial" font-size="14.00">uml_comment </text>
<text text-anchor="start" x="551.18" y="-55.4" font-family="Arial" font-size="14.00" fill="#666666">[text]</text>
</g>
<!-- public.domain_association&#45;&gt;public.domain -->
<g id="edge2" class="edge">
<title>public.domain_association:model_key&#45;&gt;public.domain:model_key</title>
<path fill="none" stroke="black" d="M749.74,-555.62C803.55,-522.89 760.21,-212.6 695.34,-212.6"/>
<polygon fill="black" stroke="black" points="749.78,-555.6 738.94,-553.98 744.65,-557.05 740.48,-558.22 740.48,-558.22 740.48,-558.22 744.65,-557.05 741.37,-562.64 749.78,-555.6"/>
<text text-anchor="start" x="746.83" y="-568.4" font-family="Arial" font-size="10.00">FOREIGN KEY (model_key, problem_domain_key) REFERENCES domain(model_key, domain_key) ON DELETE CASCADE</text>
</g>
<!-- public.domain_association&#45;&gt;public.domain -->
<g id="edge3" class="edge">
<title>public.domain_association:model_key&#45;&gt;public.domain:model_key</title>
<path fill="none" stroke="black" d="M750.02,-556.63C822.43,-530.05 778.29,-213.25 695.6,-212.6"/>
<polygon fill="black" stroke="black" points="750.26,-556.59 739.63,-553.91 745.01,-557.52 740.74,-558.28 740.74,-558.28 740.74,-558.28 745.01,-557.52 741.2,-562.77 750.26,-556.59"/>
<text text-anchor="start" x="747.09" y="-542.4" font-family="Arial" font-size="10.00">FOREIGN KEY (model_key, solution_domain_key) REFERENCES domain(model_key, domain_key) ON DELETE CASCADE</text>
</g>
</g>
</svg>
