<?xml version="1.0" encoding="UTF-8" standalone="no"?>
<!DOCTYPE svg PUBLIC "-//W3C//DTD SVG 1.1//EN"
 "http://www.w3.org/Graphics/SVG/1.1/DTD/svg11.dtd">
<!-- Generated by graphviz version 12.1.2 (20240928.0832)
 -->
<!-- Title: public.field Pages: 1 -->
<svg width="777pt" height="694pt"
 viewBox="0.00 0.00 777.02 694.40" xmlns="http://www.w3.org/2000/svg" xmlns:xlink="http://www.w3.org/1999/xlink">
<g id="graph0" class="graph" transform="scale(1 1) rotate(0) translate(4 690.4)">
<title>public.field</title>
<polygon fill="white" stroke="none" points="-4,4 -4,-690.4 773.02,-690.4 773.02,4 -4,4"/>
<!-- public.field -->
<g id="node1" class="node">
<title>public.field</title>
<polygon fill="#efefef" stroke="none" points="66.19,-604.6 66.19,-640.2 287.16,-640.2 287.16,-604.6 66.19,-604.6"/>
<polygon fill="none" stroke="black" points="66.19,-604.6 66.19,-640.2 287.16,-640.2 287.16,-604.6 66.19,-604.6"/>
<text text-anchor="start" x="73.19" y="-618" font-family="Arial Bold" font-size="18.00">public.field</text>
<text text-anchor="start" x="155.67" y="-618" font-family="Arial" font-size="14.00">    </text>
<text text-anchor="start" x="186.79" y="-618" font-family="Arial" font-size="14.00" fill="#666666">[BASE TABLE]</text>
<polygon fill="none" stroke="black" points="66.19,-573.8 66.19,-604.6 287.16,-604.6 287.16,-573.8 66.19,-573.8"/>
<text text-anchor="start" x="73.19" y="-586" font-family="Arial" font-size="14.00">field_id </text>
<text text-anchor="start" x="121.45" y="-586" font-family="Arial" font-size="14.00" fill="#666666">[integer]</text>
<polygon fill="none" stroke="black" points="66.19,-543 66.19,-573.8 287.16,-573.8 287.16,-543 66.19,-543"/>
<text text-anchor="start" x="73.19" y="-555.2" font-family="Arial" font-size="14.00">record_data_type_id </text>
<text text-anchor="start" x="204.73" y="-555.2" font-family="Arial" font-size="14.00" fill="#666666">[bigint]</text>
<polygon fill="none" stroke="black" points="66.19,-512.2 66.19,-543 287.16,-543 287.16,-512.2 66.19,-512.2"/>
<text text-anchor="start" x="73.19" y="-524.4" font-family="Arial" font-size="14.00">name </text>
<text text-anchor="start" x="112.1" y="-524.4" font-family="Arial" font-size="14.00" fill="#666666">[text]</text>
<polygon fill="none" stroke="black" points="66.19,-481.4 66.19,-512.2 287.16,-512.2 287.16,-481.4 66.19,-481.4"/>
<text text-anchor="start" x="73.19" y="-493.6" font-family="Arial" font-size="14.00">field_data_type_id </text>
<text text-anchor="start" x="190.73" y="-493.6" font-family="Arial" font-size="14.00" fill="#666666">[bigint]</text>
<polygon fill="none" stroke="black" points="66.19,-450.6 66.19,-481.4 287.16,-481.4 287.16,-450.6 66.19,-450.6"/>
<text text-anchor="start" x="73.19" y="-462.8" font-family="Arial" font-size="14.00">details </text>
<text text-anchor="start" x="117.55" y="-462.8" font-family="Arial" font-size="14.00" fill="#666666">[text]</text>
<polygon fill="none" stroke="black" points="66.19,-419.8 66.19,-450.6 287.16,-450.6 287.16,-419.8 66.19,-419.8"/>
<text text-anchor="start" x="73.19" y="-432" font-family="Arial" font-size="14.00">uml_comment </text>
<text text-anchor="start" x="165" y="-432" font-family="Arial" font-size="14.00" fill="#666666">[text]</text>
<polygon fill="none" stroke="black" stroke-width="3" points="64.69,-418.3 64.69,-641.7 288.66,-641.7 288.66,-418.3 64.69,-418.3"/>
</g>
<!-- public.data_type2 -->
<g id="node2" class="node">
<title>public.data_type2</title>
<polygon fill="#efefef" stroke="none" points="43.2,-258.8 43.2,-294.4 310.15,-294.4 310.15,-258.8 43.2,-258.8"/>
<polygon fill="none" stroke="black" points="43.2,-258.8 43.2,-294.4 310.15,-294.4 310.15,-258.8 43.2,-258.8"/>
<text text-anchor="start" x="50.2" y="-272.2" font-family="Arial Bold" font-size="18.00">public.data_type2</text>
<text text-anchor="start" x="178.66" y="-272.2" font-family="Arial" font-size="14.00">    </text>
<text text-anchor="start" x="209.78" y="-272.2" font-family="Arial" font-size="14.00" fill="#666666">[BASE TABLE]</text>
<polygon fill="none" stroke="black" points="43.2,-228 43.2,-258.8 310.15,-258.8 310.15,-228 43.2,-228"/>
<text text-anchor="start" x="50.2" y="-240.2" font-family="Arial" font-size="14.00">data_type_id </text>
<text text-anchor="start" x="134.27" y="-240.2" font-family="Arial" font-size="14.00" fill="#666666">[bigint]</text>
<polygon fill="none" stroke="black" points="43.2,-197.2 43.2,-228 310.15,-228 310.15,-197.2 43.2,-197.2"/>
<text text-anchor="start" x="50.2" y="-209.4" font-family="Arial" font-size="14.00">collection_type </text>
<text text-anchor="start" x="146.7" y="-209.4" font-family="Arial" font-size="14.00" fill="#666666">[collection_type]</text>
<polygon fill="none" stroke="black" points="43.2,-166.4 43.2,-197.2 310.15,-197.2 310.15,-166.4 43.2,-166.4"/>
<text text-anchor="start" x="50.2" y="-178.6" font-family="Arial" font-size="14.00">collection_unique </text>
<text text-anchor="start" x="162.28" y="-178.6" font-family="Arial" font-size="14.00" fill="#666666">[boolean]</text>
<polygon fill="none" stroke="black" points="43.2,-135.6 43.2,-166.4 310.15,-166.4 310.15,-135.6 43.2,-135.6"/>
<text text-anchor="start" x="50.2" y="-147.8" font-family="Arial" font-size="14.00">collection_min </text>
<text text-anchor="start" x="142.8" y="-147.8" font-family="Arial" font-size="14.00" fill="#666666">[bigint]</text>
<polygon fill="none" stroke="black" points="43.2,-104.8 43.2,-135.6 310.15,-135.6 310.15,-104.8 43.2,-104.8"/>
<text text-anchor="start" x="50.2" y="-117" font-family="Arial" font-size="14.00">collection_max </text>
<text text-anchor="start" x="146.69" y="-117" font-family="Arial" font-size="14.00" fill="#666666">[bigint]</text>
<polygon fill="none" stroke="black" points="43.2,-74 43.2,-104.8 310.15,-104.8 310.15,-74 43.2,-74"/>
<text text-anchor="start" x="50.2" y="-86.2" font-family="Arial" font-size="14.00">details </text>
<text text-anchor="start" x="94.56" y="-86.2" font-family="Arial" font-size="14.00" fill="#666666">[text]</text>
<polygon fill="none" stroke="black" points="43.2,-43.2 43.2,-74 310.15,-74 310.15,-43.2 43.2,-43.2"/>
<text text-anchor="start" x="50.2" y="-55.4" font-family="Arial" font-size="14.00">uml_comment </text>
<text text-anchor="start" x="142.01" y="-55.4" font-family="Arial" font-size="14.00" fill="#666666">[text]</text>
</g>
<!-- public.field&#45;&gt;public.data_type2 -->
<g id="edge1" class="edge">
<title>public.field:record_data_type_id&#45;&gt;public.data_type2:data_type_id</title>
<path fill="none" stroke="black" d="M298.1,-556.22C360.37,-528.39 377.91,-243.4 311.15,-243.4"/>
<polygon fill="black" stroke="black" points="298.25,-556.19 287.52,-553.93 293.04,-557.33 288.81,-558.26 288.81,-558.26 288.81,-558.26 293.04,-557.33 289.45,-562.72 298.25,-556.19"/>
<text text-anchor="start" x="295.16" y="-568.4" font-family="Arial" font-size="10.00">FOREIGN KEY (record_data_type_id) REFERENCES data_type2(data_type_id) ON DELETE CASCADE</text>
</g>
<!-- public.field&#45;&gt;public.data_type2 -->
<g id="edge2" class="edge">
<title>public.field:field_data_type_id&#45;&gt;public.data_type2:data_type_id</title>
<path fill="none" stroke="black" d="M298.05,-494.13C347.19,-467.04 364.27,-243.4 311.15,-243.4"/>
<polygon fill="black" stroke="black" points="298.13,-494.1 287.31,-492.37 292.98,-495.49 288.8,-496.63 288.8,-496.63 288.8,-496.63 292.98,-495.49 289.66,-501.06 298.13,-494.1"/>
<text text-anchor="start" x="295.16" y="-506.8" font-family="Arial" font-size="10.00">FOREIGN KEY (field_data_type_id) REFERENCES data_type2(data_type_id) ON DELETE CASCADE</text>
</g>
</g>
</svg>
