<?xml version="1.0" encoding="UTF-8" standalone="no"?>
<!DOCTYPE svg PUBLIC "-//W3C//DTD SVG 1.1//EN"
 "http://www.w3.org/Graphics/SVG/1.1/DTD/svg11.dtd">
<!-- Generated by graphviz version 12.1.2 (20240928.0832)
 -->
<!-- Title: public.invariant Pages: 1 -->
<svg width="802pt" height="602pt"
 viewBox="0.00 0.00 801.86 602.00" xmlns="http://www.w3.org/2000/svg" xmlns:xlink="http://www.w3.org/1999/xlink">
<g id="graph0" class="graph" transform="scale(1 1) rotate(0) translate(4 598)">
<title>public.invariant</title>
<polygon fill="white" stroke="none" points="-4,4 -4,-598 797.86,-598 797.86,4 -4,4"/>
<!-- public.invariant -->
<g id="node1" class="node">
<title>public.invariant</title>
<polygon fill="#efefef" stroke="none" points="46.2,-512.2 46.2,-547.8 298.16,-547.8 298.16,-512.2 46.2,-512.2"/>
<polygon fill="none" stroke="black" points="46.2,-512.2 46.2,-547.8 298.16,-547.8 298.16,-512.2 46.2,-512.2"/>
<text text-anchor="start" x="53.2" y="-525.6" font-family="Arial Bold" font-size="18.00">public.invariant</text>
<text text-anchor="start" x="166.67" y="-525.6" font-family="Arial" font-size="14.00">    </text>
<text text-anchor="start" x="197.78" y="-525.6" font-family="Arial" font-size="14.00" fill="#666666">[BASE TABLE]</text>
<polygon fill="none" stroke="black" points="46.2,-481.4 46.2,-512.2 298.16,-512.2 298.16,-481.4 46.2,-481.4"/>
<text text-anchor="start" x="53.2" y="-493.6" font-family="Arial" font-size="14.00">model_key </text>
<text text-anchor="start" x="124.79" y="-493.6" font-family="Arial" font-size="14.00" fill="#666666">[text]</text>
<polygon fill="none" stroke="black" points="46.2,-450.6 46.2,-481.4 298.16,-481.4 298.16,-450.6 46.2,-450.6"/>
<text text-anchor="start" x="53.2" y="-462.8" font-family="Arial" font-size="14.00">logic_key </text>
<text text-anchor="start" x="115.45" y="-462.8" font-family="Arial" font-size="14.00" fill="#666666">[text]</text>
<polygon fill="none" stroke="black" stroke-width="3" points="44.7,-449.1 44.7,-549.3 299.66,-549.3 299.66,-449.1 44.7,-449.1"/>
</g>
<!-- public.logic -->
<g id="node2" class="node">
<title>public.logic</title>
<polygon fill="#efefef" stroke="none" points="60.19,-289.6 60.19,-325.2 284.16,-325.2 284.16,-289.6 60.19,-289.6"/>
<polygon fill="none" stroke="black" points="60.19,-289.6 60.19,-325.2 284.16,-325.2 284.16,-289.6 60.19,-289.6"/>
<text text-anchor="start" x="67.19" y="-303" font-family="Arial Bold" font-size="18.00">public.logic</text>
<text text-anchor="start" x="152.67" y="-303" font-family="Arial" font-size="14.00">    </text>
<text text-anchor="start" x="183.79" y="-303" font-family="Arial" font-size="14.00" fill="#666666">[BASE TABLE]</text>
<polygon fill="none" stroke="black" points="60.19,-258.8 60.19,-289.6 284.16,-289.6 284.16,-258.8 60.19,-258.8"/>
<text text-anchor="start" x="67.19" y="-271" font-family="Arial" font-size="14.00">logic_key </text>
<text text-anchor="start" x="129.45" y="-271" font-family="Arial" font-size="14.00" fill="#666666">[text]</text>
<polygon fill="none" stroke="black" points="60.19,-228 60.19,-258.8 284.16,-258.8 284.16,-228 60.19,-228"/>
<text text-anchor="start" x="67.19" y="-240.2" font-family="Arial" font-size="14.00">model_key </text>
<text text-anchor="start" x="138.78" y="-240.2" font-family="Arial" font-size="14.00" fill="#666666">[text]</text>
<polygon fill="none" stroke="black" points="60.19,-197.2 60.19,-228 284.16,-228 284.16,-197.2 60.19,-197.2"/>
<text text-anchor="start" x="67.19" y="-209.4" font-family="Arial" font-size="14.00">sort_order </text>
<text text-anchor="start" x="134.89" y="-209.4" font-family="Arial" font-size="14.00" fill="#666666">[integer]</text>
<polygon fill="none" stroke="black" points="60.19,-166.4 60.19,-197.2 284.16,-197.2 284.16,-166.4 60.19,-166.4"/>
<text text-anchor="start" x="67.19" y="-178.6" font-family="Arial" font-size="14.00">logic_type </text>
<text text-anchor="start" x="134.12" y="-178.6" font-family="Arial" font-size="14.00" fill="#666666">[logic_type]</text>
<polygon fill="none" stroke="black" points="60.19,-135.6 60.19,-166.4 284.16,-166.4 284.16,-135.6 60.19,-135.6"/>
<text text-anchor="start" x="67.19" y="-147.8" font-family="Arial" font-size="14.00">description </text>
<text text-anchor="start" x="138.78" y="-147.8" font-family="Arial" font-size="14.00" fill="#666666">[text]</text>
<polygon fill="none" stroke="black" points="60.19,-104.8 60.19,-135.6 284.16,-135.6 284.16,-104.8 60.19,-104.8"/>
<text text-anchor="start" x="67.19" y="-117" font-family="Arial" font-size="14.00">target </text>
<text text-anchor="start" x="106.88" y="-117" font-family="Arial" font-size="14.00" fill="#666666">[text]</text>
<polygon fill="none" stroke="black" points="60.19,-74 60.19,-104.8 284.16,-104.8 284.16,-74 60.19,-74"/>
<text text-anchor="start" x="67.19" y="-86.2" font-family="Arial" font-size="14.00">notation </text>
<text text-anchor="start" x="120.9" y="-86.2" font-family="Arial" font-size="14.00" fill="#666666">[notation]</text>
<polygon fill="none" stroke="black" points="60.19,-43.2 60.19,-74 284.16,-74 284.16,-43.2 60.19,-43.2"/>
<text text-anchor="start" x="67.19" y="-55.4" font-family="Arial" font-size="14.00">specification </text>
<text text-anchor="start" x="148.12" y="-55.4" font-family="Arial" font-size="14.00" fill="#666666">[text]</text>
</g>
<!-- public.invariant&#45;&gt;public.logic -->
<g id="edge1" class="edge">
<title>public.invariant:model_key&#45;&gt;public.logic:model_key</title>
<path fill="none" stroke="black" d="M308.91,-493.95C353.64,-466.11 338.04,-243.4 285.16,-243.4"/>
<polygon fill="black" stroke="black" points="309.08,-493.91 298.22,-492.39 303.96,-495.4 299.8,-496.61 299.8,-496.61 299.8,-496.61 303.96,-495.4 300.74,-501.03 309.08,-493.91"/>
<text text-anchor="start" x="306.16" y="-506.8" font-family="Arial" font-size="10.00">FOREIGN KEY (model_key, logic_key) REFERENCES logic(model_key, logic_key) ON DELETE CASCADE</text>
</g>
</g>
</svg>
