<?xml version="1.0" encoding="UTF-8" standalone="no"?>
<!DOCTYPE svg PUBLIC "-//W3C//DTD SVG 1.1//EN"
 "http://www.w3.org/Graphics/SVG/1.1/DTD/svg11.dtd">
<!-- Generated by graphviz version 12.1.2 (20240928.0832)
 -->
<!-- Title: public.data_type_atomic_enum_value Pages: 1 -->
<svg width="1068pt" height="602pt"
 viewBox="0.00 0.00 1067.90 602.00" xmlns="http://www.w3.org/2000/svg" xmlns:xlink="http://www.w3.org/1999/xlink">
<g id="graph0" class="graph" transform="scale(1 1) rotate(0) translate(4 598)">
<title>public.data_type_atomic_enum_value</title>
<polygon fill="white" stroke="none" points="-4,4 -4,-598 1063.9,-598 1063.9,4 -4,4"/>
<!-- public.data_type_atomic_enum_value -->
<g id="node1" class="node">
<title>public.data_type_atomic_enum_value</title>
<polygon fill="#efefef" stroke="none" points="46.2,-512.2 46.2,-547.8 459.1,-547.8 459.1,-512.2 46.2,-512.2"/>
<polygon fill="none" stroke="black" points="46.2,-512.2 46.2,-547.8 459.1,-547.8 459.1,-512.2 46.2,-512.2"/>
<text text-anchor="start" x="53.2" y="-525.6" font-family="Arial Bold" font-size="18.00">public.data_type_atomic_enum_value</text>
<text text-anchor="start" x="327.61" y="-525.6" font-family="Arial" font-size="14.00">    </text>
<text text-anchor="start" x="358.73" y="-525.6" font-family="Arial" font-size="14.00" fill="#666666">[BASE TABLE]</text>
<polygon fill="none" stroke="black" points="46.2,-481.4 46.2,-512.2 459.1,-512.2 459.1,-481.4 46.2,-481.4"/>
<text text-anchor="start" x="53.2" y="-493.6" font-family="Arial" font-size="14.00">model_key </text>
<text text-anchor="start" x="124.79" y="-493.6" font-family="Arial" font-size="14.00" fill="#666666">[text]</text>
<polygon fill="none" stroke="black" points="46.2,-450.6 46.2,-481.4 459.1,-481.4 459.1,-450.6 46.2,-450.6"/>
<text text-anchor="start" x="53.2" y="-462.8" font-family="Arial" font-size="14.00">data_type_key </text>
<text text-anchor="start" x="148.16" y="-462.8" font-family="Arial" font-size="14.00" fill="#666666">[text]</text>
<polygon fill="none" stroke="black" points="46.2,-419.8 46.2,-450.6 459.1,-450.6 459.1,-419.8 46.2,-419.8"/>
<text text-anchor="start" x="53.2" y="-432" font-family="Arial" font-size="14.00">value </text>
<text text-anchor="start" x="90.56" y="-432" font-family="Arial" font-size="14.00" fill="#666666">[text]</text>
<polygon fill="none" stroke="black" points="46.2,-389 46.2,-419.8 459.1,-419.8 459.1,-389 46.2,-389"/>
<text text-anchor="start" x="53.2" y="-401.2" font-family="Arial" font-size="14.00">sort_order </text>
<text text-anchor="start" x="120.9" y="-401.2" font-family="Arial" font-size="14.00" fill="#666666">[integer]</text>
<polygon fill="none" stroke="black" stroke-width="3" points="44.7,-387.5 44.7,-549.3 460.6,-549.3 460.6,-387.5 44.7,-387.5"/>
</g>
<!-- public.data_type_atomic -->
<g id="node2" class="node">
<title>public.data_type_atomic</title>
<polygon fill="#efefef" stroke="none" points="94.68,-228 94.68,-263.6 410.62,-263.6 410.62,-228 94.68,-228"/>
<polygon fill="none" stroke="black" points="94.68,-228 94.68,-263.6 410.62,-263.6 410.62,-228 94.68,-228"/>
<text text-anchor="start" x="101.68" y="-241.4" font-family="Arial Bold" font-size="18.00">public.data_type_atomic</text>
<text text-anchor="start" x="279.13" y="-241.4" font-family="Arial" font-size="14.00">    </text>
<text text-anchor="start" x="310.24" y="-241.4" font-family="Arial" font-size="14.00" fill="#666666">[BASE TABLE]</text>
<polygon fill="none" stroke="black" points="94.68,-197.2 94.68,-228 410.62,-228 410.62,-197.2 94.68,-197.2"/>
<text text-anchor="start" x="101.68" y="-209.4" font-family="Arial" font-size="14.00">model_key </text>
<text text-anchor="start" x="173.28" y="-209.4" font-family="Arial" font-size="14.00" fill="#666666">[text]</text>
<polygon fill="none" stroke="black" points="94.68,-166.4 94.68,-197.2 410.62,-197.2 410.62,-166.4 94.68,-166.4"/>
<text text-anchor="start" x="101.68" y="-178.6" font-family="Arial" font-size="14.00">data_type_key </text>
<text text-anchor="start" x="196.64" y="-178.6" font-family="Arial" font-size="14.00" fill="#666666">[text]</text>
<polygon fill="none" stroke="black" points="94.68,-135.6 94.68,-166.4 410.62,-166.4 410.62,-135.6 94.68,-135.6"/>
<text text-anchor="start" x="101.68" y="-147.8" font-family="Arial" font-size="14.00">constraint_type </text>
<text text-anchor="start" x="200.52" y="-147.8" font-family="Arial" font-size="14.00" fill="#666666">[constraint_type]</text>
<polygon fill="none" stroke="black" points="94.68,-104.8 94.68,-135.6 410.62,-135.6 410.62,-104.8 94.68,-104.8"/>
<text text-anchor="start" x="101.68" y="-117" font-family="Arial" font-size="14.00">reference </text>
<text text-anchor="start" x="164.72" y="-117" font-family="Arial" font-size="14.00" fill="#666666">[text]</text>
<polygon fill="none" stroke="black" points="94.68,-74 94.68,-104.8 410.62,-104.8 410.62,-74 94.68,-74"/>
<text text-anchor="start" x="101.68" y="-86.2" font-family="Arial" font-size="14.00">enum_ordered </text>
<text text-anchor="start" x="196.64" y="-86.2" font-family="Arial" font-size="14.00" fill="#666666">[boolean]</text>
<polygon fill="none" stroke="black" points="94.68,-43.2 94.68,-74 410.62,-74 410.62,-43.2 94.68,-43.2"/>
<text text-anchor="start" x="101.68" y="-55.4" font-family="Arial" font-size="14.00">object_class_key </text>
<text text-anchor="start" x="212.19" y="-55.4" font-family="Arial" font-size="14.00" fill="#666666">[text]</text>
</g>
<!-- public.data_type_atomic_enum_value&#45;&gt;public.data_type_atomic -->
<g id="edge1" class="edge">
<title>public.data_type_atomic_enum_value:model_key&#45;&gt;public.data_type_atomic:model_key</title>
<path fill="none" stroke="black" d="M470.22,-496.17C585.53,-481.47 536.25,-212.6 411.62,-212.6"/>
<polygon fill="black" stroke="black" points="470.42,-496.16 460.16,-492.29 465.09,-496.49 460.77,-496.76 460.77,-496.76 460.77,-496.76 465.09,-496.49 460.71,-501.27 470.42,-496.16"/>
<text text-anchor="start" x="467.1" y="-506.8" font-family="Arial" font-size="10.00">FOREIGN KEY (model_key, data_type_key) REFERENCES data_type_atomic(model_key, data_type_key) ON DELETE CASCADE</text>
</g>
</g>
</svg>
