<?xml version="1.0" encoding="UTF-8" standalone="no"?>
<!DOCTYPE svg PUBLIC "-//W3C//DTD SVG 1.1//EN"
 "http://www.w3.org/Graphics/SVG/1.1/DTD/svg11.dtd">
<!-- Generated by graphviz version 12.1.2 (20240928.0832)
 -->
<!-- Title: public.use_case_actor Pages: 1 -->
<svg width="1369pt" height="756pt"
 viewBox="0.00 0.00 1369.15 756.00" xmlns="http://www.w3.org/2000/svg" xmlns:xlink="http://www.w3.org/1999/xlink">
<g id="graph0" class="graph" transform="scale(1 1) rotate(0) translate(4 752)">
<title>public.use_case_actor</title>
<polygon fill="white" stroke="none" points="-4,4 -4,-752 1365.15,-752 1365.15,4 -4,4"/>
<!-- public.use_case_actor -->
<g id="node1" class="node">
<title>public.use_case_actor</title>
<polygon fill="#efefef" stroke="none" points="501.8,-666.2 501.8,-701.8 798.72,-701.8 798.72,-666.2 501.8,-666.2"/>
<polygon fill="none" stroke="black" points="501.8,-666.2 501.8,-701.8 798.72,-701.8 798.72,-666.2 501.8,-666.2"/>
<text text-anchor="start" x="508.8" y="-679.6" font-family="Arial Bold" font-size="18.00">public.use_case_actor</text>
<text text-anchor="start" x="667.23" y="-679.6" font-family="Arial" font-size="14.00">    </text>
<text text-anchor="start" x="698.35" y="-679.6" font-family="Arial" font-size="14.00" fill="#666666">[BASE TABLE]</text>
<polygon fill="none" stroke="black" points="501.8,-635.4 501.8,-666.2 798.72,-666.2 798.72,-635.4 501.8,-635.4"/>
<text text-anchor="start" x="508.8" y="-647.6" font-family="Arial" font-size="14.00">model_key </text>
<text text-anchor="start" x="580.39" y="-647.6" font-family="Arial" font-size="14.00" fill="#666666">[text]</text>
<polygon fill="none" stroke="black" points="501.8,-604.6 501.8,-635.4 798.72,-635.4 798.72,-604.6 501.8,-604.6"/>
<text text-anchor="start" x="508.8" y="-616.8" font-family="Arial" font-size="14.00">use_case_key </text>
<text text-anchor="start" x="602.19" y="-616.8" font-family="Arial" font-size="14.00" fill="#666666">[text]</text>
<polygon fill="none" stroke="black" points="501.8,-573.8 501.8,-604.6 798.72,-604.6 798.72,-573.8 501.8,-573.8"/>
<text text-anchor="start" x="508.8" y="-586" font-family="Arial" font-size="14.00">actor_key </text>
<text text-anchor="start" x="573.39" y="-586" font-family="Arial" font-size="14.00" fill="#666666">[text]</text>
<polygon fill="none" stroke="black" points="501.8,-543 501.8,-573.8 798.72,-573.8 798.72,-543 501.8,-543"/>
<text text-anchor="start" x="508.8" y="-555.2" font-family="Arial" font-size="14.00">uml_comment </text>
<text text-anchor="start" x="600.61" y="-555.2" font-family="Arial" font-size="14.00" fill="#666666">[text]</text>
<polygon fill="none" stroke="black" stroke-width="3" points="500.3,-541.5 500.3,-703.3 800.22,-703.3 800.22,-541.5 500.3,-541.5"/>
</g>
<!-- public.class -->
<g id="node2" class="node">
<title>public.class</title>
<polygon fill="#efefef" stroke="none" points="367.78,-366.6 367.78,-402.2 590.75,-402.2 590.75,-366.6 367.78,-366.6"/>
<polygon fill="none" stroke="black" points="367.78,-366.6 367.78,-402.2 590.75,-402.2 590.75,-366.6 367.78,-366.6"/>
<text text-anchor="start" x="374.78" y="-380" font-family="Arial Bold" font-size="18.00">public.class</text>
<text text-anchor="start" x="459.26" y="-380" font-family="Arial" font-size="14.00">    </text>
<text text-anchor="start" x="490.38" y="-380" font-family="Arial" font-size="14.00" fill="#666666">[BASE TABLE]</text>
<polygon fill="none" stroke="black" points="367.78,-335.8 367.78,-366.6 590.75,-366.6 590.75,-335.8 367.78,-335.8"/>
<text text-anchor="start" x="374.78" y="-348" font-family="Arial" font-size="14.00">model_key </text>
<text text-anchor="start" x="446.37" y="-348" font-family="Arial" font-size="14.00" fill="#666666">[text]</text>
<polygon fill="none" stroke="black" points="367.78,-305 367.78,-335.8 590.75,-335.8 590.75,-305 367.78,-305"/>
<text text-anchor="start" x="374.78" y="-317.2" font-family="Arial" font-size="14.00">class_key </text>
<text text-anchor="start" x="440.14" y="-317.2" font-family="Arial" font-size="14.00" fill="#666666">[text]</text>
<polygon fill="none" stroke="black" points="367.78,-274.2 367.78,-305 590.75,-305 590.75,-274.2 367.78,-274.2"/>
<text text-anchor="start" x="374.78" y="-286.4" font-family="Arial" font-size="14.00">name </text>
<text text-anchor="start" x="413.69" y="-286.4" font-family="Arial" font-size="14.00" fill="#666666">[text]</text>
<polygon fill="none" stroke="black" points="367.78,-243.4 367.78,-274.2 590.75,-274.2 590.75,-243.4 367.78,-243.4"/>
<text text-anchor="start" x="374.78" y="-255.6" font-family="Arial" font-size="14.00">subdomain_key </text>
<text text-anchor="start" x="476.73" y="-255.6" font-family="Arial" font-size="14.00" fill="#666666">[text]</text>
<polygon fill="none" stroke="black" points="367.78,-212.6 367.78,-243.4 590.75,-243.4 590.75,-212.6 367.78,-212.6"/>
<text text-anchor="start" x="374.78" y="-224.8" font-family="Arial" font-size="14.00">actor_key </text>
<text text-anchor="start" x="439.36" y="-224.8" font-family="Arial" font-size="14.00" fill="#666666">[text]</text>
<polygon fill="none" stroke="black" points="367.78,-181.8 367.78,-212.6 590.75,-212.6 590.75,-181.8 367.78,-181.8"/>
<text text-anchor="start" x="374.78" y="-194" font-family="Arial" font-size="14.00">superclass_of_key </text>
<text text-anchor="start" x="494.62" y="-194" font-family="Arial" font-size="14.00" fill="#666666">[text]</text>
<polygon fill="none" stroke="black" points="367.78,-151 367.78,-181.8 590.75,-181.8 590.75,-151 367.78,-151"/>
<text text-anchor="start" x="374.78" y="-163.2" font-family="Arial" font-size="14.00">subclass_of_key </text>
<text text-anchor="start" x="482.17" y="-163.2" font-family="Arial" font-size="14.00" fill="#666666">[text]</text>
<polygon fill="none" stroke="black" points="367.78,-120.2 367.78,-151 590.75,-151 590.75,-120.2 367.78,-120.2"/>
<text text-anchor="start" x="374.78" y="-132.4" font-family="Arial" font-size="14.00">details </text>
<text text-anchor="start" x="419.14" y="-132.4" font-family="Arial" font-size="14.00" fill="#666666">[text]</text>
<polygon fill="none" stroke="black" points="367.78,-89.4 367.78,-120.2 590.75,-120.2 590.75,-89.4 367.78,-89.4"/>
<text text-anchor="start" x="374.78" y="-101.6" font-family="Arial" font-size="14.00">unfinished_notes </text>
<text text-anchor="start" x="484.53" y="-101.6" font-family="Arial" font-size="14.00" fill="#666666">[text]</text>
<polygon fill="none" stroke="black" points="367.78,-58.6 367.78,-89.4 590.75,-89.4 590.75,-58.6 367.78,-58.6"/>
<text text-anchor="start" x="374.78" y="-70.8" font-family="Arial" font-size="14.00">uml_comment </text>
<text text-anchor="start" x="466.58" y="-70.8" font-family="Arial" font-size="14.00" fill="#666666">[text]</text>
</g>
<!-- public.use_case_actor&#45;&gt;public.class -->
<g id="edge1" class="edge">
<title>public.use_case_actor:model_key&#45;&gt;public.class:model_key</title>
<path fill="none" stroke="black" d="M490.48,-649.97C436.19,-640.53 469.28,-552.74 501.8,-496.8 524.75,-457.33 567.72,-484.82 590.75,-445.4 611.87,-409.25 633.62,-351.2 591.75,-351.2"/>
<polygon fill="black" stroke="black" points="490.5,-649.97 500.11,-655.26 495.82,-650.4 500.13,-650.75 500.13,-650.75 500.13,-650.75 495.82,-650.4 500.83,-646.29 490.5,-649.97"/>
<text text-anchor="start" x="7" y="-660.8" font-family="Arial" font-size="10.00">FOREIGN KEY (model_key, actor_key) REFERENCES class(model_key, class_key) ON DELETE CASCADE</text>
</g>
<!-- public.use_case -->
<g id="node3" class="node">
<title>public.use_case</title>
<polygon fill="#efefef" stroke="none" points="695.29,-382 695.29,-417.6 947.24,-417.6 947.24,-382 695.29,-382"/>
<polygon fill="none" stroke="black" points="695.29,-382 695.29,-417.6 947.24,-417.6 947.24,-382 695.29,-382"/>
<text text-anchor="start" x="702.29" y="-395.4" font-family="Arial Bold" font-size="18.00">public.use_case</text>
<text text-anchor="start" x="815.75" y="-395.4" font-family="Arial" font-size="14.00">    </text>
<text text-anchor="start" x="846.86" y="-395.4" font-family="Arial" font-size="14.00" fill="#666666">[BASE TABLE]</text>
<polygon fill="none" stroke="black" points="695.29,-351.2 695.29,-382 947.24,-382 947.24,-351.2 695.29,-351.2"/>
<text text-anchor="start" x="702.29" y="-363.4" font-family="Arial" font-size="14.00">model_key </text>
<text text-anchor="start" x="773.88" y="-363.4" font-family="Arial" font-size="14.00" fill="#666666">[text]</text>
<polygon fill="none" stroke="black" points="695.29,-320.4 695.29,-351.2 947.24,-351.2 947.24,-320.4 695.29,-320.4"/>
<text text-anchor="start" x="702.29" y="-332.6" font-family="Arial" font-size="14.00">use_case_key </text>
<text text-anchor="start" x="795.68" y="-332.6" font-family="Arial" font-size="14.00" fill="#666666">[text]</text>
<polygon fill="none" stroke="black" points="695.29,-289.6 695.29,-320.4 947.24,-320.4 947.24,-289.6 695.29,-289.6"/>
<text text-anchor="start" x="702.29" y="-301.8" font-family="Arial" font-size="14.00">name </text>
<text text-anchor="start" x="741.2" y="-301.8" font-family="Arial" font-size="14.00" fill="#666666">[text]</text>
<polygon fill="none" stroke="black" points="695.29,-258.8 695.29,-289.6 947.24,-289.6 947.24,-258.8 695.29,-258.8"/>
<text text-anchor="start" x="702.29" y="-271" font-family="Arial" font-size="14.00">details </text>
<text text-anchor="start" x="746.65" y="-271" font-family="Arial" font-size="14.00" fill="#666666">[text]</text>
<polygon fill="none" stroke="black" points="695.29,-228 695.29,-258.8 947.24,-258.8 947.24,-228 695.29,-228"/>
<text text-anchor="start" x="702.29" y="-240.2" font-family="Arial" font-size="14.00">unfinished_notes </text>
<text text-anchor="start" x="812.04" y="-240.2" font-family="Arial" font-size="14.00" fill="#666666">[text]</text>
<polygon fill="none" stroke="black" points="695.29,-197.2 695.29,-228 947.24,-228 947.24,-197.2 695.29,-197.2"/>
<text text-anchor="start" x="702.29" y="-209.4" font-family="Arial" font-size="14.00">level </text>
<text text-anchor="start" x="734.97" y="-209.4" font-family="Arial" font-size="14.00" fill="#666666">[use_case_level]</text>
<polygon fill="none" stroke="black" points="695.29,-166.4 695.29,-197.2 947.24,-197.2 947.24,-166.4 695.29,-166.4"/>
<text text-anchor="start" x="702.29" y="-178.6" font-family="Arial" font-size="14.00">read_only </text>
<text text-anchor="start" x="767.67" y="-178.6" font-family="Arial" font-size="14.00" fill="#666666">[boolean]</text>
<polygon fill="none" stroke="black" points="695.29,-135.6 695.29,-166.4 947.24,-166.4 947.24,-135.6 695.29,-135.6"/>
<text text-anchor="start" x="702.29" y="-147.8" font-family="Arial" font-size="14.00">subdomain_key </text>
<text text-anchor="start" x="804.24" y="-147.8" font-family="Arial" font-size="14.00" fill="#666666">[text]</text>
<polygon fill="none" stroke="black" points="695.29,-104.8 695.29,-135.6 947.24,-135.6 947.24,-104.8 695.29,-104.8"/>
<text text-anchor="start" x="702.29" y="-117" font-family="Arial" font-size="14.00">superclass_of_key </text>
<text text-anchor="start" x="822.13" y="-117" font-family="Arial" font-size="14.00" fill="#666666">[text]</text>
<polygon fill="none" stroke="black" points="695.29,-74 695.29,-104.8 947.24,-104.8 947.24,-74 695.29,-74"/>
<text text-anchor="start" x="702.29" y="-86.2" font-family="Arial" font-size="14.00">subclass_of_key </text>
<text text-anchor="start" x="809.68" y="-86.2" font-family="Arial" font-size="14.00" fill="#666666">[text]</text>
<polygon fill="none" stroke="black" points="695.29,-43.2 695.29,-74 947.24,-74 947.24,-43.2 695.29,-43.2"/>
<text text-anchor="start" x="702.29" y="-55.4" font-family="Arial" font-size="14.00">uml_comment </text>
<text text-anchor="start" x="794.1" y="-55.4" font-family="Arial" font-size="14.00" fill="#666666">[text]</text>
</g>
<!-- public.use_case_actor&#45;&gt;public.use_case -->
<g id="edge2" class="edge">
<title>public.use_case_actor:model_key&#45;&gt;public.use_case:model_key</title>
<path fill="none" stroke="black" d="M810.09,-649.94C864.9,-640.17 836.38,-549.42 798.72,-496.8 770.39,-457.22 723.7,-500.32 695.29,-460.8 670.85,-426.8 652.42,-366.6 694.29,-366.6"/>
<polygon fill="black" stroke="black" points="810.02,-649.95 799.68,-646.29 804.71,-650.39 800.39,-650.74 800.39,-650.74 800.39,-650.74 804.71,-650.39 800.43,-655.26 810.02,-649.95"/>
<text text-anchor="start" x="806.72" y="-660.8" font-family="Arial" font-size="10.00">FOREIGN KEY (model_key, use_case_key) REFERENCES use_case(model_key, use_case_key) ON DELETE CASCADE</text>
</g>
</g>
</svg>
