<?xml version="1.0" encoding="UTF-8" standalone="no"?>
<!DOCTYPE svg PUBLIC "-//W3C//DTD SVG 1.1//EN"
 "http://www.w3.org/Graphics/SVG/1.1/DTD/svg11.dtd">
<!-- Generated by graphviz version 12.1.2 (20240928.0832)
 -->
<!-- Title: public.data_type_atomic2 Pages: 1 -->
<svg width="1530pt" height="787pt"
 viewBox="0.00 0.00 1530.16 786.80" xmlns="http://www.w3.org/2000/svg" xmlns:xlink="http://www.w3.org/1999/xlink">
<g id="graph0" class="graph" transform="scale(1 1) rotate(0) translate(4 782.8)">
<title>public.data_type_atomic2</title>
<polygon fill="white" stroke="none" points="-4,4 -4,-782.8 1526.16,-782.8 1526.16,4 -4,4"/>
<!-- public.data_type_atomic2 -->
<g id="node1" class="node">
<title>public.data_type_atomic2</title>
<polygon fill="#efefef" stroke="none" points="563.2,-261.8 563.2,-297.4 888.13,-297.4 888.13,-261.8 563.2,-261.8"/>
<polygon fill="none" stroke="black" points="563.2,-261.8 563.2,-297.4 888.13,-297.4 888.13,-261.8 563.2,-261.8"/>
<text text-anchor="start" x="570.2" y="-275.2" font-family="Arial Bold" font-size="18.00">public.data_type_atomic2</text>
<text text-anchor="start" x="756.64" y="-275.2" font-family="Arial" font-size="14.00">    </text>
<text text-anchor="start" x="787.76" y="-275.2" font-family="Arial" font-size="14.00" fill="#666666">[BASE TABLE]</text>
<polygon fill="none" stroke="black" points="563.2,-231 563.2,-261.8 888.13,-261.8 888.13,-231 563.2,-231"/>
<text text-anchor="start" x="570.2" y="-243.2" font-family="Arial" font-size="14.00">data_type_id </text>
<text text-anchor="start" x="654.27" y="-243.2" font-family="Arial" font-size="14.00" fill="#666666">[integer]</text>
<polygon fill="none" stroke="black" points="563.2,-200.2 563.2,-231 888.13,-231 888.13,-200.2 563.2,-200.2"/>
<text text-anchor="start" x="570.2" y="-212.4" font-family="Arial" font-size="14.00">constraint_type </text>
<text text-anchor="start" x="669.03" y="-212.4" font-family="Arial" font-size="14.00" fill="#666666">[constraint_type]</text>
<polygon fill="none" stroke="black" points="563.2,-169.4 563.2,-200.2 888.13,-200.2 888.13,-169.4 563.2,-169.4"/>
<text text-anchor="start" x="570.2" y="-181.6" font-family="Arial" font-size="14.00">reference </text>
<text text-anchor="start" x="633.23" y="-181.6" font-family="Arial" font-size="14.00" fill="#666666">[text]</text>
<polygon fill="none" stroke="black" points="563.2,-138.6 563.2,-169.4 888.13,-169.4 888.13,-138.6 563.2,-138.6"/>
<text text-anchor="start" x="570.2" y="-150.8" font-family="Arial" font-size="14.00">enum_ordered </text>
<text text-anchor="start" x="665.15" y="-150.8" font-family="Arial" font-size="14.00" fill="#666666">[boolean]</text>
<polygon fill="none" stroke="black" points="563.2,-107.8 563.2,-138.6 888.13,-138.6 888.13,-107.8 563.2,-107.8"/>
<text text-anchor="start" x="570.2" y="-120" font-family="Arial" font-size="14.00">object_class_key </text>
<text text-anchor="start" x="680.7" y="-120" font-family="Arial" font-size="14.00" fill="#666666">[text]</text>
<polygon fill="none" stroke="black" points="563.2,-77 563.2,-107.8 888.13,-107.8 888.13,-77 563.2,-77"/>
<text text-anchor="start" x="570.2" y="-89.2" font-family="Arial" font-size="14.00">details </text>
<text text-anchor="start" x="614.56" y="-89.2" font-family="Arial" font-size="14.00" fill="#666666">[text]</text>
<polygon fill="none" stroke="black" points="563.2,-46.2 563.2,-77 888.13,-77 888.13,-46.2 563.2,-46.2"/>
<text text-anchor="start" x="570.2" y="-58.4" font-family="Arial" font-size="14.00">uml_comment </text>
<text text-anchor="start" x="662" y="-58.4" font-family="Arial" font-size="14.00" fill="#666666">[text]</text>
<polygon fill="none" stroke="black" stroke-width="3" points="561.7,-44.7 561.7,-298.9 889.63,-298.9 889.63,-44.7 561.7,-44.7"/>
</g>
<!-- public.data_type_atomic2_span -->
<g id="node2" class="node">
<title>public.data_type_atomic2_span</title>
<polygon fill="#efefef" stroke="none" points="43.2,-700 43.2,-735.6 410.13,-735.6 410.13,-700 43.2,-700"/>
<polygon fill="none" stroke="black" points="43.2,-700 43.2,-735.6 410.13,-735.6 410.13,-700 43.2,-700"/>
<text text-anchor="start" x="50.2" y="-713.4" font-family="Arial Bold" font-size="18.00">public.data_type_atomic2_span</text>
<text text-anchor="start" x="278.64" y="-713.4" font-family="Arial" font-size="14.00">    </text>
<text text-anchor="start" x="309.75" y="-713.4" font-family="Arial" font-size="14.00" fill="#666666">[BASE TABLE]</text>
<polygon fill="none" stroke="black" points="43.2,-669.2 43.2,-700 410.13,-700 410.13,-669.2 43.2,-669.2"/>
<text text-anchor="start" x="50.2" y="-681.4" font-family="Arial" font-size="14.00">data_type_id </text>
<text text-anchor="start" x="134.27" y="-681.4" font-family="Arial" font-size="14.00" fill="#666666">[bigint]</text>
<polygon fill="none" stroke="black" points="43.2,-638.4 43.2,-669.2 410.13,-669.2 410.13,-638.4 43.2,-638.4"/>
<text text-anchor="start" x="50.2" y="-650.6" font-family="Arial" font-size="14.00">lower_type </text>
<text text-anchor="start" x="121.79" y="-650.6" font-family="Arial" font-size="14.00" fill="#666666">[bound_limit_type]</text>
<polygon fill="none" stroke="black" points="43.2,-607.6 43.2,-638.4 410.13,-638.4 410.13,-607.6 43.2,-607.6"/>
<text text-anchor="start" x="50.2" y="-619.8" font-family="Arial" font-size="14.00">lower_value </text>
<text text-anchor="start" x="128.8" y="-619.8" font-family="Arial" font-size="14.00" fill="#666666">[bigint]</text>
<polygon fill="none" stroke="black" points="43.2,-576.8 43.2,-607.6 410.13,-607.6 410.13,-576.8 43.2,-576.8"/>
<text text-anchor="start" x="50.2" y="-589" font-family="Arial" font-size="14.00">lower_denominator </text>
<text text-anchor="start" x="173.16" y="-589" font-family="Arial" font-size="14.00" fill="#666666">[bigint]</text>
<polygon fill="none" stroke="black" points="43.2,-546 43.2,-576.8 410.13,-576.8 410.13,-546 43.2,-546"/>
<text text-anchor="start" x="50.2" y="-558.2" font-family="Arial" font-size="14.00">higher_type </text>
<text text-anchor="start" x="127.25" y="-558.2" font-family="Arial" font-size="14.00" fill="#666666">[bound_limit_type]</text>
<polygon fill="none" stroke="black" points="43.2,-515.2 43.2,-546 410.13,-546 410.13,-515.2 43.2,-515.2"/>
<text text-anchor="start" x="50.2" y="-527.4" font-family="Arial" font-size="14.00">higher_value </text>
<text text-anchor="start" x="134.26" y="-527.4" font-family="Arial" font-size="14.00" fill="#666666">[bigint]</text>
<polygon fill="none" stroke="black" points="43.2,-484.4 43.2,-515.2 410.13,-515.2 410.13,-484.4 43.2,-484.4"/>
<text text-anchor="start" x="50.2" y="-496.6" font-family="Arial" font-size="14.00">higher_denominator </text>
<text text-anchor="start" x="178.62" y="-496.6" font-family="Arial" font-size="14.00" fill="#666666">[bigint]</text>
<polygon fill="none" stroke="black" points="43.2,-453.6 43.2,-484.4 410.13,-484.4 410.13,-453.6 43.2,-453.6"/>
<text text-anchor="start" x="50.2" y="-465.8" font-family="Arial" font-size="14.00">units </text>
<text text-anchor="start" x="83.66" y="-465.8" font-family="Arial" font-size="14.00" fill="#666666">[text]</text>
<polygon fill="none" stroke="black" points="43.2,-422.8 43.2,-453.6 410.13,-453.6 410.13,-422.8 43.2,-422.8"/>
<text text-anchor="start" x="50.2" y="-435" font-family="Arial" font-size="14.00">precision </text>
<text text-anchor="start" x="110.12" y="-435" font-family="Arial" font-size="14.00" fill="#666666">[bigint]</text>
</g>
<!-- public.data_type_atomic2_span&#45;&gt;public.data_type_atomic2 -->
<g id="edge1" class="edge">
<title>public.data_type_atomic2_span:data_type_id&#45;&gt;public.data_type_atomic2:data_type_id</title>
<path fill="none" stroke="black" d="M421.08,-682.64C475.39,-659.59 437.03,-439.46 462.66,-379.6 491.75,-311.66 488.29,-246.4 562.2,-246.4"/>
<polygon fill="black" stroke="black" points="421.27,-682.61 410.59,-680.12 416.03,-683.64 411.78,-684.47 411.78,-684.47 411.78,-684.47 416.03,-683.64 412.32,-688.95 421.27,-682.61"/>
<text text-anchor="start" x="418.13" y="-694.6" font-family="Arial" font-size="10.00">FOREIGN KEY (data_type_id) REFERENCES data_type_atomic2(data_type_id) ON DELETE CASCADE</text>
</g>
<!-- public.data_type_atomic2_enum_value -->
<g id="node3" class="node">
<title>public.data_type_atomic2_enum_value</title>
<polygon fill="#efefef" stroke="none" points="514.71,-607.6 514.71,-643.2 936.61,-643.2 936.61,-607.6 514.71,-607.6"/>
<polygon fill="none" stroke="black" points="514.71,-607.6 514.71,-643.2 936.61,-643.2 936.61,-607.6 514.71,-607.6"/>
<text text-anchor="start" x="521.71" y="-621" font-family="Arial Bold" font-size="18.00">public.data_type_atomic2_enum_value</text>
<text text-anchor="start" x="805.12" y="-621" font-family="Arial" font-size="14.00">    </text>
<text text-anchor="start" x="836.24" y="-621" font-family="Arial" font-size="14.00" fill="#666666">[BASE TABLE]</text>
<polygon fill="none" stroke="black" points="514.71,-576.8 514.71,-607.6 936.61,-607.6 936.61,-576.8 514.71,-576.8"/>
<text text-anchor="start" x="521.71" y="-589" font-family="Arial" font-size="14.00">data_type_id </text>
<text text-anchor="start" x="605.78" y="-589" font-family="Arial" font-size="14.00" fill="#666666">[bigint]</text>
<polygon fill="none" stroke="black" points="514.71,-546 514.71,-576.8 936.61,-576.8 936.61,-546 514.71,-546"/>
<text text-anchor="start" x="521.71" y="-558.2" font-family="Arial" font-size="14.00">value </text>
<text text-anchor="start" x="559.07" y="-558.2" font-family="Arial" font-size="14.00" fill="#666666">[text]</text>
<polygon fill="none" stroke="black" points="514.71,-515.2 514.71,-546 936.61,-546 936.61,-515.2 514.71,-515.2"/>
<text text-anchor="start" x="521.71" y="-527.4" font-family="Arial" font-size="14.00">sort_order </text>
<text text-anchor="start" x="589.41" y="-527.4" font-family="Arial" font-size="14.00" fill="#666666">[integer]</text>
</g>
<!-- public.data_type_atomic2_enum_value&#45;&gt;public.data_type_atomic2 -->
<g id="edge2" class="edge">
<title>public.data_type_atomic2_enum_value:data_type_id&#45;&gt;public.data_type_atomic2:data_type_id</title>
<path fill="none" stroke="black" d="M947.7,-589.99C1010.6,-560.54 963.09,-246.4 889.13,-246.4"/>
<polygon fill="black" stroke="black" points="947.71,-589.99 936.98,-587.73 942.5,-591.13 938.27,-592.06 938.27,-592.06 938.27,-592.06 942.5,-591.13 938.9,-596.52 947.71,-589.99"/>
<text text-anchor="start" x="703.63" y="-576.2" font-family="Arial" font-size="10.00">FOREIGN KEY (data_type_id) REFERENCES data_type_atomic2(data_type_id) ON DELETE CASCADE</text>
</g>
<!-- public.data_type2 -->
<g id="node4" class="node">
<title>public.data_type2</title>
<polygon fill="#efefef" stroke="none" points="1041.19,-669.2 1041.19,-704.8 1308.14,-704.8 1308.14,-669.2 1041.19,-669.2"/>
<polygon fill="none" stroke="black" points="1041.19,-669.2 1041.19,-704.8 1308.14,-704.8 1308.14,-669.2 1041.19,-669.2"/>
<text text-anchor="start" x="1048.19" y="-682.6" font-family="Arial Bold" font-size="18.00">public.data_type2</text>
<text text-anchor="start" x="1176.65" y="-682.6" font-family="Arial" font-size="14.00">    </text>
<text text-anchor="start" x="1207.77" y="-682.6" font-family="Arial" font-size="14.00" fill="#666666">[BASE TABLE]</text>
<polygon fill="none" stroke="black" points="1041.19,-638.4 1041.19,-669.2 1308.14,-669.2 1308.14,-638.4 1041.19,-638.4"/>
<text text-anchor="start" x="1048.19" y="-650.6" font-family="Arial" font-size="14.00">data_type_id </text>
<text text-anchor="start" x="1132.26" y="-650.6" font-family="Arial" font-size="14.00" fill="#666666">[bigint]</text>
<polygon fill="none" stroke="black" points="1041.19,-607.6 1041.19,-638.4 1308.14,-638.4 1308.14,-607.6 1041.19,-607.6"/>
<text text-anchor="start" x="1048.19" y="-619.8" font-family="Arial" font-size="14.00">collection_type </text>
<text text-anchor="start" x="1144.69" y="-619.8" font-family="Arial" font-size="14.00" fill="#666666">[collection_type]</text>
<polygon fill="none" stroke="black" points="1041.19,-576.8 1041.19,-607.6 1308.14,-607.6 1308.14,-576.8 1041.19,-576.8"/>
<text text-anchor="start" x="1048.19" y="-589" font-family="Arial" font-size="14.00">collection_unique </text>
<text text-anchor="start" x="1160.27" y="-589" font-family="Arial" font-size="14.00" fill="#666666">[boolean]</text>
<polygon fill="none" stroke="black" points="1041.19,-546 1041.19,-576.8 1308.14,-576.8 1308.14,-546 1041.19,-546"/>
<text text-anchor="start" x="1048.19" y="-558.2" font-family="Arial" font-size="14.00">collection_min </text>
<text text-anchor="start" x="1140.79" y="-558.2" font-family="Arial" font-size="14.00" fill="#666666">[bigint]</text>
<polygon fill="none" stroke="black" points="1041.19,-515.2 1041.19,-546 1308.14,-546 1308.14,-515.2 1041.19,-515.2"/>
<text text-anchor="start" x="1048.19" y="-527.4" font-family="Arial" font-size="14.00">collection_max </text>
<text text-anchor="start" x="1144.68" y="-527.4" font-family="Arial" font-size="14.00" fill="#666666">[bigint]</text>
<polygon fill="none" stroke="black" points="1041.19,-484.4 1041.19,-515.2 1308.14,-515.2 1308.14,-484.4 1041.19,-484.4"/>
<text text-anchor="start" x="1048.19" y="-496.6" font-family="Arial" font-size="14.00">details </text>
<text text-anchor="start" x="1092.55" y="-496.6" font-family="Arial" font-size="14.00" fill="#666666">[text]</text>
<polygon fill="none" stroke="black" points="1041.19,-453.6 1041.19,-484.4 1308.14,-484.4 1308.14,-453.6 1041.19,-453.6"/>
<text text-anchor="start" x="1048.19" y="-465.8" font-family="Arial" font-size="14.00">uml_comment </text>
<text text-anchor="start" x="1139.99" y="-465.8" font-family="Arial" font-size="14.00" fill="#666666">[text]</text>
</g>
<!-- public.data_type2&#45;&gt;public.data_type_atomic2 -->
<g id="edge3" class="edge">
<title>public.data_type2:data_type_id&#45;&gt;public.data_type_atomic2:data_type_id</title>
<path fill="none" stroke="black" d="M1030.26,-651.64C982.13,-628.87 1012.13,-433.04 988.66,-379.6 958.95,-311.93 963.03,-246.4 889.13,-246.4"/>
<polygon fill="black" stroke="black" points="1030.09,-651.6 1038.9,-658.13 1035.3,-652.74 1039.53,-653.66 1039.53,-653.66 1039.53,-653.66 1035.3,-652.74 1040.82,-649.33 1030.09,-651.6"/>
<text text-anchor="start" x="1047.19" y="-663.8" font-family="Arial" font-size="10.00">FOREIGN KEY (data_type_id) REFERENCES data_type_atomic2(data_type_id) ON DELETE CASCADE</text>
</g>
</g>
</svg>
