<?xml version="1.0" encoding="UTF-8" standalone="no"?>
<!DOCTYPE svg PUBLIC "-//W3C//DTD SVG 1.1//EN"
 "http://www.w3.org/Graphics/SVG/1.1/DTD/svg11.dtd">
<!-- Generated by graphviz version 12.1.2 (20240928.0832)
 -->
<!-- Title: public.action_require Pages: 1 -->
<svg width="1310pt" height="756pt"
 viewBox="0.00 0.00 1309.69 756.00" xmlns="http://www.w3.org/2000/svg" xmlns:xlink="http://www.w3.org/1999/xlink">
<g id="graph0" class="graph" transform="scale(1 1) rotate(0) translate(4 752)">
<title>public.action_require</title>
<polygon fill="white" stroke="none" points="-4,4 -4,-752 1305.69,-752 1305.69,4 -4,4"/>
<!-- public.action_require -->
<g id="node1" class="node">
<title>public.action_require</title>
<polygon fill="#efefef" stroke="none" points="495.7,-666.2 495.7,-701.8 787.63,-701.8 787.63,-666.2 495.7,-666.2"/>
<polygon fill="none" stroke="black" points="495.7,-666.2 495.7,-701.8 787.63,-701.8 787.63,-666.2 495.7,-666.2"/>
<text text-anchor="start" x="502.7" y="-679.6" font-family="Arial Bold" font-size="18.00">public.action_require</text>
<text text-anchor="start" x="656.14" y="-679.6" font-family="Arial" font-size="14.00">    </text>
<text text-anchor="start" x="687.26" y="-679.6" font-family="Arial" font-size="14.00" fill="#666666">[BASE TABLE]</text>
<polygon fill="none" stroke="black" points="495.7,-635.4 495.7,-666.2 787.63,-666.2 787.63,-635.4 495.7,-635.4"/>
<text text-anchor="start" x="502.7" y="-647.6" font-family="Arial" font-size="14.00">model_key </text>
<text text-anchor="start" x="574.3" y="-647.6" font-family="Arial" font-size="14.00" fill="#666666">[text]</text>
<polygon fill="none" stroke="black" points="495.7,-604.6 495.7,-635.4 787.63,-635.4 787.63,-604.6 495.7,-604.6"/>
<text text-anchor="start" x="502.7" y="-616.8" font-family="Arial" font-size="14.00">action_key </text>
<text text-anchor="start" x="573.52" y="-616.8" font-family="Arial" font-size="14.00" fill="#666666">[text]</text>
<polygon fill="none" stroke="black" points="495.7,-573.8 495.7,-604.6 787.63,-604.6 787.63,-573.8 495.7,-573.8"/>
<text text-anchor="start" x="502.7" y="-586" font-family="Arial" font-size="14.00">logic_key </text>
<text text-anchor="start" x="564.96" y="-586" font-family="Arial" font-size="14.00" fill="#666666">[text]</text>
<polygon fill="none" stroke="black" stroke-width="3" points="494.2,-572.3 494.2,-703.3 789.13,-703.3 789.13,-572.3 494.2,-572.3"/>
</g>
<!-- public.logic -->
<g id="node2" class="node">
<title>public.logic</title>
<polygon fill="#efefef" stroke="none" points="348.88,-412.8 348.88,-448.4 592.46,-448.4 592.46,-412.8 348.88,-412.8"/>
<polygon fill="none" stroke="black" points="348.88,-412.8 348.88,-448.4 592.46,-448.4 592.46,-412.8 348.88,-412.8"/>
<text text-anchor="start" x="365.68" y="-426.2" font-family="Arial Bold" font-size="18.00">public.logic</text>
<text text-anchor="start" x="451.16" y="-426.2" font-family="Arial" font-size="14.00">    </text>
<text text-anchor="start" x="482.28" y="-426.2" font-family="Arial" font-size="14.00" fill="#666666">[BASE TABLE]</text>
<polygon fill="none" stroke="black" points="348.88,-382 348.88,-412.8 592.46,-412.8 592.46,-382 348.88,-382"/>
<text text-anchor="start" x="355.88" y="-394.2" font-family="Arial" font-size="14.00">logic_key </text>
<text text-anchor="start" x="418.13" y="-394.2" font-family="Arial" font-size="14.00" fill="#666666">[text]</text>
<polygon fill="none" stroke="black" points="348.88,-351.2 348.88,-382 592.46,-382 592.46,-351.2 348.88,-351.2"/>
<text text-anchor="start" x="355.88" y="-363.4" font-family="Arial" font-size="14.00">model_key </text>
<text text-anchor="start" x="427.47" y="-363.4" font-family="Arial" font-size="14.00" fill="#666666">[text]</text>
<polygon fill="none" stroke="black" points="348.88,-320.4 348.88,-351.2 592.46,-351.2 592.46,-320.4 348.88,-320.4"/>
<text text-anchor="start" x="355.88" y="-332.6" font-family="Arial" font-size="14.00">sort_order </text>
<text text-anchor="start" x="423.57" y="-332.6" font-family="Arial" font-size="14.00" fill="#666666">[integer]</text>
<polygon fill="none" stroke="black" points="348.88,-289.6 348.88,-320.4 592.46,-320.4 592.46,-289.6 348.88,-289.6"/>
<text text-anchor="start" x="355.88" y="-301.8" font-family="Arial" font-size="14.00">logic_type </text>
<text text-anchor="start" x="422.81" y="-301.8" font-family="Arial" font-size="14.00" fill="#666666">[logic_type]</text>
<polygon fill="none" stroke="black" points="348.88,-258.8 348.88,-289.6 592.46,-289.6 592.46,-258.8 348.88,-258.8"/>
<text text-anchor="start" x="355.88" y="-271" font-family="Arial" font-size="14.00">description </text>
<text text-anchor="start" x="427.47" y="-271" font-family="Arial" font-size="14.00" fill="#666666">[text]</text>
<polygon fill="none" stroke="black" points="348.88,-228 348.88,-258.8 592.46,-258.8 592.46,-228 348.88,-228"/>
<text text-anchor="start" x="355.88" y="-240.2" font-family="Arial" font-size="14.00">target </text>
<text text-anchor="start" x="395.56" y="-240.2" font-family="Arial" font-size="14.00" fill="#666666">[text]</text>
<polygon fill="none" stroke="black" points="348.88,-197.2 348.88,-228 592.46,-228 592.46,-197.2 348.88,-197.2"/>
<text text-anchor="start" x="355.88" y="-209.4" font-family="Arial" font-size="14.00">notation </text>
<text text-anchor="start" x="409.58" y="-209.4" font-family="Arial" font-size="14.00" fill="#666666">[notation]</text>
<polygon fill="none" stroke="black" points="348.88,-166.4 348.88,-197.2 592.46,-197.2 592.46,-166.4 348.88,-166.4"/>
<text text-anchor="start" x="355.88" y="-178.6" font-family="Arial" font-size="14.00">specification </text>
<text text-anchor="start" x="436.81" y="-178.6" font-family="Arial" font-size="14.00" fill="#666666">[text]</text>
<polygon fill="none" stroke="black" points="348.88,-135.6 348.88,-166.4 592.46,-166.4 592.46,-135.6 348.88,-135.6"/>
<text text-anchor="start" x="355.88" y="-147.8" font-family="Arial" font-size="14.00">target_type_notation </text>
<text text-anchor="start" x="487.42" y="-147.8" font-family="Arial" font-size="14.00" fill="#666666">[notation]</text>
<polygon fill="none" stroke="black" points="348.88,-104.8 348.88,-135.6 592.46,-135.6 592.46,-104.8 348.88,-104.8"/>
<text text-anchor="start" x="355.88" y="-117" font-family="Arial" font-size="14.00">target_type_specification </text>
<text text-anchor="start" x="514.64" y="-117" font-family="Arial" font-size="14.00" fill="#666666">[text]</text>
<polygon fill="none" stroke="black" points="348.88,-74 348.88,-104.8 592.46,-104.8 592.46,-74 348.88,-74"/>
<text text-anchor="start" x="355.88" y="-86.2" font-family="Arial" font-size="14.00">destroy_event_specification </text>
<text text-anchor="start" x="532.54" y="-86.2" font-family="Arial" font-size="14.00" fill="#666666">[text]</text>
<polygon fill="none" stroke="black" points="348.88,-43.2 348.88,-74 592.46,-74 592.46,-43.2 348.88,-43.2"/>
<text text-anchor="start" x="355.88" y="-55.4" font-family="Arial" font-size="14.00">endpoint_selector_specification </text>
<text text-anchor="start" x="555.12" y="-55.4" font-family="Arial" font-size="14.00" fill="#666666">[text]</text>
</g>
<!-- public.action_require&#45;&gt;public.logic -->
<g id="edge1" class="edge">
<title>public.action_require:model_key&#45;&gt;public.logic:model_key</title>
<path fill="none" stroke="black" d="M484.56,-649.74C443.31,-640.24 466.42,-569.37 495.7,-527.6 522.04,-490.03 566.13,-529.17 592.46,-491.6 624.35,-446.1 649.02,-366.6 593.46,-366.6"/>
<polygon fill="black" stroke="black" points="484.42,-649.72 493.9,-655.24 489.73,-650.28 494.04,-650.73 494.04,-650.73 494.04,-650.73 489.73,-650.28 494.84,-646.29 484.42,-649.72"/>
<text text-anchor="start" x="7" y="-660.8" font-family="Arial" font-size="10.00">FOREIGN KEY (model_key, logic_key) REFERENCES logic(model_key, logic_key) ON DELETE CASCADE</text>
</g>
<!-- public.action -->
<g id="node3" class="node">
<title>public.action</title>
<polygon fill="#efefef" stroke="none" points="696.69,-305 696.69,-340.6 928.65,-340.6 928.65,-305 696.69,-305"/>
<polygon fill="none" stroke="black" points="696.69,-305 696.69,-340.6 928.65,-340.6 928.65,-305 696.69,-305"/>
<text text-anchor="start" x="703.69" y="-318.4" font-family="Arial Bold" font-size="18.00">public.action</text>
<text text-anchor="start" x="797.16" y="-318.4" font-family="Arial" font-size="14.00">    </text>
<text text-anchor="start" x="828.28" y="-318.4" font-family="Arial" font-size="14.00" fill="#666666">[BASE TABLE]</text>
<polygon fill="none" stroke="black" points="696.69,-274.2 696.69,-305 928.65,-305 928.65,-274.2 696.69,-274.2"/>
<text text-anchor="start" x="703.69" y="-286.4" font-family="Arial" font-size="14.00">model_key </text>
<text text-anchor="start" x="775.28" y="-286.4" font-family="Arial" font-size="14.00" fill="#666666">[text]</text>
<polygon fill="none" stroke="black" points="696.69,-243.4 696.69,-274.2 928.65,-274.2 928.65,-243.4 696.69,-243.4"/>
<text text-anchor="start" x="703.69" y="-255.6" font-family="Arial" font-size="14.00">class_key </text>
<text text-anchor="start" x="769.05" y="-255.6" font-family="Arial" font-size="14.00" fill="#666666">[text]</text>
<polygon fill="none" stroke="black" points="696.69,-212.6 696.69,-243.4 928.65,-243.4 928.65,-212.6 696.69,-212.6"/>
<text text-anchor="start" x="703.69" y="-224.8" font-family="Arial" font-size="14.00">action_key </text>
<text text-anchor="start" x="774.51" y="-224.8" font-family="Arial" font-size="14.00" fill="#666666">[text]</text>
<polygon fill="none" stroke="black" points="696.69,-181.8 696.69,-212.6 928.65,-212.6 928.65,-181.8 696.69,-181.8"/>
<text text-anchor="start" x="703.69" y="-194" font-family="Arial" font-size="14.00">name </text>
<text text-anchor="start" x="742.6" y="-194" font-family="Arial" font-size="14.00" fill="#666666">[text]</text>
<polygon fill="none" stroke="black" points="696.69,-151 696.69,-181.8 928.65,-181.8 928.65,-151 696.69,-151"/>
<text text-anchor="start" x="703.69" y="-163.2" font-family="Arial" font-size="14.00">details </text>
<text text-anchor="start" x="748.05" y="-163.2" font-family="Arial" font-size="14.00" fill="#666666">[text]</text>
</g>
<!-- public.action_require&#45;&gt;public.action -->
<g id="edge2" class="edge">
<title>public.action_require:model_key&#45;&gt;public.action:model_key</title>
<path fill="none" stroke="black" d="M798.81,-649.78C837.84,-640.95 801.99,-576.44 787.63,-527.6 766.3,-455.05 718.11,-456.32 696.69,-383.8 684.82,-343.65 653.82,-289.6 695.69,-289.6"/>
<polygon fill="black" stroke="black" points="798.92,-649.77 788.52,-646.29 793.61,-650.3 789.3,-650.73 789.3,-650.73 789.3,-650.73 793.61,-650.3 789.41,-655.24 798.92,-649.77"/>
<text text-anchor="start" x="795.63" y="-660.8" font-family="Arial" font-size="10.00">FOREIGN KEY (model_key, action_key) REFERENCES action(model_key, action_key) ON DELETE CASCADE</text>
</g>
</g>
</svg>
