<?xml version="1.0" encoding="UTF-8" standalone="no"?>
<!DOCTYPE svg PUBLIC "-//W3C//DTD SVG 1.1//EN"
 "http://www.w3.org/Graphics/SVG/1.1/DTD/svg11.dtd">
<!-- Generated by graphviz version 12.1.2 (20240928.0832)
 -->
<!-- Title: public.actor Pages: 1 -->
<svg width="1316pt" height="1284pt"
 viewBox="0.00 0.00 1316.00 1283.60" xmlns="http://www.w3.org/2000/svg" xmlns:xlink="http://www.w3.org/1999/xlink">
<g id="graph0" class="graph" transform="scale(1 1) rotate(0) translate(4 1279.6)">
<title>public.actor</title>
<polygon fill="white" stroke="none" points="-4,4 -4,-1279.6 1312,-1279.6 1312,4 -4,4"/>
<!-- public.actor -->
<g id="node1" class="node">
<title>public.actor</title>
<polygon fill="#efefef" stroke="none" points="435.71,-727.8 435.71,-763.4 659.66,-763.4 659.66,-727.8 435.71,-727.8"/>
<polygon fill="none" stroke="black" points="435.71,-727.8 435.71,-763.4 659.66,-763.4 659.66,-727.8 435.71,-727.8"/>
<text text-anchor="start" x="442.71" y="-741.2" font-family="Arial Bold" font-size="18.00">public.actor</text>
<text text-anchor="start" x="528.17" y="-741.2" font-family="Arial" font-size="14.00">    </text>
<text text-anchor="start" x="559.29" y="-741.2" font-family="Arial" font-size="14.00" fill="#666666">[BASE TABLE]</text>
<polygon fill="none" stroke="black" points="435.71,-697 435.71,-727.8 659.66,-727.8 659.66,-697 435.71,-697"/>
<text text-anchor="start" x="442.71" y="-709.2" font-family="Arial" font-size="14.00">model_key </text>
<text text-anchor="start" x="514.3" y="-709.2" font-family="Arial" font-size="14.00" fill="#666666">[text]</text>
<polygon fill="none" stroke="black" points="435.71,-666.2 435.71,-697 659.66,-697 659.66,-666.2 435.71,-666.2"/>
<text text-anchor="start" x="442.71" y="-678.4" font-family="Arial" font-size="14.00">actor_key </text>
<text text-anchor="start" x="507.29" y="-678.4" font-family="Arial" font-size="14.00" fill="#666666">[text]</text>
<polygon fill="none" stroke="black" points="435.71,-635.4 435.71,-666.2 659.66,-666.2 659.66,-635.4 435.71,-635.4"/>
<text text-anchor="start" x="442.71" y="-647.6" font-family="Arial" font-size="14.00">name </text>
<text text-anchor="start" x="481.62" y="-647.6" font-family="Arial" font-size="14.00" fill="#666666">[text]</text>
<polygon fill="none" stroke="black" points="435.71,-604.6 435.71,-635.4 659.66,-635.4 659.66,-604.6 435.71,-604.6"/>
<text text-anchor="start" x="442.71" y="-616.8" font-family="Arial" font-size="14.00">details </text>
<text text-anchor="start" x="487.07" y="-616.8" font-family="Arial" font-size="14.00" fill="#666666">[text]</text>
<polygon fill="none" stroke="black" points="435.71,-573.8 435.71,-604.6 659.66,-604.6 659.66,-573.8 435.71,-573.8"/>
<text text-anchor="start" x="442.71" y="-586" font-family="Arial" font-size="14.00">unfinished_notes </text>
<text text-anchor="start" x="552.46" y="-586" font-family="Arial" font-size="14.00" fill="#666666">[text]</text>
<polygon fill="none" stroke="black" points="435.71,-543 435.71,-573.8 659.66,-573.8 659.66,-543 435.71,-543"/>
<text text-anchor="start" x="442.71" y="-555.2" font-family="Arial" font-size="14.00">actor_type </text>
<text text-anchor="start" x="511.97" y="-555.2" font-family="Arial" font-size="14.00" fill="#666666">[actor_type]</text>
<polygon fill="none" stroke="black" points="435.71,-512.2 435.71,-543 659.66,-543 659.66,-512.2 435.71,-512.2"/>
<text text-anchor="start" x="442.71" y="-524.4" font-family="Arial" font-size="14.00">superclass_of_key </text>
<text text-anchor="start" x="562.55" y="-524.4" font-family="Arial" font-size="14.00" fill="#666666">[text]</text>
<polygon fill="none" stroke="black" points="435.71,-481.4 435.71,-512.2 659.66,-512.2 659.66,-481.4 435.71,-481.4"/>
<text text-anchor="start" x="442.71" y="-493.6" font-family="Arial" font-size="14.00">subclass_of_key </text>
<text text-anchor="start" x="550.1" y="-493.6" font-family="Arial" font-size="14.00" fill="#666666">[text]</text>
<polygon fill="none" stroke="black" points="435.71,-450.6 435.71,-481.4 659.66,-481.4 659.66,-450.6 435.71,-450.6"/>
<text text-anchor="start" x="442.71" y="-462.8" font-family="Arial" font-size="14.00">uml_comment </text>
<text text-anchor="start" x="534.52" y="-462.8" font-family="Arial" font-size="14.00" fill="#666666">[text]</text>
<polygon fill="none" stroke="black" stroke-width="3" points="434.21,-449.1 434.21,-764.9 661.16,-764.9 661.16,-449.1 434.21,-449.1"/>
</g>
<!-- public.model -->
<g id="node2" class="node">
<title>public.model</title>
<polygon fill="#efefef" stroke="none" points="43.2,-228 43.2,-263.6 276.17,-263.6 276.17,-228 43.2,-228"/>
<polygon fill="none" stroke="black" points="43.2,-228 43.2,-263.6 276.17,-263.6 276.17,-228 43.2,-228"/>
<text text-anchor="start" x="50.2" y="-241.4" font-family="Arial Bold" font-size="18.00">public.model</text>
<text text-anchor="start" x="144.68" y="-241.4" font-family="Arial" font-size="14.00">    </text>
<text text-anchor="start" x="175.8" y="-241.4" font-family="Arial" font-size="14.00" fill="#666666">[BASE TABLE]</text>
<polygon fill="none" stroke="black" points="43.2,-197.2 43.2,-228 276.17,-228 276.17,-197.2 43.2,-197.2"/>
<text text-anchor="start" x="50.2" y="-209.4" font-family="Arial" font-size="14.00">model_key </text>
<text text-anchor="start" x="121.79" y="-209.4" font-family="Arial" font-size="14.00" fill="#666666">[text]</text>
<polygon fill="none" stroke="black" points="43.2,-166.4 43.2,-197.2 276.17,-197.2 276.17,-166.4 43.2,-166.4"/>
<text text-anchor="start" x="50.2" y="-178.6" font-family="Arial" font-size="14.00">name </text>
<text text-anchor="start" x="89.11" y="-178.6" font-family="Arial" font-size="14.00" fill="#666666">[text]</text>
<polygon fill="none" stroke="black" points="43.2,-135.6 43.2,-166.4 276.17,-166.4 276.17,-135.6 43.2,-135.6"/>
<text text-anchor="start" x="50.2" y="-147.8" font-family="Arial" font-size="14.00">details </text>
<text text-anchor="start" x="94.56" y="-147.8" font-family="Arial" font-size="14.00" fill="#666666">[text]</text>
<polygon fill="none" stroke="black" points="43.2,-104.8 43.2,-135.6 276.17,-135.6 276.17,-104.8 43.2,-104.8"/>
<text text-anchor="start" x="50.2" y="-117" font-family="Arial" font-size="14.00">unfinished_notes </text>
<text text-anchor="start" x="159.95" y="-117" font-family="Arial" font-size="14.00" fill="#666666">[text]</text>
</g>
<!-- public.actor&#45;&gt;public.model -->
<g id="edge1" class="edge">
<title>public.actor:model_key&#45;&gt;public.model:model_key</title>
<path fill="none" stroke="black" d="M430.49,-703.3C405.4,-635.56 283.87,-212.6 277.17,-212.6"/>
<polygon fill="black" stroke="black" points="430.36,-703.02 430.49,-713.99 432.61,-707.86 434.43,-711.79 434.43,-711.79 434.43,-711.79 432.61,-707.86 438.65,-710.2 430.36,-703.02"/>
<text text-anchor="start" x="34.83" y="-722.4" font-family="Arial" font-size="10.00">FOREIGN KEY (model_key) REFERENCES model(model_key) ON DELETE CASCADE</text>
</g>
<!-- public.actor_generalization -->
<g id="node3" class="node">
<title>public.actor_generalization</title>
<polygon fill="#efefef" stroke="none" points="380.24,-289.6 380.24,-325.2 715.14,-325.2 715.14,-289.6 380.24,-289.6"/>
<polygon fill="none" stroke="black" points="380.24,-289.6 380.24,-325.2 715.14,-325.2 715.14,-289.6 380.24,-289.6"/>
<text text-anchor="start" x="387.24" y="-303" font-family="Arial Bold" font-size="18.00">public.actor_generalization</text>
<text text-anchor="start" x="583.65" y="-303" font-family="Arial" font-size="14.00">    </text>
<text text-anchor="start" x="614.76" y="-303" font-family="Arial" font-size="14.00" fill="#666666">[BASE TABLE]</text>
<polygon fill="none" stroke="black" points="380.24,-258.8 380.24,-289.6 715.14,-289.6 715.14,-258.8 380.24,-258.8"/>
<text text-anchor="start" x="387.24" y="-271" font-family="Arial" font-size="14.00">model_key </text>
<text text-anchor="start" x="458.83" y="-271" font-family="Arial" font-size="14.00" fill="#666666">[text]</text>
<polygon fill="none" stroke="black" points="380.24,-228 380.24,-258.8 715.14,-258.8 715.14,-228 380.24,-228"/>
<text text-anchor="start" x="387.24" y="-240.2" font-family="Arial" font-size="14.00">generalization_key </text>
<text text-anchor="start" x="507.87" y="-240.2" font-family="Arial" font-size="14.00" fill="#666666">[text]</text>
<polygon fill="none" stroke="black" points="380.24,-197.2 380.24,-228 715.14,-228 715.14,-197.2 380.24,-197.2"/>
<text text-anchor="start" x="387.24" y="-209.4" font-family="Arial" font-size="14.00">name </text>
<text text-anchor="start" x="426.15" y="-209.4" font-family="Arial" font-size="14.00" fill="#666666">[text]</text>
<polygon fill="none" stroke="black" points="380.24,-166.4 380.24,-197.2 715.14,-197.2 715.14,-166.4 380.24,-166.4"/>
<text text-anchor="start" x="387.24" y="-178.6" font-family="Arial" font-size="14.00">is_complete </text>
<text text-anchor="start" x="465.83" y="-178.6" font-family="Arial" font-size="14.00" fill="#666666">[boolean]</text>
<polygon fill="none" stroke="black" points="380.24,-135.6 380.24,-166.4 715.14,-166.4 715.14,-135.6 380.24,-135.6"/>
<text text-anchor="start" x="387.24" y="-147.8" font-family="Arial" font-size="14.00">is_static </text>
<text text-anchor="start" x="441.7" y="-147.8" font-family="Arial" font-size="14.00" fill="#666666">[boolean]</text>
<polygon fill="none" stroke="black" points="380.24,-104.8 380.24,-135.6 715.14,-135.6 715.14,-104.8 380.24,-104.8"/>
<text text-anchor="start" x="387.24" y="-117" font-family="Arial" font-size="14.00">details </text>
<text text-anchor="start" x="431.6" y="-117" font-family="Arial" font-size="14.00" fill="#666666">[text]</text>
<polygon fill="none" stroke="black" points="380.24,-74 380.24,-104.8 715.14,-104.8 715.14,-74 380.24,-74"/>
<text text-anchor="start" x="387.24" y="-86.2" font-family="Arial" font-size="14.00">unfinished_notes </text>
<text text-anchor="start" x="496.99" y="-86.2" font-family="Arial" font-size="14.00" fill="#666666">[text]</text>
<polygon fill="none" stroke="black" points="380.24,-43.2 380.24,-74 715.14,-74 715.14,-43.2 380.24,-43.2"/>
<text text-anchor="start" x="387.24" y="-55.4" font-family="Arial" font-size="14.00">uml_comment </text>
<text text-anchor="start" x="479.04" y="-55.4" font-family="Arial" font-size="14.00" fill="#666666">[text]</text>
</g>
<!-- public.actor&#45;&gt;public.actor_generalization -->
<g id="edge2" class="edge">
<title>public.actor:model_key&#45;&gt;public.actor_generalization:model_key</title>
<path fill="none" stroke="black" d="M670.7,-710.54C753.83,-679.66 801.89,-274.2 716.14,-274.2"/>
<polygon fill="black" stroke="black" points="670.82,-710.52 660.17,-707.91 665.58,-711.49 661.32,-712.28 661.32,-712.28 661.32,-712.28 665.58,-711.49 661.81,-716.76 670.82,-710.52"/>
<text text-anchor="start" x="667.66" y="-722.4" font-family="Arial" font-size="10.00">FOREIGN KEY (model_key, subclass_of_key) REFERENCES actor_generalization(model_key, generalization_key) ON DELETE CASCADE</text>
</g>
<!-- public.actor&#45;&gt;public.actor_generalization -->
<g id="edge3" class="edge">
<title>public.actor:model_key&#45;&gt;public.actor_generalization:model_key</title>
<path fill="none" stroke="black" d="M671.14,-710.99C771.21,-683.86 819.64,-275.03 716.45,-274.2"/>
<polygon fill="black" stroke="black" points="671.21,-710.98 660.69,-707.9 665.93,-711.71 661.64,-712.31 661.64,-712.31 661.64,-712.31 665.93,-711.71 661.93,-716.81 671.21,-710.98"/>
<text text-anchor="start" x="667.98" y="-696.4" font-family="Arial" font-size="10.00">FOREIGN KEY (model_key, superclass_of_key) REFERENCES actor_generalization(model_key, generalization_key) ON DELETE CASCADE</text>
</g>
<!-- public.class -->
<g id="node4" class="node">
<title>public.class</title>
<polygon fill="#efefef" stroke="none" points="436.2,-1196.8 436.2,-1232.4 659.17,-1232.4 659.17,-1196.8 436.2,-1196.8"/>
<polygon fill="none" stroke="black" points="436.2,-1196.8 436.2,-1232.4 659.17,-1232.4 659.17,-1196.8 436.2,-1196.8"/>
<text text-anchor="start" x="443.2" y="-1210.2" font-family="Arial Bold" font-size="18.00">public.class</text>
<text text-anchor="start" x="527.68" y="-1210.2" font-family="Arial" font-size="14.00">    </text>
<text text-anchor="start" x="558.8" y="-1210.2" font-family="Arial" font-size="14.00" fill="#666666">[BASE TABLE]</text>
<polygon fill="none" stroke="black" points="436.2,-1166 436.2,-1196.8 659.17,-1196.8 659.17,-1166 436.2,-1166"/>
<text text-anchor="start" x="443.2" y="-1178.2" font-family="Arial" font-size="14.00">model_key </text>
<text text-anchor="start" x="514.79" y="-1178.2" font-family="Arial" font-size="14.00" fill="#666666">[text]</text>
<polygon fill="none" stroke="black" points="436.2,-1135.2 436.2,-1166 659.17,-1166 659.17,-1135.2 436.2,-1135.2"/>
<text text-anchor="start" x="443.2" y="-1147.4" font-family="Arial" font-size="14.00">class_key </text>
<text text-anchor="start" x="508.56" y="-1147.4" font-family="Arial" font-size="14.00" fill="#666666">[text]</text>
<polygon fill="none" stroke="black" points="436.2,-1104.4 436.2,-1135.2 659.17,-1135.2 659.17,-1104.4 436.2,-1104.4"/>
<text text-anchor="start" x="443.2" y="-1116.6" font-family="Arial" font-size="14.00">name </text>
<text text-anchor="start" x="482.11" y="-1116.6" font-family="Arial" font-size="14.00" fill="#666666">[text]</text>
<polygon fill="none" stroke="black" points="436.2,-1073.6 436.2,-1104.4 659.17,-1104.4 659.17,-1073.6 436.2,-1073.6"/>
<text text-anchor="start" x="443.2" y="-1085.8" font-family="Arial" font-size="14.00">subdomain_key </text>
<text text-anchor="start" x="545.15" y="-1085.8" font-family="Arial" font-size="14.00" fill="#666666">[text]</text>
<polygon fill="none" stroke="black" points="436.2,-1042.8 436.2,-1073.6 659.17,-1073.6 659.17,-1042.8 436.2,-1042.8"/>
<text text-anchor="start" x="443.2" y="-1055" font-family="Arial" font-size="14.00">actor_key </text>
<text text-anchor="start" x="507.79" y="-1055" font-family="Arial" font-size="14.00" fill="#666666">[text]</text>
<polygon fill="none" stroke="black" points="436.2,-1012 436.2,-1042.8 659.17,-1042.8 659.17,-1012 436.2,-1012"/>
<text text-anchor="start" x="443.2" y="-1024.2" font-family="Arial" font-size="14.00">superclass_of_key </text>
<text text-anchor="start" x="563.04" y="-1024.2" font-family="Arial" font-size="14.00" fill="#666666">[text]</text>
<polygon fill="none" stroke="black" points="436.2,-981.2 436.2,-1012 659.17,-1012 659.17,-981.2 436.2,-981.2"/>
<text text-anchor="start" x="443.2" y="-993.4" font-family="Arial" font-size="14.00">subclass_of_key </text>
<text text-anchor="start" x="550.59" y="-993.4" font-family="Arial" font-size="14.00" fill="#666666">[text]</text>
<polygon fill="none" stroke="black" points="436.2,-950.4 436.2,-981.2 659.17,-981.2 659.17,-950.4 436.2,-950.4"/>
<text text-anchor="start" x="443.2" y="-962.6" font-family="Arial" font-size="14.00">details </text>
<text text-anchor="start" x="487.56" y="-962.6" font-family="Arial" font-size="14.00" fill="#666666">[text]</text>
<polygon fill="none" stroke="black" points="436.2,-919.6 436.2,-950.4 659.17,-950.4 659.17,-919.6 436.2,-919.6"/>
<text text-anchor="start" x="443.2" y="-931.8" font-family="Arial" font-size="14.00">unfinished_notes </text>
<text text-anchor="start" x="552.95" y="-931.8" font-family="Arial" font-size="14.00" fill="#666666">[text]</text>
<polygon fill="none" stroke="black" points="436.2,-888.8 436.2,-919.6 659.17,-919.6 659.17,-888.8 436.2,-888.8"/>
<text text-anchor="start" x="443.2" y="-901" font-family="Arial" font-size="14.00">uml_comment </text>
<text text-anchor="start" x="535.01" y="-901" font-family="Arial" font-size="14.00" fill="#666666">[text]</text>
</g>
<!-- public.class&#45;&gt;public.actor -->
<g id="edge4" class="edge">
<title>public.class:model_key&#45;&gt;public.actor:model_key</title>
<path fill="none" stroke="black" d="M670.21,-1179.88C764.31,-1150.77 761.42,-712.4 660.66,-712.4"/>
<polygon fill="black" stroke="black" points="670.39,-1179.86 659.83,-1176.9 665.11,-1180.65 660.83,-1181.3 660.83,-1181.3 660.83,-1181.3 665.11,-1180.65 661.17,-1185.8 670.39,-1179.86"/>
<text text-anchor="start" x="667.17" y="-1191.4" font-family="Arial" font-size="10.00">FOREIGN KEY (model_key, actor_key) REFERENCES actor(model_key, actor_key) ON DELETE CASCADE</text>
</g>
</g>
</svg>
