<?xml version="1.0" encoding="UTF-8" standalone="no"?>
<!DOCTYPE svg PUBLIC "-//W3C//DTD SVG 1.1//EN"
 "http://www.w3.org/Graphics/SVG/1.1/DTD/svg11.dtd">
<!-- Generated by graphviz version 12.1.2 (20240928.0832)
 -->
<!-- Title: public.attribute Pages: 1 -->
<svg width="1371pt" height="1191pt"
 viewBox="0.00 0.00 1371.36 1191.20" xmlns="http://www.w3.org/2000/svg" xmlns:xlink="http://www.w3.org/1999/xlink">
<g id="graph0" class="graph" transform="scale(1 1) rotate(0) translate(4 1187.2)">
<title>public.attribute</title>
<polygon fill="white" stroke="none" points="-4,4 -4,-1187.2 1367.36,-1187.2 1367.36,4 -4,4"/>
<!-- public.attribute -->
<g id="node1" class="node">
<title>public.attribute</title>
<polygon fill="#efefef" stroke="none" points="549.62,-820.2 549.62,-855.8 797.58,-855.8 797.58,-820.2 549.62,-820.2"/>
<polygon fill="none" stroke="black" points="549.62,-820.2 549.62,-855.8 797.58,-855.8 797.58,-820.2 549.62,-820.2"/>
<text text-anchor="start" x="556.62" y="-833.6" font-family="Arial Bold" font-size="18.00">public.attribute</text>
<text text-anchor="start" x="666.09" y="-833.6" font-family="Arial" font-size="14.00">    </text>
<text text-anchor="start" x="697.21" y="-833.6" font-family="Arial" font-size="14.00" fill="#666666">[BASE TABLE]</text>
<polygon fill="none" stroke="black" points="549.62,-789.4 549.62,-820.2 797.58,-820.2 797.58,-789.4 549.62,-789.4"/>
<text text-anchor="start" x="556.62" y="-801.6" font-family="Arial" font-size="14.00">model_key </text>
<text text-anchor="start" x="628.22" y="-801.6" font-family="Arial" font-size="14.00" fill="#666666">[text]</text>
<polygon fill="none" stroke="black" points="549.62,-758.6 549.62,-789.4 797.58,-789.4 797.58,-758.6 549.62,-758.6"/>
<text text-anchor="start" x="556.62" y="-770.8" font-family="Arial" font-size="14.00">attribute_key </text>
<text text-anchor="start" x="640.67" y="-770.8" font-family="Arial" font-size="14.00" fill="#666666">[text]</text>
<polygon fill="none" stroke="black" points="549.62,-727.8 549.62,-758.6 797.58,-758.6 797.58,-727.8 549.62,-727.8"/>
<text text-anchor="start" x="556.62" y="-740" font-family="Arial" font-size="14.00">class_key </text>
<text text-anchor="start" x="621.98" y="-740" font-family="Arial" font-size="14.00" fill="#666666">[text]</text>
<polygon fill="none" stroke="black" points="549.62,-697 549.62,-727.8 797.58,-727.8 797.58,-697 549.62,-697"/>
<text text-anchor="start" x="556.62" y="-709.2" font-family="Arial" font-size="14.00">name </text>
<text text-anchor="start" x="595.53" y="-709.2" font-family="Arial" font-size="14.00" fill="#666666">[text]</text>
<polygon fill="none" stroke="black" points="549.62,-666.2 549.62,-697 797.58,-697 797.58,-666.2 549.62,-666.2"/>
<text text-anchor="start" x="556.62" y="-678.4" font-family="Arial" font-size="14.00">details </text>
<text text-anchor="start" x="600.98" y="-678.4" font-family="Arial" font-size="14.00" fill="#666666">[text]</text>
<polygon fill="none" stroke="black" points="549.62,-635.4 549.62,-666.2 797.58,-666.2 797.58,-635.4 549.62,-635.4"/>
<text text-anchor="start" x="556.62" y="-647.6" font-family="Arial" font-size="14.00">data_type_rules </text>
<text text-anchor="start" x="660.14" y="-647.6" font-family="Arial" font-size="14.00" fill="#666666">[text]</text>
<polygon fill="none" stroke="black" points="549.62,-604.6 549.62,-635.4 797.58,-635.4 797.58,-604.6 549.62,-604.6"/>
<text text-anchor="start" x="556.62" y="-616.8" font-family="Arial" font-size="14.00">data_type_key </text>
<text text-anchor="start" x="651.58" y="-616.8" font-family="Arial" font-size="14.00" fill="#666666">[text]</text>
<polygon fill="none" stroke="black" points="549.62,-573.8 549.62,-604.6 797.58,-604.6 797.58,-573.8 549.62,-573.8"/>
<text text-anchor="start" x="556.62" y="-586" font-family="Arial" font-size="14.00">derivation_policy_key </text>
<text text-anchor="start" x="694.37" y="-586" font-family="Arial" font-size="14.00" fill="#666666">[text]</text>
<polygon fill="none" stroke="black" points="549.62,-543 549.62,-573.8 797.58,-573.8 797.58,-543 549.62,-543"/>
<text text-anchor="start" x="556.62" y="-555.2" font-family="Arial" font-size="14.00">nullable </text>
<text text-anchor="start" x="608.78" y="-555.2" font-family="Arial" font-size="14.00" fill="#666666">[boolean]</text>
<polygon fill="none" stroke="black" points="549.62,-512.2 549.62,-543 797.58,-543 797.58,-512.2 549.62,-512.2"/>
<text text-anchor="start" x="556.62" y="-524.4" font-family="Arial" font-size="14.00">uml_comment </text>
<text text-anchor="start" x="648.43" y="-524.4" font-family="Arial" font-size="14.00" fill="#666666">[text]</text>
<polygon fill="none" stroke="black" stroke-width="3" points="548.12,-510.7 548.12,-857.3 799.08,-857.3 799.08,-510.7 548.12,-510.7"/>
</g>
<!-- public.logic -->
<g id="node2" class="node">
<title>public.logic</title>
<polygon fill="#efefef" stroke="none" points="216.62,-351.2 216.62,-386.8 440.59,-386.8 440.59,-351.2 216.62,-351.2"/>
<polygon fill="none" stroke="black" points="216.62,-351.2 216.62,-386.8 440.59,-386.8 440.59,-351.2 216.62,-351.2"/>
<text text-anchor="start" x="223.62" y="-364.6" font-family="Arial Bold" font-size="18.00">public.logic</text>
<text text-anchor="start" x="309.1" y="-364.6" font-family="Arial" font-size="14.00">    </text>
<text text-anchor="start" x="340.22" y="-364.6" font-family="Arial" font-size="14.00" fill="#666666">[BASE TABLE]</text>
<polygon fill="none" stroke="black" points="216.62,-320.4 216.62,-351.2 440.59,-351.2 440.59,-320.4 216.62,-320.4"/>
<text text-anchor="start" x="223.62" y="-332.6" font-family="Arial" font-size="14.00">logic_key </text>
<text text-anchor="start" x="285.87" y="-332.6" font-family="Arial" font-size="14.00" fill="#666666">[text]</text>
<polygon fill="none" stroke="black" points="216.62,-289.6 216.62,-320.4 440.59,-320.4 440.59,-289.6 216.62,-289.6"/>
<text text-anchor="start" x="223.62" y="-301.8" font-family="Arial" font-size="14.00">model_key </text>
<text text-anchor="start" x="295.21" y="-301.8" font-family="Arial" font-size="14.00" fill="#666666">[text]</text>
<polygon fill="none" stroke="black" points="216.62,-258.8 216.62,-289.6 440.59,-289.6 440.59,-258.8 216.62,-258.8"/>
<text text-anchor="start" x="223.62" y="-271" font-family="Arial" font-size="14.00">sort_order </text>
<text text-anchor="start" x="291.31" y="-271" font-family="Arial" font-size="14.00" fill="#666666">[integer]</text>
<polygon fill="none" stroke="black" points="216.62,-228 216.62,-258.8 440.59,-258.8 440.59,-228 216.62,-228"/>
<text text-anchor="start" x="223.62" y="-240.2" font-family="Arial" font-size="14.00">logic_type </text>
<text text-anchor="start" x="290.55" y="-240.2" font-family="Arial" font-size="14.00" fill="#666666">[logic_type]</text>
<polygon fill="none" stroke="black" points="216.62,-197.2 216.62,-228 440.59,-228 440.59,-197.2 216.62,-197.2"/>
<text text-anchor="start" x="223.62" y="-209.4" font-family="Arial" font-size="14.00">description </text>
<text text-anchor="start" x="295.21" y="-209.4" font-family="Arial" font-size="14.00" fill="#666666">[text]</text>
<polygon fill="none" stroke="black" points="216.62,-166.4 216.62,-197.2 440.59,-197.2 440.59,-166.4 216.62,-166.4"/>
<text text-anchor="start" x="223.62" y="-178.6" font-family="Arial" font-size="14.00">target </text>
<text text-anchor="start" x="263.31" y="-178.6" font-family="Arial" font-size="14.00" fill="#666666">[text]</text>
<polygon fill="none" stroke="black" points="216.62,-135.6 216.62,-166.4 440.59,-166.4 440.59,-135.6 216.62,-135.6"/>
<text text-anchor="start" x="223.62" y="-147.8" font-family="Arial" font-size="14.00">notation </text>
<text text-anchor="start" x="277.33" y="-147.8" font-family="Arial" font-size="14.00" fill="#666666">[notation]</text>
<polygon fill="none" stroke="black" points="216.62,-104.8 216.62,-135.6 440.59,-135.6 440.59,-104.8 216.62,-104.8"/>
<text text-anchor="start" x="223.62" y="-117" font-family="Arial" font-size="14.00">specification </text>
<text text-anchor="start" x="304.55" y="-117" font-family="Arial" font-size="14.00" fill="#666666">[text]</text>
<polygon fill="none" stroke="black" points="216.62,-74 216.62,-104.8 440.59,-104.8 440.59,-74 216.62,-74"/>
<text text-anchor="start" x="223.62" y="-86.2" font-family="Arial" font-size="14.00">target_type_notation </text>
<text text-anchor="start" x="355.16" y="-86.2" font-family="Arial" font-size="14.00" fill="#666666">[notation]</text>
<polygon fill="none" stroke="black" points="216.62,-43.2 216.62,-74 440.59,-74 440.59,-43.2 216.62,-43.2"/>
<text text-anchor="start" x="223.62" y="-55.4" font-family="Arial" font-size="14.00">target_type_specification </text>
<text text-anchor="start" x="382.38" y="-55.4" font-family="Arial" font-size="14.00" fill="#666666">[text]</text>
</g>
<!-- public.attribute&#45;&gt;public.logic -->
<g id="edge1" class="edge">
<title>public.attribute:model_key&#45;&gt;public.logic:model_key</title>
<path fill="none" stroke="black" d="M539.56,-800.17C492.37,-749.79 495.16,-305 441.59,-305"/>
<polygon fill="black" stroke="black" points="539.42,-800.1 546.28,-808.66 544.17,-802.53 548.03,-804.5 548.03,-804.5 548.03,-804.5 544.17,-802.53 550.37,-800.64 539.42,-800.1"/>
<text text-anchor="start" x="7" y="-814.8" font-family="Arial" font-size="10.00">FOREIGN KEY (model_key, derivation_policy_key) REFERENCES logic(model_key, logic_key) ON DELETE CASCADE</text>
</g>
<!-- public.data_type -->
<g id="node3" class="node">
<title>public.data_type</title>
<polygon fill="#efefef" stroke="none" points="544.63,-320.4 544.63,-356 802.58,-356 802.58,-320.4 544.63,-320.4"/>
<polygon fill="none" stroke="black" points="544.63,-320.4 544.63,-356 802.58,-356 802.58,-320.4 544.63,-320.4"/>
<text text-anchor="start" x="551.63" y="-333.8" font-family="Arial Bold" font-size="18.00">public.data_type</text>
<text text-anchor="start" x="671.09" y="-333.8" font-family="Arial" font-size="14.00">    </text>
<text text-anchor="start" x="702.21" y="-333.8" font-family="Arial" font-size="14.00" fill="#666666">[BASE TABLE]</text>
<polygon fill="none" stroke="black" points="544.63,-289.6 544.63,-320.4 802.58,-320.4 802.58,-289.6 544.63,-289.6"/>
<text text-anchor="start" x="551.63" y="-301.8" font-family="Arial" font-size="14.00">model_key </text>
<text text-anchor="start" x="623.22" y="-301.8" font-family="Arial" font-size="14.00" fill="#666666">[text]</text>
<polygon fill="none" stroke="black" points="544.63,-258.8 544.63,-289.6 802.58,-289.6 802.58,-258.8 544.63,-258.8"/>
<text text-anchor="start" x="551.63" y="-271" font-family="Arial" font-size="14.00">data_type_key </text>
<text text-anchor="start" x="646.59" y="-271" font-family="Arial" font-size="14.00" fill="#666666">[text]</text>
<polygon fill="none" stroke="black" points="544.63,-228 544.63,-258.8 802.58,-258.8 802.58,-228 544.63,-228"/>
<text text-anchor="start" x="551.63" y="-240.2" font-family="Arial" font-size="14.00">collection_type </text>
<text text-anchor="start" x="648.13" y="-240.2" font-family="Arial" font-size="14.00" fill="#666666">[collection_type]</text>
<polygon fill="none" stroke="black" points="544.63,-197.2 544.63,-228 802.58,-228 802.58,-197.2 544.63,-197.2"/>
<text text-anchor="start" x="551.63" y="-209.4" font-family="Arial" font-size="14.00">collection_unique </text>
<text text-anchor="start" x="663.71" y="-209.4" font-family="Arial" font-size="14.00" fill="#666666">[boolean]</text>
<polygon fill="none" stroke="black" points="544.63,-166.4 544.63,-197.2 802.58,-197.2 802.58,-166.4 544.63,-166.4"/>
<text text-anchor="start" x="551.63" y="-178.6" font-family="Arial" font-size="14.00">collection_min </text>
<text text-anchor="start" x="644.23" y="-178.6" font-family="Arial" font-size="14.00" fill="#666666">[bigint]</text>
<polygon fill="none" stroke="black" points="544.63,-135.6 544.63,-166.4 802.58,-166.4 802.58,-135.6 544.63,-135.6"/>
<text text-anchor="start" x="551.63" y="-147.8" font-family="Arial" font-size="14.00">collection_max </text>
<text text-anchor="start" x="648.12" y="-147.8" font-family="Arial" font-size="14.00" fill="#666666">[bigint]</text>
<polygon fill="none" stroke="black" points="544.63,-104.8 544.63,-135.6 802.58,-135.6 802.58,-104.8 544.63,-104.8"/>
<text text-anchor="start" x="551.63" y="-117" font-family="Arial" font-size="14.00">type_spec_notation </text>
<text text-anchor="start" x="676.94" y="-117" font-family="Arial" font-size="14.00" fill="#666666">[notation]</text>
<polygon fill="none" stroke="black" points="544.63,-74 544.63,-104.8 802.58,-104.8 802.58,-74 544.63,-74"/>
<text text-anchor="start" x="551.63" y="-86.2" font-family="Arial" font-size="14.00">type_spec_specification </text>
<text text-anchor="start" x="704.16" y="-86.2" font-family="Arial" font-size="14.00" fill="#666666">[text]</text>
</g>
<!-- public.attribute&#45;&gt;public.data_type -->
<g id="edge2" class="edge">
<title>public.attribute:model_key&#45;&gt;public.data_type:model_key</title>
<path fill="none" stroke="black" d="M807.53,-800.17C854.49,-749.79 855.97,-305 803.58,-305"/>
<polygon fill="black" stroke="black" points="807.76,-800.05 796.81,-800.65 803.02,-802.5 799.18,-804.49 799.18,-804.49 799.18,-804.49 803.02,-802.5 800.95,-808.64 807.76,-800.05"/>
<text text-anchor="start" x="805.58" y="-814.8" font-family="Arial" font-size="10.00">FOREIGN KEY (model_key, data_type_key) REFERENCES data_type(model_key, data_type_key) ON DELETE CASCADE</text>
</g>
<!-- public.class -->
<g id="node4" class="node">
<title>public.class</title>
<polygon fill="#efefef" stroke="none" points="907.12,-335.8 907.12,-371.4 1130.09,-371.4 1130.09,-335.8 907.12,-335.8"/>
<polygon fill="none" stroke="black" points="907.12,-335.8 907.12,-371.4 1130.09,-371.4 1130.09,-335.8 907.12,-335.8"/>
<text text-anchor="start" x="914.12" y="-349.2" font-family="Arial Bold" font-size="18.00">public.class</text>
<text text-anchor="start" x="998.6" y="-349.2" font-family="Arial" font-size="14.00">    </text>
<text text-anchor="start" x="1029.72" y="-349.2" font-family="Arial" font-size="14.00" fill="#666666">[BASE TABLE]</text>
<polygon fill="none" stroke="black" points="907.12,-305 907.12,-335.8 1130.09,-335.8 1130.09,-305 907.12,-305"/>
<text text-anchor="start" x="914.12" y="-317.2" font-family="Arial" font-size="14.00">model_key </text>
<text text-anchor="start" x="985.71" y="-317.2" font-family="Arial" font-size="14.00" fill="#666666">[text]</text>
<polygon fill="none" stroke="black" points="907.12,-274.2 907.12,-305 1130.09,-305 1130.09,-274.2 907.12,-274.2"/>
<text text-anchor="start" x="914.12" y="-286.4" font-family="Arial" font-size="14.00">class_key </text>
<text text-anchor="start" x="979.48" y="-286.4" font-family="Arial" font-size="14.00" fill="#666666">[text]</text>
<polygon fill="none" stroke="black" points="907.12,-243.4 907.12,-274.2 1130.09,-274.2 1130.09,-243.4 907.12,-243.4"/>
<text text-anchor="start" x="914.12" y="-255.6" font-family="Arial" font-size="14.00">name </text>
<text text-anchor="start" x="953.03" y="-255.6" font-family="Arial" font-size="14.00" fill="#666666">[text]</text>
<polygon fill="none" stroke="black" points="907.12,-212.6 907.12,-243.4 1130.09,-243.4 1130.09,-212.6 907.12,-212.6"/>
<text text-anchor="start" x="914.12" y="-224.8" font-family="Arial" font-size="14.00">subdomain_key </text>
<text text-anchor="start" x="1016.07" y="-224.8" font-family="Arial" font-size="14.00" fill="#666666">[text]</text>
<polygon fill="none" stroke="black" points="907.12,-181.8 907.12,-212.6 1130.09,-212.6 1130.09,-181.8 907.12,-181.8"/>
<text text-anchor="start" x="914.12" y="-194" font-family="Arial" font-size="14.00">actor_key </text>
<text text-anchor="start" x="978.7" y="-194" font-family="Arial" font-size="14.00" fill="#666666">[text]</text>
<polygon fill="none" stroke="black" points="907.12,-151 907.12,-181.8 1130.09,-181.8 1130.09,-151 907.12,-151"/>
<text text-anchor="start" x="914.12" y="-163.2" font-family="Arial" font-size="14.00">superclass_of_key </text>
<text text-anchor="start" x="1033.96" y="-163.2" font-family="Arial" font-size="14.00" fill="#666666">[text]</text>
<polygon fill="none" stroke="black" points="907.12,-120.2 907.12,-151 1130.09,-151 1130.09,-120.2 907.12,-120.2"/>
<text text-anchor="start" x="914.12" y="-132.4" font-family="Arial" font-size="14.00">subclass_of_key </text>
<text text-anchor="start" x="1021.51" y="-132.4" font-family="Arial" font-size="14.00" fill="#666666">[text]</text>
<polygon fill="none" stroke="black" points="907.12,-89.4 907.12,-120.2 1130.09,-120.2 1130.09,-89.4 907.12,-89.4"/>
<text text-anchor="start" x="914.12" y="-101.6" font-family="Arial" font-size="14.00">details </text>
<text text-anchor="start" x="958.48" y="-101.6" font-family="Arial" font-size="14.00" fill="#666666">[text]</text>
<polygon fill="none" stroke="black" points="907.12,-58.6 907.12,-89.4 1130.09,-89.4 1130.09,-58.6 907.12,-58.6"/>
<text text-anchor="start" x="914.12" y="-70.8" font-family="Arial" font-size="14.00">uml_comment </text>
<text text-anchor="start" x="1005.92" y="-70.8" font-family="Arial" font-size="14.00" fill="#666666">[text]</text>
</g>
<!-- public.attribute&#45;&gt;public.class -->
<g id="edge3" class="edge">
<title>public.attribute:model_key&#45;&gt;public.class:model_key</title>
<path fill="none" stroke="black" d="M808.84,-803.23C901.59,-773.17 799.51,-320.4 906.12,-320.4"/>
<polygon fill="black" stroke="black" points="808.8,-803.24 798.23,-800.3 803.52,-804.05 799.24,-804.7 799.24,-804.7 799.24,-804.7 803.52,-804.05 799.59,-809.2 808.8,-803.24"/>
<text text-anchor="start" x="805.58" y="-788.8" font-family="Arial" font-size="10.00">FOREIGN KEY (model_key, class_key) REFERENCES class(model_key, class_key) ON DELETE CASCADE</text>
</g>
<!-- public.class_index -->
<g id="node5" class="node">
<title>public.class_index</title>
<polygon fill="#efefef" stroke="none" points="337.62,-1104.4 337.62,-1140 609.58,-1140 609.58,-1104.4 337.62,-1104.4"/>
<polygon fill="none" stroke="black" points="337.62,-1104.4 337.62,-1140 609.58,-1140 609.58,-1104.4 337.62,-1104.4"/>
<text text-anchor="start" x="344.62" y="-1117.8" font-family="Arial Bold" font-size="18.00">public.class_index</text>
<text text-anchor="start" x="478.09" y="-1117.8" font-family="Arial" font-size="14.00">    </text>
<text text-anchor="start" x="509.21" y="-1117.8" font-family="Arial" font-size="14.00" fill="#666666">[BASE TABLE]</text>
<polygon fill="none" stroke="black" points="337.62,-1073.6 337.62,-1104.4 609.58,-1104.4 609.58,-1073.6 337.62,-1073.6"/>
<text text-anchor="start" x="344.62" y="-1085.8" font-family="Arial" font-size="14.00">model_key </text>
<text text-anchor="start" x="416.22" y="-1085.8" font-family="Arial" font-size="14.00" fill="#666666">[text]</text>
<polygon fill="none" stroke="black" points="337.62,-1042.8 337.62,-1073.6 609.58,-1073.6 609.58,-1042.8 337.62,-1042.8"/>
<text text-anchor="start" x="344.62" y="-1055" font-family="Arial" font-size="14.00">class_key </text>
<text text-anchor="start" x="409.98" y="-1055" font-family="Arial" font-size="14.00" fill="#666666">[text]</text>
<polygon fill="none" stroke="black" points="337.62,-1012 337.62,-1042.8 609.58,-1042.8 609.58,-1012 337.62,-1012"/>
<text text-anchor="start" x="344.62" y="-1024.2" font-family="Arial" font-size="14.00">index_num </text>
<text text-anchor="start" x="417" y="-1024.2" font-family="Arial" font-size="14.00" fill="#666666">[integer]</text>
<polygon fill="none" stroke="black" points="337.62,-981.2 337.62,-1012 609.58,-1012 609.58,-981.2 337.62,-981.2"/>
<text text-anchor="start" x="344.62" y="-993.4" font-family="Arial" font-size="14.00">attribute_key </text>
<text text-anchor="start" x="428.67" y="-993.4" font-family="Arial" font-size="14.00" fill="#666666">[text]</text>
</g>
<!-- public.class_index&#45;&gt;public.attribute -->
<g id="edge4" class="edge">
<title>public.class_index:model_key&#45;&gt;public.attribute:model_key</title>
<path fill="none" stroke="black" d="M620.7,-1088.19C673.89,-1078.96 641.01,-993.11 609.58,-938 594.18,-911 565.07,-928.97 549.62,-902 528.15,-864.51 505.42,-804.8 548.62,-804.8"/>
<polygon fill="black" stroke="black" points="620.88,-1088.17 610.56,-1084.49 615.57,-1088.6 611.25,-1088.95 611.25,-1088.95 611.25,-1088.95 615.57,-1088.6 611.28,-1093.46 620.88,-1088.17"/>
<text text-anchor="start" x="76.18" y="-1099" font-family="Arial" font-size="10.00">FOREIGN KEY (model_key, attribute_key) REFERENCES attribute(model_key, attribute_key) ON DELETE CASCADE</text>
</g>
<!-- public.attribute_invariant -->
<g id="node6" class="node">
<title>public.attribute_invariant</title>
<polygon fill="#efefef" stroke="none" points="714.14,-1089 714.14,-1124.6 1035.07,-1124.6 1035.07,-1089 714.14,-1089"/>
<polygon fill="none" stroke="black" points="714.14,-1089 714.14,-1124.6 1035.07,-1124.6 1035.07,-1089 714.14,-1089"/>
<text text-anchor="start" x="721.14" y="-1102.4" font-family="Arial Bold" font-size="18.00">public.attribute_invariant</text>
<text text-anchor="start" x="903.58" y="-1102.4" font-family="Arial" font-size="14.00">    </text>
<text text-anchor="start" x="934.7" y="-1102.4" font-family="Arial" font-size="14.00" fill="#666666">[BASE TABLE]</text>
<polygon fill="none" stroke="black" points="714.14,-1058.2 714.14,-1089 1035.07,-1089 1035.07,-1058.2 714.14,-1058.2"/>
<text text-anchor="start" x="721.14" y="-1070.4" font-family="Arial" font-size="14.00">model_key </text>
<text text-anchor="start" x="792.73" y="-1070.4" font-family="Arial" font-size="14.00" fill="#666666">[text]</text>
<polygon fill="none" stroke="black" points="714.14,-1027.4 714.14,-1058.2 1035.07,-1058.2 1035.07,-1027.4 714.14,-1027.4"/>
<text text-anchor="start" x="721.14" y="-1039.6" font-family="Arial" font-size="14.00">attribute_key </text>
<text text-anchor="start" x="805.18" y="-1039.6" font-family="Arial" font-size="14.00" fill="#666666">[text]</text>
<polygon fill="none" stroke="black" points="714.14,-996.6 714.14,-1027.4 1035.07,-1027.4 1035.07,-996.6 714.14,-996.6"/>
<text text-anchor="start" x="721.14" y="-1008.8" font-family="Arial" font-size="14.00">logic_key </text>
<text text-anchor="start" x="783.39" y="-1008.8" font-family="Arial" font-size="14.00" fill="#666666">[text]</text>
</g>
<!-- public.attribute_invariant&#45;&gt;public.attribute -->
<g id="edge5" class="edge">
<title>public.attribute_invariant:model_key&#45;&gt;public.attribute:model_key</title>
<path fill="none" stroke="black" d="M703.05,-1072.54C663.67,-1063.37 689.74,-996.66 714.14,-953.4 735.53,-915.46 776.15,-939.92 797.58,-902 818.84,-864.39 841.78,-804.8 798.58,-804.8"/>
<polygon fill="black" stroke="black" points="702.86,-1072.52 712.33,-1078.04 708.16,-1073.08 712.47,-1073.53 712.47,-1073.53 712.47,-1073.53 708.16,-1073.08 713.27,-1069.09 702.86,-1072.52"/>
<text text-anchor="start" x="720.14" y="-1083.6" font-family="Arial" font-size="10.00">FOREIGN KEY (model_key, attribute_key) REFERENCES attribute(model_key, attribute_key) ON DELETE CASCADE</text>
</g>
</g>
</svg>
