<?xml version="1.0" encoding="UTF-8" standalone="no"?>
<!DOCTYPE svg PUBLIC "-//W3C//DTD SVG 1.1//EN"
 "http://www.w3.org/Graphics/SVG/1.1/DTD/svg11.dtd">
<!-- Generated by graphviz version 12.1.2 (20240928.0832)
 -->
<!-- Title: public.action Pages: 1 -->
<svg width="2697pt" height="1222pt"
 viewBox="0.00 0.00 2696.69 1222.00" xmlns="http://www.w3.org/2000/svg" xmlns:xlink="http://www.w3.org/1999/xlink">
<g id="graph0" class="graph" transform="scale(1 1) rotate(0) translate(4 1218)">
<title>public.action</title>
<polygon fill="white" stroke="none" points="-4,4 -4,-1218 2692.69,-1218 2692.69,4 -4,4"/>
<!-- public.action -->
<g id="node1" class="node">
<title>public.action</title>
<polygon fill="#efefef" stroke="none" points="1253.62,-697 1253.62,-732.6 1485.58,-732.6 1485.58,-697 1253.62,-697"/>
<polygon fill="none" stroke="black" points="1253.62,-697 1253.62,-732.6 1485.58,-732.6 1485.58,-697 1253.62,-697"/>
<text text-anchor="start" x="1260.62" y="-710.4" font-family="Arial Bold" font-size="18.00">public.action</text>
<text text-anchor="start" x="1354.09" y="-710.4" font-family="Arial" font-size="14.00">    </text>
<text text-anchor="start" x="1385.21" y="-710.4" font-family="Arial" font-size="14.00" fill="#666666">[BASE TABLE]</text>
<polygon fill="none" stroke="black" points="1253.62,-666.2 1253.62,-697 1485.58,-697 1485.58,-666.2 1253.62,-666.2"/>
<text text-anchor="start" x="1260.62" y="-678.4" font-family="Arial" font-size="14.00">model_key </text>
<text text-anchor="start" x="1332.22" y="-678.4" font-family="Arial" font-size="14.00" fill="#666666">[text]</text>
<polygon fill="none" stroke="black" points="1253.62,-635.4 1253.62,-666.2 1485.58,-666.2 1485.58,-635.4 1253.62,-635.4"/>
<text text-anchor="start" x="1260.62" y="-647.6" font-family="Arial" font-size="14.00">class_key </text>
<text text-anchor="start" x="1325.98" y="-647.6" font-family="Arial" font-size="14.00" fill="#666666">[text]</text>
<polygon fill="none" stroke="black" points="1253.62,-604.6 1253.62,-635.4 1485.58,-635.4 1485.58,-604.6 1253.62,-604.6"/>
<text text-anchor="start" x="1260.62" y="-616.8" font-family="Arial" font-size="14.00">action_key </text>
<text text-anchor="start" x="1331.44" y="-616.8" font-family="Arial" font-size="14.00" fill="#666666">[text]</text>
<polygon fill="none" stroke="black" points="1253.62,-573.8 1253.62,-604.6 1485.58,-604.6 1485.58,-573.8 1253.62,-573.8"/>
<text text-anchor="start" x="1260.62" y="-586" font-family="Arial" font-size="14.00">name </text>
<text text-anchor="start" x="1299.53" y="-586" font-family="Arial" font-size="14.00" fill="#666666">[text]</text>
<polygon fill="none" stroke="black" points="1253.62,-543 1253.62,-573.8 1485.58,-573.8 1485.58,-543 1253.62,-543"/>
<text text-anchor="start" x="1260.62" y="-555.2" font-family="Arial" font-size="14.00">details </text>
<text text-anchor="start" x="1304.98" y="-555.2" font-family="Arial" font-size="14.00" fill="#666666">[text]</text>
<polygon fill="none" stroke="black" stroke-width="3" points="1252.12,-541.5 1252.12,-734.1 1487.08,-734.1 1487.08,-541.5 1252.12,-541.5"/>
</g>
<!-- public.class -->
<g id="node2" class="node">
<title>public.class</title>
<polygon fill="#efefef" stroke="none" points="1258.12,-382 1258.12,-417.6 1481.09,-417.6 1481.09,-382 1258.12,-382"/>
<polygon fill="none" stroke="black" points="1258.12,-382 1258.12,-417.6 1481.09,-417.6 1481.09,-382 1258.12,-382"/>
<text text-anchor="start" x="1265.12" y="-395.4" font-family="Arial Bold" font-size="18.00">public.class</text>
<text text-anchor="start" x="1349.6" y="-395.4" font-family="Arial" font-size="14.00">    </text>
<text text-anchor="start" x="1380.72" y="-395.4" font-family="Arial" font-size="14.00" fill="#666666">[BASE TABLE]</text>
<polygon fill="none" stroke="black" points="1258.12,-351.2 1258.12,-382 1481.09,-382 1481.09,-351.2 1258.12,-351.2"/>
<text text-anchor="start" x="1265.12" y="-363.4" font-family="Arial" font-size="14.00">model_key </text>
<text text-anchor="start" x="1336.71" y="-363.4" font-family="Arial" font-size="14.00" fill="#666666">[text]</text>
<polygon fill="none" stroke="black" points="1258.12,-320.4 1258.12,-351.2 1481.09,-351.2 1481.09,-320.4 1258.12,-320.4"/>
<text text-anchor="start" x="1265.12" y="-332.6" font-family="Arial" font-size="14.00">class_key </text>
<text text-anchor="start" x="1330.48" y="-332.6" font-family="Arial" font-size="14.00" fill="#666666">[text]</text>
<polygon fill="none" stroke="black" points="1258.12,-289.6 1258.12,-320.4 1481.09,-320.4 1481.09,-289.6 1258.12,-289.6"/>
<text text-anchor="start" x="1265.12" y="-301.8" font-family="Arial" font-size="14.00">name </text>
<text text-anchor="start" x="1304.03" y="-301.8" font-family="Arial" font-size="14.00" fill="#666666">[text]</text>
<polygon fill="none" stroke="black" points="1258.12,-258.8 1258.12,-289.6 1481.09,-289.6 1481.09,-258.8 1258.12,-258.8"/>
<text text-anchor="start" x="1265.12" y="-271" font-family="Arial" font-size="14.00">subdomain_key </text>
<text text-anchor="start" x="1367.07" y="-271" font-family="Arial" font-size="14.00" fill="#666666">[text]</text>
<polygon fill="none" stroke="black" points="1258.12,-228 1258.12,-258.8 1481.09,-258.8 1481.09,-228 1258.12,-228"/>
<text text-anchor="start" x="1265.12" y="-240.2" font-family="Arial" font-size="14.00">actor_key </text>
<text text-anchor="start" x="1329.7" y="-240.2" font-family="Arial" font-size="14.00" fill="#666666">[text]</text>
<polygon fill="none" stroke="black" points="1258.12,-197.2 1258.12,-228 1481.09,-228 1481.09,-197.2 1258.12,-197.2"/>
<text text-anchor="start" x="1265.12" y="-209.4" font-family="Arial" font-size="14.00">superclass_of_key </text>
<text text-anchor="start" x="1384.96" y="-209.4" font-family="Arial" font-size="14.00" fill="#666666">[text]</text>
<polygon fill="none" stroke="black" points="1258.12,-166.4 1258.12,-197.2 1481.09,-197.2 1481.09,-166.4 1258.12,-166.4"/>
<text text-anchor="start" x="1265.12" y="-178.6" font-family="Arial" font-size="14.00">subclass_of_key </text>
<text text-anchor="start" x="1372.51" y="-178.6" font-family="Arial" font-size="14.00" fill="#666666">[text]</text>
<polygon fill="none" stroke="black" points="1258.12,-135.6 1258.12,-166.4 1481.09,-166.4 1481.09,-135.6 1258.12,-135.6"/>
<text text-anchor="start" x="1265.12" y="-147.8" font-family="Arial" font-size="14.00">details </text>
<text text-anchor="start" x="1309.48" y="-147.8" font-family="Arial" font-size="14.00" fill="#666666">[text]</text>
<polygon fill="none" stroke="black" points="1258.12,-104.8 1258.12,-135.6 1481.09,-135.6 1481.09,-104.8 1258.12,-104.8"/>
<text text-anchor="start" x="1265.12" y="-117" font-family="Arial" font-size="14.00">unfinished_notes </text>
<text text-anchor="start" x="1374.87" y="-117" font-family="Arial" font-size="14.00" fill="#666666">[text]</text>
<polygon fill="none" stroke="black" points="1258.12,-74 1258.12,-104.8 1481.09,-104.8 1481.09,-74 1258.12,-74"/>
<text text-anchor="start" x="1265.12" y="-86.2" font-family="Arial" font-size="14.00">uml_comment </text>
<text text-anchor="start" x="1356.93" y="-86.2" font-family="Arial" font-size="14.00" fill="#666666">[text]</text>
<polygon fill="none" stroke="black" points="1258.12,-43.2 1258.12,-74 1481.09,-74 1481.09,-43.2 1258.12,-43.2"/>
<text text-anchor="start" x="1265.12" y="-55.4" font-family="Arial" font-size="14.00">marked </text>
<text text-anchor="start" x="1315.69" y="-55.4" font-family="Arial" font-size="14.00" fill="#666666">[boolean]</text>
</g>
<!-- public.action&#45;&gt;public.class -->
<g id="edge1" class="edge">
<title>public.action:model_key&#45;&gt;public.class:model_key</title>
<path fill="none" stroke="black" d="M1496.97,-681C1626.28,-665.81 1618.55,-366.6 1482.09,-366.6"/>
<polygon fill="black" stroke="black" points="1496.9,-681 1486.66,-677.09 1491.58,-681.31 1487.25,-681.56 1487.25,-681.56 1487.25,-681.56 1491.58,-681.31 1487.18,-686.07 1496.9,-681"/>
<text text-anchor="start" x="1493.58" y="-691.6" font-family="Arial" font-size="10.00">FOREIGN KEY (model_key, class_key) REFERENCES class(model_key, class_key) ON DELETE CASCADE</text>
</g>
<!-- public.action_parameter -->
<g id="node3" class="node">
<title>public.action_parameter</title>
<polygon fill="#efefef" stroke="none" points="199.15,-1119.8 199.15,-1155.4 512.06,-1155.4 512.06,-1119.8 199.15,-1119.8"/>
<polygon fill="none" stroke="black" points="199.15,-1119.8 199.15,-1155.4 512.06,-1155.4 512.06,-1119.8 199.15,-1119.8"/>
<text text-anchor="start" x="206.15" y="-1133.2" font-family="Arial Bold" font-size="18.00">public.action_parameter</text>
<text text-anchor="start" x="380.57" y="-1133.2" font-family="Arial" font-size="14.00">    </text>
<text text-anchor="start" x="411.69" y="-1133.2" font-family="Arial" font-size="14.00" fill="#666666">[BASE TABLE]</text>
<polygon fill="none" stroke="black" points="199.15,-1089 199.15,-1119.8 512.06,-1119.8 512.06,-1089 199.15,-1089"/>
<text text-anchor="start" x="206.15" y="-1101.2" font-family="Arial" font-size="14.00">model_key </text>
<text text-anchor="start" x="277.74" y="-1101.2" font-family="Arial" font-size="14.00" fill="#666666">[text]</text>
<polygon fill="none" stroke="black" points="199.15,-1058.2 199.15,-1089 512.06,-1089 512.06,-1058.2 199.15,-1058.2"/>
<text text-anchor="start" x="206.15" y="-1070.4" font-family="Arial" font-size="14.00">action_key </text>
<text text-anchor="start" x="276.97" y="-1070.4" font-family="Arial" font-size="14.00" fill="#666666">[text]</text>
<polygon fill="none" stroke="black" points="199.15,-1027.4 199.15,-1058.2 512.06,-1058.2 512.06,-1027.4 199.15,-1027.4"/>
<text text-anchor="start" x="206.15" y="-1039.6" font-family="Arial" font-size="14.00">parameter_key </text>
<text text-anchor="start" x="303.42" y="-1039.6" font-family="Arial" font-size="14.00" fill="#666666">[text]</text>
<polygon fill="none" stroke="black" points="199.15,-996.6 199.15,-1027.4 512.06,-1027.4 512.06,-996.6 199.15,-996.6"/>
<text text-anchor="start" x="206.15" y="-1008.8" font-family="Arial" font-size="14.00">name </text>
<text text-anchor="start" x="245.06" y="-1008.8" font-family="Arial" font-size="14.00" fill="#666666">[text]</text>
<polygon fill="none" stroke="black" points="199.15,-965.8 199.15,-996.6 512.06,-996.6 512.06,-965.8 199.15,-965.8"/>
<text text-anchor="start" x="206.15" y="-978" font-family="Arial" font-size="14.00">sort_order </text>
<text text-anchor="start" x="273.85" y="-978" font-family="Arial" font-size="14.00" fill="#666666">[integer]</text>
<polygon fill="none" stroke="black" points="199.15,-935 199.15,-965.8 512.06,-965.8 512.06,-935 199.15,-935"/>
<text text-anchor="start" x="206.15" y="-947.2" font-family="Arial" font-size="14.00">data_type_rules </text>
<text text-anchor="start" x="309.67" y="-947.2" font-family="Arial" font-size="14.00" fill="#666666">[text]</text>
<polygon fill="none" stroke="black" points="199.15,-904.2 199.15,-935 512.06,-935 512.06,-904.2 199.15,-904.2"/>
<text text-anchor="start" x="206.15" y="-916.4" font-family="Arial" font-size="14.00">data_type_key </text>
<text text-anchor="start" x="301.11" y="-916.4" font-family="Arial" font-size="14.00" fill="#666666">[text]</text>
<polygon fill="none" stroke="black" points="199.15,-873.4 199.15,-904.2 512.06,-904.2 512.06,-873.4 199.15,-873.4"/>
<text text-anchor="start" x="206.15" y="-885.6" font-family="Arial" font-size="14.00">nullable </text>
<text text-anchor="start" x="258.3" y="-885.6" font-family="Arial" font-size="14.00" fill="#666666">[boolean]</text>
</g>
<!-- public.action_parameter&#45;&gt;public.action -->
<g id="edge2" class="edge">
<title>public.action_parameter:model_key&#45;&gt;public.action:model_key</title>
<path fill="none" stroke="black" d="M523.45,-1103.93C634.32,-1093.36 475.46,-905.3 564.6,-814.8 673.89,-703.85 1096.89,-681.6 1252.62,-681.6"/>
<polygon fill="black" stroke="black" points="523.38,-1103.94 513.19,-1099.89 518.05,-1104.18 513.73,-1104.37 513.73,-1104.37 513.73,-1104.37 518.05,-1104.18 513.59,-1108.88 523.38,-1103.94"/>
<text text-anchor="start" x="7" y="-1114.4" font-family="Arial" font-size="10.00">FOREIGN KEY (model_key, action_key) REFERENCES action(model_key, action_key) ON DELETE CASCADE</text>
</g>
<!-- public.action_require -->
<g id="node4" class="node">
<title>public.action_require</title>
<polygon fill="#efefef" stroke="none" points="616.64,-1042.8 616.64,-1078.4 908.57,-1078.4 908.57,-1042.8 616.64,-1042.8"/>
<polygon fill="none" stroke="black" points="616.64,-1042.8 616.64,-1078.4 908.57,-1078.4 908.57,-1042.8 616.64,-1042.8"/>
<text text-anchor="start" x="623.64" y="-1056.2" font-family="Arial Bold" font-size="18.00">public.action_require</text>
<text text-anchor="start" x="777.08" y="-1056.2" font-family="Arial" font-size="14.00">    </text>
<text text-anchor="start" x="808.2" y="-1056.2" font-family="Arial" font-size="14.00" fill="#666666">[BASE TABLE]</text>
<polygon fill="none" stroke="black" points="616.64,-1012 616.64,-1042.8 908.57,-1042.8 908.57,-1012 616.64,-1012"/>
<text text-anchor="start" x="623.64" y="-1024.2" font-family="Arial" font-size="14.00">model_key </text>
<text text-anchor="start" x="695.23" y="-1024.2" font-family="Arial" font-size="14.00" fill="#666666">[text]</text>
<polygon fill="none" stroke="black" points="616.64,-981.2 616.64,-1012 908.57,-1012 908.57,-981.2 616.64,-981.2"/>
<text text-anchor="start" x="623.64" y="-993.4" font-family="Arial" font-size="14.00">action_key </text>
<text text-anchor="start" x="694.46" y="-993.4" font-family="Arial" font-size="14.00" fill="#666666">[text]</text>
<polygon fill="none" stroke="black" points="616.64,-950.4 616.64,-981.2 908.57,-981.2 908.57,-950.4 616.64,-950.4"/>
<text text-anchor="start" x="623.64" y="-962.6" font-family="Arial" font-size="14.00">logic_key </text>
<text text-anchor="start" x="685.89" y="-962.6" font-family="Arial" font-size="14.00" fill="#666666">[text]</text>
</g>
<!-- public.action_require&#45;&gt;public.action -->
<g id="edge3" class="edge">
<title>public.action_require:model_key&#45;&gt;public.action:model_key</title>
<path fill="none" stroke="black" d="M919.56,-1026.84C998.96,-1017.27 901.1,-887.01 960.6,-814.8 1051.32,-704.71 1109.97,-681.6 1252.62,-681.6"/>
<polygon fill="black" stroke="black" points="919.89,-1026.82 909.65,-1022.89 914.56,-1027.12 910.24,-1027.36 910.24,-1027.36 910.24,-1027.36 914.56,-1027.12 910.15,-1031.87 919.89,-1026.82"/>
<text text-anchor="start" x="403.51" y="-1037.4" font-family="Arial" font-size="10.00">FOREIGN KEY (model_key, action_key) REFERENCES action(model_key, action_key) ON DELETE CASCADE</text>
</g>
<!-- public.action_guarantee -->
<g id="node5" class="node">
<title>public.action_guarantee</title>
<polygon fill="#efefef" stroke="none" points="1013.15,-1042.8 1013.15,-1078.4 1324.06,-1078.4 1324.06,-1042.8 1013.15,-1042.8"/>
<polygon fill="none" stroke="black" points="1013.15,-1042.8 1013.15,-1078.4 1324.06,-1078.4 1324.06,-1042.8 1013.15,-1042.8"/>
<text text-anchor="start" x="1020.15" y="-1056.2" font-family="Arial Bold" font-size="18.00">public.action_guarantee</text>
<text text-anchor="start" x="1192.57" y="-1056.2" font-family="Arial" font-size="14.00">    </text>
<text text-anchor="start" x="1223.69" y="-1056.2" font-family="Arial" font-size="14.00" fill="#666666">[BASE TABLE]</text>
<polygon fill="none" stroke="black" points="1013.15,-1012 1013.15,-1042.8 1324.06,-1042.8 1324.06,-1012 1013.15,-1012"/>
<text text-anchor="start" x="1020.15" y="-1024.2" font-family="Arial" font-size="14.00">model_key </text>
<text text-anchor="start" x="1091.74" y="-1024.2" font-family="Arial" font-size="14.00" fill="#666666">[text]</text>
<polygon fill="none" stroke="black" points="1013.15,-981.2 1013.15,-1012 1324.06,-1012 1324.06,-981.2 1013.15,-981.2"/>
<text text-anchor="start" x="1020.15" y="-993.4" font-family="Arial" font-size="14.00">action_key </text>
<text text-anchor="start" x="1090.97" y="-993.4" font-family="Arial" font-size="14.00" fill="#666666">[text]</text>
<polygon fill="none" stroke="black" points="1013.15,-950.4 1013.15,-981.2 1324.06,-981.2 1324.06,-950.4 1013.15,-950.4"/>
<text text-anchor="start" x="1020.15" y="-962.6" font-family="Arial" font-size="14.00">logic_key </text>
<text text-anchor="start" x="1082.4" y="-962.6" font-family="Arial" font-size="14.00" fill="#666666">[text]</text>
</g>
<!-- public.action_guarantee&#45;&gt;public.action -->
<g id="edge4" class="edge">
<title>public.action_guarantee:model_key&#45;&gt;public.action:model_key</title>
<path fill="none" stroke="black" d="M1335.24,-1026.74C1422.39,-1014.43 1267.91,-833.39 1253.62,-778.8 1242.68,-737.01 1209.42,-681.6 1252.62,-681.6"/>
<polygon fill="black" stroke="black" points="1335.37,-1026.73 1325.1,-1022.89 1330.05,-1027.08 1325.73,-1027.36 1325.73,-1027.36 1325.73,-1027.36 1330.05,-1027.08 1325.69,-1031.87 1335.37,-1026.73"/>
<text text-anchor="start" x="1075.53" y="-1011.4" font-family="Arial" font-size="10.00">FOREIGN KEY (model_key, action_key) REFERENCES action(model_key, action_key) ON DELETE CASCADE</text>
</g>
<!-- public.action_safety -->
<g id="node6" class="node">
<title>public.action_safety</title>
<polygon fill="#efefef" stroke="none" points="1428.63,-1042.8 1428.63,-1078.4 1712.57,-1078.4 1712.57,-1042.8 1428.63,-1042.8"/>
<polygon fill="none" stroke="black" points="1428.63,-1042.8 1428.63,-1078.4 1712.57,-1078.4 1712.57,-1042.8 1428.63,-1042.8"/>
<text text-anchor="start" x="1435.63" y="-1056.2" font-family="Arial Bold" font-size="18.00">public.action_safety</text>
<text text-anchor="start" x="1581.08" y="-1056.2" font-family="Arial" font-size="14.00">    </text>
<text text-anchor="start" x="1612.2" y="-1056.2" font-family="Arial" font-size="14.00" fill="#666666">[BASE TABLE]</text>
<polygon fill="none" stroke="black" points="1428.63,-1012 1428.63,-1042.8 1712.57,-1042.8 1712.57,-1012 1428.63,-1012"/>
<text text-anchor="start" x="1435.63" y="-1024.2" font-family="Arial" font-size="14.00">model_key </text>
<text text-anchor="start" x="1507.23" y="-1024.2" font-family="Arial" font-size="14.00" fill="#666666">[text]</text>
<polygon fill="none" stroke="black" points="1428.63,-981.2 1428.63,-1012 1712.57,-1012 1712.57,-981.2 1428.63,-981.2"/>
<text text-anchor="start" x="1435.63" y="-993.4" font-family="Arial" font-size="14.00">action_key </text>
<text text-anchor="start" x="1506.45" y="-993.4" font-family="Arial" font-size="14.00" fill="#666666">[text]</text>
<polygon fill="none" stroke="black" points="1428.63,-950.4 1428.63,-981.2 1712.57,-981.2 1712.57,-950.4 1428.63,-950.4"/>
<text text-anchor="start" x="1435.63" y="-962.6" font-family="Arial" font-size="14.00">logic_key </text>
<text text-anchor="start" x="1497.89" y="-962.6" font-family="Arial" font-size="14.00" fill="#666666">[text]</text>
</g>
<!-- public.action_safety&#45;&gt;public.action -->
<g id="edge5" class="edge">
<title>public.action_safety:model_key&#45;&gt;public.action:model_key</title>
<path fill="none" stroke="black" d="M1417.53,-1026.84C1288.82,-1011.38 1638.84,-681.6 1486.58,-681.6"/>
<polygon fill="black" stroke="black" points="1417.32,-1026.83 1427.05,-1031.87 1422.64,-1027.12 1426.97,-1027.36 1426.97,-1027.36 1426.97,-1027.36 1422.64,-1027.12 1427.55,-1022.89 1417.32,-1026.83"/>
<text text-anchor="start" x="1434.63" y="-1037.4" font-family="Arial" font-size="10.00">FOREIGN KEY (model_key, action_key) REFERENCES action(model_key, action_key) ON DELETE CASCADE</text>
</g>
<!-- public.transition -->
<g id="node7" class="node">
<title>public.transition</title>
<polygon fill="#efefef" stroke="none" points="1816.62,-1135.2 1816.62,-1170.8 2072.59,-1170.8 2072.59,-1135.2 1816.62,-1135.2"/>
<polygon fill="none" stroke="black" points="1816.62,-1135.2 1816.62,-1170.8 2072.59,-1170.8 2072.59,-1135.2 1816.62,-1135.2"/>
<text text-anchor="start" x="1823.62" y="-1148.6" font-family="Arial Bold" font-size="18.00">public.transition</text>
<text text-anchor="start" x="1941.1" y="-1148.6" font-family="Arial" font-size="14.00">    </text>
<text text-anchor="start" x="1972.22" y="-1148.6" font-family="Arial" font-size="14.00" fill="#666666">[BASE TABLE]</text>
<polygon fill="none" stroke="black" points="1816.62,-1104.4 1816.62,-1135.2 2072.59,-1135.2 2072.59,-1104.4 1816.62,-1104.4"/>
<text text-anchor="start" x="1823.62" y="-1116.6" font-family="Arial" font-size="14.00">model_key </text>
<text text-anchor="start" x="1895.21" y="-1116.6" font-family="Arial" font-size="14.00" fill="#666666">[text]</text>
<polygon fill="none" stroke="black" points="1816.62,-1073.6 1816.62,-1104.4 2072.59,-1104.4 2072.59,-1073.6 1816.62,-1073.6"/>
<text text-anchor="start" x="1823.62" y="-1085.8" font-family="Arial" font-size="14.00">class_key </text>
<text text-anchor="start" x="1888.98" y="-1085.8" font-family="Arial" font-size="14.00" fill="#666666">[text]</text>
<polygon fill="none" stroke="black" points="1816.62,-1042.8 1816.62,-1073.6 2072.59,-1073.6 2072.59,-1042.8 1816.62,-1042.8"/>
<text text-anchor="start" x="1823.62" y="-1055" font-family="Arial" font-size="14.00">transition_key </text>
<text text-anchor="start" x="1913.89" y="-1055" font-family="Arial" font-size="14.00" fill="#666666">[text]</text>
<polygon fill="none" stroke="black" points="1816.62,-1012 1816.62,-1042.8 2072.59,-1042.8 2072.59,-1012 1816.62,-1012"/>
<text text-anchor="start" x="1823.62" y="-1024.2" font-family="Arial" font-size="14.00">from_state_key </text>
<text text-anchor="start" x="1923.22" y="-1024.2" font-family="Arial" font-size="14.00" fill="#666666">[text]</text>
<polygon fill="none" stroke="black" points="1816.62,-981.2 1816.62,-1012 2072.59,-1012 2072.59,-981.2 1816.62,-981.2"/>
<text text-anchor="start" x="1823.62" y="-993.4" font-family="Arial" font-size="14.00">event_key </text>
<text text-anchor="start" x="1891.33" y="-993.4" font-family="Arial" font-size="14.00" fill="#666666">[text]</text>
<polygon fill="none" stroke="black" points="1816.62,-950.4 1816.62,-981.2 2072.59,-981.2 2072.59,-950.4 1816.62,-950.4"/>
<text text-anchor="start" x="1823.62" y="-962.6" font-family="Arial" font-size="14.00">guard_key </text>
<text text-anchor="start" x="1892.89" y="-962.6" font-family="Arial" font-size="14.00" fill="#666666">[text]</text>
<polygon fill="none" stroke="black" points="1816.62,-919.6 1816.62,-950.4 2072.59,-950.4 2072.59,-919.6 1816.62,-919.6"/>
<text text-anchor="start" x="1823.62" y="-931.8" font-family="Arial" font-size="14.00">action_key </text>
<text text-anchor="start" x="1894.44" y="-931.8" font-family="Arial" font-size="14.00" fill="#666666">[text]</text>
<polygon fill="none" stroke="black" points="1816.62,-888.8 1816.62,-919.6 2072.59,-919.6 2072.59,-888.8 1816.62,-888.8"/>
<text text-anchor="start" x="1823.62" y="-901" font-family="Arial" font-size="14.00">to_state_key </text>
<text text-anchor="start" x="1906.89" y="-901" font-family="Arial" font-size="14.00" fill="#666666">[text]</text>
<polygon fill="none" stroke="black" points="1816.62,-858 1816.62,-888.8 2072.59,-888.8 2072.59,-858 1816.62,-858"/>
<text text-anchor="start" x="1823.62" y="-870.2" font-family="Arial" font-size="14.00">uml_comment </text>
<text text-anchor="start" x="1915.42" y="-870.2" font-family="Arial" font-size="14.00" fill="#666666">[text]</text>
</g>
<!-- public.transition&#45;&gt;public.action -->
<g id="edge6" class="edge">
<title>public.transition:model_key&#45;&gt;public.action:model_key</title>
<path fill="none" stroke="black" d="M1805.45,-1117.63C1753.05,-1093.03 1803.65,-866.72 1764.6,-814.8 1682.25,-705.3 1623.6,-681.6 1486.58,-681.6"/>
<polygon fill="black" stroke="black" points="1805.51,-1117.64 1814.35,-1124.13 1810.73,-1118.76 1814.96,-1119.66 1814.96,-1119.66 1814.96,-1119.66 1810.73,-1118.76 1816.23,-1115.33 1805.51,-1117.64"/>
<text text-anchor="start" x="1309.56" y="-1129.8" font-family="Arial" font-size="10.00">FOREIGN KEY (model_key, action_key) REFERENCES action(model_key, action_key) ON DELETE CASCADE</text>
</g>
<!-- public.state_action -->
<g id="node8" class="node">
<title>public.state_action</title>
<polygon fill="#efefef" stroke="none" points="2176.63,-1073.6 2176.63,-1109.2 2450.58,-1109.2 2450.58,-1073.6 2176.63,-1073.6"/>
<polygon fill="none" stroke="black" points="2176.63,-1073.6 2176.63,-1109.2 2450.58,-1109.2 2450.58,-1073.6 2176.63,-1073.6"/>
<text text-anchor="start" x="2183.63" y="-1087" font-family="Arial Bold" font-size="18.00">public.state_action</text>
<text text-anchor="start" x="2319.09" y="-1087" font-family="Arial" font-size="14.00">    </text>
<text text-anchor="start" x="2350.2" y="-1087" font-family="Arial" font-size="14.00" fill="#666666">[BASE TABLE]</text>
<polygon fill="none" stroke="black" points="2176.63,-1042.8 2176.63,-1073.6 2450.58,-1073.6 2450.58,-1042.8 2176.63,-1042.8"/>
<text text-anchor="start" x="2183.63" y="-1055" font-family="Arial" font-size="14.00">model_key </text>
<text text-anchor="start" x="2255.22" y="-1055" font-family="Arial" font-size="14.00" fill="#666666">[text]</text>
<polygon fill="none" stroke="black" points="2176.63,-1012 2176.63,-1042.8 2450.58,-1042.8 2450.58,-1012 2176.63,-1012"/>
<text text-anchor="start" x="2183.63" y="-1024.2" font-family="Arial" font-size="14.00">state_key </text>
<text text-anchor="start" x="2247.44" y="-1024.2" font-family="Arial" font-size="14.00" fill="#666666">[text]</text>
<polygon fill="none" stroke="black" points="2176.63,-981.2 2176.63,-1012 2450.58,-1012 2450.58,-981.2 2176.63,-981.2"/>
<text text-anchor="start" x="2183.63" y="-993.4" font-family="Arial" font-size="14.00">state_action_key </text>
<text text-anchor="start" x="2292.59" y="-993.4" font-family="Arial" font-size="14.00" fill="#666666">[text]</text>
<polygon fill="none" stroke="black" points="2176.63,-950.4 2176.63,-981.2 2450.58,-981.2 2450.58,-950.4 2176.63,-950.4"/>
<text text-anchor="start" x="2183.63" y="-962.6" font-family="Arial" font-size="14.00">action_key </text>
<text text-anchor="start" x="2254.45" y="-962.6" font-family="Arial" font-size="14.00" fill="#666666">[text]</text>
<polygon fill="none" stroke="black" points="2176.63,-919.6 2176.63,-950.4 2450.58,-950.4 2450.58,-919.6 2176.63,-919.6"/>
<text text-anchor="start" x="2183.63" y="-931.8" font-family="Arial" font-size="14.00">action_when </text>
<text text-anchor="start" x="2266.13" y="-931.8" font-family="Arial" font-size="14.00" fill="#666666">[state_action_when]</text>
</g>
<!-- public.state_action&#45;&gt;public.action -->
<g id="edge7" class="edge">
<title>public.state_action:model_key&#45;&gt;public.action:model_key</title>
<path fill="none" stroke="black" d="M2165.42,-1057.66C2074.01,-1047.32 2200.2,-890.33 2124.6,-814.8 2022.14,-712.43 1631.42,-681.6 1486.58,-681.6"/>
<polygon fill="black" stroke="black" points="2165.31,-1057.66 2175.06,-1062.68 2170.64,-1057.94 2174.96,-1058.16 2174.96,-1058.16 2174.96,-1058.16 2170.64,-1057.94 2175.53,-1053.69 2165.31,-1057.66"/>
<text text-anchor="start" x="2182.63" y="-1068.2" font-family="Arial" font-size="10.00">FOREIGN KEY (model_key, action_key) REFERENCES action(model_key, action_key) ON DELETE CASCADE</text>
</g>
</g>
</svg>
