<?xml version="1.0" encoding="UTF-8" standalone="no"?>
<!DOCTYPE svg PUBLIC "-//W3C//DTD SVG 1.1//EN"
 "http://www.w3.org/Graphics/SVG/1.1/DTD/svg11.dtd">
<!-- Generated by graphviz version 12.1.2 (20240928.0832)
 -->
<!-- Title: public.query_guarantee Pages: 1 -->
<svg width="1321pt" height="571pt"
 viewBox="0.00 0.00 1320.67 571.20" xmlns="http://www.w3.org/2000/svg" xmlns:xlink="http://www.w3.org/1999/xlink">
<g id="graph0" class="graph" transform="scale(1 1) rotate(0) translate(4 567.2)">
<title>public.query_guarantee</title>
<polygon fill="white" stroke="none" points="-4,4 -4,-567.2 1316.67,-567.2 1316.67,4 -4,4"/>
<!-- public.query_guarantee -->
<g id="node1" class="node">
<title>public.query_guarantee</title>
<polygon fill="#efefef" stroke="none" points="495.7,-481.4 495.7,-517 803.62,-517 803.62,-481.4 495.7,-481.4"/>
<polygon fill="none" stroke="black" points="495.7,-481.4 495.7,-517 803.62,-517 803.62,-481.4 495.7,-481.4"/>
<text text-anchor="start" x="502.7" y="-494.8" font-family="Arial Bold" font-size="18.00">public.query_guarantee</text>
<text text-anchor="start" x="672.13" y="-494.8" font-family="Arial" font-size="14.00">    </text>
<text text-anchor="start" x="703.25" y="-494.8" font-family="Arial" font-size="14.00" fill="#666666">[BASE TABLE]</text>
<polygon fill="none" stroke="black" points="495.7,-450.6 495.7,-481.4 803.62,-481.4 803.62,-450.6 495.7,-450.6"/>
<text text-anchor="start" x="502.7" y="-462.8" font-family="Arial" font-size="14.00">model_key </text>
<text text-anchor="start" x="574.3" y="-462.8" font-family="Arial" font-size="14.00" fill="#666666">[text]</text>
<polygon fill="none" stroke="black" points="495.7,-419.8 495.7,-450.6 803.62,-450.6 803.62,-419.8 495.7,-419.8"/>
<text text-anchor="start" x="502.7" y="-432" font-family="Arial" font-size="14.00">query_key </text>
<text text-anchor="start" x="571.19" y="-432" font-family="Arial" font-size="14.00" fill="#666666">[text]</text>
<polygon fill="none" stroke="black" points="495.7,-389 495.7,-419.8 803.62,-419.8 803.62,-389 495.7,-389"/>
<text text-anchor="start" x="502.7" y="-401.2" font-family="Arial" font-size="14.00">logic_key </text>
<text text-anchor="start" x="564.96" y="-401.2" font-family="Arial" font-size="14.00" fill="#666666">[text]</text>
<polygon fill="none" stroke="black" stroke-width="3" points="494.2,-387.5 494.2,-518.5 805.12,-518.5 805.12,-387.5 494.2,-387.5"/>
</g>
<!-- public.logic -->
<g id="node2" class="node">
<title>public.logic</title>
<polygon fill="#efefef" stroke="none" points="372.68,-228 372.68,-263.6 596.65,-263.6 596.65,-228 372.68,-228"/>
<polygon fill="none" stroke="black" points="372.68,-228 372.68,-263.6 596.65,-263.6 596.65,-228 372.68,-228"/>
<text text-anchor="start" x="379.68" y="-241.4" font-family="Arial Bold" font-size="18.00">public.logic</text>
<text text-anchor="start" x="465.16" y="-241.4" font-family="Arial" font-size="14.00">    </text>
<text text-anchor="start" x="496.27" y="-241.4" font-family="Arial" font-size="14.00" fill="#666666">[BASE TABLE]</text>
<polygon fill="none" stroke="black" points="372.68,-197.2 372.68,-228 596.65,-228 596.65,-197.2 372.68,-197.2"/>
<text text-anchor="start" x="379.68" y="-209.4" font-family="Arial" font-size="14.00">logic_key </text>
<text text-anchor="start" x="441.93" y="-209.4" font-family="Arial" font-size="14.00" fill="#666666">[text]</text>
<polygon fill="none" stroke="black" points="372.68,-166.4 372.68,-197.2 596.65,-197.2 596.65,-166.4 372.68,-166.4"/>
<text text-anchor="start" x="379.68" y="-178.6" font-family="Arial" font-size="14.00">model_key </text>
<text text-anchor="start" x="451.27" y="-178.6" font-family="Arial" font-size="14.00" fill="#666666">[text]</text>
<polygon fill="none" stroke="black" points="372.68,-135.6 372.68,-166.4 596.65,-166.4 596.65,-135.6 372.68,-135.6"/>
<text text-anchor="start" x="379.68" y="-147.8" font-family="Arial" font-size="14.00">sort_order </text>
<text text-anchor="start" x="447.37" y="-147.8" font-family="Arial" font-size="14.00" fill="#666666">[integer]</text>
<polygon fill="none" stroke="black" points="372.68,-104.8 372.68,-135.6 596.65,-135.6 596.65,-104.8 372.68,-104.8"/>
<text text-anchor="start" x="379.68" y="-117" font-family="Arial" font-size="14.00">description </text>
<text text-anchor="start" x="451.27" y="-117" font-family="Arial" font-size="14.00" fill="#666666">[text]</text>
<polygon fill="none" stroke="black" points="372.68,-74 372.68,-104.8 596.65,-104.8 596.65,-74 372.68,-74"/>
<text text-anchor="start" x="379.68" y="-86.2" font-family="Arial" font-size="14.00">notation </text>
<text text-anchor="start" x="433.39" y="-86.2" font-family="Arial" font-size="14.00" fill="#666666">[notation]</text>
<polygon fill="none" stroke="black" points="372.68,-43.2 372.68,-74 596.65,-74 596.65,-43.2 372.68,-43.2"/>
<text text-anchor="start" x="379.68" y="-55.4" font-family="Arial" font-size="14.00">specification </text>
<text text-anchor="start" x="460.61" y="-55.4" font-family="Arial" font-size="14.00" fill="#666666">[text]</text>
</g>
<!-- public.query_guarantee&#45;&gt;public.logic -->
<g id="edge1" class="edge">
<title>public.query_guarantee:model_key&#45;&gt;public.logic:model_key</title>
<path fill="none" stroke="black" d="M484.56,-464.93C443.27,-455.42 466.14,-384.37 495.7,-342.8 523.31,-303.98 569.04,-345.62 596.65,-306.8 628.84,-261.52 653.2,-181.8 597.65,-181.8"/>
<polygon fill="black" stroke="black" points="484.43,-464.92 493.9,-470.44 489.73,-465.48 494.04,-465.93 494.04,-465.93 494.04,-465.93 489.73,-465.48 494.84,-461.49 484.43,-464.92"/>
<text text-anchor="start" x="7" y="-476" font-family="Arial" font-size="10.00">FOREIGN KEY (model_key, logic_key) REFERENCES logic(model_key, logic_key) ON DELETE CASCADE</text>
</g>
<!-- public.query -->
<g id="node3" class="node">
<title>public.query</title>
<polygon fill="#efefef" stroke="none" points="701.18,-212.6 701.18,-248.2 930.14,-248.2 930.14,-212.6 701.18,-212.6"/>
<polygon fill="none" stroke="black" points="701.18,-212.6 701.18,-248.2 930.14,-248.2 930.14,-212.6 701.18,-212.6"/>
<text text-anchor="start" x="708.18" y="-226" font-family="Arial Bold" font-size="18.00">public.query</text>
<text text-anchor="start" x="798.65" y="-226" font-family="Arial" font-size="14.00">    </text>
<text text-anchor="start" x="829.77" y="-226" font-family="Arial" font-size="14.00" fill="#666666">[BASE TABLE]</text>
<polygon fill="none" stroke="black" points="701.18,-181.8 701.18,-212.6 930.14,-212.6 930.14,-181.8 701.18,-181.8"/>
<text text-anchor="start" x="708.18" y="-194" font-family="Arial" font-size="14.00">model_key </text>
<text text-anchor="start" x="779.77" y="-194" font-family="Arial" font-size="14.00" fill="#666666">[text]</text>
<polygon fill="none" stroke="black" points="701.18,-151 701.18,-181.8 930.14,-181.8 930.14,-151 701.18,-151"/>
<text text-anchor="start" x="708.18" y="-163.2" font-family="Arial" font-size="14.00">class_key </text>
<text text-anchor="start" x="773.54" y="-163.2" font-family="Arial" font-size="14.00" fill="#666666">[text]</text>
<polygon fill="none" stroke="black" points="701.18,-120.2 701.18,-151 930.14,-151 930.14,-120.2 701.18,-120.2"/>
<text text-anchor="start" x="708.18" y="-132.4" font-family="Arial" font-size="14.00">query_key </text>
<text text-anchor="start" x="776.66" y="-132.4" font-family="Arial" font-size="14.00" fill="#666666">[text]</text>
<polygon fill="none" stroke="black" points="701.18,-89.4 701.18,-120.2 930.14,-120.2 930.14,-89.4 701.18,-89.4"/>
<text text-anchor="start" x="708.18" y="-101.6" font-family="Arial" font-size="14.00">name </text>
<text text-anchor="start" x="747.09" y="-101.6" font-family="Arial" font-size="14.00" fill="#666666">[text]</text>
<polygon fill="none" stroke="black" points="701.18,-58.6 701.18,-89.4 930.14,-89.4 930.14,-58.6 701.18,-58.6"/>
<text text-anchor="start" x="708.18" y="-70.8" font-family="Arial" font-size="14.00">details </text>
<text text-anchor="start" x="752.54" y="-70.8" font-family="Arial" font-size="14.00" fill="#666666">[text]</text>
</g>
<!-- public.query_guarantee&#45;&gt;public.query -->
<g id="edge2" class="edge">
<title>public.query_guarantee:model_key&#45;&gt;public.query:model_key</title>
<path fill="none" stroke="black" d="M814.99,-464.9C855.6,-455.36 830.53,-386.01 803.62,-342.8 776.69,-299.56 728.16,-334.61 701.18,-291.4 679,-255.89 658.31,-197.2 700.18,-197.2"/>
<polygon fill="black" stroke="black" points="814.9,-464.91 804.48,-461.49 809.59,-465.47 805.28,-465.93 805.28,-465.93 805.28,-465.93 809.59,-465.47 805.43,-470.44 814.9,-464.91"/>
<text text-anchor="start" x="811.62" y="-476" font-family="Arial" font-size="10.00">FOREIGN KEY (model_key, query_key) REFERENCES query(model_key, query_key) ON DELETE CASCADE</text>
</g>
</g>
</svg>
