<?xml version="1.0" encoding="UTF-8" standalone="no"?>
<!DOCTYPE svg PUBLIC "-//W3C//DTD SVG 1.1//EN"
 "http://www.w3.org/Graphics/SVG/1.1/DTD/svg11.dtd">
<!-- Generated by graphviz version 12.1.2 (20240928.0832)
 -->
<!-- Title: public.association_uniqueness_attribute Pages: 1 -->
<svg width="1560pt" height="818pt"
 viewBox="0.00 0.00 1560.42 817.60" xmlns="http://www.w3.org/2000/svg" xmlns:xlink="http://www.w3.org/1999/xlink">
<g id="graph0" class="graph" transform="scale(1 1) rotate(0) translate(4 813.6)">
<title>public.association_uniqueness_attribute</title>
<polygon fill="white" stroke="none" points="-4,4 -4,-813.6 1556.42,-813.6 1556.42,4 -4,4"/>
<!-- public.association_uniqueness_attribute -->
<g id="node1" class="node">
<title>public.association_uniqueness_attribute</title>
<polygon fill="#efefef" stroke="none" points="542.4,-727.8 542.4,-763.4 968.33,-763.4 968.33,-727.8 542.4,-727.8"/>
<polygon fill="none" stroke="black" points="542.4,-727.8 542.4,-763.4 968.33,-763.4 968.33,-727.8 542.4,-727.8"/>
<text text-anchor="start" x="549.4" y="-741.2" font-family="Arial Bold" font-size="18.00">public.association_uniqueness_attribute</text>
<text text-anchor="start" x="836.84" y="-741.2" font-family="Arial" font-size="14.00">    </text>
<text text-anchor="start" x="867.96" y="-741.2" font-family="Arial" font-size="14.00" fill="#666666">[BASE TABLE]</text>
<polygon fill="none" stroke="black" points="542.4,-697 542.4,-727.8 968.33,-727.8 968.33,-697 542.4,-697"/>
<text text-anchor="start" x="549.4" y="-709.2" font-family="Arial" font-size="14.00">model_key </text>
<text text-anchor="start" x="621" y="-709.2" font-family="Arial" font-size="14.00" fill="#666666">[text]</text>
<polygon fill="none" stroke="black" points="542.4,-666.2 542.4,-697 968.33,-697 968.33,-666.2 542.4,-666.2"/>
<text text-anchor="start" x="549.4" y="-678.4" font-family="Arial" font-size="14.00">association_key </text>
<text text-anchor="start" x="652.91" y="-678.4" font-family="Arial" font-size="14.00" fill="#666666">[text]</text>
<polygon fill="none" stroke="black" points="542.4,-635.4 542.4,-666.2 968.33,-666.2 968.33,-635.4 542.4,-635.4"/>
<text text-anchor="start" x="549.4" y="-647.6" font-family="Arial" font-size="14.00">end_side </text>
<text text-anchor="start" x="610.12" y="-647.6" font-family="Arial" font-size="14.00" fill="#666666">[association_end]</text>
<polygon fill="none" stroke="black" points="542.4,-604.6 542.4,-635.4 968.33,-635.4 968.33,-604.6 542.4,-604.6"/>
<text text-anchor="start" x="549.4" y="-616.8" font-family="Arial" font-size="14.00">attribute_sort_order </text>
<text text-anchor="start" x="675.47" y="-616.8" font-family="Arial" font-size="14.00" fill="#666666">[integer]</text>
<polygon fill="none" stroke="black" points="542.4,-573.8 542.4,-604.6 968.33,-604.6 968.33,-573.8 542.4,-573.8"/>
<text text-anchor="start" x="549.4" y="-586" font-family="Arial" font-size="14.00">attribute_key </text>
<text text-anchor="start" x="633.45" y="-586" font-family="Arial" font-size="14.00" fill="#666666">[text]</text>
<polygon fill="none" stroke="black" stroke-width="3" points="540.9,-572.3 540.9,-764.9 969.83,-764.9 969.83,-572.3 540.9,-572.3"/>
</g>
<!-- public.attribute -->
<g id="node2" class="node">
<title>public.attribute</title>
<polygon fill="#efefef" stroke="none" points="450.39,-397.4 450.39,-433 698.34,-433 698.34,-397.4 450.39,-397.4"/>
<polygon fill="none" stroke="black" points="450.39,-397.4 450.39,-433 698.34,-433 698.34,-397.4 450.39,-397.4"/>
<text text-anchor="start" x="457.39" y="-410.8" font-family="Arial Bold" font-size="18.00">public.attribute</text>
<text text-anchor="start" x="566.85" y="-410.8" font-family="Arial" font-size="14.00">    </text>
<text text-anchor="start" x="597.97" y="-410.8" font-family="Arial" font-size="14.00" fill="#666666">[BASE TABLE]</text>
<polygon fill="none" stroke="black" points="450.39,-366.6 450.39,-397.4 698.34,-397.4 698.34,-366.6 450.39,-366.6"/>
<text text-anchor="start" x="457.39" y="-378.8" font-family="Arial" font-size="14.00">model_key </text>
<text text-anchor="start" x="528.98" y="-378.8" font-family="Arial" font-size="14.00" fill="#666666">[text]</text>
<polygon fill="none" stroke="black" points="450.39,-335.8 450.39,-366.6 698.34,-366.6 698.34,-335.8 450.39,-335.8"/>
<text text-anchor="start" x="457.39" y="-348" font-family="Arial" font-size="14.00">attribute_key </text>
<text text-anchor="start" x="541.44" y="-348" font-family="Arial" font-size="14.00" fill="#666666">[text]</text>
<polygon fill="none" stroke="black" points="450.39,-305 450.39,-335.8 698.34,-335.8 698.34,-305 450.39,-305"/>
<text text-anchor="start" x="457.39" y="-317.2" font-family="Arial" font-size="14.00">class_key </text>
<text text-anchor="start" x="522.75" y="-317.2" font-family="Arial" font-size="14.00" fill="#666666">[text]</text>
<polygon fill="none" stroke="black" points="450.39,-274.2 450.39,-305 698.34,-305 698.34,-274.2 450.39,-274.2"/>
<text text-anchor="start" x="457.39" y="-286.4" font-family="Arial" font-size="14.00">sort_order </text>
<text text-anchor="start" x="525.08" y="-286.4" font-family="Arial" font-size="14.00" fill="#666666">[integer]</text>
<polygon fill="none" stroke="black" points="450.39,-243.4 450.39,-274.2 698.34,-274.2 698.34,-243.4 450.39,-243.4"/>
<text text-anchor="start" x="457.39" y="-255.6" font-family="Arial" font-size="14.00">name </text>
<text text-anchor="start" x="496.3" y="-255.6" font-family="Arial" font-size="14.00" fill="#666666">[text]</text>
<polygon fill="none" stroke="black" points="450.39,-212.6 450.39,-243.4 698.34,-243.4 698.34,-212.6 450.39,-212.6"/>
<text text-anchor="start" x="457.39" y="-224.8" font-family="Arial" font-size="14.00">details </text>
<text text-anchor="start" x="501.75" y="-224.8" font-family="Arial" font-size="14.00" fill="#666666">[text]</text>
<polygon fill="none" stroke="black" points="450.39,-181.8 450.39,-212.6 698.34,-212.6 698.34,-181.8 450.39,-181.8"/>
<text text-anchor="start" x="457.39" y="-194" font-family="Arial" font-size="14.00">data_type_rules </text>
<text text-anchor="start" x="560.9" y="-194" font-family="Arial" font-size="14.00" fill="#666666">[text]</text>
<polygon fill="none" stroke="black" points="450.39,-151 450.39,-181.8 698.34,-181.8 698.34,-151 450.39,-151"/>
<text text-anchor="start" x="457.39" y="-163.2" font-family="Arial" font-size="14.00">data_type_key </text>
<text text-anchor="start" x="552.35" y="-163.2" font-family="Arial" font-size="14.00" fill="#666666">[text]</text>
<polygon fill="none" stroke="black" points="450.39,-120.2 450.39,-151 698.34,-151 698.34,-120.2 450.39,-120.2"/>
<text text-anchor="start" x="457.39" y="-132.4" font-family="Arial" font-size="14.00">derivation_policy_key </text>
<text text-anchor="start" x="595.13" y="-132.4" font-family="Arial" font-size="14.00" fill="#666666">[text]</text>
<polygon fill="none" stroke="black" points="450.39,-89.4 450.39,-120.2 698.34,-120.2 698.34,-89.4 450.39,-89.4"/>
<text text-anchor="start" x="457.39" y="-101.6" font-family="Arial" font-size="14.00">nullable </text>
<text text-anchor="start" x="509.54" y="-101.6" font-family="Arial" font-size="14.00" fill="#666666">[boolean]</text>
<polygon fill="none" stroke="black" points="450.39,-58.6 450.39,-89.4 698.34,-89.4 698.34,-58.6 450.39,-58.6"/>
<text text-anchor="start" x="457.39" y="-70.8" font-family="Arial" font-size="14.00">uml_comment </text>
<text text-anchor="start" x="549.19" y="-70.8" font-family="Arial" font-size="14.00" fill="#666666">[text]</text>
</g>
<!-- public.association_uniqueness_attribute&#45;&gt;public.attribute -->
<g id="edge1" class="edge">
<title>public.association_uniqueness_attribute:model_key&#45;&gt;public.attribute:model_key</title>
<path fill="none" stroke="black" d="M531.03,-711.7C462.42,-701.87 496.26,-591.04 542.4,-527.6 585.33,-468.59 655.26,-535.1 698.34,-476.2 723.06,-442.41 741.21,-382 699.34,-382"/>
<polygon fill="black" stroke="black" points="531.09,-711.7 540.76,-716.87 536.41,-712.06 540.73,-712.35 540.73,-712.35 540.73,-712.35 536.41,-712.06 541.37,-707.89 531.09,-711.7"/>
<text text-anchor="start" x="7" y="-722.4" font-family="Arial" font-size="10.00">FOREIGN KEY (model_key, attribute_key) REFERENCES attribute(model_key, attribute_key) ON DELETE CASCADE</text>
</g>
<!-- public.association -->
<g id="node3" class="node">
<title>public.association</title>
<polygon fill="#efefef" stroke="none" points="802.39,-412.8 802.39,-448.4 1070.35,-448.4 1070.35,-412.8 802.39,-412.8"/>
<polygon fill="none" stroke="black" points="802.39,-412.8 802.39,-448.4 1070.35,-448.4 1070.35,-412.8 802.39,-412.8"/>
<text text-anchor="start" x="809.39" y="-426.2" font-family="Arial Bold" font-size="18.00">public.association</text>
<text text-anchor="start" x="938.86" y="-426.2" font-family="Arial" font-size="14.00">    </text>
<text text-anchor="start" x="969.97" y="-426.2" font-family="Arial" font-size="14.00" fill="#666666">[BASE TABLE]</text>
<polygon fill="none" stroke="black" points="802.39,-382 802.39,-412.8 1070.35,-412.8 1070.35,-382 802.39,-382"/>
<text text-anchor="start" x="809.39" y="-394.2" font-family="Arial" font-size="14.00">model_key </text>
<text text-anchor="start" x="880.98" y="-394.2" font-family="Arial" font-size="14.00" fill="#666666">[text]</text>
<polygon fill="none" stroke="black" points="802.39,-351.2 802.39,-382 1070.35,-382 1070.35,-351.2 802.39,-351.2"/>
<text text-anchor="start" x="809.39" y="-363.4" font-family="Arial" font-size="14.00">association_key </text>
<text text-anchor="start" x="912.89" y="-363.4" font-family="Arial" font-size="14.00" fill="#666666">[text]</text>
<polygon fill="none" stroke="black" points="802.39,-320.4 802.39,-351.2 1070.35,-351.2 1070.35,-320.4 802.39,-320.4"/>
<text text-anchor="start" x="809.39" y="-332.6" font-family="Arial" font-size="14.00">from_class_key </text>
<text text-anchor="start" x="910.53" y="-332.6" font-family="Arial" font-size="14.00" fill="#666666">[text]</text>
<polygon fill="none" stroke="black" points="802.39,-289.6 802.39,-320.4 1070.35,-320.4 1070.35,-289.6 802.39,-289.6"/>
<text text-anchor="start" x="809.39" y="-301.8" font-family="Arial" font-size="14.00">from_multiplicity_lower </text>
<text text-anchor="start" x="954.87" y="-301.8" font-family="Arial" font-size="14.00" fill="#666666">[integer]</text>
<polygon fill="none" stroke="black" points="802.39,-258.8 802.39,-289.6 1070.35,-289.6 1070.35,-258.8 802.39,-258.8"/>
<text text-anchor="start" x="809.39" y="-271" font-family="Arial" font-size="14.00">from_multiplicity_higher </text>
<text text-anchor="start" x="960.33" y="-271" font-family="Arial" font-size="14.00" fill="#666666">[integer]</text>
<polygon fill="none" stroke="black" points="802.39,-228 802.39,-258.8 1070.35,-258.8 1070.35,-228 802.39,-228"/>
<text text-anchor="start" x="809.39" y="-240.2" font-family="Arial" font-size="14.00">to_class_key </text>
<text text-anchor="start" x="894.21" y="-240.2" font-family="Arial" font-size="14.00" fill="#666666">[text]</text>
<polygon fill="none" stroke="black" points="802.39,-197.2 802.39,-228 1070.35,-228 1070.35,-197.2 802.39,-197.2"/>
<text text-anchor="start" x="809.39" y="-209.4" font-family="Arial" font-size="14.00">to_multiplicity_lower </text>
<text text-anchor="start" x="938.54" y="-209.4" font-family="Arial" font-size="14.00" fill="#666666">[integer]</text>
<polygon fill="none" stroke="black" points="802.39,-166.4 802.39,-197.2 1070.35,-197.2 1070.35,-166.4 802.39,-166.4"/>
<text text-anchor="start" x="809.39" y="-178.6" font-family="Arial" font-size="14.00">to_multiplicity_higher </text>
<text text-anchor="start" x="944.01" y="-178.6" font-family="Arial" font-size="14.00" fill="#666666">[integer]</text>
<polygon fill="none" stroke="black" points="802.39,-135.6 802.39,-166.4 1070.35,-166.4 1070.35,-135.6 802.39,-135.6"/>
<text text-anchor="start" x="809.39" y="-147.8" font-family="Arial" font-size="14.00">name </text>
<text text-anchor="start" x="848.3" y="-147.8" font-family="Arial" font-size="14.00" fill="#666666">[text]</text>
<polygon fill="none" stroke="black" points="802.39,-104.8 802.39,-135.6 1070.35,-135.6 1070.35,-104.8 802.39,-104.8"/>
<text text-anchor="start" x="809.39" y="-117" font-family="Arial" font-size="14.00">association_class_key </text>
<text text-anchor="start" x="952.57" y="-117" font-family="Arial" font-size="14.00" fill="#666666">[text]</text>
<polygon fill="none" stroke="black" points="802.39,-74 802.39,-104.8 1070.35,-104.8 1070.35,-74 802.39,-74"/>
<text text-anchor="start" x="809.39" y="-86.2" font-family="Arial" font-size="14.00">details </text>
<text text-anchor="start" x="853.74" y="-86.2" font-family="Arial" font-size="14.00" fill="#666666">[text]</text>
<polygon fill="none" stroke="black" points="802.39,-43.2 802.39,-74 1070.35,-74 1070.35,-43.2 802.39,-43.2"/>
<text text-anchor="start" x="809.39" y="-55.4" font-family="Arial" font-size="14.00">uml_comment </text>
<text text-anchor="start" x="901.19" y="-55.4" font-family="Arial" font-size="14.00" fill="#666666">[text]</text>
</g>
<!-- public.association_uniqueness_attribute&#45;&gt;public.association -->
<g id="edge2" class="edge">
<title>public.association_uniqueness_attribute:model_key&#45;&gt;public.association:model_key</title>
<path fill="none" stroke="black" d="M979.72,-711.68C1048.6,-701.64 1017.73,-588.53 968.33,-527.6 920.8,-468.98 850.07,-550.1 802.39,-491.6 775.93,-459.15 759.52,-397.4 801.39,-397.4"/>
<polygon fill="black" stroke="black" points="979.64,-711.69 969.35,-707.89 974.32,-712.06 970,-712.35 970,-712.35 970,-712.35 974.32,-712.06 969.97,-716.87 979.64,-711.69"/>
<text text-anchor="start" x="976.33" y="-722.4" font-family="Arial" font-size="10.00">FOREIGN KEY (model_key, association_key) REFERENCES association(model_key, association_key) ON DELETE CASCADE</text>
</g>
</g>
</svg>
