<?xml version="1.0" encoding="UTF-8" standalone="no"?>
<!DOCTYPE svg PUBLIC "-//W3C//DTD SVG 1.1//EN"
 "http://www.w3.org/Graphics/SVG/1.1/DTD/svg11.dtd">
<!-- Generated by graphviz version 12.1.2 (20240928.0832)
 -->
<!-- Title: public.event Pages: 1 -->
<svg width="1168pt" height="1160pt"
 viewBox="0.00 0.00 1168.27 1160.40" xmlns="http://www.w3.org/2000/svg" xmlns:xlink="http://www.w3.org/1999/xlink">
<g id="graph0" class="graph" transform="scale(1 1) rotate(0) translate(4 1156.4)">
<title>public.event</title>
<polygon fill="white" stroke="none" points="-4,4 -4,-1156.4 1164.27,-1156.4 1164.27,4 -4,4"/>
<!-- public.event -->
<g id="node1" class="node">
<title>public.event</title>
<polygon fill="#efefef" stroke="none" points="430.96,-635.4 430.96,-671 657.92,-671 657.92,-635.4 430.96,-635.4"/>
<polygon fill="none" stroke="black" points="430.96,-635.4 430.96,-671 657.92,-671 657.92,-635.4 430.96,-635.4"/>
<text text-anchor="start" x="437.96" y="-648.8" font-family="Arial Bold" font-size="18.00">public.event</text>
<text text-anchor="start" x="526.43" y="-648.8" font-family="Arial" font-size="14.00">    </text>
<text text-anchor="start" x="557.55" y="-648.8" font-family="Arial" font-size="14.00" fill="#666666">[BASE TABLE]</text>
<polygon fill="none" stroke="black" points="430.96,-604.6 430.96,-635.4 657.92,-635.4 657.92,-604.6 430.96,-604.6"/>
<text text-anchor="start" x="437.96" y="-616.8" font-family="Arial" font-size="14.00">model_key </text>
<text text-anchor="start" x="509.55" y="-616.8" font-family="Arial" font-size="14.00" fill="#666666">[text]</text>
<polygon fill="none" stroke="black" points="430.96,-573.8 430.96,-604.6 657.92,-604.6 657.92,-573.8 430.96,-573.8"/>
<text text-anchor="start" x="437.96" y="-586" font-family="Arial" font-size="14.00">class_key </text>
<text text-anchor="start" x="503.32" y="-586" font-family="Arial" font-size="14.00" fill="#666666">[text]</text>
<polygon fill="none" stroke="black" points="430.96,-543 430.96,-573.8 657.92,-573.8 657.92,-543 430.96,-543"/>
<text text-anchor="start" x="437.96" y="-555.2" font-family="Arial" font-size="14.00">event_key </text>
<text text-anchor="start" x="505.67" y="-555.2" font-family="Arial" font-size="14.00" fill="#666666">[text]</text>
<polygon fill="none" stroke="black" points="430.96,-512.2 430.96,-543 657.92,-543 657.92,-512.2 430.96,-512.2"/>
<text text-anchor="start" x="437.96" y="-524.4" font-family="Arial" font-size="14.00">name </text>
<text text-anchor="start" x="476.87" y="-524.4" font-family="Arial" font-size="14.00" fill="#666666">[text]</text>
<polygon fill="none" stroke="black" points="430.96,-481.4 430.96,-512.2 657.92,-512.2 657.92,-481.4 430.96,-481.4"/>
<text text-anchor="start" x="437.96" y="-493.6" font-family="Arial" font-size="14.00">details </text>
<text text-anchor="start" x="482.32" y="-493.6" font-family="Arial" font-size="14.00" fill="#666666">[text]</text>
<polygon fill="none" stroke="black" stroke-width="3" points="429.46,-479.9 429.46,-672.5 659.42,-672.5 659.42,-479.9 429.46,-479.9"/>
</g>
<!-- public.class -->
<g id="node2" class="node">
<title>public.class</title>
<polygon fill="#efefef" stroke="none" points="432.95,-320.4 432.95,-356 655.92,-356 655.92,-320.4 432.95,-320.4"/>
<polygon fill="none" stroke="black" points="432.95,-320.4 432.95,-356 655.92,-356 655.92,-320.4 432.95,-320.4"/>
<text text-anchor="start" x="439.95" y="-333.8" font-family="Arial Bold" font-size="18.00">public.class</text>
<text text-anchor="start" x="524.43" y="-333.8" font-family="Arial" font-size="14.00">    </text>
<text text-anchor="start" x="555.55" y="-333.8" font-family="Arial" font-size="14.00" fill="#666666">[BASE TABLE]</text>
<polygon fill="none" stroke="black" points="432.95,-289.6 432.95,-320.4 655.92,-320.4 655.92,-289.6 432.95,-289.6"/>
<text text-anchor="start" x="439.95" y="-301.8" font-family="Arial" font-size="14.00">model_key </text>
<text text-anchor="start" x="511.55" y="-301.8" font-family="Arial" font-size="14.00" fill="#666666">[text]</text>
<polygon fill="none" stroke="black" points="432.95,-258.8 432.95,-289.6 655.92,-289.6 655.92,-258.8 432.95,-258.8"/>
<text text-anchor="start" x="439.95" y="-271" font-family="Arial" font-size="14.00">class_key </text>
<text text-anchor="start" x="505.31" y="-271" font-family="Arial" font-size="14.00" fill="#666666">[text]</text>
<polygon fill="none" stroke="black" points="432.95,-228 432.95,-258.8 655.92,-258.8 655.92,-228 432.95,-228"/>
<text text-anchor="start" x="439.95" y="-240.2" font-family="Arial" font-size="14.00">name </text>
<text text-anchor="start" x="478.86" y="-240.2" font-family="Arial" font-size="14.00" fill="#666666">[text]</text>
<polygon fill="none" stroke="black" points="432.95,-197.2 432.95,-228 655.92,-228 655.92,-197.2 432.95,-197.2"/>
<text text-anchor="start" x="439.95" y="-209.4" font-family="Arial" font-size="14.00">subdomain_key </text>
<text text-anchor="start" x="541.91" y="-209.4" font-family="Arial" font-size="14.00" fill="#666666">[text]</text>
<polygon fill="none" stroke="black" points="432.95,-166.4 432.95,-197.2 655.92,-197.2 655.92,-166.4 432.95,-166.4"/>
<text text-anchor="start" x="439.95" y="-178.6" font-family="Arial" font-size="14.00">actor_key </text>
<text text-anchor="start" x="504.54" y="-178.6" font-family="Arial" font-size="14.00" fill="#666666">[text]</text>
<polygon fill="none" stroke="black" points="432.95,-135.6 432.95,-166.4 655.92,-166.4 655.92,-135.6 432.95,-135.6"/>
<text text-anchor="start" x="439.95" y="-147.8" font-family="Arial" font-size="14.00">superclass_of_key </text>
<text text-anchor="start" x="559.79" y="-147.8" font-family="Arial" font-size="14.00" fill="#666666">[text]</text>
<polygon fill="none" stroke="black" points="432.95,-104.8 432.95,-135.6 655.92,-135.6 655.92,-104.8 432.95,-104.8"/>
<text text-anchor="start" x="439.95" y="-117" font-family="Arial" font-size="14.00">subclass_of_key </text>
<text text-anchor="start" x="547.35" y="-117" font-family="Arial" font-size="14.00" fill="#666666">[text]</text>
<polygon fill="none" stroke="black" points="432.95,-74 432.95,-104.8 655.92,-104.8 655.92,-74 432.95,-74"/>
<text text-anchor="start" x="439.95" y="-86.2" font-family="Arial" font-size="14.00">details </text>
<text text-anchor="start" x="484.31" y="-86.2" font-family="Arial" font-size="14.00" fill="#666666">[text]</text>
<polygon fill="none" stroke="black" points="432.95,-43.2 432.95,-74 655.92,-74 655.92,-43.2 432.95,-43.2"/>
<text text-anchor="start" x="439.95" y="-55.4" font-family="Arial" font-size="14.00">uml_comment </text>
<text text-anchor="start" x="531.76" y="-55.4" font-family="Arial" font-size="14.00" fill="#666666">[text]</text>
</g>
<!-- public.event&#45;&gt;public.class -->
<g id="edge1" class="edge">
<title>public.event:model_key&#45;&gt;public.class:model_key</title>
<path fill="none" stroke="black" d="M669.31,-619.4C798.73,-604.21 793.37,-305 656.92,-305"/>
<polygon fill="black" stroke="black" points="669.24,-619.41 658.99,-615.49 663.91,-619.71 659.59,-619.96 659.59,-619.96 659.59,-619.96 663.91,-619.71 659.51,-624.47 669.24,-619.41"/>
<text text-anchor="start" x="665.92" y="-630" font-family="Arial" font-size="10.00">FOREIGN KEY (model_key, class_key) REFERENCES class(model_key, class_key) ON DELETE CASCADE</text>
</g>
<!-- public.event_parameter -->
<g id="node3" class="node">
<title>public.event_parameter</title>
<polygon fill="#efefef" stroke="none" points="197.49,-1042.8 197.49,-1078.4 505.39,-1078.4 505.39,-1042.8 197.49,-1042.8"/>
<polygon fill="none" stroke="black" points="197.49,-1042.8 197.49,-1078.4 505.39,-1078.4 505.39,-1042.8 197.49,-1042.8"/>
<text text-anchor="start" x="204.49" y="-1056.2" font-family="Arial Bold" font-size="18.00">public.event_parameter</text>
<text text-anchor="start" x="373.9" y="-1056.2" font-family="Arial" font-size="14.00">    </text>
<text text-anchor="start" x="405.02" y="-1056.2" font-family="Arial" font-size="14.00" fill="#666666">[BASE TABLE]</text>
<polygon fill="none" stroke="black" points="197.49,-1012 197.49,-1042.8 505.39,-1042.8 505.39,-1012 197.49,-1012"/>
<text text-anchor="start" x="204.49" y="-1024.2" font-family="Arial" font-size="14.00">model_key </text>
<text text-anchor="start" x="276.08" y="-1024.2" font-family="Arial" font-size="14.00" fill="#666666">[text]</text>
<polygon fill="none" stroke="black" points="197.49,-981.2 197.49,-1012 505.39,-1012 505.39,-981.2 197.49,-981.2"/>
<text text-anchor="start" x="204.49" y="-993.4" font-family="Arial" font-size="14.00">event_key </text>
<text text-anchor="start" x="272.2" y="-993.4" font-family="Arial" font-size="14.00" fill="#666666">[text]</text>
<polygon fill="none" stroke="black" points="197.49,-950.4 197.49,-981.2 505.39,-981.2 505.39,-950.4 197.49,-950.4"/>
<text text-anchor="start" x="204.49" y="-962.6" font-family="Arial" font-size="14.00">parameter_key </text>
<text text-anchor="start" x="301.75" y="-962.6" font-family="Arial" font-size="14.00" fill="#666666">[text]</text>
<polygon fill="none" stroke="black" points="197.49,-919.6 197.49,-950.4 505.39,-950.4 505.39,-919.6 197.49,-919.6"/>
<text text-anchor="start" x="204.49" y="-931.8" font-family="Arial" font-size="14.00">name </text>
<text text-anchor="start" x="243.4" y="-931.8" font-family="Arial" font-size="14.00" fill="#666666">[text]</text>
<polygon fill="none" stroke="black" points="197.49,-888.8 197.49,-919.6 505.39,-919.6 505.39,-888.8 197.49,-888.8"/>
<text text-anchor="start" x="204.49" y="-901" font-family="Arial" font-size="14.00">sort_order </text>
<text text-anchor="start" x="272.18" y="-901" font-family="Arial" font-size="14.00" fill="#666666">[integer]</text>
<polygon fill="none" stroke="black" points="197.49,-858 197.49,-888.8 505.39,-888.8 505.39,-858 197.49,-858"/>
<text text-anchor="start" x="204.49" y="-870.2" font-family="Arial" font-size="14.00">data_type_rules </text>
<text text-anchor="start" x="308" y="-870.2" font-family="Arial" font-size="14.00" fill="#666666">[text]</text>
<polygon fill="none" stroke="black" points="197.49,-827.2 197.49,-858 505.39,-858 505.39,-827.2 197.49,-827.2"/>
<text text-anchor="start" x="204.49" y="-839.4" font-family="Arial" font-size="14.00">data_type_key </text>
<text text-anchor="start" x="299.44" y="-839.4" font-family="Arial" font-size="14.00" fill="#666666">[text]</text>
</g>
<!-- public.event_parameter&#45;&gt;public.event -->
<g id="edge2" class="edge">
<title>public.event_parameter:model_key&#45;&gt;public.event:model_key</title>
<path fill="none" stroke="black" d="M516.05,-1024.93C556.15,-1002.27 526.06,-830.07 505.39,-784 487.2,-743.44 449.28,-757.7 430.96,-717.2 413.15,-677.84 386.76,-620 429.96,-620"/>
<polygon fill="black" stroke="black" points="516.4,-1024.84 505.6,-1022.96 511.24,-1026.16 507.04,-1027.23 507.04,-1027.23 507.04,-1027.23 511.24,-1026.16 507.83,-1031.68 516.4,-1024.84"/>
<text text-anchor="start" x="7" y="-1037.4" font-family="Arial" font-size="10.00">FOREIGN KEY (model_key, event_key) REFERENCES event(model_key, event_key) ON DELETE CASCADE</text>
</g>
<!-- public.transition -->
<g id="node4" class="node">
<title>public.transition</title>
<polygon fill="#efefef" stroke="none" points="609.45,-1073.6 609.45,-1109.2 865.43,-1109.2 865.43,-1073.6 609.45,-1073.6"/>
<polygon fill="none" stroke="black" points="609.45,-1073.6 609.45,-1109.2 865.43,-1109.2 865.43,-1073.6 609.45,-1073.6"/>
<text text-anchor="start" x="616.45" y="-1087" font-family="Arial Bold" font-size="18.00">public.transition</text>
<text text-anchor="start" x="733.94" y="-1087" font-family="Arial" font-size="14.00">    </text>
<text text-anchor="start" x="765.05" y="-1087" font-family="Arial" font-size="14.00" fill="#666666">[BASE TABLE]</text>
<polygon fill="none" stroke="black" points="609.45,-1042.8 609.45,-1073.6 865.43,-1073.6 865.43,-1042.8 609.45,-1042.8"/>
<text text-anchor="start" x="616.45" y="-1055" font-family="Arial" font-size="14.00">model_key </text>
<text text-anchor="start" x="688.05" y="-1055" font-family="Arial" font-size="14.00" fill="#666666">[text]</text>
<polygon fill="none" stroke="black" points="609.45,-1012 609.45,-1042.8 865.43,-1042.8 865.43,-1012 609.45,-1012"/>
<text text-anchor="start" x="616.45" y="-1024.2" font-family="Arial" font-size="14.00">class_key </text>
<text text-anchor="start" x="681.81" y="-1024.2" font-family="Arial" font-size="14.00" fill="#666666">[text]</text>
<polygon fill="none" stroke="black" points="609.45,-981.2 609.45,-1012 865.43,-1012 865.43,-981.2 609.45,-981.2"/>
<text text-anchor="start" x="616.45" y="-993.4" font-family="Arial" font-size="14.00">transition_key </text>
<text text-anchor="start" x="706.72" y="-993.4" font-family="Arial" font-size="14.00" fill="#666666">[text]</text>
<polygon fill="none" stroke="black" points="609.45,-950.4 609.45,-981.2 865.43,-981.2 865.43,-950.4 609.45,-950.4"/>
<text text-anchor="start" x="616.45" y="-962.6" font-family="Arial" font-size="14.00">from_state_key </text>
<text text-anchor="start" x="716.05" y="-962.6" font-family="Arial" font-size="14.00" fill="#666666">[text]</text>
<polygon fill="none" stroke="black" points="609.45,-919.6 609.45,-950.4 865.43,-950.4 865.43,-919.6 609.45,-919.6"/>
<text text-anchor="start" x="616.45" y="-931.8" font-family="Arial" font-size="14.00">event_key </text>
<text text-anchor="start" x="684.16" y="-931.8" font-family="Arial" font-size="14.00" fill="#666666">[text]</text>
<polygon fill="none" stroke="black" points="609.45,-888.8 609.45,-919.6 865.43,-919.6 865.43,-888.8 609.45,-888.8"/>
<text text-anchor="start" x="616.45" y="-901" font-family="Arial" font-size="14.00">guard_key </text>
<text text-anchor="start" x="685.72" y="-901" font-family="Arial" font-size="14.00" fill="#666666">[text]</text>
<polygon fill="none" stroke="black" points="609.45,-858 609.45,-888.8 865.43,-888.8 865.43,-858 609.45,-858"/>
<text text-anchor="start" x="616.45" y="-870.2" font-family="Arial" font-size="14.00">action_key </text>
<text text-anchor="start" x="687.27" y="-870.2" font-family="Arial" font-size="14.00" fill="#666666">[text]</text>
<polygon fill="none" stroke="black" points="609.45,-827.2 609.45,-858 865.43,-858 865.43,-827.2 609.45,-827.2"/>
<text text-anchor="start" x="616.45" y="-839.4" font-family="Arial" font-size="14.00">to_state_key </text>
<text text-anchor="start" x="699.73" y="-839.4" font-family="Arial" font-size="14.00" fill="#666666">[text]</text>
<polygon fill="none" stroke="black" points="609.45,-796.4 609.45,-827.2 865.43,-827.2 865.43,-796.4 609.45,-796.4"/>
<text text-anchor="start" x="616.45" y="-808.6" font-family="Arial" font-size="14.00">uml_comment </text>
<text text-anchor="start" x="708.26" y="-808.6" font-family="Arial" font-size="14.00" fill="#666666">[text]</text>
</g>
<!-- public.transition&#45;&gt;public.event -->
<g id="edge3" class="edge">
<title>public.transition:model_key&#45;&gt;public.event:model_key</title>
<path fill="none" stroke="black" d="M598.27,-1056.08C544.83,-1032.01 580.57,-810.39 609.45,-753.2 621.55,-729.25 645.74,-741.11 657.92,-717.2 677.53,-678.7 702.12,-620 658.92,-620"/>
<polygon fill="black" stroke="black" points="598.34,-1056.09 607.21,-1062.54 603.56,-1057.18 607.8,-1058.06 607.8,-1058.06 607.8,-1058.06 603.56,-1057.18 609.04,-1053.73 598.34,-1056.09"/>
<text text-anchor="start" x="615.45" y="-1068.2" font-family="Arial" font-size="10.00">FOREIGN KEY (model_key, event_key) REFERENCES event(model_key, event_key) ON DELETE CASCADE</text>
</g>
</g>
</svg>
