<?xml version="1.0" encoding="UTF-8" standalone="no"?>
<!DOCTYPE svg PUBLIC "-//W3C//DTD SVG 1.1//EN"
 "http://www.w3.org/Graphics/SVG/1.1/DTD/svg11.dtd">
<!-- Generated by graphviz version 12.1.2 (20240928.0832)
 -->
<!-- Title: public.action_guarantee Pages: 1 -->
<svg width="1329pt" height="725pt"
 viewBox="0.00 0.00 1328.67 725.20" xmlns="http://www.w3.org/2000/svg" xmlns:xlink="http://www.w3.org/1999/xlink">
<g id="graph0" class="graph" transform="scale(1 1) rotate(0) translate(4 721.2)">
<title>public.action_guarantee</title>
<polygon fill="white" stroke="none" points="-4,4 -4,-721.2 1324.67,-721.2 1324.67,4 -4,4"/>
<!-- public.action_guarantee -->
<g id="node1" class="node">
<title>public.action_guarantee</title>
<polygon fill="#efefef" stroke="none" points="495.7,-635.4 495.7,-671 806.62,-671 806.62,-635.4 495.7,-635.4"/>
<polygon fill="none" stroke="black" points="495.7,-635.4 495.7,-671 806.62,-671 806.62,-635.4 495.7,-635.4"/>
<text text-anchor="start" x="502.7" y="-648.8" font-family="Arial Bold" font-size="18.00">public.action_guarantee</text>
<text text-anchor="start" x="675.13" y="-648.8" font-family="Arial" font-size="14.00">    </text>
<text text-anchor="start" x="706.24" y="-648.8" font-family="Arial" font-size="14.00" fill="#666666">[BASE TABLE]</text>
<polygon fill="none" stroke="black" points="495.7,-604.6 495.7,-635.4 806.62,-635.4 806.62,-604.6 495.7,-604.6"/>
<text text-anchor="start" x="502.7" y="-616.8" font-family="Arial" font-size="14.00">model_key </text>
<text text-anchor="start" x="574.3" y="-616.8" font-family="Arial" font-size="14.00" fill="#666666">[text]</text>
<polygon fill="none" stroke="black" points="495.7,-573.8 495.7,-604.6 806.62,-604.6 806.62,-573.8 495.7,-573.8"/>
<text text-anchor="start" x="502.7" y="-586" font-family="Arial" font-size="14.00">action_key </text>
<text text-anchor="start" x="573.52" y="-586" font-family="Arial" font-size="14.00" fill="#666666">[text]</text>
<polygon fill="none" stroke="black" points="495.7,-543 495.7,-573.8 806.62,-573.8 806.62,-543 495.7,-543"/>
<text text-anchor="start" x="502.7" y="-555.2" font-family="Arial" font-size="14.00">logic_key </text>
<text text-anchor="start" x="564.96" y="-555.2" font-family="Arial" font-size="14.00" fill="#666666">[text]</text>
<polygon fill="none" stroke="black" stroke-width="3" points="494.2,-541.5 494.2,-672.5 808.12,-672.5 808.12,-541.5 494.2,-541.5"/>
</g>
<!-- public.logic -->
<g id="node2" class="node">
<title>public.logic</title>
<polygon fill="#efefef" stroke="none" points="373.17,-382 373.17,-417.6 597.15,-417.6 597.15,-382 373.17,-382"/>
<polygon fill="none" stroke="black" points="373.17,-382 373.17,-417.6 597.15,-417.6 597.15,-382 373.17,-382"/>
<text text-anchor="start" x="380.17" y="-395.4" font-family="Arial Bold" font-size="18.00">public.logic</text>
<text text-anchor="start" x="465.66" y="-395.4" font-family="Arial" font-size="14.00">    </text>
<text text-anchor="start" x="496.77" y="-395.4" font-family="Arial" font-size="14.00" fill="#666666">[BASE TABLE]</text>
<polygon fill="none" stroke="black" points="373.17,-351.2 373.17,-382 597.15,-382 597.15,-351.2 373.17,-351.2"/>
<text text-anchor="start" x="380.17" y="-363.4" font-family="Arial" font-size="14.00">logic_key </text>
<text text-anchor="start" x="442.43" y="-363.4" font-family="Arial" font-size="14.00" fill="#666666">[text]</text>
<polygon fill="none" stroke="black" points="373.17,-320.4 373.17,-351.2 597.15,-351.2 597.15,-320.4 373.17,-320.4"/>
<text text-anchor="start" x="380.17" y="-332.6" font-family="Arial" font-size="14.00">model_key </text>
<text text-anchor="start" x="451.77" y="-332.6" font-family="Arial" font-size="14.00" fill="#666666">[text]</text>
<polygon fill="none" stroke="black" points="373.17,-289.6 373.17,-320.4 597.15,-320.4 597.15,-289.6 373.17,-289.6"/>
<text text-anchor="start" x="380.17" y="-301.8" font-family="Arial" font-size="14.00">sort_order </text>
<text text-anchor="start" x="447.87" y="-301.8" font-family="Arial" font-size="14.00" fill="#666666">[integer]</text>
<polygon fill="none" stroke="black" points="373.17,-258.8 373.17,-289.6 597.15,-289.6 597.15,-258.8 373.17,-258.8"/>
<text text-anchor="start" x="380.17" y="-271" font-family="Arial" font-size="14.00">logic_type </text>
<text text-anchor="start" x="447.1" y="-271" font-family="Arial" font-size="14.00" fill="#666666">[logic_type]</text>
<polygon fill="none" stroke="black" points="373.17,-228 373.17,-258.8 597.15,-258.8 597.15,-228 373.17,-228"/>
<text text-anchor="start" x="380.17" y="-240.2" font-family="Arial" font-size="14.00">description </text>
<text text-anchor="start" x="451.77" y="-240.2" font-family="Arial" font-size="14.00" fill="#666666">[text]</text>
<polygon fill="none" stroke="black" points="373.17,-197.2 373.17,-228 597.15,-228 597.15,-197.2 373.17,-197.2"/>
<text text-anchor="start" x="380.17" y="-209.4" font-family="Arial" font-size="14.00">target </text>
<text text-anchor="start" x="419.86" y="-209.4" font-family="Arial" font-size="14.00" fill="#666666">[text]</text>
<polygon fill="none" stroke="black" points="373.17,-166.4 373.17,-197.2 597.15,-197.2 597.15,-166.4 373.17,-166.4"/>
<text text-anchor="start" x="380.17" y="-178.6" font-family="Arial" font-size="14.00">notation </text>
<text text-anchor="start" x="433.88" y="-178.6" font-family="Arial" font-size="14.00" fill="#666666">[notation]</text>
<polygon fill="none" stroke="black" points="373.17,-135.6 373.17,-166.4 597.15,-166.4 597.15,-135.6 373.17,-135.6"/>
<text text-anchor="start" x="380.17" y="-147.8" font-family="Arial" font-size="14.00">specification </text>
<text text-anchor="start" x="461.1" y="-147.8" font-family="Arial" font-size="14.00" fill="#666666">[text]</text>
<polygon fill="none" stroke="black" points="373.17,-104.8 373.17,-135.6 597.15,-135.6 597.15,-104.8 373.17,-104.8"/>
<text text-anchor="start" x="380.17" y="-117" font-family="Arial" font-size="14.00">target_type_notation </text>
<text text-anchor="start" x="511.72" y="-117" font-family="Arial" font-size="14.00" fill="#666666">[notation]</text>
<polygon fill="none" stroke="black" points="373.17,-74 373.17,-104.8 597.15,-104.8 597.15,-74 373.17,-74"/>
<text text-anchor="start" x="380.17" y="-86.2" font-family="Arial" font-size="14.00">target_type_specification </text>
<text text-anchor="start" x="538.94" y="-86.2" font-family="Arial" font-size="14.00" fill="#666666">[text]</text>
<polygon fill="none" stroke="black" points="373.17,-43.2 373.17,-74 597.15,-74 597.15,-43.2 373.17,-43.2"/>
<text text-anchor="start" x="380.17" y="-55.4" font-family="Arial" font-size="14.00">delete_event_specification </text>
<text text-anchor="start" x="549.07" y="-55.4" font-family="Arial" font-size="14.00" fill="#666666">[text]</text>
</g>
<!-- public.action_guarantee&#45;&gt;public.logic -->
<g id="edge1" class="edge">
<title>public.action_guarantee:model_key&#45;&gt;public.logic:model_key</title>
<path fill="none" stroke="black" d="M484.55,-618.93C443.26,-609.41 466.11,-538.35 495.7,-496.8 523.46,-457.83 569.39,-499.77 597.15,-460.8 629.38,-415.55 653.7,-335.8 598.15,-335.8"/>
<polygon fill="black" stroke="black" points="484.43,-618.92 493.9,-624.44 489.73,-619.48 494.04,-619.93 494.04,-619.93 494.04,-619.93 489.73,-619.48 494.84,-615.49 484.43,-618.92"/>
<text text-anchor="start" x="7" y="-630" font-family="Arial" font-size="10.00">FOREIGN KEY (model_key, logic_key) REFERENCES logic(model_key, logic_key) ON DELETE CASCADE</text>
</g>
<!-- public.action -->
<g id="node3" class="node">
<title>public.action</title>
<polygon fill="#efefef" stroke="none" points="701.18,-289.6 701.18,-325.2 933.14,-325.2 933.14,-289.6 701.18,-289.6"/>
<polygon fill="none" stroke="black" points="701.18,-289.6 701.18,-325.2 933.14,-325.2 933.14,-289.6 701.18,-289.6"/>
<text text-anchor="start" x="708.18" y="-303" font-family="Arial Bold" font-size="18.00">public.action</text>
<text text-anchor="start" x="801.65" y="-303" font-family="Arial" font-size="14.00">    </text>
<text text-anchor="start" x="832.77" y="-303" font-family="Arial" font-size="14.00" fill="#666666">[BASE TABLE]</text>
<polygon fill="none" stroke="black" points="701.18,-258.8 701.18,-289.6 933.14,-289.6 933.14,-258.8 701.18,-258.8"/>
<text text-anchor="start" x="708.18" y="-271" font-family="Arial" font-size="14.00">model_key </text>
<text text-anchor="start" x="779.77" y="-271" font-family="Arial" font-size="14.00" fill="#666666">[text]</text>
<polygon fill="none" stroke="black" points="701.18,-228 701.18,-258.8 933.14,-258.8 933.14,-228 701.18,-228"/>
<text text-anchor="start" x="708.18" y="-240.2" font-family="Arial" font-size="14.00">class_key </text>
<text text-anchor="start" x="773.54" y="-240.2" font-family="Arial" font-size="14.00" fill="#666666">[text]</text>
<polygon fill="none" stroke="black" points="701.18,-197.2 701.18,-228 933.14,-228 933.14,-197.2 701.18,-197.2"/>
<text text-anchor="start" x="708.18" y="-209.4" font-family="Arial" font-size="14.00">action_key </text>
<text text-anchor="start" x="779" y="-209.4" font-family="Arial" font-size="14.00" fill="#666666">[text]</text>
<polygon fill="none" stroke="black" points="701.18,-166.4 701.18,-197.2 933.14,-197.2 933.14,-166.4 701.18,-166.4"/>
<text text-anchor="start" x="708.18" y="-178.6" font-family="Arial" font-size="14.00">name </text>
<text text-anchor="start" x="747.09" y="-178.6" font-family="Arial" font-size="14.00" fill="#666666">[text]</text>
<polygon fill="none" stroke="black" points="701.18,-135.6 701.18,-166.4 933.14,-166.4 933.14,-135.6 701.18,-135.6"/>
<text text-anchor="start" x="708.18" y="-147.8" font-family="Arial" font-size="14.00">details </text>
<text text-anchor="start" x="752.54" y="-147.8" font-family="Arial" font-size="14.00" fill="#666666">[text]</text>
</g>
<!-- public.action_guarantee&#45;&gt;public.action -->
<g id="edge2" class="edge">
<title>public.action_guarantee:model_key&#45;&gt;public.action:model_key</title>
<path fill="none" stroke="black" d="M817.84,-618.97C857.25,-610.01 823.97,-544.66 806.62,-496.8 781.45,-427.38 726.43,-437.79 701.18,-368.4 686.86,-329.06 658.31,-274.2 700.18,-274.2"/>
<polygon fill="black" stroke="black" points="817.9,-618.96 807.5,-615.49 812.59,-619.5 808.28,-619.93 808.28,-619.93 808.28,-619.93 812.59,-619.5 808.4,-624.44 817.9,-618.96"/>
<text text-anchor="start" x="814.62" y="-630" font-family="Arial" font-size="10.00">FOREIGN KEY (model_key, action_key) REFERENCES action(model_key, action_key) ON DELETE CASCADE</text>
</g>
</g>
</svg>
