<?xml version="1.0" encoding="UTF-8" standalone="no"?>
<!DOCTYPE svg PUBLIC "-//W3C//DTD SVG 1.1//EN"
 "http://www.w3.org/Graphics/SVG/1.1/DTD/svg11.dtd">
<!-- Generated by graphviz version 12.1.2 (20240928.0832)
 -->
<!-- Title: public.data_type Pages: 1 -->
<svg width="1566pt" height="976pt"
 viewBox="0.00 0.00 1565.93 975.60" xmlns="http://www.w3.org/2000/svg" xmlns:xlink="http://www.w3.org/1999/xlink">
<g id="graph0" class="graph" transform="scale(1 1) rotate(0) translate(4 971.6)">
<title>public.data_type</title>
<polygon fill="white" stroke="none" points="-4,4 -4,-971.6 1561.93,-971.6 1561.93,4 -4,4"/>
<!-- public.data_type -->
<g id="node1" class="node">
<title>public.data_type</title>
<polygon fill="#efefef" stroke="none" points="688.84,-543 688.84,-578.6 946.79,-578.6 946.79,-543 688.84,-543"/>
<polygon fill="none" stroke="black" points="688.84,-543 688.84,-578.6 946.79,-578.6 946.79,-543 688.84,-543"/>
<text text-anchor="start" x="695.84" y="-556.4" font-family="Arial Bold" font-size="18.00">public.data_type</text>
<text text-anchor="start" x="815.3" y="-556.4" font-family="Arial" font-size="14.00">    </text>
<text text-anchor="start" x="846.42" y="-556.4" font-family="Arial" font-size="14.00" fill="#666666">[BASE TABLE]</text>
<polygon fill="none" stroke="black" points="688.84,-512.2 688.84,-543 946.79,-543 946.79,-512.2 688.84,-512.2"/>
<text text-anchor="start" x="695.84" y="-524.4" font-family="Arial" font-size="14.00">model_key </text>
<text text-anchor="start" x="767.43" y="-524.4" font-family="Arial" font-size="14.00" fill="#666666">[text]</text>
<polygon fill="none" stroke="black" points="688.84,-481.4 688.84,-512.2 946.79,-512.2 946.79,-481.4 688.84,-481.4"/>
<text text-anchor="start" x="695.84" y="-493.6" font-family="Arial" font-size="14.00">data_type_key </text>
<text text-anchor="start" x="790.8" y="-493.6" font-family="Arial" font-size="14.00" fill="#666666">[text]</text>
<polygon fill="none" stroke="black" points="688.84,-450.6 688.84,-481.4 946.79,-481.4 946.79,-450.6 688.84,-450.6"/>
<text text-anchor="start" x="695.84" y="-462.8" font-family="Arial" font-size="14.00">name </text>
<text text-anchor="start" x="734.75" y="-462.8" font-family="Arial" font-size="14.00" fill="#666666">[text]</text>
<polygon fill="none" stroke="black" points="688.84,-419.8 688.84,-450.6 946.79,-450.6 946.79,-419.8 688.84,-419.8"/>
<text text-anchor="start" x="695.84" y="-432" font-family="Arial" font-size="14.00">details </text>
<text text-anchor="start" x="740.2" y="-432" font-family="Arial" font-size="14.00" fill="#666666">[text]</text>
<polygon fill="none" stroke="black" points="688.84,-389 688.84,-419.8 946.79,-419.8 946.79,-389 688.84,-389"/>
<text text-anchor="start" x="695.84" y="-401.2" font-family="Arial" font-size="14.00">collection_type </text>
<text text-anchor="start" x="792.34" y="-401.2" font-family="Arial" font-size="14.00" fill="#666666">[collection_type]</text>
<polygon fill="none" stroke="black" points="688.84,-358.2 688.84,-389 946.79,-389 946.79,-358.2 688.84,-358.2"/>
<text text-anchor="start" x="695.84" y="-370.4" font-family="Arial" font-size="14.00">collection_unique </text>
<text text-anchor="start" x="807.92" y="-370.4" font-family="Arial" font-size="14.00" fill="#666666">[boolean]</text>
<polygon fill="none" stroke="black" points="688.84,-327.4 688.84,-358.2 946.79,-358.2 946.79,-327.4 688.84,-327.4"/>
<text text-anchor="start" x="695.84" y="-339.6" font-family="Arial" font-size="14.00">collection_min </text>
<text text-anchor="start" x="788.44" y="-339.6" font-family="Arial" font-size="14.00" fill="#666666">[bigint]</text>
<polygon fill="none" stroke="black" points="688.84,-296.6 688.84,-327.4 946.79,-327.4 946.79,-296.6 688.84,-296.6"/>
<text text-anchor="start" x="695.84" y="-308.8" font-family="Arial" font-size="14.00">collection_max </text>
<text text-anchor="start" x="792.33" y="-308.8" font-family="Arial" font-size="14.00" fill="#666666">[bigint]</text>
<polygon fill="none" stroke="black" stroke-width="3" points="687.34,-295.1 687.34,-580.1 948.29,-580.1 948.29,-295.1 687.34,-295.1"/>
</g>
<!-- public.model -->
<g id="node2" class="node">
<title>public.model</title>
<polygon fill="#efefef" stroke="none" points="701.33,-135.6 701.33,-171.2 934.3,-171.2 934.3,-135.6 701.33,-135.6"/>
<polygon fill="none" stroke="black" points="701.33,-135.6 701.33,-171.2 934.3,-171.2 934.3,-135.6 701.33,-135.6"/>
<text text-anchor="start" x="708.33" y="-149" font-family="Arial Bold" font-size="18.00">public.model</text>
<text text-anchor="start" x="802.81" y="-149" font-family="Arial" font-size="14.00">    </text>
<text text-anchor="start" x="833.93" y="-149" font-family="Arial" font-size="14.00" fill="#666666">[BASE TABLE]</text>
<polygon fill="none" stroke="black" points="701.33,-104.8 701.33,-135.6 934.3,-135.6 934.3,-104.8 701.33,-104.8"/>
<text text-anchor="start" x="708.33" y="-117" font-family="Arial" font-size="14.00">model_key </text>
<text text-anchor="start" x="779.92" y="-117" font-family="Arial" font-size="14.00" fill="#666666">[text]</text>
<polygon fill="none" stroke="black" points="701.33,-74 701.33,-104.8 934.3,-104.8 934.3,-74 701.33,-74"/>
<text text-anchor="start" x="708.33" y="-86.2" font-family="Arial" font-size="14.00">name </text>
<text text-anchor="start" x="747.24" y="-86.2" font-family="Arial" font-size="14.00" fill="#666666">[text]</text>
<polygon fill="none" stroke="black" points="701.33,-43.2 701.33,-74 934.3,-74 934.3,-43.2 701.33,-43.2"/>
<text text-anchor="start" x="708.33" y="-55.4" font-family="Arial" font-size="14.00">details </text>
<text text-anchor="start" x="752.69" y="-55.4" font-family="Arial" font-size="14.00" fill="#666666">[text]</text>
</g>
<!-- public.data_type&#45;&gt;public.model -->
<g id="edge1" class="edge">
<title>public.data_type:model_key&#45;&gt;public.model:model_key</title>
<path fill="none" stroke="black" d="M957.93,-525.78C1037.27,-496.39 1022.34,-120.2 935.3,-120.2"/>
<polygon fill="black" stroke="black" points="957.96,-525.78 947.33,-523.11 952.71,-526.72 948.45,-527.48 948.45,-527.48 948.45,-527.48 952.71,-526.72 948.91,-531.97 957.96,-525.78"/>
<text text-anchor="start" x="954.79" y="-537.6" font-family="Arial" font-size="10.00">FOREIGN KEY (model_key) REFERENCES model(model_key) ON DELETE CASCADE</text>
</g>
<!-- public.data_type_atomic -->
<g id="node3" class="node">
<title>public.data_type_atomic</title>
<polygon fill="#efefef" stroke="none" points="247.85,-888.8 247.85,-924.4 563.78,-924.4 563.78,-888.8 247.85,-888.8"/>
<polygon fill="none" stroke="black" points="247.85,-888.8 247.85,-924.4 563.78,-924.4 563.78,-888.8 247.85,-888.8"/>
<text text-anchor="start" x="254.85" y="-902.2" font-family="Arial Bold" font-size="18.00">public.data_type_atomic</text>
<text text-anchor="start" x="432.29" y="-902.2" font-family="Arial" font-size="14.00">    </text>
<text text-anchor="start" x="463.41" y="-902.2" font-family="Arial" font-size="14.00" fill="#666666">[BASE TABLE]</text>
<polygon fill="none" stroke="black" points="247.85,-858 247.85,-888.8 563.78,-888.8 563.78,-858 247.85,-858"/>
<text text-anchor="start" x="254.85" y="-870.2" font-family="Arial" font-size="14.00">model_key </text>
<text text-anchor="start" x="326.44" y="-870.2" font-family="Arial" font-size="14.00" fill="#666666">[text]</text>
<polygon fill="none" stroke="black" points="247.85,-827.2 247.85,-858 563.78,-858 563.78,-827.2 247.85,-827.2"/>
<text text-anchor="start" x="254.85" y="-839.4" font-family="Arial" font-size="14.00">data_type_key </text>
<text text-anchor="start" x="349.81" y="-839.4" font-family="Arial" font-size="14.00" fill="#666666">[text]</text>
<polygon fill="none" stroke="black" points="247.85,-796.4 247.85,-827.2 563.78,-827.2 563.78,-796.4 247.85,-796.4"/>
<text text-anchor="start" x="254.85" y="-808.6" font-family="Arial" font-size="14.00">constraint_type </text>
<text text-anchor="start" x="353.68" y="-808.6" font-family="Arial" font-size="14.00" fill="#666666">[constraint_type]</text>
<polygon fill="none" stroke="black" points="247.85,-765.6 247.85,-796.4 563.78,-796.4 563.78,-765.6 247.85,-765.6"/>
<text text-anchor="start" x="254.85" y="-777.8" font-family="Arial" font-size="14.00">reference </text>
<text text-anchor="start" x="317.88" y="-777.8" font-family="Arial" font-size="14.00" fill="#666666">[text]</text>
<polygon fill="none" stroke="black" points="247.85,-734.8 247.85,-765.6 563.78,-765.6 563.78,-734.8 247.85,-734.8"/>
<text text-anchor="start" x="254.85" y="-747" font-family="Arial" font-size="14.00">enum_ordered </text>
<text text-anchor="start" x="349.8" y="-747" font-family="Arial" font-size="14.00" fill="#666666">[boolean]</text>
<polygon fill="none" stroke="black" points="247.85,-704 247.85,-734.8 563.78,-734.8 563.78,-704 247.85,-704"/>
<text text-anchor="start" x="254.85" y="-716.2" font-family="Arial" font-size="14.00">object_class_key </text>
<text text-anchor="start" x="365.35" y="-716.2" font-family="Arial" font-size="14.00" fill="#666666">[text]</text>
</g>
<!-- public.data_type_atomic&#45;&gt;public.data_type -->
<g id="edge2" class="edge">
<title>public.data_type_atomic:model_key&#45;&gt;public.data_type:model_key</title>
<path fill="none" stroke="black" d="M574.88,-872.9C656.11,-864.4 582.36,-748.18 615.82,-660.8 639.88,-597.95 620.54,-527.6 687.84,-527.6"/>
<polygon fill="black" stroke="black" points="575.1,-872.89 564.89,-868.89 569.78,-873.15 565.45,-873.37 565.45,-873.37 565.45,-873.37 569.78,-873.15 565.34,-877.88 575.1,-872.89"/>
<text text-anchor="start" x="7" y="-883.4" font-family="Arial" font-size="10.00">FOREIGN KEY (model_key, data_type_key) REFERENCES data_type(model_key, data_type_key) ON DELETE CASCADE</text>
</g>
<!-- public.data_type_field -->
<g id="node4" class="node">
<title>public.data_type_field</title>
<polygon fill="#efefef" stroke="none" points="667.85,-858 667.85,-893.6 967.78,-893.6 967.78,-858 667.85,-858"/>
<polygon fill="none" stroke="black" points="667.85,-858 667.85,-893.6 967.78,-893.6 967.78,-858 667.85,-858"/>
<text text-anchor="start" x="674.85" y="-871.4" font-family="Arial Bold" font-size="18.00">public.data_type_field</text>
<text text-anchor="start" x="836.29" y="-871.4" font-family="Arial" font-size="14.00">    </text>
<text text-anchor="start" x="867.41" y="-871.4" font-family="Arial" font-size="14.00" fill="#666666">[BASE TABLE]</text>
<polygon fill="none" stroke="black" points="667.85,-827.2 667.85,-858 967.78,-858 967.78,-827.2 667.85,-827.2"/>
<text text-anchor="start" x="674.85" y="-839.4" font-family="Arial" font-size="14.00">model_key </text>
<text text-anchor="start" x="746.44" y="-839.4" font-family="Arial" font-size="14.00" fill="#666666">[text]</text>
<polygon fill="none" stroke="black" points="667.85,-796.4 667.85,-827.2 967.78,-827.2 967.78,-796.4 667.85,-796.4"/>
<text text-anchor="start" x="674.85" y="-808.6" font-family="Arial" font-size="14.00">data_type_key </text>
<text text-anchor="start" x="769.81" y="-808.6" font-family="Arial" font-size="14.00" fill="#666666">[text]</text>
<polygon fill="none" stroke="black" points="667.85,-765.6 667.85,-796.4 967.78,-796.4 967.78,-765.6 667.85,-765.6"/>
<text text-anchor="start" x="674.85" y="-777.8" font-family="Arial" font-size="14.00">name </text>
<text text-anchor="start" x="713.76" y="-777.8" font-family="Arial" font-size="14.00" fill="#666666">[text]</text>
<polygon fill="none" stroke="black" points="667.85,-734.8 667.85,-765.6 967.78,-765.6 967.78,-734.8 667.85,-734.8"/>
<text text-anchor="start" x="674.85" y="-747" font-family="Arial" font-size="14.00">field_data_type_key </text>
<text text-anchor="start" x="803.27" y="-747" font-family="Arial" font-size="14.00" fill="#666666">[text]</text>
</g>
<!-- public.data_type_field&#45;&gt;public.data_type -->
<g id="edge3" class="edge">
<title>public.data_type_field:model_key&#45;&gt;public.data_type:model_key</title>
<path fill="none" stroke="black" d="M978.7,-839.48C1027.34,-806.77 1005.36,-527.6 947.79,-527.6"/>
<polygon fill="black" stroke="black" points="978.64,-839.5 967.75,-838.21 973.55,-841.1 969.42,-842.4 969.42,-842.4 969.42,-842.4 973.55,-841.1 970.45,-846.79 978.64,-839.5"/>
<text text-anchor="start" x="975.78" y="-852.6" font-family="Arial" font-size="10.00">FOREIGN KEY (model_key, data_type_key) REFERENCES data_type(model_key, data_type_key) ON DELETE CASCADE</text>
</g>
<!-- public.data_type_field&#45;&gt;public.data_type -->
<g id="edge4" class="edge">
<title>public.data_type_field:model_key&#45;&gt;public.data_type:model_key</title>
<path fill="none" stroke="black" d="M979.22,-840.6C1045.71,-813.92 1023.34,-528.77 948.25,-527.6"/>
<polygon fill="black" stroke="black" points="979.38,-840.57 968.69,-838.12 974.15,-841.62 969.9,-842.47 969.9,-842.47 969.9,-842.47 974.15,-841.62 970.46,-846.94 979.38,-840.57"/>
<text text-anchor="start" x="976.25" y="-826.6" font-family="Arial" font-size="10.00">FOREIGN KEY (model_key, field_data_type_key) REFERENCES data_type(model_key, data_type_key) ON DELETE CASCADE</text>
</g>
</g>
</svg>
