<?xml version="1.0" encoding="UTF-8" standalone="no"?>
<!DOCTYPE svg PUBLIC "-//W3C//DTD SVG 1.1//EN"
 "http://www.w3.org/Graphics/SVG/1.1/DTD/svg11.dtd">
<!-- Generated by graphviz version 12.1.2 (20240928.0832)
 -->
<!-- Title: public.query_guarantee Pages: 1 -->
<svg width="1321pt" height="694pt"
 viewBox="0.00 0.00 1320.67 694.40" xmlns="http://www.w3.org/2000/svg" xmlns:xlink="http://www.w3.org/1999/xlink">
<g id="graph0" class="graph" transform="scale(1 1) rotate(0) translate(4 690.4)">
<title>public.query_guarantee</title>
<polygon fill="white" stroke="none" points="-4,4 -4,-690.4 1316.67,-690.4 1316.67,4 -4,4"/>
<!-- public.query_guarantee -->
<g id="node1" class="node">
<title>public.query_guarantee</title>
<polygon fill="#efefef" stroke="none" points="495.7,-604.6 495.7,-640.2 803.62,-640.2 803.62,-604.6 495.7,-604.6"/>
<polygon fill="none" stroke="black" points="495.7,-604.6 495.7,-640.2 803.62,-640.2 803.62,-604.6 495.7,-604.6"/>
<text text-anchor="start" x="502.7" y="-618" font-family="Arial Bold" font-size="18.00">public.query_guarantee</text>
<text text-anchor="start" x="672.13" y="-618" font-family="Arial" font-size="14.00">    </text>
<text text-anchor="start" x="703.25" y="-618" font-family="Arial" font-size="14.00" fill="#666666">[BASE TABLE]</text>
<polygon fill="none" stroke="black" points="495.7,-573.8 495.7,-604.6 803.62,-604.6 803.62,-573.8 495.7,-573.8"/>
<text text-anchor="start" x="502.7" y="-586" font-family="Arial" font-size="14.00">model_key </text>
<text text-anchor="start" x="574.3" y="-586" font-family="Arial" font-size="14.00" fill="#666666">[text]</text>
<polygon fill="none" stroke="black" points="495.7,-543 495.7,-573.8 803.62,-573.8 803.62,-543 495.7,-543"/>
<text text-anchor="start" x="502.7" y="-555.2" font-family="Arial" font-size="14.00">query_key </text>
<text text-anchor="start" x="571.19" y="-555.2" font-family="Arial" font-size="14.00" fill="#666666">[text]</text>
<polygon fill="none" stroke="black" points="495.7,-512.2 495.7,-543 803.62,-543 803.62,-512.2 495.7,-512.2"/>
<text text-anchor="start" x="502.7" y="-524.4" font-family="Arial" font-size="14.00">logic_key </text>
<text text-anchor="start" x="564.96" y="-524.4" font-family="Arial" font-size="14.00" fill="#666666">[text]</text>
<polygon fill="none" stroke="black" stroke-width="3" points="494.2,-510.7 494.2,-641.7 805.12,-641.7 805.12,-510.7 494.2,-510.7"/>
</g>
<!-- public.logic -->
<g id="node2" class="node">
<title>public.logic</title>
<polygon fill="#efefef" stroke="none" points="372.68,-351.2 372.68,-386.8 596.65,-386.8 596.65,-351.2 372.68,-351.2"/>
<polygon fill="none" stroke="black" points="372.68,-351.2 372.68,-386.8 596.65,-386.8 596.65,-351.2 372.68,-351.2"/>
<text text-anchor="start" x="379.68" y="-364.6" font-family="Arial Bold" font-size="18.00">public.logic</text>
<text text-anchor="start" x="465.16" y="-364.6" font-family="Arial" font-size="14.00">    </text>
<text text-anchor="start" x="496.27" y="-364.6" font-family="Arial" font-size="14.00" fill="#666666">[BASE TABLE]</text>
<polygon fill="none" stroke="black" points="372.68,-320.4 372.68,-351.2 596.65,-351.2 596.65,-320.4 372.68,-320.4"/>
<text text-anchor="start" x="379.68" y="-332.6" font-family="Arial" font-size="14.00">logic_key </text>
<text text-anchor="start" x="441.93" y="-332.6" font-family="Arial" font-size="14.00" fill="#666666">[text]</text>
<polygon fill="none" stroke="black" points="372.68,-289.6 372.68,-320.4 596.65,-320.4 596.65,-289.6 372.68,-289.6"/>
<text text-anchor="start" x="379.68" y="-301.8" font-family="Arial" font-size="14.00">model_key </text>
<text text-anchor="start" x="451.27" y="-301.8" font-family="Arial" font-size="14.00" fill="#666666">[text]</text>
<polygon fill="none" stroke="black" points="372.68,-258.8 372.68,-289.6 596.65,-289.6 596.65,-258.8 372.68,-258.8"/>
<text text-anchor="start" x="379.68" y="-271" font-family="Arial" font-size="14.00">sort_order </text>
<text text-anchor="start" x="447.37" y="-271" font-family="Arial" font-size="14.00" fill="#666666">[integer]</text>
<polygon fill="none" stroke="black" points="372.68,-228 372.68,-258.8 596.65,-258.8 596.65,-228 372.68,-228"/>
<text text-anchor="start" x="379.68" y="-240.2" font-family="Arial" font-size="14.00">logic_type </text>
<text text-anchor="start" x="446.61" y="-240.2" font-family="Arial" font-size="14.00" fill="#666666">[logic_type]</text>
<polygon fill="none" stroke="black" points="372.68,-197.2 372.68,-228 596.65,-228 596.65,-197.2 372.68,-197.2"/>
<text text-anchor="start" x="379.68" y="-209.4" font-family="Arial" font-size="14.00">description </text>
<text text-anchor="start" x="451.27" y="-209.4" font-family="Arial" font-size="14.00" fill="#666666">[text]</text>
<polygon fill="none" stroke="black" points="372.68,-166.4 372.68,-197.2 596.65,-197.2 596.65,-166.4 372.68,-166.4"/>
<text text-anchor="start" x="379.68" y="-178.6" font-family="Arial" font-size="14.00">target </text>
<text text-anchor="start" x="419.36" y="-178.6" font-family="Arial" font-size="14.00" fill="#666666">[text]</text>
<polygon fill="none" stroke="black" points="372.68,-135.6 372.68,-166.4 596.65,-166.4 596.65,-135.6 372.68,-135.6"/>
<text text-anchor="start" x="379.68" y="-147.8" font-family="Arial" font-size="14.00">notation </text>
<text text-anchor="start" x="433.39" y="-147.8" font-family="Arial" font-size="14.00" fill="#666666">[notation]</text>
<polygon fill="none" stroke="black" points="372.68,-104.8 372.68,-135.6 596.65,-135.6 596.65,-104.8 372.68,-104.8"/>
<text text-anchor="start" x="379.68" y="-117" font-family="Arial" font-size="14.00">specification </text>
<text text-anchor="start" x="460.61" y="-117" font-family="Arial" font-size="14.00" fill="#666666">[text]</text>
<polygon fill="none" stroke="black" points="372.68,-74 372.68,-104.8 596.65,-104.8 596.65,-74 372.68,-74"/>
<text text-anchor="start" x="379.68" y="-86.2" font-family="Arial" font-size="14.00">target_type_notation </text>
<text text-anchor="start" x="511.22" y="-86.2" font-family="Arial" font-size="14.00" fill="#666666">[notation]</text>
<polygon fill="none" stroke="black" points="372.68,-43.2 372.68,-74 596.65,-74 596.65,-43.2 372.68,-43.2"/>
<text text-anchor="start" x="379.68" y="-55.4" font-family="Arial" font-size="14.00">target_type_specification </text>
<text text-anchor="start" x="538.44" y="-55.4" font-family="Arial" font-size="14.00" fill="#666666">[text]</text>
</g>
<!-- public.query_guarantee&#45;&gt;public.logic -->
<g id="edge1" class="edge">
<title>public.query_guarantee:model_key&#45;&gt;public.logic:model_key</title>
<path fill="none" stroke="black" d="M484.56,-588.13C443.27,-578.62 466.14,-507.57 495.7,-466 523.31,-427.18 569.04,-468.82 596.65,-430 628.84,-384.72 653.2,-305 597.65,-305"/>
<polygon fill="black" stroke="black" points="484.43,-588.12 493.9,-593.64 489.73,-588.68 494.04,-589.13 494.04,-589.13 494.04,-589.13 489.73,-588.68 494.84,-584.69 484.43,-588.12"/>
<text text-anchor="start" x="7" y="-599.2" font-family="Arial" font-size="10.00">FOREIGN KEY (model_key, logic_key) REFERENCES logic(model_key, logic_key) ON DELETE CASCADE</text>
</g>
<!-- public.query -->
<g id="node3" class="node">
<title>public.query</title>
<polygon fill="#efefef" stroke="none" points="701.18,-274.2 701.18,-309.8 930.14,-309.8 930.14,-274.2 701.18,-274.2"/>
<polygon fill="none" stroke="black" points="701.18,-274.2 701.18,-309.8 930.14,-309.8 930.14,-274.2 701.18,-274.2"/>
<text text-anchor="start" x="708.18" y="-287.6" font-family="Arial Bold" font-size="18.00">public.query</text>
<text text-anchor="start" x="798.65" y="-287.6" font-family="Arial" font-size="14.00">    </text>
<text text-anchor="start" x="829.77" y="-287.6" font-family="Arial" font-size="14.00" fill="#666666">[BASE TABLE]</text>
<polygon fill="none" stroke="black" points="701.18,-243.4 701.18,-274.2 930.14,-274.2 930.14,-243.4 701.18,-243.4"/>
<text text-anchor="start" x="708.18" y="-255.6" font-family="Arial" font-size="14.00">model_key </text>
<text text-anchor="start" x="779.77" y="-255.6" font-family="Arial" font-size="14.00" fill="#666666">[text]</text>
<polygon fill="none" stroke="black" points="701.18,-212.6 701.18,-243.4 930.14,-243.4 930.14,-212.6 701.18,-212.6"/>
<text text-anchor="start" x="708.18" y="-224.8" font-family="Arial" font-size="14.00">class_key </text>
<text text-anchor="start" x="773.54" y="-224.8" font-family="Arial" font-size="14.00" fill="#666666">[text]</text>
<polygon fill="none" stroke="black" points="701.18,-181.8 701.18,-212.6 930.14,-212.6 930.14,-181.8 701.18,-181.8"/>
<text text-anchor="start" x="708.18" y="-194" font-family="Arial" font-size="14.00">query_key </text>
<text text-anchor="start" x="776.66" y="-194" font-family="Arial" font-size="14.00" fill="#666666">[text]</text>
<polygon fill="none" stroke="black" points="701.18,-151 701.18,-181.8 930.14,-181.8 930.14,-151 701.18,-151"/>
<text text-anchor="start" x="708.18" y="-163.2" font-family="Arial" font-size="14.00">name </text>
<text text-anchor="start" x="747.09" y="-163.2" font-family="Arial" font-size="14.00" fill="#666666">[text]</text>
<polygon fill="none" stroke="black" points="701.18,-120.2 701.18,-151 930.14,-151 930.14,-120.2 701.18,-120.2"/>
<text text-anchor="start" x="708.18" y="-132.4" font-family="Arial" font-size="14.00">details </text>
<text text-anchor="start" x="752.54" y="-132.4" font-family="Arial" font-size="14.00" fill="#666666">[text]</text>
</g>
<!-- public.query_guarantee&#45;&gt;public.query -->
<g id="edge2" class="edge">
<title>public.query_guarantee:model_key&#45;&gt;public.query:model_key</title>
<path fill="none" stroke="black" d="M814.86,-588.16C854.42,-579.15 822.14,-513.42 803.62,-466 778.96,-402.86 725.91,-416.11 701.18,-353 685.9,-314.02 658.31,-258.8 700.18,-258.8"/>
<polygon fill="black" stroke="black" points="814.9,-588.16 804.5,-584.69 809.59,-588.7 805.28,-589.13 805.28,-589.13 805.28,-589.13 809.59,-588.7 805.41,-593.64 814.9,-588.16"/>
<text text-anchor="start" x="811.62" y="-599.2" font-family="Arial" font-size="10.00">FOREIGN KEY (model_key, query_key) REFERENCES query(model_key, query_key) ON DELETE CASCADE</text>
</g>
</g>
</svg>
