<?xml version="1.0" encoding="UTF-8" standalone="no"?>
<!DOCTYPE svg PUBLIC "-//W3C//DTD SVG 1.1//EN"
 "http://www.w3.org/Graphics/SVG/1.1/DTD/svg11.dtd">
<!-- Generated by graphviz version 12.1.2 (20240928.0832)
 -->
<!-- Title: public.domain Pages: 1 -->
<svg width="1547pt" height="914pt"
 viewBox="0.00 0.00 1547.47 914.00" xmlns="http://www.w3.org/2000/svg" xmlns:xlink="http://www.w3.org/1999/xlink">
<g id="graph0" class="graph" transform="scale(1 1) rotate(0) translate(4 910)">
<title>public.domain</title>
<polygon fill="white" stroke="none" points="-4,4 -4,-910 1543.47,-910 1543.47,4 -4,4"/>
<!-- public.domain -->
<g id="node1" class="node">
<title>public.domain</title>
<polygon fill="#efefef" stroke="none" points="678.92,-481.4 678.92,-517 920.9,-517 920.9,-481.4 678.92,-481.4"/>
<polygon fill="none" stroke="black" points="678.92,-481.4 678.92,-517 920.9,-517 920.9,-481.4 678.92,-481.4"/>
<text text-anchor="start" x="685.92" y="-494.8" font-family="Arial Bold" font-size="18.00">public.domain</text>
<text text-anchor="start" x="789.41" y="-494.8" font-family="Arial" font-size="14.00">    </text>
<text text-anchor="start" x="820.52" y="-494.8" font-family="Arial" font-size="14.00" fill="#666666">[BASE TABLE]</text>
<polygon fill="none" stroke="black" points="678.92,-450.6 678.92,-481.4 920.9,-481.4 920.9,-450.6 678.92,-450.6"/>
<text text-anchor="start" x="685.92" y="-462.8" font-family="Arial" font-size="14.00">domain_key </text>
<text text-anchor="start" x="765.3" y="-462.8" font-family="Arial" font-size="14.00" fill="#666666">[text]</text>
<polygon fill="none" stroke="black" points="678.92,-419.8 678.92,-450.6 920.9,-450.6 920.9,-419.8 678.92,-419.8"/>
<text text-anchor="start" x="685.92" y="-432" font-family="Arial" font-size="14.00">model_key </text>
<text text-anchor="start" x="757.52" y="-432" font-family="Arial" font-size="14.00" fill="#666666">[text]</text>
<polygon fill="none" stroke="black" points="678.92,-389 678.92,-419.8 920.9,-419.8 920.9,-389 678.92,-389"/>
<text text-anchor="start" x="685.92" y="-401.2" font-family="Arial" font-size="14.00">name </text>
<text text-anchor="start" x="724.83" y="-401.2" font-family="Arial" font-size="14.00" fill="#666666">[text]</text>
<polygon fill="none" stroke="black" points="678.92,-358.2 678.92,-389 920.9,-389 920.9,-358.2 678.92,-358.2"/>
<text text-anchor="start" x="685.92" y="-370.4" font-family="Arial" font-size="14.00">details </text>
<text text-anchor="start" x="730.28" y="-370.4" font-family="Arial" font-size="14.00" fill="#666666">[text]</text>
<polygon fill="none" stroke="black" points="678.92,-327.4 678.92,-358.2 920.9,-358.2 920.9,-327.4 678.92,-327.4"/>
<text text-anchor="start" x="685.92" y="-339.6" font-family="Arial" font-size="14.00">realized </text>
<text text-anchor="start" x="738.84" y="-339.6" font-family="Arial" font-size="14.00" fill="#666666">[boolean]</text>
<polygon fill="none" stroke="black" points="678.92,-296.6 678.92,-327.4 920.9,-327.4 920.9,-296.6 678.92,-296.6"/>
<text text-anchor="start" x="685.92" y="-308.8" font-family="Arial" font-size="14.00">uml_comment </text>
<text text-anchor="start" x="777.73" y="-308.8" font-family="Arial" font-size="14.00" fill="#666666">[text]</text>
<polygon fill="none" stroke="black" stroke-width="3" points="677.42,-295.1 677.42,-518.5 922.4,-518.5 922.4,-295.1 677.42,-295.1"/>
</g>
<!-- public.model -->
<g id="node4" class="node">
<title>public.model</title>
<polygon fill="#efefef" stroke="none" points="683.42,-135.6 683.42,-171.2 916.4,-171.2 916.4,-135.6 683.42,-135.6"/>
<polygon fill="none" stroke="black" points="683.42,-135.6 683.42,-171.2 916.4,-171.2 916.4,-135.6 683.42,-135.6"/>
<text text-anchor="start" x="690.42" y="-149" font-family="Arial Bold" font-size="18.00">public.model</text>
<text text-anchor="start" x="784.91" y="-149" font-family="Arial" font-size="14.00">    </text>
<text text-anchor="start" x="816.02" y="-149" font-family="Arial" font-size="14.00" fill="#666666">[BASE TABLE]</text>
<polygon fill="none" stroke="black" points="683.42,-104.8 683.42,-135.6 916.4,-135.6 916.4,-104.8 683.42,-104.8"/>
<text text-anchor="start" x="690.42" y="-117" font-family="Arial" font-size="14.00">model_key </text>
<text text-anchor="start" x="762.02" y="-117" font-family="Arial" font-size="14.00" fill="#666666">[text]</text>
<polygon fill="none" stroke="black" points="683.42,-74 683.42,-104.8 916.4,-104.8 916.4,-74 683.42,-74"/>
<text text-anchor="start" x="690.42" y="-86.2" font-family="Arial" font-size="14.00">name </text>
<text text-anchor="start" x="729.33" y="-86.2" font-family="Arial" font-size="14.00" fill="#666666">[text]</text>
<polygon fill="none" stroke="black" points="683.42,-43.2 683.42,-74 916.4,-74 916.4,-43.2 683.42,-43.2"/>
<text text-anchor="start" x="690.42" y="-55.4" font-family="Arial" font-size="14.00">details </text>
<text text-anchor="start" x="734.78" y="-55.4" font-family="Arial" font-size="14.00" fill="#666666">[text]</text>
</g>
<!-- public.domain&#45;&gt;public.model -->
<g id="edge4" class="edge">
<title>public.domain:model_key&#45;&gt;public.model:model_key</title>
<path fill="none" stroke="black" d="M932.28,-434.6C1061.59,-419.41 1053.85,-120.2 917.4,-120.2"/>
<polygon fill="black" stroke="black" points="932.21,-434.6 921.97,-430.69 926.89,-434.91 922.56,-435.16 922.56,-435.16 922.56,-435.16 926.89,-434.91 922.49,-439.67 932.21,-434.6"/>
<text text-anchor="start" x="928.9" y="-445.2" font-family="Arial" font-size="10.00">FOREIGN KEY (model_key) REFERENCES model(model_key) ON DELETE CASCADE</text>
</g>
<!-- public.subdomain -->
<g id="node2" class="node">
<title>public.subdomain</title>
<polygon fill="#efefef" stroke="none" points="263.42,-827.2 263.42,-862.8 530.4,-862.8 530.4,-827.2 263.42,-827.2"/>
<polygon fill="none" stroke="black" points="263.42,-827.2 263.42,-862.8 530.4,-862.8 530.4,-827.2 263.42,-827.2"/>
<text text-anchor="start" x="270.42" y="-840.6" font-family="Arial Bold" font-size="18.00">public.subdomain</text>
<text text-anchor="start" x="398.91" y="-840.6" font-family="Arial" font-size="14.00">    </text>
<text text-anchor="start" x="430.03" y="-840.6" font-family="Arial" font-size="14.00" fill="#666666">[BASE TABLE]</text>
<polygon fill="none" stroke="black" points="263.42,-796.4 263.42,-827.2 530.4,-827.2 530.4,-796.4 263.42,-796.4"/>
<text text-anchor="start" x="270.42" y="-808.6" font-family="Arial" font-size="14.00">subdomain_key </text>
<text text-anchor="start" x="372.37" y="-808.6" font-family="Arial" font-size="14.00" fill="#666666">[text]</text>
<polygon fill="none" stroke="black" points="263.42,-765.6 263.42,-796.4 530.4,-796.4 530.4,-765.6 263.42,-765.6"/>
<text text-anchor="start" x="270.42" y="-777.8" font-family="Arial" font-size="14.00">model_key </text>
<text text-anchor="start" x="342.01" y="-777.8" font-family="Arial" font-size="14.00" fill="#666666">[text]</text>
<polygon fill="none" stroke="black" points="263.42,-734.8 263.42,-765.6 530.4,-765.6 530.4,-734.8 263.42,-734.8"/>
<text text-anchor="start" x="270.42" y="-747" font-family="Arial" font-size="14.00">domain_key </text>
<text text-anchor="start" x="349.8" y="-747" font-family="Arial" font-size="14.00" fill="#666666">[text]</text>
<polygon fill="none" stroke="black" points="263.42,-704 263.42,-734.8 530.4,-734.8 530.4,-704 263.42,-704"/>
<text text-anchor="start" x="270.42" y="-716.2" font-family="Arial" font-size="14.00">name </text>
<text text-anchor="start" x="309.33" y="-716.2" font-family="Arial" font-size="14.00" fill="#666666">[text]</text>
<polygon fill="none" stroke="black" points="263.42,-673.2 263.42,-704 530.4,-704 530.4,-673.2 263.42,-673.2"/>
<text text-anchor="start" x="270.42" y="-685.4" font-family="Arial" font-size="14.00">details </text>
<text text-anchor="start" x="314.78" y="-685.4" font-family="Arial" font-size="14.00" fill="#666666">[text]</text>
<polygon fill="none" stroke="black" points="263.42,-642.4 263.42,-673.2 530.4,-673.2 530.4,-642.4 263.42,-642.4"/>
<text text-anchor="start" x="270.42" y="-654.6" font-family="Arial" font-size="14.00">uml_comment </text>
<text text-anchor="start" x="362.23" y="-654.6" font-family="Arial" font-size="14.00" fill="#666666">[text]</text>
</g>
<!-- public.subdomain&#45;&gt;public.domain -->
<g id="edge1" class="edge">
<title>public.subdomain:model_key&#45;&gt;public.domain:model_key</title>
<path fill="none" stroke="black" d="M541.81,-780.38C609.52,-771.66 550.69,-672.96 581.91,-599.2 614.83,-521.42 593.46,-435.2 677.92,-435.2"/>
<polygon fill="black" stroke="black" points="541.71,-780.38 531.46,-776.49 536.39,-780.7 532.07,-780.96 532.07,-780.96 532.07,-780.96 536.39,-780.7 532,-785.47 541.71,-780.38"/>
<text text-anchor="start" x="7" y="-791" font-family="Arial" font-size="10.00">FOREIGN KEY (model_key, domain_key) REFERENCES domain(model_key, domain_key) ON DELETE CASCADE</text>
</g>
<!-- public.domain_association -->
<g id="node3" class="node">
<title>public.domain_association</title>
<polygon fill="#efefef" stroke="none" points="634.43,-811.8 634.43,-847.4 965.39,-847.4 965.39,-811.8 634.43,-811.8"/>
<polygon fill="none" stroke="black" points="634.43,-811.8 634.43,-847.4 965.39,-847.4 965.39,-811.8 634.43,-811.8"/>
<text text-anchor="start" x="641.43" y="-825.2" font-family="Arial Bold" font-size="18.00">public.domain_association</text>
<text text-anchor="start" x="833.9" y="-825.2" font-family="Arial" font-size="14.00">    </text>
<text text-anchor="start" x="865.01" y="-825.2" font-family="Arial" font-size="14.00" fill="#666666">[BASE TABLE]</text>
<polygon fill="none" stroke="black" points="634.43,-781 634.43,-811.8 965.39,-811.8 965.39,-781 634.43,-781"/>
<text text-anchor="start" x="641.43" y="-793.2" font-family="Arial" font-size="14.00">model_key </text>
<text text-anchor="start" x="713.03" y="-793.2" font-family="Arial" font-size="14.00" fill="#666666">[text]</text>
<polygon fill="none" stroke="black" points="634.43,-750.2 634.43,-781 965.39,-781 965.39,-750.2 634.43,-750.2"/>
<text text-anchor="start" x="641.43" y="-762.4" font-family="Arial" font-size="14.00">association_key </text>
<text text-anchor="start" x="744.94" y="-762.4" font-family="Arial" font-size="14.00" fill="#666666">[text]</text>
<polygon fill="none" stroke="black" points="634.43,-719.4 634.43,-750.2 965.39,-750.2 965.39,-719.4 634.43,-719.4"/>
<text text-anchor="start" x="641.43" y="-731.6" font-family="Arial" font-size="14.00">problem_domain_key </text>
<text text-anchor="start" x="779.18" y="-731.6" font-family="Arial" font-size="14.00" fill="#666666">[text]</text>
<polygon fill="none" stroke="black" points="634.43,-688.6 634.43,-719.4 965.39,-719.4 965.39,-688.6 634.43,-688.6"/>
<text text-anchor="start" x="641.43" y="-700.8" font-family="Arial" font-size="14.00">solution_domain_key </text>
<text text-anchor="start" x="776.85" y="-700.8" font-family="Arial" font-size="14.00" fill="#666666">[text]</text>
<polygon fill="none" stroke="black" points="634.43,-657.8 634.43,-688.6 965.39,-688.6 965.39,-657.8 634.43,-657.8"/>
<text text-anchor="start" x="641.43" y="-670" font-family="Arial" font-size="14.00">uml_comment </text>
<text text-anchor="start" x="733.24" y="-670" font-family="Arial" font-size="14.00" fill="#666666">[text]</text>
</g>
<!-- public.domain_association&#45;&gt;public.domain -->
<g id="edge2" class="edge">
<title>public.domain_association:model_key&#45;&gt;public.domain:model_key</title>
<path fill="none" stroke="black" d="M976.45,-793.7C1033.67,-760.65 990.12,-435.2 921.9,-435.2"/>
<polygon fill="black" stroke="black" points="976.37,-793.72 965.54,-791.97 971.21,-795.1 967.03,-796.23 967.03,-796.23 967.03,-796.23 971.21,-795.1 967.87,-800.66 976.37,-793.72"/>
<text text-anchor="start" x="973.39" y="-806.4" font-family="Arial" font-size="10.00">FOREIGN KEY (model_key, problem_domain_key) REFERENCES domain(model_key, domain_key) ON DELETE CASCADE</text>
</g>
<!-- public.domain_association&#45;&gt;public.domain -->
<g id="edge3" class="edge">
<title>public.domain_association:model_key&#45;&gt;public.domain:model_key</title>
<path fill="none" stroke="black" d="M976.52,-794.72C1052.55,-768.13 1008.27,-435.88 922.16,-435.2"/>
<polygon fill="black" stroke="black" points="976.84,-794.66 966.22,-791.91 971.58,-795.56 967.31,-796.29 967.31,-796.29 967.31,-796.29 971.58,-795.56 967.73,-800.78 976.84,-794.66"/>
<text text-anchor="start" x="973.65" y="-780.4" font-family="Arial" font-size="10.00">FOREIGN KEY (model_key, solution_domain_key) REFERENCES domain(model_key, domain_key) ON DELETE CASCADE</text>
</g>
</g>
</svg>
