<?xml version="1.0" encoding="UTF-8" standalone="no"?>
<!DOCTYPE svg PUBLIC "-//W3C//DTD SVG 1.1//EN"
 "http://www.w3.org/Graphics/SVG/1.1/DTD/svg11.dtd">
<!-- Generated by graphviz version 12.1.2 (20240928.0832)
 -->
<!-- Title: public.state Pages: 1 -->
<svg width="1132pt" height="1253pt"
 viewBox="0.00 0.00 1131.69 1252.80" xmlns="http://www.w3.org/2000/svg" xmlns:xlink="http://www.w3.org/1999/xlink">
<g id="graph0" class="graph" transform="scale(1 1) rotate(0) translate(4 1248.8)">
<title>public.state</title>
<polygon fill="white" stroke="none" points="-4,4 -4,-1248.8 1127.69,-1248.8 1127.69,4 -4,4"/>
<!-- public.state -->
<g id="node1" class="node">
<title>public.state</title>
<polygon fill="#efefef" stroke="none" points="284.14,-727.8 284.14,-763.4 505.1,-763.4 505.1,-727.8 284.14,-727.8"/>
<polygon fill="none" stroke="black" points="284.14,-727.8 284.14,-763.4 505.1,-763.4 505.1,-727.8 284.14,-727.8"/>
<text text-anchor="start" x="291.14" y="-741.2" font-family="Arial Bold" font-size="18.00">public.state</text>
<text text-anchor="start" x="373.61" y="-741.2" font-family="Arial" font-size="14.00">    </text>
<text text-anchor="start" x="404.73" y="-741.2" font-family="Arial" font-size="14.00" fill="#666666">[BASE TABLE]</text>
<polygon fill="none" stroke="black" points="284.14,-697 284.14,-727.8 505.1,-727.8 505.1,-697 284.14,-697"/>
<text text-anchor="start" x="291.14" y="-709.2" font-family="Arial" font-size="14.00">model_key </text>
<text text-anchor="start" x="362.73" y="-709.2" font-family="Arial" font-size="14.00" fill="#666666">[text]</text>
<polygon fill="none" stroke="black" points="284.14,-666.2 284.14,-697 505.1,-697 505.1,-666.2 284.14,-666.2"/>
<text text-anchor="start" x="291.14" y="-678.4" font-family="Arial" font-size="14.00">class_key </text>
<text text-anchor="start" x="356.49" y="-678.4" font-family="Arial" font-size="14.00" fill="#666666">[text]</text>
<polygon fill="none" stroke="black" points="284.14,-635.4 284.14,-666.2 505.1,-666.2 505.1,-635.4 284.14,-635.4"/>
<text text-anchor="start" x="291.14" y="-647.6" font-family="Arial" font-size="14.00">state_key </text>
<text text-anchor="start" x="354.95" y="-647.6" font-family="Arial" font-size="14.00" fill="#666666">[text]</text>
<polygon fill="none" stroke="black" points="284.14,-604.6 284.14,-635.4 505.1,-635.4 505.1,-604.6 284.14,-604.6"/>
<text text-anchor="start" x="291.14" y="-616.8" font-family="Arial" font-size="14.00">name </text>
<text text-anchor="start" x="330.05" y="-616.8" font-family="Arial" font-size="14.00" fill="#666666">[text]</text>
<polygon fill="none" stroke="black" points="284.14,-573.8 284.14,-604.6 505.1,-604.6 505.1,-573.8 284.14,-573.8"/>
<text text-anchor="start" x="291.14" y="-586" font-family="Arial" font-size="14.00">details </text>
<text text-anchor="start" x="335.49" y="-586" font-family="Arial" font-size="14.00" fill="#666666">[text]</text>
<polygon fill="none" stroke="black" points="284.14,-543 284.14,-573.8 505.1,-573.8 505.1,-543 284.14,-543"/>
<text text-anchor="start" x="291.14" y="-555.2" font-family="Arial" font-size="14.00">uml_comment </text>
<text text-anchor="start" x="382.94" y="-555.2" font-family="Arial" font-size="14.00" fill="#666666">[text]</text>
<polygon fill="none" stroke="black" stroke-width="3" points="282.64,-541.5 282.64,-764.9 506.6,-764.9 506.6,-541.5 282.64,-541.5"/>
</g>
<!-- public.class -->
<g id="node2" class="node">
<title>public.class</title>
<polygon fill="#efefef" stroke="none" points="283.13,-382 283.13,-417.6 506.1,-417.6 506.1,-382 283.13,-382"/>
<polygon fill="none" stroke="black" points="283.13,-382 283.13,-417.6 506.1,-417.6 506.1,-382 283.13,-382"/>
<text text-anchor="start" x="290.13" y="-395.4" font-family="Arial Bold" font-size="18.00">public.class</text>
<text text-anchor="start" x="374.61" y="-395.4" font-family="Arial" font-size="14.00">    </text>
<text text-anchor="start" x="405.73" y="-395.4" font-family="Arial" font-size="14.00" fill="#666666">[BASE TABLE]</text>
<polygon fill="none" stroke="black" points="283.13,-351.2 283.13,-382 506.1,-382 506.1,-351.2 283.13,-351.2"/>
<text text-anchor="start" x="290.13" y="-363.4" font-family="Arial" font-size="14.00">model_key </text>
<text text-anchor="start" x="361.73" y="-363.4" font-family="Arial" font-size="14.00" fill="#666666">[text]</text>
<polygon fill="none" stroke="black" points="283.13,-320.4 283.13,-351.2 506.1,-351.2 506.1,-320.4 283.13,-320.4"/>
<text text-anchor="start" x="290.13" y="-332.6" font-family="Arial" font-size="14.00">class_key </text>
<text text-anchor="start" x="355.49" y="-332.6" font-family="Arial" font-size="14.00" fill="#666666">[text]</text>
<polygon fill="none" stroke="black" points="283.13,-289.6 283.13,-320.4 506.1,-320.4 506.1,-289.6 283.13,-289.6"/>
<text text-anchor="start" x="290.13" y="-301.8" font-family="Arial" font-size="14.00">name </text>
<text text-anchor="start" x="329.04" y="-301.8" font-family="Arial" font-size="14.00" fill="#666666">[text]</text>
<polygon fill="none" stroke="black" points="283.13,-258.8 283.13,-289.6 506.1,-289.6 506.1,-258.8 283.13,-258.8"/>
<text text-anchor="start" x="290.13" y="-271" font-family="Arial" font-size="14.00">subdomain_key </text>
<text text-anchor="start" x="392.08" y="-271" font-family="Arial" font-size="14.00" fill="#666666">[text]</text>
<polygon fill="none" stroke="black" points="283.13,-228 283.13,-258.8 506.1,-258.8 506.1,-228 283.13,-228"/>
<text text-anchor="start" x="290.13" y="-240.2" font-family="Arial" font-size="14.00">actor_key </text>
<text text-anchor="start" x="354.72" y="-240.2" font-family="Arial" font-size="14.00" fill="#666666">[text]</text>
<polygon fill="none" stroke="black" points="283.13,-197.2 283.13,-228 506.1,-228 506.1,-197.2 283.13,-197.2"/>
<text text-anchor="start" x="290.13" y="-209.4" font-family="Arial" font-size="14.00">superclass_of_key </text>
<text text-anchor="start" x="409.97" y="-209.4" font-family="Arial" font-size="14.00" fill="#666666">[text]</text>
<polygon fill="none" stroke="black" points="283.13,-166.4 283.13,-197.2 506.1,-197.2 506.1,-166.4 283.13,-166.4"/>
<text text-anchor="start" x="290.13" y="-178.6" font-family="Arial" font-size="14.00">subclass_of_key </text>
<text text-anchor="start" x="397.53" y="-178.6" font-family="Arial" font-size="14.00" fill="#666666">[text]</text>
<polygon fill="none" stroke="black" points="283.13,-135.6 283.13,-166.4 506.1,-166.4 506.1,-135.6 283.13,-135.6"/>
<text text-anchor="start" x="290.13" y="-147.8" font-family="Arial" font-size="14.00">details </text>
<text text-anchor="start" x="334.49" y="-147.8" font-family="Arial" font-size="14.00" fill="#666666">[text]</text>
<polygon fill="none" stroke="black" points="283.13,-104.8 283.13,-135.6 506.1,-135.6 506.1,-104.8 283.13,-104.8"/>
<text text-anchor="start" x="290.13" y="-117" font-family="Arial" font-size="14.00">unfinished_notes </text>
<text text-anchor="start" x="399.88" y="-117" font-family="Arial" font-size="14.00" fill="#666666">[text]</text>
<polygon fill="none" stroke="black" points="283.13,-74 283.13,-104.8 506.1,-104.8 506.1,-74 283.13,-74"/>
<text text-anchor="start" x="290.13" y="-86.2" font-family="Arial" font-size="14.00">uml_comment </text>
<text text-anchor="start" x="381.94" y="-86.2" font-family="Arial" font-size="14.00" fill="#666666">[text]</text>
<polygon fill="none" stroke="black" points="283.13,-43.2 283.13,-74 506.1,-74 506.1,-43.2 283.13,-43.2"/>
<text text-anchor="start" x="290.13" y="-55.4" font-family="Arial" font-size="14.00">marked </text>
<text text-anchor="start" x="340.71" y="-55.4" font-family="Arial" font-size="14.00" fill="#666666">[boolean]</text>
</g>
<!-- public.state&#45;&gt;public.class -->
<g id="edge1" class="edge">
<title>public.state:model_key&#45;&gt;public.class:model_key</title>
<path fill="none" stroke="black" d="M516.23,-711.88C659.76,-697.04 657.34,-366.6 507.1,-366.6"/>
<polygon fill="black" stroke="black" points="516.42,-711.87 506.21,-707.89 511.09,-712.15 506.77,-712.37 506.77,-712.37 506.77,-712.37 511.09,-712.15 506.66,-716.88 516.42,-711.87"/>
<text text-anchor="start" x="513.1" y="-722.4" font-family="Arial" font-size="10.00">FOREIGN KEY (model_key, class_key) REFERENCES class(model_key, class_key) ON DELETE CASCADE</text>
</g>
<!-- public.transition -->
<g id="node3" class="node">
<title>public.transition</title>
<polygon fill="#efefef" stroke="none" points="266.63,-1166 266.63,-1201.6 522.6,-1201.6 522.6,-1166 266.63,-1166"/>
<polygon fill="none" stroke="black" points="266.63,-1166 266.63,-1201.6 522.6,-1201.6 522.6,-1166 266.63,-1166"/>
<text text-anchor="start" x="273.63" y="-1179.4" font-family="Arial Bold" font-size="18.00">public.transition</text>
<text text-anchor="start" x="391.12" y="-1179.4" font-family="Arial" font-size="14.00">    </text>
<text text-anchor="start" x="422.23" y="-1179.4" font-family="Arial" font-size="14.00" fill="#666666">[BASE TABLE]</text>
<polygon fill="none" stroke="black" points="266.63,-1135.2 266.63,-1166 522.6,-1166 522.6,-1135.2 266.63,-1135.2"/>
<text text-anchor="start" x="273.63" y="-1147.4" font-family="Arial" font-size="14.00">model_key </text>
<text text-anchor="start" x="345.22" y="-1147.4" font-family="Arial" font-size="14.00" fill="#666666">[text]</text>
<polygon fill="none" stroke="black" points="266.63,-1104.4 266.63,-1135.2 522.6,-1135.2 522.6,-1104.4 266.63,-1104.4"/>
<text text-anchor="start" x="273.63" y="-1116.6" font-family="Arial" font-size="14.00">class_key </text>
<text text-anchor="start" x="338.99" y="-1116.6" font-family="Arial" font-size="14.00" fill="#666666">[text]</text>
<polygon fill="none" stroke="black" points="266.63,-1073.6 266.63,-1104.4 522.6,-1104.4 522.6,-1073.6 266.63,-1073.6"/>
<text text-anchor="start" x="273.63" y="-1085.8" font-family="Arial" font-size="14.00">transition_key </text>
<text text-anchor="start" x="363.9" y="-1085.8" font-family="Arial" font-size="14.00" fill="#666666">[text]</text>
<polygon fill="none" stroke="black" points="266.63,-1042.8 266.63,-1073.6 522.6,-1073.6 522.6,-1042.8 266.63,-1042.8"/>
<text text-anchor="start" x="273.63" y="-1055" font-family="Arial" font-size="14.00">from_state_key </text>
<text text-anchor="start" x="373.23" y="-1055" font-family="Arial" font-size="14.00" fill="#666666">[text]</text>
<polygon fill="none" stroke="black" points="266.63,-1012 266.63,-1042.8 522.6,-1042.8 522.6,-1012 266.63,-1012"/>
<text text-anchor="start" x="273.63" y="-1024.2" font-family="Arial" font-size="14.00">event_key </text>
<text text-anchor="start" x="341.34" y="-1024.2" font-family="Arial" font-size="14.00" fill="#666666">[text]</text>
<polygon fill="none" stroke="black" points="266.63,-981.2 266.63,-1012 522.6,-1012 522.6,-981.2 266.63,-981.2"/>
<text text-anchor="start" x="273.63" y="-993.4" font-family="Arial" font-size="14.00">guard_key </text>
<text text-anchor="start" x="342.9" y="-993.4" font-family="Arial" font-size="14.00" fill="#666666">[text]</text>
<polygon fill="none" stroke="black" points="266.63,-950.4 266.63,-981.2 522.6,-981.2 522.6,-950.4 266.63,-950.4"/>
<text text-anchor="start" x="273.63" y="-962.6" font-family="Arial" font-size="14.00">action_key </text>
<text text-anchor="start" x="344.45" y="-962.6" font-family="Arial" font-size="14.00" fill="#666666">[text]</text>
<polygon fill="none" stroke="black" points="266.63,-919.6 266.63,-950.4 522.6,-950.4 522.6,-919.6 266.63,-919.6"/>
<text text-anchor="start" x="273.63" y="-931.8" font-family="Arial" font-size="14.00">to_state_key </text>
<text text-anchor="start" x="356.91" y="-931.8" font-family="Arial" font-size="14.00" fill="#666666">[text]</text>
<polygon fill="none" stroke="black" points="266.63,-888.8 266.63,-919.6 522.6,-919.6 522.6,-888.8 266.63,-888.8"/>
<text text-anchor="start" x="273.63" y="-901" font-family="Arial" font-size="14.00">uml_comment </text>
<text text-anchor="start" x="365.44" y="-901" font-family="Arial" font-size="14.00" fill="#666666">[text]</text>
</g>
<!-- public.transition&#45;&gt;public.state -->
<g id="edge2" class="edge">
<title>public.transition:model_key&#45;&gt;public.state:model_key</title>
<path fill="none" stroke="black" d="M531.33,-1144.07C560.69,-1089.55 542.96,-712.4 506.1,-712.4"/>
<polygon fill="black" stroke="black" points="531.5,-1143.93 520.95,-1146.95 527.42,-1147.37 524.12,-1150.17 524.12,-1150.17 524.12,-1150.17 527.42,-1147.37 526.77,-1153.82 531.5,-1143.93"/>
<text text-anchor="start" x="7" y="-1160.6" font-family="Arial" font-size="10.00">FOREIGN KEY (model_key, from_state_key) REFERENCES state(model_key, state_key) ON DELETE CASCADE</text>
</g>
<!-- public.transition&#45;&gt;public.state -->
<g id="edge3" class="edge">
<title>public.transition:model_key&#45;&gt;public.state:model_key</title>
<path fill="none" stroke="black" d="M533.24,-1146.01C578.98,-1099.43 560.42,-714 506.44,-712.4"/>
<polygon fill="black" stroke="black" points="533.21,-1146.02 522.25,-1146.41 528.43,-1148.38 524.54,-1150.3 524.54,-1150.3 524.54,-1150.3 528.43,-1148.38 526.23,-1154.48 533.21,-1146.02"/>
<text text-anchor="start" x="19" y="-1134.59" font-family="Arial" font-size="10.00">FOREIGN KEY (model_key, to_state_key) REFERENCES state(model_key, state_key) ON DELETE CASCADE</text>
</g>
<!-- public.state_action -->
<g id="node4" class="node">
<title>public.state_action</title>
<polygon fill="#efefef" stroke="none" points="626.65,-1104.4 626.65,-1140 900.59,-1140 900.59,-1104.4 626.65,-1104.4"/>
<polygon fill="none" stroke="black" points="626.65,-1104.4 626.65,-1140 900.59,-1140 900.59,-1104.4 626.65,-1104.4"/>
<text text-anchor="start" x="633.65" y="-1117.8" font-family="Arial Bold" font-size="18.00">public.state_action</text>
<text text-anchor="start" x="769.1" y="-1117.8" font-family="Arial" font-size="14.00">    </text>
<text text-anchor="start" x="800.22" y="-1117.8" font-family="Arial" font-size="14.00" fill="#666666">[BASE TABLE]</text>
<polygon fill="none" stroke="black" points="626.65,-1073.6 626.65,-1104.4 900.59,-1104.4 900.59,-1073.6 626.65,-1073.6"/>
<text text-anchor="start" x="633.65" y="-1085.8" font-family="Arial" font-size="14.00">model_key </text>
<text text-anchor="start" x="705.24" y="-1085.8" font-family="Arial" font-size="14.00" fill="#666666">[text]</text>
<polygon fill="none" stroke="black" points="626.65,-1042.8 626.65,-1073.6 900.59,-1073.6 900.59,-1042.8 626.65,-1042.8"/>
<text text-anchor="start" x="633.65" y="-1055" font-family="Arial" font-size="14.00">state_key </text>
<text text-anchor="start" x="697.46" y="-1055" font-family="Arial" font-size="14.00" fill="#666666">[text]</text>
<polygon fill="none" stroke="black" points="626.65,-1012 626.65,-1042.8 900.59,-1042.8 900.59,-1012 626.65,-1012"/>
<text text-anchor="start" x="633.65" y="-1024.2" font-family="Arial" font-size="14.00">state_action_key </text>
<text text-anchor="start" x="742.6" y="-1024.2" font-family="Arial" font-size="14.00" fill="#666666">[text]</text>
<polygon fill="none" stroke="black" points="626.65,-981.2 626.65,-1012 900.59,-1012 900.59,-981.2 626.65,-981.2"/>
<text text-anchor="start" x="633.65" y="-993.4" font-family="Arial" font-size="14.00">action_key </text>
<text text-anchor="start" x="704.47" y="-993.4" font-family="Arial" font-size="14.00" fill="#666666">[text]</text>
<polygon fill="none" stroke="black" points="626.65,-950.4 626.65,-981.2 900.59,-981.2 900.59,-950.4 626.65,-950.4"/>
<text text-anchor="start" x="633.65" y="-962.6" font-family="Arial" font-size="14.00">action_when </text>
<text text-anchor="start" x="716.15" y="-962.6" font-family="Arial" font-size="14.00" fill="#666666">[state_action_when]</text>
</g>
<!-- public.state_action&#45;&gt;public.state -->
<g id="edge4" class="edge">
<title>public.state_action:model_key&#45;&gt;public.state:model_key</title>
<path fill="none" stroke="black" d="M615.63,-1086.57C573.22,-1064.2 591.87,-894.23 574.62,-845.6 552.36,-782.86 572.67,-712.4 506.1,-712.4"/>
<polygon fill="black" stroke="black" points="615.6,-1086.56 624.26,-1093.29 620.79,-1087.82 624.99,-1088.84 624.99,-1088.84 624.99,-1088.84 620.79,-1087.82 626.38,-1084.55 615.6,-1086.56"/>
<text text-anchor="start" x="632.65" y="-1099" font-family="Arial" font-size="10.00">FOREIGN KEY (model_key, state_key) REFERENCES state(model_key, state_key) ON DELETE CASCADE</text>
</g>
</g>
</svg>
