<?xml version="1.0" encoding="UTF-8" standalone="no"?>
<!DOCTYPE svg PUBLIC "-//W3C//DTD SVG 1.1//EN"
 "http://www.w3.org/Graphics/SVG/1.1/DTD/svg11.dtd">
<!-- Generated by graphviz version 12.1.2 (20240928.0832)
 -->
<!-- Title: public.action_parameter Pages: 1 -->
<svg width="1401pt" height="756pt"
 viewBox="0.00 0.00 1400.75 756.00" xmlns="http://www.w3.org/2000/svg" xmlns:xlink="http://www.w3.org/1999/xlink">
<g id="graph0" class="graph" transform="scale(1 1) rotate(0) translate(4 752)">
<title>public.action_parameter</title>
<polygon fill="white" stroke="none" points="-4,4 -4,-752 1396.75,-752 1396.75,4 -4,4"/>
<!-- public.action_parameter -->
<g id="node1" class="node">
<title>public.action_parameter</title>
<polygon fill="#efefef" stroke="none" points="565.78,-666.2 565.78,-701.8 878.69,-701.8 878.69,-666.2 565.78,-666.2"/>
<polygon fill="none" stroke="black" points="565.78,-666.2 565.78,-701.8 878.69,-701.8 878.69,-666.2 565.78,-666.2"/>
<text text-anchor="start" x="572.78" y="-679.6" font-family="Arial Bold" font-size="18.00">public.action_parameter</text>
<text text-anchor="start" x="747.2" y="-679.6" font-family="Arial" font-size="14.00">    </text>
<text text-anchor="start" x="778.32" y="-679.6" font-family="Arial" font-size="14.00" fill="#666666">[BASE TABLE]</text>
<polygon fill="none" stroke="black" points="565.78,-635.4 565.78,-666.2 878.69,-666.2 878.69,-635.4 565.78,-635.4"/>
<text text-anchor="start" x="572.78" y="-647.6" font-family="Arial" font-size="14.00">model_key </text>
<text text-anchor="start" x="644.37" y="-647.6" font-family="Arial" font-size="14.00" fill="#666666">[text]</text>
<polygon fill="none" stroke="black" points="565.78,-604.6 565.78,-635.4 878.69,-635.4 878.69,-604.6 565.78,-604.6"/>
<text text-anchor="start" x="572.78" y="-616.8" font-family="Arial" font-size="14.00">parameter_key </text>
<text text-anchor="start" x="670.05" y="-616.8" font-family="Arial" font-size="14.00" fill="#666666">[text]</text>
<polygon fill="none" stroke="black" points="565.78,-573.8 565.78,-604.6 878.69,-604.6 878.69,-573.8 565.78,-573.8"/>
<text text-anchor="start" x="572.78" y="-586" font-family="Arial" font-size="14.00">action_key </text>
<text text-anchor="start" x="643.6" y="-586" font-family="Arial" font-size="14.00" fill="#666666">[text]</text>
<polygon fill="none" stroke="black" points="565.78,-543 565.78,-573.8 878.69,-573.8 878.69,-543 565.78,-543"/>
<text text-anchor="start" x="572.78" y="-555.2" font-family="Arial" font-size="14.00">data_type_rules </text>
<text text-anchor="start" x="676.3" y="-555.2" font-family="Arial" font-size="14.00" fill="#666666">[text]</text>
<polygon fill="none" stroke="black" points="565.78,-512.2 565.78,-543 878.69,-543 878.69,-512.2 565.78,-512.2"/>
<text text-anchor="start" x="572.78" y="-524.4" font-family="Arial" font-size="14.00">data_type_key </text>
<text text-anchor="start" x="667.74" y="-524.4" font-family="Arial" font-size="14.00" fill="#666666">[text]</text>
<polygon fill="none" stroke="black" points="565.78,-481.4 565.78,-512.2 878.69,-512.2 878.69,-481.4 565.78,-481.4"/>
<text text-anchor="start" x="572.78" y="-493.6" font-family="Arial" font-size="14.00">name </text>
<text text-anchor="start" x="611.69" y="-493.6" font-family="Arial" font-size="14.00" fill="#666666">[text]</text>
<polygon fill="none" stroke="black" points="565.78,-450.6 565.78,-481.4 878.69,-481.4 878.69,-450.6 565.78,-450.6"/>
<text text-anchor="start" x="572.78" y="-462.8" font-family="Arial" font-size="14.00">details </text>
<text text-anchor="start" x="617.14" y="-462.8" font-family="Arial" font-size="14.00" fill="#666666">[text]</text>
<polygon fill="none" stroke="black" points="565.78,-419.8 565.78,-450.6 878.69,-450.6 878.69,-419.8 565.78,-419.8"/>
<text text-anchor="start" x="572.78" y="-432" font-family="Arial" font-size="14.00">uml_comment </text>
<text text-anchor="start" x="664.59" y="-432" font-family="Arial" font-size="14.00" fill="#666666">[text]</text>
<polygon fill="none" stroke="black" stroke-width="3" points="564.28,-418.3 564.28,-703.3 880.19,-703.3 880.19,-418.3 564.28,-418.3"/>
</g>
<!-- public.data_type -->
<g id="node2" class="node">
<title>public.data_type</title>
<polygon fill="#efefef" stroke="none" points="419.26,-243.4 419.26,-279 677.21,-279 677.21,-243.4 419.26,-243.4"/>
<polygon fill="none" stroke="black" points="419.26,-243.4 419.26,-279 677.21,-279 677.21,-243.4 419.26,-243.4"/>
<text text-anchor="start" x="426.26" y="-256.8" font-family="Arial Bold" font-size="18.00">public.data_type</text>
<text text-anchor="start" x="545.72" y="-256.8" font-family="Arial" font-size="14.00">    </text>
<text text-anchor="start" x="576.84" y="-256.8" font-family="Arial" font-size="14.00" fill="#666666">[BASE TABLE]</text>
<polygon fill="none" stroke="black" points="419.26,-212.6 419.26,-243.4 677.21,-243.4 677.21,-212.6 419.26,-212.6"/>
<text text-anchor="start" x="426.26" y="-224.8" font-family="Arial" font-size="14.00">model_key </text>
<text text-anchor="start" x="497.85" y="-224.8" font-family="Arial" font-size="14.00" fill="#666666">[text]</text>
<polygon fill="none" stroke="black" points="419.26,-181.8 419.26,-212.6 677.21,-212.6 677.21,-181.8 419.26,-181.8"/>
<text text-anchor="start" x="426.26" y="-194" font-family="Arial" font-size="14.00">data_type_key </text>
<text text-anchor="start" x="521.22" y="-194" font-family="Arial" font-size="14.00" fill="#666666">[text]</text>
<polygon fill="none" stroke="black" points="419.26,-151 419.26,-181.8 677.21,-181.8 677.21,-151 419.26,-151"/>
<text text-anchor="start" x="426.26" y="-163.2" font-family="Arial" font-size="14.00">collection_type </text>
<text text-anchor="start" x="522.76" y="-163.2" font-family="Arial" font-size="14.00" fill="#666666">[collection_type]</text>
<polygon fill="none" stroke="black" points="419.26,-120.2 419.26,-151 677.21,-151 677.21,-120.2 419.26,-120.2"/>
<text text-anchor="start" x="426.26" y="-132.4" font-family="Arial" font-size="14.00">collection_unique </text>
<text text-anchor="start" x="538.34" y="-132.4" font-family="Arial" font-size="14.00" fill="#666666">[boolean]</text>
<polygon fill="none" stroke="black" points="419.26,-89.4 419.26,-120.2 677.21,-120.2 677.21,-89.4 419.26,-89.4"/>
<text text-anchor="start" x="426.26" y="-101.6" font-family="Arial" font-size="14.00">collection_min </text>
<text text-anchor="start" x="518.86" y="-101.6" font-family="Arial" font-size="14.00" fill="#666666">[bigint]</text>
<polygon fill="none" stroke="black" points="419.26,-58.6 419.26,-89.4 677.21,-89.4 677.21,-58.6 419.26,-58.6"/>
<text text-anchor="start" x="426.26" y="-70.8" font-family="Arial" font-size="14.00">collection_max </text>
<text text-anchor="start" x="522.75" y="-70.8" font-family="Arial" font-size="14.00" fill="#666666">[bigint]</text>
</g>
<!-- public.action_parameter&#45;&gt;public.data_type -->
<g id="edge1" class="edge">
<title>public.action_parameter:model_key&#45;&gt;public.data_type:model_key</title>
<path fill="none" stroke="black" d="M554.41,-650.36C444.96,-640.69 501.13,-474.21 565.78,-373.6 595.26,-327.72 647.57,-367.98 677.21,-322.2 699.97,-287.05 720.08,-228 678.21,-228"/>
<polygon fill="black" stroke="black" points="554.46,-650.36 564.26,-655.28 559.79,-650.59 564.11,-650.77 564.11,-650.77 564.11,-650.77 559.79,-650.59 564.64,-646.29 554.46,-650.36"/>
<text text-anchor="start" x="7" y="-660.8" font-family="Arial" font-size="10.00">FOREIGN KEY (model_key, data_type_key) REFERENCES data_type(model_key, data_type_key) ON DELETE CASCADE</text>
</g>
<!-- public.action -->
<g id="node3" class="node">
<title>public.action</title>
<polygon fill="#efefef" stroke="none" points="781.25,-258.8 781.25,-294.4 1013.22,-294.4 1013.22,-258.8 781.25,-258.8"/>
<polygon fill="none" stroke="black" points="781.25,-258.8 781.25,-294.4 1013.22,-294.4 1013.22,-258.8 781.25,-258.8"/>
<text text-anchor="start" x="788.25" y="-272.2" font-family="Arial Bold" font-size="18.00">public.action</text>
<text text-anchor="start" x="881.73" y="-272.2" font-family="Arial" font-size="14.00">    </text>
<text text-anchor="start" x="912.84" y="-272.2" font-family="Arial" font-size="14.00" fill="#666666">[BASE TABLE]</text>
<polygon fill="none" stroke="black" points="781.25,-228 781.25,-258.8 1013.22,-258.8 1013.22,-228 781.25,-228"/>
<text text-anchor="start" x="788.25" y="-240.2" font-family="Arial" font-size="14.00">model_key </text>
<text text-anchor="start" x="859.85" y="-240.2" font-family="Arial" font-size="14.00" fill="#666666">[text]</text>
<polygon fill="none" stroke="black" points="781.25,-197.2 781.25,-228 1013.22,-228 1013.22,-197.2 781.25,-197.2"/>
<text text-anchor="start" x="788.25" y="-209.4" font-family="Arial" font-size="14.00">class_key </text>
<text text-anchor="start" x="853.61" y="-209.4" font-family="Arial" font-size="14.00" fill="#666666">[text]</text>
<polygon fill="none" stroke="black" points="781.25,-166.4 781.25,-197.2 1013.22,-197.2 1013.22,-166.4 781.25,-166.4"/>
<text text-anchor="start" x="788.25" y="-178.6" font-family="Arial" font-size="14.00">action_key </text>
<text text-anchor="start" x="859.08" y="-178.6" font-family="Arial" font-size="14.00" fill="#666666">[text]</text>
<polygon fill="none" stroke="black" points="781.25,-135.6 781.25,-166.4 1013.22,-166.4 1013.22,-135.6 781.25,-135.6"/>
<text text-anchor="start" x="788.25" y="-147.8" font-family="Arial" font-size="14.00">name </text>
<text text-anchor="start" x="827.17" y="-147.8" font-family="Arial" font-size="14.00" fill="#666666">[text]</text>
<polygon fill="none" stroke="black" points="781.25,-104.8 781.25,-135.6 1013.22,-135.6 1013.22,-104.8 781.25,-104.8"/>
<text text-anchor="start" x="788.25" y="-117" font-family="Arial" font-size="14.00">details </text>
<text text-anchor="start" x="832.61" y="-117" font-family="Arial" font-size="14.00" fill="#666666">[text]</text>
<polygon fill="none" stroke="black" points="781.25,-74 781.25,-104.8 1013.22,-104.8 1013.22,-74 781.25,-74"/>
<text text-anchor="start" x="788.25" y="-86.2" font-family="Arial" font-size="14.00">requires </text>
<text text-anchor="start" x="842.72" y="-86.2" font-family="Arial" font-size="14.00" fill="#666666">[text[]]</text>
<polygon fill="none" stroke="black" points="781.25,-43.2 781.25,-74 1013.22,-74 1013.22,-43.2 781.25,-43.2"/>
<text text-anchor="start" x="788.25" y="-55.4" font-family="Arial" font-size="14.00">guarantees </text>
<text text-anchor="start" x="862.2" y="-55.4" font-family="Arial" font-size="14.00" fill="#666666">[text[]]</text>
</g>
<!-- public.action_parameter&#45;&gt;public.action -->
<g id="edge2" class="edge">
<title>public.action_parameter:model_key&#45;&gt;public.action:model_key</title>
<path fill="none" stroke="black" d="M890.07,-650.35C999.74,-640.54 947.22,-471.61 878.69,-373.6 852.23,-335.77 807.84,-375.34 781.25,-337.6 757.14,-303.37 738.39,-243.4 780.25,-243.4"/>
<polygon fill="black" stroke="black" points="890.01,-650.35 879.83,-646.29 884.68,-650.58 880.36,-650.77 880.36,-650.77 880.36,-650.77 884.68,-650.58 880.22,-655.28 890.01,-650.35"/>
<text text-anchor="start" x="886.69" y="-660.8" font-family="Arial" font-size="10.00">FOREIGN KEY (model_key, action_key) REFERENCES action(model_key, action_key) ON DELETE CASCADE</text>
</g>
</g>
</svg>
