<?xml version="1.0" encoding="UTF-8" standalone="no"?>
<!DOCTYPE svg PUBLIC "-//W3C//DTD SVG 1.1//EN"
 "http://www.w3.org/Graphics/SVG/1.1/DTD/svg11.dtd">
<!-- Generated by graphviz version 12.1.2 (20240928.0832)
 -->
<!-- Title: public.class_index Pages: 1 -->
<svg width="1325pt" height="756pt"
 viewBox="0.00 0.00 1324.72 756.00" xmlns="http://www.w3.org/2000/svg" xmlns:xlink="http://www.w3.org/1999/xlink">
<g id="graph0" class="graph" transform="scale(1 1) rotate(0) translate(4 752)">
<title>public.class_index</title>
<polygon fill="white" stroke="none" points="-4,4 -4,-752 1320.72,-752 1320.72,4 -4,4"/>
<!-- public.class_index -->
<g id="node1" class="node">
<title>public.class_index</title>
<polygon fill="#efefef" stroke="none" points="502.35,-666.2 502.35,-701.8 774.31,-701.8 774.31,-666.2 502.35,-666.2"/>
<polygon fill="none" stroke="black" points="502.35,-666.2 502.35,-701.8 774.31,-701.8 774.31,-666.2 502.35,-666.2"/>
<text text-anchor="start" x="509.35" y="-679.6" font-family="Arial Bold" font-size="18.00">public.class_index</text>
<text text-anchor="start" x="642.82" y="-679.6" font-family="Arial" font-size="14.00">    </text>
<text text-anchor="start" x="673.94" y="-679.6" font-family="Arial" font-size="14.00" fill="#666666">[BASE TABLE]</text>
<polygon fill="none" stroke="black" points="502.35,-635.4 502.35,-666.2 774.31,-666.2 774.31,-635.4 502.35,-635.4"/>
<text text-anchor="start" x="509.35" y="-647.6" font-family="Arial" font-size="14.00">model_key </text>
<text text-anchor="start" x="580.95" y="-647.6" font-family="Arial" font-size="14.00" fill="#666666">[text]</text>
<polygon fill="none" stroke="black" points="502.35,-604.6 502.35,-635.4 774.31,-635.4 774.31,-604.6 502.35,-604.6"/>
<text text-anchor="start" x="509.35" y="-616.8" font-family="Arial" font-size="14.00">class_key </text>
<text text-anchor="start" x="574.71" y="-616.8" font-family="Arial" font-size="14.00" fill="#666666">[text]</text>
<polygon fill="none" stroke="black" points="502.35,-573.8 502.35,-604.6 774.31,-604.6 774.31,-573.8 502.35,-573.8"/>
<text text-anchor="start" x="509.35" y="-586" font-family="Arial" font-size="14.00">index_num </text>
<text text-anchor="start" x="581.73" y="-586" font-family="Arial" font-size="14.00" fill="#666666">[integer]</text>
<polygon fill="none" stroke="black" points="502.35,-543 502.35,-573.8 774.31,-573.8 774.31,-543 502.35,-543"/>
<text text-anchor="start" x="509.35" y="-555.2" font-family="Arial" font-size="14.00">attribute_key </text>
<text text-anchor="start" x="593.4" y="-555.2" font-family="Arial" font-size="14.00" fill="#666666">[text]</text>
<polygon fill="none" stroke="black" stroke-width="3" points="500.85,-541.5 500.85,-703.3 775.81,-703.3 775.81,-541.5 500.85,-541.5"/>
</g>
<!-- public.class -->
<g id="node2" class="node">
<title>public.class</title>
<polygon fill="#efefef" stroke="none" points="356.85,-382 356.85,-417.6 579.82,-417.6 579.82,-382 356.85,-382"/>
<polygon fill="none" stroke="black" points="356.85,-382 356.85,-417.6 579.82,-417.6 579.82,-382 356.85,-382"/>
<text text-anchor="start" x="363.85" y="-395.4" font-family="Arial Bold" font-size="18.00">public.class</text>
<text text-anchor="start" x="448.33" y="-395.4" font-family="Arial" font-size="14.00">    </text>
<text text-anchor="start" x="479.45" y="-395.4" font-family="Arial" font-size="14.00" fill="#666666">[BASE TABLE]</text>
<polygon fill="none" stroke="black" points="356.85,-351.2 356.85,-382 579.82,-382 579.82,-351.2 356.85,-351.2"/>
<text text-anchor="start" x="363.85" y="-363.4" font-family="Arial" font-size="14.00">model_key </text>
<text text-anchor="start" x="435.44" y="-363.4" font-family="Arial" font-size="14.00" fill="#666666">[text]</text>
<polygon fill="none" stroke="black" points="356.85,-320.4 356.85,-351.2 579.82,-351.2 579.82,-320.4 356.85,-320.4"/>
<text text-anchor="start" x="363.85" y="-332.6" font-family="Arial" font-size="14.00">class_key </text>
<text text-anchor="start" x="429.21" y="-332.6" font-family="Arial" font-size="14.00" fill="#666666">[text]</text>
<polygon fill="none" stroke="black" points="356.85,-289.6 356.85,-320.4 579.82,-320.4 579.82,-289.6 356.85,-289.6"/>
<text text-anchor="start" x="363.85" y="-301.8" font-family="Arial" font-size="14.00">name </text>
<text text-anchor="start" x="402.76" y="-301.8" font-family="Arial" font-size="14.00" fill="#666666">[text]</text>
<polygon fill="none" stroke="black" points="356.85,-258.8 356.85,-289.6 579.82,-289.6 579.82,-258.8 356.85,-258.8"/>
<text text-anchor="start" x="363.85" y="-271" font-family="Arial" font-size="14.00">subdomain_key </text>
<text text-anchor="start" x="465.8" y="-271" font-family="Arial" font-size="14.00" fill="#666666">[text]</text>
<polygon fill="none" stroke="black" points="356.85,-228 356.85,-258.8 579.82,-258.8 579.82,-228 356.85,-228"/>
<text text-anchor="start" x="363.85" y="-240.2" font-family="Arial" font-size="14.00">actor_key </text>
<text text-anchor="start" x="428.43" y="-240.2" font-family="Arial" font-size="14.00" fill="#666666">[text]</text>
<polygon fill="none" stroke="black" points="356.85,-197.2 356.85,-228 579.82,-228 579.82,-197.2 356.85,-197.2"/>
<text text-anchor="start" x="363.85" y="-209.4" font-family="Arial" font-size="14.00">superclass_of_key </text>
<text text-anchor="start" x="483.69" y="-209.4" font-family="Arial" font-size="14.00" fill="#666666">[text]</text>
<polygon fill="none" stroke="black" points="356.85,-166.4 356.85,-197.2 579.82,-197.2 579.82,-166.4 356.85,-166.4"/>
<text text-anchor="start" x="363.85" y="-178.6" font-family="Arial" font-size="14.00">subclass_of_key </text>
<text text-anchor="start" x="471.24" y="-178.6" font-family="Arial" font-size="14.00" fill="#666666">[text]</text>
<polygon fill="none" stroke="black" points="356.85,-135.6 356.85,-166.4 579.82,-166.4 579.82,-135.6 356.85,-135.6"/>
<text text-anchor="start" x="363.85" y="-147.8" font-family="Arial" font-size="14.00">details </text>
<text text-anchor="start" x="408.21" y="-147.8" font-family="Arial" font-size="14.00" fill="#666666">[text]</text>
<polygon fill="none" stroke="black" points="356.85,-104.8 356.85,-135.6 579.82,-135.6 579.82,-104.8 356.85,-104.8"/>
<text text-anchor="start" x="363.85" y="-117" font-family="Arial" font-size="14.00">unfinished_notes </text>
<text text-anchor="start" x="473.6" y="-117" font-family="Arial" font-size="14.00" fill="#666666">[text]</text>
<polygon fill="none" stroke="black" points="356.85,-74 356.85,-104.8 579.82,-104.8 579.82,-74 356.85,-74"/>
<text text-anchor="start" x="363.85" y="-86.2" font-family="Arial" font-size="14.00">uml_comment </text>
<text text-anchor="start" x="455.66" y="-86.2" font-family="Arial" font-size="14.00" fill="#666666">[text]</text>
<polygon fill="none" stroke="black" points="356.85,-43.2 356.85,-74 579.82,-74 579.82,-43.2 356.85,-43.2"/>
<text text-anchor="start" x="363.85" y="-55.4" font-family="Arial" font-size="14.00">marked </text>
<text text-anchor="start" x="414.42" y="-55.4" font-family="Arial" font-size="14.00" fill="#666666">[boolean]</text>
</g>
<!-- public.class_index&#45;&gt;public.class -->
<g id="edge1" class="edge">
<title>public.class_index:model_key&#45;&gt;public.class:model_key</title>
<path fill="none" stroke="black" d="M491.01,-649.96C436.47,-640.37 467.38,-551.23 502.35,-496.8 522.88,-464.86 559.23,-492.7 579.82,-460.8 602.52,-425.62 622.69,-366.6 580.82,-366.6"/>
<polygon fill="black" stroke="black" points="491.05,-649.96 500.65,-655.26 496.37,-650.39 500.69,-650.75 500.69,-650.75 500.69,-650.75 496.37,-650.39 501.39,-646.29 491.05,-649.96"/>
<text text-anchor="start" x="7" y="-660.8" font-family="Arial" font-size="10.00">FOREIGN KEY (model_key, class_key) REFERENCES class(model_key, class_key) ON DELETE CASCADE</text>
</g>
<!-- public.attribute -->
<g id="node3" class="node">
<title>public.attribute</title>
<polygon fill="#efefef" stroke="none" points="684.35,-382 684.35,-417.6 932.31,-417.6 932.31,-382 684.35,-382"/>
<polygon fill="none" stroke="black" points="684.35,-382 684.35,-417.6 932.31,-417.6 932.31,-382 684.35,-382"/>
<text text-anchor="start" x="691.35" y="-395.4" font-family="Arial Bold" font-size="18.00">public.attribute</text>
<text text-anchor="start" x="800.82" y="-395.4" font-family="Arial" font-size="14.00">    </text>
<text text-anchor="start" x="831.94" y="-395.4" font-family="Arial" font-size="14.00" fill="#666666">[BASE TABLE]</text>
<polygon fill="none" stroke="black" points="684.35,-351.2 684.35,-382 932.31,-382 932.31,-351.2 684.35,-351.2"/>
<text text-anchor="start" x="691.35" y="-363.4" font-family="Arial" font-size="14.00">model_key </text>
<text text-anchor="start" x="762.95" y="-363.4" font-family="Arial" font-size="14.00" fill="#666666">[text]</text>
<polygon fill="none" stroke="black" points="684.35,-320.4 684.35,-351.2 932.31,-351.2 932.31,-320.4 684.35,-320.4"/>
<text text-anchor="start" x="691.35" y="-332.6" font-family="Arial" font-size="14.00">attribute_key </text>
<text text-anchor="start" x="775.4" y="-332.6" font-family="Arial" font-size="14.00" fill="#666666">[text]</text>
<polygon fill="none" stroke="black" points="684.35,-289.6 684.35,-320.4 932.31,-320.4 932.31,-289.6 684.35,-289.6"/>
<text text-anchor="start" x="691.35" y="-301.8" font-family="Arial" font-size="14.00">class_key </text>
<text text-anchor="start" x="756.71" y="-301.8" font-family="Arial" font-size="14.00" fill="#666666">[text]</text>
<polygon fill="none" stroke="black" points="684.35,-258.8 684.35,-289.6 932.31,-289.6 932.31,-258.8 684.35,-258.8"/>
<text text-anchor="start" x="691.35" y="-271" font-family="Arial" font-size="14.00">sort_order </text>
<text text-anchor="start" x="759.05" y="-271" font-family="Arial" font-size="14.00" fill="#666666">[integer]</text>
<polygon fill="none" stroke="black" points="684.35,-228 684.35,-258.8 932.31,-258.8 932.31,-228 684.35,-228"/>
<text text-anchor="start" x="691.35" y="-240.2" font-family="Arial" font-size="14.00">name </text>
<text text-anchor="start" x="730.27" y="-240.2" font-family="Arial" font-size="14.00" fill="#666666">[text]</text>
<polygon fill="none" stroke="black" points="684.35,-197.2 684.35,-228 932.31,-228 932.31,-197.2 684.35,-197.2"/>
<text text-anchor="start" x="691.35" y="-209.4" font-family="Arial" font-size="14.00">details </text>
<text text-anchor="start" x="735.71" y="-209.4" font-family="Arial" font-size="14.00" fill="#666666">[text]</text>
<polygon fill="none" stroke="black" points="684.35,-166.4 684.35,-197.2 932.31,-197.2 932.31,-166.4 684.35,-166.4"/>
<text text-anchor="start" x="691.35" y="-178.6" font-family="Arial" font-size="14.00">data_type_rules </text>
<text text-anchor="start" x="794.87" y="-178.6" font-family="Arial" font-size="14.00" fill="#666666">[text]</text>
<polygon fill="none" stroke="black" points="684.35,-135.6 684.35,-166.4 932.31,-166.4 932.31,-135.6 684.35,-135.6"/>
<text text-anchor="start" x="691.35" y="-147.8" font-family="Arial" font-size="14.00">data_type_key </text>
<text text-anchor="start" x="786.31" y="-147.8" font-family="Arial" font-size="14.00" fill="#666666">[text]</text>
<polygon fill="none" stroke="black" points="684.35,-104.8 684.35,-135.6 932.31,-135.6 932.31,-104.8 684.35,-104.8"/>
<text text-anchor="start" x="691.35" y="-117" font-family="Arial" font-size="14.00">derivation_policy_key </text>
<text text-anchor="start" x="829.1" y="-117" font-family="Arial" font-size="14.00" fill="#666666">[text]</text>
<polygon fill="none" stroke="black" points="684.35,-74 684.35,-104.8 932.31,-104.8 932.31,-74 684.35,-74"/>
<text text-anchor="start" x="691.35" y="-86.2" font-family="Arial" font-size="14.00">nullable </text>
<text text-anchor="start" x="743.51" y="-86.2" font-family="Arial" font-size="14.00" fill="#666666">[boolean]</text>
<polygon fill="none" stroke="black" points="684.35,-43.2 684.35,-74 932.31,-74 932.31,-43.2 684.35,-43.2"/>
<text text-anchor="start" x="691.35" y="-55.4" font-family="Arial" font-size="14.00">uml_comment </text>
<text text-anchor="start" x="783.16" y="-55.4" font-family="Arial" font-size="14.00" fill="#666666">[text]</text>
</g>
<!-- public.class_index&#45;&gt;public.attribute -->
<g id="edge2" class="edge">
<title>public.class_index:model_key&#45;&gt;public.attribute:model_key</title>
<path fill="none" stroke="black" d="M785.67,-649.95C840.36,-640.26 810.76,-550.26 774.31,-496.8 750.06,-461.22 708.68,-496.33 684.35,-460.8 660.7,-426.25 641.49,-366.6 683.35,-366.6"/>
<polygon fill="black" stroke="black" points="785.61,-649.95 775.28,-646.29 780.3,-650.39 775.98,-650.75 775.98,-650.75 775.98,-650.75 780.3,-650.39 776.02,-655.26 785.61,-649.95"/>
<text text-anchor="start" x="782.31" y="-660.8" font-family="Arial" font-size="10.00">FOREIGN KEY (model_key, attribute_key) REFERENCES attribute(model_key, attribute_key) ON DELETE CASCADE</text>
</g>
</g>
</svg>
