<?xml version="1.0" encoding="UTF-8" standalone="no"?>
<!DOCTYPE svg PUBLIC "-//W3C//DTD SVG 1.1//EN"
 "http://www.w3.org/Graphics/SVG/1.1/DTD/svg11.dtd">
<!-- Generated by graphviz version 12.1.2 (20240928.0832)
 -->
<!-- Title: public.data_type Pages: 1 -->
<svg width="3239pt" height="1037pt"
 viewBox="0.00 0.00 3239.15 1037.20" xmlns="http://www.w3.org/2000/svg" xmlns:xlink="http://www.w3.org/1999/xlink">
<g id="graph0" class="graph" transform="scale(1 1) rotate(0) translate(4 1033.2)">
<title>public.data_type</title>
<polygon fill="white" stroke="none" points="-4,4 -4,-1033.2 3235.15,-1033.2 3235.15,4 -4,4"/>
<!-- public.data_type -->
<g id="node1" class="node">
<title>public.data_type</title>
<polygon fill="#efefef" stroke="none" points="1257.84,-481.4 1257.84,-517 1515.79,-517 1515.79,-481.4 1257.84,-481.4"/>
<polygon fill="none" stroke="black" points="1257.84,-481.4 1257.84,-517 1515.79,-517 1515.79,-481.4 1257.84,-481.4"/>
<text text-anchor="start" x="1264.84" y="-494.8" font-family="Arial Bold" font-size="18.00">public.data_type</text>
<text text-anchor="start" x="1384.3" y="-494.8" font-family="Arial" font-size="14.00">    </text>
<text text-anchor="start" x="1415.42" y="-494.8" font-family="Arial" font-size="14.00" fill="#666666">[BASE TABLE]</text>
<polygon fill="none" stroke="black" points="1257.84,-450.6 1257.84,-481.4 1515.79,-481.4 1515.79,-450.6 1257.84,-450.6"/>
<text text-anchor="start" x="1264.84" y="-462.8" font-family="Arial" font-size="14.00">model_key </text>
<text text-anchor="start" x="1336.43" y="-462.8" font-family="Arial" font-size="14.00" fill="#666666">[text]</text>
<polygon fill="none" stroke="black" points="1257.84,-419.8 1257.84,-450.6 1515.79,-450.6 1515.79,-419.8 1257.84,-419.8"/>
<text text-anchor="start" x="1264.84" y="-432" font-family="Arial" font-size="14.00">data_type_key </text>
<text text-anchor="start" x="1359.8" y="-432" font-family="Arial" font-size="14.00" fill="#666666">[text]</text>
<polygon fill="none" stroke="black" points="1257.84,-389 1257.84,-419.8 1515.79,-419.8 1515.79,-389 1257.84,-389"/>
<text text-anchor="start" x="1264.84" y="-401.2" font-family="Arial" font-size="14.00">collection_type </text>
<text text-anchor="start" x="1361.34" y="-401.2" font-family="Arial" font-size="14.00" fill="#666666">[collection_type]</text>
<polygon fill="none" stroke="black" points="1257.84,-358.2 1257.84,-389 1515.79,-389 1515.79,-358.2 1257.84,-358.2"/>
<text text-anchor="start" x="1264.84" y="-370.4" font-family="Arial" font-size="14.00">collection_unique </text>
<text text-anchor="start" x="1376.92" y="-370.4" font-family="Arial" font-size="14.00" fill="#666666">[boolean]</text>
<polygon fill="none" stroke="black" points="1257.84,-327.4 1257.84,-358.2 1515.79,-358.2 1515.79,-327.4 1257.84,-327.4"/>
<text text-anchor="start" x="1264.84" y="-339.6" font-family="Arial" font-size="14.00">collection_min </text>
<text text-anchor="start" x="1357.44" y="-339.6" font-family="Arial" font-size="14.00" fill="#666666">[bigint]</text>
<polygon fill="none" stroke="black" points="1257.84,-296.6 1257.84,-327.4 1515.79,-327.4 1515.79,-296.6 1257.84,-296.6"/>
<text text-anchor="start" x="1264.84" y="-308.8" font-family="Arial" font-size="14.00">collection_max </text>
<text text-anchor="start" x="1361.33" y="-308.8" font-family="Arial" font-size="14.00" fill="#666666">[bigint]</text>
<polygon fill="none" stroke="black" stroke-width="3" points="1256.34,-295.1 1256.34,-518.5 1517.29,-518.5 1517.29,-295.1 1256.34,-295.1"/>
</g>
<!-- public.model -->
<g id="node2" class="node">
<title>public.model</title>
<polygon fill="#efefef" stroke="none" points="1270.33,-135.6 1270.33,-171.2 1503.3,-171.2 1503.3,-135.6 1270.33,-135.6"/>
<polygon fill="none" stroke="black" points="1270.33,-135.6 1270.33,-171.2 1503.3,-171.2 1503.3,-135.6 1270.33,-135.6"/>
<text text-anchor="start" x="1277.33" y="-149" font-family="Arial Bold" font-size="18.00">public.model</text>
<text text-anchor="start" x="1371.81" y="-149" font-family="Arial" font-size="14.00">    </text>
<text text-anchor="start" x="1402.93" y="-149" font-family="Arial" font-size="14.00" fill="#666666">[BASE TABLE]</text>
<polygon fill="none" stroke="black" points="1270.33,-104.8 1270.33,-135.6 1503.3,-135.6 1503.3,-104.8 1270.33,-104.8"/>
<text text-anchor="start" x="1277.33" y="-117" font-family="Arial" font-size="14.00">model_key </text>
<text text-anchor="start" x="1348.92" y="-117" font-family="Arial" font-size="14.00" fill="#666666">[text]</text>
<polygon fill="none" stroke="black" points="1270.33,-74 1270.33,-104.8 1503.3,-104.8 1503.3,-74 1270.33,-74"/>
<text text-anchor="start" x="1277.33" y="-86.2" font-family="Arial" font-size="14.00">name </text>
<text text-anchor="start" x="1316.24" y="-86.2" font-family="Arial" font-size="14.00" fill="#666666">[text]</text>
<polygon fill="none" stroke="black" points="1270.33,-43.2 1270.33,-74 1503.3,-74 1503.3,-43.2 1270.33,-43.2"/>
<text text-anchor="start" x="1277.33" y="-55.4" font-family="Arial" font-size="14.00">details </text>
<text text-anchor="start" x="1321.69" y="-55.4" font-family="Arial" font-size="14.00" fill="#666666">[text]</text>
</g>
<!-- public.data_type&#45;&gt;public.model -->
<g id="edge1" class="edge">
<title>public.data_type:model_key&#45;&gt;public.model:model_key</title>
<path fill="none" stroke="black" d="M1526.9,-465.48C1669.95,-450.64 1654.64,-120.2 1504.3,-120.2"/>
<polygon fill="black" stroke="black" points="1527.11,-465.47 1516.9,-461.49 1521.78,-465.75 1517.46,-465.97 1517.46,-465.97 1517.46,-465.97 1521.78,-465.75 1517.35,-470.48 1527.11,-465.47"/>
<text text-anchor="start" x="1523.79" y="-476" font-family="Arial" font-size="10.00">FOREIGN KEY (model_key) REFERENCES model(model_key) ON DELETE CASCADE</text>
</g>
<!-- public.data_type_atomic -->
<g id="node3" class="node">
<title>public.data_type_atomic</title>
<polygon fill="#efefef" stroke="none" points="247.85,-888.8 247.85,-924.4 563.78,-924.4 563.78,-888.8 247.85,-888.8"/>
<polygon fill="none" stroke="black" points="247.85,-888.8 247.85,-924.4 563.78,-924.4 563.78,-888.8 247.85,-888.8"/>
<text text-anchor="start" x="254.85" y="-902.2" font-family="Arial Bold" font-size="18.00">public.data_type_atomic</text>
<text text-anchor="start" x="432.29" y="-902.2" font-family="Arial" font-size="14.00">    </text>
<text text-anchor="start" x="463.41" y="-902.2" font-family="Arial" font-size="14.00" fill="#666666">[BASE TABLE]</text>
<polygon fill="none" stroke="black" points="247.85,-858 247.85,-888.8 563.78,-888.8 563.78,-858 247.85,-858"/>
<text text-anchor="start" x="254.85" y="-870.2" font-family="Arial" font-size="14.00">model_key </text>
<text text-anchor="start" x="326.44" y="-870.2" font-family="Arial" font-size="14.00" fill="#666666">[text]</text>
<polygon fill="none" stroke="black" points="247.85,-827.2 247.85,-858 563.78,-858 563.78,-827.2 247.85,-827.2"/>
<text text-anchor="start" x="254.85" y="-839.4" font-family="Arial" font-size="14.00">data_type_key </text>
<text text-anchor="start" x="349.81" y="-839.4" font-family="Arial" font-size="14.00" fill="#666666">[text]</text>
<polygon fill="none" stroke="black" points="247.85,-796.4 247.85,-827.2 563.78,-827.2 563.78,-796.4 247.85,-796.4"/>
<text text-anchor="start" x="254.85" y="-808.6" font-family="Arial" font-size="14.00">constraint_type </text>
<text text-anchor="start" x="353.68" y="-808.6" font-family="Arial" font-size="14.00" fill="#666666">[constraint_type]</text>
<polygon fill="none" stroke="black" points="247.85,-765.6 247.85,-796.4 563.78,-796.4 563.78,-765.6 247.85,-765.6"/>
<text text-anchor="start" x="254.85" y="-777.8" font-family="Arial" font-size="14.00">reference </text>
<text text-anchor="start" x="317.88" y="-777.8" font-family="Arial" font-size="14.00" fill="#666666">[text]</text>
<polygon fill="none" stroke="black" points="247.85,-734.8 247.85,-765.6 563.78,-765.6 563.78,-734.8 247.85,-734.8"/>
<text text-anchor="start" x="254.85" y="-747" font-family="Arial" font-size="14.00">enum_ordered </text>
<text text-anchor="start" x="349.8" y="-747" font-family="Arial" font-size="14.00" fill="#666666">[boolean]</text>
<polygon fill="none" stroke="black" points="247.85,-704 247.85,-734.8 563.78,-734.8 563.78,-704 247.85,-704"/>
<text text-anchor="start" x="254.85" y="-716.2" font-family="Arial" font-size="14.00">object_class_key </text>
<text text-anchor="start" x="365.35" y="-716.2" font-family="Arial" font-size="14.00" fill="#666666">[text]</text>
</g>
<!-- public.data_type_atomic&#45;&gt;public.data_type -->
<g id="edge2" class="edge">
<title>public.data_type_atomic:model_key&#45;&gt;public.data_type:model_key</title>
<path fill="none" stroke="black" d="M574.96,-872.93C679.6,-862.61 531.62,-685.17 615.82,-599.2 717.62,-495.25 1111.35,-466 1256.84,-466"/>
<polygon fill="black" stroke="black" points="575.1,-872.92 564.91,-868.89 569.78,-873.17 565.45,-873.37 565.45,-873.37 565.45,-873.37 569.78,-873.17 565.32,-877.88 575.1,-872.92"/>
<text text-anchor="start" x="7" y="-883.4" font-family="Arial" font-size="10.00">FOREIGN KEY (model_key, data_type_key) REFERENCES data_type(model_key, data_type_key) ON DELETE CASCADE</text>
</g>
<!-- public.data_type_field -->
<g id="node4" class="node">
<title>public.data_type_field</title>
<polygon fill="#efefef" stroke="none" points="667.85,-858 667.85,-893.6 967.78,-893.6 967.78,-858 667.85,-858"/>
<polygon fill="none" stroke="black" points="667.85,-858 667.85,-893.6 967.78,-893.6 967.78,-858 667.85,-858"/>
<text text-anchor="start" x="674.85" y="-871.4" font-family="Arial Bold" font-size="18.00">public.data_type_field</text>
<text text-anchor="start" x="836.29" y="-871.4" font-family="Arial" font-size="14.00">    </text>
<text text-anchor="start" x="867.41" y="-871.4" font-family="Arial" font-size="14.00" fill="#666666">[BASE TABLE]</text>
<polygon fill="none" stroke="black" points="667.85,-827.2 667.85,-858 967.78,-858 967.78,-827.2 667.85,-827.2"/>
<text text-anchor="start" x="674.85" y="-839.4" font-family="Arial" font-size="14.00">model_key </text>
<text text-anchor="start" x="746.44" y="-839.4" font-family="Arial" font-size="14.00" fill="#666666">[text]</text>
<polygon fill="none" stroke="black" points="667.85,-796.4 667.85,-827.2 967.78,-827.2 967.78,-796.4 667.85,-796.4"/>
<text text-anchor="start" x="674.85" y="-808.6" font-family="Arial" font-size="14.00">data_type_key </text>
<text text-anchor="start" x="769.81" y="-808.6" font-family="Arial" font-size="14.00" fill="#666666">[text]</text>
<polygon fill="none" stroke="black" points="667.85,-765.6 667.85,-796.4 967.78,-796.4 967.78,-765.6 667.85,-765.6"/>
<text text-anchor="start" x="674.85" y="-777.8" font-family="Arial" font-size="14.00">name </text>
<text text-anchor="start" x="713.76" y="-777.8" font-family="Arial" font-size="14.00" fill="#666666">[text]</text>
<polygon fill="none" stroke="black" points="667.85,-734.8 667.85,-765.6 967.78,-765.6 967.78,-734.8 667.85,-734.8"/>
<text text-anchor="start" x="674.85" y="-747" font-family="Arial" font-size="14.00">field_data_type_key </text>
<text text-anchor="start" x="803.27" y="-747" font-family="Arial" font-size="14.00" fill="#666666">[text]</text>
</g>
<!-- public.data_type_field&#45;&gt;public.data_type -->
<g id="edge3" class="edge">
<title>public.data_type_field:model_key&#45;&gt;public.data_type:model_key</title>
<path fill="none" stroke="black" d="M979.17,-841.97C1061.31,-831.24 947.88,-685.02 1010.82,-599.2 1082.27,-501.75 1127,-466 1256.84,-466"/>
<polygon fill="black" stroke="black" points="979.1,-841.98 968.85,-838.09 973.77,-842.3 969.45,-842.56 969.45,-842.56 969.45,-842.56 973.77,-842.3 969.39,-847.07 979.1,-841.98"/>
<text text-anchor="start" x="411" y="-852.6" font-family="Arial" font-size="10.00">FOREIGN KEY (model_key, data_type_key) REFERENCES data_type(model_key, data_type_key) ON DELETE CASCADE</text>
</g>
<!-- public.data_type_field&#45;&gt;public.data_type -->
<g id="edge4" class="edge">
<title>public.data_type_field:model_key&#45;&gt;public.data_type:model_key</title>
<path fill="none" stroke="black" d="M979.28,-842.16C1080.7,-833.03 965.49,-685.55 1028.82,-599.2 1100.2,-501.85 1144.91,-466.07 1256.51,-466"/>
<polygon fill="black" stroke="black" points="979.46,-842.15 969.27,-838.09 974.13,-842.38 969.8,-842.57 969.8,-842.57 969.8,-842.57 974.13,-842.38 969.66,-847.08 979.46,-842.15"/>
<text text-anchor="start" x="387.45" y="-826.6" font-family="Arial" font-size="10.00">FOREIGN KEY (model_key, field_data_type_key) REFERENCES data_type(model_key, data_type_key) ON DELETE CASCADE</text>
</g>
<!-- public.attribute -->
<g id="node5" class="node">
<title>public.attribute</title>
<polygon fill="#efefef" stroke="none" points="1071.84,-950.4 1071.84,-986 1319.79,-986 1319.79,-950.4 1071.84,-950.4"/>
<polygon fill="none" stroke="black" points="1071.84,-950.4 1071.84,-986 1319.79,-986 1319.79,-950.4 1071.84,-950.4"/>
<text text-anchor="start" x="1078.84" y="-963.8" font-family="Arial Bold" font-size="18.00">public.attribute</text>
<text text-anchor="start" x="1188.3" y="-963.8" font-family="Arial" font-size="14.00">    </text>
<text text-anchor="start" x="1219.42" y="-963.8" font-family="Arial" font-size="14.00" fill="#666666">[BASE TABLE]</text>
<polygon fill="none" stroke="black" points="1071.84,-919.6 1071.84,-950.4 1319.79,-950.4 1319.79,-919.6 1071.84,-919.6"/>
<text text-anchor="start" x="1078.84" y="-931.8" font-family="Arial" font-size="14.00">model_key </text>
<text text-anchor="start" x="1150.43" y="-931.8" font-family="Arial" font-size="14.00" fill="#666666">[text]</text>
<polygon fill="none" stroke="black" points="1071.84,-888.8 1071.84,-919.6 1319.79,-919.6 1319.79,-888.8 1071.84,-888.8"/>
<text text-anchor="start" x="1078.84" y="-901" font-family="Arial" font-size="14.00">attribute_key </text>
<text text-anchor="start" x="1162.88" y="-901" font-family="Arial" font-size="14.00" fill="#666666">[text]</text>
<polygon fill="none" stroke="black" points="1071.84,-858 1071.84,-888.8 1319.79,-888.8 1319.79,-858 1071.84,-858"/>
<text text-anchor="start" x="1078.84" y="-870.2" font-family="Arial" font-size="14.00">class_key </text>
<text text-anchor="start" x="1144.2" y="-870.2" font-family="Arial" font-size="14.00" fill="#666666">[text]</text>
<polygon fill="none" stroke="black" points="1071.84,-827.2 1071.84,-858 1319.79,-858 1319.79,-827.2 1071.84,-827.2"/>
<text text-anchor="start" x="1078.84" y="-839.4" font-family="Arial" font-size="14.00">name </text>
<text text-anchor="start" x="1117.75" y="-839.4" font-family="Arial" font-size="14.00" fill="#666666">[text]</text>
<polygon fill="none" stroke="black" points="1071.84,-796.4 1071.84,-827.2 1319.79,-827.2 1319.79,-796.4 1071.84,-796.4"/>
<text text-anchor="start" x="1078.84" y="-808.6" font-family="Arial" font-size="14.00">details </text>
<text text-anchor="start" x="1123.2" y="-808.6" font-family="Arial" font-size="14.00" fill="#666666">[text]</text>
<polygon fill="none" stroke="black" points="1071.84,-765.6 1071.84,-796.4 1319.79,-796.4 1319.79,-765.6 1071.84,-765.6"/>
<text text-anchor="start" x="1078.84" y="-777.8" font-family="Arial" font-size="14.00">data_type_rules </text>
<text text-anchor="start" x="1182.35" y="-777.8" font-family="Arial" font-size="14.00" fill="#666666">[text]</text>
<polygon fill="none" stroke="black" points="1071.84,-734.8 1071.84,-765.6 1319.79,-765.6 1319.79,-734.8 1071.84,-734.8"/>
<text text-anchor="start" x="1078.84" y="-747" font-family="Arial" font-size="14.00">data_type_key </text>
<text text-anchor="start" x="1173.79" y="-747" font-family="Arial" font-size="14.00" fill="#666666">[text]</text>
<polygon fill="none" stroke="black" points="1071.84,-704 1071.84,-734.8 1319.79,-734.8 1319.79,-704 1071.84,-704"/>
<text text-anchor="start" x="1078.84" y="-716.2" font-family="Arial" font-size="14.00">derivation_policy_key </text>
<text text-anchor="start" x="1216.58" y="-716.2" font-family="Arial" font-size="14.00" fill="#666666">[text]</text>
<polygon fill="none" stroke="black" points="1071.84,-673.2 1071.84,-704 1319.79,-704 1319.79,-673.2 1071.84,-673.2"/>
<text text-anchor="start" x="1078.84" y="-685.4" font-family="Arial" font-size="14.00">nullable </text>
<text text-anchor="start" x="1130.99" y="-685.4" font-family="Arial" font-size="14.00" fill="#666666">[boolean]</text>
<polygon fill="none" stroke="black" points="1071.84,-642.4 1071.84,-673.2 1319.79,-673.2 1319.79,-642.4 1071.84,-642.4"/>
<text text-anchor="start" x="1078.84" y="-654.6" font-family="Arial" font-size="14.00">uml_comment </text>
<text text-anchor="start" x="1170.64" y="-654.6" font-family="Arial" font-size="14.00" fill="#666666">[text]</text>
</g>
<!-- public.attribute&#45;&gt;public.data_type -->
<g id="edge5" class="edge">
<title>public.attribute:model_key&#45;&gt;public.data_type:model_key</title>
<path fill="none" stroke="black" d="M1330.93,-933.12C1391.68,-909.01 1355.29,-660.67 1319.79,-599.2 1303.87,-571.62 1273.87,-590.72 1257.84,-563.2 1236.1,-525.87 1213.64,-466 1256.84,-466"/>
<polygon fill="black" stroke="black" points="1330.95,-933.11 1320.3,-930.51 1325.71,-934.09 1321.45,-934.88 1321.45,-934.88 1321.45,-934.88 1325.71,-934.09 1321.95,-939.36 1330.95,-933.11"/>
<text text-anchor="start" x="763.01" y="-945" font-family="Arial" font-size="10.00">FOREIGN KEY (model_key, data_type_key) REFERENCES data_type(model_key, data_type_key) ON DELETE CASCADE</text>
</g>
<!-- public.query_parameter -->
<g id="node6" class="node">
<title>public.query_parameter</title>
<polygon fill="#efefef" stroke="none" points="1423.86,-904.2 1423.86,-939.8 1733.77,-939.8 1733.77,-904.2 1423.86,-904.2"/>
<polygon fill="none" stroke="black" points="1423.86,-904.2 1423.86,-939.8 1733.77,-939.8 1733.77,-904.2 1423.86,-904.2"/>
<text text-anchor="start" x="1430.86" y="-917.6" font-family="Arial Bold" font-size="18.00">public.query_parameter</text>
<text text-anchor="start" x="1602.28" y="-917.6" font-family="Arial" font-size="14.00">    </text>
<text text-anchor="start" x="1633.4" y="-917.6" font-family="Arial" font-size="14.00" fill="#666666">[BASE TABLE]</text>
<polygon fill="none" stroke="black" points="1423.86,-873.4 1423.86,-904.2 1733.77,-904.2 1733.77,-873.4 1423.86,-873.4"/>
<text text-anchor="start" x="1430.86" y="-885.6" font-family="Arial" font-size="14.00">model_key </text>
<text text-anchor="start" x="1502.45" y="-885.6" font-family="Arial" font-size="14.00" fill="#666666">[text]</text>
<polygon fill="none" stroke="black" points="1423.86,-842.6 1423.86,-873.4 1733.77,-873.4 1733.77,-842.6 1423.86,-842.6"/>
<text text-anchor="start" x="1430.86" y="-854.8" font-family="Arial" font-size="14.00">query_key </text>
<text text-anchor="start" x="1499.34" y="-854.8" font-family="Arial" font-size="14.00" fill="#666666">[text]</text>
<polygon fill="none" stroke="black" points="1423.86,-811.8 1423.86,-842.6 1733.77,-842.6 1733.77,-811.8 1423.86,-811.8"/>
<text text-anchor="start" x="1430.86" y="-824" font-family="Arial" font-size="14.00">parameter_key </text>
<text text-anchor="start" x="1528.13" y="-824" font-family="Arial" font-size="14.00" fill="#666666">[text]</text>
<polygon fill="none" stroke="black" points="1423.86,-781 1423.86,-811.8 1733.77,-811.8 1733.77,-781 1423.86,-781"/>
<text text-anchor="start" x="1430.86" y="-793.2" font-family="Arial" font-size="14.00">name </text>
<text text-anchor="start" x="1469.77" y="-793.2" font-family="Arial" font-size="14.00" fill="#666666">[text]</text>
<polygon fill="none" stroke="black" points="1423.86,-750.2 1423.86,-781 1733.77,-781 1733.77,-750.2 1423.86,-750.2"/>
<text text-anchor="start" x="1430.86" y="-762.4" font-family="Arial" font-size="14.00">sort_order </text>
<text text-anchor="start" x="1498.56" y="-762.4" font-family="Arial" font-size="14.00" fill="#666666">[integer]</text>
<polygon fill="none" stroke="black" points="1423.86,-719.4 1423.86,-750.2 1733.77,-750.2 1733.77,-719.4 1423.86,-719.4"/>
<text text-anchor="start" x="1430.86" y="-731.6" font-family="Arial" font-size="14.00">data_type_rules </text>
<text text-anchor="start" x="1534.38" y="-731.6" font-family="Arial" font-size="14.00" fill="#666666">[text]</text>
<polygon fill="none" stroke="black" points="1423.86,-688.6 1423.86,-719.4 1733.77,-719.4 1733.77,-688.6 1423.86,-688.6"/>
<text text-anchor="start" x="1430.86" y="-700.8" font-family="Arial" font-size="14.00">data_type_key </text>
<text text-anchor="start" x="1525.82" y="-700.8" font-family="Arial" font-size="14.00" fill="#666666">[text]</text>
</g>
<!-- public.query_parameter&#45;&gt;public.data_type -->
<g id="edge6" class="edge">
<title>public.query_parameter:model_key&#45;&gt;public.data_type:model_key</title>
<path fill="none" stroke="black" d="M1413.21,-886.33C1373.09,-863.66 1403.15,-691.45 1423.86,-645.4 1446.34,-595.41 1493.15,-613.12 1515.79,-563.2 1533.63,-523.85 1559.99,-466 1516.79,-466"/>
<polygon fill="black" stroke="black" points="1412.85,-886.24 1421.42,-893.08 1418.02,-887.56 1422.21,-888.63 1422.21,-888.63 1422.21,-888.63 1418.02,-887.56 1423.65,-884.36 1412.85,-886.24"/>
<text text-anchor="start" x="1147.47" y="-872.8" font-family="Arial" font-size="10.00">FOREIGN KEY (model_key, data_type_key) REFERENCES data_type(model_key, data_type_key) ON DELETE CASCADE</text>
</g>
<!-- public.event_parameter -->
<g id="node7" class="node">
<title>public.event_parameter</title>
<polygon fill="#efefef" stroke="none" points="1837.86,-904.2 1837.86,-939.8 2145.77,-939.8 2145.77,-904.2 1837.86,-904.2"/>
<polygon fill="none" stroke="black" points="1837.86,-904.2 1837.86,-939.8 2145.77,-939.8 2145.77,-904.2 1837.86,-904.2"/>
<text text-anchor="start" x="1844.86" y="-917.6" font-family="Arial Bold" font-size="18.00">public.event_parameter</text>
<text text-anchor="start" x="2014.28" y="-917.6" font-family="Arial" font-size="14.00">    </text>
<text text-anchor="start" x="2045.4" y="-917.6" font-family="Arial" font-size="14.00" fill="#666666">[BASE TABLE]</text>
<polygon fill="none" stroke="black" points="1837.86,-873.4 1837.86,-904.2 2145.77,-904.2 2145.77,-873.4 1837.86,-873.4"/>
<text text-anchor="start" x="1844.86" y="-885.6" font-family="Arial" font-size="14.00">model_key </text>
<text text-anchor="start" x="1916.45" y="-885.6" font-family="Arial" font-size="14.00" fill="#666666">[text]</text>
<polygon fill="none" stroke="black" points="1837.86,-842.6 1837.86,-873.4 2145.77,-873.4 2145.77,-842.6 1837.86,-842.6"/>
<text text-anchor="start" x="1844.86" y="-854.8" font-family="Arial" font-size="14.00">event_key </text>
<text text-anchor="start" x="1912.57" y="-854.8" font-family="Arial" font-size="14.00" fill="#666666">[text]</text>
<polygon fill="none" stroke="black" points="1837.86,-811.8 1837.86,-842.6 2145.77,-842.6 2145.77,-811.8 1837.86,-811.8"/>
<text text-anchor="start" x="1844.86" y="-824" font-family="Arial" font-size="14.00">parameter_key </text>
<text text-anchor="start" x="1942.13" y="-824" font-family="Arial" font-size="14.00" fill="#666666">[text]</text>
<polygon fill="none" stroke="black" points="1837.86,-781 1837.86,-811.8 2145.77,-811.8 2145.77,-781 1837.86,-781"/>
<text text-anchor="start" x="1844.86" y="-793.2" font-family="Arial" font-size="14.00">name </text>
<text text-anchor="start" x="1883.77" y="-793.2" font-family="Arial" font-size="14.00" fill="#666666">[text]</text>
<polygon fill="none" stroke="black" points="1837.86,-750.2 1837.86,-781 2145.77,-781 2145.77,-750.2 1837.86,-750.2"/>
<text text-anchor="start" x="1844.86" y="-762.4" font-family="Arial" font-size="14.00">sort_order </text>
<text text-anchor="start" x="1912.56" y="-762.4" font-family="Arial" font-size="14.00" fill="#666666">[integer]</text>
<polygon fill="none" stroke="black" points="1837.86,-719.4 1837.86,-750.2 2145.77,-750.2 2145.77,-719.4 1837.86,-719.4"/>
<text text-anchor="start" x="1844.86" y="-731.6" font-family="Arial" font-size="14.00">data_type_rules </text>
<text text-anchor="start" x="1948.38" y="-731.6" font-family="Arial" font-size="14.00" fill="#666666">[text]</text>
<polygon fill="none" stroke="black" points="1837.86,-688.6 1837.86,-719.4 2145.77,-719.4 2145.77,-688.6 1837.86,-688.6"/>
<text text-anchor="start" x="1844.86" y="-700.8" font-family="Arial" font-size="14.00">data_type_key </text>
<text text-anchor="start" x="1939.82" y="-700.8" font-family="Arial" font-size="14.00" fill="#666666">[text]</text>
</g>
<!-- public.event_parameter&#45;&gt;public.data_type -->
<g id="edge7" class="edge">
<title>public.event_parameter:model_key&#45;&gt;public.data_type:model_key</title>
<path fill="none" stroke="black" d="M1826.86,-886.59C1777.27,-862.51 1822.77,-648.54 1785.82,-599.2 1705.84,-492.41 1650.21,-466 1516.79,-466"/>
<polygon fill="black" stroke="black" points="1826.77,-886.57 1835.57,-893.12 1831.98,-887.72 1836.21,-888.66 1836.21,-888.66 1836.21,-888.66 1831.98,-887.72 1837.51,-884.33 1826.77,-886.57"/>
<text text-anchor="start" x="1843.86" y="-898.8" font-family="Arial" font-size="10.00">FOREIGN KEY (model_key, data_type_key) REFERENCES data_type(model_key, data_type_key) ON DELETE CASCADE</text>
</g>
<!-- public.action_parameter -->
<g id="node8" class="node">
<title>public.action_parameter</title>
<polygon fill="#efefef" stroke="none" points="2250.36,-904.2 2250.36,-939.8 2563.27,-939.8 2563.27,-904.2 2250.36,-904.2"/>
<polygon fill="none" stroke="black" points="2250.36,-904.2 2250.36,-939.8 2563.27,-939.8 2563.27,-904.2 2250.36,-904.2"/>
<text text-anchor="start" x="2257.36" y="-917.6" font-family="Arial Bold" font-size="18.00">public.action_parameter</text>
<text text-anchor="start" x="2431.78" y="-917.6" font-family="Arial" font-size="14.00">    </text>
<text text-anchor="start" x="2462.9" y="-917.6" font-family="Arial" font-size="14.00" fill="#666666">[BASE TABLE]</text>
<polygon fill="none" stroke="black" points="2250.36,-873.4 2250.36,-904.2 2563.27,-904.2 2563.27,-873.4 2250.36,-873.4"/>
<text text-anchor="start" x="2257.36" y="-885.6" font-family="Arial" font-size="14.00">model_key </text>
<text text-anchor="start" x="2328.95" y="-885.6" font-family="Arial" font-size="14.00" fill="#666666">[text]</text>
<polygon fill="none" stroke="black" points="2250.36,-842.6 2250.36,-873.4 2563.27,-873.4 2563.27,-842.6 2250.36,-842.6"/>
<text text-anchor="start" x="2257.36" y="-854.8" font-family="Arial" font-size="14.00">action_key </text>
<text text-anchor="start" x="2328.18" y="-854.8" font-family="Arial" font-size="14.00" fill="#666666">[text]</text>
<polygon fill="none" stroke="black" points="2250.36,-811.8 2250.36,-842.6 2563.27,-842.6 2563.27,-811.8 2250.36,-811.8"/>
<text text-anchor="start" x="2257.36" y="-824" font-family="Arial" font-size="14.00">parameter_key </text>
<text text-anchor="start" x="2354.63" y="-824" font-family="Arial" font-size="14.00" fill="#666666">[text]</text>
<polygon fill="none" stroke="black" points="2250.36,-781 2250.36,-811.8 2563.27,-811.8 2563.27,-781 2250.36,-781"/>
<text text-anchor="start" x="2257.36" y="-793.2" font-family="Arial" font-size="14.00">name </text>
<text text-anchor="start" x="2296.27" y="-793.2" font-family="Arial" font-size="14.00" fill="#666666">[text]</text>
<polygon fill="none" stroke="black" points="2250.36,-750.2 2250.36,-781 2563.27,-781 2563.27,-750.2 2250.36,-750.2"/>
<text text-anchor="start" x="2257.36" y="-762.4" font-family="Arial" font-size="14.00">sort_order </text>
<text text-anchor="start" x="2325.06" y="-762.4" font-family="Arial" font-size="14.00" fill="#666666">[integer]</text>
<polygon fill="none" stroke="black" points="2250.36,-719.4 2250.36,-750.2 2563.27,-750.2 2563.27,-719.4 2250.36,-719.4"/>
<text text-anchor="start" x="2257.36" y="-731.6" font-family="Arial" font-size="14.00">data_type_rules </text>
<text text-anchor="start" x="2360.88" y="-731.6" font-family="Arial" font-size="14.00" fill="#666666">[text]</text>
<polygon fill="none" stroke="black" points="2250.36,-688.6 2250.36,-719.4 2563.27,-719.4 2563.27,-688.6 2250.36,-688.6"/>
<text text-anchor="start" x="2257.36" y="-700.8" font-family="Arial" font-size="14.00">data_type_key </text>
<text text-anchor="start" x="2352.32" y="-700.8" font-family="Arial" font-size="14.00" fill="#666666">[text]</text>
</g>
<!-- public.action_parameter&#45;&gt;public.data_type -->
<g id="edge8" class="edge">
<title>public.action_parameter:model_key&#45;&gt;public.data_type:model_key</title>
<path fill="none" stroke="black" d="M2238.97,-888.33C2128.09,-877.76 2286.87,-689.79 2197.82,-599.2 2089.71,-489.24 1671,-466 1516.79,-466"/>
<polygon fill="black" stroke="black" points="2239.04,-888.34 2248.83,-893.28 2244.37,-888.58 2248.69,-888.77 2248.69,-888.77 2248.69,-888.77 2244.37,-888.58 2249.23,-884.29 2239.04,-888.34"/>
<text text-anchor="start" x="1973.97" y="-872.8" font-family="Arial" font-size="10.00">FOREIGN KEY (model_key, data_type_key) REFERENCES data_type(model_key, data_type_key) ON DELETE CASCADE</text>
</g>
<!-- public.state_action_parameter -->
<g id="node9" class="node">
<title>public.state_action_parameter</title>
<polygon fill="#efefef" stroke="none" points="2667.37,-919.6 2667.37,-955.2 3022.26,-955.2 3022.26,-919.6 2667.37,-919.6"/>
<polygon fill="none" stroke="black" points="2667.37,-919.6 2667.37,-955.2 3022.26,-955.2 3022.26,-919.6 2667.37,-919.6"/>
<text text-anchor="start" x="2674.37" y="-933" font-family="Arial Bold" font-size="18.00">public.state_action_parameter</text>
<text text-anchor="start" x="2890.77" y="-933" font-family="Arial" font-size="14.00">    </text>
<text text-anchor="start" x="2921.89" y="-933" font-family="Arial" font-size="14.00" fill="#666666">[BASE TABLE]</text>
<polygon fill="none" stroke="black" points="2667.37,-888.8 2667.37,-919.6 3022.26,-919.6 3022.26,-888.8 2667.37,-888.8"/>
<text text-anchor="start" x="2674.37" y="-901" font-family="Arial" font-size="14.00">model_key </text>
<text text-anchor="start" x="2745.96" y="-901" font-family="Arial" font-size="14.00" fill="#666666">[text]</text>
<polygon fill="none" stroke="black" points="2667.37,-858 2667.37,-888.8 3022.26,-888.8 3022.26,-858 2667.37,-858"/>
<text text-anchor="start" x="2674.37" y="-870.2" font-family="Arial" font-size="14.00">parameter_key </text>
<text text-anchor="start" x="2771.64" y="-870.2" font-family="Arial" font-size="14.00" fill="#666666">[text]</text>
<polygon fill="none" stroke="black" points="2667.37,-827.2 2667.37,-858 3022.26,-858 3022.26,-827.2 2667.37,-827.2"/>
<text text-anchor="start" x="2674.37" y="-839.4" font-family="Arial" font-size="14.00">action_key </text>
<text text-anchor="start" x="2745.19" y="-839.4" font-family="Arial" font-size="14.00" fill="#666666">[text]</text>
<polygon fill="none" stroke="black" points="2667.37,-796.4 2667.37,-827.2 3022.26,-827.2 3022.26,-796.4 2667.37,-796.4"/>
<text text-anchor="start" x="2674.37" y="-808.6" font-family="Arial" font-size="14.00">data_type_rules </text>
<text text-anchor="start" x="2777.89" y="-808.6" font-family="Arial" font-size="14.00" fill="#666666">[text]</text>
<polygon fill="none" stroke="black" points="2667.37,-765.6 2667.37,-796.4 3022.26,-796.4 3022.26,-765.6 2667.37,-765.6"/>
<text text-anchor="start" x="2674.37" y="-777.8" font-family="Arial" font-size="14.00">data_type_key </text>
<text text-anchor="start" x="2769.33" y="-777.8" font-family="Arial" font-size="14.00" fill="#666666">[text]</text>
<polygon fill="none" stroke="black" points="2667.37,-734.8 2667.37,-765.6 3022.26,-765.6 3022.26,-734.8 2667.37,-734.8"/>
<text text-anchor="start" x="2674.37" y="-747" font-family="Arial" font-size="14.00">name </text>
<text text-anchor="start" x="2713.28" y="-747" font-family="Arial" font-size="14.00" fill="#666666">[text]</text>
<polygon fill="none" stroke="black" points="2667.37,-704 2667.37,-734.8 3022.26,-734.8 3022.26,-704 2667.37,-704"/>
<text text-anchor="start" x="2674.37" y="-716.2" font-family="Arial" font-size="14.00">details </text>
<text text-anchor="start" x="2718.73" y="-716.2" font-family="Arial" font-size="14.00" fill="#666666">[text]</text>
<polygon fill="none" stroke="black" points="2667.37,-673.2 2667.37,-704 3022.26,-704 3022.26,-673.2 2667.37,-673.2"/>
<text text-anchor="start" x="2674.37" y="-685.4" font-family="Arial" font-size="14.00">uml_comment </text>
<text text-anchor="start" x="2766.18" y="-685.4" font-family="Arial" font-size="14.00" fill="#666666">[text]</text>
</g>
<!-- public.state_action_parameter&#45;&gt;public.data_type -->
<g id="edge9" class="edge">
<title>public.state_action_parameter:model_key&#45;&gt;public.data_type:model_key</title>
<path fill="none" stroke="black" d="M2656.28,-901.97C2604.73,-876.66 2662.73,-644.11 2615.82,-599.2 2526.96,-514.14 1639.8,-466 1516.79,-466"/>
<polygon fill="black" stroke="black" points="2656.28,-901.97 2665.07,-908.52 2661.49,-903.12 2665.72,-904.06 2665.72,-904.06 2665.72,-904.06 2661.49,-903.12 2667.01,-899.73 2656.28,-901.97"/>
<text text-anchor="start" x="2673.37" y="-914.2" font-family="Arial" font-size="10.00">FOREIGN KEY (model_key, data_type_key) REFERENCES data_type(model_key, data_type_key) ON DELETE CASCADE</text>
</g>
</g>
</svg>
