<?xml version="1.0" encoding="UTF-8" standalone="no"?>
<!DOCTYPE svg PUBLIC "-//W3C//DTD SVG 1.1//EN"
 "http://www.w3.org/Graphics/SVG/1.1/DTD/svg11.dtd">
<!-- Generated by graphviz version 12.1.2 (20240928.0832)
 -->
<!-- Title: public.global_function Pages: 1 -->
<svg width="852pt" height="787pt"
 viewBox="0.00 0.00 851.86 786.80" xmlns="http://www.w3.org/2000/svg" xmlns:xlink="http://www.w3.org/1999/xlink">
<g id="graph0" class="graph" transform="scale(1 1) rotate(0) translate(4 782.8)">
<title>public.global_function</title>
<polygon fill="white" stroke="none" points="-4,4 -4,-782.8 847.86,-782.8 847.86,4 -4,4"/>
<!-- public.global_function -->
<g id="node1" class="node">
<title>public.global_function</title>
<polygon fill="#efefef" stroke="none" points="46.2,-697 46.2,-732.6 348.16,-732.6 348.16,-697 46.2,-697"/>
<polygon fill="none" stroke="black" points="46.2,-697 46.2,-732.6 348.16,-732.6 348.16,-697 46.2,-697"/>
<text text-anchor="start" x="53.2" y="-710.4" font-family="Arial Bold" font-size="18.00">public.global_function</text>
<text text-anchor="start" x="216.67" y="-710.4" font-family="Arial" font-size="14.00">    </text>
<text text-anchor="start" x="247.78" y="-710.4" font-family="Arial" font-size="14.00" fill="#666666">[BASE TABLE]</text>
<polygon fill="none" stroke="black" points="46.2,-666.2 46.2,-697 348.16,-697 348.16,-666.2 46.2,-666.2"/>
<text text-anchor="start" x="53.2" y="-678.4" font-family="Arial" font-size="14.00">model_key </text>
<text text-anchor="start" x="124.79" y="-678.4" font-family="Arial" font-size="14.00" fill="#666666">[text]</text>
<polygon fill="none" stroke="black" points="46.2,-635.4 46.2,-666.2 348.16,-666.2 348.16,-635.4 46.2,-635.4"/>
<text text-anchor="start" x="53.2" y="-647.6" font-family="Arial" font-size="14.00">logic_key </text>
<text text-anchor="start" x="115.45" y="-647.6" font-family="Arial" font-size="14.00" fill="#666666">[text]</text>
<polygon fill="none" stroke="black" points="46.2,-604.6 46.2,-635.4 348.16,-635.4 348.16,-604.6 46.2,-604.6"/>
<text text-anchor="start" x="53.2" y="-616.8" font-family="Arial" font-size="14.00">name </text>
<text text-anchor="start" x="92.11" y="-616.8" font-family="Arial" font-size="14.00" fill="#666666">[text]</text>
<polygon fill="none" stroke="black" points="46.2,-573.8 46.2,-604.6 348.16,-604.6 348.16,-573.8 46.2,-573.8"/>
<text text-anchor="start" x="53.2" y="-586" font-family="Arial" font-size="14.00">parameters </text>
<text text-anchor="start" x="127.9" y="-586" font-family="Arial" font-size="14.00" fill="#666666">[text[]]</text>
<polygon fill="none" stroke="black" stroke-width="3" points="44.7,-572.3 44.7,-734.1 349.66,-734.1 349.66,-572.3 44.7,-572.3"/>
</g>
<!-- public.logic -->
<g id="node2" class="node">
<title>public.logic</title>
<polygon fill="#efefef" stroke="none" points="75.39,-412.8 75.39,-448.4 318.97,-448.4 318.97,-412.8 75.39,-412.8"/>
<polygon fill="none" stroke="black" points="75.39,-412.8 75.39,-448.4 318.97,-448.4 318.97,-412.8 75.39,-412.8"/>
<text text-anchor="start" x="92.19" y="-426.2" font-family="Arial Bold" font-size="18.00">public.logic</text>
<text text-anchor="start" x="177.68" y="-426.2" font-family="Arial" font-size="14.00">    </text>
<text text-anchor="start" x="208.79" y="-426.2" font-family="Arial" font-size="14.00" fill="#666666">[BASE TABLE]</text>
<polygon fill="none" stroke="black" points="75.39,-382 75.39,-412.8 318.97,-412.8 318.97,-382 75.39,-382"/>
<text text-anchor="start" x="82.39" y="-394.2" font-family="Arial" font-size="14.00">logic_key </text>
<text text-anchor="start" x="144.64" y="-394.2" font-family="Arial" font-size="14.00" fill="#666666">[text]</text>
<polygon fill="none" stroke="black" points="75.39,-351.2 75.39,-382 318.97,-382 318.97,-351.2 75.39,-351.2"/>
<text text-anchor="start" x="82.39" y="-363.4" font-family="Arial" font-size="14.00">model_key </text>
<text text-anchor="start" x="153.98" y="-363.4" font-family="Arial" font-size="14.00" fill="#666666">[text]</text>
<polygon fill="none" stroke="black" points="75.39,-320.4 75.39,-351.2 318.97,-351.2 318.97,-320.4 75.39,-320.4"/>
<text text-anchor="start" x="82.39" y="-332.6" font-family="Arial" font-size="14.00">sort_order </text>
<text text-anchor="start" x="150.08" y="-332.6" font-family="Arial" font-size="14.00" fill="#666666">[integer]</text>
<polygon fill="none" stroke="black" points="75.39,-289.6 75.39,-320.4 318.97,-320.4 318.97,-289.6 75.39,-289.6"/>
<text text-anchor="start" x="82.39" y="-301.8" font-family="Arial" font-size="14.00">logic_type </text>
<text text-anchor="start" x="149.32" y="-301.8" font-family="Arial" font-size="14.00" fill="#666666">[logic_type]</text>
<polygon fill="none" stroke="black" points="75.39,-258.8 75.39,-289.6 318.97,-289.6 318.97,-258.8 75.39,-258.8"/>
<text text-anchor="start" x="82.39" y="-271" font-family="Arial" font-size="14.00">description </text>
<text text-anchor="start" x="153.98" y="-271" font-family="Arial" font-size="14.00" fill="#666666">[text]</text>
<polygon fill="none" stroke="black" points="75.39,-228 75.39,-258.8 318.97,-258.8 318.97,-228 75.39,-228"/>
<text text-anchor="start" x="82.39" y="-240.2" font-family="Arial" font-size="14.00">target </text>
<text text-anchor="start" x="122.08" y="-240.2" font-family="Arial" font-size="14.00" fill="#666666">[text]</text>
<polygon fill="none" stroke="black" points="75.39,-197.2 75.39,-228 318.97,-228 318.97,-197.2 75.39,-197.2"/>
<text text-anchor="start" x="82.39" y="-209.4" font-family="Arial" font-size="14.00">notation </text>
<text text-anchor="start" x="136.1" y="-209.4" font-family="Arial" font-size="14.00" fill="#666666">[notation]</text>
<polygon fill="none" stroke="black" points="75.39,-166.4 75.39,-197.2 318.97,-197.2 318.97,-166.4 75.39,-166.4"/>
<text text-anchor="start" x="82.39" y="-178.6" font-family="Arial" font-size="14.00">specification </text>
<text text-anchor="start" x="163.32" y="-178.6" font-family="Arial" font-size="14.00" fill="#666666">[text]</text>
<polygon fill="none" stroke="black" points="75.39,-135.6 75.39,-166.4 318.97,-166.4 318.97,-135.6 75.39,-135.6"/>
<text text-anchor="start" x="82.39" y="-147.8" font-family="Arial" font-size="14.00">target_type_notation </text>
<text text-anchor="start" x="213.93" y="-147.8" font-family="Arial" font-size="14.00" fill="#666666">[notation]</text>
<polygon fill="none" stroke="black" points="75.39,-104.8 75.39,-135.6 318.97,-135.6 318.97,-104.8 75.39,-104.8"/>
<text text-anchor="start" x="82.39" y="-117" font-family="Arial" font-size="14.00">target_type_specification </text>
<text text-anchor="start" x="241.15" y="-117" font-family="Arial" font-size="14.00" fill="#666666">[text]</text>
<polygon fill="none" stroke="black" points="75.39,-74 75.39,-104.8 318.97,-104.8 318.97,-74 75.39,-74"/>
<text text-anchor="start" x="82.39" y="-86.2" font-family="Arial" font-size="14.00">destroy_event_specification </text>
<text text-anchor="start" x="259.05" y="-86.2" font-family="Arial" font-size="14.00" fill="#666666">[text]</text>
<polygon fill="none" stroke="black" points="75.39,-43.2 75.39,-74 318.97,-74 318.97,-43.2 75.39,-43.2"/>
<text text-anchor="start" x="82.39" y="-55.4" font-family="Arial" font-size="14.00">endpoint_selector_specification </text>
<text text-anchor="start" x="281.63" y="-55.4" font-family="Arial" font-size="14.00" fill="#666666">[text]</text>
</g>
<!-- public.global_function&#45;&gt;public.logic -->
<g id="edge1" class="edge">
<title>public.global_function:model_key&#45;&gt;public.logic:model_key</title>
<path fill="none" stroke="black" d="M359.1,-679.25C416.39,-650.42 386.7,-366.6 319.97,-366.6"/>
<polygon fill="black" stroke="black" points="359.21,-679.22 348.45,-677.14 354.02,-680.45 349.81,-681.45 349.81,-681.45 349.81,-681.45 354.02,-680.45 350.52,-685.9 359.21,-679.22"/>
<text text-anchor="start" x="356.16" y="-691.6" font-family="Arial" font-size="10.00">FOREIGN KEY (model_key, logic_key) REFERENCES logic(model_key, logic_key) ON DELETE CASCADE</text>
</g>
</g>
</svg>
