<?xml version="1.0" encoding="UTF-8" standalone="no"?>
<!DOCTYPE svg PUBLIC "-//W3C//DTD SVG 1.1//EN"
 "http://www.w3.org/Graphics/SVG/1.1/DTD/svg11.dtd">
<!-- Generated by graphviz version 12.1.2 (20240928.0832)
 -->
<!-- Title: public.subdomain Pages: 1 -->
<svg width="2544pt" height="1222pt"
 viewBox="0.00 0.00 2544.27 1222.00" xmlns="http://www.w3.org/2000/svg" xmlns:xlink="http://www.w3.org/1999/xlink">
<g id="graph0" class="graph" transform="scale(1 1) rotate(0) translate(4 1218)">
<title>public.subdomain</title>
<polygon fill="white" stroke="none" points="-4,4 -4,-1218 2540.27,-1218 2540.27,4 -4,4"/>
<!-- public.subdomain -->
<g id="node1" class="node">
<title>public.subdomain</title>
<polygon fill="#efefef" stroke="none" points="948.99,-635.4 948.99,-671 1215.97,-671 1215.97,-635.4 948.99,-635.4"/>
<polygon fill="none" stroke="black" points="948.99,-635.4 948.99,-671 1215.97,-671 1215.97,-635.4 948.99,-635.4"/>
<text text-anchor="start" x="955.99" y="-648.8" font-family="Arial Bold" font-size="18.00">public.subdomain</text>
<text text-anchor="start" x="1084.48" y="-648.8" font-family="Arial" font-size="14.00">    </text>
<text text-anchor="start" x="1115.59" y="-648.8" font-family="Arial" font-size="14.00" fill="#666666">[BASE TABLE]</text>
<polygon fill="none" stroke="black" points="948.99,-604.6 948.99,-635.4 1215.97,-635.4 1215.97,-604.6 948.99,-604.6"/>
<text text-anchor="start" x="955.99" y="-616.8" font-family="Arial" font-size="14.00">subdomain_key </text>
<text text-anchor="start" x="1057.94" y="-616.8" font-family="Arial" font-size="14.00" fill="#666666">[text]</text>
<polygon fill="none" stroke="black" points="948.99,-573.8 948.99,-604.6 1215.97,-604.6 1215.97,-573.8 948.99,-573.8"/>
<text text-anchor="start" x="955.99" y="-586" font-family="Arial" font-size="14.00">model_key </text>
<text text-anchor="start" x="1027.58" y="-586" font-family="Arial" font-size="14.00" fill="#666666">[text]</text>
<polygon fill="none" stroke="black" points="948.99,-543 948.99,-573.8 1215.97,-573.8 1215.97,-543 948.99,-543"/>
<text text-anchor="start" x="955.99" y="-555.2" font-family="Arial" font-size="14.00">domain_key </text>
<text text-anchor="start" x="1035.37" y="-555.2" font-family="Arial" font-size="14.00" fill="#666666">[text]</text>
<polygon fill="none" stroke="black" points="948.99,-512.2 948.99,-543 1215.97,-543 1215.97,-512.2 948.99,-512.2"/>
<text text-anchor="start" x="955.99" y="-524.4" font-family="Arial" font-size="14.00">name </text>
<text text-anchor="start" x="994.9" y="-524.4" font-family="Arial" font-size="14.00" fill="#666666">[text]</text>
<polygon fill="none" stroke="black" points="948.99,-481.4 948.99,-512.2 1215.97,-512.2 1215.97,-481.4 948.99,-481.4"/>
<text text-anchor="start" x="955.99" y="-493.6" font-family="Arial" font-size="14.00">details </text>
<text text-anchor="start" x="1000.35" y="-493.6" font-family="Arial" font-size="14.00" fill="#666666">[text]</text>
<polygon fill="none" stroke="black" points="948.99,-450.6 948.99,-481.4 1215.97,-481.4 1215.97,-450.6 948.99,-450.6"/>
<text text-anchor="start" x="955.99" y="-462.8" font-family="Arial" font-size="14.00">unfinished_notes </text>
<text text-anchor="start" x="1065.74" y="-462.8" font-family="Arial" font-size="14.00" fill="#666666">[text]</text>
<polygon fill="none" stroke="black" points="948.99,-419.8 948.99,-450.6 1215.97,-450.6 1215.97,-419.8 948.99,-419.8"/>
<text text-anchor="start" x="955.99" y="-432" font-family="Arial" font-size="14.00">uml_comment </text>
<text text-anchor="start" x="1047.8" y="-432" font-family="Arial" font-size="14.00" fill="#666666">[text]</text>
<polygon fill="none" stroke="black" stroke-width="3" points="947.49,-418.3 947.49,-672.5 1217.47,-672.5 1217.47,-418.3 947.49,-418.3"/>
</g>
<!-- public.domain -->
<g id="node7" class="node">
<title>public.domain</title>
<polygon fill="#efefef" stroke="none" points="961.49,-258.8 961.49,-294.4 1203.46,-294.4 1203.46,-258.8 961.49,-258.8"/>
<polygon fill="none" stroke="black" points="961.49,-258.8 961.49,-294.4 1203.46,-294.4 1203.46,-258.8 961.49,-258.8"/>
<text text-anchor="start" x="968.49" y="-272.2" font-family="Arial Bold" font-size="18.00">public.domain</text>
<text text-anchor="start" x="1071.97" y="-272.2" font-family="Arial" font-size="14.00">    </text>
<text text-anchor="start" x="1103.09" y="-272.2" font-family="Arial" font-size="14.00" fill="#666666">[BASE TABLE]</text>
<polygon fill="none" stroke="black" points="961.49,-228 961.49,-258.8 1203.46,-258.8 1203.46,-228 961.49,-228"/>
<text text-anchor="start" x="968.49" y="-240.2" font-family="Arial" font-size="14.00">domain_key </text>
<text text-anchor="start" x="1047.87" y="-240.2" font-family="Arial" font-size="14.00" fill="#666666">[text]</text>
<polygon fill="none" stroke="black" points="961.49,-197.2 961.49,-228 1203.46,-228 1203.46,-197.2 961.49,-197.2"/>
<text text-anchor="start" x="968.49" y="-209.4" font-family="Arial" font-size="14.00">model_key </text>
<text text-anchor="start" x="1040.08" y="-209.4" font-family="Arial" font-size="14.00" fill="#666666">[text]</text>
<polygon fill="none" stroke="black" points="961.49,-166.4 961.49,-197.2 1203.46,-197.2 1203.46,-166.4 961.49,-166.4"/>
<text text-anchor="start" x="968.49" y="-178.6" font-family="Arial" font-size="14.00">name </text>
<text text-anchor="start" x="1007.4" y="-178.6" font-family="Arial" font-size="14.00" fill="#666666">[text]</text>
<polygon fill="none" stroke="black" points="961.49,-135.6 961.49,-166.4 1203.46,-166.4 1203.46,-135.6 961.49,-135.6"/>
<text text-anchor="start" x="968.49" y="-147.8" font-family="Arial" font-size="14.00">details </text>
<text text-anchor="start" x="1012.85" y="-147.8" font-family="Arial" font-size="14.00" fill="#666666">[text]</text>
<polygon fill="none" stroke="black" points="961.49,-104.8 961.49,-135.6 1203.46,-135.6 1203.46,-104.8 961.49,-104.8"/>
<text text-anchor="start" x="968.49" y="-117" font-family="Arial" font-size="14.00">unfinished_notes </text>
<text text-anchor="start" x="1078.24" y="-117" font-family="Arial" font-size="14.00" fill="#666666">[text]</text>
<polygon fill="none" stroke="black" points="961.49,-74 961.49,-104.8 1203.46,-104.8 1203.46,-74 961.49,-74"/>
<text text-anchor="start" x="968.49" y="-86.2" font-family="Arial" font-size="14.00">realized </text>
<text text-anchor="start" x="1021.41" y="-86.2" font-family="Arial" font-size="14.00" fill="#666666">[boolean]</text>
<polygon fill="none" stroke="black" points="961.49,-43.2 961.49,-74 1203.46,-74 1203.46,-43.2 961.49,-43.2"/>
<text text-anchor="start" x="968.49" y="-55.4" font-family="Arial" font-size="14.00">uml_comment </text>
<text text-anchor="start" x="1060.3" y="-55.4" font-family="Arial" font-size="14.00" fill="#666666">[text]</text>
</g>
<!-- public.subdomain&#45;&gt;public.domain -->
<g id="edge7" class="edge">
<title>public.subdomain:model_key&#45;&gt;public.domain:model_key</title>
<path fill="none" stroke="black" d="M1227.04,-588.73C1383.86,-573.91 1368.5,-212.6 1204.46,-212.6"/>
<polygon fill="black" stroke="black" points="1227.29,-588.72 1217.09,-584.69 1221.96,-588.97 1217.63,-589.17 1217.63,-589.17 1217.63,-589.17 1221.96,-588.97 1217.51,-593.68 1227.29,-588.72"/>
<text text-anchor="start" x="1223.97" y="-599.2" font-family="Arial" font-size="10.00">FOREIGN KEY (model_key, domain_key) REFERENCES domain(model_key, domain_key) ON DELETE CASCADE</text>
</g>
<!-- public.subdomain_association -->
<g id="node2" class="node">
<title>public.subdomain_association</title>
<polygon fill="#efefef" stroke="none" points="264.5,-1042.8 264.5,-1078.4 620.46,-1078.4 620.46,-1042.8 264.5,-1042.8"/>
<polygon fill="none" stroke="black" points="264.5,-1042.8 264.5,-1078.4 620.46,-1078.4 620.46,-1042.8 264.5,-1042.8"/>
<text text-anchor="start" x="271.5" y="-1056.2" font-family="Arial Bold" font-size="18.00">public.subdomain_association</text>
<text text-anchor="start" x="488.97" y="-1056.2" font-family="Arial" font-size="14.00">    </text>
<text text-anchor="start" x="520.08" y="-1056.2" font-family="Arial" font-size="14.00" fill="#666666">[BASE TABLE]</text>
<polygon fill="none" stroke="black" points="264.5,-1012 264.5,-1042.8 620.46,-1042.8 620.46,-1012 264.5,-1012"/>
<text text-anchor="start" x="271.5" y="-1024.2" font-family="Arial" font-size="14.00">model_key </text>
<text text-anchor="start" x="343.09" y="-1024.2" font-family="Arial" font-size="14.00" fill="#666666">[text]</text>
<polygon fill="none" stroke="black" points="264.5,-981.2 264.5,-1012 620.46,-1012 620.46,-981.2 264.5,-981.2"/>
<text text-anchor="start" x="271.5" y="-993.4" font-family="Arial" font-size="14.00">association_key </text>
<text text-anchor="start" x="375" y="-993.4" font-family="Arial" font-size="14.00" fill="#666666">[text]</text>
<polygon fill="none" stroke="black" points="264.5,-950.4 264.5,-981.2 620.46,-981.2 620.46,-950.4 264.5,-950.4"/>
<text text-anchor="start" x="271.5" y="-962.6" font-family="Arial" font-size="14.00">problem_subdomain_key </text>
<text text-anchor="start" x="431.82" y="-962.6" font-family="Arial" font-size="14.00" fill="#666666">[text]</text>
<polygon fill="none" stroke="black" points="264.5,-919.6 264.5,-950.4 620.46,-950.4 620.46,-919.6 264.5,-919.6"/>
<text text-anchor="start" x="271.5" y="-931.8" font-family="Arial" font-size="14.00">solution_subdomain_key </text>
<text text-anchor="start" x="429.49" y="-931.8" font-family="Arial" font-size="14.00" fill="#666666">[text]</text>
<polygon fill="none" stroke="black" points="264.5,-888.8 264.5,-919.6 620.46,-919.6 620.46,-888.8 264.5,-888.8"/>
<text text-anchor="start" x="271.5" y="-901" font-family="Arial" font-size="14.00">uml_comment </text>
<text text-anchor="start" x="363.31" y="-901" font-family="Arial" font-size="14.00" fill="#666666">[text]</text>
</g>
<!-- public.subdomain_association&#45;&gt;public.subdomain -->
<g id="edge1" class="edge">
<title>public.subdomain_association:model_key&#45;&gt;public.subdomain:model_key</title>
<path fill="none" stroke="black" d="M631.22,-1024.22C668.31,-996.84 630.52,-800.46 663.48,-753.2 744.99,-636.31 796.49,-589.2 947.99,-589.2"/>
<polygon fill="black" stroke="black" points="631.28,-1024.2 620.38,-1023.02 626.21,-1025.85 622.09,-1027.19 622.09,-1027.19 622.09,-1027.19 626.21,-1025.85 623.17,-1031.58 631.28,-1024.2"/>
<text text-anchor="start" x="7" y="-1037.4" font-family="Arial" font-size="10.00">FOREIGN KEY (model_key, problem_subdomain_key) REFERENCES subdomain(model_key, subdomain_key) ON DELETE CASCADE</text>
</g>
<!-- public.subdomain_association&#45;&gt;public.subdomain -->
<g id="edge2" class="edge">
<title>public.subdomain_association:model_key&#45;&gt;public.subdomain:model_key</title>
<path fill="none" stroke="black" d="M632.06,-1025.47C687.61,-1003.53 647.96,-801.26 681.48,-753.2 762.91,-636.42 814.39,-589.29 947.6,-589.2"/>
<polygon fill="black" stroke="black" points="632.02,-1025.47 621.36,-1022.91 626.78,-1026.47 622.53,-1027.27 622.53,-1027.27 622.53,-1027.27 626.78,-1026.47 623.04,-1031.76 632.02,-1025.47"/>
<text text-anchor="start" x="9.07" y="-1011.4" font-family="Arial" font-size="10.00">FOREIGN KEY (model_key, solution_subdomain_key) REFERENCES subdomain(model_key, subdomain_key) ON DELETE CASCADE</text>
</g>
<!-- public.class_generalization -->
<g id="node3" class="node">
<title>public.class_generalization</title>
<polygon fill="#efefef" stroke="none" points="724.52,-1104.4 724.52,-1140 1058.43,-1140 1058.43,-1104.4 724.52,-1104.4"/>
<polygon fill="none" stroke="black" points="724.52,-1104.4 724.52,-1140 1058.43,-1140 1058.43,-1104.4 724.52,-1104.4"/>
<text text-anchor="start" x="731.52" y="-1117.8" font-family="Arial Bold" font-size="18.00">public.class_generalization</text>
<text text-anchor="start" x="926.95" y="-1117.8" font-family="Arial" font-size="14.00">    </text>
<text text-anchor="start" x="958.06" y="-1117.8" font-family="Arial" font-size="14.00" fill="#666666">[BASE TABLE]</text>
<polygon fill="none" stroke="black" points="724.52,-1073.6 724.52,-1104.4 1058.43,-1104.4 1058.43,-1073.6 724.52,-1073.6"/>
<text text-anchor="start" x="731.52" y="-1085.8" font-family="Arial" font-size="14.00">model_key </text>
<text text-anchor="start" x="803.11" y="-1085.8" font-family="Arial" font-size="14.00" fill="#666666">[text]</text>
<polygon fill="none" stroke="black" points="724.52,-1042.8 724.52,-1073.6 1058.43,-1073.6 1058.43,-1042.8 724.52,-1042.8"/>
<text text-anchor="start" x="731.52" y="-1055" font-family="Arial" font-size="14.00">generalization_key </text>
<text text-anchor="start" x="852.15" y="-1055" font-family="Arial" font-size="14.00" fill="#666666">[text]</text>
<polygon fill="none" stroke="black" points="724.52,-1012 724.52,-1042.8 1058.43,-1042.8 1058.43,-1012 724.52,-1012"/>
<text text-anchor="start" x="731.52" y="-1024.2" font-family="Arial" font-size="14.00">name </text>
<text text-anchor="start" x="770.43" y="-1024.2" font-family="Arial" font-size="14.00" fill="#666666">[text]</text>
<polygon fill="none" stroke="black" points="724.52,-981.2 724.52,-1012 1058.43,-1012 1058.43,-981.2 724.52,-981.2"/>
<text text-anchor="start" x="731.52" y="-993.4" font-family="Arial" font-size="14.00">subdomain_key </text>
<text text-anchor="start" x="833.47" y="-993.4" font-family="Arial" font-size="14.00" fill="#666666">[text]</text>
<polygon fill="none" stroke="black" points="724.52,-950.4 724.52,-981.2 1058.43,-981.2 1058.43,-950.4 724.52,-950.4"/>
<text text-anchor="start" x="731.52" y="-962.6" font-family="Arial" font-size="14.00">is_complete </text>
<text text-anchor="start" x="810.11" y="-962.6" font-family="Arial" font-size="14.00" fill="#666666">[boolean]</text>
<polygon fill="none" stroke="black" points="724.52,-919.6 724.52,-950.4 1058.43,-950.4 1058.43,-919.6 724.52,-919.6"/>
<text text-anchor="start" x="731.52" y="-931.8" font-family="Arial" font-size="14.00">is_static </text>
<text text-anchor="start" x="785.98" y="-931.8" font-family="Arial" font-size="14.00" fill="#666666">[boolean]</text>
<polygon fill="none" stroke="black" points="724.52,-888.8 724.52,-919.6 1058.43,-919.6 1058.43,-888.8 724.52,-888.8"/>
<text text-anchor="start" x="731.52" y="-901" font-family="Arial" font-size="14.00">details </text>
<text text-anchor="start" x="775.88" y="-901" font-family="Arial" font-size="14.00" fill="#666666">[text]</text>
<polygon fill="none" stroke="black" points="724.52,-858 724.52,-888.8 1058.43,-888.8 1058.43,-858 724.52,-858"/>
<text text-anchor="start" x="731.52" y="-870.2" font-family="Arial" font-size="14.00">unfinished_notes </text>
<text text-anchor="start" x="841.27" y="-870.2" font-family="Arial" font-size="14.00" fill="#666666">[text]</text>
<polygon fill="none" stroke="black" points="724.52,-827.2 724.52,-858 1058.43,-858 1058.43,-827.2 724.52,-827.2"/>
<text text-anchor="start" x="731.52" y="-839.4" font-family="Arial" font-size="14.00">uml_comment </text>
<text text-anchor="start" x="823.33" y="-839.4" font-family="Arial" font-size="14.00" fill="#666666">[text]</text>
</g>
<!-- public.class_generalization&#45;&gt;public.subdomain -->
<g id="edge3" class="edge">
<title>public.class_generalization:model_key&#45;&gt;public.subdomain:model_key</title>
<path fill="none" stroke="black" d="M1069.64,-1086.86C1123.34,-1062.66 1089.88,-839.82 1058.43,-784 1030.46,-734.35 977.07,-766.79 948.99,-717.2 920.95,-667.7 891.1,-589.2 947.99,-589.2"/>
<polygon fill="black" stroke="black" points="1069.55,-1086.88 1058.84,-1084.53 1064.33,-1087.98 1060.09,-1088.86 1060.09,-1088.86 1060.09,-1088.86 1064.33,-1087.98 1060.68,-1093.34 1069.55,-1086.88"/>
<text text-anchor="start" x="486.67" y="-1099" font-family="Arial" font-size="10.00">FOREIGN KEY (model_key, subdomain_key) REFERENCES subdomain(model_key, subdomain_key) ON DELETE CASCADE</text>
</g>
<!-- public.class -->
<g id="node4" class="node">
<title>public.class</title>
<polygon fill="#efefef" stroke="none" points="1162.99,-1119.8 1162.99,-1155.4 1385.96,-1155.4 1385.96,-1119.8 1162.99,-1119.8"/>
<polygon fill="none" stroke="black" points="1162.99,-1119.8 1162.99,-1155.4 1385.96,-1155.4 1385.96,-1119.8 1162.99,-1119.8"/>
<text text-anchor="start" x="1169.99" y="-1133.2" font-family="Arial Bold" font-size="18.00">public.class</text>
<text text-anchor="start" x="1254.47" y="-1133.2" font-family="Arial" font-size="14.00">    </text>
<text text-anchor="start" x="1285.59" y="-1133.2" font-family="Arial" font-size="14.00" fill="#666666">[BASE TABLE]</text>
<polygon fill="none" stroke="black" points="1162.99,-1089 1162.99,-1119.8 1385.96,-1119.8 1385.96,-1089 1162.99,-1089"/>
<text text-anchor="start" x="1169.99" y="-1101.2" font-family="Arial" font-size="14.00">model_key </text>
<text text-anchor="start" x="1241.59" y="-1101.2" font-family="Arial" font-size="14.00" fill="#666666">[text]</text>
<polygon fill="none" stroke="black" points="1162.99,-1058.2 1162.99,-1089 1385.96,-1089 1385.96,-1058.2 1162.99,-1058.2"/>
<text text-anchor="start" x="1169.99" y="-1070.4" font-family="Arial" font-size="14.00">class_key </text>
<text text-anchor="start" x="1235.35" y="-1070.4" font-family="Arial" font-size="14.00" fill="#666666">[text]</text>
<polygon fill="none" stroke="black" points="1162.99,-1027.4 1162.99,-1058.2 1385.96,-1058.2 1385.96,-1027.4 1162.99,-1027.4"/>
<text text-anchor="start" x="1169.99" y="-1039.6" font-family="Arial" font-size="14.00">name </text>
<text text-anchor="start" x="1208.9" y="-1039.6" font-family="Arial" font-size="14.00" fill="#666666">[text]</text>
<polygon fill="none" stroke="black" points="1162.99,-996.6 1162.99,-1027.4 1385.96,-1027.4 1385.96,-996.6 1162.99,-996.6"/>
<text text-anchor="start" x="1169.99" y="-1008.8" font-family="Arial" font-size="14.00">subdomain_key </text>
<text text-anchor="start" x="1271.94" y="-1008.8" font-family="Arial" font-size="14.00" fill="#666666">[text]</text>
<polygon fill="none" stroke="black" points="1162.99,-965.8 1162.99,-996.6 1385.96,-996.6 1385.96,-965.8 1162.99,-965.8"/>
<text text-anchor="start" x="1169.99" y="-978" font-family="Arial" font-size="14.00">actor_key </text>
<text text-anchor="start" x="1234.58" y="-978" font-family="Arial" font-size="14.00" fill="#666666">[text]</text>
<polygon fill="none" stroke="black" points="1162.99,-935 1162.99,-965.8 1385.96,-965.8 1385.96,-935 1162.99,-935"/>
<text text-anchor="start" x="1169.99" y="-947.2" font-family="Arial" font-size="14.00">superclass_of_key </text>
<text text-anchor="start" x="1289.83" y="-947.2" font-family="Arial" font-size="14.00" fill="#666666">[text]</text>
<polygon fill="none" stroke="black" points="1162.99,-904.2 1162.99,-935 1385.96,-935 1385.96,-904.2 1162.99,-904.2"/>
<text text-anchor="start" x="1169.99" y="-916.4" font-family="Arial" font-size="14.00">subclass_of_key </text>
<text text-anchor="start" x="1277.39" y="-916.4" font-family="Arial" font-size="14.00" fill="#666666">[text]</text>
<polygon fill="none" stroke="black" points="1162.99,-873.4 1162.99,-904.2 1385.96,-904.2 1385.96,-873.4 1162.99,-873.4"/>
<text text-anchor="start" x="1169.99" y="-885.6" font-family="Arial" font-size="14.00">details </text>
<text text-anchor="start" x="1214.35" y="-885.6" font-family="Arial" font-size="14.00" fill="#666666">[text]</text>
<polygon fill="none" stroke="black" points="1162.99,-842.6 1162.99,-873.4 1385.96,-873.4 1385.96,-842.6 1162.99,-842.6"/>
<text text-anchor="start" x="1169.99" y="-854.8" font-family="Arial" font-size="14.00">unfinished_notes </text>
<text text-anchor="start" x="1279.74" y="-854.8" font-family="Arial" font-size="14.00" fill="#666666">[text]</text>
<polygon fill="none" stroke="black" points="1162.99,-811.8 1162.99,-842.6 1385.96,-842.6 1385.96,-811.8 1162.99,-811.8"/>
<text text-anchor="start" x="1169.99" y="-824" font-family="Arial" font-size="14.00">uml_comment </text>
<text text-anchor="start" x="1261.8" y="-824" font-family="Arial" font-size="14.00" fill="#666666">[text]</text>
</g>
<!-- public.class&#45;&gt;public.subdomain -->
<g id="edge4" class="edge">
<title>public.class:model_key&#45;&gt;public.subdomain:model_key</title>
<path fill="none" stroke="black" d="M1151.91,-1102.54C1091.86,-1078.79 1135.24,-833.93 1162.99,-768.6 1175.82,-738.41 1203.07,-747.36 1215.97,-717.2 1238.34,-664.89 1273.86,-589.2 1216.97,-589.2"/>
<polygon fill="black" stroke="black" points="1151.83,-1102.53 1160.85,-1108.77 1157.08,-1103.49 1161.33,-1104.28 1161.33,-1104.28 1161.33,-1104.28 1157.08,-1103.49 1162.48,-1099.91 1151.83,-1102.53"/>
<text text-anchor="start" x="1168.99" y="-1114.4" font-family="Arial" font-size="10.00">FOREIGN KEY (model_key, subdomain_key) REFERENCES subdomain(model_key, subdomain_key) ON DELETE CASCADE</text>
</g>
<!-- public.use_case_generalization -->
<g id="node5" class="node">
<title>public.use_case_generalization</title>
<polygon fill="#efefef" stroke="none" points="1490.03,-1104.4 1490.03,-1140 1852.92,-1140 1852.92,-1104.4 1490.03,-1104.4"/>
<polygon fill="none" stroke="black" points="1490.03,-1104.4 1490.03,-1140 1852.92,-1140 1852.92,-1104.4 1490.03,-1104.4"/>
<text text-anchor="start" x="1497.03" y="-1117.8" font-family="Arial Bold" font-size="18.00">public.use_case_generalization</text>
<text text-anchor="start" x="1721.43" y="-1117.8" font-family="Arial" font-size="14.00">    </text>
<text text-anchor="start" x="1752.55" y="-1117.8" font-family="Arial" font-size="14.00" fill="#666666">[BASE TABLE]</text>
<polygon fill="none" stroke="black" points="1490.03,-1073.6 1490.03,-1104.4 1852.92,-1104.4 1852.92,-1073.6 1490.03,-1073.6"/>
<text text-anchor="start" x="1497.03" y="-1085.8" font-family="Arial" font-size="14.00">model_key </text>
<text text-anchor="start" x="1568.62" y="-1085.8" font-family="Arial" font-size="14.00" fill="#666666">[text]</text>
<polygon fill="none" stroke="black" points="1490.03,-1042.8 1490.03,-1073.6 1852.92,-1073.6 1852.92,-1042.8 1490.03,-1042.8"/>
<text text-anchor="start" x="1497.03" y="-1055" font-family="Arial" font-size="14.00">generalization_key </text>
<text text-anchor="start" x="1617.67" y="-1055" font-family="Arial" font-size="14.00" fill="#666666">[text]</text>
<polygon fill="none" stroke="black" points="1490.03,-1012 1490.03,-1042.8 1852.92,-1042.8 1852.92,-1012 1490.03,-1012"/>
<text text-anchor="start" x="1497.03" y="-1024.2" font-family="Arial" font-size="14.00">name </text>
<text text-anchor="start" x="1535.94" y="-1024.2" font-family="Arial" font-size="14.00" fill="#666666">[text]</text>
<polygon fill="none" stroke="black" points="1490.03,-981.2 1490.03,-1012 1852.92,-1012 1852.92,-981.2 1490.03,-981.2"/>
<text text-anchor="start" x="1497.03" y="-993.4" font-family="Arial" font-size="14.00">subdomain_key </text>
<text text-anchor="start" x="1598.98" y="-993.4" font-family="Arial" font-size="14.00" fill="#666666">[text]</text>
<polygon fill="none" stroke="black" points="1490.03,-950.4 1490.03,-981.2 1852.92,-981.2 1852.92,-950.4 1490.03,-950.4"/>
<text text-anchor="start" x="1497.03" y="-962.6" font-family="Arial" font-size="14.00">is_complete </text>
<text text-anchor="start" x="1575.62" y="-962.6" font-family="Arial" font-size="14.00" fill="#666666">[boolean]</text>
<polygon fill="none" stroke="black" points="1490.03,-919.6 1490.03,-950.4 1852.92,-950.4 1852.92,-919.6 1490.03,-919.6"/>
<text text-anchor="start" x="1497.03" y="-931.8" font-family="Arial" font-size="14.00">is_static </text>
<text text-anchor="start" x="1551.49" y="-931.8" font-family="Arial" font-size="14.00" fill="#666666">[boolean]</text>
<polygon fill="none" stroke="black" points="1490.03,-888.8 1490.03,-919.6 1852.92,-919.6 1852.92,-888.8 1490.03,-888.8"/>
<text text-anchor="start" x="1497.03" y="-901" font-family="Arial" font-size="14.00">details </text>
<text text-anchor="start" x="1541.39" y="-901" font-family="Arial" font-size="14.00" fill="#666666">[text]</text>
<polygon fill="none" stroke="black" points="1490.03,-858 1490.03,-888.8 1852.92,-888.8 1852.92,-858 1490.03,-858"/>
<text text-anchor="start" x="1497.03" y="-870.2" font-family="Arial" font-size="14.00">unfinished_notes </text>
<text text-anchor="start" x="1606.78" y="-870.2" font-family="Arial" font-size="14.00" fill="#666666">[text]</text>
<polygon fill="none" stroke="black" points="1490.03,-827.2 1490.03,-858 1852.92,-858 1852.92,-827.2 1490.03,-827.2"/>
<text text-anchor="start" x="1497.03" y="-839.4" font-family="Arial" font-size="14.00">uml_comment </text>
<text text-anchor="start" x="1588.84" y="-839.4" font-family="Arial" font-size="14.00" fill="#666666">[text]</text>
</g>
<!-- public.use_case_generalization&#45;&gt;public.subdomain -->
<g id="edge5" class="edge">
<title>public.use_case_generalization:model_key&#45;&gt;public.subdomain:model_key</title>
<path fill="none" stroke="black" d="M1478.95,-1087.12C1419.55,-1063.01 1475.47,-814.71 1438.48,-753.2 1375.35,-648.23 1339.46,-589.2 1216.97,-589.2"/>
<polygon fill="black" stroke="black" points="1478.87,-1087.1 1487.88,-1093.36 1484.12,-1088.08 1488.37,-1088.88 1488.37,-1088.88 1488.37,-1088.88 1484.12,-1088.08 1489.53,-1084.52 1478.87,-1087.1"/>
<text text-anchor="start" x="1206.15" y="-1073" font-family="Arial" font-size="10.00">FOREIGN KEY (model_key, subdomain_key) REFERENCES subdomain(model_key, subdomain_key) ON DELETE CASCADE</text>
</g>
<!-- public.use_case -->
<g id="node6" class="node">
<title>public.use_case</title>
<polygon fill="#efefef" stroke="none" points="1957.5,-1135.2 1957.5,-1170.8 2209.45,-1170.8 2209.45,-1135.2 1957.5,-1135.2"/>
<polygon fill="none" stroke="black" points="1957.5,-1135.2 1957.5,-1170.8 2209.45,-1170.8 2209.45,-1135.2 1957.5,-1135.2"/>
<text text-anchor="start" x="1964.5" y="-1148.6" font-family="Arial Bold" font-size="18.00">public.use_case</text>
<text text-anchor="start" x="2077.96" y="-1148.6" font-family="Arial" font-size="14.00">    </text>
<text text-anchor="start" x="2109.08" y="-1148.6" font-family="Arial" font-size="14.00" fill="#666666">[BASE TABLE]</text>
<polygon fill="none" stroke="black" points="1957.5,-1104.4 1957.5,-1135.2 2209.45,-1135.2 2209.45,-1104.4 1957.5,-1104.4"/>
<text text-anchor="start" x="1964.5" y="-1116.6" font-family="Arial" font-size="14.00">model_key </text>
<text text-anchor="start" x="2036.1" y="-1116.6" font-family="Arial" font-size="14.00" fill="#666666">[text]</text>
<polygon fill="none" stroke="black" points="1957.5,-1073.6 1957.5,-1104.4 2209.45,-1104.4 2209.45,-1073.6 1957.5,-1073.6"/>
<text text-anchor="start" x="1964.5" y="-1085.8" font-family="Arial" font-size="14.00">use_case_key </text>
<text text-anchor="start" x="2057.9" y="-1085.8" font-family="Arial" font-size="14.00" fill="#666666">[text]</text>
<polygon fill="none" stroke="black" points="1957.5,-1042.8 1957.5,-1073.6 2209.45,-1073.6 2209.45,-1042.8 1957.5,-1042.8"/>
<text text-anchor="start" x="1964.5" y="-1055" font-family="Arial" font-size="14.00">name </text>
<text text-anchor="start" x="2003.41" y="-1055" font-family="Arial" font-size="14.00" fill="#666666">[text]</text>
<polygon fill="none" stroke="black" points="1957.5,-1012 1957.5,-1042.8 2209.45,-1042.8 2209.45,-1012 1957.5,-1012"/>
<text text-anchor="start" x="1964.5" y="-1024.2" font-family="Arial" font-size="14.00">details </text>
<text text-anchor="start" x="2008.86" y="-1024.2" font-family="Arial" font-size="14.00" fill="#666666">[text]</text>
<polygon fill="none" stroke="black" points="1957.5,-981.2 1957.5,-1012 2209.45,-1012 2209.45,-981.2 1957.5,-981.2"/>
<text text-anchor="start" x="1964.5" y="-993.4" font-family="Arial" font-size="14.00">unfinished_notes </text>
<text text-anchor="start" x="2074.25" y="-993.4" font-family="Arial" font-size="14.00" fill="#666666">[text]</text>
<polygon fill="none" stroke="black" points="1957.5,-950.4 1957.5,-981.2 2209.45,-981.2 2209.45,-950.4 1957.5,-950.4"/>
<text text-anchor="start" x="1964.5" y="-962.6" font-family="Arial" font-size="14.00">level </text>
<text text-anchor="start" x="1997.19" y="-962.6" font-family="Arial" font-size="14.00" fill="#666666">[use_case_level]</text>
<polygon fill="none" stroke="black" points="1957.5,-919.6 1957.5,-950.4 2209.45,-950.4 2209.45,-919.6 1957.5,-919.6"/>
<text text-anchor="start" x="1964.5" y="-931.8" font-family="Arial" font-size="14.00">read_only </text>
<text text-anchor="start" x="2029.88" y="-931.8" font-family="Arial" font-size="14.00" fill="#666666">[boolean]</text>
<polygon fill="none" stroke="black" points="1957.5,-888.8 1957.5,-919.6 2209.45,-919.6 2209.45,-888.8 1957.5,-888.8"/>
<text text-anchor="start" x="1964.5" y="-901" font-family="Arial" font-size="14.00">subdomain_key </text>
<text text-anchor="start" x="2066.46" y="-901" font-family="Arial" font-size="14.00" fill="#666666">[text]</text>
<polygon fill="none" stroke="black" points="1957.5,-858 1957.5,-888.8 2209.45,-888.8 2209.45,-858 1957.5,-858"/>
<text text-anchor="start" x="1964.5" y="-870.2" font-family="Arial" font-size="14.00">superclass_of_key </text>
<text text-anchor="start" x="2084.34" y="-870.2" font-family="Arial" font-size="14.00" fill="#666666">[text]</text>
<polygon fill="none" stroke="black" points="1957.5,-827.2 1957.5,-858 2209.45,-858 2209.45,-827.2 1957.5,-827.2"/>
<text text-anchor="start" x="1964.5" y="-839.4" font-family="Arial" font-size="14.00">subclass_of_key </text>
<text text-anchor="start" x="2071.9" y="-839.4" font-family="Arial" font-size="14.00" fill="#666666">[text]</text>
<polygon fill="none" stroke="black" points="1957.5,-796.4 1957.5,-827.2 2209.45,-827.2 2209.45,-796.4 1957.5,-796.4"/>
<text text-anchor="start" x="1964.5" y="-808.6" font-family="Arial" font-size="14.00">uml_comment </text>
<text text-anchor="start" x="2056.31" y="-808.6" font-family="Arial" font-size="14.00" fill="#666666">[text]</text>
</g>
<!-- public.use_case&#45;&gt;public.subdomain -->
<g id="edge6" class="edge">
<title>public.use_case:model_key&#45;&gt;public.subdomain:model_key</title>
<path fill="none" stroke="black" d="M1946.41,-1118C1881.74,-1092.83 1958.31,-811.34 1905.48,-753.2 1799.7,-636.8 1374.25,-589.2 1216.97,-589.2"/>
<polygon fill="black" stroke="black" points="1946.33,-1117.98 1955.38,-1124.17 1951.58,-1118.92 1955.85,-1119.68 1955.85,-1119.68 1955.85,-1119.68 1951.58,-1118.92 1956.97,-1115.31 1946.33,-1117.98"/>
<text text-anchor="start" x="1963.5" y="-1129.8" font-family="Arial" font-size="10.00">FOREIGN KEY (model_key, subdomain_key) REFERENCES subdomain(model_key, subdomain_key) ON DELETE CASCADE</text>
</g>
</g>
</svg>
