<?xml version="1.0" encoding="UTF-8" standalone="no"?>
<!DOCTYPE svg PUBLIC "-//W3C//DTD SVG 1.1//EN"
 "http://www.w3.org/Graphics/SVG/1.1/DTD/svg11.dtd">
<!-- Generated by graphviz version 12.1.2 (20240928.0832)
 -->
<!-- Title: public.class_generalization Pages: 1 -->
<svg width="1343pt" height="1160pt"
 viewBox="0.00 0.00 1343.20 1160.40" xmlns="http://www.w3.org/2000/svg" xmlns:xlink="http://www.w3.org/1999/xlink">
<g id="graph0" class="graph" transform="scale(1 1) rotate(0) translate(4 1156.4)">
<title>public.class_generalization</title>
<polygon fill="white" stroke="none" points="-4,4 -4,-1156.4 1339.2,-1156.4 1339.2,4 -4,4"/>
<!-- public.class_generalization -->
<g id="node1" class="node">
<title>public.class_generalization</title>
<polygon fill="#efefef" stroke="none" points="407.88,-635.4 407.88,-671 741.79,-671 741.79,-635.4 407.88,-635.4"/>
<polygon fill="none" stroke="black" points="407.88,-635.4 407.88,-671 741.79,-671 741.79,-635.4 407.88,-635.4"/>
<text text-anchor="start" x="414.88" y="-648.8" font-family="Arial Bold" font-size="18.00">public.class_generalization</text>
<text text-anchor="start" x="610.31" y="-648.8" font-family="Arial" font-size="14.00">    </text>
<text text-anchor="start" x="641.42" y="-648.8" font-family="Arial" font-size="14.00" fill="#666666">[BASE TABLE]</text>
<polygon fill="none" stroke="black" points="407.88,-604.6 407.88,-635.4 741.79,-635.4 741.79,-604.6 407.88,-604.6"/>
<text text-anchor="start" x="414.88" y="-616.8" font-family="Arial" font-size="14.00">model_key </text>
<text text-anchor="start" x="486.47" y="-616.8" font-family="Arial" font-size="14.00" fill="#666666">[text]</text>
<polygon fill="none" stroke="black" points="407.88,-573.8 407.88,-604.6 741.79,-604.6 741.79,-573.8 407.88,-573.8"/>
<text text-anchor="start" x="414.88" y="-586" font-family="Arial" font-size="14.00">generalization_key </text>
<text text-anchor="start" x="535.51" y="-586" font-family="Arial" font-size="14.00" fill="#666666">[text]</text>
<polygon fill="none" stroke="black" points="407.88,-543 407.88,-573.8 741.79,-573.8 741.79,-543 407.88,-543"/>
<text text-anchor="start" x="414.88" y="-555.2" font-family="Arial" font-size="14.00">name </text>
<text text-anchor="start" x="453.79" y="-555.2" font-family="Arial" font-size="14.00" fill="#666666">[text]</text>
<polygon fill="none" stroke="black" points="407.88,-512.2 407.88,-543 741.79,-543 741.79,-512.2 407.88,-512.2"/>
<text text-anchor="start" x="414.88" y="-524.4" font-family="Arial" font-size="14.00">subdomain_key </text>
<text text-anchor="start" x="516.83" y="-524.4" font-family="Arial" font-size="14.00" fill="#666666">[text]</text>
<polygon fill="none" stroke="black" points="407.88,-481.4 407.88,-512.2 741.79,-512.2 741.79,-481.4 407.88,-481.4"/>
<text text-anchor="start" x="414.88" y="-493.6" font-family="Arial" font-size="14.00">is_complete </text>
<text text-anchor="start" x="493.47" y="-493.6" font-family="Arial" font-size="14.00" fill="#666666">[boolean]</text>
<polygon fill="none" stroke="black" points="407.88,-450.6 407.88,-481.4 741.79,-481.4 741.79,-450.6 407.88,-450.6"/>
<text text-anchor="start" x="414.88" y="-462.8" font-family="Arial" font-size="14.00">is_static </text>
<text text-anchor="start" x="469.34" y="-462.8" font-family="Arial" font-size="14.00" fill="#666666">[boolean]</text>
<polygon fill="none" stroke="black" points="407.88,-419.8 407.88,-450.6 741.79,-450.6 741.79,-419.8 407.88,-419.8"/>
<text text-anchor="start" x="414.88" y="-432" font-family="Arial" font-size="14.00">details </text>
<text text-anchor="start" x="459.24" y="-432" font-family="Arial" font-size="14.00" fill="#666666">[text]</text>
<polygon fill="none" stroke="black" points="407.88,-389 407.88,-419.8 741.79,-419.8 741.79,-389 407.88,-389"/>
<text text-anchor="start" x="414.88" y="-401.2" font-family="Arial" font-size="14.00">uml_comment </text>
<text text-anchor="start" x="506.69" y="-401.2" font-family="Arial" font-size="14.00" fill="#666666">[text]</text>
<polygon fill="none" stroke="black" stroke-width="3" points="406.38,-387.5 406.38,-672.5 743.29,-672.5 743.29,-387.5 406.38,-387.5"/>
</g>
<!-- public.model -->
<g id="node2" class="node">
<title>public.model</title>
<polygon fill="#efefef" stroke="none" points="281.35,-181.8 281.35,-217.4 514.32,-217.4 514.32,-181.8 281.35,-181.8"/>
<polygon fill="none" stroke="black" points="281.35,-181.8 281.35,-217.4 514.32,-217.4 514.32,-181.8 281.35,-181.8"/>
<text text-anchor="start" x="288.35" y="-195.2" font-family="Arial Bold" font-size="18.00">public.model</text>
<text text-anchor="start" x="382.83" y="-195.2" font-family="Arial" font-size="14.00">    </text>
<text text-anchor="start" x="413.95" y="-195.2" font-family="Arial" font-size="14.00" fill="#666666">[BASE TABLE]</text>
<polygon fill="none" stroke="black" points="281.35,-151 281.35,-181.8 514.32,-181.8 514.32,-151 281.35,-151"/>
<text text-anchor="start" x="288.35" y="-163.2" font-family="Arial" font-size="14.00">model_key </text>
<text text-anchor="start" x="359.94" y="-163.2" font-family="Arial" font-size="14.00" fill="#666666">[text]</text>
<polygon fill="none" stroke="black" points="281.35,-120.2 281.35,-151 514.32,-151 514.32,-120.2 281.35,-120.2"/>
<text text-anchor="start" x="288.35" y="-132.4" font-family="Arial" font-size="14.00">name </text>
<text text-anchor="start" x="327.26" y="-132.4" font-family="Arial" font-size="14.00" fill="#666666">[text]</text>
<polygon fill="none" stroke="black" points="281.35,-89.4 281.35,-120.2 514.32,-120.2 514.32,-89.4 281.35,-89.4"/>
<text text-anchor="start" x="288.35" y="-101.6" font-family="Arial" font-size="14.00">details </text>
<text text-anchor="start" x="332.71" y="-101.6" font-family="Arial" font-size="14.00" fill="#666666">[text]</text>
</g>
<!-- public.class_generalization&#45;&gt;public.model -->
<g id="edge1" class="edge">
<title>public.class_generalization:model_key&#45;&gt;public.model:model_key</title>
<path fill="none" stroke="black" d="M396.54,-619.58C287.75,-610.28 354.96,-450.04 407.88,-342.8 434.33,-289.2 487.69,-314.11 514.32,-260.6 532.98,-223.12 557.19,-166.4 515.32,-166.4"/>
<polygon fill="black" stroke="black" points="396.56,-619.58 406.36,-624.48 401.89,-619.8 406.21,-619.97 406.21,-619.97 406.21,-619.97 401.89,-619.8 406.73,-615.49 396.56,-619.58"/>
<text text-anchor="start" x="7" y="-630" font-family="Arial" font-size="10.00">FOREIGN KEY (model_key) REFERENCES model(model_key) ON DELETE CASCADE</text>
</g>
<!-- public.subdomain -->
<g id="node3" class="node">
<title>public.subdomain</title>
<polygon fill="#efefef" stroke="none" points="618.35,-228 618.35,-263.6 885.33,-263.6 885.33,-228 618.35,-228"/>
<polygon fill="none" stroke="black" points="618.35,-228 618.35,-263.6 885.33,-263.6 885.33,-228 618.35,-228"/>
<text text-anchor="start" x="625.35" y="-241.4" font-family="Arial Bold" font-size="18.00">public.subdomain</text>
<text text-anchor="start" x="753.84" y="-241.4" font-family="Arial" font-size="14.00">    </text>
<text text-anchor="start" x="784.95" y="-241.4" font-family="Arial" font-size="14.00" fill="#666666">[BASE TABLE]</text>
<polygon fill="none" stroke="black" points="618.35,-197.2 618.35,-228 885.33,-228 885.33,-197.2 618.35,-197.2"/>
<text text-anchor="start" x="625.35" y="-209.4" font-family="Arial" font-size="14.00">subdomain_key </text>
<text text-anchor="start" x="727.3" y="-209.4" font-family="Arial" font-size="14.00" fill="#666666">[text]</text>
<polygon fill="none" stroke="black" points="618.35,-166.4 618.35,-197.2 885.33,-197.2 885.33,-166.4 618.35,-166.4"/>
<text text-anchor="start" x="625.35" y="-178.6" font-family="Arial" font-size="14.00">model_key </text>
<text text-anchor="start" x="696.94" y="-178.6" font-family="Arial" font-size="14.00" fill="#666666">[text]</text>
<polygon fill="none" stroke="black" points="618.35,-135.6 618.35,-166.4 885.33,-166.4 885.33,-135.6 618.35,-135.6"/>
<text text-anchor="start" x="625.35" y="-147.8" font-family="Arial" font-size="14.00">domain_key </text>
<text text-anchor="start" x="704.73" y="-147.8" font-family="Arial" font-size="14.00" fill="#666666">[text]</text>
<polygon fill="none" stroke="black" points="618.35,-104.8 618.35,-135.6 885.33,-135.6 885.33,-104.8 618.35,-104.8"/>
<text text-anchor="start" x="625.35" y="-117" font-family="Arial" font-size="14.00">name </text>
<text text-anchor="start" x="664.26" y="-117" font-family="Arial" font-size="14.00" fill="#666666">[text]</text>
<polygon fill="none" stroke="black" points="618.35,-74 618.35,-104.8 885.33,-104.8 885.33,-74 618.35,-74"/>
<text text-anchor="start" x="625.35" y="-86.2" font-family="Arial" font-size="14.00">details </text>
<text text-anchor="start" x="669.71" y="-86.2" font-family="Arial" font-size="14.00" fill="#666666">[text]</text>
<polygon fill="none" stroke="black" points="618.35,-43.2 618.35,-74 885.33,-74 885.33,-43.2 618.35,-43.2"/>
<text text-anchor="start" x="625.35" y="-55.4" font-family="Arial" font-size="14.00">uml_comment </text>
<text text-anchor="start" x="717.16" y="-55.4" font-family="Arial" font-size="14.00" fill="#666666">[text]</text>
</g>
<!-- public.class_generalization&#45;&gt;public.subdomain -->
<g id="edge2" class="edge">
<title>public.class_generalization:model_key&#45;&gt;public.subdomain:model_key</title>
<path fill="none" stroke="black" d="M753.18,-619.55C863.04,-609.59 813.72,-438.34 741.79,-342.8 707.42,-297.14 652.82,-352.38 618.35,-306.8 584.84,-262.49 561.79,-181.8 617.35,-181.8"/>
<polygon fill="black" stroke="black" points="753.12,-619.55 742.93,-615.49 747.79,-619.78 743.46,-619.97 743.46,-619.97 743.46,-619.97 747.79,-619.78 743.33,-624.48 753.12,-619.55"/>
<text text-anchor="start" x="749.79" y="-630" font-family="Arial" font-size="10.00">FOREIGN KEY (model_key, subdomain_key) REFERENCES subdomain(model_key, subdomain_key) ON DELETE CASCADE</text>
</g>
<!-- public.class -->
<g id="node4" class="node">
<title>public.class</title>
<polygon fill="#efefef" stroke="none" points="463.35,-1073.6 463.35,-1109.2 686.32,-1109.2 686.32,-1073.6 463.35,-1073.6"/>
<polygon fill="none" stroke="black" points="463.35,-1073.6 463.35,-1109.2 686.32,-1109.2 686.32,-1073.6 463.35,-1073.6"/>
<text text-anchor="start" x="470.35" y="-1087" font-family="Arial Bold" font-size="18.00">public.class</text>
<text text-anchor="start" x="554.83" y="-1087" font-family="Arial" font-size="14.00">    </text>
<text text-anchor="start" x="585.95" y="-1087" font-family="Arial" font-size="14.00" fill="#666666">[BASE TABLE]</text>
<polygon fill="none" stroke="black" points="463.35,-1042.8 463.35,-1073.6 686.32,-1073.6 686.32,-1042.8 463.35,-1042.8"/>
<text text-anchor="start" x="470.35" y="-1055" font-family="Arial" font-size="14.00">model_key </text>
<text text-anchor="start" x="541.95" y="-1055" font-family="Arial" font-size="14.00" fill="#666666">[text]</text>
<polygon fill="none" stroke="black" points="463.35,-1012 463.35,-1042.8 686.32,-1042.8 686.32,-1012 463.35,-1012"/>
<text text-anchor="start" x="470.35" y="-1024.2" font-family="Arial" font-size="14.00">class_key </text>
<text text-anchor="start" x="535.71" y="-1024.2" font-family="Arial" font-size="14.00" fill="#666666">[text]</text>
<polygon fill="none" stroke="black" points="463.35,-981.2 463.35,-1012 686.32,-1012 686.32,-981.2 463.35,-981.2"/>
<text text-anchor="start" x="470.35" y="-993.4" font-family="Arial" font-size="14.00">name </text>
<text text-anchor="start" x="509.26" y="-993.4" font-family="Arial" font-size="14.00" fill="#666666">[text]</text>
<polygon fill="none" stroke="black" points="463.35,-950.4 463.35,-981.2 686.32,-981.2 686.32,-950.4 463.35,-950.4"/>
<text text-anchor="start" x="470.35" y="-962.6" font-family="Arial" font-size="14.00">subdomain_key </text>
<text text-anchor="start" x="572.3" y="-962.6" font-family="Arial" font-size="14.00" fill="#666666">[text]</text>
<polygon fill="none" stroke="black" points="463.35,-919.6 463.35,-950.4 686.32,-950.4 686.32,-919.6 463.35,-919.6"/>
<text text-anchor="start" x="470.35" y="-931.8" font-family="Arial" font-size="14.00">actor_key </text>
<text text-anchor="start" x="534.94" y="-931.8" font-family="Arial" font-size="14.00" fill="#666666">[text]</text>
<polygon fill="none" stroke="black" points="463.35,-888.8 463.35,-919.6 686.32,-919.6 686.32,-888.8 463.35,-888.8"/>
<text text-anchor="start" x="470.35" y="-901" font-family="Arial" font-size="14.00">superclass_of_key </text>
<text text-anchor="start" x="590.19" y="-901" font-family="Arial" font-size="14.00" fill="#666666">[text]</text>
<polygon fill="none" stroke="black" points="463.35,-858 463.35,-888.8 686.32,-888.8 686.32,-858 463.35,-858"/>
<text text-anchor="start" x="470.35" y="-870.2" font-family="Arial" font-size="14.00">subclass_of_key </text>
<text text-anchor="start" x="577.75" y="-870.2" font-family="Arial" font-size="14.00" fill="#666666">[text]</text>
<polygon fill="none" stroke="black" points="463.35,-827.2 463.35,-858 686.32,-858 686.32,-827.2 463.35,-827.2"/>
<text text-anchor="start" x="470.35" y="-839.4" font-family="Arial" font-size="14.00">details </text>
<text text-anchor="start" x="514.71" y="-839.4" font-family="Arial" font-size="14.00" fill="#666666">[text]</text>
<polygon fill="none" stroke="black" points="463.35,-796.4 463.35,-827.2 686.32,-827.2 686.32,-796.4 463.35,-796.4"/>
<text text-anchor="start" x="470.35" y="-808.6" font-family="Arial" font-size="14.00">uml_comment </text>
<text text-anchor="start" x="562.16" y="-808.6" font-family="Arial" font-size="14.00" fill="#666666">[text]</text>
</g>
<!-- public.class&#45;&gt;public.class_generalization -->
<g id="edge3" class="edge">
<title>public.class:model_key&#45;&gt;public.class_generalization:model_key</title>
<path fill="none" stroke="black" d="M697.61,-1057.75C876.61,-1042.09 926.63,-620 742.79,-620"/>
<polygon fill="black" stroke="black" points="697.65,-1057.75 687.46,-1053.69 692.32,-1057.98 687.99,-1058.17 687.99,-1058.17 687.99,-1058.17 692.32,-1057.98 687.85,-1062.68 697.65,-1057.75"/>
<text text-anchor="start" x="694.32" y="-1068.2" font-family="Arial" font-size="10.00">FOREIGN KEY (model_key, subclass_of_key) REFERENCES class_generalization(model_key, generalization_key) ON DELETE CASCADE</text>
</g>
<!-- public.class&#45;&gt;public.class_generalization -->
<g id="edge4" class="edge">
<title>public.class:model_key&#45;&gt;public.class_generalization:model_key</title>
<path fill="none" stroke="black" d="M698,-1057.8C894.4,-1042.95 944.45,-620.42 743.1,-620"/>
<polygon fill="black" stroke="black" points="697.95,-1057.8 687.78,-1053.69 692.62,-1058.01 688.29,-1058.17 688.29,-1058.17 688.29,-1058.17 692.62,-1058.01 688.13,-1062.68 697.95,-1057.8"/>
<text text-anchor="start" x="694.62" y="-1042.2" font-family="Arial" font-size="10.00">FOREIGN KEY (model_key, superclass_of_key) REFERENCES class_generalization(model_key, generalization_key) ON DELETE CASCADE</text>
</g>
</g>
</svg>
