<?xml version="1.0" encoding="UTF-8" standalone="no"?>
<!DOCTYPE svg PUBLIC "-//W3C//DTD SVG 1.1//EN"
 "http://www.w3.org/Graphics/SVG/1.1/DTD/svg11.dtd">
<!-- Generated by graphviz version 12.1.2 (20240928.0832)
 -->
<!-- Title: public.data_type Pages: 1 -->
<svg width="1566pt" height="914pt"
 viewBox="0.00 0.00 1565.93 914.00" xmlns="http://www.w3.org/2000/svg" xmlns:xlink="http://www.w3.org/1999/xlink">
<g id="graph0" class="graph" transform="scale(1 1) rotate(0) translate(4 910)">
<title>public.data_type</title>
<polygon fill="white" stroke="none" points="-4,4 -4,-910 1561.93,-910 1561.93,4 -4,4"/>
<!-- public.data_type -->
<g id="node1" class="node">
<title>public.data_type</title>
<polygon fill="#efefef" stroke="none" points="688.84,-481.4 688.84,-517 946.79,-517 946.79,-481.4 688.84,-481.4"/>
<polygon fill="none" stroke="black" points="688.84,-481.4 688.84,-517 946.79,-517 946.79,-481.4 688.84,-481.4"/>
<text text-anchor="start" x="695.84" y="-494.8" font-family="Arial Bold" font-size="18.00">public.data_type</text>
<text text-anchor="start" x="815.3" y="-494.8" font-family="Arial" font-size="14.00">    </text>
<text text-anchor="start" x="846.42" y="-494.8" font-family="Arial" font-size="14.00" fill="#666666">[BASE TABLE]</text>
<polygon fill="none" stroke="black" points="688.84,-450.6 688.84,-481.4 946.79,-481.4 946.79,-450.6 688.84,-450.6"/>
<text text-anchor="start" x="695.84" y="-462.8" font-family="Arial" font-size="14.00">model_key </text>
<text text-anchor="start" x="767.43" y="-462.8" font-family="Arial" font-size="14.00" fill="#666666">[text]</text>
<polygon fill="none" stroke="black" points="688.84,-419.8 688.84,-450.6 946.79,-450.6 946.79,-419.8 688.84,-419.8"/>
<text text-anchor="start" x="695.84" y="-432" font-family="Arial" font-size="14.00">data_type_key </text>
<text text-anchor="start" x="790.8" y="-432" font-family="Arial" font-size="14.00" fill="#666666">[text]</text>
<polygon fill="none" stroke="black" points="688.84,-389 688.84,-419.8 946.79,-419.8 946.79,-389 688.84,-389"/>
<text text-anchor="start" x="695.84" y="-401.2" font-family="Arial" font-size="14.00">collection_type </text>
<text text-anchor="start" x="792.34" y="-401.2" font-family="Arial" font-size="14.00" fill="#666666">[collection_type]</text>
<polygon fill="none" stroke="black" points="688.84,-358.2 688.84,-389 946.79,-389 946.79,-358.2 688.84,-358.2"/>
<text text-anchor="start" x="695.84" y="-370.4" font-family="Arial" font-size="14.00">collection_unique </text>
<text text-anchor="start" x="807.92" y="-370.4" font-family="Arial" font-size="14.00" fill="#666666">[boolean]</text>
<polygon fill="none" stroke="black" points="688.84,-327.4 688.84,-358.2 946.79,-358.2 946.79,-327.4 688.84,-327.4"/>
<text text-anchor="start" x="695.84" y="-339.6" font-family="Arial" font-size="14.00">collection_min </text>
<text text-anchor="start" x="788.44" y="-339.6" font-family="Arial" font-size="14.00" fill="#666666">[bigint]</text>
<polygon fill="none" stroke="black" points="688.84,-296.6 688.84,-327.4 946.79,-327.4 946.79,-296.6 688.84,-296.6"/>
<text text-anchor="start" x="695.84" y="-308.8" font-family="Arial" font-size="14.00">collection_max </text>
<text text-anchor="start" x="792.33" y="-308.8" font-family="Arial" font-size="14.00" fill="#666666">[bigint]</text>
<polygon fill="none" stroke="black" stroke-width="3" points="687.34,-295.1 687.34,-518.5 948.29,-518.5 948.29,-295.1 687.34,-295.1"/>
</g>
<!-- public.model -->
<g id="node2" class="node">
<title>public.model</title>
<polygon fill="#efefef" stroke="none" points="701.33,-135.6 701.33,-171.2 934.3,-171.2 934.3,-135.6 701.33,-135.6"/>
<polygon fill="none" stroke="black" points="701.33,-135.6 701.33,-171.2 934.3,-171.2 934.3,-135.6 701.33,-135.6"/>
<text text-anchor="start" x="708.33" y="-149" font-family="Arial Bold" font-size="18.00">public.model</text>
<text text-anchor="start" x="802.81" y="-149" font-family="Arial" font-size="14.00">    </text>
<text text-anchor="start" x="833.93" y="-149" font-family="Arial" font-size="14.00" fill="#666666">[BASE TABLE]</text>
<polygon fill="none" stroke="black" points="701.33,-104.8 701.33,-135.6 934.3,-135.6 934.3,-104.8 701.33,-104.8"/>
<text text-anchor="start" x="708.33" y="-117" font-family="Arial" font-size="14.00">model_key </text>
<text text-anchor="start" x="779.92" y="-117" font-family="Arial" font-size="14.00" fill="#666666">[text]</text>
<polygon fill="none" stroke="black" points="701.33,-74 701.33,-104.8 934.3,-104.8 934.3,-74 701.33,-74"/>
<text text-anchor="start" x="708.33" y="-86.2" font-family="Arial" font-size="14.00">name </text>
<text text-anchor="start" x="747.24" y="-86.2" font-family="Arial" font-size="14.00" fill="#666666">[text]</text>
<polygon fill="none" stroke="black" points="701.33,-43.2 701.33,-74 934.3,-74 934.3,-43.2 701.33,-43.2"/>
<text text-anchor="start" x="708.33" y="-55.4" font-family="Arial" font-size="14.00">details </text>
<text text-anchor="start" x="752.69" y="-55.4" font-family="Arial" font-size="14.00" fill="#666666">[text]</text>
</g>
<!-- public.data_type&#45;&gt;public.model -->
<g id="edge1" class="edge">
<title>public.data_type:model_key&#45;&gt;public.model:model_key</title>
<path fill="none" stroke="black" d="M957.9,-465.48C1100.95,-450.64 1085.64,-120.2 935.3,-120.2"/>
<polygon fill="black" stroke="black" points="958.11,-465.47 947.9,-461.49 952.78,-465.75 948.46,-465.97 948.46,-465.97 948.46,-465.97 952.78,-465.75 948.35,-470.48 958.11,-465.47"/>
<text text-anchor="start" x="954.79" y="-476" font-family="Arial" font-size="10.00">FOREIGN KEY (model_key) REFERENCES model(model_key) ON DELETE CASCADE</text>
</g>
<!-- public.data_type_atomic -->
<g id="node3" class="node">
<title>public.data_type_atomic</title>
<polygon fill="#efefef" stroke="none" points="247.85,-827.2 247.85,-862.8 563.78,-862.8 563.78,-827.2 247.85,-827.2"/>
<polygon fill="none" stroke="black" points="247.85,-827.2 247.85,-862.8 563.78,-862.8 563.78,-827.2 247.85,-827.2"/>
<text text-anchor="start" x="254.85" y="-840.6" font-family="Arial Bold" font-size="18.00">public.data_type_atomic</text>
<text text-anchor="start" x="432.29" y="-840.6" font-family="Arial" font-size="14.00">    </text>
<text text-anchor="start" x="463.41" y="-840.6" font-family="Arial" font-size="14.00" fill="#666666">[BASE TABLE]</text>
<polygon fill="none" stroke="black" points="247.85,-796.4 247.85,-827.2 563.78,-827.2 563.78,-796.4 247.85,-796.4"/>
<text text-anchor="start" x="254.85" y="-808.6" font-family="Arial" font-size="14.00">model_key </text>
<text text-anchor="start" x="326.44" y="-808.6" font-family="Arial" font-size="14.00" fill="#666666">[text]</text>
<polygon fill="none" stroke="black" points="247.85,-765.6 247.85,-796.4 563.78,-796.4 563.78,-765.6 247.85,-765.6"/>
<text text-anchor="start" x="254.85" y="-777.8" font-family="Arial" font-size="14.00">data_type_key </text>
<text text-anchor="start" x="349.81" y="-777.8" font-family="Arial" font-size="14.00" fill="#666666">[text]</text>
<polygon fill="none" stroke="black" points="247.85,-734.8 247.85,-765.6 563.78,-765.6 563.78,-734.8 247.85,-734.8"/>
<text text-anchor="start" x="254.85" y="-747" font-family="Arial" font-size="14.00">constraint_type </text>
<text text-anchor="start" x="353.68" y="-747" font-family="Arial" font-size="14.00" fill="#666666">[constraint_type]</text>
<polygon fill="none" stroke="black" points="247.85,-704 247.85,-734.8 563.78,-734.8 563.78,-704 247.85,-704"/>
<text text-anchor="start" x="254.85" y="-716.2" font-family="Arial" font-size="14.00">reference </text>
<text text-anchor="start" x="317.88" y="-716.2" font-family="Arial" font-size="14.00" fill="#666666">[text]</text>
<polygon fill="none" stroke="black" points="247.85,-673.2 247.85,-704 563.78,-704 563.78,-673.2 247.85,-673.2"/>
<text text-anchor="start" x="254.85" y="-685.4" font-family="Arial" font-size="14.00">enum_ordered </text>
<text text-anchor="start" x="349.8" y="-685.4" font-family="Arial" font-size="14.00" fill="#666666">[boolean]</text>
<polygon fill="none" stroke="black" points="247.85,-642.4 247.85,-673.2 563.78,-673.2 563.78,-642.4 247.85,-642.4"/>
<text text-anchor="start" x="254.85" y="-654.6" font-family="Arial" font-size="14.00">object_class_key </text>
<text text-anchor="start" x="365.35" y="-654.6" font-family="Arial" font-size="14.00" fill="#666666">[text]</text>
</g>
<!-- public.data_type_atomic&#45;&gt;public.data_type -->
<g id="edge2" class="edge">
<title>public.data_type_atomic:model_key&#45;&gt;public.data_type:model_key</title>
<path fill="none" stroke="black" d="M574.88,-811.3C656.11,-802.8 582.36,-686.58 615.82,-599.2 639.88,-536.35 620.54,-466 687.84,-466"/>
<polygon fill="black" stroke="black" points="575.1,-811.29 564.89,-807.29 569.78,-811.55 565.45,-811.77 565.45,-811.77 565.45,-811.77 569.78,-811.55 565.34,-816.28 575.1,-811.29"/>
<text text-anchor="start" x="7" y="-821.8" font-family="Arial" font-size="10.00">FOREIGN KEY (model_key, data_type_key) REFERENCES data_type(model_key, data_type_key) ON DELETE CASCADE</text>
</g>
<!-- public.data_type_field -->
<g id="node4" class="node">
<title>public.data_type_field</title>
<polygon fill="#efefef" stroke="none" points="667.85,-796.4 667.85,-832 967.78,-832 967.78,-796.4 667.85,-796.4"/>
<polygon fill="none" stroke="black" points="667.85,-796.4 667.85,-832 967.78,-832 967.78,-796.4 667.85,-796.4"/>
<text text-anchor="start" x="674.85" y="-809.8" font-family="Arial Bold" font-size="18.00">public.data_type_field</text>
<text text-anchor="start" x="836.29" y="-809.8" font-family="Arial" font-size="14.00">    </text>
<text text-anchor="start" x="867.41" y="-809.8" font-family="Arial" font-size="14.00" fill="#666666">[BASE TABLE]</text>
<polygon fill="none" stroke="black" points="667.85,-765.6 667.85,-796.4 967.78,-796.4 967.78,-765.6 667.85,-765.6"/>
<text text-anchor="start" x="674.85" y="-777.8" font-family="Arial" font-size="14.00">model_key </text>
<text text-anchor="start" x="746.44" y="-777.8" font-family="Arial" font-size="14.00" fill="#666666">[text]</text>
<polygon fill="none" stroke="black" points="667.85,-734.8 667.85,-765.6 967.78,-765.6 967.78,-734.8 667.85,-734.8"/>
<text text-anchor="start" x="674.85" y="-747" font-family="Arial" font-size="14.00">data_type_key </text>
<text text-anchor="start" x="769.81" y="-747" font-family="Arial" font-size="14.00" fill="#666666">[text]</text>
<polygon fill="none" stroke="black" points="667.85,-704 667.85,-734.8 967.78,-734.8 967.78,-704 667.85,-704"/>
<text text-anchor="start" x="674.85" y="-716.2" font-family="Arial" font-size="14.00">name </text>
<text text-anchor="start" x="713.76" y="-716.2" font-family="Arial" font-size="14.00" fill="#666666">[text]</text>
<polygon fill="none" stroke="black" points="667.85,-673.2 667.85,-704 967.78,-704 967.78,-673.2 667.85,-673.2"/>
<text text-anchor="start" x="674.85" y="-685.4" font-family="Arial" font-size="14.00">field_data_type_key </text>
<text text-anchor="start" x="803.27" y="-685.4" font-family="Arial" font-size="14.00" fill="#666666">[text]</text>
</g>
<!-- public.data_type_field&#45;&gt;public.data_type -->
<g id="edge3" class="edge">
<title>public.data_type_field:model_key&#45;&gt;public.data_type:model_key</title>
<path fill="none" stroke="black" d="M978.7,-777.88C1027.34,-745.17 1005.36,-466 947.79,-466"/>
<polygon fill="black" stroke="black" points="978.64,-777.9 967.75,-776.61 973.55,-779.5 969.42,-780.8 969.42,-780.8 969.42,-780.8 973.55,-779.5 970.45,-785.19 978.64,-777.9"/>
<text text-anchor="start" x="975.78" y="-791" font-family="Arial" font-size="10.00">FOREIGN KEY (model_key, data_type_key) REFERENCES data_type(model_key, data_type_key) ON DELETE CASCADE</text>
</g>
<!-- public.data_type_field&#45;&gt;public.data_type -->
<g id="edge4" class="edge">
<title>public.data_type_field:model_key&#45;&gt;public.data_type:model_key</title>
<path fill="none" stroke="black" d="M979.22,-779C1045.71,-752.32 1023.34,-467.17 948.25,-466"/>
<polygon fill="black" stroke="black" points="979.38,-778.97 968.69,-776.52 974.15,-780.02 969.9,-780.87 969.9,-780.87 969.9,-780.87 974.15,-780.02 970.46,-785.34 979.38,-778.97"/>
<text text-anchor="start" x="976.25" y="-765" font-family="Arial" font-size="10.00">FOREIGN KEY (model_key, field_data_type_key) REFERENCES data_type(model_key, data_type_key) ON DELETE CASCADE</text>
</g>
</g>
</svg>
