<?xml version="1.0" encoding="UTF-8" standalone="no"?>
<!DOCTYPE svg PUBLIC "-//W3C//DTD SVG 1.1//EN"
 "http://www.w3.org/Graphics/SVG/1.1/DTD/svg11.dtd">
<!-- Generated by graphviz version 12.1.2 (20240928.0832)
 -->
<!-- Title: public.transition Pages: 1 -->
<svg width="1487pt" height="756pt"
 viewBox="0.00 0.00 1486.77 756.00" xmlns="http://www.w3.org/2000/svg" xmlns:xlink="http://www.w3.org/1999/xlink">
<g id="graph0" class="graph" transform="scale(1 1) rotate(0) translate(4 752)">
<title>public.transition</title>
<polygon fill="white" stroke="none" points="-4,4 -4,-752 1482.77,-752 1482.77,4 -4,4"/>
<!-- public.transition -->
<g id="node1" class="node">
<title>public.transition</title>
<polygon fill="#efefef" stroke="none" points="524.6,-666.2 524.6,-701.8 780.58,-701.8 780.58,-666.2 524.6,-666.2"/>
<polygon fill="none" stroke="black" points="524.6,-666.2 524.6,-701.8 780.58,-701.8 780.58,-666.2 524.6,-666.2"/>
<text text-anchor="start" x="531.6" y="-679.6" font-family="Arial Bold" font-size="18.00">public.transition</text>
<text text-anchor="start" x="649.09" y="-679.6" font-family="Arial" font-size="14.00">    </text>
<text text-anchor="start" x="680.21" y="-679.6" font-family="Arial" font-size="14.00" fill="#666666">[BASE TABLE]</text>
<polygon fill="none" stroke="black" points="524.6,-635.4 524.6,-666.2 780.58,-666.2 780.58,-635.4 524.6,-635.4"/>
<text text-anchor="start" x="531.6" y="-647.6" font-family="Arial" font-size="14.00">model_key </text>
<text text-anchor="start" x="603.2" y="-647.6" font-family="Arial" font-size="14.00" fill="#666666">[text]</text>
<polygon fill="none" stroke="black" points="524.6,-604.6 524.6,-635.4 780.58,-635.4 780.58,-604.6 524.6,-604.6"/>
<text text-anchor="start" x="531.6" y="-616.8" font-family="Arial" font-size="14.00">class_key </text>
<text text-anchor="start" x="596.96" y="-616.8" font-family="Arial" font-size="14.00" fill="#666666">[text]</text>
<polygon fill="none" stroke="black" points="524.6,-573.8 524.6,-604.6 780.58,-604.6 780.58,-573.8 524.6,-573.8"/>
<text text-anchor="start" x="531.6" y="-586" font-family="Arial" font-size="14.00">transition_key </text>
<text text-anchor="start" x="621.87" y="-586" font-family="Arial" font-size="14.00" fill="#666666">[text]</text>
<polygon fill="none" stroke="black" points="524.6,-543 524.6,-573.8 780.58,-573.8 780.58,-543 524.6,-543"/>
<text text-anchor="start" x="531.6" y="-555.2" font-family="Arial" font-size="14.00">from_state_key </text>
<text text-anchor="start" x="631.2" y="-555.2" font-family="Arial" font-size="14.00" fill="#666666">[text]</text>
<polygon fill="none" stroke="black" points="524.6,-512.2 524.6,-543 780.58,-543 780.58,-512.2 524.6,-512.2"/>
<text text-anchor="start" x="531.6" y="-524.4" font-family="Arial" font-size="14.00">event_key </text>
<text text-anchor="start" x="599.31" y="-524.4" font-family="Arial" font-size="14.00" fill="#666666">[text]</text>
<polygon fill="none" stroke="black" points="524.6,-481.4 524.6,-512.2 780.58,-512.2 780.58,-481.4 524.6,-481.4"/>
<text text-anchor="start" x="531.6" y="-493.6" font-family="Arial" font-size="14.00">guard_key </text>
<text text-anchor="start" x="600.87" y="-493.6" font-family="Arial" font-size="14.00" fill="#666666">[text]</text>
<polygon fill="none" stroke="black" points="524.6,-450.6 524.6,-481.4 780.58,-481.4 780.58,-450.6 524.6,-450.6"/>
<text text-anchor="start" x="531.6" y="-462.8" font-family="Arial" font-size="14.00">action_key </text>
<text text-anchor="start" x="602.42" y="-462.8" font-family="Arial" font-size="14.00" fill="#666666">[text]</text>
<polygon fill="none" stroke="black" points="524.6,-419.8 524.6,-450.6 780.58,-450.6 780.58,-419.8 524.6,-419.8"/>
<text text-anchor="start" x="531.6" y="-432" font-family="Arial" font-size="14.00">to_state_key </text>
<text text-anchor="start" x="614.88" y="-432" font-family="Arial" font-size="14.00" fill="#666666">[text]</text>
<polygon fill="none" stroke="black" points="524.6,-389 524.6,-419.8 780.58,-419.8 780.58,-389 524.6,-389"/>
<text text-anchor="start" x="531.6" y="-401.2" font-family="Arial" font-size="14.00">uml_comment </text>
<text text-anchor="start" x="623.41" y="-401.2" font-family="Arial" font-size="14.00" fill="#666666">[text]</text>
<polygon fill="none" stroke="black" stroke-width="3" points="523.1,-387.5 523.1,-703.3 782.08,-703.3 782.08,-387.5 523.1,-387.5"/>
</g>
<!-- public.state -->
<g id="node2" class="node">
<title>public.state</title>
<polygon fill="#efefef" stroke="none" points="214.11,-228 214.11,-263.6 435.07,-263.6 435.07,-228 214.11,-228"/>
<polygon fill="none" stroke="black" points="214.11,-228 214.11,-263.6 435.07,-263.6 435.07,-228 214.11,-228"/>
<text text-anchor="start" x="221.11" y="-241.4" font-family="Arial Bold" font-size="18.00">public.state</text>
<text text-anchor="start" x="303.58" y="-241.4" font-family="Arial" font-size="14.00">    </text>
<text text-anchor="start" x="334.7" y="-241.4" font-family="Arial" font-size="14.00" fill="#666666">[BASE TABLE]</text>
<polygon fill="none" stroke="black" points="214.11,-197.2 214.11,-228 435.07,-228 435.07,-197.2 214.11,-197.2"/>
<text text-anchor="start" x="221.11" y="-209.4" font-family="Arial" font-size="14.00">model_key </text>
<text text-anchor="start" x="292.7" y="-209.4" font-family="Arial" font-size="14.00" fill="#666666">[text]</text>
<polygon fill="none" stroke="black" points="214.11,-166.4 214.11,-197.2 435.07,-197.2 435.07,-166.4 214.11,-166.4"/>
<text text-anchor="start" x="221.11" y="-178.6" font-family="Arial" font-size="14.00">class_key </text>
<text text-anchor="start" x="286.47" y="-178.6" font-family="Arial" font-size="14.00" fill="#666666">[text]</text>
<polygon fill="none" stroke="black" points="214.11,-135.6 214.11,-166.4 435.07,-166.4 435.07,-135.6 214.11,-135.6"/>
<text text-anchor="start" x="221.11" y="-147.8" font-family="Arial" font-size="14.00">state_key </text>
<text text-anchor="start" x="284.92" y="-147.8" font-family="Arial" font-size="14.00" fill="#666666">[text]</text>
<polygon fill="none" stroke="black" points="214.11,-104.8 214.11,-135.6 435.07,-135.6 435.07,-104.8 214.11,-104.8"/>
<text text-anchor="start" x="221.11" y="-117" font-family="Arial" font-size="14.00">name </text>
<text text-anchor="start" x="260.02" y="-117" font-family="Arial" font-size="14.00" fill="#666666">[text]</text>
<polygon fill="none" stroke="black" points="214.11,-74 214.11,-104.8 435.07,-104.8 435.07,-74 214.11,-74"/>
<text text-anchor="start" x="221.11" y="-86.2" font-family="Arial" font-size="14.00">details </text>
<text text-anchor="start" x="265.47" y="-86.2" font-family="Arial" font-size="14.00" fill="#666666">[text]</text>
<polygon fill="none" stroke="black" points="214.11,-43.2 214.11,-74 435.07,-74 435.07,-43.2 214.11,-43.2"/>
<text text-anchor="start" x="221.11" y="-55.4" font-family="Arial" font-size="14.00">uml_comment </text>
<text text-anchor="start" x="312.91" y="-55.4" font-family="Arial" font-size="14.00" fill="#666666">[text]</text>
</g>
<!-- public.transition&#45;&gt;public.state -->
<g id="edge1" class="edge">
<title>public.transition:model_key&#45;&gt;public.state:model_key</title>
<path fill="none" stroke="black" d="M513.53,-649.38C422.46,-622.18 523.38,-212.6 436.07,-212.6"/>
<polygon fill="black" stroke="black" points="513.37,-649.36 522.65,-655.21 518.65,-650.1 522.94,-650.71 522.94,-650.71 522.94,-650.71 518.65,-650.1 523.9,-646.3 513.37,-649.36"/>
<text text-anchor="start" x="7" y="-660.8" font-family="Arial" font-size="10.00">FOREIGN KEY (model_key, from_state_key) REFERENCES state(model_key, state_key) ON DELETE CASCADE</text>
</g>
<!-- public.transition&#45;&gt;public.state -->
<g id="edge2" class="edge">
<title>public.transition:model_key&#45;&gt;public.state:model_key</title>
<path fill="none" stroke="black" d="M513.28,-648.56C442.3,-614.87 539.64,-213.42 436.39,-212.6"/>
<polygon fill="black" stroke="black" points="513.25,-648.55 522.03,-655.12 518.46,-649.71 522.69,-650.65 522.69,-650.65 522.69,-650.65 518.46,-649.71 523.99,-646.33 513.25,-648.55"/>
<text text-anchor="start" x="18.4" y="-634.8" font-family="Arial" font-size="10.00">FOREIGN KEY (model_key, to_state_key) REFERENCES state(model_key, state_key) ON DELETE CASCADE</text>
</g>
<!-- public.event -->
<g id="node3" class="node">
<title>public.event</title>
<polygon fill="#efefef" stroke="none" points="539.11,-212.6 539.11,-248.2 766.07,-248.2 766.07,-212.6 539.11,-212.6"/>
<polygon fill="none" stroke="black" points="539.11,-212.6 539.11,-248.2 766.07,-248.2 766.07,-212.6 539.11,-212.6"/>
<text text-anchor="start" x="546.11" y="-226" font-family="Arial Bold" font-size="18.00">public.event</text>
<text text-anchor="start" x="634.58" y="-226" font-family="Arial" font-size="14.00">    </text>
<text text-anchor="start" x="665.7" y="-226" font-family="Arial" font-size="14.00" fill="#666666">[BASE TABLE]</text>
<polygon fill="none" stroke="black" points="539.11,-181.8 539.11,-212.6 766.07,-212.6 766.07,-181.8 539.11,-181.8"/>
<text text-anchor="start" x="546.11" y="-194" font-family="Arial" font-size="14.00">model_key </text>
<text text-anchor="start" x="617.7" y="-194" font-family="Arial" font-size="14.00" fill="#666666">[text]</text>
<polygon fill="none" stroke="black" points="539.11,-151 539.11,-181.8 766.07,-181.8 766.07,-151 539.11,-151"/>
<text text-anchor="start" x="546.11" y="-163.2" font-family="Arial" font-size="14.00">class_key </text>
<text text-anchor="start" x="611.47" y="-163.2" font-family="Arial" font-size="14.00" fill="#666666">[text]</text>
<polygon fill="none" stroke="black" points="539.11,-120.2 539.11,-151 766.07,-151 766.07,-120.2 539.11,-120.2"/>
<text text-anchor="start" x="546.11" y="-132.4" font-family="Arial" font-size="14.00">event_key </text>
<text text-anchor="start" x="613.82" y="-132.4" font-family="Arial" font-size="14.00" fill="#666666">[text]</text>
<polygon fill="none" stroke="black" points="539.11,-89.4 539.11,-120.2 766.07,-120.2 766.07,-89.4 539.11,-89.4"/>
<text text-anchor="start" x="546.11" y="-101.6" font-family="Arial" font-size="14.00">name </text>
<text text-anchor="start" x="585.02" y="-101.6" font-family="Arial" font-size="14.00" fill="#666666">[text]</text>
<polygon fill="none" stroke="black" points="539.11,-58.6 539.11,-89.4 766.07,-89.4 766.07,-58.6 539.11,-58.6"/>
<text text-anchor="start" x="546.11" y="-70.8" font-family="Arial" font-size="14.00">details </text>
<text text-anchor="start" x="590.47" y="-70.8" font-family="Arial" font-size="14.00" fill="#666666">[text]</text>
</g>
<!-- public.transition&#45;&gt;public.event -->
<g id="edge3" class="edge">
<title>public.transition:model_key&#45;&gt;public.event:model_key</title>
<path fill="none" stroke="black" d="M790.28,-645.71C830.05,-595.87 814.34,-197.2 767.07,-197.2"/>
<polygon fill="black" stroke="black" points="790.5,-645.58 779.59,-646.75 785.89,-648.27 782.15,-650.46 782.15,-650.46 782.15,-650.46 785.89,-648.27 784.14,-654.51 790.5,-645.58"/>
<text text-anchor="start" x="788.58" y="-660.8" font-family="Arial" font-size="10.00">FOREIGN KEY (model_key, event_key) REFERENCES event(model_key, event_key) ON DELETE CASCADE</text>
</g>
<!-- public.guard -->
<g id="node4" class="node">
<title>public.guard</title>
<polygon fill="#efefef" stroke="none" points="870.11,-197.2 870.11,-232.8 1099.07,-232.8 1099.07,-197.2 870.11,-197.2"/>
<polygon fill="none" stroke="black" points="870.11,-197.2 870.11,-232.8 1099.07,-232.8 1099.07,-197.2 870.11,-197.2"/>
<text text-anchor="start" x="877.11" y="-210.6" font-family="Arial Bold" font-size="18.00">public.guard</text>
<text text-anchor="start" x="967.58" y="-210.6" font-family="Arial" font-size="14.00">    </text>
<text text-anchor="start" x="998.7" y="-210.6" font-family="Arial" font-size="14.00" fill="#666666">[BASE TABLE]</text>
<polygon fill="none" stroke="black" points="870.11,-166.4 870.11,-197.2 1099.07,-197.2 1099.07,-166.4 870.11,-166.4"/>
<text text-anchor="start" x="877.11" y="-178.6" font-family="Arial" font-size="14.00">model_key </text>
<text text-anchor="start" x="948.7" y="-178.6" font-family="Arial" font-size="14.00" fill="#666666">[text]</text>
<polygon fill="none" stroke="black" points="870.11,-135.6 870.11,-166.4 1099.07,-166.4 1099.07,-135.6 870.11,-135.6"/>
<text text-anchor="start" x="877.11" y="-147.8" font-family="Arial" font-size="14.00">class_key </text>
<text text-anchor="start" x="942.47" y="-147.8" font-family="Arial" font-size="14.00" fill="#666666">[text]</text>
<polygon fill="none" stroke="black" points="870.11,-104.8 870.11,-135.6 1099.07,-135.6 1099.07,-104.8 870.11,-104.8"/>
<text text-anchor="start" x="877.11" y="-117" font-family="Arial" font-size="14.00">guard_key </text>
<text text-anchor="start" x="946.38" y="-117" font-family="Arial" font-size="14.00" fill="#666666">[text]</text>
<polygon fill="none" stroke="black" points="870.11,-74 870.11,-104.8 1099.07,-104.8 1099.07,-74 870.11,-74"/>
<text text-anchor="start" x="877.11" y="-86.2" font-family="Arial" font-size="14.00">name </text>
<text text-anchor="start" x="916.02" y="-86.2" font-family="Arial" font-size="14.00" fill="#666666">[text]</text>
</g>
<!-- public.transition&#45;&gt;public.guard -->
<g id="edge4" class="edge">
<title>public.transition:model_key&#45;&gt;public.guard:model_key</title>
<path fill="none" stroke="black" d="M791.66,-649.19C879.36,-619.29 766.71,-181.8 869.11,-181.8"/>
<polygon fill="black" stroke="black" points="791.78,-649.17 781.2,-646.3 786.51,-650.01 782.24,-650.69 782.24,-650.69 782.24,-650.69 786.51,-650.01 782.62,-655.19 791.78,-649.17"/>
<text text-anchor="start" x="788.58" y="-634.8" font-family="Arial" font-size="10.00">FOREIGN KEY (model_key, guard_key) REFERENCES guard(model_key, guard_key) ON DELETE CASCADE</text>
</g>
<!-- public.action -->
<g id="node5" class="node">
<title>public.action</title>
<polygon fill="#efefef" stroke="none" points="1203.61,-212.6 1203.61,-248.2 1435.57,-248.2 1435.57,-212.6 1203.61,-212.6"/>
<polygon fill="none" stroke="black" points="1203.61,-212.6 1203.61,-248.2 1435.57,-248.2 1435.57,-212.6 1203.61,-212.6"/>
<text text-anchor="start" x="1210.61" y="-226" font-family="Arial Bold" font-size="18.00">public.action</text>
<text text-anchor="start" x="1304.08" y="-226" font-family="Arial" font-size="14.00">    </text>
<text text-anchor="start" x="1335.2" y="-226" font-family="Arial" font-size="14.00" fill="#666666">[BASE TABLE]</text>
<polygon fill="none" stroke="black" points="1203.61,-181.8 1203.61,-212.6 1435.57,-212.6 1435.57,-181.8 1203.61,-181.8"/>
<text text-anchor="start" x="1210.61" y="-194" font-family="Arial" font-size="14.00">model_key </text>
<text text-anchor="start" x="1282.2" y="-194" font-family="Arial" font-size="14.00" fill="#666666">[text]</text>
<polygon fill="none" stroke="black" points="1203.61,-151 1203.61,-181.8 1435.57,-181.8 1435.57,-151 1203.61,-151"/>
<text text-anchor="start" x="1210.61" y="-163.2" font-family="Arial" font-size="14.00">class_key </text>
<text text-anchor="start" x="1275.97" y="-163.2" font-family="Arial" font-size="14.00" fill="#666666">[text]</text>
<polygon fill="none" stroke="black" points="1203.61,-120.2 1203.61,-151 1435.57,-151 1435.57,-120.2 1203.61,-120.2"/>
<text text-anchor="start" x="1210.61" y="-132.4" font-family="Arial" font-size="14.00">action_key </text>
<text text-anchor="start" x="1281.43" y="-132.4" font-family="Arial" font-size="14.00" fill="#666666">[text]</text>
<polygon fill="none" stroke="black" points="1203.61,-89.4 1203.61,-120.2 1435.57,-120.2 1435.57,-89.4 1203.61,-89.4"/>
<text text-anchor="start" x="1210.61" y="-101.6" font-family="Arial" font-size="14.00">name </text>
<text text-anchor="start" x="1249.52" y="-101.6" font-family="Arial" font-size="14.00" fill="#666666">[text]</text>
<polygon fill="none" stroke="black" points="1203.61,-58.6 1203.61,-89.4 1435.57,-89.4 1435.57,-58.6 1203.61,-58.6"/>
<text text-anchor="start" x="1210.61" y="-70.8" font-family="Arial" font-size="14.00">details </text>
<text text-anchor="start" x="1254.97" y="-70.8" font-family="Arial" font-size="14.00" fill="#666666">[text]</text>
</g>
<!-- public.transition&#45;&gt;public.action -->
<g id="edge5" class="edge">
<title>public.transition:model_key&#45;&gt;public.action:model_key</title>
<path fill="none" stroke="black" d="M791.95,-650.68C1006.57,-645.72 1021.59,-485.56 1151.59,-306.8 1183.19,-263.34 1148.88,-197.2 1202.61,-197.2"/>
<polygon fill="black" stroke="black" points="791.91,-650.68 781.86,-646.3 786.58,-650.74 782.25,-650.79 782.25,-650.79 782.25,-650.79 786.58,-650.74 781.96,-655.3 791.91,-650.68"/>
<text text-anchor="start" x="275.52" y="-660.8" font-family="Arial" font-size="10.00">FOREIGN KEY (model_key, action_key) REFERENCES action(model_key, action_key) ON DELETE CASCADE</text>
</g>
</g>
</svg>
