<?xml version="1.0" encoding="UTF-8" standalone="no"?>
<!DOCTYPE svg PUBLIC "-//W3C//DTD SVG 1.1//EN"
 "http://www.w3.org/Graphics/SVG/1.1/DTD/svg11.dtd">
<!-- Generated by graphviz version 12.1.2 (20240928.0832)
 -->
<!-- Title: public.data_type Pages: 1 -->
<svg width="2410pt" height="1037pt"
 viewBox="0.00 0.00 2410.14 1037.20" xmlns="http://www.w3.org/2000/svg" xmlns:xlink="http://www.w3.org/1999/xlink">
<g id="graph0" class="graph" transform="scale(1 1) rotate(0) translate(4 1033.2)">
<title>public.data_type</title>
<polygon fill="white" stroke="none" points="-4,4 -4,-1033.2 2406.14,-1033.2 2406.14,4 -4,4"/>
<!-- public.data_type -->
<g id="node1" class="node">
<title>public.data_type</title>
<polygon fill="#efefef" stroke="none" points="877.84,-481.4 877.84,-517 1135.79,-517 1135.79,-481.4 877.84,-481.4"/>
<polygon fill="none" stroke="black" points="877.84,-481.4 877.84,-517 1135.79,-517 1135.79,-481.4 877.84,-481.4"/>
<text text-anchor="start" x="884.84" y="-494.8" font-family="Arial Bold" font-size="18.00">public.data_type</text>
<text text-anchor="start" x="1004.3" y="-494.8" font-family="Arial" font-size="14.00">    </text>
<text text-anchor="start" x="1035.42" y="-494.8" font-family="Arial" font-size="14.00" fill="#666666">[BASE TABLE]</text>
<polygon fill="none" stroke="black" points="877.84,-450.6 877.84,-481.4 1135.79,-481.4 1135.79,-450.6 877.84,-450.6"/>
<text text-anchor="start" x="884.84" y="-462.8" font-family="Arial" font-size="14.00">model_key </text>
<text text-anchor="start" x="956.43" y="-462.8" font-family="Arial" font-size="14.00" fill="#666666">[text]</text>
<polygon fill="none" stroke="black" points="877.84,-419.8 877.84,-450.6 1135.79,-450.6 1135.79,-419.8 877.84,-419.8"/>
<text text-anchor="start" x="884.84" y="-432" font-family="Arial" font-size="14.00">data_type_key </text>
<text text-anchor="start" x="979.8" y="-432" font-family="Arial" font-size="14.00" fill="#666666">[text]</text>
<polygon fill="none" stroke="black" points="877.84,-389 877.84,-419.8 1135.79,-419.8 1135.79,-389 877.84,-389"/>
<text text-anchor="start" x="884.84" y="-401.2" font-family="Arial" font-size="14.00">collection_type </text>
<text text-anchor="start" x="981.34" y="-401.2" font-family="Arial" font-size="14.00" fill="#666666">[collection_type]</text>
<polygon fill="none" stroke="black" points="877.84,-358.2 877.84,-389 1135.79,-389 1135.79,-358.2 877.84,-358.2"/>
<text text-anchor="start" x="884.84" y="-370.4" font-family="Arial" font-size="14.00">collection_unique </text>
<text text-anchor="start" x="996.92" y="-370.4" font-family="Arial" font-size="14.00" fill="#666666">[boolean]</text>
<polygon fill="none" stroke="black" points="877.84,-327.4 877.84,-358.2 1135.79,-358.2 1135.79,-327.4 877.84,-327.4"/>
<text text-anchor="start" x="884.84" y="-339.6" font-family="Arial" font-size="14.00">collection_min </text>
<text text-anchor="start" x="977.44" y="-339.6" font-family="Arial" font-size="14.00" fill="#666666">[bigint]</text>
<polygon fill="none" stroke="black" points="877.84,-296.6 877.84,-327.4 1135.79,-327.4 1135.79,-296.6 877.84,-296.6"/>
<text text-anchor="start" x="884.84" y="-308.8" font-family="Arial" font-size="14.00">collection_max </text>
<text text-anchor="start" x="981.33" y="-308.8" font-family="Arial" font-size="14.00" fill="#666666">[bigint]</text>
<polygon fill="none" stroke="black" stroke-width="3" points="876.34,-295.1 876.34,-518.5 1137.29,-518.5 1137.29,-295.1 876.34,-295.1"/>
</g>
<!-- public.model -->
<g id="node2" class="node">
<title>public.model</title>
<polygon fill="#efefef" stroke="none" points="890.33,-135.6 890.33,-171.2 1123.3,-171.2 1123.3,-135.6 890.33,-135.6"/>
<polygon fill="none" stroke="black" points="890.33,-135.6 890.33,-171.2 1123.3,-171.2 1123.3,-135.6 890.33,-135.6"/>
<text text-anchor="start" x="897.33" y="-149" font-family="Arial Bold" font-size="18.00">public.model</text>
<text text-anchor="start" x="991.81" y="-149" font-family="Arial" font-size="14.00">    </text>
<text text-anchor="start" x="1022.93" y="-149" font-family="Arial" font-size="14.00" fill="#666666">[BASE TABLE]</text>
<polygon fill="none" stroke="black" points="890.33,-104.8 890.33,-135.6 1123.3,-135.6 1123.3,-104.8 890.33,-104.8"/>
<text text-anchor="start" x="897.33" y="-117" font-family="Arial" font-size="14.00">model_key </text>
<text text-anchor="start" x="968.92" y="-117" font-family="Arial" font-size="14.00" fill="#666666">[text]</text>
<polygon fill="none" stroke="black" points="890.33,-74 890.33,-104.8 1123.3,-104.8 1123.3,-74 890.33,-74"/>
<text text-anchor="start" x="897.33" y="-86.2" font-family="Arial" font-size="14.00">name </text>
<text text-anchor="start" x="936.24" y="-86.2" font-family="Arial" font-size="14.00" fill="#666666">[text]</text>
<polygon fill="none" stroke="black" points="890.33,-43.2 890.33,-74 1123.3,-74 1123.3,-43.2 890.33,-43.2"/>
<text text-anchor="start" x="897.33" y="-55.4" font-family="Arial" font-size="14.00">details </text>
<text text-anchor="start" x="941.69" y="-55.4" font-family="Arial" font-size="14.00" fill="#666666">[text]</text>
</g>
<!-- public.data_type&#45;&gt;public.model -->
<g id="edge1" class="edge">
<title>public.data_type:model_key&#45;&gt;public.model:model_key</title>
<path fill="none" stroke="black" d="M1146.9,-465.48C1289.95,-450.64 1274.64,-120.2 1124.3,-120.2"/>
<polygon fill="black" stroke="black" points="1147.11,-465.47 1136.9,-461.49 1141.78,-465.75 1137.46,-465.97 1137.46,-465.97 1137.46,-465.97 1141.78,-465.75 1137.35,-470.48 1147.11,-465.47"/>
<text text-anchor="start" x="1143.79" y="-476" font-family="Arial" font-size="10.00">FOREIGN KEY (model_key) REFERENCES model(model_key) ON DELETE CASCADE</text>
</g>
<!-- public.data_type_atomic -->
<g id="node3" class="node">
<title>public.data_type_atomic</title>
<polygon fill="#efefef" stroke="none" points="247.85,-888.8 247.85,-924.4 563.78,-924.4 563.78,-888.8 247.85,-888.8"/>
<polygon fill="none" stroke="black" points="247.85,-888.8 247.85,-924.4 563.78,-924.4 563.78,-888.8 247.85,-888.8"/>
<text text-anchor="start" x="254.85" y="-902.2" font-family="Arial Bold" font-size="18.00">public.data_type_atomic</text>
<text text-anchor="start" x="432.29" y="-902.2" font-family="Arial" font-size="14.00">    </text>
<text text-anchor="start" x="463.41" y="-902.2" font-family="Arial" font-size="14.00" fill="#666666">[BASE TABLE]</text>
<polygon fill="none" stroke="black" points="247.85,-858 247.85,-888.8 563.78,-888.8 563.78,-858 247.85,-858"/>
<text text-anchor="start" x="254.85" y="-870.2" font-family="Arial" font-size="14.00">model_key </text>
<text text-anchor="start" x="326.44" y="-870.2" font-family="Arial" font-size="14.00" fill="#666666">[text]</text>
<polygon fill="none" stroke="black" points="247.85,-827.2 247.85,-858 563.78,-858 563.78,-827.2 247.85,-827.2"/>
<text text-anchor="start" x="254.85" y="-839.4" font-family="Arial" font-size="14.00">data_type_key </text>
<text text-anchor="start" x="349.81" y="-839.4" font-family="Arial" font-size="14.00" fill="#666666">[text]</text>
<polygon fill="none" stroke="black" points="247.85,-796.4 247.85,-827.2 563.78,-827.2 563.78,-796.4 247.85,-796.4"/>
<text text-anchor="start" x="254.85" y="-808.6" font-family="Arial" font-size="14.00">constraint_type </text>
<text text-anchor="start" x="353.68" y="-808.6" font-family="Arial" font-size="14.00" fill="#666666">[constraint_type]</text>
<polygon fill="none" stroke="black" points="247.85,-765.6 247.85,-796.4 563.78,-796.4 563.78,-765.6 247.85,-765.6"/>
<text text-anchor="start" x="254.85" y="-777.8" font-family="Arial" font-size="14.00">reference </text>
<text text-anchor="start" x="317.88" y="-777.8" font-family="Arial" font-size="14.00" fill="#666666">[text]</text>
<polygon fill="none" stroke="black" points="247.85,-734.8 247.85,-765.6 563.78,-765.6 563.78,-734.8 247.85,-734.8"/>
<text text-anchor="start" x="254.85" y="-747" font-family="Arial" font-size="14.00">enum_ordered </text>
<text text-anchor="start" x="349.8" y="-747" font-family="Arial" font-size="14.00" fill="#666666">[boolean]</text>
<polygon fill="none" stroke="black" points="247.85,-704 247.85,-734.8 563.78,-734.8 563.78,-704 247.85,-704"/>
<text text-anchor="start" x="254.85" y="-716.2" font-family="Arial" font-size="14.00">object_class_key </text>
<text text-anchor="start" x="365.35" y="-716.2" font-family="Arial" font-size="14.00" fill="#666666">[text]</text>
</g>
<!-- public.data_type_atomic&#45;&gt;public.data_type -->
<g id="edge2" class="edge">
<title>public.data_type_atomic:model_key&#45;&gt;public.data_type:model_key</title>
<path fill="none" stroke="black" d="M574.87,-871.02C621.26,-846.85 580.97,-645.85 615.82,-599.2 693.75,-494.85 746.6,-466 876.84,-466"/>
<polygon fill="black" stroke="black" points="574.84,-871.03 564.07,-868.94 569.65,-872.25 565.43,-873.25 565.43,-873.25 565.43,-873.25 569.65,-872.25 566.14,-877.7 574.84,-871.03"/>
<text text-anchor="start" x="7" y="-883.4" font-family="Arial" font-size="10.00">FOREIGN KEY (model_key, data_type_key) REFERENCES data_type(model_key, data_type_key) ON DELETE CASCADE</text>
</g>
<!-- public.data_type_field -->
<g id="node4" class="node">
<title>public.data_type_field</title>
<polygon fill="#efefef" stroke="none" points="667.85,-858 667.85,-893.6 967.78,-893.6 967.78,-858 667.85,-858"/>
<polygon fill="none" stroke="black" points="667.85,-858 667.85,-893.6 967.78,-893.6 967.78,-858 667.85,-858"/>
<text text-anchor="start" x="674.85" y="-871.4" font-family="Arial Bold" font-size="18.00">public.data_type_field</text>
<text text-anchor="start" x="836.29" y="-871.4" font-family="Arial" font-size="14.00">    </text>
<text text-anchor="start" x="867.41" y="-871.4" font-family="Arial" font-size="14.00" fill="#666666">[BASE TABLE]</text>
<polygon fill="none" stroke="black" points="667.85,-827.2 667.85,-858 967.78,-858 967.78,-827.2 667.85,-827.2"/>
<text text-anchor="start" x="674.85" y="-839.4" font-family="Arial" font-size="14.00">model_key </text>
<text text-anchor="start" x="746.44" y="-839.4" font-family="Arial" font-size="14.00" fill="#666666">[text]</text>
<polygon fill="none" stroke="black" points="667.85,-796.4 667.85,-827.2 967.78,-827.2 967.78,-796.4 667.85,-796.4"/>
<text text-anchor="start" x="674.85" y="-808.6" font-family="Arial" font-size="14.00">data_type_key </text>
<text text-anchor="start" x="769.81" y="-808.6" font-family="Arial" font-size="14.00" fill="#666666">[text]</text>
<polygon fill="none" stroke="black" points="667.85,-765.6 667.85,-796.4 967.78,-796.4 967.78,-765.6 667.85,-765.6"/>
<text text-anchor="start" x="674.85" y="-777.8" font-family="Arial" font-size="14.00">name </text>
<text text-anchor="start" x="713.76" y="-777.8" font-family="Arial" font-size="14.00" fill="#666666">[text]</text>
<polygon fill="none" stroke="black" points="667.85,-734.8 667.85,-765.6 967.78,-765.6 967.78,-734.8 667.85,-734.8"/>
<text text-anchor="start" x="674.85" y="-747" font-family="Arial" font-size="14.00">field_data_type_key </text>
<text text-anchor="start" x="803.27" y="-747" font-family="Arial" font-size="14.00" fill="#666666">[text]</text>
</g>
<!-- public.data_type_field&#45;&gt;public.data_type -->
<g id="edge3" class="edge">
<title>public.data_type_field:model_key&#45;&gt;public.data_type:model_key</title>
<path fill="none" stroke="black" d="M979,-841.48C1020.68,-831.14 977.83,-751.29 958.78,-691.6 937.61,-625.22 890.14,-629.54 868.84,-563.2 855.63,-522.07 824.64,-466 876.84,-466"/>
<polygon fill="black" stroke="black" points="979.06,-841.47 968.63,-838.09 973.75,-842.06 969.45,-842.53 969.45,-842.53 969.45,-842.53 973.75,-842.06 969.61,-847.04 979.06,-841.47"/>
<text text-anchor="start" x="411" y="-852.6" font-family="Arial" font-size="10.00">FOREIGN KEY (model_key, data_type_key) REFERENCES data_type(model_key, data_type_key) ON DELETE CASCADE</text>
</g>
<!-- public.data_type_field&#45;&gt;public.data_type -->
<g id="edge4" class="edge">
<title>public.data_type_field:model_key&#45;&gt;public.data_type:model_key</title>
<path fill="none" stroke="black" d="M979.42,-841.94C1040.13,-833.83 996.15,-752.3 976.78,-691.6 955.61,-625.22 908.14,-629.54 886.84,-563.2 873.69,-522.23 842.88,-466.44 876.44,-466"/>
<polygon fill="black" stroke="black" points="979.54,-841.94 969.27,-838.09 974.22,-842.28 969.9,-842.56 969.9,-842.56 969.9,-842.56 974.22,-842.28 969.85,-847.07 979.54,-841.94"/>
<text text-anchor="start" x="387.54" y="-826.6" font-family="Arial" font-size="10.00">FOREIGN KEY (model_key, field_data_type_key) REFERENCES data_type(model_key, data_type_key) ON DELETE CASCADE</text>
</g>
<!-- public.attribute -->
<g id="node5" class="node">
<title>public.attribute</title>
<polygon fill="#efefef" stroke="none" points="1071.84,-950.4 1071.84,-986 1319.79,-986 1319.79,-950.4 1071.84,-950.4"/>
<polygon fill="none" stroke="black" points="1071.84,-950.4 1071.84,-986 1319.79,-986 1319.79,-950.4 1071.84,-950.4"/>
<text text-anchor="start" x="1078.84" y="-963.8" font-family="Arial Bold" font-size="18.00">public.attribute</text>
<text text-anchor="start" x="1188.3" y="-963.8" font-family="Arial" font-size="14.00">    </text>
<text text-anchor="start" x="1219.42" y="-963.8" font-family="Arial" font-size="14.00" fill="#666666">[BASE TABLE]</text>
<polygon fill="none" stroke="black" points="1071.84,-919.6 1071.84,-950.4 1319.79,-950.4 1319.79,-919.6 1071.84,-919.6"/>
<text text-anchor="start" x="1078.84" y="-931.8" font-family="Arial" font-size="14.00">model_key </text>
<text text-anchor="start" x="1150.43" y="-931.8" font-family="Arial" font-size="14.00" fill="#666666">[text]</text>
<polygon fill="none" stroke="black" points="1071.84,-888.8 1071.84,-919.6 1319.79,-919.6 1319.79,-888.8 1071.84,-888.8"/>
<text text-anchor="start" x="1078.84" y="-901" font-family="Arial" font-size="14.00">attribute_key </text>
<text text-anchor="start" x="1162.88" y="-901" font-family="Arial" font-size="14.00" fill="#666666">[text]</text>
<polygon fill="none" stroke="black" points="1071.84,-858 1071.84,-888.8 1319.79,-888.8 1319.79,-858 1071.84,-858"/>
<text text-anchor="start" x="1078.84" y="-870.2" font-family="Arial" font-size="14.00">class_key </text>
<text text-anchor="start" x="1144.2" y="-870.2" font-family="Arial" font-size="14.00" fill="#666666">[text]</text>
<polygon fill="none" stroke="black" points="1071.84,-827.2 1071.84,-858 1319.79,-858 1319.79,-827.2 1071.84,-827.2"/>
<text text-anchor="start" x="1078.84" y="-839.4" font-family="Arial" font-size="14.00">name </text>
<text text-anchor="start" x="1117.75" y="-839.4" font-family="Arial" font-size="14.00" fill="#666666">[text]</text>
<polygon fill="none" stroke="black" points="1071.84,-796.4 1071.84,-827.2 1319.79,-827.2 1319.79,-796.4 1071.84,-796.4"/>
<text text-anchor="start" x="1078.84" y="-808.6" font-family="Arial" font-size="14.00">details </text>
<text text-anchor="start" x="1123.2" y="-808.6" font-family="Arial" font-size="14.00" fill="#666666">[text]</text>
<polygon fill="none" stroke="black" points="1071.84,-765.6 1071.84,-796.4 1319.79,-796.4 1319.79,-765.6 1071.84,-765.6"/>
<text text-anchor="start" x="1078.84" y="-777.8" font-family="Arial" font-size="14.00">data_type_rules </text>
<text text-anchor="start" x="1182.35" y="-777.8" font-family="Arial" font-size="14.00" fill="#666666">[text]</text>
<polygon fill="none" stroke="black" points="1071.84,-734.8 1071.84,-765.6 1319.79,-765.6 1319.79,-734.8 1071.84,-734.8"/>
<text text-anchor="start" x="1078.84" y="-747" font-family="Arial" font-size="14.00">data_type_key </text>
<text text-anchor="start" x="1173.79" y="-747" font-family="Arial" font-size="14.00" fill="#666666">[text]</text>
<polygon fill="none" stroke="black" points="1071.84,-704 1071.84,-734.8 1319.79,-734.8 1319.79,-704 1071.84,-704"/>
<text text-anchor="start" x="1078.84" y="-716.2" font-family="Arial" font-size="14.00">derivation_policy </text>
<text text-anchor="start" x="1187.01" y="-716.2" font-family="Arial" font-size="14.00" fill="#666666">[text]</text>
<polygon fill="none" stroke="black" points="1071.84,-673.2 1071.84,-704 1319.79,-704 1319.79,-673.2 1071.84,-673.2"/>
<text text-anchor="start" x="1078.84" y="-685.4" font-family="Arial" font-size="14.00">nullable </text>
<text text-anchor="start" x="1130.99" y="-685.4" font-family="Arial" font-size="14.00" fill="#666666">[boolean]</text>
<polygon fill="none" stroke="black" points="1071.84,-642.4 1071.84,-673.2 1319.79,-673.2 1319.79,-642.4 1071.84,-642.4"/>
<text text-anchor="start" x="1078.84" y="-654.6" font-family="Arial" font-size="14.00">uml_comment </text>
<text text-anchor="start" x="1170.64" y="-654.6" font-family="Arial" font-size="14.00" fill="#666666">[text]</text>
</g>
<!-- public.attribute&#45;&gt;public.data_type -->
<g id="edge5" class="edge">
<title>public.attribute:model_key&#45;&gt;public.data_type:model_key</title>
<path fill="none" stroke="black" d="M1060.7,-933.11C999.91,-908.99 1035.92,-660.42 1071.84,-599.2 1088.34,-571.07 1119.18,-591.27 1135.79,-563.2 1157.79,-526.02 1179.99,-466 1136.79,-466"/>
<polygon fill="black" stroke="black" points="1060.68,-933.11 1069.69,-939.36 1065.92,-934.09 1070.18,-934.88 1070.18,-934.88 1070.18,-934.88 1065.92,-934.09 1071.33,-930.51 1060.68,-933.11"/>
<text text-anchor="start" x="513.06" y="-945" font-family="Arial" font-size="10.00">FOREIGN KEY (model_key, data_type_key) REFERENCES data_type(model_key, data_type_key) ON DELETE CASCADE</text>
</g>
<!-- public.query_parameter -->
<g id="node6" class="node">
<title>public.query_parameter</title>
<polygon fill="#efefef" stroke="none" points="1423.86,-919.6 1423.86,-955.2 1733.77,-955.2 1733.77,-919.6 1423.86,-919.6"/>
<polygon fill="none" stroke="black" points="1423.86,-919.6 1423.86,-955.2 1733.77,-955.2 1733.77,-919.6 1423.86,-919.6"/>
<text text-anchor="start" x="1430.86" y="-933" font-family="Arial Bold" font-size="18.00">public.query_parameter</text>
<text text-anchor="start" x="1602.28" y="-933" font-family="Arial" font-size="14.00">    </text>
<text text-anchor="start" x="1633.4" y="-933" font-family="Arial" font-size="14.00" fill="#666666">[BASE TABLE]</text>
<polygon fill="none" stroke="black" points="1423.86,-888.8 1423.86,-919.6 1733.77,-919.6 1733.77,-888.8 1423.86,-888.8"/>
<text text-anchor="start" x="1430.86" y="-901" font-family="Arial" font-size="14.00">model_key </text>
<text text-anchor="start" x="1502.45" y="-901" font-family="Arial" font-size="14.00" fill="#666666">[text]</text>
<polygon fill="none" stroke="black" points="1423.86,-858 1423.86,-888.8 1733.77,-888.8 1733.77,-858 1423.86,-858"/>
<text text-anchor="start" x="1430.86" y="-870.2" font-family="Arial" font-size="14.00">parameter_key </text>
<text text-anchor="start" x="1528.13" y="-870.2" font-family="Arial" font-size="14.00" fill="#666666">[text]</text>
<polygon fill="none" stroke="black" points="1423.86,-827.2 1423.86,-858 1733.77,-858 1733.77,-827.2 1423.86,-827.2"/>
<text text-anchor="start" x="1430.86" y="-839.4" font-family="Arial" font-size="14.00">query_key </text>
<text text-anchor="start" x="1499.34" y="-839.4" font-family="Arial" font-size="14.00" fill="#666666">[text]</text>
<polygon fill="none" stroke="black" points="1423.86,-796.4 1423.86,-827.2 1733.77,-827.2 1733.77,-796.4 1423.86,-796.4"/>
<text text-anchor="start" x="1430.86" y="-808.6" font-family="Arial" font-size="14.00">data_type_rules </text>
<text text-anchor="start" x="1534.38" y="-808.6" font-family="Arial" font-size="14.00" fill="#666666">[text]</text>
<polygon fill="none" stroke="black" points="1423.86,-765.6 1423.86,-796.4 1733.77,-796.4 1733.77,-765.6 1423.86,-765.6"/>
<text text-anchor="start" x="1430.86" y="-777.8" font-family="Arial" font-size="14.00">data_type_key </text>
<text text-anchor="start" x="1525.82" y="-777.8" font-family="Arial" font-size="14.00" fill="#666666">[text]</text>
<polygon fill="none" stroke="black" points="1423.86,-734.8 1423.86,-765.6 1733.77,-765.6 1733.77,-734.8 1423.86,-734.8"/>
<text text-anchor="start" x="1430.86" y="-747" font-family="Arial" font-size="14.00">name </text>
<text text-anchor="start" x="1469.77" y="-747" font-family="Arial" font-size="14.00" fill="#666666">[text]</text>
<polygon fill="none" stroke="black" points="1423.86,-704 1423.86,-734.8 1733.77,-734.8 1733.77,-704 1423.86,-704"/>
<text text-anchor="start" x="1430.86" y="-716.2" font-family="Arial" font-size="14.00">details </text>
<text text-anchor="start" x="1475.22" y="-716.2" font-family="Arial" font-size="14.00" fill="#666666">[text]</text>
<polygon fill="none" stroke="black" points="1423.86,-673.2 1423.86,-704 1733.77,-704 1733.77,-673.2 1423.86,-673.2"/>
<text text-anchor="start" x="1430.86" y="-685.4" font-family="Arial" font-size="14.00">uml_comment </text>
<text text-anchor="start" x="1522.67" y="-685.4" font-family="Arial" font-size="14.00" fill="#666666">[text]</text>
</g>
<!-- public.query_parameter&#45;&gt;public.data_type -->
<g id="edge6" class="edge">
<title>public.query_parameter:model_key&#45;&gt;public.data_type:model_key</title>
<path fill="none" stroke="black" d="M1412.68,-902.04C1360.09,-877.57 1409.06,-652.43 1371.82,-599.2 1302.98,-500.82 1256.86,-466 1136.79,-466"/>
<polygon fill="black" stroke="black" points="1412.75,-902.06 1421.6,-908.53 1417.97,-903.16 1422.21,-904.06 1422.21,-904.06 1422.21,-904.06 1417.97,-903.16 1423.47,-899.73 1412.75,-902.06"/>
<text text-anchor="start" x="1147.47" y="-888.2" font-family="Arial" font-size="10.00">FOREIGN KEY (model_key, data_type_key) REFERENCES data_type(model_key, data_type_key) ON DELETE CASCADE</text>
</g>
<!-- public.action_parameter -->
<g id="node7" class="node">
<title>public.action_parameter</title>
<polygon fill="#efefef" stroke="none" points="1838.36,-919.6 1838.36,-955.2 2151.27,-955.2 2151.27,-919.6 1838.36,-919.6"/>
<polygon fill="none" stroke="black" points="1838.36,-919.6 1838.36,-955.2 2151.27,-955.2 2151.27,-919.6 1838.36,-919.6"/>
<text text-anchor="start" x="1845.36" y="-933" font-family="Arial Bold" font-size="18.00">public.action_parameter</text>
<text text-anchor="start" x="2019.78" y="-933" font-family="Arial" font-size="14.00">    </text>
<text text-anchor="start" x="2050.9" y="-933" font-family="Arial" font-size="14.00" fill="#666666">[BASE TABLE]</text>
<polygon fill="none" stroke="black" points="1838.36,-888.8 1838.36,-919.6 2151.27,-919.6 2151.27,-888.8 1838.36,-888.8"/>
<text text-anchor="start" x="1845.36" y="-901" font-family="Arial" font-size="14.00">model_key </text>
<text text-anchor="start" x="1916.95" y="-901" font-family="Arial" font-size="14.00" fill="#666666">[text]</text>
<polygon fill="none" stroke="black" points="1838.36,-858 1838.36,-888.8 2151.27,-888.8 2151.27,-858 1838.36,-858"/>
<text text-anchor="start" x="1845.36" y="-870.2" font-family="Arial" font-size="14.00">parameter_key </text>
<text text-anchor="start" x="1942.63" y="-870.2" font-family="Arial" font-size="14.00" fill="#666666">[text]</text>
<polygon fill="none" stroke="black" points="1838.36,-827.2 1838.36,-858 2151.27,-858 2151.27,-827.2 1838.36,-827.2"/>
<text text-anchor="start" x="1845.36" y="-839.4" font-family="Arial" font-size="14.00">action_key </text>
<text text-anchor="start" x="1916.18" y="-839.4" font-family="Arial" font-size="14.00" fill="#666666">[text]</text>
<polygon fill="none" stroke="black" points="1838.36,-796.4 1838.36,-827.2 2151.27,-827.2 2151.27,-796.4 1838.36,-796.4"/>
<text text-anchor="start" x="1845.36" y="-808.6" font-family="Arial" font-size="14.00">data_type_rules </text>
<text text-anchor="start" x="1948.88" y="-808.6" font-family="Arial" font-size="14.00" fill="#666666">[text]</text>
<polygon fill="none" stroke="black" points="1838.36,-765.6 1838.36,-796.4 2151.27,-796.4 2151.27,-765.6 1838.36,-765.6"/>
<text text-anchor="start" x="1845.36" y="-777.8" font-family="Arial" font-size="14.00">data_type_key </text>
<text text-anchor="start" x="1940.32" y="-777.8" font-family="Arial" font-size="14.00" fill="#666666">[text]</text>
<polygon fill="none" stroke="black" points="1838.36,-734.8 1838.36,-765.6 2151.27,-765.6 2151.27,-734.8 1838.36,-734.8"/>
<text text-anchor="start" x="1845.36" y="-747" font-family="Arial" font-size="14.00">name </text>
<text text-anchor="start" x="1884.27" y="-747" font-family="Arial" font-size="14.00" fill="#666666">[text]</text>
<polygon fill="none" stroke="black" points="1838.36,-704 1838.36,-734.8 2151.27,-734.8 2151.27,-704 1838.36,-704"/>
<text text-anchor="start" x="1845.36" y="-716.2" font-family="Arial" font-size="14.00">details </text>
<text text-anchor="start" x="1889.72" y="-716.2" font-family="Arial" font-size="14.00" fill="#666666">[text]</text>
<polygon fill="none" stroke="black" points="1838.36,-673.2 1838.36,-704 2151.27,-704 2151.27,-673.2 1838.36,-673.2"/>
<text text-anchor="start" x="1845.36" y="-685.4" font-family="Arial" font-size="14.00">uml_comment </text>
<text text-anchor="start" x="1937.17" y="-685.4" font-family="Arial" font-size="14.00" fill="#666666">[text]</text>
</g>
<!-- public.action_parameter&#45;&gt;public.data_type -->
<g id="edge7" class="edge">
<title>public.action_parameter:model_key&#45;&gt;public.data_type:model_key</title>
<path fill="none" stroke="black" d="M1827.24,-901.98C1775.39,-876.87 1830.95,-645.94 1785.82,-599.2 1683.54,-493.28 1284.02,-466 1136.79,-466"/>
<polygon fill="black" stroke="black" points="1827.27,-901.99 1836.07,-908.52 1832.48,-903.13 1836.71,-904.06 1836.71,-904.06 1836.71,-904.06 1832.48,-903.13 1838,-899.73 1827.27,-901.99"/>
<text text-anchor="start" x="1844.36" y="-914.2" font-family="Arial" font-size="10.00">FOREIGN KEY (model_key, data_type_key) REFERENCES data_type(model_key, data_type_key) ON DELETE CASCADE</text>
</g>
</g>
</svg>
