<?xml version="1.0" encoding="UTF-8" standalone="no"?>
<!DOCTYPE svg PUBLIC "-//W3C//DTD SVG 1.1//EN"
 "http://www.w3.org/Graphics/SVG/1.1/DTD/svg11.dtd">
<!-- Generated by graphviz version 12.1.2 (20240928.0832)
 -->
<!-- Title: public.action_safety Pages: 1 -->
<svg width="1302pt" height="756pt"
 viewBox="0.00 0.00 1301.70 756.00" xmlns="http://www.w3.org/2000/svg" xmlns:xlink="http://www.w3.org/1999/xlink">
<g id="graph0" class="graph" transform="scale(1 1) rotate(0) translate(4 752)">
<title>public.action_safety</title>
<polygon fill="white" stroke="none" points="-4,4 -4,-752 1297.7,-752 1297.7,4 -4,4"/>
<!-- public.action_safety -->
<g id="node1" class="node">
<title>public.action_safety</title>
<polygon fill="#efefef" stroke="none" points="495.7,-666.2 495.7,-701.8 779.64,-701.8 779.64,-666.2 495.7,-666.2"/>
<polygon fill="none" stroke="black" points="495.7,-666.2 495.7,-701.8 779.64,-701.8 779.64,-666.2 495.7,-666.2"/>
<text text-anchor="start" x="502.7" y="-679.6" font-family="Arial Bold" font-size="18.00">public.action_safety</text>
<text text-anchor="start" x="648.15" y="-679.6" font-family="Arial" font-size="14.00">    </text>
<text text-anchor="start" x="679.27" y="-679.6" font-family="Arial" font-size="14.00" fill="#666666">[BASE TABLE]</text>
<polygon fill="none" stroke="black" points="495.7,-635.4 495.7,-666.2 779.64,-666.2 779.64,-635.4 495.7,-635.4"/>
<text text-anchor="start" x="502.7" y="-647.6" font-family="Arial" font-size="14.00">model_key </text>
<text text-anchor="start" x="574.3" y="-647.6" font-family="Arial" font-size="14.00" fill="#666666">[text]</text>
<polygon fill="none" stroke="black" points="495.7,-604.6 495.7,-635.4 779.64,-635.4 779.64,-604.6 495.7,-604.6"/>
<text text-anchor="start" x="502.7" y="-616.8" font-family="Arial" font-size="14.00">action_key </text>
<text text-anchor="start" x="573.52" y="-616.8" font-family="Arial" font-size="14.00" fill="#666666">[text]</text>
<polygon fill="none" stroke="black" points="495.7,-573.8 495.7,-604.6 779.64,-604.6 779.64,-573.8 495.7,-573.8"/>
<text text-anchor="start" x="502.7" y="-586" font-family="Arial" font-size="14.00">logic_key </text>
<text text-anchor="start" x="564.96" y="-586" font-family="Arial" font-size="14.00" fill="#666666">[text]</text>
<polygon fill="none" stroke="black" stroke-width="3" points="494.2,-572.3 494.2,-703.3 781.14,-703.3 781.14,-572.3 494.2,-572.3"/>
</g>
<!-- public.logic -->
<g id="node2" class="node">
<title>public.logic</title>
<polygon fill="#efefef" stroke="none" points="344.88,-412.8 344.88,-448.4 588.47,-448.4 588.47,-412.8 344.88,-412.8"/>
<polygon fill="none" stroke="black" points="344.88,-412.8 344.88,-448.4 588.47,-448.4 588.47,-412.8 344.88,-412.8"/>
<text text-anchor="start" x="361.69" y="-426.2" font-family="Arial Bold" font-size="18.00">public.logic</text>
<text text-anchor="start" x="447.17" y="-426.2" font-family="Arial" font-size="14.00">    </text>
<text text-anchor="start" x="478.29" y="-426.2" font-family="Arial" font-size="14.00" fill="#666666">[BASE TABLE]</text>
<polygon fill="none" stroke="black" points="344.88,-382 344.88,-412.8 588.47,-412.8 588.47,-382 344.88,-382"/>
<text text-anchor="start" x="351.88" y="-394.2" font-family="Arial" font-size="14.00">logic_key </text>
<text text-anchor="start" x="414.14" y="-394.2" font-family="Arial" font-size="14.00" fill="#666666">[text]</text>
<polygon fill="none" stroke="black" points="344.88,-351.2 344.88,-382 588.47,-382 588.47,-351.2 344.88,-351.2"/>
<text text-anchor="start" x="351.88" y="-363.4" font-family="Arial" font-size="14.00">model_key </text>
<text text-anchor="start" x="423.47" y="-363.4" font-family="Arial" font-size="14.00" fill="#666666">[text]</text>
<polygon fill="none" stroke="black" points="344.88,-320.4 344.88,-351.2 588.47,-351.2 588.47,-320.4 344.88,-320.4"/>
<text text-anchor="start" x="351.88" y="-332.6" font-family="Arial" font-size="14.00">sort_order </text>
<text text-anchor="start" x="419.58" y="-332.6" font-family="Arial" font-size="14.00" fill="#666666">[integer]</text>
<polygon fill="none" stroke="black" points="344.88,-289.6 344.88,-320.4 588.47,-320.4 588.47,-289.6 344.88,-289.6"/>
<text text-anchor="start" x="351.88" y="-301.8" font-family="Arial" font-size="14.00">logic_type </text>
<text text-anchor="start" x="418.81" y="-301.8" font-family="Arial" font-size="14.00" fill="#666666">[logic_type]</text>
<polygon fill="none" stroke="black" points="344.88,-258.8 344.88,-289.6 588.47,-289.6 588.47,-258.8 344.88,-258.8"/>
<text text-anchor="start" x="351.88" y="-271" font-family="Arial" font-size="14.00">description </text>
<text text-anchor="start" x="423.47" y="-271" font-family="Arial" font-size="14.00" fill="#666666">[text]</text>
<polygon fill="none" stroke="black" points="344.88,-228 344.88,-258.8 588.47,-258.8 588.47,-228 344.88,-228"/>
<text text-anchor="start" x="351.88" y="-240.2" font-family="Arial" font-size="14.00">target </text>
<text text-anchor="start" x="391.57" y="-240.2" font-family="Arial" font-size="14.00" fill="#666666">[text]</text>
<polygon fill="none" stroke="black" points="344.88,-197.2 344.88,-228 588.47,-228 588.47,-197.2 344.88,-197.2"/>
<text text-anchor="start" x="351.88" y="-209.4" font-family="Arial" font-size="14.00">notation </text>
<text text-anchor="start" x="405.59" y="-209.4" font-family="Arial" font-size="14.00" fill="#666666">[notation]</text>
<polygon fill="none" stroke="black" points="344.88,-166.4 344.88,-197.2 588.47,-197.2 588.47,-166.4 344.88,-166.4"/>
<text text-anchor="start" x="351.88" y="-178.6" font-family="Arial" font-size="14.00">specification </text>
<text text-anchor="start" x="432.81" y="-178.6" font-family="Arial" font-size="14.00" fill="#666666">[text]</text>
<polygon fill="none" stroke="black" points="344.88,-135.6 344.88,-166.4 588.47,-166.4 588.47,-135.6 344.88,-135.6"/>
<text text-anchor="start" x="351.88" y="-147.8" font-family="Arial" font-size="14.00">target_type_notation </text>
<text text-anchor="start" x="483.42" y="-147.8" font-family="Arial" font-size="14.00" fill="#666666">[notation]</text>
<polygon fill="none" stroke="black" points="344.88,-104.8 344.88,-135.6 588.47,-135.6 588.47,-104.8 344.88,-104.8"/>
<text text-anchor="start" x="351.88" y="-117" font-family="Arial" font-size="14.00">target_type_specification </text>
<text text-anchor="start" x="510.65" y="-117" font-family="Arial" font-size="14.00" fill="#666666">[text]</text>
<polygon fill="none" stroke="black" points="344.88,-74 344.88,-104.8 588.47,-104.8 588.47,-74 344.88,-74"/>
<text text-anchor="start" x="351.88" y="-86.2" font-family="Arial" font-size="14.00">destroy_event_specification </text>
<text text-anchor="start" x="528.54" y="-86.2" font-family="Arial" font-size="14.00" fill="#666666">[text]</text>
<polygon fill="none" stroke="black" points="344.88,-43.2 344.88,-74 588.47,-74 588.47,-43.2 344.88,-43.2"/>
<text text-anchor="start" x="351.88" y="-55.4" font-family="Arial" font-size="14.00">endpoint_selector_specification </text>
<text text-anchor="start" x="551.12" y="-55.4" font-family="Arial" font-size="14.00" fill="#666666">[text]</text>
</g>
<!-- public.action_safety&#45;&gt;public.logic -->
<g id="edge1" class="edge">
<title>public.action_safety:model_key&#45;&gt;public.logic:model_key</title>
<path fill="none" stroke="black" d="M484.56,-649.74C443.35,-640.27 466.72,-569.58 495.7,-527.6 520.83,-491.21 563.34,-527.99 588.47,-491.6 620.03,-445.88 645.02,-366.6 589.47,-366.6"/>
<polygon fill="black" stroke="black" points="484.42,-649.73 493.9,-655.24 489.73,-650.28 494.04,-650.73 494.04,-650.73 494.04,-650.73 489.73,-650.28 494.84,-646.29 484.42,-649.73"/>
<text text-anchor="start" x="7" y="-660.8" font-family="Arial" font-size="10.00">FOREIGN KEY (model_key, logic_key) REFERENCES logic(model_key, logic_key) ON DELETE CASCADE</text>
</g>
<!-- public.action -->
<g id="node3" class="node">
<title>public.action</title>
<polygon fill="#efefef" stroke="none" points="692.69,-305 692.69,-340.6 924.65,-340.6 924.65,-305 692.69,-305"/>
<polygon fill="none" stroke="black" points="692.69,-305 692.69,-340.6 924.65,-340.6 924.65,-305 692.69,-305"/>
<text text-anchor="start" x="699.69" y="-318.4" font-family="Arial Bold" font-size="18.00">public.action</text>
<text text-anchor="start" x="793.16" y="-318.4" font-family="Arial" font-size="14.00">    </text>
<text text-anchor="start" x="824.28" y="-318.4" font-family="Arial" font-size="14.00" fill="#666666">[BASE TABLE]</text>
<polygon fill="none" stroke="black" points="692.69,-274.2 692.69,-305 924.65,-305 924.65,-274.2 692.69,-274.2"/>
<text text-anchor="start" x="699.69" y="-286.4" font-family="Arial" font-size="14.00">model_key </text>
<text text-anchor="start" x="771.29" y="-286.4" font-family="Arial" font-size="14.00" fill="#666666">[text]</text>
<polygon fill="none" stroke="black" points="692.69,-243.4 692.69,-274.2 924.65,-274.2 924.65,-243.4 692.69,-243.4"/>
<text text-anchor="start" x="699.69" y="-255.6" font-family="Arial" font-size="14.00">class_key </text>
<text text-anchor="start" x="765.05" y="-255.6" font-family="Arial" font-size="14.00" fill="#666666">[text]</text>
<polygon fill="none" stroke="black" points="692.69,-212.6 692.69,-243.4 924.65,-243.4 924.65,-212.6 692.69,-212.6"/>
<text text-anchor="start" x="699.69" y="-224.8" font-family="Arial" font-size="14.00">action_key </text>
<text text-anchor="start" x="770.51" y="-224.8" font-family="Arial" font-size="14.00" fill="#666666">[text]</text>
<polygon fill="none" stroke="black" points="692.69,-181.8 692.69,-212.6 924.65,-212.6 924.65,-181.8 692.69,-181.8"/>
<text text-anchor="start" x="699.69" y="-194" font-family="Arial" font-size="14.00">name </text>
<text text-anchor="start" x="738.6" y="-194" font-family="Arial" font-size="14.00" fill="#666666">[text]</text>
<polygon fill="none" stroke="black" points="692.69,-151 692.69,-181.8 924.65,-181.8 924.65,-151 692.69,-151"/>
<text text-anchor="start" x="699.69" y="-163.2" font-family="Arial" font-size="14.00">details </text>
<text text-anchor="start" x="744.05" y="-163.2" font-family="Arial" font-size="14.00" fill="#666666">[text]</text>
</g>
<!-- public.action_safety&#45;&gt;public.action -->
<g id="edge2" class="edge">
<title>public.action_safety:model_key&#45;&gt;public.action:model_key</title>
<path fill="none" stroke="black" d="M790.82,-649.78C829.79,-640.97 793.51,-576.58 779.64,-527.6 759.29,-455.74 713.13,-455.63 692.69,-383.8 681.23,-343.53 649.82,-289.6 691.69,-289.6"/>
<polygon fill="black" stroke="black" points="790.93,-649.77 780.53,-646.29 785.62,-650.3 781.31,-650.73 781.31,-650.73 781.31,-650.73 785.62,-650.3 781.42,-655.24 790.93,-649.77"/>
<text text-anchor="start" x="787.64" y="-660.8" font-family="Arial" font-size="10.00">FOREIGN KEY (model_key, action_key) REFERENCES action(model_key, action_key) ON DELETE CASCADE</text>
</g>
</g>
</svg>
