<?xml version="1.0" encoding="UTF-8" standalone="no"?>
<!DOCTYPE svg PUBLIC "-//W3C//DTD SVG 1.1//EN"
 "http://www.w3.org/Graphics/SVG/1.1/DTD/svg11.dtd">
<!-- Generated by graphviz version 12.1.2 (20240928.0832)
 -->
<!-- Title: public.data_type_atomic Pages: 1 -->
<svg width="1065pt" height="1006pt"
 viewBox="0.00 0.00 1064.90 1006.40" xmlns="http://www.w3.org/2000/svg" xmlns:xlink="http://www.w3.org/1999/xlink">
<g id="graph0" class="graph" transform="scale(1 1) rotate(0) translate(4 1002.4)">
<title>public.data_type_atomic</title>
<polygon fill="white" stroke="none" points="-4,4 -4,-1002.4 1060.9,-1002.4 1060.9,4 -4,4"/>
<!-- public.data_type_atomic -->
<g id="node1" class="node">
<title>public.data_type_atomic</title>
<polygon fill="#efefef" stroke="none" points="91.68,-635.4 91.68,-671 407.62,-671 407.62,-635.4 91.68,-635.4"/>
<polygon fill="none" stroke="black" points="91.68,-635.4 91.68,-671 407.62,-671 407.62,-635.4 91.68,-635.4"/>
<text text-anchor="start" x="98.68" y="-648.8" font-family="Arial Bold" font-size="18.00">public.data_type_atomic</text>
<text text-anchor="start" x="276.13" y="-648.8" font-family="Arial" font-size="14.00">    </text>
<text text-anchor="start" x="307.24" y="-648.8" font-family="Arial" font-size="14.00" fill="#666666">[BASE TABLE]</text>
<polygon fill="none" stroke="black" points="91.68,-604.6 91.68,-635.4 407.62,-635.4 407.62,-604.6 91.68,-604.6"/>
<text text-anchor="start" x="98.68" y="-616.8" font-family="Arial" font-size="14.00">model_key </text>
<text text-anchor="start" x="170.28" y="-616.8" font-family="Arial" font-size="14.00" fill="#666666">[text]</text>
<polygon fill="none" stroke="black" points="91.68,-573.8 91.68,-604.6 407.62,-604.6 407.62,-573.8 91.68,-573.8"/>
<text text-anchor="start" x="98.68" y="-586" font-family="Arial" font-size="14.00">data_type_key </text>
<text text-anchor="start" x="193.64" y="-586" font-family="Arial" font-size="14.00" fill="#666666">[text]</text>
<polygon fill="none" stroke="black" points="91.68,-543 91.68,-573.8 407.62,-573.8 407.62,-543 91.68,-543"/>
<text text-anchor="start" x="98.68" y="-555.2" font-family="Arial" font-size="14.00">constraint_type </text>
<text text-anchor="start" x="197.52" y="-555.2" font-family="Arial" font-size="14.00" fill="#666666">[constraint_type]</text>
<polygon fill="none" stroke="black" points="91.68,-512.2 91.68,-543 407.62,-543 407.62,-512.2 91.68,-512.2"/>
<text text-anchor="start" x="98.68" y="-524.4" font-family="Arial" font-size="14.00">reference </text>
<text text-anchor="start" x="161.72" y="-524.4" font-family="Arial" font-size="14.00" fill="#666666">[text]</text>
<polygon fill="none" stroke="black" points="91.68,-481.4 91.68,-512.2 407.62,-512.2 407.62,-481.4 91.68,-481.4"/>
<text text-anchor="start" x="98.68" y="-493.6" font-family="Arial" font-size="14.00">enum_ordered </text>
<text text-anchor="start" x="193.64" y="-493.6" font-family="Arial" font-size="14.00" fill="#666666">[boolean]</text>
<polygon fill="none" stroke="black" points="91.68,-450.6 91.68,-481.4 407.62,-481.4 407.62,-450.6 91.68,-450.6"/>
<text text-anchor="start" x="98.68" y="-462.8" font-family="Arial" font-size="14.00">object_class_key </text>
<text text-anchor="start" x="209.19" y="-462.8" font-family="Arial" font-size="14.00" fill="#666666">[text]</text>
<polygon fill="none" stroke="black" stroke-width="3" points="90.18,-449.1 90.18,-672.5 409.12,-672.5 409.12,-449.1 90.18,-449.1"/>
</g>
<!-- public.data_type -->
<g id="node2" class="node">
<title>public.data_type</title>
<polygon fill="#efefef" stroke="none" points="120.68,-289.6 120.68,-325.2 378.63,-325.2 378.63,-289.6 120.68,-289.6"/>
<polygon fill="none" stroke="black" points="120.68,-289.6 120.68,-325.2 378.63,-325.2 378.63,-289.6 120.68,-289.6"/>
<text text-anchor="start" x="127.68" y="-303" font-family="Arial Bold" font-size="18.00">public.data_type</text>
<text text-anchor="start" x="247.14" y="-303" font-family="Arial" font-size="14.00">    </text>
<text text-anchor="start" x="278.25" y="-303" font-family="Arial" font-size="14.00" fill="#666666">[BASE TABLE]</text>
<polygon fill="none" stroke="black" points="120.68,-258.8 120.68,-289.6 378.63,-289.6 378.63,-258.8 120.68,-258.8"/>
<text text-anchor="start" x="127.68" y="-271" font-family="Arial" font-size="14.00">model_key </text>
<text text-anchor="start" x="199.27" y="-271" font-family="Arial" font-size="14.00" fill="#666666">[text]</text>
<polygon fill="none" stroke="black" points="120.68,-228 120.68,-258.8 378.63,-258.8 378.63,-228 120.68,-228"/>
<text text-anchor="start" x="127.68" y="-240.2" font-family="Arial" font-size="14.00">data_type_key </text>
<text text-anchor="start" x="222.63" y="-240.2" font-family="Arial" font-size="14.00" fill="#666666">[text]</text>
<polygon fill="none" stroke="black" points="120.68,-197.2 120.68,-228 378.63,-228 378.63,-197.2 120.68,-197.2"/>
<text text-anchor="start" x="127.68" y="-209.4" font-family="Arial" font-size="14.00">name </text>
<text text-anchor="start" x="166.59" y="-209.4" font-family="Arial" font-size="14.00" fill="#666666">[text]</text>
<polygon fill="none" stroke="black" points="120.68,-166.4 120.68,-197.2 378.63,-197.2 378.63,-166.4 120.68,-166.4"/>
<text text-anchor="start" x="127.68" y="-178.6" font-family="Arial" font-size="14.00">details </text>
<text text-anchor="start" x="172.03" y="-178.6" font-family="Arial" font-size="14.00" fill="#666666">[text]</text>
<polygon fill="none" stroke="black" points="120.68,-135.6 120.68,-166.4 378.63,-166.4 378.63,-135.6 120.68,-135.6"/>
<text text-anchor="start" x="127.68" y="-147.8" font-family="Arial" font-size="14.00">collection_type </text>
<text text-anchor="start" x="224.18" y="-147.8" font-family="Arial" font-size="14.00" fill="#666666">[collection_type]</text>
<polygon fill="none" stroke="black" points="120.68,-104.8 120.68,-135.6 378.63,-135.6 378.63,-104.8 120.68,-104.8"/>
<text text-anchor="start" x="127.68" y="-117" font-family="Arial" font-size="14.00">collection_unique </text>
<text text-anchor="start" x="239.76" y="-117" font-family="Arial" font-size="14.00" fill="#666666">[boolean]</text>
<polygon fill="none" stroke="black" points="120.68,-74 120.68,-104.8 378.63,-104.8 378.63,-74 120.68,-74"/>
<text text-anchor="start" x="127.68" y="-86.2" font-family="Arial" font-size="14.00">collection_min </text>
<text text-anchor="start" x="220.28" y="-86.2" font-family="Arial" font-size="14.00" fill="#666666">[bigint]</text>
<polygon fill="none" stroke="black" points="120.68,-43.2 120.68,-74 378.63,-74 378.63,-43.2 120.68,-43.2"/>
<text text-anchor="start" x="127.68" y="-55.4" font-family="Arial" font-size="14.00">collection_max </text>
<text text-anchor="start" x="224.16" y="-55.4" font-family="Arial" font-size="14.00" fill="#666666">[bigint]</text>
</g>
<!-- public.data_type_atomic&#45;&gt;public.data_type -->
<g id="edge1" class="edge">
<title>public.data_type_atomic:model_key&#45;&gt;public.data_type:model_key</title>
<path fill="none" stroke="black" d="M418.73,-619.48C561.48,-604.64 530.39,-274.2 379.63,-274.2"/>
<polygon fill="black" stroke="black" points="418.94,-619.47 408.72,-615.49 413.61,-619.75 409.28,-619.97 409.28,-619.97 409.28,-619.97 413.61,-619.75 409.18,-624.48 418.94,-619.47"/>
<text text-anchor="start" x="415.62" y="-630" font-family="Arial" font-size="10.00">FOREIGN KEY (model_key, data_type_key) REFERENCES data_type(model_key, data_type_key) ON DELETE CASCADE</text>
</g>
<!-- public.data_type_atomic_enum_value -->
<g id="node3" class="node">
<title>public.data_type_atomic_enum_value</title>
<polygon fill="#efefef" stroke="none" points="43.2,-919.6 43.2,-955.2 456.1,-955.2 456.1,-919.6 43.2,-919.6"/>
<polygon fill="none" stroke="black" points="43.2,-919.6 43.2,-955.2 456.1,-955.2 456.1,-919.6 43.2,-919.6"/>
<text text-anchor="start" x="50.2" y="-933" font-family="Arial Bold" font-size="18.00">public.data_type_atomic_enum_value</text>
<text text-anchor="start" x="324.61" y="-933" font-family="Arial" font-size="14.00">    </text>
<text text-anchor="start" x="355.73" y="-933" font-family="Arial" font-size="14.00" fill="#666666">[BASE TABLE]</text>
<polygon fill="none" stroke="black" points="43.2,-888.8 43.2,-919.6 456.1,-919.6 456.1,-888.8 43.2,-888.8"/>
<text text-anchor="start" x="50.2" y="-901" font-family="Arial" font-size="14.00">model_key </text>
<text text-anchor="start" x="121.79" y="-901" font-family="Arial" font-size="14.00" fill="#666666">[text]</text>
<polygon fill="none" stroke="black" points="43.2,-858 43.2,-888.8 456.1,-888.8 456.1,-858 43.2,-858"/>
<text text-anchor="start" x="50.2" y="-870.2" font-family="Arial" font-size="14.00">data_type_key </text>
<text text-anchor="start" x="145.16" y="-870.2" font-family="Arial" font-size="14.00" fill="#666666">[text]</text>
<polygon fill="none" stroke="black" points="43.2,-827.2 43.2,-858 456.1,-858 456.1,-827.2 43.2,-827.2"/>
<text text-anchor="start" x="50.2" y="-839.4" font-family="Arial" font-size="14.00">value </text>
<text text-anchor="start" x="87.56" y="-839.4" font-family="Arial" font-size="14.00" fill="#666666">[text]</text>
<polygon fill="none" stroke="black" points="43.2,-796.4 43.2,-827.2 456.1,-827.2 456.1,-796.4 43.2,-796.4"/>
<text text-anchor="start" x="50.2" y="-808.6" font-family="Arial" font-size="14.00">sort_order </text>
<text text-anchor="start" x="117.9" y="-808.6" font-family="Arial" font-size="14.00" fill="#666666">[integer]</text>
</g>
<!-- public.data_type_atomic_enum_value&#45;&gt;public.data_type_atomic -->
<g id="edge2" class="edge">
<title>public.data_type_atomic_enum_value:model_key&#45;&gt;public.data_type_atomic:model_key</title>
<path fill="none" stroke="black" d="M467.22,-903.57C582.53,-888.87 533.25,-620 408.62,-620"/>
<polygon fill="black" stroke="black" points="467.42,-903.56 457.16,-899.69 462.09,-903.89 457.77,-904.16 457.77,-904.16 457.77,-904.16 462.09,-903.89 457.71,-908.67 467.42,-903.56"/>
<text text-anchor="start" x="464.1" y="-914.2" font-family="Arial" font-size="10.00">FOREIGN KEY (model_key, data_type_key) REFERENCES data_type_atomic(model_key, data_type_key) ON DELETE CASCADE</text>
</g>
</g>
</svg>
