<?xml version="1.0" encoding="UTF-8" standalone="no"?>
<!DOCTYPE svg PUBLIC "-//W3C//DTD SVG 1.1//EN"
 "http://www.w3.org/Graphics/SVG/1.1/DTD/svg11.dtd">
<!-- Generated by graphviz version 12.1.2 (20240928.0832)
 -->
<!-- Title: public.logic Pages: 1 -->
<svg width="1099pt" height="852pt"
 viewBox="0.00 0.00 1099.45 852.40" xmlns="http://www.w3.org/2000/svg" xmlns:xlink="http://www.w3.org/1999/xlink">
<g id="graph0" class="graph" transform="scale(1 1) rotate(0) translate(4 848.4)">
<title>public.logic</title>
<polygon fill="white" stroke="none" points="-4,4 -4,-848.4 1095.45,-848.4 1095.45,4 -4,4"/>
<!-- public.logic -->
<g id="node1" class="node">
<title>public.logic</title>
<polygon fill="#efefef" stroke="none" points="445.74,-450.6 445.74,-486.2 669.71,-486.2 669.71,-450.6 445.74,-450.6"/>
<polygon fill="none" stroke="black" points="445.74,-450.6 445.74,-486.2 669.71,-486.2 669.71,-450.6 445.74,-450.6"/>
<text text-anchor="start" x="452.74" y="-464" font-family="Arial Bold" font-size="18.00">public.logic</text>
<text text-anchor="start" x="538.22" y="-464" font-family="Arial" font-size="14.00">    </text>
<text text-anchor="start" x="569.34" y="-464" font-family="Arial" font-size="14.00" fill="#666666">[BASE TABLE]</text>
<polygon fill="none" stroke="black" points="445.74,-419.8 445.74,-450.6 669.71,-450.6 669.71,-419.8 445.74,-419.8"/>
<text text-anchor="start" x="452.74" y="-432" font-family="Arial" font-size="14.00">logic_key </text>
<text text-anchor="start" x="514.99" y="-432" font-family="Arial" font-size="14.00" fill="#666666">[text]</text>
<polygon fill="none" stroke="black" points="445.74,-389 445.74,-419.8 669.71,-419.8 669.71,-389 445.74,-389"/>
<text text-anchor="start" x="452.74" y="-401.2" font-family="Arial" font-size="14.00">model_key </text>
<text text-anchor="start" x="524.33" y="-401.2" font-family="Arial" font-size="14.00" fill="#666666">[text]</text>
<polygon fill="none" stroke="black" points="445.74,-358.2 445.74,-389 669.71,-389 669.71,-358.2 445.74,-358.2"/>
<text text-anchor="start" x="452.74" y="-370.4" font-family="Arial" font-size="14.00">description </text>
<text text-anchor="start" x="524.33" y="-370.4" font-family="Arial" font-size="14.00" fill="#666666">[text]</text>
<polygon fill="none" stroke="black" points="445.74,-327.4 445.74,-358.2 669.71,-358.2 669.71,-327.4 445.74,-327.4"/>
<text text-anchor="start" x="452.74" y="-339.6" font-family="Arial" font-size="14.00">notation </text>
<text text-anchor="start" x="506.45" y="-339.6" font-family="Arial" font-size="14.00" fill="#666666">[notation]</text>
<polygon fill="none" stroke="black" points="445.74,-296.6 445.74,-327.4 669.71,-327.4 669.71,-296.6 445.74,-296.6"/>
<text text-anchor="start" x="452.74" y="-308.8" font-family="Arial" font-size="14.00">specification </text>
<text text-anchor="start" x="533.67" y="-308.8" font-family="Arial" font-size="14.00" fill="#666666">[text]</text>
<polygon fill="none" stroke="black" stroke-width="3" points="444.24,-295.1 444.24,-487.7 671.21,-487.7 671.21,-295.1 444.24,-295.1"/>
</g>
<!-- public.model -->
<g id="node4" class="node">
<title>public.model</title>
<polygon fill="#efefef" stroke="none" points="441.24,-135.6 441.24,-171.2 674.21,-171.2 674.21,-135.6 441.24,-135.6"/>
<polygon fill="none" stroke="black" points="441.24,-135.6 441.24,-171.2 674.21,-171.2 674.21,-135.6 441.24,-135.6"/>
<text text-anchor="start" x="448.24" y="-149" font-family="Arial Bold" font-size="18.00">public.model</text>
<text text-anchor="start" x="542.72" y="-149" font-family="Arial" font-size="14.00">    </text>
<text text-anchor="start" x="573.84" y="-149" font-family="Arial" font-size="14.00" fill="#666666">[BASE TABLE]</text>
<polygon fill="none" stroke="black" points="441.24,-104.8 441.24,-135.6 674.21,-135.6 674.21,-104.8 441.24,-104.8"/>
<text text-anchor="start" x="448.24" y="-117" font-family="Arial" font-size="14.00">model_key </text>
<text text-anchor="start" x="519.83" y="-117" font-family="Arial" font-size="14.00" fill="#666666">[text]</text>
<polygon fill="none" stroke="black" points="441.24,-74 441.24,-104.8 674.21,-104.8 674.21,-74 441.24,-74"/>
<text text-anchor="start" x="448.24" y="-86.2" font-family="Arial" font-size="14.00">name </text>
<text text-anchor="start" x="487.15" y="-86.2" font-family="Arial" font-size="14.00" fill="#666666">[text]</text>
<polygon fill="none" stroke="black" points="441.24,-43.2 441.24,-74 674.21,-74 674.21,-43.2 441.24,-43.2"/>
<text text-anchor="start" x="448.24" y="-55.4" font-family="Arial" font-size="14.00">details </text>
<text text-anchor="start" x="492.6" y="-55.4" font-family="Arial" font-size="14.00" fill="#666666">[text]</text>
</g>
<!-- public.logic&#45;&gt;public.model -->
<g id="edge3" class="edge">
<title>public.logic:model_key&#45;&gt;public.model:model_key</title>
<path fill="none" stroke="black" d="M680.8,-403.77C797.19,-389.07 798.08,-120.2 675.21,-120.2"/>
<polygon fill="black" stroke="black" points="681.03,-403.76 670.77,-399.89 675.7,-404.09 671.38,-404.36 671.38,-404.36 671.38,-404.36 675.7,-404.09 671.32,-408.87 681.03,-403.76"/>
<text text-anchor="start" x="677.71" y="-414.4" font-family="Arial" font-size="10.00">FOREIGN KEY (model_key) REFERENCES model(model_key) ON DELETE CASCADE</text>
</g>
<!-- public.invariant -->
<g id="node2" class="node">
<title>public.invariant</title>
<polygon fill="#efefef" stroke="none" points="241.75,-719.4 241.75,-755 493.7,-755 493.7,-719.4 241.75,-719.4"/>
<polygon fill="none" stroke="black" points="241.75,-719.4 241.75,-755 493.7,-755 493.7,-719.4 241.75,-719.4"/>
<text text-anchor="start" x="248.75" y="-732.8" font-family="Arial Bold" font-size="18.00">public.invariant</text>
<text text-anchor="start" x="362.21" y="-732.8" font-family="Arial" font-size="14.00">    </text>
<text text-anchor="start" x="393.33" y="-732.8" font-family="Arial" font-size="14.00" fill="#666666">[BASE TABLE]</text>
<polygon fill="none" stroke="black" points="241.75,-688.6 241.75,-719.4 493.7,-719.4 493.7,-688.6 241.75,-688.6"/>
<text text-anchor="start" x="248.75" y="-700.8" font-family="Arial" font-size="14.00">model_key </text>
<text text-anchor="start" x="320.34" y="-700.8" font-family="Arial" font-size="14.00" fill="#666666">[text]</text>
<polygon fill="none" stroke="black" points="241.75,-657.8 241.75,-688.6 493.7,-688.6 493.7,-657.8 241.75,-657.8"/>
<text text-anchor="start" x="248.75" y="-670" font-family="Arial" font-size="14.00">logic_key </text>
<text text-anchor="start" x="311" y="-670" font-family="Arial" font-size="14.00" fill="#666666">[text]</text>
</g>
<!-- public.invariant&#45;&gt;public.logic -->
<g id="edge1" class="edge">
<title>public.invariant:model_key&#45;&gt;public.logic:model_key</title>
<path fill="none" stroke="black" d="M504.74,-702.49C528.52,-693.75 503.21,-649.01 493.7,-614.6 482.43,-573.83 456.94,-573.19 445.74,-532.4 430.67,-477.54 387.85,-404.4 444.74,-404.4"/>
<polygon fill="black" stroke="black" points="504.92,-702.46 494.36,-699.5 499.65,-703.25 495.36,-703.9 495.36,-703.9 495.36,-703.9 499.65,-703.25 495.71,-708.4 504.92,-702.46"/>
<text text-anchor="start" x="7" y="-714" font-family="Arial" font-size="10.00">FOREIGN KEY (model_key, logic_key) REFERENCES logic(model_key, logic_key) ON DELETE CASCADE</text>
</g>
<!-- public.global_function -->
<g id="node3" class="node">
<title>public.global_function</title>
<polygon fill="#efefef" stroke="none" points="597.75,-765.6 597.75,-801.2 899.7,-801.2 899.7,-765.6 597.75,-765.6"/>
<polygon fill="none" stroke="black" points="597.75,-765.6 597.75,-801.2 899.7,-801.2 899.7,-765.6 597.75,-765.6"/>
<text text-anchor="start" x="604.75" y="-779" font-family="Arial Bold" font-size="18.00">public.global_function</text>
<text text-anchor="start" x="768.21" y="-779" font-family="Arial" font-size="14.00">    </text>
<text text-anchor="start" x="799.33" y="-779" font-family="Arial" font-size="14.00" fill="#666666">[BASE TABLE]</text>
<polygon fill="none" stroke="black" points="597.75,-734.8 597.75,-765.6 899.7,-765.6 899.7,-734.8 597.75,-734.8"/>
<text text-anchor="start" x="604.75" y="-747" font-family="Arial" font-size="14.00">model_key </text>
<text text-anchor="start" x="676.34" y="-747" font-family="Arial" font-size="14.00" fill="#666666">[text]</text>
<polygon fill="none" stroke="black" points="597.75,-704 597.75,-734.8 899.7,-734.8 899.7,-704 597.75,-704"/>
<text text-anchor="start" x="604.75" y="-716.2" font-family="Arial" font-size="14.00">logic_key </text>
<text text-anchor="start" x="667" y="-716.2" font-family="Arial" font-size="14.00" fill="#666666">[text]</text>
<polygon fill="none" stroke="black" points="597.75,-673.2 597.75,-704 899.7,-704 899.7,-673.2 597.75,-673.2"/>
<text text-anchor="start" x="604.75" y="-685.4" font-family="Arial" font-size="14.00">name </text>
<text text-anchor="start" x="643.66" y="-685.4" font-family="Arial" font-size="14.00" fill="#666666">[text]</text>
<polygon fill="none" stroke="black" points="597.75,-642.4 597.75,-673.2 899.7,-673.2 899.7,-642.4 597.75,-642.4"/>
<text text-anchor="start" x="604.75" y="-654.6" font-family="Arial" font-size="14.00">comment </text>
<text text-anchor="start" x="666.21" y="-654.6" font-family="Arial" font-size="14.00" fill="#666666">[text]</text>
<polygon fill="none" stroke="black" points="597.75,-611.6 597.75,-642.4 899.7,-642.4 899.7,-611.6 597.75,-611.6"/>
<text text-anchor="start" x="604.75" y="-623.8" font-family="Arial" font-size="14.00">parameters </text>
<text text-anchor="start" x="679.44" y="-623.8" font-family="Arial" font-size="14.00" fill="#666666">[text[]]</text>
</g>
<!-- public.global_function&#45;&gt;public.logic -->
<g id="edge2" class="edge">
<title>public.global_function:model_key&#45;&gt;public.logic:model_key</title>
<path fill="none" stroke="black" d="M586.57,-749.53C519.47,-740.12 557,-633.94 597.75,-568.4 616.63,-538.03 650.79,-562.75 669.71,-532.4 699.8,-484.12 727.6,-404.4 670.71,-404.4"/>
<polygon fill="black" stroke="black" points="586.43,-749.52 596.12,-754.67 591.76,-749.87 596.08,-750.16 596.08,-750.16 596.08,-750.16 591.76,-749.87 596.71,-745.69 586.43,-749.52"/>
<text text-anchor="start" x="603.75" y="-760.2" font-family="Arial" font-size="10.00">FOREIGN KEY (model_key, logic_key) REFERENCES logic(model_key, logic_key) ON DELETE CASCADE</text>
</g>
</g>
</svg>
