<?xml version="1.0" encoding="UTF-8" standalone="no"?>
<!DOCTYPE svg PUBLIC "-//W3C//DTD SVG 1.1//EN"
 "http://www.w3.org/Graphics/SVG/1.1/DTD/svg11.dtd">
<!-- Generated by graphviz version 12.1.2 (20240928.0832)
 -->
<!-- Title: public.logic Pages: 1 -->
<svg width="688pt" height="540pt"
 viewBox="0.00 0.00 687.55 540.40" xmlns="http://www.w3.org/2000/svg" xmlns:xlink="http://www.w3.org/1999/xlink">
<g id="graph0" class="graph" transform="scale(1 1) rotate(0) translate(4 536.4)">
<title>public.logic</title>
<polygon fill="white" stroke="none" points="-4,4 -4,-536.4 683.55,-536.4 683.55,4 -4,4"/>
<!-- public.logic -->
<g id="node1" class="node">
<title>public.logic</title>
<polygon fill="#efefef" stroke="none" points="47.7,-450.6 47.7,-486.2 271.67,-486.2 271.67,-450.6 47.7,-450.6"/>
<polygon fill="none" stroke="black" points="47.7,-450.6 47.7,-486.2 271.67,-486.2 271.67,-450.6 47.7,-450.6"/>
<text text-anchor="start" x="54.7" y="-464" font-family="Arial Bold" font-size="18.00">public.logic</text>
<text text-anchor="start" x="140.18" y="-464" font-family="Arial" font-size="14.00">    </text>
<text text-anchor="start" x="171.3" y="-464" font-family="Arial" font-size="14.00" fill="#666666">[BASE TABLE]</text>
<polygon fill="none" stroke="black" points="47.7,-419.8 47.7,-450.6 271.67,-450.6 271.67,-419.8 47.7,-419.8"/>
<text text-anchor="start" x="54.7" y="-432" font-family="Arial" font-size="14.00">logic_key </text>
<text text-anchor="start" x="116.95" y="-432" font-family="Arial" font-size="14.00" fill="#666666">[text]</text>
<polygon fill="none" stroke="black" points="47.7,-389 47.7,-419.8 271.67,-419.8 271.67,-389 47.7,-389"/>
<text text-anchor="start" x="54.7" y="-401.2" font-family="Arial" font-size="14.00">model_key </text>
<text text-anchor="start" x="126.29" y="-401.2" font-family="Arial" font-size="14.00" fill="#666666">[text]</text>
<polygon fill="none" stroke="black" points="47.7,-358.2 47.7,-389 271.67,-389 271.67,-358.2 47.7,-358.2"/>
<text text-anchor="start" x="54.7" y="-370.4" font-family="Arial" font-size="14.00">description </text>
<text text-anchor="start" x="126.29" y="-370.4" font-family="Arial" font-size="14.00" fill="#666666">[text]</text>
<polygon fill="none" stroke="black" points="47.7,-327.4 47.7,-358.2 271.67,-358.2 271.67,-327.4 47.7,-327.4"/>
<text text-anchor="start" x="54.7" y="-339.6" font-family="Arial" font-size="14.00">notation </text>
<text text-anchor="start" x="108.41" y="-339.6" font-family="Arial" font-size="14.00" fill="#666666">[notation]</text>
<polygon fill="none" stroke="black" points="47.7,-296.6 47.7,-327.4 271.67,-327.4 271.67,-296.6 47.7,-296.6"/>
<text text-anchor="start" x="54.7" y="-308.8" font-family="Arial" font-size="14.00">specification </text>
<text text-anchor="start" x="135.63" y="-308.8" font-family="Arial" font-size="14.00" fill="#666666">[text]</text>
<polygon fill="none" stroke="black" stroke-width="3" points="46.2,-295.1 46.2,-487.7 273.17,-487.7 273.17,-295.1 46.2,-295.1"/>
</g>
<!-- public.model -->
<g id="node2" class="node">
<title>public.model</title>
<polygon fill="#efefef" stroke="none" points="43.2,-135.6 43.2,-171.2 276.17,-171.2 276.17,-135.6 43.2,-135.6"/>
<polygon fill="none" stroke="black" points="43.2,-135.6 43.2,-171.2 276.17,-171.2 276.17,-135.6 43.2,-135.6"/>
<text text-anchor="start" x="50.2" y="-149" font-family="Arial Bold" font-size="18.00">public.model</text>
<text text-anchor="start" x="144.68" y="-149" font-family="Arial" font-size="14.00">    </text>
<text text-anchor="start" x="175.8" y="-149" font-family="Arial" font-size="14.00" fill="#666666">[BASE TABLE]</text>
<polygon fill="none" stroke="black" points="43.2,-104.8 43.2,-135.6 276.17,-135.6 276.17,-104.8 43.2,-104.8"/>
<text text-anchor="start" x="50.2" y="-117" font-family="Arial" font-size="14.00">model_key </text>
<text text-anchor="start" x="121.79" y="-117" font-family="Arial" font-size="14.00" fill="#666666">[text]</text>
<polygon fill="none" stroke="black" points="43.2,-74 43.2,-104.8 276.17,-104.8 276.17,-74 43.2,-74"/>
<text text-anchor="start" x="50.2" y="-86.2" font-family="Arial" font-size="14.00">name </text>
<text text-anchor="start" x="89.11" y="-86.2" font-family="Arial" font-size="14.00" fill="#666666">[text]</text>
<polygon fill="none" stroke="black" points="43.2,-43.2 43.2,-74 276.17,-74 276.17,-43.2 43.2,-43.2"/>
<text text-anchor="start" x="50.2" y="-55.4" font-family="Arial" font-size="14.00">details </text>
<text text-anchor="start" x="94.56" y="-55.4" font-family="Arial" font-size="14.00" fill="#666666">[text]</text>
</g>
<!-- public.logic&#45;&gt;public.model -->
<g id="edge1" class="edge">
<title>public.logic:model_key&#45;&gt;public.model:model_key</title>
<path fill="none" stroke="black" d="M282.51,-401.94C336.12,-374.17 336.88,-120.2 277.17,-120.2"/>
<polygon fill="black" stroke="black" points="282.7,-401.9 271.91,-399.95 277.52,-403.19 273.32,-404.24 273.32,-404.24 273.32,-404.24 277.52,-403.19 274.09,-408.68 282.7,-401.9"/>
<text text-anchor="start" x="279.67" y="-414.4" font-family="Arial" font-size="10.00">FOREIGN KEY (model_key) REFERENCES model(model_key) ON DELETE CASCADE</text>
</g>
</g>
</svg>
