<?xml version="1.0" encoding="UTF-8" standalone="no"?>
<!DOCTYPE svg PUBLIC "-//W3C//DTD SVG 1.1//EN"
 "http://www.w3.org/Graphics/SVG/1.1/DTD/svg11.dtd">
<!-- Generated by graphviz version 12.1.2 (20240928.0832)
 -->
<!-- Title: public.class_invariant Pages: 1 -->
<svg width="1302pt" height="725pt"
 viewBox="0.00 0.00 1302.00 725.20" xmlns="http://www.w3.org/2000/svg" xmlns:xlink="http://www.w3.org/1999/xlink">
<g id="graph0" class="graph" transform="scale(1 1) rotate(0) translate(4 721.2)">
<title>public.class_invariant</title>
<polygon fill="white" stroke="none" points="-4,4 -4,-721.2 1298,-721.2 1298,4 -4,4"/>
<!-- public.class_invariant -->
<g id="node1" class="node">
<title>public.class_invariant</title>
<polygon fill="#efefef" stroke="none" points="495.7,-635.4 495.7,-671 791.65,-671 791.65,-635.4 495.7,-635.4"/>
<polygon fill="none" stroke="black" points="495.7,-635.4 495.7,-671 791.65,-671 791.65,-635.4 495.7,-635.4"/>
<text text-anchor="start" x="502.7" y="-648.8" font-family="Arial Bold" font-size="18.00">public.class_invariant</text>
<text text-anchor="start" x="660.16" y="-648.8" font-family="Arial" font-size="14.00">    </text>
<text text-anchor="start" x="691.28" y="-648.8" font-family="Arial" font-size="14.00" fill="#666666">[BASE TABLE]</text>
<polygon fill="none" stroke="black" points="495.7,-604.6 495.7,-635.4 791.65,-635.4 791.65,-604.6 495.7,-604.6"/>
<text text-anchor="start" x="502.7" y="-616.8" font-family="Arial" font-size="14.00">model_key </text>
<text text-anchor="start" x="574.3" y="-616.8" font-family="Arial" font-size="14.00" fill="#666666">[text]</text>
<polygon fill="none" stroke="black" points="495.7,-573.8 495.7,-604.6 791.65,-604.6 791.65,-573.8 495.7,-573.8"/>
<text text-anchor="start" x="502.7" y="-586" font-family="Arial" font-size="14.00">class_key </text>
<text text-anchor="start" x="568.06" y="-586" font-family="Arial" font-size="14.00" fill="#666666">[text]</text>
<polygon fill="none" stroke="black" points="495.7,-543 495.7,-573.8 791.65,-573.8 791.65,-543 495.7,-543"/>
<text text-anchor="start" x="502.7" y="-555.2" font-family="Arial" font-size="14.00">logic_key </text>
<text text-anchor="start" x="564.96" y="-555.2" font-family="Arial" font-size="14.00" fill="#666666">[text]</text>
<polygon fill="none" stroke="black" stroke-width="3" points="494.2,-541.5 494.2,-672.5 793.15,-672.5 793.15,-541.5 494.2,-541.5"/>
</g>
<!-- public.logic -->
<g id="node2" class="node">
<title>public.logic</title>
<polygon fill="#efefef" stroke="none" points="367.69,-382 367.69,-417.6 591.66,-417.6 591.66,-382 367.69,-382"/>
<polygon fill="none" stroke="black" points="367.69,-382 367.69,-417.6 591.66,-417.6 591.66,-382 367.69,-382"/>
<text text-anchor="start" x="374.69" y="-395.4" font-family="Arial Bold" font-size="18.00">public.logic</text>
<text text-anchor="start" x="460.17" y="-395.4" font-family="Arial" font-size="14.00">    </text>
<text text-anchor="start" x="491.29" y="-395.4" font-family="Arial" font-size="14.00" fill="#666666">[BASE TABLE]</text>
<polygon fill="none" stroke="black" points="367.69,-351.2 367.69,-382 591.66,-382 591.66,-351.2 367.69,-351.2"/>
<text text-anchor="start" x="374.69" y="-363.4" font-family="Arial" font-size="14.00">logic_key </text>
<text text-anchor="start" x="436.94" y="-363.4" font-family="Arial" font-size="14.00" fill="#666666">[text]</text>
<polygon fill="none" stroke="black" points="367.69,-320.4 367.69,-351.2 591.66,-351.2 591.66,-320.4 367.69,-320.4"/>
<text text-anchor="start" x="374.69" y="-332.6" font-family="Arial" font-size="14.00">model_key </text>
<text text-anchor="start" x="446.28" y="-332.6" font-family="Arial" font-size="14.00" fill="#666666">[text]</text>
<polygon fill="none" stroke="black" points="367.69,-289.6 367.69,-320.4 591.66,-320.4 591.66,-289.6 367.69,-289.6"/>
<text text-anchor="start" x="374.69" y="-301.8" font-family="Arial" font-size="14.00">sort_order </text>
<text text-anchor="start" x="442.39" y="-301.8" font-family="Arial" font-size="14.00" fill="#666666">[integer]</text>
<polygon fill="none" stroke="black" points="367.69,-258.8 367.69,-289.6 591.66,-289.6 591.66,-258.8 367.69,-258.8"/>
<text text-anchor="start" x="374.69" y="-271" font-family="Arial" font-size="14.00">logic_type </text>
<text text-anchor="start" x="441.62" y="-271" font-family="Arial" font-size="14.00" fill="#666666">[logic_type]</text>
<polygon fill="none" stroke="black" points="367.69,-228 367.69,-258.8 591.66,-258.8 591.66,-228 367.69,-228"/>
<text text-anchor="start" x="374.69" y="-240.2" font-family="Arial" font-size="14.00">description </text>
<text text-anchor="start" x="446.28" y="-240.2" font-family="Arial" font-size="14.00" fill="#666666">[text]</text>
<polygon fill="none" stroke="black" points="367.69,-197.2 367.69,-228 591.66,-228 591.66,-197.2 367.69,-197.2"/>
<text text-anchor="start" x="374.69" y="-209.4" font-family="Arial" font-size="14.00">target </text>
<text text-anchor="start" x="414.38" y="-209.4" font-family="Arial" font-size="14.00" fill="#666666">[text]</text>
<polygon fill="none" stroke="black" points="367.69,-166.4 367.69,-197.2 591.66,-197.2 591.66,-166.4 367.69,-166.4"/>
<text text-anchor="start" x="374.69" y="-178.6" font-family="Arial" font-size="14.00">notation </text>
<text text-anchor="start" x="428.4" y="-178.6" font-family="Arial" font-size="14.00" fill="#666666">[notation]</text>
<polygon fill="none" stroke="black" points="367.69,-135.6 367.69,-166.4 591.66,-166.4 591.66,-135.6 367.69,-135.6"/>
<text text-anchor="start" x="374.69" y="-147.8" font-family="Arial" font-size="14.00">specification </text>
<text text-anchor="start" x="455.62" y="-147.8" font-family="Arial" font-size="14.00" fill="#666666">[text]</text>
<polygon fill="none" stroke="black" points="367.69,-104.8 367.69,-135.6 591.66,-135.6 591.66,-104.8 367.69,-104.8"/>
<text text-anchor="start" x="374.69" y="-117" font-family="Arial" font-size="14.00">target_type_notation </text>
<text text-anchor="start" x="506.23" y="-117" font-family="Arial" font-size="14.00" fill="#666666">[notation]</text>
<polygon fill="none" stroke="black" points="367.69,-74 367.69,-104.8 591.66,-104.8 591.66,-74 367.69,-74"/>
<text text-anchor="start" x="374.69" y="-86.2" font-family="Arial" font-size="14.00">target_type_specification </text>
<text text-anchor="start" x="533.45" y="-86.2" font-family="Arial" font-size="14.00" fill="#666666">[text]</text>
<polygon fill="none" stroke="black" points="367.69,-43.2 367.69,-74 591.66,-74 591.66,-43.2 367.69,-43.2"/>
<text text-anchor="start" x="374.69" y="-55.4" font-family="Arial" font-size="14.00">delete_event_specification </text>
<text text-anchor="start" x="543.59" y="-55.4" font-family="Arial" font-size="14.00" fill="#666666">[text]</text>
</g>
<!-- public.class_invariant&#45;&gt;public.logic -->
<g id="edge1" class="edge">
<title>public.class_invariant:model_key&#45;&gt;public.logic:model_key</title>
<path fill="none" stroke="black" d="M484.56,-618.94C443.31,-609.45 466.48,-538.61 495.7,-496.8 521.8,-459.46 565.57,-498.14 591.66,-460.8 623.49,-415.26 648.22,-335.8 592.66,-335.8"/>
<polygon fill="black" stroke="black" points="484.42,-618.92 493.9,-624.44 489.73,-619.48 494.04,-619.93 494.04,-619.93 494.04,-619.93 489.73,-619.48 494.84,-615.49 484.42,-618.92"/>
<text text-anchor="start" x="7" y="-630" font-family="Arial" font-size="10.00">FOREIGN KEY (model_key, logic_key) REFERENCES logic(model_key, logic_key) ON DELETE CASCADE</text>
</g>
<!-- public.class -->
<g id="node3" class="node">
<title>public.class</title>
<polygon fill="#efefef" stroke="none" points="696.19,-366.6 696.19,-402.2 919.16,-402.2 919.16,-366.6 696.19,-366.6"/>
<polygon fill="none" stroke="black" points="696.19,-366.6 696.19,-402.2 919.16,-402.2 919.16,-366.6 696.19,-366.6"/>
<text text-anchor="start" x="703.19" y="-380" font-family="Arial Bold" font-size="18.00">public.class</text>
<text text-anchor="start" x="787.67" y="-380" font-family="Arial" font-size="14.00">    </text>
<text text-anchor="start" x="818.79" y="-380" font-family="Arial" font-size="14.00" fill="#666666">[BASE TABLE]</text>
<polygon fill="none" stroke="black" points="696.19,-335.8 696.19,-366.6 919.16,-366.6 919.16,-335.8 696.19,-335.8"/>
<text text-anchor="start" x="703.19" y="-348" font-family="Arial" font-size="14.00">model_key </text>
<text text-anchor="start" x="774.78" y="-348" font-family="Arial" font-size="14.00" fill="#666666">[text]</text>
<polygon fill="none" stroke="black" points="696.19,-305 696.19,-335.8 919.16,-335.8 919.16,-305 696.19,-305"/>
<text text-anchor="start" x="703.19" y="-317.2" font-family="Arial" font-size="14.00">class_key </text>
<text text-anchor="start" x="768.55" y="-317.2" font-family="Arial" font-size="14.00" fill="#666666">[text]</text>
<polygon fill="none" stroke="black" points="696.19,-274.2 696.19,-305 919.16,-305 919.16,-274.2 696.19,-274.2"/>
<text text-anchor="start" x="703.19" y="-286.4" font-family="Arial" font-size="14.00">name </text>
<text text-anchor="start" x="742.1" y="-286.4" font-family="Arial" font-size="14.00" fill="#666666">[text]</text>
<polygon fill="none" stroke="black" points="696.19,-243.4 696.19,-274.2 919.16,-274.2 919.16,-243.4 696.19,-243.4"/>
<text text-anchor="start" x="703.19" y="-255.6" font-family="Arial" font-size="14.00">subdomain_key </text>
<text text-anchor="start" x="805.14" y="-255.6" font-family="Arial" font-size="14.00" fill="#666666">[text]</text>
<polygon fill="none" stroke="black" points="696.19,-212.6 696.19,-243.4 919.16,-243.4 919.16,-212.6 696.19,-212.6"/>
<text text-anchor="start" x="703.19" y="-224.8" font-family="Arial" font-size="14.00">actor_key </text>
<text text-anchor="start" x="767.78" y="-224.8" font-family="Arial" font-size="14.00" fill="#666666">[text]</text>
<polygon fill="none" stroke="black" points="696.19,-181.8 696.19,-212.6 919.16,-212.6 919.16,-181.8 696.19,-181.8"/>
<text text-anchor="start" x="703.19" y="-194" font-family="Arial" font-size="14.00">superclass_of_key </text>
<text text-anchor="start" x="823.03" y="-194" font-family="Arial" font-size="14.00" fill="#666666">[text]</text>
<polygon fill="none" stroke="black" points="696.19,-151 696.19,-181.8 919.16,-181.8 919.16,-151 696.19,-151"/>
<text text-anchor="start" x="703.19" y="-163.2" font-family="Arial" font-size="14.00">subclass_of_key </text>
<text text-anchor="start" x="810.58" y="-163.2" font-family="Arial" font-size="14.00" fill="#666666">[text]</text>
<polygon fill="none" stroke="black" points="696.19,-120.2 696.19,-151 919.16,-151 919.16,-120.2 696.19,-120.2"/>
<text text-anchor="start" x="703.19" y="-132.4" font-family="Arial" font-size="14.00">details </text>
<text text-anchor="start" x="747.55" y="-132.4" font-family="Arial" font-size="14.00" fill="#666666">[text]</text>
<polygon fill="none" stroke="black" points="696.19,-89.4 696.19,-120.2 919.16,-120.2 919.16,-89.4 696.19,-89.4"/>
<text text-anchor="start" x="703.19" y="-101.6" font-family="Arial" font-size="14.00">unfinished_notes </text>
<text text-anchor="start" x="812.94" y="-101.6" font-family="Arial" font-size="14.00" fill="#666666">[text]</text>
<polygon fill="none" stroke="black" points="696.19,-58.6 696.19,-89.4 919.16,-89.4 919.16,-58.6 696.19,-58.6"/>
<text text-anchor="start" x="703.19" y="-70.8" font-family="Arial" font-size="14.00">uml_comment </text>
<text text-anchor="start" x="795" y="-70.8" font-family="Arial" font-size="14.00" fill="#666666">[text]</text>
</g>
<!-- public.class_invariant&#45;&gt;public.class -->
<g id="edge2" class="edge">
<title>public.class_invariant:model_key&#45;&gt;public.class:model_key</title>
<path fill="none" stroke="black" d="M803.01,-618.91C843.54,-609.42 817.93,-540.4 791.65,-496.8 766.77,-455.53 721.12,-486.64 696.19,-445.4 674.53,-409.57 653.32,-351.2 695.19,-351.2"/>
<polygon fill="black" stroke="black" points="802.93,-618.91 792.51,-615.49 797.62,-619.47 793.31,-619.93 793.31,-619.93 793.31,-619.93 797.62,-619.47 793.45,-624.44 802.93,-618.91"/>
<text text-anchor="start" x="799.65" y="-630" font-family="Arial" font-size="10.00">FOREIGN KEY (model_key, class_key) REFERENCES class(model_key, class_key) ON DELETE CASCADE</text>
</g>
</g>
</svg>
