<?xml version="1.0" encoding="UTF-8" standalone="no"?>
<!DOCTYPE svg PUBLIC "-//W3C//DTD SVG 1.1//EN"
 "http://www.w3.org/Graphics/SVG/1.1/DTD/svg11.dtd">
<!-- Generated by graphviz version 12.1.2 (20240928.0832)
 -->
<!-- Title: public.action_require Pages: 1 -->
<svg width="1310pt" height="694pt"
 viewBox="0.00 0.00 1309.69 694.40" xmlns="http://www.w3.org/2000/svg" xmlns:xlink="http://www.w3.org/1999/xlink">
<g id="graph0" class="graph" transform="scale(1 1) rotate(0) translate(4 690.4)">
<title>public.action_require</title>
<polygon fill="white" stroke="none" points="-4,4 -4,-690.4 1305.69,-690.4 1305.69,4 -4,4"/>
<!-- public.action_require -->
<g id="node1" class="node">
<title>public.action_require</title>
<polygon fill="#efefef" stroke="none" points="495.7,-604.6 495.7,-640.2 787.63,-640.2 787.63,-604.6 495.7,-604.6"/>
<polygon fill="none" stroke="black" points="495.7,-604.6 495.7,-640.2 787.63,-640.2 787.63,-604.6 495.7,-604.6"/>
<text text-anchor="start" x="502.7" y="-618" font-family="Arial Bold" font-size="18.00">public.action_require</text>
<text text-anchor="start" x="656.14" y="-618" font-family="Arial" font-size="14.00">    </text>
<text text-anchor="start" x="687.26" y="-618" font-family="Arial" font-size="14.00" fill="#666666">[BASE TABLE]</text>
<polygon fill="none" stroke="black" points="495.7,-573.8 495.7,-604.6 787.63,-604.6 787.63,-573.8 495.7,-573.8"/>
<text text-anchor="start" x="502.7" y="-586" font-family="Arial" font-size="14.00">model_key </text>
<text text-anchor="start" x="574.3" y="-586" font-family="Arial" font-size="14.00" fill="#666666">[text]</text>
<polygon fill="none" stroke="black" points="495.7,-543 495.7,-573.8 787.63,-573.8 787.63,-543 495.7,-543"/>
<text text-anchor="start" x="502.7" y="-555.2" font-family="Arial" font-size="14.00">action_key </text>
<text text-anchor="start" x="573.52" y="-555.2" font-family="Arial" font-size="14.00" fill="#666666">[text]</text>
<polygon fill="none" stroke="black" points="495.7,-512.2 495.7,-543 787.63,-543 787.63,-512.2 495.7,-512.2"/>
<text text-anchor="start" x="502.7" y="-524.4" font-family="Arial" font-size="14.00">logic_key </text>
<text text-anchor="start" x="564.96" y="-524.4" font-family="Arial" font-size="14.00" fill="#666666">[text]</text>
<polygon fill="none" stroke="black" stroke-width="3" points="494.2,-510.7 494.2,-641.7 789.13,-641.7 789.13,-510.7 494.2,-510.7"/>
</g>
<!-- public.logic -->
<g id="node2" class="node">
<title>public.logic</title>
<polygon fill="#efefef" stroke="none" points="363.68,-351.2 363.68,-386.8 587.65,-386.8 587.65,-351.2 363.68,-351.2"/>
<polygon fill="none" stroke="black" points="363.68,-351.2 363.68,-386.8 587.65,-386.8 587.65,-351.2 363.68,-351.2"/>
<text text-anchor="start" x="370.68" y="-364.6" font-family="Arial Bold" font-size="18.00">public.logic</text>
<text text-anchor="start" x="456.16" y="-364.6" font-family="Arial" font-size="14.00">    </text>
<text text-anchor="start" x="487.28" y="-364.6" font-family="Arial" font-size="14.00" fill="#666666">[BASE TABLE]</text>
<polygon fill="none" stroke="black" points="363.68,-320.4 363.68,-351.2 587.65,-351.2 587.65,-320.4 363.68,-320.4"/>
<text text-anchor="start" x="370.68" y="-332.6" font-family="Arial" font-size="14.00">logic_key </text>
<text text-anchor="start" x="432.94" y="-332.6" font-family="Arial" font-size="14.00" fill="#666666">[text]</text>
<polygon fill="none" stroke="black" points="363.68,-289.6 363.68,-320.4 587.65,-320.4 587.65,-289.6 363.68,-289.6"/>
<text text-anchor="start" x="370.68" y="-301.8" font-family="Arial" font-size="14.00">model_key </text>
<text text-anchor="start" x="442.27" y="-301.8" font-family="Arial" font-size="14.00" fill="#666666">[text]</text>
<polygon fill="none" stroke="black" points="363.68,-258.8 363.68,-289.6 587.65,-289.6 587.65,-258.8 363.68,-258.8"/>
<text text-anchor="start" x="370.68" y="-271" font-family="Arial" font-size="14.00">sort_order </text>
<text text-anchor="start" x="438.38" y="-271" font-family="Arial" font-size="14.00" fill="#666666">[integer]</text>
<polygon fill="none" stroke="black" points="363.68,-228 363.68,-258.8 587.65,-258.8 587.65,-228 363.68,-228"/>
<text text-anchor="start" x="370.68" y="-240.2" font-family="Arial" font-size="14.00">logic_type </text>
<text text-anchor="start" x="437.61" y="-240.2" font-family="Arial" font-size="14.00" fill="#666666">[logic_type]</text>
<polygon fill="none" stroke="black" points="363.68,-197.2 363.68,-228 587.65,-228 587.65,-197.2 363.68,-197.2"/>
<text text-anchor="start" x="370.68" y="-209.4" font-family="Arial" font-size="14.00">description </text>
<text text-anchor="start" x="442.27" y="-209.4" font-family="Arial" font-size="14.00" fill="#666666">[text]</text>
<polygon fill="none" stroke="black" points="363.68,-166.4 363.68,-197.2 587.65,-197.2 587.65,-166.4 363.68,-166.4"/>
<text text-anchor="start" x="370.68" y="-178.6" font-family="Arial" font-size="14.00">target </text>
<text text-anchor="start" x="410.37" y="-178.6" font-family="Arial" font-size="14.00" fill="#666666">[text]</text>
<polygon fill="none" stroke="black" points="363.68,-135.6 363.68,-166.4 587.65,-166.4 587.65,-135.6 363.68,-135.6"/>
<text text-anchor="start" x="370.68" y="-147.8" font-family="Arial" font-size="14.00">notation </text>
<text text-anchor="start" x="424.39" y="-147.8" font-family="Arial" font-size="14.00" fill="#666666">[notation]</text>
<polygon fill="none" stroke="black" points="363.68,-104.8 363.68,-135.6 587.65,-135.6 587.65,-104.8 363.68,-104.8"/>
<text text-anchor="start" x="370.68" y="-117" font-family="Arial" font-size="14.00">specification </text>
<text text-anchor="start" x="451.61" y="-117" font-family="Arial" font-size="14.00" fill="#666666">[text]</text>
<polygon fill="none" stroke="black" points="363.68,-74 363.68,-104.8 587.65,-104.8 587.65,-74 363.68,-74"/>
<text text-anchor="start" x="370.68" y="-86.2" font-family="Arial" font-size="14.00">target_type_notation </text>
<text text-anchor="start" x="502.23" y="-86.2" font-family="Arial" font-size="14.00" fill="#666666">[notation]</text>
<polygon fill="none" stroke="black" points="363.68,-43.2 363.68,-74 587.65,-74 587.65,-43.2 363.68,-43.2"/>
<text text-anchor="start" x="370.68" y="-55.4" font-family="Arial" font-size="14.00">target_type_specification </text>
<text text-anchor="start" x="529.45" y="-55.4" font-family="Arial" font-size="14.00" fill="#666666">[text]</text>
</g>
<!-- public.action_require&#45;&gt;public.logic -->
<g id="edge1" class="edge">
<title>public.action_require:model_key&#45;&gt;public.logic:model_key</title>
<path fill="none" stroke="black" d="M484.56,-588.14C443.35,-578.68 466.78,-508.02 495.7,-466 520.59,-429.85 562.77,-466.15 587.65,-430 619.15,-384.23 644.21,-305 588.65,-305"/>
<polygon fill="black" stroke="black" points="484.42,-588.13 493.9,-593.64 489.73,-588.68 494.04,-589.13 494.04,-589.13 494.04,-589.13 489.73,-588.68 494.84,-584.69 484.42,-588.13"/>
<text text-anchor="start" x="7" y="-599.2" font-family="Arial" font-size="10.00">FOREIGN KEY (model_key, logic_key) REFERENCES logic(model_key, logic_key) ON DELETE CASCADE</text>
</g>
<!-- public.action -->
<g id="node3" class="node">
<title>public.action</title>
<polygon fill="#efefef" stroke="none" points="691.69,-274.2 691.69,-309.8 923.65,-309.8 923.65,-274.2 691.69,-274.2"/>
<polygon fill="none" stroke="black" points="691.69,-274.2 691.69,-309.8 923.65,-309.8 923.65,-274.2 691.69,-274.2"/>
<text text-anchor="start" x="698.69" y="-287.6" font-family="Arial Bold" font-size="18.00">public.action</text>
<text text-anchor="start" x="792.16" y="-287.6" font-family="Arial" font-size="14.00">    </text>
<text text-anchor="start" x="823.28" y="-287.6" font-family="Arial" font-size="14.00" fill="#666666">[BASE TABLE]</text>
<polygon fill="none" stroke="black" points="691.69,-243.4 691.69,-274.2 923.65,-274.2 923.65,-243.4 691.69,-243.4"/>
<text text-anchor="start" x="698.69" y="-255.6" font-family="Arial" font-size="14.00">model_key </text>
<text text-anchor="start" x="770.28" y="-255.6" font-family="Arial" font-size="14.00" fill="#666666">[text]</text>
<polygon fill="none" stroke="black" points="691.69,-212.6 691.69,-243.4 923.65,-243.4 923.65,-212.6 691.69,-212.6"/>
<text text-anchor="start" x="698.69" y="-224.8" font-family="Arial" font-size="14.00">class_key </text>
<text text-anchor="start" x="764.05" y="-224.8" font-family="Arial" font-size="14.00" fill="#666666">[text]</text>
<polygon fill="none" stroke="black" points="691.69,-181.8 691.69,-212.6 923.65,-212.6 923.65,-181.8 691.69,-181.8"/>
<text text-anchor="start" x="698.69" y="-194" font-family="Arial" font-size="14.00">action_key </text>
<text text-anchor="start" x="769.51" y="-194" font-family="Arial" font-size="14.00" fill="#666666">[text]</text>
<polygon fill="none" stroke="black" points="691.69,-151 691.69,-181.8 923.65,-181.8 923.65,-151 691.69,-151"/>
<text text-anchor="start" x="698.69" y="-163.2" font-family="Arial" font-size="14.00">name </text>
<text text-anchor="start" x="737.6" y="-163.2" font-family="Arial" font-size="14.00" fill="#666666">[text]</text>
<polygon fill="none" stroke="black" points="691.69,-120.2 691.69,-151 923.65,-151 923.65,-120.2 691.69,-120.2"/>
<text text-anchor="start" x="698.69" y="-132.4" font-family="Arial" font-size="14.00">details </text>
<text text-anchor="start" x="743.05" y="-132.4" font-family="Arial" font-size="14.00" fill="#666666">[text]</text>
</g>
<!-- public.action_require&#45;&gt;public.action -->
<g id="edge2" class="edge">
<title>public.action_require:model_key&#45;&gt;public.action:model_key</title>
<path fill="none" stroke="black" d="M798.86,-588.17C838.32,-579.19 805.38,-513.71 787.63,-466 764.67,-404.25 714.73,-414.72 691.69,-353 677.04,-313.78 648.82,-258.8 690.69,-258.8"/>
<polygon fill="black" stroke="black" points="798.91,-588.16 788.51,-584.69 793.61,-588.7 789.3,-589.13 789.3,-589.13 789.3,-589.13 793.61,-588.7 789.42,-593.64 798.91,-588.16"/>
<text text-anchor="start" x="795.63" y="-599.2" font-family="Arial" font-size="10.00">FOREIGN KEY (model_key, action_key) REFERENCES action(model_key, action_key) ON DELETE CASCADE</text>
</g>
</g>
</svg>
