<?xml version="1.0" encoding="UTF-8" standalone="no"?>
<!DOCTYPE svg PUBLIC "-//W3C//DTD SVG 1.1//EN"
 "http://www.w3.org/Graphics/SVG/1.1/DTD/svg11.dtd">
<!-- Generated by graphviz version 12.1.2 (20240928.0832)
 -->
<!-- Title: public.action_parameter_invariant Pages: 1 -->
<svg width="1599pt" height="787pt"
 viewBox="0.00 0.00 1599.29 786.80" xmlns="http://www.w3.org/2000/svg" xmlns:xlink="http://www.w3.org/1999/xlink">
<g id="graph0" class="graph" transform="scale(1 1) rotate(0) translate(4 782.8)">
<title>public.action_parameter_invariant</title>
<polygon fill="white" stroke="none" points="-4,4 -4,-782.8 1595.29,-782.8 1595.29,4 -4,4"/>
<!-- public.action_parameter_invariant -->
<g id="node1" class="node">
<title>public.action_parameter_invariant</title>
<polygon fill="#efefef" stroke="none" points="495.7,-697 495.7,-732.6 881.59,-732.6 881.59,-697 495.7,-697"/>
<polygon fill="none" stroke="black" points="495.7,-697 495.7,-732.6 881.59,-732.6 881.59,-697 495.7,-697"/>
<text text-anchor="start" x="502.7" y="-710.4" font-family="Arial Bold" font-size="18.00">public.action_parameter_invariant</text>
<text text-anchor="start" x="750.1" y="-710.4" font-family="Arial" font-size="14.00">    </text>
<text text-anchor="start" x="781.21" y="-710.4" font-family="Arial" font-size="14.00" fill="#666666">[BASE TABLE]</text>
<polygon fill="none" stroke="black" points="495.7,-666.2 495.7,-697 881.59,-697 881.59,-666.2 495.7,-666.2"/>
<text text-anchor="start" x="502.7" y="-678.4" font-family="Arial" font-size="14.00">model_key </text>
<text text-anchor="start" x="574.3" y="-678.4" font-family="Arial" font-size="14.00" fill="#666666">[text]</text>
<polygon fill="none" stroke="black" points="495.7,-635.4 495.7,-666.2 881.59,-666.2 881.59,-635.4 495.7,-635.4"/>
<text text-anchor="start" x="502.7" y="-647.6" font-family="Arial" font-size="14.00">action_key </text>
<text text-anchor="start" x="573.52" y="-647.6" font-family="Arial" font-size="14.00" fill="#666666">[text]</text>
<polygon fill="none" stroke="black" points="495.7,-604.6 495.7,-635.4 881.59,-635.4 881.59,-604.6 495.7,-604.6"/>
<text text-anchor="start" x="502.7" y="-616.8" font-family="Arial" font-size="14.00">parameter_key </text>
<text text-anchor="start" x="599.97" y="-616.8" font-family="Arial" font-size="14.00" fill="#666666">[text]</text>
<polygon fill="none" stroke="black" points="495.7,-573.8 495.7,-604.6 881.59,-604.6 881.59,-573.8 495.7,-573.8"/>
<text text-anchor="start" x="502.7" y="-586" font-family="Arial" font-size="14.00">logic_key </text>
<text text-anchor="start" x="564.96" y="-586" font-family="Arial" font-size="14.00" fill="#666666">[text]</text>
<polygon fill="none" stroke="black" stroke-width="3" points="494.2,-572.3 494.2,-734.1 883.09,-734.1 883.09,-572.3 494.2,-572.3"/>
</g>
<!-- public.logic -->
<g id="node2" class="node">
<title>public.logic</title>
<polygon fill="#efefef" stroke="none" points="375.85,-412.8 375.85,-448.4 619.44,-448.4 619.44,-412.8 375.85,-412.8"/>
<polygon fill="none" stroke="black" points="375.85,-412.8 375.85,-448.4 619.44,-448.4 619.44,-412.8 375.85,-412.8"/>
<text text-anchor="start" x="392.66" y="-426.2" font-family="Arial Bold" font-size="18.00">public.logic</text>
<text text-anchor="start" x="478.14" y="-426.2" font-family="Arial" font-size="14.00">    </text>
<text text-anchor="start" x="509.26" y="-426.2" font-family="Arial" font-size="14.00" fill="#666666">[BASE TABLE]</text>
<polygon fill="none" stroke="black" points="375.85,-382 375.85,-412.8 619.44,-412.8 619.44,-382 375.85,-382"/>
<text text-anchor="start" x="382.85" y="-394.2" font-family="Arial" font-size="14.00">logic_key </text>
<text text-anchor="start" x="445.11" y="-394.2" font-family="Arial" font-size="14.00" fill="#666666">[text]</text>
<polygon fill="none" stroke="black" points="375.85,-351.2 375.85,-382 619.44,-382 619.44,-351.2 375.85,-351.2"/>
<text text-anchor="start" x="382.85" y="-363.4" font-family="Arial" font-size="14.00">model_key </text>
<text text-anchor="start" x="454.45" y="-363.4" font-family="Arial" font-size="14.00" fill="#666666">[text]</text>
<polygon fill="none" stroke="black" points="375.85,-320.4 375.85,-351.2 619.44,-351.2 619.44,-320.4 375.85,-320.4"/>
<text text-anchor="start" x="382.85" y="-332.6" font-family="Arial" font-size="14.00">sort_order </text>
<text text-anchor="start" x="450.55" y="-332.6" font-family="Arial" font-size="14.00" fill="#666666">[integer]</text>
<polygon fill="none" stroke="black" points="375.85,-289.6 375.85,-320.4 619.44,-320.4 619.44,-289.6 375.85,-289.6"/>
<text text-anchor="start" x="382.85" y="-301.8" font-family="Arial" font-size="14.00">logic_type </text>
<text text-anchor="start" x="449.78" y="-301.8" font-family="Arial" font-size="14.00" fill="#666666">[logic_type]</text>
<polygon fill="none" stroke="black" points="375.85,-258.8 375.85,-289.6 619.44,-289.6 619.44,-258.8 375.85,-258.8"/>
<text text-anchor="start" x="382.85" y="-271" font-family="Arial" font-size="14.00">description </text>
<text text-anchor="start" x="454.45" y="-271" font-family="Arial" font-size="14.00" fill="#666666">[text]</text>
<polygon fill="none" stroke="black" points="375.85,-228 375.85,-258.8 619.44,-258.8 619.44,-228 375.85,-228"/>
<text text-anchor="start" x="382.85" y="-240.2" font-family="Arial" font-size="14.00">target </text>
<text text-anchor="start" x="422.54" y="-240.2" font-family="Arial" font-size="14.00" fill="#666666">[text]</text>
<polygon fill="none" stroke="black" points="375.85,-197.2 375.85,-228 619.44,-228 619.44,-197.2 375.85,-197.2"/>
<text text-anchor="start" x="382.85" y="-209.4" font-family="Arial" font-size="14.00">notation </text>
<text text-anchor="start" x="436.56" y="-209.4" font-family="Arial" font-size="14.00" fill="#666666">[notation]</text>
<polygon fill="none" stroke="black" points="375.85,-166.4 375.85,-197.2 619.44,-197.2 619.44,-166.4 375.85,-166.4"/>
<text text-anchor="start" x="382.85" y="-178.6" font-family="Arial" font-size="14.00">specification </text>
<text text-anchor="start" x="463.78" y="-178.6" font-family="Arial" font-size="14.00" fill="#666666">[text]</text>
<polygon fill="none" stroke="black" points="375.85,-135.6 375.85,-166.4 619.44,-166.4 619.44,-135.6 375.85,-135.6"/>
<text text-anchor="start" x="382.85" y="-147.8" font-family="Arial" font-size="14.00">target_type_notation </text>
<text text-anchor="start" x="514.4" y="-147.8" font-family="Arial" font-size="14.00" fill="#666666">[notation]</text>
<polygon fill="none" stroke="black" points="375.85,-104.8 375.85,-135.6 619.44,-135.6 619.44,-104.8 375.85,-104.8"/>
<text text-anchor="start" x="382.85" y="-117" font-family="Arial" font-size="14.00">target_type_specification </text>
<text text-anchor="start" x="541.62" y="-117" font-family="Arial" font-size="14.00" fill="#666666">[text]</text>
<polygon fill="none" stroke="black" points="375.85,-74 375.85,-104.8 619.44,-104.8 619.44,-74 375.85,-74"/>
<text text-anchor="start" x="382.85" y="-86.2" font-family="Arial" font-size="14.00">destroy_event_specification </text>
<text text-anchor="start" x="559.51" y="-86.2" font-family="Arial" font-size="14.00" fill="#666666">[text]</text>
<polygon fill="none" stroke="black" points="375.85,-43.2 375.85,-74 619.44,-74 619.44,-43.2 375.85,-43.2"/>
<text text-anchor="start" x="382.85" y="-55.4" font-family="Arial" font-size="14.00">endpoint_selector_specification </text>
<text text-anchor="start" x="582.09" y="-55.4" font-family="Arial" font-size="14.00" fill="#666666">[text]</text>
</g>
<!-- public.action_parameter_invariant&#45;&gt;public.logic -->
<g id="edge1" class="edge">
<title>public.action_parameter_invariant:model_key&#45;&gt;public.logic:model_key</title>
<path fill="none" stroke="black" d="M484.33,-680.73C429.38,-670.86 456.7,-579.22 495.7,-527.6 530.23,-481.9 584.88,-537.27 619.44,-491.6 652.96,-447.3 675.99,-366.6 620.44,-366.6"/>
<polygon fill="black" stroke="black" points="484.4,-680.74 493.99,-686.06 489.72,-681.18 494.04,-681.54 494.04,-681.54 494.04,-681.54 489.72,-681.18 494.75,-677.09 484.4,-680.74"/>
<text text-anchor="start" x="7" y="-691.6" font-family="Arial" font-size="10.00">FOREIGN KEY (model_key, logic_key) REFERENCES logic(model_key, logic_key) ON DELETE CASCADE</text>
</g>
<!-- public.action_parameter -->
<g id="node3" class="node">
<title>public.action_parameter</title>
<polygon fill="#efefef" stroke="none" points="724.19,-351.2 724.19,-386.8 1037.1,-386.8 1037.1,-351.2 724.19,-351.2"/>
<polygon fill="none" stroke="black" points="724.19,-351.2 724.19,-386.8 1037.1,-386.8 1037.1,-351.2 724.19,-351.2"/>
<text text-anchor="start" x="731.19" y="-364.6" font-family="Arial Bold" font-size="18.00">public.action_parameter</text>
<text text-anchor="start" x="905.61" y="-364.6" font-family="Arial" font-size="14.00">    </text>
<text text-anchor="start" x="936.73" y="-364.6" font-family="Arial" font-size="14.00" fill="#666666">[BASE TABLE]</text>
<polygon fill="none" stroke="black" points="724.19,-320.4 724.19,-351.2 1037.1,-351.2 1037.1,-320.4 724.19,-320.4"/>
<text text-anchor="start" x="731.19" y="-332.6" font-family="Arial" font-size="14.00">model_key </text>
<text text-anchor="start" x="802.78" y="-332.6" font-family="Arial" font-size="14.00" fill="#666666">[text]</text>
<polygon fill="none" stroke="black" points="724.19,-289.6 724.19,-320.4 1037.1,-320.4 1037.1,-289.6 724.19,-289.6"/>
<text text-anchor="start" x="731.19" y="-301.8" font-family="Arial" font-size="14.00">action_key </text>
<text text-anchor="start" x="802.01" y="-301.8" font-family="Arial" font-size="14.00" fill="#666666">[text]</text>
<polygon fill="none" stroke="black" points="724.19,-258.8 724.19,-289.6 1037.1,-289.6 1037.1,-258.8 724.19,-258.8"/>
<text text-anchor="start" x="731.19" y="-271" font-family="Arial" font-size="14.00">parameter_key </text>
<text text-anchor="start" x="828.46" y="-271" font-family="Arial" font-size="14.00" fill="#666666">[text]</text>
<polygon fill="none" stroke="black" points="724.19,-228 724.19,-258.8 1037.1,-258.8 1037.1,-228 724.19,-228"/>
<text text-anchor="start" x="731.19" y="-240.2" font-family="Arial" font-size="14.00">name </text>
<text text-anchor="start" x="770.1" y="-240.2" font-family="Arial" font-size="14.00" fill="#666666">[text]</text>
<polygon fill="none" stroke="black" points="724.19,-197.2 724.19,-228 1037.1,-228 1037.1,-197.2 724.19,-197.2"/>
<text text-anchor="start" x="731.19" y="-209.4" font-family="Arial" font-size="14.00">sort_order </text>
<text text-anchor="start" x="798.89" y="-209.4" font-family="Arial" font-size="14.00" fill="#666666">[integer]</text>
<polygon fill="none" stroke="black" points="724.19,-166.4 724.19,-197.2 1037.1,-197.2 1037.1,-166.4 724.19,-166.4"/>
<text text-anchor="start" x="731.19" y="-178.6" font-family="Arial" font-size="14.00">data_type_rules </text>
<text text-anchor="start" x="834.71" y="-178.6" font-family="Arial" font-size="14.00" fill="#666666">[text]</text>
<polygon fill="none" stroke="black" points="724.19,-135.6 724.19,-166.4 1037.1,-166.4 1037.1,-135.6 724.19,-135.6"/>
<text text-anchor="start" x="731.19" y="-147.8" font-family="Arial" font-size="14.00">data_type_key </text>
<text text-anchor="start" x="826.15" y="-147.8" font-family="Arial" font-size="14.00" fill="#666666">[text]</text>
<polygon fill="none" stroke="black" points="724.19,-104.8 724.19,-135.6 1037.1,-135.6 1037.1,-104.8 724.19,-104.8"/>
<text text-anchor="start" x="731.19" y="-117" font-family="Arial" font-size="14.00">nullable </text>
<text text-anchor="start" x="783.34" y="-117" font-family="Arial" font-size="14.00" fill="#666666">[boolean]</text>
</g>
<!-- public.action_parameter_invariant&#45;&gt;public.action_parameter -->
<g id="edge2" class="edge">
<title>public.action_parameter_invariant:model_key&#45;&gt;public.action_parameter:model_key</title>
<path fill="none" stroke="black" d="M892.9,-680.77C947.11,-671.39 913.24,-584.03 881.59,-527.6 841.32,-455.81 764.6,-501.71 724.19,-430 703.64,-393.52 681.32,-335.8 723.19,-335.8"/>
<polygon fill="black" stroke="black" points="892.89,-680.78 882.56,-677.09 887.57,-681.2 883.25,-681.55 883.25,-681.55 883.25,-681.55 887.57,-681.2 883.28,-686.06 892.89,-680.78"/>
<text text-anchor="start" x="889.59" y="-691.6" font-family="Arial" font-size="10.00">FOREIGN KEY (model_key, action_key, parameter_key) REFERENCES action_parameter(model_key, action_key, parameter_key) ON DELETE CASCADE</text>
</g>
</g>
</svg>
