<?xml version="1.0" encoding="UTF-8" standalone="no"?>
<!DOCTYPE svg PUBLIC "-//W3C//DTD SVG 1.1//EN"
 "http://www.w3.org/Graphics/SVG/1.1/DTD/svg11.dtd">
<!-- Generated by graphviz version 12.1.2 (20240928.0832)
 -->
<!-- Title: public.actor Pages: 1 -->
<svg width="780pt" height="1006pt"
 viewBox="0.00 0.00 779.87 1006.40" xmlns="http://www.w3.org/2000/svg" xmlns:xlink="http://www.w3.org/1999/xlink">
<g id="graph0" class="graph" transform="scale(1 1) rotate(0) translate(4 1002.4)">
<title>public.actor</title>
<polygon fill="white" stroke="none" points="-4,4 -4,-1002.4 775.87,-1002.4 775.87,4 -4,4"/>
<!-- public.actor -->
<g id="node1" class="node">
<title>public.actor</title>
<polygon fill="#efefef" stroke="none" points="47.71,-481.4 47.71,-517 271.66,-517 271.66,-481.4 47.71,-481.4"/>
<polygon fill="none" stroke="black" points="47.71,-481.4 47.71,-517 271.66,-517 271.66,-481.4 47.71,-481.4"/>
<text text-anchor="start" x="54.71" y="-494.8" font-family="Arial Bold" font-size="18.00">public.actor</text>
<text text-anchor="start" x="140.17" y="-494.8" font-family="Arial" font-size="14.00">    </text>
<text text-anchor="start" x="171.29" y="-494.8" font-family="Arial" font-size="14.00" fill="#666666">[BASE TABLE]</text>
<polygon fill="none" stroke="black" points="47.71,-450.6 47.71,-481.4 271.66,-481.4 271.66,-450.6 47.71,-450.6"/>
<text text-anchor="start" x="54.71" y="-462.8" font-family="Arial" font-size="14.00">model_key </text>
<text text-anchor="start" x="126.3" y="-462.8" font-family="Arial" font-size="14.00" fill="#666666">[text]</text>
<polygon fill="none" stroke="black" points="47.71,-419.8 47.71,-450.6 271.66,-450.6 271.66,-419.8 47.71,-419.8"/>
<text text-anchor="start" x="54.71" y="-432" font-family="Arial" font-size="14.00">actor_key </text>
<text text-anchor="start" x="119.29" y="-432" font-family="Arial" font-size="14.00" fill="#666666">[text]</text>
<polygon fill="none" stroke="black" points="47.71,-389 47.71,-419.8 271.66,-419.8 271.66,-389 47.71,-389"/>
<text text-anchor="start" x="54.71" y="-401.2" font-family="Arial" font-size="14.00">name </text>
<text text-anchor="start" x="93.62" y="-401.2" font-family="Arial" font-size="14.00" fill="#666666">[text]</text>
<polygon fill="none" stroke="black" points="47.71,-358.2 47.71,-389 271.66,-389 271.66,-358.2 47.71,-358.2"/>
<text text-anchor="start" x="54.71" y="-370.4" font-family="Arial" font-size="14.00">details </text>
<text text-anchor="start" x="99.07" y="-370.4" font-family="Arial" font-size="14.00" fill="#666666">[text]</text>
<polygon fill="none" stroke="black" points="47.71,-327.4 47.71,-358.2 271.66,-358.2 271.66,-327.4 47.71,-327.4"/>
<text text-anchor="start" x="54.71" y="-339.6" font-family="Arial" font-size="14.00">actor_type </text>
<text text-anchor="start" x="123.97" y="-339.6" font-family="Arial" font-size="14.00" fill="#666666">[actor_type]</text>
<polygon fill="none" stroke="black" points="47.71,-296.6 47.71,-327.4 271.66,-327.4 271.66,-296.6 47.71,-296.6"/>
<text text-anchor="start" x="54.71" y="-308.8" font-family="Arial" font-size="14.00">uml_comment </text>
<text text-anchor="start" x="146.52" y="-308.8" font-family="Arial" font-size="14.00" fill="#666666">[text]</text>
<polygon fill="none" stroke="black" stroke-width="3" points="46.21,-295.1 46.21,-518.5 273.16,-518.5 273.16,-295.1 46.21,-295.1"/>
</g>
<!-- public.model -->
<g id="node2" class="node">
<title>public.model</title>
<polygon fill="#efefef" stroke="none" points="43.2,-135.6 43.2,-171.2 276.17,-171.2 276.17,-135.6 43.2,-135.6"/>
<polygon fill="none" stroke="black" points="43.2,-135.6 43.2,-171.2 276.17,-171.2 276.17,-135.6 43.2,-135.6"/>
<text text-anchor="start" x="50.2" y="-149" font-family="Arial Bold" font-size="18.00">public.model</text>
<text text-anchor="start" x="144.68" y="-149" font-family="Arial" font-size="14.00">    </text>
<text text-anchor="start" x="175.8" y="-149" font-family="Arial" font-size="14.00" fill="#666666">[BASE TABLE]</text>
<polygon fill="none" stroke="black" points="43.2,-104.8 43.2,-135.6 276.17,-135.6 276.17,-104.8 43.2,-104.8"/>
<text text-anchor="start" x="50.2" y="-117" font-family="Arial" font-size="14.00">model_key </text>
<text text-anchor="start" x="121.79" y="-117" font-family="Arial" font-size="14.00" fill="#666666">[text]</text>
<polygon fill="none" stroke="black" points="43.2,-74 43.2,-104.8 276.17,-104.8 276.17,-74 43.2,-74"/>
<text text-anchor="start" x="50.2" y="-86.2" font-family="Arial" font-size="14.00">name </text>
<text text-anchor="start" x="89.11" y="-86.2" font-family="Arial" font-size="14.00" fill="#666666">[text]</text>
<polygon fill="none" stroke="black" points="43.2,-43.2 43.2,-74 276.17,-74 276.17,-43.2 43.2,-43.2"/>
<text text-anchor="start" x="50.2" y="-55.4" font-family="Arial" font-size="14.00">details </text>
<text text-anchor="start" x="94.56" y="-55.4" font-family="Arial" font-size="14.00" fill="#666666">[text]</text>
</g>
<!-- public.actor&#45;&gt;public.model -->
<g id="edge1" class="edge">
<title>public.actor:model_key&#45;&gt;public.model:model_key</title>
<path fill="none" stroke="black" d="M282.58,-463.97C349.75,-435.63 350.57,-120.2 277.17,-120.2"/>
<polygon fill="black" stroke="black" points="282.79,-463.93 272.09,-461.52 277.56,-465 273.32,-465.87 273.32,-465.87 273.32,-465.87 277.56,-465 273.89,-470.34 282.79,-463.93"/>
<text text-anchor="start" x="279.66" y="-476" font-family="Arial" font-size="10.00">FOREIGN KEY (model_key) REFERENCES model(model_key) ON DELETE CASCADE</text>
</g>
<!-- public.class -->
<g id="node3" class="node">
<title>public.class</title>
<polygon fill="#efefef" stroke="none" points="48.2,-919.6 48.2,-955.2 271.17,-955.2 271.17,-919.6 48.2,-919.6"/>
<polygon fill="none" stroke="black" points="48.2,-919.6 48.2,-955.2 271.17,-955.2 271.17,-919.6 48.2,-919.6"/>
<text text-anchor="start" x="55.2" y="-933" font-family="Arial Bold" font-size="18.00">public.class</text>
<text text-anchor="start" x="139.68" y="-933" font-family="Arial" font-size="14.00">    </text>
<text text-anchor="start" x="170.8" y="-933" font-family="Arial" font-size="14.00" fill="#666666">[BASE TABLE]</text>
<polygon fill="none" stroke="black" points="48.2,-888.8 48.2,-919.6 271.17,-919.6 271.17,-888.8 48.2,-888.8"/>
<text text-anchor="start" x="55.2" y="-901" font-family="Arial" font-size="14.00">model_key </text>
<text text-anchor="start" x="126.79" y="-901" font-family="Arial" font-size="14.00" fill="#666666">[text]</text>
<polygon fill="none" stroke="black" points="48.2,-858 48.2,-888.8 271.17,-888.8 271.17,-858 48.2,-858"/>
<text text-anchor="start" x="55.2" y="-870.2" font-family="Arial" font-size="14.00">class_key </text>
<text text-anchor="start" x="120.56" y="-870.2" font-family="Arial" font-size="14.00" fill="#666666">[text]</text>
<polygon fill="none" stroke="black" points="48.2,-827.2 48.2,-858 271.17,-858 271.17,-827.2 48.2,-827.2"/>
<text text-anchor="start" x="55.2" y="-839.4" font-family="Arial" font-size="14.00">name </text>
<text text-anchor="start" x="94.11" y="-839.4" font-family="Arial" font-size="14.00" fill="#666666">[text]</text>
<polygon fill="none" stroke="black" points="48.2,-796.4 48.2,-827.2 271.17,-827.2 271.17,-796.4 48.2,-796.4"/>
<text text-anchor="start" x="55.2" y="-808.6" font-family="Arial" font-size="14.00">subdomain_key </text>
<text text-anchor="start" x="157.15" y="-808.6" font-family="Arial" font-size="14.00" fill="#666666">[text]</text>
<polygon fill="none" stroke="black" points="48.2,-765.6 48.2,-796.4 271.17,-796.4 271.17,-765.6 48.2,-765.6"/>
<text text-anchor="start" x="55.2" y="-777.8" font-family="Arial" font-size="14.00">actor_key </text>
<text text-anchor="start" x="119.79" y="-777.8" font-family="Arial" font-size="14.00" fill="#666666">[text]</text>
<polygon fill="none" stroke="black" points="48.2,-734.8 48.2,-765.6 271.17,-765.6 271.17,-734.8 48.2,-734.8"/>
<text text-anchor="start" x="55.2" y="-747" font-family="Arial" font-size="14.00">superclass_of_key </text>
<text text-anchor="start" x="175.04" y="-747" font-family="Arial" font-size="14.00" fill="#666666">[text]</text>
<polygon fill="none" stroke="black" points="48.2,-704 48.2,-734.8 271.17,-734.8 271.17,-704 48.2,-704"/>
<text text-anchor="start" x="55.2" y="-716.2" font-family="Arial" font-size="14.00">subclass_of_key </text>
<text text-anchor="start" x="162.59" y="-716.2" font-family="Arial" font-size="14.00" fill="#666666">[text]</text>
<polygon fill="none" stroke="black" points="48.2,-673.2 48.2,-704 271.17,-704 271.17,-673.2 48.2,-673.2"/>
<text text-anchor="start" x="55.2" y="-685.4" font-family="Arial" font-size="14.00">details </text>
<text text-anchor="start" x="99.56" y="-685.4" font-family="Arial" font-size="14.00" fill="#666666">[text]</text>
<polygon fill="none" stroke="black" points="48.2,-642.4 48.2,-673.2 271.17,-673.2 271.17,-642.4 48.2,-642.4"/>
<text text-anchor="start" x="55.2" y="-654.6" font-family="Arial" font-size="14.00">uml_comment </text>
<text text-anchor="start" x="147.01" y="-654.6" font-family="Arial" font-size="14.00" fill="#666666">[text]</text>
</g>
<!-- public.class&#45;&gt;public.actor -->
<g id="edge2" class="edge">
<title>public.class:model_key&#45;&gt;public.actor:model_key</title>
<path fill="none" stroke="black" d="M282.35,-902.53C369.46,-873.11 366.52,-466 272.66,-466"/>
<polygon fill="black" stroke="black" points="282.37,-902.52 271.77,-899.71 277.1,-903.39 272.83,-904.09 272.83,-904.09 272.83,-904.09 277.1,-903.39 273.23,-908.59 282.37,-902.52"/>
<text text-anchor="start" x="279.17" y="-914.2" font-family="Arial" font-size="10.00">FOREIGN KEY (model_key, actor_key) REFERENCES actor(model_key, actor_key) ON DELETE CASCADE</text>
</g>
</g>
</svg>
