<?xml version="1.0" encoding="UTF-8" standalone="no"?>
<!DOCTYPE svg PUBLIC "-//W3C//DTD SVG 1.1//EN"
 "http://www.w3.org/Graphics/SVG/1.1/DTD/svg11.dtd">
<!-- Generated by graphviz version 12.1.2 (20240928.0832)
 -->
<!-- Title: public.action_parameter_simulation_require Pages: 1 -->
<svg width="1671pt" height="787pt"
 viewBox="0.00 0.00 1671.29 786.80" xmlns="http://www.w3.org/2000/svg" xmlns:xlink="http://www.w3.org/1999/xlink">
<g id="graph0" class="graph" transform="scale(1 1) rotate(0) translate(4 782.8)">
<title>public.action_parameter_simulation_require</title>
<polygon fill="white" stroke="none" points="-4,4 -4,-782.8 1667.29,-782.8 1667.29,4 -4,4"/>
<!-- public.action_parameter_simulation_require -->
<g id="node1" class="node">
<title>public.action_parameter_simulation_require</title>
<polygon fill="#efefef" stroke="none" points="495.7,-697 495.7,-732.6 953.58,-732.6 953.58,-697 495.7,-697"/>
<polygon fill="none" stroke="black" points="495.7,-697 495.7,-732.6 953.58,-732.6 953.58,-697 495.7,-697"/>
<text text-anchor="start" x="502.7" y="-710.4" font-family="Arial Bold" font-size="18.00">public.action_parameter_simulation_require</text>
<text text-anchor="start" x="822.09" y="-710.4" font-family="Arial" font-size="14.00">    </text>
<text text-anchor="start" x="853.21" y="-710.4" font-family="Arial" font-size="14.00" fill="#666666">[BASE TABLE]</text>
<polygon fill="none" stroke="black" points="495.7,-666.2 495.7,-697 953.58,-697 953.58,-666.2 495.7,-666.2"/>
<text text-anchor="start" x="502.7" y="-678.4" font-family="Arial" font-size="14.00">model_key </text>
<text text-anchor="start" x="574.3" y="-678.4" font-family="Arial" font-size="14.00" fill="#666666">[text]</text>
<polygon fill="none" stroke="black" points="495.7,-635.4 495.7,-666.2 953.58,-666.2 953.58,-635.4 495.7,-635.4"/>
<text text-anchor="start" x="502.7" y="-647.6" font-family="Arial" font-size="14.00">action_key </text>
<text text-anchor="start" x="573.52" y="-647.6" font-family="Arial" font-size="14.00" fill="#666666">[text]</text>
<polygon fill="none" stroke="black" points="495.7,-604.6 495.7,-635.4 953.58,-635.4 953.58,-604.6 495.7,-604.6"/>
<text text-anchor="start" x="502.7" y="-616.8" font-family="Arial" font-size="14.00">parameter_key </text>
<text text-anchor="start" x="599.97" y="-616.8" font-family="Arial" font-size="14.00" fill="#666666">[text]</text>
<polygon fill="none" stroke="black" points="495.7,-573.8 495.7,-604.6 953.58,-604.6 953.58,-573.8 495.7,-573.8"/>
<text text-anchor="start" x="502.7" y="-586" font-family="Arial" font-size="14.00">logic_key </text>
<text text-anchor="start" x="564.96" y="-586" font-family="Arial" font-size="14.00" fill="#666666">[text]</text>
<polygon fill="none" stroke="black" stroke-width="3" points="494.2,-572.3 494.2,-734.1 955.08,-734.1 955.08,-572.3 494.2,-572.3"/>
</g>
<!-- public.logic -->
<g id="node2" class="node">
<title>public.logic</title>
<polygon fill="#efefef" stroke="none" points="411.85,-412.8 411.85,-448.4 655.43,-448.4 655.43,-412.8 411.85,-412.8"/>
<polygon fill="none" stroke="black" points="411.85,-412.8 411.85,-448.4 655.43,-448.4 655.43,-412.8 411.85,-412.8"/>
<text text-anchor="start" x="428.65" y="-426.2" font-family="Arial Bold" font-size="18.00">public.logic</text>
<text text-anchor="start" x="514.14" y="-426.2" font-family="Arial" font-size="14.00">    </text>
<text text-anchor="start" x="545.25" y="-426.2" font-family="Arial" font-size="14.00" fill="#666666">[BASE TABLE]</text>
<polygon fill="none" stroke="black" points="411.85,-382 411.85,-412.8 655.43,-412.8 655.43,-382 411.85,-382"/>
<text text-anchor="start" x="418.85" y="-394.2" font-family="Arial" font-size="14.00">logic_key </text>
<text text-anchor="start" x="481.1" y="-394.2" font-family="Arial" font-size="14.00" fill="#666666">[text]</text>
<polygon fill="none" stroke="black" points="411.85,-351.2 411.85,-382 655.43,-382 655.43,-351.2 411.85,-351.2"/>
<text text-anchor="start" x="418.85" y="-363.4" font-family="Arial" font-size="14.00">model_key </text>
<text text-anchor="start" x="490.44" y="-363.4" font-family="Arial" font-size="14.00" fill="#666666">[text]</text>
<polygon fill="none" stroke="black" points="411.85,-320.4 411.85,-351.2 655.43,-351.2 655.43,-320.4 411.85,-320.4"/>
<text text-anchor="start" x="418.85" y="-332.6" font-family="Arial" font-size="14.00">sort_order </text>
<text text-anchor="start" x="486.54" y="-332.6" font-family="Arial" font-size="14.00" fill="#666666">[integer]</text>
<polygon fill="none" stroke="black" points="411.85,-289.6 411.85,-320.4 655.43,-320.4 655.43,-289.6 411.85,-289.6"/>
<text text-anchor="start" x="418.85" y="-301.8" font-family="Arial" font-size="14.00">logic_type </text>
<text text-anchor="start" x="485.78" y="-301.8" font-family="Arial" font-size="14.00" fill="#666666">[logic_type]</text>
<polygon fill="none" stroke="black" points="411.85,-258.8 411.85,-289.6 655.43,-289.6 655.43,-258.8 411.85,-258.8"/>
<text text-anchor="start" x="418.85" y="-271" font-family="Arial" font-size="14.00">description </text>
<text text-anchor="start" x="490.44" y="-271" font-family="Arial" font-size="14.00" fill="#666666">[text]</text>
<polygon fill="none" stroke="black" points="411.85,-228 411.85,-258.8 655.43,-258.8 655.43,-228 411.85,-228"/>
<text text-anchor="start" x="418.85" y="-240.2" font-family="Arial" font-size="14.00">target </text>
<text text-anchor="start" x="458.54" y="-240.2" font-family="Arial" font-size="14.00" fill="#666666">[text]</text>
<polygon fill="none" stroke="black" points="411.85,-197.2 411.85,-228 655.43,-228 655.43,-197.2 411.85,-197.2"/>
<text text-anchor="start" x="418.85" y="-209.4" font-family="Arial" font-size="14.00">notation </text>
<text text-anchor="start" x="472.56" y="-209.4" font-family="Arial" font-size="14.00" fill="#666666">[notation]</text>
<polygon fill="none" stroke="black" points="411.85,-166.4 411.85,-197.2 655.43,-197.2 655.43,-166.4 411.85,-166.4"/>
<text text-anchor="start" x="418.85" y="-178.6" font-family="Arial" font-size="14.00">specification </text>
<text text-anchor="start" x="499.78" y="-178.6" font-family="Arial" font-size="14.00" fill="#666666">[text]</text>
<polygon fill="none" stroke="black" points="411.85,-135.6 411.85,-166.4 655.43,-166.4 655.43,-135.6 411.85,-135.6"/>
<text text-anchor="start" x="418.85" y="-147.8" font-family="Arial" font-size="14.00">target_type_notation </text>
<text text-anchor="start" x="550.39" y="-147.8" font-family="Arial" font-size="14.00" fill="#666666">[notation]</text>
<polygon fill="none" stroke="black" points="411.85,-104.8 411.85,-135.6 655.43,-135.6 655.43,-104.8 411.85,-104.8"/>
<text text-anchor="start" x="418.85" y="-117" font-family="Arial" font-size="14.00">target_type_specification </text>
<text text-anchor="start" x="577.61" y="-117" font-family="Arial" font-size="14.00" fill="#666666">[text]</text>
<polygon fill="none" stroke="black" points="411.85,-74 411.85,-104.8 655.43,-104.8 655.43,-74 411.85,-74"/>
<text text-anchor="start" x="418.85" y="-86.2" font-family="Arial" font-size="14.00">destroy_event_specification </text>
<text text-anchor="start" x="595.51" y="-86.2" font-family="Arial" font-size="14.00" fill="#666666">[text]</text>
<polygon fill="none" stroke="black" points="411.85,-43.2 411.85,-74 655.43,-74 655.43,-43.2 411.85,-43.2"/>
<text text-anchor="start" x="418.85" y="-55.4" font-family="Arial" font-size="14.00">endpoint_selector_specification </text>
<text text-anchor="start" x="618.09" y="-55.4" font-family="Arial" font-size="14.00" fill="#666666">[text]</text>
</g>
<!-- public.action_parameter_simulation_require&#45;&gt;public.logic -->
<g id="edge1" class="edge">
<title>public.action_parameter_simulation_require:model_key&#45;&gt;public.logic:model_key</title>
<path fill="none" stroke="black" d="M484.31,-680.72C429.21,-670.73 455.13,-578 495.7,-527.6 541.34,-470.91 609.76,-548.25 655.43,-491.6 690.3,-448.35 711.99,-366.6 656.43,-366.6"/>
<polygon fill="black" stroke="black" points="484.41,-680.73 493.99,-686.06 489.72,-681.18 494.04,-681.54 494.04,-681.54 494.04,-681.54 489.72,-681.18 494.75,-677.09 484.41,-680.73"/>
<text text-anchor="start" x="7" y="-691.6" font-family="Arial" font-size="10.00">FOREIGN KEY (model_key, logic_key) REFERENCES logic(model_key, logic_key) ON DELETE CASCADE</text>
</g>
<!-- public.action_parameter -->
<g id="node3" class="node">
<title>public.action_parameter</title>
<polygon fill="#efefef" stroke="none" points="760.19,-351.2 760.19,-386.8 1073.09,-386.8 1073.09,-351.2 760.19,-351.2"/>
<polygon fill="none" stroke="black" points="760.19,-351.2 760.19,-386.8 1073.09,-386.8 1073.09,-351.2 760.19,-351.2"/>
<text text-anchor="start" x="767.19" y="-364.6" font-family="Arial Bold" font-size="18.00">public.action_parameter</text>
<text text-anchor="start" x="941.61" y="-364.6" font-family="Arial" font-size="14.00">    </text>
<text text-anchor="start" x="972.72" y="-364.6" font-family="Arial" font-size="14.00" fill="#666666">[BASE TABLE]</text>
<polygon fill="none" stroke="black" points="760.19,-320.4 760.19,-351.2 1073.09,-351.2 1073.09,-320.4 760.19,-320.4"/>
<text text-anchor="start" x="767.19" y="-332.6" font-family="Arial" font-size="14.00">model_key </text>
<text text-anchor="start" x="838.78" y="-332.6" font-family="Arial" font-size="14.00" fill="#666666">[text]</text>
<polygon fill="none" stroke="black" points="760.19,-289.6 760.19,-320.4 1073.09,-320.4 1073.09,-289.6 760.19,-289.6"/>
<text text-anchor="start" x="767.19" y="-301.8" font-family="Arial" font-size="14.00">action_key </text>
<text text-anchor="start" x="838.01" y="-301.8" font-family="Arial" font-size="14.00" fill="#666666">[text]</text>
<polygon fill="none" stroke="black" points="760.19,-258.8 760.19,-289.6 1073.09,-289.6 1073.09,-258.8 760.19,-258.8"/>
<text text-anchor="start" x="767.19" y="-271" font-family="Arial" font-size="14.00">parameter_key </text>
<text text-anchor="start" x="864.46" y="-271" font-family="Arial" font-size="14.00" fill="#666666">[text]</text>
<polygon fill="none" stroke="black" points="760.19,-228 760.19,-258.8 1073.09,-258.8 1073.09,-228 760.19,-228"/>
<text text-anchor="start" x="767.19" y="-240.2" font-family="Arial" font-size="14.00">name </text>
<text text-anchor="start" x="806.1" y="-240.2" font-family="Arial" font-size="14.00" fill="#666666">[text]</text>
<polygon fill="none" stroke="black" points="760.19,-197.2 760.19,-228 1073.09,-228 1073.09,-197.2 760.19,-197.2"/>
<text text-anchor="start" x="767.19" y="-209.4" font-family="Arial" font-size="14.00">sort_order </text>
<text text-anchor="start" x="834.88" y="-209.4" font-family="Arial" font-size="14.00" fill="#666666">[integer]</text>
<polygon fill="none" stroke="black" points="760.19,-166.4 760.19,-197.2 1073.09,-197.2 1073.09,-166.4 760.19,-166.4"/>
<text text-anchor="start" x="767.19" y="-178.6" font-family="Arial" font-size="14.00">data_type_rules </text>
<text text-anchor="start" x="870.7" y="-178.6" font-family="Arial" font-size="14.00" fill="#666666">[text]</text>
<polygon fill="none" stroke="black" points="760.19,-135.6 760.19,-166.4 1073.09,-166.4 1073.09,-135.6 760.19,-135.6"/>
<text text-anchor="start" x="767.19" y="-147.8" font-family="Arial" font-size="14.00">data_type_key </text>
<text text-anchor="start" x="862.14" y="-147.8" font-family="Arial" font-size="14.00" fill="#666666">[text]</text>
<polygon fill="none" stroke="black" points="760.19,-104.8 760.19,-135.6 1073.09,-135.6 1073.09,-104.8 760.19,-104.8"/>
<text text-anchor="start" x="767.19" y="-117" font-family="Arial" font-size="14.00">nullable </text>
<text text-anchor="start" x="819.34" y="-117" font-family="Arial" font-size="14.00" fill="#666666">[boolean]</text>
</g>
<!-- public.action_parameter_simulation_require&#45;&gt;public.action_parameter -->
<g id="edge2" class="edge">
<title>public.action_parameter_simulation_require:model_key&#45;&gt;public.action_parameter:model_key</title>
<path fill="none" stroke="black" d="M964.91,-680.76C1019.36,-671.23 987.67,-582.59 953.58,-527.6 902.85,-445.77 811.08,-511.72 760.19,-430 738.05,-394.46 717.32,-335.8 759.19,-335.8"/>
<polygon fill="black" stroke="black" points="964.88,-680.76 954.55,-677.09 959.56,-681.2 955.24,-681.55 955.24,-681.55 955.24,-681.55 959.56,-681.2 955.28,-686.06 964.88,-680.76"/>
<text text-anchor="start" x="961.58" y="-691.6" font-family="Arial" font-size="10.00">FOREIGN KEY (model_key, action_key, parameter_key) REFERENCES action_parameter(model_key, action_key, parameter_key) ON DELETE CASCADE</text>
</g>
</g>
</svg>
