<?xml version="1.0" encoding="UTF-8" standalone="no"?>
<!DOCTYPE svg PUBLIC "-//W3C//DTD SVG 1.1//EN"
 "http://www.w3.org/Graphics/SVG/1.1/DTD/svg11.dtd">
<!-- Generated by graphviz version 12.1.2 (20240928.0832)
 -->
<!-- Title: public.action_guarantee Pages: 1 -->
<svg width="1329pt" height="694pt"
 viewBox="0.00 0.00 1328.67 694.40" xmlns="http://www.w3.org/2000/svg" xmlns:xlink="http://www.w3.org/1999/xlink">
<g id="graph0" class="graph" transform="scale(1 1) rotate(0) translate(4 690.4)">
<title>public.action_guarantee</title>
<polygon fill="white" stroke="none" points="-4,4 -4,-690.4 1324.67,-690.4 1324.67,4 -4,4"/>
<!-- public.action_guarantee -->
<g id="node1" class="node">
<title>public.action_guarantee</title>
<polygon fill="#efefef" stroke="none" points="495.7,-604.6 495.7,-640.2 806.62,-640.2 806.62,-604.6 495.7,-604.6"/>
<polygon fill="none" stroke="black" points="495.7,-604.6 495.7,-640.2 806.62,-640.2 806.62,-604.6 495.7,-604.6"/>
<text text-anchor="start" x="502.7" y="-618" font-family="Arial Bold" font-size="18.00">public.action_guarantee</text>
<text text-anchor="start" x="675.13" y="-618" font-family="Arial" font-size="14.00">    </text>
<text text-anchor="start" x="706.24" y="-618" font-family="Arial" font-size="14.00" fill="#666666">[BASE TABLE]</text>
<polygon fill="none" stroke="black" points="495.7,-573.8 495.7,-604.6 806.62,-604.6 806.62,-573.8 495.7,-573.8"/>
<text text-anchor="start" x="502.7" y="-586" font-family="Arial" font-size="14.00">model_key </text>
<text text-anchor="start" x="574.3" y="-586" font-family="Arial" font-size="14.00" fill="#666666">[text]</text>
<polygon fill="none" stroke="black" points="495.7,-543 495.7,-573.8 806.62,-573.8 806.62,-543 495.7,-543"/>
<text text-anchor="start" x="502.7" y="-555.2" font-family="Arial" font-size="14.00">action_key </text>
<text text-anchor="start" x="573.52" y="-555.2" font-family="Arial" font-size="14.00" fill="#666666">[text]</text>
<polygon fill="none" stroke="black" points="495.7,-512.2 495.7,-543 806.62,-543 806.62,-512.2 495.7,-512.2"/>
<text text-anchor="start" x="502.7" y="-524.4" font-family="Arial" font-size="14.00">logic_key </text>
<text text-anchor="start" x="564.96" y="-524.4" font-family="Arial" font-size="14.00" fill="#666666">[text]</text>
<polygon fill="none" stroke="black" stroke-width="3" points="494.2,-510.7 494.2,-641.7 808.12,-641.7 808.12,-510.7 494.2,-510.7"/>
</g>
<!-- public.logic -->
<g id="node2" class="node">
<title>public.logic</title>
<polygon fill="#efefef" stroke="none" points="373.17,-351.2 373.17,-386.8 597.15,-386.8 597.15,-351.2 373.17,-351.2"/>
<polygon fill="none" stroke="black" points="373.17,-351.2 373.17,-386.8 597.15,-386.8 597.15,-351.2 373.17,-351.2"/>
<text text-anchor="start" x="380.17" y="-364.6" font-family="Arial Bold" font-size="18.00">public.logic</text>
<text text-anchor="start" x="465.66" y="-364.6" font-family="Arial" font-size="14.00">    </text>
<text text-anchor="start" x="496.77" y="-364.6" font-family="Arial" font-size="14.00" fill="#666666">[BASE TABLE]</text>
<polygon fill="none" stroke="black" points="373.17,-320.4 373.17,-351.2 597.15,-351.2 597.15,-320.4 373.17,-320.4"/>
<text text-anchor="start" x="380.17" y="-332.6" font-family="Arial" font-size="14.00">logic_key </text>
<text text-anchor="start" x="442.43" y="-332.6" font-family="Arial" font-size="14.00" fill="#666666">[text]</text>
<polygon fill="none" stroke="black" points="373.17,-289.6 373.17,-320.4 597.15,-320.4 597.15,-289.6 373.17,-289.6"/>
<text text-anchor="start" x="380.17" y="-301.8" font-family="Arial" font-size="14.00">model_key </text>
<text text-anchor="start" x="451.77" y="-301.8" font-family="Arial" font-size="14.00" fill="#666666">[text]</text>
<polygon fill="none" stroke="black" points="373.17,-258.8 373.17,-289.6 597.15,-289.6 597.15,-258.8 373.17,-258.8"/>
<text text-anchor="start" x="380.17" y="-271" font-family="Arial" font-size="14.00">sort_order </text>
<text text-anchor="start" x="447.87" y="-271" font-family="Arial" font-size="14.00" fill="#666666">[integer]</text>
<polygon fill="none" stroke="black" points="373.17,-228 373.17,-258.8 597.15,-258.8 597.15,-228 373.17,-228"/>
<text text-anchor="start" x="380.17" y="-240.2" font-family="Arial" font-size="14.00">logic_type </text>
<text text-anchor="start" x="447.1" y="-240.2" font-family="Arial" font-size="14.00" fill="#666666">[logic_type]</text>
<polygon fill="none" stroke="black" points="373.17,-197.2 373.17,-228 597.15,-228 597.15,-197.2 373.17,-197.2"/>
<text text-anchor="start" x="380.17" y="-209.4" font-family="Arial" font-size="14.00">description </text>
<text text-anchor="start" x="451.77" y="-209.4" font-family="Arial" font-size="14.00" fill="#666666">[text]</text>
<polygon fill="none" stroke="black" points="373.17,-166.4 373.17,-197.2 597.15,-197.2 597.15,-166.4 373.17,-166.4"/>
<text text-anchor="start" x="380.17" y="-178.6" font-family="Arial" font-size="14.00">target </text>
<text text-anchor="start" x="419.86" y="-178.6" font-family="Arial" font-size="14.00" fill="#666666">[text]</text>
<polygon fill="none" stroke="black" points="373.17,-135.6 373.17,-166.4 597.15,-166.4 597.15,-135.6 373.17,-135.6"/>
<text text-anchor="start" x="380.17" y="-147.8" font-family="Arial" font-size="14.00">notation </text>
<text text-anchor="start" x="433.88" y="-147.8" font-family="Arial" font-size="14.00" fill="#666666">[notation]</text>
<polygon fill="none" stroke="black" points="373.17,-104.8 373.17,-135.6 597.15,-135.6 597.15,-104.8 373.17,-104.8"/>
<text text-anchor="start" x="380.17" y="-117" font-family="Arial" font-size="14.00">specification </text>
<text text-anchor="start" x="461.1" y="-117" font-family="Arial" font-size="14.00" fill="#666666">[text]</text>
<polygon fill="none" stroke="black" points="373.17,-74 373.17,-104.8 597.15,-104.8 597.15,-74 373.17,-74"/>
<text text-anchor="start" x="380.17" y="-86.2" font-family="Arial" font-size="14.00">target_type_notation </text>
<text text-anchor="start" x="511.72" y="-86.2" font-family="Arial" font-size="14.00" fill="#666666">[notation]</text>
<polygon fill="none" stroke="black" points="373.17,-43.2 373.17,-74 597.15,-74 597.15,-43.2 373.17,-43.2"/>
<text text-anchor="start" x="380.17" y="-55.4" font-family="Arial" font-size="14.00">target_type_specification </text>
<text text-anchor="start" x="538.94" y="-55.4" font-family="Arial" font-size="14.00" fill="#666666">[text]</text>
</g>
<!-- public.action_guarantee&#45;&gt;public.logic -->
<g id="edge1" class="edge">
<title>public.action_guarantee:model_key&#45;&gt;public.logic:model_key</title>
<path fill="none" stroke="black" d="M484.55,-588.13C443.26,-578.61 466.11,-507.55 495.7,-466 523.46,-427.03 569.39,-468.97 597.15,-430 629.38,-384.75 653.7,-305 598.15,-305"/>
<polygon fill="black" stroke="black" points="484.43,-588.12 493.9,-593.64 489.73,-588.68 494.04,-589.13 494.04,-589.13 494.04,-589.13 489.73,-588.68 494.84,-584.69 484.43,-588.12"/>
<text text-anchor="start" x="7" y="-599.2" font-family="Arial" font-size="10.00">FOREIGN KEY (model_key, logic_key) REFERENCES logic(model_key, logic_key) ON DELETE CASCADE</text>
</g>
<!-- public.action -->
<g id="node3" class="node">
<title>public.action</title>
<polygon fill="#efefef" stroke="none" points="701.18,-274.2 701.18,-309.8 933.14,-309.8 933.14,-274.2 701.18,-274.2"/>
<polygon fill="none" stroke="black" points="701.18,-274.2 701.18,-309.8 933.14,-309.8 933.14,-274.2 701.18,-274.2"/>
<text text-anchor="start" x="708.18" y="-287.6" font-family="Arial Bold" font-size="18.00">public.action</text>
<text text-anchor="start" x="801.65" y="-287.6" font-family="Arial" font-size="14.00">    </text>
<text text-anchor="start" x="832.77" y="-287.6" font-family="Arial" font-size="14.00" fill="#666666">[BASE TABLE]</text>
<polygon fill="none" stroke="black" points="701.18,-243.4 701.18,-274.2 933.14,-274.2 933.14,-243.4 701.18,-243.4"/>
<text text-anchor="start" x="708.18" y="-255.6" font-family="Arial" font-size="14.00">model_key </text>
<text text-anchor="start" x="779.77" y="-255.6" font-family="Arial" font-size="14.00" fill="#666666">[text]</text>
<polygon fill="none" stroke="black" points="701.18,-212.6 701.18,-243.4 933.14,-243.4 933.14,-212.6 701.18,-212.6"/>
<text text-anchor="start" x="708.18" y="-224.8" font-family="Arial" font-size="14.00">class_key </text>
<text text-anchor="start" x="773.54" y="-224.8" font-family="Arial" font-size="14.00" fill="#666666">[text]</text>
<polygon fill="none" stroke="black" points="701.18,-181.8 701.18,-212.6 933.14,-212.6 933.14,-181.8 701.18,-181.8"/>
<text text-anchor="start" x="708.18" y="-194" font-family="Arial" font-size="14.00">action_key </text>
<text text-anchor="start" x="779" y="-194" font-family="Arial" font-size="14.00" fill="#666666">[text]</text>
<polygon fill="none" stroke="black" points="701.18,-151 701.18,-181.8 933.14,-181.8 933.14,-151 701.18,-151"/>
<text text-anchor="start" x="708.18" y="-163.2" font-family="Arial" font-size="14.00">name </text>
<text text-anchor="start" x="747.09" y="-163.2" font-family="Arial" font-size="14.00" fill="#666666">[text]</text>
<polygon fill="none" stroke="black" points="701.18,-120.2 701.18,-151 933.14,-151 933.14,-120.2 701.18,-120.2"/>
<text text-anchor="start" x="708.18" y="-132.4" font-family="Arial" font-size="14.00">details </text>
<text text-anchor="start" x="752.54" y="-132.4" font-family="Arial" font-size="14.00" fill="#666666">[text]</text>
</g>
<!-- public.action_guarantee&#45;&gt;public.action -->
<g id="edge2" class="edge">
<title>public.action_guarantee:model_key&#45;&gt;public.action:model_key</title>
<path fill="none" stroke="black" d="M817.86,-588.16C857.46,-579.13 825.47,-513.29 806.62,-466 781.17,-402.2 726.7,-416.77 701.18,-353 685.62,-314.13 658.31,-258.8 700.18,-258.8"/>
<polygon fill="black" stroke="black" points="817.9,-588.16 807.49,-584.69 812.59,-588.7 808.28,-589.13 808.28,-589.13 808.28,-589.13 812.59,-588.7 808.4,-593.64 817.9,-588.16"/>
<text text-anchor="start" x="814.62" y="-599.2" font-family="Arial" font-size="10.00">FOREIGN KEY (model_key, action_key) REFERENCES action(model_key, action_key) ON DELETE CASCADE</text>
</g>
</g>
</svg>
