<?xml version="1.0" encoding="UTF-8" standalone="no"?>
<!DOCTYPE svg PUBLIC "-//W3C//DTD SVG 1.1//EN"
 "http://www.w3.org/Graphics/SVG/1.1/DTD/svg11.dtd">
<!-- Generated by graphviz version 12.1.2 (20240928.0832)
 -->
<!-- Title: public.state Pages: 1 -->
<svg width="1132pt" height="1222pt"
 viewBox="0.00 0.00 1131.69 1222.00" xmlns="http://www.w3.org/2000/svg" xmlns:xlink="http://www.w3.org/1999/xlink">
<g id="graph0" class="graph" transform="scale(1 1) rotate(0) translate(4 1218)">
<title>public.state</title>
<polygon fill="white" stroke="none" points="-4,4 -4,-1218 1127.69,-1218 1127.69,4 -4,4"/>
<!-- public.state -->
<g id="node1" class="node">
<title>public.state</title>
<polygon fill="#efefef" stroke="none" points="284.14,-697 284.14,-732.6 505.1,-732.6 505.1,-697 284.14,-697"/>
<polygon fill="none" stroke="black" points="284.14,-697 284.14,-732.6 505.1,-732.6 505.1,-697 284.14,-697"/>
<text text-anchor="start" x="291.14" y="-710.4" font-family="Arial Bold" font-size="18.00">public.state</text>
<text text-anchor="start" x="373.61" y="-710.4" font-family="Arial" font-size="14.00">    </text>
<text text-anchor="start" x="404.73" y="-710.4" font-family="Arial" font-size="14.00" fill="#666666">[BASE TABLE]</text>
<polygon fill="none" stroke="black" points="284.14,-666.2 284.14,-697 505.1,-697 505.1,-666.2 284.14,-666.2"/>
<text text-anchor="start" x="291.14" y="-678.4" font-family="Arial" font-size="14.00">model_key </text>
<text text-anchor="start" x="362.73" y="-678.4" font-family="Arial" font-size="14.00" fill="#666666">[text]</text>
<polygon fill="none" stroke="black" points="284.14,-635.4 284.14,-666.2 505.1,-666.2 505.1,-635.4 284.14,-635.4"/>
<text text-anchor="start" x="291.14" y="-647.6" font-family="Arial" font-size="14.00">class_key </text>
<text text-anchor="start" x="356.49" y="-647.6" font-family="Arial" font-size="14.00" fill="#666666">[text]</text>
<polygon fill="none" stroke="black" points="284.14,-604.6 284.14,-635.4 505.1,-635.4 505.1,-604.6 284.14,-604.6"/>
<text text-anchor="start" x="291.14" y="-616.8" font-family="Arial" font-size="14.00">state_key </text>
<text text-anchor="start" x="354.95" y="-616.8" font-family="Arial" font-size="14.00" fill="#666666">[text]</text>
<polygon fill="none" stroke="black" points="284.14,-573.8 284.14,-604.6 505.1,-604.6 505.1,-573.8 284.14,-573.8"/>
<text text-anchor="start" x="291.14" y="-586" font-family="Arial" font-size="14.00">name </text>
<text text-anchor="start" x="330.05" y="-586" font-family="Arial" font-size="14.00" fill="#666666">[text]</text>
<polygon fill="none" stroke="black" points="284.14,-543 284.14,-573.8 505.1,-573.8 505.1,-543 284.14,-543"/>
<text text-anchor="start" x="291.14" y="-555.2" font-family="Arial" font-size="14.00">details </text>
<text text-anchor="start" x="335.49" y="-555.2" font-family="Arial" font-size="14.00" fill="#666666">[text]</text>
<polygon fill="none" stroke="black" points="284.14,-512.2 284.14,-543 505.1,-543 505.1,-512.2 284.14,-512.2"/>
<text text-anchor="start" x="291.14" y="-524.4" font-family="Arial" font-size="14.00">uml_comment </text>
<text text-anchor="start" x="382.94" y="-524.4" font-family="Arial" font-size="14.00" fill="#666666">[text]</text>
<polygon fill="none" stroke="black" stroke-width="3" points="282.64,-510.7 282.64,-734.1 506.6,-734.1 506.6,-510.7 282.64,-510.7"/>
</g>
<!-- public.class -->
<g id="node2" class="node">
<title>public.class</title>
<polygon fill="#efefef" stroke="none" points="283.13,-351.2 283.13,-386.8 506.1,-386.8 506.1,-351.2 283.13,-351.2"/>
<polygon fill="none" stroke="black" points="283.13,-351.2 283.13,-386.8 506.1,-386.8 506.1,-351.2 283.13,-351.2"/>
<text text-anchor="start" x="290.13" y="-364.6" font-family="Arial Bold" font-size="18.00">public.class</text>
<text text-anchor="start" x="374.61" y="-364.6" font-family="Arial" font-size="14.00">    </text>
<text text-anchor="start" x="405.73" y="-364.6" font-family="Arial" font-size="14.00" fill="#666666">[BASE TABLE]</text>
<polygon fill="none" stroke="black" points="283.13,-320.4 283.13,-351.2 506.1,-351.2 506.1,-320.4 283.13,-320.4"/>
<text text-anchor="start" x="290.13" y="-332.6" font-family="Arial" font-size="14.00">model_key </text>
<text text-anchor="start" x="361.73" y="-332.6" font-family="Arial" font-size="14.00" fill="#666666">[text]</text>
<polygon fill="none" stroke="black" points="283.13,-289.6 283.13,-320.4 506.1,-320.4 506.1,-289.6 283.13,-289.6"/>
<text text-anchor="start" x="290.13" y="-301.8" font-family="Arial" font-size="14.00">class_key </text>
<text text-anchor="start" x="355.49" y="-301.8" font-family="Arial" font-size="14.00" fill="#666666">[text]</text>
<polygon fill="none" stroke="black" points="283.13,-258.8 283.13,-289.6 506.1,-289.6 506.1,-258.8 283.13,-258.8"/>
<text text-anchor="start" x="290.13" y="-271" font-family="Arial" font-size="14.00">name </text>
<text text-anchor="start" x="329.04" y="-271" font-family="Arial" font-size="14.00" fill="#666666">[text]</text>
<polygon fill="none" stroke="black" points="283.13,-228 283.13,-258.8 506.1,-258.8 506.1,-228 283.13,-228"/>
<text text-anchor="start" x="290.13" y="-240.2" font-family="Arial" font-size="14.00">subdomain_key </text>
<text text-anchor="start" x="392.08" y="-240.2" font-family="Arial" font-size="14.00" fill="#666666">[text]</text>
<polygon fill="none" stroke="black" points="283.13,-197.2 283.13,-228 506.1,-228 506.1,-197.2 283.13,-197.2"/>
<text text-anchor="start" x="290.13" y="-209.4" font-family="Arial" font-size="14.00">actor_key </text>
<text text-anchor="start" x="354.72" y="-209.4" font-family="Arial" font-size="14.00" fill="#666666">[text]</text>
<polygon fill="none" stroke="black" points="283.13,-166.4 283.13,-197.2 506.1,-197.2 506.1,-166.4 283.13,-166.4"/>
<text text-anchor="start" x="290.13" y="-178.6" font-family="Arial" font-size="14.00">superclass_of_key </text>
<text text-anchor="start" x="409.97" y="-178.6" font-family="Arial" font-size="14.00" fill="#666666">[text]</text>
<polygon fill="none" stroke="black" points="283.13,-135.6 283.13,-166.4 506.1,-166.4 506.1,-135.6 283.13,-135.6"/>
<text text-anchor="start" x="290.13" y="-147.8" font-family="Arial" font-size="14.00">subclass_of_key </text>
<text text-anchor="start" x="397.53" y="-147.8" font-family="Arial" font-size="14.00" fill="#666666">[text]</text>
<polygon fill="none" stroke="black" points="283.13,-104.8 283.13,-135.6 506.1,-135.6 506.1,-104.8 283.13,-104.8"/>
<text text-anchor="start" x="290.13" y="-117" font-family="Arial" font-size="14.00">details </text>
<text text-anchor="start" x="334.49" y="-117" font-family="Arial" font-size="14.00" fill="#666666">[text]</text>
<polygon fill="none" stroke="black" points="283.13,-74 283.13,-104.8 506.1,-104.8 506.1,-74 283.13,-74"/>
<text text-anchor="start" x="290.13" y="-86.2" font-family="Arial" font-size="14.00">unfinished_notes </text>
<text text-anchor="start" x="399.88" y="-86.2" font-family="Arial" font-size="14.00" fill="#666666">[text]</text>
<polygon fill="none" stroke="black" points="283.13,-43.2 283.13,-74 506.1,-74 506.1,-43.2 283.13,-43.2"/>
<text text-anchor="start" x="290.13" y="-55.4" font-family="Arial" font-size="14.00">uml_comment </text>
<text text-anchor="start" x="381.94" y="-55.4" font-family="Arial" font-size="14.00" fill="#666666">[text]</text>
</g>
<!-- public.state&#45;&gt;public.class -->
<g id="edge1" class="edge">
<title>public.state:model_key&#45;&gt;public.class:model_key</title>
<path fill="none" stroke="black" d="M516.23,-681.08C659.76,-666.24 657.34,-335.8 507.1,-335.8"/>
<polygon fill="black" stroke="black" points="516.42,-681.07 506.21,-677.09 511.09,-681.35 506.77,-681.57 506.77,-681.57 506.77,-681.57 511.09,-681.35 506.66,-686.08 516.42,-681.07"/>
<text text-anchor="start" x="513.1" y="-691.6" font-family="Arial" font-size="10.00">FOREIGN KEY (model_key, class_key) REFERENCES class(model_key, class_key) ON DELETE CASCADE</text>
</g>
<!-- public.transition -->
<g id="node3" class="node">
<title>public.transition</title>
<polygon fill="#efefef" stroke="none" points="266.63,-1135.2 266.63,-1170.8 522.6,-1170.8 522.6,-1135.2 266.63,-1135.2"/>
<polygon fill="none" stroke="black" points="266.63,-1135.2 266.63,-1170.8 522.6,-1170.8 522.6,-1135.2 266.63,-1135.2"/>
<text text-anchor="start" x="273.63" y="-1148.6" font-family="Arial Bold" font-size="18.00">public.transition</text>
<text text-anchor="start" x="391.12" y="-1148.6" font-family="Arial" font-size="14.00">    </text>
<text text-anchor="start" x="422.23" y="-1148.6" font-family="Arial" font-size="14.00" fill="#666666">[BASE TABLE]</text>
<polygon fill="none" stroke="black" points="266.63,-1104.4 266.63,-1135.2 522.6,-1135.2 522.6,-1104.4 266.63,-1104.4"/>
<text text-anchor="start" x="273.63" y="-1116.6" font-family="Arial" font-size="14.00">model_key </text>
<text text-anchor="start" x="345.22" y="-1116.6" font-family="Arial" font-size="14.00" fill="#666666">[text]</text>
<polygon fill="none" stroke="black" points="266.63,-1073.6 266.63,-1104.4 522.6,-1104.4 522.6,-1073.6 266.63,-1073.6"/>
<text text-anchor="start" x="273.63" y="-1085.8" font-family="Arial" font-size="14.00">class_key </text>
<text text-anchor="start" x="338.99" y="-1085.8" font-family="Arial" font-size="14.00" fill="#666666">[text]</text>
<polygon fill="none" stroke="black" points="266.63,-1042.8 266.63,-1073.6 522.6,-1073.6 522.6,-1042.8 266.63,-1042.8"/>
<text text-anchor="start" x="273.63" y="-1055" font-family="Arial" font-size="14.00">transition_key </text>
<text text-anchor="start" x="363.9" y="-1055" font-family="Arial" font-size="14.00" fill="#666666">[text]</text>
<polygon fill="none" stroke="black" points="266.63,-1012 266.63,-1042.8 522.6,-1042.8 522.6,-1012 266.63,-1012"/>
<text text-anchor="start" x="273.63" y="-1024.2" font-family="Arial" font-size="14.00">from_state_key </text>
<text text-anchor="start" x="373.23" y="-1024.2" font-family="Arial" font-size="14.00" fill="#666666">[text]</text>
<polygon fill="none" stroke="black" points="266.63,-981.2 266.63,-1012 522.6,-1012 522.6,-981.2 266.63,-981.2"/>
<text text-anchor="start" x="273.63" y="-993.4" font-family="Arial" font-size="14.00">event_key </text>
<text text-anchor="start" x="341.34" y="-993.4" font-family="Arial" font-size="14.00" fill="#666666">[text]</text>
<polygon fill="none" stroke="black" points="266.63,-950.4 266.63,-981.2 522.6,-981.2 522.6,-950.4 266.63,-950.4"/>
<text text-anchor="start" x="273.63" y="-962.6" font-family="Arial" font-size="14.00">guard_key </text>
<text text-anchor="start" x="342.9" y="-962.6" font-family="Arial" font-size="14.00" fill="#666666">[text]</text>
<polygon fill="none" stroke="black" points="266.63,-919.6 266.63,-950.4 522.6,-950.4 522.6,-919.6 266.63,-919.6"/>
<text text-anchor="start" x="273.63" y="-931.8" font-family="Arial" font-size="14.00">action_key </text>
<text text-anchor="start" x="344.45" y="-931.8" font-family="Arial" font-size="14.00" fill="#666666">[text]</text>
<polygon fill="none" stroke="black" points="266.63,-888.8 266.63,-919.6 522.6,-919.6 522.6,-888.8 266.63,-888.8"/>
<text text-anchor="start" x="273.63" y="-901" font-family="Arial" font-size="14.00">to_state_key </text>
<text text-anchor="start" x="356.91" y="-901" font-family="Arial" font-size="14.00" fill="#666666">[text]</text>
<polygon fill="none" stroke="black" points="266.63,-858 266.63,-888.8 522.6,-888.8 522.6,-858 266.63,-858"/>
<text text-anchor="start" x="273.63" y="-870.2" font-family="Arial" font-size="14.00">uml_comment </text>
<text text-anchor="start" x="365.44" y="-870.2" font-family="Arial" font-size="14.00" fill="#666666">[text]</text>
</g>
<!-- public.transition&#45;&gt;public.state -->
<g id="edge2" class="edge">
<title>public.transition:model_key&#45;&gt;public.state:model_key</title>
<path fill="none" stroke="black" d="M531.33,-1113.27C560.69,-1058.75 542.96,-681.6 506.1,-681.6"/>
<polygon fill="black" stroke="black" points="531.5,-1113.13 520.95,-1116.15 527.42,-1116.57 524.12,-1119.37 524.12,-1119.37 524.12,-1119.37 527.42,-1116.57 526.77,-1123.02 531.5,-1113.13"/>
<text text-anchor="start" x="7" y="-1129.8" font-family="Arial" font-size="10.00">FOREIGN KEY (model_key, from_state_key) REFERENCES state(model_key, state_key) ON DELETE CASCADE</text>
</g>
<!-- public.transition&#45;&gt;public.state -->
<g id="edge3" class="edge">
<title>public.transition:model_key&#45;&gt;public.state:model_key</title>
<path fill="none" stroke="black" d="M533.24,-1115.21C578.98,-1068.63 560.42,-683.2 506.44,-681.6"/>
<polygon fill="black" stroke="black" points="533.21,-1115.22 522.25,-1115.61 528.43,-1117.58 524.54,-1119.5 524.54,-1119.5 524.54,-1119.5 528.43,-1117.58 526.23,-1123.68 533.21,-1115.22"/>
<text text-anchor="start" x="19" y="-1103.79" font-family="Arial" font-size="10.00">FOREIGN KEY (model_key, to_state_key) REFERENCES state(model_key, state_key) ON DELETE CASCADE</text>
</g>
<!-- public.state_action -->
<g id="node4" class="node">
<title>public.state_action</title>
<polygon fill="#efefef" stroke="none" points="626.65,-1073.6 626.65,-1109.2 900.59,-1109.2 900.59,-1073.6 626.65,-1073.6"/>
<polygon fill="none" stroke="black" points="626.65,-1073.6 626.65,-1109.2 900.59,-1109.2 900.59,-1073.6 626.65,-1073.6"/>
<text text-anchor="start" x="633.65" y="-1087" font-family="Arial Bold" font-size="18.00">public.state_action</text>
<text text-anchor="start" x="769.1" y="-1087" font-family="Arial" font-size="14.00">    </text>
<text text-anchor="start" x="800.22" y="-1087" font-family="Arial" font-size="14.00" fill="#666666">[BASE TABLE]</text>
<polygon fill="none" stroke="black" points="626.65,-1042.8 626.65,-1073.6 900.59,-1073.6 900.59,-1042.8 626.65,-1042.8"/>
<text text-anchor="start" x="633.65" y="-1055" font-family="Arial" font-size="14.00">model_key </text>
<text text-anchor="start" x="705.24" y="-1055" font-family="Arial" font-size="14.00" fill="#666666">[text]</text>
<polygon fill="none" stroke="black" points="626.65,-1012 626.65,-1042.8 900.59,-1042.8 900.59,-1012 626.65,-1012"/>
<text text-anchor="start" x="633.65" y="-1024.2" font-family="Arial" font-size="14.00">state_key </text>
<text text-anchor="start" x="697.46" y="-1024.2" font-family="Arial" font-size="14.00" fill="#666666">[text]</text>
<polygon fill="none" stroke="black" points="626.65,-981.2 626.65,-1012 900.59,-1012 900.59,-981.2 626.65,-981.2"/>
<text text-anchor="start" x="633.65" y="-993.4" font-family="Arial" font-size="14.00">state_action_key </text>
<text text-anchor="start" x="742.6" y="-993.4" font-family="Arial" font-size="14.00" fill="#666666">[text]</text>
<polygon fill="none" stroke="black" points="626.65,-950.4 626.65,-981.2 900.59,-981.2 900.59,-950.4 626.65,-950.4"/>
<text text-anchor="start" x="633.65" y="-962.6" font-family="Arial" font-size="14.00">action_key </text>
<text text-anchor="start" x="704.47" y="-962.6" font-family="Arial" font-size="14.00" fill="#666666">[text]</text>
<polygon fill="none" stroke="black" points="626.65,-919.6 626.65,-950.4 900.59,-950.4 900.59,-919.6 626.65,-919.6"/>
<text text-anchor="start" x="633.65" y="-931.8" font-family="Arial" font-size="14.00">action_when </text>
<text text-anchor="start" x="716.15" y="-931.8" font-family="Arial" font-size="14.00" fill="#666666">[state_action_when]</text>
</g>
<!-- public.state_action&#45;&gt;public.state -->
<g id="edge4" class="edge">
<title>public.state_action:model_key&#45;&gt;public.state:model_key</title>
<path fill="none" stroke="black" d="M615.63,-1055.77C573.22,-1033.4 591.87,-863.43 574.62,-814.8 552.36,-752.06 572.67,-681.6 506.1,-681.6"/>
<polygon fill="black" stroke="black" points="615.6,-1055.76 624.26,-1062.49 620.79,-1057.02 624.99,-1058.04 624.99,-1058.04 624.99,-1058.04 620.79,-1057.02 626.38,-1053.75 615.6,-1055.76"/>
<text text-anchor="start" x="632.65" y="-1068.2" font-family="Arial" font-size="10.00">FOREIGN KEY (model_key, state_key) REFERENCES state(model_key, state_key) ON DELETE CASCADE</text>
</g>
</g>
</svg>
