<?xml version="1.0" encoding="UTF-8" standalone="no"?>
<!DOCTYPE svg PUBLIC "-//W3C//DTD SVG 1.1//EN"
 "http://www.w3.org/Graphics/SVG/1.1/DTD/svg11.dtd">
<!-- Generated by graphviz version 12.1.2 (20240928.0832)
 -->
<!-- Title: public.data_type_atomic Pages: 1 -->
<svg width="1369pt" height="1222pt"
 viewBox="0.00 0.00 1369.09 1222.00" xmlns="http://www.w3.org/2000/svg" xmlns:xlink="http://www.w3.org/1999/xlink">
<g id="graph0" class="graph" transform="scale(1 1) rotate(0) translate(4 1218)">
<title>public.data_type_atomic</title>
<polygon fill="white" stroke="none" points="-4,4 -4,-1218 1365.09,-1218 1365.09,4 -4,4"/>
<!-- public.data_type_atomic -->
<g id="node1" class="node">
<title>public.data_type_atomic</title>
<polygon fill="#efefef" stroke="none" points="479.38,-666.2 479.38,-701.8 795.31,-701.8 795.31,-666.2 479.38,-666.2"/>
<polygon fill="none" stroke="black" points="479.38,-666.2 479.38,-701.8 795.31,-701.8 795.31,-666.2 479.38,-666.2"/>
<text text-anchor="start" x="486.38" y="-679.6" font-family="Arial Bold" font-size="18.00">public.data_type_atomic</text>
<text text-anchor="start" x="663.82" y="-679.6" font-family="Arial" font-size="14.00">    </text>
<text text-anchor="start" x="694.94" y="-679.6" font-family="Arial" font-size="14.00" fill="#666666">[BASE TABLE]</text>
<polygon fill="none" stroke="black" points="479.38,-635.4 479.38,-666.2 795.31,-666.2 795.31,-635.4 479.38,-635.4"/>
<text text-anchor="start" x="486.38" y="-647.6" font-family="Arial" font-size="14.00">model_key </text>
<text text-anchor="start" x="557.97" y="-647.6" font-family="Arial" font-size="14.00" fill="#666666">[text]</text>
<polygon fill="none" stroke="black" points="479.38,-604.6 479.38,-635.4 795.31,-635.4 795.31,-604.6 479.38,-604.6"/>
<text text-anchor="start" x="486.38" y="-616.8" font-family="Arial" font-size="14.00">data_type_key </text>
<text text-anchor="start" x="581.34" y="-616.8" font-family="Arial" font-size="14.00" fill="#666666">[text]</text>
<polygon fill="none" stroke="black" points="479.38,-573.8 479.38,-604.6 795.31,-604.6 795.31,-573.8 479.38,-573.8"/>
<text text-anchor="start" x="486.38" y="-586" font-family="Arial" font-size="14.00">constraint_type </text>
<text text-anchor="start" x="585.21" y="-586" font-family="Arial" font-size="14.00" fill="#666666">[constraint_type]</text>
<polygon fill="none" stroke="black" points="479.38,-543 479.38,-573.8 795.31,-573.8 795.31,-543 479.38,-543"/>
<text text-anchor="start" x="486.38" y="-555.2" font-family="Arial" font-size="14.00">reference </text>
<text text-anchor="start" x="549.41" y="-555.2" font-family="Arial" font-size="14.00" fill="#666666">[text]</text>
<polygon fill="none" stroke="black" points="479.38,-512.2 479.38,-543 795.31,-543 795.31,-512.2 479.38,-512.2"/>
<text text-anchor="start" x="486.38" y="-524.4" font-family="Arial" font-size="14.00">enum_ordered </text>
<text text-anchor="start" x="581.33" y="-524.4" font-family="Arial" font-size="14.00" fill="#666666">[boolean]</text>
<polygon fill="none" stroke="black" points="479.38,-481.4 479.38,-512.2 795.31,-512.2 795.31,-481.4 479.38,-481.4"/>
<text text-anchor="start" x="486.38" y="-493.6" font-family="Arial" font-size="14.00">object_class_key </text>
<text text-anchor="start" x="596.88" y="-493.6" font-family="Arial" font-size="14.00" fill="#666666">[text]</text>
<polygon fill="none" stroke="black" stroke-width="3" points="477.88,-479.9 477.88,-703.3 796.81,-703.3 796.81,-479.9 477.88,-479.9"/>
</g>
<!-- public.data_type -->
<g id="node2" class="node">
<title>public.data_type</title>
<polygon fill="#efefef" stroke="none" points="508.37,-320.4 508.37,-356 766.32,-356 766.32,-320.4 508.37,-320.4"/>
<polygon fill="none" stroke="black" points="508.37,-320.4 508.37,-356 766.32,-356 766.32,-320.4 508.37,-320.4"/>
<text text-anchor="start" x="515.37" y="-333.8" font-family="Arial Bold" font-size="18.00">public.data_type</text>
<text text-anchor="start" x="634.83" y="-333.8" font-family="Arial" font-size="14.00">    </text>
<text text-anchor="start" x="665.95" y="-333.8" font-family="Arial" font-size="14.00" fill="#666666">[BASE TABLE]</text>
<polygon fill="none" stroke="black" points="508.37,-289.6 508.37,-320.4 766.32,-320.4 766.32,-289.6 508.37,-289.6"/>
<text text-anchor="start" x="515.37" y="-301.8" font-family="Arial" font-size="14.00">model_key </text>
<text text-anchor="start" x="586.96" y="-301.8" font-family="Arial" font-size="14.00" fill="#666666">[text]</text>
<polygon fill="none" stroke="black" points="508.37,-258.8 508.37,-289.6 766.32,-289.6 766.32,-258.8 508.37,-258.8"/>
<text text-anchor="start" x="515.37" y="-271" font-family="Arial" font-size="14.00">data_type_key </text>
<text text-anchor="start" x="610.33" y="-271" font-family="Arial" font-size="14.00" fill="#666666">[text]</text>
<polygon fill="none" stroke="black" points="508.37,-228 508.37,-258.8 766.32,-258.8 766.32,-228 508.37,-228"/>
<text text-anchor="start" x="515.37" y="-240.2" font-family="Arial" font-size="14.00">collection_type </text>
<text text-anchor="start" x="611.87" y="-240.2" font-family="Arial" font-size="14.00" fill="#666666">[collection_type]</text>
<polygon fill="none" stroke="black" points="508.37,-197.2 508.37,-228 766.32,-228 766.32,-197.2 508.37,-197.2"/>
<text text-anchor="start" x="515.37" y="-209.4" font-family="Arial" font-size="14.00">collection_unique </text>
<text text-anchor="start" x="627.45" y="-209.4" font-family="Arial" font-size="14.00" fill="#666666">[boolean]</text>
<polygon fill="none" stroke="black" points="508.37,-166.4 508.37,-197.2 766.32,-197.2 766.32,-166.4 508.37,-166.4"/>
<text text-anchor="start" x="515.37" y="-178.6" font-family="Arial" font-size="14.00">collection_min </text>
<text text-anchor="start" x="607.97" y="-178.6" font-family="Arial" font-size="14.00" fill="#666666">[bigint]</text>
<polygon fill="none" stroke="black" points="508.37,-135.6 508.37,-166.4 766.32,-166.4 766.32,-135.6 508.37,-135.6"/>
<text text-anchor="start" x="515.37" y="-147.8" font-family="Arial" font-size="14.00">collection_max </text>
<text text-anchor="start" x="611.86" y="-147.8" font-family="Arial" font-size="14.00" fill="#666666">[bigint]</text>
<polygon fill="none" stroke="black" points="508.37,-104.8 508.37,-135.6 766.32,-135.6 766.32,-104.8 508.37,-104.8"/>
<text text-anchor="start" x="515.37" y="-117" font-family="Arial" font-size="14.00">element_data_type_key </text>
<text text-anchor="start" x="667.92" y="-117" font-family="Arial" font-size="14.00" fill="#666666">[text]</text>
<polygon fill="none" stroke="black" points="508.37,-74 508.37,-104.8 766.32,-104.8 766.32,-74 508.37,-74"/>
<text text-anchor="start" x="515.37" y="-86.2" font-family="Arial" font-size="14.00">type_spec_notation </text>
<text text-anchor="start" x="640.69" y="-86.2" font-family="Arial" font-size="14.00" fill="#666666">[notation]</text>
<polygon fill="none" stroke="black" points="508.37,-43.2 508.37,-74 766.32,-74 766.32,-43.2 508.37,-43.2"/>
<text text-anchor="start" x="515.37" y="-55.4" font-family="Arial" font-size="14.00">type_spec_specification </text>
<text text-anchor="start" x="667.91" y="-55.4" font-family="Arial" font-size="14.00" fill="#666666">[text]</text>
</g>
<!-- public.data_type_atomic&#45;&gt;public.data_type -->
<g id="edge1" class="edge">
<title>public.data_type_atomic:model_key&#45;&gt;public.data_type:model_key</title>
<path fill="none" stroke="black" d="M806.43,-650.28C949.17,-635.44 918.08,-305 767.32,-305"/>
<polygon fill="black" stroke="black" points="806.63,-650.27 796.42,-646.29 801.3,-650.55 796.98,-650.77 796.98,-650.77 796.98,-650.77 801.3,-650.55 796.87,-655.28 806.63,-650.27"/>
<text text-anchor="start" x="803.31" y="-660.8" font-family="Arial" font-size="10.00">FOREIGN KEY (model_key, data_type_key) REFERENCES data_type(model_key, data_type_key) ON DELETE CASCADE</text>
</g>
<!-- public.data_type_atomic_enum_value -->
<g id="node3" class="node">
<title>public.data_type_atomic_enum_value</title>
<polygon fill="#efefef" stroke="none" points="185.89,-1042.8 185.89,-1078.4 598.8,-1078.4 598.8,-1042.8 185.89,-1042.8"/>
<polygon fill="none" stroke="black" points="185.89,-1042.8 185.89,-1078.4 598.8,-1078.4 598.8,-1042.8 185.89,-1042.8"/>
<text text-anchor="start" x="192.89" y="-1056.2" font-family="Arial Bold" font-size="18.00">public.data_type_atomic_enum_value</text>
<text text-anchor="start" x="467.31" y="-1056.2" font-family="Arial" font-size="14.00">    </text>
<text text-anchor="start" x="498.42" y="-1056.2" font-family="Arial" font-size="14.00" fill="#666666">[BASE TABLE]</text>
<polygon fill="none" stroke="black" points="185.89,-1012 185.89,-1042.8 598.8,-1042.8 598.8,-1012 185.89,-1012"/>
<text text-anchor="start" x="192.89" y="-1024.2" font-family="Arial" font-size="14.00">model_key </text>
<text text-anchor="start" x="264.49" y="-1024.2" font-family="Arial" font-size="14.00" fill="#666666">[text]</text>
<polygon fill="none" stroke="black" points="185.89,-981.2 185.89,-1012 598.8,-1012 598.8,-981.2 185.89,-981.2"/>
<text text-anchor="start" x="192.89" y="-993.4" font-family="Arial" font-size="14.00">data_type_key </text>
<text text-anchor="start" x="287.85" y="-993.4" font-family="Arial" font-size="14.00" fill="#666666">[text]</text>
<polygon fill="none" stroke="black" points="185.89,-950.4 185.89,-981.2 598.8,-981.2 598.8,-950.4 185.89,-950.4"/>
<text text-anchor="start" x="192.89" y="-962.6" font-family="Arial" font-size="14.00">value </text>
<text text-anchor="start" x="230.25" y="-962.6" font-family="Arial" font-size="14.00" fill="#666666">[text]</text>
<polygon fill="none" stroke="black" points="185.89,-919.6 185.89,-950.4 598.8,-950.4 598.8,-919.6 185.89,-919.6"/>
<text text-anchor="start" x="192.89" y="-931.8" font-family="Arial" font-size="14.00">sort_order </text>
<text text-anchor="start" x="260.59" y="-931.8" font-family="Arial" font-size="14.00" fill="#666666">[integer]</text>
</g>
<!-- public.data_type_atomic_enum_value&#45;&gt;public.data_type_atomic -->
<g id="edge2" class="edge">
<title>public.data_type_atomic_enum_value:model_key&#45;&gt;public.data_type_atomic:model_key</title>
<path fill="none" stroke="black" d="M610.16,-1026.57C662.06,-1017.44 622.16,-935.24 598.8,-876.4 570.04,-803.97 508.27,-820.38 479.38,-748 463.37,-707.88 435.18,-650.8 478.38,-650.8"/>
<polygon fill="black" stroke="black" points="610.1,-1026.57 599.77,-1022.89 604.78,-1027 600.46,-1027.35 600.46,-1027.35 600.46,-1027.35 604.78,-1027 600.49,-1031.86 610.1,-1026.57"/>
<text text-anchor="start" x="7" y="-1037.4" font-family="Arial" font-size="10.00">FOREIGN KEY (model_key, data_type_key) REFERENCES data_type_atomic(model_key, data_type_key) ON DELETE CASCADE</text>
</g>
<!-- public.data_type_atomic_span -->
<g id="node4" class="node">
<title>public.data_type_atomic_span</title>
<polygon fill="#efefef" stroke="none" points="703.38,-1135.2 703.38,-1170.8 1061.31,-1170.8 1061.31,-1135.2 703.38,-1135.2"/>
<polygon fill="none" stroke="black" points="703.38,-1135.2 703.38,-1170.8 1061.31,-1170.8 1061.31,-1135.2 703.38,-1135.2"/>
<text text-anchor="start" x="710.38" y="-1148.6" font-family="Arial Bold" font-size="18.00">public.data_type_atomic_span</text>
<text text-anchor="start" x="929.82" y="-1148.6" font-family="Arial" font-size="14.00">    </text>
<text text-anchor="start" x="960.94" y="-1148.6" font-family="Arial" font-size="14.00" fill="#666666">[BASE TABLE]</text>
<polygon fill="none" stroke="black" points="703.38,-1104.4 703.38,-1135.2 1061.31,-1135.2 1061.31,-1104.4 703.38,-1104.4"/>
<text text-anchor="start" x="710.38" y="-1116.6" font-family="Arial" font-size="14.00">model_key </text>
<text text-anchor="start" x="781.98" y="-1116.6" font-family="Arial" font-size="14.00" fill="#666666">[text]</text>
<polygon fill="none" stroke="black" points="703.38,-1073.6 703.38,-1104.4 1061.31,-1104.4 1061.31,-1073.6 703.38,-1073.6"/>
<text text-anchor="start" x="710.38" y="-1085.8" font-family="Arial" font-size="14.00">data_type_key </text>
<text text-anchor="start" x="805.34" y="-1085.8" font-family="Arial" font-size="14.00" fill="#666666">[text]</text>
<polygon fill="none" stroke="black" points="703.38,-1042.8 703.38,-1073.6 1061.31,-1073.6 1061.31,-1042.8 703.38,-1042.8"/>
<text text-anchor="start" x="710.38" y="-1055" font-family="Arial" font-size="14.00">lower_type </text>
<text text-anchor="start" x="781.98" y="-1055" font-family="Arial" font-size="14.00" fill="#666666">[bound_limit_type]</text>
<polygon fill="none" stroke="black" points="703.38,-1012 703.38,-1042.8 1061.31,-1042.8 1061.31,-1012 703.38,-1012"/>
<text text-anchor="start" x="710.38" y="-1024.2" font-family="Arial" font-size="14.00">lower_value </text>
<text text-anchor="start" x="788.98" y="-1024.2" font-family="Arial" font-size="14.00" fill="#666666">[bigint]</text>
<polygon fill="none" stroke="black" points="703.38,-981.2 703.38,-1012 1061.31,-1012 1061.31,-981.2 703.38,-981.2"/>
<text text-anchor="start" x="710.38" y="-993.4" font-family="Arial" font-size="14.00">lower_denominator </text>
<text text-anchor="start" x="833.34" y="-993.4" font-family="Arial" font-size="14.00" fill="#666666">[bigint]</text>
<polygon fill="none" stroke="black" points="703.38,-950.4 703.38,-981.2 1061.31,-981.2 1061.31,-950.4 703.38,-950.4"/>
<text text-anchor="start" x="710.38" y="-962.6" font-family="Arial" font-size="14.00">higher_type </text>
<text text-anchor="start" x="787.44" y="-962.6" font-family="Arial" font-size="14.00" fill="#666666">[bound_limit_type]</text>
<polygon fill="none" stroke="black" points="703.38,-919.6 703.38,-950.4 1061.31,-950.4 1061.31,-919.6 703.38,-919.6"/>
<text text-anchor="start" x="710.38" y="-931.8" font-family="Arial" font-size="14.00">higher_value </text>
<text text-anchor="start" x="794.44" y="-931.8" font-family="Arial" font-size="14.00" fill="#666666">[bigint]</text>
<polygon fill="none" stroke="black" points="703.38,-888.8 703.38,-919.6 1061.31,-919.6 1061.31,-888.8 703.38,-888.8"/>
<text text-anchor="start" x="710.38" y="-901" font-family="Arial" font-size="14.00">higher_denominator </text>
<text text-anchor="start" x="838.8" y="-901" font-family="Arial" font-size="14.00" fill="#666666">[bigint]</text>
<polygon fill="none" stroke="black" points="703.38,-858 703.38,-888.8 1061.31,-888.8 1061.31,-858 703.38,-858"/>
<text text-anchor="start" x="710.38" y="-870.2" font-family="Arial" font-size="14.00">units </text>
<text text-anchor="start" x="743.84" y="-870.2" font-family="Arial" font-size="14.00" fill="#666666">[text]</text>
<polygon fill="none" stroke="black" points="703.38,-827.2 703.38,-858 1061.31,-858 1061.31,-827.2 703.38,-827.2"/>
<text text-anchor="start" x="710.38" y="-839.4" font-family="Arial" font-size="14.00">precision </text>
<text text-anchor="start" x="770.3" y="-839.4" font-family="Arial" font-size="14.00" fill="#666666">[numeric]</text>
</g>
<!-- public.data_type_atomic_span&#45;&gt;public.data_type_atomic -->
<g id="edge3" class="edge">
<title>public.data_type_atomic_span:model_key&#45;&gt;public.data_type_atomic:model_key</title>
<path fill="none" stroke="black" d="M692.21,-1117.9C631.05,-1093.53 663.29,-842.57 703.38,-784 728.17,-747.79 770.39,-784.12 795.31,-748 819.84,-712.44 839.51,-650.8 796.31,-650.8"/>
<polygon fill="black" stroke="black" points="692.22,-1117.9 701.23,-1124.16 697.47,-1118.88 701.72,-1119.68 701.72,-1119.68 701.72,-1119.68 697.47,-1118.88 702.88,-1115.32 692.22,-1117.9"/>
<text text-anchor="start" x="109.59" y="-1129.8" font-family="Arial" font-size="10.00">FOREIGN KEY (model_key, data_type_key) REFERENCES data_type_atomic(model_key, data_type_key) ON DELETE CASCADE</text>
</g>
</g>
</svg>
