<?xml version="1.0" encoding="UTF-8" standalone="no"?>
<!DOCTYPE svg PUBLIC "-//W3C//DTD SVG 1.1//EN"
 "http://www.w3.org/Graphics/SVG/1.1/DTD/svg11.dtd">
<!-- Generated by graphviz version 12.1.2 (20240928.0832)
 -->
<!-- Title: public.attribute Pages: 1 -->
<svg width="1376pt" height="1160pt"
 viewBox="0.00 0.00 1376.14 1160.40" xmlns="http://www.w3.org/2000/svg" xmlns:xlink="http://www.w3.org/1999/xlink">
<g id="graph0" class="graph" transform="scale(1 1) rotate(0) translate(4 1156.4)">
<title>public.attribute</title>
<polygon fill="white" stroke="none" points="-4,4 -4,-1156.4 1372.14,-1156.4 1372.14,4 -4,4"/>
<!-- public.attribute -->
<g id="node1" class="node">
<title>public.attribute</title>
<polygon fill="#efefef" stroke="none" points="565.78,-789.4 565.78,-825 813.74,-825 813.74,-789.4 565.78,-789.4"/>
<polygon fill="none" stroke="black" points="565.78,-789.4 565.78,-825 813.74,-825 813.74,-789.4 565.78,-789.4"/>
<text text-anchor="start" x="572.78" y="-802.8" font-family="Arial Bold" font-size="18.00">public.attribute</text>
<text text-anchor="start" x="682.25" y="-802.8" font-family="Arial" font-size="14.00">    </text>
<text text-anchor="start" x="713.37" y="-802.8" font-family="Arial" font-size="14.00" fill="#666666">[BASE TABLE]</text>
<polygon fill="none" stroke="black" points="565.78,-758.6 565.78,-789.4 813.74,-789.4 813.74,-758.6 565.78,-758.6"/>
<text text-anchor="start" x="572.78" y="-770.8" font-family="Arial" font-size="14.00">model_key </text>
<text text-anchor="start" x="644.37" y="-770.8" font-family="Arial" font-size="14.00" fill="#666666">[text]</text>
<polygon fill="none" stroke="black" points="565.78,-727.8 565.78,-758.6 813.74,-758.6 813.74,-727.8 565.78,-727.8"/>
<text text-anchor="start" x="572.78" y="-740" font-family="Arial" font-size="14.00">attribute_key </text>
<text text-anchor="start" x="656.83" y="-740" font-family="Arial" font-size="14.00" fill="#666666">[text]</text>
<polygon fill="none" stroke="black" points="565.78,-697 565.78,-727.8 813.74,-727.8 813.74,-697 565.78,-697"/>
<text text-anchor="start" x="572.78" y="-709.2" font-family="Arial" font-size="14.00">class_key </text>
<text text-anchor="start" x="638.14" y="-709.2" font-family="Arial" font-size="14.00" fill="#666666">[text]</text>
<polygon fill="none" stroke="black" points="565.78,-666.2 565.78,-697 813.74,-697 813.74,-666.2 565.78,-666.2"/>
<text text-anchor="start" x="572.78" y="-678.4" font-family="Arial" font-size="14.00">name </text>
<text text-anchor="start" x="611.69" y="-678.4" font-family="Arial" font-size="14.00" fill="#666666">[text]</text>
<polygon fill="none" stroke="black" points="565.78,-635.4 565.78,-666.2 813.74,-666.2 813.74,-635.4 565.78,-635.4"/>
<text text-anchor="start" x="572.78" y="-647.6" font-family="Arial" font-size="14.00">details </text>
<text text-anchor="start" x="617.14" y="-647.6" font-family="Arial" font-size="14.00" fill="#666666">[text]</text>
<polygon fill="none" stroke="black" points="565.78,-604.6 565.78,-635.4 813.74,-635.4 813.74,-604.6 565.78,-604.6"/>
<text text-anchor="start" x="572.78" y="-616.8" font-family="Arial" font-size="14.00">data_type_rules </text>
<text text-anchor="start" x="676.3" y="-616.8" font-family="Arial" font-size="14.00" fill="#666666">[text]</text>
<polygon fill="none" stroke="black" points="565.78,-573.8 565.78,-604.6 813.74,-604.6 813.74,-573.8 565.78,-573.8"/>
<text text-anchor="start" x="572.78" y="-586" font-family="Arial" font-size="14.00">data_type_key </text>
<text text-anchor="start" x="667.74" y="-586" font-family="Arial" font-size="14.00" fill="#666666">[text]</text>
<polygon fill="none" stroke="black" points="565.78,-543 565.78,-573.8 813.74,-573.8 813.74,-543 565.78,-543"/>
<text text-anchor="start" x="572.78" y="-555.2" font-family="Arial" font-size="14.00">derivation_policy </text>
<text text-anchor="start" x="680.95" y="-555.2" font-family="Arial" font-size="14.00" fill="#666666">[text]</text>
<polygon fill="none" stroke="black" points="565.78,-512.2 565.78,-543 813.74,-543 813.74,-512.2 565.78,-512.2"/>
<text text-anchor="start" x="572.78" y="-524.4" font-family="Arial" font-size="14.00">nullable </text>
<text text-anchor="start" x="624.93" y="-524.4" font-family="Arial" font-size="14.00" fill="#666666">[boolean]</text>
<polygon fill="none" stroke="black" points="565.78,-481.4 565.78,-512.2 813.74,-512.2 813.74,-481.4 565.78,-481.4"/>
<text text-anchor="start" x="572.78" y="-493.6" font-family="Arial" font-size="14.00">uml_comment </text>
<text text-anchor="start" x="664.59" y="-493.6" font-family="Arial" font-size="14.00" fill="#666666">[text]</text>
<polygon fill="none" stroke="black" stroke-width="3" points="564.28,-479.9 564.28,-826.5 815.24,-826.5 815.24,-479.9 564.28,-479.9"/>
</g>
<!-- public.data_type -->
<g id="node2" class="node">
<title>public.data_type</title>
<polygon fill="#efefef" stroke="none" points="388.78,-274.2 388.78,-309.8 646.73,-309.8 646.73,-274.2 388.78,-274.2"/>
<polygon fill="none" stroke="black" points="388.78,-274.2 388.78,-309.8 646.73,-309.8 646.73,-274.2 388.78,-274.2"/>
<text text-anchor="start" x="395.78" y="-287.6" font-family="Arial Bold" font-size="18.00">public.data_type</text>
<text text-anchor="start" x="515.25" y="-287.6" font-family="Arial" font-size="14.00">    </text>
<text text-anchor="start" x="546.36" y="-287.6" font-family="Arial" font-size="14.00" fill="#666666">[BASE TABLE]</text>
<polygon fill="none" stroke="black" points="388.78,-243.4 388.78,-274.2 646.73,-274.2 646.73,-243.4 388.78,-243.4"/>
<text text-anchor="start" x="395.78" y="-255.6" font-family="Arial" font-size="14.00">model_key </text>
<text text-anchor="start" x="467.38" y="-255.6" font-family="Arial" font-size="14.00" fill="#666666">[text]</text>
<polygon fill="none" stroke="black" points="388.78,-212.6 388.78,-243.4 646.73,-243.4 646.73,-212.6 388.78,-212.6"/>
<text text-anchor="start" x="395.78" y="-224.8" font-family="Arial" font-size="14.00">data_type_key </text>
<text text-anchor="start" x="490.74" y="-224.8" font-family="Arial" font-size="14.00" fill="#666666">[text]</text>
<polygon fill="none" stroke="black" points="388.78,-181.8 388.78,-212.6 646.73,-212.6 646.73,-181.8 388.78,-181.8"/>
<text text-anchor="start" x="395.78" y="-194" font-family="Arial" font-size="14.00">collection_type </text>
<text text-anchor="start" x="492.29" y="-194" font-family="Arial" font-size="14.00" fill="#666666">[collection_type]</text>
<polygon fill="none" stroke="black" points="388.78,-151 388.78,-181.8 646.73,-181.8 646.73,-151 388.78,-151"/>
<text text-anchor="start" x="395.78" y="-163.2" font-family="Arial" font-size="14.00">collection_unique </text>
<text text-anchor="start" x="507.87" y="-163.2" font-family="Arial" font-size="14.00" fill="#666666">[boolean]</text>
<polygon fill="none" stroke="black" points="388.78,-120.2 388.78,-151 646.73,-151 646.73,-120.2 388.78,-120.2"/>
<text text-anchor="start" x="395.78" y="-132.4" font-family="Arial" font-size="14.00">collection_min </text>
<text text-anchor="start" x="488.38" y="-132.4" font-family="Arial" font-size="14.00" fill="#666666">[bigint]</text>
<polygon fill="none" stroke="black" points="388.78,-89.4 388.78,-120.2 646.73,-120.2 646.73,-89.4 388.78,-89.4"/>
<text text-anchor="start" x="395.78" y="-101.6" font-family="Arial" font-size="14.00">collection_max </text>
<text text-anchor="start" x="492.27" y="-101.6" font-family="Arial" font-size="14.00" fill="#666666">[bigint]</text>
</g>
<!-- public.attribute&#45;&gt;public.data_type -->
<g id="edge1" class="edge">
<title>public.attribute:model_key&#45;&gt;public.data_type:model_key</title>
<path fill="none" stroke="black" d="M554.59,-773.67C418.6,-764.68 509.83,-571.19 565.78,-435.2 585.29,-387.78 627.04,-400.34 646.73,-353 662.81,-314.34 689.6,-258.8 647.73,-258.8"/>
<polygon fill="black" stroke="black" points="554.45,-773.67 564.3,-778.49 559.78,-773.84 564.11,-773.98 564.11,-773.98 564.11,-773.98 559.78,-773.84 564.59,-769.49 554.45,-773.67"/>
<text text-anchor="start" x="7" y="-784" font-family="Arial" font-size="10.00">FOREIGN KEY (model_key, data_type_key) REFERENCES data_type(model_key, data_type_key) ON DELETE CASCADE</text>
</g>
<!-- public.class -->
<g id="node3" class="node">
<title>public.class</title>
<polygon fill="#efefef" stroke="none" points="751.27,-320.4 751.27,-356 974.24,-356 974.24,-320.4 751.27,-320.4"/>
<polygon fill="none" stroke="black" points="751.27,-320.4 751.27,-356 974.24,-356 974.24,-320.4 751.27,-320.4"/>
<text text-anchor="start" x="758.27" y="-333.8" font-family="Arial Bold" font-size="18.00">public.class</text>
<text text-anchor="start" x="842.76" y="-333.8" font-family="Arial" font-size="14.00">    </text>
<text text-anchor="start" x="873.87" y="-333.8" font-family="Arial" font-size="14.00" fill="#666666">[BASE TABLE]</text>
<polygon fill="none" stroke="black" points="751.27,-289.6 751.27,-320.4 974.24,-320.4 974.24,-289.6 751.27,-289.6"/>
<text text-anchor="start" x="758.27" y="-301.8" font-family="Arial" font-size="14.00">model_key </text>
<text text-anchor="start" x="829.87" y="-301.8" font-family="Arial" font-size="14.00" fill="#666666">[text]</text>
<polygon fill="none" stroke="black" points="751.27,-258.8 751.27,-289.6 974.24,-289.6 974.24,-258.8 751.27,-258.8"/>
<text text-anchor="start" x="758.27" y="-271" font-family="Arial" font-size="14.00">class_key </text>
<text text-anchor="start" x="823.63" y="-271" font-family="Arial" font-size="14.00" fill="#666666">[text]</text>
<polygon fill="none" stroke="black" points="751.27,-228 751.27,-258.8 974.24,-258.8 974.24,-228 751.27,-228"/>
<text text-anchor="start" x="758.27" y="-240.2" font-family="Arial" font-size="14.00">name </text>
<text text-anchor="start" x="797.19" y="-240.2" font-family="Arial" font-size="14.00" fill="#666666">[text]</text>
<polygon fill="none" stroke="black" points="751.27,-197.2 751.27,-228 974.24,-228 974.24,-197.2 751.27,-197.2"/>
<text text-anchor="start" x="758.27" y="-209.4" font-family="Arial" font-size="14.00">subdomain_key </text>
<text text-anchor="start" x="860.23" y="-209.4" font-family="Arial" font-size="14.00" fill="#666666">[text]</text>
<polygon fill="none" stroke="black" points="751.27,-166.4 751.27,-197.2 974.24,-197.2 974.24,-166.4 751.27,-166.4"/>
<text text-anchor="start" x="758.27" y="-178.6" font-family="Arial" font-size="14.00">actor_key </text>
<text text-anchor="start" x="822.86" y="-178.6" font-family="Arial" font-size="14.00" fill="#666666">[text]</text>
<polygon fill="none" stroke="black" points="751.27,-135.6 751.27,-166.4 974.24,-166.4 974.24,-135.6 751.27,-135.6"/>
<text text-anchor="start" x="758.27" y="-147.8" font-family="Arial" font-size="14.00">superclass_of_key </text>
<text text-anchor="start" x="878.12" y="-147.8" font-family="Arial" font-size="14.00" fill="#666666">[text]</text>
<polygon fill="none" stroke="black" points="751.27,-104.8 751.27,-135.6 974.24,-135.6 974.24,-104.8 751.27,-104.8"/>
<text text-anchor="start" x="758.27" y="-117" font-family="Arial" font-size="14.00">subclass_of_key </text>
<text text-anchor="start" x="865.67" y="-117" font-family="Arial" font-size="14.00" fill="#666666">[text]</text>
<polygon fill="none" stroke="black" points="751.27,-74 751.27,-104.8 974.24,-104.8 974.24,-74 751.27,-74"/>
<text text-anchor="start" x="758.27" y="-86.2" font-family="Arial" font-size="14.00">details </text>
<text text-anchor="start" x="802.63" y="-86.2" font-family="Arial" font-size="14.00" fill="#666666">[text]</text>
<polygon fill="none" stroke="black" points="751.27,-43.2 751.27,-74 974.24,-74 974.24,-43.2 751.27,-43.2"/>
<text text-anchor="start" x="758.27" y="-55.4" font-family="Arial" font-size="14.00">uml_comment </text>
<text text-anchor="start" x="850.08" y="-55.4" font-family="Arial" font-size="14.00" fill="#666666">[text]</text>
</g>
<!-- public.attribute&#45;&gt;public.class -->
<g id="edge2" class="edge">
<title>public.attribute:model_key&#45;&gt;public.class:model_key</title>
<path fill="none" stroke="black" d="M824.96,-773.66C961.75,-764.27 887.5,-562.41 813.74,-435.2 797.67,-407.48 767.45,-426.86 751.27,-399.2 730.13,-363.06 708.41,-305 750.27,-305"/>
<polygon fill="black" stroke="black" points="825.07,-773.66 814.92,-769.49 819.74,-773.83 815.41,-773.98 815.41,-773.98 815.41,-773.98 819.74,-773.83 815.22,-778.49 825.07,-773.66"/>
<text text-anchor="start" x="821.74" y="-784" font-family="Arial" font-size="10.00">FOREIGN KEY (model_key, class_key) REFERENCES class(model_key, class_key) ON DELETE CASCADE</text>
</g>
<!-- public.class_index -->
<g id="node4" class="node">
<title>public.class_index</title>
<polygon fill="#efefef" stroke="none" points="553.78,-1073.6 553.78,-1109.2 825.74,-1109.2 825.74,-1073.6 553.78,-1073.6"/>
<polygon fill="none" stroke="black" points="553.78,-1073.6 553.78,-1109.2 825.74,-1109.2 825.74,-1073.6 553.78,-1073.6"/>
<text text-anchor="start" x="560.78" y="-1087" font-family="Arial Bold" font-size="18.00">public.class_index</text>
<text text-anchor="start" x="694.25" y="-1087" font-family="Arial" font-size="14.00">    </text>
<text text-anchor="start" x="725.37" y="-1087" font-family="Arial" font-size="14.00" fill="#666666">[BASE TABLE]</text>
<polygon fill="none" stroke="black" points="553.78,-1042.8 553.78,-1073.6 825.74,-1073.6 825.74,-1042.8 553.78,-1042.8"/>
<text text-anchor="start" x="560.78" y="-1055" font-family="Arial" font-size="14.00">model_key </text>
<text text-anchor="start" x="632.37" y="-1055" font-family="Arial" font-size="14.00" fill="#666666">[text]</text>
<polygon fill="none" stroke="black" points="553.78,-1012 553.78,-1042.8 825.74,-1042.8 825.74,-1012 553.78,-1012"/>
<text text-anchor="start" x="560.78" y="-1024.2" font-family="Arial" font-size="14.00">class_key </text>
<text text-anchor="start" x="626.14" y="-1024.2" font-family="Arial" font-size="14.00" fill="#666666">[text]</text>
<polygon fill="none" stroke="black" points="553.78,-981.2 553.78,-1012 825.74,-1012 825.74,-981.2 553.78,-981.2"/>
<text text-anchor="start" x="560.78" y="-993.4" font-family="Arial" font-size="14.00">index_num </text>
<text text-anchor="start" x="633.16" y="-993.4" font-family="Arial" font-size="14.00" fill="#666666">[integer]</text>
<polygon fill="none" stroke="black" points="553.78,-950.4 553.78,-981.2 825.74,-981.2 825.74,-950.4 553.78,-950.4"/>
<text text-anchor="start" x="560.78" y="-962.6" font-family="Arial" font-size="14.00">attribute_key </text>
<text text-anchor="start" x="644.83" y="-962.6" font-family="Arial" font-size="14.00" fill="#666666">[text]</text>
</g>
<!-- public.class_index&#45;&gt;public.attribute -->
<g id="edge3" class="edge">
<title>public.class_index:model_key&#45;&gt;public.attribute:model_key</title>
<path fill="none" stroke="black" d="M837.15,-1057.53C952.39,-1042.33 937.58,-774 814.74,-774"/>
<polygon fill="black" stroke="black" points="837.05,-1057.54 826.78,-1053.69 831.73,-1057.88 827.41,-1058.16 827.41,-1058.16 827.41,-1058.16 831.73,-1057.88 827.36,-1062.67 837.05,-1057.54"/>
<text text-anchor="start" x="833.74" y="-1068.2" font-family="Arial" font-size="10.00">FOREIGN KEY (model_key, attribute_key) REFERENCES attribute(model_key, attribute_key) ON DELETE CASCADE</text>
</g>
</g>
</svg>
