<?xml version="1.0" encoding="UTF-8" standalone="no"?>
<!DOCTYPE svg PUBLIC "-//W3C//DTD SVG 1.1//EN"
 "http://www.w3.org/Graphics/SVG/1.1/DTD/svg11.dtd">
<!-- Generated by graphviz version 12.1.2 (20240928.0832)
 -->
<!-- Title: public.association Pages: 1 -->
<svg width="1242pt" height="1284pt"
 viewBox="0.00 0.00 1241.79 1283.60" xmlns="http://www.w3.org/2000/svg" xmlns:xlink="http://www.w3.org/1999/xlink">
<g id="graph0" class="graph" transform="scale(1 1) rotate(0) translate(4 1279.6)">
<title>public.association</title>
<polygon fill="white" stroke="none" points="-4,4 -4,-1279.6 1237.79,-1279.6 1237.79,4 -4,4"/>
<!-- public.association -->
<g id="node1" class="node">
<title>public.association</title>
<polygon fill="#efefef" stroke="none" points="407.88,-881.8 407.88,-917.4 675.84,-917.4 675.84,-881.8 407.88,-881.8"/>
<polygon fill="none" stroke="black" points="407.88,-881.8 407.88,-917.4 675.84,-917.4 675.84,-881.8 407.88,-881.8"/>
<text text-anchor="start" x="414.88" y="-895.2" font-family="Arial Bold" font-size="18.00">public.association</text>
<text text-anchor="start" x="544.35" y="-895.2" font-family="Arial" font-size="14.00">    </text>
<text text-anchor="start" x="575.47" y="-895.2" font-family="Arial" font-size="14.00" fill="#666666">[BASE TABLE]</text>
<polygon fill="none" stroke="black" points="407.88,-851 407.88,-881.8 675.84,-881.8 675.84,-851 407.88,-851"/>
<text text-anchor="start" x="414.88" y="-863.2" font-family="Arial" font-size="14.00">model_key </text>
<text text-anchor="start" x="486.47" y="-863.2" font-family="Arial" font-size="14.00" fill="#666666">[text]</text>
<polygon fill="none" stroke="black" points="407.88,-820.2 407.88,-851 675.84,-851 675.84,-820.2 407.88,-820.2"/>
<text text-anchor="start" x="414.88" y="-832.4" font-family="Arial" font-size="14.00">association_key </text>
<text text-anchor="start" x="518.38" y="-832.4" font-family="Arial" font-size="14.00" fill="#666666">[text]</text>
<polygon fill="none" stroke="black" points="407.88,-789.4 407.88,-820.2 675.84,-820.2 675.84,-789.4 407.88,-789.4"/>
<text text-anchor="start" x="414.88" y="-801.6" font-family="Arial" font-size="14.00">from_class_key </text>
<text text-anchor="start" x="516.03" y="-801.6" font-family="Arial" font-size="14.00" fill="#666666">[text]</text>
<polygon fill="none" stroke="black" points="407.88,-758.6 407.88,-789.4 675.84,-789.4 675.84,-758.6 407.88,-758.6"/>
<text text-anchor="start" x="414.88" y="-770.8" font-family="Arial" font-size="14.00">from_multiplicity_lower </text>
<text text-anchor="start" x="560.36" y="-770.8" font-family="Arial" font-size="14.00" fill="#666666">[integer]</text>
<polygon fill="none" stroke="black" points="407.88,-727.8 407.88,-758.6 675.84,-758.6 675.84,-727.8 407.88,-727.8"/>
<text text-anchor="start" x="414.88" y="-740" font-family="Arial" font-size="14.00">from_multiplicity_higher </text>
<text text-anchor="start" x="565.83" y="-740" font-family="Arial" font-size="14.00" fill="#666666">[integer]</text>
<polygon fill="none" stroke="black" points="407.88,-697 407.88,-727.8 675.84,-727.8 675.84,-697 407.88,-697"/>
<text text-anchor="start" x="414.88" y="-709.2" font-family="Arial" font-size="14.00">to_class_key </text>
<text text-anchor="start" x="499.7" y="-709.2" font-family="Arial" font-size="14.00" fill="#666666">[text]</text>
<polygon fill="none" stroke="black" points="407.88,-666.2 407.88,-697 675.84,-697 675.84,-666.2 407.88,-666.2"/>
<text text-anchor="start" x="414.88" y="-678.4" font-family="Arial" font-size="14.00">to_multiplicity_lower </text>
<text text-anchor="start" x="544.04" y="-678.4" font-family="Arial" font-size="14.00" fill="#666666">[integer]</text>
<polygon fill="none" stroke="black" points="407.88,-635.4 407.88,-666.2 675.84,-666.2 675.84,-635.4 407.88,-635.4"/>
<text text-anchor="start" x="414.88" y="-647.6" font-family="Arial" font-size="14.00">to_multiplicity_higher </text>
<text text-anchor="start" x="549.5" y="-647.6" font-family="Arial" font-size="14.00" fill="#666666">[integer]</text>
<polygon fill="none" stroke="black" points="407.88,-604.6 407.88,-635.4 675.84,-635.4 675.84,-604.6 407.88,-604.6"/>
<text text-anchor="start" x="414.88" y="-616.8" font-family="Arial" font-size="14.00">name </text>
<text text-anchor="start" x="453.79" y="-616.8" font-family="Arial" font-size="14.00" fill="#666666">[text]</text>
<polygon fill="none" stroke="black" points="407.88,-573.8 407.88,-604.6 675.84,-604.6 675.84,-573.8 407.88,-573.8"/>
<text text-anchor="start" x="414.88" y="-586" font-family="Arial" font-size="14.00">association_class_key </text>
<text text-anchor="start" x="558.07" y="-586" font-family="Arial" font-size="14.00" fill="#666666">[text]</text>
<polygon fill="none" stroke="black" points="407.88,-543 407.88,-573.8 675.84,-573.8 675.84,-543 407.88,-543"/>
<text text-anchor="start" x="414.88" y="-555.2" font-family="Arial" font-size="14.00">details </text>
<text text-anchor="start" x="459.24" y="-555.2" font-family="Arial" font-size="14.00" fill="#666666">[text]</text>
<polygon fill="none" stroke="black" points="407.88,-512.2 407.88,-543 675.84,-543 675.84,-512.2 407.88,-512.2"/>
<text text-anchor="start" x="414.88" y="-524.4" font-family="Arial" font-size="14.00">uml_comment </text>
<text text-anchor="start" x="506.69" y="-524.4" font-family="Arial" font-size="14.00" fill="#666666">[text]</text>
<polygon fill="none" stroke="black" stroke-width="3" points="406.38,-510.7 406.38,-918.9 677.34,-918.9 677.34,-510.7 406.38,-510.7"/>
</g>
<!-- public.model -->
<g id="node2" class="node">
<title>public.model</title>
<polygon fill="#efefef" stroke="none" points="93.38,-258.8 93.38,-294.4 326.35,-294.4 326.35,-258.8 93.38,-258.8"/>
<polygon fill="none" stroke="black" points="93.38,-258.8 93.38,-294.4 326.35,-294.4 326.35,-258.8 93.38,-258.8"/>
<text text-anchor="start" x="100.38" y="-272.2" font-family="Arial Bold" font-size="18.00">public.model</text>
<text text-anchor="start" x="194.86" y="-272.2" font-family="Arial" font-size="14.00">    </text>
<text text-anchor="start" x="225.98" y="-272.2" font-family="Arial" font-size="14.00" fill="#666666">[BASE TABLE]</text>
<polygon fill="none" stroke="black" points="93.38,-228 93.38,-258.8 326.35,-258.8 326.35,-228 93.38,-228"/>
<text text-anchor="start" x="100.38" y="-240.2" font-family="Arial" font-size="14.00">model_key </text>
<text text-anchor="start" x="171.97" y="-240.2" font-family="Arial" font-size="14.00" fill="#666666">[text]</text>
<polygon fill="none" stroke="black" points="93.38,-197.2 93.38,-228 326.35,-228 326.35,-197.2 93.38,-197.2"/>
<text text-anchor="start" x="100.38" y="-209.4" font-family="Arial" font-size="14.00">name </text>
<text text-anchor="start" x="139.29" y="-209.4" font-family="Arial" font-size="14.00" fill="#666666">[text]</text>
<polygon fill="none" stroke="black" points="93.38,-166.4 93.38,-197.2 326.35,-197.2 326.35,-166.4 93.38,-166.4"/>
<text text-anchor="start" x="100.38" y="-178.6" font-family="Arial" font-size="14.00">details </text>
<text text-anchor="start" x="144.73" y="-178.6" font-family="Arial" font-size="14.00" fill="#666666">[text]</text>
<polygon fill="none" stroke="black" points="93.38,-135.6 93.38,-166.4 326.35,-166.4 326.35,-135.6 93.38,-135.6"/>
<text text-anchor="start" x="100.38" y="-147.8" font-family="Arial" font-size="14.00">unfinished_notes </text>
<text text-anchor="start" x="210.13" y="-147.8" font-family="Arial" font-size="14.00" fill="#666666">[text]</text>
</g>
<!-- public.association&#45;&gt;public.model -->
<g id="edge1" class="edge">
<title>public.association:model_key&#45;&gt;public.model:model_key</title>
<path fill="none" stroke="black" d="M397.56,-862.09C342.65,-807.05 393.72,-243.4 327.35,-243.4"/>
<polygon fill="black" stroke="black" points="397.5,-862.06 404.69,-870.34 402.34,-864.3 406.27,-866.12 406.27,-866.12 406.27,-866.12 402.34,-864.3 408.47,-862.18 397.5,-862.06"/>
<text text-anchor="start" x="7" y="-876.4" font-family="Arial" font-size="10.00">FOREIGN KEY (model_key) REFERENCES model(model_key) ON DELETE CASCADE</text>
</g>
<!-- public.class -->
<g id="node3" class="node">
<title>public.class</title>
<polygon fill="#efefef" stroke="none" points="430.38,-351.2 430.38,-386.8 653.35,-386.8 653.35,-351.2 430.38,-351.2"/>
<polygon fill="none" stroke="black" points="430.38,-351.2 430.38,-386.8 653.35,-386.8 653.35,-351.2 430.38,-351.2"/>
<text text-anchor="start" x="437.38" y="-364.6" font-family="Arial Bold" font-size="18.00">public.class</text>
<text text-anchor="start" x="521.86" y="-364.6" font-family="Arial" font-size="14.00">    </text>
<text text-anchor="start" x="552.97" y="-364.6" font-family="Arial" font-size="14.00" fill="#666666">[BASE TABLE]</text>
<polygon fill="none" stroke="black" points="430.38,-320.4 430.38,-351.2 653.35,-351.2 653.35,-320.4 430.38,-320.4"/>
<text text-anchor="start" x="437.38" y="-332.6" font-family="Arial" font-size="14.00">model_key </text>
<text text-anchor="start" x="508.97" y="-332.6" font-family="Arial" font-size="14.00" fill="#666666">[text]</text>
<polygon fill="none" stroke="black" points="430.38,-289.6 430.38,-320.4 653.35,-320.4 653.35,-289.6 430.38,-289.6"/>
<text text-anchor="start" x="437.38" y="-301.8" font-family="Arial" font-size="14.00">class_key </text>
<text text-anchor="start" x="502.73" y="-301.8" font-family="Arial" font-size="14.00" fill="#666666">[text]</text>
<polygon fill="none" stroke="black" points="430.38,-258.8 430.38,-289.6 653.35,-289.6 653.35,-258.8 430.38,-258.8"/>
<text text-anchor="start" x="437.38" y="-271" font-family="Arial" font-size="14.00">name </text>
<text text-anchor="start" x="476.29" y="-271" font-family="Arial" font-size="14.00" fill="#666666">[text]</text>
<polygon fill="none" stroke="black" points="430.38,-228 430.38,-258.8 653.35,-258.8 653.35,-228 430.38,-228"/>
<text text-anchor="start" x="437.38" y="-240.2" font-family="Arial" font-size="14.00">subdomain_key </text>
<text text-anchor="start" x="539.33" y="-240.2" font-family="Arial" font-size="14.00" fill="#666666">[text]</text>
<polygon fill="none" stroke="black" points="430.38,-197.2 430.38,-228 653.35,-228 653.35,-197.2 430.38,-197.2"/>
<text text-anchor="start" x="437.38" y="-209.4" font-family="Arial" font-size="14.00">actor_key </text>
<text text-anchor="start" x="501.96" y="-209.4" font-family="Arial" font-size="14.00" fill="#666666">[text]</text>
<polygon fill="none" stroke="black" points="430.38,-166.4 430.38,-197.2 653.35,-197.2 653.35,-166.4 430.38,-166.4"/>
<text text-anchor="start" x="437.38" y="-178.6" font-family="Arial" font-size="14.00">superclass_of_key </text>
<text text-anchor="start" x="557.22" y="-178.6" font-family="Arial" font-size="14.00" fill="#666666">[text]</text>
<polygon fill="none" stroke="black" points="430.38,-135.6 430.38,-166.4 653.35,-166.4 653.35,-135.6 430.38,-135.6"/>
<text text-anchor="start" x="437.38" y="-147.8" font-family="Arial" font-size="14.00">subclass_of_key </text>
<text text-anchor="start" x="544.77" y="-147.8" font-family="Arial" font-size="14.00" fill="#666666">[text]</text>
<polygon fill="none" stroke="black" points="430.38,-104.8 430.38,-135.6 653.35,-135.6 653.35,-104.8 430.38,-104.8"/>
<text text-anchor="start" x="437.38" y="-117" font-family="Arial" font-size="14.00">details </text>
<text text-anchor="start" x="481.73" y="-117" font-family="Arial" font-size="14.00" fill="#666666">[text]</text>
<polygon fill="none" stroke="black" points="430.38,-74 430.38,-104.8 653.35,-104.8 653.35,-74 430.38,-74"/>
<text text-anchor="start" x="437.38" y="-86.2" font-family="Arial" font-size="14.00">unfinished_notes </text>
<text text-anchor="start" x="547.13" y="-86.2" font-family="Arial" font-size="14.00" fill="#666666">[text]</text>
<polygon fill="none" stroke="black" points="430.38,-43.2 430.38,-74 653.35,-74 653.35,-43.2 430.38,-43.2"/>
<text text-anchor="start" x="437.38" y="-55.4" font-family="Arial" font-size="14.00">uml_comment </text>
<text text-anchor="start" x="529.18" y="-55.4" font-family="Arial" font-size="14.00" fill="#666666">[text]</text>
</g>
<!-- public.association&#45;&gt;public.class -->
<g id="edge2" class="edge">
<title>public.association:model_key&#45;&gt;public.class:model_key</title>
<path fill="none" stroke="black" d="M687.19,-865.99C894.1,-849.44 868.87,-335.8 654.35,-335.8"/>
<polygon fill="black" stroke="black" points="687.17,-865.99 677,-861.89 681.84,-866.2 677.51,-866.37 677.51,-866.37 677.51,-866.37 681.84,-866.2 677.35,-870.88 687.17,-865.99"/>
<text text-anchor="start" x="683.84" y="-876.4" font-family="Arial" font-size="10.00">FOREIGN KEY (model_key, association_class_key) REFERENCES class(model_key, class_key) ON DELETE CASCADE</text>
</g>
<!-- public.association&#45;&gt;public.class -->
<g id="edge3" class="edge">
<title>public.association:model_key&#45;&gt;public.class:model_key</title>
<path fill="none" stroke="black" d="M687.37,-866.04C912.04,-850.48 886.84,-336.31 654.69,-335.8"/>
<polygon fill="black" stroke="black" points="687.52,-866.03 677.36,-861.89 682.18,-866.22 677.86,-866.38 677.86,-866.38 677.86,-866.38 682.18,-866.22 677.68,-870.88 687.52,-866.03"/>
<text text-anchor="start" x="684.19" y="-850.4" font-family="Arial" font-size="10.00">FOREIGN KEY (model_key, from_class_key) REFERENCES class(model_key, class_key) ON DELETE CASCADE</text>
</g>
<!-- public.association&#45;&gt;public.class -->
<g id="edge4" class="edge">
<title>public.association:model_key&#45;&gt;public.class:model_key</title>
<path fill="none" stroke="black" d="M687.46,-866.08C930.07,-851.5 904.81,-336.31 654.72,-335.8"/>
<polygon fill="black" stroke="black" points="687.54,-866.08 677.41,-861.89 682.21,-866.25 677.88,-866.38 677.88,-866.38 677.88,-866.38 682.21,-866.25 677.69,-870.89 687.54,-866.08"/>
<text text-anchor="start" x="168.96" y="-850.4" font-family="Arial" font-size="10.00">FOREIGN KEY (model_key, to_class_key) REFERENCES class(model_key, class_key) ON DELETE CASCADE</text>
</g>
<!-- public.association_uniqueness_attribute -->
<g id="node4" class="node">
<title>public.association_uniqueness_attribute</title>
<polygon fill="#efefef" stroke="none" points="84.9,-1196.8 84.9,-1232.4 510.82,-1232.4 510.82,-1196.8 84.9,-1196.8"/>
<polygon fill="none" stroke="black" points="84.9,-1196.8 84.9,-1232.4 510.82,-1232.4 510.82,-1196.8 84.9,-1196.8"/>
<text text-anchor="start" x="91.9" y="-1210.2" font-family="Arial Bold" font-size="18.00">public.association_uniqueness_attribute</text>
<text text-anchor="start" x="379.34" y="-1210.2" font-family="Arial" font-size="14.00">    </text>
<text text-anchor="start" x="410.45" y="-1210.2" font-family="Arial" font-size="14.00" fill="#666666">[BASE TABLE]</text>
<polygon fill="none" stroke="black" points="84.9,-1166 84.9,-1196.8 510.82,-1196.8 510.82,-1166 84.9,-1166"/>
<text text-anchor="start" x="91.9" y="-1178.2" font-family="Arial" font-size="14.00">model_key </text>
<text text-anchor="start" x="163.49" y="-1178.2" font-family="Arial" font-size="14.00" fill="#666666">[text]</text>
<polygon fill="none" stroke="black" points="84.9,-1135.2 84.9,-1166 510.82,-1166 510.82,-1135.2 84.9,-1135.2"/>
<text text-anchor="start" x="91.9" y="-1147.4" font-family="Arial" font-size="14.00">association_key </text>
<text text-anchor="start" x="195.4" y="-1147.4" font-family="Arial" font-size="14.00" fill="#666666">[text]</text>
<polygon fill="none" stroke="black" points="84.9,-1104.4 84.9,-1135.2 510.82,-1135.2 510.82,-1104.4 84.9,-1104.4"/>
<text text-anchor="start" x="91.9" y="-1116.6" font-family="Arial" font-size="14.00">end_side </text>
<text text-anchor="start" x="152.61" y="-1116.6" font-family="Arial" font-size="14.00" fill="#666666">[association_end]</text>
<polygon fill="none" stroke="black" points="84.9,-1073.6 84.9,-1104.4 510.82,-1104.4 510.82,-1073.6 84.9,-1073.6"/>
<text text-anchor="start" x="91.9" y="-1085.8" font-family="Arial" font-size="14.00">attribute_sort_order </text>
<text text-anchor="start" x="217.97" y="-1085.8" font-family="Arial" font-size="14.00" fill="#666666">[integer]</text>
<polygon fill="none" stroke="black" points="84.9,-1042.8 84.9,-1073.6 510.82,-1073.6 510.82,-1042.8 84.9,-1042.8"/>
<text text-anchor="start" x="91.9" y="-1055" font-family="Arial" font-size="14.00">attribute_key </text>
<text text-anchor="start" x="175.95" y="-1055" font-family="Arial" font-size="14.00" fill="#666666">[text]</text>
</g>
<!-- public.association_uniqueness_attribute&#45;&gt;public.association -->
<g id="edge5" class="edge">
<title>public.association_uniqueness_attribute:model_key&#45;&gt;public.association:model_key</title>
<path fill="none" stroke="black" d="M522.02,-1180.71C589.47,-1171.08 555.66,-1062.41 510.82,-999.6 482.66,-960.15 436.14,-1002.98 407.88,-963.6 382.7,-928.5 363.68,-866.4 406.88,-866.4"/>
<polygon fill="black" stroke="black" points="522.14,-1180.7 511.86,-1176.89 516.81,-1181.06 512.49,-1181.36 512.49,-1181.36 512.49,-1181.36 516.81,-1181.06 512.46,-1185.87 522.14,-1180.7"/>
<text text-anchor="start" x="518.82" y="-1191.4" font-family="Arial" font-size="10.00">FOREIGN KEY (model_key, association_key) REFERENCES association(model_key, association_key) ON DELETE CASCADE</text>
</g>
<!-- public.association_invariant -->
<g id="node5" class="node">
<title>public.association_invariant</title>
<polygon fill="#efefef" stroke="none" points="615.39,-1181.4 615.39,-1217 956.33,-1217 956.33,-1181.4 615.39,-1181.4"/>
<polygon fill="none" stroke="black" points="615.39,-1181.4 615.39,-1217 956.33,-1217 956.33,-1181.4 615.39,-1181.4"/>
<text text-anchor="start" x="622.39" y="-1194.8" font-family="Arial Bold" font-size="18.00">public.association_invariant</text>
<text text-anchor="start" x="824.84" y="-1194.8" font-family="Arial" font-size="14.00">    </text>
<text text-anchor="start" x="855.96" y="-1194.8" font-family="Arial" font-size="14.00" fill="#666666">[BASE TABLE]</text>
<polygon fill="none" stroke="black" points="615.39,-1150.6 615.39,-1181.4 956.33,-1181.4 956.33,-1150.6 615.39,-1150.6"/>
<text text-anchor="start" x="622.39" y="-1162.8" font-family="Arial" font-size="14.00">model_key </text>
<text text-anchor="start" x="693.99" y="-1162.8" font-family="Arial" font-size="14.00" fill="#666666">[text]</text>
<polygon fill="none" stroke="black" points="615.39,-1119.8 615.39,-1150.6 956.33,-1150.6 956.33,-1119.8 615.39,-1119.8"/>
<text text-anchor="start" x="622.39" y="-1132" font-family="Arial" font-size="14.00">association_key </text>
<text text-anchor="start" x="725.9" y="-1132" font-family="Arial" font-size="14.00" fill="#666666">[text]</text>
<polygon fill="none" stroke="black" points="615.39,-1089 615.39,-1119.8 956.33,-1119.8 956.33,-1089 615.39,-1089"/>
<text text-anchor="start" x="622.39" y="-1101.2" font-family="Arial" font-size="14.00">logic_key </text>
<text text-anchor="start" x="684.65" y="-1101.2" font-family="Arial" font-size="14.00" fill="#666666">[text]</text>
<polygon fill="none" stroke="black" points="615.39,-1058.2 615.39,-1089 956.33,-1089 956.33,-1058.2 615.39,-1058.2"/>
<text text-anchor="start" x="622.39" y="-1070.4" font-family="Arial" font-size="14.00">to_class_anchor </text>
<text text-anchor="start" x="728.23" y="-1070.4" font-family="Arial" font-size="14.00" fill="#666666">[boolean]</text>
</g>
<!-- public.association_invariant&#45;&gt;public.association -->
<g id="edge6" class="edge">
<title>public.association_invariant:model_key&#45;&gt;public.association:model_key</title>
<path fill="none" stroke="black" d="M604,-1165.15C551.75,-1155.88 588.63,-1072.38 615.39,-1015 630.3,-983.04 660.88,-995.53 675.84,-963.6 694.17,-924.48 720.04,-866.4 676.84,-866.4"/>
<polygon fill="black" stroke="black" points="604.09,-1165.16 613.69,-1170.46 609.41,-1165.59 613.73,-1165.95 613.73,-1165.95 613.73,-1165.95 609.41,-1165.59 614.42,-1161.49 604.09,-1165.16"/>
<text text-anchor="start" x="621.39" y="-1150" font-family="Arial" font-size="10.00">FOREIGN KEY (model_key, association_key) REFERENCES association(model_key, association_key) ON DELETE CASCADE</text>
</g>
</g>
</svg>
