<?xml version="1.0" encoding="UTF-8" standalone="no"?>
<!DOCTYPE svg PUBLIC "-//W3C//DTD SVG 1.1//EN"
 "http://www.w3.org/Graphics/SVG/1.1/DTD/svg11.dtd">
<!-- Generated by graphviz version 12.1.2 (20240928.0832)
 -->
<!-- Title: public.data_type_atomic2_enum_value Pages: 1 -->
<svg width="959pt" height="602pt"
 viewBox="0.00 0.00 959.07 602.00" xmlns="http://www.w3.org/2000/svg" xmlns:xlink="http://www.w3.org/1999/xlink">
<g id="graph0" class="graph" transform="scale(1 1) rotate(0) translate(4 598)">
<title>public.data_type_atomic2_enum_value</title>
<polygon fill="white" stroke="none" points="-4,4 -4,-598 955.07,-598 955.07,4 -4,4"/>
<!-- public.data_type_atomic2_enum_value -->
<g id="node1" class="node">
<title>public.data_type_atomic2_enum_value</title>
<polygon fill="#efefef" stroke="none" points="46.2,-512.2 46.2,-547.8 468.1,-547.8 468.1,-512.2 46.2,-512.2"/>
<polygon fill="none" stroke="black" points="46.2,-512.2 46.2,-547.8 468.1,-547.8 468.1,-512.2 46.2,-512.2"/>
<text text-anchor="start" x="53.2" y="-525.6" font-family="Arial Bold" font-size="18.00">public.data_type_atomic2_enum_value</text>
<text text-anchor="start" x="336.61" y="-525.6" font-family="Arial" font-size="14.00">    </text>
<text text-anchor="start" x="367.73" y="-525.6" font-family="Arial" font-size="14.00" fill="#666666">[BASE TABLE]</text>
<polygon fill="none" stroke="black" points="46.2,-481.4 46.2,-512.2 468.1,-512.2 468.1,-481.4 46.2,-481.4"/>
<text text-anchor="start" x="53.2" y="-493.6" font-family="Arial" font-size="14.00">data_type_id </text>
<text text-anchor="start" x="137.27" y="-493.6" font-family="Arial" font-size="14.00" fill="#666666">[bigint]</text>
<polygon fill="none" stroke="black" points="46.2,-450.6 46.2,-481.4 468.1,-481.4 468.1,-450.6 46.2,-450.6"/>
<text text-anchor="start" x="53.2" y="-462.8" font-family="Arial" font-size="14.00">value </text>
<text text-anchor="start" x="90.56" y="-462.8" font-family="Arial" font-size="14.00" fill="#666666">[text]</text>
<polygon fill="none" stroke="black" points="46.2,-419.8 46.2,-450.6 468.1,-450.6 468.1,-419.8 46.2,-419.8"/>
<text text-anchor="start" x="53.2" y="-432" font-family="Arial" font-size="14.00">sort_order </text>
<text text-anchor="start" x="120.9" y="-432" font-family="Arial" font-size="14.00" fill="#666666">[integer]</text>
<polygon fill="none" stroke="black" stroke-width="3" points="44.7,-418.3 44.7,-549.3 469.6,-549.3 469.6,-418.3 44.7,-418.3"/>
</g>
<!-- public.data_type_atomic2 -->
<g id="node2" class="node">
<title>public.data_type_atomic2</title>
<polygon fill="#efefef" stroke="none" points="94.68,-258.8 94.68,-294.4 419.62,-294.4 419.62,-258.8 94.68,-258.8"/>
<polygon fill="none" stroke="black" points="94.68,-258.8 94.68,-294.4 419.62,-294.4 419.62,-258.8 94.68,-258.8"/>
<text text-anchor="start" x="101.68" y="-272.2" font-family="Arial Bold" font-size="18.00">public.data_type_atomic2</text>
<text text-anchor="start" x="288.13" y="-272.2" font-family="Arial" font-size="14.00">    </text>
<text text-anchor="start" x="319.24" y="-272.2" font-family="Arial" font-size="14.00" fill="#666666">[BASE TABLE]</text>
<polygon fill="none" stroke="black" points="94.68,-228 94.68,-258.8 419.62,-258.8 419.62,-228 94.68,-228"/>
<text text-anchor="start" x="101.68" y="-240.2" font-family="Arial" font-size="14.00">data_type_id </text>
<text text-anchor="start" x="185.75" y="-240.2" font-family="Arial" font-size="14.00" fill="#666666">[integer]</text>
<polygon fill="none" stroke="black" points="94.68,-197.2 94.68,-228 419.62,-228 419.62,-197.2 94.68,-197.2"/>
<text text-anchor="start" x="101.68" y="-209.4" font-family="Arial" font-size="14.00">constraint_type </text>
<text text-anchor="start" x="200.52" y="-209.4" font-family="Arial" font-size="14.00" fill="#666666">[constraint_type]</text>
<polygon fill="none" stroke="black" points="94.68,-166.4 94.68,-197.2 419.62,-197.2 419.62,-166.4 94.68,-166.4"/>
<text text-anchor="start" x="101.68" y="-178.6" font-family="Arial" font-size="14.00">reference </text>
<text text-anchor="start" x="164.72" y="-178.6" font-family="Arial" font-size="14.00" fill="#666666">[text]</text>
<polygon fill="none" stroke="black" points="94.68,-135.6 94.68,-166.4 419.62,-166.4 419.62,-135.6 94.68,-135.6"/>
<text text-anchor="start" x="101.68" y="-147.8" font-family="Arial" font-size="14.00">enum_ordered </text>
<text text-anchor="start" x="196.64" y="-147.8" font-family="Arial" font-size="14.00" fill="#666666">[boolean]</text>
<polygon fill="none" stroke="black" points="94.68,-104.8 94.68,-135.6 419.62,-135.6 419.62,-104.8 94.68,-104.8"/>
<text text-anchor="start" x="101.68" y="-117" font-family="Arial" font-size="14.00">object_class_key </text>
<text text-anchor="start" x="212.19" y="-117" font-family="Arial" font-size="14.00" fill="#666666">[text]</text>
<polygon fill="none" stroke="black" points="94.68,-74 94.68,-104.8 419.62,-104.8 419.62,-74 94.68,-74"/>
<text text-anchor="start" x="101.68" y="-86.2" font-family="Arial" font-size="14.00">details </text>
<text text-anchor="start" x="146.04" y="-86.2" font-family="Arial" font-size="14.00" fill="#666666">[text]</text>
<polygon fill="none" stroke="black" points="94.68,-43.2 94.68,-74 419.62,-74 419.62,-43.2 94.68,-43.2"/>
<text text-anchor="start" x="101.68" y="-55.4" font-family="Arial" font-size="14.00">uml_comment </text>
<text text-anchor="start" x="193.49" y="-55.4" font-family="Arial" font-size="14.00" fill="#666666">[text]</text>
</g>
<!-- public.data_type_atomic2_enum_value&#45;&gt;public.data_type_atomic2 -->
<g id="edge1" class="edge">
<title>public.data_type_atomic2_enum_value:data_type_id&#45;&gt;public.data_type_atomic2:data_type_id</title>
<path fill="none" stroke="black" d="M479.38,-496.07C580.67,-481.21 531.7,-243.4 420.62,-243.4"/>
<polygon fill="black" stroke="black" points="479.41,-496.07 469.12,-492.29 474.09,-496.45 469.77,-496.75 469.77,-496.75 469.77,-496.75 474.09,-496.45 469.75,-501.27 479.41,-496.07"/>
<text text-anchor="start" x="476.1" y="-506.8" font-family="Arial" font-size="10.00">FOREIGN KEY (data_type_id) REFERENCES data_type_atomic2(data_type_id) ON DELETE CASCADE</text>
</g>
</g>
</svg>
