<?xml version="1.0" encoding="UTF-8" standalone="no"?>
<!DOCTYPE svg PUBLIC "-//W3C//DTD SVG 1.1//EN"
 "http://www.w3.org/Graphics/SVG/1.1/DTD/svg11.dtd">
<!-- Generated by graphviz version 12.1.2 (20240928.0832)
 -->
<!-- Title: public.action_require Pages: 1 -->
<svg width="1310pt" height="725pt"
 viewBox="0.00 0.00 1309.69 725.20" xmlns="http://www.w3.org/2000/svg" xmlns:xlink="http://www.w3.org/1999/xlink">
<g id="graph0" class="graph" transform="scale(1 1) rotate(0) translate(4 721.2)">
<title>public.action_require</title>
<polygon fill="white" stroke="none" points="-4,4 -4,-721.2 1305.69,-721.2 1305.69,4 -4,4"/>
<!-- public.action_require -->
<g id="node1" class="node">
<title>public.action_require</title>
<polygon fill="#efefef" stroke="none" points="495.7,-635.4 495.7,-671 787.63,-671 787.63,-635.4 495.7,-635.4"/>
<polygon fill="none" stroke="black" points="495.7,-635.4 495.7,-671 787.63,-671 787.63,-635.4 495.7,-635.4"/>
<text text-anchor="start" x="502.7" y="-648.8" font-family="Arial Bold" font-size="18.00">public.action_require</text>
<text text-anchor="start" x="656.14" y="-648.8" font-family="Arial" font-size="14.00">    </text>
<text text-anchor="start" x="687.26" y="-648.8" font-family="Arial" font-size="14.00" fill="#666666">[BASE TABLE]</text>
<polygon fill="none" stroke="black" points="495.7,-604.6 495.7,-635.4 787.63,-635.4 787.63,-604.6 495.7,-604.6"/>
<text text-anchor="start" x="502.7" y="-616.8" font-family="Arial" font-size="14.00">model_key </text>
<text text-anchor="start" x="574.3" y="-616.8" font-family="Arial" font-size="14.00" fill="#666666">[text]</text>
<polygon fill="none" stroke="black" points="495.7,-573.8 495.7,-604.6 787.63,-604.6 787.63,-573.8 495.7,-573.8"/>
<text text-anchor="start" x="502.7" y="-586" font-family="Arial" font-size="14.00">action_key </text>
<text text-anchor="start" x="573.52" y="-586" font-family="Arial" font-size="14.00" fill="#666666">[text]</text>
<polygon fill="none" stroke="black" points="495.7,-543 495.7,-573.8 787.63,-573.8 787.63,-543 495.7,-543"/>
<text text-anchor="start" x="502.7" y="-555.2" font-family="Arial" font-size="14.00">logic_key </text>
<text text-anchor="start" x="564.96" y="-555.2" font-family="Arial" font-size="14.00" fill="#666666">[text]</text>
<polygon fill="none" stroke="black" stroke-width="3" points="494.2,-541.5 494.2,-672.5 789.13,-672.5 789.13,-541.5 494.2,-541.5"/>
</g>
<!-- public.logic -->
<g id="node2" class="node">
<title>public.logic</title>
<polygon fill="#efefef" stroke="none" points="363.68,-382 363.68,-417.6 587.65,-417.6 587.65,-382 363.68,-382"/>
<polygon fill="none" stroke="black" points="363.68,-382 363.68,-417.6 587.65,-417.6 587.65,-382 363.68,-382"/>
<text text-anchor="start" x="370.68" y="-395.4" font-family="Arial Bold" font-size="18.00">public.logic</text>
<text text-anchor="start" x="456.16" y="-395.4" font-family="Arial" font-size="14.00">    </text>
<text text-anchor="start" x="487.28" y="-395.4" font-family="Arial" font-size="14.00" fill="#666666">[BASE TABLE]</text>
<polygon fill="none" stroke="black" points="363.68,-351.2 363.68,-382 587.65,-382 587.65,-351.2 363.68,-351.2"/>
<text text-anchor="start" x="370.68" y="-363.4" font-family="Arial" font-size="14.00">logic_key </text>
<text text-anchor="start" x="432.94" y="-363.4" font-family="Arial" font-size="14.00" fill="#666666">[text]</text>
<polygon fill="none" stroke="black" points="363.68,-320.4 363.68,-351.2 587.65,-351.2 587.65,-320.4 363.68,-320.4"/>
<text text-anchor="start" x="370.68" y="-332.6" font-family="Arial" font-size="14.00">model_key </text>
<text text-anchor="start" x="442.27" y="-332.6" font-family="Arial" font-size="14.00" fill="#666666">[text]</text>
<polygon fill="none" stroke="black" points="363.68,-289.6 363.68,-320.4 587.65,-320.4 587.65,-289.6 363.68,-289.6"/>
<text text-anchor="start" x="370.68" y="-301.8" font-family="Arial" font-size="14.00">sort_order </text>
<text text-anchor="start" x="438.38" y="-301.8" font-family="Arial" font-size="14.00" fill="#666666">[integer]</text>
<polygon fill="none" stroke="black" points="363.68,-258.8 363.68,-289.6 587.65,-289.6 587.65,-258.8 363.68,-258.8"/>
<text text-anchor="start" x="370.68" y="-271" font-family="Arial" font-size="14.00">logic_type </text>
<text text-anchor="start" x="437.61" y="-271" font-family="Arial" font-size="14.00" fill="#666666">[logic_type]</text>
<polygon fill="none" stroke="black" points="363.68,-228 363.68,-258.8 587.65,-258.8 587.65,-228 363.68,-228"/>
<text text-anchor="start" x="370.68" y="-240.2" font-family="Arial" font-size="14.00">description </text>
<text text-anchor="start" x="442.27" y="-240.2" font-family="Arial" font-size="14.00" fill="#666666">[text]</text>
<polygon fill="none" stroke="black" points="363.68,-197.2 363.68,-228 587.65,-228 587.65,-197.2 363.68,-197.2"/>
<text text-anchor="start" x="370.68" y="-209.4" font-family="Arial" font-size="14.00">target </text>
<text text-anchor="start" x="410.37" y="-209.4" font-family="Arial" font-size="14.00" fill="#666666">[text]</text>
<polygon fill="none" stroke="black" points="363.68,-166.4 363.68,-197.2 587.65,-197.2 587.65,-166.4 363.68,-166.4"/>
<text text-anchor="start" x="370.68" y="-178.6" font-family="Arial" font-size="14.00">notation </text>
<text text-anchor="start" x="424.39" y="-178.6" font-family="Arial" font-size="14.00" fill="#666666">[notation]</text>
<polygon fill="none" stroke="black" points="363.68,-135.6 363.68,-166.4 587.65,-166.4 587.65,-135.6 363.68,-135.6"/>
<text text-anchor="start" x="370.68" y="-147.8" font-family="Arial" font-size="14.00">specification </text>
<text text-anchor="start" x="451.61" y="-147.8" font-family="Arial" font-size="14.00" fill="#666666">[text]</text>
<polygon fill="none" stroke="black" points="363.68,-104.8 363.68,-135.6 587.65,-135.6 587.65,-104.8 363.68,-104.8"/>
<text text-anchor="start" x="370.68" y="-117" font-family="Arial" font-size="14.00">target_type_notation </text>
<text text-anchor="start" x="502.23" y="-117" font-family="Arial" font-size="14.00" fill="#666666">[notation]</text>
<polygon fill="none" stroke="black" points="363.68,-74 363.68,-104.8 587.65,-104.8 587.65,-74 363.68,-74"/>
<text text-anchor="start" x="370.68" y="-86.2" font-family="Arial" font-size="14.00">target_type_specification </text>
<text text-anchor="start" x="529.45" y="-86.2" font-family="Arial" font-size="14.00" fill="#666666">[text]</text>
<polygon fill="none" stroke="black" points="363.68,-43.2 363.68,-74 587.65,-74 587.65,-43.2 363.68,-43.2"/>
<text text-anchor="start" x="370.68" y="-55.4" font-family="Arial" font-size="14.00">delete_event_specification </text>
<text text-anchor="start" x="539.58" y="-55.4" font-family="Arial" font-size="14.00" fill="#666666">[text]</text>
</g>
<!-- public.action_require&#45;&gt;public.logic -->
<g id="edge1" class="edge">
<title>public.action_require:model_key&#45;&gt;public.logic:model_key</title>
<path fill="none" stroke="black" d="M484.56,-618.94C443.35,-609.48 466.78,-538.82 495.7,-496.8 520.59,-460.65 562.77,-496.95 587.65,-460.8 619.15,-415.03 644.21,-335.8 588.65,-335.8"/>
<polygon fill="black" stroke="black" points="484.42,-618.93 493.9,-624.44 489.73,-619.48 494.04,-619.93 494.04,-619.93 494.04,-619.93 489.73,-619.48 494.84,-615.49 484.42,-618.93"/>
<text text-anchor="start" x="7" y="-630" font-family="Arial" font-size="10.00">FOREIGN KEY (model_key, logic_key) REFERENCES logic(model_key, logic_key) ON DELETE CASCADE</text>
</g>
<!-- public.action -->
<g id="node3" class="node">
<title>public.action</title>
<polygon fill="#efefef" stroke="none" points="691.69,-289.6 691.69,-325.2 923.65,-325.2 923.65,-289.6 691.69,-289.6"/>
<polygon fill="none" stroke="black" points="691.69,-289.6 691.69,-325.2 923.65,-325.2 923.65,-289.6 691.69,-289.6"/>
<text text-anchor="start" x="698.69" y="-303" font-family="Arial Bold" font-size="18.00">public.action</text>
<text text-anchor="start" x="792.16" y="-303" font-family="Arial" font-size="14.00">    </text>
<text text-anchor="start" x="823.28" y="-303" font-family="Arial" font-size="14.00" fill="#666666">[BASE TABLE]</text>
<polygon fill="none" stroke="black" points="691.69,-258.8 691.69,-289.6 923.65,-289.6 923.65,-258.8 691.69,-258.8"/>
<text text-anchor="start" x="698.69" y="-271" font-family="Arial" font-size="14.00">model_key </text>
<text text-anchor="start" x="770.28" y="-271" font-family="Arial" font-size="14.00" fill="#666666">[text]</text>
<polygon fill="none" stroke="black" points="691.69,-228 691.69,-258.8 923.65,-258.8 923.65,-228 691.69,-228"/>
<text text-anchor="start" x="698.69" y="-240.2" font-family="Arial" font-size="14.00">class_key </text>
<text text-anchor="start" x="764.05" y="-240.2" font-family="Arial" font-size="14.00" fill="#666666">[text]</text>
<polygon fill="none" stroke="black" points="691.69,-197.2 691.69,-228 923.65,-228 923.65,-197.2 691.69,-197.2"/>
<text text-anchor="start" x="698.69" y="-209.4" font-family="Arial" font-size="14.00">action_key </text>
<text text-anchor="start" x="769.51" y="-209.4" font-family="Arial" font-size="14.00" fill="#666666">[text]</text>
<polygon fill="none" stroke="black" points="691.69,-166.4 691.69,-197.2 923.65,-197.2 923.65,-166.4 691.69,-166.4"/>
<text text-anchor="start" x="698.69" y="-178.6" font-family="Arial" font-size="14.00">name </text>
<text text-anchor="start" x="737.6" y="-178.6" font-family="Arial" font-size="14.00" fill="#666666">[text]</text>
<polygon fill="none" stroke="black" points="691.69,-135.6 691.69,-166.4 923.65,-166.4 923.65,-135.6 691.69,-135.6"/>
<text text-anchor="start" x="698.69" y="-147.8" font-family="Arial" font-size="14.00">details </text>
<text text-anchor="start" x="743.05" y="-147.8" font-family="Arial" font-size="14.00" fill="#666666">[text]</text>
</g>
<!-- public.action_require&#45;&gt;public.action -->
<g id="edge2" class="edge">
<title>public.action_require:model_key&#45;&gt;public.action:model_key</title>
<path fill="none" stroke="black" d="M798.84,-618.97C838.11,-610.07 803.88,-545.04 787.63,-496.8 764.89,-429.29 714.51,-435.88 691.69,-368.4 678.27,-328.74 648.82,-274.2 690.69,-274.2"/>
<polygon fill="black" stroke="black" points="798.91,-618.97 788.51,-615.49 793.61,-619.5 789.3,-619.93 789.3,-619.93 789.3,-619.93 793.61,-619.5 789.41,-624.44 798.91,-618.97"/>
<text text-anchor="start" x="795.63" y="-630" font-family="Arial" font-size="10.00">FOREIGN KEY (model_key, action_key) REFERENCES action(model_key, action_key) ON DELETE CASCADE</text>
</g>
</g>
</svg>
