<?xml version="1.0" encoding="UTF-8" standalone="no"?>
<!DOCTYPE svg PUBLIC "-//W3C//DTD SVG 1.1//EN"
 "http://www.w3.org/Graphics/SVG/1.1/DTD/svg11.dtd">
<!-- Generated by graphviz version 12.1.2 (20240928.0832)
 -->
<!-- Title: public.actor Pages: 1 -->
<svg width="1316pt" height="1191pt"
 viewBox="0.00 0.00 1315.98 1191.20" xmlns="http://www.w3.org/2000/svg" xmlns:xlink="http://www.w3.org/1999/xlink">
<g id="graph0" class="graph" transform="scale(1 1) rotate(0) translate(4 1187.2)">
<title>public.actor</title>
<polygon fill="white" stroke="none" points="-4,4 -4,-1187.2 1311.98,-1187.2 1311.98,4 -4,4"/>
<!-- public.actor -->
<g id="node1" class="node">
<title>public.actor</title>
<polygon fill="#efefef" stroke="none" points="435.71,-666.2 435.71,-701.8 659.66,-701.8 659.66,-666.2 435.71,-666.2"/>
<polygon fill="none" stroke="black" points="435.71,-666.2 435.71,-701.8 659.66,-701.8 659.66,-666.2 435.71,-666.2"/>
<text text-anchor="start" x="442.71" y="-679.6" font-family="Arial Bold" font-size="18.00">public.actor</text>
<text text-anchor="start" x="528.17" y="-679.6" font-family="Arial" font-size="14.00">    </text>
<text text-anchor="start" x="559.29" y="-679.6" font-family="Arial" font-size="14.00" fill="#666666">[BASE TABLE]</text>
<polygon fill="none" stroke="black" points="435.71,-635.4 435.71,-666.2 659.66,-666.2 659.66,-635.4 435.71,-635.4"/>
<text text-anchor="start" x="442.71" y="-647.6" font-family="Arial" font-size="14.00">model_key </text>
<text text-anchor="start" x="514.3" y="-647.6" font-family="Arial" font-size="14.00" fill="#666666">[text]</text>
<polygon fill="none" stroke="black" points="435.71,-604.6 435.71,-635.4 659.66,-635.4 659.66,-604.6 435.71,-604.6"/>
<text text-anchor="start" x="442.71" y="-616.8" font-family="Arial" font-size="14.00">actor_key </text>
<text text-anchor="start" x="507.29" y="-616.8" font-family="Arial" font-size="14.00" fill="#666666">[text]</text>
<polygon fill="none" stroke="black" points="435.71,-573.8 435.71,-604.6 659.66,-604.6 659.66,-573.8 435.71,-573.8"/>
<text text-anchor="start" x="442.71" y="-586" font-family="Arial" font-size="14.00">name </text>
<text text-anchor="start" x="481.62" y="-586" font-family="Arial" font-size="14.00" fill="#666666">[text]</text>
<polygon fill="none" stroke="black" points="435.71,-543 435.71,-573.8 659.66,-573.8 659.66,-543 435.71,-543"/>
<text text-anchor="start" x="442.71" y="-555.2" font-family="Arial" font-size="14.00">details </text>
<text text-anchor="start" x="487.07" y="-555.2" font-family="Arial" font-size="14.00" fill="#666666">[text]</text>
<polygon fill="none" stroke="black" points="435.71,-512.2 435.71,-543 659.66,-543 659.66,-512.2 435.71,-512.2"/>
<text text-anchor="start" x="442.71" y="-524.4" font-family="Arial" font-size="14.00">actor_type </text>
<text text-anchor="start" x="511.97" y="-524.4" font-family="Arial" font-size="14.00" fill="#666666">[actor_type]</text>
<polygon fill="none" stroke="black" points="435.71,-481.4 435.71,-512.2 659.66,-512.2 659.66,-481.4 435.71,-481.4"/>
<text text-anchor="start" x="442.71" y="-493.6" font-family="Arial" font-size="14.00">superclass_of_key </text>
<text text-anchor="start" x="562.55" y="-493.6" font-family="Arial" font-size="14.00" fill="#666666">[text]</text>
<polygon fill="none" stroke="black" points="435.71,-450.6 435.71,-481.4 659.66,-481.4 659.66,-450.6 435.71,-450.6"/>
<text text-anchor="start" x="442.71" y="-462.8" font-family="Arial" font-size="14.00">subclass_of_key </text>
<text text-anchor="start" x="550.1" y="-462.8" font-family="Arial" font-size="14.00" fill="#666666">[text]</text>
<polygon fill="none" stroke="black" points="435.71,-419.8 435.71,-450.6 659.66,-450.6 659.66,-419.8 435.71,-419.8"/>
<text text-anchor="start" x="442.71" y="-432" font-family="Arial" font-size="14.00">uml_comment </text>
<text text-anchor="start" x="534.52" y="-432" font-family="Arial" font-size="14.00" fill="#666666">[text]</text>
<polygon fill="none" stroke="black" stroke-width="3" points="434.21,-418.3 434.21,-703.3 661.16,-703.3 661.16,-418.3 434.21,-418.3"/>
</g>
<!-- public.model -->
<g id="node2" class="node">
<title>public.model</title>
<polygon fill="#efefef" stroke="none" points="43.2,-197.2 43.2,-232.8 276.17,-232.8 276.17,-197.2 43.2,-197.2"/>
<polygon fill="none" stroke="black" points="43.2,-197.2 43.2,-232.8 276.17,-232.8 276.17,-197.2 43.2,-197.2"/>
<text text-anchor="start" x="50.2" y="-210.6" font-family="Arial Bold" font-size="18.00">public.model</text>
<text text-anchor="start" x="144.68" y="-210.6" font-family="Arial" font-size="14.00">    </text>
<text text-anchor="start" x="175.8" y="-210.6" font-family="Arial" font-size="14.00" fill="#666666">[BASE TABLE]</text>
<polygon fill="none" stroke="black" points="43.2,-166.4 43.2,-197.2 276.17,-197.2 276.17,-166.4 43.2,-166.4"/>
<text text-anchor="start" x="50.2" y="-178.6" font-family="Arial" font-size="14.00">model_key </text>
<text text-anchor="start" x="121.79" y="-178.6" font-family="Arial" font-size="14.00" fill="#666666">[text]</text>
<polygon fill="none" stroke="black" points="43.2,-135.6 43.2,-166.4 276.17,-166.4 276.17,-135.6 43.2,-135.6"/>
<text text-anchor="start" x="50.2" y="-147.8" font-family="Arial" font-size="14.00">name </text>
<text text-anchor="start" x="89.11" y="-147.8" font-family="Arial" font-size="14.00" fill="#666666">[text]</text>
<polygon fill="none" stroke="black" points="43.2,-104.8 43.2,-135.6 276.17,-135.6 276.17,-104.8 43.2,-104.8"/>
<text text-anchor="start" x="50.2" y="-117" font-family="Arial" font-size="14.00">details </text>
<text text-anchor="start" x="94.56" y="-117" font-family="Arial" font-size="14.00" fill="#666666">[text]</text>
</g>
<!-- public.actor&#45;&gt;public.model -->
<g id="edge1" class="edge">
<title>public.actor:model_key&#45;&gt;public.model:model_key</title>
<path fill="none" stroke="black" d="M424.35,-650.49C291.75,-642.34 373.02,-473.76 327.69,-337.6 304.69,-268.53 349.96,-181.8 277.17,-181.8"/>
<polygon fill="black" stroke="black" points="424.38,-650.49 434.24,-655.29 429.71,-650.65 434.04,-650.78 434.04,-650.78 434.04,-650.78 429.71,-650.65 434.51,-646.29 424.38,-650.49"/>
<text text-anchor="start" x="34.83" y="-660.8" font-family="Arial" font-size="10.00">FOREIGN KEY (model_key) REFERENCES model(model_key) ON DELETE CASCADE</text>
</g>
<!-- public.actor_generalization -->
<g id="node3" class="node">
<title>public.actor_generalization</title>
<polygon fill="#efefef" stroke="none" points="380.24,-258.8 380.24,-294.4 715.14,-294.4 715.14,-258.8 380.24,-258.8"/>
<polygon fill="none" stroke="black" points="380.24,-258.8 380.24,-294.4 715.14,-294.4 715.14,-258.8 380.24,-258.8"/>
<text text-anchor="start" x="387.24" y="-272.2" font-family="Arial Bold" font-size="18.00">public.actor_generalization</text>
<text text-anchor="start" x="583.65" y="-272.2" font-family="Arial" font-size="14.00">    </text>
<text text-anchor="start" x="614.76" y="-272.2" font-family="Arial" font-size="14.00" fill="#666666">[BASE TABLE]</text>
<polygon fill="none" stroke="black" points="380.24,-228 380.24,-258.8 715.14,-258.8 715.14,-228 380.24,-228"/>
<text text-anchor="start" x="387.24" y="-240.2" font-family="Arial" font-size="14.00">model_key </text>
<text text-anchor="start" x="458.83" y="-240.2" font-family="Arial" font-size="14.00" fill="#666666">[text]</text>
<polygon fill="none" stroke="black" points="380.24,-197.2 380.24,-228 715.14,-228 715.14,-197.2 380.24,-197.2"/>
<text text-anchor="start" x="387.24" y="-209.4" font-family="Arial" font-size="14.00">generalization_key </text>
<text text-anchor="start" x="507.87" y="-209.4" font-family="Arial" font-size="14.00" fill="#666666">[text]</text>
<polygon fill="none" stroke="black" points="380.24,-166.4 380.24,-197.2 715.14,-197.2 715.14,-166.4 380.24,-166.4"/>
<text text-anchor="start" x="387.24" y="-178.6" font-family="Arial" font-size="14.00">name </text>
<text text-anchor="start" x="426.15" y="-178.6" font-family="Arial" font-size="14.00" fill="#666666">[text]</text>
<polygon fill="none" stroke="black" points="380.24,-135.6 380.24,-166.4 715.14,-166.4 715.14,-135.6 380.24,-135.6"/>
<text text-anchor="start" x="387.24" y="-147.8" font-family="Arial" font-size="14.00">is_complete </text>
<text text-anchor="start" x="465.83" y="-147.8" font-family="Arial" font-size="14.00" fill="#666666">[boolean]</text>
<polygon fill="none" stroke="black" points="380.24,-104.8 380.24,-135.6 715.14,-135.6 715.14,-104.8 380.24,-104.8"/>
<text text-anchor="start" x="387.24" y="-117" font-family="Arial" font-size="14.00">is_static </text>
<text text-anchor="start" x="441.7" y="-117" font-family="Arial" font-size="14.00" fill="#666666">[boolean]</text>
<polygon fill="none" stroke="black" points="380.24,-74 380.24,-104.8 715.14,-104.8 715.14,-74 380.24,-74"/>
<text text-anchor="start" x="387.24" y="-86.2" font-family="Arial" font-size="14.00">details </text>
<text text-anchor="start" x="431.6" y="-86.2" font-family="Arial" font-size="14.00" fill="#666666">[text]</text>
<polygon fill="none" stroke="black" points="380.24,-43.2 380.24,-74 715.14,-74 715.14,-43.2 380.24,-43.2"/>
<text text-anchor="start" x="387.24" y="-55.4" font-family="Arial" font-size="14.00">uml_comment </text>
<text text-anchor="start" x="479.04" y="-55.4" font-family="Arial" font-size="14.00" fill="#666666">[text]</text>
</g>
<!-- public.actor&#45;&gt;public.actor_generalization -->
<g id="edge2" class="edge">
<title>public.actor:model_key&#45;&gt;public.actor_generalization:model_key</title>
<path fill="none" stroke="black" d="M670.65,-648.8C747.35,-618.07 795.13,-243.4 716.14,-243.4"/>
<polygon fill="black" stroke="black" points="670.8,-648.77 660.11,-646.32 665.57,-649.82 661.32,-650.67 661.32,-650.67 661.32,-650.67 665.57,-649.82 661.87,-655.15 670.8,-648.77"/>
<text text-anchor="start" x="667.66" y="-660.8" font-family="Arial" font-size="10.00">FOREIGN KEY (model_key, subclass_of_key) REFERENCES actor_generalization(model_key, generalization_key) ON DELETE CASCADE</text>
</g>
<!-- public.actor&#45;&gt;public.actor_generalization -->
<g id="edge3" class="edge">
<title>public.actor:model_key&#45;&gt;public.actor_generalization:model_key</title>
<path fill="none" stroke="black" d="M671.06,-649.33C764.64,-622.74 812.88,-244.17 716.43,-243.4"/>
<polygon fill="black" stroke="black" points="671.18,-649.31 660.64,-646.3 665.9,-650.08 661.62,-650.7 661.62,-650.7 661.62,-650.7 665.9,-650.08 661.94,-655.2 671.18,-649.31"/>
<text text-anchor="start" x="667.96" y="-634.8" font-family="Arial" font-size="10.00">FOREIGN KEY (model_key, superclass_of_key) REFERENCES actor_generalization(model_key, generalization_key) ON DELETE CASCADE</text>
</g>
<!-- public.class -->
<g id="node4" class="node">
<title>public.class</title>
<polygon fill="#efefef" stroke="none" points="436.2,-1104.4 436.2,-1140 659.17,-1140 659.17,-1104.4 436.2,-1104.4"/>
<polygon fill="none" stroke="black" points="436.2,-1104.4 436.2,-1140 659.17,-1140 659.17,-1104.4 436.2,-1104.4"/>
<text text-anchor="start" x="443.2" y="-1117.8" font-family="Arial Bold" font-size="18.00">public.class</text>
<text text-anchor="start" x="527.68" y="-1117.8" font-family="Arial" font-size="14.00">    </text>
<text text-anchor="start" x="558.8" y="-1117.8" font-family="Arial" font-size="14.00" fill="#666666">[BASE TABLE]</text>
<polygon fill="none" stroke="black" points="436.2,-1073.6 436.2,-1104.4 659.17,-1104.4 659.17,-1073.6 436.2,-1073.6"/>
<text text-anchor="start" x="443.2" y="-1085.8" font-family="Arial" font-size="14.00">model_key </text>
<text text-anchor="start" x="514.79" y="-1085.8" font-family="Arial" font-size="14.00" fill="#666666">[text]</text>
<polygon fill="none" stroke="black" points="436.2,-1042.8 436.2,-1073.6 659.17,-1073.6 659.17,-1042.8 436.2,-1042.8"/>
<text text-anchor="start" x="443.2" y="-1055" font-family="Arial" font-size="14.00">class_key </text>
<text text-anchor="start" x="508.56" y="-1055" font-family="Arial" font-size="14.00" fill="#666666">[text]</text>
<polygon fill="none" stroke="black" points="436.2,-1012 436.2,-1042.8 659.17,-1042.8 659.17,-1012 436.2,-1012"/>
<text text-anchor="start" x="443.2" y="-1024.2" font-family="Arial" font-size="14.00">name </text>
<text text-anchor="start" x="482.11" y="-1024.2" font-family="Arial" font-size="14.00" fill="#666666">[text]</text>
<polygon fill="none" stroke="black" points="436.2,-981.2 436.2,-1012 659.17,-1012 659.17,-981.2 436.2,-981.2"/>
<text text-anchor="start" x="443.2" y="-993.4" font-family="Arial" font-size="14.00">subdomain_key </text>
<text text-anchor="start" x="545.15" y="-993.4" font-family="Arial" font-size="14.00" fill="#666666">[text]</text>
<polygon fill="none" stroke="black" points="436.2,-950.4 436.2,-981.2 659.17,-981.2 659.17,-950.4 436.2,-950.4"/>
<text text-anchor="start" x="443.2" y="-962.6" font-family="Arial" font-size="14.00">actor_key </text>
<text text-anchor="start" x="507.79" y="-962.6" font-family="Arial" font-size="14.00" fill="#666666">[text]</text>
<polygon fill="none" stroke="black" points="436.2,-919.6 436.2,-950.4 659.17,-950.4 659.17,-919.6 436.2,-919.6"/>
<text text-anchor="start" x="443.2" y="-931.8" font-family="Arial" font-size="14.00">superclass_of_key </text>
<text text-anchor="start" x="563.04" y="-931.8" font-family="Arial" font-size="14.00" fill="#666666">[text]</text>
<polygon fill="none" stroke="black" points="436.2,-888.8 436.2,-919.6 659.17,-919.6 659.17,-888.8 436.2,-888.8"/>
<text text-anchor="start" x="443.2" y="-901" font-family="Arial" font-size="14.00">subclass_of_key </text>
<text text-anchor="start" x="550.59" y="-901" font-family="Arial" font-size="14.00" fill="#666666">[text]</text>
<polygon fill="none" stroke="black" points="436.2,-858 436.2,-888.8 659.17,-888.8 659.17,-858 436.2,-858"/>
<text text-anchor="start" x="443.2" y="-870.2" font-family="Arial" font-size="14.00">details </text>
<text text-anchor="start" x="487.56" y="-870.2" font-family="Arial" font-size="14.00" fill="#666666">[text]</text>
<polygon fill="none" stroke="black" points="436.2,-827.2 436.2,-858 659.17,-858 659.17,-827.2 436.2,-827.2"/>
<text text-anchor="start" x="443.2" y="-839.4" font-family="Arial" font-size="14.00">uml_comment </text>
<text text-anchor="start" x="535.01" y="-839.4" font-family="Arial" font-size="14.00" fill="#666666">[text]</text>
</g>
<!-- public.class&#45;&gt;public.actor -->
<g id="edge4" class="edge">
<title>public.class:model_key&#45;&gt;public.actor:model_key</title>
<path fill="none" stroke="black" d="M670.35,-1087.33C757.46,-1057.91 754.52,-650.8 660.66,-650.8"/>
<polygon fill="black" stroke="black" points="670.37,-1087.32 659.77,-1084.51 665.1,-1088.19 660.83,-1088.89 660.83,-1088.89 660.83,-1088.89 665.1,-1088.19 661.23,-1093.39 670.37,-1087.32"/>
<text text-anchor="start" x="667.17" y="-1099" font-family="Arial" font-size="10.00">FOREIGN KEY (model_key, actor_key) REFERENCES actor(model_key, actor_key) ON DELETE CASCADE</text>
</g>
</g>
</svg>
