<?xml version="1.0" encoding="UTF-8" standalone="no"?>
<!DOCTYPE svg PUBLIC "-//W3C//DTD SVG 1.1//EN"
 "http://www.w3.org/Graphics/SVG/1.1/DTD/svg11.dtd">
<!-- Generated by graphviz version 12.1.2 (20240928.0832)
 -->
<!-- Title: public.data_type Pages: 1 -->
<svg width="1996pt" height="1037pt"
 viewBox="0.00 0.00 1995.63 1037.20" xmlns="http://www.w3.org/2000/svg" xmlns:xlink="http://www.w3.org/1999/xlink">
<g id="graph0" class="graph" transform="scale(1 1) rotate(0) translate(4 1033.2)">
<title>public.data_type</title>
<polygon fill="white" stroke="none" points="-4,4 -4,-1033.2 1991.63,-1033.2 1991.63,4 -4,4"/>
<!-- public.data_type -->
<g id="node1" class="node">
<title>public.data_type</title>
<polygon fill="#efefef" stroke="none" points="688.84,-481.4 688.84,-517 946.79,-517 946.79,-481.4 688.84,-481.4"/>
<polygon fill="none" stroke="black" points="688.84,-481.4 688.84,-517 946.79,-517 946.79,-481.4 688.84,-481.4"/>
<text text-anchor="start" x="695.84" y="-494.8" font-family="Arial Bold" font-size="18.00">public.data_type</text>
<text text-anchor="start" x="815.3" y="-494.8" font-family="Arial" font-size="14.00">    </text>
<text text-anchor="start" x="846.42" y="-494.8" font-family="Arial" font-size="14.00" fill="#666666">[BASE TABLE]</text>
<polygon fill="none" stroke="black" points="688.84,-450.6 688.84,-481.4 946.79,-481.4 946.79,-450.6 688.84,-450.6"/>
<text text-anchor="start" x="695.84" y="-462.8" font-family="Arial" font-size="14.00">model_key </text>
<text text-anchor="start" x="767.43" y="-462.8" font-family="Arial" font-size="14.00" fill="#666666">[text]</text>
<polygon fill="none" stroke="black" points="688.84,-419.8 688.84,-450.6 946.79,-450.6 946.79,-419.8 688.84,-419.8"/>
<text text-anchor="start" x="695.84" y="-432" font-family="Arial" font-size="14.00">data_type_key </text>
<text text-anchor="start" x="790.8" y="-432" font-family="Arial" font-size="14.00" fill="#666666">[text]</text>
<polygon fill="none" stroke="black" points="688.84,-389 688.84,-419.8 946.79,-419.8 946.79,-389 688.84,-389"/>
<text text-anchor="start" x="695.84" y="-401.2" font-family="Arial" font-size="14.00">collection_type </text>
<text text-anchor="start" x="792.34" y="-401.2" font-family="Arial" font-size="14.00" fill="#666666">[collection_type]</text>
<polygon fill="none" stroke="black" points="688.84,-358.2 688.84,-389 946.79,-389 946.79,-358.2 688.84,-358.2"/>
<text text-anchor="start" x="695.84" y="-370.4" font-family="Arial" font-size="14.00">collection_unique </text>
<text text-anchor="start" x="807.92" y="-370.4" font-family="Arial" font-size="14.00" fill="#666666">[boolean]</text>
<polygon fill="none" stroke="black" points="688.84,-327.4 688.84,-358.2 946.79,-358.2 946.79,-327.4 688.84,-327.4"/>
<text text-anchor="start" x="695.84" y="-339.6" font-family="Arial" font-size="14.00">collection_min </text>
<text text-anchor="start" x="788.44" y="-339.6" font-family="Arial" font-size="14.00" fill="#666666">[bigint]</text>
<polygon fill="none" stroke="black" points="688.84,-296.6 688.84,-327.4 946.79,-327.4 946.79,-296.6 688.84,-296.6"/>
<text text-anchor="start" x="695.84" y="-308.8" font-family="Arial" font-size="14.00">collection_max </text>
<text text-anchor="start" x="792.33" y="-308.8" font-family="Arial" font-size="14.00" fill="#666666">[bigint]</text>
<polygon fill="none" stroke="black" stroke-width="3" points="687.34,-295.1 687.34,-518.5 948.29,-518.5 948.29,-295.1 687.34,-295.1"/>
</g>
<!-- public.model -->
<g id="node2" class="node">
<title>public.model</title>
<polygon fill="#efefef" stroke="none" points="701.33,-135.6 701.33,-171.2 934.3,-171.2 934.3,-135.6 701.33,-135.6"/>
<polygon fill="none" stroke="black" points="701.33,-135.6 701.33,-171.2 934.3,-171.2 934.3,-135.6 701.33,-135.6"/>
<text text-anchor="start" x="708.33" y="-149" font-family="Arial Bold" font-size="18.00">public.model</text>
<text text-anchor="start" x="802.81" y="-149" font-family="Arial" font-size="14.00">    </text>
<text text-anchor="start" x="833.93" y="-149" font-family="Arial" font-size="14.00" fill="#666666">[BASE TABLE]</text>
<polygon fill="none" stroke="black" points="701.33,-104.8 701.33,-135.6 934.3,-135.6 934.3,-104.8 701.33,-104.8"/>
<text text-anchor="start" x="708.33" y="-117" font-family="Arial" font-size="14.00">model_key </text>
<text text-anchor="start" x="779.92" y="-117" font-family="Arial" font-size="14.00" fill="#666666">[text]</text>
<polygon fill="none" stroke="black" points="701.33,-74 701.33,-104.8 934.3,-104.8 934.3,-74 701.33,-74"/>
<text text-anchor="start" x="708.33" y="-86.2" font-family="Arial" font-size="14.00">name </text>
<text text-anchor="start" x="747.24" y="-86.2" font-family="Arial" font-size="14.00" fill="#666666">[text]</text>
<polygon fill="none" stroke="black" points="701.33,-43.2 701.33,-74 934.3,-74 934.3,-43.2 701.33,-43.2"/>
<text text-anchor="start" x="708.33" y="-55.4" font-family="Arial" font-size="14.00">details </text>
<text text-anchor="start" x="752.69" y="-55.4" font-family="Arial" font-size="14.00" fill="#666666">[text]</text>
</g>
<!-- public.data_type&#45;&gt;public.model -->
<g id="edge1" class="edge">
<title>public.data_type:model_key&#45;&gt;public.model:model_key</title>
<path fill="none" stroke="black" d="M957.9,-465.48C1100.95,-450.64 1085.64,-120.2 935.3,-120.2"/>
<polygon fill="black" stroke="black" points="958.11,-465.47 947.9,-461.49 952.78,-465.75 948.46,-465.97 948.46,-465.97 948.46,-465.97 952.78,-465.75 948.35,-470.48 958.11,-465.47"/>
<text text-anchor="start" x="954.79" y="-476" font-family="Arial" font-size="10.00">FOREIGN KEY (model_key) REFERENCES model(model_key) ON DELETE CASCADE</text>
</g>
<!-- public.data_type_atomic -->
<g id="node3" class="node">
<title>public.data_type_atomic</title>
<polygon fill="#efefef" stroke="none" points="247.85,-888.8 247.85,-924.4 563.78,-924.4 563.78,-888.8 247.85,-888.8"/>
<polygon fill="none" stroke="black" points="247.85,-888.8 247.85,-924.4 563.78,-924.4 563.78,-888.8 247.85,-888.8"/>
<text text-anchor="start" x="254.85" y="-902.2" font-family="Arial Bold" font-size="18.00">public.data_type_atomic</text>
<text text-anchor="start" x="432.29" y="-902.2" font-family="Arial" font-size="14.00">    </text>
<text text-anchor="start" x="463.41" y="-902.2" font-family="Arial" font-size="14.00" fill="#666666">[BASE TABLE]</text>
<polygon fill="none" stroke="black" points="247.85,-858 247.85,-888.8 563.78,-888.8 563.78,-858 247.85,-858"/>
<text text-anchor="start" x="254.85" y="-870.2" font-family="Arial" font-size="14.00">model_key </text>
<text text-anchor="start" x="326.44" y="-870.2" font-family="Arial" font-size="14.00" fill="#666666">[text]</text>
<polygon fill="none" stroke="black" points="247.85,-827.2 247.85,-858 563.78,-858 563.78,-827.2 247.85,-827.2"/>
<text text-anchor="start" x="254.85" y="-839.4" font-family="Arial" font-size="14.00">data_type_key </text>
<text text-anchor="start" x="349.81" y="-839.4" font-family="Arial" font-size="14.00" fill="#666666">[text]</text>
<polygon fill="none" stroke="black" points="247.85,-796.4 247.85,-827.2 563.78,-827.2 563.78,-796.4 247.85,-796.4"/>
<text text-anchor="start" x="254.85" y="-808.6" font-family="Arial" font-size="14.00">constraint_type </text>
<text text-anchor="start" x="353.68" y="-808.6" font-family="Arial" font-size="14.00" fill="#666666">[constraint_type]</text>
<polygon fill="none" stroke="black" points="247.85,-765.6 247.85,-796.4 563.78,-796.4 563.78,-765.6 247.85,-765.6"/>
<text text-anchor="start" x="254.85" y="-777.8" font-family="Arial" font-size="14.00">reference </text>
<text text-anchor="start" x="317.88" y="-777.8" font-family="Arial" font-size="14.00" fill="#666666">[text]</text>
<polygon fill="none" stroke="black" points="247.85,-734.8 247.85,-765.6 563.78,-765.6 563.78,-734.8 247.85,-734.8"/>
<text text-anchor="start" x="254.85" y="-747" font-family="Arial" font-size="14.00">enum_ordered </text>
<text text-anchor="start" x="349.8" y="-747" font-family="Arial" font-size="14.00" fill="#666666">[boolean]</text>
<polygon fill="none" stroke="black" points="247.85,-704 247.85,-734.8 563.78,-734.8 563.78,-704 247.85,-704"/>
<text text-anchor="start" x="254.85" y="-716.2" font-family="Arial" font-size="14.00">object_class_key </text>
<text text-anchor="start" x="365.35" y="-716.2" font-family="Arial" font-size="14.00" fill="#666666">[text]</text>
</g>
<!-- public.data_type_atomic&#45;&gt;public.data_type -->
<g id="edge2" class="edge">
<title>public.data_type_atomic:model_key&#45;&gt;public.data_type:model_key</title>
<path fill="none" stroke="black" d="M574.74,-871.25C623.24,-848.66 596.37,-654.21 615.82,-599.2 638.25,-535.75 620.54,-466 687.84,-466"/>
<polygon fill="black" stroke="black" points="574.88,-871.22 564.16,-868.93 569.67,-872.35 565.44,-873.26 565.44,-873.26 565.44,-873.26 569.67,-872.35 566.06,-877.73 574.88,-871.22"/>
<text text-anchor="start" x="7" y="-883.4" font-family="Arial" font-size="10.00">FOREIGN KEY (model_key, data_type_key) REFERENCES data_type(model_key, data_type_key) ON DELETE CASCADE</text>
</g>
<!-- public.data_type_field -->
<g id="node4" class="node">
<title>public.data_type_field</title>
<polygon fill="#efefef" stroke="none" points="667.85,-858 667.85,-893.6 967.78,-893.6 967.78,-858 667.85,-858"/>
<polygon fill="none" stroke="black" points="667.85,-858 667.85,-893.6 967.78,-893.6 967.78,-858 667.85,-858"/>
<text text-anchor="start" x="674.85" y="-871.4" font-family="Arial Bold" font-size="18.00">public.data_type_field</text>
<text text-anchor="start" x="836.29" y="-871.4" font-family="Arial" font-size="14.00">    </text>
<text text-anchor="start" x="867.41" y="-871.4" font-family="Arial" font-size="14.00" fill="#666666">[BASE TABLE]</text>
<polygon fill="none" stroke="black" points="667.85,-827.2 667.85,-858 967.78,-858 967.78,-827.2 667.85,-827.2"/>
<text text-anchor="start" x="674.85" y="-839.4" font-family="Arial" font-size="14.00">model_key </text>
<text text-anchor="start" x="746.44" y="-839.4" font-family="Arial" font-size="14.00" fill="#666666">[text]</text>
<polygon fill="none" stroke="black" points="667.85,-796.4 667.85,-827.2 967.78,-827.2 967.78,-796.4 667.85,-796.4"/>
<text text-anchor="start" x="674.85" y="-808.6" font-family="Arial" font-size="14.00">data_type_key </text>
<text text-anchor="start" x="769.81" y="-808.6" font-family="Arial" font-size="14.00" fill="#666666">[text]</text>
<polygon fill="none" stroke="black" points="667.85,-765.6 667.85,-796.4 967.78,-796.4 967.78,-765.6 667.85,-765.6"/>
<text text-anchor="start" x="674.85" y="-777.8" font-family="Arial" font-size="14.00">name </text>
<text text-anchor="start" x="713.76" y="-777.8" font-family="Arial" font-size="14.00" fill="#666666">[text]</text>
<polygon fill="none" stroke="black" points="667.85,-734.8 667.85,-765.6 967.78,-765.6 967.78,-734.8 667.85,-734.8"/>
<text text-anchor="start" x="674.85" y="-747" font-family="Arial" font-size="14.00">field_data_type_key </text>
<text text-anchor="start" x="803.27" y="-747" font-family="Arial" font-size="14.00" fill="#666666">[text]</text>
</g>
<!-- public.data_type_field&#45;&gt;public.data_type -->
<g id="edge3" class="edge">
<title>public.data_type_field:model_key&#45;&gt;public.data_type:model_key</title>
<path fill="none" stroke="black" d="M975.96,-835.08C998.08,-782 977.94,-466 947.79,-466"/>
<polygon fill="black" stroke="black" points="975.92,-835.12 965.76,-839.25 972.23,-838.98 969.24,-842.12 969.24,-842.12 969.24,-842.12 972.23,-838.98 972.27,-845.46 975.92,-835.12"/>
<text text-anchor="start" x="411" y="-852.6" font-family="Arial" font-size="10.00">FOREIGN KEY (model_key, data_type_key) REFERENCES data_type(model_key, data_type_key) ON DELETE CASCADE</text>
</g>
<!-- public.data_type_field&#45;&gt;public.data_type -->
<g id="edge4" class="edge">
<title>public.data_type_field:model_key&#45;&gt;public.data_type:model_key</title>
<path fill="none" stroke="black" d="M978.2,-837.6C1016.61,-793.15 995.32,-467.37 948.09,-466"/>
<polygon fill="black" stroke="black" points="978.14,-837.63 967.21,-838.49 973.47,-840.19 969.67,-842.27 969.67,-842.27 969.67,-842.27 973.47,-840.19 971.54,-846.38 978.14,-837.63"/>
<text text-anchor="start" x="387.39" y="-826.6" font-family="Arial" font-size="10.00">FOREIGN KEY (model_key, field_data_type_key) REFERENCES data_type(model_key, data_type_key) ON DELETE CASCADE</text>
</g>
<!-- public.attribute -->
<g id="node5" class="node">
<title>public.attribute</title>
<polygon fill="#efefef" stroke="none" points="1071.84,-950.4 1071.84,-986 1319.79,-986 1319.79,-950.4 1071.84,-950.4"/>
<polygon fill="none" stroke="black" points="1071.84,-950.4 1071.84,-986 1319.79,-986 1319.79,-950.4 1071.84,-950.4"/>
<text text-anchor="start" x="1078.84" y="-963.8" font-family="Arial Bold" font-size="18.00">public.attribute</text>
<text text-anchor="start" x="1188.3" y="-963.8" font-family="Arial" font-size="14.00">    </text>
<text text-anchor="start" x="1219.42" y="-963.8" font-family="Arial" font-size="14.00" fill="#666666">[BASE TABLE]</text>
<polygon fill="none" stroke="black" points="1071.84,-919.6 1071.84,-950.4 1319.79,-950.4 1319.79,-919.6 1071.84,-919.6"/>
<text text-anchor="start" x="1078.84" y="-931.8" font-family="Arial" font-size="14.00">model_key </text>
<text text-anchor="start" x="1150.43" y="-931.8" font-family="Arial" font-size="14.00" fill="#666666">[text]</text>
<polygon fill="none" stroke="black" points="1071.84,-888.8 1071.84,-919.6 1319.79,-919.6 1319.79,-888.8 1071.84,-888.8"/>
<text text-anchor="start" x="1078.84" y="-901" font-family="Arial" font-size="14.00">attribute_key </text>
<text text-anchor="start" x="1162.88" y="-901" font-family="Arial" font-size="14.00" fill="#666666">[text]</text>
<polygon fill="none" stroke="black" points="1071.84,-858 1071.84,-888.8 1319.79,-888.8 1319.79,-858 1071.84,-858"/>
<text text-anchor="start" x="1078.84" y="-870.2" font-family="Arial" font-size="14.00">class_key </text>
<text text-anchor="start" x="1144.2" y="-870.2" font-family="Arial" font-size="14.00" fill="#666666">[text]</text>
<polygon fill="none" stroke="black" points="1071.84,-827.2 1071.84,-858 1319.79,-858 1319.79,-827.2 1071.84,-827.2"/>
<text text-anchor="start" x="1078.84" y="-839.4" font-family="Arial" font-size="14.00">name </text>
<text text-anchor="start" x="1117.75" y="-839.4" font-family="Arial" font-size="14.00" fill="#666666">[text]</text>
<polygon fill="none" stroke="black" points="1071.84,-796.4 1071.84,-827.2 1319.79,-827.2 1319.79,-796.4 1071.84,-796.4"/>
<text text-anchor="start" x="1078.84" y="-808.6" font-family="Arial" font-size="14.00">details </text>
<text text-anchor="start" x="1123.2" y="-808.6" font-family="Arial" font-size="14.00" fill="#666666">[text]</text>
<polygon fill="none" stroke="black" points="1071.84,-765.6 1071.84,-796.4 1319.79,-796.4 1319.79,-765.6 1071.84,-765.6"/>
<text text-anchor="start" x="1078.84" y="-777.8" font-family="Arial" font-size="14.00">data_type_rules </text>
<text text-anchor="start" x="1182.35" y="-777.8" font-family="Arial" font-size="14.00" fill="#666666">[text]</text>
<polygon fill="none" stroke="black" points="1071.84,-734.8 1071.84,-765.6 1319.79,-765.6 1319.79,-734.8 1071.84,-734.8"/>
<text text-anchor="start" x="1078.84" y="-747" font-family="Arial" font-size="14.00">data_type_key </text>
<text text-anchor="start" x="1173.79" y="-747" font-family="Arial" font-size="14.00" fill="#666666">[text]</text>
<polygon fill="none" stroke="black" points="1071.84,-704 1071.84,-734.8 1319.79,-734.8 1319.79,-704 1071.84,-704"/>
<text text-anchor="start" x="1078.84" y="-716.2" font-family="Arial" font-size="14.00">derivation_policy </text>
<text text-anchor="start" x="1187.01" y="-716.2" font-family="Arial" font-size="14.00" fill="#666666">[text]</text>
<polygon fill="none" stroke="black" points="1071.84,-673.2 1071.84,-704 1319.79,-704 1319.79,-673.2 1071.84,-673.2"/>
<text text-anchor="start" x="1078.84" y="-685.4" font-family="Arial" font-size="14.00">nullable </text>
<text text-anchor="start" x="1130.99" y="-685.4" font-family="Arial" font-size="14.00" fill="#666666">[boolean]</text>
<polygon fill="none" stroke="black" points="1071.84,-642.4 1071.84,-673.2 1319.79,-673.2 1319.79,-642.4 1071.84,-642.4"/>
<text text-anchor="start" x="1078.84" y="-654.6" font-family="Arial" font-size="14.00">uml_comment </text>
<text text-anchor="start" x="1170.64" y="-654.6" font-family="Arial" font-size="14.00" fill="#666666">[text]</text>
</g>
<!-- public.attribute&#45;&gt;public.data_type -->
<g id="edge5" class="edge">
<title>public.attribute:model_key&#45;&gt;public.data_type:model_key</title>
<path fill="none" stroke="black" d="M1060.64,-933.16C999.92,-909.66 1042.62,-667.28 1019.82,-599.2 998.44,-535.39 1015.09,-466 947.79,-466"/>
<polygon fill="black" stroke="black" points="1060.67,-933.17 1069.71,-939.37 1065.92,-934.11 1070.18,-934.88 1070.18,-934.88 1070.18,-934.88 1065.92,-934.11 1071.31,-930.51 1060.67,-933.17"/>
<text text-anchor="start" x="513.06" y="-945" font-family="Arial" font-size="10.00">FOREIGN KEY (model_key, data_type_key) REFERENCES data_type(model_key, data_type_key) ON DELETE CASCADE</text>
</g>
<!-- public.parameter -->
<g id="node6" class="node">
<title>public.parameter</title>
<polygon fill="#efefef" stroke="none" points="1423.85,-919.6 1423.85,-955.2 1683.78,-955.2 1683.78,-919.6 1423.85,-919.6"/>
<polygon fill="none" stroke="black" points="1423.85,-919.6 1423.85,-955.2 1683.78,-955.2 1683.78,-919.6 1423.85,-919.6"/>
<text text-anchor="start" x="1430.85" y="-933" font-family="Arial Bold" font-size="18.00">public.parameter</text>
<text text-anchor="start" x="1552.29" y="-933" font-family="Arial" font-size="14.00">    </text>
<text text-anchor="start" x="1583.41" y="-933" font-family="Arial" font-size="14.00" fill="#666666">[BASE TABLE]</text>
<polygon fill="none" stroke="black" points="1423.85,-888.8 1423.85,-919.6 1683.78,-919.6 1683.78,-888.8 1423.85,-888.8"/>
<text text-anchor="start" x="1430.85" y="-901" font-family="Arial" font-size="14.00">model_key </text>
<text text-anchor="start" x="1502.44" y="-901" font-family="Arial" font-size="14.00" fill="#666666">[text]</text>
<polygon fill="none" stroke="black" points="1423.85,-858 1423.85,-888.8 1683.78,-888.8 1683.78,-858 1423.85,-858"/>
<text text-anchor="start" x="1430.85" y="-870.2" font-family="Arial" font-size="14.00">parameter_key </text>
<text text-anchor="start" x="1528.12" y="-870.2" font-family="Arial" font-size="14.00" fill="#666666">[text]</text>
<polygon fill="none" stroke="black" points="1423.85,-827.2 1423.85,-858 1683.78,-858 1683.78,-827.2 1423.85,-827.2"/>
<text text-anchor="start" x="1430.85" y="-839.4" font-family="Arial" font-size="14.00">action_key </text>
<text text-anchor="start" x="1501.67" y="-839.4" font-family="Arial" font-size="14.00" fill="#666666">[text]</text>
<polygon fill="none" stroke="black" points="1423.85,-796.4 1423.85,-827.2 1683.78,-827.2 1683.78,-796.4 1423.85,-796.4"/>
<text text-anchor="start" x="1430.85" y="-808.6" font-family="Arial" font-size="14.00">data_type_rules </text>
<text text-anchor="start" x="1534.37" y="-808.6" font-family="Arial" font-size="14.00" fill="#666666">[text]</text>
<polygon fill="none" stroke="black" points="1423.85,-765.6 1423.85,-796.4 1683.78,-796.4 1683.78,-765.6 1423.85,-765.6"/>
<text text-anchor="start" x="1430.85" y="-777.8" font-family="Arial" font-size="14.00">data_type_key </text>
<text text-anchor="start" x="1525.81" y="-777.8" font-family="Arial" font-size="14.00" fill="#666666">[text]</text>
<polygon fill="none" stroke="black" points="1423.85,-734.8 1423.85,-765.6 1683.78,-765.6 1683.78,-734.8 1423.85,-734.8"/>
<text text-anchor="start" x="1430.85" y="-747" font-family="Arial" font-size="14.00">name </text>
<text text-anchor="start" x="1469.76" y="-747" font-family="Arial" font-size="14.00" fill="#666666">[text]</text>
<polygon fill="none" stroke="black" points="1423.85,-704 1423.85,-734.8 1683.78,-734.8 1683.78,-704 1423.85,-704"/>
<text text-anchor="start" x="1430.85" y="-716.2" font-family="Arial" font-size="14.00">details </text>
<text text-anchor="start" x="1475.21" y="-716.2" font-family="Arial" font-size="14.00" fill="#666666">[text]</text>
<polygon fill="none" stroke="black" points="1423.85,-673.2 1423.85,-704 1683.78,-704 1683.78,-673.2 1423.85,-673.2"/>
<text text-anchor="start" x="1430.85" y="-685.4" font-family="Arial" font-size="14.00">uml_comment </text>
<text text-anchor="start" x="1522.66" y="-685.4" font-family="Arial" font-size="14.00" fill="#666666">[text]</text>
</g>
<!-- public.parameter&#45;&gt;public.data_type -->
<g id="edge6" class="edge">
<title>public.parameter:model_key&#45;&gt;public.data_type:model_key</title>
<path fill="none" stroke="black" d="M1412.72,-902C1360.68,-877.11 1414.46,-648.21 1371.82,-599.2 1306.98,-524.69 1046.56,-466 947.79,-466"/>
<polygon fill="black" stroke="black" points="1412.75,-902.01 1421.57,-908.53 1417.97,-903.14 1422.2,-904.06 1422.2,-904.06 1422.2,-904.06 1417.97,-903.14 1423.48,-899.73 1412.75,-902.01"/>
<text text-anchor="start" x="1429.85" y="-914.2" font-family="Arial" font-size="10.00">FOREIGN KEY (model_key, data_type_key) REFERENCES data_type(model_key, data_type_key) ON DELETE CASCADE</text>
</g>
</g>
</svg>
