<?xml version="1.0" encoding="UTF-8" standalone="no"?>
<!DOCTYPE svg PUBLIC "-//W3C//DTD SVG 1.1//EN"
 "http://www.w3.org/Graphics/SVG/1.1/DTD/svg11.dtd">
<!-- Generated by graphviz version 12.1.2 (20240928.0832)
 -->
<!-- Title: public.domain Pages: 1 -->
<svg width="1547pt" height="1006pt"
 viewBox="0.00 0.00 1547.47 1006.40" xmlns="http://www.w3.org/2000/svg" xmlns:xlink="http://www.w3.org/1999/xlink">
<g id="graph0" class="graph" transform="scale(1 1) rotate(0) translate(4 1002.4)">
<title>public.domain</title>
<polygon fill="white" stroke="none" points="-4,4 -4,-1002.4 1543.47,-1002.4 1543.47,4 -4,4"/>
<!-- public.domain -->
<g id="node1" class="node">
<title>public.domain</title>
<polygon fill="#efefef" stroke="none" points="678.92,-543 678.92,-578.6 920.9,-578.6 920.9,-543 678.92,-543"/>
<polygon fill="none" stroke="black" points="678.92,-543 678.92,-578.6 920.9,-578.6 920.9,-543 678.92,-543"/>
<text text-anchor="start" x="685.92" y="-556.4" font-family="Arial Bold" font-size="18.00">public.domain</text>
<text text-anchor="start" x="789.41" y="-556.4" font-family="Arial" font-size="14.00">    </text>
<text text-anchor="start" x="820.52" y="-556.4" font-family="Arial" font-size="14.00" fill="#666666">[BASE TABLE]</text>
<polygon fill="none" stroke="black" points="678.92,-512.2 678.92,-543 920.9,-543 920.9,-512.2 678.92,-512.2"/>
<text text-anchor="start" x="685.92" y="-524.4" font-family="Arial" font-size="14.00">domain_key </text>
<text text-anchor="start" x="765.3" y="-524.4" font-family="Arial" font-size="14.00" fill="#666666">[text]</text>
<polygon fill="none" stroke="black" points="678.92,-481.4 678.92,-512.2 920.9,-512.2 920.9,-481.4 678.92,-481.4"/>
<text text-anchor="start" x="685.92" y="-493.6" font-family="Arial" font-size="14.00">model_key </text>
<text text-anchor="start" x="757.52" y="-493.6" font-family="Arial" font-size="14.00" fill="#666666">[text]</text>
<polygon fill="none" stroke="black" points="678.92,-450.6 678.92,-481.4 920.9,-481.4 920.9,-450.6 678.92,-450.6"/>
<text text-anchor="start" x="685.92" y="-462.8" font-family="Arial" font-size="14.00">name </text>
<text text-anchor="start" x="724.83" y="-462.8" font-family="Arial" font-size="14.00" fill="#666666">[text]</text>
<polygon fill="none" stroke="black" points="678.92,-419.8 678.92,-450.6 920.9,-450.6 920.9,-419.8 678.92,-419.8"/>
<text text-anchor="start" x="685.92" y="-432" font-family="Arial" font-size="14.00">details </text>
<text text-anchor="start" x="730.28" y="-432" font-family="Arial" font-size="14.00" fill="#666666">[text]</text>
<polygon fill="none" stroke="black" points="678.92,-389 678.92,-419.8 920.9,-419.8 920.9,-389 678.92,-389"/>
<text text-anchor="start" x="685.92" y="-401.2" font-family="Arial" font-size="14.00">unfinished_notes </text>
<text text-anchor="start" x="795.67" y="-401.2" font-family="Arial" font-size="14.00" fill="#666666">[text]</text>
<polygon fill="none" stroke="black" points="678.92,-358.2 678.92,-389 920.9,-389 920.9,-358.2 678.92,-358.2"/>
<text text-anchor="start" x="685.92" y="-370.4" font-family="Arial" font-size="14.00">realized </text>
<text text-anchor="start" x="738.84" y="-370.4" font-family="Arial" font-size="14.00" fill="#666666">[boolean]</text>
<polygon fill="none" stroke="black" points="678.92,-327.4 678.92,-358.2 920.9,-358.2 920.9,-327.4 678.92,-327.4"/>
<text text-anchor="start" x="685.92" y="-339.6" font-family="Arial" font-size="14.00">uml_comment </text>
<text text-anchor="start" x="777.73" y="-339.6" font-family="Arial" font-size="14.00" fill="#666666">[text]</text>
<polygon fill="none" stroke="black" stroke-width="3" points="677.42,-325.9 677.42,-580.1 922.4,-580.1 922.4,-325.9 677.42,-325.9"/>
</g>
<!-- public.model -->
<g id="node4" class="node">
<title>public.model</title>
<polygon fill="#efefef" stroke="none" points="683.42,-166.4 683.42,-202 916.4,-202 916.4,-166.4 683.42,-166.4"/>
<polygon fill="none" stroke="black" points="683.42,-166.4 683.42,-202 916.4,-202 916.4,-166.4 683.42,-166.4"/>
<text text-anchor="start" x="690.42" y="-179.8" font-family="Arial Bold" font-size="18.00">public.model</text>
<text text-anchor="start" x="784.91" y="-179.8" font-family="Arial" font-size="14.00">    </text>
<text text-anchor="start" x="816.02" y="-179.8" font-family="Arial" font-size="14.00" fill="#666666">[BASE TABLE]</text>
<polygon fill="none" stroke="black" points="683.42,-135.6 683.42,-166.4 916.4,-166.4 916.4,-135.6 683.42,-135.6"/>
<text text-anchor="start" x="690.42" y="-147.8" font-family="Arial" font-size="14.00">model_key </text>
<text text-anchor="start" x="762.02" y="-147.8" font-family="Arial" font-size="14.00" fill="#666666">[text]</text>
<polygon fill="none" stroke="black" points="683.42,-104.8 683.42,-135.6 916.4,-135.6 916.4,-104.8 683.42,-104.8"/>
<text text-anchor="start" x="690.42" y="-117" font-family="Arial" font-size="14.00">name </text>
<text text-anchor="start" x="729.33" y="-117" font-family="Arial" font-size="14.00" fill="#666666">[text]</text>
<polygon fill="none" stroke="black" points="683.42,-74 683.42,-104.8 916.4,-104.8 916.4,-74 683.42,-74"/>
<text text-anchor="start" x="690.42" y="-86.2" font-family="Arial" font-size="14.00">details </text>
<text text-anchor="start" x="734.78" y="-86.2" font-family="Arial" font-size="14.00" fill="#666666">[text]</text>
<polygon fill="none" stroke="black" points="683.42,-43.2 683.42,-74 916.4,-74 916.4,-43.2 683.42,-43.2"/>
<text text-anchor="start" x="690.42" y="-55.4" font-family="Arial" font-size="14.00">unfinished_notes </text>
<text text-anchor="start" x="800.17" y="-55.4" font-family="Arial" font-size="14.00" fill="#666666">[text]</text>
</g>
<!-- public.domain&#45;&gt;public.model -->
<g id="edge4" class="edge">
<title>public.domain:model_key&#45;&gt;public.model:model_key</title>
<path fill="none" stroke="black" d="M932.01,-496.28C1075.32,-481.44 1067.64,-151 917.4,-151"/>
<polygon fill="black" stroke="black" points="932.22,-496.27 922,-492.29 926.89,-496.55 922.56,-496.77 922.56,-496.77 922.56,-496.77 926.89,-496.55 922.46,-501.28 932.22,-496.27"/>
<text text-anchor="start" x="928.9" y="-506.8" font-family="Arial" font-size="10.00">FOREIGN KEY (model_key) REFERENCES model(model_key) ON DELETE CASCADE</text>
</g>
<!-- public.subdomain -->
<g id="node2" class="node">
<title>public.subdomain</title>
<polygon fill="#efefef" stroke="none" points="263.42,-919.6 263.42,-955.2 530.4,-955.2 530.4,-919.6 263.42,-919.6"/>
<polygon fill="none" stroke="black" points="263.42,-919.6 263.42,-955.2 530.4,-955.2 530.4,-919.6 263.42,-919.6"/>
<text text-anchor="start" x="270.42" y="-933" font-family="Arial Bold" font-size="18.00">public.subdomain</text>
<text text-anchor="start" x="398.91" y="-933" font-family="Arial" font-size="14.00">    </text>
<text text-anchor="start" x="430.03" y="-933" font-family="Arial" font-size="14.00" fill="#666666">[BASE TABLE]</text>
<polygon fill="none" stroke="black" points="263.42,-888.8 263.42,-919.6 530.4,-919.6 530.4,-888.8 263.42,-888.8"/>
<text text-anchor="start" x="270.42" y="-901" font-family="Arial" font-size="14.00">subdomain_key </text>
<text text-anchor="start" x="372.37" y="-901" font-family="Arial" font-size="14.00" fill="#666666">[text]</text>
<polygon fill="none" stroke="black" points="263.42,-858 263.42,-888.8 530.4,-888.8 530.4,-858 263.42,-858"/>
<text text-anchor="start" x="270.42" y="-870.2" font-family="Arial" font-size="14.00">model_key </text>
<text text-anchor="start" x="342.01" y="-870.2" font-family="Arial" font-size="14.00" fill="#666666">[text]</text>
<polygon fill="none" stroke="black" points="263.42,-827.2 263.42,-858 530.4,-858 530.4,-827.2 263.42,-827.2"/>
<text text-anchor="start" x="270.42" y="-839.4" font-family="Arial" font-size="14.00">domain_key </text>
<text text-anchor="start" x="349.8" y="-839.4" font-family="Arial" font-size="14.00" fill="#666666">[text]</text>
<polygon fill="none" stroke="black" points="263.42,-796.4 263.42,-827.2 530.4,-827.2 530.4,-796.4 263.42,-796.4"/>
<text text-anchor="start" x="270.42" y="-808.6" font-family="Arial" font-size="14.00">name </text>
<text text-anchor="start" x="309.33" y="-808.6" font-family="Arial" font-size="14.00" fill="#666666">[text]</text>
<polygon fill="none" stroke="black" points="263.42,-765.6 263.42,-796.4 530.4,-796.4 530.4,-765.6 263.42,-765.6"/>
<text text-anchor="start" x="270.42" y="-777.8" font-family="Arial" font-size="14.00">details </text>
<text text-anchor="start" x="314.78" y="-777.8" font-family="Arial" font-size="14.00" fill="#666666">[text]</text>
<polygon fill="none" stroke="black" points="263.42,-734.8 263.42,-765.6 530.4,-765.6 530.4,-734.8 263.42,-734.8"/>
<text text-anchor="start" x="270.42" y="-747" font-family="Arial" font-size="14.00">unfinished_notes </text>
<text text-anchor="start" x="380.17" y="-747" font-family="Arial" font-size="14.00" fill="#666666">[text]</text>
<polygon fill="none" stroke="black" points="263.42,-704 263.42,-734.8 530.4,-734.8 530.4,-704 263.42,-704"/>
<text text-anchor="start" x="270.42" y="-716.2" font-family="Arial" font-size="14.00">uml_comment </text>
<text text-anchor="start" x="362.23" y="-716.2" font-family="Arial" font-size="14.00" fill="#666666">[text]</text>
</g>
<!-- public.subdomain&#45;&gt;public.domain -->
<g id="edge1" class="edge">
<title>public.subdomain:model_key&#45;&gt;public.domain:model_key</title>
<path fill="none" stroke="black" d="M541.48,-872.9C622.54,-864.36 547.1,-747.59 581.91,-660.8 613.35,-582.41 593.46,-496.8 677.92,-496.8"/>
<polygon fill="black" stroke="black" points="541.72,-872.89 531.51,-868.89 536.39,-873.15 532.07,-873.37 532.07,-873.37 532.07,-873.37 536.39,-873.15 531.95,-877.88 541.72,-872.89"/>
<text text-anchor="start" x="7" y="-883.4" font-family="Arial" font-size="10.00">FOREIGN KEY (model_key, domain_key) REFERENCES domain(model_key, domain_key) ON DELETE CASCADE</text>
</g>
<!-- public.domain_association -->
<g id="node3" class="node">
<title>public.domain_association</title>
<polygon fill="#efefef" stroke="none" points="634.43,-888.8 634.43,-924.4 965.39,-924.4 965.39,-888.8 634.43,-888.8"/>
<polygon fill="none" stroke="black" points="634.43,-888.8 634.43,-924.4 965.39,-924.4 965.39,-888.8 634.43,-888.8"/>
<text text-anchor="start" x="641.43" y="-902.2" font-family="Arial Bold" font-size="18.00">public.domain_association</text>
<text text-anchor="start" x="833.9" y="-902.2" font-family="Arial" font-size="14.00">    </text>
<text text-anchor="start" x="865.01" y="-902.2" font-family="Arial" font-size="14.00" fill="#666666">[BASE TABLE]</text>
<polygon fill="none" stroke="black" points="634.43,-858 634.43,-888.8 965.39,-888.8 965.39,-858 634.43,-858"/>
<text text-anchor="start" x="641.43" y="-870.2" font-family="Arial" font-size="14.00">model_key </text>
<text text-anchor="start" x="713.03" y="-870.2" font-family="Arial" font-size="14.00" fill="#666666">[text]</text>
<polygon fill="none" stroke="black" points="634.43,-827.2 634.43,-858 965.39,-858 965.39,-827.2 634.43,-827.2"/>
<text text-anchor="start" x="641.43" y="-839.4" font-family="Arial" font-size="14.00">association_key </text>
<text text-anchor="start" x="744.94" y="-839.4" font-family="Arial" font-size="14.00" fill="#666666">[text]</text>
<polygon fill="none" stroke="black" points="634.43,-796.4 634.43,-827.2 965.39,-827.2 965.39,-796.4 634.43,-796.4"/>
<text text-anchor="start" x="641.43" y="-808.6" font-family="Arial" font-size="14.00">problem_domain_key </text>
<text text-anchor="start" x="779.18" y="-808.6" font-family="Arial" font-size="14.00" fill="#666666">[text]</text>
<polygon fill="none" stroke="black" points="634.43,-765.6 634.43,-796.4 965.39,-796.4 965.39,-765.6 634.43,-765.6"/>
<text text-anchor="start" x="641.43" y="-777.8" font-family="Arial" font-size="14.00">solution_domain_key </text>
<text text-anchor="start" x="776.85" y="-777.8" font-family="Arial" font-size="14.00" fill="#666666">[text]</text>
<polygon fill="none" stroke="black" points="634.43,-734.8 634.43,-765.6 965.39,-765.6 965.39,-734.8 634.43,-734.8"/>
<text text-anchor="start" x="641.43" y="-747" font-family="Arial" font-size="14.00">uml_comment </text>
<text text-anchor="start" x="733.24" y="-747" font-family="Arial" font-size="14.00" fill="#666666">[text]</text>
</g>
<!-- public.domain_association&#45;&gt;public.domain -->
<g id="edge2" class="edge">
<title>public.domain_association:model_key&#45;&gt;public.domain:model_key</title>
<path fill="none" stroke="black" d="M976.19,-871C1037.42,-838.92 993.64,-496.8 921.9,-496.8"/>
<polygon fill="black" stroke="black" points="976.42,-870.94 965.64,-868.95 971.24,-872.21 967.03,-873.24 967.03,-873.24 967.03,-873.24 971.24,-872.21 967.78,-877.69 976.42,-870.94"/>
<text text-anchor="start" x="973.39" y="-883.4" font-family="Arial" font-size="10.00">FOREIGN KEY (model_key, problem_domain_key) REFERENCES domain(model_key, domain_key) ON DELETE CASCADE</text>
</g>
<!-- public.domain_association&#45;&gt;public.domain -->
<g id="edge3" class="edge">
<title>public.domain_association:model_key&#45;&gt;public.domain:model_key</title>
<path fill="none" stroke="black" d="M976.91,-871.64C1055.94,-843.93 1011.53,-497.51 922.17,-496.8"/>
<polygon fill="black" stroke="black" points="976.84,-871.66 966.23,-868.91 971.59,-872.56 967.32,-873.29 967.32,-873.29 967.32,-873.29 971.59,-872.56 967.75,-877.78 976.84,-871.66"/>
<text text-anchor="start" x="973.66" y="-857.4" font-family="Arial" font-size="10.00">FOREIGN KEY (model_key, solution_domain_key) REFERENCES domain(model_key, domain_key) ON DELETE CASCADE</text>
</g>
</g>
</svg>
