<?xml version="1.0" encoding="UTF-8" standalone="no"?>
<!DOCTYPE svg PUBLIC "-//W3C//DTD SVG 1.1//EN"
 "http://www.w3.org/Graphics/SVG/1.1/DTD/svg11.dtd">
<!-- Generated by graphviz version 12.1.2 (20240928.0832)
 -->
<!-- Title: public.action_guarantee Pages: 1 -->
<svg width="1329pt" height="756pt"
 viewBox="0.00 0.00 1328.67 756.00" xmlns="http://www.w3.org/2000/svg" xmlns:xlink="http://www.w3.org/1999/xlink">
<g id="graph0" class="graph" transform="scale(1 1) rotate(0) translate(4 752)">
<title>public.action_guarantee</title>
<polygon fill="white" stroke="none" points="-4,4 -4,-752 1324.67,-752 1324.67,4 -4,4"/>
<!-- public.action_guarantee -->
<g id="node1" class="node">
<title>public.action_guarantee</title>
<polygon fill="#efefef" stroke="none" points="495.7,-666.2 495.7,-701.8 806.62,-701.8 806.62,-666.2 495.7,-666.2"/>
<polygon fill="none" stroke="black" points="495.7,-666.2 495.7,-701.8 806.62,-701.8 806.62,-666.2 495.7,-666.2"/>
<text text-anchor="start" x="502.7" y="-679.6" font-family="Arial Bold" font-size="18.00">public.action_guarantee</text>
<text text-anchor="start" x="675.13" y="-679.6" font-family="Arial" font-size="14.00">    </text>
<text text-anchor="start" x="706.24" y="-679.6" font-family="Arial" font-size="14.00" fill="#666666">[BASE TABLE]</text>
<polygon fill="none" stroke="black" points="495.7,-635.4 495.7,-666.2 806.62,-666.2 806.62,-635.4 495.7,-635.4"/>
<text text-anchor="start" x="502.7" y="-647.6" font-family="Arial" font-size="14.00">model_key </text>
<text text-anchor="start" x="574.3" y="-647.6" font-family="Arial" font-size="14.00" fill="#666666">[text]</text>
<polygon fill="none" stroke="black" points="495.7,-604.6 495.7,-635.4 806.62,-635.4 806.62,-604.6 495.7,-604.6"/>
<text text-anchor="start" x="502.7" y="-616.8" font-family="Arial" font-size="14.00">action_key </text>
<text text-anchor="start" x="573.52" y="-616.8" font-family="Arial" font-size="14.00" fill="#666666">[text]</text>
<polygon fill="none" stroke="black" points="495.7,-573.8 495.7,-604.6 806.62,-604.6 806.62,-573.8 495.7,-573.8"/>
<text text-anchor="start" x="502.7" y="-586" font-family="Arial" font-size="14.00">logic_key </text>
<text text-anchor="start" x="564.96" y="-586" font-family="Arial" font-size="14.00" fill="#666666">[text]</text>
<polygon fill="none" stroke="black" stroke-width="3" points="494.2,-572.3 494.2,-703.3 808.12,-703.3 808.12,-572.3 494.2,-572.3"/>
</g>
<!-- public.logic -->
<g id="node2" class="node">
<title>public.logic</title>
<polygon fill="#efefef" stroke="none" points="358.37,-412.8 358.37,-448.4 601.95,-448.4 601.95,-412.8 358.37,-412.8"/>
<polygon fill="none" stroke="black" points="358.37,-412.8 358.37,-448.4 601.95,-448.4 601.95,-412.8 358.37,-412.8"/>
<text text-anchor="start" x="375.17" y="-426.2" font-family="Arial Bold" font-size="18.00">public.logic</text>
<text text-anchor="start" x="460.66" y="-426.2" font-family="Arial" font-size="14.00">    </text>
<text text-anchor="start" x="491.77" y="-426.2" font-family="Arial" font-size="14.00" fill="#666666">[BASE TABLE]</text>
<polygon fill="none" stroke="black" points="358.37,-382 358.37,-412.8 601.95,-412.8 601.95,-382 358.37,-382"/>
<text text-anchor="start" x="365.37" y="-394.2" font-family="Arial" font-size="14.00">logic_key </text>
<text text-anchor="start" x="427.62" y="-394.2" font-family="Arial" font-size="14.00" fill="#666666">[text]</text>
<polygon fill="none" stroke="black" points="358.37,-351.2 358.37,-382 601.95,-382 601.95,-351.2 358.37,-351.2"/>
<text text-anchor="start" x="365.37" y="-363.4" font-family="Arial" font-size="14.00">model_key </text>
<text text-anchor="start" x="436.96" y="-363.4" font-family="Arial" font-size="14.00" fill="#666666">[text]</text>
<polygon fill="none" stroke="black" points="358.37,-320.4 358.37,-351.2 601.95,-351.2 601.95,-320.4 358.37,-320.4"/>
<text text-anchor="start" x="365.37" y="-332.6" font-family="Arial" font-size="14.00">sort_order </text>
<text text-anchor="start" x="433.06" y="-332.6" font-family="Arial" font-size="14.00" fill="#666666">[integer]</text>
<polygon fill="none" stroke="black" points="358.37,-289.6 358.37,-320.4 601.95,-320.4 601.95,-289.6 358.37,-289.6"/>
<text text-anchor="start" x="365.37" y="-301.8" font-family="Arial" font-size="14.00">logic_type </text>
<text text-anchor="start" x="432.3" y="-301.8" font-family="Arial" font-size="14.00" fill="#666666">[logic_type]</text>
<polygon fill="none" stroke="black" points="358.37,-258.8 358.37,-289.6 601.95,-289.6 601.95,-258.8 358.37,-258.8"/>
<text text-anchor="start" x="365.37" y="-271" font-family="Arial" font-size="14.00">description </text>
<text text-anchor="start" x="436.96" y="-271" font-family="Arial" font-size="14.00" fill="#666666">[text]</text>
<polygon fill="none" stroke="black" points="358.37,-228 358.37,-258.8 601.95,-258.8 601.95,-228 358.37,-228"/>
<text text-anchor="start" x="365.37" y="-240.2" font-family="Arial" font-size="14.00">target </text>
<text text-anchor="start" x="405.06" y="-240.2" font-family="Arial" font-size="14.00" fill="#666666">[text]</text>
<polygon fill="none" stroke="black" points="358.37,-197.2 358.37,-228 601.95,-228 601.95,-197.2 358.37,-197.2"/>
<text text-anchor="start" x="365.37" y="-209.4" font-family="Arial" font-size="14.00">notation </text>
<text text-anchor="start" x="419.08" y="-209.4" font-family="Arial" font-size="14.00" fill="#666666">[notation]</text>
<polygon fill="none" stroke="black" points="358.37,-166.4 358.37,-197.2 601.95,-197.2 601.95,-166.4 358.37,-166.4"/>
<text text-anchor="start" x="365.37" y="-178.6" font-family="Arial" font-size="14.00">specification </text>
<text text-anchor="start" x="446.3" y="-178.6" font-family="Arial" font-size="14.00" fill="#666666">[text]</text>
<polygon fill="none" stroke="black" points="358.37,-135.6 358.37,-166.4 601.95,-166.4 601.95,-135.6 358.37,-135.6"/>
<text text-anchor="start" x="365.37" y="-147.8" font-family="Arial" font-size="14.00">target_type_notation </text>
<text text-anchor="start" x="496.91" y="-147.8" font-family="Arial" font-size="14.00" fill="#666666">[notation]</text>
<polygon fill="none" stroke="black" points="358.37,-104.8 358.37,-135.6 601.95,-135.6 601.95,-104.8 358.37,-104.8"/>
<text text-anchor="start" x="365.37" y="-117" font-family="Arial" font-size="14.00">target_type_specification </text>
<text text-anchor="start" x="524.13" y="-117" font-family="Arial" font-size="14.00" fill="#666666">[text]</text>
<polygon fill="none" stroke="black" points="358.37,-74 358.37,-104.8 601.95,-104.8 601.95,-74 358.37,-74"/>
<text text-anchor="start" x="365.37" y="-86.2" font-family="Arial" font-size="14.00">destroy_event_specification </text>
<text text-anchor="start" x="542.03" y="-86.2" font-family="Arial" font-size="14.00" fill="#666666">[text]</text>
<polygon fill="none" stroke="black" points="358.37,-43.2 358.37,-74 601.95,-74 601.95,-43.2 358.37,-43.2"/>
<text text-anchor="start" x="365.37" y="-55.4" font-family="Arial" font-size="14.00">endpoint_selector_specification </text>
<text text-anchor="start" x="564.61" y="-55.4" font-family="Arial" font-size="14.00" fill="#666666">[text]</text>
</g>
<!-- public.action_guarantee&#45;&gt;public.logic -->
<g id="edge1" class="edge">
<title>public.action_guarantee:model_key&#45;&gt;public.logic:model_key</title>
<path fill="none" stroke="black" d="M484.55,-649.73C443.22,-640.18 465.81,-568.94 495.7,-527.6 524.92,-487.2 572.74,-532 601.95,-491.6 634.51,-446.58 658.51,-366.6 602.95,-366.6"/>
<polygon fill="black" stroke="black" points="484.43,-649.72 493.9,-655.24 489.73,-650.28 494.04,-650.73 494.04,-650.73 494.04,-650.73 489.73,-650.28 494.84,-646.29 484.43,-649.72"/>
<text text-anchor="start" x="7" y="-660.8" font-family="Arial" font-size="10.00">FOREIGN KEY (model_key, logic_key) REFERENCES logic(model_key, logic_key) ON DELETE CASCADE</text>
</g>
<!-- public.action -->
<g id="node3" class="node">
<title>public.action</title>
<polygon fill="#efefef" stroke="none" points="706.18,-305 706.18,-340.6 938.14,-340.6 938.14,-305 706.18,-305"/>
<polygon fill="none" stroke="black" points="706.18,-305 706.18,-340.6 938.14,-340.6 938.14,-305 706.18,-305"/>
<text text-anchor="start" x="713.18" y="-318.4" font-family="Arial Bold" font-size="18.00">public.action</text>
<text text-anchor="start" x="806.65" y="-318.4" font-family="Arial" font-size="14.00">    </text>
<text text-anchor="start" x="837.77" y="-318.4" font-family="Arial" font-size="14.00" fill="#666666">[BASE TABLE]</text>
<polygon fill="none" stroke="black" points="706.18,-274.2 706.18,-305 938.14,-305 938.14,-274.2 706.18,-274.2"/>
<text text-anchor="start" x="713.18" y="-286.4" font-family="Arial" font-size="14.00">model_key </text>
<text text-anchor="start" x="784.77" y="-286.4" font-family="Arial" font-size="14.00" fill="#666666">[text]</text>
<polygon fill="none" stroke="black" points="706.18,-243.4 706.18,-274.2 938.14,-274.2 938.14,-243.4 706.18,-243.4"/>
<text text-anchor="start" x="713.18" y="-255.6" font-family="Arial" font-size="14.00">class_key </text>
<text text-anchor="start" x="778.54" y="-255.6" font-family="Arial" font-size="14.00" fill="#666666">[text]</text>
<polygon fill="none" stroke="black" points="706.18,-212.6 706.18,-243.4 938.14,-243.4 938.14,-212.6 706.18,-212.6"/>
<text text-anchor="start" x="713.18" y="-224.8" font-family="Arial" font-size="14.00">action_key </text>
<text text-anchor="start" x="784" y="-224.8" font-family="Arial" font-size="14.00" fill="#666666">[text]</text>
<polygon fill="none" stroke="black" points="706.18,-181.8 706.18,-212.6 938.14,-212.6 938.14,-181.8 706.18,-181.8"/>
<text text-anchor="start" x="713.18" y="-194" font-family="Arial" font-size="14.00">name </text>
<text text-anchor="start" x="752.09" y="-194" font-family="Arial" font-size="14.00" fill="#666666">[text]</text>
<polygon fill="none" stroke="black" points="706.18,-151 706.18,-181.8 938.14,-181.8 938.14,-151 706.18,-151"/>
<text text-anchor="start" x="713.18" y="-163.2" font-family="Arial" font-size="14.00">details </text>
<text text-anchor="start" x="757.54" y="-163.2" font-family="Arial" font-size="14.00" fill="#666666">[text]</text>
</g>
<!-- public.action_guarantee&#45;&gt;public.action -->
<g id="edge2" class="edge">
<title>public.action_guarantee:model_key&#45;&gt;public.action:model_key</title>
<path fill="none" stroke="black" d="M817.81,-649.78C856.98,-640.9 822.09,-576.1 806.62,-527.6 782.92,-453.33 729.97,-458.04 706.18,-383.8 693.4,-343.93 663.31,-289.6 705.18,-289.6"/>
<polygon fill="black" stroke="black" points="817.9,-649.77 807.5,-646.29 812.59,-650.3 808.28,-650.73 808.28,-650.73 808.28,-650.73 812.59,-650.3 808.4,-655.24 817.9,-649.77"/>
<text text-anchor="start" x="814.62" y="-660.8" font-family="Arial" font-size="10.00">FOREIGN KEY (model_key, action_key) REFERENCES action(model_key, action_key) ON DELETE CASCADE</text>
</g>
</g>
</svg>
