<?xml version="1.0" encoding="UTF-8" standalone="no"?>
<!DOCTYPE svg PUBLIC "-//W3C//DTD SVG 1.1//EN"
 "http://www.w3.org/Graphics/SVG/1.1/DTD/svg11.dtd">
<!-- Generated by graphviz version 12.1.2 (20240928.0832)
 -->
<!-- Title: public.association_invariant Pages: 1 -->
<svg width="1429pt" height="848pt"
 viewBox="0.00 0.00 1428.73 848.40" xmlns="http://www.w3.org/2000/svg" xmlns:xlink="http://www.w3.org/1999/xlink">
<g id="graph0" class="graph" transform="scale(1 1) rotate(0) translate(4 844.4)">
<title>public.association_invariant</title>
<polygon fill="white" stroke="none" points="-4,4 -4,-844.4 1424.73,-844.4 1424.73,4 -4,4"/>
<!-- public.association_invariant -->
<g id="node1" class="node">
<title>public.association_invariant</title>
<polygon fill="#efefef" stroke="none" points="495.7,-758.6 495.7,-794.2 836.64,-794.2 836.64,-758.6 495.7,-758.6"/>
<polygon fill="none" stroke="black" points="495.7,-758.6 495.7,-794.2 836.64,-794.2 836.64,-758.6 495.7,-758.6"/>
<text text-anchor="start" x="502.7" y="-772" font-family="Arial Bold" font-size="18.00">public.association_invariant</text>
<text text-anchor="start" x="705.15" y="-772" font-family="Arial" font-size="14.00">    </text>
<text text-anchor="start" x="736.27" y="-772" font-family="Arial" font-size="14.00" fill="#666666">[BASE TABLE]</text>
<polygon fill="none" stroke="black" points="495.7,-727.8 495.7,-758.6 836.64,-758.6 836.64,-727.8 495.7,-727.8"/>
<text text-anchor="start" x="502.7" y="-740" font-family="Arial" font-size="14.00">model_key </text>
<text text-anchor="start" x="574.3" y="-740" font-family="Arial" font-size="14.00" fill="#666666">[text]</text>
<polygon fill="none" stroke="black" points="495.7,-697 495.7,-727.8 836.64,-727.8 836.64,-697 495.7,-697"/>
<text text-anchor="start" x="502.7" y="-709.2" font-family="Arial" font-size="14.00">association_key </text>
<text text-anchor="start" x="606.21" y="-709.2" font-family="Arial" font-size="14.00" fill="#666666">[text]</text>
<polygon fill="none" stroke="black" points="495.7,-666.2 495.7,-697 836.64,-697 836.64,-666.2 495.7,-666.2"/>
<text text-anchor="start" x="502.7" y="-678.4" font-family="Arial" font-size="14.00">logic_key </text>
<text text-anchor="start" x="564.96" y="-678.4" font-family="Arial" font-size="14.00" fill="#666666">[text]</text>
<polygon fill="none" stroke="black" points="495.7,-635.4 495.7,-666.2 836.64,-666.2 836.64,-635.4 495.7,-635.4"/>
<text text-anchor="start" x="502.7" y="-647.6" font-family="Arial" font-size="14.00">to_class_anchor </text>
<text text-anchor="start" x="608.54" y="-647.6" font-family="Arial" font-size="14.00" fill="#666666">[boolean]</text>
<polygon fill="none" stroke="black" stroke-width="3" points="494.2,-633.9 494.2,-795.7 838.14,-795.7 838.14,-633.9 494.2,-633.9"/>
</g>
<!-- public.logic -->
<g id="node2" class="node">
<title>public.logic</title>
<polygon fill="#efefef" stroke="none" points="379.19,-428.2 379.19,-463.8 603.16,-463.8 603.16,-428.2 379.19,-428.2"/>
<polygon fill="none" stroke="black" points="379.19,-428.2 379.19,-463.8 603.16,-463.8 603.16,-428.2 379.19,-428.2"/>
<text text-anchor="start" x="386.19" y="-441.6" font-family="Arial Bold" font-size="18.00">public.logic</text>
<text text-anchor="start" x="471.67" y="-441.6" font-family="Arial" font-size="14.00">    </text>
<text text-anchor="start" x="502.79" y="-441.6" font-family="Arial" font-size="14.00" fill="#666666">[BASE TABLE]</text>
<polygon fill="none" stroke="black" points="379.19,-397.4 379.19,-428.2 603.16,-428.2 603.16,-397.4 379.19,-397.4"/>
<text text-anchor="start" x="386.19" y="-409.6" font-family="Arial" font-size="14.00">logic_key </text>
<text text-anchor="start" x="448.44" y="-409.6" font-family="Arial" font-size="14.00" fill="#666666">[text]</text>
<polygon fill="none" stroke="black" points="379.19,-366.6 379.19,-397.4 603.16,-397.4 603.16,-366.6 379.19,-366.6"/>
<text text-anchor="start" x="386.19" y="-378.8" font-family="Arial" font-size="14.00">model_key </text>
<text text-anchor="start" x="457.78" y="-378.8" font-family="Arial" font-size="14.00" fill="#666666">[text]</text>
<polygon fill="none" stroke="black" points="379.19,-335.8 379.19,-366.6 603.16,-366.6 603.16,-335.8 379.19,-335.8"/>
<text text-anchor="start" x="386.19" y="-348" font-family="Arial" font-size="14.00">sort_order </text>
<text text-anchor="start" x="453.88" y="-348" font-family="Arial" font-size="14.00" fill="#666666">[integer]</text>
<polygon fill="none" stroke="black" points="379.19,-305 379.19,-335.8 603.16,-335.8 603.16,-305 379.19,-305"/>
<text text-anchor="start" x="386.19" y="-317.2" font-family="Arial" font-size="14.00">logic_type </text>
<text text-anchor="start" x="453.12" y="-317.2" font-family="Arial" font-size="14.00" fill="#666666">[logic_type]</text>
<polygon fill="none" stroke="black" points="379.19,-274.2 379.19,-305 603.16,-305 603.16,-274.2 379.19,-274.2"/>
<text text-anchor="start" x="386.19" y="-286.4" font-family="Arial" font-size="14.00">description </text>
<text text-anchor="start" x="457.78" y="-286.4" font-family="Arial" font-size="14.00" fill="#666666">[text]</text>
<polygon fill="none" stroke="black" points="379.19,-243.4 379.19,-274.2 603.16,-274.2 603.16,-243.4 379.19,-243.4"/>
<text text-anchor="start" x="386.19" y="-255.6" font-family="Arial" font-size="14.00">target </text>
<text text-anchor="start" x="425.88" y="-255.6" font-family="Arial" font-size="14.00" fill="#666666">[text]</text>
<polygon fill="none" stroke="black" points="379.19,-212.6 379.19,-243.4 603.16,-243.4 603.16,-212.6 379.19,-212.6"/>
<text text-anchor="start" x="386.19" y="-224.8" font-family="Arial" font-size="14.00">notation </text>
<text text-anchor="start" x="439.9" y="-224.8" font-family="Arial" font-size="14.00" fill="#666666">[notation]</text>
<polygon fill="none" stroke="black" points="379.19,-181.8 379.19,-212.6 603.16,-212.6 603.16,-181.8 379.19,-181.8"/>
<text text-anchor="start" x="386.19" y="-194" font-family="Arial" font-size="14.00">specification </text>
<text text-anchor="start" x="467.12" y="-194" font-family="Arial" font-size="14.00" fill="#666666">[text]</text>
<polygon fill="none" stroke="black" points="379.19,-151 379.19,-181.8 603.16,-181.8 603.16,-151 379.19,-151"/>
<text text-anchor="start" x="386.19" y="-163.2" font-family="Arial" font-size="14.00">target_type_notation </text>
<text text-anchor="start" x="517.73" y="-163.2" font-family="Arial" font-size="14.00" fill="#666666">[notation]</text>
<polygon fill="none" stroke="black" points="379.19,-120.2 379.19,-151 603.16,-151 603.16,-120.2 379.19,-120.2"/>
<text text-anchor="start" x="386.19" y="-132.4" font-family="Arial" font-size="14.00">target_type_specification </text>
<text text-anchor="start" x="544.95" y="-132.4" font-family="Arial" font-size="14.00" fill="#666666">[text]</text>
<polygon fill="none" stroke="black" points="379.19,-89.4 379.19,-120.2 603.16,-120.2 603.16,-89.4 379.19,-89.4"/>
<text text-anchor="start" x="386.19" y="-101.6" font-family="Arial" font-size="14.00">delete_event_specification </text>
<text text-anchor="start" x="555.08" y="-101.6" font-family="Arial" font-size="14.00" fill="#666666">[text]</text>
</g>
<!-- public.association_invariant&#45;&gt;public.logic -->
<g id="edge1" class="edge">
<title>public.association_invariant:model_key&#45;&gt;public.logic:model_key</title>
<path fill="none" stroke="black" d="M484.42,-742.39C430.49,-733.15 466.85,-647.12 495.7,-589.2 522.51,-535.38 576.31,-560.8 603.16,-507 627.97,-457.29 659.71,-382 604.16,-382"/>
<polygon fill="black" stroke="black" points="484.4,-742.39 494.02,-747.66 489.72,-742.81 494.04,-743.15 494.04,-743.15 494.04,-743.15 489.72,-742.81 494.72,-738.69 484.4,-742.39"/>
<text text-anchor="start" x="7" y="-753.2" font-family="Arial" font-size="10.00">FOREIGN KEY (model_key, logic_key) REFERENCES logic(model_key, logic_key) ON DELETE CASCADE</text>
</g>
<!-- public.association -->
<g id="node3" class="node">
<title>public.association</title>
<polygon fill="#efefef" stroke="none" points="707.19,-474.4 707.19,-510 975.15,-510 975.15,-474.4 707.19,-474.4"/>
<polygon fill="none" stroke="black" points="707.19,-474.4 707.19,-510 975.15,-510 975.15,-474.4 707.19,-474.4"/>
<text text-anchor="start" x="714.19" y="-487.8" font-family="Arial Bold" font-size="18.00">public.association</text>
<text text-anchor="start" x="843.66" y="-487.8" font-family="Arial" font-size="14.00">    </text>
<text text-anchor="start" x="874.78" y="-487.8" font-family="Arial" font-size="14.00" fill="#666666">[BASE TABLE]</text>
<polygon fill="none" stroke="black" points="707.19,-443.6 707.19,-474.4 975.15,-474.4 975.15,-443.6 707.19,-443.6"/>
<text text-anchor="start" x="714.19" y="-455.8" font-family="Arial" font-size="14.00">model_key </text>
<text text-anchor="start" x="785.78" y="-455.8" font-family="Arial" font-size="14.00" fill="#666666">[text]</text>
<polygon fill="none" stroke="black" points="707.19,-412.8 707.19,-443.6 975.15,-443.6 975.15,-412.8 707.19,-412.8"/>
<text text-anchor="start" x="714.19" y="-425" font-family="Arial" font-size="14.00">association_key </text>
<text text-anchor="start" x="817.69" y="-425" font-family="Arial" font-size="14.00" fill="#666666">[text]</text>
<polygon fill="none" stroke="black" points="707.19,-382 707.19,-412.8 975.15,-412.8 975.15,-382 707.19,-382"/>
<text text-anchor="start" x="714.19" y="-394.2" font-family="Arial" font-size="14.00">from_class_key </text>
<text text-anchor="start" x="815.34" y="-394.2" font-family="Arial" font-size="14.00" fill="#666666">[text]</text>
<polygon fill="none" stroke="black" points="707.19,-351.2 707.19,-382 975.15,-382 975.15,-351.2 707.19,-351.2"/>
<text text-anchor="start" x="714.19" y="-363.4" font-family="Arial" font-size="14.00">from_multiplicity_lower </text>
<text text-anchor="start" x="859.67" y="-363.4" font-family="Arial" font-size="14.00" fill="#666666">[integer]</text>
<polygon fill="none" stroke="black" points="707.19,-320.4 707.19,-351.2 975.15,-351.2 975.15,-320.4 707.19,-320.4"/>
<text text-anchor="start" x="714.19" y="-332.6" font-family="Arial" font-size="14.00">from_multiplicity_higher </text>
<text text-anchor="start" x="865.14" y="-332.6" font-family="Arial" font-size="14.00" fill="#666666">[integer]</text>
<polygon fill="none" stroke="black" points="707.19,-289.6 707.19,-320.4 975.15,-320.4 975.15,-289.6 707.19,-289.6"/>
<text text-anchor="start" x="714.19" y="-301.8" font-family="Arial" font-size="14.00">to_class_key </text>
<text text-anchor="start" x="799.01" y="-301.8" font-family="Arial" font-size="14.00" fill="#666666">[text]</text>
<polygon fill="none" stroke="black" points="707.19,-258.8 707.19,-289.6 975.15,-289.6 975.15,-258.8 707.19,-258.8"/>
<text text-anchor="start" x="714.19" y="-271" font-family="Arial" font-size="14.00">to_multiplicity_lower </text>
<text text-anchor="start" x="843.35" y="-271" font-family="Arial" font-size="14.00" fill="#666666">[integer]</text>
<polygon fill="none" stroke="black" points="707.19,-228 707.19,-258.8 975.15,-258.8 975.15,-228 707.19,-228"/>
<text text-anchor="start" x="714.19" y="-240.2" font-family="Arial" font-size="14.00">to_multiplicity_higher </text>
<text text-anchor="start" x="848.81" y="-240.2" font-family="Arial" font-size="14.00" fill="#666666">[integer]</text>
<polygon fill="none" stroke="black" points="707.19,-197.2 707.19,-228 975.15,-228 975.15,-197.2 707.19,-197.2"/>
<text text-anchor="start" x="714.19" y="-209.4" font-family="Arial" font-size="14.00">uniqueness_lower </text>
<text text-anchor="start" x="830.94" y="-209.4" font-family="Arial" font-size="14.00" fill="#666666">[integer]</text>
<polygon fill="none" stroke="black" points="707.19,-166.4 707.19,-197.2 975.15,-197.2 975.15,-166.4 707.19,-166.4"/>
<text text-anchor="start" x="714.19" y="-178.6" font-family="Arial" font-size="14.00">uniqueness_higher </text>
<text text-anchor="start" x="836.4" y="-178.6" font-family="Arial" font-size="14.00" fill="#666666">[integer]</text>
<polygon fill="none" stroke="black" points="707.19,-135.6 707.19,-166.4 975.15,-166.4 975.15,-135.6 707.19,-135.6"/>
<text text-anchor="start" x="714.19" y="-147.8" font-family="Arial" font-size="14.00">name </text>
<text text-anchor="start" x="753.1" y="-147.8" font-family="Arial" font-size="14.00" fill="#666666">[text]</text>
<polygon fill="none" stroke="black" points="707.19,-104.8 707.19,-135.6 975.15,-135.6 975.15,-104.8 707.19,-104.8"/>
<text text-anchor="start" x="714.19" y="-117" font-family="Arial" font-size="14.00">association_class_key </text>
<text text-anchor="start" x="857.38" y="-117" font-family="Arial" font-size="14.00" fill="#666666">[text]</text>
<polygon fill="none" stroke="black" points="707.19,-74 707.19,-104.8 975.15,-104.8 975.15,-74 707.19,-74"/>
<text text-anchor="start" x="714.19" y="-86.2" font-family="Arial" font-size="14.00">details </text>
<text text-anchor="start" x="758.55" y="-86.2" font-family="Arial" font-size="14.00" fill="#666666">[text]</text>
<polygon fill="none" stroke="black" points="707.19,-43.2 707.19,-74 975.15,-74 975.15,-43.2 707.19,-43.2"/>
<text text-anchor="start" x="714.19" y="-55.4" font-family="Arial" font-size="14.00">uml_comment </text>
<text text-anchor="start" x="806" y="-55.4" font-family="Arial" font-size="14.00" fill="#666666">[text]</text>
</g>
<!-- public.association_invariant&#45;&gt;public.association -->
<g id="edge2" class="edge">
<title>public.association_invariant:model_key&#45;&gt;public.association:model_key</title>
<path fill="none" stroke="black" d="M848.02,-742.33C903,-732.44 875.95,-640.59 836.64,-589.2 800.36,-541.77 743.57,-600.55 707.19,-553.2 681.68,-520 664.32,-459 706.19,-459"/>
<polygon fill="black" stroke="black" points="847.94,-742.34 837.6,-738.69 842.62,-742.78 838.31,-743.14 838.31,-743.14 838.31,-743.14 842.62,-742.78 838.35,-747.66 847.94,-742.34"/>
<text text-anchor="start" x="844.64" y="-753.2" font-family="Arial" font-size="10.00">FOREIGN KEY (model_key, association_key) REFERENCES association(model_key, association_key) ON DELETE CASCADE</text>
</g>
</g>
</svg>
