<?xml version="1.0" encoding="UTF-8" standalone="no"?>
<!DOCTYPE svg PUBLIC "-//W3C//DTD SVG 1.1//EN"
 "http://www.w3.org/Graphics/SVG/1.1/DTD/svg11.dtd">
<!-- Generated by graphviz version 12.1.2 (20240928.0832)
 -->
<!-- Title: public.state_action Pages: 1 -->
<svg width="1295pt" height="664pt"
 viewBox="0.00 0.00 1295.05 663.60" xmlns="http://www.w3.org/2000/svg" xmlns:xlink="http://www.w3.org/1999/xlink">
<g id="graph0" class="graph" transform="scale(1 1) rotate(0) translate(4 659.6)">
<title>public.state_action</title>
<polygon fill="white" stroke="none" points="-4,4 -4,-659.6 1291.05,-659.6 1291.05,4 -4,4"/>
<!-- public.state_action -->
<g id="node1" class="node">
<title>public.state_action</title>
<polygon fill="#efefef" stroke="none" points="499.04,-573.8 499.04,-609.4 772.99,-609.4 772.99,-573.8 499.04,-573.8"/>
<polygon fill="none" stroke="black" points="499.04,-573.8 499.04,-609.4 772.99,-609.4 772.99,-573.8 499.04,-573.8"/>
<text text-anchor="start" x="506.04" y="-587.2" font-family="Arial Bold" font-size="18.00">public.state_action</text>
<text text-anchor="start" x="641.5" y="-587.2" font-family="Arial" font-size="14.00">    </text>
<text text-anchor="start" x="672.62" y="-587.2" font-family="Arial" font-size="14.00" fill="#666666">[BASE TABLE]</text>
<polygon fill="none" stroke="black" points="499.04,-543 499.04,-573.8 772.99,-573.8 772.99,-543 499.04,-543"/>
<text text-anchor="start" x="506.04" y="-555.2" font-family="Arial" font-size="14.00">model_key </text>
<text text-anchor="start" x="577.64" y="-555.2" font-family="Arial" font-size="14.00" fill="#666666">[text]</text>
<polygon fill="none" stroke="black" points="499.04,-512.2 499.04,-543 772.99,-543 772.99,-512.2 499.04,-512.2"/>
<text text-anchor="start" x="506.04" y="-524.4" font-family="Arial" font-size="14.00">state_key </text>
<text text-anchor="start" x="569.86" y="-524.4" font-family="Arial" font-size="14.00" fill="#666666">[text]</text>
<polygon fill="none" stroke="black" points="499.04,-481.4 499.04,-512.2 772.99,-512.2 772.99,-481.4 499.04,-481.4"/>
<text text-anchor="start" x="506.04" y="-493.6" font-family="Arial" font-size="14.00">state_action_key </text>
<text text-anchor="start" x="615" y="-493.6" font-family="Arial" font-size="14.00" fill="#666666">[text]</text>
<polygon fill="none" stroke="black" points="499.04,-450.6 499.04,-481.4 772.99,-481.4 772.99,-450.6 499.04,-450.6"/>
<text text-anchor="start" x="506.04" y="-462.8" font-family="Arial" font-size="14.00">action_key </text>
<text text-anchor="start" x="576.86" y="-462.8" font-family="Arial" font-size="14.00" fill="#666666">[text]</text>
<polygon fill="none" stroke="black" points="499.04,-419.8 499.04,-450.6 772.99,-450.6 772.99,-419.8 499.04,-419.8"/>
<text text-anchor="start" x="506.04" y="-432" font-family="Arial" font-size="14.00">action_when </text>
<text text-anchor="start" x="588.55" y="-432" font-family="Arial" font-size="14.00" fill="#666666">[state_action_when]</text>
<polygon fill="none" stroke="black" stroke-width="3" points="497.54,-418.3 497.54,-610.9 774.49,-610.9 774.49,-418.3 497.54,-418.3"/>
</g>
<!-- public.state -->
<g id="node2" class="node">
<title>public.state</title>
<polygon fill="#efefef" stroke="none" points="360.53,-243.4 360.53,-279 581.5,-279 581.5,-243.4 360.53,-243.4"/>
<polygon fill="none" stroke="black" points="360.53,-243.4 360.53,-279 581.5,-279 581.5,-243.4 360.53,-243.4"/>
<text text-anchor="start" x="367.53" y="-256.8" font-family="Arial Bold" font-size="18.00">public.state</text>
<text text-anchor="start" x="450.01" y="-256.8" font-family="Arial" font-size="14.00">    </text>
<text text-anchor="start" x="481.13" y="-256.8" font-family="Arial" font-size="14.00" fill="#666666">[BASE TABLE]</text>
<polygon fill="none" stroke="black" points="360.53,-212.6 360.53,-243.4 581.5,-243.4 581.5,-212.6 360.53,-212.6"/>
<text text-anchor="start" x="367.53" y="-224.8" font-family="Arial" font-size="14.00">model_key </text>
<text text-anchor="start" x="439.13" y="-224.8" font-family="Arial" font-size="14.00" fill="#666666">[text]</text>
<polygon fill="none" stroke="black" points="360.53,-181.8 360.53,-212.6 581.5,-212.6 581.5,-181.8 360.53,-181.8"/>
<text text-anchor="start" x="367.53" y="-194" font-family="Arial" font-size="14.00">class_key </text>
<text text-anchor="start" x="432.89" y="-194" font-family="Arial" font-size="14.00" fill="#666666">[text]</text>
<polygon fill="none" stroke="black" points="360.53,-151 360.53,-181.8 581.5,-181.8 581.5,-151 360.53,-151"/>
<text text-anchor="start" x="367.53" y="-163.2" font-family="Arial" font-size="14.00">state_key </text>
<text text-anchor="start" x="431.35" y="-163.2" font-family="Arial" font-size="14.00" fill="#666666">[text]</text>
<polygon fill="none" stroke="black" points="360.53,-120.2 360.53,-151 581.5,-151 581.5,-120.2 360.53,-120.2"/>
<text text-anchor="start" x="367.53" y="-132.4" font-family="Arial" font-size="14.00">name </text>
<text text-anchor="start" x="406.44" y="-132.4" font-family="Arial" font-size="14.00" fill="#666666">[text]</text>
<polygon fill="none" stroke="black" points="360.53,-89.4 360.53,-120.2 581.5,-120.2 581.5,-89.4 360.53,-89.4"/>
<text text-anchor="start" x="367.53" y="-101.6" font-family="Arial" font-size="14.00">details </text>
<text text-anchor="start" x="411.89" y="-101.6" font-family="Arial" font-size="14.00" fill="#666666">[text]</text>
<polygon fill="none" stroke="black" points="360.53,-58.6 360.53,-89.4 581.5,-89.4 581.5,-58.6 360.53,-58.6"/>
<text text-anchor="start" x="367.53" y="-70.8" font-family="Arial" font-size="14.00">uml_comment </text>
<text text-anchor="start" x="459.34" y="-70.8" font-family="Arial" font-size="14.00" fill="#666666">[text]</text>
</g>
<!-- public.state_action&#45;&gt;public.state -->
<g id="edge1" class="edge">
<title>public.state_action:model_key&#45;&gt;public.state:model_key</title>
<path fill="none" stroke="black" d="M487.72,-557.73C419.77,-548.32 460.79,-442.09 499.04,-373.6 520.1,-335.9 560.34,-359.85 581.5,-322.2 602.01,-285.7 624.37,-228 582.5,-228"/>
<polygon fill="black" stroke="black" points="487.73,-557.73 497.42,-562.87 493.05,-558.08 497.38,-558.36 497.38,-558.36 497.38,-558.36 493.05,-558.08 498,-553.89 487.73,-557.73"/>
<text text-anchor="start" x="7" y="-568.4" font-family="Arial" font-size="10.00">FOREIGN KEY (model_key, state_key) REFERENCES state(model_key, state_key) ON DELETE CASCADE</text>
</g>
<!-- public.action -->
<g id="node3" class="node">
<title>public.action</title>
<polygon fill="#efefef" stroke="none" points="686.04,-258.8 686.04,-294.4 918,-294.4 918,-258.8 686.04,-258.8"/>
<polygon fill="none" stroke="black" points="686.04,-258.8 686.04,-294.4 918,-294.4 918,-258.8 686.04,-258.8"/>
<text text-anchor="start" x="693.04" y="-272.2" font-family="Arial Bold" font-size="18.00">public.action</text>
<text text-anchor="start" x="786.51" y="-272.2" font-family="Arial" font-size="14.00">    </text>
<text text-anchor="start" x="817.62" y="-272.2" font-family="Arial" font-size="14.00" fill="#666666">[BASE TABLE]</text>
<polygon fill="none" stroke="black" points="686.04,-228 686.04,-258.8 918,-258.8 918,-228 686.04,-228"/>
<text text-anchor="start" x="693.04" y="-240.2" font-family="Arial" font-size="14.00">model_key </text>
<text text-anchor="start" x="764.63" y="-240.2" font-family="Arial" font-size="14.00" fill="#666666">[text]</text>
<polygon fill="none" stroke="black" points="686.04,-197.2 686.04,-228 918,-228 918,-197.2 686.04,-197.2"/>
<text text-anchor="start" x="693.04" y="-209.4" font-family="Arial" font-size="14.00">class_key </text>
<text text-anchor="start" x="758.39" y="-209.4" font-family="Arial" font-size="14.00" fill="#666666">[text]</text>
<polygon fill="none" stroke="black" points="686.04,-166.4 686.04,-197.2 918,-197.2 918,-166.4 686.04,-166.4"/>
<text text-anchor="start" x="693.04" y="-178.6" font-family="Arial" font-size="14.00">action_key </text>
<text text-anchor="start" x="763.86" y="-178.6" font-family="Arial" font-size="14.00" fill="#666666">[text]</text>
<polygon fill="none" stroke="black" points="686.04,-135.6 686.04,-166.4 918,-166.4 918,-135.6 686.04,-135.6"/>
<text text-anchor="start" x="693.04" y="-147.8" font-family="Arial" font-size="14.00">name </text>
<text text-anchor="start" x="731.95" y="-147.8" font-family="Arial" font-size="14.00" fill="#666666">[text]</text>
<polygon fill="none" stroke="black" points="686.04,-104.8 686.04,-135.6 918,-135.6 918,-104.8 686.04,-104.8"/>
<text text-anchor="start" x="693.04" y="-117" font-family="Arial" font-size="14.00">details </text>
<text text-anchor="start" x="737.39" y="-117" font-family="Arial" font-size="14.00" fill="#666666">[text]</text>
<polygon fill="none" stroke="black" points="686.04,-74 686.04,-104.8 918,-104.8 918,-74 686.04,-74"/>
<text text-anchor="start" x="693.04" y="-86.2" font-family="Arial" font-size="14.00">requires </text>
<text text-anchor="start" x="747.5" y="-86.2" font-family="Arial" font-size="14.00" fill="#666666">[text[]]</text>
<polygon fill="none" stroke="black" points="686.04,-43.2 686.04,-74 918,-74 918,-43.2 686.04,-43.2"/>
<text text-anchor="start" x="693.04" y="-55.4" font-family="Arial" font-size="14.00">guarantees </text>
<text text-anchor="start" x="766.98" y="-55.4" font-family="Arial" font-size="14.00" fill="#666666">[text[]]</text>
</g>
<!-- public.state_action&#45;&gt;public.action -->
<g id="edge2" class="edge">
<title>public.state_action:model_key&#45;&gt;public.action:model_key</title>
<path fill="none" stroke="black" d="M784.35,-557.71C852.75,-548.02 816.75,-438.7 772.99,-373.6 749.65,-338.89 709.46,-372.25 686.04,-337.6 662.59,-302.91 643.17,-243.4 685.04,-243.4"/>
<polygon fill="black" stroke="black" points="784.3,-557.71 774.02,-553.89 778.98,-558.07 774.66,-558.36 774.66,-558.36 774.66,-558.36 778.98,-558.07 774.62,-562.87 784.3,-557.71"/>
<text text-anchor="start" x="780.99" y="-568.4" font-family="Arial" font-size="10.00">FOREIGN KEY (model_key, action_key) REFERENCES action(model_key, action_key) ON DELETE CASCADE</text>
</g>
</g>
</svg>
