<?xml version="1.0" encoding="UTF-8" standalone="no"?>
<!DOCTYPE svg PUBLIC "-//W3C//DTD SVG 1.1//EN"
 "http://www.w3.org/Graphics/SVG/1.1/DTD/svg11.dtd">
<!-- Generated by graphviz version 12.1.2 (20240928.0832)
 -->
<!-- Title: public.query Pages: 1 -->
<svg width="1520pt" height="1099pt"
 viewBox="0.00 0.00 1520.18 1098.80" xmlns="http://www.w3.org/2000/svg" xmlns:xlink="http://www.w3.org/1999/xlink">
<g id="graph0" class="graph" transform="scale(1 1) rotate(0) translate(4 1094.8)">
<title>public.query</title>
<polygon fill="white" stroke="none" points="-4,4 -4,-1094.8 1516.18,-1094.8 1516.18,4 -4,4"/>
<!-- public.query -->
<g id="node1" class="node">
<title>public.query</title>
<polygon fill="#efefef" stroke="none" points="641.61,-635.4 641.61,-671 870.57,-671 870.57,-635.4 641.61,-635.4"/>
<polygon fill="none" stroke="black" points="641.61,-635.4 641.61,-671 870.57,-671 870.57,-635.4 641.61,-635.4"/>
<text text-anchor="start" x="648.61" y="-648.8" font-family="Arial Bold" font-size="18.00">public.query</text>
<text text-anchor="start" x="739.08" y="-648.8" font-family="Arial" font-size="14.00">    </text>
<text text-anchor="start" x="770.2" y="-648.8" font-family="Arial" font-size="14.00" fill="#666666">[BASE TABLE]</text>
<polygon fill="none" stroke="black" points="641.61,-604.6 641.61,-635.4 870.57,-635.4 870.57,-604.6 641.61,-604.6"/>
<text text-anchor="start" x="648.61" y="-616.8" font-family="Arial" font-size="14.00">model_key </text>
<text text-anchor="start" x="720.2" y="-616.8" font-family="Arial" font-size="14.00" fill="#666666">[text]</text>
<polygon fill="none" stroke="black" points="641.61,-573.8 641.61,-604.6 870.57,-604.6 870.57,-573.8 641.61,-573.8"/>
<text text-anchor="start" x="648.61" y="-586" font-family="Arial" font-size="14.00">class_key </text>
<text text-anchor="start" x="713.97" y="-586" font-family="Arial" font-size="14.00" fill="#666666">[text]</text>
<polygon fill="none" stroke="black" points="641.61,-543 641.61,-573.8 870.57,-573.8 870.57,-543 641.61,-543"/>
<text text-anchor="start" x="648.61" y="-555.2" font-family="Arial" font-size="14.00">query_key </text>
<text text-anchor="start" x="717.09" y="-555.2" font-family="Arial" font-size="14.00" fill="#666666">[text]</text>
<polygon fill="none" stroke="black" points="641.61,-512.2 641.61,-543 870.57,-543 870.57,-512.2 641.61,-512.2"/>
<text text-anchor="start" x="648.61" y="-524.4" font-family="Arial" font-size="14.00">name </text>
<text text-anchor="start" x="687.52" y="-524.4" font-family="Arial" font-size="14.00" fill="#666666">[text]</text>
<polygon fill="none" stroke="black" points="641.61,-481.4 641.61,-512.2 870.57,-512.2 870.57,-481.4 641.61,-481.4"/>
<text text-anchor="start" x="648.61" y="-493.6" font-family="Arial" font-size="14.00">details </text>
<text text-anchor="start" x="692.97" y="-493.6" font-family="Arial" font-size="14.00" fill="#666666">[text]</text>
<polygon fill="none" stroke="black" stroke-width="3" points="640.11,-479.9 640.11,-672.5 872.07,-672.5 872.07,-479.9 640.11,-479.9"/>
</g>
<!-- public.class -->
<g id="node2" class="node">
<title>public.class</title>
<polygon fill="#efefef" stroke="none" points="644.61,-320.4 644.61,-356 867.58,-356 867.58,-320.4 644.61,-320.4"/>
<polygon fill="none" stroke="black" points="644.61,-320.4 644.61,-356 867.58,-356 867.58,-320.4 644.61,-320.4"/>
<text text-anchor="start" x="651.61" y="-333.8" font-family="Arial Bold" font-size="18.00">public.class</text>
<text text-anchor="start" x="736.09" y="-333.8" font-family="Arial" font-size="14.00">    </text>
<text text-anchor="start" x="767.21" y="-333.8" font-family="Arial" font-size="14.00" fill="#666666">[BASE TABLE]</text>
<polygon fill="none" stroke="black" points="644.61,-289.6 644.61,-320.4 867.58,-320.4 867.58,-289.6 644.61,-289.6"/>
<text text-anchor="start" x="651.61" y="-301.8" font-family="Arial" font-size="14.00">model_key </text>
<text text-anchor="start" x="723.2" y="-301.8" font-family="Arial" font-size="14.00" fill="#666666">[text]</text>
<polygon fill="none" stroke="black" points="644.61,-258.8 644.61,-289.6 867.58,-289.6 867.58,-258.8 644.61,-258.8"/>
<text text-anchor="start" x="651.61" y="-271" font-family="Arial" font-size="14.00">class_key </text>
<text text-anchor="start" x="716.97" y="-271" font-family="Arial" font-size="14.00" fill="#666666">[text]</text>
<polygon fill="none" stroke="black" points="644.61,-228 644.61,-258.8 867.58,-258.8 867.58,-228 644.61,-228"/>
<text text-anchor="start" x="651.61" y="-240.2" font-family="Arial" font-size="14.00">name </text>
<text text-anchor="start" x="690.52" y="-240.2" font-family="Arial" font-size="14.00" fill="#666666">[text]</text>
<polygon fill="none" stroke="black" points="644.61,-197.2 644.61,-228 867.58,-228 867.58,-197.2 644.61,-197.2"/>
<text text-anchor="start" x="651.61" y="-209.4" font-family="Arial" font-size="14.00">subdomain_key </text>
<text text-anchor="start" x="753.56" y="-209.4" font-family="Arial" font-size="14.00" fill="#666666">[text]</text>
<polygon fill="none" stroke="black" points="644.61,-166.4 644.61,-197.2 867.58,-197.2 867.58,-166.4 644.61,-166.4"/>
<text text-anchor="start" x="651.61" y="-178.6" font-family="Arial" font-size="14.00">actor_key </text>
<text text-anchor="start" x="716.19" y="-178.6" font-family="Arial" font-size="14.00" fill="#666666">[text]</text>
<polygon fill="none" stroke="black" points="644.61,-135.6 644.61,-166.4 867.58,-166.4 867.58,-135.6 644.61,-135.6"/>
<text text-anchor="start" x="651.61" y="-147.8" font-family="Arial" font-size="14.00">superclass_of_key </text>
<text text-anchor="start" x="771.45" y="-147.8" font-family="Arial" font-size="14.00" fill="#666666">[text]</text>
<polygon fill="none" stroke="black" points="644.61,-104.8 644.61,-135.6 867.58,-135.6 867.58,-104.8 644.61,-104.8"/>
<text text-anchor="start" x="651.61" y="-117" font-family="Arial" font-size="14.00">subclass_of_key </text>
<text text-anchor="start" x="759" y="-117" font-family="Arial" font-size="14.00" fill="#666666">[text]</text>
<polygon fill="none" stroke="black" points="644.61,-74 644.61,-104.8 867.58,-104.8 867.58,-74 644.61,-74"/>
<text text-anchor="start" x="651.61" y="-86.2" font-family="Arial" font-size="14.00">details </text>
<text text-anchor="start" x="695.97" y="-86.2" font-family="Arial" font-size="14.00" fill="#666666">[text]</text>
<polygon fill="none" stroke="black" points="644.61,-43.2 644.61,-74 867.58,-74 867.58,-43.2 644.61,-43.2"/>
<text text-anchor="start" x="651.61" y="-55.4" font-family="Arial" font-size="14.00">uml_comment </text>
<text text-anchor="start" x="743.41" y="-55.4" font-family="Arial" font-size="14.00" fill="#666666">[text]</text>
</g>
<!-- public.query&#45;&gt;public.class -->
<g id="edge1" class="edge">
<title>public.query:model_key&#45;&gt;public.class:model_key</title>
<path fill="none" stroke="black" d="M881.96,-619.4C1011.34,-604.21 1005.03,-305 868.58,-305"/>
<polygon fill="black" stroke="black" points="881.89,-619.41 871.65,-615.49 876.57,-619.71 872.24,-619.96 872.24,-619.96 872.24,-619.96 876.57,-619.71 872.17,-624.47 881.89,-619.41"/>
<text text-anchor="start" x="878.57" y="-630" font-family="Arial" font-size="10.00">FOREIGN KEY (model_key, class_key) REFERENCES class(model_key, class_key) ON DELETE CASCADE</text>
</g>
<!-- public.query_parameter -->
<g id="node3" class="node">
<title>public.query_parameter</title>
<polygon fill="#efefef" stroke="none" points="197.14,-1012 197.14,-1047.6 507.05,-1047.6 507.05,-1012 197.14,-1012"/>
<polygon fill="none" stroke="black" points="197.14,-1012 197.14,-1047.6 507.05,-1047.6 507.05,-1012 197.14,-1012"/>
<text text-anchor="start" x="204.14" y="-1025.4" font-family="Arial Bold" font-size="18.00">public.query_parameter</text>
<text text-anchor="start" x="375.56" y="-1025.4" font-family="Arial" font-size="14.00">    </text>
<text text-anchor="start" x="406.68" y="-1025.4" font-family="Arial" font-size="14.00" fill="#666666">[BASE TABLE]</text>
<polygon fill="none" stroke="black" points="197.14,-981.2 197.14,-1012 507.05,-1012 507.05,-981.2 197.14,-981.2"/>
<text text-anchor="start" x="204.14" y="-993.4" font-family="Arial" font-size="14.00">model_key </text>
<text text-anchor="start" x="275.73" y="-993.4" font-family="Arial" font-size="14.00" fill="#666666">[text]</text>
<polygon fill="none" stroke="black" points="197.14,-950.4 197.14,-981.2 507.05,-981.2 507.05,-950.4 197.14,-950.4"/>
<text text-anchor="start" x="204.14" y="-962.6" font-family="Arial" font-size="14.00">query_key </text>
<text text-anchor="start" x="272.62" y="-962.6" font-family="Arial" font-size="14.00" fill="#666666">[text]</text>
<polygon fill="none" stroke="black" points="197.14,-919.6 197.14,-950.4 507.05,-950.4 507.05,-919.6 197.14,-919.6"/>
<text text-anchor="start" x="204.14" y="-931.8" font-family="Arial" font-size="14.00">parameter_key </text>
<text text-anchor="start" x="301.41" y="-931.8" font-family="Arial" font-size="14.00" fill="#666666">[text]</text>
<polygon fill="none" stroke="black" points="197.14,-888.8 197.14,-919.6 507.05,-919.6 507.05,-888.8 197.14,-888.8"/>
<text text-anchor="start" x="204.14" y="-901" font-family="Arial" font-size="14.00">name </text>
<text text-anchor="start" x="243.05" y="-901" font-family="Arial" font-size="14.00" fill="#666666">[text]</text>
<polygon fill="none" stroke="black" points="197.14,-858 197.14,-888.8 507.05,-888.8 507.05,-858 197.14,-858"/>
<text text-anchor="start" x="204.14" y="-870.2" font-family="Arial" font-size="14.00">sort_order </text>
<text text-anchor="start" x="271.83" y="-870.2" font-family="Arial" font-size="14.00" fill="#666666">[integer]</text>
<polygon fill="none" stroke="black" points="197.14,-827.2 197.14,-858 507.05,-858 507.05,-827.2 197.14,-827.2"/>
<text text-anchor="start" x="204.14" y="-839.4" font-family="Arial" font-size="14.00">data_type_rules </text>
<text text-anchor="start" x="307.65" y="-839.4" font-family="Arial" font-size="14.00" fill="#666666">[text]</text>
<polygon fill="none" stroke="black" points="197.14,-796.4 197.14,-827.2 507.05,-827.2 507.05,-796.4 197.14,-796.4"/>
<text text-anchor="start" x="204.14" y="-808.6" font-family="Arial" font-size="14.00">data_type_key </text>
<text text-anchor="start" x="299.09" y="-808.6" font-family="Arial" font-size="14.00" fill="#666666">[text]</text>
</g>
<!-- public.query_parameter&#45;&gt;public.query -->
<g id="edge2" class="edge">
<title>public.query_parameter:model_key&#45;&gt;public.query:model_key</title>
<path fill="none" stroke="black" d="M518.04,-994.16C560.24,-971.72 540.05,-801.15 559.09,-753.2 584.7,-688.69 571.2,-620 640.61,-620"/>
<polygon fill="black" stroke="black" points="518.09,-994.14 507.3,-992.15 512.9,-995.41 508.7,-996.44 508.7,-996.44 508.7,-996.44 512.9,-995.41 509.44,-1000.89 518.09,-994.14"/>
<text text-anchor="start" x="7" y="-1006.6" font-family="Arial" font-size="10.00">FOREIGN KEY (model_key, query_key) REFERENCES query(model_key, query_key) ON DELETE CASCADE</text>
</g>
<!-- public.query_require -->
<g id="node4" class="node">
<title>public.query_require</title>
<polygon fill="#efefef" stroke="none" points="611.63,-950.4 611.63,-986 900.56,-986 900.56,-950.4 611.63,-950.4"/>
<polygon fill="none" stroke="black" points="611.63,-950.4 611.63,-986 900.56,-986 900.56,-950.4 611.63,-950.4"/>
<text text-anchor="start" x="618.63" y="-963.8" font-family="Arial Bold" font-size="18.00">public.query_require</text>
<text text-anchor="start" x="769.07" y="-963.8" font-family="Arial" font-size="14.00">    </text>
<text text-anchor="start" x="800.19" y="-963.8" font-family="Arial" font-size="14.00" fill="#666666">[BASE TABLE]</text>
<polygon fill="none" stroke="black" points="611.63,-919.6 611.63,-950.4 900.56,-950.4 900.56,-919.6 611.63,-919.6"/>
<text text-anchor="start" x="618.63" y="-931.8" font-family="Arial" font-size="14.00">model_key </text>
<text text-anchor="start" x="690.22" y="-931.8" font-family="Arial" font-size="14.00" fill="#666666">[text]</text>
<polygon fill="none" stroke="black" points="611.63,-888.8 611.63,-919.6 900.56,-919.6 900.56,-888.8 611.63,-888.8"/>
<text text-anchor="start" x="618.63" y="-901" font-family="Arial" font-size="14.00">query_key </text>
<text text-anchor="start" x="687.11" y="-901" font-family="Arial" font-size="14.00" fill="#666666">[text]</text>
<polygon fill="none" stroke="black" points="611.63,-858 611.63,-888.8 900.56,-888.8 900.56,-858 611.63,-858"/>
<text text-anchor="start" x="618.63" y="-870.2" font-family="Arial" font-size="14.00">logic_key </text>
<text text-anchor="start" x="680.88" y="-870.2" font-family="Arial" font-size="14.00" fill="#666666">[text]</text>
</g>
<!-- public.query_require&#45;&gt;public.query -->
<g id="edge3" class="edge">
<title>public.query_require:model_key&#45;&gt;public.query:model_key</title>
<path fill="none" stroke="black" d="M911.5,-932.65C968.73,-903.82 938.32,-620 871.57,-620"/>
<polygon fill="black" stroke="black" points="911.61,-932.62 900.85,-930.54 906.42,-933.85 902.21,-934.85 902.21,-934.85 902.21,-934.85 906.42,-933.85 902.92,-939.3 911.61,-932.62"/>
<text text-anchor="start" x="908.56" y="-945" font-family="Arial" font-size="10.00">FOREIGN KEY (model_key, query_key) REFERENCES query(model_key, query_key) ON DELETE CASCADE</text>
</g>
<!-- public.query_guarantee -->
<g id="node5" class="node">
<title>public.query_guarantee</title>
<polygon fill="#efefef" stroke="none" points="1005.13,-950.4 1005.13,-986 1313.05,-986 1313.05,-950.4 1005.13,-950.4"/>
<polygon fill="none" stroke="black" points="1005.13,-950.4 1005.13,-986 1313.05,-986 1313.05,-950.4 1005.13,-950.4"/>
<text text-anchor="start" x="1012.13" y="-963.8" font-family="Arial Bold" font-size="18.00">public.query_guarantee</text>
<text text-anchor="start" x="1181.56" y="-963.8" font-family="Arial" font-size="14.00">    </text>
<text text-anchor="start" x="1212.68" y="-963.8" font-family="Arial" font-size="14.00" fill="#666666">[BASE TABLE]</text>
<polygon fill="none" stroke="black" points="1005.13,-919.6 1005.13,-950.4 1313.05,-950.4 1313.05,-919.6 1005.13,-919.6"/>
<text text-anchor="start" x="1012.13" y="-931.8" font-family="Arial" font-size="14.00">model_key </text>
<text text-anchor="start" x="1083.73" y="-931.8" font-family="Arial" font-size="14.00" fill="#666666">[text]</text>
<polygon fill="none" stroke="black" points="1005.13,-888.8 1005.13,-919.6 1313.05,-919.6 1313.05,-888.8 1005.13,-888.8"/>
<text text-anchor="start" x="1012.13" y="-901" font-family="Arial" font-size="14.00">query_key </text>
<text text-anchor="start" x="1080.62" y="-901" font-family="Arial" font-size="14.00" fill="#666666">[text]</text>
<polygon fill="none" stroke="black" points="1005.13,-858 1005.13,-888.8 1313.05,-888.8 1313.05,-858 1005.13,-858"/>
<text text-anchor="start" x="1012.13" y="-870.2" font-family="Arial" font-size="14.00">logic_key </text>
<text text-anchor="start" x="1074.39" y="-870.2" font-family="Arial" font-size="14.00" fill="#666666">[text]</text>
</g>
<!-- public.query_guarantee&#45;&gt;public.query -->
<g id="edge4" class="edge">
<title>public.query_guarantee:model_key&#45;&gt;public.query:model_key</title>
<path fill="none" stroke="black" d="M993.71,-934.38C925.98,-925.63 985.15,-826.66 953.09,-753.2 925.33,-689.59 940.98,-620 871.57,-620"/>
<polygon fill="black" stroke="black" points="993.82,-934.38 1003.53,-939.47 999.14,-934.7 1003.47,-934.96 1003.47,-934.96 1003.47,-934.96 999.14,-934.7 1004.07,-930.49 993.82,-934.38"/>
<text text-anchor="start" x="1011.13" y="-919" font-family="Arial" font-size="10.00">FOREIGN KEY (model_key, query_key) REFERENCES query(model_key, query_key) ON DELETE CASCADE</text>
</g>
</g>
</svg>
