<?xml version="1.0" encoding="UTF-8" standalone="no"?>
<!DOCTYPE svg PUBLIC "-//W3C//DTD SVG 1.1//EN"
 "http://www.w3.org/Graphics/SVG/1.1/DTD/svg11.dtd">
<!-- Generated by graphviz version 12.1.2 (20240928.0832)
 -->
<!-- Title: public.scenario_object Pages: 1 -->
<svg width="1336pt" height="1499pt"
 viewBox="0.00 0.00 1335.65 1499.20" xmlns="http://www.w3.org/2000/svg" xmlns:xlink="http://www.w3.org/1999/xlink">
<g id="graph0" class="graph" transform="scale(1 1) rotate(0) translate(4 1495.2)">
<title>public.scenario_object</title>
<polygon fill="white" stroke="none" points="-4,4 -4,-1495.2 1331.65,-1495.2 1331.65,4 -4,4"/>
<!-- public.scenario_object -->
<g id="node1" class="node">
<title>public.scenario_object</title>
<polygon fill="#efefef" stroke="none" points="407.88,-820.2 407.88,-855.8 708.81,-855.8 708.81,-820.2 407.88,-820.2"/>
<polygon fill="none" stroke="black" points="407.88,-820.2 407.88,-855.8 708.81,-855.8 708.81,-820.2 407.88,-820.2"/>
<text text-anchor="start" x="414.88" y="-833.6" font-family="Arial Bold" font-size="18.00">public.scenario_object</text>
<text text-anchor="start" x="577.32" y="-833.6" font-family="Arial" font-size="14.00">    </text>
<text text-anchor="start" x="608.44" y="-833.6" font-family="Arial" font-size="14.00" fill="#666666">[BASE TABLE]</text>
<polygon fill="none" stroke="black" points="407.88,-789.4 407.88,-820.2 708.81,-820.2 708.81,-789.4 407.88,-789.4"/>
<text text-anchor="start" x="414.88" y="-801.6" font-family="Arial" font-size="14.00">model_key </text>
<text text-anchor="start" x="486.47" y="-801.6" font-family="Arial" font-size="14.00" fill="#666666">[text]</text>
<polygon fill="none" stroke="black" points="407.88,-758.6 407.88,-789.4 708.81,-789.4 708.81,-758.6 407.88,-758.6"/>
<text text-anchor="start" x="414.88" y="-770.8" font-family="Arial" font-size="14.00">scenario_object_key </text>
<text text-anchor="start" x="546.4" y="-770.8" font-family="Arial" font-size="14.00" fill="#666666">[text]</text>
<polygon fill="none" stroke="black" points="407.88,-727.8 407.88,-758.6 708.81,-758.6 708.81,-727.8 407.88,-727.8"/>
<text text-anchor="start" x="414.88" y="-740" font-family="Arial" font-size="14.00">scenario_key </text>
<text text-anchor="start" x="501.26" y="-740" font-family="Arial" font-size="14.00" fill="#666666">[text]</text>
<polygon fill="none" stroke="black" points="407.88,-697 407.88,-727.8 708.81,-727.8 708.81,-697 407.88,-697"/>
<text text-anchor="start" x="414.88" y="-709.2" font-family="Arial" font-size="14.00">object_number </text>
<text text-anchor="start" x="511.38" y="-709.2" font-family="Arial" font-size="14.00" fill="#666666">[integer]</text>
<polygon fill="none" stroke="black" points="407.88,-666.2 407.88,-697 708.81,-697 708.81,-666.2 407.88,-666.2"/>
<text text-anchor="start" x="414.88" y="-678.4" font-family="Arial" font-size="14.00">name </text>
<text text-anchor="start" x="453.79" y="-678.4" font-family="Arial" font-size="14.00" fill="#666666">[text]</text>
<polygon fill="none" stroke="black" points="407.88,-635.4 407.88,-666.2 708.81,-666.2 708.81,-635.4 407.88,-635.4"/>
<text text-anchor="start" x="414.88" y="-647.6" font-family="Arial" font-size="14.00">name_style </text>
<text text-anchor="start" x="490.36" y="-647.6" font-family="Arial" font-size="14.00" fill="#666666">[scenario_object_name_style]</text>
<polygon fill="none" stroke="black" points="407.88,-604.6 407.88,-635.4 708.81,-635.4 708.81,-604.6 407.88,-604.6"/>
<text text-anchor="start" x="414.88" y="-616.8" font-family="Arial" font-size="14.00">class_key </text>
<text text-anchor="start" x="480.24" y="-616.8" font-family="Arial" font-size="14.00" fill="#666666">[text]</text>
<polygon fill="none" stroke="black" points="407.88,-573.8 407.88,-604.6 708.81,-604.6 708.81,-573.8 407.88,-573.8"/>
<text text-anchor="start" x="414.88" y="-586" font-family="Arial" font-size="14.00">multi </text>
<text text-anchor="start" x="448.33" y="-586" font-family="Arial" font-size="14.00" fill="#666666">[boolean]</text>
<polygon fill="none" stroke="black" points="407.88,-543 407.88,-573.8 708.81,-573.8 708.81,-543 407.88,-543"/>
<text text-anchor="start" x="414.88" y="-555.2" font-family="Arial" font-size="14.00">uml_comment </text>
<text text-anchor="start" x="506.69" y="-555.2" font-family="Arial" font-size="14.00" fill="#666666">[text]</text>
<polygon fill="none" stroke="black" stroke-width="3" points="406.38,-541.5 406.38,-857.3 710.31,-857.3 710.31,-541.5 406.38,-541.5"/>
</g>
<!-- public.model -->
<g id="node2" class="node">
<title>public.model</title>
<polygon fill="#efefef" stroke="none" points="109.86,-274.2 109.86,-309.8 342.83,-309.8 342.83,-274.2 109.86,-274.2"/>
<polygon fill="none" stroke="black" points="109.86,-274.2 109.86,-309.8 342.83,-309.8 342.83,-274.2 109.86,-274.2"/>
<text text-anchor="start" x="116.86" y="-287.6" font-family="Arial Bold" font-size="18.00">public.model</text>
<text text-anchor="start" x="211.34" y="-287.6" font-family="Arial" font-size="14.00">    </text>
<text text-anchor="start" x="242.46" y="-287.6" font-family="Arial" font-size="14.00" fill="#666666">[BASE TABLE]</text>
<polygon fill="none" stroke="black" points="109.86,-243.4 109.86,-274.2 342.83,-274.2 342.83,-243.4 109.86,-243.4"/>
<text text-anchor="start" x="116.86" y="-255.6" font-family="Arial" font-size="14.00">model_key </text>
<text text-anchor="start" x="188.45" y="-255.6" font-family="Arial" font-size="14.00" fill="#666666">[text]</text>
<polygon fill="none" stroke="black" points="109.86,-212.6 109.86,-243.4 342.83,-243.4 342.83,-212.6 109.86,-212.6"/>
<text text-anchor="start" x="116.86" y="-224.8" font-family="Arial" font-size="14.00">name </text>
<text text-anchor="start" x="155.77" y="-224.8" font-family="Arial" font-size="14.00" fill="#666666">[text]</text>
<polygon fill="none" stroke="black" points="109.86,-181.8 109.86,-212.6 342.83,-212.6 342.83,-181.8 109.86,-181.8"/>
<text text-anchor="start" x="116.86" y="-194" font-family="Arial" font-size="14.00">details </text>
<text text-anchor="start" x="161.22" y="-194" font-family="Arial" font-size="14.00" fill="#666666">[text]</text>
<polygon fill="none" stroke="black" points="109.86,-151 109.86,-181.8 342.83,-181.8 342.83,-151 109.86,-151"/>
<text text-anchor="start" x="116.86" y="-163.2" font-family="Arial" font-size="14.00">unfinished_notes </text>
<text text-anchor="start" x="226.61" y="-163.2" font-family="Arial" font-size="14.00" fill="#666666">[text]</text>
</g>
<!-- public.scenario_object&#45;&gt;public.model -->
<g id="edge1" class="edge">
<title>public.scenario_object:model_key&#45;&gt;public.model:model_key</title>
<path fill="none" stroke="black" d="M396.61,-803.33C295.44,-772.24 462.27,-258.8 343.83,-258.8"/>
<polygon fill="black" stroke="black" points="396.65,-803.34 405.91,-809.21 401.93,-804.09 406.22,-804.71 406.22,-804.71 406.22,-804.71 401.93,-804.09 407.19,-800.3 396.65,-803.34"/>
<text text-anchor="start" x="7" y="-814.8" font-family="Arial" font-size="10.00">FOREIGN KEY (model_key) REFERENCES model(model_key) ON DELETE CASCADE</text>
</g>
<!-- public.class -->
<g id="node3" class="node">
<title>public.class</title>
<polygon fill="#efefef" stroke="none" points="446.86,-382 446.86,-417.6 669.83,-417.6 669.83,-382 446.86,-382"/>
<polygon fill="none" stroke="black" points="446.86,-382 446.86,-417.6 669.83,-417.6 669.83,-382 446.86,-382"/>
<text text-anchor="start" x="453.86" y="-395.4" font-family="Arial Bold" font-size="18.00">public.class</text>
<text text-anchor="start" x="538.34" y="-395.4" font-family="Arial" font-size="14.00">    </text>
<text text-anchor="start" x="569.46" y="-395.4" font-family="Arial" font-size="14.00" fill="#666666">[BASE TABLE]</text>
<polygon fill="none" stroke="black" points="446.86,-351.2 446.86,-382 669.83,-382 669.83,-351.2 446.86,-351.2"/>
<text text-anchor="start" x="453.86" y="-363.4" font-family="Arial" font-size="14.00">model_key </text>
<text text-anchor="start" x="525.45" y="-363.4" font-family="Arial" font-size="14.00" fill="#666666">[text]</text>
<polygon fill="none" stroke="black" points="446.86,-320.4 446.86,-351.2 669.83,-351.2 669.83,-320.4 446.86,-320.4"/>
<text text-anchor="start" x="453.86" y="-332.6" font-family="Arial" font-size="14.00">class_key </text>
<text text-anchor="start" x="519.22" y="-332.6" font-family="Arial" font-size="14.00" fill="#666666">[text]</text>
<polygon fill="none" stroke="black" points="446.86,-289.6 446.86,-320.4 669.83,-320.4 669.83,-289.6 446.86,-289.6"/>
<text text-anchor="start" x="453.86" y="-301.8" font-family="Arial" font-size="14.00">name </text>
<text text-anchor="start" x="492.77" y="-301.8" font-family="Arial" font-size="14.00" fill="#666666">[text]</text>
<polygon fill="none" stroke="black" points="446.86,-258.8 446.86,-289.6 669.83,-289.6 669.83,-258.8 446.86,-258.8"/>
<text text-anchor="start" x="453.86" y="-271" font-family="Arial" font-size="14.00">subdomain_key </text>
<text text-anchor="start" x="555.81" y="-271" font-family="Arial" font-size="14.00" fill="#666666">[text]</text>
<polygon fill="none" stroke="black" points="446.86,-228 446.86,-258.8 669.83,-258.8 669.83,-228 446.86,-228"/>
<text text-anchor="start" x="453.86" y="-240.2" font-family="Arial" font-size="14.00">actor_key </text>
<text text-anchor="start" x="518.45" y="-240.2" font-family="Arial" font-size="14.00" fill="#666666">[text]</text>
<polygon fill="none" stroke="black" points="446.86,-197.2 446.86,-228 669.83,-228 669.83,-197.2 446.86,-197.2"/>
<text text-anchor="start" x="453.86" y="-209.4" font-family="Arial" font-size="14.00">superclass_of_key </text>
<text text-anchor="start" x="573.7" y="-209.4" font-family="Arial" font-size="14.00" fill="#666666">[text]</text>
<polygon fill="none" stroke="black" points="446.86,-166.4 446.86,-197.2 669.83,-197.2 669.83,-166.4 446.86,-166.4"/>
<text text-anchor="start" x="453.86" y="-178.6" font-family="Arial" font-size="14.00">subclass_of_key </text>
<text text-anchor="start" x="561.25" y="-178.6" font-family="Arial" font-size="14.00" fill="#666666">[text]</text>
<polygon fill="none" stroke="black" points="446.86,-135.6 446.86,-166.4 669.83,-166.4 669.83,-135.6 446.86,-135.6"/>
<text text-anchor="start" x="453.86" y="-147.8" font-family="Arial" font-size="14.00">details </text>
<text text-anchor="start" x="498.22" y="-147.8" font-family="Arial" font-size="14.00" fill="#666666">[text]</text>
<polygon fill="none" stroke="black" points="446.86,-104.8 446.86,-135.6 669.83,-135.6 669.83,-104.8 446.86,-104.8"/>
<text text-anchor="start" x="453.86" y="-117" font-family="Arial" font-size="14.00">unfinished_notes </text>
<text text-anchor="start" x="563.61" y="-117" font-family="Arial" font-size="14.00" fill="#666666">[text]</text>
<polygon fill="none" stroke="black" points="446.86,-74 446.86,-104.8 669.83,-104.8 669.83,-74 446.86,-74"/>
<text text-anchor="start" x="453.86" y="-86.2" font-family="Arial" font-size="14.00">uml_comment </text>
<text text-anchor="start" x="545.67" y="-86.2" font-family="Arial" font-size="14.00" fill="#666666">[text]</text>
<polygon fill="none" stroke="black" points="446.86,-43.2 446.86,-74 669.83,-74 669.83,-43.2 446.86,-43.2"/>
<text text-anchor="start" x="453.86" y="-55.4" font-family="Arial" font-size="14.00">marked </text>
<text text-anchor="start" x="504.43" y="-55.4" font-family="Arial" font-size="14.00" fill="#666666">[boolean]</text>
</g>
<!-- public.scenario_object&#45;&gt;public.class -->
<g id="edge2" class="edge">
<title>public.scenario_object:model_key&#45;&gt;public.class:model_key</title>
<path fill="none" stroke="black" d="M718.41,-799.26C753.47,-748.53 716.47,-366.6 670.83,-366.6"/>
<polygon fill="black" stroke="black" points="718.5,-799.2 707.65,-800.84 714.01,-802.09 710.37,-804.44 710.37,-804.44 710.37,-804.44 714.01,-802.09 712.53,-808.4 718.5,-799.2"/>
<text text-anchor="start" x="716.81" y="-814.8" font-family="Arial" font-size="10.00">FOREIGN KEY (model_key, class_key) REFERENCES class(model_key, class_key) ON DELETE CASCADE</text>
</g>
<!-- public.scenario -->
<g id="node4" class="node">
<title>public.scenario</title>
<polygon fill="#efefef" stroke="none" points="774.37,-289.6 774.37,-325.2 1022.32,-325.2 1022.32,-289.6 774.37,-289.6"/>
<polygon fill="none" stroke="black" points="774.37,-289.6 774.37,-325.2 1022.32,-325.2 1022.32,-289.6 774.37,-289.6"/>
<text text-anchor="start" x="781.37" y="-303" font-family="Arial Bold" font-size="18.00">public.scenario</text>
<text text-anchor="start" x="890.83" y="-303" font-family="Arial" font-size="14.00">    </text>
<text text-anchor="start" x="921.95" y="-303" font-family="Arial" font-size="14.00" fill="#666666">[BASE TABLE]</text>
<polygon fill="none" stroke="black" points="774.37,-258.8 774.37,-289.6 1022.32,-289.6 1022.32,-258.8 774.37,-258.8"/>
<text text-anchor="start" x="781.37" y="-271" font-family="Arial" font-size="14.00">model_key </text>
<text text-anchor="start" x="852.96" y="-271" font-family="Arial" font-size="14.00" fill="#666666">[text]</text>
<polygon fill="none" stroke="black" points="774.37,-228 774.37,-258.8 1022.32,-258.8 1022.32,-228 774.37,-228"/>
<text text-anchor="start" x="781.37" y="-240.2" font-family="Arial" font-size="14.00">scenario_key </text>
<text text-anchor="start" x="867.75" y="-240.2" font-family="Arial" font-size="14.00" fill="#666666">[text]</text>
<polygon fill="none" stroke="black" points="774.37,-197.2 774.37,-228 1022.32,-228 1022.32,-197.2 774.37,-197.2"/>
<text text-anchor="start" x="781.37" y="-209.4" font-family="Arial" font-size="14.00">name </text>
<text text-anchor="start" x="820.28" y="-209.4" font-family="Arial" font-size="14.00" fill="#666666">[text]</text>
<polygon fill="none" stroke="black" points="774.37,-166.4 774.37,-197.2 1022.32,-197.2 1022.32,-166.4 774.37,-166.4"/>
<text text-anchor="start" x="781.37" y="-178.6" font-family="Arial" font-size="14.00">use_case_key </text>
<text text-anchor="start" x="874.76" y="-178.6" font-family="Arial" font-size="14.00" fill="#666666">[text]</text>
<polygon fill="none" stroke="black" points="774.37,-135.6 774.37,-166.4 1022.32,-166.4 1022.32,-135.6 774.37,-135.6"/>
<text text-anchor="start" x="781.37" y="-147.8" font-family="Arial" font-size="14.00">details </text>
<text text-anchor="start" x="825.73" y="-147.8" font-family="Arial" font-size="14.00" fill="#666666">[text]</text>
</g>
<!-- public.scenario_object&#45;&gt;public.scenario -->
<g id="edge3" class="edge">
<title>public.scenario_object:model_key&#45;&gt;public.scenario:model_key</title>
<path fill="none" stroke="black" d="M720.1,-803.28C817.98,-772.16 658.33,-274.2 773.37,-274.2"/>
<polygon fill="black" stroke="black" points="720.03,-803.29 709.48,-800.3 714.76,-804.07 710.47,-804.7 710.47,-804.7 710.47,-804.7 714.76,-804.07 710.8,-809.2 720.03,-803.29"/>
<text text-anchor="start" x="716.81" y="-788.8" font-family="Arial" font-size="10.00">FOREIGN KEY (model_key, scenario_key) REFERENCES scenario(model_key, scenario_key) ON DELETE CASCADE</text>
</g>
<!-- public.scenario_step -->
<g id="node5" class="node">
<title>public.scenario_step</title>
<polygon fill="#efefef" stroke="none" points="415.37,-1412.4 415.37,-1448 701.32,-1448 701.32,-1412.4 415.37,-1412.4"/>
<polygon fill="none" stroke="black" points="415.37,-1412.4 415.37,-1448 701.32,-1448 701.32,-1412.4 415.37,-1412.4"/>
<text text-anchor="start" x="422.37" y="-1425.8" font-family="Arial Bold" font-size="18.00">public.scenario_step</text>
<text text-anchor="start" x="569.83" y="-1425.8" font-family="Arial" font-size="14.00">    </text>
<text text-anchor="start" x="600.94" y="-1425.8" font-family="Arial" font-size="14.00" fill="#666666">[BASE TABLE]</text>
<polygon fill="none" stroke="black" points="415.37,-1381.6 415.37,-1412.4 701.32,-1412.4 701.32,-1381.6 415.37,-1381.6"/>
<text text-anchor="start" x="422.37" y="-1393.8" font-family="Arial" font-size="14.00">model_key </text>
<text text-anchor="start" x="493.97" y="-1393.8" font-family="Arial" font-size="14.00" fill="#666666">[text]</text>
<polygon fill="none" stroke="black" points="415.37,-1350.8 415.37,-1381.6 701.32,-1381.6 701.32,-1350.8 415.37,-1350.8"/>
<text text-anchor="start" x="422.37" y="-1363" font-family="Arial" font-size="14.00">scenario_step_key </text>
<text text-anchor="start" x="543" y="-1363" font-family="Arial" font-size="14.00" fill="#666666">[text]</text>
<polygon fill="none" stroke="black" points="415.37,-1320 415.37,-1350.8 701.32,-1350.8 701.32,-1320 415.37,-1320"/>
<text text-anchor="start" x="422.37" y="-1332.2" font-family="Arial" font-size="14.00">scenario_key </text>
<text text-anchor="start" x="508.75" y="-1332.2" font-family="Arial" font-size="14.00" fill="#666666">[text]</text>
<polygon fill="none" stroke="black" points="415.37,-1289.2 415.37,-1320 701.32,-1320 701.32,-1289.2 415.37,-1289.2"/>
<text text-anchor="start" x="422.37" y="-1301.4" font-family="Arial" font-size="14.00">parent_step_key </text>
<text text-anchor="start" x="529.78" y="-1301.4" font-family="Arial" font-size="14.00" fill="#666666">[text]</text>
<polygon fill="none" stroke="black" points="415.37,-1258.4 415.37,-1289.2 701.32,-1289.2 701.32,-1258.4 415.37,-1258.4"/>
<text text-anchor="start" x="422.37" y="-1270.6" font-family="Arial" font-size="14.00">sort_order </text>
<text text-anchor="start" x="490.07" y="-1270.6" font-family="Arial" font-size="14.00" fill="#666666">[integer]</text>
<polygon fill="none" stroke="black" points="415.37,-1227.6 415.37,-1258.4 701.32,-1258.4 701.32,-1227.6 415.37,-1227.6"/>
<text text-anchor="start" x="422.37" y="-1239.8" font-family="Arial" font-size="14.00">step_type </text>
<text text-anchor="start" x="486.97" y="-1239.8" font-family="Arial" font-size="14.00" fill="#666666">[step_type]</text>
<polygon fill="none" stroke="black" points="415.37,-1196.8 415.37,-1227.6 701.32,-1227.6 701.32,-1196.8 415.37,-1196.8"/>
<text text-anchor="start" x="422.37" y="-1209" font-family="Arial" font-size="14.00">leaf_type </text>
<text text-anchor="start" x="483.08" y="-1209" font-family="Arial" font-size="14.00" fill="#666666">[leaf_type]</text>
<polygon fill="none" stroke="black" points="415.37,-1166 415.37,-1196.8 701.32,-1196.8 701.32,-1166 415.37,-1166"/>
<text text-anchor="start" x="422.37" y="-1178.2" font-family="Arial" font-size="14.00">condition </text>
<text text-anchor="start" x="482.3" y="-1178.2" font-family="Arial" font-size="14.00" fill="#666666">[text]</text>
<polygon fill="none" stroke="black" points="415.37,-1135.2 415.37,-1166 701.32,-1166 701.32,-1135.2 415.37,-1135.2"/>
<text text-anchor="start" x="422.37" y="-1147.4" font-family="Arial" font-size="14.00">description </text>
<text text-anchor="start" x="493.97" y="-1147.4" font-family="Arial" font-size="14.00" fill="#666666">[text]</text>
<polygon fill="none" stroke="black" points="415.37,-1104.4 415.37,-1135.2 701.32,-1135.2 701.32,-1104.4 415.37,-1104.4"/>
<text text-anchor="start" x="422.37" y="-1116.6" font-family="Arial" font-size="14.00">from_object_key </text>
<text text-anchor="start" x="528.98" y="-1116.6" font-family="Arial" font-size="14.00" fill="#666666">[text]</text>
<polygon fill="none" stroke="black" points="415.37,-1073.6 415.37,-1104.4 701.32,-1104.4 701.32,-1073.6 415.37,-1073.6"/>
<text text-anchor="start" x="422.37" y="-1085.8" font-family="Arial" font-size="14.00">to_object_key </text>
<text text-anchor="start" x="512.66" y="-1085.8" font-family="Arial" font-size="14.00" fill="#666666">[text]</text>
<polygon fill="none" stroke="black" points="415.37,-1042.8 415.37,-1073.6 701.32,-1073.6 701.32,-1042.8 415.37,-1042.8"/>
<text text-anchor="start" x="422.37" y="-1055" font-family="Arial" font-size="14.00">event_key </text>
<text text-anchor="start" x="490.08" y="-1055" font-family="Arial" font-size="14.00" fill="#666666">[text]</text>
<polygon fill="none" stroke="black" points="415.37,-1012 415.37,-1042.8 701.32,-1042.8 701.32,-1012 415.37,-1012"/>
<text text-anchor="start" x="422.37" y="-1024.2" font-family="Arial" font-size="14.00">query_key </text>
<text text-anchor="start" x="490.86" y="-1024.2" font-family="Arial" font-size="14.00" fill="#666666">[text]</text>
<polygon fill="none" stroke="black" points="415.37,-981.2 415.37,-1012 701.32,-1012 701.32,-981.2 415.37,-981.2"/>
<text text-anchor="start" x="422.37" y="-993.4" font-family="Arial" font-size="14.00">scenario_ref_key </text>
<text text-anchor="start" x="532.88" y="-993.4" font-family="Arial" font-size="14.00" fill="#666666">[text]</text>
</g>
<!-- public.scenario_step&#45;&gt;public.scenario_object -->
<g id="edge4" class="edge">
<title>public.scenario_step:model_key&#45;&gt;public.scenario_object:model_key</title>
<path fill="none" stroke="black" d="M712.61,-1396.67C956.69,-1380.92 960.55,-804.8 709.81,-804.8"/>
<polygon fill="black" stroke="black" points="712.65,-1396.67 702.51,-1392.49 707.31,-1396.84 702.99,-1396.98 702.99,-1396.98 702.99,-1396.98 707.31,-1396.84 702.8,-1401.49 712.65,-1396.67"/>
<text text-anchor="start" x="709.32" y="-1407" font-family="Arial" font-size="10.00">FOREIGN KEY (model_key, from_object_key) REFERENCES scenario_object(model_key, scenario_object_key) ON DELETE CASCADE</text>
</g>
<!-- public.scenario_step&#45;&gt;public.scenario_object -->
<g id="edge5" class="edge">
<title>public.scenario_step:model_key&#45;&gt;public.scenario_object:model_key</title>
<path fill="none" stroke="black" d="M712.94,-1396.69C974.56,-1381.51 978.44,-805.37 710.21,-804.8"/>
<polygon fill="black" stroke="black" points="713.05,-1396.69 702.92,-1392.49 707.71,-1396.85 703.38,-1396.98 703.38,-1396.98 703.38,-1396.98 707.71,-1396.85 703.18,-1401.49 713.05,-1396.69"/>
<text text-anchor="start" x="709.72" y="-1381" font-family="Arial" font-size="10.00">FOREIGN KEY (model_key, to_object_key) REFERENCES scenario_object(model_key, scenario_object_key) ON DELETE CASCADE</text>
</g>
</g>
</svg>
