<?xml version="1.0" encoding="UTF-8" standalone="no"?>
<!DOCTYPE svg PUBLIC "-//W3C//DTD SVG 1.1//EN"
 "http://www.w3.org/Graphics/SVG/1.1/DTD/svg11.dtd">
<!-- Generated by graphviz version 12.1.2 (20240928.0832)
 -->
<!-- Title: public.logic Pages: 1 -->
<svg width="3809pt" height="1006pt"
 viewBox="0.00 0.00 3809.46 1006.40" xmlns="http://www.w3.org/2000/svg" xmlns:xlink="http://www.w3.org/1999/xlink">
<g id="graph0" class="graph" transform="scale(1 1) rotate(0) translate(4 1002.4)">
<title>public.logic</title>
<polygon fill="white" stroke="none" points="-4,4 -4,-1002.4 3805.46,-1002.4 3805.46,4 -4,4"/>
<!-- public.logic -->
<g id="node1" class="node">
<title>public.logic</title>
<polygon fill="#efefef" stroke="none" points="1791.74,-450.6 1791.74,-486.2 2015.71,-486.2 2015.71,-450.6 1791.74,-450.6"/>
<polygon fill="none" stroke="black" points="1791.74,-450.6 1791.74,-486.2 2015.71,-486.2 2015.71,-450.6 1791.74,-450.6"/>
<text text-anchor="start" x="1798.74" y="-464" font-family="Arial Bold" font-size="18.00">public.logic</text>
<text text-anchor="start" x="1884.22" y="-464" font-family="Arial" font-size="14.00">    </text>
<text text-anchor="start" x="1915.34" y="-464" font-family="Arial" font-size="14.00" fill="#666666">[BASE TABLE]</text>
<polygon fill="none" stroke="black" points="1791.74,-419.8 1791.74,-450.6 2015.71,-450.6 2015.71,-419.8 1791.74,-419.8"/>
<text text-anchor="start" x="1798.74" y="-432" font-family="Arial" font-size="14.00">logic_key </text>
<text text-anchor="start" x="1860.99" y="-432" font-family="Arial" font-size="14.00" fill="#666666">[text]</text>
<polygon fill="none" stroke="black" points="1791.74,-389 1791.74,-419.8 2015.71,-419.8 2015.71,-389 1791.74,-389"/>
<text text-anchor="start" x="1798.74" y="-401.2" font-family="Arial" font-size="14.00">model_key </text>
<text text-anchor="start" x="1870.33" y="-401.2" font-family="Arial" font-size="14.00" fill="#666666">[text]</text>
<polygon fill="none" stroke="black" points="1791.74,-358.2 1791.74,-389 2015.71,-389 2015.71,-358.2 1791.74,-358.2"/>
<text text-anchor="start" x="1798.74" y="-370.4" font-family="Arial" font-size="14.00">description </text>
<text text-anchor="start" x="1870.33" y="-370.4" font-family="Arial" font-size="14.00" fill="#666666">[text]</text>
<polygon fill="none" stroke="black" points="1791.74,-327.4 1791.74,-358.2 2015.71,-358.2 2015.71,-327.4 1791.74,-327.4"/>
<text text-anchor="start" x="1798.74" y="-339.6" font-family="Arial" font-size="14.00">notation </text>
<text text-anchor="start" x="1852.45" y="-339.6" font-family="Arial" font-size="14.00" fill="#666666">[notation]</text>
<polygon fill="none" stroke="black" points="1791.74,-296.6 1791.74,-327.4 2015.71,-327.4 2015.71,-296.6 1791.74,-296.6"/>
<text text-anchor="start" x="1798.74" y="-308.8" font-family="Arial" font-size="14.00">specification </text>
<text text-anchor="start" x="1879.67" y="-308.8" font-family="Arial" font-size="14.00" fill="#666666">[text]</text>
<polygon fill="none" stroke="black" stroke-width="3" points="1790.24,-295.1 1790.24,-487.7 2017.21,-487.7 2017.21,-295.1 1790.24,-295.1"/>
</g>
<!-- public.model -->
<g id="node11" class="node">
<title>public.model</title>
<polygon fill="#efefef" stroke="none" points="1787.24,-135.6 1787.24,-171.2 2020.21,-171.2 2020.21,-135.6 1787.24,-135.6"/>
<polygon fill="none" stroke="black" points="1787.24,-135.6 1787.24,-171.2 2020.21,-171.2 2020.21,-135.6 1787.24,-135.6"/>
<text text-anchor="start" x="1794.24" y="-149" font-family="Arial Bold" font-size="18.00">public.model</text>
<text text-anchor="start" x="1888.72" y="-149" font-family="Arial" font-size="14.00">    </text>
<text text-anchor="start" x="1919.84" y="-149" font-family="Arial" font-size="14.00" fill="#666666">[BASE TABLE]</text>
<polygon fill="none" stroke="black" points="1787.24,-104.8 1787.24,-135.6 2020.21,-135.6 2020.21,-104.8 1787.24,-104.8"/>
<text text-anchor="start" x="1794.24" y="-117" font-family="Arial" font-size="14.00">model_key </text>
<text text-anchor="start" x="1865.83" y="-117" font-family="Arial" font-size="14.00" fill="#666666">[text]</text>
<polygon fill="none" stroke="black" points="1787.24,-74 1787.24,-104.8 2020.21,-104.8 2020.21,-74 1787.24,-74"/>
<text text-anchor="start" x="1794.24" y="-86.2" font-family="Arial" font-size="14.00">name </text>
<text text-anchor="start" x="1833.15" y="-86.2" font-family="Arial" font-size="14.00" fill="#666666">[text]</text>
<polygon fill="none" stroke="black" points="1787.24,-43.2 1787.24,-74 2020.21,-74 2020.21,-43.2 1787.24,-43.2"/>
<text text-anchor="start" x="1794.24" y="-55.4" font-family="Arial" font-size="14.00">details </text>
<text text-anchor="start" x="1838.6" y="-55.4" font-family="Arial" font-size="14.00" fill="#666666">[text]</text>
</g>
<!-- public.logic&#45;&gt;public.model -->
<g id="edge10" class="edge">
<title>public.logic:model_key&#45;&gt;public.model:model_key</title>
<path fill="none" stroke="black" d="M2026.8,-403.77C2143.19,-389.07 2144.08,-120.2 2021.21,-120.2"/>
<polygon fill="black" stroke="black" points="2027.03,-403.76 2016.77,-399.89 2021.7,-404.09 2017.38,-404.36 2017.38,-404.36 2017.38,-404.36 2021.7,-404.09 2017.32,-408.87 2027.03,-403.76"/>
<text text-anchor="start" x="2023.71" y="-414.4" font-family="Arial" font-size="10.00">FOREIGN KEY (model_key) REFERENCES model(model_key) ON DELETE CASCADE</text>
</g>
<!-- public.invariant -->
<g id="node2" class="node">
<title>public.invariant</title>
<polygon fill="#efefef" stroke="none" points="241.75,-796.4 241.75,-832 493.7,-832 493.7,-796.4 241.75,-796.4"/>
<polygon fill="none" stroke="black" points="241.75,-796.4 241.75,-832 493.7,-832 493.7,-796.4 241.75,-796.4"/>
<text text-anchor="start" x="248.75" y="-809.8" font-family="Arial Bold" font-size="18.00">public.invariant</text>
<text text-anchor="start" x="362.21" y="-809.8" font-family="Arial" font-size="14.00">    </text>
<text text-anchor="start" x="393.33" y="-809.8" font-family="Arial" font-size="14.00" fill="#666666">[BASE TABLE]</text>
<polygon fill="none" stroke="black" points="241.75,-765.6 241.75,-796.4 493.7,-796.4 493.7,-765.6 241.75,-765.6"/>
<text text-anchor="start" x="248.75" y="-777.8" font-family="Arial" font-size="14.00">model_key </text>
<text text-anchor="start" x="320.34" y="-777.8" font-family="Arial" font-size="14.00" fill="#666666">[text]</text>
<polygon fill="none" stroke="black" points="241.75,-734.8 241.75,-765.6 493.7,-765.6 493.7,-734.8 241.75,-734.8"/>
<text text-anchor="start" x="248.75" y="-747" font-family="Arial" font-size="14.00">logic_key </text>
<text text-anchor="start" x="311" y="-747" font-family="Arial" font-size="14.00" fill="#666666">[text]</text>
</g>
<!-- public.invariant&#45;&gt;public.logic -->
<g id="edge1" class="edge">
<title>public.invariant:model_key&#45;&gt;public.logic:model_key</title>
<path fill="none" stroke="black" d="M504.65,-780.4C583.35,-770.16 476.2,-631.01 545.73,-568.4 649.41,-475.03 1651.21,-404.4 1790.74,-404.4"/>
<polygon fill="black" stroke="black" points="505.02,-780.38 494.77,-776.49 499.69,-780.7 495.37,-780.96 495.37,-780.96 495.37,-780.96 499.69,-780.7 495.31,-785.47 505.02,-780.38"/>
<text text-anchor="start" x="7" y="-791" font-family="Arial" font-size="10.00">FOREIGN KEY (model_key, logic_key) REFERENCES logic(model_key, logic_key) ON DELETE CASCADE</text>
</g>
<!-- public.global_function -->
<g id="node3" class="node">
<title>public.global_function</title>
<polygon fill="#efefef" stroke="none" points="597.75,-842.6 597.75,-878.2 899.7,-878.2 899.7,-842.6 597.75,-842.6"/>
<polygon fill="none" stroke="black" points="597.75,-842.6 597.75,-878.2 899.7,-878.2 899.7,-842.6 597.75,-842.6"/>
<text text-anchor="start" x="604.75" y="-856" font-family="Arial Bold" font-size="18.00">public.global_function</text>
<text text-anchor="start" x="768.21" y="-856" font-family="Arial" font-size="14.00">    </text>
<text text-anchor="start" x="799.33" y="-856" font-family="Arial" font-size="14.00" fill="#666666">[BASE TABLE]</text>
<polygon fill="none" stroke="black" points="597.75,-811.8 597.75,-842.6 899.7,-842.6 899.7,-811.8 597.75,-811.8"/>
<text text-anchor="start" x="604.75" y="-824" font-family="Arial" font-size="14.00">model_key </text>
<text text-anchor="start" x="676.34" y="-824" font-family="Arial" font-size="14.00" fill="#666666">[text]</text>
<polygon fill="none" stroke="black" points="597.75,-781 597.75,-811.8 899.7,-811.8 899.7,-781 597.75,-781"/>
<text text-anchor="start" x="604.75" y="-793.2" font-family="Arial" font-size="14.00">logic_key </text>
<text text-anchor="start" x="667" y="-793.2" font-family="Arial" font-size="14.00" fill="#666666">[text]</text>
<polygon fill="none" stroke="black" points="597.75,-750.2 597.75,-781 899.7,-781 899.7,-750.2 597.75,-750.2"/>
<text text-anchor="start" x="604.75" y="-762.4" font-family="Arial" font-size="14.00">name </text>
<text text-anchor="start" x="643.66" y="-762.4" font-family="Arial" font-size="14.00" fill="#666666">[text]</text>
<polygon fill="none" stroke="black" points="597.75,-719.4 597.75,-750.2 899.7,-750.2 899.7,-719.4 597.75,-719.4"/>
<text text-anchor="start" x="604.75" y="-731.6" font-family="Arial" font-size="14.00">comment </text>
<text text-anchor="start" x="666.21" y="-731.6" font-family="Arial" font-size="14.00" fill="#666666">[text]</text>
<polygon fill="none" stroke="black" points="597.75,-688.6 597.75,-719.4 899.7,-719.4 899.7,-688.6 597.75,-688.6"/>
<text text-anchor="start" x="604.75" y="-700.8" font-family="Arial" font-size="14.00">parameters </text>
<text text-anchor="start" x="679.44" y="-700.8" font-family="Arial" font-size="14.00" fill="#666666">[text[]]</text>
</g>
<!-- public.global_function&#45;&gt;public.logic -->
<g id="edge2" class="edge">
<title>public.global_function:model_key&#45;&gt;public.logic:model_key</title>
<path fill="none" stroke="black" d="M910.93,-826.69C1008.84,-816.29 871.35,-648.64 951.73,-568.4 1086.17,-434.18 1600.76,-404.4 1790.74,-404.4"/>
<polygon fill="black" stroke="black" points="911.03,-826.69 900.81,-822.69 905.7,-826.95 901.37,-827.17 901.37,-827.17 901.37,-827.17 905.7,-826.95 901.26,-831.68 911.03,-826.69"/>
<text text-anchor="start" x="413" y="-837.2" font-family="Arial" font-size="10.00">FOREIGN KEY (model_key, logic_key) REFERENCES logic(model_key, logic_key) ON DELETE CASCADE</text>
</g>
<!-- public.attribute -->
<g id="node4" class="node">
<title>public.attribute</title>
<polygon fill="#efefef" stroke="none" points="1003.75,-919.6 1003.75,-955.2 1251.7,-955.2 1251.7,-919.6 1003.75,-919.6"/>
<polygon fill="none" stroke="black" points="1003.75,-919.6 1003.75,-955.2 1251.7,-955.2 1251.7,-919.6 1003.75,-919.6"/>
<text text-anchor="start" x="1010.75" y="-933" font-family="Arial Bold" font-size="18.00">public.attribute</text>
<text text-anchor="start" x="1120.21" y="-933" font-family="Arial" font-size="14.00">    </text>
<text text-anchor="start" x="1151.33" y="-933" font-family="Arial" font-size="14.00" fill="#666666">[BASE TABLE]</text>
<polygon fill="none" stroke="black" points="1003.75,-888.8 1003.75,-919.6 1251.7,-919.6 1251.7,-888.8 1003.75,-888.8"/>
<text text-anchor="start" x="1010.75" y="-901" font-family="Arial" font-size="14.00">model_key </text>
<text text-anchor="start" x="1082.34" y="-901" font-family="Arial" font-size="14.00" fill="#666666">[text]</text>
<polygon fill="none" stroke="black" points="1003.75,-858 1003.75,-888.8 1251.7,-888.8 1251.7,-858 1003.75,-858"/>
<text text-anchor="start" x="1010.75" y="-870.2" font-family="Arial" font-size="14.00">attribute_key </text>
<text text-anchor="start" x="1094.79" y="-870.2" font-family="Arial" font-size="14.00" fill="#666666">[text]</text>
<polygon fill="none" stroke="black" points="1003.75,-827.2 1003.75,-858 1251.7,-858 1251.7,-827.2 1003.75,-827.2"/>
<text text-anchor="start" x="1010.75" y="-839.4" font-family="Arial" font-size="14.00">class_key </text>
<text text-anchor="start" x="1076.1" y="-839.4" font-family="Arial" font-size="14.00" fill="#666666">[text]</text>
<polygon fill="none" stroke="black" points="1003.75,-796.4 1003.75,-827.2 1251.7,-827.2 1251.7,-796.4 1003.75,-796.4"/>
<text text-anchor="start" x="1010.75" y="-808.6" font-family="Arial" font-size="14.00">name </text>
<text text-anchor="start" x="1049.66" y="-808.6" font-family="Arial" font-size="14.00" fill="#666666">[text]</text>
<polygon fill="none" stroke="black" points="1003.75,-765.6 1003.75,-796.4 1251.7,-796.4 1251.7,-765.6 1003.75,-765.6"/>
<text text-anchor="start" x="1010.75" y="-777.8" font-family="Arial" font-size="14.00">details </text>
<text text-anchor="start" x="1055.1" y="-777.8" font-family="Arial" font-size="14.00" fill="#666666">[text]</text>
<polygon fill="none" stroke="black" points="1003.75,-734.8 1003.75,-765.6 1251.7,-765.6 1251.7,-734.8 1003.75,-734.8"/>
<text text-anchor="start" x="1010.75" y="-747" font-family="Arial" font-size="14.00">data_type_rules </text>
<text text-anchor="start" x="1114.26" y="-747" font-family="Arial" font-size="14.00" fill="#666666">[text]</text>
<polygon fill="none" stroke="black" points="1003.75,-704 1003.75,-734.8 1251.7,-734.8 1251.7,-704 1003.75,-704"/>
<text text-anchor="start" x="1010.75" y="-716.2" font-family="Arial" font-size="14.00">data_type_key </text>
<text text-anchor="start" x="1105.7" y="-716.2" font-family="Arial" font-size="14.00" fill="#666666">[text]</text>
<polygon fill="none" stroke="black" points="1003.75,-673.2 1003.75,-704 1251.7,-704 1251.7,-673.2 1003.75,-673.2"/>
<text text-anchor="start" x="1010.75" y="-685.4" font-family="Arial" font-size="14.00">derivation_policy_key </text>
<text text-anchor="start" x="1148.49" y="-685.4" font-family="Arial" font-size="14.00" fill="#666666">[text]</text>
<polygon fill="none" stroke="black" points="1003.75,-642.4 1003.75,-673.2 1251.7,-673.2 1251.7,-642.4 1003.75,-642.4"/>
<text text-anchor="start" x="1010.75" y="-654.6" font-family="Arial" font-size="14.00">nullable </text>
<text text-anchor="start" x="1062.9" y="-654.6" font-family="Arial" font-size="14.00" fill="#666666">[boolean]</text>
<polygon fill="none" stroke="black" points="1003.75,-611.6 1003.75,-642.4 1251.7,-642.4 1251.7,-611.6 1003.75,-611.6"/>
<text text-anchor="start" x="1010.75" y="-623.8" font-family="Arial" font-size="14.00">uml_comment </text>
<text text-anchor="start" x="1102.55" y="-623.8" font-family="Arial" font-size="14.00" fill="#666666">[text]</text>
</g>
<!-- public.attribute&#45;&gt;public.logic -->
<g id="edge3" class="edge">
<title>public.attribute:model_key&#45;&gt;public.logic:model_key</title>
<path fill="none" stroke="black" d="M1262.73,-902.27C1321.34,-877.58 1257.56,-623.39 1303.73,-568.4 1377.15,-480.94 1676.54,-404.4 1790.74,-404.4"/>
<polygon fill="black" stroke="black" points="1262.85,-902.25 1252.18,-899.72 1257.61,-903.25 1253.36,-904.07 1253.36,-904.07 1253.36,-904.07 1257.61,-903.25 1253.88,-908.56 1262.85,-902.25"/>
<text text-anchor="start" x="1259.7" y="-914.2" font-family="Arial" font-size="10.00">FOREIGN KEY (model_key, derivation_policy_key) REFERENCES logic(model_key, logic_key) ON DELETE CASCADE</text>
</g>
<!-- public.query_require -->
<g id="node5" class="node">
<title>public.query_require</title>
<polygon fill="#efefef" stroke="none" points="1356.26,-811.8 1356.26,-847.4 1645.19,-847.4 1645.19,-811.8 1356.26,-811.8"/>
<polygon fill="none" stroke="black" points="1356.26,-811.8 1356.26,-847.4 1645.19,-847.4 1645.19,-811.8 1356.26,-811.8"/>
<text text-anchor="start" x="1363.26" y="-825.2" font-family="Arial Bold" font-size="18.00">public.query_require</text>
<text text-anchor="start" x="1513.7" y="-825.2" font-family="Arial" font-size="14.00">    </text>
<text text-anchor="start" x="1544.82" y="-825.2" font-family="Arial" font-size="14.00" fill="#666666">[BASE TABLE]</text>
<polygon fill="none" stroke="black" points="1356.26,-781 1356.26,-811.8 1645.19,-811.8 1645.19,-781 1356.26,-781"/>
<text text-anchor="start" x="1363.26" y="-793.2" font-family="Arial" font-size="14.00">model_key </text>
<text text-anchor="start" x="1434.85" y="-793.2" font-family="Arial" font-size="14.00" fill="#666666">[text]</text>
<polygon fill="none" stroke="black" points="1356.26,-750.2 1356.26,-781 1645.19,-781 1645.19,-750.2 1356.26,-750.2"/>
<text text-anchor="start" x="1363.26" y="-762.4" font-family="Arial" font-size="14.00">query_key </text>
<text text-anchor="start" x="1431.74" y="-762.4" font-family="Arial" font-size="14.00" fill="#666666">[text]</text>
<polygon fill="none" stroke="black" points="1356.26,-719.4 1356.26,-750.2 1645.19,-750.2 1645.19,-719.4 1356.26,-719.4"/>
<text text-anchor="start" x="1363.26" y="-731.6" font-family="Arial" font-size="14.00">logic_key </text>
<text text-anchor="start" x="1425.51" y="-731.6" font-family="Arial" font-size="14.00" fill="#666666">[text]</text>
</g>
<!-- public.query_require&#45;&gt;public.logic -->
<g id="edge4" class="edge">
<title>public.query_require:model_key&#45;&gt;public.logic:model_key</title>
<path fill="none" stroke="black" d="M1656.13,-793.84C1695.63,-771.8 1680.3,-613.44 1697.73,-568.4 1727.96,-490.25 1706.94,-404.4 1790.74,-404.4"/>
<polygon fill="black" stroke="black" points="1656.2,-793.83 1645.39,-791.96 1651.03,-795.16 1646.84,-796.23 1646.84,-796.23 1646.84,-796.23 1651.03,-795.16 1647.64,-800.68 1656.2,-793.83"/>
<text text-anchor="start" x="1158.49" y="-806.4" font-family="Arial" font-size="10.00">FOREIGN KEY (model_key, logic_key) REFERENCES logic(model_key, logic_key) ON DELETE CASCADE</text>
</g>
<!-- public.query_guarantee -->
<g id="node6" class="node">
<title>public.query_guarantee</title>
<polygon fill="#efefef" stroke="none" points="1749.77,-811.8 1749.77,-847.4 2057.68,-847.4 2057.68,-811.8 1749.77,-811.8"/>
<polygon fill="none" stroke="black" points="1749.77,-811.8 1749.77,-847.4 2057.68,-847.4 2057.68,-811.8 1749.77,-811.8"/>
<text text-anchor="start" x="1756.77" y="-825.2" font-family="Arial Bold" font-size="18.00">public.query_guarantee</text>
<text text-anchor="start" x="1926.19" y="-825.2" font-family="Arial" font-size="14.00">    </text>
<text text-anchor="start" x="1957.31" y="-825.2" font-family="Arial" font-size="14.00" fill="#666666">[BASE TABLE]</text>
<polygon fill="none" stroke="black" points="1749.77,-781 1749.77,-811.8 2057.68,-811.8 2057.68,-781 1749.77,-781"/>
<text text-anchor="start" x="1756.77" y="-793.2" font-family="Arial" font-size="14.00">model_key </text>
<text text-anchor="start" x="1828.36" y="-793.2" font-family="Arial" font-size="14.00" fill="#666666">[text]</text>
<polygon fill="none" stroke="black" points="1749.77,-750.2 1749.77,-781 2057.68,-781 2057.68,-750.2 1749.77,-750.2"/>
<text text-anchor="start" x="1756.77" y="-762.4" font-family="Arial" font-size="14.00">query_key </text>
<text text-anchor="start" x="1825.25" y="-762.4" font-family="Arial" font-size="14.00" fill="#666666">[text]</text>
<polygon fill="none" stroke="black" points="1749.77,-719.4 1749.77,-750.2 2057.68,-750.2 2057.68,-719.4 1749.77,-719.4"/>
<text text-anchor="start" x="1756.77" y="-731.6" font-family="Arial" font-size="14.00">logic_key </text>
<text text-anchor="start" x="1819.02" y="-731.6" font-family="Arial" font-size="14.00" fill="#666666">[text]</text>
</g>
<!-- public.query_guarantee&#45;&gt;public.logic -->
<g id="edge5" class="edge">
<title>public.query_guarantee:model_key&#45;&gt;public.logic:model_key</title>
<path fill="none" stroke="black" d="M2068.81,-794.48C2142.77,-764.9 2100.73,-404.4 2016.71,-404.4"/>
<polygon fill="black" stroke="black" points="2068.84,-794.47 2058.17,-791.92 2063.6,-795.47 2059.34,-796.28 2059.34,-796.28 2059.34,-796.28 2063.6,-795.47 2059.85,-800.76 2068.84,-794.47"/>
<text text-anchor="start" x="1570.98" y="-806.4" font-family="Arial" font-size="10.00">FOREIGN KEY (model_key, logic_key) REFERENCES logic(model_key, logic_key) ON DELETE CASCADE</text>
</g>
<!-- public.guard -->
<g id="node7" class="node">
<title>public.guard</title>
<polygon fill="#efefef" stroke="none" points="2162.24,-827.2 2162.24,-862.8 2391.21,-862.8 2391.21,-827.2 2162.24,-827.2"/>
<polygon fill="none" stroke="black" points="2162.24,-827.2 2162.24,-862.8 2391.21,-862.8 2391.21,-827.2 2162.24,-827.2"/>
<text text-anchor="start" x="2169.24" y="-840.6" font-family="Arial Bold" font-size="18.00">public.guard</text>
<text text-anchor="start" x="2259.72" y="-840.6" font-family="Arial" font-size="14.00">    </text>
<text text-anchor="start" x="2290.83" y="-840.6" font-family="Arial" font-size="14.00" fill="#666666">[BASE TABLE]</text>
<polygon fill="none" stroke="black" points="2162.24,-796.4 2162.24,-827.2 2391.21,-827.2 2391.21,-796.4 2162.24,-796.4"/>
<text text-anchor="start" x="2169.24" y="-808.6" font-family="Arial" font-size="14.00">model_key </text>
<text text-anchor="start" x="2240.84" y="-808.6" font-family="Arial" font-size="14.00" fill="#666666">[text]</text>
<polygon fill="none" stroke="black" points="2162.24,-765.6 2162.24,-796.4 2391.21,-796.4 2391.21,-765.6 2162.24,-765.6"/>
<text text-anchor="start" x="2169.24" y="-777.8" font-family="Arial" font-size="14.00">class_key </text>
<text text-anchor="start" x="2234.6" y="-777.8" font-family="Arial" font-size="14.00" fill="#666666">[text]</text>
<polygon fill="none" stroke="black" points="2162.24,-734.8 2162.24,-765.6 2391.21,-765.6 2391.21,-734.8 2162.24,-734.8"/>
<text text-anchor="start" x="2169.24" y="-747" font-family="Arial" font-size="14.00">guard_key </text>
<text text-anchor="start" x="2238.51" y="-747" font-family="Arial" font-size="14.00" fill="#666666">[text]</text>
<polygon fill="none" stroke="black" points="2162.24,-704 2162.24,-734.8 2391.21,-734.8 2391.21,-704 2162.24,-704"/>
<text text-anchor="start" x="2169.24" y="-716.2" font-family="Arial" font-size="14.00">name </text>
<text text-anchor="start" x="2208.15" y="-716.2" font-family="Arial" font-size="14.00" fill="#666666">[text]</text>
</g>
<!-- public.guard&#45;&gt;public.logic -->
<g id="edge6" class="edge">
<title>public.guard:model_key&#45;&gt;public.logic:model_key</title>
<path fill="none" stroke="black" d="M2151.23,-809.36C2108.87,-786.96 2128.02,-616.67 2109.73,-568.4 2080.03,-490.04 2100.51,-404.4 2016.71,-404.4"/>
<polygon fill="black" stroke="black" points="2151.2,-809.35 2159.85,-816.09 2156.39,-810.62 2160.59,-811.64 2160.59,-811.64 2160.59,-811.64 2156.39,-810.62 2161.98,-807.35 2151.2,-809.35"/>
<text text-anchor="start" x="2168.24" y="-821.8" font-family="Arial" font-size="10.00">FOREIGN KEY (model_key, guard_key) REFERENCES logic(model_key, logic_key) ON DELETE CASCADE</text>
</g>
<!-- public.action_require -->
<g id="node8" class="node">
<title>public.action_require</title>
<polygon fill="#efefef" stroke="none" points="2495.76,-811.8 2495.76,-847.4 2787.69,-847.4 2787.69,-811.8 2495.76,-811.8"/>
<polygon fill="none" stroke="black" points="2495.76,-811.8 2495.76,-847.4 2787.69,-847.4 2787.69,-811.8 2495.76,-811.8"/>
<text text-anchor="start" x="2502.76" y="-825.2" font-family="Arial Bold" font-size="18.00">public.action_require</text>
<text text-anchor="start" x="2656.2" y="-825.2" font-family="Arial" font-size="14.00">    </text>
<text text-anchor="start" x="2687.32" y="-825.2" font-family="Arial" font-size="14.00" fill="#666666">[BASE TABLE]</text>
<polygon fill="none" stroke="black" points="2495.76,-781 2495.76,-811.8 2787.69,-811.8 2787.69,-781 2495.76,-781"/>
<text text-anchor="start" x="2502.76" y="-793.2" font-family="Arial" font-size="14.00">model_key </text>
<text text-anchor="start" x="2574.35" y="-793.2" font-family="Arial" font-size="14.00" fill="#666666">[text]</text>
<polygon fill="none" stroke="black" points="2495.76,-750.2 2495.76,-781 2787.69,-781 2787.69,-750.2 2495.76,-750.2"/>
<text text-anchor="start" x="2502.76" y="-762.4" font-family="Arial" font-size="14.00">action_key </text>
<text text-anchor="start" x="2573.58" y="-762.4" font-family="Arial" font-size="14.00" fill="#666666">[text]</text>
<polygon fill="none" stroke="black" points="2495.76,-719.4 2495.76,-750.2 2787.69,-750.2 2787.69,-719.4 2495.76,-719.4"/>
<text text-anchor="start" x="2502.76" y="-731.6" font-family="Arial" font-size="14.00">logic_key </text>
<text text-anchor="start" x="2565.02" y="-731.6" font-family="Arial" font-size="14.00" fill="#666666">[text]</text>
</g>
<!-- public.action_require&#45;&gt;public.logic -->
<g id="edge7" class="edge">
<title>public.action_require:model_key&#45;&gt;public.logic:model_key</title>
<path fill="none" stroke="black" d="M2484.36,-795.83C2399.39,-785.7 2509.13,-644.16 2443.73,-568.4 2310.88,-414.51 2220.01,-404.4 2016.71,-404.4"/>
<polygon fill="black" stroke="black" points="2484.44,-795.83 2494.18,-800.87 2489.77,-796.12 2494.09,-796.36 2494.09,-796.36 2494.09,-796.36 2489.77,-796.12 2494.68,-791.89 2484.44,-795.83"/>
<text text-anchor="start" x="2254.41" y="-780.4" font-family="Arial" font-size="10.00">FOREIGN KEY (model_key, logic_key) REFERENCES logic(model_key, logic_key) ON DELETE CASCADE</text>
</g>
<!-- public.action_guarantee -->
<g id="node9" class="node">
<title>public.action_guarantee</title>
<polygon fill="#efefef" stroke="none" points="2892.27,-811.8 2892.27,-847.4 3203.18,-847.4 3203.18,-811.8 2892.27,-811.8"/>
<polygon fill="none" stroke="black" points="2892.27,-811.8 2892.27,-847.4 3203.18,-847.4 3203.18,-811.8 2892.27,-811.8"/>
<text text-anchor="start" x="2899.27" y="-825.2" font-family="Arial Bold" font-size="18.00">public.action_guarantee</text>
<text text-anchor="start" x="3071.69" y="-825.2" font-family="Arial" font-size="14.00">    </text>
<text text-anchor="start" x="3102.81" y="-825.2" font-family="Arial" font-size="14.00" fill="#666666">[BASE TABLE]</text>
<polygon fill="none" stroke="black" points="2892.27,-781 2892.27,-811.8 3203.18,-811.8 3203.18,-781 2892.27,-781"/>
<text text-anchor="start" x="2899.27" y="-793.2" font-family="Arial" font-size="14.00">model_key </text>
<text text-anchor="start" x="2970.86" y="-793.2" font-family="Arial" font-size="14.00" fill="#666666">[text]</text>
<polygon fill="none" stroke="black" points="2892.27,-750.2 2892.27,-781 3203.18,-781 3203.18,-750.2 2892.27,-750.2"/>
<text text-anchor="start" x="2899.27" y="-762.4" font-family="Arial" font-size="14.00">action_key </text>
<text text-anchor="start" x="2970.09" y="-762.4" font-family="Arial" font-size="14.00" fill="#666666">[text]</text>
<polygon fill="none" stroke="black" points="2892.27,-719.4 2892.27,-750.2 3203.18,-750.2 3203.18,-719.4 2892.27,-719.4"/>
<text text-anchor="start" x="2899.27" y="-731.6" font-family="Arial" font-size="14.00">logic_key </text>
<text text-anchor="start" x="2961.52" y="-731.6" font-family="Arial" font-size="14.00" fill="#666666">[text]</text>
</g>
<!-- public.action_guarantee&#45;&gt;public.logic -->
<g id="edge8" class="edge">
<title>public.action_guarantee:model_key&#45;&gt;public.logic:model_key</title>
<path fill="none" stroke="black" d="M2880.89,-795.8C2796.27,-785.27 2911.43,-638.29 2839.73,-568.4 2706.18,-438.23 2203.2,-404.4 2016.71,-404.4"/>
<polygon fill="black" stroke="black" points="2880.95,-795.81 2890.68,-800.87 2886.28,-796.11 2890.6,-796.36 2890.6,-796.36 2890.6,-796.36 2886.28,-796.11 2891.19,-791.89 2880.95,-795.81"/>
<text text-anchor="start" x="2403.57" y="-806.4" font-family="Arial" font-size="10.00">FOREIGN KEY (model_key, logic_key) REFERENCES logic(model_key, logic_key) ON DELETE CASCADE</text>
</g>
<!-- public.action_safety -->
<g id="node10" class="node">
<title>public.action_safety</title>
<polygon fill="#efefef" stroke="none" points="3307.76,-811.8 3307.76,-847.4 3591.69,-847.4 3591.69,-811.8 3307.76,-811.8"/>
<polygon fill="none" stroke="black" points="3307.76,-811.8 3307.76,-847.4 3591.69,-847.4 3591.69,-811.8 3307.76,-811.8"/>
<text text-anchor="start" x="3314.76" y="-825.2" font-family="Arial Bold" font-size="18.00">public.action_safety</text>
<text text-anchor="start" x="3460.21" y="-825.2" font-family="Arial" font-size="14.00">    </text>
<text text-anchor="start" x="3491.32" y="-825.2" font-family="Arial" font-size="14.00" fill="#666666">[BASE TABLE]</text>
<polygon fill="none" stroke="black" points="3307.76,-781 3307.76,-811.8 3591.69,-811.8 3591.69,-781 3307.76,-781"/>
<text text-anchor="start" x="3314.76" y="-793.2" font-family="Arial" font-size="14.00">model_key </text>
<text text-anchor="start" x="3386.35" y="-793.2" font-family="Arial" font-size="14.00" fill="#666666">[text]</text>
<polygon fill="none" stroke="black" points="3307.76,-750.2 3307.76,-781 3591.69,-781 3591.69,-750.2 3307.76,-750.2"/>
<text text-anchor="start" x="3314.76" y="-762.4" font-family="Arial" font-size="14.00">action_key </text>
<text text-anchor="start" x="3385.58" y="-762.4" font-family="Arial" font-size="14.00" fill="#666666">[text]</text>
<polygon fill="none" stroke="black" points="3307.76,-719.4 3307.76,-750.2 3591.69,-750.2 3591.69,-719.4 3307.76,-719.4"/>
<text text-anchor="start" x="3314.76" y="-731.6" font-family="Arial" font-size="14.00">logic_key </text>
<text text-anchor="start" x="3377.01" y="-731.6" font-family="Arial" font-size="14.00" fill="#666666">[text]</text>
</g>
<!-- public.action_safety&#45;&gt;public.logic -->
<g id="edge9" class="edge">
<title>public.action_safety:model_key&#45;&gt;public.logic:model_key</title>
<path fill="none" stroke="black" d="M3296.39,-795.79C3212,-785.1 3329.56,-635.97 3255.73,-568.4 3153.28,-474.65 2155.58,-404.4 2016.71,-404.4"/>
<polygon fill="black" stroke="black" points="3296.44,-795.8 3306.16,-800.87 3301.76,-796.11 3306.09,-796.36 3306.09,-796.36 3306.09,-796.36 3301.76,-796.11 3306.68,-791.89 3296.44,-795.8"/>
<text text-anchor="start" x="3313.76" y="-806.4" font-family="Arial" font-size="10.00">FOREIGN KEY (model_key, logic_key) REFERENCES logic(model_key, logic_key) ON DELETE CASCADE</text>
</g>
</g>
</svg>
