<?xml version="1.0" encoding="UTF-8" standalone="no"?>
<!DOCTYPE svg PUBLIC "-//W3C//DTD SVG 1.1//EN"
 "http://www.w3.org/Graphics/SVG/1.1/DTD/svg11.dtd">
<!-- Generated by graphviz version 12.1.2 (20240928.0832)
 -->
<!-- Title: public.action Pages: 1 -->
<svg width="3075pt" height="1160pt"
 viewBox="0.00 0.00 3075.21 1160.40" xmlns="http://www.w3.org/2000/svg" xmlns:xlink="http://www.w3.org/1999/xlink">
<g id="graph0" class="graph" transform="scale(1 1) rotate(0) translate(4 1156.4)">
<title>public.action</title>
<polygon fill="white" stroke="none" points="-4,4 -4,-1156.4 3071.21,-1156.4 3071.21,4 -4,4"/>
<!-- public.action -->
<g id="node1" class="node">
<title>public.action</title>
<polygon fill="#efefef" stroke="none" points="1454.62,-635.4 1454.62,-671 1686.58,-671 1686.58,-635.4 1454.62,-635.4"/>
<polygon fill="none" stroke="black" points="1454.62,-635.4 1454.62,-671 1686.58,-671 1686.58,-635.4 1454.62,-635.4"/>
<text text-anchor="start" x="1461.62" y="-648.8" font-family="Arial Bold" font-size="18.00">public.action</text>
<text text-anchor="start" x="1555.09" y="-648.8" font-family="Arial" font-size="14.00">    </text>
<text text-anchor="start" x="1586.21" y="-648.8" font-family="Arial" font-size="14.00" fill="#666666">[BASE TABLE]</text>
<polygon fill="none" stroke="black" points="1454.62,-604.6 1454.62,-635.4 1686.58,-635.4 1686.58,-604.6 1454.62,-604.6"/>
<text text-anchor="start" x="1461.62" y="-616.8" font-family="Arial" font-size="14.00">model_key </text>
<text text-anchor="start" x="1533.22" y="-616.8" font-family="Arial" font-size="14.00" fill="#666666">[text]</text>
<polygon fill="none" stroke="black" points="1454.62,-573.8 1454.62,-604.6 1686.58,-604.6 1686.58,-573.8 1454.62,-573.8"/>
<text text-anchor="start" x="1461.62" y="-586" font-family="Arial" font-size="14.00">class_key </text>
<text text-anchor="start" x="1526.98" y="-586" font-family="Arial" font-size="14.00" fill="#666666">[text]</text>
<polygon fill="none" stroke="black" points="1454.62,-543 1454.62,-573.8 1686.58,-573.8 1686.58,-543 1454.62,-543"/>
<text text-anchor="start" x="1461.62" y="-555.2" font-family="Arial" font-size="14.00">action_key </text>
<text text-anchor="start" x="1532.44" y="-555.2" font-family="Arial" font-size="14.00" fill="#666666">[text]</text>
<polygon fill="none" stroke="black" points="1454.62,-512.2 1454.62,-543 1686.58,-543 1686.58,-512.2 1454.62,-512.2"/>
<text text-anchor="start" x="1461.62" y="-524.4" font-family="Arial" font-size="14.00">name </text>
<text text-anchor="start" x="1500.53" y="-524.4" font-family="Arial" font-size="14.00" fill="#666666">[text]</text>
<polygon fill="none" stroke="black" points="1454.62,-481.4 1454.62,-512.2 1686.58,-512.2 1686.58,-481.4 1454.62,-481.4"/>
<text text-anchor="start" x="1461.62" y="-493.6" font-family="Arial" font-size="14.00">details </text>
<text text-anchor="start" x="1505.98" y="-493.6" font-family="Arial" font-size="14.00" fill="#666666">[text]</text>
<polygon fill="none" stroke="black" stroke-width="3" points="1453.12,-479.9 1453.12,-672.5 1688.08,-672.5 1688.08,-479.9 1453.12,-479.9"/>
</g>
<!-- public.class -->
<g id="node2" class="node">
<title>public.class</title>
<polygon fill="#efefef" stroke="none" points="1459.12,-320.4 1459.12,-356 1682.09,-356 1682.09,-320.4 1459.12,-320.4"/>
<polygon fill="none" stroke="black" points="1459.12,-320.4 1459.12,-356 1682.09,-356 1682.09,-320.4 1459.12,-320.4"/>
<text text-anchor="start" x="1466.12" y="-333.8" font-family="Arial Bold" font-size="18.00">public.class</text>
<text text-anchor="start" x="1550.6" y="-333.8" font-family="Arial" font-size="14.00">    </text>
<text text-anchor="start" x="1581.72" y="-333.8" font-family="Arial" font-size="14.00" fill="#666666">[BASE TABLE]</text>
<polygon fill="none" stroke="black" points="1459.12,-289.6 1459.12,-320.4 1682.09,-320.4 1682.09,-289.6 1459.12,-289.6"/>
<text text-anchor="start" x="1466.12" y="-301.8" font-family="Arial" font-size="14.00">model_key </text>
<text text-anchor="start" x="1537.71" y="-301.8" font-family="Arial" font-size="14.00" fill="#666666">[text]</text>
<polygon fill="none" stroke="black" points="1459.12,-258.8 1459.12,-289.6 1682.09,-289.6 1682.09,-258.8 1459.12,-258.8"/>
<text text-anchor="start" x="1466.12" y="-271" font-family="Arial" font-size="14.00">class_key </text>
<text text-anchor="start" x="1531.48" y="-271" font-family="Arial" font-size="14.00" fill="#666666">[text]</text>
<polygon fill="none" stroke="black" points="1459.12,-228 1459.12,-258.8 1682.09,-258.8 1682.09,-228 1459.12,-228"/>
<text text-anchor="start" x="1466.12" y="-240.2" font-family="Arial" font-size="14.00">name </text>
<text text-anchor="start" x="1505.03" y="-240.2" font-family="Arial" font-size="14.00" fill="#666666">[text]</text>
<polygon fill="none" stroke="black" points="1459.12,-197.2 1459.12,-228 1682.09,-228 1682.09,-197.2 1459.12,-197.2"/>
<text text-anchor="start" x="1466.12" y="-209.4" font-family="Arial" font-size="14.00">subdomain_key </text>
<text text-anchor="start" x="1568.07" y="-209.4" font-family="Arial" font-size="14.00" fill="#666666">[text]</text>
<polygon fill="none" stroke="black" points="1459.12,-166.4 1459.12,-197.2 1682.09,-197.2 1682.09,-166.4 1459.12,-166.4"/>
<text text-anchor="start" x="1466.12" y="-178.6" font-family="Arial" font-size="14.00">actor_key </text>
<text text-anchor="start" x="1530.7" y="-178.6" font-family="Arial" font-size="14.00" fill="#666666">[text]</text>
<polygon fill="none" stroke="black" points="1459.12,-135.6 1459.12,-166.4 1682.09,-166.4 1682.09,-135.6 1459.12,-135.6"/>
<text text-anchor="start" x="1466.12" y="-147.8" font-family="Arial" font-size="14.00">superclass_of_key </text>
<text text-anchor="start" x="1585.96" y="-147.8" font-family="Arial" font-size="14.00" fill="#666666">[text]</text>
<polygon fill="none" stroke="black" points="1459.12,-104.8 1459.12,-135.6 1682.09,-135.6 1682.09,-104.8 1459.12,-104.8"/>
<text text-anchor="start" x="1466.12" y="-117" font-family="Arial" font-size="14.00">subclass_of_key </text>
<text text-anchor="start" x="1573.51" y="-117" font-family="Arial" font-size="14.00" fill="#666666">[text]</text>
<polygon fill="none" stroke="black" points="1459.12,-74 1459.12,-104.8 1682.09,-104.8 1682.09,-74 1459.12,-74"/>
<text text-anchor="start" x="1466.12" y="-86.2" font-family="Arial" font-size="14.00">details </text>
<text text-anchor="start" x="1510.48" y="-86.2" font-family="Arial" font-size="14.00" fill="#666666">[text]</text>
<polygon fill="none" stroke="black" points="1459.12,-43.2 1459.12,-74 1682.09,-74 1682.09,-43.2 1459.12,-43.2"/>
<text text-anchor="start" x="1466.12" y="-55.4" font-family="Arial" font-size="14.00">uml_comment </text>
<text text-anchor="start" x="1557.93" y="-55.4" font-family="Arial" font-size="14.00" fill="#666666">[text]</text>
</g>
<!-- public.action&#45;&gt;public.class -->
<g id="edge1" class="edge">
<title>public.action:model_key&#45;&gt;public.class:model_key</title>
<path fill="none" stroke="black" d="M1697.97,-619.4C1827.28,-604.21 1819.55,-305 1683.09,-305"/>
<polygon fill="black" stroke="black" points="1697.9,-619.4 1687.66,-615.49 1692.58,-619.71 1688.25,-619.96 1688.25,-619.96 1688.25,-619.96 1692.58,-619.71 1688.18,-624.47 1697.9,-619.4"/>
<text text-anchor="start" x="1694.58" y="-630" font-family="Arial" font-size="10.00">FOREIGN KEY (model_key, class_key) REFERENCES class(model_key, class_key) ON DELETE CASCADE</text>
</g>
<!-- public.action_parameter -->
<g id="node3" class="node">
<title>public.action_parameter</title>
<polygon fill="#efefef" stroke="none" points="199.15,-1042.8 199.15,-1078.4 512.06,-1078.4 512.06,-1042.8 199.15,-1042.8"/>
<polygon fill="none" stroke="black" points="199.15,-1042.8 199.15,-1078.4 512.06,-1078.4 512.06,-1042.8 199.15,-1042.8"/>
<text text-anchor="start" x="206.15" y="-1056.2" font-family="Arial Bold" font-size="18.00">public.action_parameter</text>
<text text-anchor="start" x="380.57" y="-1056.2" font-family="Arial" font-size="14.00">    </text>
<text text-anchor="start" x="411.69" y="-1056.2" font-family="Arial" font-size="14.00" fill="#666666">[BASE TABLE]</text>
<polygon fill="none" stroke="black" points="199.15,-1012 199.15,-1042.8 512.06,-1042.8 512.06,-1012 199.15,-1012"/>
<text text-anchor="start" x="206.15" y="-1024.2" font-family="Arial" font-size="14.00">model_key </text>
<text text-anchor="start" x="277.74" y="-1024.2" font-family="Arial" font-size="14.00" fill="#666666">[text]</text>
<polygon fill="none" stroke="black" points="199.15,-981.2 199.15,-1012 512.06,-1012 512.06,-981.2 199.15,-981.2"/>
<text text-anchor="start" x="206.15" y="-993.4" font-family="Arial" font-size="14.00">action_key </text>
<text text-anchor="start" x="276.97" y="-993.4" font-family="Arial" font-size="14.00" fill="#666666">[text]</text>
<polygon fill="none" stroke="black" points="199.15,-950.4 199.15,-981.2 512.06,-981.2 512.06,-950.4 199.15,-950.4"/>
<text text-anchor="start" x="206.15" y="-962.6" font-family="Arial" font-size="14.00">parameter_key </text>
<text text-anchor="start" x="303.42" y="-962.6" font-family="Arial" font-size="14.00" fill="#666666">[text]</text>
<polygon fill="none" stroke="black" points="199.15,-919.6 199.15,-950.4 512.06,-950.4 512.06,-919.6 199.15,-919.6"/>
<text text-anchor="start" x="206.15" y="-931.8" font-family="Arial" font-size="14.00">name </text>
<text text-anchor="start" x="245.06" y="-931.8" font-family="Arial" font-size="14.00" fill="#666666">[text]</text>
<polygon fill="none" stroke="black" points="199.15,-888.8 199.15,-919.6 512.06,-919.6 512.06,-888.8 199.15,-888.8"/>
<text text-anchor="start" x="206.15" y="-901" font-family="Arial" font-size="14.00">sort_order </text>
<text text-anchor="start" x="273.85" y="-901" font-family="Arial" font-size="14.00" fill="#666666">[integer]</text>
<polygon fill="none" stroke="black" points="199.15,-858 199.15,-888.8 512.06,-888.8 512.06,-858 199.15,-858"/>
<text text-anchor="start" x="206.15" y="-870.2" font-family="Arial" font-size="14.00">data_type_rules </text>
<text text-anchor="start" x="309.67" y="-870.2" font-family="Arial" font-size="14.00" fill="#666666">[text]</text>
<polygon fill="none" stroke="black" points="199.15,-827.2 199.15,-858 512.06,-858 512.06,-827.2 199.15,-827.2"/>
<text text-anchor="start" x="206.15" y="-839.4" font-family="Arial" font-size="14.00">data_type_key </text>
<text text-anchor="start" x="301.11" y="-839.4" font-family="Arial" font-size="14.00" fill="#666666">[text]</text>
</g>
<!-- public.action_parameter&#45;&gt;public.action -->
<g id="edge2" class="edge">
<title>public.action_parameter:model_key&#45;&gt;public.action:model_key</title>
<path fill="none" stroke="black" d="M523.23,-1026.92C627.8,-1016.46 477.93,-836.72 564.6,-753.2 636.53,-683.89 1353.74,-620 1453.62,-620"/>
<polygon fill="black" stroke="black" points="523.38,-1026.92 513.18,-1022.89 518.05,-1027.17 513.73,-1027.37 513.73,-1027.37 513.73,-1027.37 518.05,-1027.17 513.6,-1031.88 523.38,-1026.92"/>
<text text-anchor="start" x="7" y="-1037.4" font-family="Arial" font-size="10.00">FOREIGN KEY (model_key, action_key) REFERENCES action(model_key, action_key) ON DELETE CASCADE</text>
</g>
<!-- public.action_require -->
<g id="node4" class="node">
<title>public.action_require</title>
<polygon fill="#efefef" stroke="none" points="616.64,-981.2 616.64,-1016.8 908.57,-1016.8 908.57,-981.2 616.64,-981.2"/>
<polygon fill="none" stroke="black" points="616.64,-981.2 616.64,-1016.8 908.57,-1016.8 908.57,-981.2 616.64,-981.2"/>
<text text-anchor="start" x="623.64" y="-994.6" font-family="Arial Bold" font-size="18.00">public.action_require</text>
<text text-anchor="start" x="777.08" y="-994.6" font-family="Arial" font-size="14.00">    </text>
<text text-anchor="start" x="808.2" y="-994.6" font-family="Arial" font-size="14.00" fill="#666666">[BASE TABLE]</text>
<polygon fill="none" stroke="black" points="616.64,-950.4 616.64,-981.2 908.57,-981.2 908.57,-950.4 616.64,-950.4"/>
<text text-anchor="start" x="623.64" y="-962.6" font-family="Arial" font-size="14.00">model_key </text>
<text text-anchor="start" x="695.23" y="-962.6" font-family="Arial" font-size="14.00" fill="#666666">[text]</text>
<polygon fill="none" stroke="black" points="616.64,-919.6 616.64,-950.4 908.57,-950.4 908.57,-919.6 616.64,-919.6"/>
<text text-anchor="start" x="623.64" y="-931.8" font-family="Arial" font-size="14.00">action_key </text>
<text text-anchor="start" x="694.46" y="-931.8" font-family="Arial" font-size="14.00" fill="#666666">[text]</text>
<polygon fill="none" stroke="black" points="616.64,-888.8 616.64,-919.6 908.57,-919.6 908.57,-888.8 616.64,-888.8"/>
<text text-anchor="start" x="623.64" y="-901" font-family="Arial" font-size="14.00">logic_key </text>
<text text-anchor="start" x="685.89" y="-901" font-family="Arial" font-size="14.00" fill="#666666">[text]</text>
</g>
<!-- public.action_require&#45;&gt;public.action -->
<g id="edge3" class="edge">
<title>public.action_require:model_key&#45;&gt;public.action:model_key</title>
<path fill="none" stroke="black" d="M919.53,-965.22C998.54,-955.29 895.38,-820.29 960.6,-753.2 1039.71,-671.83 1340.14,-620 1453.62,-620"/>
<polygon fill="black" stroke="black" points="919.88,-965.2 909.64,-961.29 914.56,-965.51 910.24,-965.76 910.24,-965.76 910.24,-965.76 914.56,-965.51 910.16,-970.27 919.88,-965.2"/>
<text text-anchor="start" x="660.04" y="-949.8" font-family="Arial" font-size="10.00">FOREIGN KEY (model_key, action_key) REFERENCES action(model_key, action_key) ON DELETE CASCADE</text>
</g>
<!-- public.action_guarantee -->
<g id="node5" class="node">
<title>public.action_guarantee</title>
<polygon fill="#efefef" stroke="none" points="1013.15,-981.2 1013.15,-1016.8 1324.06,-1016.8 1324.06,-981.2 1013.15,-981.2"/>
<polygon fill="none" stroke="black" points="1013.15,-981.2 1013.15,-1016.8 1324.06,-1016.8 1324.06,-981.2 1013.15,-981.2"/>
<text text-anchor="start" x="1020.15" y="-994.6" font-family="Arial Bold" font-size="18.00">public.action_guarantee</text>
<text text-anchor="start" x="1192.57" y="-994.6" font-family="Arial" font-size="14.00">    </text>
<text text-anchor="start" x="1223.69" y="-994.6" font-family="Arial" font-size="14.00" fill="#666666">[BASE TABLE]</text>
<polygon fill="none" stroke="black" points="1013.15,-950.4 1013.15,-981.2 1324.06,-981.2 1324.06,-950.4 1013.15,-950.4"/>
<text text-anchor="start" x="1020.15" y="-962.6" font-family="Arial" font-size="14.00">model_key </text>
<text text-anchor="start" x="1091.74" y="-962.6" font-family="Arial" font-size="14.00" fill="#666666">[text]</text>
<polygon fill="none" stroke="black" points="1013.15,-919.6 1013.15,-950.4 1324.06,-950.4 1324.06,-919.6 1013.15,-919.6"/>
<text text-anchor="start" x="1020.15" y="-931.8" font-family="Arial" font-size="14.00">action_key </text>
<text text-anchor="start" x="1090.97" y="-931.8" font-family="Arial" font-size="14.00" fill="#666666">[text]</text>
<polygon fill="none" stroke="black" points="1013.15,-888.8 1013.15,-919.6 1324.06,-919.6 1324.06,-888.8 1013.15,-888.8"/>
<text text-anchor="start" x="1020.15" y="-901" font-family="Arial" font-size="14.00">logic_key </text>
<text text-anchor="start" x="1082.4" y="-901" font-family="Arial" font-size="14.00" fill="#666666">[text]</text>
</g>
<!-- public.action_guarantee&#45;&gt;public.action -->
<g id="edge4" class="edge">
<title>public.action_guarantee:model_key&#45;&gt;public.action:model_key</title>
<path fill="none" stroke="black" d="M1335.16,-965.3C1416.37,-956.76 1341.79,-840.1 1376.6,-753.2 1402.04,-689.72 1385.24,-620 1453.62,-620"/>
<polygon fill="black" stroke="black" points="1335.38,-965.29 1325.17,-961.29 1330.05,-965.55 1325.73,-965.77 1325.73,-965.77 1325.73,-965.77 1330.05,-965.55 1325.62,-970.28 1335.38,-965.29"/>
<text text-anchor="start" x="819" y="-975.8" font-family="Arial" font-size="10.00">FOREIGN KEY (model_key, action_key) REFERENCES action(model_key, action_key) ON DELETE CASCADE</text>
</g>
<!-- public.action_safety -->
<g id="node6" class="node">
<title>public.action_safety</title>
<polygon fill="#efefef" stroke="none" points="1428.63,-981.2 1428.63,-1016.8 1712.57,-1016.8 1712.57,-981.2 1428.63,-981.2"/>
<polygon fill="none" stroke="black" points="1428.63,-981.2 1428.63,-1016.8 1712.57,-1016.8 1712.57,-981.2 1428.63,-981.2"/>
<text text-anchor="start" x="1435.63" y="-994.6" font-family="Arial Bold" font-size="18.00">public.action_safety</text>
<text text-anchor="start" x="1581.08" y="-994.6" font-family="Arial" font-size="14.00">    </text>
<text text-anchor="start" x="1612.2" y="-994.6" font-family="Arial" font-size="14.00" fill="#666666">[BASE TABLE]</text>
<polygon fill="none" stroke="black" points="1428.63,-950.4 1428.63,-981.2 1712.57,-981.2 1712.57,-950.4 1428.63,-950.4"/>
<text text-anchor="start" x="1435.63" y="-962.6" font-family="Arial" font-size="14.00">model_key </text>
<text text-anchor="start" x="1507.23" y="-962.6" font-family="Arial" font-size="14.00" fill="#666666">[text]</text>
<polygon fill="none" stroke="black" points="1428.63,-919.6 1428.63,-950.4 1712.57,-950.4 1712.57,-919.6 1428.63,-919.6"/>
<text text-anchor="start" x="1435.63" y="-931.8" font-family="Arial" font-size="14.00">action_key </text>
<text text-anchor="start" x="1506.45" y="-931.8" font-family="Arial" font-size="14.00" fill="#666666">[text]</text>
<polygon fill="none" stroke="black" points="1428.63,-888.8 1428.63,-919.6 1712.57,-919.6 1712.57,-888.8 1428.63,-888.8"/>
<text text-anchor="start" x="1435.63" y="-901" font-family="Arial" font-size="14.00">logic_key </text>
<text text-anchor="start" x="1497.89" y="-901" font-family="Arial" font-size="14.00" fill="#666666">[text]</text>
</g>
<!-- public.action_safety&#45;&gt;public.action -->
<g id="edge5" class="edge">
<title>public.action_safety:model_key&#45;&gt;public.action:model_key</title>
<path fill="none" stroke="black" d="M1723.74,-963.59C1788.09,-934.14 1761.03,-620 1687.58,-620"/>
<polygon fill="black" stroke="black" points="1723.67,-963.61 1712.94,-961.33 1718.46,-964.74 1714.23,-965.66 1714.23,-965.66 1714.23,-965.66 1718.46,-964.74 1714.86,-970.13 1723.67,-963.61"/>
<text text-anchor="start" x="1464.04" y="-949.8" font-family="Arial" font-size="10.00">FOREIGN KEY (model_key, action_key) REFERENCES action(model_key, action_key) ON DELETE CASCADE</text>
</g>
<!-- public.transition -->
<g id="node7" class="node">
<title>public.transition</title>
<polygon fill="#efefef" stroke="none" points="1816.62,-1073.6 1816.62,-1109.2 2072.59,-1109.2 2072.59,-1073.6 1816.62,-1073.6"/>
<polygon fill="none" stroke="black" points="1816.62,-1073.6 1816.62,-1109.2 2072.59,-1109.2 2072.59,-1073.6 1816.62,-1073.6"/>
<text text-anchor="start" x="1823.62" y="-1087" font-family="Arial Bold" font-size="18.00">public.transition</text>
<text text-anchor="start" x="1941.1" y="-1087" font-family="Arial" font-size="14.00">    </text>
<text text-anchor="start" x="1972.22" y="-1087" font-family="Arial" font-size="14.00" fill="#666666">[BASE TABLE]</text>
<polygon fill="none" stroke="black" points="1816.62,-1042.8 1816.62,-1073.6 2072.59,-1073.6 2072.59,-1042.8 1816.62,-1042.8"/>
<text text-anchor="start" x="1823.62" y="-1055" font-family="Arial" font-size="14.00">model_key </text>
<text text-anchor="start" x="1895.21" y="-1055" font-family="Arial" font-size="14.00" fill="#666666">[text]</text>
<polygon fill="none" stroke="black" points="1816.62,-1012 1816.62,-1042.8 2072.59,-1042.8 2072.59,-1012 1816.62,-1012"/>
<text text-anchor="start" x="1823.62" y="-1024.2" font-family="Arial" font-size="14.00">class_key </text>
<text text-anchor="start" x="1888.98" y="-1024.2" font-family="Arial" font-size="14.00" fill="#666666">[text]</text>
<polygon fill="none" stroke="black" points="1816.62,-981.2 1816.62,-1012 2072.59,-1012 2072.59,-981.2 1816.62,-981.2"/>
<text text-anchor="start" x="1823.62" y="-993.4" font-family="Arial" font-size="14.00">transition_key </text>
<text text-anchor="start" x="1913.89" y="-993.4" font-family="Arial" font-size="14.00" fill="#666666">[text]</text>
<polygon fill="none" stroke="black" points="1816.62,-950.4 1816.62,-981.2 2072.59,-981.2 2072.59,-950.4 1816.62,-950.4"/>
<text text-anchor="start" x="1823.62" y="-962.6" font-family="Arial" font-size="14.00">from_state_key </text>
<text text-anchor="start" x="1923.22" y="-962.6" font-family="Arial" font-size="14.00" fill="#666666">[text]</text>
<polygon fill="none" stroke="black" points="1816.62,-919.6 1816.62,-950.4 2072.59,-950.4 2072.59,-919.6 1816.62,-919.6"/>
<text text-anchor="start" x="1823.62" y="-931.8" font-family="Arial" font-size="14.00">event_key </text>
<text text-anchor="start" x="1891.33" y="-931.8" font-family="Arial" font-size="14.00" fill="#666666">[text]</text>
<polygon fill="none" stroke="black" points="1816.62,-888.8 1816.62,-919.6 2072.59,-919.6 2072.59,-888.8 1816.62,-888.8"/>
<text text-anchor="start" x="1823.62" y="-901" font-family="Arial" font-size="14.00">guard_key </text>
<text text-anchor="start" x="1892.89" y="-901" font-family="Arial" font-size="14.00" fill="#666666">[text]</text>
<polygon fill="none" stroke="black" points="1816.62,-858 1816.62,-888.8 2072.59,-888.8 2072.59,-858 1816.62,-858"/>
<text text-anchor="start" x="1823.62" y="-870.2" font-family="Arial" font-size="14.00">action_key </text>
<text text-anchor="start" x="1894.44" y="-870.2" font-family="Arial" font-size="14.00" fill="#666666">[text]</text>
<polygon fill="none" stroke="black" points="1816.62,-827.2 1816.62,-858 2072.59,-858 2072.59,-827.2 1816.62,-827.2"/>
<text text-anchor="start" x="1823.62" y="-839.4" font-family="Arial" font-size="14.00">to_state_key </text>
<text text-anchor="start" x="1906.89" y="-839.4" font-family="Arial" font-size="14.00" fill="#666666">[text]</text>
<polygon fill="none" stroke="black" points="1816.62,-796.4 1816.62,-827.2 2072.59,-827.2 2072.59,-796.4 1816.62,-796.4"/>
<text text-anchor="start" x="1823.62" y="-808.6" font-family="Arial" font-size="14.00">uml_comment </text>
<text text-anchor="start" x="1915.42" y="-808.6" font-family="Arial" font-size="14.00" fill="#666666">[text]</text>
</g>
<!-- public.transition&#45;&gt;public.action -->
<g id="edge6" class="edge">
<title>public.transition:model_key&#45;&gt;public.action:model_key</title>
<path fill="none" stroke="black" d="M1805.63,-1056.26C1751.04,-1033.34 1786.62,-814.46 1764.6,-753.2 1741.48,-688.85 1755.97,-620 1687.58,-620"/>
<polygon fill="black" stroke="black" points="1805.47,-1056.22 1814.43,-1062.55 1810.71,-1057.24 1814.96,-1058.07 1814.96,-1058.07 1814.96,-1058.07 1810.71,-1057.24 1816.15,-1053.72 1805.47,-1056.22"/>
<text text-anchor="start" x="1309.56" y="-1068.2" font-family="Arial" font-size="10.00">FOREIGN KEY (model_key, action_key) REFERENCES action(model_key, action_key) ON DELETE CASCADE</text>
</g>
<!-- public.state_action -->
<g id="node8" class="node">
<title>public.state_action</title>
<polygon fill="#efefef" stroke="none" points="2176.63,-1012 2176.63,-1047.6 2450.58,-1047.6 2450.58,-1012 2176.63,-1012"/>
<polygon fill="none" stroke="black" points="2176.63,-1012 2176.63,-1047.6 2450.58,-1047.6 2450.58,-1012 2176.63,-1012"/>
<text text-anchor="start" x="2183.63" y="-1025.4" font-family="Arial Bold" font-size="18.00">public.state_action</text>
<text text-anchor="start" x="2319.09" y="-1025.4" font-family="Arial" font-size="14.00">    </text>
<text text-anchor="start" x="2350.2" y="-1025.4" font-family="Arial" font-size="14.00" fill="#666666">[BASE TABLE]</text>
<polygon fill="none" stroke="black" points="2176.63,-981.2 2176.63,-1012 2450.58,-1012 2450.58,-981.2 2176.63,-981.2"/>
<text text-anchor="start" x="2183.63" y="-993.4" font-family="Arial" font-size="14.00">model_key </text>
<text text-anchor="start" x="2255.22" y="-993.4" font-family="Arial" font-size="14.00" fill="#666666">[text]</text>
<polygon fill="none" stroke="black" points="2176.63,-950.4 2176.63,-981.2 2450.58,-981.2 2450.58,-950.4 2176.63,-950.4"/>
<text text-anchor="start" x="2183.63" y="-962.6" font-family="Arial" font-size="14.00">state_key </text>
<text text-anchor="start" x="2247.44" y="-962.6" font-family="Arial" font-size="14.00" fill="#666666">[text]</text>
<polygon fill="none" stroke="black" points="2176.63,-919.6 2176.63,-950.4 2450.58,-950.4 2450.58,-919.6 2176.63,-919.6"/>
<text text-anchor="start" x="2183.63" y="-931.8" font-family="Arial" font-size="14.00">state_action_key </text>
<text text-anchor="start" x="2292.59" y="-931.8" font-family="Arial" font-size="14.00" fill="#666666">[text]</text>
<polygon fill="none" stroke="black" points="2176.63,-888.8 2176.63,-919.6 2450.58,-919.6 2450.58,-888.8 2176.63,-888.8"/>
<text text-anchor="start" x="2183.63" y="-901" font-family="Arial" font-size="14.00">action_key </text>
<text text-anchor="start" x="2254.45" y="-901" font-family="Arial" font-size="14.00" fill="#666666">[text]</text>
<polygon fill="none" stroke="black" points="2176.63,-858 2176.63,-888.8 2450.58,-888.8 2450.58,-858 2176.63,-858"/>
<text text-anchor="start" x="2183.63" y="-870.2" font-family="Arial" font-size="14.00">action_when </text>
<text text-anchor="start" x="2266.13" y="-870.2" font-family="Arial" font-size="14.00" fill="#666666">[state_action_when]</text>
</g>
<!-- public.state_action&#45;&gt;public.action -->
<g id="edge7" class="edge">
<title>public.state_action:model_key&#45;&gt;public.action:model_key</title>
<path fill="none" stroke="black" d="M2165.41,-996.07C2073.78,-985.94 2196.72,-832.05 2124.6,-753.2 2056.09,-678.28 1789.11,-620 1687.58,-620"/>
<polygon fill="black" stroke="black" points="2165.31,-996.07 2175.06,-1001.08 2170.64,-996.34 2174.96,-996.57 2174.96,-996.57 2174.96,-996.57 2170.64,-996.34 2175.53,-992.09 2165.31,-996.07"/>
<text text-anchor="start" x="2182.63" y="-1006.6" font-family="Arial" font-size="10.00">FOREIGN KEY (model_key, action_key) REFERENCES action(model_key, action_key) ON DELETE CASCADE</text>
</g>
<!-- public.state_action_parameter -->
<g id="node9" class="node">
<title>public.state_action_parameter</title>
<polygon fill="#efefef" stroke="none" points="2555.16,-1058.2 2555.16,-1093.8 2910.05,-1093.8 2910.05,-1058.2 2555.16,-1058.2"/>
<polygon fill="none" stroke="black" points="2555.16,-1058.2 2555.16,-1093.8 2910.05,-1093.8 2910.05,-1058.2 2555.16,-1058.2"/>
<text text-anchor="start" x="2562.16" y="-1071.6" font-family="Arial Bold" font-size="18.00">public.state_action_parameter</text>
<text text-anchor="start" x="2778.56" y="-1071.6" font-family="Arial" font-size="14.00">    </text>
<text text-anchor="start" x="2809.68" y="-1071.6" font-family="Arial" font-size="14.00" fill="#666666">[BASE TABLE]</text>
<polygon fill="none" stroke="black" points="2555.16,-1027.4 2555.16,-1058.2 2910.05,-1058.2 2910.05,-1027.4 2555.16,-1027.4"/>
<text text-anchor="start" x="2562.16" y="-1039.6" font-family="Arial" font-size="14.00">model_key </text>
<text text-anchor="start" x="2633.75" y="-1039.6" font-family="Arial" font-size="14.00" fill="#666666">[text]</text>
<polygon fill="none" stroke="black" points="2555.16,-996.6 2555.16,-1027.4 2910.05,-1027.4 2910.05,-996.6 2555.16,-996.6"/>
<text text-anchor="start" x="2562.16" y="-1008.8" font-family="Arial" font-size="14.00">parameter_key </text>
<text text-anchor="start" x="2659.43" y="-1008.8" font-family="Arial" font-size="14.00" fill="#666666">[text]</text>
<polygon fill="none" stroke="black" points="2555.16,-965.8 2555.16,-996.6 2910.05,-996.6 2910.05,-965.8 2555.16,-965.8"/>
<text text-anchor="start" x="2562.16" y="-978" font-family="Arial" font-size="14.00">action_key </text>
<text text-anchor="start" x="2632.98" y="-978" font-family="Arial" font-size="14.00" fill="#666666">[text]</text>
<polygon fill="none" stroke="black" points="2555.16,-935 2555.16,-965.8 2910.05,-965.8 2910.05,-935 2555.16,-935"/>
<text text-anchor="start" x="2562.16" y="-947.2" font-family="Arial" font-size="14.00">data_type_rules </text>
<text text-anchor="start" x="2665.67" y="-947.2" font-family="Arial" font-size="14.00" fill="#666666">[text]</text>
<polygon fill="none" stroke="black" points="2555.16,-904.2 2555.16,-935 2910.05,-935 2910.05,-904.2 2555.16,-904.2"/>
<text text-anchor="start" x="2562.16" y="-916.4" font-family="Arial" font-size="14.00">data_type_key </text>
<text text-anchor="start" x="2657.11" y="-916.4" font-family="Arial" font-size="14.00" fill="#666666">[text]</text>
<polygon fill="none" stroke="black" points="2555.16,-873.4 2555.16,-904.2 2910.05,-904.2 2910.05,-873.4 2555.16,-873.4"/>
<text text-anchor="start" x="2562.16" y="-885.6" font-family="Arial" font-size="14.00">name </text>
<text text-anchor="start" x="2601.07" y="-885.6" font-family="Arial" font-size="14.00" fill="#666666">[text]</text>
<polygon fill="none" stroke="black" points="2555.16,-842.6 2555.16,-873.4 2910.05,-873.4 2910.05,-842.6 2555.16,-842.6"/>
<text text-anchor="start" x="2562.16" y="-854.8" font-family="Arial" font-size="14.00">details </text>
<text text-anchor="start" x="2606.52" y="-854.8" font-family="Arial" font-size="14.00" fill="#666666">[text]</text>
<polygon fill="none" stroke="black" points="2555.16,-811.8 2555.16,-842.6 2910.05,-842.6 2910.05,-811.8 2555.16,-811.8"/>
<text text-anchor="start" x="2562.16" y="-824" font-family="Arial" font-size="14.00">uml_comment </text>
<text text-anchor="start" x="2653.96" y="-824" font-family="Arial" font-size="14.00" fill="#666666">[text]</text>
</g>
<!-- public.state_action_parameter&#45;&gt;public.action -->
<g id="edge8" class="edge">
<title>public.state_action_parameter:model_key&#45;&gt;public.action:model_key</title>
<path fill="none" stroke="black" d="M2543.77,-1042.33C2432.97,-1031.68 2593.06,-842.39 2502.6,-753.2 2371.92,-624.36 1871.1,-620 1687.58,-620"/>
<polygon fill="black" stroke="black" points="2543.83,-1042.33 2553.62,-1047.28 2549.16,-1042.57 2553.49,-1042.77 2553.49,-1042.77 2553.49,-1042.77 2549.16,-1042.57 2554.03,-1038.29 2543.83,-1042.33"/>
<text text-anchor="start" x="2561.16" y="-1052.8" font-family="Arial" font-size="10.00">FOREIGN KEY (model_key, action_key) REFERENCES action(model_key, action_key) ON DELETE CASCADE</text>
</g>
</g>
</svg>
