<?xml version="1.0" encoding="UTF-8" standalone="no"?>
<!DOCTYPE svg PUBLIC "-//W3C//DTD SVG 1.1//EN"
 "http://www.w3.org/Graphics/SVG/1.1/DTD/svg11.dtd">
<!-- Generated by graphviz version 12.1.2 (20240928.0832)
 -->
<!-- Title: public.data_type_field Pages: 1 -->
<svg width="944pt" height="602pt"
 viewBox="0.00 0.00 944.25 602.00" xmlns="http://www.w3.org/2000/svg" xmlns:xlink="http://www.w3.org/1999/xlink">
<g id="graph0" class="graph" transform="scale(1 1) rotate(0) translate(4 598)">
<title>public.data_type_field</title>
<polygon fill="white" stroke="none" points="-4,4 -4,-598 940.25,-598 940.25,4 -4,4"/>
<!-- public.data_type_field -->
<g id="node1" class="node">
<title>public.data_type_field</title>
<polygon fill="#efefef" stroke="none" points="46.2,-512.2 46.2,-547.8 346.14,-547.8 346.14,-512.2 46.2,-512.2"/>
<polygon fill="none" stroke="black" points="46.2,-512.2 46.2,-547.8 346.14,-547.8 346.14,-512.2 46.2,-512.2"/>
<text text-anchor="start" x="53.2" y="-525.6" font-family="Arial Bold" font-size="18.00">public.data_type_field</text>
<text text-anchor="start" x="214.65" y="-525.6" font-family="Arial" font-size="14.00">    </text>
<text text-anchor="start" x="245.76" y="-525.6" font-family="Arial" font-size="14.00" fill="#666666">[BASE TABLE]</text>
<polygon fill="none" stroke="black" points="46.2,-481.4 46.2,-512.2 346.14,-512.2 346.14,-481.4 46.2,-481.4"/>
<text text-anchor="start" x="53.2" y="-493.6" font-family="Arial" font-size="14.00">model_key </text>
<text text-anchor="start" x="124.79" y="-493.6" font-family="Arial" font-size="14.00" fill="#666666">[text]</text>
<polygon fill="none" stroke="black" points="46.2,-450.6 46.2,-481.4 346.14,-481.4 346.14,-450.6 46.2,-450.6"/>
<text text-anchor="start" x="53.2" y="-462.8" font-family="Arial" font-size="14.00">data_type_key </text>
<text text-anchor="start" x="148.16" y="-462.8" font-family="Arial" font-size="14.00" fill="#666666">[text]</text>
<polygon fill="none" stroke="black" points="46.2,-419.8 46.2,-450.6 346.14,-450.6 346.14,-419.8 46.2,-419.8"/>
<text text-anchor="start" x="53.2" y="-432" font-family="Arial" font-size="14.00">name </text>
<text text-anchor="start" x="92.11" y="-432" font-family="Arial" font-size="14.00" fill="#666666">[text]</text>
<polygon fill="none" stroke="black" points="46.2,-389 46.2,-419.8 346.14,-419.8 346.14,-389 46.2,-389"/>
<text text-anchor="start" x="53.2" y="-401.2" font-family="Arial" font-size="14.00">field_data_type_key </text>
<text text-anchor="start" x="181.63" y="-401.2" font-family="Arial" font-size="14.00" fill="#666666">[text]</text>
<polygon fill="none" stroke="black" stroke-width="3" points="44.7,-387.5 44.7,-549.3 347.64,-549.3 347.64,-387.5 44.7,-387.5"/>
</g>
<!-- public.data_type -->
<g id="node2" class="node">
<title>public.data_type</title>
<polygon fill="#efefef" stroke="none" points="67.19,-228 67.19,-263.6 325.14,-263.6 325.14,-228 67.19,-228"/>
<polygon fill="none" stroke="black" points="67.19,-228 67.19,-263.6 325.14,-263.6 325.14,-228 67.19,-228"/>
<text text-anchor="start" x="74.19" y="-241.4" font-family="Arial Bold" font-size="18.00">public.data_type</text>
<text text-anchor="start" x="193.65" y="-241.4" font-family="Arial" font-size="14.00">    </text>
<text text-anchor="start" x="224.77" y="-241.4" font-family="Arial" font-size="14.00" fill="#666666">[BASE TABLE]</text>
<polygon fill="none" stroke="black" points="67.19,-197.2 67.19,-228 325.14,-228 325.14,-197.2 67.19,-197.2"/>
<text text-anchor="start" x="74.19" y="-209.4" font-family="Arial" font-size="14.00">model_key </text>
<text text-anchor="start" x="145.79" y="-209.4" font-family="Arial" font-size="14.00" fill="#666666">[text]</text>
<polygon fill="none" stroke="black" points="67.19,-166.4 67.19,-197.2 325.14,-197.2 325.14,-166.4 67.19,-166.4"/>
<text text-anchor="start" x="74.19" y="-178.6" font-family="Arial" font-size="14.00">data_type_key </text>
<text text-anchor="start" x="169.15" y="-178.6" font-family="Arial" font-size="14.00" fill="#666666">[text]</text>
<polygon fill="none" stroke="black" points="67.19,-135.6 67.19,-166.4 325.14,-166.4 325.14,-135.6 67.19,-135.6"/>
<text text-anchor="start" x="74.19" y="-147.8" font-family="Arial" font-size="14.00">collection_type </text>
<text text-anchor="start" x="170.7" y="-147.8" font-family="Arial" font-size="14.00" fill="#666666">[collection_type]</text>
<polygon fill="none" stroke="black" points="67.19,-104.8 67.19,-135.6 325.14,-135.6 325.14,-104.8 67.19,-104.8"/>
<text text-anchor="start" x="74.19" y="-117" font-family="Arial" font-size="14.00">collection_unique </text>
<text text-anchor="start" x="186.27" y="-117" font-family="Arial" font-size="14.00" fill="#666666">[boolean]</text>
<polygon fill="none" stroke="black" points="67.19,-74 67.19,-104.8 325.14,-104.8 325.14,-74 67.19,-74"/>
<text text-anchor="start" x="74.19" y="-86.2" font-family="Arial" font-size="14.00">collection_min </text>
<text text-anchor="start" x="166.79" y="-86.2" font-family="Arial" font-size="14.00" fill="#666666">[bigint]</text>
<polygon fill="none" stroke="black" points="67.19,-43.2 67.19,-74 325.14,-74 325.14,-43.2 67.19,-43.2"/>
<text text-anchor="start" x="74.19" y="-55.4" font-family="Arial" font-size="14.00">collection_max </text>
<text text-anchor="start" x="170.68" y="-55.4" font-family="Arial" font-size="14.00" fill="#666666">[bigint]</text>
</g>
<!-- public.data_type_field&#45;&gt;public.data_type -->
<g id="edge1" class="edge">
<title>public.data_type_field:model_key&#45;&gt;public.data_type:model_key</title>
<path fill="none" stroke="black" d="M356.71,-493.41C398.62,-461.35 376.97,-212.6 326.14,-212.6"/>
<polygon fill="black" stroke="black" points="356.88,-493.35 345.95,-492.45 351.85,-495.13 347.77,-496.58 347.77,-496.58 347.77,-496.58 351.85,-495.13 348.95,-500.93 356.88,-493.35"/>
<text text-anchor="start" x="354.14" y="-506.8" font-family="Arial" font-size="10.00">FOREIGN KEY (model_key, data_type_key) REFERENCES data_type(model_key, data_type_key) ON DELETE CASCADE</text>
</g>
<!-- public.data_type_field&#45;&gt;public.data_type -->
<g id="edge2" class="edge">
<title>public.data_type_field:model_key&#45;&gt;public.data_type:model_key</title>
<path fill="none" stroke="black" d="M357.4,-494.69C417.08,-468.82 394.9,-213.65 326.57,-212.6"/>
<polygon fill="black" stroke="black" points="357.66,-494.64 346.94,-492.33 352.45,-495.75 348.21,-496.66 348.21,-496.66 348.21,-496.66 352.45,-495.75 348.83,-501.13 357.66,-494.64"/>
<text text-anchor="start" x="354.56" y="-480.8" font-family="Arial" font-size="10.00">FOREIGN KEY (model_key, field_data_type_key) REFERENCES data_type(model_key, data_type_key) ON DELETE CASCADE</text>
</g>
</g>
</svg>
