<?xml version="1.0" encoding="UTF-8" standalone="no"?>
<!DOCTYPE svg PUBLIC "-//W3C//DTD SVG 1.1//EN"
 "http://www.w3.org/Graphics/SVG/1.1/DTD/svg11.dtd">
<!-- Generated by graphviz version 12.1.2 (20240928.0832)
 -->
<!-- Title: public.query_guarantee Pages: 1 -->
<svg width="1321pt" height="540pt"
 viewBox="0.00 0.00 1320.67 540.40" xmlns="http://www.w3.org/2000/svg" xmlns:xlink="http://www.w3.org/1999/xlink">
<g id="graph0" class="graph" transform="scale(1 1) rotate(0) translate(4 536.4)">
<title>public.query_guarantee</title>
<polygon fill="white" stroke="none" points="-4,4 -4,-536.4 1316.67,-536.4 1316.67,4 -4,4"/>
<!-- public.query_guarantee -->
<g id="node1" class="node">
<title>public.query_guarantee</title>
<polygon fill="#efefef" stroke="none" points="495.7,-450.6 495.7,-486.2 803.62,-486.2 803.62,-450.6 495.7,-450.6"/>
<polygon fill="none" stroke="black" points="495.7,-450.6 495.7,-486.2 803.62,-486.2 803.62,-450.6 495.7,-450.6"/>
<text text-anchor="start" x="502.7" y="-464" font-family="Arial Bold" font-size="18.00">public.query_guarantee</text>
<text text-anchor="start" x="672.13" y="-464" font-family="Arial" font-size="14.00">    </text>
<text text-anchor="start" x="703.25" y="-464" font-family="Arial" font-size="14.00" fill="#666666">[BASE TABLE]</text>
<polygon fill="none" stroke="black" points="495.7,-419.8 495.7,-450.6 803.62,-450.6 803.62,-419.8 495.7,-419.8"/>
<text text-anchor="start" x="502.7" y="-432" font-family="Arial" font-size="14.00">model_key </text>
<text text-anchor="start" x="574.3" y="-432" font-family="Arial" font-size="14.00" fill="#666666">[text]</text>
<polygon fill="none" stroke="black" points="495.7,-389 495.7,-419.8 803.62,-419.8 803.62,-389 495.7,-389"/>
<text text-anchor="start" x="502.7" y="-401.2" font-family="Arial" font-size="14.00">query_key </text>
<text text-anchor="start" x="571.19" y="-401.2" font-family="Arial" font-size="14.00" fill="#666666">[text]</text>
<polygon fill="none" stroke="black" points="495.7,-358.2 495.7,-389 803.62,-389 803.62,-358.2 495.7,-358.2"/>
<text text-anchor="start" x="502.7" y="-370.4" font-family="Arial" font-size="14.00">logic_key </text>
<text text-anchor="start" x="564.96" y="-370.4" font-family="Arial" font-size="14.00" fill="#666666">[text]</text>
<polygon fill="none" stroke="black" stroke-width="3" points="494.2,-356.7 494.2,-487.7 805.12,-487.7 805.12,-356.7 494.2,-356.7"/>
</g>
<!-- public.logic -->
<g id="node2" class="node">
<title>public.logic</title>
<polygon fill="#efefef" stroke="none" points="372.68,-197.2 372.68,-232.8 596.65,-232.8 596.65,-197.2 372.68,-197.2"/>
<polygon fill="none" stroke="black" points="372.68,-197.2 372.68,-232.8 596.65,-232.8 596.65,-197.2 372.68,-197.2"/>
<text text-anchor="start" x="379.68" y="-210.6" font-family="Arial Bold" font-size="18.00">public.logic</text>
<text text-anchor="start" x="465.16" y="-210.6" font-family="Arial" font-size="14.00">    </text>
<text text-anchor="start" x="496.27" y="-210.6" font-family="Arial" font-size="14.00" fill="#666666">[BASE TABLE]</text>
<polygon fill="none" stroke="black" points="372.68,-166.4 372.68,-197.2 596.65,-197.2 596.65,-166.4 372.68,-166.4"/>
<text text-anchor="start" x="379.68" y="-178.6" font-family="Arial" font-size="14.00">logic_key </text>
<text text-anchor="start" x="441.93" y="-178.6" font-family="Arial" font-size="14.00" fill="#666666">[text]</text>
<polygon fill="none" stroke="black" points="372.68,-135.6 372.68,-166.4 596.65,-166.4 596.65,-135.6 372.68,-135.6"/>
<text text-anchor="start" x="379.68" y="-147.8" font-family="Arial" font-size="14.00">model_key </text>
<text text-anchor="start" x="451.27" y="-147.8" font-family="Arial" font-size="14.00" fill="#666666">[text]</text>
<polygon fill="none" stroke="black" points="372.68,-104.8 372.68,-135.6 596.65,-135.6 596.65,-104.8 372.68,-104.8"/>
<text text-anchor="start" x="379.68" y="-117" font-family="Arial" font-size="14.00">description </text>
<text text-anchor="start" x="451.27" y="-117" font-family="Arial" font-size="14.00" fill="#666666">[text]</text>
<polygon fill="none" stroke="black" points="372.68,-74 372.68,-104.8 596.65,-104.8 596.65,-74 372.68,-74"/>
<text text-anchor="start" x="379.68" y="-86.2" font-family="Arial" font-size="14.00">notation </text>
<text text-anchor="start" x="433.39" y="-86.2" font-family="Arial" font-size="14.00" fill="#666666">[notation]</text>
<polygon fill="none" stroke="black" points="372.68,-43.2 372.68,-74 596.65,-74 596.65,-43.2 372.68,-43.2"/>
<text text-anchor="start" x="379.68" y="-55.4" font-family="Arial" font-size="14.00">specification </text>
<text text-anchor="start" x="460.61" y="-55.4" font-family="Arial" font-size="14.00" fill="#666666">[text]</text>
</g>
<!-- public.query_guarantee&#45;&gt;public.logic -->
<g id="edge1" class="edge">
<title>public.query_guarantee:model_key&#45;&gt;public.logic:model_key</title>
<path fill="none" stroke="black" d="M484.56,-434.13C443.27,-424.62 466.14,-353.57 495.7,-312 523.31,-273.18 569.04,-314.82 596.65,-276 628.84,-230.72 653.2,-151 597.65,-151"/>
<polygon fill="black" stroke="black" points="484.43,-434.12 493.9,-439.64 489.73,-434.68 494.04,-435.13 494.04,-435.13 494.04,-435.13 489.73,-434.68 494.84,-430.69 484.43,-434.12"/>
<text text-anchor="start" x="7" y="-445.2" font-family="Arial" font-size="10.00">FOREIGN KEY (model_key, logic_key) REFERENCES logic(model_key, logic_key) ON DELETE CASCADE</text>
</g>
<!-- public.query -->
<g id="node3" class="node">
<title>public.query</title>
<polygon fill="#efefef" stroke="none" points="701.18,-197.2 701.18,-232.8 930.14,-232.8 930.14,-197.2 701.18,-197.2"/>
<polygon fill="none" stroke="black" points="701.18,-197.2 701.18,-232.8 930.14,-232.8 930.14,-197.2 701.18,-197.2"/>
<text text-anchor="start" x="708.18" y="-210.6" font-family="Arial Bold" font-size="18.00">public.query</text>
<text text-anchor="start" x="798.65" y="-210.6" font-family="Arial" font-size="14.00">    </text>
<text text-anchor="start" x="829.77" y="-210.6" font-family="Arial" font-size="14.00" fill="#666666">[BASE TABLE]</text>
<polygon fill="none" stroke="black" points="701.18,-166.4 701.18,-197.2 930.14,-197.2 930.14,-166.4 701.18,-166.4"/>
<text text-anchor="start" x="708.18" y="-178.6" font-family="Arial" font-size="14.00">model_key </text>
<text text-anchor="start" x="779.77" y="-178.6" font-family="Arial" font-size="14.00" fill="#666666">[text]</text>
<polygon fill="none" stroke="black" points="701.18,-135.6 701.18,-166.4 930.14,-166.4 930.14,-135.6 701.18,-135.6"/>
<text text-anchor="start" x="708.18" y="-147.8" font-family="Arial" font-size="14.00">class_key </text>
<text text-anchor="start" x="773.54" y="-147.8" font-family="Arial" font-size="14.00" fill="#666666">[text]</text>
<polygon fill="none" stroke="black" points="701.18,-104.8 701.18,-135.6 930.14,-135.6 930.14,-104.8 701.18,-104.8"/>
<text text-anchor="start" x="708.18" y="-117" font-family="Arial" font-size="14.00">query_key </text>
<text text-anchor="start" x="776.66" y="-117" font-family="Arial" font-size="14.00" fill="#666666">[text]</text>
<polygon fill="none" stroke="black" points="701.18,-74 701.18,-104.8 930.14,-104.8 930.14,-74 701.18,-74"/>
<text text-anchor="start" x="708.18" y="-86.2" font-family="Arial" font-size="14.00">name </text>
<text text-anchor="start" x="747.09" y="-86.2" font-family="Arial" font-size="14.00" fill="#666666">[text]</text>
<polygon fill="none" stroke="black" points="701.18,-43.2 701.18,-74 930.14,-74 930.14,-43.2 701.18,-43.2"/>
<text text-anchor="start" x="708.18" y="-55.4" font-family="Arial" font-size="14.00">details </text>
<text text-anchor="start" x="752.54" y="-55.4" font-family="Arial" font-size="14.00" fill="#666666">[text]</text>
</g>
<!-- public.query_guarantee&#45;&gt;public.query -->
<g id="edge2" class="edge">
<title>public.query_guarantee:model_key&#45;&gt;public.query:model_key</title>
<path fill="none" stroke="black" d="M814.77,-434.13C856.07,-424.61 833.28,-353.5 803.62,-312 775.56,-272.74 729.29,-315.23 701.18,-276 676.79,-241.97 658.31,-181.8 700.18,-181.8"/>
<polygon fill="black" stroke="black" points="814.9,-434.12 804.48,-430.69 809.59,-434.68 805.28,-435.13 805.28,-435.13 805.28,-435.13 809.59,-434.68 805.42,-439.64 814.9,-434.12"/>
<text text-anchor="start" x="811.62" y="-445.2" font-family="Arial" font-size="10.00">FOREIGN KEY (model_key, query_key) REFERENCES query(model_key, query_key) ON DELETE CASCADE</text>
</g>
</g>
</svg>
