<?xml version="1.0" encoding="UTF-8" standalone="no"?>
<!DOCTYPE svg PUBLIC "-//W3C//DTD SVG 1.1//EN"
 "http://www.w3.org/Graphics/SVG/1.1/DTD/svg11.dtd">
<!-- Generated by graphviz version 12.1.2 (20240928.0832)
 -->
<!-- Title: public.class_generalization Pages: 1 -->
<svg width="1343pt" height="1284pt"
 viewBox="0.00 0.00 1343.24 1283.60" xmlns="http://www.w3.org/2000/svg" xmlns:xlink="http://www.w3.org/1999/xlink">
<g id="graph0" class="graph" transform="scale(1 1) rotate(0) translate(4 1279.6)">
<title>public.class_generalization</title>
<polygon fill="white" stroke="none" points="-4,4 -4,-1279.6 1339.24,-1279.6 1339.24,4 -4,4"/>
<!-- public.class_generalization -->
<g id="node1" class="node">
<title>public.class_generalization</title>
<polygon fill="#efefef" stroke="none" points="407.88,-697 407.88,-732.6 741.79,-732.6 741.79,-697 407.88,-697"/>
<polygon fill="none" stroke="black" points="407.88,-697 407.88,-732.6 741.79,-732.6 741.79,-697 407.88,-697"/>
<text text-anchor="start" x="414.88" y="-710.4" font-family="Arial Bold" font-size="18.00">public.class_generalization</text>
<text text-anchor="start" x="610.31" y="-710.4" font-family="Arial" font-size="14.00">    </text>
<text text-anchor="start" x="641.42" y="-710.4" font-family="Arial" font-size="14.00" fill="#666666">[BASE TABLE]</text>
<polygon fill="none" stroke="black" points="407.88,-666.2 407.88,-697 741.79,-697 741.79,-666.2 407.88,-666.2"/>
<text text-anchor="start" x="414.88" y="-678.4" font-family="Arial" font-size="14.00">model_key </text>
<text text-anchor="start" x="486.47" y="-678.4" font-family="Arial" font-size="14.00" fill="#666666">[text]</text>
<polygon fill="none" stroke="black" points="407.88,-635.4 407.88,-666.2 741.79,-666.2 741.79,-635.4 407.88,-635.4"/>
<text text-anchor="start" x="414.88" y="-647.6" font-family="Arial" font-size="14.00">generalization_key </text>
<text text-anchor="start" x="535.51" y="-647.6" font-family="Arial" font-size="14.00" fill="#666666">[text]</text>
<polygon fill="none" stroke="black" points="407.88,-604.6 407.88,-635.4 741.79,-635.4 741.79,-604.6 407.88,-604.6"/>
<text text-anchor="start" x="414.88" y="-616.8" font-family="Arial" font-size="14.00">name </text>
<text text-anchor="start" x="453.79" y="-616.8" font-family="Arial" font-size="14.00" fill="#666666">[text]</text>
<polygon fill="none" stroke="black" points="407.88,-573.8 407.88,-604.6 741.79,-604.6 741.79,-573.8 407.88,-573.8"/>
<text text-anchor="start" x="414.88" y="-586" font-family="Arial" font-size="14.00">subdomain_key </text>
<text text-anchor="start" x="516.83" y="-586" font-family="Arial" font-size="14.00" fill="#666666">[text]</text>
<polygon fill="none" stroke="black" points="407.88,-543 407.88,-573.8 741.79,-573.8 741.79,-543 407.88,-543"/>
<text text-anchor="start" x="414.88" y="-555.2" font-family="Arial" font-size="14.00">is_complete </text>
<text text-anchor="start" x="493.47" y="-555.2" font-family="Arial" font-size="14.00" fill="#666666">[boolean]</text>
<polygon fill="none" stroke="black" points="407.88,-512.2 407.88,-543 741.79,-543 741.79,-512.2 407.88,-512.2"/>
<text text-anchor="start" x="414.88" y="-524.4" font-family="Arial" font-size="14.00">is_static </text>
<text text-anchor="start" x="469.34" y="-524.4" font-family="Arial" font-size="14.00" fill="#666666">[boolean]</text>
<polygon fill="none" stroke="black" points="407.88,-481.4 407.88,-512.2 741.79,-512.2 741.79,-481.4 407.88,-481.4"/>
<text text-anchor="start" x="414.88" y="-493.6" font-family="Arial" font-size="14.00">details </text>
<text text-anchor="start" x="459.24" y="-493.6" font-family="Arial" font-size="14.00" fill="#666666">[text]</text>
<polygon fill="none" stroke="black" points="407.88,-450.6 407.88,-481.4 741.79,-481.4 741.79,-450.6 407.88,-450.6"/>
<text text-anchor="start" x="414.88" y="-462.8" font-family="Arial" font-size="14.00">unfinished_notes </text>
<text text-anchor="start" x="524.63" y="-462.8" font-family="Arial" font-size="14.00" fill="#666666">[text]</text>
<polygon fill="none" stroke="black" points="407.88,-419.8 407.88,-450.6 741.79,-450.6 741.79,-419.8 407.88,-419.8"/>
<text text-anchor="start" x="414.88" y="-432" font-family="Arial" font-size="14.00">uml_comment </text>
<text text-anchor="start" x="506.69" y="-432" font-family="Arial" font-size="14.00" fill="#666666">[text]</text>
<polygon fill="none" stroke="black" stroke-width="3" points="406.38,-418.3 406.38,-734.1 743.29,-734.1 743.29,-418.3 406.38,-418.3"/>
</g>
<!-- public.model -->
<g id="node2" class="node">
<title>public.model</title>
<polygon fill="#efefef" stroke="none" points="281.35,-212.6 281.35,-248.2 514.32,-248.2 514.32,-212.6 281.35,-212.6"/>
<polygon fill="none" stroke="black" points="281.35,-212.6 281.35,-248.2 514.32,-248.2 514.32,-212.6 281.35,-212.6"/>
<text text-anchor="start" x="288.35" y="-226" font-family="Arial Bold" font-size="18.00">public.model</text>
<text text-anchor="start" x="382.83" y="-226" font-family="Arial" font-size="14.00">    </text>
<text text-anchor="start" x="413.95" y="-226" font-family="Arial" font-size="14.00" fill="#666666">[BASE TABLE]</text>
<polygon fill="none" stroke="black" points="281.35,-181.8 281.35,-212.6 514.32,-212.6 514.32,-181.8 281.35,-181.8"/>
<text text-anchor="start" x="288.35" y="-194" font-family="Arial" font-size="14.00">model_key </text>
<text text-anchor="start" x="359.94" y="-194" font-family="Arial" font-size="14.00" fill="#666666">[text]</text>
<polygon fill="none" stroke="black" points="281.35,-151 281.35,-181.8 514.32,-181.8 514.32,-151 281.35,-151"/>
<text text-anchor="start" x="288.35" y="-163.2" font-family="Arial" font-size="14.00">name </text>
<text text-anchor="start" x="327.26" y="-163.2" font-family="Arial" font-size="14.00" fill="#666666">[text]</text>
<polygon fill="none" stroke="black" points="281.35,-120.2 281.35,-151 514.32,-151 514.32,-120.2 281.35,-120.2"/>
<text text-anchor="start" x="288.35" y="-132.4" font-family="Arial" font-size="14.00">details </text>
<text text-anchor="start" x="332.71" y="-132.4" font-family="Arial" font-size="14.00" fill="#666666">[text]</text>
<polygon fill="none" stroke="black" points="281.35,-89.4 281.35,-120.2 514.32,-120.2 514.32,-89.4 281.35,-89.4"/>
<text text-anchor="start" x="288.35" y="-101.6" font-family="Arial" font-size="14.00">unfinished_notes </text>
<text text-anchor="start" x="398.1" y="-101.6" font-family="Arial" font-size="14.00" fill="#666666">[text]</text>
</g>
<!-- public.class_generalization&#45;&gt;public.model -->
<g id="edge1" class="edge">
<title>public.class_generalization:model_key&#45;&gt;public.model:model_key</title>
<path fill="none" stroke="black" d="M396.5,-681.22C274.06,-671.88 348.92,-493.13 407.88,-373.6 434.32,-319.99 487.69,-344.91 514.32,-291.4 532.98,-253.92 557.19,-197.2 515.32,-197.2"/>
<polygon fill="black" stroke="black" points="396.55,-681.22 406.38,-686.08 401.88,-681.42 406.21,-681.58 406.21,-681.58 406.21,-681.58 401.88,-681.42 406.71,-677.09 396.55,-681.22"/>
<text text-anchor="start" x="7" y="-691.6" font-family="Arial" font-size="10.00">FOREIGN KEY (model_key) REFERENCES model(model_key) ON DELETE CASCADE</text>
</g>
<!-- public.subdomain -->
<g id="node3" class="node">
<title>public.subdomain</title>
<polygon fill="#efefef" stroke="none" points="618.35,-258.8 618.35,-294.4 885.33,-294.4 885.33,-258.8 618.35,-258.8"/>
<polygon fill="none" stroke="black" points="618.35,-258.8 618.35,-294.4 885.33,-294.4 885.33,-258.8 618.35,-258.8"/>
<text text-anchor="start" x="625.35" y="-272.2" font-family="Arial Bold" font-size="18.00">public.subdomain</text>
<text text-anchor="start" x="753.84" y="-272.2" font-family="Arial" font-size="14.00">    </text>
<text text-anchor="start" x="784.95" y="-272.2" font-family="Arial" font-size="14.00" fill="#666666">[BASE TABLE]</text>
<polygon fill="none" stroke="black" points="618.35,-228 618.35,-258.8 885.33,-258.8 885.33,-228 618.35,-228"/>
<text text-anchor="start" x="625.35" y="-240.2" font-family="Arial" font-size="14.00">subdomain_key </text>
<text text-anchor="start" x="727.3" y="-240.2" font-family="Arial" font-size="14.00" fill="#666666">[text]</text>
<polygon fill="none" stroke="black" points="618.35,-197.2 618.35,-228 885.33,-228 885.33,-197.2 618.35,-197.2"/>
<text text-anchor="start" x="625.35" y="-209.4" font-family="Arial" font-size="14.00">model_key </text>
<text text-anchor="start" x="696.94" y="-209.4" font-family="Arial" font-size="14.00" fill="#666666">[text]</text>
<polygon fill="none" stroke="black" points="618.35,-166.4 618.35,-197.2 885.33,-197.2 885.33,-166.4 618.35,-166.4"/>
<text text-anchor="start" x="625.35" y="-178.6" font-family="Arial" font-size="14.00">domain_key </text>
<text text-anchor="start" x="704.73" y="-178.6" font-family="Arial" font-size="14.00" fill="#666666">[text]</text>
<polygon fill="none" stroke="black" points="618.35,-135.6 618.35,-166.4 885.33,-166.4 885.33,-135.6 618.35,-135.6"/>
<text text-anchor="start" x="625.35" y="-147.8" font-family="Arial" font-size="14.00">name </text>
<text text-anchor="start" x="664.26" y="-147.8" font-family="Arial" font-size="14.00" fill="#666666">[text]</text>
<polygon fill="none" stroke="black" points="618.35,-104.8 618.35,-135.6 885.33,-135.6 885.33,-104.8 618.35,-104.8"/>
<text text-anchor="start" x="625.35" y="-117" font-family="Arial" font-size="14.00">details </text>
<text text-anchor="start" x="669.71" y="-117" font-family="Arial" font-size="14.00" fill="#666666">[text]</text>
<polygon fill="none" stroke="black" points="618.35,-74 618.35,-104.8 885.33,-104.8 885.33,-74 618.35,-74"/>
<text text-anchor="start" x="625.35" y="-86.2" font-family="Arial" font-size="14.00">unfinished_notes </text>
<text text-anchor="start" x="735.1" y="-86.2" font-family="Arial" font-size="14.00" fill="#666666">[text]</text>
<polygon fill="none" stroke="black" points="618.35,-43.2 618.35,-74 885.33,-74 885.33,-43.2 618.35,-43.2"/>
<text text-anchor="start" x="625.35" y="-55.4" font-family="Arial" font-size="14.00">uml_comment </text>
<text text-anchor="start" x="717.16" y="-55.4" font-family="Arial" font-size="14.00" fill="#666666">[text]</text>
</g>
<!-- public.class_generalization&#45;&gt;public.subdomain -->
<g id="edge2" class="edge">
<title>public.class_generalization:model_key&#45;&gt;public.subdomain:model_key</title>
<path fill="none" stroke="black" d="M753.22,-681.19C876.74,-671.19 821.94,-480.09 741.79,-373.6 707.43,-327.94 652.82,-383.18 618.35,-337.6 584.84,-293.29 561.79,-212.6 617.35,-212.6"/>
<polygon fill="black" stroke="black" points="753.12,-681.19 742.95,-677.09 747.79,-681.4 743.46,-681.57 743.46,-681.57 743.46,-681.57 747.79,-681.4 743.31,-686.08 753.12,-681.19"/>
<text text-anchor="start" x="749.79" y="-691.6" font-family="Arial" font-size="10.00">FOREIGN KEY (model_key, subdomain_key) REFERENCES subdomain(model_key, subdomain_key) ON DELETE CASCADE</text>
</g>
<!-- public.class -->
<g id="node4" class="node">
<title>public.class</title>
<polygon fill="#efefef" stroke="none" points="463.35,-1196.8 463.35,-1232.4 686.32,-1232.4 686.32,-1196.8 463.35,-1196.8"/>
<polygon fill="none" stroke="black" points="463.35,-1196.8 463.35,-1232.4 686.32,-1232.4 686.32,-1196.8 463.35,-1196.8"/>
<text text-anchor="start" x="470.35" y="-1210.2" font-family="Arial Bold" font-size="18.00">public.class</text>
<text text-anchor="start" x="554.83" y="-1210.2" font-family="Arial" font-size="14.00">    </text>
<text text-anchor="start" x="585.95" y="-1210.2" font-family="Arial" font-size="14.00" fill="#666666">[BASE TABLE]</text>
<polygon fill="none" stroke="black" points="463.35,-1166 463.35,-1196.8 686.32,-1196.8 686.32,-1166 463.35,-1166"/>
<text text-anchor="start" x="470.35" y="-1178.2" font-family="Arial" font-size="14.00">model_key </text>
<text text-anchor="start" x="541.95" y="-1178.2" font-family="Arial" font-size="14.00" fill="#666666">[text]</text>
<polygon fill="none" stroke="black" points="463.35,-1135.2 463.35,-1166 686.32,-1166 686.32,-1135.2 463.35,-1135.2"/>
<text text-anchor="start" x="470.35" y="-1147.4" font-family="Arial" font-size="14.00">class_key </text>
<text text-anchor="start" x="535.71" y="-1147.4" font-family="Arial" font-size="14.00" fill="#666666">[text]</text>
<polygon fill="none" stroke="black" points="463.35,-1104.4 463.35,-1135.2 686.32,-1135.2 686.32,-1104.4 463.35,-1104.4"/>
<text text-anchor="start" x="470.35" y="-1116.6" font-family="Arial" font-size="14.00">name </text>
<text text-anchor="start" x="509.26" y="-1116.6" font-family="Arial" font-size="14.00" fill="#666666">[text]</text>
<polygon fill="none" stroke="black" points="463.35,-1073.6 463.35,-1104.4 686.32,-1104.4 686.32,-1073.6 463.35,-1073.6"/>
<text text-anchor="start" x="470.35" y="-1085.8" font-family="Arial" font-size="14.00">subdomain_key </text>
<text text-anchor="start" x="572.3" y="-1085.8" font-family="Arial" font-size="14.00" fill="#666666">[text]</text>
<polygon fill="none" stroke="black" points="463.35,-1042.8 463.35,-1073.6 686.32,-1073.6 686.32,-1042.8 463.35,-1042.8"/>
<text text-anchor="start" x="470.35" y="-1055" font-family="Arial" font-size="14.00">actor_key </text>
<text text-anchor="start" x="534.94" y="-1055" font-family="Arial" font-size="14.00" fill="#666666">[text]</text>
<polygon fill="none" stroke="black" points="463.35,-1012 463.35,-1042.8 686.32,-1042.8 686.32,-1012 463.35,-1012"/>
<text text-anchor="start" x="470.35" y="-1024.2" font-family="Arial" font-size="14.00">superclass_of_key </text>
<text text-anchor="start" x="590.19" y="-1024.2" font-family="Arial" font-size="14.00" fill="#666666">[text]</text>
<polygon fill="none" stroke="black" points="463.35,-981.2 463.35,-1012 686.32,-1012 686.32,-981.2 463.35,-981.2"/>
<text text-anchor="start" x="470.35" y="-993.4" font-family="Arial" font-size="14.00">subclass_of_key </text>
<text text-anchor="start" x="577.75" y="-993.4" font-family="Arial" font-size="14.00" fill="#666666">[text]</text>
<polygon fill="none" stroke="black" points="463.35,-950.4 463.35,-981.2 686.32,-981.2 686.32,-950.4 463.35,-950.4"/>
<text text-anchor="start" x="470.35" y="-962.6" font-family="Arial" font-size="14.00">details </text>
<text text-anchor="start" x="514.71" y="-962.6" font-family="Arial" font-size="14.00" fill="#666666">[text]</text>
<polygon fill="none" stroke="black" points="463.35,-919.6 463.35,-950.4 686.32,-950.4 686.32,-919.6 463.35,-919.6"/>
<text text-anchor="start" x="470.35" y="-931.8" font-family="Arial" font-size="14.00">unfinished_notes </text>
<text text-anchor="start" x="580.1" y="-931.8" font-family="Arial" font-size="14.00" fill="#666666">[text]</text>
<polygon fill="none" stroke="black" points="463.35,-888.8 463.35,-919.6 686.32,-919.6 686.32,-888.8 463.35,-888.8"/>
<text text-anchor="start" x="470.35" y="-901" font-family="Arial" font-size="14.00">uml_comment </text>
<text text-anchor="start" x="562.16" y="-901" font-family="Arial" font-size="14.00" fill="#666666">[text]</text>
<polygon fill="none" stroke="black" points="463.35,-858 463.35,-888.8 686.32,-888.8 686.32,-858 463.35,-858"/>
<text text-anchor="start" x="470.35" y="-870.2" font-family="Arial" font-size="14.00">marked </text>
<text text-anchor="start" x="520.93" y="-870.2" font-family="Arial" font-size="14.00" fill="#666666">[boolean]</text>
</g>
<!-- public.class&#45;&gt;public.class_generalization -->
<g id="edge3" class="edge">
<title>public.class:model_key&#45;&gt;public.class_generalization:model_key</title>
<path fill="none" stroke="black" d="M697.57,-1181.01C903.54,-1165.42 953.84,-681.6 742.79,-681.6"/>
<polygon fill="black" stroke="black" points="697.65,-1181.01 687.49,-1176.89 692.32,-1181.21 687.99,-1181.37 687.99,-1181.37 687.99,-1181.37 692.32,-1181.21 687.83,-1185.88 697.65,-1181.01"/>
<text text-anchor="start" x="694.32" y="-1191.4" font-family="Arial" font-size="10.00">FOREIGN KEY (model_key, subclass_of_key) REFERENCES class_generalization(model_key, generalization_key) ON DELETE CASCADE</text>
</g>
<!-- public.class&#45;&gt;public.class_generalization -->
<g id="edge4" class="edge">
<title>public.class:model_key&#45;&gt;public.class_generalization:model_key</title>
<path fill="none" stroke="black" d="M698.08,-1181.04C921.37,-1165.93 971.61,-682.08 743.14,-681.6"/>
<polygon fill="black" stroke="black" points="697.99,-1181.04 687.84,-1176.89 692.66,-1181.23 688.33,-1181.38 688.33,-1181.38 688.33,-1181.38 692.66,-1181.23 688.15,-1185.89 697.99,-1181.04"/>
<text text-anchor="start" x="694.66" y="-1165.4" font-family="Arial" font-size="10.00">FOREIGN KEY (model_key, superclass_of_key) REFERENCES class_generalization(model_key, generalization_key) ON DELETE CASCADE</text>
</g>
</g>
</svg>
