<?xml version="1.0" encoding="UTF-8" standalone="no"?>
<!DOCTYPE svg PUBLIC "-//W3C//DTD SVG 1.1//EN"
 "http://www.w3.org/Graphics/SVG/1.1/DTD/svg11.dtd">
<!-- Generated by graphviz version 12.1.2 (20240928.0832)
 -->
<!-- Title: public.scenario Pages: 1 -->
<svg width="1509pt" height="1345pt"
 viewBox="0.00 0.00 1508.93 1345.20" xmlns="http://www.w3.org/2000/svg" xmlns:xlink="http://www.w3.org/1999/xlink">
<g id="graph0" class="graph" transform="scale(1 1) rotate(0) translate(4 1341.2)">
<title>public.scenario</title>
<polygon fill="white" stroke="none" points="-4,4 -4,-1341.2 1504.93,-1341.2 1504.93,4 -4,4"/>
<!-- public.scenario -->
<g id="node1" class="node">
<title>public.scenario</title>
<polygon fill="#efefef" stroke="none" points="668.96,-666.2 668.96,-701.8 916.91,-701.8 916.91,-666.2 668.96,-666.2"/>
<polygon fill="none" stroke="black" points="668.96,-666.2 668.96,-701.8 916.91,-701.8 916.91,-666.2 668.96,-666.2"/>
<text text-anchor="start" x="675.96" y="-679.6" font-family="Arial Bold" font-size="18.00">public.scenario</text>
<text text-anchor="start" x="785.42" y="-679.6" font-family="Arial" font-size="14.00">    </text>
<text text-anchor="start" x="816.54" y="-679.6" font-family="Arial" font-size="14.00" fill="#666666">[BASE TABLE]</text>
<polygon fill="none" stroke="black" points="668.96,-635.4 668.96,-666.2 916.91,-666.2 916.91,-635.4 668.96,-635.4"/>
<text text-anchor="start" x="675.96" y="-647.6" font-family="Arial" font-size="14.00">model_key </text>
<text text-anchor="start" x="747.55" y="-647.6" font-family="Arial" font-size="14.00" fill="#666666">[text]</text>
<polygon fill="none" stroke="black" points="668.96,-604.6 668.96,-635.4 916.91,-635.4 916.91,-604.6 668.96,-604.6"/>
<text text-anchor="start" x="675.96" y="-616.8" font-family="Arial" font-size="14.00">scenario_key </text>
<text text-anchor="start" x="762.34" y="-616.8" font-family="Arial" font-size="14.00" fill="#666666">[text]</text>
<polygon fill="none" stroke="black" points="668.96,-573.8 668.96,-604.6 916.91,-604.6 916.91,-573.8 668.96,-573.8"/>
<text text-anchor="start" x="675.96" y="-586" font-family="Arial" font-size="14.00">name </text>
<text text-anchor="start" x="714.87" y="-586" font-family="Arial" font-size="14.00" fill="#666666">[text]</text>
<polygon fill="none" stroke="black" points="668.96,-543 668.96,-573.8 916.91,-573.8 916.91,-543 668.96,-543"/>
<text text-anchor="start" x="675.96" y="-555.2" font-family="Arial" font-size="14.00">use_case_key </text>
<text text-anchor="start" x="769.35" y="-555.2" font-family="Arial" font-size="14.00" fill="#666666">[text]</text>
<polygon fill="none" stroke="black" points="668.96,-512.2 668.96,-543 916.91,-543 916.91,-512.2 668.96,-512.2"/>
<text text-anchor="start" x="675.96" y="-524.4" font-family="Arial" font-size="14.00">details </text>
<text text-anchor="start" x="720.32" y="-524.4" font-family="Arial" font-size="14.00" fill="#666666">[text]</text>
<polygon fill="none" stroke="black" stroke-width="3" points="667.46,-510.7 667.46,-703.3 918.41,-703.3 918.41,-510.7 667.46,-510.7"/>
</g>
<!-- public.model -->
<g id="node2" class="node">
<title>public.model</title>
<polygon fill="#efefef" stroke="none" points="503.45,-243.4 503.45,-279 736.42,-279 736.42,-243.4 503.45,-243.4"/>
<polygon fill="none" stroke="black" points="503.45,-243.4 503.45,-279 736.42,-279 736.42,-243.4 503.45,-243.4"/>
<text text-anchor="start" x="510.45" y="-256.8" font-family="Arial Bold" font-size="18.00">public.model</text>
<text text-anchor="start" x="604.93" y="-256.8" font-family="Arial" font-size="14.00">    </text>
<text text-anchor="start" x="636.05" y="-256.8" font-family="Arial" font-size="14.00" fill="#666666">[BASE TABLE]</text>
<polygon fill="none" stroke="black" points="503.45,-212.6 503.45,-243.4 736.42,-243.4 736.42,-212.6 503.45,-212.6"/>
<text text-anchor="start" x="510.45" y="-224.8" font-family="Arial" font-size="14.00">model_key </text>
<text text-anchor="start" x="582.04" y="-224.8" font-family="Arial" font-size="14.00" fill="#666666">[text]</text>
<polygon fill="none" stroke="black" points="503.45,-181.8 503.45,-212.6 736.42,-212.6 736.42,-181.8 503.45,-181.8"/>
<text text-anchor="start" x="510.45" y="-194" font-family="Arial" font-size="14.00">name </text>
<text text-anchor="start" x="549.36" y="-194" font-family="Arial" font-size="14.00" fill="#666666">[text]</text>
<polygon fill="none" stroke="black" points="503.45,-151 503.45,-181.8 736.42,-181.8 736.42,-151 503.45,-151"/>
<text text-anchor="start" x="510.45" y="-163.2" font-family="Arial" font-size="14.00">details </text>
<text text-anchor="start" x="554.81" y="-163.2" font-family="Arial" font-size="14.00" fill="#666666">[text]</text>
</g>
<!-- public.scenario&#45;&gt;public.model -->
<g id="edge1" class="edge">
<title>public.scenario:model_key&#45;&gt;public.model:model_key</title>
<path fill="none" stroke="black" d="M657.58,-650.19C533.39,-634.64 735,-328.4 736.42,-322.2 745.75,-281.38 779.29,-228 737.42,-228"/>
<polygon fill="black" stroke="black" points="657.64,-650.19 667.36,-655.27 662.97,-650.51 667.29,-650.76 667.29,-650.76 667.29,-650.76 662.97,-650.51 667.89,-646.29 657.64,-650.19"/>
<text text-anchor="start" x="268.08" y="-660.8" font-family="Arial" font-size="10.00">FOREIGN KEY (model_key) REFERENCES model(model_key) ON DELETE CASCADE</text>
</g>
<!-- public.use_case -->
<g id="node3" class="node">
<title>public.use_case</title>
<polygon fill="#efefef" stroke="none" points="840.96,-351.2 840.96,-386.8 1092.91,-386.8 1092.91,-351.2 840.96,-351.2"/>
<polygon fill="none" stroke="black" points="840.96,-351.2 840.96,-386.8 1092.91,-386.8 1092.91,-351.2 840.96,-351.2"/>
<text text-anchor="start" x="847.96" y="-364.6" font-family="Arial Bold" font-size="18.00">public.use_case</text>
<text text-anchor="start" x="961.42" y="-364.6" font-family="Arial" font-size="14.00">    </text>
<text text-anchor="start" x="992.53" y="-364.6" font-family="Arial" font-size="14.00" fill="#666666">[BASE TABLE]</text>
<polygon fill="none" stroke="black" points="840.96,-320.4 840.96,-351.2 1092.91,-351.2 1092.91,-320.4 840.96,-320.4"/>
<text text-anchor="start" x="847.96" y="-332.6" font-family="Arial" font-size="14.00">model_key </text>
<text text-anchor="start" x="919.55" y="-332.6" font-family="Arial" font-size="14.00" fill="#666666">[text]</text>
<polygon fill="none" stroke="black" points="840.96,-289.6 840.96,-320.4 1092.91,-320.4 1092.91,-289.6 840.96,-289.6"/>
<text text-anchor="start" x="847.96" y="-301.8" font-family="Arial" font-size="14.00">use_case_key </text>
<text text-anchor="start" x="941.35" y="-301.8" font-family="Arial" font-size="14.00" fill="#666666">[text]</text>
<polygon fill="none" stroke="black" points="840.96,-258.8 840.96,-289.6 1092.91,-289.6 1092.91,-258.8 840.96,-258.8"/>
<text text-anchor="start" x="847.96" y="-271" font-family="Arial" font-size="14.00">name </text>
<text text-anchor="start" x="886.87" y="-271" font-family="Arial" font-size="14.00" fill="#666666">[text]</text>
<polygon fill="none" stroke="black" points="840.96,-228 840.96,-258.8 1092.91,-258.8 1092.91,-228 840.96,-228"/>
<text text-anchor="start" x="847.96" y="-240.2" font-family="Arial" font-size="14.00">details </text>
<text text-anchor="start" x="892.32" y="-240.2" font-family="Arial" font-size="14.00" fill="#666666">[text]</text>
<polygon fill="none" stroke="black" points="840.96,-197.2 840.96,-228 1092.91,-228 1092.91,-197.2 840.96,-197.2"/>
<text text-anchor="start" x="847.96" y="-209.4" font-family="Arial" font-size="14.00">level </text>
<text text-anchor="start" x="880.64" y="-209.4" font-family="Arial" font-size="14.00" fill="#666666">[use_case_level]</text>
<polygon fill="none" stroke="black" points="840.96,-166.4 840.96,-197.2 1092.91,-197.2 1092.91,-166.4 840.96,-166.4"/>
<text text-anchor="start" x="847.96" y="-178.6" font-family="Arial" font-size="14.00">read_only </text>
<text text-anchor="start" x="913.34" y="-178.6" font-family="Arial" font-size="14.00" fill="#666666">[boolean]</text>
<polygon fill="none" stroke="black" points="840.96,-135.6 840.96,-166.4 1092.91,-166.4 1092.91,-135.6 840.96,-135.6"/>
<text text-anchor="start" x="847.96" y="-147.8" font-family="Arial" font-size="14.00">subdomain_key </text>
<text text-anchor="start" x="949.91" y="-147.8" font-family="Arial" font-size="14.00" fill="#666666">[text]</text>
<polygon fill="none" stroke="black" points="840.96,-104.8 840.96,-135.6 1092.91,-135.6 1092.91,-104.8 840.96,-104.8"/>
<text text-anchor="start" x="847.96" y="-117" font-family="Arial" font-size="14.00">superclass_of_key </text>
<text text-anchor="start" x="967.8" y="-117" font-family="Arial" font-size="14.00" fill="#666666">[text]</text>
<polygon fill="none" stroke="black" points="840.96,-74 840.96,-104.8 1092.91,-104.8 1092.91,-74 840.96,-74"/>
<text text-anchor="start" x="847.96" y="-86.2" font-family="Arial" font-size="14.00">subclass_of_key </text>
<text text-anchor="start" x="955.35" y="-86.2" font-family="Arial" font-size="14.00" fill="#666666">[text]</text>
<polygon fill="none" stroke="black" points="840.96,-43.2 840.96,-74 1092.91,-74 1092.91,-43.2 840.96,-43.2"/>
<text text-anchor="start" x="847.96" y="-55.4" font-family="Arial" font-size="14.00">uml_comment </text>
<text text-anchor="start" x="939.77" y="-55.4" font-family="Arial" font-size="14.00" fill="#666666">[text]</text>
</g>
<!-- public.scenario&#45;&gt;public.use_case -->
<g id="edge2" class="edge">
<title>public.scenario:model_key&#45;&gt;public.use_case:model_key</title>
<path fill="none" stroke="black" d="M928.25,-650.12C996.52,-640.52 959.03,-532.18 916.91,-466 896.85,-434.49 861.1,-461.46 840.96,-430 818.39,-394.74 798.09,-335.8 839.96,-335.8"/>
<polygon fill="black" stroke="black" points="928.22,-650.12 917.94,-646.29 922.9,-650.47 918.57,-650.76 918.57,-650.76 918.57,-650.76 922.9,-650.47 918.54,-655.27 928.22,-650.12"/>
<text text-anchor="start" x="924.91" y="-660.8" font-family="Arial" font-size="10.00">FOREIGN KEY (model_key, use_case_key) REFERENCES use_case(model_key, use_case_key) ON DELETE CASCADE</text>
</g>
<!-- public.scenario_object -->
<g id="node4" class="node">
<title>public.scenario_object</title>
<polygon fill="#efefef" stroke="none" points="244.47,-1181.4 244.47,-1217 545.4,-1217 545.4,-1181.4 244.47,-1181.4"/>
<polygon fill="none" stroke="black" points="244.47,-1181.4 244.47,-1217 545.4,-1217 545.4,-1181.4 244.47,-1181.4"/>
<text text-anchor="start" x="251.47" y="-1194.8" font-family="Arial Bold" font-size="18.00">public.scenario_object</text>
<text text-anchor="start" x="413.91" y="-1194.8" font-family="Arial" font-size="14.00">    </text>
<text text-anchor="start" x="445.03" y="-1194.8" font-family="Arial" font-size="14.00" fill="#666666">[BASE TABLE]</text>
<polygon fill="none" stroke="black" points="244.47,-1150.6 244.47,-1181.4 545.4,-1181.4 545.4,-1150.6 244.47,-1150.6"/>
<text text-anchor="start" x="251.47" y="-1162.8" font-family="Arial" font-size="14.00">model_key </text>
<text text-anchor="start" x="323.06" y="-1162.8" font-family="Arial" font-size="14.00" fill="#666666">[text]</text>
<polygon fill="none" stroke="black" points="244.47,-1119.8 244.47,-1150.6 545.4,-1150.6 545.4,-1119.8 244.47,-1119.8"/>
<text text-anchor="start" x="251.47" y="-1132" font-family="Arial" font-size="14.00">scenario_object_key </text>
<text text-anchor="start" x="382.99" y="-1132" font-family="Arial" font-size="14.00" fill="#666666">[text]</text>
<polygon fill="none" stroke="black" points="244.47,-1089 244.47,-1119.8 545.4,-1119.8 545.4,-1089 244.47,-1089"/>
<text text-anchor="start" x="251.47" y="-1101.2" font-family="Arial" font-size="14.00">scenario_key </text>
<text text-anchor="start" x="337.85" y="-1101.2" font-family="Arial" font-size="14.00" fill="#666666">[text]</text>
<polygon fill="none" stroke="black" points="244.47,-1058.2 244.47,-1089 545.4,-1089 545.4,-1058.2 244.47,-1058.2"/>
<text text-anchor="start" x="251.47" y="-1070.4" font-family="Arial" font-size="14.00">object_number </text>
<text text-anchor="start" x="347.97" y="-1070.4" font-family="Arial" font-size="14.00" fill="#666666">[integer]</text>
<polygon fill="none" stroke="black" points="244.47,-1027.4 244.47,-1058.2 545.4,-1058.2 545.4,-1027.4 244.47,-1027.4"/>
<text text-anchor="start" x="251.47" y="-1039.6" font-family="Arial" font-size="14.00">name </text>
<text text-anchor="start" x="290.38" y="-1039.6" font-family="Arial" font-size="14.00" fill="#666666">[text]</text>
<polygon fill="none" stroke="black" points="244.47,-996.6 244.47,-1027.4 545.4,-1027.4 545.4,-996.6 244.47,-996.6"/>
<text text-anchor="start" x="251.47" y="-1008.8" font-family="Arial" font-size="14.00">name_style </text>
<text text-anchor="start" x="326.95" y="-1008.8" font-family="Arial" font-size="14.00" fill="#666666">[scenario_object_name_style]</text>
<polygon fill="none" stroke="black" points="244.47,-965.8 244.47,-996.6 545.4,-996.6 545.4,-965.8 244.47,-965.8"/>
<text text-anchor="start" x="251.47" y="-978" font-family="Arial" font-size="14.00">class_key </text>
<text text-anchor="start" x="316.83" y="-978" font-family="Arial" font-size="14.00" fill="#666666">[text]</text>
<polygon fill="none" stroke="black" points="244.47,-935 244.47,-965.8 545.4,-965.8 545.4,-935 244.47,-935"/>
<text text-anchor="start" x="251.47" y="-947.2" font-family="Arial" font-size="14.00">multi </text>
<text text-anchor="start" x="284.92" y="-947.2" font-family="Arial" font-size="14.00" fill="#666666">[boolean]</text>
<polygon fill="none" stroke="black" points="244.47,-904.2 244.47,-935 545.4,-935 545.4,-904.2 244.47,-904.2"/>
<text text-anchor="start" x="251.47" y="-916.4" font-family="Arial" font-size="14.00">uml_comment </text>
<text text-anchor="start" x="343.28" y="-916.4" font-family="Arial" font-size="14.00" fill="#666666">[text]</text>
</g>
<!-- public.scenario_object&#45;&gt;public.scenario -->
<g id="edge3" class="edge">
<title>public.scenario_object:model_key&#45;&gt;public.scenario:model_key</title>
<path fill="none" stroke="black" d="M556.65,-1164.38C627.04,-1140.59 573,-862.09 597.93,-784 618.28,-720.29 601.08,-650.8 667.96,-650.8"/>
<polygon fill="black" stroke="black" points="556.6,-1164.38 546.02,-1161.5 551.34,-1165.22 547.06,-1165.9 547.06,-1165.9 547.06,-1165.9 551.34,-1165.22 547.43,-1170.39 556.6,-1164.38"/>
<text text-anchor="start" x="7" y="-1176" font-family="Arial" font-size="10.00">FOREIGN KEY (model_key, scenario_key) REFERENCES scenario(model_key, scenario_key) ON DELETE CASCADE</text>
</g>
<!-- public.scenario_step -->
<g id="node5" class="node">
<title>public.scenario_step</title>
<polygon fill="#efefef" stroke="none" points="649.96,-1258.4 649.96,-1294 935.9,-1294 935.9,-1258.4 649.96,-1258.4"/>
<polygon fill="none" stroke="black" points="649.96,-1258.4 649.96,-1294 935.9,-1294 935.9,-1258.4 649.96,-1258.4"/>
<text text-anchor="start" x="656.96" y="-1271.8" font-family="Arial Bold" font-size="18.00">public.scenario_step</text>
<text text-anchor="start" x="804.42" y="-1271.8" font-family="Arial" font-size="14.00">    </text>
<text text-anchor="start" x="835.53" y="-1271.8" font-family="Arial" font-size="14.00" fill="#666666">[BASE TABLE]</text>
<polygon fill="none" stroke="black" points="649.96,-1227.6 649.96,-1258.4 935.9,-1258.4 935.9,-1227.6 649.96,-1227.6"/>
<text text-anchor="start" x="656.96" y="-1239.8" font-family="Arial" font-size="14.00">model_key </text>
<text text-anchor="start" x="728.55" y="-1239.8" font-family="Arial" font-size="14.00" fill="#666666">[text]</text>
<polygon fill="none" stroke="black" points="649.96,-1196.8 649.96,-1227.6 935.9,-1227.6 935.9,-1196.8 649.96,-1196.8"/>
<text text-anchor="start" x="656.96" y="-1209" font-family="Arial" font-size="14.00">scenario_step_key </text>
<text text-anchor="start" x="777.59" y="-1209" font-family="Arial" font-size="14.00" fill="#666666">[text]</text>
<polygon fill="none" stroke="black" points="649.96,-1166 649.96,-1196.8 935.9,-1196.8 935.9,-1166 649.96,-1166"/>
<text text-anchor="start" x="656.96" y="-1178.2" font-family="Arial" font-size="14.00">scenario_key </text>
<text text-anchor="start" x="743.34" y="-1178.2" font-family="Arial" font-size="14.00" fill="#666666">[text]</text>
<polygon fill="none" stroke="black" points="649.96,-1135.2 649.96,-1166 935.9,-1166 935.9,-1135.2 649.96,-1135.2"/>
<text text-anchor="start" x="656.96" y="-1147.4" font-family="Arial" font-size="14.00">parent_step_key </text>
<text text-anchor="start" x="764.37" y="-1147.4" font-family="Arial" font-size="14.00" fill="#666666">[text]</text>
<polygon fill="none" stroke="black" points="649.96,-1104.4 649.96,-1135.2 935.9,-1135.2 935.9,-1104.4 649.96,-1104.4"/>
<text text-anchor="start" x="656.96" y="-1116.6" font-family="Arial" font-size="14.00">sort_order </text>
<text text-anchor="start" x="724.66" y="-1116.6" font-family="Arial" font-size="14.00" fill="#666666">[integer]</text>
<polygon fill="none" stroke="black" points="649.96,-1073.6 649.96,-1104.4 935.9,-1104.4 935.9,-1073.6 649.96,-1073.6"/>
<text text-anchor="start" x="656.96" y="-1085.8" font-family="Arial" font-size="14.00">step_type </text>
<text text-anchor="start" x="721.56" y="-1085.8" font-family="Arial" font-size="14.00" fill="#666666">[step_type]</text>
<polygon fill="none" stroke="black" points="649.96,-1042.8 649.96,-1073.6 935.9,-1073.6 935.9,-1042.8 649.96,-1042.8"/>
<text text-anchor="start" x="656.96" y="-1055" font-family="Arial" font-size="14.00">leaf_type </text>
<text text-anchor="start" x="717.67" y="-1055" font-family="Arial" font-size="14.00" fill="#666666">[leaf_type]</text>
<polygon fill="none" stroke="black" points="649.96,-1012 649.96,-1042.8 935.9,-1042.8 935.9,-1012 649.96,-1012"/>
<text text-anchor="start" x="656.96" y="-1024.2" font-family="Arial" font-size="14.00">condition </text>
<text text-anchor="start" x="716.89" y="-1024.2" font-family="Arial" font-size="14.00" fill="#666666">[text]</text>
<polygon fill="none" stroke="black" points="649.96,-981.2 649.96,-1012 935.9,-1012 935.9,-981.2 649.96,-981.2"/>
<text text-anchor="start" x="656.96" y="-993.4" font-family="Arial" font-size="14.00">description </text>
<text text-anchor="start" x="728.55" y="-993.4" font-family="Arial" font-size="14.00" fill="#666666">[text]</text>
<polygon fill="none" stroke="black" points="649.96,-950.4 649.96,-981.2 935.9,-981.2 935.9,-950.4 649.96,-950.4"/>
<text text-anchor="start" x="656.96" y="-962.6" font-family="Arial" font-size="14.00">from_object_key </text>
<text text-anchor="start" x="763.57" y="-962.6" font-family="Arial" font-size="14.00" fill="#666666">[text]</text>
<polygon fill="none" stroke="black" points="649.96,-919.6 649.96,-950.4 935.9,-950.4 935.9,-919.6 649.96,-919.6"/>
<text text-anchor="start" x="656.96" y="-931.8" font-family="Arial" font-size="14.00">to_object_key </text>
<text text-anchor="start" x="747.24" y="-931.8" font-family="Arial" font-size="14.00" fill="#666666">[text]</text>
<polygon fill="none" stroke="black" points="649.96,-888.8 649.96,-919.6 935.9,-919.6 935.9,-888.8 649.96,-888.8"/>
<text text-anchor="start" x="656.96" y="-901" font-family="Arial" font-size="14.00">event_key </text>
<text text-anchor="start" x="724.67" y="-901" font-family="Arial" font-size="14.00" fill="#666666">[text]</text>
<polygon fill="none" stroke="black" points="649.96,-858 649.96,-888.8 935.9,-888.8 935.9,-858 649.96,-858"/>
<text text-anchor="start" x="656.96" y="-870.2" font-family="Arial" font-size="14.00">query_key </text>
<text text-anchor="start" x="725.44" y="-870.2" font-family="Arial" font-size="14.00" fill="#666666">[text]</text>
<polygon fill="none" stroke="black" points="649.96,-827.2 649.96,-858 935.9,-858 935.9,-827.2 649.96,-827.2"/>
<text text-anchor="start" x="656.96" y="-839.4" font-family="Arial" font-size="14.00">scenario_ref_key </text>
<text text-anchor="start" x="767.46" y="-839.4" font-family="Arial" font-size="14.00" fill="#666666">[text]</text>
</g>
<!-- public.scenario_step&#45;&gt;public.scenario -->
<g id="edge4" class="edge">
<title>public.scenario_step:model_key&#45;&gt;public.scenario:model_key</title>
<path fill="none" stroke="black" d="M947.18,-1242.67C1190.68,-1226.92 1168.77,-650.8 917.91,-650.8"/>
<polygon fill="black" stroke="black" points="947.23,-1242.67 937.1,-1238.49 941.9,-1242.84 937.57,-1242.98 937.57,-1242.98 937.57,-1242.98 941.9,-1242.84 937.38,-1247.49 947.23,-1242.67"/>
<text text-anchor="start" x="943.9" y="-1253" font-family="Arial" font-size="10.00">FOREIGN KEY (model_key, scenario_key) REFERENCES scenario(model_key, scenario_key) ON DELETE CASCADE</text>
</g>
<!-- public.scenario_step&#45;&gt;public.scenario -->
<g id="edge5" class="edge">
<title>public.scenario_step:model_key&#45;&gt;public.scenario:model_key</title>
<path fill="none" stroke="black" d="M947.51,-1242.69C1208.57,-1227.51 1186.68,-651.37 918.31,-650.8"/>
<polygon fill="black" stroke="black" points="947.63,-1242.69 937.5,-1238.49 942.3,-1242.85 937.97,-1242.98 937.97,-1242.98 937.97,-1242.98 942.3,-1242.85 937.77,-1247.49 947.63,-1242.69"/>
<text text-anchor="start" x="944.3" y="-1227" font-family="Arial" font-size="10.00">FOREIGN KEY (model_key, scenario_ref_key) REFERENCES scenario(model_key, scenario_key) ON DELETE CASCADE</text>
</g>
</g>
</svg>
