<?xml version="1.0" encoding="UTF-8" standalone="no"?>
<!DOCTYPE svg PUBLIC "-//W3C//DTD SVG 1.1//EN"
 "http://www.w3.org/Graphics/SVG/1.1/DTD/svg11.dtd">
<!-- Generated by graphviz version 12.1.2 (20240928.0832)
 -->
<!-- Title: public.use_case_shared Pages: 1 -->
<svg width="950pt" height="756pt"
 viewBox="0.00 0.00 949.57 756.00" xmlns="http://www.w3.org/2000/svg" xmlns:xlink="http://www.w3.org/1999/xlink">
<g id="graph0" class="graph" transform="scale(1 1) rotate(0) translate(4 752)">
<title>public.use_case_shared</title>
<polygon fill="white" stroke="none" points="-4,4 -4,-752 945.57,-752 945.57,4 -4,4"/>
<!-- public.use_case_shared -->
<g id="node1" class="node">
<title>public.use_case_shared</title>
<polygon fill="#efefef" stroke="none" points="46.2,-666.2 46.2,-701.8 354.12,-701.8 354.12,-666.2 46.2,-666.2"/>
<polygon fill="none" stroke="black" points="46.2,-666.2 46.2,-701.8 354.12,-701.8 354.12,-666.2 46.2,-666.2"/>
<text text-anchor="start" x="53.2" y="-679.6" font-family="Arial Bold" font-size="18.00">public.use_case_shared</text>
<text text-anchor="start" x="222.64" y="-679.6" font-family="Arial" font-size="14.00">    </text>
<text text-anchor="start" x="253.75" y="-679.6" font-family="Arial" font-size="14.00" fill="#666666">[BASE TABLE]</text>
<polygon fill="none" stroke="black" points="46.2,-635.4 46.2,-666.2 354.12,-666.2 354.12,-635.4 46.2,-635.4"/>
<text text-anchor="start" x="53.2" y="-647.6" font-family="Arial" font-size="14.00">model_key </text>
<text text-anchor="start" x="124.79" y="-647.6" font-family="Arial" font-size="14.00" fill="#666666">[text]</text>
<polygon fill="none" stroke="black" points="46.2,-604.6 46.2,-635.4 354.12,-635.4 354.12,-604.6 46.2,-604.6"/>
<text text-anchor="start" x="53.2" y="-616.8" font-family="Arial" font-size="14.00">sea_use_case_key </text>
<text text-anchor="start" x="176.95" y="-616.8" font-family="Arial" font-size="14.00" fill="#666666">[text]</text>
<polygon fill="none" stroke="black" points="46.2,-573.8 46.2,-604.6 354.12,-604.6 354.12,-573.8 46.2,-573.8"/>
<text text-anchor="start" x="53.2" y="-586" font-family="Arial" font-size="14.00">mud_use_case_key </text>
<text text-anchor="start" x="181.61" y="-586" font-family="Arial" font-size="14.00" fill="#666666">[text]</text>
<polygon fill="none" stroke="black" points="46.2,-543 46.2,-573.8 354.12,-573.8 354.12,-543 46.2,-543"/>
<text text-anchor="start" x="53.2" y="-555.2" font-family="Arial" font-size="14.00">share_type </text>
<text text-anchor="start" x="126.36" y="-555.2" font-family="Arial" font-size="14.00" fill="#666666">[share_type]</text>
<polygon fill="none" stroke="black" points="46.2,-512.2 46.2,-543 354.12,-543 354.12,-512.2 46.2,-512.2"/>
<text text-anchor="start" x="53.2" y="-524.4" font-family="Arial" font-size="14.00">uml_comment </text>
<text text-anchor="start" x="145.01" y="-524.4" font-family="Arial" font-size="14.00" fill="#666666">[text]</text>
<polygon fill="none" stroke="black" stroke-width="3" points="44.7,-510.7 44.7,-703.3 355.62,-703.3 355.62,-510.7 44.7,-510.7"/>
</g>
<!-- public.use_case -->
<g id="node2" class="node">
<title>public.use_case</title>
<polygon fill="#efefef" stroke="none" points="74.19,-351.2 74.19,-386.8 326.14,-386.8 326.14,-351.2 74.19,-351.2"/>
<polygon fill="none" stroke="black" points="74.19,-351.2 74.19,-386.8 326.14,-386.8 326.14,-351.2 74.19,-351.2"/>
<text text-anchor="start" x="81.19" y="-364.6" font-family="Arial Bold" font-size="18.00">public.use_case</text>
<text text-anchor="start" x="194.65" y="-364.6" font-family="Arial" font-size="14.00">    </text>
<text text-anchor="start" x="225.76" y="-364.6" font-family="Arial" font-size="14.00" fill="#666666">[BASE TABLE]</text>
<polygon fill="none" stroke="black" points="74.19,-320.4 74.19,-351.2 326.14,-351.2 326.14,-320.4 74.19,-320.4"/>
<text text-anchor="start" x="81.19" y="-332.6" font-family="Arial" font-size="14.00">model_key </text>
<text text-anchor="start" x="152.78" y="-332.6" font-family="Arial" font-size="14.00" fill="#666666">[text]</text>
<polygon fill="none" stroke="black" points="74.19,-289.6 74.19,-320.4 326.14,-320.4 326.14,-289.6 74.19,-289.6"/>
<text text-anchor="start" x="81.19" y="-301.8" font-family="Arial" font-size="14.00">use_case_key </text>
<text text-anchor="start" x="174.58" y="-301.8" font-family="Arial" font-size="14.00" fill="#666666">[text]</text>
<polygon fill="none" stroke="black" points="74.19,-258.8 74.19,-289.6 326.14,-289.6 326.14,-258.8 74.19,-258.8"/>
<text text-anchor="start" x="81.19" y="-271" font-family="Arial" font-size="14.00">name </text>
<text text-anchor="start" x="120.1" y="-271" font-family="Arial" font-size="14.00" fill="#666666">[text]</text>
<polygon fill="none" stroke="black" points="74.19,-228 74.19,-258.8 326.14,-258.8 326.14,-228 74.19,-228"/>
<text text-anchor="start" x="81.19" y="-240.2" font-family="Arial" font-size="14.00">details </text>
<text text-anchor="start" x="125.55" y="-240.2" font-family="Arial" font-size="14.00" fill="#666666">[text]</text>
<polygon fill="none" stroke="black" points="74.19,-197.2 74.19,-228 326.14,-228 326.14,-197.2 74.19,-197.2"/>
<text text-anchor="start" x="81.19" y="-209.4" font-family="Arial" font-size="14.00">level </text>
<text text-anchor="start" x="113.87" y="-209.4" font-family="Arial" font-size="14.00" fill="#666666">[use_case_level]</text>
<polygon fill="none" stroke="black" points="74.19,-166.4 74.19,-197.2 326.14,-197.2 326.14,-166.4 74.19,-166.4"/>
<text text-anchor="start" x="81.19" y="-178.6" font-family="Arial" font-size="14.00">read_only </text>
<text text-anchor="start" x="146.57" y="-178.6" font-family="Arial" font-size="14.00" fill="#666666">[boolean]</text>
<polygon fill="none" stroke="black" points="74.19,-135.6 74.19,-166.4 326.14,-166.4 326.14,-135.6 74.19,-135.6"/>
<text text-anchor="start" x="81.19" y="-147.8" font-family="Arial" font-size="14.00">subdomain_key </text>
<text text-anchor="start" x="183.14" y="-147.8" font-family="Arial" font-size="14.00" fill="#666666">[text]</text>
<polygon fill="none" stroke="black" points="74.19,-104.8 74.19,-135.6 326.14,-135.6 326.14,-104.8 74.19,-104.8"/>
<text text-anchor="start" x="81.19" y="-117" font-family="Arial" font-size="14.00">superclass_of_key </text>
<text text-anchor="start" x="201.03" y="-117" font-family="Arial" font-size="14.00" fill="#666666">[text]</text>
<polygon fill="none" stroke="black" points="74.19,-74 74.19,-104.8 326.14,-104.8 326.14,-74 74.19,-74"/>
<text text-anchor="start" x="81.19" y="-86.2" font-family="Arial" font-size="14.00">subclass_of_key </text>
<text text-anchor="start" x="188.58" y="-86.2" font-family="Arial" font-size="14.00" fill="#666666">[text]</text>
<polygon fill="none" stroke="black" points="74.19,-43.2 74.19,-74 326.14,-74 326.14,-43.2 74.19,-43.2"/>
<text text-anchor="start" x="81.19" y="-55.4" font-family="Arial" font-size="14.00">uml_comment </text>
<text text-anchor="start" x="173" y="-55.4" font-family="Arial" font-size="14.00" fill="#666666">[text]</text>
</g>
<!-- public.use_case_shared&#45;&gt;public.use_case -->
<g id="edge1" class="edge">
<title>public.use_case_shared:model_key&#45;&gt;public.use_case:model_key</title>
<path fill="none" stroke="black" d="M364.99,-647.68C413.01,-614.97 384.82,-335.8 327.14,-335.8"/>
<polygon fill="black" stroke="black" points="364.98,-647.69 354.09,-646.41 359.89,-649.29 355.76,-650.6 355.76,-650.6 355.76,-650.6 359.89,-649.29 356.8,-654.99 364.98,-647.69"/>
<text text-anchor="start" x="362.12" y="-660.8" font-family="Arial" font-size="10.00">FOREIGN KEY (model_key, mud_use_case_key) REFERENCES use_case(model_key, use_case_key) ON DELETE CASCADE</text>
</g>
<!-- public.use_case_shared&#45;&gt;public.use_case -->
<g id="edge2" class="edge">
<title>public.use_case_shared:model_key&#45;&gt;public.use_case:model_key</title>
<path fill="none" stroke="black" d="M365.54,-648.8C431.54,-622.12 402.83,-336.97 327.6,-335.8"/>
<polygon fill="black" stroke="black" points="365.72,-648.77 355.03,-646.32 360.49,-649.81 356.24,-650.66 356.24,-650.66 356.24,-650.66 360.49,-649.81 356.8,-655.14 365.72,-648.77"/>
<text text-anchor="start" x="362.59" y="-634.8" font-family="Arial" font-size="10.00">FOREIGN KEY (model_key, sea_use_case_key) REFERENCES use_case(model_key, use_case_key) ON DELETE CASCADE</text>
</g>
</g>
</svg>
