<?xml version="1.0" encoding="UTF-8" standalone="no"?>
<!DOCTYPE svg PUBLIC "-//W3C//DTD SVG 1.1//EN"
 "http://www.w3.org/Graphics/SVG/1.1/DTD/svg11.dtd">
<!-- Generated by graphviz version 12.1.2 (20240928.0832)
 -->
<!-- Title: public.data_type Pages: 1 -->
<svg width="933pt" height="976pt"
 viewBox="0.00 0.00 932.91 975.60" xmlns="http://www.w3.org/2000/svg" xmlns:xlink="http://www.w3.org/1999/xlink">
<g id="graph0" class="graph" transform="scale(1 1) rotate(0) translate(4 971.6)">
<title>public.data_type</title>
<polygon fill="white" stroke="none" points="-4,4 -4,-971.6 928.91,-971.6 928.91,4 -4,4"/>
<!-- public.data_type -->
<g id="node1" class="node">
<title>public.data_type</title>
<polygon fill="#efefef" stroke="none" points="72.19,-543 72.19,-578.6 330.14,-578.6 330.14,-543 72.19,-543"/>
<polygon fill="none" stroke="black" points="72.19,-543 72.19,-578.6 330.14,-578.6 330.14,-543 72.19,-543"/>
<text text-anchor="start" x="79.19" y="-556.4" font-family="Arial Bold" font-size="18.00">public.data_type</text>
<text text-anchor="start" x="198.65" y="-556.4" font-family="Arial" font-size="14.00">    </text>
<text text-anchor="start" x="229.77" y="-556.4" font-family="Arial" font-size="14.00" fill="#666666">[BASE TABLE]</text>
<polygon fill="none" stroke="black" points="72.19,-512.2 72.19,-543 330.14,-543 330.14,-512.2 72.19,-512.2"/>
<text text-anchor="start" x="79.19" y="-524.4" font-family="Arial" font-size="14.00">model_key </text>
<text text-anchor="start" x="150.78" y="-524.4" font-family="Arial" font-size="14.00" fill="#666666">[text]</text>
<polygon fill="none" stroke="black" points="72.19,-481.4 72.19,-512.2 330.14,-512.2 330.14,-481.4 72.19,-481.4"/>
<text text-anchor="start" x="79.19" y="-493.6" font-family="Arial" font-size="14.00">data_type_key </text>
<text text-anchor="start" x="174.15" y="-493.6" font-family="Arial" font-size="14.00" fill="#666666">[text]</text>
<polygon fill="none" stroke="black" points="72.19,-450.6 72.19,-481.4 330.14,-481.4 330.14,-450.6 72.19,-450.6"/>
<text text-anchor="start" x="79.19" y="-462.8" font-family="Arial" font-size="14.00">name </text>
<text text-anchor="start" x="118.1" y="-462.8" font-family="Arial" font-size="14.00" fill="#666666">[text]</text>
<polygon fill="none" stroke="black" points="72.19,-419.8 72.19,-450.6 330.14,-450.6 330.14,-419.8 72.19,-419.8"/>
<text text-anchor="start" x="79.19" y="-432" font-family="Arial" font-size="14.00">details </text>
<text text-anchor="start" x="123.55" y="-432" font-family="Arial" font-size="14.00" fill="#666666">[text]</text>
<polygon fill="none" stroke="black" points="72.19,-389 72.19,-419.8 330.14,-419.8 330.14,-389 72.19,-389"/>
<text text-anchor="start" x="79.19" y="-401.2" font-family="Arial" font-size="14.00">collection_type </text>
<text text-anchor="start" x="175.69" y="-401.2" font-family="Arial" font-size="14.00" fill="#666666">[collection_type]</text>
<polygon fill="none" stroke="black" points="72.19,-358.2 72.19,-389 330.14,-389 330.14,-358.2 72.19,-358.2"/>
<text text-anchor="start" x="79.19" y="-370.4" font-family="Arial" font-size="14.00">collection_unique </text>
<text text-anchor="start" x="191.27" y="-370.4" font-family="Arial" font-size="14.00" fill="#666666">[boolean]</text>
<polygon fill="none" stroke="black" points="72.19,-327.4 72.19,-358.2 330.14,-358.2 330.14,-327.4 72.19,-327.4"/>
<text text-anchor="start" x="79.19" y="-339.6" font-family="Arial" font-size="14.00">collection_min </text>
<text text-anchor="start" x="171.79" y="-339.6" font-family="Arial" font-size="14.00" fill="#666666">[bigint]</text>
<polygon fill="none" stroke="black" points="72.19,-296.6 72.19,-327.4 330.14,-327.4 330.14,-296.6 72.19,-296.6"/>
<text text-anchor="start" x="79.19" y="-308.8" font-family="Arial" font-size="14.00">collection_max </text>
<text text-anchor="start" x="175.68" y="-308.8" font-family="Arial" font-size="14.00" fill="#666666">[bigint]</text>
<polygon fill="none" stroke="black" stroke-width="3" points="70.69,-295.1 70.69,-580.1 331.64,-580.1 331.64,-295.1 70.69,-295.1"/>
</g>
<!-- public.model -->
<g id="node2" class="node">
<title>public.model</title>
<polygon fill="#efefef" stroke="none" points="84.68,-135.6 84.68,-171.2 317.65,-171.2 317.65,-135.6 84.68,-135.6"/>
<polygon fill="none" stroke="black" points="84.68,-135.6 84.68,-171.2 317.65,-171.2 317.65,-135.6 84.68,-135.6"/>
<text text-anchor="start" x="91.68" y="-149" font-family="Arial Bold" font-size="18.00">public.model</text>
<text text-anchor="start" x="186.16" y="-149" font-family="Arial" font-size="14.00">    </text>
<text text-anchor="start" x="217.28" y="-149" font-family="Arial" font-size="14.00" fill="#666666">[BASE TABLE]</text>
<polygon fill="none" stroke="black" points="84.68,-104.8 84.68,-135.6 317.65,-135.6 317.65,-104.8 84.68,-104.8"/>
<text text-anchor="start" x="91.68" y="-117" font-family="Arial" font-size="14.00">model_key </text>
<text text-anchor="start" x="163.27" y="-117" font-family="Arial" font-size="14.00" fill="#666666">[text]</text>
<polygon fill="none" stroke="black" points="84.68,-74 84.68,-104.8 317.65,-104.8 317.65,-74 84.68,-74"/>
<text text-anchor="start" x="91.68" y="-86.2" font-family="Arial" font-size="14.00">name </text>
<text text-anchor="start" x="130.59" y="-86.2" font-family="Arial" font-size="14.00" fill="#666666">[text]</text>
<polygon fill="none" stroke="black" points="84.68,-43.2 84.68,-74 317.65,-74 317.65,-43.2 84.68,-43.2"/>
<text text-anchor="start" x="91.68" y="-55.4" font-family="Arial" font-size="14.00">details </text>
<text text-anchor="start" x="136.04" y="-55.4" font-family="Arial" font-size="14.00" fill="#666666">[text]</text>
</g>
<!-- public.data_type&#45;&gt;public.model -->
<g id="edge1" class="edge">
<title>public.data_type:model_key&#45;&gt;public.model:model_key</title>
<path fill="none" stroke="black" d="M341.28,-525.78C420.62,-496.39 405.69,-120.2 318.65,-120.2"/>
<polygon fill="black" stroke="black" points="341.31,-525.78 330.68,-523.11 336.06,-526.72 331.8,-527.48 331.8,-527.48 331.8,-527.48 336.06,-526.72 332.26,-531.97 341.31,-525.78"/>
<text text-anchor="start" x="338.14" y="-537.6" font-family="Arial" font-size="10.00">FOREIGN KEY (model_key) REFERENCES model(model_key) ON DELETE CASCADE</text>
</g>
<!-- public.data_type_atomic -->
<g id="node3" class="node">
<title>public.data_type_atomic</title>
<polygon fill="#efefef" stroke="none" points="43.2,-888.8 43.2,-924.4 359.13,-924.4 359.13,-888.8 43.2,-888.8"/>
<polygon fill="none" stroke="black" points="43.2,-888.8 43.2,-924.4 359.13,-924.4 359.13,-888.8 43.2,-888.8"/>
<text text-anchor="start" x="50.2" y="-902.2" font-family="Arial Bold" font-size="18.00">public.data_type_atomic</text>
<text text-anchor="start" x="227.64" y="-902.2" font-family="Arial" font-size="14.00">    </text>
<text text-anchor="start" x="258.76" y="-902.2" font-family="Arial" font-size="14.00" fill="#666666">[BASE TABLE]</text>
<polygon fill="none" stroke="black" points="43.2,-858 43.2,-888.8 359.13,-888.8 359.13,-858 43.2,-858"/>
<text text-anchor="start" x="50.2" y="-870.2" font-family="Arial" font-size="14.00">model_key </text>
<text text-anchor="start" x="121.79" y="-870.2" font-family="Arial" font-size="14.00" fill="#666666">[text]</text>
<polygon fill="none" stroke="black" points="43.2,-827.2 43.2,-858 359.13,-858 359.13,-827.2 43.2,-827.2"/>
<text text-anchor="start" x="50.2" y="-839.4" font-family="Arial" font-size="14.00">data_type_key </text>
<text text-anchor="start" x="145.16" y="-839.4" font-family="Arial" font-size="14.00" fill="#666666">[text]</text>
<polygon fill="none" stroke="black" points="43.2,-796.4 43.2,-827.2 359.13,-827.2 359.13,-796.4 43.2,-796.4"/>
<text text-anchor="start" x="50.2" y="-808.6" font-family="Arial" font-size="14.00">constraint_type </text>
<text text-anchor="start" x="149.03" y="-808.6" font-family="Arial" font-size="14.00" fill="#666666">[constraint_type]</text>
<polygon fill="none" stroke="black" points="43.2,-765.6 43.2,-796.4 359.13,-796.4 359.13,-765.6 43.2,-765.6"/>
<text text-anchor="start" x="50.2" y="-777.8" font-family="Arial" font-size="14.00">reference </text>
<text text-anchor="start" x="113.23" y="-777.8" font-family="Arial" font-size="14.00" fill="#666666">[text]</text>
<polygon fill="none" stroke="black" points="43.2,-734.8 43.2,-765.6 359.13,-765.6 359.13,-734.8 43.2,-734.8"/>
<text text-anchor="start" x="50.2" y="-747" font-family="Arial" font-size="14.00">enum_ordered </text>
<text text-anchor="start" x="145.15" y="-747" font-family="Arial" font-size="14.00" fill="#666666">[boolean]</text>
<polygon fill="none" stroke="black" points="43.2,-704 43.2,-734.8 359.13,-734.8 359.13,-704 43.2,-704"/>
<text text-anchor="start" x="50.2" y="-716.2" font-family="Arial" font-size="14.00">object_class_key </text>
<text text-anchor="start" x="160.7" y="-716.2" font-family="Arial" font-size="14.00" fill="#666666">[text]</text>
</g>
<!-- public.data_type_atomic&#45;&gt;public.data_type -->
<g id="edge2" class="edge">
<title>public.data_type_atomic:model_key&#45;&gt;public.data_type:model_key</title>
<path fill="none" stroke="black" d="M370.28,-871.19C434.42,-841.74 404.64,-527.6 331.14,-527.6"/>
<polygon fill="black" stroke="black" points="370.23,-871.2 359.5,-868.93 365.02,-872.34 360.79,-873.26 360.79,-873.26 360.79,-873.26 365.02,-872.34 361.42,-877.73 370.23,-871.2"/>
<text text-anchor="start" x="367.13" y="-883.4" font-family="Arial" font-size="10.00">FOREIGN KEY (model_key, data_type_key) REFERENCES data_type(model_key, data_type_key) ON DELETE CASCADE</text>
</g>
</g>
</svg>
