<?xml version="1.0" encoding="UTF-8" standalone="no"?>
<!DOCTYPE svg PUBLIC "-//W3C//DTD SVG 1.1//EN"
 "http://www.w3.org/Graphics/SVG/1.1/DTD/svg11.dtd">
<!-- Generated by graphviz version 12.1.2 (20240928.0832)
 -->
<!-- Title: public.data_type Pages: 1 -->
<svg width="2822pt" height="1037pt"
 viewBox="0.00 0.00 2822.14 1037.20" xmlns="http://www.w3.org/2000/svg" xmlns:xlink="http://www.w3.org/1999/xlink">
<g id="graph0" class="graph" transform="scale(1 1) rotate(0) translate(4 1033.2)">
<title>public.data_type</title>
<polygon fill="white" stroke="none" points="-4,4 -4,-1033.2 2818.14,-1033.2 2818.14,4 -4,4"/>
<!-- public.data_type -->
<g id="node1" class="node">
<title>public.data_type</title>
<polygon fill="#efefef" stroke="none" points="1066.84,-481.4 1066.84,-517 1324.79,-517 1324.79,-481.4 1066.84,-481.4"/>
<polygon fill="none" stroke="black" points="1066.84,-481.4 1066.84,-517 1324.79,-517 1324.79,-481.4 1066.84,-481.4"/>
<text text-anchor="start" x="1073.84" y="-494.8" font-family="Arial Bold" font-size="18.00">public.data_type</text>
<text text-anchor="start" x="1193.3" y="-494.8" font-family="Arial" font-size="14.00">    </text>
<text text-anchor="start" x="1224.42" y="-494.8" font-family="Arial" font-size="14.00" fill="#666666">[BASE TABLE]</text>
<polygon fill="none" stroke="black" points="1066.84,-450.6 1066.84,-481.4 1324.79,-481.4 1324.79,-450.6 1066.84,-450.6"/>
<text text-anchor="start" x="1073.84" y="-462.8" font-family="Arial" font-size="14.00">model_key </text>
<text text-anchor="start" x="1145.43" y="-462.8" font-family="Arial" font-size="14.00" fill="#666666">[text]</text>
<polygon fill="none" stroke="black" points="1066.84,-419.8 1066.84,-450.6 1324.79,-450.6 1324.79,-419.8 1066.84,-419.8"/>
<text text-anchor="start" x="1073.84" y="-432" font-family="Arial" font-size="14.00">data_type_key </text>
<text text-anchor="start" x="1168.8" y="-432" font-family="Arial" font-size="14.00" fill="#666666">[text]</text>
<polygon fill="none" stroke="black" points="1066.84,-389 1066.84,-419.8 1324.79,-419.8 1324.79,-389 1066.84,-389"/>
<text text-anchor="start" x="1073.84" y="-401.2" font-family="Arial" font-size="14.00">collection_type </text>
<text text-anchor="start" x="1170.34" y="-401.2" font-family="Arial" font-size="14.00" fill="#666666">[collection_type]</text>
<polygon fill="none" stroke="black" points="1066.84,-358.2 1066.84,-389 1324.79,-389 1324.79,-358.2 1066.84,-358.2"/>
<text text-anchor="start" x="1073.84" y="-370.4" font-family="Arial" font-size="14.00">collection_unique </text>
<text text-anchor="start" x="1185.92" y="-370.4" font-family="Arial" font-size="14.00" fill="#666666">[boolean]</text>
<polygon fill="none" stroke="black" points="1066.84,-327.4 1066.84,-358.2 1324.79,-358.2 1324.79,-327.4 1066.84,-327.4"/>
<text text-anchor="start" x="1073.84" y="-339.6" font-family="Arial" font-size="14.00">collection_min </text>
<text text-anchor="start" x="1166.44" y="-339.6" font-family="Arial" font-size="14.00" fill="#666666">[bigint]</text>
<polygon fill="none" stroke="black" points="1066.84,-296.6 1066.84,-327.4 1324.79,-327.4 1324.79,-296.6 1066.84,-296.6"/>
<text text-anchor="start" x="1073.84" y="-308.8" font-family="Arial" font-size="14.00">collection_max </text>
<text text-anchor="start" x="1170.33" y="-308.8" font-family="Arial" font-size="14.00" fill="#666666">[bigint]</text>
<polygon fill="none" stroke="black" stroke-width="3" points="1065.34,-295.1 1065.34,-518.5 1326.29,-518.5 1326.29,-295.1 1065.34,-295.1"/>
</g>
<!-- public.model -->
<g id="node2" class="node">
<title>public.model</title>
<polygon fill="#efefef" stroke="none" points="1079.33,-135.6 1079.33,-171.2 1312.3,-171.2 1312.3,-135.6 1079.33,-135.6"/>
<polygon fill="none" stroke="black" points="1079.33,-135.6 1079.33,-171.2 1312.3,-171.2 1312.3,-135.6 1079.33,-135.6"/>
<text text-anchor="start" x="1086.33" y="-149" font-family="Arial Bold" font-size="18.00">public.model</text>
<text text-anchor="start" x="1180.81" y="-149" font-family="Arial" font-size="14.00">    </text>
<text text-anchor="start" x="1211.93" y="-149" font-family="Arial" font-size="14.00" fill="#666666">[BASE TABLE]</text>
<polygon fill="none" stroke="black" points="1079.33,-104.8 1079.33,-135.6 1312.3,-135.6 1312.3,-104.8 1079.33,-104.8"/>
<text text-anchor="start" x="1086.33" y="-117" font-family="Arial" font-size="14.00">model_key </text>
<text text-anchor="start" x="1157.92" y="-117" font-family="Arial" font-size="14.00" fill="#666666">[text]</text>
<polygon fill="none" stroke="black" points="1079.33,-74 1079.33,-104.8 1312.3,-104.8 1312.3,-74 1079.33,-74"/>
<text text-anchor="start" x="1086.33" y="-86.2" font-family="Arial" font-size="14.00">name </text>
<text text-anchor="start" x="1125.24" y="-86.2" font-family="Arial" font-size="14.00" fill="#666666">[text]</text>
<polygon fill="none" stroke="black" points="1079.33,-43.2 1079.33,-74 1312.3,-74 1312.3,-43.2 1079.33,-43.2"/>
<text text-anchor="start" x="1086.33" y="-55.4" font-family="Arial" font-size="14.00">details </text>
<text text-anchor="start" x="1130.69" y="-55.4" font-family="Arial" font-size="14.00" fill="#666666">[text]</text>
</g>
<!-- public.data_type&#45;&gt;public.model -->
<g id="edge1" class="edge">
<title>public.data_type:model_key&#45;&gt;public.model:model_key</title>
<path fill="none" stroke="black" d="M1335.9,-465.48C1478.95,-450.64 1463.64,-120.2 1313.3,-120.2"/>
<polygon fill="black" stroke="black" points="1336.11,-465.47 1325.9,-461.49 1330.78,-465.75 1326.46,-465.97 1326.46,-465.97 1326.46,-465.97 1330.78,-465.75 1326.35,-470.48 1336.11,-465.47"/>
<text text-anchor="start" x="1332.79" y="-476" font-family="Arial" font-size="10.00">FOREIGN KEY (model_key) REFERENCES model(model_key) ON DELETE CASCADE</text>
</g>
<!-- public.data_type_atomic -->
<g id="node3" class="node">
<title>public.data_type_atomic</title>
<polygon fill="#efefef" stroke="none" points="247.85,-888.8 247.85,-924.4 563.78,-924.4 563.78,-888.8 247.85,-888.8"/>
<polygon fill="none" stroke="black" points="247.85,-888.8 247.85,-924.4 563.78,-924.4 563.78,-888.8 247.85,-888.8"/>
<text text-anchor="start" x="254.85" y="-902.2" font-family="Arial Bold" font-size="18.00">public.data_type_atomic</text>
<text text-anchor="start" x="432.29" y="-902.2" font-family="Arial" font-size="14.00">    </text>
<text text-anchor="start" x="463.41" y="-902.2" font-family="Arial" font-size="14.00" fill="#666666">[BASE TABLE]</text>
<polygon fill="none" stroke="black" points="247.85,-858 247.85,-888.8 563.78,-888.8 563.78,-858 247.85,-858"/>
<text text-anchor="start" x="254.85" y="-870.2" font-family="Arial" font-size="14.00">model_key </text>
<text text-anchor="start" x="326.44" y="-870.2" font-family="Arial" font-size="14.00" fill="#666666">[text]</text>
<polygon fill="none" stroke="black" points="247.85,-827.2 247.85,-858 563.78,-858 563.78,-827.2 247.85,-827.2"/>
<text text-anchor="start" x="254.85" y="-839.4" font-family="Arial" font-size="14.00">data_type_key </text>
<text text-anchor="start" x="349.81" y="-839.4" font-family="Arial" font-size="14.00" fill="#666666">[text]</text>
<polygon fill="none" stroke="black" points="247.85,-796.4 247.85,-827.2 563.78,-827.2 563.78,-796.4 247.85,-796.4"/>
<text text-anchor="start" x="254.85" y="-808.6" font-family="Arial" font-size="14.00">constraint_type </text>
<text text-anchor="start" x="353.68" y="-808.6" font-family="Arial" font-size="14.00" fill="#666666">[constraint_type]</text>
<polygon fill="none" stroke="black" points="247.85,-765.6 247.85,-796.4 563.78,-796.4 563.78,-765.6 247.85,-765.6"/>
<text text-anchor="start" x="254.85" y="-777.8" font-family="Arial" font-size="14.00">reference </text>
<text text-anchor="start" x="317.88" y="-777.8" font-family="Arial" font-size="14.00" fill="#666666">[text]</text>
<polygon fill="none" stroke="black" points="247.85,-734.8 247.85,-765.6 563.78,-765.6 563.78,-734.8 247.85,-734.8"/>
<text text-anchor="start" x="254.85" y="-747" font-family="Arial" font-size="14.00">enum_ordered </text>
<text text-anchor="start" x="349.8" y="-747" font-family="Arial" font-size="14.00" fill="#666666">[boolean]</text>
<polygon fill="none" stroke="black" points="247.85,-704 247.85,-734.8 563.78,-734.8 563.78,-704 247.85,-704"/>
<text text-anchor="start" x="254.85" y="-716.2" font-family="Arial" font-size="14.00">object_class_key </text>
<text text-anchor="start" x="365.35" y="-716.2" font-family="Arial" font-size="14.00" fill="#666666">[text]</text>
</g>
<!-- public.data_type_atomic&#45;&gt;public.data_type -->
<g id="edge2" class="edge">
<title>public.data_type_atomic:model_key&#45;&gt;public.data_type:model_key</title>
<path fill="none" stroke="black" d="M574.97,-872.94C679.81,-862.81 535.26,-688.58 615.82,-599.2 685.64,-521.73 961.55,-466 1065.84,-466"/>
<polygon fill="black" stroke="black" points="575.11,-872.93 564.91,-868.89 569.78,-873.17 565.45,-873.37 565.45,-873.37 565.45,-873.37 569.78,-873.17 565.32,-877.88 575.11,-872.93"/>
<text text-anchor="start" x="7" y="-883.4" font-family="Arial" font-size="10.00">FOREIGN KEY (model_key, data_type_key) REFERENCES data_type(model_key, data_type_key) ON DELETE CASCADE</text>
</g>
<!-- public.data_type_field -->
<g id="node4" class="node">
<title>public.data_type_field</title>
<polygon fill="#efefef" stroke="none" points="667.85,-858 667.85,-893.6 967.78,-893.6 967.78,-858 667.85,-858"/>
<polygon fill="none" stroke="black" points="667.85,-858 667.85,-893.6 967.78,-893.6 967.78,-858 667.85,-858"/>
<text text-anchor="start" x="674.85" y="-871.4" font-family="Arial Bold" font-size="18.00">public.data_type_field</text>
<text text-anchor="start" x="836.29" y="-871.4" font-family="Arial" font-size="14.00">    </text>
<text text-anchor="start" x="867.41" y="-871.4" font-family="Arial" font-size="14.00" fill="#666666">[BASE TABLE]</text>
<polygon fill="none" stroke="black" points="667.85,-827.2 667.85,-858 967.78,-858 967.78,-827.2 667.85,-827.2"/>
<text text-anchor="start" x="674.85" y="-839.4" font-family="Arial" font-size="14.00">model_key </text>
<text text-anchor="start" x="746.44" y="-839.4" font-family="Arial" font-size="14.00" fill="#666666">[text]</text>
<polygon fill="none" stroke="black" points="667.85,-796.4 667.85,-827.2 967.78,-827.2 967.78,-796.4 667.85,-796.4"/>
<text text-anchor="start" x="674.85" y="-808.6" font-family="Arial" font-size="14.00">data_type_key </text>
<text text-anchor="start" x="769.81" y="-808.6" font-family="Arial" font-size="14.00" fill="#666666">[text]</text>
<polygon fill="none" stroke="black" points="667.85,-765.6 667.85,-796.4 967.78,-796.4 967.78,-765.6 667.85,-765.6"/>
<text text-anchor="start" x="674.85" y="-777.8" font-family="Arial" font-size="14.00">name </text>
<text text-anchor="start" x="713.76" y="-777.8" font-family="Arial" font-size="14.00" fill="#666666">[text]</text>
<polygon fill="none" stroke="black" points="667.85,-734.8 667.85,-765.6 967.78,-765.6 967.78,-734.8 667.85,-734.8"/>
<text text-anchor="start" x="674.85" y="-747" font-family="Arial" font-size="14.00">field_data_type_key </text>
<text text-anchor="start" x="803.27" y="-747" font-family="Arial" font-size="14.00" fill="#666666">[text]</text>
</g>
<!-- public.data_type_field&#45;&gt;public.data_type -->
<g id="edge3" class="edge">
<title>public.data_type_field:model_key&#45;&gt;public.data_type:model_key</title>
<path fill="none" stroke="black" d="M978.69,-840.2C1039.48,-808.12 974.89,-466 1065.84,-466"/>
<polygon fill="black" stroke="black" points="978.83,-840.16 968.05,-838.15 973.64,-841.42 969.43,-842.44 969.43,-842.44 969.43,-842.44 973.64,-841.42 970.17,-846.89 978.83,-840.16"/>
<text text-anchor="start" x="411" y="-852.6" font-family="Arial" font-size="10.00">FOREIGN KEY (model_key, data_type_key) REFERENCES data_type(model_key, data_type_key) ON DELETE CASCADE</text>
</g>
<!-- public.data_type_field&#45;&gt;public.data_type -->
<g id="edge4" class="edge">
<title>public.data_type_field:model_key&#45;&gt;public.data_type:model_key</title>
<path fill="none" stroke="black" d="M978.93,-841.01C1058.51,-814.59 991.63,-467.41 1065.39,-466"/>
<polygon fill="black" stroke="black" points="979.27,-840.96 968.68,-838.1 974,-841.81 969.72,-842.49 969.72,-842.49 969.72,-842.49 974,-841.81 970.11,-846.99 979.27,-840.96"/>
<text text-anchor="start" x="387.37" y="-826.6" font-family="Arial" font-size="10.00">FOREIGN KEY (model_key, field_data_type_key) REFERENCES data_type(model_key, data_type_key) ON DELETE CASCADE</text>
</g>
<!-- public.attribute -->
<g id="node5" class="node">
<title>public.attribute</title>
<polygon fill="#efefef" stroke="none" points="1071.84,-950.4 1071.84,-986 1319.79,-986 1319.79,-950.4 1071.84,-950.4"/>
<polygon fill="none" stroke="black" points="1071.84,-950.4 1071.84,-986 1319.79,-986 1319.79,-950.4 1071.84,-950.4"/>
<text text-anchor="start" x="1078.84" y="-963.8" font-family="Arial Bold" font-size="18.00">public.attribute</text>
<text text-anchor="start" x="1188.3" y="-963.8" font-family="Arial" font-size="14.00">    </text>
<text text-anchor="start" x="1219.42" y="-963.8" font-family="Arial" font-size="14.00" fill="#666666">[BASE TABLE]</text>
<polygon fill="none" stroke="black" points="1071.84,-919.6 1071.84,-950.4 1319.79,-950.4 1319.79,-919.6 1071.84,-919.6"/>
<text text-anchor="start" x="1078.84" y="-931.8" font-family="Arial" font-size="14.00">model_key </text>
<text text-anchor="start" x="1150.43" y="-931.8" font-family="Arial" font-size="14.00" fill="#666666">[text]</text>
<polygon fill="none" stroke="black" points="1071.84,-888.8 1071.84,-919.6 1319.79,-919.6 1319.79,-888.8 1071.84,-888.8"/>
<text text-anchor="start" x="1078.84" y="-901" font-family="Arial" font-size="14.00">attribute_key </text>
<text text-anchor="start" x="1162.88" y="-901" font-family="Arial" font-size="14.00" fill="#666666">[text]</text>
<polygon fill="none" stroke="black" points="1071.84,-858 1071.84,-888.8 1319.79,-888.8 1319.79,-858 1071.84,-858"/>
<text text-anchor="start" x="1078.84" y="-870.2" font-family="Arial" font-size="14.00">class_key </text>
<text text-anchor="start" x="1144.2" y="-870.2" font-family="Arial" font-size="14.00" fill="#666666">[text]</text>
<polygon fill="none" stroke="black" points="1071.84,-827.2 1071.84,-858 1319.79,-858 1319.79,-827.2 1071.84,-827.2"/>
<text text-anchor="start" x="1078.84" y="-839.4" font-family="Arial" font-size="14.00">name </text>
<text text-anchor="start" x="1117.75" y="-839.4" font-family="Arial" font-size="14.00" fill="#666666">[text]</text>
<polygon fill="none" stroke="black" points="1071.84,-796.4 1071.84,-827.2 1319.79,-827.2 1319.79,-796.4 1071.84,-796.4"/>
<text text-anchor="start" x="1078.84" y="-808.6" font-family="Arial" font-size="14.00">details </text>
<text text-anchor="start" x="1123.2" y="-808.6" font-family="Arial" font-size="14.00" fill="#666666">[text]</text>
<polygon fill="none" stroke="black" points="1071.84,-765.6 1071.84,-796.4 1319.79,-796.4 1319.79,-765.6 1071.84,-765.6"/>
<text text-anchor="start" x="1078.84" y="-777.8" font-family="Arial" font-size="14.00">data_type_rules </text>
<text text-anchor="start" x="1182.35" y="-777.8" font-family="Arial" font-size="14.00" fill="#666666">[text]</text>
<polygon fill="none" stroke="black" points="1071.84,-734.8 1071.84,-765.6 1319.79,-765.6 1319.79,-734.8 1071.84,-734.8"/>
<text text-anchor="start" x="1078.84" y="-747" font-family="Arial" font-size="14.00">data_type_key </text>
<text text-anchor="start" x="1173.79" y="-747" font-family="Arial" font-size="14.00" fill="#666666">[text]</text>
<polygon fill="none" stroke="black" points="1071.84,-704 1071.84,-734.8 1319.79,-734.8 1319.79,-704 1071.84,-704"/>
<text text-anchor="start" x="1078.84" y="-716.2" font-family="Arial" font-size="14.00">derivation_policy_key </text>
<text text-anchor="start" x="1216.58" y="-716.2" font-family="Arial" font-size="14.00" fill="#666666">[text]</text>
<polygon fill="none" stroke="black" points="1071.84,-673.2 1071.84,-704 1319.79,-704 1319.79,-673.2 1071.84,-673.2"/>
<text text-anchor="start" x="1078.84" y="-685.4" font-family="Arial" font-size="14.00">nullable </text>
<text text-anchor="start" x="1130.99" y="-685.4" font-family="Arial" font-size="14.00" fill="#666666">[boolean]</text>
<polygon fill="none" stroke="black" points="1071.84,-642.4 1071.84,-673.2 1319.79,-673.2 1319.79,-642.4 1071.84,-642.4"/>
<text text-anchor="start" x="1078.84" y="-654.6" font-family="Arial" font-size="14.00">uml_comment </text>
<text text-anchor="start" x="1170.64" y="-654.6" font-family="Arial" font-size="14.00" fill="#666666">[text]</text>
</g>
<!-- public.attribute&#45;&gt;public.data_type -->
<g id="edge5" class="edge">
<title>public.attribute:model_key&#45;&gt;public.data_type:model_key</title>
<path fill="none" stroke="black" d="M1329.74,-930.05C1373.3,-879.93 1374.75,-466 1325.79,-466"/>
<polygon fill="black" stroke="black" points="1329.84,-930 1318.91,-930.9 1325.17,-932.58 1321.38,-934.68 1321.38,-934.68 1321.38,-934.68 1325.17,-932.58 1323.27,-938.78 1329.84,-930"/>
<text text-anchor="start" x="763.01" y="-945" font-family="Arial" font-size="10.00">FOREIGN KEY (model_key, data_type_key) REFERENCES data_type(model_key, data_type_key) ON DELETE CASCADE</text>
</g>
<!-- public.query_parameter -->
<g id="node6" class="node">
<title>public.query_parameter</title>
<polygon fill="#efefef" stroke="none" points="1423.86,-904.2 1423.86,-939.8 1733.77,-939.8 1733.77,-904.2 1423.86,-904.2"/>
<polygon fill="none" stroke="black" points="1423.86,-904.2 1423.86,-939.8 1733.77,-939.8 1733.77,-904.2 1423.86,-904.2"/>
<text text-anchor="start" x="1430.86" y="-917.6" font-family="Arial Bold" font-size="18.00">public.query_parameter</text>
<text text-anchor="start" x="1602.28" y="-917.6" font-family="Arial" font-size="14.00">    </text>
<text text-anchor="start" x="1633.4" y="-917.6" font-family="Arial" font-size="14.00" fill="#666666">[BASE TABLE]</text>
<polygon fill="none" stroke="black" points="1423.86,-873.4 1423.86,-904.2 1733.77,-904.2 1733.77,-873.4 1423.86,-873.4"/>
<text text-anchor="start" x="1430.86" y="-885.6" font-family="Arial" font-size="14.00">model_key </text>
<text text-anchor="start" x="1502.45" y="-885.6" font-family="Arial" font-size="14.00" fill="#666666">[text]</text>
<polygon fill="none" stroke="black" points="1423.86,-842.6 1423.86,-873.4 1733.77,-873.4 1733.77,-842.6 1423.86,-842.6"/>
<text text-anchor="start" x="1430.86" y="-854.8" font-family="Arial" font-size="14.00">query_key </text>
<text text-anchor="start" x="1499.34" y="-854.8" font-family="Arial" font-size="14.00" fill="#666666">[text]</text>
<polygon fill="none" stroke="black" points="1423.86,-811.8 1423.86,-842.6 1733.77,-842.6 1733.77,-811.8 1423.86,-811.8"/>
<text text-anchor="start" x="1430.86" y="-824" font-family="Arial" font-size="14.00">parameter_key </text>
<text text-anchor="start" x="1528.13" y="-824" font-family="Arial" font-size="14.00" fill="#666666">[text]</text>
<polygon fill="none" stroke="black" points="1423.86,-781 1423.86,-811.8 1733.77,-811.8 1733.77,-781 1423.86,-781"/>
<text text-anchor="start" x="1430.86" y="-793.2" font-family="Arial" font-size="14.00">name </text>
<text text-anchor="start" x="1469.77" y="-793.2" font-family="Arial" font-size="14.00" fill="#666666">[text]</text>
<polygon fill="none" stroke="black" points="1423.86,-750.2 1423.86,-781 1733.77,-781 1733.77,-750.2 1423.86,-750.2"/>
<text text-anchor="start" x="1430.86" y="-762.4" font-family="Arial" font-size="14.00">sort_order </text>
<text text-anchor="start" x="1498.56" y="-762.4" font-family="Arial" font-size="14.00" fill="#666666">[integer]</text>
<polygon fill="none" stroke="black" points="1423.86,-719.4 1423.86,-750.2 1733.77,-750.2 1733.77,-719.4 1423.86,-719.4"/>
<text text-anchor="start" x="1430.86" y="-731.6" font-family="Arial" font-size="14.00">data_type_rules </text>
<text text-anchor="start" x="1534.38" y="-731.6" font-family="Arial" font-size="14.00" fill="#666666">[text]</text>
<polygon fill="none" stroke="black" points="1423.86,-688.6 1423.86,-719.4 1733.77,-719.4 1733.77,-688.6 1423.86,-688.6"/>
<text text-anchor="start" x="1430.86" y="-700.8" font-family="Arial" font-size="14.00">data_type_key </text>
<text text-anchor="start" x="1525.82" y="-700.8" font-family="Arial" font-size="14.00" fill="#666666">[text]</text>
</g>
<!-- public.query_parameter&#45;&gt;public.data_type -->
<g id="edge6" class="edge">
<title>public.query_parameter:model_key&#45;&gt;public.data_type:model_key</title>
<path fill="none" stroke="black" d="M1412.9,-887.1C1333.3,-858 1418.61,-466 1325.79,-466"/>
<polygon fill="black" stroke="black" points="1412.67,-887.06 1421.77,-893.18 1417.93,-887.96 1422.2,-888.69 1422.2,-888.69 1422.2,-888.69 1417.93,-887.96 1423.29,-884.31 1412.67,-887.06"/>
<text text-anchor="start" x="1147.47" y="-872.8" font-family="Arial" font-size="10.00">FOREIGN KEY (model_key, data_type_key) REFERENCES data_type(model_key, data_type_key) ON DELETE CASCADE</text>
</g>
<!-- public.event_parameter -->
<g id="node7" class="node">
<title>public.event_parameter</title>
<polygon fill="#efefef" stroke="none" points="1837.86,-904.2 1837.86,-939.8 2145.77,-939.8 2145.77,-904.2 1837.86,-904.2"/>
<polygon fill="none" stroke="black" points="1837.86,-904.2 1837.86,-939.8 2145.77,-939.8 2145.77,-904.2 1837.86,-904.2"/>
<text text-anchor="start" x="1844.86" y="-917.6" font-family="Arial Bold" font-size="18.00">public.event_parameter</text>
<text text-anchor="start" x="2014.28" y="-917.6" font-family="Arial" font-size="14.00">    </text>
<text text-anchor="start" x="2045.4" y="-917.6" font-family="Arial" font-size="14.00" fill="#666666">[BASE TABLE]</text>
<polygon fill="none" stroke="black" points="1837.86,-873.4 1837.86,-904.2 2145.77,-904.2 2145.77,-873.4 1837.86,-873.4"/>
<text text-anchor="start" x="1844.86" y="-885.6" font-family="Arial" font-size="14.00">model_key </text>
<text text-anchor="start" x="1916.45" y="-885.6" font-family="Arial" font-size="14.00" fill="#666666">[text]</text>
<polygon fill="none" stroke="black" points="1837.86,-842.6 1837.86,-873.4 2145.77,-873.4 2145.77,-842.6 1837.86,-842.6"/>
<text text-anchor="start" x="1844.86" y="-854.8" font-family="Arial" font-size="14.00">event_key </text>
<text text-anchor="start" x="1912.57" y="-854.8" font-family="Arial" font-size="14.00" fill="#666666">[text]</text>
<polygon fill="none" stroke="black" points="1837.86,-811.8 1837.86,-842.6 2145.77,-842.6 2145.77,-811.8 1837.86,-811.8"/>
<text text-anchor="start" x="1844.86" y="-824" font-family="Arial" font-size="14.00">parameter_key </text>
<text text-anchor="start" x="1942.13" y="-824" font-family="Arial" font-size="14.00" fill="#666666">[text]</text>
<polygon fill="none" stroke="black" points="1837.86,-781 1837.86,-811.8 2145.77,-811.8 2145.77,-781 1837.86,-781"/>
<text text-anchor="start" x="1844.86" y="-793.2" font-family="Arial" font-size="14.00">name </text>
<text text-anchor="start" x="1883.77" y="-793.2" font-family="Arial" font-size="14.00" fill="#666666">[text]</text>
<polygon fill="none" stroke="black" points="1837.86,-750.2 1837.86,-781 2145.77,-781 2145.77,-750.2 1837.86,-750.2"/>
<text text-anchor="start" x="1844.86" y="-762.4" font-family="Arial" font-size="14.00">sort_order </text>
<text text-anchor="start" x="1912.56" y="-762.4" font-family="Arial" font-size="14.00" fill="#666666">[integer]</text>
<polygon fill="none" stroke="black" points="1837.86,-719.4 1837.86,-750.2 2145.77,-750.2 2145.77,-719.4 1837.86,-719.4"/>
<text text-anchor="start" x="1844.86" y="-731.6" font-family="Arial" font-size="14.00">data_type_rules </text>
<text text-anchor="start" x="1948.38" y="-731.6" font-family="Arial" font-size="14.00" fill="#666666">[text]</text>
<polygon fill="none" stroke="black" points="1837.86,-688.6 1837.86,-719.4 2145.77,-719.4 2145.77,-688.6 1837.86,-688.6"/>
<text text-anchor="start" x="1844.86" y="-700.8" font-family="Arial" font-size="14.00">data_type_key </text>
<text text-anchor="start" x="1939.82" y="-700.8" font-family="Arial" font-size="14.00" fill="#666666">[text]</text>
</g>
<!-- public.event_parameter&#45;&gt;public.data_type -->
<g id="edge7" class="edge">
<title>public.event_parameter:model_key&#45;&gt;public.data_type:model_key</title>
<path fill="none" stroke="black" d="M1826.9,-886.56C1777.75,-862.12 1827,-645.07 1785.82,-599.2 1714.71,-520.02 1432.22,-466 1325.79,-466"/>
<polygon fill="black" stroke="black" points="1826.78,-886.53 1835.55,-893.12 1831.98,-887.7 1836.21,-888.65 1836.21,-888.65 1836.21,-888.65 1831.98,-887.7 1837.52,-884.34 1826.78,-886.53"/>
<text text-anchor="start" x="1843.86" y="-898.8" font-family="Arial" font-size="10.00">FOREIGN KEY (model_key, data_type_key) REFERENCES data_type(model_key, data_type_key) ON DELETE CASCADE</text>
</g>
<!-- public.action_parameter -->
<g id="node8" class="node">
<title>public.action_parameter</title>
<polygon fill="#efefef" stroke="none" points="2250.36,-904.2 2250.36,-939.8 2563.27,-939.8 2563.27,-904.2 2250.36,-904.2"/>
<polygon fill="none" stroke="black" points="2250.36,-904.2 2250.36,-939.8 2563.27,-939.8 2563.27,-904.2 2250.36,-904.2"/>
<text text-anchor="start" x="2257.36" y="-917.6" font-family="Arial Bold" font-size="18.00">public.action_parameter</text>
<text text-anchor="start" x="2431.78" y="-917.6" font-family="Arial" font-size="14.00">    </text>
<text text-anchor="start" x="2462.9" y="-917.6" font-family="Arial" font-size="14.00" fill="#666666">[BASE TABLE]</text>
<polygon fill="none" stroke="black" points="2250.36,-873.4 2250.36,-904.2 2563.27,-904.2 2563.27,-873.4 2250.36,-873.4"/>
<text text-anchor="start" x="2257.36" y="-885.6" font-family="Arial" font-size="14.00">model_key </text>
<text text-anchor="start" x="2328.95" y="-885.6" font-family="Arial" font-size="14.00" fill="#666666">[text]</text>
<polygon fill="none" stroke="black" points="2250.36,-842.6 2250.36,-873.4 2563.27,-873.4 2563.27,-842.6 2250.36,-842.6"/>
<text text-anchor="start" x="2257.36" y="-854.8" font-family="Arial" font-size="14.00">action_key </text>
<text text-anchor="start" x="2328.18" y="-854.8" font-family="Arial" font-size="14.00" fill="#666666">[text]</text>
<polygon fill="none" stroke="black" points="2250.36,-811.8 2250.36,-842.6 2563.27,-842.6 2563.27,-811.8 2250.36,-811.8"/>
<text text-anchor="start" x="2257.36" y="-824" font-family="Arial" font-size="14.00">parameter_key </text>
<text text-anchor="start" x="2354.63" y="-824" font-family="Arial" font-size="14.00" fill="#666666">[text]</text>
<polygon fill="none" stroke="black" points="2250.36,-781 2250.36,-811.8 2563.27,-811.8 2563.27,-781 2250.36,-781"/>
<text text-anchor="start" x="2257.36" y="-793.2" font-family="Arial" font-size="14.00">name </text>
<text text-anchor="start" x="2296.27" y="-793.2" font-family="Arial" font-size="14.00" fill="#666666">[text]</text>
<polygon fill="none" stroke="black" points="2250.36,-750.2 2250.36,-781 2563.27,-781 2563.27,-750.2 2250.36,-750.2"/>
<text text-anchor="start" x="2257.36" y="-762.4" font-family="Arial" font-size="14.00">sort_order </text>
<text text-anchor="start" x="2325.06" y="-762.4" font-family="Arial" font-size="14.00" fill="#666666">[integer]</text>
<polygon fill="none" stroke="black" points="2250.36,-719.4 2250.36,-750.2 2563.27,-750.2 2563.27,-719.4 2250.36,-719.4"/>
<text text-anchor="start" x="2257.36" y="-731.6" font-family="Arial" font-size="14.00">data_type_rules </text>
<text text-anchor="start" x="2360.88" y="-731.6" font-family="Arial" font-size="14.00" fill="#666666">[text]</text>
<polygon fill="none" stroke="black" points="2250.36,-688.6 2250.36,-719.4 2563.27,-719.4 2563.27,-688.6 2250.36,-688.6"/>
<text text-anchor="start" x="2257.36" y="-700.8" font-family="Arial" font-size="14.00">data_type_key </text>
<text text-anchor="start" x="2352.32" y="-700.8" font-family="Arial" font-size="14.00" fill="#666666">[text]</text>
</g>
<!-- public.action_parameter&#45;&gt;public.data_type -->
<g id="edge8" class="edge">
<title>public.action_parameter:model_key&#45;&gt;public.data_type:model_key</title>
<path fill="none" stroke="black" d="M2238.97,-888.33C2128.2,-877.65 2288.74,-687.91 2197.82,-599.2 2127.66,-530.75 1423.81,-466 1325.79,-466"/>
<polygon fill="black" stroke="black" points="2239.04,-888.33 2248.82,-893.28 2244.37,-888.57 2248.69,-888.77 2248.69,-888.77 2248.69,-888.77 2244.37,-888.57 2249.23,-884.29 2239.04,-888.33"/>
<text text-anchor="start" x="2256.36" y="-872.8" font-family="Arial" font-size="10.00">FOREIGN KEY (model_key, data_type_key) REFERENCES data_type(model_key, data_type_key) ON DELETE CASCADE</text>
</g>
</g>
</svg>
