<?xml version="1.0" encoding="UTF-8" standalone="no"?>
<!DOCTYPE svg PUBLIC "-//W3C//DTD SVG 1.1//EN"
 "http://www.w3.org/Graphics/SVG/1.1/DTD/svg11.dtd">
<!-- Generated by graphviz version 12.1.2 (20240928.0832)
 -->
<!-- Title: public.named_set Pages: 1 -->
<svg width="727pt" height="664pt"
 viewBox="0.00 0.00 727.04 663.60" xmlns="http://www.w3.org/2000/svg" xmlns:xlink="http://www.w3.org/1999/xlink">
<g id="graph0" class="graph" transform="scale(1 1) rotate(0) translate(4 659.6)">
<title>public.named_set</title>
<polygon fill="white" stroke="none" points="-4,4 -4,-659.6 723.04,-659.6 723.04,4 -4,4"/>
<!-- public.named_set -->
<g id="node1" class="node">
<title>public.named_set</title>
<polygon fill="#efefef" stroke="none" points="46.2,-573.8 46.2,-609.4 311.16,-609.4 311.16,-573.8 46.2,-573.8"/>
<polygon fill="none" stroke="black" points="46.2,-573.8 46.2,-609.4 311.16,-609.4 311.16,-573.8 46.2,-573.8"/>
<text text-anchor="start" x="53.2" y="-587.2" font-family="Arial Bold" font-size="18.00">public.named_set</text>
<text text-anchor="start" x="179.67" y="-587.2" font-family="Arial" font-size="14.00">    </text>
<text text-anchor="start" x="210.78" y="-587.2" font-family="Arial" font-size="14.00" fill="#666666">[BASE TABLE]</text>
<polygon fill="none" stroke="black" points="46.2,-543 46.2,-573.8 311.16,-573.8 311.16,-543 46.2,-543"/>
<text text-anchor="start" x="53.2" y="-555.2" font-family="Arial" font-size="14.00">model_key </text>
<text text-anchor="start" x="124.79" y="-555.2" font-family="Arial" font-size="14.00" fill="#666666">[text]</text>
<polygon fill="none" stroke="black" points="46.2,-512.2 46.2,-543 311.16,-543 311.16,-512.2 46.2,-512.2"/>
<text text-anchor="start" x="53.2" y="-524.4" font-family="Arial" font-size="14.00">set_key </text>
<text text-anchor="start" x="105.34" y="-524.4" font-family="Arial" font-size="14.00" fill="#666666">[text]</text>
<polygon fill="none" stroke="black" points="46.2,-481.4 46.2,-512.2 311.16,-512.2 311.16,-481.4 46.2,-481.4"/>
<text text-anchor="start" x="53.2" y="-493.6" font-family="Arial" font-size="14.00">name </text>
<text text-anchor="start" x="92.11" y="-493.6" font-family="Arial" font-size="14.00" fill="#666666">[text]</text>
<polygon fill="none" stroke="black" points="46.2,-450.6 46.2,-481.4 311.16,-481.4 311.16,-450.6 46.2,-450.6"/>
<text text-anchor="start" x="53.2" y="-462.8" font-family="Arial" font-size="14.00">description </text>
<text text-anchor="start" x="124.79" y="-462.8" font-family="Arial" font-size="14.00" fill="#666666">[text]</text>
<polygon fill="none" stroke="black" points="46.2,-419.8 46.2,-450.6 311.16,-450.6 311.16,-419.8 46.2,-419.8"/>
<text text-anchor="start" x="53.2" y="-432" font-family="Arial" font-size="14.00">notation </text>
<text text-anchor="start" x="106.91" y="-432" font-family="Arial" font-size="14.00" fill="#666666">[notation]</text>
<polygon fill="none" stroke="black" points="46.2,-389 46.2,-419.8 311.16,-419.8 311.16,-389 46.2,-389"/>
<text text-anchor="start" x="53.2" y="-401.2" font-family="Arial" font-size="14.00">specification </text>
<text text-anchor="start" x="134.13" y="-401.2" font-family="Arial" font-size="14.00" fill="#666666">[text]</text>
<polygon fill="none" stroke="black" points="46.2,-358.2 46.2,-389 311.16,-389 311.16,-358.2 46.2,-358.2"/>
<text text-anchor="start" x="53.2" y="-370.4" font-family="Arial" font-size="14.00">type_spec_notation </text>
<text text-anchor="start" x="178.52" y="-370.4" font-family="Arial" font-size="14.00" fill="#666666">[notation]</text>
<polygon fill="none" stroke="black" points="46.2,-327.4 46.2,-358.2 311.16,-358.2 311.16,-327.4 46.2,-327.4"/>
<text text-anchor="start" x="53.2" y="-339.6" font-family="Arial" font-size="14.00">type_spec_specification </text>
<text text-anchor="start" x="205.74" y="-339.6" font-family="Arial" font-size="14.00" fill="#666666">[text]</text>
<polygon fill="none" stroke="black" stroke-width="3" points="44.7,-325.9 44.7,-610.9 312.66,-610.9 312.66,-325.9 44.7,-325.9"/>
</g>
<!-- public.model -->
<g id="node2" class="node">
<title>public.model</title>
<polygon fill="#efefef" stroke="none" points="62.19,-166.4 62.19,-202 295.16,-202 295.16,-166.4 62.19,-166.4"/>
<polygon fill="none" stroke="black" points="62.19,-166.4 62.19,-202 295.16,-202 295.16,-166.4 62.19,-166.4"/>
<text text-anchor="start" x="69.19" y="-179.8" font-family="Arial Bold" font-size="18.00">public.model</text>
<text text-anchor="start" x="163.67" y="-179.8" font-family="Arial" font-size="14.00">    </text>
<text text-anchor="start" x="194.79" y="-179.8" font-family="Arial" font-size="14.00" fill="#666666">[BASE TABLE]</text>
<polygon fill="none" stroke="black" points="62.19,-135.6 62.19,-166.4 295.16,-166.4 295.16,-135.6 62.19,-135.6"/>
<text text-anchor="start" x="69.19" y="-147.8" font-family="Arial" font-size="14.00">model_key </text>
<text text-anchor="start" x="140.78" y="-147.8" font-family="Arial" font-size="14.00" fill="#666666">[text]</text>
<polygon fill="none" stroke="black" points="62.19,-104.8 62.19,-135.6 295.16,-135.6 295.16,-104.8 62.19,-104.8"/>
<text text-anchor="start" x="69.19" y="-117" font-family="Arial" font-size="14.00">name </text>
<text text-anchor="start" x="108.1" y="-117" font-family="Arial" font-size="14.00" fill="#666666">[text]</text>
<polygon fill="none" stroke="black" points="62.19,-74 62.19,-104.8 295.16,-104.8 295.16,-74 62.19,-74"/>
<text text-anchor="start" x="69.19" y="-86.2" font-family="Arial" font-size="14.00">details </text>
<text text-anchor="start" x="113.55" y="-86.2" font-family="Arial" font-size="14.00" fill="#666666">[text]</text>
<polygon fill="none" stroke="black" points="62.19,-43.2 62.19,-74 295.16,-74 295.16,-43.2 62.19,-43.2"/>
<text text-anchor="start" x="69.19" y="-55.4" font-family="Arial" font-size="14.00">unfinished_notes </text>
<text text-anchor="start" x="178.94" y="-55.4" font-family="Arial" font-size="14.00" fill="#666666">[text]</text>
</g>
<!-- public.named_set&#45;&gt;public.model -->
<g id="edge1" class="edge">
<title>public.named_set:model_key&#45;&gt;public.model:model_key</title>
<path fill="none" stroke="black" d="M322.29,-556.58C401.39,-527.19 383.23,-151 296.16,-151"/>
<polygon fill="black" stroke="black" points="322.33,-556.58 311.69,-553.91 317.08,-557.52 312.81,-558.28 312.81,-558.28 312.81,-558.28 317.08,-557.52 313.28,-562.77 322.33,-556.58"/>
<text text-anchor="start" x="319.16" y="-568.4" font-family="Arial" font-size="10.00">FOREIGN KEY (model_key) REFERENCES model(model_key) ON DELETE CASCADE</text>
</g>
</g>
</svg>
