<?xml version="1.0" encoding="UTF-8" standalone="no"?>
<!DOCTYPE svg PUBLIC "-//W3C//DTD SVG 1.1//EN"
 "http://www.w3.org/Graphics/SVG/1.1/DTD/svg11.dtd">
<!-- Generated by graphviz version 12.1.2 (20240928.0832)
 -->
<!-- Title: public.class_invariant Pages: 1 -->
<svg width="1302pt" height="664pt"
 viewBox="0.00 0.00 1302.00 663.60" xmlns="http://www.w3.org/2000/svg" xmlns:xlink="http://www.w3.org/1999/xlink">
<g id="graph0" class="graph" transform="scale(1 1) rotate(0) translate(4 659.6)">
<title>public.class_invariant</title>
<polygon fill="white" stroke="none" points="-4,4 -4,-659.6 1298,-659.6 1298,4 -4,4"/>
<!-- public.class_invariant -->
<g id="node1" class="node">
<title>public.class_invariant</title>
<polygon fill="#efefef" stroke="none" points="495.7,-573.8 495.7,-609.4 791.65,-609.4 791.65,-573.8 495.7,-573.8"/>
<polygon fill="none" stroke="black" points="495.7,-573.8 495.7,-609.4 791.65,-609.4 791.65,-573.8 495.7,-573.8"/>
<text text-anchor="start" x="502.7" y="-587.2" font-family="Arial Bold" font-size="18.00">public.class_invariant</text>
<text text-anchor="start" x="660.16" y="-587.2" font-family="Arial" font-size="14.00">    </text>
<text text-anchor="start" x="691.28" y="-587.2" font-family="Arial" font-size="14.00" fill="#666666">[BASE TABLE]</text>
<polygon fill="none" stroke="black" points="495.7,-543 495.7,-573.8 791.65,-573.8 791.65,-543 495.7,-543"/>
<text text-anchor="start" x="502.7" y="-555.2" font-family="Arial" font-size="14.00">model_key </text>
<text text-anchor="start" x="574.3" y="-555.2" font-family="Arial" font-size="14.00" fill="#666666">[text]</text>
<polygon fill="none" stroke="black" points="495.7,-512.2 495.7,-543 791.65,-543 791.65,-512.2 495.7,-512.2"/>
<text text-anchor="start" x="502.7" y="-524.4" font-family="Arial" font-size="14.00">class_key </text>
<text text-anchor="start" x="568.06" y="-524.4" font-family="Arial" font-size="14.00" fill="#666666">[text]</text>
<polygon fill="none" stroke="black" points="495.7,-481.4 495.7,-512.2 791.65,-512.2 791.65,-481.4 495.7,-481.4"/>
<text text-anchor="start" x="502.7" y="-493.6" font-family="Arial" font-size="14.00">logic_key </text>
<text text-anchor="start" x="564.96" y="-493.6" font-family="Arial" font-size="14.00" fill="#666666">[text]</text>
<polygon fill="none" stroke="black" stroke-width="3" points="494.2,-479.9 494.2,-610.9 793.15,-610.9 793.15,-479.9 494.2,-479.9"/>
</g>
<!-- public.logic -->
<g id="node2" class="node">
<title>public.logic</title>
<polygon fill="#efefef" stroke="none" points="367.69,-305 367.69,-340.6 591.66,-340.6 591.66,-305 367.69,-305"/>
<polygon fill="none" stroke="black" points="367.69,-305 367.69,-340.6 591.66,-340.6 591.66,-305 367.69,-305"/>
<text text-anchor="start" x="374.69" y="-318.4" font-family="Arial Bold" font-size="18.00">public.logic</text>
<text text-anchor="start" x="460.17" y="-318.4" font-family="Arial" font-size="14.00">    </text>
<text text-anchor="start" x="491.29" y="-318.4" font-family="Arial" font-size="14.00" fill="#666666">[BASE TABLE]</text>
<polygon fill="none" stroke="black" points="367.69,-274.2 367.69,-305 591.66,-305 591.66,-274.2 367.69,-274.2"/>
<text text-anchor="start" x="374.69" y="-286.4" font-family="Arial" font-size="14.00">logic_key </text>
<text text-anchor="start" x="436.94" y="-286.4" font-family="Arial" font-size="14.00" fill="#666666">[text]</text>
<polygon fill="none" stroke="black" points="367.69,-243.4 367.69,-274.2 591.66,-274.2 591.66,-243.4 367.69,-243.4"/>
<text text-anchor="start" x="374.69" y="-255.6" font-family="Arial" font-size="14.00">model_key </text>
<text text-anchor="start" x="446.28" y="-255.6" font-family="Arial" font-size="14.00" fill="#666666">[text]</text>
<polygon fill="none" stroke="black" points="367.69,-212.6 367.69,-243.4 591.66,-243.4 591.66,-212.6 367.69,-212.6"/>
<text text-anchor="start" x="374.69" y="-224.8" font-family="Arial" font-size="14.00">sort_order </text>
<text text-anchor="start" x="442.39" y="-224.8" font-family="Arial" font-size="14.00" fill="#666666">[integer]</text>
<polygon fill="none" stroke="black" points="367.69,-181.8 367.69,-212.6 591.66,-212.6 591.66,-181.8 367.69,-181.8"/>
<text text-anchor="start" x="374.69" y="-194" font-family="Arial" font-size="14.00">logic_type </text>
<text text-anchor="start" x="441.62" y="-194" font-family="Arial" font-size="14.00" fill="#666666">[logic_type]</text>
<polygon fill="none" stroke="black" points="367.69,-151 367.69,-181.8 591.66,-181.8 591.66,-151 367.69,-151"/>
<text text-anchor="start" x="374.69" y="-163.2" font-family="Arial" font-size="14.00">description </text>
<text text-anchor="start" x="446.28" y="-163.2" font-family="Arial" font-size="14.00" fill="#666666">[text]</text>
<polygon fill="none" stroke="black" points="367.69,-120.2 367.69,-151 591.66,-151 591.66,-120.2 367.69,-120.2"/>
<text text-anchor="start" x="374.69" y="-132.4" font-family="Arial" font-size="14.00">target </text>
<text text-anchor="start" x="414.38" y="-132.4" font-family="Arial" font-size="14.00" fill="#666666">[text]</text>
<polygon fill="none" stroke="black" points="367.69,-89.4 367.69,-120.2 591.66,-120.2 591.66,-89.4 367.69,-89.4"/>
<text text-anchor="start" x="374.69" y="-101.6" font-family="Arial" font-size="14.00">notation </text>
<text text-anchor="start" x="428.4" y="-101.6" font-family="Arial" font-size="14.00" fill="#666666">[notation]</text>
<polygon fill="none" stroke="black" points="367.69,-58.6 367.69,-89.4 591.66,-89.4 591.66,-58.6 367.69,-58.6"/>
<text text-anchor="start" x="374.69" y="-70.8" font-family="Arial" font-size="14.00">specification </text>
<text text-anchor="start" x="455.62" y="-70.8" font-family="Arial" font-size="14.00" fill="#666666">[text]</text>
</g>
<!-- public.class_invariant&#45;&gt;public.logic -->
<g id="edge1" class="edge">
<title>public.class_invariant:model_key&#45;&gt;public.logic:model_key</title>
<path fill="none" stroke="black" d="M484.34,-557.3C443.81,-547.81 469.37,-478.77 495.7,-435.2 520.73,-393.79 566.64,-425.21 591.66,-383.8 620.39,-336.25 648.22,-258.8 592.66,-258.8"/>
<polygon fill="black" stroke="black" points="484.43,-557.31 493.9,-562.84 489.73,-557.87 494.04,-558.33 494.04,-558.33 494.04,-558.33 489.73,-557.87 494.84,-553.89 484.43,-557.31"/>
<text text-anchor="start" x="7" y="-568.4" font-family="Arial" font-size="10.00">FOREIGN KEY (model_key, logic_key) REFERENCES logic(model_key, logic_key) ON DELETE CASCADE</text>
</g>
<!-- public.class -->
<g id="node3" class="node">
<title>public.class</title>
<polygon fill="#efefef" stroke="none" points="696.19,-320.4 696.19,-356 919.16,-356 919.16,-320.4 696.19,-320.4"/>
<polygon fill="none" stroke="black" points="696.19,-320.4 696.19,-356 919.16,-356 919.16,-320.4 696.19,-320.4"/>
<text text-anchor="start" x="703.19" y="-333.8" font-family="Arial Bold" font-size="18.00">public.class</text>
<text text-anchor="start" x="787.67" y="-333.8" font-family="Arial" font-size="14.00">    </text>
<text text-anchor="start" x="818.79" y="-333.8" font-family="Arial" font-size="14.00" fill="#666666">[BASE TABLE]</text>
<polygon fill="none" stroke="black" points="696.19,-289.6 696.19,-320.4 919.16,-320.4 919.16,-289.6 696.19,-289.6"/>
<text text-anchor="start" x="703.19" y="-301.8" font-family="Arial" font-size="14.00">model_key </text>
<text text-anchor="start" x="774.78" y="-301.8" font-family="Arial" font-size="14.00" fill="#666666">[text]</text>
<polygon fill="none" stroke="black" points="696.19,-258.8 696.19,-289.6 919.16,-289.6 919.16,-258.8 696.19,-258.8"/>
<text text-anchor="start" x="703.19" y="-271" font-family="Arial" font-size="14.00">class_key </text>
<text text-anchor="start" x="768.55" y="-271" font-family="Arial" font-size="14.00" fill="#666666">[text]</text>
<polygon fill="none" stroke="black" points="696.19,-228 696.19,-258.8 919.16,-258.8 919.16,-228 696.19,-228"/>
<text text-anchor="start" x="703.19" y="-240.2" font-family="Arial" font-size="14.00">name </text>
<text text-anchor="start" x="742.1" y="-240.2" font-family="Arial" font-size="14.00" fill="#666666">[text]</text>
<polygon fill="none" stroke="black" points="696.19,-197.2 696.19,-228 919.16,-228 919.16,-197.2 696.19,-197.2"/>
<text text-anchor="start" x="703.19" y="-209.4" font-family="Arial" font-size="14.00">subdomain_key </text>
<text text-anchor="start" x="805.14" y="-209.4" font-family="Arial" font-size="14.00" fill="#666666">[text]</text>
<polygon fill="none" stroke="black" points="696.19,-166.4 696.19,-197.2 919.16,-197.2 919.16,-166.4 696.19,-166.4"/>
<text text-anchor="start" x="703.19" y="-178.6" font-family="Arial" font-size="14.00">actor_key </text>
<text text-anchor="start" x="767.78" y="-178.6" font-family="Arial" font-size="14.00" fill="#666666">[text]</text>
<polygon fill="none" stroke="black" points="696.19,-135.6 696.19,-166.4 919.16,-166.4 919.16,-135.6 696.19,-135.6"/>
<text text-anchor="start" x="703.19" y="-147.8" font-family="Arial" font-size="14.00">superclass_of_key </text>
<text text-anchor="start" x="823.03" y="-147.8" font-family="Arial" font-size="14.00" fill="#666666">[text]</text>
<polygon fill="none" stroke="black" points="696.19,-104.8 696.19,-135.6 919.16,-135.6 919.16,-104.8 696.19,-104.8"/>
<text text-anchor="start" x="703.19" y="-117" font-family="Arial" font-size="14.00">subclass_of_key </text>
<text text-anchor="start" x="810.58" y="-117" font-family="Arial" font-size="14.00" fill="#666666">[text]</text>
<polygon fill="none" stroke="black" points="696.19,-74 696.19,-104.8 919.16,-104.8 919.16,-74 696.19,-74"/>
<text text-anchor="start" x="703.19" y="-86.2" font-family="Arial" font-size="14.00">details </text>
<text text-anchor="start" x="747.55" y="-86.2" font-family="Arial" font-size="14.00" fill="#666666">[text]</text>
<polygon fill="none" stroke="black" points="696.19,-43.2 696.19,-74 919.16,-74 919.16,-43.2 696.19,-43.2"/>
<text text-anchor="start" x="703.19" y="-55.4" font-family="Arial" font-size="14.00">uml_comment </text>
<text text-anchor="start" x="795" y="-55.4" font-family="Arial" font-size="14.00" fill="#666666">[text]</text>
</g>
<!-- public.class_invariant&#45;&gt;public.class -->
<g id="edge2" class="edge">
<title>public.class_invariant:model_key&#45;&gt;public.class:model_key</title>
<path fill="none" stroke="black" d="M802.79,-557.34C844.03,-547.85 820.84,-477.04 791.65,-435.2 765.71,-398.01 722.18,-436.35 696.19,-399.2 672.19,-364.89 653.32,-305 695.19,-305"/>
<polygon fill="black" stroke="black" points="802.93,-557.32 792.51,-553.89 797.62,-557.88 793.31,-558.33 793.31,-558.33 793.31,-558.33 797.62,-557.88 793.45,-562.84 802.93,-557.32"/>
<text text-anchor="start" x="799.65" y="-568.4" font-family="Arial" font-size="10.00">FOREIGN KEY (model_key, class_key) REFERENCES class(model_key, class_key) ON DELETE CASCADE</text>
</g>
</g>
</svg>
