<?xml version="1.0" encoding="UTF-8" standalone="no"?>
<!DOCTYPE svg PUBLIC "-//W3C//DTD SVG 1.1//EN"
 "http://www.w3.org/Graphics/SVG/1.1/DTD/svg11.dtd">
<!-- Generated by graphviz version 12.1.2 (20240928.0832)
 -->
<!-- Title: public.global_function Pages: 1 -->
<svg width="852pt" height="571pt"
 viewBox="0.00 0.00 851.86 571.20" xmlns="http://www.w3.org/2000/svg" xmlns:xlink="http://www.w3.org/1999/xlink">
<g id="graph0" class="graph" transform="scale(1 1) rotate(0) translate(4 567.2)">
<title>public.global_function</title>
<polygon fill="white" stroke="none" points="-4,4 -4,-567.2 847.86,-567.2 847.86,4 -4,4"/>
<!-- public.global_function -->
<g id="node1" class="node">
<title>public.global_function</title>
<polygon fill="#efefef" stroke="none" points="46.2,-481.4 46.2,-517 348.16,-517 348.16,-481.4 46.2,-481.4"/>
<polygon fill="none" stroke="black" points="46.2,-481.4 46.2,-517 348.16,-517 348.16,-481.4 46.2,-481.4"/>
<text text-anchor="start" x="53.2" y="-494.8" font-family="Arial Bold" font-size="18.00">public.global_function</text>
<text text-anchor="start" x="216.67" y="-494.8" font-family="Arial" font-size="14.00">    </text>
<text text-anchor="start" x="247.78" y="-494.8" font-family="Arial" font-size="14.00" fill="#666666">[BASE TABLE]</text>
<polygon fill="none" stroke="black" points="46.2,-450.6 46.2,-481.4 348.16,-481.4 348.16,-450.6 46.2,-450.6"/>
<text text-anchor="start" x="53.2" y="-462.8" font-family="Arial" font-size="14.00">model_key </text>
<text text-anchor="start" x="124.79" y="-462.8" font-family="Arial" font-size="14.00" fill="#666666">[text]</text>
<polygon fill="none" stroke="black" points="46.2,-419.8 46.2,-450.6 348.16,-450.6 348.16,-419.8 46.2,-419.8"/>
<text text-anchor="start" x="53.2" y="-432" font-family="Arial" font-size="14.00">logic_key </text>
<text text-anchor="start" x="115.45" y="-432" font-family="Arial" font-size="14.00" fill="#666666">[text]</text>
<polygon fill="none" stroke="black" points="46.2,-389 46.2,-419.8 348.16,-419.8 348.16,-389 46.2,-389"/>
<text text-anchor="start" x="53.2" y="-401.2" font-family="Arial" font-size="14.00">name </text>
<text text-anchor="start" x="92.11" y="-401.2" font-family="Arial" font-size="14.00" fill="#666666">[text]</text>
<polygon fill="none" stroke="black" points="46.2,-358.2 46.2,-389 348.16,-389 348.16,-358.2 46.2,-358.2"/>
<text text-anchor="start" x="53.2" y="-370.4" font-family="Arial" font-size="14.00">parameters </text>
<text text-anchor="start" x="127.9" y="-370.4" font-family="Arial" font-size="14.00" fill="#666666">[text[]]</text>
<polygon fill="none" stroke="black" stroke-width="3" points="44.7,-356.7 44.7,-518.5 349.66,-518.5 349.66,-356.7 44.7,-356.7"/>
</g>
<!-- public.logic -->
<g id="node2" class="node">
<title>public.logic</title>
<polygon fill="#efefef" stroke="none" points="85.19,-197.2 85.19,-232.8 309.16,-232.8 309.16,-197.2 85.19,-197.2"/>
<polygon fill="none" stroke="black" points="85.19,-197.2 85.19,-232.8 309.16,-232.8 309.16,-197.2 85.19,-197.2"/>
<text text-anchor="start" x="92.19" y="-210.6" font-family="Arial Bold" font-size="18.00">public.logic</text>
<text text-anchor="start" x="177.68" y="-210.6" font-family="Arial" font-size="14.00">    </text>
<text text-anchor="start" x="208.79" y="-210.6" font-family="Arial" font-size="14.00" fill="#666666">[BASE TABLE]</text>
<polygon fill="none" stroke="black" points="85.19,-166.4 85.19,-197.2 309.16,-197.2 309.16,-166.4 85.19,-166.4"/>
<text text-anchor="start" x="92.19" y="-178.6" font-family="Arial" font-size="14.00">logic_key </text>
<text text-anchor="start" x="154.45" y="-178.6" font-family="Arial" font-size="14.00" fill="#666666">[text]</text>
<polygon fill="none" stroke="black" points="85.19,-135.6 85.19,-166.4 309.16,-166.4 309.16,-135.6 85.19,-135.6"/>
<text text-anchor="start" x="92.19" y="-147.8" font-family="Arial" font-size="14.00">model_key </text>
<text text-anchor="start" x="163.79" y="-147.8" font-family="Arial" font-size="14.00" fill="#666666">[text]</text>
<polygon fill="none" stroke="black" points="85.19,-104.8 85.19,-135.6 309.16,-135.6 309.16,-104.8 85.19,-104.8"/>
<text text-anchor="start" x="92.19" y="-117" font-family="Arial" font-size="14.00">description </text>
<text text-anchor="start" x="163.79" y="-117" font-family="Arial" font-size="14.00" fill="#666666">[text]</text>
<polygon fill="none" stroke="black" points="85.19,-74 85.19,-104.8 309.16,-104.8 309.16,-74 85.19,-74"/>
<text text-anchor="start" x="92.19" y="-86.2" font-family="Arial" font-size="14.00">notation </text>
<text text-anchor="start" x="145.9" y="-86.2" font-family="Arial" font-size="14.00" fill="#666666">[notation]</text>
<polygon fill="none" stroke="black" points="85.19,-43.2 85.19,-74 309.16,-74 309.16,-43.2 85.19,-43.2"/>
<text text-anchor="start" x="92.19" y="-55.4" font-family="Arial" font-size="14.00">specification </text>
<text text-anchor="start" x="173.12" y="-55.4" font-family="Arial" font-size="14.00" fill="#666666">[text]</text>
</g>
<!-- public.global_function&#45;&gt;public.logic -->
<g id="edge1" class="edge">
<title>public.global_function:model_key&#45;&gt;public.logic:model_key</title>
<path fill="none" stroke="black" d="M359.07,-463.65C415.65,-434.82 377.12,-151 310.16,-151"/>
<polygon fill="black" stroke="black" points="359.21,-463.61 348.44,-461.54 354.02,-464.84 349.81,-465.85 349.81,-465.85 349.81,-465.85 354.02,-464.84 350.52,-470.3 359.21,-463.61"/>
<text text-anchor="start" x="356.16" y="-476" font-family="Arial" font-size="10.00">FOREIGN KEY (model_key, logic_key) REFERENCES logic(model_key, logic_key) ON DELETE CASCADE</text>
</g>
</g>
</svg>
