<?xml version="1.0" encoding="UTF-8" standalone="no"?>
<!DOCTYPE svg PUBLIC "-//W3C//DTD SVG 1.1//EN"
 "http://www.w3.org/Graphics/SVG/1.1/DTD/svg11.dtd">
<!-- Generated by graphviz version 12.1.2 (20240928.0832)
 -->
<!-- Title: public.action Pages: 1 -->
<svg width="1514pt" height="1222pt"
 viewBox="0.00 0.00 1514.17 1222.00" xmlns="http://www.w3.org/2000/svg" xmlns:xlink="http://www.w3.org/1999/xlink">
<g id="graph0" class="graph" transform="scale(1 1) rotate(0) translate(4 1218)">
<title>public.action</title>
<polygon fill="white" stroke="none" points="-4,4 -4,-1218 1510.17,-1218 1510.17,4 -4,4"/>
<!-- public.action -->
<g id="node1" class="node">
<title>public.action</title>
<polygon fill="#efefef" stroke="none" points="637.09,-697 637.09,-732.6 869.05,-732.6 869.05,-697 637.09,-697"/>
<polygon fill="none" stroke="black" points="637.09,-697 637.09,-732.6 869.05,-732.6 869.05,-697 637.09,-697"/>
<text text-anchor="start" x="644.09" y="-710.4" font-family="Arial Bold" font-size="18.00">public.action</text>
<text text-anchor="start" x="737.56" y="-710.4" font-family="Arial" font-size="14.00">    </text>
<text text-anchor="start" x="768.68" y="-710.4" font-family="Arial" font-size="14.00" fill="#666666">[BASE TABLE]</text>
<polygon fill="none" stroke="black" points="637.09,-666.2 637.09,-697 869.05,-697 869.05,-666.2 637.09,-666.2"/>
<text text-anchor="start" x="644.09" y="-678.4" font-family="Arial" font-size="14.00">model_key </text>
<text text-anchor="start" x="715.68" y="-678.4" font-family="Arial" font-size="14.00" fill="#666666">[text]</text>
<polygon fill="none" stroke="black" points="637.09,-635.4 637.09,-666.2 869.05,-666.2 869.05,-635.4 637.09,-635.4"/>
<text text-anchor="start" x="644.09" y="-647.6" font-family="Arial" font-size="14.00">class_key </text>
<text text-anchor="start" x="709.45" y="-647.6" font-family="Arial" font-size="14.00" fill="#666666">[text]</text>
<polygon fill="none" stroke="black" points="637.09,-604.6 637.09,-635.4 869.05,-635.4 869.05,-604.6 637.09,-604.6"/>
<text text-anchor="start" x="644.09" y="-616.8" font-family="Arial" font-size="14.00">action_key </text>
<text text-anchor="start" x="714.91" y="-616.8" font-family="Arial" font-size="14.00" fill="#666666">[text]</text>
<polygon fill="none" stroke="black" points="637.09,-573.8 637.09,-604.6 869.05,-604.6 869.05,-573.8 637.09,-573.8"/>
<text text-anchor="start" x="644.09" y="-586" font-family="Arial" font-size="14.00">name </text>
<text text-anchor="start" x="683" y="-586" font-family="Arial" font-size="14.00" fill="#666666">[text]</text>
<polygon fill="none" stroke="black" points="637.09,-543 637.09,-573.8 869.05,-573.8 869.05,-543 637.09,-543"/>
<text text-anchor="start" x="644.09" y="-555.2" font-family="Arial" font-size="14.00">details </text>
<text text-anchor="start" x="688.45" y="-555.2" font-family="Arial" font-size="14.00" fill="#666666">[text]</text>
<polygon fill="none" stroke="black" points="637.09,-512.2 637.09,-543 869.05,-543 869.05,-512.2 637.09,-512.2"/>
<text text-anchor="start" x="644.09" y="-524.4" font-family="Arial" font-size="14.00">requires </text>
<text text-anchor="start" x="698.56" y="-524.4" font-family="Arial" font-size="14.00" fill="#666666">[text[]]</text>
<polygon fill="none" stroke="black" points="637.09,-481.4 637.09,-512.2 869.05,-512.2 869.05,-481.4 637.09,-481.4"/>
<text text-anchor="start" x="644.09" y="-493.6" font-family="Arial" font-size="14.00">guarantees </text>
<text text-anchor="start" x="718.04" y="-493.6" font-family="Arial" font-size="14.00" fill="#666666">[text[]]</text>
<polygon fill="none" stroke="black" stroke-width="3" points="635.59,-479.9 635.59,-734.1 870.55,-734.1 870.55,-479.9 635.59,-479.9"/>
</g>
<!-- public.class -->
<g id="node2" class="node">
<title>public.class</title>
<polygon fill="#efefef" stroke="none" points="641.59,-320.4 641.59,-356 864.56,-356 864.56,-320.4 641.59,-320.4"/>
<polygon fill="none" stroke="black" points="641.59,-320.4 641.59,-356 864.56,-356 864.56,-320.4 641.59,-320.4"/>
<text text-anchor="start" x="648.59" y="-333.8" font-family="Arial Bold" font-size="18.00">public.class</text>
<text text-anchor="start" x="733.07" y="-333.8" font-family="Arial" font-size="14.00">    </text>
<text text-anchor="start" x="764.18" y="-333.8" font-family="Arial" font-size="14.00" fill="#666666">[BASE TABLE]</text>
<polygon fill="none" stroke="black" points="641.59,-289.6 641.59,-320.4 864.56,-320.4 864.56,-289.6 641.59,-289.6"/>
<text text-anchor="start" x="648.59" y="-301.8" font-family="Arial" font-size="14.00">model_key </text>
<text text-anchor="start" x="720.18" y="-301.8" font-family="Arial" font-size="14.00" fill="#666666">[text]</text>
<polygon fill="none" stroke="black" points="641.59,-258.8 641.59,-289.6 864.56,-289.6 864.56,-258.8 641.59,-258.8"/>
<text text-anchor="start" x="648.59" y="-271" font-family="Arial" font-size="14.00">class_key </text>
<text text-anchor="start" x="713.94" y="-271" font-family="Arial" font-size="14.00" fill="#666666">[text]</text>
<polygon fill="none" stroke="black" points="641.59,-228 641.59,-258.8 864.56,-258.8 864.56,-228 641.59,-228"/>
<text text-anchor="start" x="648.59" y="-240.2" font-family="Arial" font-size="14.00">name </text>
<text text-anchor="start" x="687.5" y="-240.2" font-family="Arial" font-size="14.00" fill="#666666">[text]</text>
<polygon fill="none" stroke="black" points="641.59,-197.2 641.59,-228 864.56,-228 864.56,-197.2 641.59,-197.2"/>
<text text-anchor="start" x="648.59" y="-209.4" font-family="Arial" font-size="14.00">subdomain_key </text>
<text text-anchor="start" x="750.54" y="-209.4" font-family="Arial" font-size="14.00" fill="#666666">[text]</text>
<polygon fill="none" stroke="black" points="641.59,-166.4 641.59,-197.2 864.56,-197.2 864.56,-166.4 641.59,-166.4"/>
<text text-anchor="start" x="648.59" y="-178.6" font-family="Arial" font-size="14.00">actor_key </text>
<text text-anchor="start" x="713.17" y="-178.6" font-family="Arial" font-size="14.00" fill="#666666">[text]</text>
<polygon fill="none" stroke="black" points="641.59,-135.6 641.59,-166.4 864.56,-166.4 864.56,-135.6 641.59,-135.6"/>
<text text-anchor="start" x="648.59" y="-147.8" font-family="Arial" font-size="14.00">superclass_of_key </text>
<text text-anchor="start" x="768.43" y="-147.8" font-family="Arial" font-size="14.00" fill="#666666">[text]</text>
<polygon fill="none" stroke="black" points="641.59,-104.8 641.59,-135.6 864.56,-135.6 864.56,-104.8 641.59,-104.8"/>
<text text-anchor="start" x="648.59" y="-117" font-family="Arial" font-size="14.00">subclass_of_key </text>
<text text-anchor="start" x="755.98" y="-117" font-family="Arial" font-size="14.00" fill="#666666">[text]</text>
<polygon fill="none" stroke="black" points="641.59,-74 641.59,-104.8 864.56,-104.8 864.56,-74 641.59,-74"/>
<text text-anchor="start" x="648.59" y="-86.2" font-family="Arial" font-size="14.00">details </text>
<text text-anchor="start" x="692.94" y="-86.2" font-family="Arial" font-size="14.00" fill="#666666">[text]</text>
<polygon fill="none" stroke="black" points="641.59,-43.2 641.59,-74 864.56,-74 864.56,-43.2 641.59,-43.2"/>
<text text-anchor="start" x="648.59" y="-55.4" font-family="Arial" font-size="14.00">uml_comment </text>
<text text-anchor="start" x="740.39" y="-55.4" font-family="Arial" font-size="14.00" fill="#666666">[text]</text>
</g>
<!-- public.action&#45;&gt;public.class -->
<g id="edge1" class="edge">
<title>public.action:model_key&#45;&gt;public.class:model_key</title>
<path fill="none" stroke="black" d="M880.13,-681.13C1037.19,-666.31 1029.51,-305 865.56,-305"/>
<polygon fill="black" stroke="black" points="880.38,-681.12 870.18,-677.09 875.05,-681.37 870.72,-681.57 870.72,-681.57 870.72,-681.57 875.05,-681.37 870.59,-686.08 880.38,-681.12"/>
<text text-anchor="start" x="877.05" y="-691.6" font-family="Arial" font-size="10.00">FOREIGN KEY (model_key, class_key) REFERENCES class(model_key, class_key) ON DELETE CASCADE</text>
</g>
<!-- public.transition -->
<g id="node3" class="node">
<title>public.transition</title>
<polygon fill="#efefef" stroke="none" points="256.08,-1135.2 256.08,-1170.8 512.06,-1170.8 512.06,-1135.2 256.08,-1135.2"/>
<polygon fill="none" stroke="black" points="256.08,-1135.2 256.08,-1170.8 512.06,-1170.8 512.06,-1135.2 256.08,-1135.2"/>
<text text-anchor="start" x="263.08" y="-1148.6" font-family="Arial Bold" font-size="18.00">public.transition</text>
<text text-anchor="start" x="380.57" y="-1148.6" font-family="Arial" font-size="14.00">    </text>
<text text-anchor="start" x="411.69" y="-1148.6" font-family="Arial" font-size="14.00" fill="#666666">[BASE TABLE]</text>
<polygon fill="none" stroke="black" points="256.08,-1104.4 256.08,-1135.2 512.06,-1135.2 512.06,-1104.4 256.08,-1104.4"/>
<text text-anchor="start" x="263.08" y="-1116.6" font-family="Arial" font-size="14.00">model_key </text>
<text text-anchor="start" x="334.68" y="-1116.6" font-family="Arial" font-size="14.00" fill="#666666">[text]</text>
<polygon fill="none" stroke="black" points="256.08,-1073.6 256.08,-1104.4 512.06,-1104.4 512.06,-1073.6 256.08,-1073.6"/>
<text text-anchor="start" x="263.08" y="-1085.8" font-family="Arial" font-size="14.00">class_key </text>
<text text-anchor="start" x="328.44" y="-1085.8" font-family="Arial" font-size="14.00" fill="#666666">[text]</text>
<polygon fill="none" stroke="black" points="256.08,-1042.8 256.08,-1073.6 512.06,-1073.6 512.06,-1042.8 256.08,-1042.8"/>
<text text-anchor="start" x="263.08" y="-1055" font-family="Arial" font-size="14.00">transition_key </text>
<text text-anchor="start" x="353.35" y="-1055" font-family="Arial" font-size="14.00" fill="#666666">[text]</text>
<polygon fill="none" stroke="black" points="256.08,-1012 256.08,-1042.8 512.06,-1042.8 512.06,-1012 256.08,-1012"/>
<text text-anchor="start" x="263.08" y="-1024.2" font-family="Arial" font-size="14.00">from_state_key </text>
<text text-anchor="start" x="362.68" y="-1024.2" font-family="Arial" font-size="14.00" fill="#666666">[text]</text>
<polygon fill="none" stroke="black" points="256.08,-981.2 256.08,-1012 512.06,-1012 512.06,-981.2 256.08,-981.2"/>
<text text-anchor="start" x="263.08" y="-993.4" font-family="Arial" font-size="14.00">event_key </text>
<text text-anchor="start" x="330.79" y="-993.4" font-family="Arial" font-size="14.00" fill="#666666">[text]</text>
<polygon fill="none" stroke="black" points="256.08,-950.4 256.08,-981.2 512.06,-981.2 512.06,-950.4 256.08,-950.4"/>
<text text-anchor="start" x="263.08" y="-962.6" font-family="Arial" font-size="14.00">guard_key </text>
<text text-anchor="start" x="332.35" y="-962.6" font-family="Arial" font-size="14.00" fill="#666666">[text]</text>
<polygon fill="none" stroke="black" points="256.08,-919.6 256.08,-950.4 512.06,-950.4 512.06,-919.6 256.08,-919.6"/>
<text text-anchor="start" x="263.08" y="-931.8" font-family="Arial" font-size="14.00">action_key </text>
<text text-anchor="start" x="333.91" y="-931.8" font-family="Arial" font-size="14.00" fill="#666666">[text]</text>
<polygon fill="none" stroke="black" points="256.08,-888.8 256.08,-919.6 512.06,-919.6 512.06,-888.8 256.08,-888.8"/>
<text text-anchor="start" x="263.08" y="-901" font-family="Arial" font-size="14.00">to_state_key </text>
<text text-anchor="start" x="346.36" y="-901" font-family="Arial" font-size="14.00" fill="#666666">[text]</text>
<polygon fill="none" stroke="black" points="256.08,-858 256.08,-888.8 512.06,-888.8 512.06,-858 256.08,-858"/>
<text text-anchor="start" x="263.08" y="-870.2" font-family="Arial" font-size="14.00">uml_comment </text>
<text text-anchor="start" x="354.89" y="-870.2" font-family="Arial" font-size="14.00" fill="#666666">[text]</text>
</g>
<!-- public.transition&#45;&gt;public.action -->
<g id="edge2" class="edge">
<title>public.transition:model_key&#45;&gt;public.action:model_key</title>
<path fill="none" stroke="black" d="M523.05,-1117.86C577.73,-1094.97 542.93,-876.37 564.07,-814.8 585.92,-751.15 568.79,-681.6 636.09,-681.6"/>
<polygon fill="black" stroke="black" points="523.2,-1117.83 512.53,-1115.32 517.97,-1118.85 513.71,-1119.67 513.71,-1119.67 513.71,-1119.67 517.97,-1118.85 514.24,-1124.15 523.2,-1117.83"/>
<text text-anchor="start" x="7" y="-1129.8" font-family="Arial" font-size="10.00">FOREIGN KEY (model_key, action_key) REFERENCES action(model_key, action_key) ON DELETE CASCADE</text>
</g>
<!-- public.state_action -->
<g id="node4" class="node">
<title>public.state_action</title>
<polygon fill="#efefef" stroke="none" points="616.1,-1073.6 616.1,-1109.2 890.04,-1109.2 890.04,-1073.6 616.1,-1073.6"/>
<polygon fill="none" stroke="black" points="616.1,-1073.6 616.1,-1109.2 890.04,-1109.2 890.04,-1073.6 616.1,-1073.6"/>
<text text-anchor="start" x="623.1" y="-1087" font-family="Arial Bold" font-size="18.00">public.state_action</text>
<text text-anchor="start" x="758.56" y="-1087" font-family="Arial" font-size="14.00">    </text>
<text text-anchor="start" x="789.67" y="-1087" font-family="Arial" font-size="14.00" fill="#666666">[BASE TABLE]</text>
<polygon fill="none" stroke="black" points="616.1,-1042.8 616.1,-1073.6 890.04,-1073.6 890.04,-1042.8 616.1,-1042.8"/>
<text text-anchor="start" x="623.1" y="-1055" font-family="Arial" font-size="14.00">model_key </text>
<text text-anchor="start" x="694.69" y="-1055" font-family="Arial" font-size="14.00" fill="#666666">[text]</text>
<polygon fill="none" stroke="black" points="616.1,-1012 616.1,-1042.8 890.04,-1042.8 890.04,-1012 616.1,-1012"/>
<text text-anchor="start" x="623.1" y="-1024.2" font-family="Arial" font-size="14.00">state_key </text>
<text text-anchor="start" x="686.91" y="-1024.2" font-family="Arial" font-size="14.00" fill="#666666">[text]</text>
<polygon fill="none" stroke="black" points="616.1,-981.2 616.1,-1012 890.04,-1012 890.04,-981.2 616.1,-981.2"/>
<text text-anchor="start" x="623.1" y="-993.4" font-family="Arial" font-size="14.00">state_action_key </text>
<text text-anchor="start" x="732.06" y="-993.4" font-family="Arial" font-size="14.00" fill="#666666">[text]</text>
<polygon fill="none" stroke="black" points="616.1,-950.4 616.1,-981.2 890.04,-981.2 890.04,-950.4 616.1,-950.4"/>
<text text-anchor="start" x="623.1" y="-962.6" font-family="Arial" font-size="14.00">action_key </text>
<text text-anchor="start" x="693.92" y="-962.6" font-family="Arial" font-size="14.00" fill="#666666">[text]</text>
<polygon fill="none" stroke="black" points="616.1,-919.6 616.1,-950.4 890.04,-950.4 890.04,-919.6 616.1,-919.6"/>
<text text-anchor="start" x="623.1" y="-931.8" font-family="Arial" font-size="14.00">action_when </text>
<text text-anchor="start" x="705.6" y="-931.8" font-family="Arial" font-size="14.00" fill="#666666">[state_action_when]</text>
</g>
<!-- public.state_action&#45;&gt;public.action -->
<g id="edge3" class="edge">
<title>public.state_action:model_key&#45;&gt;public.action:model_key</title>
<path fill="none" stroke="black" d="M899.35,-1052.28C929.72,-1004.37 908.85,-681.6 870.05,-681.6"/>
<polygon fill="black" stroke="black" points="899.46,-1052.21 888.71,-1054.34 895.12,-1055.3 891.59,-1057.81 891.59,-1057.81 891.59,-1057.81 895.12,-1055.3 893.93,-1061.67 899.46,-1052.21"/>
<text text-anchor="start" x="898.04" y="-1068.2" font-family="Arial" font-size="10.00">FOREIGN KEY (model_key, action_key) REFERENCES action(model_key, action_key) ON DELETE CASCADE</text>
</g>
<!-- public.parameter -->
<g id="node5" class="node">
<title>public.parameter</title>
<polygon fill="#efefef" stroke="none" points="994.11,-1119.8 994.11,-1155.4 1254.04,-1155.4 1254.04,-1119.8 994.11,-1119.8"/>
<polygon fill="none" stroke="black" points="994.11,-1119.8 994.11,-1155.4 1254.04,-1155.4 1254.04,-1119.8 994.11,-1119.8"/>
<text text-anchor="start" x="1001.11" y="-1133.2" font-family="Arial Bold" font-size="18.00">public.parameter</text>
<text text-anchor="start" x="1122.55" y="-1133.2" font-family="Arial" font-size="14.00">    </text>
<text text-anchor="start" x="1153.66" y="-1133.2" font-family="Arial" font-size="14.00" fill="#666666">[BASE TABLE]</text>
<polygon fill="none" stroke="black" points="994.11,-1089 994.11,-1119.8 1254.04,-1119.8 1254.04,-1089 994.11,-1089"/>
<text text-anchor="start" x="1001.11" y="-1101.2" font-family="Arial" font-size="14.00">model_key </text>
<text text-anchor="start" x="1072.7" y="-1101.2" font-family="Arial" font-size="14.00" fill="#666666">[text]</text>
<polygon fill="none" stroke="black" points="994.11,-1058.2 994.11,-1089 1254.04,-1089 1254.04,-1058.2 994.11,-1058.2"/>
<text text-anchor="start" x="1001.11" y="-1070.4" font-family="Arial" font-size="14.00">parameter_key </text>
<text text-anchor="start" x="1098.38" y="-1070.4" font-family="Arial" font-size="14.00" fill="#666666">[text]</text>
<polygon fill="none" stroke="black" points="994.11,-1027.4 994.11,-1058.2 1254.04,-1058.2 1254.04,-1027.4 994.11,-1027.4"/>
<text text-anchor="start" x="1001.11" y="-1039.6" font-family="Arial" font-size="14.00">action_key </text>
<text text-anchor="start" x="1071.93" y="-1039.6" font-family="Arial" font-size="14.00" fill="#666666">[text]</text>
<polygon fill="none" stroke="black" points="994.11,-996.6 994.11,-1027.4 1254.04,-1027.4 1254.04,-996.6 994.11,-996.6"/>
<text text-anchor="start" x="1001.11" y="-1008.8" font-family="Arial" font-size="14.00">data_type_rules </text>
<text text-anchor="start" x="1104.62" y="-1008.8" font-family="Arial" font-size="14.00" fill="#666666">[text]</text>
<polygon fill="none" stroke="black" points="994.11,-965.8 994.11,-996.6 1254.04,-996.6 1254.04,-965.8 994.11,-965.8"/>
<text text-anchor="start" x="1001.11" y="-978" font-family="Arial" font-size="14.00">data_type_key </text>
<text text-anchor="start" x="1096.07" y="-978" font-family="Arial" font-size="14.00" fill="#666666">[text]</text>
<polygon fill="none" stroke="black" points="994.11,-935 994.11,-965.8 1254.04,-965.8 1254.04,-935 994.11,-935"/>
<text text-anchor="start" x="1001.11" y="-947.2" font-family="Arial" font-size="14.00">name </text>
<text text-anchor="start" x="1040.02" y="-947.2" font-family="Arial" font-size="14.00" fill="#666666">[text]</text>
<polygon fill="none" stroke="black" points="994.11,-904.2 994.11,-935 1254.04,-935 1254.04,-904.2 994.11,-904.2"/>
<text text-anchor="start" x="1001.11" y="-916.4" font-family="Arial" font-size="14.00">details </text>
<text text-anchor="start" x="1045.47" y="-916.4" font-family="Arial" font-size="14.00" fill="#666666">[text]</text>
<polygon fill="none" stroke="black" points="994.11,-873.4 994.11,-904.2 1254.04,-904.2 1254.04,-873.4 994.11,-873.4"/>
<text text-anchor="start" x="1001.11" y="-885.6" font-family="Arial" font-size="14.00">uml_comment </text>
<text text-anchor="start" x="1092.91" y="-885.6" font-family="Arial" font-size="14.00" fill="#666666">[text]</text>
</g>
<!-- public.parameter&#45;&gt;public.action -->
<g id="edge4" class="edge">
<title>public.parameter:model_key&#45;&gt;public.action:model_key</title>
<path fill="none" stroke="black" d="M982.95,-1102.28C931.63,-1079.12 962.34,-873.02 942.07,-814.8 919.94,-751.24 937.35,-681.6 870.05,-681.6"/>
<polygon fill="black" stroke="black" points="982.99,-1102.29 991.86,-1108.74 988.21,-1103.38 992.45,-1104.26 992.45,-1104.26 992.45,-1104.26 988.21,-1103.38 993.7,-1099.93 982.99,-1102.29"/>
<text text-anchor="start" x="1000.11" y="-1114.4" font-family="Arial" font-size="10.00">FOREIGN KEY (model_key, action_key) REFERENCES action(model_key, action_key) ON DELETE CASCADE</text>
</g>
</g>
</svg>
