<?xml version="1.0" encoding="UTF-8" standalone="no"?>
<!DOCTYPE svg PUBLIC "-//W3C//DTD SVG 1.1//EN"
 "http://www.w3.org/Graphics/SVG/1.1/DTD/svg11.dtd">
<!-- Generated by graphviz version 12.1.2 (20240928.0832)
 -->
<!-- Title: public.event Pages: 1 -->
<svg width="815pt" height="1191pt"
 viewBox="0.00 0.00 814.57 1191.20" xmlns="http://www.w3.org/2000/svg" xmlns:xlink="http://www.w3.org/1999/xlink">
<g id="graph0" class="graph" transform="scale(1 1) rotate(0) translate(4 1187.2)">
<title>public.event</title>
<polygon fill="white" stroke="none" points="-4,4 -4,-1187.2 810.57,-1187.2 810.57,4 -4,4"/>
<!-- public.event -->
<g id="node1" class="node">
<title>public.event</title>
<polygon fill="#efefef" stroke="none" points="57.71,-666.2 57.71,-701.8 284.67,-701.8 284.67,-666.2 57.71,-666.2"/>
<polygon fill="none" stroke="black" points="57.71,-666.2 57.71,-701.8 284.67,-701.8 284.67,-666.2 57.71,-666.2"/>
<text text-anchor="start" x="64.71" y="-679.6" font-family="Arial Bold" font-size="18.00">public.event</text>
<text text-anchor="start" x="153.18" y="-679.6" font-family="Arial" font-size="14.00">    </text>
<text text-anchor="start" x="184.29" y="-679.6" font-family="Arial" font-size="14.00" fill="#666666">[BASE TABLE]</text>
<polygon fill="none" stroke="black" points="57.71,-635.4 57.71,-666.2 284.67,-666.2 284.67,-635.4 57.71,-635.4"/>
<text text-anchor="start" x="64.71" y="-647.6" font-family="Arial" font-size="14.00">model_key </text>
<text text-anchor="start" x="136.3" y="-647.6" font-family="Arial" font-size="14.00" fill="#666666">[text]</text>
<polygon fill="none" stroke="black" points="57.71,-604.6 57.71,-635.4 284.67,-635.4 284.67,-604.6 57.71,-604.6"/>
<text text-anchor="start" x="64.71" y="-616.8" font-family="Arial" font-size="14.00">class_key </text>
<text text-anchor="start" x="130.06" y="-616.8" font-family="Arial" font-size="14.00" fill="#666666">[text]</text>
<polygon fill="none" stroke="black" points="57.71,-573.8 57.71,-604.6 284.67,-604.6 284.67,-573.8 57.71,-573.8"/>
<text text-anchor="start" x="64.71" y="-586" font-family="Arial" font-size="14.00">event_key </text>
<text text-anchor="start" x="132.42" y="-586" font-family="Arial" font-size="14.00" fill="#666666">[text]</text>
<polygon fill="none" stroke="black" points="57.71,-543 57.71,-573.8 284.67,-573.8 284.67,-543 57.71,-543"/>
<text text-anchor="start" x="64.71" y="-555.2" font-family="Arial" font-size="14.00">name </text>
<text text-anchor="start" x="103.62" y="-555.2" font-family="Arial" font-size="14.00" fill="#666666">[text]</text>
<polygon fill="none" stroke="black" points="57.71,-512.2 57.71,-543 284.67,-543 284.67,-512.2 57.71,-512.2"/>
<text text-anchor="start" x="64.71" y="-524.4" font-family="Arial" font-size="14.00">details </text>
<text text-anchor="start" x="109.06" y="-524.4" font-family="Arial" font-size="14.00" fill="#666666">[text]</text>
<polygon fill="none" stroke="black" points="57.71,-481.4 57.71,-512.2 284.67,-512.2 284.67,-481.4 57.71,-481.4"/>
<text text-anchor="start" x="64.71" y="-493.6" font-family="Arial" font-size="14.00">parameters </text>
<text text-anchor="start" x="139.4" y="-493.6" font-family="Arial" font-size="14.00" fill="#666666">[text[]]</text>
<polygon fill="none" stroke="black" stroke-width="3" points="56.21,-479.9 56.21,-703.3 286.17,-703.3 286.17,-479.9 56.21,-479.9"/>
</g>
<!-- public.class -->
<g id="node2" class="node">
<title>public.class</title>
<polygon fill="#efefef" stroke="none" points="59.7,-320.4 59.7,-356 282.67,-356 282.67,-320.4 59.7,-320.4"/>
<polygon fill="none" stroke="black" points="59.7,-320.4 59.7,-356 282.67,-356 282.67,-320.4 59.7,-320.4"/>
<text text-anchor="start" x="66.7" y="-333.8" font-family="Arial Bold" font-size="18.00">public.class</text>
<text text-anchor="start" x="151.18" y="-333.8" font-family="Arial" font-size="14.00">    </text>
<text text-anchor="start" x="182.3" y="-333.8" font-family="Arial" font-size="14.00" fill="#666666">[BASE TABLE]</text>
<polygon fill="none" stroke="black" points="59.7,-289.6 59.7,-320.4 282.67,-320.4 282.67,-289.6 59.7,-289.6"/>
<text text-anchor="start" x="66.7" y="-301.8" font-family="Arial" font-size="14.00">model_key </text>
<text text-anchor="start" x="138.29" y="-301.8" font-family="Arial" font-size="14.00" fill="#666666">[text]</text>
<polygon fill="none" stroke="black" points="59.7,-258.8 59.7,-289.6 282.67,-289.6 282.67,-258.8 59.7,-258.8"/>
<text text-anchor="start" x="66.7" y="-271" font-family="Arial" font-size="14.00">class_key </text>
<text text-anchor="start" x="132.06" y="-271" font-family="Arial" font-size="14.00" fill="#666666">[text]</text>
<polygon fill="none" stroke="black" points="59.7,-228 59.7,-258.8 282.67,-258.8 282.67,-228 59.7,-228"/>
<text text-anchor="start" x="66.7" y="-240.2" font-family="Arial" font-size="14.00">name </text>
<text text-anchor="start" x="105.61" y="-240.2" font-family="Arial" font-size="14.00" fill="#666666">[text]</text>
<polygon fill="none" stroke="black" points="59.7,-197.2 59.7,-228 282.67,-228 282.67,-197.2 59.7,-197.2"/>
<text text-anchor="start" x="66.7" y="-209.4" font-family="Arial" font-size="14.00">subdomain_key </text>
<text text-anchor="start" x="168.65" y="-209.4" font-family="Arial" font-size="14.00" fill="#666666">[text]</text>
<polygon fill="none" stroke="black" points="59.7,-166.4 59.7,-197.2 282.67,-197.2 282.67,-166.4 59.7,-166.4"/>
<text text-anchor="start" x="66.7" y="-178.6" font-family="Arial" font-size="14.00">actor_key </text>
<text text-anchor="start" x="131.29" y="-178.6" font-family="Arial" font-size="14.00" fill="#666666">[text]</text>
<polygon fill="none" stroke="black" points="59.7,-135.6 59.7,-166.4 282.67,-166.4 282.67,-135.6 59.7,-135.6"/>
<text text-anchor="start" x="66.7" y="-147.8" font-family="Arial" font-size="14.00">superclass_of_key </text>
<text text-anchor="start" x="186.54" y="-147.8" font-family="Arial" font-size="14.00" fill="#666666">[text]</text>
<polygon fill="none" stroke="black" points="59.7,-104.8 59.7,-135.6 282.67,-135.6 282.67,-104.8 59.7,-104.8"/>
<text text-anchor="start" x="66.7" y="-117" font-family="Arial" font-size="14.00">subclass_of_key </text>
<text text-anchor="start" x="174.09" y="-117" font-family="Arial" font-size="14.00" fill="#666666">[text]</text>
<polygon fill="none" stroke="black" points="59.7,-74 59.7,-104.8 282.67,-104.8 282.67,-74 59.7,-74"/>
<text text-anchor="start" x="66.7" y="-86.2" font-family="Arial" font-size="14.00">details </text>
<text text-anchor="start" x="111.06" y="-86.2" font-family="Arial" font-size="14.00" fill="#666666">[text]</text>
<polygon fill="none" stroke="black" points="59.7,-43.2 59.7,-74 282.67,-74 282.67,-43.2 59.7,-43.2"/>
<text text-anchor="start" x="66.7" y="-55.4" font-family="Arial" font-size="14.00">uml_comment </text>
<text text-anchor="start" x="158.51" y="-55.4" font-family="Arial" font-size="14.00" fill="#666666">[text]</text>
</g>
<!-- public.event&#45;&gt;public.class -->
<g id="edge1" class="edge">
<title>public.event:model_key&#45;&gt;public.class:model_key</title>
<path fill="none" stroke="black" d="M295.55,-648.77C362.18,-620.43 357.06,-305 283.67,-305"/>
<polygon fill="black" stroke="black" points="295.79,-648.72 285.09,-646.32 290.56,-649.79 286.32,-650.67 286.32,-650.67 286.32,-650.67 290.56,-649.79 286.9,-655.14 295.79,-648.72"/>
<text text-anchor="start" x="292.67" y="-660.8" font-family="Arial" font-size="10.00">FOREIGN KEY (model_key, class_key) REFERENCES class(model_key, class_key) ON DELETE CASCADE</text>
</g>
<!-- public.transition -->
<g id="node3" class="node">
<title>public.transition</title>
<polygon fill="#efefef" stroke="none" points="43.2,-1104.4 43.2,-1140 299.17,-1140 299.17,-1104.4 43.2,-1104.4"/>
<polygon fill="none" stroke="black" points="43.2,-1104.4 43.2,-1140 299.17,-1140 299.17,-1104.4 43.2,-1104.4"/>
<text text-anchor="start" x="50.2" y="-1117.8" font-family="Arial Bold" font-size="18.00">public.transition</text>
<text text-anchor="start" x="167.68" y="-1117.8" font-family="Arial" font-size="14.00">    </text>
<text text-anchor="start" x="198.8" y="-1117.8" font-family="Arial" font-size="14.00" fill="#666666">[BASE TABLE]</text>
<polygon fill="none" stroke="black" points="43.2,-1073.6 43.2,-1104.4 299.17,-1104.4 299.17,-1073.6 43.2,-1073.6"/>
<text text-anchor="start" x="50.2" y="-1085.8" font-family="Arial" font-size="14.00">model_key </text>
<text text-anchor="start" x="121.79" y="-1085.8" font-family="Arial" font-size="14.00" fill="#666666">[text]</text>
<polygon fill="none" stroke="black" points="43.2,-1042.8 43.2,-1073.6 299.17,-1073.6 299.17,-1042.8 43.2,-1042.8"/>
<text text-anchor="start" x="50.2" y="-1055" font-family="Arial" font-size="14.00">class_key </text>
<text text-anchor="start" x="115.56" y="-1055" font-family="Arial" font-size="14.00" fill="#666666">[text]</text>
<polygon fill="none" stroke="black" points="43.2,-1012 43.2,-1042.8 299.17,-1042.8 299.17,-1012 43.2,-1012"/>
<text text-anchor="start" x="50.2" y="-1024.2" font-family="Arial" font-size="14.00">transition_key </text>
<text text-anchor="start" x="140.47" y="-1024.2" font-family="Arial" font-size="14.00" fill="#666666">[text]</text>
<polygon fill="none" stroke="black" points="43.2,-981.2 43.2,-1012 299.17,-1012 299.17,-981.2 43.2,-981.2"/>
<text text-anchor="start" x="50.2" y="-993.4" font-family="Arial" font-size="14.00">from_state_key </text>
<text text-anchor="start" x="149.8" y="-993.4" font-family="Arial" font-size="14.00" fill="#666666">[text]</text>
<polygon fill="none" stroke="black" points="43.2,-950.4 43.2,-981.2 299.17,-981.2 299.17,-950.4 43.2,-950.4"/>
<text text-anchor="start" x="50.2" y="-962.6" font-family="Arial" font-size="14.00">event_key </text>
<text text-anchor="start" x="117.91" y="-962.6" font-family="Arial" font-size="14.00" fill="#666666">[text]</text>
<polygon fill="none" stroke="black" points="43.2,-919.6 43.2,-950.4 299.17,-950.4 299.17,-919.6 43.2,-919.6"/>
<text text-anchor="start" x="50.2" y="-931.8" font-family="Arial" font-size="14.00">guard_key </text>
<text text-anchor="start" x="119.47" y="-931.8" font-family="Arial" font-size="14.00" fill="#666666">[text]</text>
<polygon fill="none" stroke="black" points="43.2,-888.8 43.2,-919.6 299.17,-919.6 299.17,-888.8 43.2,-888.8"/>
<text text-anchor="start" x="50.2" y="-901" font-family="Arial" font-size="14.00">action_key </text>
<text text-anchor="start" x="121.02" y="-901" font-family="Arial" font-size="14.00" fill="#666666">[text]</text>
<polygon fill="none" stroke="black" points="43.2,-858 43.2,-888.8 299.17,-888.8 299.17,-858 43.2,-858"/>
<text text-anchor="start" x="50.2" y="-870.2" font-family="Arial" font-size="14.00">to_state_key </text>
<text text-anchor="start" x="133.48" y="-870.2" font-family="Arial" font-size="14.00" fill="#666666">[text]</text>
<polygon fill="none" stroke="black" points="43.2,-827.2 43.2,-858 299.17,-858 299.17,-827.2 43.2,-827.2"/>
<text text-anchor="start" x="50.2" y="-839.4" font-family="Arial" font-size="14.00">uml_comment </text>
<text text-anchor="start" x="142.01" y="-839.4" font-family="Arial" font-size="14.00" fill="#666666">[text]</text>
</g>
<!-- public.transition&#45;&gt;public.event -->
<g id="edge2" class="edge">
<title>public.transition:model_key&#45;&gt;public.event:model_key</title>
<path fill="none" stroke="black" d="M310.3,-1087.33C396.45,-1057.91 379.58,-650.8 285.67,-650.8"/>
<polygon fill="black" stroke="black" points="310.37,-1087.31 299.77,-1084.51 305.11,-1088.18 300.83,-1088.89 300.83,-1088.89 300.83,-1088.89 305.11,-1088.18 301.24,-1093.39 310.37,-1087.31"/>
<text text-anchor="start" x="307.17" y="-1099" font-family="Arial" font-size="10.00">FOREIGN KEY (model_key, event_key) REFERENCES event(model_key, event_key) ON DELETE CASCADE</text>
</g>
</g>
</svg>
