<?xml version="1.0" encoding="UTF-8" standalone="no"?>
<!DOCTYPE svg PUBLIC "-//W3C//DTD SVG 1.1//EN"
 "http://www.w3.org/Graphics/SVG/1.1/DTD/svg11.dtd">
<!-- Generated by graphviz version 12.1.2 (20240928.0832)
 -->
<!-- Title: public.logic Pages: 1 -->
<svg width="4209pt" height="1099pt"
 viewBox="0.00 0.00 4209.46 1098.80" xmlns="http://www.w3.org/2000/svg" xmlns:xlink="http://www.w3.org/1999/xlink">
<g id="graph0" class="graph" transform="scale(1 1) rotate(0) translate(4 1094.8)">
<title>public.logic</title>
<polygon fill="white" stroke="none" points="-4,4 -4,-1094.8 4205.46,-1094.8 4205.46,4 -4,4"/>
<!-- public.logic -->
<g id="node1" class="node">
<title>public.logic</title>
<polygon fill="#efefef" stroke="none" points="1989.74,-543 1989.74,-578.6 2213.71,-578.6 2213.71,-543 1989.74,-543"/>
<polygon fill="none" stroke="black" points="1989.74,-543 1989.74,-578.6 2213.71,-578.6 2213.71,-543 1989.74,-543"/>
<text text-anchor="start" x="1996.74" y="-556.4" font-family="Arial Bold" font-size="18.00">public.logic</text>
<text text-anchor="start" x="2082.22" y="-556.4" font-family="Arial" font-size="14.00">    </text>
<text text-anchor="start" x="2113.34" y="-556.4" font-family="Arial" font-size="14.00" fill="#666666">[BASE TABLE]</text>
<polygon fill="none" stroke="black" points="1989.74,-512.2 1989.74,-543 2213.71,-543 2213.71,-512.2 1989.74,-512.2"/>
<text text-anchor="start" x="1996.74" y="-524.4" font-family="Arial" font-size="14.00">logic_key </text>
<text text-anchor="start" x="2058.99" y="-524.4" font-family="Arial" font-size="14.00" fill="#666666">[text]</text>
<polygon fill="none" stroke="black" points="1989.74,-481.4 1989.74,-512.2 2213.71,-512.2 2213.71,-481.4 1989.74,-481.4"/>
<text text-anchor="start" x="1996.74" y="-493.6" font-family="Arial" font-size="14.00">model_key </text>
<text text-anchor="start" x="2068.33" y="-493.6" font-family="Arial" font-size="14.00" fill="#666666">[text]</text>
<polygon fill="none" stroke="black" points="1989.74,-450.6 1989.74,-481.4 2213.71,-481.4 2213.71,-450.6 1989.74,-450.6"/>
<text text-anchor="start" x="1996.74" y="-462.8" font-family="Arial" font-size="14.00">sort_order </text>
<text text-anchor="start" x="2064.44" y="-462.8" font-family="Arial" font-size="14.00" fill="#666666">[integer]</text>
<polygon fill="none" stroke="black" points="1989.74,-419.8 1989.74,-450.6 2213.71,-450.6 2213.71,-419.8 1989.74,-419.8"/>
<text text-anchor="start" x="1996.74" y="-432" font-family="Arial" font-size="14.00">logic_type </text>
<text text-anchor="start" x="2063.67" y="-432" font-family="Arial" font-size="14.00" fill="#666666">[logic_type]</text>
<polygon fill="none" stroke="black" points="1989.74,-389 1989.74,-419.8 2213.71,-419.8 2213.71,-389 1989.74,-389"/>
<text text-anchor="start" x="1996.74" y="-401.2" font-family="Arial" font-size="14.00">description </text>
<text text-anchor="start" x="2068.33" y="-401.2" font-family="Arial" font-size="14.00" fill="#666666">[text]</text>
<polygon fill="none" stroke="black" points="1989.74,-358.2 1989.74,-389 2213.71,-389 2213.71,-358.2 1989.74,-358.2"/>
<text text-anchor="start" x="1996.74" y="-370.4" font-family="Arial" font-size="14.00">target </text>
<text text-anchor="start" x="2036.43" y="-370.4" font-family="Arial" font-size="14.00" fill="#666666">[text]</text>
<polygon fill="none" stroke="black" points="1989.74,-327.4 1989.74,-358.2 2213.71,-358.2 2213.71,-327.4 1989.74,-327.4"/>
<text text-anchor="start" x="1996.74" y="-339.6" font-family="Arial" font-size="14.00">notation </text>
<text text-anchor="start" x="2050.45" y="-339.6" font-family="Arial" font-size="14.00" fill="#666666">[notation]</text>
<polygon fill="none" stroke="black" points="1989.74,-296.6 1989.74,-327.4 2213.71,-327.4 2213.71,-296.6 1989.74,-296.6"/>
<text text-anchor="start" x="1996.74" y="-308.8" font-family="Arial" font-size="14.00">specification </text>
<text text-anchor="start" x="2077.67" y="-308.8" font-family="Arial" font-size="14.00" fill="#666666">[text]</text>
<polygon fill="none" stroke="black" stroke-width="3" points="1988.24,-295.1 1988.24,-580.1 2215.21,-580.1 2215.21,-295.1 1988.24,-295.1"/>
</g>
<!-- public.model -->
<g id="node12" class="node">
<title>public.model</title>
<polygon fill="#efefef" stroke="none" points="1985.24,-135.6 1985.24,-171.2 2218.21,-171.2 2218.21,-135.6 1985.24,-135.6"/>
<polygon fill="none" stroke="black" points="1985.24,-135.6 1985.24,-171.2 2218.21,-171.2 2218.21,-135.6 1985.24,-135.6"/>
<text text-anchor="start" x="1992.24" y="-149" font-family="Arial Bold" font-size="18.00">public.model</text>
<text text-anchor="start" x="2086.72" y="-149" font-family="Arial" font-size="14.00">    </text>
<text text-anchor="start" x="2117.84" y="-149" font-family="Arial" font-size="14.00" fill="#666666">[BASE TABLE]</text>
<polygon fill="none" stroke="black" points="1985.24,-104.8 1985.24,-135.6 2218.21,-135.6 2218.21,-104.8 1985.24,-104.8"/>
<text text-anchor="start" x="1992.24" y="-117" font-family="Arial" font-size="14.00">model_key </text>
<text text-anchor="start" x="2063.83" y="-117" font-family="Arial" font-size="14.00" fill="#666666">[text]</text>
<polygon fill="none" stroke="black" points="1985.24,-74 1985.24,-104.8 2218.21,-104.8 2218.21,-74 1985.24,-74"/>
<text text-anchor="start" x="1992.24" y="-86.2" font-family="Arial" font-size="14.00">name </text>
<text text-anchor="start" x="2031.15" y="-86.2" font-family="Arial" font-size="14.00" fill="#666666">[text]</text>
<polygon fill="none" stroke="black" points="1985.24,-43.2 1985.24,-74 2218.21,-74 2218.21,-43.2 1985.24,-43.2"/>
<text text-anchor="start" x="1992.24" y="-55.4" font-family="Arial" font-size="14.00">details </text>
<text text-anchor="start" x="2036.6" y="-55.4" font-family="Arial" font-size="14.00" fill="#666666">[text]</text>
</g>
<!-- public.logic&#45;&gt;public.model -->
<g id="edge11" class="edge">
<title>public.logic:model_key&#45;&gt;public.model:model_key</title>
<path fill="none" stroke="black" d="M2224.8,-496.33C2382.21,-481.51 2383.17,-120.2 2219.21,-120.2"/>
<polygon fill="black" stroke="black" points="2225.03,-496.32 2214.84,-492.29 2219.71,-496.57 2215.38,-496.77 2215.38,-496.77 2215.38,-496.77 2219.71,-496.57 2215.25,-501.28 2225.03,-496.32"/>
<text text-anchor="start" x="2221.71" y="-506.8" font-family="Arial" font-size="10.00">FOREIGN KEY (model_key) REFERENCES model(model_key) ON DELETE CASCADE</text>
</g>
<!-- public.invariant -->
<g id="node2" class="node">
<title>public.invariant</title>
<polygon fill="#efefef" stroke="none" points="241.75,-888.8 241.75,-924.4 493.7,-924.4 493.7,-888.8 241.75,-888.8"/>
<polygon fill="none" stroke="black" points="241.75,-888.8 241.75,-924.4 493.7,-924.4 493.7,-888.8 241.75,-888.8"/>
<text text-anchor="start" x="248.75" y="-902.2" font-family="Arial Bold" font-size="18.00">public.invariant</text>
<text text-anchor="start" x="362.21" y="-902.2" font-family="Arial" font-size="14.00">    </text>
<text text-anchor="start" x="393.33" y="-902.2" font-family="Arial" font-size="14.00" fill="#666666">[BASE TABLE]</text>
<polygon fill="none" stroke="black" points="241.75,-858 241.75,-888.8 493.7,-888.8 493.7,-858 241.75,-858"/>
<text text-anchor="start" x="248.75" y="-870.2" font-family="Arial" font-size="14.00">model_key </text>
<text text-anchor="start" x="320.34" y="-870.2" font-family="Arial" font-size="14.00" fill="#666666">[text]</text>
<polygon fill="none" stroke="black" points="241.75,-827.2 241.75,-858 493.7,-858 493.7,-827.2 241.75,-827.2"/>
<text text-anchor="start" x="248.75" y="-839.4" font-family="Arial" font-size="14.00">logic_key </text>
<text text-anchor="start" x="311" y="-839.4" font-family="Arial" font-size="14.00" fill="#666666">[text]</text>
</g>
<!-- public.invariant&#45;&gt;public.logic -->
<g id="edge1" class="edge">
<title>public.invariant:model_key&#45;&gt;public.logic:model_key</title>
<path fill="none" stroke="black" d="M504.65,-872.8C583.31,-862.51 475.64,-722.79 545.73,-660.8 666.59,-553.89 1827.37,-496.8 1988.74,-496.8"/>
<polygon fill="black" stroke="black" points="505.02,-872.78 494.77,-868.89 499.69,-873.1 495.37,-873.36 495.37,-873.36 495.37,-873.36 499.69,-873.1 495.31,-877.87 505.02,-872.78"/>
<text text-anchor="start" x="7" y="-883.4" font-family="Arial" font-size="10.00">FOREIGN KEY (model_key, logic_key) REFERENCES logic(model_key, logic_key) ON DELETE CASCADE</text>
</g>
<!-- public.global_function -->
<g id="node3" class="node">
<title>public.global_function</title>
<polygon fill="#efefef" stroke="none" points="597.75,-919.6 597.75,-955.2 899.7,-955.2 899.7,-919.6 597.75,-919.6"/>
<polygon fill="none" stroke="black" points="597.75,-919.6 597.75,-955.2 899.7,-955.2 899.7,-919.6 597.75,-919.6"/>
<text text-anchor="start" x="604.75" y="-933" font-family="Arial Bold" font-size="18.00">public.global_function</text>
<text text-anchor="start" x="768.21" y="-933" font-family="Arial" font-size="14.00">    </text>
<text text-anchor="start" x="799.33" y="-933" font-family="Arial" font-size="14.00" fill="#666666">[BASE TABLE]</text>
<polygon fill="none" stroke="black" points="597.75,-888.8 597.75,-919.6 899.7,-919.6 899.7,-888.8 597.75,-888.8"/>
<text text-anchor="start" x="604.75" y="-901" font-family="Arial" font-size="14.00">model_key </text>
<text text-anchor="start" x="676.34" y="-901" font-family="Arial" font-size="14.00" fill="#666666">[text]</text>
<polygon fill="none" stroke="black" points="597.75,-858 597.75,-888.8 899.7,-888.8 899.7,-858 597.75,-858"/>
<text text-anchor="start" x="604.75" y="-870.2" font-family="Arial" font-size="14.00">logic_key </text>
<text text-anchor="start" x="667" y="-870.2" font-family="Arial" font-size="14.00" fill="#666666">[text]</text>
<polygon fill="none" stroke="black" points="597.75,-827.2 597.75,-858 899.7,-858 899.7,-827.2 597.75,-827.2"/>
<text text-anchor="start" x="604.75" y="-839.4" font-family="Arial" font-size="14.00">name </text>
<text text-anchor="start" x="643.66" y="-839.4" font-family="Arial" font-size="14.00" fill="#666666">[text]</text>
<polygon fill="none" stroke="black" points="597.75,-796.4 597.75,-827.2 899.7,-827.2 899.7,-796.4 597.75,-796.4"/>
<text text-anchor="start" x="604.75" y="-808.6" font-family="Arial" font-size="14.00">parameters </text>
<text text-anchor="start" x="679.44" y="-808.6" font-family="Arial" font-size="14.00" fill="#666666">[text[]]</text>
</g>
<!-- public.global_function&#45;&gt;public.logic -->
<g id="edge2" class="edge">
<title>public.global_function:model_key&#45;&gt;public.logic:model_key</title>
<path fill="none" stroke="black" d="M910.9,-903.66C1002.21,-893.2 874.31,-734.46 951.73,-660.8 1120.76,-499.98 1755.43,-496.8 1988.74,-496.8"/>
<polygon fill="black" stroke="black" points="911.02,-903.65 900.8,-899.69 905.7,-903.93 901.37,-904.16 901.37,-904.16 901.37,-904.16 905.7,-903.93 901.28,-908.68 911.02,-903.65"/>
<text text-anchor="start" x="413" y="-914.2" font-family="Arial" font-size="10.00">FOREIGN KEY (model_key, logic_key) REFERENCES logic(model_key, logic_key) ON DELETE CASCADE</text>
</g>
<!-- public.attribute -->
<g id="node4" class="node">
<title>public.attribute</title>
<polygon fill="#efefef" stroke="none" points="1003.75,-1012 1003.75,-1047.6 1251.7,-1047.6 1251.7,-1012 1003.75,-1012"/>
<polygon fill="none" stroke="black" points="1003.75,-1012 1003.75,-1047.6 1251.7,-1047.6 1251.7,-1012 1003.75,-1012"/>
<text text-anchor="start" x="1010.75" y="-1025.4" font-family="Arial Bold" font-size="18.00">public.attribute</text>
<text text-anchor="start" x="1120.21" y="-1025.4" font-family="Arial" font-size="14.00">    </text>
<text text-anchor="start" x="1151.33" y="-1025.4" font-family="Arial" font-size="14.00" fill="#666666">[BASE TABLE]</text>
<polygon fill="none" stroke="black" points="1003.75,-981.2 1003.75,-1012 1251.7,-1012 1251.7,-981.2 1003.75,-981.2"/>
<text text-anchor="start" x="1010.75" y="-993.4" font-family="Arial" font-size="14.00">model_key </text>
<text text-anchor="start" x="1082.34" y="-993.4" font-family="Arial" font-size="14.00" fill="#666666">[text]</text>
<polygon fill="none" stroke="black" points="1003.75,-950.4 1003.75,-981.2 1251.7,-981.2 1251.7,-950.4 1003.75,-950.4"/>
<text text-anchor="start" x="1010.75" y="-962.6" font-family="Arial" font-size="14.00">attribute_key </text>
<text text-anchor="start" x="1094.79" y="-962.6" font-family="Arial" font-size="14.00" fill="#666666">[text]</text>
<polygon fill="none" stroke="black" points="1003.75,-919.6 1003.75,-950.4 1251.7,-950.4 1251.7,-919.6 1003.75,-919.6"/>
<text text-anchor="start" x="1010.75" y="-931.8" font-family="Arial" font-size="14.00">class_key </text>
<text text-anchor="start" x="1076.1" y="-931.8" font-family="Arial" font-size="14.00" fill="#666666">[text]</text>
<polygon fill="none" stroke="black" points="1003.75,-888.8 1003.75,-919.6 1251.7,-919.6 1251.7,-888.8 1003.75,-888.8"/>
<text text-anchor="start" x="1010.75" y="-901" font-family="Arial" font-size="14.00">name </text>
<text text-anchor="start" x="1049.66" y="-901" font-family="Arial" font-size="14.00" fill="#666666">[text]</text>
<polygon fill="none" stroke="black" points="1003.75,-858 1003.75,-888.8 1251.7,-888.8 1251.7,-858 1003.75,-858"/>
<text text-anchor="start" x="1010.75" y="-870.2" font-family="Arial" font-size="14.00">details </text>
<text text-anchor="start" x="1055.1" y="-870.2" font-family="Arial" font-size="14.00" fill="#666666">[text]</text>
<polygon fill="none" stroke="black" points="1003.75,-827.2 1003.75,-858 1251.7,-858 1251.7,-827.2 1003.75,-827.2"/>
<text text-anchor="start" x="1010.75" y="-839.4" font-family="Arial" font-size="14.00">data_type_rules </text>
<text text-anchor="start" x="1114.26" y="-839.4" font-family="Arial" font-size="14.00" fill="#666666">[text]</text>
<polygon fill="none" stroke="black" points="1003.75,-796.4 1003.75,-827.2 1251.7,-827.2 1251.7,-796.4 1003.75,-796.4"/>
<text text-anchor="start" x="1010.75" y="-808.6" font-family="Arial" font-size="14.00">data_type_key </text>
<text text-anchor="start" x="1105.7" y="-808.6" font-family="Arial" font-size="14.00" fill="#666666">[text]</text>
<polygon fill="none" stroke="black" points="1003.75,-765.6 1003.75,-796.4 1251.7,-796.4 1251.7,-765.6 1003.75,-765.6"/>
<text text-anchor="start" x="1010.75" y="-777.8" font-family="Arial" font-size="14.00">derivation_policy_key </text>
<text text-anchor="start" x="1148.49" y="-777.8" font-family="Arial" font-size="14.00" fill="#666666">[text]</text>
<polygon fill="none" stroke="black" points="1003.75,-734.8 1003.75,-765.6 1251.7,-765.6 1251.7,-734.8 1003.75,-734.8"/>
<text text-anchor="start" x="1010.75" y="-747" font-family="Arial" font-size="14.00">nullable </text>
<text text-anchor="start" x="1062.9" y="-747" font-family="Arial" font-size="14.00" fill="#666666">[boolean]</text>
<polygon fill="none" stroke="black" points="1003.75,-704 1003.75,-734.8 1251.7,-734.8 1251.7,-704 1003.75,-704"/>
<text text-anchor="start" x="1010.75" y="-716.2" font-family="Arial" font-size="14.00">uml_comment </text>
<text text-anchor="start" x="1102.55" y="-716.2" font-family="Arial" font-size="14.00" fill="#666666">[text]</text>
</g>
<!-- public.attribute&#45;&gt;public.logic -->
<g id="edge3" class="edge">
<title>public.attribute:model_key&#45;&gt;public.logic:model_key</title>
<path fill="none" stroke="black" d="M1262.71,-994.65C1321.11,-969.77 1255.14,-713.66 1303.73,-660.8 1409.65,-545.56 1832.21,-496.8 1988.74,-496.8"/>
<polygon fill="black" stroke="black" points="1262.85,-994.63 1252.17,-992.12 1257.61,-995.65 1253.36,-996.47 1253.36,-996.47 1253.36,-996.47 1257.61,-995.65 1253.89,-1000.95 1262.85,-994.63"/>
<text text-anchor="start" x="1259.7" y="-1006.6" font-family="Arial" font-size="10.00">FOREIGN KEY (model_key, derivation_policy_key) REFERENCES logic(model_key, logic_key) ON DELETE CASCADE</text>
</g>
<!-- public.class_invariant -->
<g id="node5" class="node">
<title>public.class_invariant</title>
<polygon fill="#efefef" stroke="none" points="1355.75,-904.2 1355.75,-939.8 1651.7,-939.8 1651.7,-904.2 1355.75,-904.2"/>
<polygon fill="none" stroke="black" points="1355.75,-904.2 1355.75,-939.8 1651.7,-939.8 1651.7,-904.2 1355.75,-904.2"/>
<text text-anchor="start" x="1362.75" y="-917.6" font-family="Arial Bold" font-size="18.00">public.class_invariant</text>
<text text-anchor="start" x="1520.21" y="-917.6" font-family="Arial" font-size="14.00">    </text>
<text text-anchor="start" x="1551.33" y="-917.6" font-family="Arial" font-size="14.00" fill="#666666">[BASE TABLE]</text>
<polygon fill="none" stroke="black" points="1355.75,-873.4 1355.75,-904.2 1651.7,-904.2 1651.7,-873.4 1355.75,-873.4"/>
<text text-anchor="start" x="1362.75" y="-885.6" font-family="Arial" font-size="14.00">model_key </text>
<text text-anchor="start" x="1434.35" y="-885.6" font-family="Arial" font-size="14.00" fill="#666666">[text]</text>
<polygon fill="none" stroke="black" points="1355.75,-842.6 1355.75,-873.4 1651.7,-873.4 1651.7,-842.6 1355.75,-842.6"/>
<text text-anchor="start" x="1362.75" y="-854.8" font-family="Arial" font-size="14.00">class_key </text>
<text text-anchor="start" x="1428.11" y="-854.8" font-family="Arial" font-size="14.00" fill="#666666">[text]</text>
<polygon fill="none" stroke="black" points="1355.75,-811.8 1355.75,-842.6 1651.7,-842.6 1651.7,-811.8 1355.75,-811.8"/>
<text text-anchor="start" x="1362.75" y="-824" font-family="Arial" font-size="14.00">logic_key </text>
<text text-anchor="start" x="1425.01" y="-824" font-family="Arial" font-size="14.00" fill="#666666">[text]</text>
</g>
<!-- public.class_invariant&#45;&gt;public.logic -->
<g id="edge4" class="edge">
<title>public.class_invariant:model_key&#45;&gt;public.logic:model_key</title>
<path fill="none" stroke="black" d="M1663.12,-888.24C1748.5,-878.45 1644.4,-741.41 1703.73,-660.8 1790.35,-543.09 1842.59,-496.8 1988.74,-496.8"/>
<polygon fill="black" stroke="black" points="1663.02,-888.25 1652.79,-884.29 1657.69,-888.53 1653.37,-888.76 1653.37,-888.76 1653.37,-888.76 1657.69,-888.53 1653.27,-893.28 1663.02,-888.25"/>
<text text-anchor="start" x="1164.99" y="-898.8" font-family="Arial" font-size="10.00">FOREIGN KEY (model_key, logic_key) REFERENCES logic(model_key, logic_key) ON DELETE CASCADE</text>
</g>
<!-- public.query_require -->
<g id="node6" class="node">
<title>public.query_require</title>
<polygon fill="#efefef" stroke="none" points="1756.26,-904.2 1756.26,-939.8 2045.19,-939.8 2045.19,-904.2 1756.26,-904.2"/>
<polygon fill="none" stroke="black" points="1756.26,-904.2 1756.26,-939.8 2045.19,-939.8 2045.19,-904.2 1756.26,-904.2"/>
<text text-anchor="start" x="1763.26" y="-917.6" font-family="Arial Bold" font-size="18.00">public.query_require</text>
<text text-anchor="start" x="1913.7" y="-917.6" font-family="Arial" font-size="14.00">    </text>
<text text-anchor="start" x="1944.82" y="-917.6" font-family="Arial" font-size="14.00" fill="#666666">[BASE TABLE]</text>
<polygon fill="none" stroke="black" points="1756.26,-873.4 1756.26,-904.2 2045.19,-904.2 2045.19,-873.4 1756.26,-873.4"/>
<text text-anchor="start" x="1763.26" y="-885.6" font-family="Arial" font-size="14.00">model_key </text>
<text text-anchor="start" x="1834.85" y="-885.6" font-family="Arial" font-size="14.00" fill="#666666">[text]</text>
<polygon fill="none" stroke="black" points="1756.26,-842.6 1756.26,-873.4 2045.19,-873.4 2045.19,-842.6 1756.26,-842.6"/>
<text text-anchor="start" x="1763.26" y="-854.8" font-family="Arial" font-size="14.00">query_key </text>
<text text-anchor="start" x="1831.74" y="-854.8" font-family="Arial" font-size="14.00" fill="#666666">[text]</text>
<polygon fill="none" stroke="black" points="1756.26,-811.8 1756.26,-842.6 2045.19,-842.6 2045.19,-811.8 1756.26,-811.8"/>
<text text-anchor="start" x="1763.26" y="-824" font-family="Arial" font-size="14.00">logic_key </text>
<text text-anchor="start" x="1825.51" y="-824" font-family="Arial" font-size="14.00" fill="#666666">[text]</text>
</g>
<!-- public.query_require&#45;&gt;public.logic -->
<g id="edge5" class="edge">
<title>public.query_require:model_key&#45;&gt;public.logic:model_key</title>
<path fill="none" stroke="black" d="M2056.3,-888.31C2205.72,-872.89 1816.27,-496.8 1988.74,-496.8"/>
<polygon fill="black" stroke="black" points="2056.51,-888.3 2046.31,-884.29 2051.19,-888.56 2046.86,-888.77 2046.86,-888.77 2046.86,-888.77 2051.19,-888.56 2046.74,-893.28 2056.51,-888.3"/>
<text text-anchor="start" x="1805.84" y="-872.8" font-family="Arial" font-size="10.00">FOREIGN KEY (model_key, logic_key) REFERENCES logic(model_key, logic_key) ON DELETE CASCADE</text>
</g>
<!-- public.query_guarantee -->
<g id="node7" class="node">
<title>public.query_guarantee</title>
<polygon fill="#efefef" stroke="none" points="2149.77,-904.2 2149.77,-939.8 2457.68,-939.8 2457.68,-904.2 2149.77,-904.2"/>
<polygon fill="none" stroke="black" points="2149.77,-904.2 2149.77,-939.8 2457.68,-939.8 2457.68,-904.2 2149.77,-904.2"/>
<text text-anchor="start" x="2156.77" y="-917.6" font-family="Arial Bold" font-size="18.00">public.query_guarantee</text>
<text text-anchor="start" x="2326.19" y="-917.6" font-family="Arial" font-size="14.00">    </text>
<text text-anchor="start" x="2357.31" y="-917.6" font-family="Arial" font-size="14.00" fill="#666666">[BASE TABLE]</text>
<polygon fill="none" stroke="black" points="2149.77,-873.4 2149.77,-904.2 2457.68,-904.2 2457.68,-873.4 2149.77,-873.4"/>
<text text-anchor="start" x="2156.77" y="-885.6" font-family="Arial" font-size="14.00">model_key </text>
<text text-anchor="start" x="2228.36" y="-885.6" font-family="Arial" font-size="14.00" fill="#666666">[text]</text>
<polygon fill="none" stroke="black" points="2149.77,-842.6 2149.77,-873.4 2457.68,-873.4 2457.68,-842.6 2149.77,-842.6"/>
<text text-anchor="start" x="2156.77" y="-854.8" font-family="Arial" font-size="14.00">query_key </text>
<text text-anchor="start" x="2225.25" y="-854.8" font-family="Arial" font-size="14.00" fill="#666666">[text]</text>
<polygon fill="none" stroke="black" points="2149.77,-811.8 2149.77,-842.6 2457.68,-842.6 2457.68,-811.8 2149.77,-811.8"/>
<text text-anchor="start" x="2156.77" y="-824" font-family="Arial" font-size="14.00">logic_key </text>
<text text-anchor="start" x="2219.02" y="-824" font-family="Arial" font-size="14.00" fill="#666666">[text]</text>
</g>
<!-- public.query_guarantee&#45;&gt;public.logic -->
<g id="edge6" class="edge">
<title>public.query_guarantee:model_key&#45;&gt;public.logic:model_key</title>
<path fill="none" stroke="black" d="M2138.64,-888.31C1989.04,-872.89 2387.76,-496.8 2214.71,-496.8"/>
<polygon fill="black" stroke="black" points="2138.44,-888.3 2148.22,-893.28 2143.77,-888.56 2148.1,-888.77 2148.1,-888.77 2148.1,-888.77 2143.77,-888.56 2148.65,-884.29 2138.44,-888.3"/>
<text text-anchor="start" x="2155.77" y="-898.8" font-family="Arial" font-size="10.00">FOREIGN KEY (model_key, logic_key) REFERENCES logic(model_key, logic_key) ON DELETE CASCADE</text>
</g>
<!-- public.guard -->
<g id="node8" class="node">
<title>public.guard</title>
<polygon fill="#efefef" stroke="none" points="2562.24,-919.6 2562.24,-955.2 2791.21,-955.2 2791.21,-919.6 2562.24,-919.6"/>
<polygon fill="none" stroke="black" points="2562.24,-919.6 2562.24,-955.2 2791.21,-955.2 2791.21,-919.6 2562.24,-919.6"/>
<text text-anchor="start" x="2569.24" y="-933" font-family="Arial Bold" font-size="18.00">public.guard</text>
<text text-anchor="start" x="2659.72" y="-933" font-family="Arial" font-size="14.00">    </text>
<text text-anchor="start" x="2690.83" y="-933" font-family="Arial" font-size="14.00" fill="#666666">[BASE TABLE]</text>
<polygon fill="none" stroke="black" points="2562.24,-888.8 2562.24,-919.6 2791.21,-919.6 2791.21,-888.8 2562.24,-888.8"/>
<text text-anchor="start" x="2569.24" y="-901" font-family="Arial" font-size="14.00">model_key </text>
<text text-anchor="start" x="2640.84" y="-901" font-family="Arial" font-size="14.00" fill="#666666">[text]</text>
<polygon fill="none" stroke="black" points="2562.24,-858 2562.24,-888.8 2791.21,-888.8 2791.21,-858 2562.24,-858"/>
<text text-anchor="start" x="2569.24" y="-870.2" font-family="Arial" font-size="14.00">class_key </text>
<text text-anchor="start" x="2634.6" y="-870.2" font-family="Arial" font-size="14.00" fill="#666666">[text]</text>
<polygon fill="none" stroke="black" points="2562.24,-827.2 2562.24,-858 2791.21,-858 2791.21,-827.2 2562.24,-827.2"/>
<text text-anchor="start" x="2569.24" y="-839.4" font-family="Arial" font-size="14.00">guard_key </text>
<text text-anchor="start" x="2638.51" y="-839.4" font-family="Arial" font-size="14.00" fill="#666666">[text]</text>
<polygon fill="none" stroke="black" points="2562.24,-796.4 2562.24,-827.2 2791.21,-827.2 2791.21,-796.4 2562.24,-796.4"/>
<text text-anchor="start" x="2569.24" y="-808.6" font-family="Arial" font-size="14.00">name </text>
<text text-anchor="start" x="2608.15" y="-808.6" font-family="Arial" font-size="14.00" fill="#666666">[text]</text>
</g>
<!-- public.guard&#45;&gt;public.logic -->
<g id="edge7" class="edge">
<title>public.guard:model_key&#45;&gt;public.logic:model_key</title>
<path fill="none" stroke="black" d="M2550.99,-903.7C2458.74,-894.02 2573.22,-746.8 2509.73,-660.8 2420.62,-540.12 2364.73,-496.8 2214.71,-496.8"/>
<polygon fill="black" stroke="black" points="2550.92,-903.69 2560.69,-908.68 2556.25,-903.96 2560.58,-904.17 2560.58,-904.17 2560.58,-904.17 2556.25,-903.96 2561.13,-899.69 2550.92,-903.69"/>
<text text-anchor="start" x="2568.24" y="-914.2" font-family="Arial" font-size="10.00">FOREIGN KEY (model_key, guard_key) REFERENCES logic(model_key, logic_key) ON DELETE CASCADE</text>
</g>
<!-- public.action_require -->
<g id="node9" class="node">
<title>public.action_require</title>
<polygon fill="#efefef" stroke="none" points="2895.76,-904.2 2895.76,-939.8 3187.69,-939.8 3187.69,-904.2 2895.76,-904.2"/>
<polygon fill="none" stroke="black" points="2895.76,-904.2 2895.76,-939.8 3187.69,-939.8 3187.69,-904.2 2895.76,-904.2"/>
<text text-anchor="start" x="2902.76" y="-917.6" font-family="Arial Bold" font-size="18.00">public.action_require</text>
<text text-anchor="start" x="3056.2" y="-917.6" font-family="Arial" font-size="14.00">    </text>
<text text-anchor="start" x="3087.32" y="-917.6" font-family="Arial" font-size="14.00" fill="#666666">[BASE TABLE]</text>
<polygon fill="none" stroke="black" points="2895.76,-873.4 2895.76,-904.2 3187.69,-904.2 3187.69,-873.4 2895.76,-873.4"/>
<text text-anchor="start" x="2902.76" y="-885.6" font-family="Arial" font-size="14.00">model_key </text>
<text text-anchor="start" x="2974.35" y="-885.6" font-family="Arial" font-size="14.00" fill="#666666">[text]</text>
<polygon fill="none" stroke="black" points="2895.76,-842.6 2895.76,-873.4 3187.69,-873.4 3187.69,-842.6 2895.76,-842.6"/>
<text text-anchor="start" x="2902.76" y="-854.8" font-family="Arial" font-size="14.00">action_key </text>
<text text-anchor="start" x="2973.58" y="-854.8" font-family="Arial" font-size="14.00" fill="#666666">[text]</text>
<polygon fill="none" stroke="black" points="2895.76,-811.8 2895.76,-842.6 3187.69,-842.6 3187.69,-811.8 2895.76,-811.8"/>
<text text-anchor="start" x="2902.76" y="-824" font-family="Arial" font-size="14.00">logic_key </text>
<text text-anchor="start" x="2965.02" y="-824" font-family="Arial" font-size="14.00" fill="#666666">[text]</text>
</g>
<!-- public.action_require&#45;&gt;public.logic -->
<g id="edge8" class="edge">
<title>public.action_require:model_key&#45;&gt;public.logic:model_key</title>
<path fill="none" stroke="black" d="M2884.38,-888.21C2799.69,-877.82 2913.26,-732.8 2843.73,-660.8 2743.38,-556.89 2359.16,-496.8 2214.71,-496.8"/>
<polygon fill="black" stroke="black" points="2884.44,-888.21 2894.17,-893.27 2889.77,-888.52 2894.09,-888.76 2894.09,-888.76 2894.09,-888.76 2889.77,-888.52 2894.68,-884.29 2884.44,-888.21"/>
<text text-anchor="start" x="2654.41" y="-872.8" font-family="Arial" font-size="10.00">FOREIGN KEY (model_key, logic_key) REFERENCES logic(model_key, logic_key) ON DELETE CASCADE</text>
</g>
<!-- public.action_guarantee -->
<g id="node10" class="node">
<title>public.action_guarantee</title>
<polygon fill="#efefef" stroke="none" points="3292.27,-904.2 3292.27,-939.8 3603.18,-939.8 3603.18,-904.2 3292.27,-904.2"/>
<polygon fill="none" stroke="black" points="3292.27,-904.2 3292.27,-939.8 3603.18,-939.8 3603.18,-904.2 3292.27,-904.2"/>
<text text-anchor="start" x="3299.27" y="-917.6" font-family="Arial Bold" font-size="18.00">public.action_guarantee</text>
<text text-anchor="start" x="3471.69" y="-917.6" font-family="Arial" font-size="14.00">    </text>
<text text-anchor="start" x="3502.81" y="-917.6" font-family="Arial" font-size="14.00" fill="#666666">[BASE TABLE]</text>
<polygon fill="none" stroke="black" points="3292.27,-873.4 3292.27,-904.2 3603.18,-904.2 3603.18,-873.4 3292.27,-873.4"/>
<text text-anchor="start" x="3299.27" y="-885.6" font-family="Arial" font-size="14.00">model_key </text>
<text text-anchor="start" x="3370.86" y="-885.6" font-family="Arial" font-size="14.00" fill="#666666">[text]</text>
<polygon fill="none" stroke="black" points="3292.27,-842.6 3292.27,-873.4 3603.18,-873.4 3603.18,-842.6 3292.27,-842.6"/>
<text text-anchor="start" x="3299.27" y="-854.8" font-family="Arial" font-size="14.00">action_key </text>
<text text-anchor="start" x="3370.09" y="-854.8" font-family="Arial" font-size="14.00" fill="#666666">[text]</text>
<polygon fill="none" stroke="black" points="3292.27,-811.8 3292.27,-842.6 3603.18,-842.6 3603.18,-811.8 3292.27,-811.8"/>
<text text-anchor="start" x="3299.27" y="-824" font-family="Arial" font-size="14.00">logic_key </text>
<text text-anchor="start" x="3361.52" y="-824" font-family="Arial" font-size="14.00" fill="#666666">[text]</text>
</g>
<!-- public.action_guarantee&#45;&gt;public.logic -->
<g id="edge9" class="edge">
<title>public.action_guarantee:model_key&#45;&gt;public.logic:model_key</title>
<path fill="none" stroke="black" d="M3280.9,-888.2C3196.37,-877.57 3312.75,-729.32 3239.73,-660.8 3071.5,-502.96 2445.39,-496.8 2214.71,-496.8"/>
<polygon fill="black" stroke="black" points="3280.95,-888.2 3290.67,-893.27 3286.28,-888.51 3290.6,-888.76 3290.6,-888.76 3290.6,-888.76 3286.28,-888.51 3291.2,-884.29 3280.95,-888.2"/>
<text text-anchor="start" x="2803.57" y="-898.8" font-family="Arial" font-size="10.00">FOREIGN KEY (model_key, logic_key) REFERENCES logic(model_key, logic_key) ON DELETE CASCADE</text>
</g>
<!-- public.action_safety -->
<g id="node11" class="node">
<title>public.action_safety</title>
<polygon fill="#efefef" stroke="none" points="3707.76,-904.2 3707.76,-939.8 3991.69,-939.8 3991.69,-904.2 3707.76,-904.2"/>
<polygon fill="none" stroke="black" points="3707.76,-904.2 3707.76,-939.8 3991.69,-939.8 3991.69,-904.2 3707.76,-904.2"/>
<text text-anchor="start" x="3714.76" y="-917.6" font-family="Arial Bold" font-size="18.00">public.action_safety</text>
<text text-anchor="start" x="3860.21" y="-917.6" font-family="Arial" font-size="14.00">    </text>
<text text-anchor="start" x="3891.32" y="-917.6" font-family="Arial" font-size="14.00" fill="#666666">[BASE TABLE]</text>
<polygon fill="none" stroke="black" points="3707.76,-873.4 3707.76,-904.2 3991.69,-904.2 3991.69,-873.4 3707.76,-873.4"/>
<text text-anchor="start" x="3714.76" y="-885.6" font-family="Arial" font-size="14.00">model_key </text>
<text text-anchor="start" x="3786.35" y="-885.6" font-family="Arial" font-size="14.00" fill="#666666">[text]</text>
<polygon fill="none" stroke="black" points="3707.76,-842.6 3707.76,-873.4 3991.69,-873.4 3991.69,-842.6 3707.76,-842.6"/>
<text text-anchor="start" x="3714.76" y="-854.8" font-family="Arial" font-size="14.00">action_key </text>
<text text-anchor="start" x="3785.58" y="-854.8" font-family="Arial" font-size="14.00" fill="#666666">[text]</text>
<polygon fill="none" stroke="black" points="3707.76,-811.8 3707.76,-842.6 3991.69,-842.6 3991.69,-811.8 3707.76,-811.8"/>
<text text-anchor="start" x="3714.76" y="-824" font-family="Arial" font-size="14.00">logic_key </text>
<text text-anchor="start" x="3777.01" y="-824" font-family="Arial" font-size="14.00" fill="#666666">[text]</text>
</g>
<!-- public.action_safety&#45;&gt;public.logic -->
<g id="edge10" class="edge">
<title>public.action_safety:model_key&#45;&gt;public.logic:model_key</title>
<path fill="none" stroke="black" d="M3696.39,-888.19C3612.04,-877.46 3730.18,-727.69 3655.73,-660.8 3535.85,-553.1 2375.86,-496.8 2214.71,-496.8"/>
<polygon fill="black" stroke="black" points="3696.44,-888.19 3706.16,-893.27 3701.76,-888.51 3706.09,-888.76 3706.09,-888.76 3706.09,-888.76 3701.76,-888.51 3706.69,-884.29 3696.44,-888.19"/>
<text text-anchor="start" x="3713.76" y="-898.8" font-family="Arial" font-size="10.00">FOREIGN KEY (model_key, logic_key) REFERENCES logic(model_key, logic_key) ON DELETE CASCADE</text>
</g>
</g>
</svg>
