<?xml version="1.0" encoding="UTF-8" standalone="no"?>
<!DOCTYPE svg PUBLIC "-//W3C//DTD SVG 1.1//EN"
 "http://www.w3.org/Graphics/SVG/1.1/DTD/svg11.dtd">
<!-- Generated by graphviz version 12.1.2 (20240928.0832)
 -->
<!-- Title: public.subdomain Pages: 1 -->
<svg width="2065pt" height="1222pt"
 viewBox="0.00 0.00 2064.60 1222.00" xmlns="http://www.w3.org/2000/svg" xmlns:xlink="http://www.w3.org/1999/xlink">
<g id="graph0" class="graph" transform="scale(1 1) rotate(0) translate(4 1218)">
<title>public.subdomain</title>
<polygon fill="white" stroke="none" points="-4,4 -4,-1218 2060.6,-1218 2060.6,4 -4,4"/>
<!-- public.subdomain -->
<g id="node1" class="node">
<title>public.subdomain</title>
<polygon fill="#efefef" stroke="none" points="859.32,-635.4 859.32,-671 1126.3,-671 1126.3,-635.4 859.32,-635.4"/>
<polygon fill="none" stroke="black" points="859.32,-635.4 859.32,-671 1126.3,-671 1126.3,-635.4 859.32,-635.4"/>
<text text-anchor="start" x="866.32" y="-648.8" font-family="Arial Bold" font-size="18.00">public.subdomain</text>
<text text-anchor="start" x="994.81" y="-648.8" font-family="Arial" font-size="14.00">    </text>
<text text-anchor="start" x="1025.93" y="-648.8" font-family="Arial" font-size="14.00" fill="#666666">[BASE TABLE]</text>
<polygon fill="none" stroke="black" points="859.32,-604.6 859.32,-635.4 1126.3,-635.4 1126.3,-604.6 859.32,-604.6"/>
<text text-anchor="start" x="866.32" y="-616.8" font-family="Arial" font-size="14.00">subdomain_key </text>
<text text-anchor="start" x="968.27" y="-616.8" font-family="Arial" font-size="14.00" fill="#666666">[text]</text>
<polygon fill="none" stroke="black" points="859.32,-573.8 859.32,-604.6 1126.3,-604.6 1126.3,-573.8 859.32,-573.8"/>
<text text-anchor="start" x="866.32" y="-586" font-family="Arial" font-size="14.00">model_key </text>
<text text-anchor="start" x="937.91" y="-586" font-family="Arial" font-size="14.00" fill="#666666">[text]</text>
<polygon fill="none" stroke="black" points="859.32,-543 859.32,-573.8 1126.3,-573.8 1126.3,-543 859.32,-543"/>
<text text-anchor="start" x="866.32" y="-555.2" font-family="Arial" font-size="14.00">domain_key </text>
<text text-anchor="start" x="945.7" y="-555.2" font-family="Arial" font-size="14.00" fill="#666666">[text]</text>
<polygon fill="none" stroke="black" points="859.32,-512.2 859.32,-543 1126.3,-543 1126.3,-512.2 859.32,-512.2"/>
<text text-anchor="start" x="866.32" y="-524.4" font-family="Arial" font-size="14.00">name </text>
<text text-anchor="start" x="905.23" y="-524.4" font-family="Arial" font-size="14.00" fill="#666666">[text]</text>
<polygon fill="none" stroke="black" points="859.32,-481.4 859.32,-512.2 1126.3,-512.2 1126.3,-481.4 859.32,-481.4"/>
<text text-anchor="start" x="866.32" y="-493.6" font-family="Arial" font-size="14.00">details </text>
<text text-anchor="start" x="910.68" y="-493.6" font-family="Arial" font-size="14.00" fill="#666666">[text]</text>
<polygon fill="none" stroke="black" points="859.32,-450.6 859.32,-481.4 1126.3,-481.4 1126.3,-450.6 859.32,-450.6"/>
<text text-anchor="start" x="866.32" y="-462.8" font-family="Arial" font-size="14.00">unfinished_notes </text>
<text text-anchor="start" x="976.07" y="-462.8" font-family="Arial" font-size="14.00" fill="#666666">[text]</text>
<polygon fill="none" stroke="black" points="859.32,-419.8 859.32,-450.6 1126.3,-450.6 1126.3,-419.8 859.32,-419.8"/>
<text text-anchor="start" x="866.32" y="-432" font-family="Arial" font-size="14.00">uml_comment </text>
<text text-anchor="start" x="958.13" y="-432" font-family="Arial" font-size="14.00" fill="#666666">[text]</text>
<polygon fill="none" stroke="black" stroke-width="3" points="857.82,-418.3 857.82,-672.5 1127.8,-672.5 1127.8,-418.3 857.82,-418.3"/>
</g>
<!-- public.domain -->
<g id="node6" class="node">
<title>public.domain</title>
<polygon fill="#efefef" stroke="none" points="871.82,-258.8 871.82,-294.4 1113.8,-294.4 1113.8,-258.8 871.82,-258.8"/>
<polygon fill="none" stroke="black" points="871.82,-258.8 871.82,-294.4 1113.8,-294.4 1113.8,-258.8 871.82,-258.8"/>
<text text-anchor="start" x="878.82" y="-272.2" font-family="Arial Bold" font-size="18.00">public.domain</text>
<text text-anchor="start" x="982.31" y="-272.2" font-family="Arial" font-size="14.00">    </text>
<text text-anchor="start" x="1013.42" y="-272.2" font-family="Arial" font-size="14.00" fill="#666666">[BASE TABLE]</text>
<polygon fill="none" stroke="black" points="871.82,-228 871.82,-258.8 1113.8,-258.8 1113.8,-228 871.82,-228"/>
<text text-anchor="start" x="878.82" y="-240.2" font-family="Arial" font-size="14.00">domain_key </text>
<text text-anchor="start" x="958.2" y="-240.2" font-family="Arial" font-size="14.00" fill="#666666">[text]</text>
<polygon fill="none" stroke="black" points="871.82,-197.2 871.82,-228 1113.8,-228 1113.8,-197.2 871.82,-197.2"/>
<text text-anchor="start" x="878.82" y="-209.4" font-family="Arial" font-size="14.00">model_key </text>
<text text-anchor="start" x="950.42" y="-209.4" font-family="Arial" font-size="14.00" fill="#666666">[text]</text>
<polygon fill="none" stroke="black" points="871.82,-166.4 871.82,-197.2 1113.8,-197.2 1113.8,-166.4 871.82,-166.4"/>
<text text-anchor="start" x="878.82" y="-178.6" font-family="Arial" font-size="14.00">name </text>
<text text-anchor="start" x="917.73" y="-178.6" font-family="Arial" font-size="14.00" fill="#666666">[text]</text>
<polygon fill="none" stroke="black" points="871.82,-135.6 871.82,-166.4 1113.8,-166.4 1113.8,-135.6 871.82,-135.6"/>
<text text-anchor="start" x="878.82" y="-147.8" font-family="Arial" font-size="14.00">details </text>
<text text-anchor="start" x="923.18" y="-147.8" font-family="Arial" font-size="14.00" fill="#666666">[text]</text>
<polygon fill="none" stroke="black" points="871.82,-104.8 871.82,-135.6 1113.8,-135.6 1113.8,-104.8 871.82,-104.8"/>
<text text-anchor="start" x="878.82" y="-117" font-family="Arial" font-size="14.00">unfinished_notes </text>
<text text-anchor="start" x="988.57" y="-117" font-family="Arial" font-size="14.00" fill="#666666">[text]</text>
<polygon fill="none" stroke="black" points="871.82,-74 871.82,-104.8 1113.8,-104.8 1113.8,-74 871.82,-74"/>
<text text-anchor="start" x="878.82" y="-86.2" font-family="Arial" font-size="14.00">realized </text>
<text text-anchor="start" x="931.74" y="-86.2" font-family="Arial" font-size="14.00" fill="#666666">[boolean]</text>
<polygon fill="none" stroke="black" points="871.82,-43.2 871.82,-74 1113.8,-74 1113.8,-43.2 871.82,-43.2"/>
<text text-anchor="start" x="878.82" y="-55.4" font-family="Arial" font-size="14.00">uml_comment </text>
<text text-anchor="start" x="970.63" y="-55.4" font-family="Arial" font-size="14.00" fill="#666666">[text]</text>
</g>
<!-- public.subdomain&#45;&gt;public.domain -->
<g id="edge5" class="edge">
<title>public.subdomain:model_key&#45;&gt;public.domain:model_key</title>
<path fill="none" stroke="black" d="M1137.37,-588.73C1294.19,-573.91 1278.83,-212.6 1114.8,-212.6"/>
<polygon fill="black" stroke="black" points="1137.62,-588.72 1127.42,-584.69 1132.29,-588.97 1127.97,-589.17 1127.97,-589.17 1127.97,-589.17 1132.29,-588.97 1127.84,-593.68 1137.62,-588.72"/>
<text text-anchor="start" x="1134.3" y="-599.2" font-family="Arial" font-size="10.00">FOREIGN KEY (model_key, domain_key) REFERENCES domain(model_key, domain_key) ON DELETE CASCADE</text>
</g>
<!-- public.class_generalization -->
<g id="node2" class="node">
<title>public.class_generalization</title>
<polygon fill="#efefef" stroke="none" points="244.85,-1104.4 244.85,-1140 578.77,-1140 578.77,-1104.4 244.85,-1104.4"/>
<polygon fill="none" stroke="black" points="244.85,-1104.4 244.85,-1140 578.77,-1140 578.77,-1104.4 244.85,-1104.4"/>
<text text-anchor="start" x="251.85" y="-1117.8" font-family="Arial Bold" font-size="18.00">public.class_generalization</text>
<text text-anchor="start" x="447.28" y="-1117.8" font-family="Arial" font-size="14.00">    </text>
<text text-anchor="start" x="478.39" y="-1117.8" font-family="Arial" font-size="14.00" fill="#666666">[BASE TABLE]</text>
<polygon fill="none" stroke="black" points="244.85,-1073.6 244.85,-1104.4 578.77,-1104.4 578.77,-1073.6 244.85,-1073.6"/>
<text text-anchor="start" x="251.85" y="-1085.8" font-family="Arial" font-size="14.00">model_key </text>
<text text-anchor="start" x="323.45" y="-1085.8" font-family="Arial" font-size="14.00" fill="#666666">[text]</text>
<polygon fill="none" stroke="black" points="244.85,-1042.8 244.85,-1073.6 578.77,-1073.6 578.77,-1042.8 244.85,-1042.8"/>
<text text-anchor="start" x="251.85" y="-1055" font-family="Arial" font-size="14.00">generalization_key </text>
<text text-anchor="start" x="372.49" y="-1055" font-family="Arial" font-size="14.00" fill="#666666">[text]</text>
<polygon fill="none" stroke="black" points="244.85,-1012 244.85,-1042.8 578.77,-1042.8 578.77,-1012 244.85,-1012"/>
<text text-anchor="start" x="251.85" y="-1024.2" font-family="Arial" font-size="14.00">name </text>
<text text-anchor="start" x="290.76" y="-1024.2" font-family="Arial" font-size="14.00" fill="#666666">[text]</text>
<polygon fill="none" stroke="black" points="244.85,-981.2 244.85,-1012 578.77,-1012 578.77,-981.2 244.85,-981.2"/>
<text text-anchor="start" x="251.85" y="-993.4" font-family="Arial" font-size="14.00">subdomain_key </text>
<text text-anchor="start" x="353.8" y="-993.4" font-family="Arial" font-size="14.00" fill="#666666">[text]</text>
<polygon fill="none" stroke="black" points="244.85,-950.4 244.85,-981.2 578.77,-981.2 578.77,-950.4 244.85,-950.4"/>
<text text-anchor="start" x="251.85" y="-962.6" font-family="Arial" font-size="14.00">is_complete </text>
<text text-anchor="start" x="330.45" y="-962.6" font-family="Arial" font-size="14.00" fill="#666666">[boolean]</text>
<polygon fill="none" stroke="black" points="244.85,-919.6 244.85,-950.4 578.77,-950.4 578.77,-919.6 244.85,-919.6"/>
<text text-anchor="start" x="251.85" y="-931.8" font-family="Arial" font-size="14.00">is_static </text>
<text text-anchor="start" x="306.31" y="-931.8" font-family="Arial" font-size="14.00" fill="#666666">[boolean]</text>
<polygon fill="none" stroke="black" points="244.85,-888.8 244.85,-919.6 578.77,-919.6 578.77,-888.8 244.85,-888.8"/>
<text text-anchor="start" x="251.85" y="-901" font-family="Arial" font-size="14.00">details </text>
<text text-anchor="start" x="296.21" y="-901" font-family="Arial" font-size="14.00" fill="#666666">[text]</text>
<polygon fill="none" stroke="black" points="244.85,-858 244.85,-888.8 578.77,-888.8 578.77,-858 244.85,-858"/>
<text text-anchor="start" x="251.85" y="-870.2" font-family="Arial" font-size="14.00">unfinished_notes </text>
<text text-anchor="start" x="361.6" y="-870.2" font-family="Arial" font-size="14.00" fill="#666666">[text]</text>
<polygon fill="none" stroke="black" points="244.85,-827.2 244.85,-858 578.77,-858 578.77,-827.2 244.85,-827.2"/>
<text text-anchor="start" x="251.85" y="-839.4" font-family="Arial" font-size="14.00">uml_comment </text>
<text text-anchor="start" x="343.66" y="-839.4" font-family="Arial" font-size="14.00" fill="#666666">[text]</text>
</g>
<!-- public.class_generalization&#45;&gt;public.subdomain -->
<g id="edge1" class="edge">
<title>public.class_generalization:model_key&#45;&gt;public.subdomain:model_key</title>
<path fill="none" stroke="black" d="M589.86,-1087.11C649.26,-1062.99 593.37,-814.46 630.81,-753.2 695.81,-646.84 733.67,-589.2 858.32,-589.2"/>
<polygon fill="black" stroke="black" points="589.93,-1087.1 579.27,-1084.52 584.68,-1088.08 580.42,-1088.88 580.42,-1088.88 580.42,-1088.88 584.68,-1088.08 580.92,-1093.36 589.93,-1087.1"/>
<text text-anchor="start" x="7" y="-1099" font-family="Arial" font-size="10.00">FOREIGN KEY (model_key, subdomain_key) REFERENCES subdomain(model_key, subdomain_key) ON DELETE CASCADE</text>
</g>
<!-- public.class -->
<g id="node3" class="node">
<title>public.class</title>
<polygon fill="#efefef" stroke="none" points="683.32,-1119.8 683.32,-1155.4 906.29,-1155.4 906.29,-1119.8 683.32,-1119.8"/>
<polygon fill="none" stroke="black" points="683.32,-1119.8 683.32,-1155.4 906.29,-1155.4 906.29,-1119.8 683.32,-1119.8"/>
<text text-anchor="start" x="690.32" y="-1133.2" font-family="Arial Bold" font-size="18.00">public.class</text>
<text text-anchor="start" x="774.81" y="-1133.2" font-family="Arial" font-size="14.00">    </text>
<text text-anchor="start" x="805.92" y="-1133.2" font-family="Arial" font-size="14.00" fill="#666666">[BASE TABLE]</text>
<polygon fill="none" stroke="black" points="683.32,-1089 683.32,-1119.8 906.29,-1119.8 906.29,-1089 683.32,-1089"/>
<text text-anchor="start" x="690.32" y="-1101.2" font-family="Arial" font-size="14.00">model_key </text>
<text text-anchor="start" x="761.92" y="-1101.2" font-family="Arial" font-size="14.00" fill="#666666">[text]</text>
<polygon fill="none" stroke="black" points="683.32,-1058.2 683.32,-1089 906.29,-1089 906.29,-1058.2 683.32,-1058.2"/>
<text text-anchor="start" x="690.32" y="-1070.4" font-family="Arial" font-size="14.00">class_key </text>
<text text-anchor="start" x="755.68" y="-1070.4" font-family="Arial" font-size="14.00" fill="#666666">[text]</text>
<polygon fill="none" stroke="black" points="683.32,-1027.4 683.32,-1058.2 906.29,-1058.2 906.29,-1027.4 683.32,-1027.4"/>
<text text-anchor="start" x="690.32" y="-1039.6" font-family="Arial" font-size="14.00">name </text>
<text text-anchor="start" x="729.23" y="-1039.6" font-family="Arial" font-size="14.00" fill="#666666">[text]</text>
<polygon fill="none" stroke="black" points="683.32,-996.6 683.32,-1027.4 906.29,-1027.4 906.29,-996.6 683.32,-996.6"/>
<text text-anchor="start" x="690.32" y="-1008.8" font-family="Arial" font-size="14.00">subdomain_key </text>
<text text-anchor="start" x="792.28" y="-1008.8" font-family="Arial" font-size="14.00" fill="#666666">[text]</text>
<polygon fill="none" stroke="black" points="683.32,-965.8 683.32,-996.6 906.29,-996.6 906.29,-965.8 683.32,-965.8"/>
<text text-anchor="start" x="690.32" y="-978" font-family="Arial" font-size="14.00">actor_key </text>
<text text-anchor="start" x="754.91" y="-978" font-family="Arial" font-size="14.00" fill="#666666">[text]</text>
<polygon fill="none" stroke="black" points="683.32,-935 683.32,-965.8 906.29,-965.8 906.29,-935 683.32,-935"/>
<text text-anchor="start" x="690.32" y="-947.2" font-family="Arial" font-size="14.00">superclass_of_key </text>
<text text-anchor="start" x="810.17" y="-947.2" font-family="Arial" font-size="14.00" fill="#666666">[text]</text>
<polygon fill="none" stroke="black" points="683.32,-904.2 683.32,-935 906.29,-935 906.29,-904.2 683.32,-904.2"/>
<text text-anchor="start" x="690.32" y="-916.4" font-family="Arial" font-size="14.00">subclass_of_key </text>
<text text-anchor="start" x="797.72" y="-916.4" font-family="Arial" font-size="14.00" fill="#666666">[text]</text>
<polygon fill="none" stroke="black" points="683.32,-873.4 683.32,-904.2 906.29,-904.2 906.29,-873.4 683.32,-873.4"/>
<text text-anchor="start" x="690.32" y="-885.6" font-family="Arial" font-size="14.00">details </text>
<text text-anchor="start" x="734.68" y="-885.6" font-family="Arial" font-size="14.00" fill="#666666">[text]</text>
<polygon fill="none" stroke="black" points="683.32,-842.6 683.32,-873.4 906.29,-873.4 906.29,-842.6 683.32,-842.6"/>
<text text-anchor="start" x="690.32" y="-854.8" font-family="Arial" font-size="14.00">unfinished_notes </text>
<text text-anchor="start" x="800.08" y="-854.8" font-family="Arial" font-size="14.00" fill="#666666">[text]</text>
<polygon fill="none" stroke="black" points="683.32,-811.8 683.32,-842.6 906.29,-842.6 906.29,-811.8 683.32,-811.8"/>
<text text-anchor="start" x="690.32" y="-824" font-family="Arial" font-size="14.00">uml_comment </text>
<text text-anchor="start" x="782.13" y="-824" font-family="Arial" font-size="14.00" fill="#666666">[text]</text>
</g>
<!-- public.class&#45;&gt;public.subdomain -->
<g id="edge2" class="edge">
<title>public.class:model_key&#45;&gt;public.subdomain:model_key</title>
<path fill="none" stroke="black" d="M917.36,-1102.55C977.23,-1078.87 932.07,-834.73 906.29,-768.6 895.05,-739.77 870.63,-746.01 859.32,-717.2 838.53,-664.24 801.43,-589.2 858.32,-589.2"/>
<polygon fill="black" stroke="black" points="917.46,-1102.53 906.81,-1099.91 912.21,-1103.5 907.95,-1104.28 907.95,-1104.28 907.95,-1104.28 912.21,-1103.5 908.44,-1108.77 917.46,-1102.53"/>
<text text-anchor="start" x="769.35" y="-1088.4" font-family="Arial" font-size="10.00">FOREIGN KEY (model_key, subdomain_key) REFERENCES subdomain(model_key, subdomain_key) ON DELETE CASCADE</text>
</g>
<!-- public.use_case_generalization -->
<g id="node4" class="node">
<title>public.use_case_generalization</title>
<polygon fill="#efefef" stroke="none" points="1010.36,-1104.4 1010.36,-1140 1373.26,-1140 1373.26,-1104.4 1010.36,-1104.4"/>
<polygon fill="none" stroke="black" points="1010.36,-1104.4 1010.36,-1140 1373.26,-1140 1373.26,-1104.4 1010.36,-1104.4"/>
<text text-anchor="start" x="1017.36" y="-1117.8" font-family="Arial Bold" font-size="18.00">public.use_case_generalization</text>
<text text-anchor="start" x="1241.77" y="-1117.8" font-family="Arial" font-size="14.00">    </text>
<text text-anchor="start" x="1272.88" y="-1117.8" font-family="Arial" font-size="14.00" fill="#666666">[BASE TABLE]</text>
<polygon fill="none" stroke="black" points="1010.36,-1073.6 1010.36,-1104.4 1373.26,-1104.4 1373.26,-1073.6 1010.36,-1073.6"/>
<text text-anchor="start" x="1017.36" y="-1085.8" font-family="Arial" font-size="14.00">model_key </text>
<text text-anchor="start" x="1088.96" y="-1085.8" font-family="Arial" font-size="14.00" fill="#666666">[text]</text>
<polygon fill="none" stroke="black" points="1010.36,-1042.8 1010.36,-1073.6 1373.26,-1073.6 1373.26,-1042.8 1010.36,-1042.8"/>
<text text-anchor="start" x="1017.36" y="-1055" font-family="Arial" font-size="14.00">generalization_key </text>
<text text-anchor="start" x="1138" y="-1055" font-family="Arial" font-size="14.00" fill="#666666">[text]</text>
<polygon fill="none" stroke="black" points="1010.36,-1012 1010.36,-1042.8 1373.26,-1042.8 1373.26,-1012 1010.36,-1012"/>
<text text-anchor="start" x="1017.36" y="-1024.2" font-family="Arial" font-size="14.00">name </text>
<text text-anchor="start" x="1056.27" y="-1024.2" font-family="Arial" font-size="14.00" fill="#666666">[text]</text>
<polygon fill="none" stroke="black" points="1010.36,-981.2 1010.36,-1012 1373.26,-1012 1373.26,-981.2 1010.36,-981.2"/>
<text text-anchor="start" x="1017.36" y="-993.4" font-family="Arial" font-size="14.00">subdomain_key </text>
<text text-anchor="start" x="1119.31" y="-993.4" font-family="Arial" font-size="14.00" fill="#666666">[text]</text>
<polygon fill="none" stroke="black" points="1010.36,-950.4 1010.36,-981.2 1373.26,-981.2 1373.26,-950.4 1010.36,-950.4"/>
<text text-anchor="start" x="1017.36" y="-962.6" font-family="Arial" font-size="14.00">is_complete </text>
<text text-anchor="start" x="1095.96" y="-962.6" font-family="Arial" font-size="14.00" fill="#666666">[boolean]</text>
<polygon fill="none" stroke="black" points="1010.36,-919.6 1010.36,-950.4 1373.26,-950.4 1373.26,-919.6 1010.36,-919.6"/>
<text text-anchor="start" x="1017.36" y="-931.8" font-family="Arial" font-size="14.00">is_static </text>
<text text-anchor="start" x="1071.83" y="-931.8" font-family="Arial" font-size="14.00" fill="#666666">[boolean]</text>
<polygon fill="none" stroke="black" points="1010.36,-888.8 1010.36,-919.6 1373.26,-919.6 1373.26,-888.8 1010.36,-888.8"/>
<text text-anchor="start" x="1017.36" y="-901" font-family="Arial" font-size="14.00">details </text>
<text text-anchor="start" x="1061.72" y="-901" font-family="Arial" font-size="14.00" fill="#666666">[text]</text>
<polygon fill="none" stroke="black" points="1010.36,-858 1010.36,-888.8 1373.26,-888.8 1373.26,-858 1010.36,-858"/>
<text text-anchor="start" x="1017.36" y="-870.2" font-family="Arial" font-size="14.00">unfinished_notes </text>
<text text-anchor="start" x="1127.11" y="-870.2" font-family="Arial" font-size="14.00" fill="#666666">[text]</text>
<polygon fill="none" stroke="black" points="1010.36,-827.2 1010.36,-858 1373.26,-858 1373.26,-827.2 1010.36,-827.2"/>
<text text-anchor="start" x="1017.36" y="-839.4" font-family="Arial" font-size="14.00">uml_comment </text>
<text text-anchor="start" x="1109.17" y="-839.4" font-family="Arial" font-size="14.00" fill="#666666">[text]</text>
</g>
<!-- public.use_case_generalization&#45;&gt;public.subdomain -->
<g id="edge3" class="edge">
<title>public.use_case_generalization:model_key&#45;&gt;public.subdomain:model_key</title>
<path fill="none" stroke="black" d="M999.15,-1086.86C945.39,-1062.61 978.21,-839.42 1010.36,-784 1040.2,-732.56 1096.34,-768.57 1126.3,-717.2 1154.96,-668.06 1184.19,-589.2 1127.3,-589.2"/>
<polygon fill="black" stroke="black" points="999.25,-1086.88 1008.11,-1093.34 1004.47,-1087.98 1008.71,-1088.86 1008.71,-1088.86 1008.71,-1088.86 1004.47,-1087.98 1009.96,-1084.53 999.25,-1086.88"/>
<text text-anchor="start" x="726.48" y="-1073" font-family="Arial" font-size="10.00">FOREIGN KEY (model_key, subdomain_key) REFERENCES subdomain(model_key, subdomain_key) ON DELETE CASCADE</text>
</g>
<!-- public.use_case -->
<g id="node5" class="node">
<title>public.use_case</title>
<polygon fill="#efefef" stroke="none" points="1477.84,-1135.2 1477.84,-1170.8 1729.78,-1170.8 1729.78,-1135.2 1477.84,-1135.2"/>
<polygon fill="none" stroke="black" points="1477.84,-1135.2 1477.84,-1170.8 1729.78,-1170.8 1729.78,-1135.2 1477.84,-1135.2"/>
<text text-anchor="start" x="1484.84" y="-1148.6" font-family="Arial Bold" font-size="18.00">public.use_case</text>
<text text-anchor="start" x="1598.29" y="-1148.6" font-family="Arial" font-size="14.00">    </text>
<text text-anchor="start" x="1629.41" y="-1148.6" font-family="Arial" font-size="14.00" fill="#666666">[BASE TABLE]</text>
<polygon fill="none" stroke="black" points="1477.84,-1104.4 1477.84,-1135.2 1729.78,-1135.2 1729.78,-1104.4 1477.84,-1104.4"/>
<text text-anchor="start" x="1484.84" y="-1116.6" font-family="Arial" font-size="14.00">model_key </text>
<text text-anchor="start" x="1556.43" y="-1116.6" font-family="Arial" font-size="14.00" fill="#666666">[text]</text>
<polygon fill="none" stroke="black" points="1477.84,-1073.6 1477.84,-1104.4 1729.78,-1104.4 1729.78,-1073.6 1477.84,-1073.6"/>
<text text-anchor="start" x="1484.84" y="-1085.8" font-family="Arial" font-size="14.00">use_case_key </text>
<text text-anchor="start" x="1578.23" y="-1085.8" font-family="Arial" font-size="14.00" fill="#666666">[text]</text>
<polygon fill="none" stroke="black" points="1477.84,-1042.8 1477.84,-1073.6 1729.78,-1073.6 1729.78,-1042.8 1477.84,-1042.8"/>
<text text-anchor="start" x="1484.84" y="-1055" font-family="Arial" font-size="14.00">name </text>
<text text-anchor="start" x="1523.75" y="-1055" font-family="Arial" font-size="14.00" fill="#666666">[text]</text>
<polygon fill="none" stroke="black" points="1477.84,-1012 1477.84,-1042.8 1729.78,-1042.8 1729.78,-1012 1477.84,-1012"/>
<text text-anchor="start" x="1484.84" y="-1024.2" font-family="Arial" font-size="14.00">details </text>
<text text-anchor="start" x="1529.19" y="-1024.2" font-family="Arial" font-size="14.00" fill="#666666">[text]</text>
<polygon fill="none" stroke="black" points="1477.84,-981.2 1477.84,-1012 1729.78,-1012 1729.78,-981.2 1477.84,-981.2"/>
<text text-anchor="start" x="1484.84" y="-993.4" font-family="Arial" font-size="14.00">unfinished_notes </text>
<text text-anchor="start" x="1594.59" y="-993.4" font-family="Arial" font-size="14.00" fill="#666666">[text]</text>
<polygon fill="none" stroke="black" points="1477.84,-950.4 1477.84,-981.2 1729.78,-981.2 1729.78,-950.4 1477.84,-950.4"/>
<text text-anchor="start" x="1484.84" y="-962.6" font-family="Arial" font-size="14.00">level </text>
<text text-anchor="start" x="1517.52" y="-962.6" font-family="Arial" font-size="14.00" fill="#666666">[use_case_level]</text>
<polygon fill="none" stroke="black" points="1477.84,-919.6 1477.84,-950.4 1729.78,-950.4 1729.78,-919.6 1477.84,-919.6"/>
<text text-anchor="start" x="1484.84" y="-931.8" font-family="Arial" font-size="14.00">read_only </text>
<text text-anchor="start" x="1550.21" y="-931.8" font-family="Arial" font-size="14.00" fill="#666666">[boolean]</text>
<polygon fill="none" stroke="black" points="1477.84,-888.8 1477.84,-919.6 1729.78,-919.6 1729.78,-888.8 1477.84,-888.8"/>
<text text-anchor="start" x="1484.84" y="-901" font-family="Arial" font-size="14.00">subdomain_key </text>
<text text-anchor="start" x="1586.79" y="-901" font-family="Arial" font-size="14.00" fill="#666666">[text]</text>
<polygon fill="none" stroke="black" points="1477.84,-858 1477.84,-888.8 1729.78,-888.8 1729.78,-858 1477.84,-858"/>
<text text-anchor="start" x="1484.84" y="-870.2" font-family="Arial" font-size="14.00">superclass_of_key </text>
<text text-anchor="start" x="1604.68" y="-870.2" font-family="Arial" font-size="14.00" fill="#666666">[text]</text>
<polygon fill="none" stroke="black" points="1477.84,-827.2 1477.84,-858 1729.78,-858 1729.78,-827.2 1477.84,-827.2"/>
<text text-anchor="start" x="1484.84" y="-839.4" font-family="Arial" font-size="14.00">subclass_of_key </text>
<text text-anchor="start" x="1592.23" y="-839.4" font-family="Arial" font-size="14.00" fill="#666666">[text]</text>
<polygon fill="none" stroke="black" points="1477.84,-796.4 1477.84,-827.2 1729.78,-827.2 1729.78,-796.4 1477.84,-796.4"/>
<text text-anchor="start" x="1484.84" y="-808.6" font-family="Arial" font-size="14.00">uml_comment </text>
<text text-anchor="start" x="1576.64" y="-808.6" font-family="Arial" font-size="14.00" fill="#666666">[text]</text>
</g>
<!-- public.use_case&#45;&gt;public.subdomain -->
<g id="edge4" class="edge">
<title>public.use_case:model_key&#45;&gt;public.subdomain:model_key</title>
<path fill="none" stroke="black" d="M1466.69,-1118.04C1401.33,-1093.41 1470.38,-817.89 1425.81,-753.2 1339.92,-628.55 1278.67,-589.2 1127.3,-589.2"/>
<polygon fill="black" stroke="black" points="1466.65,-1118.03 1475.74,-1124.18 1471.91,-1118.94 1476.18,-1119.69 1476.18,-1119.69 1476.18,-1119.69 1471.91,-1118.94 1477.28,-1115.31 1466.65,-1118.03"/>
<text text-anchor="start" x="1483.84" y="-1129.8" font-family="Arial" font-size="10.00">FOREIGN KEY (model_key, subdomain_key) REFERENCES subdomain(model_key, subdomain_key) ON DELETE CASCADE</text>
</g>
</g>
</svg>
