<?xml version="1.0" encoding="UTF-8" standalone="no"?>
<!DOCTYPE svg PUBLIC "-//W3C//DTD SVG 1.1//EN"
 "http://www.w3.org/Graphics/SVG/1.1/DTD/svg11.dtd">
<!-- Generated by graphviz version 12.1.2 (20240928.0832)
 -->
<!-- Title: public.action_parameter_invariant Pages: 1 -->
<svg width="1599pt" height="756pt"
 viewBox="0.00 0.00 1599.29 756.00" xmlns="http://www.w3.org/2000/svg" xmlns:xlink="http://www.w3.org/1999/xlink">
<g id="graph0" class="graph" transform="scale(1 1) rotate(0) translate(4 752)">
<title>public.action_parameter_invariant</title>
<polygon fill="white" stroke="none" points="-4,4 -4,-752 1595.29,-752 1595.29,4 -4,4"/>
<!-- public.action_parameter_invariant -->
<g id="node1" class="node">
<title>public.action_parameter_invariant</title>
<polygon fill="#efefef" stroke="none" points="495.7,-666.2 495.7,-701.8 881.59,-701.8 881.59,-666.2 495.7,-666.2"/>
<polygon fill="none" stroke="black" points="495.7,-666.2 495.7,-701.8 881.59,-701.8 881.59,-666.2 495.7,-666.2"/>
<text text-anchor="start" x="502.7" y="-679.6" font-family="Arial Bold" font-size="18.00">public.action_parameter_invariant</text>
<text text-anchor="start" x="750.1" y="-679.6" font-family="Arial" font-size="14.00">    </text>
<text text-anchor="start" x="781.21" y="-679.6" font-family="Arial" font-size="14.00" fill="#666666">[BASE TABLE]</text>
<polygon fill="none" stroke="black" points="495.7,-635.4 495.7,-666.2 881.59,-666.2 881.59,-635.4 495.7,-635.4"/>
<text text-anchor="start" x="502.7" y="-647.6" font-family="Arial" font-size="14.00">model_key </text>
<text text-anchor="start" x="574.3" y="-647.6" font-family="Arial" font-size="14.00" fill="#666666">[text]</text>
<polygon fill="none" stroke="black" points="495.7,-604.6 495.7,-635.4 881.59,-635.4 881.59,-604.6 495.7,-604.6"/>
<text text-anchor="start" x="502.7" y="-616.8" font-family="Arial" font-size="14.00">action_key </text>
<text text-anchor="start" x="573.52" y="-616.8" font-family="Arial" font-size="14.00" fill="#666666">[text]</text>
<polygon fill="none" stroke="black" points="495.7,-573.8 495.7,-604.6 881.59,-604.6 881.59,-573.8 495.7,-573.8"/>
<text text-anchor="start" x="502.7" y="-586" font-family="Arial" font-size="14.00">parameter_key </text>
<text text-anchor="start" x="599.97" y="-586" font-family="Arial" font-size="14.00" fill="#666666">[text]</text>
<polygon fill="none" stroke="black" points="495.7,-543 495.7,-573.8 881.59,-573.8 881.59,-543 495.7,-543"/>
<text text-anchor="start" x="502.7" y="-555.2" font-family="Arial" font-size="14.00">logic_key </text>
<text text-anchor="start" x="564.96" y="-555.2" font-family="Arial" font-size="14.00" fill="#666666">[text]</text>
<polygon fill="none" stroke="black" stroke-width="3" points="494.2,-541.5 494.2,-703.3 883.09,-703.3 883.09,-541.5 494.2,-541.5"/>
</g>
<!-- public.logic -->
<g id="node2" class="node">
<title>public.logic</title>
<polygon fill="#efefef" stroke="none" points="390.66,-382 390.66,-417.6 614.63,-417.6 614.63,-382 390.66,-382"/>
<polygon fill="none" stroke="black" points="390.66,-382 390.66,-417.6 614.63,-417.6 614.63,-382 390.66,-382"/>
<text text-anchor="start" x="397.66" y="-395.4" font-family="Arial Bold" font-size="18.00">public.logic</text>
<text text-anchor="start" x="483.14" y="-395.4" font-family="Arial" font-size="14.00">    </text>
<text text-anchor="start" x="514.26" y="-395.4" font-family="Arial" font-size="14.00" fill="#666666">[BASE TABLE]</text>
<polygon fill="none" stroke="black" points="390.66,-351.2 390.66,-382 614.63,-382 614.63,-351.2 390.66,-351.2"/>
<text text-anchor="start" x="397.66" y="-363.4" font-family="Arial" font-size="14.00">logic_key </text>
<text text-anchor="start" x="459.91" y="-363.4" font-family="Arial" font-size="14.00" fill="#666666">[text]</text>
<polygon fill="none" stroke="black" points="390.66,-320.4 390.66,-351.2 614.63,-351.2 614.63,-320.4 390.66,-320.4"/>
<text text-anchor="start" x="397.66" y="-332.6" font-family="Arial" font-size="14.00">model_key </text>
<text text-anchor="start" x="469.25" y="-332.6" font-family="Arial" font-size="14.00" fill="#666666">[text]</text>
<polygon fill="none" stroke="black" points="390.66,-289.6 390.66,-320.4 614.63,-320.4 614.63,-289.6 390.66,-289.6"/>
<text text-anchor="start" x="397.66" y="-301.8" font-family="Arial" font-size="14.00">sort_order </text>
<text text-anchor="start" x="465.36" y="-301.8" font-family="Arial" font-size="14.00" fill="#666666">[integer]</text>
<polygon fill="none" stroke="black" points="390.66,-258.8 390.66,-289.6 614.63,-289.6 614.63,-258.8 390.66,-258.8"/>
<text text-anchor="start" x="397.66" y="-271" font-family="Arial" font-size="14.00">logic_type </text>
<text text-anchor="start" x="464.59" y="-271" font-family="Arial" font-size="14.00" fill="#666666">[logic_type]</text>
<polygon fill="none" stroke="black" points="390.66,-228 390.66,-258.8 614.63,-258.8 614.63,-228 390.66,-228"/>
<text text-anchor="start" x="397.66" y="-240.2" font-family="Arial" font-size="14.00">description </text>
<text text-anchor="start" x="469.25" y="-240.2" font-family="Arial" font-size="14.00" fill="#666666">[text]</text>
<polygon fill="none" stroke="black" points="390.66,-197.2 390.66,-228 614.63,-228 614.63,-197.2 390.66,-197.2"/>
<text text-anchor="start" x="397.66" y="-209.4" font-family="Arial" font-size="14.00">target </text>
<text text-anchor="start" x="437.35" y="-209.4" font-family="Arial" font-size="14.00" fill="#666666">[text]</text>
<polygon fill="none" stroke="black" points="390.66,-166.4 390.66,-197.2 614.63,-197.2 614.63,-166.4 390.66,-166.4"/>
<text text-anchor="start" x="397.66" y="-178.6" font-family="Arial" font-size="14.00">notation </text>
<text text-anchor="start" x="451.37" y="-178.6" font-family="Arial" font-size="14.00" fill="#666666">[notation]</text>
<polygon fill="none" stroke="black" points="390.66,-135.6 390.66,-166.4 614.63,-166.4 614.63,-135.6 390.66,-135.6"/>
<text text-anchor="start" x="397.66" y="-147.8" font-family="Arial" font-size="14.00">specification </text>
<text text-anchor="start" x="478.59" y="-147.8" font-family="Arial" font-size="14.00" fill="#666666">[text]</text>
<polygon fill="none" stroke="black" points="390.66,-104.8 390.66,-135.6 614.63,-135.6 614.63,-104.8 390.66,-104.8"/>
<text text-anchor="start" x="397.66" y="-117" font-family="Arial" font-size="14.00">target_type_notation </text>
<text text-anchor="start" x="529.2" y="-117" font-family="Arial" font-size="14.00" fill="#666666">[notation]</text>
<polygon fill="none" stroke="black" points="390.66,-74 390.66,-104.8 614.63,-104.8 614.63,-74 390.66,-74"/>
<text text-anchor="start" x="397.66" y="-86.2" font-family="Arial" font-size="14.00">target_type_specification </text>
<text text-anchor="start" x="556.42" y="-86.2" font-family="Arial" font-size="14.00" fill="#666666">[text]</text>
<polygon fill="none" stroke="black" points="390.66,-43.2 390.66,-74 614.63,-74 614.63,-43.2 390.66,-43.2"/>
<text text-anchor="start" x="397.66" y="-55.4" font-family="Arial" font-size="14.00">delete_event_specification </text>
<text text-anchor="start" x="566.55" y="-55.4" font-family="Arial" font-size="14.00" fill="#666666">[text]</text>
</g>
<!-- public.action_parameter_invariant&#45;&gt;public.logic -->
<g id="edge1" class="edge">
<title>public.action_parameter_invariant:model_key&#45;&gt;public.logic:model_key</title>
<path fill="none" stroke="black" d="M484.33,-649.93C429.41,-640.09 456.98,-548.63 495.7,-496.8 528.76,-452.56 581.54,-505.02 614.63,-460.8 647.92,-416.32 671.19,-335.8 615.63,-335.8"/>
<polygon fill="black" stroke="black" points="484.4,-649.94 494,-655.26 489.72,-650.38 494.04,-650.74 494.04,-650.74 494.04,-650.74 489.72,-650.38 494.74,-646.29 484.4,-649.94"/>
<text text-anchor="start" x="7" y="-660.8" font-family="Arial" font-size="10.00">FOREIGN KEY (model_key, logic_key) REFERENCES logic(model_key, logic_key) ON DELETE CASCADE</text>
</g>
<!-- public.action_parameter -->
<g id="node3" class="node">
<title>public.action_parameter</title>
<polygon fill="#efefef" stroke="none" points="719.19,-335.8 719.19,-371.4 1032.1,-371.4 1032.1,-335.8 719.19,-335.8"/>
<polygon fill="none" stroke="black" points="719.19,-335.8 719.19,-371.4 1032.1,-371.4 1032.1,-335.8 719.19,-335.8"/>
<text text-anchor="start" x="726.19" y="-349.2" font-family="Arial Bold" font-size="18.00">public.action_parameter</text>
<text text-anchor="start" x="900.61" y="-349.2" font-family="Arial" font-size="14.00">    </text>
<text text-anchor="start" x="931.73" y="-349.2" font-family="Arial" font-size="14.00" fill="#666666">[BASE TABLE]</text>
<polygon fill="none" stroke="black" points="719.19,-305 719.19,-335.8 1032.1,-335.8 1032.1,-305 719.19,-305"/>
<text text-anchor="start" x="726.19" y="-317.2" font-family="Arial" font-size="14.00">model_key </text>
<text text-anchor="start" x="797.78" y="-317.2" font-family="Arial" font-size="14.00" fill="#666666">[text]</text>
<polygon fill="none" stroke="black" points="719.19,-274.2 719.19,-305 1032.1,-305 1032.1,-274.2 719.19,-274.2"/>
<text text-anchor="start" x="726.19" y="-286.4" font-family="Arial" font-size="14.00">action_key </text>
<text text-anchor="start" x="797.01" y="-286.4" font-family="Arial" font-size="14.00" fill="#666666">[text]</text>
<polygon fill="none" stroke="black" points="719.19,-243.4 719.19,-274.2 1032.1,-274.2 1032.1,-243.4 719.19,-243.4"/>
<text text-anchor="start" x="726.19" y="-255.6" font-family="Arial" font-size="14.00">parameter_key </text>
<text text-anchor="start" x="823.46" y="-255.6" font-family="Arial" font-size="14.00" fill="#666666">[text]</text>
<polygon fill="none" stroke="black" points="719.19,-212.6 719.19,-243.4 1032.1,-243.4 1032.1,-212.6 719.19,-212.6"/>
<text text-anchor="start" x="726.19" y="-224.8" font-family="Arial" font-size="14.00">name </text>
<text text-anchor="start" x="765.1" y="-224.8" font-family="Arial" font-size="14.00" fill="#666666">[text]</text>
<polygon fill="none" stroke="black" points="719.19,-181.8 719.19,-212.6 1032.1,-212.6 1032.1,-181.8 719.19,-181.8"/>
<text text-anchor="start" x="726.19" y="-194" font-family="Arial" font-size="14.00">sort_order </text>
<text text-anchor="start" x="793.89" y="-194" font-family="Arial" font-size="14.00" fill="#666666">[integer]</text>
<polygon fill="none" stroke="black" points="719.19,-151 719.19,-181.8 1032.1,-181.8 1032.1,-151 719.19,-151"/>
<text text-anchor="start" x="726.19" y="-163.2" font-family="Arial" font-size="14.00">data_type_rules </text>
<text text-anchor="start" x="829.71" y="-163.2" font-family="Arial" font-size="14.00" fill="#666666">[text]</text>
<polygon fill="none" stroke="black" points="719.19,-120.2 719.19,-151 1032.1,-151 1032.1,-120.2 719.19,-120.2"/>
<text text-anchor="start" x="726.19" y="-132.4" font-family="Arial" font-size="14.00">data_type_key </text>
<text text-anchor="start" x="821.15" y="-132.4" font-family="Arial" font-size="14.00" fill="#666666">[text]</text>
<polygon fill="none" stroke="black" points="719.19,-89.4 719.19,-120.2 1032.1,-120.2 1032.1,-89.4 719.19,-89.4"/>
<text text-anchor="start" x="726.19" y="-101.6" font-family="Arial" font-size="14.00">nullable </text>
<text text-anchor="start" x="778.34" y="-101.6" font-family="Arial" font-size="14.00" fill="#666666">[boolean]</text>
</g>
<!-- public.action_parameter_invariant&#45;&gt;public.action_parameter -->
<g id="edge2" class="edge">
<title>public.action_parameter_invariant:model_key&#45;&gt;public.action_parameter:model_key</title>
<path fill="none" stroke="black" d="M892.92,-649.96C947.37,-640.43 915.65,-551.81 881.59,-496.8 839,-428.02 761.92,-483.29 719.19,-414.6 697.08,-379.05 676.32,-320.4 718.19,-320.4"/>
<polygon fill="black" stroke="black" points="892.89,-649.96 882.56,-646.29 887.57,-650.4 883.25,-650.75 883.25,-650.75 883.25,-650.75 887.57,-650.4 883.28,-655.26 892.89,-649.96"/>
<text text-anchor="start" x="889.59" y="-660.8" font-family="Arial" font-size="10.00">FOREIGN KEY (model_key, action_key, parameter_key) REFERENCES action_parameter(model_key, action_key, parameter_key) ON DELETE CASCADE</text>
</g>
</g>
</svg>
