<?xml version="1.0" encoding="UTF-8" standalone="no"?>
<!DOCTYPE svg PUBLIC "-//W3C//DTD SVG 1.1//EN"
 "http://www.w3.org/Graphics/SVG/1.1/DTD/svg11.dtd">
<!-- Generated by graphviz version 12.1.2 (20240928.0832)
 -->
<!-- Title: public.action_safety Pages: 1 -->
<svg width="1302pt" height="602pt"
 viewBox="0.00 0.00 1301.70 602.00" xmlns="http://www.w3.org/2000/svg" xmlns:xlink="http://www.w3.org/1999/xlink">
<g id="graph0" class="graph" transform="scale(1 1) rotate(0) translate(4 598)">
<title>public.action_safety</title>
<polygon fill="white" stroke="none" points="-4,4 -4,-598 1297.7,-598 1297.7,4 -4,4"/>
<!-- public.action_safety -->
<g id="node1" class="node">
<title>public.action_safety</title>
<polygon fill="#efefef" stroke="none" points="495.7,-512.2 495.7,-547.8 779.64,-547.8 779.64,-512.2 495.7,-512.2"/>
<polygon fill="none" stroke="black" points="495.7,-512.2 495.7,-547.8 779.64,-547.8 779.64,-512.2 495.7,-512.2"/>
<text text-anchor="start" x="502.7" y="-525.6" font-family="Arial Bold" font-size="18.00">public.action_safety</text>
<text text-anchor="start" x="648.15" y="-525.6" font-family="Arial" font-size="14.00">    </text>
<text text-anchor="start" x="679.27" y="-525.6" font-family="Arial" font-size="14.00" fill="#666666">[BASE TABLE]</text>
<polygon fill="none" stroke="black" points="495.7,-481.4 495.7,-512.2 779.64,-512.2 779.64,-481.4 495.7,-481.4"/>
<text text-anchor="start" x="502.7" y="-493.6" font-family="Arial" font-size="14.00">model_key </text>
<text text-anchor="start" x="574.3" y="-493.6" font-family="Arial" font-size="14.00" fill="#666666">[text]</text>
<polygon fill="none" stroke="black" points="495.7,-450.6 495.7,-481.4 779.64,-481.4 779.64,-450.6 495.7,-450.6"/>
<text text-anchor="start" x="502.7" y="-462.8" font-family="Arial" font-size="14.00">action_key </text>
<text text-anchor="start" x="573.52" y="-462.8" font-family="Arial" font-size="14.00" fill="#666666">[text]</text>
<polygon fill="none" stroke="black" points="495.7,-419.8 495.7,-450.6 779.64,-450.6 779.64,-419.8 495.7,-419.8"/>
<text text-anchor="start" x="502.7" y="-432" font-family="Arial" font-size="14.00">logic_key </text>
<text text-anchor="start" x="564.96" y="-432" font-family="Arial" font-size="14.00" fill="#666666">[text]</text>
<polygon fill="none" stroke="black" stroke-width="3" points="494.2,-418.3 494.2,-549.3 781.14,-549.3 781.14,-418.3 494.2,-418.3"/>
</g>
<!-- public.logic -->
<g id="node2" class="node">
<title>public.logic</title>
<polygon fill="#efefef" stroke="none" points="359.69,-258.8 359.69,-294.4 583.66,-294.4 583.66,-258.8 359.69,-258.8"/>
<polygon fill="none" stroke="black" points="359.69,-258.8 359.69,-294.4 583.66,-294.4 583.66,-258.8 359.69,-258.8"/>
<text text-anchor="start" x="366.69" y="-272.2" font-family="Arial Bold" font-size="18.00">public.logic</text>
<text text-anchor="start" x="452.17" y="-272.2" font-family="Arial" font-size="14.00">    </text>
<text text-anchor="start" x="483.29" y="-272.2" font-family="Arial" font-size="14.00" fill="#666666">[BASE TABLE]</text>
<polygon fill="none" stroke="black" points="359.69,-228 359.69,-258.8 583.66,-258.8 583.66,-228 359.69,-228"/>
<text text-anchor="start" x="366.69" y="-240.2" font-family="Arial" font-size="14.00">logic_key </text>
<text text-anchor="start" x="428.94" y="-240.2" font-family="Arial" font-size="14.00" fill="#666666">[text]</text>
<polygon fill="none" stroke="black" points="359.69,-197.2 359.69,-228 583.66,-228 583.66,-197.2 359.69,-197.2"/>
<text text-anchor="start" x="366.69" y="-209.4" font-family="Arial" font-size="14.00">model_key </text>
<text text-anchor="start" x="438.28" y="-209.4" font-family="Arial" font-size="14.00" fill="#666666">[text]</text>
<polygon fill="none" stroke="black" points="359.69,-166.4 359.69,-197.2 583.66,-197.2 583.66,-166.4 359.69,-166.4"/>
<text text-anchor="start" x="366.69" y="-178.6" font-family="Arial" font-size="14.00">sort_order </text>
<text text-anchor="start" x="434.38" y="-178.6" font-family="Arial" font-size="14.00" fill="#666666">[integer]</text>
<polygon fill="none" stroke="black" points="359.69,-135.6 359.69,-166.4 583.66,-166.4 583.66,-135.6 359.69,-135.6"/>
<text text-anchor="start" x="366.69" y="-147.8" font-family="Arial" font-size="14.00">logic_type </text>
<text text-anchor="start" x="433.62" y="-147.8" font-family="Arial" font-size="14.00" fill="#666666">[logic_type]</text>
<polygon fill="none" stroke="black" points="359.69,-104.8 359.69,-135.6 583.66,-135.6 583.66,-104.8 359.69,-104.8"/>
<text text-anchor="start" x="366.69" y="-117" font-family="Arial" font-size="14.00">description </text>
<text text-anchor="start" x="438.28" y="-117" font-family="Arial" font-size="14.00" fill="#666666">[text]</text>
<polygon fill="none" stroke="black" points="359.69,-74 359.69,-104.8 583.66,-104.8 583.66,-74 359.69,-74"/>
<text text-anchor="start" x="366.69" y="-86.2" font-family="Arial" font-size="14.00">notation </text>
<text text-anchor="start" x="420.4" y="-86.2" font-family="Arial" font-size="14.00" fill="#666666">[notation]</text>
<polygon fill="none" stroke="black" points="359.69,-43.2 359.69,-74 583.66,-74 583.66,-43.2 359.69,-43.2"/>
<text text-anchor="start" x="366.69" y="-55.4" font-family="Arial" font-size="14.00">specification </text>
<text text-anchor="start" x="447.62" y="-55.4" font-family="Arial" font-size="14.00" fill="#666666">[text]</text>
</g>
<!-- public.action_safety&#45;&gt;public.logic -->
<g id="edge1" class="edge">
<title>public.action_safety:model_key&#45;&gt;public.logic:model_key</title>
<path fill="none" stroke="black" d="M484.57,-495.74C443.4,-486.31 467.1,-415.84 495.7,-373.6 519.39,-338.62 559.98,-372.58 583.66,-337.6 614.81,-291.59 640.22,-212.6 584.66,-212.6"/>
<polygon fill="black" stroke="black" points="484.42,-495.73 493.9,-501.24 489.73,-496.28 494.04,-496.73 494.04,-496.73 494.04,-496.73 489.73,-496.28 494.84,-492.29 484.42,-495.73"/>
<text text-anchor="start" x="7" y="-506.8" font-family="Arial" font-size="10.00">FOREIGN KEY (model_key, logic_key) REFERENCES logic(model_key, logic_key) ON DELETE CASCADE</text>
</g>
<!-- public.action -->
<g id="node3" class="node">
<title>public.action</title>
<polygon fill="#efefef" stroke="none" points="687.69,-228 687.69,-263.6 919.65,-263.6 919.65,-228 687.69,-228"/>
<polygon fill="none" stroke="black" points="687.69,-228 687.69,-263.6 919.65,-263.6 919.65,-228 687.69,-228"/>
<text text-anchor="start" x="694.69" y="-241.4" font-family="Arial Bold" font-size="18.00">public.action</text>
<text text-anchor="start" x="788.16" y="-241.4" font-family="Arial" font-size="14.00">    </text>
<text text-anchor="start" x="819.28" y="-241.4" font-family="Arial" font-size="14.00" fill="#666666">[BASE TABLE]</text>
<polygon fill="none" stroke="black" points="687.69,-197.2 687.69,-228 919.65,-228 919.65,-197.2 687.69,-197.2"/>
<text text-anchor="start" x="694.69" y="-209.4" font-family="Arial" font-size="14.00">model_key </text>
<text text-anchor="start" x="766.29" y="-209.4" font-family="Arial" font-size="14.00" fill="#666666">[text]</text>
<polygon fill="none" stroke="black" points="687.69,-166.4 687.69,-197.2 919.65,-197.2 919.65,-166.4 687.69,-166.4"/>
<text text-anchor="start" x="694.69" y="-178.6" font-family="Arial" font-size="14.00">class_key </text>
<text text-anchor="start" x="760.05" y="-178.6" font-family="Arial" font-size="14.00" fill="#666666">[text]</text>
<polygon fill="none" stroke="black" points="687.69,-135.6 687.69,-166.4 919.65,-166.4 919.65,-135.6 687.69,-135.6"/>
<text text-anchor="start" x="694.69" y="-147.8" font-family="Arial" font-size="14.00">action_key </text>
<text text-anchor="start" x="765.51" y="-147.8" font-family="Arial" font-size="14.00" fill="#666666">[text]</text>
<polygon fill="none" stroke="black" points="687.69,-104.8 687.69,-135.6 919.65,-135.6 919.65,-104.8 687.69,-104.8"/>
<text text-anchor="start" x="694.69" y="-117" font-family="Arial" font-size="14.00">name </text>
<text text-anchor="start" x="733.6" y="-117" font-family="Arial" font-size="14.00" fill="#666666">[text]</text>
<polygon fill="none" stroke="black" points="687.69,-74 687.69,-104.8 919.65,-104.8 919.65,-74 687.69,-74"/>
<text text-anchor="start" x="694.69" y="-86.2" font-family="Arial" font-size="14.00">details </text>
<text text-anchor="start" x="739.05" y="-86.2" font-family="Arial" font-size="14.00" fill="#666666">[text]</text>
</g>
<!-- public.action_safety&#45;&gt;public.action -->
<g id="edge2" class="edge">
<title>public.action_safety:model_key&#45;&gt;public.action:model_key</title>
<path fill="none" stroke="black" d="M790.96,-495.73C831.11,-486.45 802.94,-418.86 779.64,-373.6 756.53,-328.69 710.86,-351.68 687.69,-306.8 668.49,-269.6 644.82,-212.6 686.69,-212.6"/>
<polygon fill="black" stroke="black" points="790.92,-495.73 780.51,-492.29 785.62,-496.28 781.31,-496.73 781.31,-496.73 781.31,-496.73 785.62,-496.28 781.44,-501.24 790.92,-495.73"/>
<text text-anchor="start" x="787.64" y="-506.8" font-family="Arial" font-size="10.00">FOREIGN KEY (model_key, action_key) REFERENCES action(model_key, action_key) ON DELETE CASCADE</text>
</g>
</g>
</svg>
