<?xml version="1.0" encoding="UTF-8" standalone="no"?>
<!DOCTYPE svg PUBLIC "-//W3C//DTD SVG 1.1//EN"
 "http://www.w3.org/Graphics/SVG/1.1/DTD/svg11.dtd">
<!-- Generated by graphviz version 12.1.2 (20240928.0832)
 -->
<!-- Title: public.action_parameter_simulation_spec Pages: 1 -->
<svg width="1652pt" height="756pt"
 viewBox="0.00 0.00 1652.30 756.00" xmlns="http://www.w3.org/2000/svg" xmlns:xlink="http://www.w3.org/1999/xlink">
<g id="graph0" class="graph" transform="scale(1 1) rotate(0) translate(4 752)">
<title>public.action_parameter_simulation_spec</title>
<polygon fill="white" stroke="none" points="-4,4 -4,-752 1648.3,-752 1648.3,4 -4,4"/>
<!-- public.action_parameter_simulation_spec -->
<g id="node1" class="node">
<title>public.action_parameter_simulation_spec</title>
<polygon fill="#efefef" stroke="none" points="495.7,-666.2 495.7,-701.8 934.59,-701.8 934.59,-666.2 495.7,-666.2"/>
<polygon fill="none" stroke="black" points="495.7,-666.2 495.7,-701.8 934.59,-701.8 934.59,-666.2 495.7,-666.2"/>
<text text-anchor="start" x="502.7" y="-679.6" font-family="Arial Bold" font-size="18.00">public.action_parameter_simulation_spec</text>
<text text-anchor="start" x="803.1" y="-679.6" font-family="Arial" font-size="14.00">    </text>
<text text-anchor="start" x="834.22" y="-679.6" font-family="Arial" font-size="14.00" fill="#666666">[BASE TABLE]</text>
<polygon fill="none" stroke="black" points="495.7,-635.4 495.7,-666.2 934.59,-666.2 934.59,-635.4 495.7,-635.4"/>
<text text-anchor="start" x="502.7" y="-647.6" font-family="Arial" font-size="14.00">model_key </text>
<text text-anchor="start" x="574.3" y="-647.6" font-family="Arial" font-size="14.00" fill="#666666">[text]</text>
<polygon fill="none" stroke="black" points="495.7,-604.6 495.7,-635.4 934.59,-635.4 934.59,-604.6 495.7,-604.6"/>
<text text-anchor="start" x="502.7" y="-616.8" font-family="Arial" font-size="14.00">action_key </text>
<text text-anchor="start" x="573.52" y="-616.8" font-family="Arial" font-size="14.00" fill="#666666">[text]</text>
<polygon fill="none" stroke="black" points="495.7,-573.8 495.7,-604.6 934.59,-604.6 934.59,-573.8 495.7,-573.8"/>
<text text-anchor="start" x="502.7" y="-586" font-family="Arial" font-size="14.00">parameter_key </text>
<text text-anchor="start" x="599.97" y="-586" font-family="Arial" font-size="14.00" fill="#666666">[text]</text>
<polygon fill="none" stroke="black" points="495.7,-543 495.7,-573.8 934.59,-573.8 934.59,-543 495.7,-543"/>
<text text-anchor="start" x="502.7" y="-555.2" font-family="Arial" font-size="14.00">logic_key </text>
<text text-anchor="start" x="564.96" y="-555.2" font-family="Arial" font-size="14.00" fill="#666666">[text]</text>
<polygon fill="none" stroke="black" stroke-width="3" points="494.2,-541.5 494.2,-703.3 936.09,-703.3 936.09,-541.5 494.2,-541.5"/>
</g>
<!-- public.logic -->
<g id="node2" class="node">
<title>public.logic</title>
<polygon fill="#efefef" stroke="none" points="417.16,-382 417.16,-417.6 641.13,-417.6 641.13,-382 417.16,-382"/>
<polygon fill="none" stroke="black" points="417.16,-382 417.16,-417.6 641.13,-417.6 641.13,-382 417.16,-382"/>
<text text-anchor="start" x="424.16" y="-395.4" font-family="Arial Bold" font-size="18.00">public.logic</text>
<text text-anchor="start" x="509.65" y="-395.4" font-family="Arial" font-size="14.00">    </text>
<text text-anchor="start" x="540.76" y="-395.4" font-family="Arial" font-size="14.00" fill="#666666">[BASE TABLE]</text>
<polygon fill="none" stroke="black" points="417.16,-351.2 417.16,-382 641.13,-382 641.13,-351.2 417.16,-351.2"/>
<text text-anchor="start" x="424.16" y="-363.4" font-family="Arial" font-size="14.00">logic_key </text>
<text text-anchor="start" x="486.42" y="-363.4" font-family="Arial" font-size="14.00" fill="#666666">[text]</text>
<polygon fill="none" stroke="black" points="417.16,-320.4 417.16,-351.2 641.13,-351.2 641.13,-320.4 417.16,-320.4"/>
<text text-anchor="start" x="424.16" y="-332.6" font-family="Arial" font-size="14.00">model_key </text>
<text text-anchor="start" x="495.76" y="-332.6" font-family="Arial" font-size="14.00" fill="#666666">[text]</text>
<polygon fill="none" stroke="black" points="417.16,-289.6 417.16,-320.4 641.13,-320.4 641.13,-289.6 417.16,-289.6"/>
<text text-anchor="start" x="424.16" y="-301.8" font-family="Arial" font-size="14.00">sort_order </text>
<text text-anchor="start" x="491.86" y="-301.8" font-family="Arial" font-size="14.00" fill="#666666">[integer]</text>
<polygon fill="none" stroke="black" points="417.16,-258.8 417.16,-289.6 641.13,-289.6 641.13,-258.8 417.16,-258.8"/>
<text text-anchor="start" x="424.16" y="-271" font-family="Arial" font-size="14.00">logic_type </text>
<text text-anchor="start" x="491.09" y="-271" font-family="Arial" font-size="14.00" fill="#666666">[logic_type]</text>
<polygon fill="none" stroke="black" points="417.16,-228 417.16,-258.8 641.13,-258.8 641.13,-228 417.16,-228"/>
<text text-anchor="start" x="424.16" y="-240.2" font-family="Arial" font-size="14.00">description </text>
<text text-anchor="start" x="495.76" y="-240.2" font-family="Arial" font-size="14.00" fill="#666666">[text]</text>
<polygon fill="none" stroke="black" points="417.16,-197.2 417.16,-228 641.13,-228 641.13,-197.2 417.16,-197.2"/>
<text text-anchor="start" x="424.16" y="-209.4" font-family="Arial" font-size="14.00">target </text>
<text text-anchor="start" x="463.85" y="-209.4" font-family="Arial" font-size="14.00" fill="#666666">[text]</text>
<polygon fill="none" stroke="black" points="417.16,-166.4 417.16,-197.2 641.13,-197.2 641.13,-166.4 417.16,-166.4"/>
<text text-anchor="start" x="424.16" y="-178.6" font-family="Arial" font-size="14.00">notation </text>
<text text-anchor="start" x="477.87" y="-178.6" font-family="Arial" font-size="14.00" fill="#666666">[notation]</text>
<polygon fill="none" stroke="black" points="417.16,-135.6 417.16,-166.4 641.13,-166.4 641.13,-135.6 417.16,-135.6"/>
<text text-anchor="start" x="424.16" y="-147.8" font-family="Arial" font-size="14.00">specification </text>
<text text-anchor="start" x="505.09" y="-147.8" font-family="Arial" font-size="14.00" fill="#666666">[text]</text>
<polygon fill="none" stroke="black" points="417.16,-104.8 417.16,-135.6 641.13,-135.6 641.13,-104.8 417.16,-104.8"/>
<text text-anchor="start" x="424.16" y="-117" font-family="Arial" font-size="14.00">target_type_notation </text>
<text text-anchor="start" x="555.71" y="-117" font-family="Arial" font-size="14.00" fill="#666666">[notation]</text>
<polygon fill="none" stroke="black" points="417.16,-74 417.16,-104.8 641.13,-104.8 641.13,-74 417.16,-74"/>
<text text-anchor="start" x="424.16" y="-86.2" font-family="Arial" font-size="14.00">target_type_specification </text>
<text text-anchor="start" x="582.93" y="-86.2" font-family="Arial" font-size="14.00" fill="#666666">[text]</text>
<polygon fill="none" stroke="black" points="417.16,-43.2 417.16,-74 641.13,-74 641.13,-43.2 417.16,-43.2"/>
<text text-anchor="start" x="424.16" y="-55.4" font-family="Arial" font-size="14.00">destroy_event_specification </text>
<text text-anchor="start" x="600.82" y="-55.4" font-family="Arial" font-size="14.00" fill="#666666">[text]</text>
</g>
<!-- public.action_parameter_simulation_spec&#45;&gt;public.logic -->
<g id="edge1" class="edge">
<title>public.action_parameter_simulation_spec:model_key&#45;&gt;public.logic:model_key</title>
<path fill="none" stroke="black" d="M484.32,-649.92C429.27,-639.98 455.66,-547.62 495.7,-496.8 536.91,-444.5 599.89,-513.07 641.13,-460.8 675.55,-417.19 697.69,-335.8 642.13,-335.8"/>
<polygon fill="black" stroke="black" points="484.41,-649.93 493.99,-655.26 489.72,-650.38 494.04,-650.74 494.04,-650.74 494.04,-650.74 489.72,-650.38 494.75,-646.29 484.41,-649.93"/>
<text text-anchor="start" x="7" y="-660.8" font-family="Arial" font-size="10.00">FOREIGN KEY (model_key, logic_key) REFERENCES logic(model_key, logic_key) ON DELETE CASCADE</text>
</g>
<!-- public.action_parameter -->
<g id="node3" class="node">
<title>public.action_parameter</title>
<polygon fill="#efefef" stroke="none" points="745.69,-335.8 745.69,-371.4 1058.6,-371.4 1058.6,-335.8 745.69,-335.8"/>
<polygon fill="none" stroke="black" points="745.69,-335.8 745.69,-371.4 1058.6,-371.4 1058.6,-335.8 745.69,-335.8"/>
<text text-anchor="start" x="752.69" y="-349.2" font-family="Arial Bold" font-size="18.00">public.action_parameter</text>
<text text-anchor="start" x="927.11" y="-349.2" font-family="Arial" font-size="14.00">    </text>
<text text-anchor="start" x="958.23" y="-349.2" font-family="Arial" font-size="14.00" fill="#666666">[BASE TABLE]</text>
<polygon fill="none" stroke="black" points="745.69,-305 745.69,-335.8 1058.6,-335.8 1058.6,-305 745.69,-305"/>
<text text-anchor="start" x="752.69" y="-317.2" font-family="Arial" font-size="14.00">model_key </text>
<text text-anchor="start" x="824.29" y="-317.2" font-family="Arial" font-size="14.00" fill="#666666">[text]</text>
<polygon fill="none" stroke="black" points="745.69,-274.2 745.69,-305 1058.6,-305 1058.6,-274.2 745.69,-274.2"/>
<text text-anchor="start" x="752.69" y="-286.4" font-family="Arial" font-size="14.00">action_key </text>
<text text-anchor="start" x="823.51" y="-286.4" font-family="Arial" font-size="14.00" fill="#666666">[text]</text>
<polygon fill="none" stroke="black" points="745.69,-243.4 745.69,-274.2 1058.6,-274.2 1058.6,-243.4 745.69,-243.4"/>
<text text-anchor="start" x="752.69" y="-255.6" font-family="Arial" font-size="14.00">parameter_key </text>
<text text-anchor="start" x="849.96" y="-255.6" font-family="Arial" font-size="14.00" fill="#666666">[text]</text>
<polygon fill="none" stroke="black" points="745.69,-212.6 745.69,-243.4 1058.6,-243.4 1058.6,-212.6 745.69,-212.6"/>
<text text-anchor="start" x="752.69" y="-224.8" font-family="Arial" font-size="14.00">name </text>
<text text-anchor="start" x="791.6" y="-224.8" font-family="Arial" font-size="14.00" fill="#666666">[text]</text>
<polygon fill="none" stroke="black" points="745.69,-181.8 745.69,-212.6 1058.6,-212.6 1058.6,-181.8 745.69,-181.8"/>
<text text-anchor="start" x="752.69" y="-194" font-family="Arial" font-size="14.00">sort_order </text>
<text text-anchor="start" x="820.39" y="-194" font-family="Arial" font-size="14.00" fill="#666666">[integer]</text>
<polygon fill="none" stroke="black" points="745.69,-151 745.69,-181.8 1058.6,-181.8 1058.6,-151 745.69,-151"/>
<text text-anchor="start" x="752.69" y="-163.2" font-family="Arial" font-size="14.00">data_type_rules </text>
<text text-anchor="start" x="856.21" y="-163.2" font-family="Arial" font-size="14.00" fill="#666666">[text]</text>
<polygon fill="none" stroke="black" points="745.69,-120.2 745.69,-151 1058.6,-151 1058.6,-120.2 745.69,-120.2"/>
<text text-anchor="start" x="752.69" y="-132.4" font-family="Arial" font-size="14.00">data_type_key </text>
<text text-anchor="start" x="847.65" y="-132.4" font-family="Arial" font-size="14.00" fill="#666666">[text]</text>
<polygon fill="none" stroke="black" points="745.69,-89.4 745.69,-120.2 1058.6,-120.2 1058.6,-89.4 745.69,-89.4"/>
<text text-anchor="start" x="752.69" y="-101.6" font-family="Arial" font-size="14.00">nullable </text>
<text text-anchor="start" x="804.85" y="-101.6" font-family="Arial" font-size="14.00" fill="#666666">[boolean]</text>
</g>
<!-- public.action_parameter_simulation_spec&#45;&gt;public.action_parameter -->
<g id="edge2" class="edge">
<title>public.action_parameter_simulation_spec:model_key&#45;&gt;public.action_parameter:model_key</title>
<path fill="none" stroke="black" d="M945.94,-649.95C1000.55,-640.32 970.24,-550.8 934.59,-496.8 884.15,-420.39 796.29,-490.91 745.69,-414.6 722.56,-379.7 702.83,-320.4 744.69,-320.4"/>
<polygon fill="black" stroke="black" points="945.89,-649.96 935.56,-646.29 940.58,-650.39 936.26,-650.75 936.26,-650.75 936.26,-650.75 940.58,-650.39 936.29,-655.26 945.89,-649.96"/>
<text text-anchor="start" x="942.59" y="-660.8" font-family="Arial" font-size="10.00">FOREIGN KEY (model_key, action_key, parameter_key) REFERENCES action_parameter(model_key, action_key, parameter_key) ON DELETE CASCADE</text>
</g>
</g>
</svg>
