<?xml version="1.0" encoding="UTF-8" standalone="no"?>
<!DOCTYPE svg PUBLIC "-//W3C//DTD SVG 1.1//EN"
 "http://www.w3.org/Graphics/SVG/1.1/DTD/svg11.dtd">
<!-- Generated by graphviz version 12.1.2 (20240928.0832)
 -->
<!-- Title: public.global_function Pages: 1 -->
<svg width="852pt" height="664pt"
 viewBox="0.00 0.00 851.86 663.60" xmlns="http://www.w3.org/2000/svg" xmlns:xlink="http://www.w3.org/1999/xlink">
<g id="graph0" class="graph" transform="scale(1 1) rotate(0) translate(4 659.6)">
<title>public.global_function</title>
<polygon fill="white" stroke="none" points="-4,4 -4,-659.6 847.86,-659.6 847.86,4 -4,4"/>
<!-- public.global_function -->
<g id="node1" class="node">
<title>public.global_function</title>
<polygon fill="#efefef" stroke="none" points="46.2,-573.8 46.2,-609.4 348.16,-609.4 348.16,-573.8 46.2,-573.8"/>
<polygon fill="none" stroke="black" points="46.2,-573.8 46.2,-609.4 348.16,-609.4 348.16,-573.8 46.2,-573.8"/>
<text text-anchor="start" x="53.2" y="-587.2" font-family="Arial Bold" font-size="18.00">public.global_function</text>
<text text-anchor="start" x="216.67" y="-587.2" font-family="Arial" font-size="14.00">    </text>
<text text-anchor="start" x="247.78" y="-587.2" font-family="Arial" font-size="14.00" fill="#666666">[BASE TABLE]</text>
<polygon fill="none" stroke="black" points="46.2,-543 46.2,-573.8 348.16,-573.8 348.16,-543 46.2,-543"/>
<text text-anchor="start" x="53.2" y="-555.2" font-family="Arial" font-size="14.00">model_key </text>
<text text-anchor="start" x="124.79" y="-555.2" font-family="Arial" font-size="14.00" fill="#666666">[text]</text>
<polygon fill="none" stroke="black" points="46.2,-512.2 46.2,-543 348.16,-543 348.16,-512.2 46.2,-512.2"/>
<text text-anchor="start" x="53.2" y="-524.4" font-family="Arial" font-size="14.00">logic_key </text>
<text text-anchor="start" x="115.45" y="-524.4" font-family="Arial" font-size="14.00" fill="#666666">[text]</text>
<polygon fill="none" stroke="black" points="46.2,-481.4 46.2,-512.2 348.16,-512.2 348.16,-481.4 46.2,-481.4"/>
<text text-anchor="start" x="53.2" y="-493.6" font-family="Arial" font-size="14.00">name </text>
<text text-anchor="start" x="92.11" y="-493.6" font-family="Arial" font-size="14.00" fill="#666666">[text]</text>
<polygon fill="none" stroke="black" points="46.2,-450.6 46.2,-481.4 348.16,-481.4 348.16,-450.6 46.2,-450.6"/>
<text text-anchor="start" x="53.2" y="-462.8" font-family="Arial" font-size="14.00">parameters </text>
<text text-anchor="start" x="127.9" y="-462.8" font-family="Arial" font-size="14.00" fill="#666666">[text[]]</text>
<polygon fill="none" stroke="black" stroke-width="3" points="44.7,-449.1 44.7,-610.9 349.66,-610.9 349.66,-449.1 44.7,-449.1"/>
</g>
<!-- public.logic -->
<g id="node2" class="node">
<title>public.logic</title>
<polygon fill="#efefef" stroke="none" points="85.19,-289.6 85.19,-325.2 309.16,-325.2 309.16,-289.6 85.19,-289.6"/>
<polygon fill="none" stroke="black" points="85.19,-289.6 85.19,-325.2 309.16,-325.2 309.16,-289.6 85.19,-289.6"/>
<text text-anchor="start" x="92.19" y="-303" font-family="Arial Bold" font-size="18.00">public.logic</text>
<text text-anchor="start" x="177.68" y="-303" font-family="Arial" font-size="14.00">    </text>
<text text-anchor="start" x="208.79" y="-303" font-family="Arial" font-size="14.00" fill="#666666">[BASE TABLE]</text>
<polygon fill="none" stroke="black" points="85.19,-258.8 85.19,-289.6 309.16,-289.6 309.16,-258.8 85.19,-258.8"/>
<text text-anchor="start" x="92.19" y="-271" font-family="Arial" font-size="14.00">logic_key </text>
<text text-anchor="start" x="154.45" y="-271" font-family="Arial" font-size="14.00" fill="#666666">[text]</text>
<polygon fill="none" stroke="black" points="85.19,-228 85.19,-258.8 309.16,-258.8 309.16,-228 85.19,-228"/>
<text text-anchor="start" x="92.19" y="-240.2" font-family="Arial" font-size="14.00">model_key </text>
<text text-anchor="start" x="163.79" y="-240.2" font-family="Arial" font-size="14.00" fill="#666666">[text]</text>
<polygon fill="none" stroke="black" points="85.19,-197.2 85.19,-228 309.16,-228 309.16,-197.2 85.19,-197.2"/>
<text text-anchor="start" x="92.19" y="-209.4" font-family="Arial" font-size="14.00">sort_order </text>
<text text-anchor="start" x="159.89" y="-209.4" font-family="Arial" font-size="14.00" fill="#666666">[integer]</text>
<polygon fill="none" stroke="black" points="85.19,-166.4 85.19,-197.2 309.16,-197.2 309.16,-166.4 85.19,-166.4"/>
<text text-anchor="start" x="92.19" y="-178.6" font-family="Arial" font-size="14.00">logic_type </text>
<text text-anchor="start" x="159.12" y="-178.6" font-family="Arial" font-size="14.00" fill="#666666">[logic_type]</text>
<polygon fill="none" stroke="black" points="85.19,-135.6 85.19,-166.4 309.16,-166.4 309.16,-135.6 85.19,-135.6"/>
<text text-anchor="start" x="92.19" y="-147.8" font-family="Arial" font-size="14.00">description </text>
<text text-anchor="start" x="163.79" y="-147.8" font-family="Arial" font-size="14.00" fill="#666666">[text]</text>
<polygon fill="none" stroke="black" points="85.19,-104.8 85.19,-135.6 309.16,-135.6 309.16,-104.8 85.19,-104.8"/>
<text text-anchor="start" x="92.19" y="-117" font-family="Arial" font-size="14.00">target </text>
<text text-anchor="start" x="131.88" y="-117" font-family="Arial" font-size="14.00" fill="#666666">[text]</text>
<polygon fill="none" stroke="black" points="85.19,-74 85.19,-104.8 309.16,-104.8 309.16,-74 85.19,-74"/>
<text text-anchor="start" x="92.19" y="-86.2" font-family="Arial" font-size="14.00">notation </text>
<text text-anchor="start" x="145.9" y="-86.2" font-family="Arial" font-size="14.00" fill="#666666">[notation]</text>
<polygon fill="none" stroke="black" points="85.19,-43.2 85.19,-74 309.16,-74 309.16,-43.2 85.19,-43.2"/>
<text text-anchor="start" x="92.19" y="-55.4" font-family="Arial" font-size="14.00">specification </text>
<text text-anchor="start" x="173.12" y="-55.4" font-family="Arial" font-size="14.00" fill="#666666">[text]</text>
</g>
<!-- public.global_function&#45;&gt;public.logic -->
<g id="edge1" class="edge">
<title>public.global_function:model_key&#45;&gt;public.logic:model_key</title>
<path fill="none" stroke="black" d="M359.07,-556.05C415.65,-527.22 377.12,-243.4 310.16,-243.4"/>
<polygon fill="black" stroke="black" points="359.21,-556.01 348.44,-553.94 354.02,-557.24 349.81,-558.25 349.81,-558.25 349.81,-558.25 354.02,-557.24 350.52,-562.7 359.21,-556.01"/>
<text text-anchor="start" x="356.16" y="-568.4" font-family="Arial" font-size="10.00">FOREIGN KEY (model_key, logic_key) REFERENCES logic(model_key, logic_key) ON DELETE CASCADE</text>
</g>
</g>
</svg>
