<?xml version="1.0" encoding="UTF-8" standalone="no"?>
<!DOCTYPE svg PUBLIC "-//W3C//DTD SVG 1.1//EN"
 "http://www.w3.org/Graphics/SVG/1.1/DTD/svg11.dtd">
<!-- Generated by graphviz version 12.1.2 (20240928.0832)
 -->
<!-- Title: public.query Pages: 1 -->
<svg width="1754pt" height="1345pt"
 viewBox="0.00 0.00 1754.26 1345.20" xmlns="http://www.w3.org/2000/svg" xmlns:xlink="http://www.w3.org/1999/xlink">
<g id="graph0" class="graph" transform="scale(1 1) rotate(0) translate(4 1341.2)">
<title>public.query</title>
<polygon fill="white" stroke="none" points="-4,4 -4,-1341.2 1750.26,-1341.2 1750.26,4 -4,4"/>
<!-- public.query -->
<g id="node1" class="node">
<title>public.query</title>
<polygon fill="#efefef" stroke="none" points="842.61,-666.2 842.61,-701.8 1071.57,-701.8 1071.57,-666.2 842.61,-666.2"/>
<polygon fill="none" stroke="black" points="842.61,-666.2 842.61,-701.8 1071.57,-701.8 1071.57,-666.2 842.61,-666.2"/>
<text text-anchor="start" x="849.61" y="-679.6" font-family="Arial Bold" font-size="18.00">public.query</text>
<text text-anchor="start" x="940.08" y="-679.6" font-family="Arial" font-size="14.00">    </text>
<text text-anchor="start" x="971.2" y="-679.6" font-family="Arial" font-size="14.00" fill="#666666">[BASE TABLE]</text>
<polygon fill="none" stroke="black" points="842.61,-635.4 842.61,-666.2 1071.57,-666.2 1071.57,-635.4 842.61,-635.4"/>
<text text-anchor="start" x="849.61" y="-647.6" font-family="Arial" font-size="14.00">model_key </text>
<text text-anchor="start" x="921.2" y="-647.6" font-family="Arial" font-size="14.00" fill="#666666">[text]</text>
<polygon fill="none" stroke="black" points="842.61,-604.6 842.61,-635.4 1071.57,-635.4 1071.57,-604.6 842.61,-604.6"/>
<text text-anchor="start" x="849.61" y="-616.8" font-family="Arial" font-size="14.00">class_key </text>
<text text-anchor="start" x="914.97" y="-616.8" font-family="Arial" font-size="14.00" fill="#666666">[text]</text>
<polygon fill="none" stroke="black" points="842.61,-573.8 842.61,-604.6 1071.57,-604.6 1071.57,-573.8 842.61,-573.8"/>
<text text-anchor="start" x="849.61" y="-586" font-family="Arial" font-size="14.00">query_key </text>
<text text-anchor="start" x="918.09" y="-586" font-family="Arial" font-size="14.00" fill="#666666">[text]</text>
<polygon fill="none" stroke="black" points="842.61,-543 842.61,-573.8 1071.57,-573.8 1071.57,-543 842.61,-543"/>
<text text-anchor="start" x="849.61" y="-555.2" font-family="Arial" font-size="14.00">name </text>
<text text-anchor="start" x="888.52" y="-555.2" font-family="Arial" font-size="14.00" fill="#666666">[text]</text>
<polygon fill="none" stroke="black" points="842.61,-512.2 842.61,-543 1071.57,-543 1071.57,-512.2 842.61,-512.2"/>
<text text-anchor="start" x="849.61" y="-524.4" font-family="Arial" font-size="14.00">details </text>
<text text-anchor="start" x="893.97" y="-524.4" font-family="Arial" font-size="14.00" fill="#666666">[text]</text>
<polygon fill="none" stroke="black" stroke-width="3" points="841.11,-510.7 841.11,-703.3 1073.07,-703.3 1073.07,-510.7 841.11,-510.7"/>
</g>
<!-- public.class -->
<g id="node2" class="node">
<title>public.class</title>
<polygon fill="#efefef" stroke="none" points="845.61,-351.2 845.61,-386.8 1068.58,-386.8 1068.58,-351.2 845.61,-351.2"/>
<polygon fill="none" stroke="black" points="845.61,-351.2 845.61,-386.8 1068.58,-386.8 1068.58,-351.2 845.61,-351.2"/>
<text text-anchor="start" x="852.61" y="-364.6" font-family="Arial Bold" font-size="18.00">public.class</text>
<text text-anchor="start" x="937.09" y="-364.6" font-family="Arial" font-size="14.00">    </text>
<text text-anchor="start" x="968.21" y="-364.6" font-family="Arial" font-size="14.00" fill="#666666">[BASE TABLE]</text>
<polygon fill="none" stroke="black" points="845.61,-320.4 845.61,-351.2 1068.58,-351.2 1068.58,-320.4 845.61,-320.4"/>
<text text-anchor="start" x="852.61" y="-332.6" font-family="Arial" font-size="14.00">model_key </text>
<text text-anchor="start" x="924.2" y="-332.6" font-family="Arial" font-size="14.00" fill="#666666">[text]</text>
<polygon fill="none" stroke="black" points="845.61,-289.6 845.61,-320.4 1068.58,-320.4 1068.58,-289.6 845.61,-289.6"/>
<text text-anchor="start" x="852.61" y="-301.8" font-family="Arial" font-size="14.00">class_key </text>
<text text-anchor="start" x="917.97" y="-301.8" font-family="Arial" font-size="14.00" fill="#666666">[text]</text>
<polygon fill="none" stroke="black" points="845.61,-258.8 845.61,-289.6 1068.58,-289.6 1068.58,-258.8 845.61,-258.8"/>
<text text-anchor="start" x="852.61" y="-271" font-family="Arial" font-size="14.00">name </text>
<text text-anchor="start" x="891.52" y="-271" font-family="Arial" font-size="14.00" fill="#666666">[text]</text>
<polygon fill="none" stroke="black" points="845.61,-228 845.61,-258.8 1068.58,-258.8 1068.58,-228 845.61,-228"/>
<text text-anchor="start" x="852.61" y="-240.2" font-family="Arial" font-size="14.00">subdomain_key </text>
<text text-anchor="start" x="954.56" y="-240.2" font-family="Arial" font-size="14.00" fill="#666666">[text]</text>
<polygon fill="none" stroke="black" points="845.61,-197.2 845.61,-228 1068.58,-228 1068.58,-197.2 845.61,-197.2"/>
<text text-anchor="start" x="852.61" y="-209.4" font-family="Arial" font-size="14.00">actor_key </text>
<text text-anchor="start" x="917.19" y="-209.4" font-family="Arial" font-size="14.00" fill="#666666">[text]</text>
<polygon fill="none" stroke="black" points="845.61,-166.4 845.61,-197.2 1068.58,-197.2 1068.58,-166.4 845.61,-166.4"/>
<text text-anchor="start" x="852.61" y="-178.6" font-family="Arial" font-size="14.00">superclass_of_key </text>
<text text-anchor="start" x="972.45" y="-178.6" font-family="Arial" font-size="14.00" fill="#666666">[text]</text>
<polygon fill="none" stroke="black" points="845.61,-135.6 845.61,-166.4 1068.58,-166.4 1068.58,-135.6 845.61,-135.6"/>
<text text-anchor="start" x="852.61" y="-147.8" font-family="Arial" font-size="14.00">subclass_of_key </text>
<text text-anchor="start" x="960" y="-147.8" font-family="Arial" font-size="14.00" fill="#666666">[text]</text>
<polygon fill="none" stroke="black" points="845.61,-104.8 845.61,-135.6 1068.58,-135.6 1068.58,-104.8 845.61,-104.8"/>
<text text-anchor="start" x="852.61" y="-117" font-family="Arial" font-size="14.00">details </text>
<text text-anchor="start" x="896.97" y="-117" font-family="Arial" font-size="14.00" fill="#666666">[text]</text>
<polygon fill="none" stroke="black" points="845.61,-74 845.61,-104.8 1068.58,-104.8 1068.58,-74 845.61,-74"/>
<text text-anchor="start" x="852.61" y="-86.2" font-family="Arial" font-size="14.00">unfinished_notes </text>
<text text-anchor="start" x="962.36" y="-86.2" font-family="Arial" font-size="14.00" fill="#666666">[text]</text>
<polygon fill="none" stroke="black" points="845.61,-43.2 845.61,-74 1068.58,-74 1068.58,-43.2 845.61,-43.2"/>
<text text-anchor="start" x="852.61" y="-55.4" font-family="Arial" font-size="14.00">uml_comment </text>
<text text-anchor="start" x="944.41" y="-55.4" font-family="Arial" font-size="14.00" fill="#666666">[text]</text>
</g>
<!-- public.query&#45;&gt;public.class -->
<g id="edge1" class="edge">
<title>public.query:model_key&#45;&gt;public.class:model_key</title>
<path fill="none" stroke="black" d="M1082.96,-650.2C1212.34,-635.01 1206.03,-335.8 1069.58,-335.8"/>
<polygon fill="black" stroke="black" points="1082.89,-650.21 1072.65,-646.29 1077.57,-650.51 1073.24,-650.76 1073.24,-650.76 1073.24,-650.76 1077.57,-650.51 1073.17,-655.27 1082.89,-650.21"/>
<text text-anchor="start" x="1079.57" y="-660.8" font-family="Arial" font-size="10.00">FOREIGN KEY (model_key, class_key) REFERENCES class(model_key, class_key) ON DELETE CASCADE</text>
</g>
<!-- public.query_parameter -->
<g id="node3" class="node">
<title>public.query_parameter</title>
<polygon fill="#efefef" stroke="none" points="197.14,-1166 197.14,-1201.6 507.05,-1201.6 507.05,-1166 197.14,-1166"/>
<polygon fill="none" stroke="black" points="197.14,-1166 197.14,-1201.6 507.05,-1201.6 507.05,-1166 197.14,-1166"/>
<text text-anchor="start" x="204.14" y="-1179.4" font-family="Arial Bold" font-size="18.00">public.query_parameter</text>
<text text-anchor="start" x="375.56" y="-1179.4" font-family="Arial" font-size="14.00">    </text>
<text text-anchor="start" x="406.68" y="-1179.4" font-family="Arial" font-size="14.00" fill="#666666">[BASE TABLE]</text>
<polygon fill="none" stroke="black" points="197.14,-1135.2 197.14,-1166 507.05,-1166 507.05,-1135.2 197.14,-1135.2"/>
<text text-anchor="start" x="204.14" y="-1147.4" font-family="Arial" font-size="14.00">model_key </text>
<text text-anchor="start" x="275.73" y="-1147.4" font-family="Arial" font-size="14.00" fill="#666666">[text]</text>
<polygon fill="none" stroke="black" points="197.14,-1104.4 197.14,-1135.2 507.05,-1135.2 507.05,-1104.4 197.14,-1104.4"/>
<text text-anchor="start" x="204.14" y="-1116.6" font-family="Arial" font-size="14.00">query_key </text>
<text text-anchor="start" x="272.62" y="-1116.6" font-family="Arial" font-size="14.00" fill="#666666">[text]</text>
<polygon fill="none" stroke="black" points="197.14,-1073.6 197.14,-1104.4 507.05,-1104.4 507.05,-1073.6 197.14,-1073.6"/>
<text text-anchor="start" x="204.14" y="-1085.8" font-family="Arial" font-size="14.00">parameter_key </text>
<text text-anchor="start" x="301.41" y="-1085.8" font-family="Arial" font-size="14.00" fill="#666666">[text]</text>
<polygon fill="none" stroke="black" points="197.14,-1042.8 197.14,-1073.6 507.05,-1073.6 507.05,-1042.8 197.14,-1042.8"/>
<text text-anchor="start" x="204.14" y="-1055" font-family="Arial" font-size="14.00">name </text>
<text text-anchor="start" x="243.05" y="-1055" font-family="Arial" font-size="14.00" fill="#666666">[text]</text>
<polygon fill="none" stroke="black" points="197.14,-1012 197.14,-1042.8 507.05,-1042.8 507.05,-1012 197.14,-1012"/>
<text text-anchor="start" x="204.14" y="-1024.2" font-family="Arial" font-size="14.00">sort_order </text>
<text text-anchor="start" x="271.83" y="-1024.2" font-family="Arial" font-size="14.00" fill="#666666">[integer]</text>
<polygon fill="none" stroke="black" points="197.14,-981.2 197.14,-1012 507.05,-1012 507.05,-981.2 197.14,-981.2"/>
<text text-anchor="start" x="204.14" y="-993.4" font-family="Arial" font-size="14.00">data_type_rules </text>
<text text-anchor="start" x="307.65" y="-993.4" font-family="Arial" font-size="14.00" fill="#666666">[text]</text>
<polygon fill="none" stroke="black" points="197.14,-950.4 197.14,-981.2 507.05,-981.2 507.05,-950.4 197.14,-950.4"/>
<text text-anchor="start" x="204.14" y="-962.6" font-family="Arial" font-size="14.00">data_type_key </text>
<text text-anchor="start" x="299.09" y="-962.6" font-family="Arial" font-size="14.00" fill="#666666">[text]</text>
<polygon fill="none" stroke="black" points="197.14,-919.6 197.14,-950.4 507.05,-950.4 507.05,-919.6 197.14,-919.6"/>
<text text-anchor="start" x="204.14" y="-931.8" font-family="Arial" font-size="14.00">nullable </text>
<text text-anchor="start" x="256.29" y="-931.8" font-family="Arial" font-size="14.00" fill="#666666">[boolean]</text>
</g>
<!-- public.query_parameter&#45;&gt;public.query -->
<g id="edge2" class="edge">
<title>public.query_parameter:model_key&#45;&gt;public.query:model_key</title>
<path fill="none" stroke="black" d="M518.18,-1148.83C583.38,-1124.09 512.54,-847.28 559.09,-784 641.36,-672.18 702.79,-650.8 841.61,-650.8"/>
<polygon fill="black" stroke="black" points="518.23,-1148.82 507.6,-1146.11 512.97,-1149.74 508.71,-1150.48 508.71,-1150.48 508.71,-1150.48 512.97,-1149.74 509.15,-1154.98 518.23,-1148.82"/>
<text text-anchor="start" x="7" y="-1160.6" font-family="Arial" font-size="10.00">FOREIGN KEY (model_key, query_key) REFERENCES query(model_key, query_key) ON DELETE CASCADE</text>
</g>
<!-- public.query_require -->
<g id="node4" class="node">
<title>public.query_require</title>
<polygon fill="#efefef" stroke="none" points="611.63,-1089 611.63,-1124.6 900.56,-1124.6 900.56,-1089 611.63,-1089"/>
<polygon fill="none" stroke="black" points="611.63,-1089 611.63,-1124.6 900.56,-1124.6 900.56,-1089 611.63,-1089"/>
<text text-anchor="start" x="618.63" y="-1102.4" font-family="Arial Bold" font-size="18.00">public.query_require</text>
<text text-anchor="start" x="769.07" y="-1102.4" font-family="Arial" font-size="14.00">    </text>
<text text-anchor="start" x="800.19" y="-1102.4" font-family="Arial" font-size="14.00" fill="#666666">[BASE TABLE]</text>
<polygon fill="none" stroke="black" points="611.63,-1058.2 611.63,-1089 900.56,-1089 900.56,-1058.2 611.63,-1058.2"/>
<text text-anchor="start" x="618.63" y="-1070.4" font-family="Arial" font-size="14.00">model_key </text>
<text text-anchor="start" x="690.22" y="-1070.4" font-family="Arial" font-size="14.00" fill="#666666">[text]</text>
<polygon fill="none" stroke="black" points="611.63,-1027.4 611.63,-1058.2 900.56,-1058.2 900.56,-1027.4 611.63,-1027.4"/>
<text text-anchor="start" x="618.63" y="-1039.6" font-family="Arial" font-size="14.00">query_key </text>
<text text-anchor="start" x="687.11" y="-1039.6" font-family="Arial" font-size="14.00" fill="#666666">[text]</text>
<polygon fill="none" stroke="black" points="611.63,-996.6 611.63,-1027.4 900.56,-1027.4 900.56,-996.6 611.63,-996.6"/>
<text text-anchor="start" x="618.63" y="-1008.8" font-family="Arial" font-size="14.00">logic_key </text>
<text text-anchor="start" x="680.88" y="-1008.8" font-family="Arial" font-size="14.00" fill="#666666">[text]</text>
</g>
<!-- public.query_require&#45;&gt;public.query -->
<g id="edge3" class="edge">
<title>public.query_require:model_key&#45;&gt;public.query:model_key</title>
<path fill="none" stroke="black" d="M911.97,-1073.12C1074.42,-1057.25 655.53,-650.8 841.61,-650.8"/>
<polygon fill="black" stroke="black" points="911.88,-1073.13 901.69,-1069.09 906.55,-1073.37 902.23,-1073.57 902.23,-1073.57 902.23,-1073.57 906.55,-1073.37 902.1,-1078.08 911.88,-1073.13"/>
<text text-anchor="start" x="908.56" y="-1083.6" font-family="Arial" font-size="10.00">FOREIGN KEY (model_key, query_key) REFERENCES query(model_key, query_key) ON DELETE CASCADE</text>
</g>
<!-- public.query_guarantee -->
<g id="node5" class="node">
<title>public.query_guarantee</title>
<polygon fill="#efefef" stroke="none" points="1005.13,-1089 1005.13,-1124.6 1313.05,-1124.6 1313.05,-1089 1005.13,-1089"/>
<polygon fill="none" stroke="black" points="1005.13,-1089 1005.13,-1124.6 1313.05,-1124.6 1313.05,-1089 1005.13,-1089"/>
<text text-anchor="start" x="1012.13" y="-1102.4" font-family="Arial Bold" font-size="18.00">public.query_guarantee</text>
<text text-anchor="start" x="1181.56" y="-1102.4" font-family="Arial" font-size="14.00">    </text>
<text text-anchor="start" x="1212.68" y="-1102.4" font-family="Arial" font-size="14.00" fill="#666666">[BASE TABLE]</text>
<polygon fill="none" stroke="black" points="1005.13,-1058.2 1005.13,-1089 1313.05,-1089 1313.05,-1058.2 1005.13,-1058.2"/>
<text text-anchor="start" x="1012.13" y="-1070.4" font-family="Arial" font-size="14.00">model_key </text>
<text text-anchor="start" x="1083.73" y="-1070.4" font-family="Arial" font-size="14.00" fill="#666666">[text]</text>
<polygon fill="none" stroke="black" points="1005.13,-1027.4 1005.13,-1058.2 1313.05,-1058.2 1313.05,-1027.4 1005.13,-1027.4"/>
<text text-anchor="start" x="1012.13" y="-1039.6" font-family="Arial" font-size="14.00">query_key </text>
<text text-anchor="start" x="1080.62" y="-1039.6" font-family="Arial" font-size="14.00" fill="#666666">[text]</text>
<polygon fill="none" stroke="black" points="1005.13,-996.6 1005.13,-1027.4 1313.05,-1027.4 1313.05,-996.6 1005.13,-996.6"/>
<text text-anchor="start" x="1012.13" y="-1008.8" font-family="Arial" font-size="14.00">logic_key </text>
<text text-anchor="start" x="1074.39" y="-1008.8" font-family="Arial" font-size="14.00" fill="#666666">[text]</text>
</g>
<!-- public.query_guarantee&#45;&gt;public.query -->
<g id="edge4" class="edge">
<title>public.query_guarantee:model_key&#45;&gt;public.query:model_key</title>
<path fill="none" stroke="black" d="M994.19,-1073.17C830.22,-1058.06 1259.4,-650.8 1072.57,-650.8"/>
<polygon fill="black" stroke="black" points="993.81,-1073.15 1003.61,-1078.08 999.14,-1073.38 1003.47,-1073.57 1003.47,-1073.57 1003.47,-1073.57 999.14,-1073.38 1004,-1069.09 993.81,-1073.15"/>
<text text-anchor="start" x="1011.13" y="-1057.6" font-family="Arial" font-size="10.00">FOREIGN KEY (model_key, query_key) REFERENCES query(model_key, query_key) ON DELETE CASCADE</text>
</g>
<!-- public.scenario_step -->
<g id="node6" class="node">
<title>public.scenario_step</title>
<polygon fill="#efefef" stroke="none" points="1417.12,-1258.4 1417.12,-1294 1703.06,-1294 1703.06,-1258.4 1417.12,-1258.4"/>
<polygon fill="none" stroke="black" points="1417.12,-1258.4 1417.12,-1294 1703.06,-1294 1703.06,-1258.4 1417.12,-1258.4"/>
<text text-anchor="start" x="1424.12" y="-1271.8" font-family="Arial Bold" font-size="18.00">public.scenario_step</text>
<text text-anchor="start" x="1571.57" y="-1271.8" font-family="Arial" font-size="14.00">    </text>
<text text-anchor="start" x="1602.69" y="-1271.8" font-family="Arial" font-size="14.00" fill="#666666">[BASE TABLE]</text>
<polygon fill="none" stroke="black" points="1417.12,-1227.6 1417.12,-1258.4 1703.06,-1258.4 1703.06,-1227.6 1417.12,-1227.6"/>
<text text-anchor="start" x="1424.12" y="-1239.8" font-family="Arial" font-size="14.00">model_key </text>
<text text-anchor="start" x="1495.71" y="-1239.8" font-family="Arial" font-size="14.00" fill="#666666">[text]</text>
<polygon fill="none" stroke="black" points="1417.12,-1196.8 1417.12,-1227.6 1703.06,-1227.6 1703.06,-1196.8 1417.12,-1196.8"/>
<text text-anchor="start" x="1424.12" y="-1209" font-family="Arial" font-size="14.00">scenario_step_key </text>
<text text-anchor="start" x="1544.75" y="-1209" font-family="Arial" font-size="14.00" fill="#666666">[text]</text>
<polygon fill="none" stroke="black" points="1417.12,-1166 1417.12,-1196.8 1703.06,-1196.8 1703.06,-1166 1417.12,-1166"/>
<text text-anchor="start" x="1424.12" y="-1178.2" font-family="Arial" font-size="14.00">scenario_key </text>
<text text-anchor="start" x="1510.5" y="-1178.2" font-family="Arial" font-size="14.00" fill="#666666">[text]</text>
<polygon fill="none" stroke="black" points="1417.12,-1135.2 1417.12,-1166 1703.06,-1166 1703.06,-1135.2 1417.12,-1135.2"/>
<text text-anchor="start" x="1424.12" y="-1147.4" font-family="Arial" font-size="14.00">parent_step_key </text>
<text text-anchor="start" x="1531.53" y="-1147.4" font-family="Arial" font-size="14.00" fill="#666666">[text]</text>
<polygon fill="none" stroke="black" points="1417.12,-1104.4 1417.12,-1135.2 1703.06,-1135.2 1703.06,-1104.4 1417.12,-1104.4"/>
<text text-anchor="start" x="1424.12" y="-1116.6" font-family="Arial" font-size="14.00">sort_order </text>
<text text-anchor="start" x="1491.82" y="-1116.6" font-family="Arial" font-size="14.00" fill="#666666">[integer]</text>
<polygon fill="none" stroke="black" points="1417.12,-1073.6 1417.12,-1104.4 1703.06,-1104.4 1703.06,-1073.6 1417.12,-1073.6"/>
<text text-anchor="start" x="1424.12" y="-1085.8" font-family="Arial" font-size="14.00">step_type </text>
<text text-anchor="start" x="1488.72" y="-1085.8" font-family="Arial" font-size="14.00" fill="#666666">[step_type]</text>
<polygon fill="none" stroke="black" points="1417.12,-1042.8 1417.12,-1073.6 1703.06,-1073.6 1703.06,-1042.8 1417.12,-1042.8"/>
<text text-anchor="start" x="1424.12" y="-1055" font-family="Arial" font-size="14.00">leaf_type </text>
<text text-anchor="start" x="1484.83" y="-1055" font-family="Arial" font-size="14.00" fill="#666666">[leaf_type]</text>
<polygon fill="none" stroke="black" points="1417.12,-1012 1417.12,-1042.8 1703.06,-1042.8 1703.06,-1012 1417.12,-1012"/>
<text text-anchor="start" x="1424.12" y="-1024.2" font-family="Arial" font-size="14.00">condition </text>
<text text-anchor="start" x="1484.05" y="-1024.2" font-family="Arial" font-size="14.00" fill="#666666">[text]</text>
<polygon fill="none" stroke="black" points="1417.12,-981.2 1417.12,-1012 1703.06,-1012 1703.06,-981.2 1417.12,-981.2"/>
<text text-anchor="start" x="1424.12" y="-993.4" font-family="Arial" font-size="14.00">description </text>
<text text-anchor="start" x="1495.71" y="-993.4" font-family="Arial" font-size="14.00" fill="#666666">[text]</text>
<polygon fill="none" stroke="black" points="1417.12,-950.4 1417.12,-981.2 1703.06,-981.2 1703.06,-950.4 1417.12,-950.4"/>
<text text-anchor="start" x="1424.12" y="-962.6" font-family="Arial" font-size="14.00">from_object_key </text>
<text text-anchor="start" x="1530.73" y="-962.6" font-family="Arial" font-size="14.00" fill="#666666">[text]</text>
<polygon fill="none" stroke="black" points="1417.12,-919.6 1417.12,-950.4 1703.06,-950.4 1703.06,-919.6 1417.12,-919.6"/>
<text text-anchor="start" x="1424.12" y="-931.8" font-family="Arial" font-size="14.00">to_object_key </text>
<text text-anchor="start" x="1514.4" y="-931.8" font-family="Arial" font-size="14.00" fill="#666666">[text]</text>
<polygon fill="none" stroke="black" points="1417.12,-888.8 1417.12,-919.6 1703.06,-919.6 1703.06,-888.8 1417.12,-888.8"/>
<text text-anchor="start" x="1424.12" y="-901" font-family="Arial" font-size="14.00">event_key </text>
<text text-anchor="start" x="1491.83" y="-901" font-family="Arial" font-size="14.00" fill="#666666">[text]</text>
<polygon fill="none" stroke="black" points="1417.12,-858 1417.12,-888.8 1703.06,-888.8 1703.06,-858 1417.12,-858"/>
<text text-anchor="start" x="1424.12" y="-870.2" font-family="Arial" font-size="14.00">query_key </text>
<text text-anchor="start" x="1492.6" y="-870.2" font-family="Arial" font-size="14.00" fill="#666666">[text]</text>
<polygon fill="none" stroke="black" points="1417.12,-827.2 1417.12,-858 1703.06,-858 1703.06,-827.2 1417.12,-827.2"/>
<text text-anchor="start" x="1424.12" y="-839.4" font-family="Arial" font-size="14.00">scenario_ref_key </text>
<text text-anchor="start" x="1534.62" y="-839.4" font-family="Arial" font-size="14.00" fill="#666666">[text]</text>
</g>
<!-- public.scenario_step&#45;&gt;public.query -->
<g id="edge5" class="edge">
<title>public.scenario_step:model_key&#45;&gt;public.query:model_key</title>
<path fill="none" stroke="black" d="M1405.82,-1241.56C1321.35,-1216.22 1423.14,-864.1 1365.09,-784 1281.27,-668.33 1215.43,-650.8 1072.57,-650.8"/>
<polygon fill="black" stroke="black" points="1405.89,-1241.57 1415.17,-1247.41 1411.17,-1242.31 1415.46,-1242.91 1415.46,-1242.91 1415.46,-1242.91 1411.17,-1242.31 1416.41,-1238.5 1405.89,-1241.57"/>
<text text-anchor="start" x="915.07" y="-1253" font-family="Arial" font-size="10.00">FOREIGN KEY (model_key, query_key) REFERENCES query(model_key, query_key) ON DELETE CASCADE</text>
</g>
</g>
</svg>
