<?xml version="1.0" encoding="UTF-8" standalone="no"?>
<!DOCTYPE svg PUBLIC "-//W3C//DTD SVG 1.1//EN"
 "http://www.w3.org/Graphics/SVG/1.1/DTD/svg11.dtd">
<!-- Generated by graphviz version 12.1.2 (20240928.0832)
 -->
<!-- Title: public.action_safety Pages: 1 -->
<svg width="1302pt" height="694pt"
 viewBox="0.00 0.00 1301.70 694.40" xmlns="http://www.w3.org/2000/svg" xmlns:xlink="http://www.w3.org/1999/xlink">
<g id="graph0" class="graph" transform="scale(1 1) rotate(0) translate(4 690.4)">
<title>public.action_safety</title>
<polygon fill="white" stroke="none" points="-4,4 -4,-690.4 1297.7,-690.4 1297.7,4 -4,4"/>
<!-- public.action_safety -->
<g id="node1" class="node">
<title>public.action_safety</title>
<polygon fill="#efefef" stroke="none" points="495.7,-604.6 495.7,-640.2 779.64,-640.2 779.64,-604.6 495.7,-604.6"/>
<polygon fill="none" stroke="black" points="495.7,-604.6 495.7,-640.2 779.64,-640.2 779.64,-604.6 495.7,-604.6"/>
<text text-anchor="start" x="502.7" y="-618" font-family="Arial Bold" font-size="18.00">public.action_safety</text>
<text text-anchor="start" x="648.15" y="-618" font-family="Arial" font-size="14.00">    </text>
<text text-anchor="start" x="679.27" y="-618" font-family="Arial" font-size="14.00" fill="#666666">[BASE TABLE]</text>
<polygon fill="none" stroke="black" points="495.7,-573.8 495.7,-604.6 779.64,-604.6 779.64,-573.8 495.7,-573.8"/>
<text text-anchor="start" x="502.7" y="-586" font-family="Arial" font-size="14.00">model_key </text>
<text text-anchor="start" x="574.3" y="-586" font-family="Arial" font-size="14.00" fill="#666666">[text]</text>
<polygon fill="none" stroke="black" points="495.7,-543 495.7,-573.8 779.64,-573.8 779.64,-543 495.7,-543"/>
<text text-anchor="start" x="502.7" y="-555.2" font-family="Arial" font-size="14.00">action_key </text>
<text text-anchor="start" x="573.52" y="-555.2" font-family="Arial" font-size="14.00" fill="#666666">[text]</text>
<polygon fill="none" stroke="black" points="495.7,-512.2 495.7,-543 779.64,-543 779.64,-512.2 495.7,-512.2"/>
<text text-anchor="start" x="502.7" y="-524.4" font-family="Arial" font-size="14.00">logic_key </text>
<text text-anchor="start" x="564.96" y="-524.4" font-family="Arial" font-size="14.00" fill="#666666">[text]</text>
<polygon fill="none" stroke="black" stroke-width="3" points="494.2,-510.7 494.2,-641.7 781.14,-641.7 781.14,-510.7 494.2,-510.7"/>
</g>
<!-- public.logic -->
<g id="node2" class="node">
<title>public.logic</title>
<polygon fill="#efefef" stroke="none" points="359.69,-351.2 359.69,-386.8 583.66,-386.8 583.66,-351.2 359.69,-351.2"/>
<polygon fill="none" stroke="black" points="359.69,-351.2 359.69,-386.8 583.66,-386.8 583.66,-351.2 359.69,-351.2"/>
<text text-anchor="start" x="366.69" y="-364.6" font-family="Arial Bold" font-size="18.00">public.logic</text>
<text text-anchor="start" x="452.17" y="-364.6" font-family="Arial" font-size="14.00">    </text>
<text text-anchor="start" x="483.29" y="-364.6" font-family="Arial" font-size="14.00" fill="#666666">[BASE TABLE]</text>
<polygon fill="none" stroke="black" points="359.69,-320.4 359.69,-351.2 583.66,-351.2 583.66,-320.4 359.69,-320.4"/>
<text text-anchor="start" x="366.69" y="-332.6" font-family="Arial" font-size="14.00">logic_key </text>
<text text-anchor="start" x="428.94" y="-332.6" font-family="Arial" font-size="14.00" fill="#666666">[text]</text>
<polygon fill="none" stroke="black" points="359.69,-289.6 359.69,-320.4 583.66,-320.4 583.66,-289.6 359.69,-289.6"/>
<text text-anchor="start" x="366.69" y="-301.8" font-family="Arial" font-size="14.00">model_key </text>
<text text-anchor="start" x="438.28" y="-301.8" font-family="Arial" font-size="14.00" fill="#666666">[text]</text>
<polygon fill="none" stroke="black" points="359.69,-258.8 359.69,-289.6 583.66,-289.6 583.66,-258.8 359.69,-258.8"/>
<text text-anchor="start" x="366.69" y="-271" font-family="Arial" font-size="14.00">sort_order </text>
<text text-anchor="start" x="434.38" y="-271" font-family="Arial" font-size="14.00" fill="#666666">[integer]</text>
<polygon fill="none" stroke="black" points="359.69,-228 359.69,-258.8 583.66,-258.8 583.66,-228 359.69,-228"/>
<text text-anchor="start" x="366.69" y="-240.2" font-family="Arial" font-size="14.00">logic_type </text>
<text text-anchor="start" x="433.62" y="-240.2" font-family="Arial" font-size="14.00" fill="#666666">[logic_type]</text>
<polygon fill="none" stroke="black" points="359.69,-197.2 359.69,-228 583.66,-228 583.66,-197.2 359.69,-197.2"/>
<text text-anchor="start" x="366.69" y="-209.4" font-family="Arial" font-size="14.00">description </text>
<text text-anchor="start" x="438.28" y="-209.4" font-family="Arial" font-size="14.00" fill="#666666">[text]</text>
<polygon fill="none" stroke="black" points="359.69,-166.4 359.69,-197.2 583.66,-197.2 583.66,-166.4 359.69,-166.4"/>
<text text-anchor="start" x="366.69" y="-178.6" font-family="Arial" font-size="14.00">target </text>
<text text-anchor="start" x="406.38" y="-178.6" font-family="Arial" font-size="14.00" fill="#666666">[text]</text>
<polygon fill="none" stroke="black" points="359.69,-135.6 359.69,-166.4 583.66,-166.4 583.66,-135.6 359.69,-135.6"/>
<text text-anchor="start" x="366.69" y="-147.8" font-family="Arial" font-size="14.00">notation </text>
<text text-anchor="start" x="420.4" y="-147.8" font-family="Arial" font-size="14.00" fill="#666666">[notation]</text>
<polygon fill="none" stroke="black" points="359.69,-104.8 359.69,-135.6 583.66,-135.6 583.66,-104.8 359.69,-104.8"/>
<text text-anchor="start" x="366.69" y="-117" font-family="Arial" font-size="14.00">specification </text>
<text text-anchor="start" x="447.62" y="-117" font-family="Arial" font-size="14.00" fill="#666666">[text]</text>
<polygon fill="none" stroke="black" points="359.69,-74 359.69,-104.8 583.66,-104.8 583.66,-74 359.69,-74"/>
<text text-anchor="start" x="366.69" y="-86.2" font-family="Arial" font-size="14.00">target_type_notation </text>
<text text-anchor="start" x="498.23" y="-86.2" font-family="Arial" font-size="14.00" fill="#666666">[notation]</text>
<polygon fill="none" stroke="black" points="359.69,-43.2 359.69,-74 583.66,-74 583.66,-43.2 359.69,-43.2"/>
<text text-anchor="start" x="366.69" y="-55.4" font-family="Arial" font-size="14.00">target_type_specification </text>
<text text-anchor="start" x="525.45" y="-55.4" font-family="Arial" font-size="14.00" fill="#666666">[text]</text>
</g>
<!-- public.action_safety&#45;&gt;public.logic -->
<g id="edge1" class="edge">
<title>public.action_safety:model_key&#45;&gt;public.logic:model_key</title>
<path fill="none" stroke="black" d="M484.57,-588.14C443.4,-578.71 467.1,-508.24 495.7,-466 519.39,-431.02 559.98,-464.98 583.66,-430 614.81,-383.99 640.22,-305 584.66,-305"/>
<polygon fill="black" stroke="black" points="484.42,-588.13 493.9,-593.64 489.73,-588.68 494.04,-589.13 494.04,-589.13 494.04,-589.13 489.73,-588.68 494.84,-584.69 484.42,-588.13"/>
<text text-anchor="start" x="7" y="-599.2" font-family="Arial" font-size="10.00">FOREIGN KEY (model_key, logic_key) REFERENCES logic(model_key, logic_key) ON DELETE CASCADE</text>
</g>
<!-- public.action -->
<g id="node3" class="node">
<title>public.action</title>
<polygon fill="#efefef" stroke="none" points="687.69,-274.2 687.69,-309.8 919.65,-309.8 919.65,-274.2 687.69,-274.2"/>
<polygon fill="none" stroke="black" points="687.69,-274.2 687.69,-309.8 919.65,-309.8 919.65,-274.2 687.69,-274.2"/>
<text text-anchor="start" x="694.69" y="-287.6" font-family="Arial Bold" font-size="18.00">public.action</text>
<text text-anchor="start" x="788.16" y="-287.6" font-family="Arial" font-size="14.00">    </text>
<text text-anchor="start" x="819.28" y="-287.6" font-family="Arial" font-size="14.00" fill="#666666">[BASE TABLE]</text>
<polygon fill="none" stroke="black" points="687.69,-243.4 687.69,-274.2 919.65,-274.2 919.65,-243.4 687.69,-243.4"/>
<text text-anchor="start" x="694.69" y="-255.6" font-family="Arial" font-size="14.00">model_key </text>
<text text-anchor="start" x="766.29" y="-255.6" font-family="Arial" font-size="14.00" fill="#666666">[text]</text>
<polygon fill="none" stroke="black" points="687.69,-212.6 687.69,-243.4 919.65,-243.4 919.65,-212.6 687.69,-212.6"/>
<text text-anchor="start" x="694.69" y="-224.8" font-family="Arial" font-size="14.00">class_key </text>
<text text-anchor="start" x="760.05" y="-224.8" font-family="Arial" font-size="14.00" fill="#666666">[text]</text>
<polygon fill="none" stroke="black" points="687.69,-181.8 687.69,-212.6 919.65,-212.6 919.65,-181.8 687.69,-181.8"/>
<text text-anchor="start" x="694.69" y="-194" font-family="Arial" font-size="14.00">action_key </text>
<text text-anchor="start" x="765.51" y="-194" font-family="Arial" font-size="14.00" fill="#666666">[text]</text>
<polygon fill="none" stroke="black" points="687.69,-151 687.69,-181.8 919.65,-181.8 919.65,-151 687.69,-151"/>
<text text-anchor="start" x="694.69" y="-163.2" font-family="Arial" font-size="14.00">name </text>
<text text-anchor="start" x="733.6" y="-163.2" font-family="Arial" font-size="14.00" fill="#666666">[text]</text>
<polygon fill="none" stroke="black" points="687.69,-120.2 687.69,-151 919.65,-151 919.65,-120.2 687.69,-120.2"/>
<text text-anchor="start" x="694.69" y="-132.4" font-family="Arial" font-size="14.00">details </text>
<text text-anchor="start" x="739.05" y="-132.4" font-family="Arial" font-size="14.00" fill="#666666">[text]</text>
</g>
<!-- public.action_safety&#45;&gt;public.action -->
<g id="edge2" class="edge">
<title>public.action_safety:model_key&#45;&gt;public.action:model_key</title>
<path fill="none" stroke="black" d="M790.87,-588.17C830.26,-579.22 796.89,-513.9 779.64,-466 757.71,-405.08 709.7,-413.89 687.69,-353 673.46,-313.62 644.82,-258.8 686.69,-258.8"/>
<polygon fill="black" stroke="black" points="790.92,-588.16 780.52,-584.69 785.62,-588.7 781.31,-589.13 781.31,-589.13 781.31,-589.13 785.62,-588.7 781.43,-593.64 790.92,-588.16"/>
<text text-anchor="start" x="787.64" y="-599.2" font-family="Arial" font-size="10.00">FOREIGN KEY (model_key, action_key) REFERENCES action(model_key, action_key) ON DELETE CASCADE</text>
</g>
</g>
</svg>
