<?xml version="1.0" encoding="UTF-8" standalone="no"?>
<!DOCTYPE svg PUBLIC "-//W3C//DTD SVG 1.1//EN"
 "http://www.w3.org/Graphics/SVG/1.1/DTD/svg11.dtd">
<!-- Generated by graphviz version 12.1.2 (20240928.0832)
 -->
<!-- Title: public.query_parameter_invariant Pages: 1 -->
<svg width="1591pt" height="787pt"
 viewBox="0.00 0.00 1591.29 786.80" xmlns="http://www.w3.org/2000/svg" xmlns:xlink="http://www.w3.org/1999/xlink">
<g id="graph0" class="graph" transform="scale(1 1) rotate(0) translate(4 782.8)">
<title>public.query_parameter_invariant</title>
<polygon fill="white" stroke="none" points="-4,4 -4,-782.8 1587.29,-782.8 1587.29,4 -4,4"/>
<!-- public.query_parameter_invariant -->
<g id="node1" class="node">
<title>public.query_parameter_invariant</title>
<polygon fill="#efefef" stroke="none" points="495.7,-697 495.7,-732.6 878.59,-732.6 878.59,-697 495.7,-697"/>
<polygon fill="none" stroke="black" points="495.7,-697 495.7,-732.6 878.59,-732.6 878.59,-697 495.7,-697"/>
<text text-anchor="start" x="502.7" y="-710.4" font-family="Arial Bold" font-size="18.00">public.query_parameter_invariant</text>
<text text-anchor="start" x="747.1" y="-710.4" font-family="Arial" font-size="14.00">    </text>
<text text-anchor="start" x="778.22" y="-710.4" font-family="Arial" font-size="14.00" fill="#666666">[BASE TABLE]</text>
<polygon fill="none" stroke="black" points="495.7,-666.2 495.7,-697 878.59,-697 878.59,-666.2 495.7,-666.2"/>
<text text-anchor="start" x="502.7" y="-678.4" font-family="Arial" font-size="14.00">model_key </text>
<text text-anchor="start" x="574.3" y="-678.4" font-family="Arial" font-size="14.00" fill="#666666">[text]</text>
<polygon fill="none" stroke="black" points="495.7,-635.4 495.7,-666.2 878.59,-666.2 878.59,-635.4 495.7,-635.4"/>
<text text-anchor="start" x="502.7" y="-647.6" font-family="Arial" font-size="14.00">query_key </text>
<text text-anchor="start" x="571.19" y="-647.6" font-family="Arial" font-size="14.00" fill="#666666">[text]</text>
<polygon fill="none" stroke="black" points="495.7,-604.6 495.7,-635.4 878.59,-635.4 878.59,-604.6 495.7,-604.6"/>
<text text-anchor="start" x="502.7" y="-616.8" font-family="Arial" font-size="14.00">parameter_key </text>
<text text-anchor="start" x="599.97" y="-616.8" font-family="Arial" font-size="14.00" fill="#666666">[text]</text>
<polygon fill="none" stroke="black" points="495.7,-573.8 495.7,-604.6 878.59,-604.6 878.59,-573.8 495.7,-573.8"/>
<text text-anchor="start" x="502.7" y="-586" font-family="Arial" font-size="14.00">logic_key </text>
<text text-anchor="start" x="564.96" y="-586" font-family="Arial" font-size="14.00" fill="#666666">[text]</text>
<polygon fill="none" stroke="black" stroke-width="3" points="494.2,-572.3 494.2,-734.1 880.09,-734.1 880.09,-572.3 494.2,-572.3"/>
</g>
<!-- public.logic -->
<g id="node2" class="node">
<title>public.logic</title>
<polygon fill="#efefef" stroke="none" points="375.35,-412.8 375.35,-448.4 618.94,-448.4 618.94,-412.8 375.35,-412.8"/>
<polygon fill="none" stroke="black" points="375.35,-412.8 375.35,-448.4 618.94,-448.4 618.94,-412.8 375.35,-412.8"/>
<text text-anchor="start" x="392.16" y="-426.2" font-family="Arial Bold" font-size="18.00">public.logic</text>
<text text-anchor="start" x="477.64" y="-426.2" font-family="Arial" font-size="14.00">    </text>
<text text-anchor="start" x="508.76" y="-426.2" font-family="Arial" font-size="14.00" fill="#666666">[BASE TABLE]</text>
<polygon fill="none" stroke="black" points="375.35,-382 375.35,-412.8 618.94,-412.8 618.94,-382 375.35,-382"/>
<text text-anchor="start" x="382.35" y="-394.2" font-family="Arial" font-size="14.00">logic_key </text>
<text text-anchor="start" x="444.61" y="-394.2" font-family="Arial" font-size="14.00" fill="#666666">[text]</text>
<polygon fill="none" stroke="black" points="375.35,-351.2 375.35,-382 618.94,-382 618.94,-351.2 375.35,-351.2"/>
<text text-anchor="start" x="382.35" y="-363.4" font-family="Arial" font-size="14.00">model_key </text>
<text text-anchor="start" x="453.95" y="-363.4" font-family="Arial" font-size="14.00" fill="#666666">[text]</text>
<polygon fill="none" stroke="black" points="375.35,-320.4 375.35,-351.2 618.94,-351.2 618.94,-320.4 375.35,-320.4"/>
<text text-anchor="start" x="382.35" y="-332.6" font-family="Arial" font-size="14.00">sort_order </text>
<text text-anchor="start" x="450.05" y="-332.6" font-family="Arial" font-size="14.00" fill="#666666">[integer]</text>
<polygon fill="none" stroke="black" points="375.35,-289.6 375.35,-320.4 618.94,-320.4 618.94,-289.6 375.35,-289.6"/>
<text text-anchor="start" x="382.35" y="-301.8" font-family="Arial" font-size="14.00">logic_type </text>
<text text-anchor="start" x="449.28" y="-301.8" font-family="Arial" font-size="14.00" fill="#666666">[logic_type]</text>
<polygon fill="none" stroke="black" points="375.35,-258.8 375.35,-289.6 618.94,-289.6 618.94,-258.8 375.35,-258.8"/>
<text text-anchor="start" x="382.35" y="-271" font-family="Arial" font-size="14.00">description </text>
<text text-anchor="start" x="453.95" y="-271" font-family="Arial" font-size="14.00" fill="#666666">[text]</text>
<polygon fill="none" stroke="black" points="375.35,-228 375.35,-258.8 618.94,-258.8 618.94,-228 375.35,-228"/>
<text text-anchor="start" x="382.35" y="-240.2" font-family="Arial" font-size="14.00">target </text>
<text text-anchor="start" x="422.04" y="-240.2" font-family="Arial" font-size="14.00" fill="#666666">[text]</text>
<polygon fill="none" stroke="black" points="375.35,-197.2 375.35,-228 618.94,-228 618.94,-197.2 375.35,-197.2"/>
<text text-anchor="start" x="382.35" y="-209.4" font-family="Arial" font-size="14.00">notation </text>
<text text-anchor="start" x="436.06" y="-209.4" font-family="Arial" font-size="14.00" fill="#666666">[notation]</text>
<polygon fill="none" stroke="black" points="375.35,-166.4 375.35,-197.2 618.94,-197.2 618.94,-166.4 375.35,-166.4"/>
<text text-anchor="start" x="382.35" y="-178.6" font-family="Arial" font-size="14.00">specification </text>
<text text-anchor="start" x="463.28" y="-178.6" font-family="Arial" font-size="14.00" fill="#666666">[text]</text>
<polygon fill="none" stroke="black" points="375.35,-135.6 375.35,-166.4 618.94,-166.4 618.94,-135.6 375.35,-135.6"/>
<text text-anchor="start" x="382.35" y="-147.8" font-family="Arial" font-size="14.00">target_type_notation </text>
<text text-anchor="start" x="513.9" y="-147.8" font-family="Arial" font-size="14.00" fill="#666666">[notation]</text>
<polygon fill="none" stroke="black" points="375.35,-104.8 375.35,-135.6 618.94,-135.6 618.94,-104.8 375.35,-104.8"/>
<text text-anchor="start" x="382.35" y="-117" font-family="Arial" font-size="14.00">target_type_specification </text>
<text text-anchor="start" x="541.12" y="-117" font-family="Arial" font-size="14.00" fill="#666666">[text]</text>
<polygon fill="none" stroke="black" points="375.35,-74 375.35,-104.8 618.94,-104.8 618.94,-74 375.35,-74"/>
<text text-anchor="start" x="382.35" y="-86.2" font-family="Arial" font-size="14.00">destroy_event_specification </text>
<text text-anchor="start" x="559.02" y="-86.2" font-family="Arial" font-size="14.00" fill="#666666">[text]</text>
<polygon fill="none" stroke="black" points="375.35,-43.2 375.35,-74 618.94,-74 618.94,-43.2 375.35,-43.2"/>
<text text-anchor="start" x="382.35" y="-55.4" font-family="Arial" font-size="14.00">endpoint_selector_specification </text>
<text text-anchor="start" x="581.59" y="-55.4" font-family="Arial" font-size="14.00" fill="#666666">[text]</text>
</g>
<!-- public.query_parameter_invariant&#45;&gt;public.logic -->
<g id="edge1" class="edge">
<title>public.query_parameter_invariant:model_key&#45;&gt;public.logic:model_key</title>
<path fill="none" stroke="black" d="M484.33,-680.73C429.38,-670.87 456.72,-579.24 495.7,-527.6 530.08,-482.06 584.53,-537.12 618.94,-491.6 652.44,-447.28 675.5,-366.6 619.94,-366.6"/>
<polygon fill="black" stroke="black" points="484.4,-680.74 493.99,-686.06 489.72,-681.18 494.04,-681.54 494.04,-681.54 494.04,-681.54 489.72,-681.18 494.74,-677.09 484.4,-680.74"/>
<text text-anchor="start" x="7" y="-691.6" font-family="Arial" font-size="10.00">FOREIGN KEY (model_key, logic_key) REFERENCES logic(model_key, logic_key) ON DELETE CASCADE</text>
</g>
<!-- public.query_parameter -->
<g id="node3" class="node">
<title>public.query_parameter</title>
<polygon fill="#efefef" stroke="none" points="723.19,-351.2 723.19,-386.8 1033.1,-386.8 1033.1,-351.2 723.19,-351.2"/>
<polygon fill="none" stroke="black" points="723.19,-351.2 723.19,-386.8 1033.1,-386.8 1033.1,-351.2 723.19,-351.2"/>
<text text-anchor="start" x="730.19" y="-364.6" font-family="Arial Bold" font-size="18.00">public.query_parameter</text>
<text text-anchor="start" x="901.61" y="-364.6" font-family="Arial" font-size="14.00">    </text>
<text text-anchor="start" x="932.73" y="-364.6" font-family="Arial" font-size="14.00" fill="#666666">[BASE TABLE]</text>
<polygon fill="none" stroke="black" points="723.19,-320.4 723.19,-351.2 1033.1,-351.2 1033.1,-320.4 723.19,-320.4"/>
<text text-anchor="start" x="730.19" y="-332.6" font-family="Arial" font-size="14.00">model_key </text>
<text text-anchor="start" x="801.78" y="-332.6" font-family="Arial" font-size="14.00" fill="#666666">[text]</text>
<polygon fill="none" stroke="black" points="723.19,-289.6 723.19,-320.4 1033.1,-320.4 1033.1,-289.6 723.19,-289.6"/>
<text text-anchor="start" x="730.19" y="-301.8" font-family="Arial" font-size="14.00">query_key </text>
<text text-anchor="start" x="798.67" y="-301.8" font-family="Arial" font-size="14.00" fill="#666666">[text]</text>
<polygon fill="none" stroke="black" points="723.19,-258.8 723.19,-289.6 1033.1,-289.6 1033.1,-258.8 723.19,-258.8"/>
<text text-anchor="start" x="730.19" y="-271" font-family="Arial" font-size="14.00">parameter_key </text>
<text text-anchor="start" x="827.46" y="-271" font-family="Arial" font-size="14.00" fill="#666666">[text]</text>
<polygon fill="none" stroke="black" points="723.19,-228 723.19,-258.8 1033.1,-258.8 1033.1,-228 723.19,-228"/>
<text text-anchor="start" x="730.19" y="-240.2" font-family="Arial" font-size="14.00">name </text>
<text text-anchor="start" x="769.1" y="-240.2" font-family="Arial" font-size="14.00" fill="#666666">[text]</text>
<polygon fill="none" stroke="black" points="723.19,-197.2 723.19,-228 1033.1,-228 1033.1,-197.2 723.19,-197.2"/>
<text text-anchor="start" x="730.19" y="-209.4" font-family="Arial" font-size="14.00">sort_order </text>
<text text-anchor="start" x="797.89" y="-209.4" font-family="Arial" font-size="14.00" fill="#666666">[integer]</text>
<polygon fill="none" stroke="black" points="723.19,-166.4 723.19,-197.2 1033.1,-197.2 1033.1,-166.4 723.19,-166.4"/>
<text text-anchor="start" x="730.19" y="-178.6" font-family="Arial" font-size="14.00">data_type_rules </text>
<text text-anchor="start" x="833.71" y="-178.6" font-family="Arial" font-size="14.00" fill="#666666">[text]</text>
<polygon fill="none" stroke="black" points="723.19,-135.6 723.19,-166.4 1033.1,-166.4 1033.1,-135.6 723.19,-135.6"/>
<text text-anchor="start" x="730.19" y="-147.8" font-family="Arial" font-size="14.00">data_type_key </text>
<text text-anchor="start" x="825.15" y="-147.8" font-family="Arial" font-size="14.00" fill="#666666">[text]</text>
<polygon fill="none" stroke="black" points="723.19,-104.8 723.19,-135.6 1033.1,-135.6 1033.1,-104.8 723.19,-104.8"/>
<text text-anchor="start" x="730.19" y="-117" font-family="Arial" font-size="14.00">nullable </text>
<text text-anchor="start" x="782.34" y="-117" font-family="Arial" font-size="14.00" fill="#666666">[boolean]</text>
</g>
<!-- public.query_parameter_invariant&#45;&gt;public.query_parameter -->
<g id="edge2" class="edge">
<title>public.query_parameter_invariant:model_key&#45;&gt;public.query_parameter:model_key</title>
<path fill="none" stroke="black" d="M889.9,-680.78C944.09,-671.4 910.08,-584.12 878.59,-527.6 838.9,-456.35 763.03,-501.17 723.19,-430 702.74,-393.47 680.32,-335.8 722.19,-335.8"/>
<polygon fill="black" stroke="black" points="889.89,-680.78 879.56,-677.09 884.57,-681.2 880.26,-681.55 880.26,-681.55 880.26,-681.55 884.57,-681.2 880.28,-686.06 889.89,-680.78"/>
<text text-anchor="start" x="886.59" y="-691.6" font-family="Arial" font-size="10.00">FOREIGN KEY (model_key, query_key, parameter_key) REFERENCES query_parameter(model_key, query_key, parameter_key) ON DELETE CASCADE</text>
</g>
</g>
</svg>
