<?xml version="1.0" encoding="UTF-8" standalone="no"?>
<!DOCTYPE svg PUBLIC "-//W3C//DTD SVG 1.1//EN"
 "http://www.w3.org/Graphics/SVG/1.1/DTD/svg11.dtd">
<!-- Generated by graphviz version 12.1.2 (20240928.0832)
 -->
<!-- Title: public.query_require Pages: 1 -->
<svg width="1302pt" height="756pt"
 viewBox="0.00 0.00 1301.68 756.00" xmlns="http://www.w3.org/2000/svg" xmlns:xlink="http://www.w3.org/1999/xlink">
<g id="graph0" class="graph" transform="scale(1 1) rotate(0) translate(4 752)">
<title>public.query_require</title>
<polygon fill="white" stroke="none" points="-4,4 -4,-752 1297.68,-752 1297.68,4 -4,4"/>
<!-- public.query_require -->
<g id="node1" class="node">
<title>public.query_require</title>
<polygon fill="#efefef" stroke="none" points="495.7,-666.2 495.7,-701.8 784.63,-701.8 784.63,-666.2 495.7,-666.2"/>
<polygon fill="none" stroke="black" points="495.7,-666.2 495.7,-701.8 784.63,-701.8 784.63,-666.2 495.7,-666.2"/>
<text text-anchor="start" x="502.7" y="-679.6" font-family="Arial Bold" font-size="18.00">public.query_require</text>
<text text-anchor="start" x="653.15" y="-679.6" font-family="Arial" font-size="14.00">    </text>
<text text-anchor="start" x="684.26" y="-679.6" font-family="Arial" font-size="14.00" fill="#666666">[BASE TABLE]</text>
<polygon fill="none" stroke="black" points="495.7,-635.4 495.7,-666.2 784.63,-666.2 784.63,-635.4 495.7,-635.4"/>
<text text-anchor="start" x="502.7" y="-647.6" font-family="Arial" font-size="14.00">model_key </text>
<text text-anchor="start" x="574.3" y="-647.6" font-family="Arial" font-size="14.00" fill="#666666">[text]</text>
<polygon fill="none" stroke="black" points="495.7,-604.6 495.7,-635.4 784.63,-635.4 784.63,-604.6 495.7,-604.6"/>
<text text-anchor="start" x="502.7" y="-616.8" font-family="Arial" font-size="14.00">query_key </text>
<text text-anchor="start" x="571.19" y="-616.8" font-family="Arial" font-size="14.00" fill="#666666">[text]</text>
<polygon fill="none" stroke="black" points="495.7,-573.8 495.7,-604.6 784.63,-604.6 784.63,-573.8 495.7,-573.8"/>
<text text-anchor="start" x="502.7" y="-586" font-family="Arial" font-size="14.00">logic_key </text>
<text text-anchor="start" x="564.96" y="-586" font-family="Arial" font-size="14.00" fill="#666666">[text]</text>
<polygon fill="none" stroke="black" stroke-width="3" points="494.2,-572.3 494.2,-703.3 786.13,-703.3 786.13,-572.3 494.2,-572.3"/>
</g>
<!-- public.logic -->
<g id="node2" class="node">
<title>public.logic</title>
<polygon fill="#efefef" stroke="none" points="348.38,-412.8 348.38,-448.4 591.96,-448.4 591.96,-412.8 348.38,-412.8"/>
<polygon fill="none" stroke="black" points="348.38,-412.8 348.38,-448.4 591.96,-448.4 591.96,-412.8 348.38,-412.8"/>
<text text-anchor="start" x="365.18" y="-426.2" font-family="Arial Bold" font-size="18.00">public.logic</text>
<text text-anchor="start" x="450.67" y="-426.2" font-family="Arial" font-size="14.00">    </text>
<text text-anchor="start" x="481.78" y="-426.2" font-family="Arial" font-size="14.00" fill="#666666">[BASE TABLE]</text>
<polygon fill="none" stroke="black" points="348.38,-382 348.38,-412.8 591.96,-412.8 591.96,-382 348.38,-382"/>
<text text-anchor="start" x="355.38" y="-394.2" font-family="Arial" font-size="14.00">logic_key </text>
<text text-anchor="start" x="417.63" y="-394.2" font-family="Arial" font-size="14.00" fill="#666666">[text]</text>
<polygon fill="none" stroke="black" points="348.38,-351.2 348.38,-382 591.96,-382 591.96,-351.2 348.38,-351.2"/>
<text text-anchor="start" x="355.38" y="-363.4" font-family="Arial" font-size="14.00">model_key </text>
<text text-anchor="start" x="426.97" y="-363.4" font-family="Arial" font-size="14.00" fill="#666666">[text]</text>
<polygon fill="none" stroke="black" points="348.38,-320.4 348.38,-351.2 591.96,-351.2 591.96,-320.4 348.38,-320.4"/>
<text text-anchor="start" x="355.38" y="-332.6" font-family="Arial" font-size="14.00">sort_order </text>
<text text-anchor="start" x="423.07" y="-332.6" font-family="Arial" font-size="14.00" fill="#666666">[integer]</text>
<polygon fill="none" stroke="black" points="348.38,-289.6 348.38,-320.4 591.96,-320.4 591.96,-289.6 348.38,-289.6"/>
<text text-anchor="start" x="355.38" y="-301.8" font-family="Arial" font-size="14.00">logic_type </text>
<text text-anchor="start" x="422.31" y="-301.8" font-family="Arial" font-size="14.00" fill="#666666">[logic_type]</text>
<polygon fill="none" stroke="black" points="348.38,-258.8 348.38,-289.6 591.96,-289.6 591.96,-258.8 348.38,-258.8"/>
<text text-anchor="start" x="355.38" y="-271" font-family="Arial" font-size="14.00">description </text>
<text text-anchor="start" x="426.97" y="-271" font-family="Arial" font-size="14.00" fill="#666666">[text]</text>
<polygon fill="none" stroke="black" points="348.38,-228 348.38,-258.8 591.96,-258.8 591.96,-228 348.38,-228"/>
<text text-anchor="start" x="355.38" y="-240.2" font-family="Arial" font-size="14.00">target </text>
<text text-anchor="start" x="395.07" y="-240.2" font-family="Arial" font-size="14.00" fill="#666666">[text]</text>
<polygon fill="none" stroke="black" points="348.38,-197.2 348.38,-228 591.96,-228 591.96,-197.2 348.38,-197.2"/>
<text text-anchor="start" x="355.38" y="-209.4" font-family="Arial" font-size="14.00">notation </text>
<text text-anchor="start" x="409.09" y="-209.4" font-family="Arial" font-size="14.00" fill="#666666">[notation]</text>
<polygon fill="none" stroke="black" points="348.38,-166.4 348.38,-197.2 591.96,-197.2 591.96,-166.4 348.38,-166.4"/>
<text text-anchor="start" x="355.38" y="-178.6" font-family="Arial" font-size="14.00">specification </text>
<text text-anchor="start" x="436.31" y="-178.6" font-family="Arial" font-size="14.00" fill="#666666">[text]</text>
<polygon fill="none" stroke="black" points="348.38,-135.6 348.38,-166.4 591.96,-166.4 591.96,-135.6 348.38,-135.6"/>
<text text-anchor="start" x="355.38" y="-147.8" font-family="Arial" font-size="14.00">target_type_notation </text>
<text text-anchor="start" x="486.92" y="-147.8" font-family="Arial" font-size="14.00" fill="#666666">[notation]</text>
<polygon fill="none" stroke="black" points="348.38,-104.8 348.38,-135.6 591.96,-135.6 591.96,-104.8 348.38,-104.8"/>
<text text-anchor="start" x="355.38" y="-117" font-family="Arial" font-size="14.00">target_type_specification </text>
<text text-anchor="start" x="514.14" y="-117" font-family="Arial" font-size="14.00" fill="#666666">[text]</text>
<polygon fill="none" stroke="black" points="348.38,-74 348.38,-104.8 591.96,-104.8 591.96,-74 348.38,-74"/>
<text text-anchor="start" x="355.38" y="-86.2" font-family="Arial" font-size="14.00">destroy_event_specification </text>
<text text-anchor="start" x="532.04" y="-86.2" font-family="Arial" font-size="14.00" fill="#666666">[text]</text>
<polygon fill="none" stroke="black" points="348.38,-43.2 348.38,-74 591.96,-74 591.96,-43.2 348.38,-43.2"/>
<text text-anchor="start" x="355.38" y="-55.4" font-family="Arial" font-size="14.00">endpoint_selector_specification </text>
<text text-anchor="start" x="554.62" y="-55.4" font-family="Arial" font-size="14.00" fill="#666666">[text]</text>
</g>
<!-- public.query_require&#45;&gt;public.logic -->
<g id="edge1" class="edge">
<title>public.query_require:model_key&#45;&gt;public.logic:model_key</title>
<path fill="none" stroke="black" d="M484.56,-649.74C443.31,-640.25 466.46,-569.4 495.7,-527.6 521.89,-490.18 565.78,-529.03 591.96,-491.6 623.81,-446.08 648.52,-366.6 592.96,-366.6"/>
<polygon fill="black" stroke="black" points="484.42,-649.72 493.9,-655.24 489.73,-650.28 494.04,-650.73 494.04,-650.73 494.04,-650.73 489.73,-650.28 494.84,-646.29 484.42,-649.72"/>
<text text-anchor="start" x="7" y="-660.8" font-family="Arial" font-size="10.00">FOREIGN KEY (model_key, logic_key) REFERENCES logic(model_key, logic_key) ON DELETE CASCADE</text>
</g>
<!-- public.query -->
<g id="node3" class="node">
<title>public.query</title>
<polygon fill="#efefef" stroke="none" points="696.69,-305 696.69,-340.6 925.65,-340.6 925.65,-305 696.69,-305"/>
<polygon fill="none" stroke="black" points="696.69,-305 696.69,-340.6 925.65,-340.6 925.65,-305 696.69,-305"/>
<text text-anchor="start" x="703.69" y="-318.4" font-family="Arial Bold" font-size="18.00">public.query</text>
<text text-anchor="start" x="794.16" y="-318.4" font-family="Arial" font-size="14.00">    </text>
<text text-anchor="start" x="825.28" y="-318.4" font-family="Arial" font-size="14.00" fill="#666666">[BASE TABLE]</text>
<polygon fill="none" stroke="black" points="696.69,-274.2 696.69,-305 925.65,-305 925.65,-274.2 696.69,-274.2"/>
<text text-anchor="start" x="703.69" y="-286.4" font-family="Arial" font-size="14.00">model_key </text>
<text text-anchor="start" x="775.28" y="-286.4" font-family="Arial" font-size="14.00" fill="#666666">[text]</text>
<polygon fill="none" stroke="black" points="696.69,-243.4 696.69,-274.2 925.65,-274.2 925.65,-243.4 696.69,-243.4"/>
<text text-anchor="start" x="703.69" y="-255.6" font-family="Arial" font-size="14.00">class_key </text>
<text text-anchor="start" x="769.05" y="-255.6" font-family="Arial" font-size="14.00" fill="#666666">[text]</text>
<polygon fill="none" stroke="black" points="696.69,-212.6 696.69,-243.4 925.65,-243.4 925.65,-212.6 696.69,-212.6"/>
<text text-anchor="start" x="703.69" y="-224.8" font-family="Arial" font-size="14.00">query_key </text>
<text text-anchor="start" x="772.17" y="-224.8" font-family="Arial" font-size="14.00" fill="#666666">[text]</text>
<polygon fill="none" stroke="black" points="696.69,-181.8 696.69,-212.6 925.65,-212.6 925.65,-181.8 696.69,-181.8"/>
<text text-anchor="start" x="703.69" y="-194" font-family="Arial" font-size="14.00">name </text>
<text text-anchor="start" x="742.6" y="-194" font-family="Arial" font-size="14.00" fill="#666666">[text]</text>
<polygon fill="none" stroke="black" points="696.69,-151 696.69,-181.8 925.65,-181.8 925.65,-151 696.69,-151"/>
<text text-anchor="start" x="703.69" y="-163.2" font-family="Arial" font-size="14.00">details </text>
<text text-anchor="start" x="748.05" y="-163.2" font-family="Arial" font-size="14.00" fill="#666666">[text]</text>
</g>
<!-- public.query_require&#45;&gt;public.query -->
<g id="edge2" class="edge">
<title>public.query_require:model_key&#45;&gt;public.query:model_key</title>
<path fill="none" stroke="black" d="M795.81,-649.78C834.8,-640.97 798.63,-576.55 784.63,-527.6 764.04,-455.57 717.37,-455.8 696.69,-383.8 685.13,-343.56 653.82,-289.6 695.69,-289.6"/>
<polygon fill="black" stroke="black" points="795.92,-649.77 785.52,-646.29 790.61,-650.3 786.3,-650.73 786.3,-650.73 786.3,-650.73 790.61,-650.3 786.41,-655.24 795.92,-649.77"/>
<text text-anchor="start" x="792.63" y="-660.8" font-family="Arial" font-size="10.00">FOREIGN KEY (model_key, query_key) REFERENCES query(model_key, query_key) ON DELETE CASCADE</text>
</g>
</g>
</svg>
