<?xml version="1.0" encoding="UTF-8" standalone="no"?>
<!DOCTYPE svg PUBLIC "-//W3C//DTD SVG 1.1//EN"
 "http://www.w3.org/Graphics/SVG/1.1/DTD/svg11.dtd">
<!-- Generated by graphviz version 12.1.2 (20240928.0832)
 -->
<!-- Title: public.class_index Pages: 1 -->
<svg width="1325pt" height="694pt"
 viewBox="0.00 0.00 1324.72 694.40" xmlns="http://www.w3.org/2000/svg" xmlns:xlink="http://www.w3.org/1999/xlink">
<g id="graph0" class="graph" transform="scale(1 1) rotate(0) translate(4 690.4)">
<title>public.class_index</title>
<polygon fill="white" stroke="none" points="-4,4 -4,-690.4 1320.72,-690.4 1320.72,4 -4,4"/>
<!-- public.class_index -->
<g id="node1" class="node">
<title>public.class_index</title>
<polygon fill="#efefef" stroke="none" points="502.35,-604.6 502.35,-640.2 774.31,-640.2 774.31,-604.6 502.35,-604.6"/>
<polygon fill="none" stroke="black" points="502.35,-604.6 502.35,-640.2 774.31,-640.2 774.31,-604.6 502.35,-604.6"/>
<text text-anchor="start" x="509.35" y="-618" font-family="Arial Bold" font-size="18.00">public.class_index</text>
<text text-anchor="start" x="642.82" y="-618" font-family="Arial" font-size="14.00">    </text>
<text text-anchor="start" x="673.94" y="-618" font-family="Arial" font-size="14.00" fill="#666666">[BASE TABLE]</text>
<polygon fill="none" stroke="black" points="502.35,-573.8 502.35,-604.6 774.31,-604.6 774.31,-573.8 502.35,-573.8"/>
<text text-anchor="start" x="509.35" y="-586" font-family="Arial" font-size="14.00">model_key </text>
<text text-anchor="start" x="580.95" y="-586" font-family="Arial" font-size="14.00" fill="#666666">[text]</text>
<polygon fill="none" stroke="black" points="502.35,-543 502.35,-573.8 774.31,-573.8 774.31,-543 502.35,-543"/>
<text text-anchor="start" x="509.35" y="-555.2" font-family="Arial" font-size="14.00">class_key </text>
<text text-anchor="start" x="574.71" y="-555.2" font-family="Arial" font-size="14.00" fill="#666666">[text]</text>
<polygon fill="none" stroke="black" points="502.35,-512.2 502.35,-543 774.31,-543 774.31,-512.2 502.35,-512.2"/>
<text text-anchor="start" x="509.35" y="-524.4" font-family="Arial" font-size="14.00">index_num </text>
<text text-anchor="start" x="581.73" y="-524.4" font-family="Arial" font-size="14.00" fill="#666666">[integer]</text>
<polygon fill="none" stroke="black" points="502.35,-481.4 502.35,-512.2 774.31,-512.2 774.31,-481.4 502.35,-481.4"/>
<text text-anchor="start" x="509.35" y="-493.6" font-family="Arial" font-size="14.00">attribute_key </text>
<text text-anchor="start" x="593.4" y="-493.6" font-family="Arial" font-size="14.00" fill="#666666">[text]</text>
<polygon fill="none" stroke="black" stroke-width="3" points="500.85,-479.9 500.85,-641.7 775.81,-641.7 775.81,-479.9 500.85,-479.9"/>
</g>
<!-- public.class -->
<g id="node2" class="node">
<title>public.class</title>
<polygon fill="#efefef" stroke="none" points="356.85,-320.4 356.85,-356 579.82,-356 579.82,-320.4 356.85,-320.4"/>
<polygon fill="none" stroke="black" points="356.85,-320.4 356.85,-356 579.82,-356 579.82,-320.4 356.85,-320.4"/>
<text text-anchor="start" x="363.85" y="-333.8" font-family="Arial Bold" font-size="18.00">public.class</text>
<text text-anchor="start" x="448.33" y="-333.8" font-family="Arial" font-size="14.00">    </text>
<text text-anchor="start" x="479.45" y="-333.8" font-family="Arial" font-size="14.00" fill="#666666">[BASE TABLE]</text>
<polygon fill="none" stroke="black" points="356.85,-289.6 356.85,-320.4 579.82,-320.4 579.82,-289.6 356.85,-289.6"/>
<text text-anchor="start" x="363.85" y="-301.8" font-family="Arial" font-size="14.00">model_key </text>
<text text-anchor="start" x="435.44" y="-301.8" font-family="Arial" font-size="14.00" fill="#666666">[text]</text>
<polygon fill="none" stroke="black" points="356.85,-258.8 356.85,-289.6 579.82,-289.6 579.82,-258.8 356.85,-258.8"/>
<text text-anchor="start" x="363.85" y="-271" font-family="Arial" font-size="14.00">class_key </text>
<text text-anchor="start" x="429.21" y="-271" font-family="Arial" font-size="14.00" fill="#666666">[text]</text>
<polygon fill="none" stroke="black" points="356.85,-228 356.85,-258.8 579.82,-258.8 579.82,-228 356.85,-228"/>
<text text-anchor="start" x="363.85" y="-240.2" font-family="Arial" font-size="14.00">name </text>
<text text-anchor="start" x="402.76" y="-240.2" font-family="Arial" font-size="14.00" fill="#666666">[text]</text>
<polygon fill="none" stroke="black" points="356.85,-197.2 356.85,-228 579.82,-228 579.82,-197.2 356.85,-197.2"/>
<text text-anchor="start" x="363.85" y="-209.4" font-family="Arial" font-size="14.00">subdomain_key </text>
<text text-anchor="start" x="465.8" y="-209.4" font-family="Arial" font-size="14.00" fill="#666666">[text]</text>
<polygon fill="none" stroke="black" points="356.85,-166.4 356.85,-197.2 579.82,-197.2 579.82,-166.4 356.85,-166.4"/>
<text text-anchor="start" x="363.85" y="-178.6" font-family="Arial" font-size="14.00">actor_key </text>
<text text-anchor="start" x="428.43" y="-178.6" font-family="Arial" font-size="14.00" fill="#666666">[text]</text>
<polygon fill="none" stroke="black" points="356.85,-135.6 356.85,-166.4 579.82,-166.4 579.82,-135.6 356.85,-135.6"/>
<text text-anchor="start" x="363.85" y="-147.8" font-family="Arial" font-size="14.00">superclass_of_key </text>
<text text-anchor="start" x="483.69" y="-147.8" font-family="Arial" font-size="14.00" fill="#666666">[text]</text>
<polygon fill="none" stroke="black" points="356.85,-104.8 356.85,-135.6 579.82,-135.6 579.82,-104.8 356.85,-104.8"/>
<text text-anchor="start" x="363.85" y="-117" font-family="Arial" font-size="14.00">subclass_of_key </text>
<text text-anchor="start" x="471.24" y="-117" font-family="Arial" font-size="14.00" fill="#666666">[text]</text>
<polygon fill="none" stroke="black" points="356.85,-74 356.85,-104.8 579.82,-104.8 579.82,-74 356.85,-74"/>
<text text-anchor="start" x="363.85" y="-86.2" font-family="Arial" font-size="14.00">details </text>
<text text-anchor="start" x="408.21" y="-86.2" font-family="Arial" font-size="14.00" fill="#666666">[text]</text>
<polygon fill="none" stroke="black" points="356.85,-43.2 356.85,-74 579.82,-74 579.82,-43.2 356.85,-43.2"/>
<text text-anchor="start" x="363.85" y="-55.4" font-family="Arial" font-size="14.00">uml_comment </text>
<text text-anchor="start" x="455.66" y="-55.4" font-family="Arial" font-size="14.00" fill="#666666">[text]</text>
</g>
<!-- public.class_index&#45;&gt;public.class -->
<g id="edge1" class="edge">
<title>public.class_index:model_key&#45;&gt;public.class:model_key</title>
<path fill="none" stroke="black" d="M491.01,-588.36C436.47,-578.77 467.38,-489.63 502.35,-435.2 522.88,-403.26 559.23,-431.1 579.82,-399.2 602.52,-364.02 622.69,-305 580.82,-305"/>
<polygon fill="black" stroke="black" points="491.05,-588.36 500.65,-593.66 496.37,-588.79 500.69,-589.15 500.69,-589.15 500.69,-589.15 496.37,-588.79 501.39,-584.69 491.05,-588.36"/>
<text text-anchor="start" x="7" y="-599.2" font-family="Arial" font-size="10.00">FOREIGN KEY (model_key, class_key) REFERENCES class(model_key, class_key) ON DELETE CASCADE</text>
</g>
<!-- public.attribute -->
<g id="node3" class="node">
<title>public.attribute</title>
<polygon fill="#efefef" stroke="none" points="684.35,-320.4 684.35,-356 932.31,-356 932.31,-320.4 684.35,-320.4"/>
<polygon fill="none" stroke="black" points="684.35,-320.4 684.35,-356 932.31,-356 932.31,-320.4 684.35,-320.4"/>
<text text-anchor="start" x="691.35" y="-333.8" font-family="Arial Bold" font-size="18.00">public.attribute</text>
<text text-anchor="start" x="800.82" y="-333.8" font-family="Arial" font-size="14.00">    </text>
<text text-anchor="start" x="831.94" y="-333.8" font-family="Arial" font-size="14.00" fill="#666666">[BASE TABLE]</text>
<polygon fill="none" stroke="black" points="684.35,-289.6 684.35,-320.4 932.31,-320.4 932.31,-289.6 684.35,-289.6"/>
<text text-anchor="start" x="691.35" y="-301.8" font-family="Arial" font-size="14.00">model_key </text>
<text text-anchor="start" x="762.95" y="-301.8" font-family="Arial" font-size="14.00" fill="#666666">[text]</text>
<polygon fill="none" stroke="black" points="684.35,-258.8 684.35,-289.6 932.31,-289.6 932.31,-258.8 684.35,-258.8"/>
<text text-anchor="start" x="691.35" y="-271" font-family="Arial" font-size="14.00">attribute_key </text>
<text text-anchor="start" x="775.4" y="-271" font-family="Arial" font-size="14.00" fill="#666666">[text]</text>
<polygon fill="none" stroke="black" points="684.35,-228 684.35,-258.8 932.31,-258.8 932.31,-228 684.35,-228"/>
<text text-anchor="start" x="691.35" y="-240.2" font-family="Arial" font-size="14.00">class_key </text>
<text text-anchor="start" x="756.71" y="-240.2" font-family="Arial" font-size="14.00" fill="#666666">[text]</text>
<polygon fill="none" stroke="black" points="684.35,-197.2 684.35,-228 932.31,-228 932.31,-197.2 684.35,-197.2"/>
<text text-anchor="start" x="691.35" y="-209.4" font-family="Arial" font-size="14.00">name </text>
<text text-anchor="start" x="730.27" y="-209.4" font-family="Arial" font-size="14.00" fill="#666666">[text]</text>
<polygon fill="none" stroke="black" points="684.35,-166.4 684.35,-197.2 932.31,-197.2 932.31,-166.4 684.35,-166.4"/>
<text text-anchor="start" x="691.35" y="-178.6" font-family="Arial" font-size="14.00">details </text>
<text text-anchor="start" x="735.71" y="-178.6" font-family="Arial" font-size="14.00" fill="#666666">[text]</text>
<polygon fill="none" stroke="black" points="684.35,-135.6 684.35,-166.4 932.31,-166.4 932.31,-135.6 684.35,-135.6"/>
<text text-anchor="start" x="691.35" y="-147.8" font-family="Arial" font-size="14.00">data_type_rules </text>
<text text-anchor="start" x="794.87" y="-147.8" font-family="Arial" font-size="14.00" fill="#666666">[text]</text>
<polygon fill="none" stroke="black" points="684.35,-104.8 684.35,-135.6 932.31,-135.6 932.31,-104.8 684.35,-104.8"/>
<text text-anchor="start" x="691.35" y="-117" font-family="Arial" font-size="14.00">derivation_policy </text>
<text text-anchor="start" x="799.53" y="-117" font-family="Arial" font-size="14.00" fill="#666666">[text]</text>
<polygon fill="none" stroke="black" points="684.35,-74 684.35,-104.8 932.31,-104.8 932.31,-74 684.35,-74"/>
<text text-anchor="start" x="691.35" y="-86.2" font-family="Arial" font-size="14.00">nullable </text>
<text text-anchor="start" x="743.51" y="-86.2" font-family="Arial" font-size="14.00" fill="#666666">[boolean]</text>
<polygon fill="none" stroke="black" points="684.35,-43.2 684.35,-74 932.31,-74 932.31,-43.2 684.35,-43.2"/>
<text text-anchor="start" x="691.35" y="-55.4" font-family="Arial" font-size="14.00">uml_comment </text>
<text text-anchor="start" x="783.16" y="-55.4" font-family="Arial" font-size="14.00" fill="#666666">[text]</text>
</g>
<!-- public.class_index&#45;&gt;public.attribute -->
<g id="edge2" class="edge">
<title>public.class_index:model_key&#45;&gt;public.attribute:model_key</title>
<path fill="none" stroke="black" d="M785.67,-588.35C840.36,-578.66 810.76,-488.66 774.31,-435.2 750.06,-399.62 708.68,-434.73 684.35,-399.2 660.7,-364.65 641.49,-305 683.35,-305"/>
<polygon fill="black" stroke="black" points="785.61,-588.35 775.28,-584.69 780.3,-588.79 775.98,-589.15 775.98,-589.15 775.98,-589.15 780.3,-588.79 776.02,-593.66 785.61,-588.35"/>
<text text-anchor="start" x="782.31" y="-599.2" font-family="Arial" font-size="10.00">FOREIGN KEY (model_key, attribute_key) REFERENCES attribute(model_key, attribute_key) ON DELETE CASCADE</text>
</g>
</g>
</svg>
