<?xml version="1.0" encoding="UTF-8" standalone="no"?>
<!DOCTYPE svg PUBLIC "-//W3C//DTD SVG 1.1//EN"
 "http://www.w3.org/Graphics/SVG/1.1/DTD/svg11.dtd">
<!-- Generated by graphviz version 12.1.2 (20240928.0832)
 -->
<!-- Title: public.scenario_step Pages: 1 -->
<svg width="1548pt" height="1260pt"
 viewBox="0.00 0.00 1547.55 1260.00" xmlns="http://www.w3.org/2000/svg" xmlns:xlink="http://www.w3.org/1999/xlink">
<g id="graph0" class="graph" transform="scale(1 1) rotate(0) translate(4 1256)">
<title>public.scenario_step</title>
<polygon fill="white" stroke="none" points="-4,4 -4,-1256 1543.55,-1256 1543.55,4 -4,4"/>
<!-- public.scenario_step -->
<g id="node1" class="node">
<title>public.scenario_step</title>
<polygon fill="#efefef" stroke="none" points="688.71,-912.6 688.71,-948.2 974.65,-948.2 974.65,-912.6 688.71,-912.6"/>
<polygon fill="none" stroke="black" points="688.71,-912.6 688.71,-948.2 974.65,-948.2 974.65,-912.6 688.71,-912.6"/>
<text text-anchor="start" x="695.71" y="-926" font-family="Arial Bold" font-size="18.00">public.scenario_step</text>
<text text-anchor="start" x="843.16" y="-926" font-family="Arial" font-size="14.00">    </text>
<text text-anchor="start" x="874.28" y="-926" font-family="Arial" font-size="14.00" fill="#666666">[BASE TABLE]</text>
<polygon fill="none" stroke="black" points="688.71,-881.8 688.71,-912.6 974.65,-912.6 974.65,-881.8 688.71,-881.8"/>
<text text-anchor="start" x="695.71" y="-894" font-family="Arial" font-size="14.00">model_key </text>
<text text-anchor="start" x="767.3" y="-894" font-family="Arial" font-size="14.00" fill="#666666">[text]</text>
<polygon fill="none" stroke="black" points="688.71,-851 688.71,-881.8 974.65,-881.8 974.65,-851 688.71,-851"/>
<text text-anchor="start" x="695.71" y="-863.2" font-family="Arial" font-size="14.00">scenario_step_key </text>
<text text-anchor="start" x="816.34" y="-863.2" font-family="Arial" font-size="14.00" fill="#666666">[text]</text>
<polygon fill="none" stroke="black" points="688.71,-820.2 688.71,-851 974.65,-851 974.65,-820.2 688.71,-820.2"/>
<text text-anchor="start" x="695.71" y="-832.4" font-family="Arial" font-size="14.00">scenario_key </text>
<text text-anchor="start" x="782.09" y="-832.4" font-family="Arial" font-size="14.00" fill="#666666">[text]</text>
<polygon fill="none" stroke="black" points="688.71,-789.4 688.71,-820.2 974.65,-820.2 974.65,-789.4 688.71,-789.4"/>
<text text-anchor="start" x="695.71" y="-801.6" font-family="Arial" font-size="14.00">parent_step_key </text>
<text text-anchor="start" x="803.12" y="-801.6" font-family="Arial" font-size="14.00" fill="#666666">[text]</text>
<polygon fill="none" stroke="black" points="688.71,-758.6 688.71,-789.4 974.65,-789.4 974.65,-758.6 688.71,-758.6"/>
<text text-anchor="start" x="695.71" y="-770.8" font-family="Arial" font-size="14.00">sort_order </text>
<text text-anchor="start" x="763.41" y="-770.8" font-family="Arial" font-size="14.00" fill="#666666">[integer]</text>
<polygon fill="none" stroke="black" points="688.71,-727.8 688.71,-758.6 974.65,-758.6 974.65,-727.8 688.71,-727.8"/>
<text text-anchor="start" x="695.71" y="-740" font-family="Arial" font-size="14.00">step_type </text>
<text text-anchor="start" x="760.31" y="-740" font-family="Arial" font-size="14.00" fill="#666666">[step_type]</text>
<polygon fill="none" stroke="black" points="688.71,-697 688.71,-727.8 974.65,-727.8 974.65,-697 688.71,-697"/>
<text text-anchor="start" x="695.71" y="-709.2" font-family="Arial" font-size="14.00">leaf_type </text>
<text text-anchor="start" x="756.42" y="-709.2" font-family="Arial" font-size="14.00" fill="#666666">[leaf_type]</text>
<polygon fill="none" stroke="black" points="688.71,-666.2 688.71,-697 974.65,-697 974.65,-666.2 688.71,-666.2"/>
<text text-anchor="start" x="695.71" y="-678.4" font-family="Arial" font-size="14.00">condition </text>
<text text-anchor="start" x="755.64" y="-678.4" font-family="Arial" font-size="14.00" fill="#666666">[text]</text>
<polygon fill="none" stroke="black" points="688.71,-635.4 688.71,-666.2 974.65,-666.2 974.65,-635.4 688.71,-635.4"/>
<text text-anchor="start" x="695.71" y="-647.6" font-family="Arial" font-size="14.00">description </text>
<text text-anchor="start" x="767.3" y="-647.6" font-family="Arial" font-size="14.00" fill="#666666">[text]</text>
<polygon fill="none" stroke="black" points="688.71,-604.6 688.71,-635.4 974.65,-635.4 974.65,-604.6 688.71,-604.6"/>
<text text-anchor="start" x="695.71" y="-616.8" font-family="Arial" font-size="14.00">from_object_key </text>
<text text-anchor="start" x="802.32" y="-616.8" font-family="Arial" font-size="14.00" fill="#666666">[text]</text>
<polygon fill="none" stroke="black" points="688.71,-573.8 688.71,-604.6 974.65,-604.6 974.65,-573.8 688.71,-573.8"/>
<text text-anchor="start" x="695.71" y="-586" font-family="Arial" font-size="14.00">to_object_key </text>
<text text-anchor="start" x="785.99" y="-586" font-family="Arial" font-size="14.00" fill="#666666">[text]</text>
<polygon fill="none" stroke="black" points="688.71,-543 688.71,-573.8 974.65,-573.8 974.65,-543 688.71,-543"/>
<text text-anchor="start" x="695.71" y="-555.2" font-family="Arial" font-size="14.00">event_key </text>
<text text-anchor="start" x="763.42" y="-555.2" font-family="Arial" font-size="14.00" fill="#666666">[text]</text>
<polygon fill="none" stroke="black" points="688.71,-512.2 688.71,-543 974.65,-543 974.65,-512.2 688.71,-512.2"/>
<text text-anchor="start" x="695.71" y="-524.4" font-family="Arial" font-size="14.00">query_key </text>
<text text-anchor="start" x="764.19" y="-524.4" font-family="Arial" font-size="14.00" fill="#666666">[text]</text>
<polygon fill="none" stroke="black" points="688.71,-481.4 688.71,-512.2 974.65,-512.2 974.65,-481.4 688.71,-481.4"/>
<text text-anchor="start" x="695.71" y="-493.6" font-family="Arial" font-size="14.00">scenario_ref_key </text>
<text text-anchor="start" x="806.21" y="-493.6" font-family="Arial" font-size="14.00" fill="#666666">[text]</text>
<polygon fill="none" stroke="black" stroke-width="3" points="687.21,-479.9 687.21,-949.7 976.15,-949.7 976.15,-479.9 687.21,-479.9"/>
</g>
<!-- public.scenario_step&#45;&gt;public.scenario_step -->
<g id="edge7" class="edge">
<title>public.scenario_step:model_key&#45;&gt;public.scenario_step:model_key</title>
<path fill="none" stroke="black" d="M832.91,-922.82C840.66,-1092.66 840.25,-1252 831.68,-1252 822.94,-1252 822.69,-1086.08 830.94,-912.4"/>
<polygon fill="black" stroke="black" points="832.91,-922.73 836.94,-912.53 832.66,-917.4 832.46,-913.07 832.46,-913.07 832.46,-913.07 832.66,-917.4 827.95,-912.95 832.91,-922.73"/>
<text text-anchor="start" x="229.08" y="-922.4" font-family="Arial" font-size="10.00">FOREIGN KEY (model_key, parent_step_key) REFERENCES scenario_step(model_key, scenario_step_key) ON DELETE CASCADE</text>
</g>
<!-- public.query -->
<g id="node2" class="node">
<title>public.query</title>
<polygon fill="#efefef" stroke="none" points="43.2,-258.8 43.2,-294.4 272.16,-294.4 272.16,-258.8 43.2,-258.8"/>
<polygon fill="none" stroke="black" points="43.2,-258.8 43.2,-294.4 272.16,-294.4 272.16,-258.8 43.2,-258.8"/>
<text text-anchor="start" x="50.2" y="-272.2" font-family="Arial Bold" font-size="18.00">public.query</text>
<text text-anchor="start" x="140.67" y="-272.2" font-family="Arial" font-size="14.00">    </text>
<text text-anchor="start" x="171.79" y="-272.2" font-family="Arial" font-size="14.00" fill="#666666">[BASE TABLE]</text>
<polygon fill="none" stroke="black" points="43.2,-228 43.2,-258.8 272.16,-258.8 272.16,-228 43.2,-228"/>
<text text-anchor="start" x="50.2" y="-240.2" font-family="Arial" font-size="14.00">model_key </text>
<text text-anchor="start" x="121.79" y="-240.2" font-family="Arial" font-size="14.00" fill="#666666">[text]</text>
<polygon fill="none" stroke="black" points="43.2,-197.2 43.2,-228 272.16,-228 272.16,-197.2 43.2,-197.2"/>
<text text-anchor="start" x="50.2" y="-209.4" font-family="Arial" font-size="14.00">class_key </text>
<text text-anchor="start" x="115.56" y="-209.4" font-family="Arial" font-size="14.00" fill="#666666">[text]</text>
<polygon fill="none" stroke="black" points="43.2,-166.4 43.2,-197.2 272.16,-197.2 272.16,-166.4 43.2,-166.4"/>
<text text-anchor="start" x="50.2" y="-178.6" font-family="Arial" font-size="14.00">query_key </text>
<text text-anchor="start" x="118.68" y="-178.6" font-family="Arial" font-size="14.00" fill="#666666">[text]</text>
<polygon fill="none" stroke="black" points="43.2,-135.6 43.2,-166.4 272.16,-166.4 272.16,-135.6 43.2,-135.6"/>
<text text-anchor="start" x="50.2" y="-147.8" font-family="Arial" font-size="14.00">name </text>
<text text-anchor="start" x="89.11" y="-147.8" font-family="Arial" font-size="14.00" fill="#666666">[text]</text>
<polygon fill="none" stroke="black" points="43.2,-104.8 43.2,-135.6 272.16,-135.6 272.16,-104.8 43.2,-104.8"/>
<text text-anchor="start" x="50.2" y="-117" font-family="Arial" font-size="14.00">details </text>
<text text-anchor="start" x="94.56" y="-117" font-family="Arial" font-size="14.00" fill="#666666">[text]</text>
</g>
<!-- public.scenario_step&#45;&gt;public.query -->
<g id="edge1" class="edge">
<title>public.scenario_step:model_key&#45;&gt;public.query:model_key</title>
<path fill="none" stroke="black" d="M677.42,-897.08C414.41,-890.76 446.84,-640.24 323.68,-399.2 290.56,-334.38 345.96,-243.4 273.16,-243.4"/>
<polygon fill="black" stroke="black" points="677.38,-897.08 687.32,-901.7 682.71,-897.14 687.04,-897.19 687.04,-897.19 687.04,-897.19 682.71,-897.14 687.43,-892.7 677.38,-897.08"/>
<text text-anchor="start" x="186.66" y="-881.2" font-family="Arial" font-size="10.00">FOREIGN KEY (model_key, query_key) REFERENCES query(model_key, query_key) ON DELETE CASCADE</text>
</g>
<!-- public.event -->
<g id="node3" class="node">
<title>public.event</title>
<polygon fill="#efefef" stroke="none" points="376.2,-258.8 376.2,-294.4 603.16,-294.4 603.16,-258.8 376.2,-258.8"/>
<polygon fill="none" stroke="black" points="376.2,-258.8 376.2,-294.4 603.16,-294.4 603.16,-258.8 376.2,-258.8"/>
<text text-anchor="start" x="383.2" y="-272.2" font-family="Arial Bold" font-size="18.00">public.event</text>
<text text-anchor="start" x="471.67" y="-272.2" font-family="Arial" font-size="14.00">    </text>
<text text-anchor="start" x="502.79" y="-272.2" font-family="Arial" font-size="14.00" fill="#666666">[BASE TABLE]</text>
<polygon fill="none" stroke="black" points="376.2,-228 376.2,-258.8 603.16,-258.8 603.16,-228 376.2,-228"/>
<text text-anchor="start" x="383.2" y="-240.2" font-family="Arial" font-size="14.00">model_key </text>
<text text-anchor="start" x="454.79" y="-240.2" font-family="Arial" font-size="14.00" fill="#666666">[text]</text>
<polygon fill="none" stroke="black" points="376.2,-197.2 376.2,-228 603.16,-228 603.16,-197.2 376.2,-197.2"/>
<text text-anchor="start" x="383.2" y="-209.4" font-family="Arial" font-size="14.00">class_key </text>
<text text-anchor="start" x="448.56" y="-209.4" font-family="Arial" font-size="14.00" fill="#666666">[text]</text>
<polygon fill="none" stroke="black" points="376.2,-166.4 376.2,-197.2 603.16,-197.2 603.16,-166.4 376.2,-166.4"/>
<text text-anchor="start" x="383.2" y="-178.6" font-family="Arial" font-size="14.00">event_key </text>
<text text-anchor="start" x="450.91" y="-178.6" font-family="Arial" font-size="14.00" fill="#666666">[text]</text>
<polygon fill="none" stroke="black" points="376.2,-135.6 376.2,-166.4 603.16,-166.4 603.16,-135.6 376.2,-135.6"/>
<text text-anchor="start" x="383.2" y="-147.8" font-family="Arial" font-size="14.00">name </text>
<text text-anchor="start" x="422.11" y="-147.8" font-family="Arial" font-size="14.00" fill="#666666">[text]</text>
<polygon fill="none" stroke="black" points="376.2,-104.8 376.2,-135.6 603.16,-135.6 603.16,-104.8 376.2,-104.8"/>
<text text-anchor="start" x="383.2" y="-117" font-family="Arial" font-size="14.00">details </text>
<text text-anchor="start" x="427.56" y="-117" font-family="Arial" font-size="14.00" fill="#666666">[text]</text>
</g>
<!-- public.scenario_step&#45;&gt;public.event -->
<g id="edge2" class="edge">
<title>public.scenario_step:model_key&#45;&gt;public.event:model_key</title>
<path fill="none" stroke="black" d="M678.28,-893.02C620.07,-837.34 673.96,-243.4 604.16,-243.4"/>
<polygon fill="black" stroke="black" points="678.26,-893.02 685.58,-901.18 683.14,-895.18 687.1,-896.93 687.1,-896.93 687.1,-896.93 683.14,-895.18 689.23,-892.95 678.26,-893.02"/>
<text text-anchor="start" x="694.71" y="-881.2" font-family="Arial" font-size="10.00">FOREIGN KEY (model_key, event_key) REFERENCES event(model_key, event_key) ON DELETE CASCADE</text>
</g>
<!-- public.scenario -->
<g id="node4" class="node">
<title>public.scenario</title>
<polygon fill="#efefef" stroke="none" points="707.71,-258.8 707.71,-294.4 955.66,-294.4 955.66,-258.8 707.71,-258.8"/>
<polygon fill="none" stroke="black" points="707.71,-258.8 707.71,-294.4 955.66,-294.4 955.66,-258.8 707.71,-258.8"/>
<text text-anchor="start" x="714.71" y="-272.2" font-family="Arial Bold" font-size="18.00">public.scenario</text>
<text text-anchor="start" x="824.17" y="-272.2" font-family="Arial" font-size="14.00">    </text>
<text text-anchor="start" x="855.28" y="-272.2" font-family="Arial" font-size="14.00" fill="#666666">[BASE TABLE]</text>
<polygon fill="none" stroke="black" points="707.71,-228 707.71,-258.8 955.66,-258.8 955.66,-228 707.71,-228"/>
<text text-anchor="start" x="714.71" y="-240.2" font-family="Arial" font-size="14.00">model_key </text>
<text text-anchor="start" x="786.3" y="-240.2" font-family="Arial" font-size="14.00" fill="#666666">[text]</text>
<polygon fill="none" stroke="black" points="707.71,-197.2 707.71,-228 955.66,-228 955.66,-197.2 707.71,-197.2"/>
<text text-anchor="start" x="714.71" y="-209.4" font-family="Arial" font-size="14.00">scenario_key </text>
<text text-anchor="start" x="801.09" y="-209.4" font-family="Arial" font-size="14.00" fill="#666666">[text]</text>
<polygon fill="none" stroke="black" points="707.71,-166.4 707.71,-197.2 955.66,-197.2 955.66,-166.4 707.71,-166.4"/>
<text text-anchor="start" x="714.71" y="-178.6" font-family="Arial" font-size="14.00">name </text>
<text text-anchor="start" x="753.62" y="-178.6" font-family="Arial" font-size="14.00" fill="#666666">[text]</text>
<polygon fill="none" stroke="black" points="707.71,-135.6 707.71,-166.4 955.66,-166.4 955.66,-135.6 707.71,-135.6"/>
<text text-anchor="start" x="714.71" y="-147.8" font-family="Arial" font-size="14.00">use_case_key </text>
<text text-anchor="start" x="808.1" y="-147.8" font-family="Arial" font-size="14.00" fill="#666666">[text]</text>
<polygon fill="none" stroke="black" points="707.71,-104.8 707.71,-135.6 955.66,-135.6 955.66,-104.8 707.71,-104.8"/>
<text text-anchor="start" x="714.71" y="-117" font-family="Arial" font-size="14.00">details </text>
<text text-anchor="start" x="759.07" y="-117" font-family="Arial" font-size="14.00" fill="#666666">[text]</text>
</g>
<!-- public.scenario_step&#45;&gt;public.scenario -->
<g id="edge3" class="edge">
<title>public.scenario_step:model_key&#45;&gt;public.scenario:model_key</title>
<path fill="none" stroke="black" d="M980.62,-888.45C1000.35,-810.87 982.12,-243.4 956.66,-243.4"/>
<polygon fill="black" stroke="black" points="980.76,-888.21 971.91,-894.69 978.12,-892.85 975.98,-896.62 975.98,-896.62 975.98,-896.62 978.12,-892.85 979.73,-899.13 980.76,-888.21"/>
<text text-anchor="start" x="982.65" y="-907.2" font-family="Arial" font-size="10.00">FOREIGN KEY (model_key, scenario_key) REFERENCES scenario(model_key, scenario_key) ON DELETE CASCADE</text>
</g>
<!-- public.scenario_step&#45;&gt;public.scenario -->
<g id="edge4" class="edge">
<title>public.scenario_step:model_key&#45;&gt;public.scenario:model_key</title>
<path fill="none" stroke="black" d="M983.38,-889.91C1018.45,-818.47 999.25,-245.79 956.92,-243.41"/>
<polygon fill="black" stroke="black" points="983.32,-889.98 973.02,-893.74 979.5,-893.7 976.4,-896.73 976.4,-896.73 976.4,-896.73 979.5,-893.7 979.3,-900.18 983.32,-889.98"/>
<text text-anchor="start" x="982.92" y="-881.19" font-family="Arial" font-size="10.00">FOREIGN KEY (model_key, scenario_ref_key) REFERENCES scenario(model_key, scenario_key) ON DELETE CASCADE</text>
</g>
<!-- public.scenario_object -->
<g id="node5" class="node">
<title>public.scenario_object</title>
<polygon fill="#efefef" stroke="none" points="1060.22,-320.4 1060.22,-356 1361.15,-356 1361.15,-320.4 1060.22,-320.4"/>
<polygon fill="none" stroke="black" points="1060.22,-320.4 1060.22,-356 1361.15,-356 1361.15,-320.4 1060.22,-320.4"/>
<text text-anchor="start" x="1067.22" y="-333.8" font-family="Arial Bold" font-size="18.00">public.scenario_object</text>
<text text-anchor="start" x="1229.66" y="-333.8" font-family="Arial" font-size="14.00">    </text>
<text text-anchor="start" x="1260.77" y="-333.8" font-family="Arial" font-size="14.00" fill="#666666">[BASE TABLE]</text>
<polygon fill="none" stroke="black" points="1060.22,-289.6 1060.22,-320.4 1361.15,-320.4 1361.15,-289.6 1060.22,-289.6"/>
<text text-anchor="start" x="1067.22" y="-301.8" font-family="Arial" font-size="14.00">model_key </text>
<text text-anchor="start" x="1138.81" y="-301.8" font-family="Arial" font-size="14.00" fill="#666666">[text]</text>
<polygon fill="none" stroke="black" points="1060.22,-258.8 1060.22,-289.6 1361.15,-289.6 1361.15,-258.8 1060.22,-258.8"/>
<text text-anchor="start" x="1067.22" y="-271" font-family="Arial" font-size="14.00">scenario_object_key </text>
<text text-anchor="start" x="1198.74" y="-271" font-family="Arial" font-size="14.00" fill="#666666">[text]</text>
<polygon fill="none" stroke="black" points="1060.22,-228 1060.22,-258.8 1361.15,-258.8 1361.15,-228 1060.22,-228"/>
<text text-anchor="start" x="1067.22" y="-240.2" font-family="Arial" font-size="14.00">scenario_key </text>
<text text-anchor="start" x="1153.6" y="-240.2" font-family="Arial" font-size="14.00" fill="#666666">[text]</text>
<polygon fill="none" stroke="black" points="1060.22,-197.2 1060.22,-228 1361.15,-228 1361.15,-197.2 1060.22,-197.2"/>
<text text-anchor="start" x="1067.22" y="-209.4" font-family="Arial" font-size="14.00">object_number </text>
<text text-anchor="start" x="1163.72" y="-209.4" font-family="Arial" font-size="14.00" fill="#666666">[integer]</text>
<polygon fill="none" stroke="black" points="1060.22,-166.4 1060.22,-197.2 1361.15,-197.2 1361.15,-166.4 1060.22,-166.4"/>
<text text-anchor="start" x="1067.22" y="-178.6" font-family="Arial" font-size="14.00">name </text>
<text text-anchor="start" x="1106.13" y="-178.6" font-family="Arial" font-size="14.00" fill="#666666">[text]</text>
<polygon fill="none" stroke="black" points="1060.22,-135.6 1060.22,-166.4 1361.15,-166.4 1361.15,-135.6 1060.22,-135.6"/>
<text text-anchor="start" x="1067.22" y="-147.8" font-family="Arial" font-size="14.00">name_style </text>
<text text-anchor="start" x="1142.7" y="-147.8" font-family="Arial" font-size="14.00" fill="#666666">[scenario_object_name_style]</text>
<polygon fill="none" stroke="black" points="1060.22,-104.8 1060.22,-135.6 1361.15,-135.6 1361.15,-104.8 1060.22,-104.8"/>
<text text-anchor="start" x="1067.22" y="-117" font-family="Arial" font-size="14.00">class_key </text>
<text text-anchor="start" x="1132.58" y="-117" font-family="Arial" font-size="14.00" fill="#666666">[text]</text>
<polygon fill="none" stroke="black" points="1060.22,-74 1060.22,-104.8 1361.15,-104.8 1361.15,-74 1060.22,-74"/>
<text text-anchor="start" x="1067.22" y="-86.2" font-family="Arial" font-size="14.00">multi </text>
<text text-anchor="start" x="1100.67" y="-86.2" font-family="Arial" font-size="14.00" fill="#666666">[boolean]</text>
<polygon fill="none" stroke="black" points="1060.22,-43.2 1060.22,-74 1361.15,-74 1361.15,-43.2 1060.22,-43.2"/>
<text text-anchor="start" x="1067.22" y="-55.4" font-family="Arial" font-size="14.00">uml_comment </text>
<text text-anchor="start" x="1159.02" y="-55.4" font-family="Arial" font-size="14.00" fill="#666666">[text]</text>
</g>
<!-- public.scenario_step&#45;&gt;public.scenario_object -->
<g id="edge5" class="edge">
<title>public.scenario_step:model_key&#45;&gt;public.scenario_object:model_key</title>
<path fill="none" stroke="black" d="M985.77,-895.7C1089.16,-863.01 921.47,-305 1059.22,-305"/>
<polygon fill="black" stroke="black" points="985.88,-895.69 975.33,-892.7 980.6,-896.47 976.32,-897.1 976.32,-897.1 976.32,-897.1 980.6,-896.47 976.64,-901.6 985.88,-895.69"/>
<text text-anchor="start" x="357.32" y="-907.2" font-family="Arial" font-size="10.00">FOREIGN KEY (model_key, from_object_key) REFERENCES scenario_object(model_key, scenario_object_key) ON DELETE CASCADE</text>
</g>
<!-- public.scenario_step&#45;&gt;public.scenario_object -->
<g id="edge6" class="edge">
<title>public.scenario_step:model_key&#45;&gt;public.scenario_object:model_key</title>
<path fill="none" stroke="black" d="M986.2,-895.99C1108.05,-866.47 938.91,-306.12 1058.86,-305"/>
<polygon fill="black" stroke="black" points="986.33,-895.97 975.87,-892.69 981.03,-896.61 976.73,-897.12 976.73,-897.12 976.73,-897.12 981.03,-896.61 976.93,-901.63 986.33,-895.97"/>
<text text-anchor="start" x="369.39" y="-881.2" font-family="Arial" font-size="10.00">FOREIGN KEY (model_key, to_object_key) REFERENCES scenario_object(model_key, scenario_object_key) ON DELETE CASCADE</text>
</g>
</g>
</svg>
