<?xml version="1.0" encoding="UTF-8" standalone="no"?>
<!DOCTYPE svg PUBLIC "-//W3C//DTD SVG 1.1//EN"
 "http://www.w3.org/Graphics/SVG/1.1/DTD/svg11.dtd">
<!-- Generated by graphviz version 12.1.2 (20240928.0832)
 -->
<!-- Title: public.association Pages: 1 -->
<svg width="1304pt" height="1314pt"
 viewBox="0.00 0.00 1304.42 1314.40" xmlns="http://www.w3.org/2000/svg" xmlns:xlink="http://www.w3.org/1999/xlink">
<g id="graph0" class="graph" transform="scale(1 1) rotate(0) translate(4 1310.4)">
<title>public.association</title>
<polygon fill="white" stroke="none" points="-4,4 -4,-1310.4 1300.42,-1310.4 1300.42,4 -4,4"/>
<!-- public.association -->
<g id="node1" class="node">
<title>public.association</title>
<polygon fill="#efefef" stroke="none" points="407.88,-943.4 407.88,-979 675.84,-979 675.84,-943.4 407.88,-943.4"/>
<polygon fill="none" stroke="black" points="407.88,-943.4 407.88,-979 675.84,-979 675.84,-943.4 407.88,-943.4"/>
<text text-anchor="start" x="414.88" y="-956.8" font-family="Arial Bold" font-size="18.00">public.association</text>
<text text-anchor="start" x="544.35" y="-956.8" font-family="Arial" font-size="14.00">    </text>
<text text-anchor="start" x="575.47" y="-956.8" font-family="Arial" font-size="14.00" fill="#666666">[BASE TABLE]</text>
<polygon fill="none" stroke="black" points="407.88,-912.6 407.88,-943.4 675.84,-943.4 675.84,-912.6 407.88,-912.6"/>
<text text-anchor="start" x="414.88" y="-924.8" font-family="Arial" font-size="14.00">model_key </text>
<text text-anchor="start" x="486.47" y="-924.8" font-family="Arial" font-size="14.00" fill="#666666">[text]</text>
<polygon fill="none" stroke="black" points="407.88,-881.8 407.88,-912.6 675.84,-912.6 675.84,-881.8 407.88,-881.8"/>
<text text-anchor="start" x="414.88" y="-894" font-family="Arial" font-size="14.00">association_key </text>
<text text-anchor="start" x="518.38" y="-894" font-family="Arial" font-size="14.00" fill="#666666">[text]</text>
<polygon fill="none" stroke="black" points="407.88,-851 407.88,-881.8 675.84,-881.8 675.84,-851 407.88,-851"/>
<text text-anchor="start" x="414.88" y="-863.2" font-family="Arial" font-size="14.00">from_class_key </text>
<text text-anchor="start" x="516.03" y="-863.2" font-family="Arial" font-size="14.00" fill="#666666">[text]</text>
<polygon fill="none" stroke="black" points="407.88,-820.2 407.88,-851 675.84,-851 675.84,-820.2 407.88,-820.2"/>
<text text-anchor="start" x="414.88" y="-832.4" font-family="Arial" font-size="14.00">from_multiplicity_lower </text>
<text text-anchor="start" x="560.36" y="-832.4" font-family="Arial" font-size="14.00" fill="#666666">[integer]</text>
<polygon fill="none" stroke="black" points="407.88,-789.4 407.88,-820.2 675.84,-820.2 675.84,-789.4 407.88,-789.4"/>
<text text-anchor="start" x="414.88" y="-801.6" font-family="Arial" font-size="14.00">from_multiplicity_higher </text>
<text text-anchor="start" x="565.83" y="-801.6" font-family="Arial" font-size="14.00" fill="#666666">[integer]</text>
<polygon fill="none" stroke="black" points="407.88,-758.6 407.88,-789.4 675.84,-789.4 675.84,-758.6 407.88,-758.6"/>
<text text-anchor="start" x="414.88" y="-770.8" font-family="Arial" font-size="14.00">to_class_key </text>
<text text-anchor="start" x="499.7" y="-770.8" font-family="Arial" font-size="14.00" fill="#666666">[text]</text>
<polygon fill="none" stroke="black" points="407.88,-727.8 407.88,-758.6 675.84,-758.6 675.84,-727.8 407.88,-727.8"/>
<text text-anchor="start" x="414.88" y="-740" font-family="Arial" font-size="14.00">to_multiplicity_lower </text>
<text text-anchor="start" x="544.04" y="-740" font-family="Arial" font-size="14.00" fill="#666666">[integer]</text>
<polygon fill="none" stroke="black" points="407.88,-697 407.88,-727.8 675.84,-727.8 675.84,-697 407.88,-697"/>
<text text-anchor="start" x="414.88" y="-709.2" font-family="Arial" font-size="14.00">to_multiplicity_higher </text>
<text text-anchor="start" x="549.5" y="-709.2" font-family="Arial" font-size="14.00" fill="#666666">[integer]</text>
<polygon fill="none" stroke="black" points="407.88,-666.2 407.88,-697 675.84,-697 675.84,-666.2 407.88,-666.2"/>
<text text-anchor="start" x="414.88" y="-678.4" font-family="Arial" font-size="14.00">uniqueness_lower </text>
<text text-anchor="start" x="531.62" y="-678.4" font-family="Arial" font-size="14.00" fill="#666666">[integer]</text>
<polygon fill="none" stroke="black" points="407.88,-635.4 407.88,-666.2 675.84,-666.2 675.84,-635.4 407.88,-635.4"/>
<text text-anchor="start" x="414.88" y="-647.6" font-family="Arial" font-size="14.00">uniqueness_higher </text>
<text text-anchor="start" x="537.09" y="-647.6" font-family="Arial" font-size="14.00" fill="#666666">[integer]</text>
<polygon fill="none" stroke="black" points="407.88,-604.6 407.88,-635.4 675.84,-635.4 675.84,-604.6 407.88,-604.6"/>
<text text-anchor="start" x="414.88" y="-616.8" font-family="Arial" font-size="14.00">name </text>
<text text-anchor="start" x="453.79" y="-616.8" font-family="Arial" font-size="14.00" fill="#666666">[text]</text>
<polygon fill="none" stroke="black" points="407.88,-573.8 407.88,-604.6 675.84,-604.6 675.84,-573.8 407.88,-573.8"/>
<text text-anchor="start" x="414.88" y="-586" font-family="Arial" font-size="14.00">association_class_key </text>
<text text-anchor="start" x="558.07" y="-586" font-family="Arial" font-size="14.00" fill="#666666">[text]</text>
<polygon fill="none" stroke="black" points="407.88,-543 407.88,-573.8 675.84,-573.8 675.84,-543 407.88,-543"/>
<text text-anchor="start" x="414.88" y="-555.2" font-family="Arial" font-size="14.00">details </text>
<text text-anchor="start" x="459.24" y="-555.2" font-family="Arial" font-size="14.00" fill="#666666">[text]</text>
<polygon fill="none" stroke="black" points="407.88,-512.2 407.88,-543 675.84,-543 675.84,-512.2 407.88,-512.2"/>
<text text-anchor="start" x="414.88" y="-524.4" font-family="Arial" font-size="14.00">uml_comment </text>
<text text-anchor="start" x="506.69" y="-524.4" font-family="Arial" font-size="14.00" fill="#666666">[text]</text>
<polygon fill="none" stroke="black" stroke-width="3" points="406.38,-510.7 406.38,-980.5 677.34,-980.5 677.34,-510.7 406.38,-510.7"/>
</g>
<!-- public.model -->
<g id="node2" class="node">
<title>public.model</title>
<polygon fill="#efefef" stroke="none" points="93.38,-258.8 93.38,-294.4 326.35,-294.4 326.35,-258.8 93.38,-258.8"/>
<polygon fill="none" stroke="black" points="93.38,-258.8 93.38,-294.4 326.35,-294.4 326.35,-258.8 93.38,-258.8"/>
<text text-anchor="start" x="100.38" y="-272.2" font-family="Arial Bold" font-size="18.00">public.model</text>
<text text-anchor="start" x="194.86" y="-272.2" font-family="Arial" font-size="14.00">    </text>
<text text-anchor="start" x="225.98" y="-272.2" font-family="Arial" font-size="14.00" fill="#666666">[BASE TABLE]</text>
<polygon fill="none" stroke="black" points="93.38,-228 93.38,-258.8 326.35,-258.8 326.35,-228 93.38,-228"/>
<text text-anchor="start" x="100.38" y="-240.2" font-family="Arial" font-size="14.00">model_key </text>
<text text-anchor="start" x="171.97" y="-240.2" font-family="Arial" font-size="14.00" fill="#666666">[text]</text>
<polygon fill="none" stroke="black" points="93.38,-197.2 93.38,-228 326.35,-228 326.35,-197.2 93.38,-197.2"/>
<text text-anchor="start" x="100.38" y="-209.4" font-family="Arial" font-size="14.00">name </text>
<text text-anchor="start" x="139.29" y="-209.4" font-family="Arial" font-size="14.00" fill="#666666">[text]</text>
<polygon fill="none" stroke="black" points="93.38,-166.4 93.38,-197.2 326.35,-197.2 326.35,-166.4 93.38,-166.4"/>
<text text-anchor="start" x="100.38" y="-178.6" font-family="Arial" font-size="14.00">details </text>
<text text-anchor="start" x="144.73" y="-178.6" font-family="Arial" font-size="14.00" fill="#666666">[text]</text>
<polygon fill="none" stroke="black" points="93.38,-135.6 93.38,-166.4 326.35,-166.4 326.35,-135.6 93.38,-135.6"/>
<text text-anchor="start" x="100.38" y="-147.8" font-family="Arial" font-size="14.00">unfinished_notes </text>
<text text-anchor="start" x="210.13" y="-147.8" font-family="Arial" font-size="14.00" fill="#666666">[text]</text>
</g>
<!-- public.association&#45;&gt;public.model -->
<g id="edge1" class="edge">
<title>public.association:model_key&#45;&gt;public.model:model_key</title>
<path fill="none" stroke="black" d="M397.44,-923.98C336.61,-867.87 400.49,-243.4 327.35,-243.4"/>
<polygon fill="black" stroke="black" points="397.37,-923.95 404.81,-932.01 402.28,-926.04 406.27,-927.74 406.27,-927.74 406.27,-927.74 402.28,-926.04 408.34,-923.73 397.37,-923.95"/>
<text text-anchor="start" x="7" y="-938" font-family="Arial" font-size="10.00">FOREIGN KEY (model_key) REFERENCES model(model_key) ON DELETE CASCADE</text>
</g>
<!-- public.class -->
<g id="node3" class="node">
<title>public.class</title>
<polygon fill="#efefef" stroke="none" points="430.38,-351.2 430.38,-386.8 653.35,-386.8 653.35,-351.2 430.38,-351.2"/>
<polygon fill="none" stroke="black" points="430.38,-351.2 430.38,-386.8 653.35,-386.8 653.35,-351.2 430.38,-351.2"/>
<text text-anchor="start" x="437.38" y="-364.6" font-family="Arial Bold" font-size="18.00">public.class</text>
<text text-anchor="start" x="521.86" y="-364.6" font-family="Arial" font-size="14.00">    </text>
<text text-anchor="start" x="552.97" y="-364.6" font-family="Arial" font-size="14.00" fill="#666666">[BASE TABLE]</text>
<polygon fill="none" stroke="black" points="430.38,-320.4 430.38,-351.2 653.35,-351.2 653.35,-320.4 430.38,-320.4"/>
<text text-anchor="start" x="437.38" y="-332.6" font-family="Arial" font-size="14.00">model_key </text>
<text text-anchor="start" x="508.97" y="-332.6" font-family="Arial" font-size="14.00" fill="#666666">[text]</text>
<polygon fill="none" stroke="black" points="430.38,-289.6 430.38,-320.4 653.35,-320.4 653.35,-289.6 430.38,-289.6"/>
<text text-anchor="start" x="437.38" y="-301.8" font-family="Arial" font-size="14.00">class_key </text>
<text text-anchor="start" x="502.73" y="-301.8" font-family="Arial" font-size="14.00" fill="#666666">[text]</text>
<polygon fill="none" stroke="black" points="430.38,-258.8 430.38,-289.6 653.35,-289.6 653.35,-258.8 430.38,-258.8"/>
<text text-anchor="start" x="437.38" y="-271" font-family="Arial" font-size="14.00">name </text>
<text text-anchor="start" x="476.29" y="-271" font-family="Arial" font-size="14.00" fill="#666666">[text]</text>
<polygon fill="none" stroke="black" points="430.38,-228 430.38,-258.8 653.35,-258.8 653.35,-228 430.38,-228"/>
<text text-anchor="start" x="437.38" y="-240.2" font-family="Arial" font-size="14.00">subdomain_key </text>
<text text-anchor="start" x="539.33" y="-240.2" font-family="Arial" font-size="14.00" fill="#666666">[text]</text>
<polygon fill="none" stroke="black" points="430.38,-197.2 430.38,-228 653.35,-228 653.35,-197.2 430.38,-197.2"/>
<text text-anchor="start" x="437.38" y="-209.4" font-family="Arial" font-size="14.00">actor_key </text>
<text text-anchor="start" x="501.96" y="-209.4" font-family="Arial" font-size="14.00" fill="#666666">[text]</text>
<polygon fill="none" stroke="black" points="430.38,-166.4 430.38,-197.2 653.35,-197.2 653.35,-166.4 430.38,-166.4"/>
<text text-anchor="start" x="437.38" y="-178.6" font-family="Arial" font-size="14.00">superclass_of_key </text>
<text text-anchor="start" x="557.22" y="-178.6" font-family="Arial" font-size="14.00" fill="#666666">[text]</text>
<polygon fill="none" stroke="black" points="430.38,-135.6 430.38,-166.4 653.35,-166.4 653.35,-135.6 430.38,-135.6"/>
<text text-anchor="start" x="437.38" y="-147.8" font-family="Arial" font-size="14.00">subclass_of_key </text>
<text text-anchor="start" x="544.77" y="-147.8" font-family="Arial" font-size="14.00" fill="#666666">[text]</text>
<polygon fill="none" stroke="black" points="430.38,-104.8 430.38,-135.6 653.35,-135.6 653.35,-104.8 430.38,-104.8"/>
<text text-anchor="start" x="437.38" y="-117" font-family="Arial" font-size="14.00">details </text>
<text text-anchor="start" x="481.73" y="-117" font-family="Arial" font-size="14.00" fill="#666666">[text]</text>
<polygon fill="none" stroke="black" points="430.38,-74 430.38,-104.8 653.35,-104.8 653.35,-74 430.38,-74"/>
<text text-anchor="start" x="437.38" y="-86.2" font-family="Arial" font-size="14.00">unfinished_notes </text>
<text text-anchor="start" x="547.13" y="-86.2" font-family="Arial" font-size="14.00" fill="#666666">[text]</text>
<polygon fill="none" stroke="black" points="430.38,-43.2 430.38,-74 653.35,-74 653.35,-43.2 430.38,-43.2"/>
<text text-anchor="start" x="437.38" y="-55.4" font-family="Arial" font-size="14.00">uml_comment </text>
<text text-anchor="start" x="529.18" y="-55.4" font-family="Arial" font-size="14.00" fill="#666666">[text]</text>
</g>
<!-- public.association&#45;&gt;public.class -->
<g id="edge2" class="edge">
<title>public.association:model_key&#45;&gt;public.class:model_key</title>
<path fill="none" stroke="black" d="M687.1,-926.3C789.04,-891.57 764.49,-335.8 654.35,-335.8"/>
<polygon fill="black" stroke="black" points="687.04,-926.31 676.44,-923.51 681.77,-927.18 677.5,-927.89 677.5,-927.89 677.5,-927.89 681.77,-927.18 677.91,-932.38 687.04,-926.31"/>
<text text-anchor="start" x="683.84" y="-938" font-family="Arial" font-size="10.00">FOREIGN KEY (model_key, association_class_key) REFERENCES class(model_key, class_key) ON DELETE CASCADE</text>
</g>
<!-- public.association&#45;&gt;public.class -->
<g id="edge3" class="edge">
<title>public.association:model_key&#45;&gt;public.class:model_key</title>
<path fill="none" stroke="black" d="M687.28,-926.7C807.11,-896.15 782.5,-336.92 654.73,-335.8"/>
<polygon fill="black" stroke="black" points="687.48,-926.68 676.98,-923.49 682.19,-927.36 677.89,-927.91 677.89,-927.91 677.89,-927.91 682.19,-927.36 678.13,-932.42 687.48,-926.68"/>
<text text-anchor="start" x="684.23" y="-912" font-family="Arial" font-size="10.00">FOREIGN KEY (model_key, from_class_key) REFERENCES class(model_key, class_key) ON DELETE CASCADE</text>
</g>
<!-- public.association&#45;&gt;public.class -->
<g id="edge4" class="edge">
<title>public.association:model_key&#45;&gt;public.class:model_key</title>
<path fill="none" stroke="black" d="M687.48,-926.96C825.23,-899.52 800.44,-336.93 654.78,-335.8"/>
<polygon fill="black" stroke="black" points="687.56,-926.95 677.16,-923.49 682.25,-927.49 677.95,-927.93 677.95,-927.93 677.95,-927.93 682.25,-927.49 678.07,-932.44 687.56,-926.95"/>
<text text-anchor="start" x="169.02" y="-912" font-family="Arial" font-size="10.00">FOREIGN KEY (model_key, to_class_key) REFERENCES class(model_key, class_key) ON DELETE CASCADE</text>
</g>
<!-- public.association_invariant -->
<g id="node4" class="node">
<title>public.association_invariant</title>
<polygon fill="#efefef" stroke="none" points="371.39,-1227.6 371.39,-1263.2 712.33,-1263.2 712.33,-1227.6 371.39,-1227.6"/>
<polygon fill="none" stroke="black" points="371.39,-1227.6 371.39,-1263.2 712.33,-1263.2 712.33,-1227.6 371.39,-1227.6"/>
<text text-anchor="start" x="378.39" y="-1241" font-family="Arial Bold" font-size="18.00">public.association_invariant</text>
<text text-anchor="start" x="580.84" y="-1241" font-family="Arial" font-size="14.00">    </text>
<text text-anchor="start" x="611.96" y="-1241" font-family="Arial" font-size="14.00" fill="#666666">[BASE TABLE]</text>
<polygon fill="none" stroke="black" points="371.39,-1196.8 371.39,-1227.6 712.33,-1227.6 712.33,-1196.8 371.39,-1196.8"/>
<text text-anchor="start" x="378.39" y="-1209" font-family="Arial" font-size="14.00">model_key </text>
<text text-anchor="start" x="449.99" y="-1209" font-family="Arial" font-size="14.00" fill="#666666">[text]</text>
<polygon fill="none" stroke="black" points="371.39,-1166 371.39,-1196.8 712.33,-1196.8 712.33,-1166 371.39,-1166"/>
<text text-anchor="start" x="378.39" y="-1178.2" font-family="Arial" font-size="14.00">association_key </text>
<text text-anchor="start" x="481.9" y="-1178.2" font-family="Arial" font-size="14.00" fill="#666666">[text]</text>
<polygon fill="none" stroke="black" points="371.39,-1135.2 371.39,-1166 712.33,-1166 712.33,-1135.2 371.39,-1135.2"/>
<text text-anchor="start" x="378.39" y="-1147.4" font-family="Arial" font-size="14.00">logic_key </text>
<text text-anchor="start" x="440.65" y="-1147.4" font-family="Arial" font-size="14.00" fill="#666666">[text]</text>
<polygon fill="none" stroke="black" points="371.39,-1104.4 371.39,-1135.2 712.33,-1135.2 712.33,-1104.4 371.39,-1104.4"/>
<text text-anchor="start" x="378.39" y="-1116.6" font-family="Arial" font-size="14.00">to_class_anchor </text>
<text text-anchor="start" x="484.23" y="-1116.6" font-family="Arial" font-size="14.00" fill="#666666">[boolean]</text>
</g>
<!-- public.association_invariant&#45;&gt;public.association -->
<g id="edge5" class="edge">
<title>public.association_invariant:model_key&#45;&gt;public.association:model_key</title>
<path fill="none" stroke="black" d="M723.41,-1211.57C838.61,-1196.87 800.71,-928 676.84,-928"/>
<polygon fill="black" stroke="black" points="723.64,-1211.56 713.38,-1207.69 718.32,-1211.89 714,-1212.16 714,-1212.16 714,-1212.16 718.32,-1211.89 713.94,-1216.67 723.64,-1211.56"/>
<text text-anchor="start" x="720.33" y="-1222.2" font-family="Arial" font-size="10.00">FOREIGN KEY (model_key, association_key) REFERENCES association(model_key, association_key) ON DELETE CASCADE</text>
</g>
</g>
</svg>
