<?xml version="1.0" encoding="UTF-8" standalone="no"?>
<!DOCTYPE svg PUBLIC "-//W3C//DTD SVG 1.1//EN"
 "http://www.w3.org/Graphics/SVG/1.1/DTD/svg11.dtd">
<!-- Generated by graphviz version 12.1.2 (20240928.0832)
 -->
<!-- Title: public.global_function Pages: 1 -->
<svg width="852pt" height="633pt"
 viewBox="0.00 0.00 851.86 632.80" xmlns="http://www.w3.org/2000/svg" xmlns:xlink="http://www.w3.org/1999/xlink">
<g id="graph0" class="graph" transform="scale(1 1) rotate(0) translate(4 628.8)">
<title>public.global_function</title>
<polygon fill="white" stroke="none" points="-4,4 -4,-628.8 847.86,-628.8 847.86,4 -4,4"/>
<!-- public.global_function -->
<g id="node1" class="node">
<title>public.global_function</title>
<polygon fill="#efefef" stroke="none" points="46.2,-543 46.2,-578.6 348.16,-578.6 348.16,-543 46.2,-543"/>
<polygon fill="none" stroke="black" points="46.2,-543 46.2,-578.6 348.16,-578.6 348.16,-543 46.2,-543"/>
<text text-anchor="start" x="53.2" y="-556.4" font-family="Arial Bold" font-size="18.00">public.global_function</text>
<text text-anchor="start" x="216.67" y="-556.4" font-family="Arial" font-size="14.00">    </text>
<text text-anchor="start" x="247.78" y="-556.4" font-family="Arial" font-size="14.00" fill="#666666">[BASE TABLE]</text>
<polygon fill="none" stroke="black" points="46.2,-512.2 46.2,-543 348.16,-543 348.16,-512.2 46.2,-512.2"/>
<text text-anchor="start" x="53.2" y="-524.4" font-family="Arial" font-size="14.00">model_key </text>
<text text-anchor="start" x="124.79" y="-524.4" font-family="Arial" font-size="14.00" fill="#666666">[text]</text>
<polygon fill="none" stroke="black" points="46.2,-481.4 46.2,-512.2 348.16,-512.2 348.16,-481.4 46.2,-481.4"/>
<text text-anchor="start" x="53.2" y="-493.6" font-family="Arial" font-size="14.00">logic_key </text>
<text text-anchor="start" x="115.45" y="-493.6" font-family="Arial" font-size="14.00" fill="#666666">[text]</text>
<polygon fill="none" stroke="black" points="46.2,-450.6 46.2,-481.4 348.16,-481.4 348.16,-450.6 46.2,-450.6"/>
<text text-anchor="start" x="53.2" y="-462.8" font-family="Arial" font-size="14.00">name </text>
<text text-anchor="start" x="92.11" y="-462.8" font-family="Arial" font-size="14.00" fill="#666666">[text]</text>
<polygon fill="none" stroke="black" points="46.2,-419.8 46.2,-450.6 348.16,-450.6 348.16,-419.8 46.2,-419.8"/>
<text text-anchor="start" x="53.2" y="-432" font-family="Arial" font-size="14.00">parameters </text>
<text text-anchor="start" x="127.9" y="-432" font-family="Arial" font-size="14.00" fill="#666666">[text[]]</text>
<polygon fill="none" stroke="black" stroke-width="3" points="44.7,-418.3 44.7,-580.1 349.66,-580.1 349.66,-418.3 44.7,-418.3"/>
</g>
<!-- public.logic -->
<g id="node2" class="node">
<title>public.logic</title>
<polygon fill="#efefef" stroke="none" points="85.19,-258.8 85.19,-294.4 309.16,-294.4 309.16,-258.8 85.19,-258.8"/>
<polygon fill="none" stroke="black" points="85.19,-258.8 85.19,-294.4 309.16,-294.4 309.16,-258.8 85.19,-258.8"/>
<text text-anchor="start" x="92.19" y="-272.2" font-family="Arial Bold" font-size="18.00">public.logic</text>
<text text-anchor="start" x="177.68" y="-272.2" font-family="Arial" font-size="14.00">    </text>
<text text-anchor="start" x="208.79" y="-272.2" font-family="Arial" font-size="14.00" fill="#666666">[BASE TABLE]</text>
<polygon fill="none" stroke="black" points="85.19,-228 85.19,-258.8 309.16,-258.8 309.16,-228 85.19,-228"/>
<text text-anchor="start" x="92.19" y="-240.2" font-family="Arial" font-size="14.00">logic_key </text>
<text text-anchor="start" x="154.45" y="-240.2" font-family="Arial" font-size="14.00" fill="#666666">[text]</text>
<polygon fill="none" stroke="black" points="85.19,-197.2 85.19,-228 309.16,-228 309.16,-197.2 85.19,-197.2"/>
<text text-anchor="start" x="92.19" y="-209.4" font-family="Arial" font-size="14.00">model_key </text>
<text text-anchor="start" x="163.79" y="-209.4" font-family="Arial" font-size="14.00" fill="#666666">[text]</text>
<polygon fill="none" stroke="black" points="85.19,-166.4 85.19,-197.2 309.16,-197.2 309.16,-166.4 85.19,-166.4"/>
<text text-anchor="start" x="92.19" y="-178.6" font-family="Arial" font-size="14.00">sort_order </text>
<text text-anchor="start" x="159.89" y="-178.6" font-family="Arial" font-size="14.00" fill="#666666">[integer]</text>
<polygon fill="none" stroke="black" points="85.19,-135.6 85.19,-166.4 309.16,-166.4 309.16,-135.6 85.19,-135.6"/>
<text text-anchor="start" x="92.19" y="-147.8" font-family="Arial" font-size="14.00">logic_type </text>
<text text-anchor="start" x="159.12" y="-147.8" font-family="Arial" font-size="14.00" fill="#666666">[logic_type]</text>
<polygon fill="none" stroke="black" points="85.19,-104.8 85.19,-135.6 309.16,-135.6 309.16,-104.8 85.19,-104.8"/>
<text text-anchor="start" x="92.19" y="-117" font-family="Arial" font-size="14.00">description </text>
<text text-anchor="start" x="163.79" y="-117" font-family="Arial" font-size="14.00" fill="#666666">[text]</text>
<polygon fill="none" stroke="black" points="85.19,-74 85.19,-104.8 309.16,-104.8 309.16,-74 85.19,-74"/>
<text text-anchor="start" x="92.19" y="-86.2" font-family="Arial" font-size="14.00">notation </text>
<text text-anchor="start" x="145.9" y="-86.2" font-family="Arial" font-size="14.00" fill="#666666">[notation]</text>
<polygon fill="none" stroke="black" points="85.19,-43.2 85.19,-74 309.16,-74 309.16,-43.2 85.19,-43.2"/>
<text text-anchor="start" x="92.19" y="-55.4" font-family="Arial" font-size="14.00">specification </text>
<text text-anchor="start" x="173.12" y="-55.4" font-family="Arial" font-size="14.00" fill="#666666">[text]</text>
</g>
<!-- public.global_function&#45;&gt;public.logic -->
<g id="edge1" class="edge">
<title>public.global_function:model_key&#45;&gt;public.logic:model_key</title>
<path fill="none" stroke="black" d="M359.07,-525.25C415.65,-496.42 377.12,-212.6 310.16,-212.6"/>
<polygon fill="black" stroke="black" points="359.21,-525.21 348.44,-523.14 354.02,-526.44 349.81,-527.45 349.81,-527.45 349.81,-527.45 354.02,-526.44 350.52,-531.9 359.21,-525.21"/>
<text text-anchor="start" x="356.16" y="-537.6" font-family="Arial" font-size="10.00">FOREIGN KEY (model_key, logic_key) REFERENCES logic(model_key, logic_key) ON DELETE CASCADE</text>
</g>
</g>
</svg>
