<?xml version="1.0" encoding="UTF-8" standalone="no"?>
<!DOCTYPE svg PUBLIC "-//W3C//DTD SVG 1.1//EN"
 "http://www.w3.org/Graphics/SVG/1.1/DTD/svg11.dtd">
<!-- Generated by graphviz version 12.1.2 (20240928.0832)
 -->
<!-- Title: public.data_type_field Pages: 1 -->
<svg width="944pt" height="664pt"
 viewBox="0.00 0.00 944.25 663.60" xmlns="http://www.w3.org/2000/svg" xmlns:xlink="http://www.w3.org/1999/xlink">
<g id="graph0" class="graph" transform="scale(1 1) rotate(0) translate(4 659.6)">
<title>public.data_type_field</title>
<polygon fill="white" stroke="none" points="-4,4 -4,-659.6 940.25,-659.6 940.25,4 -4,4"/>
<!-- public.data_type_field -->
<g id="node1" class="node">
<title>public.data_type_field</title>
<polygon fill="#efefef" stroke="none" points="46.2,-573.8 46.2,-609.4 346.14,-609.4 346.14,-573.8 46.2,-573.8"/>
<polygon fill="none" stroke="black" points="46.2,-573.8 46.2,-609.4 346.14,-609.4 346.14,-573.8 46.2,-573.8"/>
<text text-anchor="start" x="53.2" y="-587.2" font-family="Arial Bold" font-size="18.00">public.data_type_field</text>
<text text-anchor="start" x="214.65" y="-587.2" font-family="Arial" font-size="14.00">    </text>
<text text-anchor="start" x="245.76" y="-587.2" font-family="Arial" font-size="14.00" fill="#666666">[BASE TABLE]</text>
<polygon fill="none" stroke="black" points="46.2,-543 46.2,-573.8 346.14,-573.8 346.14,-543 46.2,-543"/>
<text text-anchor="start" x="53.2" y="-555.2" font-family="Arial" font-size="14.00">model_key </text>
<text text-anchor="start" x="124.79" y="-555.2" font-family="Arial" font-size="14.00" fill="#666666">[text]</text>
<polygon fill="none" stroke="black" points="46.2,-512.2 46.2,-543 346.14,-543 346.14,-512.2 46.2,-512.2"/>
<text text-anchor="start" x="53.2" y="-524.4" font-family="Arial" font-size="14.00">data_type_key </text>
<text text-anchor="start" x="148.16" y="-524.4" font-family="Arial" font-size="14.00" fill="#666666">[text]</text>
<polygon fill="none" stroke="black" points="46.2,-481.4 46.2,-512.2 346.14,-512.2 346.14,-481.4 46.2,-481.4"/>
<text text-anchor="start" x="53.2" y="-493.6" font-family="Arial" font-size="14.00">name </text>
<text text-anchor="start" x="92.11" y="-493.6" font-family="Arial" font-size="14.00" fill="#666666">[text]</text>
<polygon fill="none" stroke="black" points="46.2,-450.6 46.2,-481.4 346.14,-481.4 346.14,-450.6 46.2,-450.6"/>
<text text-anchor="start" x="53.2" y="-462.8" font-family="Arial" font-size="14.00">field_data_type_key </text>
<text text-anchor="start" x="181.63" y="-462.8" font-family="Arial" font-size="14.00" fill="#666666">[text]</text>
<polygon fill="none" stroke="black" stroke-width="3" points="44.7,-449.1 44.7,-610.9 347.64,-610.9 347.64,-449.1 44.7,-449.1"/>
</g>
<!-- public.data_type -->
<g id="node2" class="node">
<title>public.data_type</title>
<polygon fill="#efefef" stroke="none" points="67.19,-289.6 67.19,-325.2 325.14,-325.2 325.14,-289.6 67.19,-289.6"/>
<polygon fill="none" stroke="black" points="67.19,-289.6 67.19,-325.2 325.14,-325.2 325.14,-289.6 67.19,-289.6"/>
<text text-anchor="start" x="74.19" y="-303" font-family="Arial Bold" font-size="18.00">public.data_type</text>
<text text-anchor="start" x="193.65" y="-303" font-family="Arial" font-size="14.00">    </text>
<text text-anchor="start" x="224.77" y="-303" font-family="Arial" font-size="14.00" fill="#666666">[BASE TABLE]</text>
<polygon fill="none" stroke="black" points="67.19,-258.8 67.19,-289.6 325.14,-289.6 325.14,-258.8 67.19,-258.8"/>
<text text-anchor="start" x="74.19" y="-271" font-family="Arial" font-size="14.00">model_key </text>
<text text-anchor="start" x="145.79" y="-271" font-family="Arial" font-size="14.00" fill="#666666">[text]</text>
<polygon fill="none" stroke="black" points="67.19,-228 67.19,-258.8 325.14,-258.8 325.14,-228 67.19,-228"/>
<text text-anchor="start" x="74.19" y="-240.2" font-family="Arial" font-size="14.00">data_type_key </text>
<text text-anchor="start" x="169.15" y="-240.2" font-family="Arial" font-size="14.00" fill="#666666">[text]</text>
<polygon fill="none" stroke="black" points="67.19,-197.2 67.19,-228 325.14,-228 325.14,-197.2 67.19,-197.2"/>
<text text-anchor="start" x="74.19" y="-209.4" font-family="Arial" font-size="14.00">name </text>
<text text-anchor="start" x="113.1" y="-209.4" font-family="Arial" font-size="14.00" fill="#666666">[text]</text>
<polygon fill="none" stroke="black" points="67.19,-166.4 67.19,-197.2 325.14,-197.2 325.14,-166.4 67.19,-166.4"/>
<text text-anchor="start" x="74.19" y="-178.6" font-family="Arial" font-size="14.00">details </text>
<text text-anchor="start" x="118.55" y="-178.6" font-family="Arial" font-size="14.00" fill="#666666">[text]</text>
<polygon fill="none" stroke="black" points="67.19,-135.6 67.19,-166.4 325.14,-166.4 325.14,-135.6 67.19,-135.6"/>
<text text-anchor="start" x="74.19" y="-147.8" font-family="Arial" font-size="14.00">collection_type </text>
<text text-anchor="start" x="170.7" y="-147.8" font-family="Arial" font-size="14.00" fill="#666666">[collection_type]</text>
<polygon fill="none" stroke="black" points="67.19,-104.8 67.19,-135.6 325.14,-135.6 325.14,-104.8 67.19,-104.8"/>
<text text-anchor="start" x="74.19" y="-117" font-family="Arial" font-size="14.00">collection_unique </text>
<text text-anchor="start" x="186.27" y="-117" font-family="Arial" font-size="14.00" fill="#666666">[boolean]</text>
<polygon fill="none" stroke="black" points="67.19,-74 67.19,-104.8 325.14,-104.8 325.14,-74 67.19,-74"/>
<text text-anchor="start" x="74.19" y="-86.2" font-family="Arial" font-size="14.00">collection_min </text>
<text text-anchor="start" x="166.79" y="-86.2" font-family="Arial" font-size="14.00" fill="#666666">[bigint]</text>
<polygon fill="none" stroke="black" points="67.19,-43.2 67.19,-74 325.14,-74 325.14,-43.2 67.19,-43.2"/>
<text text-anchor="start" x="74.19" y="-55.4" font-family="Arial" font-size="14.00">collection_max </text>
<text text-anchor="start" x="170.68" y="-55.4" font-family="Arial" font-size="14.00" fill="#666666">[bigint]</text>
</g>
<!-- public.data_type_field&#45;&gt;public.data_type -->
<g id="edge1" class="edge">
<title>public.data_type_field:model_key&#45;&gt;public.data_type:model_key</title>
<path fill="none" stroke="black" d="M356.71,-555.01C398.62,-522.95 376.97,-274.2 326.14,-274.2"/>
<polygon fill="black" stroke="black" points="356.88,-554.95 345.95,-554.05 351.85,-556.73 347.77,-558.18 347.77,-558.18 347.77,-558.18 351.85,-556.73 348.95,-562.53 356.88,-554.95"/>
<text text-anchor="start" x="354.14" y="-568.4" font-family="Arial" font-size="10.00">FOREIGN KEY (model_key, data_type_key) REFERENCES data_type(model_key, data_type_key) ON DELETE CASCADE</text>
</g>
<!-- public.data_type_field&#45;&gt;public.data_type -->
<g id="edge2" class="edge">
<title>public.data_type_field:model_key&#45;&gt;public.data_type:model_key</title>
<path fill="none" stroke="black" d="M357.4,-556.29C417.08,-530.42 394.9,-275.25 326.57,-274.2"/>
<polygon fill="black" stroke="black" points="357.66,-556.24 346.94,-553.93 352.45,-557.35 348.21,-558.26 348.21,-558.26 348.21,-558.26 352.45,-557.35 348.83,-562.73 357.66,-556.24"/>
<text text-anchor="start" x="354.56" y="-542.4" font-family="Arial" font-size="10.00">FOREIGN KEY (model_key, field_data_type_key) REFERENCES data_type(model_key, data_type_key) ON DELETE CASCADE</text>
</g>
</g>
</svg>
