<?xml version="1.0" encoding="UTF-8" standalone="no"?>
<!DOCTYPE svg PUBLIC "-//W3C//DTD SVG 1.1//EN"
 "http://www.w3.org/Graphics/SVG/1.1/DTD/svg11.dtd">
<!-- Generated by graphviz version 12.1.2 (20240928.0832)
 -->
<!-- Title: public.attribute_invariant Pages: 1 -->
<svg width="1367pt" height="756pt"
 viewBox="0.00 0.00 1367.04 756.00" xmlns="http://www.w3.org/2000/svg" xmlns:xlink="http://www.w3.org/1999/xlink">
<g id="graph0" class="graph" transform="scale(1 1) rotate(0) translate(4 752)">
<title>public.attribute_invariant</title>
<polygon fill="white" stroke="none" points="-4,4 -4,-752 1363.04,-752 1363.04,4 -4,4"/>
<!-- public.attribute_invariant -->
<g id="node1" class="node">
<title>public.attribute_invariant</title>
<polygon fill="#efefef" stroke="none" points="495.7,-666.2 495.7,-701.8 816.64,-701.8 816.64,-666.2 495.7,-666.2"/>
<polygon fill="none" stroke="black" points="495.7,-666.2 495.7,-701.8 816.64,-701.8 816.64,-666.2 495.7,-666.2"/>
<text text-anchor="start" x="502.7" y="-679.6" font-family="Arial Bold" font-size="18.00">public.attribute_invariant</text>
<text text-anchor="start" x="685.15" y="-679.6" font-family="Arial" font-size="14.00">    </text>
<text text-anchor="start" x="716.26" y="-679.6" font-family="Arial" font-size="14.00" fill="#666666">[BASE TABLE]</text>
<polygon fill="none" stroke="black" points="495.7,-635.4 495.7,-666.2 816.64,-666.2 816.64,-635.4 495.7,-635.4"/>
<text text-anchor="start" x="502.7" y="-647.6" font-family="Arial" font-size="14.00">model_key </text>
<text text-anchor="start" x="574.3" y="-647.6" font-family="Arial" font-size="14.00" fill="#666666">[text]</text>
<polygon fill="none" stroke="black" points="495.7,-604.6 495.7,-635.4 816.64,-635.4 816.64,-604.6 495.7,-604.6"/>
<text text-anchor="start" x="502.7" y="-616.8" font-family="Arial" font-size="14.00">attribute_key </text>
<text text-anchor="start" x="586.75" y="-616.8" font-family="Arial" font-size="14.00" fill="#666666">[text]</text>
<polygon fill="none" stroke="black" points="495.7,-573.8 495.7,-604.6 816.64,-604.6 816.64,-573.8 495.7,-573.8"/>
<text text-anchor="start" x="502.7" y="-586" font-family="Arial" font-size="14.00">logic_key </text>
<text text-anchor="start" x="564.96" y="-586" font-family="Arial" font-size="14.00" fill="#666666">[text]</text>
<polygon fill="none" stroke="black" stroke-width="3" points="494.2,-572.3 494.2,-703.3 818.14,-703.3 818.14,-572.3 494.2,-572.3"/>
</g>
<!-- public.logic -->
<g id="node2" class="node">
<title>public.logic</title>
<polygon fill="#efefef" stroke="none" points="359.38,-412.8 359.38,-448.4 602.96,-448.4 602.96,-412.8 359.38,-412.8"/>
<polygon fill="none" stroke="black" points="359.38,-412.8 359.38,-448.4 602.96,-448.4 602.96,-412.8 359.38,-412.8"/>
<text text-anchor="start" x="376.18" y="-426.2" font-family="Arial Bold" font-size="18.00">public.logic</text>
<text text-anchor="start" x="461.67" y="-426.2" font-family="Arial" font-size="14.00">    </text>
<text text-anchor="start" x="492.78" y="-426.2" font-family="Arial" font-size="14.00" fill="#666666">[BASE TABLE]</text>
<polygon fill="none" stroke="black" points="359.38,-382 359.38,-412.8 602.96,-412.8 602.96,-382 359.38,-382"/>
<text text-anchor="start" x="366.38" y="-394.2" font-family="Arial" font-size="14.00">logic_key </text>
<text text-anchor="start" x="428.63" y="-394.2" font-family="Arial" font-size="14.00" fill="#666666">[text]</text>
<polygon fill="none" stroke="black" points="359.38,-351.2 359.38,-382 602.96,-382 602.96,-351.2 359.38,-351.2"/>
<text text-anchor="start" x="366.38" y="-363.4" font-family="Arial" font-size="14.00">model_key </text>
<text text-anchor="start" x="437.97" y="-363.4" font-family="Arial" font-size="14.00" fill="#666666">[text]</text>
<polygon fill="none" stroke="black" points="359.38,-320.4 359.38,-351.2 602.96,-351.2 602.96,-320.4 359.38,-320.4"/>
<text text-anchor="start" x="366.38" y="-332.6" font-family="Arial" font-size="14.00">sort_order </text>
<text text-anchor="start" x="434.07" y="-332.6" font-family="Arial" font-size="14.00" fill="#666666">[integer]</text>
<polygon fill="none" stroke="black" points="359.38,-289.6 359.38,-320.4 602.96,-320.4 602.96,-289.6 359.38,-289.6"/>
<text text-anchor="start" x="366.38" y="-301.8" font-family="Arial" font-size="14.00">logic_type </text>
<text text-anchor="start" x="433.31" y="-301.8" font-family="Arial" font-size="14.00" fill="#666666">[logic_type]</text>
<polygon fill="none" stroke="black" points="359.38,-258.8 359.38,-289.6 602.96,-289.6 602.96,-258.8 359.38,-258.8"/>
<text text-anchor="start" x="366.38" y="-271" font-family="Arial" font-size="14.00">description </text>
<text text-anchor="start" x="437.97" y="-271" font-family="Arial" font-size="14.00" fill="#666666">[text]</text>
<polygon fill="none" stroke="black" points="359.38,-228 359.38,-258.8 602.96,-258.8 602.96,-228 359.38,-228"/>
<text text-anchor="start" x="366.38" y="-240.2" font-family="Arial" font-size="14.00">target </text>
<text text-anchor="start" x="406.07" y="-240.2" font-family="Arial" font-size="14.00" fill="#666666">[text]</text>
<polygon fill="none" stroke="black" points="359.38,-197.2 359.38,-228 602.96,-228 602.96,-197.2 359.38,-197.2"/>
<text text-anchor="start" x="366.38" y="-209.4" font-family="Arial" font-size="14.00">notation </text>
<text text-anchor="start" x="420.09" y="-209.4" font-family="Arial" font-size="14.00" fill="#666666">[notation]</text>
<polygon fill="none" stroke="black" points="359.38,-166.4 359.38,-197.2 602.96,-197.2 602.96,-166.4 359.38,-166.4"/>
<text text-anchor="start" x="366.38" y="-178.6" font-family="Arial" font-size="14.00">specification </text>
<text text-anchor="start" x="447.31" y="-178.6" font-family="Arial" font-size="14.00" fill="#666666">[text]</text>
<polygon fill="none" stroke="black" points="359.38,-135.6 359.38,-166.4 602.96,-166.4 602.96,-135.6 359.38,-135.6"/>
<text text-anchor="start" x="366.38" y="-147.8" font-family="Arial" font-size="14.00">target_type_notation </text>
<text text-anchor="start" x="497.92" y="-147.8" font-family="Arial" font-size="14.00" fill="#666666">[notation]</text>
<polygon fill="none" stroke="black" points="359.38,-104.8 359.38,-135.6 602.96,-135.6 602.96,-104.8 359.38,-104.8"/>
<text text-anchor="start" x="366.38" y="-117" font-family="Arial" font-size="14.00">target_type_specification </text>
<text text-anchor="start" x="525.14" y="-117" font-family="Arial" font-size="14.00" fill="#666666">[text]</text>
<polygon fill="none" stroke="black" points="359.38,-74 359.38,-104.8 602.96,-104.8 602.96,-74 359.38,-74"/>
<text text-anchor="start" x="366.38" y="-86.2" font-family="Arial" font-size="14.00">destroy_event_specification </text>
<text text-anchor="start" x="543.04" y="-86.2" font-family="Arial" font-size="14.00" fill="#666666">[text]</text>
<polygon fill="none" stroke="black" points="359.38,-43.2 359.38,-74 602.96,-74 602.96,-43.2 359.38,-43.2"/>
<text text-anchor="start" x="366.38" y="-55.4" font-family="Arial" font-size="14.00">endpoint_selector_specification </text>
<text text-anchor="start" x="565.62" y="-55.4" font-family="Arial" font-size="14.00" fill="#666666">[text]</text>
</g>
<!-- public.attribute_invariant&#45;&gt;public.logic -->
<g id="edge1" class="edge">
<title>public.attribute_invariant:model_key&#45;&gt;public.logic:model_key</title>
<path fill="none" stroke="black" d="M484.55,-649.73C443.21,-640.18 465.75,-568.89 495.7,-527.6 525.23,-486.9 573.44,-532.31 602.96,-491.6 635.58,-446.63 659.52,-366.6 603.96,-366.6"/>
<polygon fill="black" stroke="black" points="484.43,-649.72 493.9,-655.24 489.73,-650.28 494.04,-650.73 494.04,-650.73 494.04,-650.73 489.73,-650.28 494.84,-646.29 484.43,-649.72"/>
<text text-anchor="start" x="7" y="-660.8" font-family="Arial" font-size="10.00">FOREIGN KEY (model_key, logic_key) REFERENCES logic(model_key, logic_key) ON DELETE CASCADE</text>
</g>
<!-- public.attribute -->
<g id="node3" class="node">
<title>public.attribute</title>
<polygon fill="#efefef" stroke="none" points="707.19,-397.4 707.19,-433 955.15,-433 955.15,-397.4 707.19,-397.4"/>
<polygon fill="none" stroke="black" points="707.19,-397.4 707.19,-433 955.15,-433 955.15,-397.4 707.19,-397.4"/>
<text text-anchor="start" x="714.19" y="-410.8" font-family="Arial Bold" font-size="18.00">public.attribute</text>
<text text-anchor="start" x="823.66" y="-410.8" font-family="Arial" font-size="14.00">    </text>
<text text-anchor="start" x="854.78" y="-410.8" font-family="Arial" font-size="14.00" fill="#666666">[BASE TABLE]</text>
<polygon fill="none" stroke="black" points="707.19,-366.6 707.19,-397.4 955.15,-397.4 955.15,-366.6 707.19,-366.6"/>
<text text-anchor="start" x="714.19" y="-378.8" font-family="Arial" font-size="14.00">model_key </text>
<text text-anchor="start" x="785.78" y="-378.8" font-family="Arial" font-size="14.00" fill="#666666">[text]</text>
<polygon fill="none" stroke="black" points="707.19,-335.8 707.19,-366.6 955.15,-366.6 955.15,-335.8 707.19,-335.8"/>
<text text-anchor="start" x="714.19" y="-348" font-family="Arial" font-size="14.00">attribute_key </text>
<text text-anchor="start" x="798.24" y="-348" font-family="Arial" font-size="14.00" fill="#666666">[text]</text>
<polygon fill="none" stroke="black" points="707.19,-305 707.19,-335.8 955.15,-335.8 955.15,-305 707.19,-305"/>
<text text-anchor="start" x="714.19" y="-317.2" font-family="Arial" font-size="14.00">class_key </text>
<text text-anchor="start" x="779.55" y="-317.2" font-family="Arial" font-size="14.00" fill="#666666">[text]</text>
<polygon fill="none" stroke="black" points="707.19,-274.2 707.19,-305 955.15,-305 955.15,-274.2 707.19,-274.2"/>
<text text-anchor="start" x="714.19" y="-286.4" font-family="Arial" font-size="14.00">sort_order </text>
<text text-anchor="start" x="781.89" y="-286.4" font-family="Arial" font-size="14.00" fill="#666666">[integer]</text>
<polygon fill="none" stroke="black" points="707.19,-243.4 707.19,-274.2 955.15,-274.2 955.15,-243.4 707.19,-243.4"/>
<text text-anchor="start" x="714.19" y="-255.6" font-family="Arial" font-size="14.00">name </text>
<text text-anchor="start" x="753.1" y="-255.6" font-family="Arial" font-size="14.00" fill="#666666">[text]</text>
<polygon fill="none" stroke="black" points="707.19,-212.6 707.19,-243.4 955.15,-243.4 955.15,-212.6 707.19,-212.6"/>
<text text-anchor="start" x="714.19" y="-224.8" font-family="Arial" font-size="14.00">details </text>
<text text-anchor="start" x="758.55" y="-224.8" font-family="Arial" font-size="14.00" fill="#666666">[text]</text>
<polygon fill="none" stroke="black" points="707.19,-181.8 707.19,-212.6 955.15,-212.6 955.15,-181.8 707.19,-181.8"/>
<text text-anchor="start" x="714.19" y="-194" font-family="Arial" font-size="14.00">data_type_rules </text>
<text text-anchor="start" x="817.71" y="-194" font-family="Arial" font-size="14.00" fill="#666666">[text]</text>
<polygon fill="none" stroke="black" points="707.19,-151 707.19,-181.8 955.15,-181.8 955.15,-151 707.19,-151"/>
<text text-anchor="start" x="714.19" y="-163.2" font-family="Arial" font-size="14.00">data_type_key </text>
<text text-anchor="start" x="809.15" y="-163.2" font-family="Arial" font-size="14.00" fill="#666666">[text]</text>
<polygon fill="none" stroke="black" points="707.19,-120.2 707.19,-151 955.15,-151 955.15,-120.2 707.19,-120.2"/>
<text text-anchor="start" x="714.19" y="-132.4" font-family="Arial" font-size="14.00">derivation_policy_key </text>
<text text-anchor="start" x="851.94" y="-132.4" font-family="Arial" font-size="14.00" fill="#666666">[text]</text>
<polygon fill="none" stroke="black" points="707.19,-89.4 707.19,-120.2 955.15,-120.2 955.15,-89.4 707.19,-89.4"/>
<text text-anchor="start" x="714.19" y="-101.6" font-family="Arial" font-size="14.00">nullable </text>
<text text-anchor="start" x="766.34" y="-101.6" font-family="Arial" font-size="14.00" fill="#666666">[boolean]</text>
<polygon fill="none" stroke="black" points="707.19,-58.6 707.19,-89.4 955.15,-89.4 955.15,-58.6 707.19,-58.6"/>
<text text-anchor="start" x="714.19" y="-70.8" font-family="Arial" font-size="14.00">uml_comment </text>
<text text-anchor="start" x="806" y="-70.8" font-family="Arial" font-size="14.00" fill="#666666">[text]</text>
</g>
<!-- public.attribute_invariant&#45;&gt;public.attribute -->
<g id="edge2" class="edge">
<title>public.attribute_invariant:model_key&#45;&gt;public.attribute:model_key</title>
<path fill="none" stroke="black" d="M828.01,-649.69C868.69,-640.11 844.1,-570.46 816.64,-527.6 787.64,-482.35 736.24,-521.41 707.19,-476.2 684.56,-440.98 664.32,-382 706.19,-382"/>
<polygon fill="black" stroke="black" points="827.91,-649.7 817.49,-646.29 822.61,-650.27 818.3,-650.73 818.3,-650.73 818.3,-650.73 822.61,-650.27 818.45,-655.24 827.91,-649.7"/>
<text text-anchor="start" x="824.64" y="-660.8" font-family="Arial" font-size="10.00">FOREIGN KEY (model_key, attribute_key) REFERENCES attribute(model_key, attribute_key) ON DELETE CASCADE</text>
</g>
</g>
</svg>
