<?xml version="1.0" encoding="UTF-8" standalone="no"?>
<!DOCTYPE svg PUBLIC "-//W3C//DTD SVG 1.1//EN"
 "http://www.w3.org/Graphics/SVG/1.1/DTD/svg11.dtd">
<!-- Generated by graphviz version 12.1.2 (20240928.0832)
 -->
<!-- Title: public.event_parameter Pages: 1 -->
<svg width="869pt" height="602pt"
 viewBox="0.00 0.00 869.50 602.00" xmlns="http://www.w3.org/2000/svg" xmlns:xlink="http://www.w3.org/1999/xlink">
<g id="graph0" class="graph" transform="scale(1 1) rotate(0) translate(4 598)">
<title>public.event_parameter</title>
<polygon fill="white" stroke="none" points="-4,4 -4,-598 865.5,-598 865.5,4 -4,4"/>
<!-- public.event_parameter -->
<g id="node1" class="node">
<title>public.event_parameter</title>
<polygon fill="#efefef" stroke="none" points="46.2,-512.2 46.2,-547.8 354.11,-547.8 354.11,-512.2 46.2,-512.2"/>
<polygon fill="none" stroke="black" points="46.2,-512.2 46.2,-547.8 354.11,-547.8 354.11,-512.2 46.2,-512.2"/>
<text text-anchor="start" x="53.2" y="-525.6" font-family="Arial Bold" font-size="18.00">public.event_parameter</text>
<text text-anchor="start" x="222.62" y="-525.6" font-family="Arial" font-size="14.00">    </text>
<text text-anchor="start" x="253.74" y="-525.6" font-family="Arial" font-size="14.00" fill="#666666">[BASE TABLE]</text>
<polygon fill="none" stroke="black" points="46.2,-481.4 46.2,-512.2 354.11,-512.2 354.11,-481.4 46.2,-481.4"/>
<text text-anchor="start" x="53.2" y="-493.6" font-family="Arial" font-size="14.00">model_key </text>
<text text-anchor="start" x="124.79" y="-493.6" font-family="Arial" font-size="14.00" fill="#666666">[text]</text>
<polygon fill="none" stroke="black" points="46.2,-450.6 46.2,-481.4 354.11,-481.4 354.11,-450.6 46.2,-450.6"/>
<text text-anchor="start" x="53.2" y="-462.8" font-family="Arial" font-size="14.00">event_key </text>
<text text-anchor="start" x="120.91" y="-462.8" font-family="Arial" font-size="14.00" fill="#666666">[text]</text>
<polygon fill="none" stroke="black" points="46.2,-419.8 46.2,-450.6 354.11,-450.6 354.11,-419.8 46.2,-419.8"/>
<text text-anchor="start" x="53.2" y="-432" font-family="Arial" font-size="14.00">parameter_key </text>
<text text-anchor="start" x="150.47" y="-432" font-family="Arial" font-size="14.00" fill="#666666">[text]</text>
<polygon fill="none" stroke="black" points="46.2,-389 46.2,-419.8 354.11,-419.8 354.11,-389 46.2,-389"/>
<text text-anchor="start" x="53.2" y="-401.2" font-family="Arial" font-size="14.00">name </text>
<text text-anchor="start" x="92.11" y="-401.2" font-family="Arial" font-size="14.00" fill="#666666">[text]</text>
<polygon fill="none" stroke="black" points="46.2,-358.2 46.2,-389 354.11,-389 354.11,-358.2 46.2,-358.2"/>
<text text-anchor="start" x="53.2" y="-370.4" font-family="Arial" font-size="14.00">sort_order </text>
<text text-anchor="start" x="120.9" y="-370.4" font-family="Arial" font-size="14.00" fill="#666666">[integer]</text>
<polygon fill="none" stroke="black" stroke-width="3" points="44.7,-356.7 44.7,-549.3 355.61,-549.3 355.61,-356.7 44.7,-356.7"/>
</g>
<!-- public.event -->
<g id="node2" class="node">
<title>public.event</title>
<polygon fill="#efefef" stroke="none" points="86.67,-197.2 86.67,-232.8 313.63,-232.8 313.63,-197.2 86.67,-197.2"/>
<polygon fill="none" stroke="black" points="86.67,-197.2 86.67,-232.8 313.63,-232.8 313.63,-197.2 86.67,-197.2"/>
<text text-anchor="start" x="93.67" y="-210.6" font-family="Arial Bold" font-size="18.00">public.event</text>
<text text-anchor="start" x="182.14" y="-210.6" font-family="Arial" font-size="14.00">    </text>
<text text-anchor="start" x="213.26" y="-210.6" font-family="Arial" font-size="14.00" fill="#666666">[BASE TABLE]</text>
<polygon fill="none" stroke="black" points="86.67,-166.4 86.67,-197.2 313.63,-197.2 313.63,-166.4 86.67,-166.4"/>
<text text-anchor="start" x="93.67" y="-178.6" font-family="Arial" font-size="14.00">model_key </text>
<text text-anchor="start" x="165.27" y="-178.6" font-family="Arial" font-size="14.00" fill="#666666">[text]</text>
<polygon fill="none" stroke="black" points="86.67,-135.6 86.67,-166.4 313.63,-166.4 313.63,-135.6 86.67,-135.6"/>
<text text-anchor="start" x="93.67" y="-147.8" font-family="Arial" font-size="14.00">class_key </text>
<text text-anchor="start" x="159.03" y="-147.8" font-family="Arial" font-size="14.00" fill="#666666">[text]</text>
<polygon fill="none" stroke="black" points="86.67,-104.8 86.67,-135.6 313.63,-135.6 313.63,-104.8 86.67,-104.8"/>
<text text-anchor="start" x="93.67" y="-117" font-family="Arial" font-size="14.00">event_key </text>
<text text-anchor="start" x="161.38" y="-117" font-family="Arial" font-size="14.00" fill="#666666">[text]</text>
<polygon fill="none" stroke="black" points="86.67,-74 86.67,-104.8 313.63,-104.8 313.63,-74 86.67,-74"/>
<text text-anchor="start" x="93.67" y="-86.2" font-family="Arial" font-size="14.00">name </text>
<text text-anchor="start" x="132.58" y="-86.2" font-family="Arial" font-size="14.00" fill="#666666">[text]</text>
<polygon fill="none" stroke="black" points="86.67,-43.2 86.67,-74 313.63,-74 313.63,-43.2 86.67,-43.2"/>
<text text-anchor="start" x="93.67" y="-55.4" font-family="Arial" font-size="14.00">details </text>
<text text-anchor="start" x="138.03" y="-55.4" font-family="Arial" font-size="14.00" fill="#666666">[text]</text>
</g>
<!-- public.event_parameter&#45;&gt;public.event -->
<g id="edge1" class="edge">
<title>public.event_parameter:model_key&#45;&gt;public.event:model_key</title>
<path fill="none" stroke="black" d="M365.01,-494.45C421.49,-465.62 381.63,-181.8 314.63,-181.8"/>
<polygon fill="black" stroke="black" points="365.16,-494.41 354.39,-492.34 359.97,-495.64 355.76,-496.65 355.76,-496.65 355.76,-496.65 359.97,-495.64 356.47,-501.1 365.16,-494.41"/>
<text text-anchor="start" x="362.11" y="-506.8" font-family="Arial" font-size="10.00">FOREIGN KEY (model_key, event_key) REFERENCES event(model_key, event_key) ON DELETE CASCADE</text>
</g>
</g>
</svg>
