<?xml version="1.0" encoding="UTF-8" standalone="no"?>
<!DOCTYPE svg PUBLIC "-//W3C//DTD SVG 1.1//EN"
 "http://www.w3.org/Graphics/SVG/1.1/DTD/svg11.dtd">
<!-- Generated by graphviz version 12.1.2 (20240928.0832)
 -->
<!-- Title: public.attribute Pages: 1 -->
<svg width="1619pt" height="1284pt"
 viewBox="0.00 0.00 1618.86 1283.60" xmlns="http://www.w3.org/2000/svg" xmlns:xlink="http://www.w3.org/1999/xlink">
<g id="graph0" class="graph" transform="scale(1 1) rotate(0) translate(4 1279.6)">
<title>public.attribute</title>
<polygon fill="white" stroke="none" points="-4,4 -4,-1279.6 1614.86,-1279.6 1614.86,4 -4,4"/>
<!-- public.attribute -->
<g id="node1" class="node">
<title>public.attribute</title>
<polygon fill="#efefef" stroke="none" points="681.44,-881.8 681.44,-917.4 929.4,-917.4 929.4,-881.8 681.44,-881.8"/>
<polygon fill="none" stroke="black" points="681.44,-881.8 681.44,-917.4 929.4,-917.4 929.4,-881.8 681.44,-881.8"/>
<text text-anchor="start" x="688.44" y="-895.2" font-family="Arial Bold" font-size="18.00">public.attribute</text>
<text text-anchor="start" x="797.91" y="-895.2" font-family="Arial" font-size="14.00">    </text>
<text text-anchor="start" x="829.03" y="-895.2" font-family="Arial" font-size="14.00" fill="#666666">[BASE TABLE]</text>
<polygon fill="none" stroke="black" points="681.44,-851 681.44,-881.8 929.4,-881.8 929.4,-851 681.44,-851"/>
<text text-anchor="start" x="688.44" y="-863.2" font-family="Arial" font-size="14.00">model_key </text>
<text text-anchor="start" x="760.04" y="-863.2" font-family="Arial" font-size="14.00" fill="#666666">[text]</text>
<polygon fill="none" stroke="black" points="681.44,-820.2 681.44,-851 929.4,-851 929.4,-820.2 681.44,-820.2"/>
<text text-anchor="start" x="688.44" y="-832.4" font-family="Arial" font-size="14.00">attribute_key </text>
<text text-anchor="start" x="772.49" y="-832.4" font-family="Arial" font-size="14.00" fill="#666666">[text]</text>
<polygon fill="none" stroke="black" points="681.44,-789.4 681.44,-820.2 929.4,-820.2 929.4,-789.4 681.44,-789.4"/>
<text text-anchor="start" x="688.44" y="-801.6" font-family="Arial" font-size="14.00">class_key </text>
<text text-anchor="start" x="753.8" y="-801.6" font-family="Arial" font-size="14.00" fill="#666666">[text]</text>
<polygon fill="none" stroke="black" points="681.44,-758.6 681.44,-789.4 929.4,-789.4 929.4,-758.6 681.44,-758.6"/>
<text text-anchor="start" x="688.44" y="-770.8" font-family="Arial" font-size="14.00">sort_order </text>
<text text-anchor="start" x="756.14" y="-770.8" font-family="Arial" font-size="14.00" fill="#666666">[integer]</text>
<polygon fill="none" stroke="black" points="681.44,-727.8 681.44,-758.6 929.4,-758.6 929.4,-727.8 681.44,-727.8"/>
<text text-anchor="start" x="688.44" y="-740" font-family="Arial" font-size="14.00">name </text>
<text text-anchor="start" x="727.35" y="-740" font-family="Arial" font-size="14.00" fill="#666666">[text]</text>
<polygon fill="none" stroke="black" points="681.44,-697 681.44,-727.8 929.4,-727.8 929.4,-697 681.44,-697"/>
<text text-anchor="start" x="688.44" y="-709.2" font-family="Arial" font-size="14.00">details </text>
<text text-anchor="start" x="732.8" y="-709.2" font-family="Arial" font-size="14.00" fill="#666666">[text]</text>
<polygon fill="none" stroke="black" points="681.44,-666.2 681.44,-697 929.4,-697 929.4,-666.2 681.44,-666.2"/>
<text text-anchor="start" x="688.44" y="-678.4" font-family="Arial" font-size="14.00">data_type_rules </text>
<text text-anchor="start" x="791.96" y="-678.4" font-family="Arial" font-size="14.00" fill="#666666">[text]</text>
<polygon fill="none" stroke="black" points="681.44,-635.4 681.44,-666.2 929.4,-666.2 929.4,-635.4 681.44,-635.4"/>
<text text-anchor="start" x="688.44" y="-647.6" font-family="Arial" font-size="14.00">data_type_key </text>
<text text-anchor="start" x="783.4" y="-647.6" font-family="Arial" font-size="14.00" fill="#666666">[text]</text>
<polygon fill="none" stroke="black" points="681.44,-604.6 681.44,-635.4 929.4,-635.4 929.4,-604.6 681.44,-604.6"/>
<text text-anchor="start" x="688.44" y="-616.8" font-family="Arial" font-size="14.00">derivation_policy_key </text>
<text text-anchor="start" x="826.19" y="-616.8" font-family="Arial" font-size="14.00" fill="#666666">[text]</text>
<polygon fill="none" stroke="black" points="681.44,-573.8 681.44,-604.6 929.4,-604.6 929.4,-573.8 681.44,-573.8"/>
<text text-anchor="start" x="688.44" y="-586" font-family="Arial" font-size="14.00">nullable </text>
<text text-anchor="start" x="740.6" y="-586" font-family="Arial" font-size="14.00" fill="#666666">[boolean]</text>
<polygon fill="none" stroke="black" points="681.44,-543 681.44,-573.8 929.4,-573.8 929.4,-543 681.44,-543"/>
<text text-anchor="start" x="688.44" y="-555.2" font-family="Arial" font-size="14.00">uml_comment </text>
<text text-anchor="start" x="780.25" y="-555.2" font-family="Arial" font-size="14.00" fill="#666666">[text]</text>
<polygon fill="none" stroke="black" stroke-width="3" points="679.94,-541.5 679.94,-918.9 930.9,-918.9 930.9,-541.5 679.94,-541.5"/>
</g>
<!-- public.logic -->
<g id="node2" class="node">
<title>public.logic</title>
<polygon fill="#efefef" stroke="none" points="348.44,-382 348.44,-417.6 572.41,-417.6 572.41,-382 348.44,-382"/>
<polygon fill="none" stroke="black" points="348.44,-382 348.44,-417.6 572.41,-417.6 572.41,-382 348.44,-382"/>
<text text-anchor="start" x="355.44" y="-395.4" font-family="Arial Bold" font-size="18.00">public.logic</text>
<text text-anchor="start" x="440.92" y="-395.4" font-family="Arial" font-size="14.00">    </text>
<text text-anchor="start" x="472.04" y="-395.4" font-family="Arial" font-size="14.00" fill="#666666">[BASE TABLE]</text>
<polygon fill="none" stroke="black" points="348.44,-351.2 348.44,-382 572.41,-382 572.41,-351.2 348.44,-351.2"/>
<text text-anchor="start" x="355.44" y="-363.4" font-family="Arial" font-size="14.00">logic_key </text>
<text text-anchor="start" x="417.69" y="-363.4" font-family="Arial" font-size="14.00" fill="#666666">[text]</text>
<polygon fill="none" stroke="black" points="348.44,-320.4 348.44,-351.2 572.41,-351.2 572.41,-320.4 348.44,-320.4"/>
<text text-anchor="start" x="355.44" y="-332.6" font-family="Arial" font-size="14.00">model_key </text>
<text text-anchor="start" x="427.03" y="-332.6" font-family="Arial" font-size="14.00" fill="#666666">[text]</text>
<polygon fill="none" stroke="black" points="348.44,-289.6 348.44,-320.4 572.41,-320.4 572.41,-289.6 348.44,-289.6"/>
<text text-anchor="start" x="355.44" y="-301.8" font-family="Arial" font-size="14.00">sort_order </text>
<text text-anchor="start" x="423.13" y="-301.8" font-family="Arial" font-size="14.00" fill="#666666">[integer]</text>
<polygon fill="none" stroke="black" points="348.44,-258.8 348.44,-289.6 572.41,-289.6 572.41,-258.8 348.44,-258.8"/>
<text text-anchor="start" x="355.44" y="-271" font-family="Arial" font-size="14.00">logic_type </text>
<text text-anchor="start" x="422.37" y="-271" font-family="Arial" font-size="14.00" fill="#666666">[logic_type]</text>
<polygon fill="none" stroke="black" points="348.44,-228 348.44,-258.8 572.41,-258.8 572.41,-228 348.44,-228"/>
<text text-anchor="start" x="355.44" y="-240.2" font-family="Arial" font-size="14.00">description </text>
<text text-anchor="start" x="427.03" y="-240.2" font-family="Arial" font-size="14.00" fill="#666666">[text]</text>
<polygon fill="none" stroke="black" points="348.44,-197.2 348.44,-228 572.41,-228 572.41,-197.2 348.44,-197.2"/>
<text text-anchor="start" x="355.44" y="-209.4" font-family="Arial" font-size="14.00">target </text>
<text text-anchor="start" x="395.13" y="-209.4" font-family="Arial" font-size="14.00" fill="#666666">[text]</text>
<polygon fill="none" stroke="black" points="348.44,-166.4 348.44,-197.2 572.41,-197.2 572.41,-166.4 348.44,-166.4"/>
<text text-anchor="start" x="355.44" y="-178.6" font-family="Arial" font-size="14.00">notation </text>
<text text-anchor="start" x="409.15" y="-178.6" font-family="Arial" font-size="14.00" fill="#666666">[notation]</text>
<polygon fill="none" stroke="black" points="348.44,-135.6 348.44,-166.4 572.41,-166.4 572.41,-135.6 348.44,-135.6"/>
<text text-anchor="start" x="355.44" y="-147.8" font-family="Arial" font-size="14.00">specification </text>
<text text-anchor="start" x="436.37" y="-147.8" font-family="Arial" font-size="14.00" fill="#666666">[text]</text>
<polygon fill="none" stroke="black" points="348.44,-104.8 348.44,-135.6 572.41,-135.6 572.41,-104.8 348.44,-104.8"/>
<text text-anchor="start" x="355.44" y="-117" font-family="Arial" font-size="14.00">target_type_notation </text>
<text text-anchor="start" x="486.98" y="-117" font-family="Arial" font-size="14.00" fill="#666666">[notation]</text>
<polygon fill="none" stroke="black" points="348.44,-74 348.44,-104.8 572.41,-104.8 572.41,-74 348.44,-74"/>
<text text-anchor="start" x="355.44" y="-86.2" font-family="Arial" font-size="14.00">target_type_specification </text>
<text text-anchor="start" x="514.2" y="-86.2" font-family="Arial" font-size="14.00" fill="#666666">[text]</text>
<polygon fill="none" stroke="black" points="348.44,-43.2 348.44,-74 572.41,-74 572.41,-43.2 348.44,-43.2"/>
<text text-anchor="start" x="355.44" y="-55.4" font-family="Arial" font-size="14.00">destroy_event_specification </text>
<text text-anchor="start" x="532.1" y="-55.4" font-family="Arial" font-size="14.00" fill="#666666">[text]</text>
</g>
<!-- public.attribute&#45;&gt;public.logic -->
<g id="edge1" class="edge">
<title>public.attribute:model_key&#45;&gt;public.logic:model_key</title>
<path fill="none" stroke="black" d="M671.21,-861.81C621.53,-809.95 630.26,-335.8 573.41,-335.8"/>
<polygon fill="black" stroke="black" points="671.19,-861.8 678.14,-870.28 675.97,-864.18 679.84,-866.1 679.84,-866.1 679.84,-866.1 675.97,-864.18 682.15,-862.22 671.19,-861.8"/>
<text text-anchor="start" x="138.82" y="-876.4" font-family="Arial" font-size="10.00">FOREIGN KEY (model_key, derivation_policy_key) REFERENCES logic(model_key, logic_key) ON DELETE CASCADE</text>
</g>
<!-- public.data_type -->
<g id="node3" class="node">
<title>public.data_type</title>
<polygon fill="#efefef" stroke="none" points="676.45,-351.2 676.45,-386.8 934.4,-386.8 934.4,-351.2 676.45,-351.2"/>
<polygon fill="none" stroke="black" points="676.45,-351.2 676.45,-386.8 934.4,-386.8 934.4,-351.2 676.45,-351.2"/>
<text text-anchor="start" x="683.45" y="-364.6" font-family="Arial Bold" font-size="18.00">public.data_type</text>
<text text-anchor="start" x="802.91" y="-364.6" font-family="Arial" font-size="14.00">    </text>
<text text-anchor="start" x="834.03" y="-364.6" font-family="Arial" font-size="14.00" fill="#666666">[BASE TABLE]</text>
<polygon fill="none" stroke="black" points="676.45,-320.4 676.45,-351.2 934.4,-351.2 934.4,-320.4 676.45,-320.4"/>
<text text-anchor="start" x="683.45" y="-332.6" font-family="Arial" font-size="14.00">model_key </text>
<text text-anchor="start" x="755.04" y="-332.6" font-family="Arial" font-size="14.00" fill="#666666">[text]</text>
<polygon fill="none" stroke="black" points="676.45,-289.6 676.45,-320.4 934.4,-320.4 934.4,-289.6 676.45,-289.6"/>
<text text-anchor="start" x="683.45" y="-301.8" font-family="Arial" font-size="14.00">data_type_key </text>
<text text-anchor="start" x="778.41" y="-301.8" font-family="Arial" font-size="14.00" fill="#666666">[text]</text>
<polygon fill="none" stroke="black" points="676.45,-258.8 676.45,-289.6 934.4,-289.6 934.4,-258.8 676.45,-258.8"/>
<text text-anchor="start" x="683.45" y="-271" font-family="Arial" font-size="14.00">collection_type </text>
<text text-anchor="start" x="779.95" y="-271" font-family="Arial" font-size="14.00" fill="#666666">[collection_type]</text>
<polygon fill="none" stroke="black" points="676.45,-228 676.45,-258.8 934.4,-258.8 934.4,-228 676.45,-228"/>
<text text-anchor="start" x="683.45" y="-240.2" font-family="Arial" font-size="14.00">collection_unique </text>
<text text-anchor="start" x="795.53" y="-240.2" font-family="Arial" font-size="14.00" fill="#666666">[boolean]</text>
<polygon fill="none" stroke="black" points="676.45,-197.2 676.45,-228 934.4,-228 934.4,-197.2 676.45,-197.2"/>
<text text-anchor="start" x="683.45" y="-209.4" font-family="Arial" font-size="14.00">collection_min </text>
<text text-anchor="start" x="776.05" y="-209.4" font-family="Arial" font-size="14.00" fill="#666666">[bigint]</text>
<polygon fill="none" stroke="black" points="676.45,-166.4 676.45,-197.2 934.4,-197.2 934.4,-166.4 676.45,-166.4"/>
<text text-anchor="start" x="683.45" y="-178.6" font-family="Arial" font-size="14.00">collection_max </text>
<text text-anchor="start" x="779.94" y="-178.6" font-family="Arial" font-size="14.00" fill="#666666">[bigint]</text>
<polygon fill="none" stroke="black" points="676.45,-135.6 676.45,-166.4 934.4,-166.4 934.4,-135.6 676.45,-135.6"/>
<text text-anchor="start" x="683.45" y="-147.8" font-family="Arial" font-size="14.00">element_data_type_key </text>
<text text-anchor="start" x="836" y="-147.8" font-family="Arial" font-size="14.00" fill="#666666">[text]</text>
<polygon fill="none" stroke="black" points="676.45,-104.8 676.45,-135.6 934.4,-135.6 934.4,-104.8 676.45,-104.8"/>
<text text-anchor="start" x="683.45" y="-117" font-family="Arial" font-size="14.00">type_spec_notation </text>
<text text-anchor="start" x="808.76" y="-117" font-family="Arial" font-size="14.00" fill="#666666">[notation]</text>
<polygon fill="none" stroke="black" points="676.45,-74 676.45,-104.8 934.4,-104.8 934.4,-74 676.45,-74"/>
<text text-anchor="start" x="683.45" y="-86.2" font-family="Arial" font-size="14.00">type_spec_specification </text>
<text text-anchor="start" x="835.98" y="-86.2" font-family="Arial" font-size="14.00" fill="#666666">[text]</text>
</g>
<!-- public.attribute&#45;&gt;public.data_type -->
<g id="edge2" class="edge">
<title>public.attribute:model_key&#45;&gt;public.data_type:model_key</title>
<path fill="none" stroke="black" d="M939.59,-861.81C989.71,-809.95 991.13,-335.8 935.4,-335.8"/>
<polygon fill="black" stroke="black" points="939.65,-861.78 928.69,-862.22 934.87,-864.17 931,-866.1 931,-866.1 931,-866.1 934.87,-864.17 932.71,-870.28 939.65,-861.78"/>
<text text-anchor="start" x="937.4" y="-876.4" font-family="Arial" font-size="10.00">FOREIGN KEY (model_key, data_type_key) REFERENCES data_type(model_key, data_type_key) ON DELETE CASCADE</text>
</g>
<!-- public.class -->
<g id="node4" class="node">
<title>public.class</title>
<polygon fill="#efefef" stroke="none" points="1038.94,-366.6 1038.94,-402.2 1261.91,-402.2 1261.91,-366.6 1038.94,-366.6"/>
<polygon fill="none" stroke="black" points="1038.94,-366.6 1038.94,-402.2 1261.91,-402.2 1261.91,-366.6 1038.94,-366.6"/>
<text text-anchor="start" x="1045.94" y="-380" font-family="Arial Bold" font-size="18.00">public.class</text>
<text text-anchor="start" x="1130.42" y="-380" font-family="Arial" font-size="14.00">    </text>
<text text-anchor="start" x="1161.54" y="-380" font-family="Arial" font-size="14.00" fill="#666666">[BASE TABLE]</text>
<polygon fill="none" stroke="black" points="1038.94,-335.8 1038.94,-366.6 1261.91,-366.6 1261.91,-335.8 1038.94,-335.8"/>
<text text-anchor="start" x="1045.94" y="-348" font-family="Arial" font-size="14.00">model_key </text>
<text text-anchor="start" x="1117.53" y="-348" font-family="Arial" font-size="14.00" fill="#666666">[text]</text>
<polygon fill="none" stroke="black" points="1038.94,-305 1038.94,-335.8 1261.91,-335.8 1261.91,-305 1038.94,-305"/>
<text text-anchor="start" x="1045.94" y="-317.2" font-family="Arial" font-size="14.00">class_key </text>
<text text-anchor="start" x="1111.3" y="-317.2" font-family="Arial" font-size="14.00" fill="#666666">[text]</text>
<polygon fill="none" stroke="black" points="1038.94,-274.2 1038.94,-305 1261.91,-305 1261.91,-274.2 1038.94,-274.2"/>
<text text-anchor="start" x="1045.94" y="-286.4" font-family="Arial" font-size="14.00">name </text>
<text text-anchor="start" x="1084.85" y="-286.4" font-family="Arial" font-size="14.00" fill="#666666">[text]</text>
<polygon fill="none" stroke="black" points="1038.94,-243.4 1038.94,-274.2 1261.91,-274.2 1261.91,-243.4 1038.94,-243.4"/>
<text text-anchor="start" x="1045.94" y="-255.6" font-family="Arial" font-size="14.00">subdomain_key </text>
<text text-anchor="start" x="1147.89" y="-255.6" font-family="Arial" font-size="14.00" fill="#666666">[text]</text>
<polygon fill="none" stroke="black" points="1038.94,-212.6 1038.94,-243.4 1261.91,-243.4 1261.91,-212.6 1038.94,-212.6"/>
<text text-anchor="start" x="1045.94" y="-224.8" font-family="Arial" font-size="14.00">actor_key </text>
<text text-anchor="start" x="1110.52" y="-224.8" font-family="Arial" font-size="14.00" fill="#666666">[text]</text>
<polygon fill="none" stroke="black" points="1038.94,-181.8 1038.94,-212.6 1261.91,-212.6 1261.91,-181.8 1038.94,-181.8"/>
<text text-anchor="start" x="1045.94" y="-194" font-family="Arial" font-size="14.00">superclass_of_key </text>
<text text-anchor="start" x="1165.78" y="-194" font-family="Arial" font-size="14.00" fill="#666666">[text]</text>
<polygon fill="none" stroke="black" points="1038.94,-151 1038.94,-181.8 1261.91,-181.8 1261.91,-151 1038.94,-151"/>
<text text-anchor="start" x="1045.94" y="-163.2" font-family="Arial" font-size="14.00">subclass_of_key </text>
<text text-anchor="start" x="1153.33" y="-163.2" font-family="Arial" font-size="14.00" fill="#666666">[text]</text>
<polygon fill="none" stroke="black" points="1038.94,-120.2 1038.94,-151 1261.91,-151 1261.91,-120.2 1038.94,-120.2"/>
<text text-anchor="start" x="1045.94" y="-132.4" font-family="Arial" font-size="14.00">details </text>
<text text-anchor="start" x="1090.3" y="-132.4" font-family="Arial" font-size="14.00" fill="#666666">[text]</text>
<polygon fill="none" stroke="black" points="1038.94,-89.4 1038.94,-120.2 1261.91,-120.2 1261.91,-89.4 1038.94,-89.4"/>
<text text-anchor="start" x="1045.94" y="-101.6" font-family="Arial" font-size="14.00">unfinished_notes </text>
<text text-anchor="start" x="1155.69" y="-101.6" font-family="Arial" font-size="14.00" fill="#666666">[text]</text>
<polygon fill="none" stroke="black" points="1038.94,-58.6 1038.94,-89.4 1261.91,-89.4 1261.91,-58.6 1038.94,-58.6"/>
<text text-anchor="start" x="1045.94" y="-70.8" font-family="Arial" font-size="14.00">uml_comment </text>
<text text-anchor="start" x="1137.74" y="-70.8" font-family="Arial" font-size="14.00" fill="#666666">[text]</text>
</g>
<!-- public.attribute&#45;&gt;public.class -->
<g id="edge3" class="edge">
<title>public.attribute:model_key&#45;&gt;public.class:model_key</title>
<path fill="none" stroke="black" d="M939.41,-861.95C988.05,-811.59 982.66,-351.2 1037.94,-351.2"/>
<polygon fill="black" stroke="black" points="939.66,-861.82 928.71,-862.22 934.88,-864.18 931,-866.1 931,-866.1 931,-866.1 934.88,-864.18 932.7,-870.29 939.66,-861.82"/>
<text text-anchor="start" x="937.4" y="-850.4" font-family="Arial" font-size="10.00">FOREIGN KEY (model_key, class_key) REFERENCES class(model_key, class_key) ON DELETE CASCADE</text>
</g>
<!-- public.class_index -->
<g id="node5" class="node">
<title>public.class_index</title>
<polygon fill="#efefef" stroke="none" points="268.44,-1181.4 268.44,-1217 540.4,-1217 540.4,-1181.4 268.44,-1181.4"/>
<polygon fill="none" stroke="black" points="268.44,-1181.4 268.44,-1217 540.4,-1217 540.4,-1181.4 268.44,-1181.4"/>
<text text-anchor="start" x="275.44" y="-1194.8" font-family="Arial Bold" font-size="18.00">public.class_index</text>
<text text-anchor="start" x="408.91" y="-1194.8" font-family="Arial" font-size="14.00">    </text>
<text text-anchor="start" x="440.03" y="-1194.8" font-family="Arial" font-size="14.00" fill="#666666">[BASE TABLE]</text>
<polygon fill="none" stroke="black" points="268.44,-1150.6 268.44,-1181.4 540.4,-1181.4 540.4,-1150.6 268.44,-1150.6"/>
<text text-anchor="start" x="275.44" y="-1162.8" font-family="Arial" font-size="14.00">model_key </text>
<text text-anchor="start" x="347.04" y="-1162.8" font-family="Arial" font-size="14.00" fill="#666666">[text]</text>
<polygon fill="none" stroke="black" points="268.44,-1119.8 268.44,-1150.6 540.4,-1150.6 540.4,-1119.8 268.44,-1119.8"/>
<text text-anchor="start" x="275.44" y="-1132" font-family="Arial" font-size="14.00">class_key </text>
<text text-anchor="start" x="340.8" y="-1132" font-family="Arial" font-size="14.00" fill="#666666">[text]</text>
<polygon fill="none" stroke="black" points="268.44,-1089 268.44,-1119.8 540.4,-1119.8 540.4,-1089 268.44,-1089"/>
<text text-anchor="start" x="275.44" y="-1101.2" font-family="Arial" font-size="14.00">index_num </text>
<text text-anchor="start" x="347.82" y="-1101.2" font-family="Arial" font-size="14.00" fill="#666666">[integer]</text>
<polygon fill="none" stroke="black" points="268.44,-1058.2 268.44,-1089 540.4,-1089 540.4,-1058.2 268.44,-1058.2"/>
<text text-anchor="start" x="275.44" y="-1070.4" font-family="Arial" font-size="14.00">attribute_key </text>
<text text-anchor="start" x="359.49" y="-1070.4" font-family="Arial" font-size="14.00" fill="#666666">[text]</text>
</g>
<!-- public.class_index&#45;&gt;public.attribute -->
<g id="edge4" class="edge">
<title>public.class_index:model_key&#45;&gt;public.attribute:model_key</title>
<path fill="none" stroke="black" d="M551.78,-1165.32C613.18,-1156.65 561.03,-1066.15 592.42,-999.6 622.69,-935.42 609.49,-866.4 680.44,-866.4"/>
<polygon fill="black" stroke="black" points="551.72,-1165.33 541.44,-1161.49 546.39,-1165.68 542.07,-1165.96 542.07,-1165.96 542.07,-1165.96 546.39,-1165.68 542.03,-1170.47 551.72,-1165.33"/>
<text text-anchor="start" x="7" y="-1176" font-family="Arial" font-size="10.00">FOREIGN KEY (model_key, attribute_key) REFERENCES attribute(model_key, attribute_key) ON DELETE CASCADE</text>
</g>
<!-- public.attribute_invariant -->
<g id="node6" class="node">
<title>public.attribute_invariant</title>
<polygon fill="#efefef" stroke="none" points="644.96,-1166 644.96,-1201.6 965.89,-1201.6 965.89,-1166 644.96,-1166"/>
<polygon fill="none" stroke="black" points="644.96,-1166 644.96,-1201.6 965.89,-1201.6 965.89,-1166 644.96,-1166"/>
<text text-anchor="start" x="651.96" y="-1179.4" font-family="Arial Bold" font-size="18.00">public.attribute_invariant</text>
<text text-anchor="start" x="834.4" y="-1179.4" font-family="Arial" font-size="14.00">    </text>
<text text-anchor="start" x="865.52" y="-1179.4" font-family="Arial" font-size="14.00" fill="#666666">[BASE TABLE]</text>
<polygon fill="none" stroke="black" points="644.96,-1135.2 644.96,-1166 965.89,-1166 965.89,-1135.2 644.96,-1135.2"/>
<text text-anchor="start" x="651.96" y="-1147.4" font-family="Arial" font-size="14.00">model_key </text>
<text text-anchor="start" x="723.55" y="-1147.4" font-family="Arial" font-size="14.00" fill="#666666">[text]</text>
<polygon fill="none" stroke="black" points="644.96,-1104.4 644.96,-1135.2 965.89,-1135.2 965.89,-1104.4 644.96,-1104.4"/>
<text text-anchor="start" x="651.96" y="-1116.6" font-family="Arial" font-size="14.00">attribute_key </text>
<text text-anchor="start" x="736" y="-1116.6" font-family="Arial" font-size="14.00" fill="#666666">[text]</text>
<polygon fill="none" stroke="black" points="644.96,-1073.6 644.96,-1104.4 965.89,-1104.4 965.89,-1073.6 644.96,-1073.6"/>
<text text-anchor="start" x="651.96" y="-1085.8" font-family="Arial" font-size="14.00">logic_key </text>
<text text-anchor="start" x="714.21" y="-1085.8" font-family="Arial" font-size="14.00" fill="#666666">[text]</text>
</g>
<!-- public.attribute_invariant&#45;&gt;public.attribute -->
<g id="edge5" class="edge">
<title>public.attribute_invariant:model_key&#45;&gt;public.attribute:model_key</title>
<path fill="none" stroke="black" d="M976.76,-1147.97C1026.34,-1119.32 990.47,-866.4 930.4,-866.4"/>
<polygon fill="black" stroke="black" points="976.87,-1147.94 966.05,-1146.17 971.72,-1149.31 967.54,-1150.43 967.54,-1150.43 967.54,-1150.43 971.72,-1149.31 968.37,-1154.86 976.87,-1147.94"/>
<text text-anchor="start" x="703.19" y="-1134.6" font-family="Arial" font-size="10.00">FOREIGN KEY (model_key, attribute_key) REFERENCES attribute(model_key, attribute_key) ON DELETE CASCADE</text>
</g>
<!-- public.association_uniqueness_attribute -->
<g id="node7" class="node">
<title>public.association_uniqueness_attribute</title>
<polygon fill="#efefef" stroke="none" points="1070.46,-1196.8 1070.46,-1232.4 1496.39,-1232.4 1496.39,-1196.8 1070.46,-1196.8"/>
<polygon fill="none" stroke="black" points="1070.46,-1196.8 1070.46,-1232.4 1496.39,-1232.4 1496.39,-1196.8 1070.46,-1196.8"/>
<text text-anchor="start" x="1077.46" y="-1210.2" font-family="Arial Bold" font-size="18.00">public.association_uniqueness_attribute</text>
<text text-anchor="start" x="1364.9" y="-1210.2" font-family="Arial" font-size="14.00">    </text>
<text text-anchor="start" x="1396.01" y="-1210.2" font-family="Arial" font-size="14.00" fill="#666666">[BASE TABLE]</text>
<polygon fill="none" stroke="black" points="1070.46,-1166 1070.46,-1196.8 1496.39,-1196.8 1496.39,-1166 1070.46,-1166"/>
<text text-anchor="start" x="1077.46" y="-1178.2" font-family="Arial" font-size="14.00">model_key </text>
<text text-anchor="start" x="1149.05" y="-1178.2" font-family="Arial" font-size="14.00" fill="#666666">[text]</text>
<polygon fill="none" stroke="black" points="1070.46,-1135.2 1070.46,-1166 1496.39,-1166 1496.39,-1135.2 1070.46,-1135.2"/>
<text text-anchor="start" x="1077.46" y="-1147.4" font-family="Arial" font-size="14.00">association_key </text>
<text text-anchor="start" x="1180.96" y="-1147.4" font-family="Arial" font-size="14.00" fill="#666666">[text]</text>
<polygon fill="none" stroke="black" points="1070.46,-1104.4 1070.46,-1135.2 1496.39,-1135.2 1496.39,-1104.4 1070.46,-1104.4"/>
<text text-anchor="start" x="1077.46" y="-1116.6" font-family="Arial" font-size="14.00">end_side </text>
<text text-anchor="start" x="1138.18" y="-1116.6" font-family="Arial" font-size="14.00" fill="#666666">[association_end]</text>
<polygon fill="none" stroke="black" points="1070.46,-1073.6 1070.46,-1104.4 1496.39,-1104.4 1496.39,-1073.6 1070.46,-1073.6"/>
<text text-anchor="start" x="1077.46" y="-1085.8" font-family="Arial" font-size="14.00">attribute_sort_order </text>
<text text-anchor="start" x="1203.53" y="-1085.8" font-family="Arial" font-size="14.00" fill="#666666">[integer]</text>
<polygon fill="none" stroke="black" points="1070.46,-1042.8 1070.46,-1073.6 1496.39,-1073.6 1496.39,-1042.8 1070.46,-1042.8"/>
<text text-anchor="start" x="1077.46" y="-1055" font-family="Arial" font-size="14.00">attribute_key </text>
<text text-anchor="start" x="1161.51" y="-1055" font-family="Arial" font-size="14.00" fill="#666666">[text]</text>
</g>
<!-- public.association_uniqueness_attribute&#45;&gt;public.attribute -->
<g id="edge6" class="edge">
<title>public.association_uniqueness_attribute:model_key&#45;&gt;public.attribute:model_key</title>
<path fill="none" stroke="black" d="M1059.04,-1180.77C991.42,-1171.98 1051.75,-1072.5 1018.42,-999.6 988.92,-935.07 1001.36,-866.4 930.4,-866.4"/>
<polygon fill="black" stroke="black" points="1059.14,-1180.78 1068.85,-1185.87 1064.47,-1181.1 1068.79,-1181.36 1068.79,-1181.36 1068.79,-1181.36 1064.47,-1181.1 1069.4,-1176.89 1059.14,-1180.78"/>
<text text-anchor="start" x="1076.46" y="-1191.4" font-family="Arial" font-size="10.00">FOREIGN KEY (model_key, attribute_key) REFERENCES attribute(model_key, attribute_key) ON DELETE CASCADE</text>
</g>
</g>
</svg>
