<?xml version="1.0" encoding="UTF-8" standalone="no"?>
<!DOCTYPE svg PUBLIC "-//W3C//DTD SVG 1.1//EN"
 "http://www.w3.org/Graphics/SVG/1.1/DTD/svg11.dtd">
<!-- Generated by graphviz version 12.1.2 (20240928.0832)
 -->
<!-- Title: public.logic Pages: 1 -->
<svg width="3809pt" height="1037pt"
 viewBox="0.00 0.00 3809.46 1037.20" xmlns="http://www.w3.org/2000/svg" xmlns:xlink="http://www.w3.org/1999/xlink">
<g id="graph0" class="graph" transform="scale(1 1) rotate(0) translate(4 1033.2)">
<title>public.logic</title>
<polygon fill="white" stroke="none" points="-4,4 -4,-1033.2 3805.46,-1033.2 3805.46,4 -4,4"/>
<!-- public.logic -->
<g id="node1" class="node">
<title>public.logic</title>
<polygon fill="#efefef" stroke="none" points="1791.74,-481.4 1791.74,-517 2015.71,-517 2015.71,-481.4 1791.74,-481.4"/>
<polygon fill="none" stroke="black" points="1791.74,-481.4 1791.74,-517 2015.71,-517 2015.71,-481.4 1791.74,-481.4"/>
<text text-anchor="start" x="1798.74" y="-494.8" font-family="Arial Bold" font-size="18.00">public.logic</text>
<text text-anchor="start" x="1884.22" y="-494.8" font-family="Arial" font-size="14.00">    </text>
<text text-anchor="start" x="1915.34" y="-494.8" font-family="Arial" font-size="14.00" fill="#666666">[BASE TABLE]</text>
<polygon fill="none" stroke="black" points="1791.74,-450.6 1791.74,-481.4 2015.71,-481.4 2015.71,-450.6 1791.74,-450.6"/>
<text text-anchor="start" x="1798.74" y="-462.8" font-family="Arial" font-size="14.00">logic_key </text>
<text text-anchor="start" x="1860.99" y="-462.8" font-family="Arial" font-size="14.00" fill="#666666">[text]</text>
<polygon fill="none" stroke="black" points="1791.74,-419.8 1791.74,-450.6 2015.71,-450.6 2015.71,-419.8 1791.74,-419.8"/>
<text text-anchor="start" x="1798.74" y="-432" font-family="Arial" font-size="14.00">model_key </text>
<text text-anchor="start" x="1870.33" y="-432" font-family="Arial" font-size="14.00" fill="#666666">[text]</text>
<polygon fill="none" stroke="black" points="1791.74,-389 1791.74,-419.8 2015.71,-419.8 2015.71,-389 1791.74,-389"/>
<text text-anchor="start" x="1798.74" y="-401.2" font-family="Arial" font-size="14.00">sort_order </text>
<text text-anchor="start" x="1866.44" y="-401.2" font-family="Arial" font-size="14.00" fill="#666666">[integer]</text>
<polygon fill="none" stroke="black" points="1791.74,-358.2 1791.74,-389 2015.71,-389 2015.71,-358.2 1791.74,-358.2"/>
<text text-anchor="start" x="1798.74" y="-370.4" font-family="Arial" font-size="14.00">description </text>
<text text-anchor="start" x="1870.33" y="-370.4" font-family="Arial" font-size="14.00" fill="#666666">[text]</text>
<polygon fill="none" stroke="black" points="1791.74,-327.4 1791.74,-358.2 2015.71,-358.2 2015.71,-327.4 1791.74,-327.4"/>
<text text-anchor="start" x="1798.74" y="-339.6" font-family="Arial" font-size="14.00">notation </text>
<text text-anchor="start" x="1852.45" y="-339.6" font-family="Arial" font-size="14.00" fill="#666666">[notation]</text>
<polygon fill="none" stroke="black" points="1791.74,-296.6 1791.74,-327.4 2015.71,-327.4 2015.71,-296.6 1791.74,-296.6"/>
<text text-anchor="start" x="1798.74" y="-308.8" font-family="Arial" font-size="14.00">specification </text>
<text text-anchor="start" x="1879.67" y="-308.8" font-family="Arial" font-size="14.00" fill="#666666">[text]</text>
<polygon fill="none" stroke="black" stroke-width="3" points="1790.24,-295.1 1790.24,-518.5 2017.21,-518.5 2017.21,-295.1 1790.24,-295.1"/>
</g>
<!-- public.model -->
<g id="node11" class="node">
<title>public.model</title>
<polygon fill="#efefef" stroke="none" points="1787.24,-135.6 1787.24,-171.2 2020.21,-171.2 2020.21,-135.6 1787.24,-135.6"/>
<polygon fill="none" stroke="black" points="1787.24,-135.6 1787.24,-171.2 2020.21,-171.2 2020.21,-135.6 1787.24,-135.6"/>
<text text-anchor="start" x="1794.24" y="-149" font-family="Arial Bold" font-size="18.00">public.model</text>
<text text-anchor="start" x="1888.72" y="-149" font-family="Arial" font-size="14.00">    </text>
<text text-anchor="start" x="1919.84" y="-149" font-family="Arial" font-size="14.00" fill="#666666">[BASE TABLE]</text>
<polygon fill="none" stroke="black" points="1787.24,-104.8 1787.24,-135.6 2020.21,-135.6 2020.21,-104.8 1787.24,-104.8"/>
<text text-anchor="start" x="1794.24" y="-117" font-family="Arial" font-size="14.00">model_key </text>
<text text-anchor="start" x="1865.83" y="-117" font-family="Arial" font-size="14.00" fill="#666666">[text]</text>
<polygon fill="none" stroke="black" points="1787.24,-74 1787.24,-104.8 2020.21,-104.8 2020.21,-74 1787.24,-74"/>
<text text-anchor="start" x="1794.24" y="-86.2" font-family="Arial" font-size="14.00">name </text>
<text text-anchor="start" x="1833.15" y="-86.2" font-family="Arial" font-size="14.00" fill="#666666">[text]</text>
<polygon fill="none" stroke="black" points="1787.24,-43.2 1787.24,-74 2020.21,-74 2020.21,-43.2 1787.24,-43.2"/>
<text text-anchor="start" x="1794.24" y="-55.4" font-family="Arial" font-size="14.00">details </text>
<text text-anchor="start" x="1838.6" y="-55.4" font-family="Arial" font-size="14.00" fill="#666666">[text]</text>
</g>
<!-- public.logic&#45;&gt;public.model -->
<g id="edge10" class="edge">
<title>public.logic:model_key&#45;&gt;public.model:model_key</title>
<path fill="none" stroke="black" d="M2027.11,-434.6C2156.86,-419.41 2157.67,-120.2 2021.21,-120.2"/>
<polygon fill="black" stroke="black" points="2027.03,-434.61 2016.79,-430.69 2021.7,-434.91 2017.38,-435.16 2017.38,-435.16 2017.38,-435.16 2021.7,-434.91 2017.3,-439.67 2027.03,-434.61"/>
<text text-anchor="start" x="2023.71" y="-445.2" font-family="Arial" font-size="10.00">FOREIGN KEY (model_key) REFERENCES model(model_key) ON DELETE CASCADE</text>
</g>
<!-- public.invariant -->
<g id="node2" class="node">
<title>public.invariant</title>
<polygon fill="#efefef" stroke="none" points="241.75,-827.2 241.75,-862.8 493.7,-862.8 493.7,-827.2 241.75,-827.2"/>
<polygon fill="none" stroke="black" points="241.75,-827.2 241.75,-862.8 493.7,-862.8 493.7,-827.2 241.75,-827.2"/>
<text text-anchor="start" x="248.75" y="-840.6" font-family="Arial Bold" font-size="18.00">public.invariant</text>
<text text-anchor="start" x="362.21" y="-840.6" font-family="Arial" font-size="14.00">    </text>
<text text-anchor="start" x="393.33" y="-840.6" font-family="Arial" font-size="14.00" fill="#666666">[BASE TABLE]</text>
<polygon fill="none" stroke="black" points="241.75,-796.4 241.75,-827.2 493.7,-827.2 493.7,-796.4 241.75,-796.4"/>
<text text-anchor="start" x="248.75" y="-808.6" font-family="Arial" font-size="14.00">model_key </text>
<text text-anchor="start" x="320.34" y="-808.6" font-family="Arial" font-size="14.00" fill="#666666">[text]</text>
<polygon fill="none" stroke="black" points="241.75,-765.6 241.75,-796.4 493.7,-796.4 493.7,-765.6 241.75,-765.6"/>
<text text-anchor="start" x="248.75" y="-777.8" font-family="Arial" font-size="14.00">logic_key </text>
<text text-anchor="start" x="311" y="-777.8" font-family="Arial" font-size="14.00" fill="#666666">[text]</text>
</g>
<!-- public.invariant&#45;&gt;public.logic -->
<g id="edge1" class="edge">
<title>public.invariant:model_key&#45;&gt;public.logic:model_key</title>
<path fill="none" stroke="black" d="M504.65,-811.2C583.35,-800.96 476.2,-661.81 545.73,-599.2 649.41,-505.83 1651.21,-435.2 1790.74,-435.2"/>
<polygon fill="black" stroke="black" points="505.02,-811.18 494.77,-807.29 499.69,-811.5 495.37,-811.76 495.37,-811.76 495.37,-811.76 499.69,-811.5 495.31,-816.27 505.02,-811.18"/>
<text text-anchor="start" x="7" y="-821.8" font-family="Arial" font-size="10.00">FOREIGN KEY (model_key, logic_key) REFERENCES logic(model_key, logic_key) ON DELETE CASCADE</text>
</g>
<!-- public.global_function -->
<g id="node3" class="node">
<title>public.global_function</title>
<polygon fill="#efefef" stroke="none" points="597.75,-858 597.75,-893.6 899.7,-893.6 899.7,-858 597.75,-858"/>
<polygon fill="none" stroke="black" points="597.75,-858 597.75,-893.6 899.7,-893.6 899.7,-858 597.75,-858"/>
<text text-anchor="start" x="604.75" y="-871.4" font-family="Arial Bold" font-size="18.00">public.global_function</text>
<text text-anchor="start" x="768.21" y="-871.4" font-family="Arial" font-size="14.00">    </text>
<text text-anchor="start" x="799.33" y="-871.4" font-family="Arial" font-size="14.00" fill="#666666">[BASE TABLE]</text>
<polygon fill="none" stroke="black" points="597.75,-827.2 597.75,-858 899.7,-858 899.7,-827.2 597.75,-827.2"/>
<text text-anchor="start" x="604.75" y="-839.4" font-family="Arial" font-size="14.00">model_key </text>
<text text-anchor="start" x="676.34" y="-839.4" font-family="Arial" font-size="14.00" fill="#666666">[text]</text>
<polygon fill="none" stroke="black" points="597.75,-796.4 597.75,-827.2 899.7,-827.2 899.7,-796.4 597.75,-796.4"/>
<text text-anchor="start" x="604.75" y="-808.6" font-family="Arial" font-size="14.00">logic_key </text>
<text text-anchor="start" x="667" y="-808.6" font-family="Arial" font-size="14.00" fill="#666666">[text]</text>
<polygon fill="none" stroke="black" points="597.75,-765.6 597.75,-796.4 899.7,-796.4 899.7,-765.6 597.75,-765.6"/>
<text text-anchor="start" x="604.75" y="-777.8" font-family="Arial" font-size="14.00">name </text>
<text text-anchor="start" x="643.66" y="-777.8" font-family="Arial" font-size="14.00" fill="#666666">[text]</text>
<polygon fill="none" stroke="black" points="597.75,-734.8 597.75,-765.6 899.7,-765.6 899.7,-734.8 597.75,-734.8"/>
<text text-anchor="start" x="604.75" y="-747" font-family="Arial" font-size="14.00">parameters </text>
<text text-anchor="start" x="679.44" y="-747" font-family="Arial" font-size="14.00" fill="#666666">[text[]]</text>
</g>
<!-- public.global_function&#45;&gt;public.logic -->
<g id="edge2" class="edge">
<title>public.global_function:model_key&#45;&gt;public.logic:model_key</title>
<path fill="none" stroke="black" d="M910.91,-842.06C1002.29,-831.69 875.65,-674.25 951.73,-599.2 1086.97,-465.78 1600.76,-435.2 1790.74,-435.2"/>
<polygon fill="black" stroke="black" points="911.02,-842.05 900.8,-838.09 905.7,-842.34 901.37,-842.56 901.37,-842.56 901.37,-842.56 905.7,-842.34 901.28,-847.08 911.02,-842.05"/>
<text text-anchor="start" x="413" y="-852.6" font-family="Arial" font-size="10.00">FOREIGN KEY (model_key, logic_key) REFERENCES logic(model_key, logic_key) ON DELETE CASCADE</text>
</g>
<!-- public.attribute -->
<g id="node4" class="node">
<title>public.attribute</title>
<polygon fill="#efefef" stroke="none" points="1003.75,-950.4 1003.75,-986 1251.7,-986 1251.7,-950.4 1003.75,-950.4"/>
<polygon fill="none" stroke="black" points="1003.75,-950.4 1003.75,-986 1251.7,-986 1251.7,-950.4 1003.75,-950.4"/>
<text text-anchor="start" x="1010.75" y="-963.8" font-family="Arial Bold" font-size="18.00">public.attribute</text>
<text text-anchor="start" x="1120.21" y="-963.8" font-family="Arial" font-size="14.00">    </text>
<text text-anchor="start" x="1151.33" y="-963.8" font-family="Arial" font-size="14.00" fill="#666666">[BASE TABLE]</text>
<polygon fill="none" stroke="black" points="1003.75,-919.6 1003.75,-950.4 1251.7,-950.4 1251.7,-919.6 1003.75,-919.6"/>
<text text-anchor="start" x="1010.75" y="-931.8" font-family="Arial" font-size="14.00">model_key </text>
<text text-anchor="start" x="1082.34" y="-931.8" font-family="Arial" font-size="14.00" fill="#666666">[text]</text>
<polygon fill="none" stroke="black" points="1003.75,-888.8 1003.75,-919.6 1251.7,-919.6 1251.7,-888.8 1003.75,-888.8"/>
<text text-anchor="start" x="1010.75" y="-901" font-family="Arial" font-size="14.00">attribute_key </text>
<text text-anchor="start" x="1094.79" y="-901" font-family="Arial" font-size="14.00" fill="#666666">[text]</text>
<polygon fill="none" stroke="black" points="1003.75,-858 1003.75,-888.8 1251.7,-888.8 1251.7,-858 1003.75,-858"/>
<text text-anchor="start" x="1010.75" y="-870.2" font-family="Arial" font-size="14.00">class_key </text>
<text text-anchor="start" x="1076.1" y="-870.2" font-family="Arial" font-size="14.00" fill="#666666">[text]</text>
<polygon fill="none" stroke="black" points="1003.75,-827.2 1003.75,-858 1251.7,-858 1251.7,-827.2 1003.75,-827.2"/>
<text text-anchor="start" x="1010.75" y="-839.4" font-family="Arial" font-size="14.00">name </text>
<text text-anchor="start" x="1049.66" y="-839.4" font-family="Arial" font-size="14.00" fill="#666666">[text]</text>
<polygon fill="none" stroke="black" points="1003.75,-796.4 1003.75,-827.2 1251.7,-827.2 1251.7,-796.4 1003.75,-796.4"/>
<text text-anchor="start" x="1010.75" y="-808.6" font-family="Arial" font-size="14.00">details </text>
<text text-anchor="start" x="1055.1" y="-808.6" font-family="Arial" font-size="14.00" fill="#666666">[text]</text>
<polygon fill="none" stroke="black" points="1003.75,-765.6 1003.75,-796.4 1251.7,-796.4 1251.7,-765.6 1003.75,-765.6"/>
<text text-anchor="start" x="1010.75" y="-777.8" font-family="Arial" font-size="14.00">data_type_rules </text>
<text text-anchor="start" x="1114.26" y="-777.8" font-family="Arial" font-size="14.00" fill="#666666">[text]</text>
<polygon fill="none" stroke="black" points="1003.75,-734.8 1003.75,-765.6 1251.7,-765.6 1251.7,-734.8 1003.75,-734.8"/>
<text text-anchor="start" x="1010.75" y="-747" font-family="Arial" font-size="14.00">data_type_key </text>
<text text-anchor="start" x="1105.7" y="-747" font-family="Arial" font-size="14.00" fill="#666666">[text]</text>
<polygon fill="none" stroke="black" points="1003.75,-704 1003.75,-734.8 1251.7,-734.8 1251.7,-704 1003.75,-704"/>
<text text-anchor="start" x="1010.75" y="-716.2" font-family="Arial" font-size="14.00">derivation_policy_key </text>
<text text-anchor="start" x="1148.49" y="-716.2" font-family="Arial" font-size="14.00" fill="#666666">[text]</text>
<polygon fill="none" stroke="black" points="1003.75,-673.2 1003.75,-704 1251.7,-704 1251.7,-673.2 1003.75,-673.2"/>
<text text-anchor="start" x="1010.75" y="-685.4" font-family="Arial" font-size="14.00">nullable </text>
<text text-anchor="start" x="1062.9" y="-685.4" font-family="Arial" font-size="14.00" fill="#666666">[boolean]</text>
<polygon fill="none" stroke="black" points="1003.75,-642.4 1003.75,-673.2 1251.7,-673.2 1251.7,-642.4 1003.75,-642.4"/>
<text text-anchor="start" x="1010.75" y="-654.6" font-family="Arial" font-size="14.00">uml_comment </text>
<text text-anchor="start" x="1102.55" y="-654.6" font-family="Arial" font-size="14.00" fill="#666666">[text]</text>
</g>
<!-- public.attribute&#45;&gt;public.logic -->
<g id="edge3" class="edge">
<title>public.attribute:model_key&#45;&gt;public.logic:model_key</title>
<path fill="none" stroke="black" d="M1262.73,-933.07C1321.34,-908.38 1257.56,-654.19 1303.73,-599.2 1377.15,-511.74 1676.54,-435.2 1790.74,-435.2"/>
<polygon fill="black" stroke="black" points="1262.85,-933.05 1252.18,-930.52 1257.61,-934.05 1253.36,-934.87 1253.36,-934.87 1253.36,-934.87 1257.61,-934.05 1253.88,-939.36 1262.85,-933.05"/>
<text text-anchor="start" x="1259.7" y="-945" font-family="Arial" font-size="10.00">FOREIGN KEY (model_key, derivation_policy_key) REFERENCES logic(model_key, logic_key) ON DELETE CASCADE</text>
</g>
<!-- public.query_require -->
<g id="node5" class="node">
<title>public.query_require</title>
<polygon fill="#efefef" stroke="none" points="1356.26,-842.6 1356.26,-878.2 1645.19,-878.2 1645.19,-842.6 1356.26,-842.6"/>
<polygon fill="none" stroke="black" points="1356.26,-842.6 1356.26,-878.2 1645.19,-878.2 1645.19,-842.6 1356.26,-842.6"/>
<text text-anchor="start" x="1363.26" y="-856" font-family="Arial Bold" font-size="18.00">public.query_require</text>
<text text-anchor="start" x="1513.7" y="-856" font-family="Arial" font-size="14.00">    </text>
<text text-anchor="start" x="1544.82" y="-856" font-family="Arial" font-size="14.00" fill="#666666">[BASE TABLE]</text>
<polygon fill="none" stroke="black" points="1356.26,-811.8 1356.26,-842.6 1645.19,-842.6 1645.19,-811.8 1356.26,-811.8"/>
<text text-anchor="start" x="1363.26" y="-824" font-family="Arial" font-size="14.00">model_key </text>
<text text-anchor="start" x="1434.85" y="-824" font-family="Arial" font-size="14.00" fill="#666666">[text]</text>
<polygon fill="none" stroke="black" points="1356.26,-781 1356.26,-811.8 1645.19,-811.8 1645.19,-781 1356.26,-781"/>
<text text-anchor="start" x="1363.26" y="-793.2" font-family="Arial" font-size="14.00">query_key </text>
<text text-anchor="start" x="1431.74" y="-793.2" font-family="Arial" font-size="14.00" fill="#666666">[text]</text>
<polygon fill="none" stroke="black" points="1356.26,-750.2 1356.26,-781 1645.19,-781 1645.19,-750.2 1356.26,-750.2"/>
<text text-anchor="start" x="1363.26" y="-762.4" font-family="Arial" font-size="14.00">logic_key </text>
<text text-anchor="start" x="1425.51" y="-762.4" font-family="Arial" font-size="14.00" fill="#666666">[text]</text>
</g>
<!-- public.query_require&#45;&gt;public.logic -->
<g id="edge4" class="edge">
<title>public.query_require:model_key&#45;&gt;public.logic:model_key</title>
<path fill="none" stroke="black" d="M1656.13,-824.64C1695.63,-802.6 1680.3,-644.24 1697.73,-599.2 1727.96,-521.05 1706.94,-435.2 1790.74,-435.2"/>
<polygon fill="black" stroke="black" points="1656.2,-824.63 1645.39,-822.76 1651.03,-825.96 1646.84,-827.03 1646.84,-827.03 1646.84,-827.03 1651.03,-825.96 1647.64,-831.48 1656.2,-824.63"/>
<text text-anchor="start" x="1158.49" y="-837.2" font-family="Arial" font-size="10.00">FOREIGN KEY (model_key, logic_key) REFERENCES logic(model_key, logic_key) ON DELETE CASCADE</text>
</g>
<!-- public.query_guarantee -->
<g id="node6" class="node">
<title>public.query_guarantee</title>
<polygon fill="#efefef" stroke="none" points="1749.77,-842.6 1749.77,-878.2 2057.68,-878.2 2057.68,-842.6 1749.77,-842.6"/>
<polygon fill="none" stroke="black" points="1749.77,-842.6 1749.77,-878.2 2057.68,-878.2 2057.68,-842.6 1749.77,-842.6"/>
<text text-anchor="start" x="1756.77" y="-856" font-family="Arial Bold" font-size="18.00">public.query_guarantee</text>
<text text-anchor="start" x="1926.19" y="-856" font-family="Arial" font-size="14.00">    </text>
<text text-anchor="start" x="1957.31" y="-856" font-family="Arial" font-size="14.00" fill="#666666">[BASE TABLE]</text>
<polygon fill="none" stroke="black" points="1749.77,-811.8 1749.77,-842.6 2057.68,-842.6 2057.68,-811.8 1749.77,-811.8"/>
<text text-anchor="start" x="1756.77" y="-824" font-family="Arial" font-size="14.00">model_key </text>
<text text-anchor="start" x="1828.36" y="-824" font-family="Arial" font-size="14.00" fill="#666666">[text]</text>
<polygon fill="none" stroke="black" points="1749.77,-781 1749.77,-811.8 2057.68,-811.8 2057.68,-781 1749.77,-781"/>
<text text-anchor="start" x="1756.77" y="-793.2" font-family="Arial" font-size="14.00">query_key </text>
<text text-anchor="start" x="1825.25" y="-793.2" font-family="Arial" font-size="14.00" fill="#666666">[text]</text>
<polygon fill="none" stroke="black" points="1749.77,-750.2 1749.77,-781 2057.68,-781 2057.68,-750.2 1749.77,-750.2"/>
<text text-anchor="start" x="1756.77" y="-762.4" font-family="Arial" font-size="14.00">logic_key </text>
<text text-anchor="start" x="1819.02" y="-762.4" font-family="Arial" font-size="14.00" fill="#666666">[text]</text>
</g>
<!-- public.query_guarantee&#45;&gt;public.logic -->
<g id="edge5" class="edge">
<title>public.query_guarantee:model_key&#45;&gt;public.logic:model_key</title>
<path fill="none" stroke="black" d="M2068.81,-825.28C2142.77,-795.7 2100.73,-435.2 2016.71,-435.2"/>
<polygon fill="black" stroke="black" points="2068.84,-825.27 2058.17,-822.72 2063.6,-826.27 2059.34,-827.08 2059.34,-827.08 2059.34,-827.08 2063.6,-826.27 2059.85,-831.56 2068.84,-825.27"/>
<text text-anchor="start" x="1570.98" y="-837.2" font-family="Arial" font-size="10.00">FOREIGN KEY (model_key, logic_key) REFERENCES logic(model_key, logic_key) ON DELETE CASCADE</text>
</g>
<!-- public.guard -->
<g id="node7" class="node">
<title>public.guard</title>
<polygon fill="#efefef" stroke="none" points="2162.24,-858 2162.24,-893.6 2391.21,-893.6 2391.21,-858 2162.24,-858"/>
<polygon fill="none" stroke="black" points="2162.24,-858 2162.24,-893.6 2391.21,-893.6 2391.21,-858 2162.24,-858"/>
<text text-anchor="start" x="2169.24" y="-871.4" font-family="Arial Bold" font-size="18.00">public.guard</text>
<text text-anchor="start" x="2259.72" y="-871.4" font-family="Arial" font-size="14.00">    </text>
<text text-anchor="start" x="2290.83" y="-871.4" font-family="Arial" font-size="14.00" fill="#666666">[BASE TABLE]</text>
<polygon fill="none" stroke="black" points="2162.24,-827.2 2162.24,-858 2391.21,-858 2391.21,-827.2 2162.24,-827.2"/>
<text text-anchor="start" x="2169.24" y="-839.4" font-family="Arial" font-size="14.00">model_key </text>
<text text-anchor="start" x="2240.84" y="-839.4" font-family="Arial" font-size="14.00" fill="#666666">[text]</text>
<polygon fill="none" stroke="black" points="2162.24,-796.4 2162.24,-827.2 2391.21,-827.2 2391.21,-796.4 2162.24,-796.4"/>
<text text-anchor="start" x="2169.24" y="-808.6" font-family="Arial" font-size="14.00">class_key </text>
<text text-anchor="start" x="2234.6" y="-808.6" font-family="Arial" font-size="14.00" fill="#666666">[text]</text>
<polygon fill="none" stroke="black" points="2162.24,-765.6 2162.24,-796.4 2391.21,-796.4 2391.21,-765.6 2162.24,-765.6"/>
<text text-anchor="start" x="2169.24" y="-777.8" font-family="Arial" font-size="14.00">guard_key </text>
<text text-anchor="start" x="2238.51" y="-777.8" font-family="Arial" font-size="14.00" fill="#666666">[text]</text>
<polygon fill="none" stroke="black" points="2162.24,-734.8 2162.24,-765.6 2391.21,-765.6 2391.21,-734.8 2162.24,-734.8"/>
<text text-anchor="start" x="2169.24" y="-747" font-family="Arial" font-size="14.00">name </text>
<text text-anchor="start" x="2208.15" y="-747" font-family="Arial" font-size="14.00" fill="#666666">[text]</text>
</g>
<!-- public.guard&#45;&gt;public.logic -->
<g id="edge6" class="edge">
<title>public.guard:model_key&#45;&gt;public.logic:model_key</title>
<path fill="none" stroke="black" d="M2151.23,-840.16C2108.87,-817.76 2128.02,-647.47 2109.73,-599.2 2080.03,-520.84 2100.51,-435.2 2016.71,-435.2"/>
<polygon fill="black" stroke="black" points="2151.2,-840.15 2159.85,-846.89 2156.39,-841.42 2160.59,-842.44 2160.59,-842.44 2160.59,-842.44 2156.39,-841.42 2161.98,-838.15 2151.2,-840.15"/>
<text text-anchor="start" x="2168.24" y="-852.6" font-family="Arial" font-size="10.00">FOREIGN KEY (model_key, guard_key) REFERENCES logic(model_key, logic_key) ON DELETE CASCADE</text>
</g>
<!-- public.action_require -->
<g id="node8" class="node">
<title>public.action_require</title>
<polygon fill="#efefef" stroke="none" points="2495.76,-842.6 2495.76,-878.2 2787.69,-878.2 2787.69,-842.6 2495.76,-842.6"/>
<polygon fill="none" stroke="black" points="2495.76,-842.6 2495.76,-878.2 2787.69,-878.2 2787.69,-842.6 2495.76,-842.6"/>
<text text-anchor="start" x="2502.76" y="-856" font-family="Arial Bold" font-size="18.00">public.action_require</text>
<text text-anchor="start" x="2656.2" y="-856" font-family="Arial" font-size="14.00">    </text>
<text text-anchor="start" x="2687.32" y="-856" font-family="Arial" font-size="14.00" fill="#666666">[BASE TABLE]</text>
<polygon fill="none" stroke="black" points="2495.76,-811.8 2495.76,-842.6 2787.69,-842.6 2787.69,-811.8 2495.76,-811.8"/>
<text text-anchor="start" x="2502.76" y="-824" font-family="Arial" font-size="14.00">model_key </text>
<text text-anchor="start" x="2574.35" y="-824" font-family="Arial" font-size="14.00" fill="#666666">[text]</text>
<polygon fill="none" stroke="black" points="2495.76,-781 2495.76,-811.8 2787.69,-811.8 2787.69,-781 2495.76,-781"/>
<text text-anchor="start" x="2502.76" y="-793.2" font-family="Arial" font-size="14.00">action_key </text>
<text text-anchor="start" x="2573.58" y="-793.2" font-family="Arial" font-size="14.00" fill="#666666">[text]</text>
<polygon fill="none" stroke="black" points="2495.76,-750.2 2495.76,-781 2787.69,-781 2787.69,-750.2 2495.76,-750.2"/>
<text text-anchor="start" x="2502.76" y="-762.4" font-family="Arial" font-size="14.00">logic_key </text>
<text text-anchor="start" x="2565.02" y="-762.4" font-family="Arial" font-size="14.00" fill="#666666">[text]</text>
</g>
<!-- public.action_require&#45;&gt;public.logic -->
<g id="edge7" class="edge">
<title>public.action_require:model_key&#45;&gt;public.logic:model_key</title>
<path fill="none" stroke="black" d="M2484.36,-826.63C2399.39,-816.5 2509.13,-674.96 2443.73,-599.2 2310.88,-445.31 2220.01,-435.2 2016.71,-435.2"/>
<polygon fill="black" stroke="black" points="2484.44,-826.63 2494.18,-831.67 2489.77,-826.92 2494.09,-827.16 2494.09,-827.16 2494.09,-827.16 2489.77,-826.92 2494.68,-822.69 2484.44,-826.63"/>
<text text-anchor="start" x="2254.41" y="-811.2" font-family="Arial" font-size="10.00">FOREIGN KEY (model_key, logic_key) REFERENCES logic(model_key, logic_key) ON DELETE CASCADE</text>
</g>
<!-- public.action_guarantee -->
<g id="node9" class="node">
<title>public.action_guarantee</title>
<polygon fill="#efefef" stroke="none" points="2892.27,-842.6 2892.27,-878.2 3203.18,-878.2 3203.18,-842.6 2892.27,-842.6"/>
<polygon fill="none" stroke="black" points="2892.27,-842.6 2892.27,-878.2 3203.18,-878.2 3203.18,-842.6 2892.27,-842.6"/>
<text text-anchor="start" x="2899.27" y="-856" font-family="Arial Bold" font-size="18.00">public.action_guarantee</text>
<text text-anchor="start" x="3071.69" y="-856" font-family="Arial" font-size="14.00">    </text>
<text text-anchor="start" x="3102.81" y="-856" font-family="Arial" font-size="14.00" fill="#666666">[BASE TABLE]</text>
<polygon fill="none" stroke="black" points="2892.27,-811.8 2892.27,-842.6 3203.18,-842.6 3203.18,-811.8 2892.27,-811.8"/>
<text text-anchor="start" x="2899.27" y="-824" font-family="Arial" font-size="14.00">model_key </text>
<text text-anchor="start" x="2970.86" y="-824" font-family="Arial" font-size="14.00" fill="#666666">[text]</text>
<polygon fill="none" stroke="black" points="2892.27,-781 2892.27,-811.8 3203.18,-811.8 3203.18,-781 2892.27,-781"/>
<text text-anchor="start" x="2899.27" y="-793.2" font-family="Arial" font-size="14.00">action_key </text>
<text text-anchor="start" x="2970.09" y="-793.2" font-family="Arial" font-size="14.00" fill="#666666">[text]</text>
<polygon fill="none" stroke="black" points="2892.27,-750.2 2892.27,-781 3203.18,-781 3203.18,-750.2 2892.27,-750.2"/>
<text text-anchor="start" x="2899.27" y="-762.4" font-family="Arial" font-size="14.00">logic_key </text>
<text text-anchor="start" x="2961.52" y="-762.4" font-family="Arial" font-size="14.00" fill="#666666">[text]</text>
</g>
<!-- public.action_guarantee&#45;&gt;public.logic -->
<g id="edge8" class="edge">
<title>public.action_guarantee:model_key&#45;&gt;public.logic:model_key</title>
<path fill="none" stroke="black" d="M2880.89,-826.6C2796.27,-816.07 2911.43,-669.09 2839.73,-599.2 2706.18,-469.03 2203.2,-435.2 2016.71,-435.2"/>
<polygon fill="black" stroke="black" points="2880.95,-826.61 2890.68,-831.67 2886.28,-826.91 2890.6,-827.16 2890.6,-827.16 2890.6,-827.16 2886.28,-826.91 2891.19,-822.69 2880.95,-826.61"/>
<text text-anchor="start" x="2403.57" y="-837.2" font-family="Arial" font-size="10.00">FOREIGN KEY (model_key, logic_key) REFERENCES logic(model_key, logic_key) ON DELETE CASCADE</text>
</g>
<!-- public.action_safety -->
<g id="node10" class="node">
<title>public.action_safety</title>
<polygon fill="#efefef" stroke="none" points="3307.76,-842.6 3307.76,-878.2 3591.69,-878.2 3591.69,-842.6 3307.76,-842.6"/>
<polygon fill="none" stroke="black" points="3307.76,-842.6 3307.76,-878.2 3591.69,-878.2 3591.69,-842.6 3307.76,-842.6"/>
<text text-anchor="start" x="3314.76" y="-856" font-family="Arial Bold" font-size="18.00">public.action_safety</text>
<text text-anchor="start" x="3460.21" y="-856" font-family="Arial" font-size="14.00">    </text>
<text text-anchor="start" x="3491.32" y="-856" font-family="Arial" font-size="14.00" fill="#666666">[BASE TABLE]</text>
<polygon fill="none" stroke="black" points="3307.76,-811.8 3307.76,-842.6 3591.69,-842.6 3591.69,-811.8 3307.76,-811.8"/>
<text text-anchor="start" x="3314.76" y="-824" font-family="Arial" font-size="14.00">model_key </text>
<text text-anchor="start" x="3386.35" y="-824" font-family="Arial" font-size="14.00" fill="#666666">[text]</text>
<polygon fill="none" stroke="black" points="3307.76,-781 3307.76,-811.8 3591.69,-811.8 3591.69,-781 3307.76,-781"/>
<text text-anchor="start" x="3314.76" y="-793.2" font-family="Arial" font-size="14.00">action_key </text>
<text text-anchor="start" x="3385.58" y="-793.2" font-family="Arial" font-size="14.00" fill="#666666">[text]</text>
<polygon fill="none" stroke="black" points="3307.76,-750.2 3307.76,-781 3591.69,-781 3591.69,-750.2 3307.76,-750.2"/>
<text text-anchor="start" x="3314.76" y="-762.4" font-family="Arial" font-size="14.00">logic_key </text>
<text text-anchor="start" x="3377.01" y="-762.4" font-family="Arial" font-size="14.00" fill="#666666">[text]</text>
</g>
<!-- public.action_safety&#45;&gt;public.logic -->
<g id="edge9" class="edge">
<title>public.action_safety:model_key&#45;&gt;public.logic:model_key</title>
<path fill="none" stroke="black" d="M3296.39,-826.59C3212,-815.9 3329.56,-666.77 3255.73,-599.2 3153.28,-505.45 2155.58,-435.2 2016.71,-435.2"/>
<polygon fill="black" stroke="black" points="3296.44,-826.6 3306.16,-831.67 3301.76,-826.91 3306.09,-827.16 3306.09,-827.16 3306.09,-827.16 3301.76,-826.91 3306.68,-822.69 3296.44,-826.6"/>
<text text-anchor="start" x="3313.76" y="-837.2" font-family="Arial" font-size="10.00">FOREIGN KEY (model_key, logic_key) REFERENCES logic(model_key, logic_key) ON DELETE CASCADE</text>
</g>
</g>
</svg>
