<?xml version="1.0" encoding="UTF-8" standalone="no"?>
<!DOCTYPE svg PUBLIC "-//W3C//DTD SVG 1.1//EN"
 "http://www.w3.org/Graphics/SVG/1.1/DTD/svg11.dtd">
<!-- Generated by graphviz version 12.1.2 (20240928.0832)
 -->
<!-- Title: public.logic Pages: 1 -->
<svg width="4209pt" height="1068pt"
 viewBox="0.00 0.00 4209.46 1068.00" xmlns="http://www.w3.org/2000/svg" xmlns:xlink="http://www.w3.org/1999/xlink">
<g id="graph0" class="graph" transform="scale(1 1) rotate(0) translate(4 1064)">
<title>public.logic</title>
<polygon fill="white" stroke="none" points="-4,4 -4,-1064 4205.46,-1064 4205.46,4 -4,4"/>
<!-- public.logic -->
<g id="node1" class="node">
<title>public.logic</title>
<polygon fill="#efefef" stroke="none" points="1989.74,-512.2 1989.74,-547.8 2213.71,-547.8 2213.71,-512.2 1989.74,-512.2"/>
<polygon fill="none" stroke="black" points="1989.74,-512.2 1989.74,-547.8 2213.71,-547.8 2213.71,-512.2 1989.74,-512.2"/>
<text text-anchor="start" x="1996.74" y="-525.6" font-family="Arial Bold" font-size="18.00">public.logic</text>
<text text-anchor="start" x="2082.22" y="-525.6" font-family="Arial" font-size="14.00">    </text>
<text text-anchor="start" x="2113.34" y="-525.6" font-family="Arial" font-size="14.00" fill="#666666">[BASE TABLE]</text>
<polygon fill="none" stroke="black" points="1989.74,-481.4 1989.74,-512.2 2213.71,-512.2 2213.71,-481.4 1989.74,-481.4"/>
<text text-anchor="start" x="1996.74" y="-493.6" font-family="Arial" font-size="14.00">logic_key </text>
<text text-anchor="start" x="2058.99" y="-493.6" font-family="Arial" font-size="14.00" fill="#666666">[text]</text>
<polygon fill="none" stroke="black" points="1989.74,-450.6 1989.74,-481.4 2213.71,-481.4 2213.71,-450.6 1989.74,-450.6"/>
<text text-anchor="start" x="1996.74" y="-462.8" font-family="Arial" font-size="14.00">model_key </text>
<text text-anchor="start" x="2068.33" y="-462.8" font-family="Arial" font-size="14.00" fill="#666666">[text]</text>
<polygon fill="none" stroke="black" points="1989.74,-419.8 1989.74,-450.6 2213.71,-450.6 2213.71,-419.8 1989.74,-419.8"/>
<text text-anchor="start" x="1996.74" y="-432" font-family="Arial" font-size="14.00">sort_order </text>
<text text-anchor="start" x="2064.44" y="-432" font-family="Arial" font-size="14.00" fill="#666666">[integer]</text>
<polygon fill="none" stroke="black" points="1989.74,-389 1989.74,-419.8 2213.71,-419.8 2213.71,-389 1989.74,-389"/>
<text text-anchor="start" x="1996.74" y="-401.2" font-family="Arial" font-size="14.00">logic_type </text>
<text text-anchor="start" x="2063.67" y="-401.2" font-family="Arial" font-size="14.00" fill="#666666">[logic_type]</text>
<polygon fill="none" stroke="black" points="1989.74,-358.2 1989.74,-389 2213.71,-389 2213.71,-358.2 1989.74,-358.2"/>
<text text-anchor="start" x="1996.74" y="-370.4" font-family="Arial" font-size="14.00">description </text>
<text text-anchor="start" x="2068.33" y="-370.4" font-family="Arial" font-size="14.00" fill="#666666">[text]</text>
<polygon fill="none" stroke="black" points="1989.74,-327.4 1989.74,-358.2 2213.71,-358.2 2213.71,-327.4 1989.74,-327.4"/>
<text text-anchor="start" x="1996.74" y="-339.6" font-family="Arial" font-size="14.00">notation </text>
<text text-anchor="start" x="2050.45" y="-339.6" font-family="Arial" font-size="14.00" fill="#666666">[notation]</text>
<polygon fill="none" stroke="black" points="1989.74,-296.6 1989.74,-327.4 2213.71,-327.4 2213.71,-296.6 1989.74,-296.6"/>
<text text-anchor="start" x="1996.74" y="-308.8" font-family="Arial" font-size="14.00">specification </text>
<text text-anchor="start" x="2077.67" y="-308.8" font-family="Arial" font-size="14.00" fill="#666666">[text]</text>
<polygon fill="none" stroke="black" stroke-width="3" points="1988.24,-295.1 1988.24,-549.3 2215.21,-549.3 2215.21,-295.1 1988.24,-295.1"/>
</g>
<!-- public.model -->
<g id="node12" class="node">
<title>public.model</title>
<polygon fill="#efefef" stroke="none" points="1985.24,-135.6 1985.24,-171.2 2218.21,-171.2 2218.21,-135.6 1985.24,-135.6"/>
<polygon fill="none" stroke="black" points="1985.24,-135.6 1985.24,-171.2 2218.21,-171.2 2218.21,-135.6 1985.24,-135.6"/>
<text text-anchor="start" x="1992.24" y="-149" font-family="Arial Bold" font-size="18.00">public.model</text>
<text text-anchor="start" x="2086.72" y="-149" font-family="Arial" font-size="14.00">    </text>
<text text-anchor="start" x="2117.84" y="-149" font-family="Arial" font-size="14.00" fill="#666666">[BASE TABLE]</text>
<polygon fill="none" stroke="black" points="1985.24,-104.8 1985.24,-135.6 2218.21,-135.6 2218.21,-104.8 1985.24,-104.8"/>
<text text-anchor="start" x="1992.24" y="-117" font-family="Arial" font-size="14.00">model_key </text>
<text text-anchor="start" x="2063.83" y="-117" font-family="Arial" font-size="14.00" fill="#666666">[text]</text>
<polygon fill="none" stroke="black" points="1985.24,-74 1985.24,-104.8 2218.21,-104.8 2218.21,-74 1985.24,-74"/>
<text text-anchor="start" x="1992.24" y="-86.2" font-family="Arial" font-size="14.00">name </text>
<text text-anchor="start" x="2031.15" y="-86.2" font-family="Arial" font-size="14.00" fill="#666666">[text]</text>
<polygon fill="none" stroke="black" points="1985.24,-43.2 1985.24,-74 2218.21,-74 2218.21,-43.2 1985.24,-43.2"/>
<text text-anchor="start" x="1992.24" y="-55.4" font-family="Arial" font-size="14.00">details </text>
<text text-anchor="start" x="2036.6" y="-55.4" font-family="Arial" font-size="14.00" fill="#666666">[text]</text>
</g>
<!-- public.logic&#45;&gt;public.model -->
<g id="edge11" class="edge">
<title>public.logic:model_key&#45;&gt;public.model:model_key</title>
<path fill="none" stroke="black" d="M2224.84,-465.48C2368.54,-450.64 2369.46,-120.2 2219.21,-120.2"/>
<polygon fill="black" stroke="black" points="2225.03,-465.47 2214.82,-461.49 2219.7,-465.75 2215.38,-465.97 2215.38,-465.97 2215.38,-465.97 2219.7,-465.75 2215.27,-470.48 2225.03,-465.47"/>
<text text-anchor="start" x="2221.71" y="-476" font-family="Arial" font-size="10.00">FOREIGN KEY (model_key) REFERENCES model(model_key) ON DELETE CASCADE</text>
</g>
<!-- public.invariant -->
<g id="node2" class="node">
<title>public.invariant</title>
<polygon fill="#efefef" stroke="none" points="241.75,-858 241.75,-893.6 493.7,-893.6 493.7,-858 241.75,-858"/>
<polygon fill="none" stroke="black" points="241.75,-858 241.75,-893.6 493.7,-893.6 493.7,-858 241.75,-858"/>
<text text-anchor="start" x="248.75" y="-871.4" font-family="Arial Bold" font-size="18.00">public.invariant</text>
<text text-anchor="start" x="362.21" y="-871.4" font-family="Arial" font-size="14.00">    </text>
<text text-anchor="start" x="393.33" y="-871.4" font-family="Arial" font-size="14.00" fill="#666666">[BASE TABLE]</text>
<polygon fill="none" stroke="black" points="241.75,-827.2 241.75,-858 493.7,-858 493.7,-827.2 241.75,-827.2"/>
<text text-anchor="start" x="248.75" y="-839.4" font-family="Arial" font-size="14.00">model_key </text>
<text text-anchor="start" x="320.34" y="-839.4" font-family="Arial" font-size="14.00" fill="#666666">[text]</text>
<polygon fill="none" stroke="black" points="241.75,-796.4 241.75,-827.2 493.7,-827.2 493.7,-796.4 241.75,-796.4"/>
<text text-anchor="start" x="248.75" y="-808.6" font-family="Arial" font-size="14.00">logic_key </text>
<text text-anchor="start" x="311" y="-808.6" font-family="Arial" font-size="14.00" fill="#666666">[text]</text>
</g>
<!-- public.invariant&#45;&gt;public.logic -->
<g id="edge1" class="edge">
<title>public.invariant:model_key&#45;&gt;public.logic:model_key</title>
<path fill="none" stroke="black" d="M504.65,-842C583.31,-831.71 475.64,-691.99 545.73,-630 666.59,-523.09 1827.37,-466 1988.74,-466"/>
<polygon fill="black" stroke="black" points="505.02,-841.98 494.77,-838.09 499.69,-842.3 495.37,-842.56 495.37,-842.56 495.37,-842.56 499.69,-842.3 495.31,-847.07 505.02,-841.98"/>
<text text-anchor="start" x="7" y="-852.6" font-family="Arial" font-size="10.00">FOREIGN KEY (model_key, logic_key) REFERENCES logic(model_key, logic_key) ON DELETE CASCADE</text>
</g>
<!-- public.global_function -->
<g id="node3" class="node">
<title>public.global_function</title>
<polygon fill="#efefef" stroke="none" points="597.75,-888.8 597.75,-924.4 899.7,-924.4 899.7,-888.8 597.75,-888.8"/>
<polygon fill="none" stroke="black" points="597.75,-888.8 597.75,-924.4 899.7,-924.4 899.7,-888.8 597.75,-888.8"/>
<text text-anchor="start" x="604.75" y="-902.2" font-family="Arial Bold" font-size="18.00">public.global_function</text>
<text text-anchor="start" x="768.21" y="-902.2" font-family="Arial" font-size="14.00">    </text>
<text text-anchor="start" x="799.33" y="-902.2" font-family="Arial" font-size="14.00" fill="#666666">[BASE TABLE]</text>
<polygon fill="none" stroke="black" points="597.75,-858 597.75,-888.8 899.7,-888.8 899.7,-858 597.75,-858"/>
<text text-anchor="start" x="604.75" y="-870.2" font-family="Arial" font-size="14.00">model_key </text>
<text text-anchor="start" x="676.34" y="-870.2" font-family="Arial" font-size="14.00" fill="#666666">[text]</text>
<polygon fill="none" stroke="black" points="597.75,-827.2 597.75,-858 899.7,-858 899.7,-827.2 597.75,-827.2"/>
<text text-anchor="start" x="604.75" y="-839.4" font-family="Arial" font-size="14.00">logic_key </text>
<text text-anchor="start" x="667" y="-839.4" font-family="Arial" font-size="14.00" fill="#666666">[text]</text>
<polygon fill="none" stroke="black" points="597.75,-796.4 597.75,-827.2 899.7,-827.2 899.7,-796.4 597.75,-796.4"/>
<text text-anchor="start" x="604.75" y="-808.6" font-family="Arial" font-size="14.00">name </text>
<text text-anchor="start" x="643.66" y="-808.6" font-family="Arial" font-size="14.00" fill="#666666">[text]</text>
<polygon fill="none" stroke="black" points="597.75,-765.6 597.75,-796.4 899.7,-796.4 899.7,-765.6 597.75,-765.6"/>
<text text-anchor="start" x="604.75" y="-777.8" font-family="Arial" font-size="14.00">parameters </text>
<text text-anchor="start" x="679.44" y="-777.8" font-family="Arial" font-size="14.00" fill="#666666">[text[]]</text>
</g>
<!-- public.global_function&#45;&gt;public.logic -->
<g id="edge2" class="edge">
<title>public.global_function:model_key&#45;&gt;public.logic:model_key</title>
<path fill="none" stroke="black" d="M910.9,-872.86C1002.21,-862.4 874.31,-703.66 951.73,-630 1120.76,-469.18 1755.43,-466 1988.74,-466"/>
<polygon fill="black" stroke="black" points="911.02,-872.85 900.8,-868.89 905.7,-873.13 901.37,-873.36 901.37,-873.36 901.37,-873.36 905.7,-873.13 901.28,-877.88 911.02,-872.85"/>
<text text-anchor="start" x="413" y="-883.4" font-family="Arial" font-size="10.00">FOREIGN KEY (model_key, logic_key) REFERENCES logic(model_key, logic_key) ON DELETE CASCADE</text>
</g>
<!-- public.attribute -->
<g id="node4" class="node">
<title>public.attribute</title>
<polygon fill="#efefef" stroke="none" points="1003.75,-981.2 1003.75,-1016.8 1251.7,-1016.8 1251.7,-981.2 1003.75,-981.2"/>
<polygon fill="none" stroke="black" points="1003.75,-981.2 1003.75,-1016.8 1251.7,-1016.8 1251.7,-981.2 1003.75,-981.2"/>
<text text-anchor="start" x="1010.75" y="-994.6" font-family="Arial Bold" font-size="18.00">public.attribute</text>
<text text-anchor="start" x="1120.21" y="-994.6" font-family="Arial" font-size="14.00">    </text>
<text text-anchor="start" x="1151.33" y="-994.6" font-family="Arial" font-size="14.00" fill="#666666">[BASE TABLE]</text>
<polygon fill="none" stroke="black" points="1003.75,-950.4 1003.75,-981.2 1251.7,-981.2 1251.7,-950.4 1003.75,-950.4"/>
<text text-anchor="start" x="1010.75" y="-962.6" font-family="Arial" font-size="14.00">model_key </text>
<text text-anchor="start" x="1082.34" y="-962.6" font-family="Arial" font-size="14.00" fill="#666666">[text]</text>
<polygon fill="none" stroke="black" points="1003.75,-919.6 1003.75,-950.4 1251.7,-950.4 1251.7,-919.6 1003.75,-919.6"/>
<text text-anchor="start" x="1010.75" y="-931.8" font-family="Arial" font-size="14.00">attribute_key </text>
<text text-anchor="start" x="1094.79" y="-931.8" font-family="Arial" font-size="14.00" fill="#666666">[text]</text>
<polygon fill="none" stroke="black" points="1003.75,-888.8 1003.75,-919.6 1251.7,-919.6 1251.7,-888.8 1003.75,-888.8"/>
<text text-anchor="start" x="1010.75" y="-901" font-family="Arial" font-size="14.00">class_key </text>
<text text-anchor="start" x="1076.1" y="-901" font-family="Arial" font-size="14.00" fill="#666666">[text]</text>
<polygon fill="none" stroke="black" points="1003.75,-858 1003.75,-888.8 1251.7,-888.8 1251.7,-858 1003.75,-858"/>
<text text-anchor="start" x="1010.75" y="-870.2" font-family="Arial" font-size="14.00">name </text>
<text text-anchor="start" x="1049.66" y="-870.2" font-family="Arial" font-size="14.00" fill="#666666">[text]</text>
<polygon fill="none" stroke="black" points="1003.75,-827.2 1003.75,-858 1251.7,-858 1251.7,-827.2 1003.75,-827.2"/>
<text text-anchor="start" x="1010.75" y="-839.4" font-family="Arial" font-size="14.00">details </text>
<text text-anchor="start" x="1055.1" y="-839.4" font-family="Arial" font-size="14.00" fill="#666666">[text]</text>
<polygon fill="none" stroke="black" points="1003.75,-796.4 1003.75,-827.2 1251.7,-827.2 1251.7,-796.4 1003.75,-796.4"/>
<text text-anchor="start" x="1010.75" y="-808.6" font-family="Arial" font-size="14.00">data_type_rules </text>
<text text-anchor="start" x="1114.26" y="-808.6" font-family="Arial" font-size="14.00" fill="#666666">[text]</text>
<polygon fill="none" stroke="black" points="1003.75,-765.6 1003.75,-796.4 1251.7,-796.4 1251.7,-765.6 1003.75,-765.6"/>
<text text-anchor="start" x="1010.75" y="-777.8" font-family="Arial" font-size="14.00">data_type_key </text>
<text text-anchor="start" x="1105.7" y="-777.8" font-family="Arial" font-size="14.00" fill="#666666">[text]</text>
<polygon fill="none" stroke="black" points="1003.75,-734.8 1003.75,-765.6 1251.7,-765.6 1251.7,-734.8 1003.75,-734.8"/>
<text text-anchor="start" x="1010.75" y="-747" font-family="Arial" font-size="14.00">derivation_policy_key </text>
<text text-anchor="start" x="1148.49" y="-747" font-family="Arial" font-size="14.00" fill="#666666">[text]</text>
<polygon fill="none" stroke="black" points="1003.75,-704 1003.75,-734.8 1251.7,-734.8 1251.7,-704 1003.75,-704"/>
<text text-anchor="start" x="1010.75" y="-716.2" font-family="Arial" font-size="14.00">nullable </text>
<text text-anchor="start" x="1062.9" y="-716.2" font-family="Arial" font-size="14.00" fill="#666666">[boolean]</text>
<polygon fill="none" stroke="black" points="1003.75,-673.2 1003.75,-704 1251.7,-704 1251.7,-673.2 1003.75,-673.2"/>
<text text-anchor="start" x="1010.75" y="-685.4" font-family="Arial" font-size="14.00">uml_comment </text>
<text text-anchor="start" x="1102.55" y="-685.4" font-family="Arial" font-size="14.00" fill="#666666">[text]</text>
</g>
<!-- public.attribute&#45;&gt;public.logic -->
<g id="edge3" class="edge">
<title>public.attribute:model_key&#45;&gt;public.logic:model_key</title>
<path fill="none" stroke="black" d="M1262.71,-963.85C1321.11,-938.97 1255.14,-682.86 1303.73,-630 1409.65,-514.76 1832.21,-466 1988.74,-466"/>
<polygon fill="black" stroke="black" points="1262.85,-963.83 1252.17,-961.32 1257.61,-964.85 1253.36,-965.67 1253.36,-965.67 1253.36,-965.67 1257.61,-964.85 1253.89,-970.15 1262.85,-963.83"/>
<text text-anchor="start" x="1259.7" y="-975.8" font-family="Arial" font-size="10.00">FOREIGN KEY (model_key, derivation_policy_key) REFERENCES logic(model_key, logic_key) ON DELETE CASCADE</text>
</g>
<!-- public.class_invariant -->
<g id="node5" class="node">
<title>public.class_invariant</title>
<polygon fill="#efefef" stroke="none" points="1355.75,-873.4 1355.75,-909 1651.7,-909 1651.7,-873.4 1355.75,-873.4"/>
<polygon fill="none" stroke="black" points="1355.75,-873.4 1355.75,-909 1651.7,-909 1651.7,-873.4 1355.75,-873.4"/>
<text text-anchor="start" x="1362.75" y="-886.8" font-family="Arial Bold" font-size="18.00">public.class_invariant</text>
<text text-anchor="start" x="1520.21" y="-886.8" font-family="Arial" font-size="14.00">    </text>
<text text-anchor="start" x="1551.33" y="-886.8" font-family="Arial" font-size="14.00" fill="#666666">[BASE TABLE]</text>
<polygon fill="none" stroke="black" points="1355.75,-842.6 1355.75,-873.4 1651.7,-873.4 1651.7,-842.6 1355.75,-842.6"/>
<text text-anchor="start" x="1362.75" y="-854.8" font-family="Arial" font-size="14.00">model_key </text>
<text text-anchor="start" x="1434.35" y="-854.8" font-family="Arial" font-size="14.00" fill="#666666">[text]</text>
<polygon fill="none" stroke="black" points="1355.75,-811.8 1355.75,-842.6 1651.7,-842.6 1651.7,-811.8 1355.75,-811.8"/>
<text text-anchor="start" x="1362.75" y="-824" font-family="Arial" font-size="14.00">class_key </text>
<text text-anchor="start" x="1428.11" y="-824" font-family="Arial" font-size="14.00" fill="#666666">[text]</text>
<polygon fill="none" stroke="black" points="1355.75,-781 1355.75,-811.8 1651.7,-811.8 1651.7,-781 1355.75,-781"/>
<text text-anchor="start" x="1362.75" y="-793.2" font-family="Arial" font-size="14.00">logic_key </text>
<text text-anchor="start" x="1425.01" y="-793.2" font-family="Arial" font-size="14.00" fill="#666666">[text]</text>
</g>
<!-- public.class_invariant&#45;&gt;public.logic -->
<g id="edge4" class="edge">
<title>public.class_invariant:model_key&#45;&gt;public.logic:model_key</title>
<path fill="none" stroke="black" d="M1663.12,-857.44C1748.5,-847.65 1644.4,-710.61 1703.73,-630 1790.35,-512.29 1842.59,-466 1988.74,-466"/>
<polygon fill="black" stroke="black" points="1663.02,-857.45 1652.79,-853.49 1657.69,-857.73 1653.37,-857.96 1653.37,-857.96 1653.37,-857.96 1657.69,-857.73 1653.27,-862.48 1663.02,-857.45"/>
<text text-anchor="start" x="1164.99" y="-868" font-family="Arial" font-size="10.00">FOREIGN KEY (model_key, logic_key) REFERENCES logic(model_key, logic_key) ON DELETE CASCADE</text>
</g>
<!-- public.query_require -->
<g id="node6" class="node">
<title>public.query_require</title>
<polygon fill="#efefef" stroke="none" points="1756.26,-873.4 1756.26,-909 2045.19,-909 2045.19,-873.4 1756.26,-873.4"/>
<polygon fill="none" stroke="black" points="1756.26,-873.4 1756.26,-909 2045.19,-909 2045.19,-873.4 1756.26,-873.4"/>
<text text-anchor="start" x="1763.26" y="-886.8" font-family="Arial Bold" font-size="18.00">public.query_require</text>
<text text-anchor="start" x="1913.7" y="-886.8" font-family="Arial" font-size="14.00">    </text>
<text text-anchor="start" x="1944.82" y="-886.8" font-family="Arial" font-size="14.00" fill="#666666">[BASE TABLE]</text>
<polygon fill="none" stroke="black" points="1756.26,-842.6 1756.26,-873.4 2045.19,-873.4 2045.19,-842.6 1756.26,-842.6"/>
<text text-anchor="start" x="1763.26" y="-854.8" font-family="Arial" font-size="14.00">model_key </text>
<text text-anchor="start" x="1834.85" y="-854.8" font-family="Arial" font-size="14.00" fill="#666666">[text]</text>
<polygon fill="none" stroke="black" points="1756.26,-811.8 1756.26,-842.6 2045.19,-842.6 2045.19,-811.8 1756.26,-811.8"/>
<text text-anchor="start" x="1763.26" y="-824" font-family="Arial" font-size="14.00">query_key </text>
<text text-anchor="start" x="1831.74" y="-824" font-family="Arial" font-size="14.00" fill="#666666">[text]</text>
<polygon fill="none" stroke="black" points="1756.26,-781 1756.26,-811.8 2045.19,-811.8 2045.19,-781 1756.26,-781"/>
<text text-anchor="start" x="1763.26" y="-793.2" font-family="Arial" font-size="14.00">logic_key </text>
<text text-anchor="start" x="1825.51" y="-793.2" font-family="Arial" font-size="14.00" fill="#666666">[text]</text>
</g>
<!-- public.query_require&#45;&gt;public.logic -->
<g id="edge5" class="edge">
<title>public.query_require:model_key&#45;&gt;public.logic:model_key</title>
<path fill="none" stroke="black" d="M2056.3,-857.51C2205.72,-842.09 1816.27,-466 1988.74,-466"/>
<polygon fill="black" stroke="black" points="2056.51,-857.5 2046.31,-853.49 2051.19,-857.76 2046.86,-857.97 2046.86,-857.97 2046.86,-857.97 2051.19,-857.76 2046.74,-862.48 2056.51,-857.5"/>
<text text-anchor="start" x="1805.84" y="-842" font-family="Arial" font-size="10.00">FOREIGN KEY (model_key, logic_key) REFERENCES logic(model_key, logic_key) ON DELETE CASCADE</text>
</g>
<!-- public.query_guarantee -->
<g id="node7" class="node">
<title>public.query_guarantee</title>
<polygon fill="#efefef" stroke="none" points="2149.77,-873.4 2149.77,-909 2457.68,-909 2457.68,-873.4 2149.77,-873.4"/>
<polygon fill="none" stroke="black" points="2149.77,-873.4 2149.77,-909 2457.68,-909 2457.68,-873.4 2149.77,-873.4"/>
<text text-anchor="start" x="2156.77" y="-886.8" font-family="Arial Bold" font-size="18.00">public.query_guarantee</text>
<text text-anchor="start" x="2326.19" y="-886.8" font-family="Arial" font-size="14.00">    </text>
<text text-anchor="start" x="2357.31" y="-886.8" font-family="Arial" font-size="14.00" fill="#666666">[BASE TABLE]</text>
<polygon fill="none" stroke="black" points="2149.77,-842.6 2149.77,-873.4 2457.68,-873.4 2457.68,-842.6 2149.77,-842.6"/>
<text text-anchor="start" x="2156.77" y="-854.8" font-family="Arial" font-size="14.00">model_key </text>
<text text-anchor="start" x="2228.36" y="-854.8" font-family="Arial" font-size="14.00" fill="#666666">[text]</text>
<polygon fill="none" stroke="black" points="2149.77,-811.8 2149.77,-842.6 2457.68,-842.6 2457.68,-811.8 2149.77,-811.8"/>
<text text-anchor="start" x="2156.77" y="-824" font-family="Arial" font-size="14.00">query_key </text>
<text text-anchor="start" x="2225.25" y="-824" font-family="Arial" font-size="14.00" fill="#666666">[text]</text>
<polygon fill="none" stroke="black" points="2149.77,-781 2149.77,-811.8 2457.68,-811.8 2457.68,-781 2149.77,-781"/>
<text text-anchor="start" x="2156.77" y="-793.2" font-family="Arial" font-size="14.00">logic_key </text>
<text text-anchor="start" x="2219.02" y="-793.2" font-family="Arial" font-size="14.00" fill="#666666">[text]</text>
</g>
<!-- public.query_guarantee&#45;&gt;public.logic -->
<g id="edge6" class="edge">
<title>public.query_guarantee:model_key&#45;&gt;public.logic:model_key</title>
<path fill="none" stroke="black" d="M2138.64,-857.51C1989.04,-842.09 2387.76,-466 2214.71,-466"/>
<polygon fill="black" stroke="black" points="2138.44,-857.5 2148.22,-862.48 2143.77,-857.76 2148.1,-857.97 2148.1,-857.97 2148.1,-857.97 2143.77,-857.76 2148.65,-853.49 2138.44,-857.5"/>
<text text-anchor="start" x="2155.77" y="-868" font-family="Arial" font-size="10.00">FOREIGN KEY (model_key, logic_key) REFERENCES logic(model_key, logic_key) ON DELETE CASCADE</text>
</g>
<!-- public.guard -->
<g id="node8" class="node">
<title>public.guard</title>
<polygon fill="#efefef" stroke="none" points="2562.24,-888.8 2562.24,-924.4 2791.21,-924.4 2791.21,-888.8 2562.24,-888.8"/>
<polygon fill="none" stroke="black" points="2562.24,-888.8 2562.24,-924.4 2791.21,-924.4 2791.21,-888.8 2562.24,-888.8"/>
<text text-anchor="start" x="2569.24" y="-902.2" font-family="Arial Bold" font-size="18.00">public.guard</text>
<text text-anchor="start" x="2659.72" y="-902.2" font-family="Arial" font-size="14.00">    </text>
<text text-anchor="start" x="2690.83" y="-902.2" font-family="Arial" font-size="14.00" fill="#666666">[BASE TABLE]</text>
<polygon fill="none" stroke="black" points="2562.24,-858 2562.24,-888.8 2791.21,-888.8 2791.21,-858 2562.24,-858"/>
<text text-anchor="start" x="2569.24" y="-870.2" font-family="Arial" font-size="14.00">model_key </text>
<text text-anchor="start" x="2640.84" y="-870.2" font-family="Arial" font-size="14.00" fill="#666666">[text]</text>
<polygon fill="none" stroke="black" points="2562.24,-827.2 2562.24,-858 2791.21,-858 2791.21,-827.2 2562.24,-827.2"/>
<text text-anchor="start" x="2569.24" y="-839.4" font-family="Arial" font-size="14.00">class_key </text>
<text text-anchor="start" x="2634.6" y="-839.4" font-family="Arial" font-size="14.00" fill="#666666">[text]</text>
<polygon fill="none" stroke="black" points="2562.24,-796.4 2562.24,-827.2 2791.21,-827.2 2791.21,-796.4 2562.24,-796.4"/>
<text text-anchor="start" x="2569.24" y="-808.6" font-family="Arial" font-size="14.00">guard_key </text>
<text text-anchor="start" x="2638.51" y="-808.6" font-family="Arial" font-size="14.00" fill="#666666">[text]</text>
<polygon fill="none" stroke="black" points="2562.24,-765.6 2562.24,-796.4 2791.21,-796.4 2791.21,-765.6 2562.24,-765.6"/>
<text text-anchor="start" x="2569.24" y="-777.8" font-family="Arial" font-size="14.00">name </text>
<text text-anchor="start" x="2608.15" y="-777.8" font-family="Arial" font-size="14.00" fill="#666666">[text]</text>
</g>
<!-- public.guard&#45;&gt;public.logic -->
<g id="edge7" class="edge">
<title>public.guard:model_key&#45;&gt;public.logic:model_key</title>
<path fill="none" stroke="black" d="M2550.99,-872.9C2458.74,-863.22 2573.22,-716 2509.73,-630 2420.62,-509.32 2364.73,-466 2214.71,-466"/>
<polygon fill="black" stroke="black" points="2550.92,-872.89 2560.69,-877.88 2556.25,-873.16 2560.58,-873.37 2560.58,-873.37 2560.58,-873.37 2556.25,-873.16 2561.13,-868.89 2550.92,-872.89"/>
<text text-anchor="start" x="2568.24" y="-883.4" font-family="Arial" font-size="10.00">FOREIGN KEY (model_key, guard_key) REFERENCES logic(model_key, logic_key) ON DELETE CASCADE</text>
</g>
<!-- public.action_require -->
<g id="node9" class="node">
<title>public.action_require</title>
<polygon fill="#efefef" stroke="none" points="2895.76,-873.4 2895.76,-909 3187.69,-909 3187.69,-873.4 2895.76,-873.4"/>
<polygon fill="none" stroke="black" points="2895.76,-873.4 2895.76,-909 3187.69,-909 3187.69,-873.4 2895.76,-873.4"/>
<text text-anchor="start" x="2902.76" y="-886.8" font-family="Arial Bold" font-size="18.00">public.action_require</text>
<text text-anchor="start" x="3056.2" y="-886.8" font-family="Arial" font-size="14.00">    </text>
<text text-anchor="start" x="3087.32" y="-886.8" font-family="Arial" font-size="14.00" fill="#666666">[BASE TABLE]</text>
<polygon fill="none" stroke="black" points="2895.76,-842.6 2895.76,-873.4 3187.69,-873.4 3187.69,-842.6 2895.76,-842.6"/>
<text text-anchor="start" x="2902.76" y="-854.8" font-family="Arial" font-size="14.00">model_key </text>
<text text-anchor="start" x="2974.35" y="-854.8" font-family="Arial" font-size="14.00" fill="#666666">[text]</text>
<polygon fill="none" stroke="black" points="2895.76,-811.8 2895.76,-842.6 3187.69,-842.6 3187.69,-811.8 2895.76,-811.8"/>
<text text-anchor="start" x="2902.76" y="-824" font-family="Arial" font-size="14.00">action_key </text>
<text text-anchor="start" x="2973.58" y="-824" font-family="Arial" font-size="14.00" fill="#666666">[text]</text>
<polygon fill="none" stroke="black" points="2895.76,-781 2895.76,-811.8 3187.69,-811.8 3187.69,-781 2895.76,-781"/>
<text text-anchor="start" x="2902.76" y="-793.2" font-family="Arial" font-size="14.00">logic_key </text>
<text text-anchor="start" x="2965.02" y="-793.2" font-family="Arial" font-size="14.00" fill="#666666">[text]</text>
</g>
<!-- public.action_require&#45;&gt;public.logic -->
<g id="edge8" class="edge">
<title>public.action_require:model_key&#45;&gt;public.logic:model_key</title>
<path fill="none" stroke="black" d="M2884.38,-857.41C2799.69,-847.02 2913.26,-702 2843.73,-630 2743.38,-526.09 2359.16,-466 2214.71,-466"/>
<polygon fill="black" stroke="black" points="2884.44,-857.41 2894.17,-862.47 2889.77,-857.72 2894.09,-857.96 2894.09,-857.96 2894.09,-857.96 2889.77,-857.72 2894.68,-853.49 2884.44,-857.41"/>
<text text-anchor="start" x="2654.41" y="-842" font-family="Arial" font-size="10.00">FOREIGN KEY (model_key, logic_key) REFERENCES logic(model_key, logic_key) ON DELETE CASCADE</text>
</g>
<!-- public.action_guarantee -->
<g id="node10" class="node">
<title>public.action_guarantee</title>
<polygon fill="#efefef" stroke="none" points="3292.27,-873.4 3292.27,-909 3603.18,-909 3603.18,-873.4 3292.27,-873.4"/>
<polygon fill="none" stroke="black" points="3292.27,-873.4 3292.27,-909 3603.18,-909 3603.18,-873.4 3292.27,-873.4"/>
<text text-anchor="start" x="3299.27" y="-886.8" font-family="Arial Bold" font-size="18.00">public.action_guarantee</text>
<text text-anchor="start" x="3471.69" y="-886.8" font-family="Arial" font-size="14.00">    </text>
<text text-anchor="start" x="3502.81" y="-886.8" font-family="Arial" font-size="14.00" fill="#666666">[BASE TABLE]</text>
<polygon fill="none" stroke="black" points="3292.27,-842.6 3292.27,-873.4 3603.18,-873.4 3603.18,-842.6 3292.27,-842.6"/>
<text text-anchor="start" x="3299.27" y="-854.8" font-family="Arial" font-size="14.00">model_key </text>
<text text-anchor="start" x="3370.86" y="-854.8" font-family="Arial" font-size="14.00" fill="#666666">[text]</text>
<polygon fill="none" stroke="black" points="3292.27,-811.8 3292.27,-842.6 3603.18,-842.6 3603.18,-811.8 3292.27,-811.8"/>
<text text-anchor="start" x="3299.27" y="-824" font-family="Arial" font-size="14.00">action_key </text>
<text text-anchor="start" x="3370.09" y="-824" font-family="Arial" font-size="14.00" fill="#666666">[text]</text>
<polygon fill="none" stroke="black" points="3292.27,-781 3292.27,-811.8 3603.18,-811.8 3603.18,-781 3292.27,-781"/>
<text text-anchor="start" x="3299.27" y="-793.2" font-family="Arial" font-size="14.00">logic_key </text>
<text text-anchor="start" x="3361.52" y="-793.2" font-family="Arial" font-size="14.00" fill="#666666">[text]</text>
</g>
<!-- public.action_guarantee&#45;&gt;public.logic -->
<g id="edge9" class="edge">
<title>public.action_guarantee:model_key&#45;&gt;public.logic:model_key</title>
<path fill="none" stroke="black" d="M3280.9,-857.4C3196.37,-846.77 3312.75,-698.52 3239.73,-630 3071.5,-472.16 2445.39,-466 2214.71,-466"/>
<polygon fill="black" stroke="black" points="3280.95,-857.4 3290.67,-862.47 3286.28,-857.71 3290.6,-857.96 3290.6,-857.96 3290.6,-857.96 3286.28,-857.71 3291.2,-853.49 3280.95,-857.4"/>
<text text-anchor="start" x="2803.57" y="-868" font-family="Arial" font-size="10.00">FOREIGN KEY (model_key, logic_key) REFERENCES logic(model_key, logic_key) ON DELETE CASCADE</text>
</g>
<!-- public.action_safety -->
<g id="node11" class="node">
<title>public.action_safety</title>
<polygon fill="#efefef" stroke="none" points="3707.76,-873.4 3707.76,-909 3991.69,-909 3991.69,-873.4 3707.76,-873.4"/>
<polygon fill="none" stroke="black" points="3707.76,-873.4 3707.76,-909 3991.69,-909 3991.69,-873.4 3707.76,-873.4"/>
<text text-anchor="start" x="3714.76" y="-886.8" font-family="Arial Bold" font-size="18.00">public.action_safety</text>
<text text-anchor="start" x="3860.21" y="-886.8" font-family="Arial" font-size="14.00">    </text>
<text text-anchor="start" x="3891.32" y="-886.8" font-family="Arial" font-size="14.00" fill="#666666">[BASE TABLE]</text>
<polygon fill="none" stroke="black" points="3707.76,-842.6 3707.76,-873.4 3991.69,-873.4 3991.69,-842.6 3707.76,-842.6"/>
<text text-anchor="start" x="3714.76" y="-854.8" font-family="Arial" font-size="14.00">model_key </text>
<text text-anchor="start" x="3786.35" y="-854.8" font-family="Arial" font-size="14.00" fill="#666666">[text]</text>
<polygon fill="none" stroke="black" points="3707.76,-811.8 3707.76,-842.6 3991.69,-842.6 3991.69,-811.8 3707.76,-811.8"/>
<text text-anchor="start" x="3714.76" y="-824" font-family="Arial" font-size="14.00">action_key </text>
<text text-anchor="start" x="3785.58" y="-824" font-family="Arial" font-size="14.00" fill="#666666">[text]</text>
<polygon fill="none" stroke="black" points="3707.76,-781 3707.76,-811.8 3991.69,-811.8 3991.69,-781 3707.76,-781"/>
<text text-anchor="start" x="3714.76" y="-793.2" font-family="Arial" font-size="14.00">logic_key </text>
<text text-anchor="start" x="3777.01" y="-793.2" font-family="Arial" font-size="14.00" fill="#666666">[text]</text>
</g>
<!-- public.action_safety&#45;&gt;public.logic -->
<g id="edge10" class="edge">
<title>public.action_safety:model_key&#45;&gt;public.logic:model_key</title>
<path fill="none" stroke="black" d="M3696.39,-857.39C3612.04,-846.66 3730.18,-696.89 3655.73,-630 3535.85,-522.3 2375.86,-466 2214.71,-466"/>
<polygon fill="black" stroke="black" points="3696.44,-857.39 3706.16,-862.47 3701.76,-857.71 3706.09,-857.96 3706.09,-857.96 3706.09,-857.96 3701.76,-857.71 3706.69,-853.49 3696.44,-857.39"/>
<text text-anchor="start" x="3713.76" y="-868" font-family="Arial" font-size="10.00">FOREIGN KEY (model_key, logic_key) REFERENCES logic(model_key, logic_key) ON DELETE CASCADE</text>
</g>
</g>
</svg>
