<?xml version="1.0" encoding="UTF-8" standalone="no"?>
<!DOCTYPE svg PUBLIC "-//W3C//DTD SVG 1.1//EN"
 "http://www.w3.org/Graphics/SVG/1.1/DTD/svg11.dtd">
<!-- Generated by graphviz version 12.1.2 (20240928.0832)
 -->
<!-- Title: public.actor Pages: 1 -->
<svg width="1273pt" height="1191pt"
 viewBox="0.00 0.00 1272.73 1191.20" xmlns="http://www.w3.org/2000/svg" xmlns:xlink="http://www.w3.org/1999/xlink">
<g id="graph0" class="graph" transform="scale(1 1) rotate(0) translate(4 1187.2)">
<title>public.actor</title>
<polygon fill="white" stroke="none" points="-4,4 -4,-1187.2 1268.73,-1187.2 1268.73,4 -4,4"/>
<!-- public.actor -->
<g id="node1" class="node">
<title>public.actor</title>
<polygon fill="#efefef" stroke="none" points="420.26,-666.2 420.26,-701.8 644.21,-701.8 644.21,-666.2 420.26,-666.2"/>
<polygon fill="none" stroke="black" points="420.26,-666.2 420.26,-701.8 644.21,-701.8 644.21,-666.2 420.26,-666.2"/>
<text text-anchor="start" x="427.26" y="-679.6" font-family="Arial Bold" font-size="18.00">public.actor</text>
<text text-anchor="start" x="512.73" y="-679.6" font-family="Arial" font-size="14.00">    </text>
<text text-anchor="start" x="543.84" y="-679.6" font-family="Arial" font-size="14.00" fill="#666666">[BASE TABLE]</text>
<polygon fill="none" stroke="black" points="420.26,-635.4 420.26,-666.2 644.21,-666.2 644.21,-635.4 420.26,-635.4"/>
<text text-anchor="start" x="427.26" y="-647.6" font-family="Arial" font-size="14.00">model_key </text>
<text text-anchor="start" x="498.85" y="-647.6" font-family="Arial" font-size="14.00" fill="#666666">[text]</text>
<polygon fill="none" stroke="black" points="420.26,-604.6 420.26,-635.4 644.21,-635.4 644.21,-604.6 420.26,-604.6"/>
<text text-anchor="start" x="427.26" y="-616.8" font-family="Arial" font-size="14.00">actor_key </text>
<text text-anchor="start" x="491.85" y="-616.8" font-family="Arial" font-size="14.00" fill="#666666">[text]</text>
<polygon fill="none" stroke="black" points="420.26,-573.8 420.26,-604.6 644.21,-604.6 644.21,-573.8 420.26,-573.8"/>
<text text-anchor="start" x="427.26" y="-586" font-family="Arial" font-size="14.00">name </text>
<text text-anchor="start" x="466.17" y="-586" font-family="Arial" font-size="14.00" fill="#666666">[text]</text>
<polygon fill="none" stroke="black" points="420.26,-543 420.26,-573.8 644.21,-573.8 644.21,-543 420.26,-543"/>
<text text-anchor="start" x="427.26" y="-555.2" font-family="Arial" font-size="14.00">details </text>
<text text-anchor="start" x="471.62" y="-555.2" font-family="Arial" font-size="14.00" fill="#666666">[text]</text>
<polygon fill="none" stroke="black" points="420.26,-512.2 420.26,-543 644.21,-543 644.21,-512.2 420.26,-512.2"/>
<text text-anchor="start" x="427.26" y="-524.4" font-family="Arial" font-size="14.00">actor_type </text>
<text text-anchor="start" x="496.52" y="-524.4" font-family="Arial" font-size="14.00" fill="#666666">[actor_type]</text>
<polygon fill="none" stroke="black" points="420.26,-481.4 420.26,-512.2 644.21,-512.2 644.21,-481.4 420.26,-481.4"/>
<text text-anchor="start" x="427.26" y="-493.6" font-family="Arial" font-size="14.00">superclass_of_key </text>
<text text-anchor="start" x="547.1" y="-493.6" font-family="Arial" font-size="14.00" fill="#666666">[text]</text>
<polygon fill="none" stroke="black" points="420.26,-450.6 420.26,-481.4 644.21,-481.4 644.21,-450.6 420.26,-450.6"/>
<text text-anchor="start" x="427.26" y="-462.8" font-family="Arial" font-size="14.00">subclass_of_key </text>
<text text-anchor="start" x="534.65" y="-462.8" font-family="Arial" font-size="14.00" fill="#666666">[text]</text>
<polygon fill="none" stroke="black" points="420.26,-419.8 420.26,-450.6 644.21,-450.6 644.21,-419.8 420.26,-419.8"/>
<text text-anchor="start" x="427.26" y="-432" font-family="Arial" font-size="14.00">uml_comment </text>
<text text-anchor="start" x="519.07" y="-432" font-family="Arial" font-size="14.00" fill="#666666">[text]</text>
<polygon fill="none" stroke="black" stroke-width="3" points="418.76,-418.3 418.76,-703.3 645.71,-703.3 645.71,-418.3 418.76,-418.3"/>
</g>
<!-- public.model -->
<g id="node2" class="node">
<title>public.model</title>
<polygon fill="#efefef" stroke="none" points="49.75,-197.2 49.75,-232.8 282.72,-232.8 282.72,-197.2 49.75,-197.2"/>
<polygon fill="none" stroke="black" points="49.75,-197.2 49.75,-232.8 282.72,-232.8 282.72,-197.2 49.75,-197.2"/>
<text text-anchor="start" x="56.75" y="-210.6" font-family="Arial Bold" font-size="18.00">public.model</text>
<text text-anchor="start" x="151.23" y="-210.6" font-family="Arial" font-size="14.00">    </text>
<text text-anchor="start" x="182.35" y="-210.6" font-family="Arial" font-size="14.00" fill="#666666">[BASE TABLE]</text>
<polygon fill="none" stroke="black" points="49.75,-166.4 49.75,-197.2 282.72,-197.2 282.72,-166.4 49.75,-166.4"/>
<text text-anchor="start" x="56.75" y="-178.6" font-family="Arial" font-size="14.00">model_key </text>
<text text-anchor="start" x="128.34" y="-178.6" font-family="Arial" font-size="14.00" fill="#666666">[text]</text>
<polygon fill="none" stroke="black" points="49.75,-135.6 49.75,-166.4 282.72,-166.4 282.72,-135.6 49.75,-135.6"/>
<text text-anchor="start" x="56.75" y="-147.8" font-family="Arial" font-size="14.00">name </text>
<text text-anchor="start" x="95.66" y="-147.8" font-family="Arial" font-size="14.00" fill="#666666">[text]</text>
<polygon fill="none" stroke="black" points="49.75,-104.8 49.75,-135.6 282.72,-135.6 282.72,-104.8 49.75,-104.8"/>
<text text-anchor="start" x="56.75" y="-117" font-family="Arial" font-size="14.00">details </text>
<text text-anchor="start" x="101.11" y="-117" font-family="Arial" font-size="14.00" fill="#666666">[text]</text>
</g>
<!-- public.actor&#45;&gt;public.model -->
<g id="edge1" class="edge">
<title>public.actor:model_key&#45;&gt;public.model:model_key</title>
<path fill="none" stroke="black" d="M412.37,-643.43C380.37,-583.77 308.83,-181.8 283.72,-181.8"/>
<polygon fill="black" stroke="black" points="412.2,-643.25 415.75,-653.63 415.85,-647.15 418.8,-650.31 418.8,-650.31 418.8,-650.31 415.85,-647.15 422.32,-647.48 412.2,-643.25"/>
<text text-anchor="start" x="19.38" y="-660.8" font-family="Arial" font-size="10.00">FOREIGN KEY (model_key) REFERENCES model(model_key) ON DELETE CASCADE</text>
</g>
<!-- public.generalization -->
<g id="node3" class="node">
<title>public.generalization</title>
<polygon fill="#efefef" stroke="none" points="387.28,-258.8 387.28,-294.4 677.2,-294.4 677.2,-258.8 387.28,-258.8"/>
<polygon fill="none" stroke="black" points="387.28,-258.8 387.28,-294.4 677.2,-294.4 677.2,-258.8 387.28,-258.8"/>
<text text-anchor="start" x="394.28" y="-272.2" font-family="Arial Bold" font-size="18.00">public.generalization</text>
<text text-anchor="start" x="545.71" y="-272.2" font-family="Arial" font-size="14.00">    </text>
<text text-anchor="start" x="576.83" y="-272.2" font-family="Arial" font-size="14.00" fill="#666666">[BASE TABLE]</text>
<polygon fill="none" stroke="black" points="387.28,-228 387.28,-258.8 677.2,-258.8 677.2,-228 387.28,-228"/>
<text text-anchor="start" x="394.28" y="-240.2" font-family="Arial" font-size="14.00">model_key </text>
<text text-anchor="start" x="465.87" y="-240.2" font-family="Arial" font-size="14.00" fill="#666666">[text]</text>
<polygon fill="none" stroke="black" points="387.28,-197.2 387.28,-228 677.2,-228 677.2,-197.2 387.28,-197.2"/>
<text text-anchor="start" x="394.28" y="-209.4" font-family="Arial" font-size="14.00">generalization_key </text>
<text text-anchor="start" x="514.91" y="-209.4" font-family="Arial" font-size="14.00" fill="#666666">[text]</text>
<polygon fill="none" stroke="black" points="387.28,-166.4 387.28,-197.2 677.2,-197.2 677.2,-166.4 387.28,-166.4"/>
<text text-anchor="start" x="394.28" y="-178.6" font-family="Arial" font-size="14.00">name </text>
<text text-anchor="start" x="433.19" y="-178.6" font-family="Arial" font-size="14.00" fill="#666666">[text]</text>
<polygon fill="none" stroke="black" points="387.28,-135.6 387.28,-166.4 677.2,-166.4 677.2,-135.6 387.28,-135.6"/>
<text text-anchor="start" x="394.28" y="-147.8" font-family="Arial" font-size="14.00">is_complete </text>
<text text-anchor="start" x="472.87" y="-147.8" font-family="Arial" font-size="14.00" fill="#666666">[boolean]</text>
<polygon fill="none" stroke="black" points="387.28,-104.8 387.28,-135.6 677.2,-135.6 677.2,-104.8 387.28,-104.8"/>
<text text-anchor="start" x="394.28" y="-117" font-family="Arial" font-size="14.00">is_static </text>
<text text-anchor="start" x="448.74" y="-117" font-family="Arial" font-size="14.00" fill="#666666">[boolean]</text>
<polygon fill="none" stroke="black" points="387.28,-74 387.28,-104.8 677.2,-104.8 677.2,-74 387.28,-74"/>
<text text-anchor="start" x="394.28" y="-86.2" font-family="Arial" font-size="14.00">details </text>
<text text-anchor="start" x="438.63" y="-86.2" font-family="Arial" font-size="14.00" fill="#666666">[text]</text>
<polygon fill="none" stroke="black" points="387.28,-43.2 387.28,-74 677.2,-74 677.2,-43.2 387.28,-43.2"/>
<text text-anchor="start" x="394.28" y="-55.4" font-family="Arial" font-size="14.00">uml_comment </text>
<text text-anchor="start" x="486.08" y="-55.4" font-family="Arial" font-size="14.00" fill="#666666">[text]</text>
</g>
<!-- public.actor&#45;&gt;public.generalization -->
<g id="edge2" class="edge">
<title>public.actor:model_key&#45;&gt;public.generalization:model_key</title>
<path fill="none" stroke="black" d="M655.17,-650.34C819.08,-635.04 847.49,-243.4 678.2,-243.4"/>
<polygon fill="black" stroke="black" points="655.54,-650.32 645.34,-646.29 650.21,-650.57 645.88,-650.77 645.88,-650.77 645.88,-650.77 650.21,-650.57 645.76,-655.28 655.54,-650.32"/>
<text text-anchor="start" x="652.21" y="-660.8" font-family="Arial" font-size="10.00">FOREIGN KEY (model_key, subclass_of_key) REFERENCES generalization(model_key, generalization_key) ON DELETE CASCADE</text>
</g>
<!-- public.actor&#45;&gt;public.generalization -->
<g id="edge3" class="edge">
<title>public.actor:model_key&#45;&gt;public.generalization:model_key</title>
<path fill="none" stroke="black" d="M655.92,-650.36C836.96,-635.45 865.2,-243.79 678.48,-243.4"/>
<polygon fill="black" stroke="black" points="655.82,-650.37 645.64,-646.29 650.49,-650.59 646.16,-650.77 646.16,-650.77 646.16,-650.77 650.49,-650.59 646.02,-655.28 655.82,-650.37"/>
<text text-anchor="start" x="652.49" y="-634.8" font-family="Arial" font-size="10.00">FOREIGN KEY (model_key, superclass_of_key) REFERENCES generalization(model_key, generalization_key) ON DELETE CASCADE</text>
</g>
<!-- public.use_case_actor -->
<g id="node4" class="node">
<title>public.use_case_actor</title>
<polygon fill="#efefef" stroke="none" points="201.78,-1027.4 201.78,-1063 498.7,-1063 498.7,-1027.4 201.78,-1027.4"/>
<polygon fill="none" stroke="black" points="201.78,-1027.4 201.78,-1063 498.7,-1063 498.7,-1027.4 201.78,-1027.4"/>
<text text-anchor="start" x="208.78" y="-1040.8" font-family="Arial Bold" font-size="18.00">public.use_case_actor</text>
<text text-anchor="start" x="367.21" y="-1040.8" font-family="Arial" font-size="14.00">    </text>
<text text-anchor="start" x="398.33" y="-1040.8" font-family="Arial" font-size="14.00" fill="#666666">[BASE TABLE]</text>
<polygon fill="none" stroke="black" points="201.78,-996.6 201.78,-1027.4 498.7,-1027.4 498.7,-996.6 201.78,-996.6"/>
<text text-anchor="start" x="208.78" y="-1008.8" font-family="Arial" font-size="14.00">model_key </text>
<text text-anchor="start" x="280.37" y="-1008.8" font-family="Arial" font-size="14.00" fill="#666666">[text]</text>
<polygon fill="none" stroke="black" points="201.78,-965.8 201.78,-996.6 498.7,-996.6 498.7,-965.8 201.78,-965.8"/>
<text text-anchor="start" x="208.78" y="-978" font-family="Arial" font-size="14.00">use_case_key </text>
<text text-anchor="start" x="302.17" y="-978" font-family="Arial" font-size="14.00" fill="#666666">[text]</text>
<polygon fill="none" stroke="black" points="201.78,-935 201.78,-965.8 498.7,-965.8 498.7,-935 201.78,-935"/>
<text text-anchor="start" x="208.78" y="-947.2" font-family="Arial" font-size="14.00">actor_key </text>
<text text-anchor="start" x="273.36" y="-947.2" font-family="Arial" font-size="14.00" fill="#666666">[text]</text>
<polygon fill="none" stroke="black" points="201.78,-904.2 201.78,-935 498.7,-935 498.7,-904.2 201.78,-904.2"/>
<text text-anchor="start" x="208.78" y="-916.4" font-family="Arial" font-size="14.00">uml_comment </text>
<text text-anchor="start" x="300.58" y="-916.4" font-family="Arial" font-size="14.00" fill="#666666">[text]</text>
</g>
<!-- public.use_case_actor&#45;&gt;public.actor -->
<g id="edge4" class="edge">
<title>public.use_case_actor:model_key&#45;&gt;public.actor:model_key</title>
<path fill="none" stroke="black" d="M510.02,-1011.18C561.48,-1002.22 517.81,-921.36 498.7,-861 480.24,-802.72 438.83,-806.25 420.26,-748 407.14,-706.84 376.06,-650.8 419.26,-650.8"/>
<polygon fill="black" stroke="black" points="510,-1011.18 499.68,-1007.49 504.68,-1011.61 500.37,-1011.95 500.37,-1011.95 500.37,-1011.95 504.68,-1011.61 500.39,-1016.46 510,-1011.18"/>
<text text-anchor="start" x="7" y="-996" font-family="Arial" font-size="10.00">FOREIGN KEY (model_key, actor_key) REFERENCES actor(model_key, actor_key) ON DELETE CASCADE</text>
</g>
<!-- public.class -->
<g id="node5" class="node">
<title>public.class</title>
<polygon fill="#efefef" stroke="none" points="602.75,-1104.4 602.75,-1140 825.72,-1140 825.72,-1104.4 602.75,-1104.4"/>
<polygon fill="none" stroke="black" points="602.75,-1104.4 602.75,-1140 825.72,-1140 825.72,-1104.4 602.75,-1104.4"/>
<text text-anchor="start" x="609.75" y="-1117.8" font-family="Arial Bold" font-size="18.00">public.class</text>
<text text-anchor="start" x="694.23" y="-1117.8" font-family="Arial" font-size="14.00">    </text>
<text text-anchor="start" x="725.35" y="-1117.8" font-family="Arial" font-size="14.00" fill="#666666">[BASE TABLE]</text>
<polygon fill="none" stroke="black" points="602.75,-1073.6 602.75,-1104.4 825.72,-1104.4 825.72,-1073.6 602.75,-1073.6"/>
<text text-anchor="start" x="609.75" y="-1085.8" font-family="Arial" font-size="14.00">model_key </text>
<text text-anchor="start" x="681.35" y="-1085.8" font-family="Arial" font-size="14.00" fill="#666666">[text]</text>
<polygon fill="none" stroke="black" points="602.75,-1042.8 602.75,-1073.6 825.72,-1073.6 825.72,-1042.8 602.75,-1042.8"/>
<text text-anchor="start" x="609.75" y="-1055" font-family="Arial" font-size="14.00">class_key </text>
<text text-anchor="start" x="675.11" y="-1055" font-family="Arial" font-size="14.00" fill="#666666">[text]</text>
<polygon fill="none" stroke="black" points="602.75,-1012 602.75,-1042.8 825.72,-1042.8 825.72,-1012 602.75,-1012"/>
<text text-anchor="start" x="609.75" y="-1024.2" font-family="Arial" font-size="14.00">name </text>
<text text-anchor="start" x="648.66" y="-1024.2" font-family="Arial" font-size="14.00" fill="#666666">[text]</text>
<polygon fill="none" stroke="black" points="602.75,-981.2 602.75,-1012 825.72,-1012 825.72,-981.2 602.75,-981.2"/>
<text text-anchor="start" x="609.75" y="-993.4" font-family="Arial" font-size="14.00">subdomain_key </text>
<text text-anchor="start" x="711.7" y="-993.4" font-family="Arial" font-size="14.00" fill="#666666">[text]</text>
<polygon fill="none" stroke="black" points="602.75,-950.4 602.75,-981.2 825.72,-981.2 825.72,-950.4 602.75,-950.4"/>
<text text-anchor="start" x="609.75" y="-962.6" font-family="Arial" font-size="14.00">actor_key </text>
<text text-anchor="start" x="674.34" y="-962.6" font-family="Arial" font-size="14.00" fill="#666666">[text]</text>
<polygon fill="none" stroke="black" points="602.75,-919.6 602.75,-950.4 825.72,-950.4 825.72,-919.6 602.75,-919.6"/>
<text text-anchor="start" x="609.75" y="-931.8" font-family="Arial" font-size="14.00">superclass_of_key </text>
<text text-anchor="start" x="729.59" y="-931.8" font-family="Arial" font-size="14.00" fill="#666666">[text]</text>
<polygon fill="none" stroke="black" points="602.75,-888.8 602.75,-919.6 825.72,-919.6 825.72,-888.8 602.75,-888.8"/>
<text text-anchor="start" x="609.75" y="-901" font-family="Arial" font-size="14.00">subclass_of_key </text>
<text text-anchor="start" x="717.15" y="-901" font-family="Arial" font-size="14.00" fill="#666666">[text]</text>
<polygon fill="none" stroke="black" points="602.75,-858 602.75,-888.8 825.72,-888.8 825.72,-858 602.75,-858"/>
<text text-anchor="start" x="609.75" y="-870.2" font-family="Arial" font-size="14.00">details </text>
<text text-anchor="start" x="654.11" y="-870.2" font-family="Arial" font-size="14.00" fill="#666666">[text]</text>
<polygon fill="none" stroke="black" points="602.75,-827.2 602.75,-858 825.72,-858 825.72,-827.2 602.75,-827.2"/>
<text text-anchor="start" x="609.75" y="-839.4" font-family="Arial" font-size="14.00">uml_comment </text>
<text text-anchor="start" x="701.56" y="-839.4" font-family="Arial" font-size="14.00" fill="#666666">[text]</text>
</g>
<!-- public.class&#45;&gt;public.actor -->
<g id="edge5" class="edge">
<title>public.class:model_key&#45;&gt;public.actor:model_key</title>
<path fill="none" stroke="black" d="M591.59,-1086.89C538.37,-1062.92 576.07,-842.25 602.75,-784 612.92,-761.81 633.97,-770.15 644.21,-748 662.34,-708.79 688.42,-650.8 645.21,-650.8"/>
<polygon fill="black" stroke="black" points="591.63,-1086.9 600.51,-1093.34 596.86,-1087.98 601.1,-1088.86 601.1,-1088.86 601.1,-1088.86 596.86,-1087.98 602.34,-1084.53 591.63,-1086.9"/>
<text text-anchor="start" x="608.75" y="-1099" font-family="Arial" font-size="10.00">FOREIGN KEY (model_key, actor_key) REFERENCES actor(model_key, actor_key) ON DELETE CASCADE</text>
</g>
</g>
</svg>
