<?xml version="1.0" encoding="UTF-8" standalone="no"?>
<!DOCTYPE svg PUBLIC "-//W3C//DTD SVG 1.1//EN"
 "http://www.w3.org/Graphics/SVG/1.1/DTD/svg11.dtd">
<!-- Generated by graphviz version 12.1.2 (20240928.0832)
 -->
<!-- Title: public.action_parameter_invariant Pages: 1 -->
<svg width="1599pt" height="725pt"
 viewBox="0.00 0.00 1599.29 725.20" xmlns="http://www.w3.org/2000/svg" xmlns:xlink="http://www.w3.org/1999/xlink">
<g id="graph0" class="graph" transform="scale(1 1) rotate(0) translate(4 721.2)">
<title>public.action_parameter_invariant</title>
<polygon fill="white" stroke="none" points="-4,4 -4,-721.2 1595.29,-721.2 1595.29,4 -4,4"/>
<!-- public.action_parameter_invariant -->
<g id="node1" class="node">
<title>public.action_parameter_invariant</title>
<polygon fill="#efefef" stroke="none" points="495.7,-635.4 495.7,-671 881.59,-671 881.59,-635.4 495.7,-635.4"/>
<polygon fill="none" stroke="black" points="495.7,-635.4 495.7,-671 881.59,-671 881.59,-635.4 495.7,-635.4"/>
<text text-anchor="start" x="502.7" y="-648.8" font-family="Arial Bold" font-size="18.00">public.action_parameter_invariant</text>
<text text-anchor="start" x="750.1" y="-648.8" font-family="Arial" font-size="14.00">    </text>
<text text-anchor="start" x="781.21" y="-648.8" font-family="Arial" font-size="14.00" fill="#666666">[BASE TABLE]</text>
<polygon fill="none" stroke="black" points="495.7,-604.6 495.7,-635.4 881.59,-635.4 881.59,-604.6 495.7,-604.6"/>
<text text-anchor="start" x="502.7" y="-616.8" font-family="Arial" font-size="14.00">model_key </text>
<text text-anchor="start" x="574.3" y="-616.8" font-family="Arial" font-size="14.00" fill="#666666">[text]</text>
<polygon fill="none" stroke="black" points="495.7,-573.8 495.7,-604.6 881.59,-604.6 881.59,-573.8 495.7,-573.8"/>
<text text-anchor="start" x="502.7" y="-586" font-family="Arial" font-size="14.00">action_key </text>
<text text-anchor="start" x="573.52" y="-586" font-family="Arial" font-size="14.00" fill="#666666">[text]</text>
<polygon fill="none" stroke="black" points="495.7,-543 495.7,-573.8 881.59,-573.8 881.59,-543 495.7,-543"/>
<text text-anchor="start" x="502.7" y="-555.2" font-family="Arial" font-size="14.00">parameter_key </text>
<text text-anchor="start" x="599.97" y="-555.2" font-family="Arial" font-size="14.00" fill="#666666">[text]</text>
<polygon fill="none" stroke="black" points="495.7,-512.2 495.7,-543 881.59,-543 881.59,-512.2 495.7,-512.2"/>
<text text-anchor="start" x="502.7" y="-524.4" font-family="Arial" font-size="14.00">logic_key </text>
<text text-anchor="start" x="564.96" y="-524.4" font-family="Arial" font-size="14.00" fill="#666666">[text]</text>
<polygon fill="none" stroke="black" stroke-width="3" points="494.2,-510.7 494.2,-672.5 883.09,-672.5 883.09,-510.7 494.2,-510.7"/>
</g>
<!-- public.logic -->
<g id="node2" class="node">
<title>public.logic</title>
<polygon fill="#efefef" stroke="none" points="390.66,-351.2 390.66,-386.8 614.63,-386.8 614.63,-351.2 390.66,-351.2"/>
<polygon fill="none" stroke="black" points="390.66,-351.2 390.66,-386.8 614.63,-386.8 614.63,-351.2 390.66,-351.2"/>
<text text-anchor="start" x="397.66" y="-364.6" font-family="Arial Bold" font-size="18.00">public.logic</text>
<text text-anchor="start" x="483.14" y="-364.6" font-family="Arial" font-size="14.00">    </text>
<text text-anchor="start" x="514.26" y="-364.6" font-family="Arial" font-size="14.00" fill="#666666">[BASE TABLE]</text>
<polygon fill="none" stroke="black" points="390.66,-320.4 390.66,-351.2 614.63,-351.2 614.63,-320.4 390.66,-320.4"/>
<text text-anchor="start" x="397.66" y="-332.6" font-family="Arial" font-size="14.00">logic_key </text>
<text text-anchor="start" x="459.91" y="-332.6" font-family="Arial" font-size="14.00" fill="#666666">[text]</text>
<polygon fill="none" stroke="black" points="390.66,-289.6 390.66,-320.4 614.63,-320.4 614.63,-289.6 390.66,-289.6"/>
<text text-anchor="start" x="397.66" y="-301.8" font-family="Arial" font-size="14.00">model_key </text>
<text text-anchor="start" x="469.25" y="-301.8" font-family="Arial" font-size="14.00" fill="#666666">[text]</text>
<polygon fill="none" stroke="black" points="390.66,-258.8 390.66,-289.6 614.63,-289.6 614.63,-258.8 390.66,-258.8"/>
<text text-anchor="start" x="397.66" y="-271" font-family="Arial" font-size="14.00">sort_order </text>
<text text-anchor="start" x="465.36" y="-271" font-family="Arial" font-size="14.00" fill="#666666">[integer]</text>
<polygon fill="none" stroke="black" points="390.66,-228 390.66,-258.8 614.63,-258.8 614.63,-228 390.66,-228"/>
<text text-anchor="start" x="397.66" y="-240.2" font-family="Arial" font-size="14.00">logic_type </text>
<text text-anchor="start" x="464.59" y="-240.2" font-family="Arial" font-size="14.00" fill="#666666">[logic_type]</text>
<polygon fill="none" stroke="black" points="390.66,-197.2 390.66,-228 614.63,-228 614.63,-197.2 390.66,-197.2"/>
<text text-anchor="start" x="397.66" y="-209.4" font-family="Arial" font-size="14.00">description </text>
<text text-anchor="start" x="469.25" y="-209.4" font-family="Arial" font-size="14.00" fill="#666666">[text]</text>
<polygon fill="none" stroke="black" points="390.66,-166.4 390.66,-197.2 614.63,-197.2 614.63,-166.4 390.66,-166.4"/>
<text text-anchor="start" x="397.66" y="-178.6" font-family="Arial" font-size="14.00">target </text>
<text text-anchor="start" x="437.35" y="-178.6" font-family="Arial" font-size="14.00" fill="#666666">[text]</text>
<polygon fill="none" stroke="black" points="390.66,-135.6 390.66,-166.4 614.63,-166.4 614.63,-135.6 390.66,-135.6"/>
<text text-anchor="start" x="397.66" y="-147.8" font-family="Arial" font-size="14.00">notation </text>
<text text-anchor="start" x="451.37" y="-147.8" font-family="Arial" font-size="14.00" fill="#666666">[notation]</text>
<polygon fill="none" stroke="black" points="390.66,-104.8 390.66,-135.6 614.63,-135.6 614.63,-104.8 390.66,-104.8"/>
<text text-anchor="start" x="397.66" y="-117" font-family="Arial" font-size="14.00">specification </text>
<text text-anchor="start" x="478.59" y="-117" font-family="Arial" font-size="14.00" fill="#666666">[text]</text>
<polygon fill="none" stroke="black" points="390.66,-74 390.66,-104.8 614.63,-104.8 614.63,-74 390.66,-74"/>
<text text-anchor="start" x="397.66" y="-86.2" font-family="Arial" font-size="14.00">target_type_notation </text>
<text text-anchor="start" x="529.2" y="-86.2" font-family="Arial" font-size="14.00" fill="#666666">[notation]</text>
<polygon fill="none" stroke="black" points="390.66,-43.2 390.66,-74 614.63,-74 614.63,-43.2 390.66,-43.2"/>
<text text-anchor="start" x="397.66" y="-55.4" font-family="Arial" font-size="14.00">target_type_specification </text>
<text text-anchor="start" x="556.42" y="-55.4" font-family="Arial" font-size="14.00" fill="#666666">[text]</text>
</g>
<!-- public.action_parameter_invariant&#45;&gt;public.logic -->
<g id="edge1" class="edge">
<title>public.action_parameter_invariant:model_key&#45;&gt;public.logic:model_key</title>
<path fill="none" stroke="black" d="M484.33,-619.13C429.41,-609.29 456.98,-517.83 495.7,-466 528.76,-421.76 581.54,-474.22 614.63,-430 647.92,-385.52 671.19,-305 615.63,-305"/>
<polygon fill="black" stroke="black" points="484.4,-619.14 494,-624.46 489.72,-619.58 494.04,-619.94 494.04,-619.94 494.04,-619.94 489.72,-619.58 494.74,-615.49 484.4,-619.14"/>
<text text-anchor="start" x="7" y="-630" font-family="Arial" font-size="10.00">FOREIGN KEY (model_key, logic_key) REFERENCES logic(model_key, logic_key) ON DELETE CASCADE</text>
</g>
<!-- public.action_parameter -->
<g id="node3" class="node">
<title>public.action_parameter</title>
<polygon fill="#efefef" stroke="none" points="719.19,-320.4 719.19,-356 1032.1,-356 1032.1,-320.4 719.19,-320.4"/>
<polygon fill="none" stroke="black" points="719.19,-320.4 719.19,-356 1032.1,-356 1032.1,-320.4 719.19,-320.4"/>
<text text-anchor="start" x="726.19" y="-333.8" font-family="Arial Bold" font-size="18.00">public.action_parameter</text>
<text text-anchor="start" x="900.61" y="-333.8" font-family="Arial" font-size="14.00">    </text>
<text text-anchor="start" x="931.73" y="-333.8" font-family="Arial" font-size="14.00" fill="#666666">[BASE TABLE]</text>
<polygon fill="none" stroke="black" points="719.19,-289.6 719.19,-320.4 1032.1,-320.4 1032.1,-289.6 719.19,-289.6"/>
<text text-anchor="start" x="726.19" y="-301.8" font-family="Arial" font-size="14.00">model_key </text>
<text text-anchor="start" x="797.78" y="-301.8" font-family="Arial" font-size="14.00" fill="#666666">[text]</text>
<polygon fill="none" stroke="black" points="719.19,-258.8 719.19,-289.6 1032.1,-289.6 1032.1,-258.8 719.19,-258.8"/>
<text text-anchor="start" x="726.19" y="-271" font-family="Arial" font-size="14.00">action_key </text>
<text text-anchor="start" x="797.01" y="-271" font-family="Arial" font-size="14.00" fill="#666666">[text]</text>
<polygon fill="none" stroke="black" points="719.19,-228 719.19,-258.8 1032.1,-258.8 1032.1,-228 719.19,-228"/>
<text text-anchor="start" x="726.19" y="-240.2" font-family="Arial" font-size="14.00">parameter_key </text>
<text text-anchor="start" x="823.46" y="-240.2" font-family="Arial" font-size="14.00" fill="#666666">[text]</text>
<polygon fill="none" stroke="black" points="719.19,-197.2 719.19,-228 1032.1,-228 1032.1,-197.2 719.19,-197.2"/>
<text text-anchor="start" x="726.19" y="-209.4" font-family="Arial" font-size="14.00">name </text>
<text text-anchor="start" x="765.1" y="-209.4" font-family="Arial" font-size="14.00" fill="#666666">[text]</text>
<polygon fill="none" stroke="black" points="719.19,-166.4 719.19,-197.2 1032.1,-197.2 1032.1,-166.4 719.19,-166.4"/>
<text text-anchor="start" x="726.19" y="-178.6" font-family="Arial" font-size="14.00">sort_order </text>
<text text-anchor="start" x="793.89" y="-178.6" font-family="Arial" font-size="14.00" fill="#666666">[integer]</text>
<polygon fill="none" stroke="black" points="719.19,-135.6 719.19,-166.4 1032.1,-166.4 1032.1,-135.6 719.19,-135.6"/>
<text text-anchor="start" x="726.19" y="-147.8" font-family="Arial" font-size="14.00">data_type_rules </text>
<text text-anchor="start" x="829.71" y="-147.8" font-family="Arial" font-size="14.00" fill="#666666">[text]</text>
<polygon fill="none" stroke="black" points="719.19,-104.8 719.19,-135.6 1032.1,-135.6 1032.1,-104.8 719.19,-104.8"/>
<text text-anchor="start" x="726.19" y="-117" font-family="Arial" font-size="14.00">data_type_key </text>
<text text-anchor="start" x="821.15" y="-117" font-family="Arial" font-size="14.00" fill="#666666">[text]</text>
<polygon fill="none" stroke="black" points="719.19,-74 719.19,-104.8 1032.1,-104.8 1032.1,-74 719.19,-74"/>
<text text-anchor="start" x="726.19" y="-86.2" font-family="Arial" font-size="14.00">nullable </text>
<text text-anchor="start" x="778.34" y="-86.2" font-family="Arial" font-size="14.00" fill="#666666">[boolean]</text>
</g>
<!-- public.action_parameter_invariant&#45;&gt;public.action_parameter -->
<g id="edge2" class="edge">
<title>public.action_parameter_invariant:model_key&#45;&gt;public.action_parameter:model_key</title>
<path fill="none" stroke="black" d="M892.94,-619.15C947.6,-609.48 917.77,-519.64 881.59,-466 837.94,-401.3 762.97,-463.81 719.19,-399.2 695.7,-364.54 676.32,-305 718.19,-305"/>
<polygon fill="black" stroke="black" points="892.89,-619.15 882.55,-615.49 887.57,-619.59 883.25,-619.95 883.25,-619.95 883.25,-619.95 887.57,-619.59 883.29,-624.46 892.89,-619.15"/>
<text text-anchor="start" x="889.59" y="-630" font-family="Arial" font-size="10.00">FOREIGN KEY (model_key, action_key, parameter_key) REFERENCES action_parameter(model_key, action_key, parameter_key) ON DELETE CASCADE</text>
</g>
</g>
</svg>
