<?xml version="1.0" encoding="UTF-8" standalone="no"?>
<!DOCTYPE svg PUBLIC "-//W3C//DTD SVG 1.1//EN"
 "http://www.w3.org/Graphics/SVG/1.1/DTD/svg11.dtd">
<!-- Generated by graphviz version 12.1.2 (20240928.0832)
 -->
<!-- Title: public.generalization Pages: 1 -->
<svg width="1676pt" height="1068pt"
 viewBox="0.00 0.00 1675.92 1068.00" xmlns="http://www.w3.org/2000/svg" xmlns:xlink="http://www.w3.org/1999/xlink">
<g id="graph0" class="graph" transform="scale(1 1) rotate(0) translate(4 1064)">
<title>public.generalization</title>
<polygon fill="white" stroke="none" points="-4,4 -4,-1064 1671.92,-1064 1671.92,4 -4,4"/>
<!-- public.generalization -->
<g id="node1" class="node">
<title>public.generalization</title>
<polygon fill="#efefef" stroke="none" points="688.98,-512.2 688.98,-547.8 978.91,-547.8 978.91,-512.2 688.98,-512.2"/>
<polygon fill="none" stroke="black" points="688.98,-512.2 688.98,-547.8 978.91,-547.8 978.91,-512.2 688.98,-512.2"/>
<text text-anchor="start" x="695.98" y="-525.6" font-family="Arial Bold" font-size="18.00">public.generalization</text>
<text text-anchor="start" x="847.42" y="-525.6" font-family="Arial" font-size="14.00">    </text>
<text text-anchor="start" x="878.53" y="-525.6" font-family="Arial" font-size="14.00" fill="#666666">[BASE TABLE]</text>
<polygon fill="none" stroke="black" points="688.98,-481.4 688.98,-512.2 978.91,-512.2 978.91,-481.4 688.98,-481.4"/>
<text text-anchor="start" x="695.98" y="-493.6" font-family="Arial" font-size="14.00">model_key </text>
<text text-anchor="start" x="767.57" y="-493.6" font-family="Arial" font-size="14.00" fill="#666666">[text]</text>
<polygon fill="none" stroke="black" points="688.98,-450.6 688.98,-481.4 978.91,-481.4 978.91,-450.6 688.98,-450.6"/>
<text text-anchor="start" x="695.98" y="-462.8" font-family="Arial" font-size="14.00">generalization_key </text>
<text text-anchor="start" x="816.61" y="-462.8" font-family="Arial" font-size="14.00" fill="#666666">[text]</text>
<polygon fill="none" stroke="black" points="688.98,-419.8 688.98,-450.6 978.91,-450.6 978.91,-419.8 688.98,-419.8"/>
<text text-anchor="start" x="695.98" y="-432" font-family="Arial" font-size="14.00">name </text>
<text text-anchor="start" x="734.89" y="-432" font-family="Arial" font-size="14.00" fill="#666666">[text]</text>
<polygon fill="none" stroke="black" points="688.98,-389 688.98,-419.8 978.91,-419.8 978.91,-389 688.98,-389"/>
<text text-anchor="start" x="695.98" y="-401.2" font-family="Arial" font-size="14.00">is_complete </text>
<text text-anchor="start" x="774.57" y="-401.2" font-family="Arial" font-size="14.00" fill="#666666">[boolean]</text>
<polygon fill="none" stroke="black" points="688.98,-358.2 688.98,-389 978.91,-389 978.91,-358.2 688.98,-358.2"/>
<text text-anchor="start" x="695.98" y="-370.4" font-family="Arial" font-size="14.00">is_static </text>
<text text-anchor="start" x="750.44" y="-370.4" font-family="Arial" font-size="14.00" fill="#666666">[boolean]</text>
<polygon fill="none" stroke="black" points="688.98,-327.4 688.98,-358.2 978.91,-358.2 978.91,-327.4 688.98,-327.4"/>
<text text-anchor="start" x="695.98" y="-339.6" font-family="Arial" font-size="14.00">details </text>
<text text-anchor="start" x="740.34" y="-339.6" font-family="Arial" font-size="14.00" fill="#666666">[text]</text>
<polygon fill="none" stroke="black" points="688.98,-296.6 688.98,-327.4 978.91,-327.4 978.91,-296.6 688.98,-296.6"/>
<text text-anchor="start" x="695.98" y="-308.8" font-family="Arial" font-size="14.00">uml_comment </text>
<text text-anchor="start" x="787.79" y="-308.8" font-family="Arial" font-size="14.00" fill="#666666">[text]</text>
<polygon fill="none" stroke="black" stroke-width="3" points="687.48,-295.1 687.48,-549.3 980.41,-549.3 980.41,-295.1 687.48,-295.1"/>
</g>
<!-- public.model -->
<g id="node2" class="node">
<title>public.model</title>
<polygon fill="#efefef" stroke="none" points="717.46,-135.6 717.46,-171.2 950.43,-171.2 950.43,-135.6 717.46,-135.6"/>
<polygon fill="none" stroke="black" points="717.46,-135.6 717.46,-171.2 950.43,-171.2 950.43,-135.6 717.46,-135.6"/>
<text text-anchor="start" x="724.46" y="-149" font-family="Arial Bold" font-size="18.00">public.model</text>
<text text-anchor="start" x="818.94" y="-149" font-family="Arial" font-size="14.00">    </text>
<text text-anchor="start" x="850.06" y="-149" font-family="Arial" font-size="14.00" fill="#666666">[BASE TABLE]</text>
<polygon fill="none" stroke="black" points="717.46,-104.8 717.46,-135.6 950.43,-135.6 950.43,-104.8 717.46,-104.8"/>
<text text-anchor="start" x="724.46" y="-117" font-family="Arial" font-size="14.00">model_key </text>
<text text-anchor="start" x="796.05" y="-117" font-family="Arial" font-size="14.00" fill="#666666">[text]</text>
<polygon fill="none" stroke="black" points="717.46,-74 717.46,-104.8 950.43,-104.8 950.43,-74 717.46,-74"/>
<text text-anchor="start" x="724.46" y="-86.2" font-family="Arial" font-size="14.00">name </text>
<text text-anchor="start" x="763.37" y="-86.2" font-family="Arial" font-size="14.00" fill="#666666">[text]</text>
<polygon fill="none" stroke="black" points="717.46,-43.2 717.46,-74 950.43,-74 950.43,-43.2 717.46,-43.2"/>
<text text-anchor="start" x="724.46" y="-55.4" font-family="Arial" font-size="14.00">details </text>
<text text-anchor="start" x="768.82" y="-55.4" font-family="Arial" font-size="14.00" fill="#666666">[text]</text>
</g>
<!-- public.generalization&#45;&gt;public.model -->
<g id="edge1" class="edge">
<title>public.generalization:model_key&#45;&gt;public.model:model_key</title>
<path fill="none" stroke="black" d="M989.99,-496.33C1146.53,-481.51 1115.84,-120.2 951.43,-120.2"/>
<polygon fill="black" stroke="black" points="990.23,-496.32 980.03,-492.29 984.9,-496.57 980.57,-496.77 980.57,-496.77 980.57,-496.77 984.9,-496.57 980.45,-501.28 990.23,-496.32"/>
<text text-anchor="start" x="986.91" y="-506.8" font-family="Arial" font-size="10.00">FOREIGN KEY (model_key) REFERENCES model(model_key) ON DELETE CASCADE</text>
</g>
<!-- public.actor -->
<g id="node3" class="node">
<title>public.actor</title>
<polygon fill="#efefef" stroke="none" points="393.97,-950.4 393.97,-986 617.92,-986 617.92,-950.4 393.97,-950.4"/>
<polygon fill="none" stroke="black" points="393.97,-950.4 393.97,-986 617.92,-986 617.92,-950.4 393.97,-950.4"/>
<text text-anchor="start" x="400.97" y="-963.8" font-family="Arial Bold" font-size="18.00">public.actor</text>
<text text-anchor="start" x="486.43" y="-963.8" font-family="Arial" font-size="14.00">    </text>
<text text-anchor="start" x="517.55" y="-963.8" font-family="Arial" font-size="14.00" fill="#666666">[BASE TABLE]</text>
<polygon fill="none" stroke="black" points="393.97,-919.6 393.97,-950.4 617.92,-950.4 617.92,-919.6 393.97,-919.6"/>
<text text-anchor="start" x="400.97" y="-931.8" font-family="Arial" font-size="14.00">model_key </text>
<text text-anchor="start" x="472.56" y="-931.8" font-family="Arial" font-size="14.00" fill="#666666">[text]</text>
<polygon fill="none" stroke="black" points="393.97,-888.8 393.97,-919.6 617.92,-919.6 617.92,-888.8 393.97,-888.8"/>
<text text-anchor="start" x="400.97" y="-901" font-family="Arial" font-size="14.00">actor_key </text>
<text text-anchor="start" x="465.55" y="-901" font-family="Arial" font-size="14.00" fill="#666666">[text]</text>
<polygon fill="none" stroke="black" points="393.97,-858 393.97,-888.8 617.92,-888.8 617.92,-858 393.97,-858"/>
<text text-anchor="start" x="400.97" y="-870.2" font-family="Arial" font-size="14.00">name </text>
<text text-anchor="start" x="439.88" y="-870.2" font-family="Arial" font-size="14.00" fill="#666666">[text]</text>
<polygon fill="none" stroke="black" points="393.97,-827.2 393.97,-858 617.92,-858 617.92,-827.2 393.97,-827.2"/>
<text text-anchor="start" x="400.97" y="-839.4" font-family="Arial" font-size="14.00">details </text>
<text text-anchor="start" x="445.32" y="-839.4" font-family="Arial" font-size="14.00" fill="#666666">[text]</text>
<polygon fill="none" stroke="black" points="393.97,-796.4 393.97,-827.2 617.92,-827.2 617.92,-796.4 393.97,-796.4"/>
<text text-anchor="start" x="400.97" y="-808.6" font-family="Arial" font-size="14.00">actor_type </text>
<text text-anchor="start" x="470.23" y="-808.6" font-family="Arial" font-size="14.00" fill="#666666">[actor_type]</text>
<polygon fill="none" stroke="black" points="393.97,-765.6 393.97,-796.4 617.92,-796.4 617.92,-765.6 393.97,-765.6"/>
<text text-anchor="start" x="400.97" y="-777.8" font-family="Arial" font-size="14.00">superclass_of_key </text>
<text text-anchor="start" x="520.81" y="-777.8" font-family="Arial" font-size="14.00" fill="#666666">[text]</text>
<polygon fill="none" stroke="black" points="393.97,-734.8 393.97,-765.6 617.92,-765.6 617.92,-734.8 393.97,-734.8"/>
<text text-anchor="start" x="400.97" y="-747" font-family="Arial" font-size="14.00">subclass_of_key </text>
<text text-anchor="start" x="508.36" y="-747" font-family="Arial" font-size="14.00" fill="#666666">[text]</text>
<polygon fill="none" stroke="black" points="393.97,-704 393.97,-734.8 617.92,-734.8 617.92,-704 393.97,-704"/>
<text text-anchor="start" x="400.97" y="-716.2" font-family="Arial" font-size="14.00">uml_comment </text>
<text text-anchor="start" x="492.77" y="-716.2" font-family="Arial" font-size="14.00" fill="#666666">[text]</text>
</g>
<!-- public.actor&#45;&gt;public.generalization -->
<g id="edge2" class="edge">
<title>public.actor:model_key&#45;&gt;public.generalization:model_key</title>
<path fill="none" stroke="black" d="M628.88,-932.85C698.39,-899.79 584.81,-496.8 687.98,-496.8"/>
<polygon fill="black" stroke="black" points="629.02,-932.82 618.3,-930.53 623.81,-933.94 619.57,-934.86 619.57,-934.86 619.57,-934.86 623.81,-933.94 620.2,-939.33 629.02,-932.82"/>
<text text-anchor="start" x="15.58" y="-945" font-family="Arial" font-size="10.00">FOREIGN KEY (model_key, subclass_of_key) REFERENCES generalization(model_key, generalization_key) ON DELETE CASCADE</text>
</g>
<!-- public.actor&#45;&gt;public.generalization -->
<g id="edge3" class="edge">
<title>public.actor:model_key&#45;&gt;public.generalization:model_key</title>
<path fill="none" stroke="black" d="M629.39,-933.42C717.69,-904.82 601.78,-497.62 687.72,-496.8"/>
<polygon fill="black" stroke="black" points="629.45,-933.41 618.87,-930.5 624.18,-934.23 619.9,-934.9 619.9,-934.9 619.9,-934.9 624.18,-934.23 620.26,-939.39 629.45,-933.41"/>
<text text-anchor="start" x="7" y="-919" font-family="Arial" font-size="10.00">FOREIGN KEY (model_key, superclass_of_key) REFERENCES generalization(model_key, generalization_key) ON DELETE CASCADE</text>
</g>
<!-- public.class -->
<g id="node4" class="node">
<title>public.class</title>
<polygon fill="#efefef" stroke="none" points="722.46,-965.8 722.46,-1001.4 945.43,-1001.4 945.43,-965.8 722.46,-965.8"/>
<polygon fill="none" stroke="black" points="722.46,-965.8 722.46,-1001.4 945.43,-1001.4 945.43,-965.8 722.46,-965.8"/>
<text text-anchor="start" x="729.46" y="-979.2" font-family="Arial Bold" font-size="18.00">public.class</text>
<text text-anchor="start" x="813.94" y="-979.2" font-family="Arial" font-size="14.00">    </text>
<text text-anchor="start" x="845.06" y="-979.2" font-family="Arial" font-size="14.00" fill="#666666">[BASE TABLE]</text>
<polygon fill="none" stroke="black" points="722.46,-935 722.46,-965.8 945.43,-965.8 945.43,-935 722.46,-935"/>
<text text-anchor="start" x="729.46" y="-947.2" font-family="Arial" font-size="14.00">model_key </text>
<text text-anchor="start" x="801.05" y="-947.2" font-family="Arial" font-size="14.00" fill="#666666">[text]</text>
<polygon fill="none" stroke="black" points="722.46,-904.2 722.46,-935 945.43,-935 945.43,-904.2 722.46,-904.2"/>
<text text-anchor="start" x="729.46" y="-916.4" font-family="Arial" font-size="14.00">class_key </text>
<text text-anchor="start" x="794.82" y="-916.4" font-family="Arial" font-size="14.00" fill="#666666">[text]</text>
<polygon fill="none" stroke="black" points="722.46,-873.4 722.46,-904.2 945.43,-904.2 945.43,-873.4 722.46,-873.4"/>
<text text-anchor="start" x="729.46" y="-885.6" font-family="Arial" font-size="14.00">name </text>
<text text-anchor="start" x="768.37" y="-885.6" font-family="Arial" font-size="14.00" fill="#666666">[text]</text>
<polygon fill="none" stroke="black" points="722.46,-842.6 722.46,-873.4 945.43,-873.4 945.43,-842.6 722.46,-842.6"/>
<text text-anchor="start" x="729.46" y="-854.8" font-family="Arial" font-size="14.00">subdomain_key </text>
<text text-anchor="start" x="831.41" y="-854.8" font-family="Arial" font-size="14.00" fill="#666666">[text]</text>
<polygon fill="none" stroke="black" points="722.46,-811.8 722.46,-842.6 945.43,-842.6 945.43,-811.8 722.46,-811.8"/>
<text text-anchor="start" x="729.46" y="-824" font-family="Arial" font-size="14.00">actor_key </text>
<text text-anchor="start" x="794.04" y="-824" font-family="Arial" font-size="14.00" fill="#666666">[text]</text>
<polygon fill="none" stroke="black" points="722.46,-781 722.46,-811.8 945.43,-811.8 945.43,-781 722.46,-781"/>
<text text-anchor="start" x="729.46" y="-793.2" font-family="Arial" font-size="14.00">superclass_of_key </text>
<text text-anchor="start" x="849.3" y="-793.2" font-family="Arial" font-size="14.00" fill="#666666">[text]</text>
<polygon fill="none" stroke="black" points="722.46,-750.2 722.46,-781 945.43,-781 945.43,-750.2 722.46,-750.2"/>
<text text-anchor="start" x="729.46" y="-762.4" font-family="Arial" font-size="14.00">subclass_of_key </text>
<text text-anchor="start" x="836.85" y="-762.4" font-family="Arial" font-size="14.00" fill="#666666">[text]</text>
<polygon fill="none" stroke="black" points="722.46,-719.4 722.46,-750.2 945.43,-750.2 945.43,-719.4 722.46,-719.4"/>
<text text-anchor="start" x="729.46" y="-731.6" font-family="Arial" font-size="14.00">details </text>
<text text-anchor="start" x="773.82" y="-731.6" font-family="Arial" font-size="14.00" fill="#666666">[text]</text>
<polygon fill="none" stroke="black" points="722.46,-688.6 722.46,-719.4 945.43,-719.4 945.43,-688.6 722.46,-688.6"/>
<text text-anchor="start" x="729.46" y="-700.8" font-family="Arial" font-size="14.00">uml_comment </text>
<text text-anchor="start" x="821.26" y="-700.8" font-family="Arial" font-size="14.00" fill="#666666">[text]</text>
</g>
<!-- public.class&#45;&gt;public.generalization -->
<g id="edge4" class="edge">
<title>public.class:model_key&#45;&gt;public.generalization:model_key</title>
<path fill="none" stroke="black" d="M950.85,-941.34C967.97,-877.41 994.81,-496.8 979.91,-496.8"/>
<polygon fill="black" stroke="black" points="950.96,-941.11 942.53,-948.13 948.62,-945.91 946.72,-949.8 946.72,-949.8 946.72,-949.8 948.62,-945.91 950.62,-952.07 950.96,-941.11"/>
<text text-anchor="start" x="953.43" y="-960.4" font-family="Arial" font-size="10.00">FOREIGN KEY (model_key, subclass_of_key) REFERENCES generalization(model_key, generalization_key) ON DELETE CASCADE</text>
</g>
<!-- public.class&#45;&gt;public.generalization -->
<g id="edge5" class="edge">
<title>public.class:model_key&#45;&gt;public.generalization:model_key</title>
<path fill="none" stroke="black" d="M954.16,-943.01C985.24,-884.65 1011.36,-500.06 980.3,-496.82"/>
<polygon fill="black" stroke="black" points="954.12,-943.05 943.88,-946.97 950.36,-946.83 947.3,-949.91 947.3,-949.91 947.3,-949.91 950.36,-946.83 950.26,-953.32 954.12,-943.05"/>
<text text-anchor="start" x="953.83" y="-934.38" font-family="Arial" font-size="10.00">FOREIGN KEY (model_key, superclass_of_key) REFERENCES generalization(model_key, generalization_key) ON DELETE CASCADE</text>
</g>
<!-- public.use_case -->
<g id="node5" class="node">
<title>public.use_case</title>
<polygon fill="#efefef" stroke="none" points="1049.97,-981.2 1049.97,-1016.8 1301.92,-1016.8 1301.92,-981.2 1049.97,-981.2"/>
<polygon fill="none" stroke="black" points="1049.97,-981.2 1049.97,-1016.8 1301.92,-1016.8 1301.92,-981.2 1049.97,-981.2"/>
<text text-anchor="start" x="1056.97" y="-994.6" font-family="Arial Bold" font-size="18.00">public.use_case</text>
<text text-anchor="start" x="1170.43" y="-994.6" font-family="Arial" font-size="14.00">    </text>
<text text-anchor="start" x="1201.54" y="-994.6" font-family="Arial" font-size="14.00" fill="#666666">[BASE TABLE]</text>
<polygon fill="none" stroke="black" points="1049.97,-950.4 1049.97,-981.2 1301.92,-981.2 1301.92,-950.4 1049.97,-950.4"/>
<text text-anchor="start" x="1056.97" y="-962.6" font-family="Arial" font-size="14.00">model_key </text>
<text text-anchor="start" x="1128.56" y="-962.6" font-family="Arial" font-size="14.00" fill="#666666">[text]</text>
<polygon fill="none" stroke="black" points="1049.97,-919.6 1049.97,-950.4 1301.92,-950.4 1301.92,-919.6 1049.97,-919.6"/>
<text text-anchor="start" x="1056.97" y="-931.8" font-family="Arial" font-size="14.00">use_case_key </text>
<text text-anchor="start" x="1150.36" y="-931.8" font-family="Arial" font-size="14.00" fill="#666666">[text]</text>
<polygon fill="none" stroke="black" points="1049.97,-888.8 1049.97,-919.6 1301.92,-919.6 1301.92,-888.8 1049.97,-888.8"/>
<text text-anchor="start" x="1056.97" y="-901" font-family="Arial" font-size="14.00">name </text>
<text text-anchor="start" x="1095.88" y="-901" font-family="Arial" font-size="14.00" fill="#666666">[text]</text>
<polygon fill="none" stroke="black" points="1049.97,-858 1049.97,-888.8 1301.92,-888.8 1301.92,-858 1049.97,-858"/>
<text text-anchor="start" x="1056.97" y="-870.2" font-family="Arial" font-size="14.00">details </text>
<text text-anchor="start" x="1101.33" y="-870.2" font-family="Arial" font-size="14.00" fill="#666666">[text]</text>
<polygon fill="none" stroke="black" points="1049.97,-827.2 1049.97,-858 1301.92,-858 1301.92,-827.2 1049.97,-827.2"/>
<text text-anchor="start" x="1056.97" y="-839.4" font-family="Arial" font-size="14.00">level </text>
<text text-anchor="start" x="1089.65" y="-839.4" font-family="Arial" font-size="14.00" fill="#666666">[use_case_level]</text>
<polygon fill="none" stroke="black" points="1049.97,-796.4 1049.97,-827.2 1301.92,-827.2 1301.92,-796.4 1049.97,-796.4"/>
<text text-anchor="start" x="1056.97" y="-808.6" font-family="Arial" font-size="14.00">read_only </text>
<text text-anchor="start" x="1122.35" y="-808.6" font-family="Arial" font-size="14.00" fill="#666666">[boolean]</text>
<polygon fill="none" stroke="black" points="1049.97,-765.6 1049.97,-796.4 1301.92,-796.4 1301.92,-765.6 1049.97,-765.6"/>
<text text-anchor="start" x="1056.97" y="-777.8" font-family="Arial" font-size="14.00">subdomain_key </text>
<text text-anchor="start" x="1158.92" y="-777.8" font-family="Arial" font-size="14.00" fill="#666666">[text]</text>
<polygon fill="none" stroke="black" points="1049.97,-734.8 1049.97,-765.6 1301.92,-765.6 1301.92,-734.8 1049.97,-734.8"/>
<text text-anchor="start" x="1056.97" y="-747" font-family="Arial" font-size="14.00">superclass_of_key </text>
<text text-anchor="start" x="1176.81" y="-747" font-family="Arial" font-size="14.00" fill="#666666">[text]</text>
<polygon fill="none" stroke="black" points="1049.97,-704 1049.97,-734.8 1301.92,-734.8 1301.92,-704 1049.97,-704"/>
<text text-anchor="start" x="1056.97" y="-716.2" font-family="Arial" font-size="14.00">subclass_of_key </text>
<text text-anchor="start" x="1164.36" y="-716.2" font-family="Arial" font-size="14.00" fill="#666666">[text]</text>
<polygon fill="none" stroke="black" points="1049.97,-673.2 1049.97,-704 1301.92,-704 1301.92,-673.2 1049.97,-673.2"/>
<text text-anchor="start" x="1056.97" y="-685.4" font-family="Arial" font-size="14.00">uml_comment </text>
<text text-anchor="start" x="1148.78" y="-685.4" font-family="Arial" font-size="14.00" fill="#666666">[text]</text>
</g>
<!-- public.use_case&#45;&gt;public.generalization -->
<g id="edge6" class="edge">
<title>public.use_case:model_key&#45;&gt;public.generalization:model_key</title>
<path fill="none" stroke="black" d="M1038.7,-964.37C943.5,-936.06 1073.15,-496.8 979.91,-496.8"/>
<polygon fill="black" stroke="black" points="1038.73,-964.38 1048.02,-970.21 1044.02,-965.11 1048.31,-965.71 1048.31,-965.71 1048.31,-965.71 1044.02,-965.11 1049.26,-961.3 1038.73,-964.38"/>
<text text-anchor="start" x="1055.97" y="-975.8" font-family="Arial" font-size="10.00">FOREIGN KEY (model_key, subclass_of_key) REFERENCES generalization(model_key, generalization_key) ON DELETE CASCADE</text>
</g>
<!-- public.use_case&#45;&gt;public.generalization -->
<g id="edge7" class="edge">
<title>public.use_case:model_key&#45;&gt;public.generalization:model_key</title>
<path fill="none" stroke="black" d="M1038.53,-963.61C963.61,-929.1 1089.43,-497.68 980.24,-496.8"/>
<polygon fill="black" stroke="black" points="1038.58,-963.63 1047.41,-970.13 1043.8,-964.75 1048.03,-965.66 1048.03,-965.66 1048.03,-965.66 1043.8,-964.75 1049.31,-961.33 1038.58,-963.63"/>
<text text-anchor="start" x="1055.69" y="-949.8" font-family="Arial" font-size="10.00">FOREIGN KEY (model_key, superclass_of_key) REFERENCES generalization(model_key, generalization_key) ON DELETE CASCADE</text>
</g>
</g>
</svg>
