<?xml version="1.0" encoding="UTF-8" standalone="no"?>
<!DOCTYPE svg PUBLIC "-//W3C//DTD SVG 1.1//EN"
 "http://www.w3.org/Graphics/SVG/1.1/DTD/svg11.dtd">
<!-- Generated by graphviz version 12.1.2 (20240928.0832)
 -->
<!-- Title: public.actor Pages: 1 -->
<svg width="1266pt" height="1191pt"
 viewBox="0.00 0.00 1266.19 1191.20" xmlns="http://www.w3.org/2000/svg" xmlns:xlink="http://www.w3.org/1999/xlink">
<g id="graph0" class="graph" transform="scale(1 1) rotate(0) translate(4 1187.2)">
<title>public.actor</title>
<polygon fill="white" stroke="none" points="-4,4 -4,-1187.2 1262.19,-1187.2 1262.19,4 -4,4"/>
<!-- public.actor -->
<g id="node1" class="node">
<title>public.actor</title>
<polygon fill="#efefef" stroke="none" points="413.71,-666.2 413.71,-701.8 637.66,-701.8 637.66,-666.2 413.71,-666.2"/>
<polygon fill="none" stroke="black" points="413.71,-666.2 413.71,-701.8 637.66,-701.8 637.66,-666.2 413.71,-666.2"/>
<text text-anchor="start" x="420.71" y="-679.6" font-family="Arial Bold" font-size="18.00">public.actor</text>
<text text-anchor="start" x="506.17" y="-679.6" font-family="Arial" font-size="14.00">    </text>
<text text-anchor="start" x="537.29" y="-679.6" font-family="Arial" font-size="14.00" fill="#666666">[BASE TABLE]</text>
<polygon fill="none" stroke="black" points="413.71,-635.4 413.71,-666.2 637.66,-666.2 637.66,-635.4 413.71,-635.4"/>
<text text-anchor="start" x="420.71" y="-647.6" font-family="Arial" font-size="14.00">model_key </text>
<text text-anchor="start" x="492.3" y="-647.6" font-family="Arial" font-size="14.00" fill="#666666">[text]</text>
<polygon fill="none" stroke="black" points="413.71,-604.6 413.71,-635.4 637.66,-635.4 637.66,-604.6 413.71,-604.6"/>
<text text-anchor="start" x="420.71" y="-616.8" font-family="Arial" font-size="14.00">actor_key </text>
<text text-anchor="start" x="485.29" y="-616.8" font-family="Arial" font-size="14.00" fill="#666666">[text]</text>
<polygon fill="none" stroke="black" points="413.71,-573.8 413.71,-604.6 637.66,-604.6 637.66,-573.8 413.71,-573.8"/>
<text text-anchor="start" x="420.71" y="-586" font-family="Arial" font-size="14.00">name </text>
<text text-anchor="start" x="459.62" y="-586" font-family="Arial" font-size="14.00" fill="#666666">[text]</text>
<polygon fill="none" stroke="black" points="413.71,-543 413.71,-573.8 637.66,-573.8 637.66,-543 413.71,-543"/>
<text text-anchor="start" x="420.71" y="-555.2" font-family="Arial" font-size="14.00">details </text>
<text text-anchor="start" x="465.07" y="-555.2" font-family="Arial" font-size="14.00" fill="#666666">[text]</text>
<polygon fill="none" stroke="black" points="413.71,-512.2 413.71,-543 637.66,-543 637.66,-512.2 413.71,-512.2"/>
<text text-anchor="start" x="420.71" y="-524.4" font-family="Arial" font-size="14.00">actor_type </text>
<text text-anchor="start" x="489.97" y="-524.4" font-family="Arial" font-size="14.00" fill="#666666">[actor_type]</text>
<polygon fill="none" stroke="black" points="413.71,-481.4 413.71,-512.2 637.66,-512.2 637.66,-481.4 413.71,-481.4"/>
<text text-anchor="start" x="420.71" y="-493.6" font-family="Arial" font-size="14.00">superclass_of_key </text>
<text text-anchor="start" x="540.55" y="-493.6" font-family="Arial" font-size="14.00" fill="#666666">[text]</text>
<polygon fill="none" stroke="black" points="413.71,-450.6 413.71,-481.4 637.66,-481.4 637.66,-450.6 413.71,-450.6"/>
<text text-anchor="start" x="420.71" y="-462.8" font-family="Arial" font-size="14.00">subclass_of_key </text>
<text text-anchor="start" x="528.1" y="-462.8" font-family="Arial" font-size="14.00" fill="#666666">[text]</text>
<polygon fill="none" stroke="black" points="413.71,-419.8 413.71,-450.6 637.66,-450.6 637.66,-419.8 413.71,-419.8"/>
<text text-anchor="start" x="420.71" y="-432" font-family="Arial" font-size="14.00">uml_comment </text>
<text text-anchor="start" x="512.52" y="-432" font-family="Arial" font-size="14.00" fill="#666666">[text]</text>
<polygon fill="none" stroke="black" stroke-width="3" points="412.21,-418.3 412.21,-703.3 639.16,-703.3 639.16,-418.3 412.21,-418.3"/>
</g>
<!-- public.model -->
<g id="node2" class="node">
<title>public.model</title>
<polygon fill="#efefef" stroke="none" points="43.2,-197.2 43.2,-232.8 276.17,-232.8 276.17,-197.2 43.2,-197.2"/>
<polygon fill="none" stroke="black" points="43.2,-197.2 43.2,-232.8 276.17,-232.8 276.17,-197.2 43.2,-197.2"/>
<text text-anchor="start" x="50.2" y="-210.6" font-family="Arial Bold" font-size="18.00">public.model</text>
<text text-anchor="start" x="144.68" y="-210.6" font-family="Arial" font-size="14.00">    </text>
<text text-anchor="start" x="175.8" y="-210.6" font-family="Arial" font-size="14.00" fill="#666666">[BASE TABLE]</text>
<polygon fill="none" stroke="black" points="43.2,-166.4 43.2,-197.2 276.17,-197.2 276.17,-166.4 43.2,-166.4"/>
<text text-anchor="start" x="50.2" y="-178.6" font-family="Arial" font-size="14.00">model_key </text>
<text text-anchor="start" x="121.79" y="-178.6" font-family="Arial" font-size="14.00" fill="#666666">[text]</text>
<polygon fill="none" stroke="black" points="43.2,-135.6 43.2,-166.4 276.17,-166.4 276.17,-135.6 43.2,-135.6"/>
<text text-anchor="start" x="50.2" y="-147.8" font-family="Arial" font-size="14.00">name </text>
<text text-anchor="start" x="89.11" y="-147.8" font-family="Arial" font-size="14.00" fill="#666666">[text]</text>
<polygon fill="none" stroke="black" points="43.2,-104.8 43.2,-135.6 276.17,-135.6 276.17,-104.8 43.2,-104.8"/>
<text text-anchor="start" x="50.2" y="-117" font-family="Arial" font-size="14.00">details </text>
<text text-anchor="start" x="94.56" y="-117" font-family="Arial" font-size="14.00" fill="#666666">[text]</text>
</g>
<!-- public.actor&#45;&gt;public.model -->
<g id="edge1" class="edge">
<title>public.actor:model_key&#45;&gt;public.model:model_key</title>
<path fill="none" stroke="black" d="M405.82,-643.43C373.82,-583.77 302.28,-181.8 277.17,-181.8"/>
<polygon fill="black" stroke="black" points="405.65,-643.25 409.19,-653.63 409.29,-647.15 412.25,-650.31 412.25,-650.31 412.25,-650.31 409.29,-647.15 415.77,-647.48 405.65,-643.25"/>
<text text-anchor="start" x="12.83" y="-660.8" font-family="Arial" font-size="10.00">FOREIGN KEY (model_key) REFERENCES model(model_key) ON DELETE CASCADE</text>
</g>
<!-- public.generalization -->
<g id="node3" class="node">
<title>public.generalization</title>
<polygon fill="#efefef" stroke="none" points="380.72,-258.8 380.72,-294.4 670.65,-294.4 670.65,-258.8 380.72,-258.8"/>
<polygon fill="none" stroke="black" points="380.72,-258.8 380.72,-294.4 670.65,-294.4 670.65,-258.8 380.72,-258.8"/>
<text text-anchor="start" x="387.72" y="-272.2" font-family="Arial Bold" font-size="18.00">public.generalization</text>
<text text-anchor="start" x="539.16" y="-272.2" font-family="Arial" font-size="14.00">    </text>
<text text-anchor="start" x="570.28" y="-272.2" font-family="Arial" font-size="14.00" fill="#666666">[BASE TABLE]</text>
<polygon fill="none" stroke="black" points="380.72,-228 380.72,-258.8 670.65,-258.8 670.65,-228 380.72,-228"/>
<text text-anchor="start" x="387.72" y="-240.2" font-family="Arial" font-size="14.00">model_key </text>
<text text-anchor="start" x="459.32" y="-240.2" font-family="Arial" font-size="14.00" fill="#666666">[text]</text>
<polygon fill="none" stroke="black" points="380.72,-197.2 380.72,-228 670.65,-228 670.65,-197.2 380.72,-197.2"/>
<text text-anchor="start" x="387.72" y="-209.4" font-family="Arial" font-size="14.00">generalization_key </text>
<text text-anchor="start" x="508.36" y="-209.4" font-family="Arial" font-size="14.00" fill="#666666">[text]</text>
<polygon fill="none" stroke="black" points="380.72,-166.4 380.72,-197.2 670.65,-197.2 670.65,-166.4 380.72,-166.4"/>
<text text-anchor="start" x="387.72" y="-178.6" font-family="Arial" font-size="14.00">name </text>
<text text-anchor="start" x="426.63" y="-178.6" font-family="Arial" font-size="14.00" fill="#666666">[text]</text>
<polygon fill="none" stroke="black" points="380.72,-135.6 380.72,-166.4 670.65,-166.4 670.65,-135.6 380.72,-135.6"/>
<text text-anchor="start" x="387.72" y="-147.8" font-family="Arial" font-size="14.00">is_complete </text>
<text text-anchor="start" x="466.32" y="-147.8" font-family="Arial" font-size="14.00" fill="#666666">[boolean]</text>
<polygon fill="none" stroke="black" points="380.72,-104.8 380.72,-135.6 670.65,-135.6 670.65,-104.8 380.72,-104.8"/>
<text text-anchor="start" x="387.72" y="-117" font-family="Arial" font-size="14.00">is_static </text>
<text text-anchor="start" x="442.19" y="-117" font-family="Arial" font-size="14.00" fill="#666666">[boolean]</text>
<polygon fill="none" stroke="black" points="380.72,-74 380.72,-104.8 670.65,-104.8 670.65,-74 380.72,-74"/>
<text text-anchor="start" x="387.72" y="-86.2" font-family="Arial" font-size="14.00">details </text>
<text text-anchor="start" x="432.08" y="-86.2" font-family="Arial" font-size="14.00" fill="#666666">[text]</text>
<polygon fill="none" stroke="black" points="380.72,-43.2 380.72,-74 670.65,-74 670.65,-43.2 380.72,-43.2"/>
<text text-anchor="start" x="387.72" y="-55.4" font-family="Arial" font-size="14.00">uml_comment </text>
<text text-anchor="start" x="479.53" y="-55.4" font-family="Arial" font-size="14.00" fill="#666666">[text]</text>
</g>
<!-- public.actor&#45;&gt;public.generalization -->
<g id="edge2" class="edge">
<title>public.actor:model_key&#45;&gt;public.generalization:model_key</title>
<path fill="none" stroke="black" d="M648.48,-648.8C723.01,-618.07 750.12,-243.4 671.65,-243.4"/>
<polygon fill="black" stroke="black" points="648.79,-648.74 638.09,-646.32 643.56,-649.8 639.32,-650.67 639.32,-650.67 639.32,-650.67 643.56,-649.8 639.89,-655.14 648.79,-648.74"/>
<text text-anchor="start" x="645.66" y="-660.8" font-family="Arial" font-size="10.00">FOREIGN KEY (model_key, subclass_of_key) REFERENCES generalization(model_key, generalization_key) ON DELETE CASCADE</text>
</g>
<!-- public.actor&#45;&gt;public.generalization -->
<g id="edge3" class="edge">
<title>public.actor:model_key&#45;&gt;public.generalization:model_key</title>
<path fill="none" stroke="black" d="M649.2,-649.25C740.61,-621.97 767.82,-244.17 671.94,-243.4"/>
<polygon fill="black" stroke="black" points="649.17,-649.25 638.61,-646.3 643.9,-650.05 639.62,-650.7 639.62,-650.7 639.62,-650.7 643.9,-650.05 639.96,-655.2 649.17,-649.25"/>
<text text-anchor="start" x="645.96" y="-634.8" font-family="Arial" font-size="10.00">FOREIGN KEY (model_key, superclass_of_key) REFERENCES generalization(model_key, generalization_key) ON DELETE CASCADE</text>
</g>
<!-- public.class -->
<g id="node4" class="node">
<title>public.class</title>
<polygon fill="#efefef" stroke="none" points="414.2,-1104.4 414.2,-1140 637.17,-1140 637.17,-1104.4 414.2,-1104.4"/>
<polygon fill="none" stroke="black" points="414.2,-1104.4 414.2,-1140 637.17,-1140 637.17,-1104.4 414.2,-1104.4"/>
<text text-anchor="start" x="421.2" y="-1117.8" font-family="Arial Bold" font-size="18.00">public.class</text>
<text text-anchor="start" x="505.68" y="-1117.8" font-family="Arial" font-size="14.00">    </text>
<text text-anchor="start" x="536.8" y="-1117.8" font-family="Arial" font-size="14.00" fill="#666666">[BASE TABLE]</text>
<polygon fill="none" stroke="black" points="414.2,-1073.6 414.2,-1104.4 637.17,-1104.4 637.17,-1073.6 414.2,-1073.6"/>
<text text-anchor="start" x="421.2" y="-1085.8" font-family="Arial" font-size="14.00">model_key </text>
<text text-anchor="start" x="492.79" y="-1085.8" font-family="Arial" font-size="14.00" fill="#666666">[text]</text>
<polygon fill="none" stroke="black" points="414.2,-1042.8 414.2,-1073.6 637.17,-1073.6 637.17,-1042.8 414.2,-1042.8"/>
<text text-anchor="start" x="421.2" y="-1055" font-family="Arial" font-size="14.00">class_key </text>
<text text-anchor="start" x="486.56" y="-1055" font-family="Arial" font-size="14.00" fill="#666666">[text]</text>
<polygon fill="none" stroke="black" points="414.2,-1012 414.2,-1042.8 637.17,-1042.8 637.17,-1012 414.2,-1012"/>
<text text-anchor="start" x="421.2" y="-1024.2" font-family="Arial" font-size="14.00">name </text>
<text text-anchor="start" x="460.11" y="-1024.2" font-family="Arial" font-size="14.00" fill="#666666">[text]</text>
<polygon fill="none" stroke="black" points="414.2,-981.2 414.2,-1012 637.17,-1012 637.17,-981.2 414.2,-981.2"/>
<text text-anchor="start" x="421.2" y="-993.4" font-family="Arial" font-size="14.00">subdomain_key </text>
<text text-anchor="start" x="523.15" y="-993.4" font-family="Arial" font-size="14.00" fill="#666666">[text]</text>
<polygon fill="none" stroke="black" points="414.2,-950.4 414.2,-981.2 637.17,-981.2 637.17,-950.4 414.2,-950.4"/>
<text text-anchor="start" x="421.2" y="-962.6" font-family="Arial" font-size="14.00">actor_key </text>
<text text-anchor="start" x="485.79" y="-962.6" font-family="Arial" font-size="14.00" fill="#666666">[text]</text>
<polygon fill="none" stroke="black" points="414.2,-919.6 414.2,-950.4 637.17,-950.4 637.17,-919.6 414.2,-919.6"/>
<text text-anchor="start" x="421.2" y="-931.8" font-family="Arial" font-size="14.00">superclass_of_key </text>
<text text-anchor="start" x="541.04" y="-931.8" font-family="Arial" font-size="14.00" fill="#666666">[text]</text>
<polygon fill="none" stroke="black" points="414.2,-888.8 414.2,-919.6 637.17,-919.6 637.17,-888.8 414.2,-888.8"/>
<text text-anchor="start" x="421.2" y="-901" font-family="Arial" font-size="14.00">subclass_of_key </text>
<text text-anchor="start" x="528.59" y="-901" font-family="Arial" font-size="14.00" fill="#666666">[text]</text>
<polygon fill="none" stroke="black" points="414.2,-858 414.2,-888.8 637.17,-888.8 637.17,-858 414.2,-858"/>
<text text-anchor="start" x="421.2" y="-870.2" font-family="Arial" font-size="14.00">details </text>
<text text-anchor="start" x="465.56" y="-870.2" font-family="Arial" font-size="14.00" fill="#666666">[text]</text>
<polygon fill="none" stroke="black" points="414.2,-827.2 414.2,-858 637.17,-858 637.17,-827.2 414.2,-827.2"/>
<text text-anchor="start" x="421.2" y="-839.4" font-family="Arial" font-size="14.00">uml_comment </text>
<text text-anchor="start" x="513.01" y="-839.4" font-family="Arial" font-size="14.00" fill="#666666">[text]</text>
</g>
<!-- public.class&#45;&gt;public.actor -->
<g id="edge4" class="edge">
<title>public.class:model_key&#45;&gt;public.actor:model_key</title>
<path fill="none" stroke="black" d="M648.35,-1087.33C735.46,-1057.91 732.52,-650.8 638.66,-650.8"/>
<polygon fill="black" stroke="black" points="648.37,-1087.32 637.77,-1084.51 643.1,-1088.19 638.83,-1088.89 638.83,-1088.89 638.83,-1088.89 643.1,-1088.19 639.23,-1093.39 648.37,-1087.32"/>
<text text-anchor="start" x="645.17" y="-1099" font-family="Arial" font-size="10.00">FOREIGN KEY (model_key, actor_key) REFERENCES actor(model_key, actor_key) ON DELETE CASCADE</text>
</g>
</g>
</svg>
