<?xml version="1.0" encoding="UTF-8" standalone="no"?>
<!DOCTYPE svg PUBLIC "-//W3C//DTD SVG 1.1//EN"
 "http://www.w3.org/Graphics/SVG/1.1/DTD/svg11.dtd">
<!-- Generated by graphviz version 12.1.2 (20240928.0832)
 -->
<!-- Title: public.action_parameter Pages: 1 -->
<svg width="2090pt" height="1099pt"
 viewBox="0.00 0.00 2090.03 1098.80" xmlns="http://www.w3.org/2000/svg" xmlns:xlink="http://www.w3.org/1999/xlink">
<g id="graph0" class="graph" transform="scale(1 1) rotate(0) translate(4 1094.8)">
<title>public.action_parameter</title>
<polygon fill="white" stroke="none" points="-4,4 -4,-1094.8 2086.03,-1094.8 2086.03,4 -4,4"/>
<!-- public.action_parameter -->
<g id="node1" class="node">
<title>public.action_parameter</title>
<polygon fill="#efefef" stroke="none" points="884.31,-727.8 884.31,-763.4 1197.22,-763.4 1197.22,-727.8 884.31,-727.8"/>
<polygon fill="none" stroke="black" points="884.31,-727.8 884.31,-763.4 1197.22,-763.4 1197.22,-727.8 884.31,-727.8"/>
<text text-anchor="start" x="891.31" y="-741.2" font-family="Arial Bold" font-size="18.00">public.action_parameter</text>
<text text-anchor="start" x="1065.73" y="-741.2" font-family="Arial" font-size="14.00">    </text>
<text text-anchor="start" x="1096.85" y="-741.2" font-family="Arial" font-size="14.00" fill="#666666">[BASE TABLE]</text>
<polygon fill="none" stroke="black" points="884.31,-697 884.31,-727.8 1197.22,-727.8 1197.22,-697 884.31,-697"/>
<text text-anchor="start" x="891.31" y="-709.2" font-family="Arial" font-size="14.00">model_key </text>
<text text-anchor="start" x="962.9" y="-709.2" font-family="Arial" font-size="14.00" fill="#666666">[text]</text>
<polygon fill="none" stroke="black" points="884.31,-666.2 884.31,-697 1197.22,-697 1197.22,-666.2 884.31,-666.2"/>
<text text-anchor="start" x="891.31" y="-678.4" font-family="Arial" font-size="14.00">action_key </text>
<text text-anchor="start" x="962.13" y="-678.4" font-family="Arial" font-size="14.00" fill="#666666">[text]</text>
<polygon fill="none" stroke="black" points="884.31,-635.4 884.31,-666.2 1197.22,-666.2 1197.22,-635.4 884.31,-635.4"/>
<text text-anchor="start" x="891.31" y="-647.6" font-family="Arial" font-size="14.00">parameter_key </text>
<text text-anchor="start" x="988.58" y="-647.6" font-family="Arial" font-size="14.00" fill="#666666">[text]</text>
<polygon fill="none" stroke="black" points="884.31,-604.6 884.31,-635.4 1197.22,-635.4 1197.22,-604.6 884.31,-604.6"/>
<text text-anchor="start" x="891.31" y="-616.8" font-family="Arial" font-size="14.00">name </text>
<text text-anchor="start" x="930.22" y="-616.8" font-family="Arial" font-size="14.00" fill="#666666">[text]</text>
<polygon fill="none" stroke="black" points="884.31,-573.8 884.31,-604.6 1197.22,-604.6 1197.22,-573.8 884.31,-573.8"/>
<text text-anchor="start" x="891.31" y="-586" font-family="Arial" font-size="14.00">sort_order </text>
<text text-anchor="start" x="959.01" y="-586" font-family="Arial" font-size="14.00" fill="#666666">[integer]</text>
<polygon fill="none" stroke="black" points="884.31,-543 884.31,-573.8 1197.22,-573.8 1197.22,-543 884.31,-543"/>
<text text-anchor="start" x="891.31" y="-555.2" font-family="Arial" font-size="14.00">data_type_rules </text>
<text text-anchor="start" x="994.83" y="-555.2" font-family="Arial" font-size="14.00" fill="#666666">[text]</text>
<polygon fill="none" stroke="black" points="884.31,-512.2 884.31,-543 1197.22,-543 1197.22,-512.2 884.31,-512.2"/>
<text text-anchor="start" x="891.31" y="-524.4" font-family="Arial" font-size="14.00">data_type_key </text>
<text text-anchor="start" x="986.27" y="-524.4" font-family="Arial" font-size="14.00" fill="#666666">[text]</text>
<polygon fill="none" stroke="black" points="884.31,-481.4 884.31,-512.2 1197.22,-512.2 1197.22,-481.4 884.31,-481.4"/>
<text text-anchor="start" x="891.31" y="-493.6" font-family="Arial" font-size="14.00">nullable </text>
<text text-anchor="start" x="943.46" y="-493.6" font-family="Arial" font-size="14.00" fill="#666666">[boolean]</text>
<polygon fill="none" stroke="black" stroke-width="3" points="882.81,-479.9 882.81,-764.9 1198.72,-764.9 1198.72,-479.9 882.81,-479.9"/>
</g>
<!-- public.data_type -->
<g id="node2" class="node">
<title>public.data_type</title>
<polygon fill="#efefef" stroke="none" points="737.79,-320.4 737.79,-356 995.74,-356 995.74,-320.4 737.79,-320.4"/>
<polygon fill="none" stroke="black" points="737.79,-320.4 737.79,-356 995.74,-356 995.74,-320.4 737.79,-320.4"/>
<text text-anchor="start" x="744.79" y="-333.8" font-family="Arial Bold" font-size="18.00">public.data_type</text>
<text text-anchor="start" x="864.25" y="-333.8" font-family="Arial" font-size="14.00">    </text>
<text text-anchor="start" x="895.37" y="-333.8" font-family="Arial" font-size="14.00" fill="#666666">[BASE TABLE]</text>
<polygon fill="none" stroke="black" points="737.79,-289.6 737.79,-320.4 995.74,-320.4 995.74,-289.6 737.79,-289.6"/>
<text text-anchor="start" x="744.79" y="-301.8" font-family="Arial" font-size="14.00">model_key </text>
<text text-anchor="start" x="816.38" y="-301.8" font-family="Arial" font-size="14.00" fill="#666666">[text]</text>
<polygon fill="none" stroke="black" points="737.79,-258.8 737.79,-289.6 995.74,-289.6 995.74,-258.8 737.79,-258.8"/>
<text text-anchor="start" x="744.79" y="-271" font-family="Arial" font-size="14.00">data_type_key </text>
<text text-anchor="start" x="839.75" y="-271" font-family="Arial" font-size="14.00" fill="#666666">[text]</text>
<polygon fill="none" stroke="black" points="737.79,-228 737.79,-258.8 995.74,-258.8 995.74,-228 737.79,-228"/>
<text text-anchor="start" x="744.79" y="-240.2" font-family="Arial" font-size="14.00">collection_type </text>
<text text-anchor="start" x="841.29" y="-240.2" font-family="Arial" font-size="14.00" fill="#666666">[collection_type]</text>
<polygon fill="none" stroke="black" points="737.79,-197.2 737.79,-228 995.74,-228 995.74,-197.2 737.79,-197.2"/>
<text text-anchor="start" x="744.79" y="-209.4" font-family="Arial" font-size="14.00">collection_unique </text>
<text text-anchor="start" x="856.87" y="-209.4" font-family="Arial" font-size="14.00" fill="#666666">[boolean]</text>
<polygon fill="none" stroke="black" points="737.79,-166.4 737.79,-197.2 995.74,-197.2 995.74,-166.4 737.79,-166.4"/>
<text text-anchor="start" x="744.79" y="-178.6" font-family="Arial" font-size="14.00">collection_min </text>
<text text-anchor="start" x="837.39" y="-178.6" font-family="Arial" font-size="14.00" fill="#666666">[bigint]</text>
<polygon fill="none" stroke="black" points="737.79,-135.6 737.79,-166.4 995.74,-166.4 995.74,-135.6 737.79,-135.6"/>
<text text-anchor="start" x="744.79" y="-147.8" font-family="Arial" font-size="14.00">collection_max </text>
<text text-anchor="start" x="841.28" y="-147.8" font-family="Arial" font-size="14.00" fill="#666666">[bigint]</text>
<polygon fill="none" stroke="black" points="737.79,-104.8 737.79,-135.6 995.74,-135.6 995.74,-104.8 737.79,-104.8"/>
<text text-anchor="start" x="744.79" y="-117" font-family="Arial" font-size="14.00">element_data_type_key </text>
<text text-anchor="start" x="897.34" y="-117" font-family="Arial" font-size="14.00" fill="#666666">[text]</text>
<polygon fill="none" stroke="black" points="737.79,-74 737.79,-104.8 995.74,-104.8 995.74,-74 737.79,-74"/>
<text text-anchor="start" x="744.79" y="-86.2" font-family="Arial" font-size="14.00">type_spec_notation </text>
<text text-anchor="start" x="870.11" y="-86.2" font-family="Arial" font-size="14.00" fill="#666666">[notation]</text>
<polygon fill="none" stroke="black" points="737.79,-43.2 737.79,-74 995.74,-74 995.74,-43.2 737.79,-43.2"/>
<text text-anchor="start" x="744.79" y="-55.4" font-family="Arial" font-size="14.00">type_spec_specification </text>
<text text-anchor="start" x="897.33" y="-55.4" font-family="Arial" font-size="14.00" fill="#666666">[text]</text>
</g>
<!-- public.action_parameter&#45;&gt;public.data_type -->
<g id="edge1" class="edge">
<title>public.action_parameter:model_key&#45;&gt;public.data_type:model_key</title>
<path fill="none" stroke="black" d="M872.93,-711.95C763.15,-702.05 813.76,-531.77 884.31,-435.2 915.01,-393.18 964.89,-441.12 995.74,-399.2 1020.56,-365.48 1038.61,-305 996.74,-305"/>
<polygon fill="black" stroke="black" points="872.99,-711.95 882.78,-716.88 878.32,-712.18 882.64,-712.37 882.64,-712.37 882.64,-712.37 878.32,-712.18 883.17,-707.89 872.99,-711.95"/>
<text text-anchor="start" x="325.53" y="-722.4" font-family="Arial" font-size="10.00">FOREIGN KEY (model_key, data_type_key) REFERENCES data_type(model_key, data_type_key) ON DELETE CASCADE</text>
</g>
<!-- public.action -->
<g id="node3" class="node">
<title>public.action</title>
<polygon fill="#efefef" stroke="none" points="1099.78,-258.8 1099.78,-294.4 1331.75,-294.4 1331.75,-258.8 1099.78,-258.8"/>
<polygon fill="none" stroke="black" points="1099.78,-258.8 1099.78,-294.4 1331.75,-294.4 1331.75,-258.8 1099.78,-258.8"/>
<text text-anchor="start" x="1106.78" y="-272.2" font-family="Arial Bold" font-size="18.00">public.action</text>
<text text-anchor="start" x="1200.26" y="-272.2" font-family="Arial" font-size="14.00">    </text>
<text text-anchor="start" x="1231.37" y="-272.2" font-family="Arial" font-size="14.00" fill="#666666">[BASE TABLE]</text>
<polygon fill="none" stroke="black" points="1099.78,-228 1099.78,-258.8 1331.75,-258.8 1331.75,-228 1099.78,-228"/>
<text text-anchor="start" x="1106.78" y="-240.2" font-family="Arial" font-size="14.00">model_key </text>
<text text-anchor="start" x="1178.38" y="-240.2" font-family="Arial" font-size="14.00" fill="#666666">[text]</text>
<polygon fill="none" stroke="black" points="1099.78,-197.2 1099.78,-228 1331.75,-228 1331.75,-197.2 1099.78,-197.2"/>
<text text-anchor="start" x="1106.78" y="-209.4" font-family="Arial" font-size="14.00">class_key </text>
<text text-anchor="start" x="1172.14" y="-209.4" font-family="Arial" font-size="14.00" fill="#666666">[text]</text>
<polygon fill="none" stroke="black" points="1099.78,-166.4 1099.78,-197.2 1331.75,-197.2 1331.75,-166.4 1099.78,-166.4"/>
<text text-anchor="start" x="1106.78" y="-178.6" font-family="Arial" font-size="14.00">action_key </text>
<text text-anchor="start" x="1177.6" y="-178.6" font-family="Arial" font-size="14.00" fill="#666666">[text]</text>
<polygon fill="none" stroke="black" points="1099.78,-135.6 1099.78,-166.4 1331.75,-166.4 1331.75,-135.6 1099.78,-135.6"/>
<text text-anchor="start" x="1106.78" y="-147.8" font-family="Arial" font-size="14.00">name </text>
<text text-anchor="start" x="1145.69" y="-147.8" font-family="Arial" font-size="14.00" fill="#666666">[text]</text>
<polygon fill="none" stroke="black" points="1099.78,-104.8 1099.78,-135.6 1331.75,-135.6 1331.75,-104.8 1099.78,-104.8"/>
<text text-anchor="start" x="1106.78" y="-117" font-family="Arial" font-size="14.00">details </text>
<text text-anchor="start" x="1151.14" y="-117" font-family="Arial" font-size="14.00" fill="#666666">[text]</text>
</g>
<!-- public.action_parameter&#45;&gt;public.action -->
<g id="edge2" class="edge">
<title>public.action_parameter:model_key&#45;&gt;public.action:model_key</title>
<path fill="none" stroke="black" d="M1208.54,-711.98C1316.94,-702.87 1243.14,-545.62 1197.22,-435.2 1173.69,-378.6 1123.52,-394.11 1099.78,-337.6 1083.57,-299 1056.92,-243.4 1098.78,-243.4"/>
<polygon fill="black" stroke="black" points="1208.55,-711.98 1198.37,-707.89 1203.22,-712.2 1198.89,-712.37 1198.89,-712.37 1198.89,-712.37 1203.22,-712.2 1198.73,-716.88 1208.55,-711.98"/>
<text text-anchor="start" x="1205.22" y="-722.4" font-family="Arial" font-size="10.00">FOREIGN KEY (model_key, action_key) REFERENCES action(model_key, action_key) ON DELETE CASCADE</text>
</g>
<!-- public.action_parameter_invariant -->
<g id="node4" class="node">
<title>public.action_parameter_invariant</title>
<polygon fill="#efefef" stroke="none" points="321.82,-1012 321.82,-1047.6 707.71,-1047.6 707.71,-1012 321.82,-1012"/>
<polygon fill="none" stroke="black" points="321.82,-1012 321.82,-1047.6 707.71,-1047.6 707.71,-1012 321.82,-1012"/>
<text text-anchor="start" x="328.82" y="-1025.4" font-family="Arial Bold" font-size="18.00">public.action_parameter_invariant</text>
<text text-anchor="start" x="576.22" y="-1025.4" font-family="Arial" font-size="14.00">    </text>
<text text-anchor="start" x="607.33" y="-1025.4" font-family="Arial" font-size="14.00" fill="#666666">[BASE TABLE]</text>
<polygon fill="none" stroke="black" points="321.82,-981.2 321.82,-1012 707.71,-1012 707.71,-981.2 321.82,-981.2"/>
<text text-anchor="start" x="328.82" y="-993.4" font-family="Arial" font-size="14.00">model_key </text>
<text text-anchor="start" x="400.42" y="-993.4" font-family="Arial" font-size="14.00" fill="#666666">[text]</text>
<polygon fill="none" stroke="black" points="321.82,-950.4 321.82,-981.2 707.71,-981.2 707.71,-950.4 321.82,-950.4"/>
<text text-anchor="start" x="328.82" y="-962.6" font-family="Arial" font-size="14.00">action_key </text>
<text text-anchor="start" x="399.64" y="-962.6" font-family="Arial" font-size="14.00" fill="#666666">[text]</text>
<polygon fill="none" stroke="black" points="321.82,-919.6 321.82,-950.4 707.71,-950.4 707.71,-919.6 321.82,-919.6"/>
<text text-anchor="start" x="328.82" y="-931.8" font-family="Arial" font-size="14.00">parameter_key </text>
<text text-anchor="start" x="426.09" y="-931.8" font-family="Arial" font-size="14.00" fill="#666666">[text]</text>
<polygon fill="none" stroke="black" points="321.82,-888.8 321.82,-919.6 707.71,-919.6 707.71,-888.8 321.82,-888.8"/>
<text text-anchor="start" x="328.82" y="-901" font-family="Arial" font-size="14.00">logic_key </text>
<text text-anchor="start" x="391.08" y="-901" font-family="Arial" font-size="14.00" fill="#666666">[text]</text>
</g>
<!-- public.action_parameter_invariant&#45;&gt;public.action_parameter -->
<g id="edge3" class="edge">
<title>public.action_parameter_invariant:model_key&#45;&gt;public.action_parameter:model_key</title>
<path fill="none" stroke="black" d="M718.89,-995.87C773.9,-987.18 725.44,-903.26 759.77,-845.6 801.07,-776.22 802.57,-712.4 883.31,-712.4"/>
<polygon fill="black" stroke="black" points="719.01,-995.86 708.72,-992.09 713.69,-996.24 709.37,-996.55 709.37,-996.55 709.37,-996.55 713.69,-996.24 709.36,-1001.06 719.01,-995.86"/>
<text text-anchor="start" x="7" y="-1006.6" font-family="Arial" font-size="10.00">FOREIGN KEY (model_key, action_key, parameter_key) REFERENCES action_parameter(model_key, action_key, parameter_key) ON DELETE CASCADE</text>
</g>
<!-- public.action_parameter_simulation_require -->
<g id="node5" class="node">
<title>public.action_parameter_simulation_require</title>
<polygon fill="#efefef" stroke="none" points="811.83,-1012 811.83,-1047.6 1269.7,-1047.6 1269.7,-1012 811.83,-1012"/>
<polygon fill="none" stroke="black" points="811.83,-1012 811.83,-1047.6 1269.7,-1047.6 1269.7,-1012 811.83,-1012"/>
<text text-anchor="start" x="818.83" y="-1025.4" font-family="Arial Bold" font-size="18.00">public.action_parameter_simulation_require</text>
<text text-anchor="start" x="1138.21" y="-1025.4" font-family="Arial" font-size="14.00">    </text>
<text text-anchor="start" x="1169.33" y="-1025.4" font-family="Arial" font-size="14.00" fill="#666666">[BASE TABLE]</text>
<polygon fill="none" stroke="black" points="811.83,-981.2 811.83,-1012 1269.7,-1012 1269.7,-981.2 811.83,-981.2"/>
<text text-anchor="start" x="818.83" y="-993.4" font-family="Arial" font-size="14.00">model_key </text>
<text text-anchor="start" x="890.42" y="-993.4" font-family="Arial" font-size="14.00" fill="#666666">[text]</text>
<polygon fill="none" stroke="black" points="811.83,-950.4 811.83,-981.2 1269.7,-981.2 1269.7,-950.4 811.83,-950.4"/>
<text text-anchor="start" x="818.83" y="-962.6" font-family="Arial" font-size="14.00">action_key </text>
<text text-anchor="start" x="889.65" y="-962.6" font-family="Arial" font-size="14.00" fill="#666666">[text]</text>
<polygon fill="none" stroke="black" points="811.83,-919.6 811.83,-950.4 1269.7,-950.4 1269.7,-919.6 811.83,-919.6"/>
<text text-anchor="start" x="818.83" y="-931.8" font-family="Arial" font-size="14.00">parameter_key </text>
<text text-anchor="start" x="916.1" y="-931.8" font-family="Arial" font-size="14.00" fill="#666666">[text]</text>
<polygon fill="none" stroke="black" points="811.83,-888.8 811.83,-919.6 1269.7,-919.6 1269.7,-888.8 811.83,-888.8"/>
<text text-anchor="start" x="818.83" y="-901" font-family="Arial" font-size="14.00">logic_key </text>
<text text-anchor="start" x="881.08" y="-901" font-family="Arial" font-size="14.00" fill="#666666">[text]</text>
</g>
<!-- public.action_parameter_simulation_require&#45;&gt;public.action_parameter -->
<g id="edge4" class="edge">
<title>public.action_parameter_simulation_require:model_key&#45;&gt;public.action_parameter:model_key</title>
<path fill="none" stroke="black" d="M1280.48,-993.97C1327.69,-965.32 1259.7,-712.4 1198.22,-712.4"/>
<polygon fill="black" stroke="black" points="1280.68,-993.91 1269.86,-992.17 1275.53,-995.3 1271.35,-996.43 1271.35,-996.43 1271.35,-996.43 1275.53,-995.3 1272.2,-1000.86 1280.68,-993.91"/>
<text text-anchor="start" x="1277.7" y="-1006.6" font-family="Arial" font-size="10.00">FOREIGN KEY (model_key, action_key, parameter_key) REFERENCES action_parameter(model_key, action_key, parameter_key) ON DELETE CASCADE</text>
</g>
<!-- public.action_parameter_simulation_spec -->
<g id="node6" class="node">
<title>public.action_parameter_simulation_spec</title>
<polygon fill="#efefef" stroke="none" points="1374.32,-1012 1374.32,-1047.6 1813.21,-1047.6 1813.21,-1012 1374.32,-1012"/>
<polygon fill="none" stroke="black" points="1374.32,-1012 1374.32,-1047.6 1813.21,-1047.6 1813.21,-1012 1374.32,-1012"/>
<text text-anchor="start" x="1381.32" y="-1025.4" font-family="Arial Bold" font-size="18.00">public.action_parameter_simulation_spec</text>
<text text-anchor="start" x="1681.72" y="-1025.4" font-family="Arial" font-size="14.00">    </text>
<text text-anchor="start" x="1712.84" y="-1025.4" font-family="Arial" font-size="14.00" fill="#666666">[BASE TABLE]</text>
<polygon fill="none" stroke="black" points="1374.32,-981.2 1374.32,-1012 1813.21,-1012 1813.21,-981.2 1374.32,-981.2"/>
<text text-anchor="start" x="1381.32" y="-993.4" font-family="Arial" font-size="14.00">model_key </text>
<text text-anchor="start" x="1452.91" y="-993.4" font-family="Arial" font-size="14.00" fill="#666666">[text]</text>
<polygon fill="none" stroke="black" points="1374.32,-950.4 1374.32,-981.2 1813.21,-981.2 1813.21,-950.4 1374.32,-950.4"/>
<text text-anchor="start" x="1381.32" y="-962.6" font-family="Arial" font-size="14.00">action_key </text>
<text text-anchor="start" x="1452.14" y="-962.6" font-family="Arial" font-size="14.00" fill="#666666">[text]</text>
<polygon fill="none" stroke="black" points="1374.32,-919.6 1374.32,-950.4 1813.21,-950.4 1813.21,-919.6 1374.32,-919.6"/>
<text text-anchor="start" x="1381.32" y="-931.8" font-family="Arial" font-size="14.00">parameter_key </text>
<text text-anchor="start" x="1478.59" y="-931.8" font-family="Arial" font-size="14.00" fill="#666666">[text]</text>
<polygon fill="none" stroke="black" points="1374.32,-888.8 1374.32,-919.6 1813.21,-919.6 1813.21,-888.8 1374.32,-888.8"/>
<text text-anchor="start" x="1381.32" y="-901" font-family="Arial" font-size="14.00">logic_key </text>
<text text-anchor="start" x="1443.57" y="-901" font-family="Arial" font-size="14.00" fill="#666666">[text]</text>
</g>
<!-- public.action_parameter_simulation_spec&#45;&gt;public.action_parameter -->
<g id="edge5" class="edge">
<title>public.action_parameter_simulation_spec:model_key&#45;&gt;public.action_parameter:model_key</title>
<path fill="none" stroke="black" d="M1363.13,-995.87C1308.03,-987.18 1356.21,-903.27 1321.77,-845.6 1280.36,-776.28 1278.96,-712.4 1198.22,-712.4"/>
<polygon fill="black" stroke="black" points="1363.01,-995.86 1372.66,-1001.06 1368.33,-996.24 1372.65,-996.55 1372.65,-996.55 1372.65,-996.55 1368.33,-996.24 1373.31,-992.09 1363.01,-995.86"/>
<text text-anchor="start" x="1380.32" y="-980.6" font-family="Arial" font-size="10.00">FOREIGN KEY (model_key, action_key, parameter_key) REFERENCES action_parameter(model_key, action_key, parameter_key) ON DELETE CASCADE</text>
</g>
</g>
</svg>
