<?xml version="1.0" encoding="UTF-8" standalone="no"?>
<!DOCTYPE svg PUBLIC "-//W3C//DTD SVG 1.1//EN"
 "http://www.w3.org/Graphics/SVG/1.1/DTD/svg11.dtd">
<!-- Generated by graphviz version 12.1.2 (20240928.0832)
 -->
<!-- Title: public.use_case Pages: 1 -->
<svg width="1645pt" height="1160pt"
 viewBox="0.00 0.00 1645.42 1160.40" xmlns="http://www.w3.org/2000/svg" xmlns:xlink="http://www.w3.org/1999/xlink">
<g id="graph0" class="graph" transform="scale(1 1) rotate(0) translate(4 1156.4)">
<title>public.use_case</title>
<polygon fill="white" stroke="none" points="-4,4 -4,-1156.4 1641.42,-1156.4 1641.42,4 -4,4"/>
<!-- public.use_case -->
<g id="node1" class="node">
<title>public.use_case</title>
<polygon fill="#efefef" stroke="none" points="692.99,-758.6 692.99,-794.2 944.94,-794.2 944.94,-758.6 692.99,-758.6"/>
<polygon fill="none" stroke="black" points="692.99,-758.6 692.99,-794.2 944.94,-794.2 944.94,-758.6 692.99,-758.6"/>
<text text-anchor="start" x="699.99" y="-772" font-family="Arial Bold" font-size="18.00">public.use_case</text>
<text text-anchor="start" x="813.45" y="-772" font-family="Arial" font-size="14.00">    </text>
<text text-anchor="start" x="844.57" y="-772" font-family="Arial" font-size="14.00" fill="#666666">[BASE TABLE]</text>
<polygon fill="none" stroke="black" points="692.99,-727.8 692.99,-758.6 944.94,-758.6 944.94,-727.8 692.99,-727.8"/>
<text text-anchor="start" x="699.99" y="-740" font-family="Arial" font-size="14.00">model_key </text>
<text text-anchor="start" x="771.59" y="-740" font-family="Arial" font-size="14.00" fill="#666666">[text]</text>
<polygon fill="none" stroke="black" points="692.99,-697 692.99,-727.8 944.94,-727.8 944.94,-697 692.99,-697"/>
<text text-anchor="start" x="699.99" y="-709.2" font-family="Arial" font-size="14.00">use_case_key </text>
<text text-anchor="start" x="793.39" y="-709.2" font-family="Arial" font-size="14.00" fill="#666666">[text]</text>
<polygon fill="none" stroke="black" points="692.99,-666.2 692.99,-697 944.94,-697 944.94,-666.2 692.99,-666.2"/>
<text text-anchor="start" x="699.99" y="-678.4" font-family="Arial" font-size="14.00">name </text>
<text text-anchor="start" x="738.9" y="-678.4" font-family="Arial" font-size="14.00" fill="#666666">[text]</text>
<polygon fill="none" stroke="black" points="692.99,-635.4 692.99,-666.2 944.94,-666.2 944.94,-635.4 692.99,-635.4"/>
<text text-anchor="start" x="699.99" y="-647.6" font-family="Arial" font-size="14.00">details </text>
<text text-anchor="start" x="744.35" y="-647.6" font-family="Arial" font-size="14.00" fill="#666666">[text]</text>
<polygon fill="none" stroke="black" points="692.99,-604.6 692.99,-635.4 944.94,-635.4 944.94,-604.6 692.99,-604.6"/>
<text text-anchor="start" x="699.99" y="-616.8" font-family="Arial" font-size="14.00">level </text>
<text text-anchor="start" x="732.68" y="-616.8" font-family="Arial" font-size="14.00" fill="#666666">[use_case_level]</text>
<polygon fill="none" stroke="black" points="692.99,-573.8 692.99,-604.6 944.94,-604.6 944.94,-573.8 692.99,-573.8"/>
<text text-anchor="start" x="699.99" y="-586" font-family="Arial" font-size="14.00">read_only </text>
<text text-anchor="start" x="765.37" y="-586" font-family="Arial" font-size="14.00" fill="#666666">[boolean]</text>
<polygon fill="none" stroke="black" points="692.99,-543 692.99,-573.8 944.94,-573.8 944.94,-543 692.99,-543"/>
<text text-anchor="start" x="699.99" y="-555.2" font-family="Arial" font-size="14.00">subdomain_key </text>
<text text-anchor="start" x="801.94" y="-555.2" font-family="Arial" font-size="14.00" fill="#666666">[text]</text>
<polygon fill="none" stroke="black" points="692.99,-512.2 692.99,-543 944.94,-543 944.94,-512.2 692.99,-512.2"/>
<text text-anchor="start" x="699.99" y="-524.4" font-family="Arial" font-size="14.00">superclass_of_key </text>
<text text-anchor="start" x="819.83" y="-524.4" font-family="Arial" font-size="14.00" fill="#666666">[text]</text>
<polygon fill="none" stroke="black" points="692.99,-481.4 692.99,-512.2 944.94,-512.2 944.94,-481.4 692.99,-481.4"/>
<text text-anchor="start" x="699.99" y="-493.6" font-family="Arial" font-size="14.00">subclass_of_key </text>
<text text-anchor="start" x="807.39" y="-493.6" font-family="Arial" font-size="14.00" fill="#666666">[text]</text>
<polygon fill="none" stroke="black" points="692.99,-450.6 692.99,-481.4 944.94,-481.4 944.94,-450.6 692.99,-450.6"/>
<text text-anchor="start" x="699.99" y="-462.8" font-family="Arial" font-size="14.00">uml_comment </text>
<text text-anchor="start" x="791.8" y="-462.8" font-family="Arial" font-size="14.00" fill="#666666">[text]</text>
<polygon fill="none" stroke="black" stroke-width="3" points="691.49,-449.1 691.49,-795.7 946.44,-795.7 946.44,-449.1 691.49,-449.1"/>
</g>
<!-- public.model -->
<g id="node2" class="node">
<title>public.model</title>
<polygon fill="#efefef" stroke="none" points="139.48,-212.6 139.48,-248.2 372.45,-248.2 372.45,-212.6 139.48,-212.6"/>
<polygon fill="none" stroke="black" points="139.48,-212.6 139.48,-248.2 372.45,-248.2 372.45,-212.6 139.48,-212.6"/>
<text text-anchor="start" x="146.48" y="-226" font-family="Arial Bold" font-size="18.00">public.model</text>
<text text-anchor="start" x="240.96" y="-226" font-family="Arial" font-size="14.00">    </text>
<text text-anchor="start" x="272.08" y="-226" font-family="Arial" font-size="14.00" fill="#666666">[BASE TABLE]</text>
<polygon fill="none" stroke="black" points="139.48,-181.8 139.48,-212.6 372.45,-212.6 372.45,-181.8 139.48,-181.8"/>
<text text-anchor="start" x="146.48" y="-194" font-family="Arial" font-size="14.00">model_key </text>
<text text-anchor="start" x="218.07" y="-194" font-family="Arial" font-size="14.00" fill="#666666">[text]</text>
<polygon fill="none" stroke="black" points="139.48,-151 139.48,-181.8 372.45,-181.8 372.45,-151 139.48,-151"/>
<text text-anchor="start" x="146.48" y="-163.2" font-family="Arial" font-size="14.00">name </text>
<text text-anchor="start" x="185.39" y="-163.2" font-family="Arial" font-size="14.00" fill="#666666">[text]</text>
<polygon fill="none" stroke="black" points="139.48,-120.2 139.48,-151 372.45,-151 372.45,-120.2 139.48,-120.2"/>
<text text-anchor="start" x="146.48" y="-132.4" font-family="Arial" font-size="14.00">details </text>
<text text-anchor="start" x="190.84" y="-132.4" font-family="Arial" font-size="14.00" fill="#666666">[text]</text>
</g>
<!-- public.use_case&#45;&gt;public.model -->
<g id="edge1" class="edge">
<title>public.use_case:model_key&#45;&gt;public.model:model_key</title>
<path fill="none" stroke="black" d="M681.69,-743.03C488.08,-736.68 512.22,-549.31 423.97,-368.4 389.18,-297.1 452.78,-197.2 373.45,-197.2"/>
<polygon fill="black" stroke="black" points="681.66,-743.03 691.59,-747.69 686.99,-743.12 691.32,-743.19 691.32,-743.19 691.32,-743.19 686.99,-743.12 691.73,-738.7 681.66,-743.03"/>
<text text-anchor="start" x="292.11" y="-753.2" font-family="Arial" font-size="10.00">FOREIGN KEY (model_key) REFERENCES model(model_key) ON DELETE CASCADE</text>
</g>
<!-- public.subdomain -->
<g id="node3" class="node">
<title>public.subdomain</title>
<polygon fill="#efefef" stroke="none" points="476.48,-258.8 476.48,-294.4 743.45,-294.4 743.45,-258.8 476.48,-258.8"/>
<polygon fill="none" stroke="black" points="476.48,-258.8 476.48,-294.4 743.45,-294.4 743.45,-258.8 476.48,-258.8"/>
<text text-anchor="start" x="483.48" y="-272.2" font-family="Arial Bold" font-size="18.00">public.subdomain</text>
<text text-anchor="start" x="611.97" y="-272.2" font-family="Arial" font-size="14.00">    </text>
<text text-anchor="start" x="643.08" y="-272.2" font-family="Arial" font-size="14.00" fill="#666666">[BASE TABLE]</text>
<polygon fill="none" stroke="black" points="476.48,-228 476.48,-258.8 743.45,-258.8 743.45,-228 476.48,-228"/>
<text text-anchor="start" x="483.48" y="-240.2" font-family="Arial" font-size="14.00">subdomain_key </text>
<text text-anchor="start" x="585.43" y="-240.2" font-family="Arial" font-size="14.00" fill="#666666">[text]</text>
<polygon fill="none" stroke="black" points="476.48,-197.2 476.48,-228 743.45,-228 743.45,-197.2 476.48,-197.2"/>
<text text-anchor="start" x="483.48" y="-209.4" font-family="Arial" font-size="14.00">model_key </text>
<text text-anchor="start" x="555.07" y="-209.4" font-family="Arial" font-size="14.00" fill="#666666">[text]</text>
<polygon fill="none" stroke="black" points="476.48,-166.4 476.48,-197.2 743.45,-197.2 743.45,-166.4 476.48,-166.4"/>
<text text-anchor="start" x="483.48" y="-178.6" font-family="Arial" font-size="14.00">domain_key </text>
<text text-anchor="start" x="562.86" y="-178.6" font-family="Arial" font-size="14.00" fill="#666666">[text]</text>
<polygon fill="none" stroke="black" points="476.48,-135.6 476.48,-166.4 743.45,-166.4 743.45,-135.6 476.48,-135.6"/>
<text text-anchor="start" x="483.48" y="-147.8" font-family="Arial" font-size="14.00">name </text>
<text text-anchor="start" x="522.39" y="-147.8" font-family="Arial" font-size="14.00" fill="#666666">[text]</text>
<polygon fill="none" stroke="black" points="476.48,-104.8 476.48,-135.6 743.45,-135.6 743.45,-104.8 476.48,-104.8"/>
<text text-anchor="start" x="483.48" y="-117" font-family="Arial" font-size="14.00">details </text>
<text text-anchor="start" x="527.84" y="-117" font-family="Arial" font-size="14.00" fill="#666666">[text]</text>
<polygon fill="none" stroke="black" points="476.48,-74 476.48,-104.8 743.45,-104.8 743.45,-74 476.48,-74"/>
<text text-anchor="start" x="483.48" y="-86.2" font-family="Arial" font-size="14.00">uml_comment </text>
<text text-anchor="start" x="575.28" y="-86.2" font-family="Arial" font-size="14.00" fill="#666666">[text]</text>
</g>
<!-- public.use_case&#45;&gt;public.subdomain -->
<g id="edge2" class="edge">
<title>public.use_case:model_key&#45;&gt;public.subdomain:model_key</title>
<path fill="none" stroke="black" d="M681.82,-742.88C546.24,-734.04 646.04,-543.75 692.99,-404.4 704.87,-369.14 731.49,-372.83 743.45,-337.6 761.33,-285 800.01,-212.6 744.45,-212.6"/>
<polygon fill="black" stroke="black" points="681.66,-742.88 691.52,-747.69 687,-743.04 691.32,-743.18 691.32,-743.18 691.32,-743.18 687,-743.04 691.8,-738.69 681.66,-742.88"/>
<text text-anchor="start" x="119.23" y="-727.2" font-family="Arial" font-size="10.00">FOREIGN KEY (model_key, subdomain_key) REFERENCES subdomain(model_key, subdomain_key) ON DELETE CASCADE</text>
</g>
<!-- public.use_case_generalization -->
<g id="node4" class="node">
<title>public.use_case_generalization</title>
<polygon fill="#efefef" stroke="none" points="847.52,-289.6 847.52,-325.2 1210.41,-325.2 1210.41,-289.6 847.52,-289.6"/>
<polygon fill="none" stroke="black" points="847.52,-289.6 847.52,-325.2 1210.41,-325.2 1210.41,-289.6 847.52,-289.6"/>
<text text-anchor="start" x="854.52" y="-303" font-family="Arial Bold" font-size="18.00">public.use_case_generalization</text>
<text text-anchor="start" x="1078.92" y="-303" font-family="Arial" font-size="14.00">    </text>
<text text-anchor="start" x="1110.04" y="-303" font-family="Arial" font-size="14.00" fill="#666666">[BASE TABLE]</text>
<polygon fill="none" stroke="black" points="847.52,-258.8 847.52,-289.6 1210.41,-289.6 1210.41,-258.8 847.52,-258.8"/>
<text text-anchor="start" x="854.52" y="-271" font-family="Arial" font-size="14.00">model_key </text>
<text text-anchor="start" x="926.11" y="-271" font-family="Arial" font-size="14.00" fill="#666666">[text]</text>
<polygon fill="none" stroke="black" points="847.52,-228 847.52,-258.8 1210.41,-258.8 1210.41,-228 847.52,-228"/>
<text text-anchor="start" x="854.52" y="-240.2" font-family="Arial" font-size="14.00">generalization_key </text>
<text text-anchor="start" x="975.15" y="-240.2" font-family="Arial" font-size="14.00" fill="#666666">[text]</text>
<polygon fill="none" stroke="black" points="847.52,-197.2 847.52,-228 1210.41,-228 1210.41,-197.2 847.52,-197.2"/>
<text text-anchor="start" x="854.52" y="-209.4" font-family="Arial" font-size="14.00">name </text>
<text text-anchor="start" x="893.43" y="-209.4" font-family="Arial" font-size="14.00" fill="#666666">[text]</text>
<polygon fill="none" stroke="black" points="847.52,-166.4 847.52,-197.2 1210.41,-197.2 1210.41,-166.4 847.52,-166.4"/>
<text text-anchor="start" x="854.52" y="-178.6" font-family="Arial" font-size="14.00">subdomain_key </text>
<text text-anchor="start" x="956.47" y="-178.6" font-family="Arial" font-size="14.00" fill="#666666">[text]</text>
<polygon fill="none" stroke="black" points="847.52,-135.6 847.52,-166.4 1210.41,-166.4 1210.41,-135.6 847.52,-135.6"/>
<text text-anchor="start" x="854.52" y="-147.8" font-family="Arial" font-size="14.00">is_complete </text>
<text text-anchor="start" x="933.11" y="-147.8" font-family="Arial" font-size="14.00" fill="#666666">[boolean]</text>
<polygon fill="none" stroke="black" points="847.52,-104.8 847.52,-135.6 1210.41,-135.6 1210.41,-104.8 847.52,-104.8"/>
<text text-anchor="start" x="854.52" y="-117" font-family="Arial" font-size="14.00">is_static </text>
<text text-anchor="start" x="908.98" y="-117" font-family="Arial" font-size="14.00" fill="#666666">[boolean]</text>
<polygon fill="none" stroke="black" points="847.52,-74 847.52,-104.8 1210.41,-104.8 1210.41,-74 847.52,-74"/>
<text text-anchor="start" x="854.52" y="-86.2" font-family="Arial" font-size="14.00">details </text>
<text text-anchor="start" x="898.88" y="-86.2" font-family="Arial" font-size="14.00" fill="#666666">[text]</text>
<polygon fill="none" stroke="black" points="847.52,-43.2 847.52,-74 1210.41,-74 1210.41,-43.2 847.52,-43.2"/>
<text text-anchor="start" x="854.52" y="-55.4" font-family="Arial" font-size="14.00">uml_comment </text>
<text text-anchor="start" x="946.33" y="-55.4" font-family="Arial" font-size="14.00" fill="#666666">[text]</text>
</g>
<!-- public.use_case&#45;&gt;public.use_case_generalization -->
<g id="edge3" class="edge">
<title>public.use_case:model_key&#45;&gt;public.use_case_generalization:model_key</title>
<path fill="none" stroke="black" d="M956.33,-742.79C1084.19,-732.32 1020,-524.7 935.94,-404.4 909.5,-366.56 865.1,-406.14 838.52,-368.4 814.41,-334.17 795.65,-274.2 846.52,-274.2"/>
<polygon fill="black" stroke="black" points="956.27,-742.79 946.1,-738.69 950.94,-743 946.61,-743.17 946.61,-743.17 946.61,-743.17 950.94,-743 946.45,-747.68 956.27,-742.79"/>
<text text-anchor="start" x="952.94" y="-753.2" font-family="Arial" font-size="10.00">FOREIGN KEY (model_key, subclass_of_key) REFERENCES use_case_generalization(model_key, generalization_key) ON DELETE CASCADE</text>
</g>
<!-- public.use_case&#45;&gt;public.use_case_generalization -->
<g id="edge4" class="edge">
<title>public.use_case:model_key&#45;&gt;public.use_case_generalization:model_key</title>
<path fill="none" stroke="black" d="M956.78,-742.85C1102.45,-733.16 1038.17,-524.94 953.94,-404.4 927.5,-366.56 883.1,-406.14 856.52,-368.4 832.5,-334.31 813.8,-274.67 846.14,-274.2"/>
<polygon fill="black" stroke="black" points="956.74,-742.85 946.59,-738.69 951.4,-743.03 947.08,-743.18 947.08,-743.18 947.08,-743.18 951.4,-743.03 946.89,-747.69 956.74,-742.85"/>
<text text-anchor="start" x="953.41" y="-727.2" font-family="Arial" font-size="10.00">FOREIGN KEY (model_key, superclass_of_key) REFERENCES use_case_generalization(model_key, generalization_key) ON DELETE CASCADE</text>
</g>
<!-- public.use_case_actor -->
<g id="node5" class="node">
<title>public.use_case_actor</title>
<polygon fill="#efefef" stroke="none" points="263.51,-1058.2 263.51,-1093.8 560.43,-1093.8 560.43,-1058.2 263.51,-1058.2"/>
<polygon fill="none" stroke="black" points="263.51,-1058.2 263.51,-1093.8 560.43,-1093.8 560.43,-1058.2 263.51,-1058.2"/>
<text text-anchor="start" x="270.51" y="-1071.6" font-family="Arial Bold" font-size="18.00">public.use_case_actor</text>
<text text-anchor="start" x="428.94" y="-1071.6" font-family="Arial" font-size="14.00">    </text>
<text text-anchor="start" x="460.05" y="-1071.6" font-family="Arial" font-size="14.00" fill="#666666">[BASE TABLE]</text>
<polygon fill="none" stroke="black" points="263.51,-1027.4 263.51,-1058.2 560.43,-1058.2 560.43,-1027.4 263.51,-1027.4"/>
<text text-anchor="start" x="270.51" y="-1039.6" font-family="Arial" font-size="14.00">model_key </text>
<text text-anchor="start" x="342.1" y="-1039.6" font-family="Arial" font-size="14.00" fill="#666666">[text]</text>
<polygon fill="none" stroke="black" points="263.51,-996.6 263.51,-1027.4 560.43,-1027.4 560.43,-996.6 263.51,-996.6"/>
<text text-anchor="start" x="270.51" y="-1008.8" font-family="Arial" font-size="14.00">use_case_key </text>
<text text-anchor="start" x="363.9" y="-1008.8" font-family="Arial" font-size="14.00" fill="#666666">[text]</text>
<polygon fill="none" stroke="black" points="263.51,-965.8 263.51,-996.6 560.43,-996.6 560.43,-965.8 263.51,-965.8"/>
<text text-anchor="start" x="270.51" y="-978" font-family="Arial" font-size="14.00">actor_key </text>
<text text-anchor="start" x="335.09" y="-978" font-family="Arial" font-size="14.00" fill="#666666">[text]</text>
<polygon fill="none" stroke="black" points="263.51,-935 263.51,-965.8 560.43,-965.8 560.43,-935 263.51,-935"/>
<text text-anchor="start" x="270.51" y="-947.2" font-family="Arial" font-size="14.00">uml_comment </text>
<text text-anchor="start" x="362.31" y="-947.2" font-family="Arial" font-size="14.00" fill="#666666">[text]</text>
</g>
<!-- public.use_case_actor&#45;&gt;public.use_case -->
<g id="edge5" class="edge">
<title>public.use_case_actor:model_key&#45;&gt;public.use_case:model_key</title>
<path fill="none" stroke="black" d="M571.83,-1042.13C633.46,-1033.52 583.08,-943.7 612.97,-876.4 640.9,-813.49 623.16,-743.2 691.99,-743.2"/>
<polygon fill="black" stroke="black" points="571.74,-1042.14 561.47,-1038.29 566.42,-1042.48 562.09,-1042.76 562.09,-1042.76 562.09,-1042.76 566.42,-1042.48 562.05,-1047.27 571.74,-1042.14"/>
<text text-anchor="start" x="7" y="-1052.8" font-family="Arial" font-size="10.00">FOREIGN KEY (model_key, use_case_key) REFERENCES use_case(model_key, use_case_key) ON DELETE CASCADE</text>
</g>
<!-- public.use_case_shared -->
<g id="node6" class="node">
<title>public.use_case_shared</title>
<polygon fill="#efefef" stroke="none" points="665,-1073.6 665,-1109.2 972.93,-1109.2 972.93,-1073.6 665,-1073.6"/>
<polygon fill="none" stroke="black" points="665,-1073.6 665,-1109.2 972.93,-1109.2 972.93,-1073.6 665,-1073.6"/>
<text text-anchor="start" x="672" y="-1087" font-family="Arial Bold" font-size="18.00">public.use_case_shared</text>
<text text-anchor="start" x="841.44" y="-1087" font-family="Arial" font-size="14.00">    </text>
<text text-anchor="start" x="872.56" y="-1087" font-family="Arial" font-size="14.00" fill="#666666">[BASE TABLE]</text>
<polygon fill="none" stroke="black" points="665,-1042.8 665,-1073.6 972.93,-1073.6 972.93,-1042.8 665,-1042.8"/>
<text text-anchor="start" x="672" y="-1055" font-family="Arial" font-size="14.00">model_key </text>
<text text-anchor="start" x="743.6" y="-1055" font-family="Arial" font-size="14.00" fill="#666666">[text]</text>
<polygon fill="none" stroke="black" points="665,-1012 665,-1042.8 972.93,-1042.8 972.93,-1012 665,-1012"/>
<text text-anchor="start" x="672" y="-1024.2" font-family="Arial" font-size="14.00">sea_use_case_key </text>
<text text-anchor="start" x="795.75" y="-1024.2" font-family="Arial" font-size="14.00" fill="#666666">[text]</text>
<polygon fill="none" stroke="black" points="665,-981.2 665,-1012 972.93,-1012 972.93,-981.2 665,-981.2"/>
<text text-anchor="start" x="672" y="-993.4" font-family="Arial" font-size="14.00">mud_use_case_key </text>
<text text-anchor="start" x="800.42" y="-993.4" font-family="Arial" font-size="14.00" fill="#666666">[text]</text>
<polygon fill="none" stroke="black" points="665,-950.4 665,-981.2 972.93,-981.2 972.93,-950.4 665,-950.4"/>
<text text-anchor="start" x="672" y="-962.6" font-family="Arial" font-size="14.00">share_type </text>
<text text-anchor="start" x="745.16" y="-962.6" font-family="Arial" font-size="14.00" fill="#666666">[share_type]</text>
<polygon fill="none" stroke="black" points="665,-919.6 665,-950.4 972.93,-950.4 972.93,-919.6 665,-919.6"/>
<text text-anchor="start" x="672" y="-931.8" font-family="Arial" font-size="14.00">uml_comment </text>
<text text-anchor="start" x="763.81" y="-931.8" font-family="Arial" font-size="14.00" fill="#666666">[text]</text>
</g>
<!-- public.use_case_shared&#45;&gt;public.use_case -->
<g id="edge6" class="edge">
<title>public.use_case_shared:model_key&#45;&gt;public.use_case:model_key</title>
<path fill="none" stroke="black" d="M983.79,-1055.08C1031.81,-1022.37 1003.63,-743.2 945.94,-743.2"/>
<polygon fill="black" stroke="black" points="983.78,-1055.09 972.89,-1053.81 978.7,-1056.69 974.57,-1058 974.57,-1058 974.57,-1058 978.7,-1056.69 975.6,-1062.39 983.78,-1055.09"/>
<text text-anchor="start" x="980.93" y="-1068.2" font-family="Arial" font-size="10.00">FOREIGN KEY (model_key, mud_use_case_key) REFERENCES use_case(model_key, use_case_key) ON DELETE CASCADE</text>
</g>
<!-- public.use_case_shared&#45;&gt;public.use_case -->
<g id="edge7" class="edge">
<title>public.use_case_shared:model_key&#45;&gt;public.use_case:model_key</title>
<path fill="none" stroke="black" d="M984.34,-1056.2C1050.34,-1029.52 1021.63,-744.37 946.4,-743.2"/>
<polygon fill="black" stroke="black" points="984.53,-1056.17 973.84,-1053.72 979.29,-1057.21 975.05,-1058.06 975.05,-1058.06 975.05,-1058.06 979.29,-1057.21 975.6,-1062.54 984.53,-1056.17"/>
<text text-anchor="start" x="981.39" y="-1042.2" font-family="Arial" font-size="10.00">FOREIGN KEY (model_key, sea_use_case_key) REFERENCES use_case(model_key, use_case_key) ON DELETE CASCADE</text>
</g>
<!-- public.scenario -->
<g id="node7" class="node">
<title>public.scenario</title>
<polygon fill="#efefef" stroke="none" points="1076.99,-1073.6 1076.99,-1109.2 1324.94,-1109.2 1324.94,-1073.6 1076.99,-1073.6"/>
<polygon fill="none" stroke="black" points="1076.99,-1073.6 1076.99,-1109.2 1324.94,-1109.2 1324.94,-1073.6 1076.99,-1073.6"/>
<text text-anchor="start" x="1083.99" y="-1087" font-family="Arial Bold" font-size="18.00">public.scenario</text>
<text text-anchor="start" x="1193.45" y="-1087" font-family="Arial" font-size="14.00">    </text>
<text text-anchor="start" x="1224.57" y="-1087" font-family="Arial" font-size="14.00" fill="#666666">[BASE TABLE]</text>
<polygon fill="none" stroke="black" points="1076.99,-1042.8 1076.99,-1073.6 1324.94,-1073.6 1324.94,-1042.8 1076.99,-1042.8"/>
<text text-anchor="start" x="1083.99" y="-1055" font-family="Arial" font-size="14.00">model_key </text>
<text text-anchor="start" x="1155.58" y="-1055" font-family="Arial" font-size="14.00" fill="#666666">[text]</text>
<polygon fill="none" stroke="black" points="1076.99,-1012 1076.99,-1042.8 1324.94,-1042.8 1324.94,-1012 1076.99,-1012"/>
<text text-anchor="start" x="1083.99" y="-1024.2" font-family="Arial" font-size="14.00">scenario_key </text>
<text text-anchor="start" x="1170.37" y="-1024.2" font-family="Arial" font-size="14.00" fill="#666666">[text]</text>
<polygon fill="none" stroke="black" points="1076.99,-981.2 1076.99,-1012 1324.94,-1012 1324.94,-981.2 1076.99,-981.2"/>
<text text-anchor="start" x="1083.99" y="-993.4" font-family="Arial" font-size="14.00">name </text>
<text text-anchor="start" x="1122.9" y="-993.4" font-family="Arial" font-size="14.00" fill="#666666">[text]</text>
<polygon fill="none" stroke="black" points="1076.99,-950.4 1076.99,-981.2 1324.94,-981.2 1324.94,-950.4 1076.99,-950.4"/>
<text text-anchor="start" x="1083.99" y="-962.6" font-family="Arial" font-size="14.00">use_case_key </text>
<text text-anchor="start" x="1177.38" y="-962.6" font-family="Arial" font-size="14.00" fill="#666666">[text]</text>
<polygon fill="none" stroke="black" points="1076.99,-919.6 1076.99,-950.4 1324.94,-950.4 1324.94,-919.6 1076.99,-919.6"/>
<text text-anchor="start" x="1083.99" y="-931.8" font-family="Arial" font-size="14.00">details </text>
<text text-anchor="start" x="1128.35" y="-931.8" font-family="Arial" font-size="14.00" fill="#666666">[text]</text>
</g>
<!-- public.scenario&#45;&gt;public.use_case -->
<g id="edge8" class="edge">
<title>public.scenario:model_key&#45;&gt;public.use_case:model_key</title>
<path fill="none" stroke="black" d="M1065.98,-1057.63C997.55,-1049.26 1056.58,-950.23 1024.97,-876.4 997.87,-813.12 1014.77,-743.2 945.94,-743.2"/>
<polygon fill="black" stroke="black" points="1065.67,-1057.61 1075.4,-1062.67 1071,-1057.92 1075.32,-1058.16 1075.32,-1058.16 1075.32,-1058.16 1071,-1057.92 1075.91,-1053.69 1065.67,-1057.61"/>
<text text-anchor="start" x="1082.99" y="-1042.2" font-family="Arial" font-size="10.00">FOREIGN KEY (model_key, use_case_key) REFERENCES use_case(model_key, use_case_key) ON DELETE CASCADE</text>
</g>
</g>
</svg>
