<?xml version="1.0" encoding="UTF-8" standalone="no"?>
<!DOCTYPE svg PUBLIC "-//W3C//DTD SVG 1.1//EN"
 "http://www.w3.org/Graphics/SVG/1.1/DTD/svg11.dtd">
<!-- Generated by graphviz version 12.1.2 (20240928.0832)
 -->
<!-- Title: public.action_safety Pages: 1 -->
<svg width="1302pt" height="540pt"
 viewBox="0.00 0.00 1301.70 540.40" xmlns="http://www.w3.org/2000/svg" xmlns:xlink="http://www.w3.org/1999/xlink">
<g id="graph0" class="graph" transform="scale(1 1) rotate(0) translate(4 536.4)">
<title>public.action_safety</title>
<polygon fill="white" stroke="none" points="-4,4 -4,-536.4 1297.7,-536.4 1297.7,4 -4,4"/>
<!-- public.action_safety -->
<g id="node1" class="node">
<title>public.action_safety</title>
<polygon fill="#efefef" stroke="none" points="495.7,-450.6 495.7,-486.2 779.64,-486.2 779.64,-450.6 495.7,-450.6"/>
<polygon fill="none" stroke="black" points="495.7,-450.6 495.7,-486.2 779.64,-486.2 779.64,-450.6 495.7,-450.6"/>
<text text-anchor="start" x="502.7" y="-464" font-family="Arial Bold" font-size="18.00">public.action_safety</text>
<text text-anchor="start" x="648.15" y="-464" font-family="Arial" font-size="14.00">    </text>
<text text-anchor="start" x="679.27" y="-464" font-family="Arial" font-size="14.00" fill="#666666">[BASE TABLE]</text>
<polygon fill="none" stroke="black" points="495.7,-419.8 495.7,-450.6 779.64,-450.6 779.64,-419.8 495.7,-419.8"/>
<text text-anchor="start" x="502.7" y="-432" font-family="Arial" font-size="14.00">model_key </text>
<text text-anchor="start" x="574.3" y="-432" font-family="Arial" font-size="14.00" fill="#666666">[text]</text>
<polygon fill="none" stroke="black" points="495.7,-389 495.7,-419.8 779.64,-419.8 779.64,-389 495.7,-389"/>
<text text-anchor="start" x="502.7" y="-401.2" font-family="Arial" font-size="14.00">action_key </text>
<text text-anchor="start" x="573.52" y="-401.2" font-family="Arial" font-size="14.00" fill="#666666">[text]</text>
<polygon fill="none" stroke="black" points="495.7,-358.2 495.7,-389 779.64,-389 779.64,-358.2 495.7,-358.2"/>
<text text-anchor="start" x="502.7" y="-370.4" font-family="Arial" font-size="14.00">logic_key </text>
<text text-anchor="start" x="564.96" y="-370.4" font-family="Arial" font-size="14.00" fill="#666666">[text]</text>
<polygon fill="none" stroke="black" stroke-width="3" points="494.2,-356.7 494.2,-487.7 781.14,-487.7 781.14,-356.7 494.2,-356.7"/>
</g>
<!-- public.logic -->
<g id="node2" class="node">
<title>public.logic</title>
<polygon fill="#efefef" stroke="none" points="359.69,-197.2 359.69,-232.8 583.66,-232.8 583.66,-197.2 359.69,-197.2"/>
<polygon fill="none" stroke="black" points="359.69,-197.2 359.69,-232.8 583.66,-232.8 583.66,-197.2 359.69,-197.2"/>
<text text-anchor="start" x="366.69" y="-210.6" font-family="Arial Bold" font-size="18.00">public.logic</text>
<text text-anchor="start" x="452.17" y="-210.6" font-family="Arial" font-size="14.00">    </text>
<text text-anchor="start" x="483.29" y="-210.6" font-family="Arial" font-size="14.00" fill="#666666">[BASE TABLE]</text>
<polygon fill="none" stroke="black" points="359.69,-166.4 359.69,-197.2 583.66,-197.2 583.66,-166.4 359.69,-166.4"/>
<text text-anchor="start" x="366.69" y="-178.6" font-family="Arial" font-size="14.00">logic_key </text>
<text text-anchor="start" x="428.94" y="-178.6" font-family="Arial" font-size="14.00" fill="#666666">[text]</text>
<polygon fill="none" stroke="black" points="359.69,-135.6 359.69,-166.4 583.66,-166.4 583.66,-135.6 359.69,-135.6"/>
<text text-anchor="start" x="366.69" y="-147.8" font-family="Arial" font-size="14.00">model_key </text>
<text text-anchor="start" x="438.28" y="-147.8" font-family="Arial" font-size="14.00" fill="#666666">[text]</text>
<polygon fill="none" stroke="black" points="359.69,-104.8 359.69,-135.6 583.66,-135.6 583.66,-104.8 359.69,-104.8"/>
<text text-anchor="start" x="366.69" y="-117" font-family="Arial" font-size="14.00">description </text>
<text text-anchor="start" x="438.28" y="-117" font-family="Arial" font-size="14.00" fill="#666666">[text]</text>
<polygon fill="none" stroke="black" points="359.69,-74 359.69,-104.8 583.66,-104.8 583.66,-74 359.69,-74"/>
<text text-anchor="start" x="366.69" y="-86.2" font-family="Arial" font-size="14.00">notation </text>
<text text-anchor="start" x="420.4" y="-86.2" font-family="Arial" font-size="14.00" fill="#666666">[notation]</text>
<polygon fill="none" stroke="black" points="359.69,-43.2 359.69,-74 583.66,-74 583.66,-43.2 359.69,-43.2"/>
<text text-anchor="start" x="366.69" y="-55.4" font-family="Arial" font-size="14.00">specification </text>
<text text-anchor="start" x="447.62" y="-55.4" font-family="Arial" font-size="14.00" fill="#666666">[text]</text>
</g>
<!-- public.action_safety&#45;&gt;public.logic -->
<g id="edge1" class="edge">
<title>public.action_safety:model_key&#45;&gt;public.logic:model_key</title>
<path fill="none" stroke="black" d="M484.57,-434.14C443.4,-424.71 467.1,-354.24 495.7,-312 519.39,-277.02 559.98,-310.98 583.66,-276 614.81,-229.99 640.22,-151 584.66,-151"/>
<polygon fill="black" stroke="black" points="484.42,-434.13 493.9,-439.64 489.73,-434.68 494.04,-435.13 494.04,-435.13 494.04,-435.13 489.73,-434.68 494.84,-430.69 484.42,-434.13"/>
<text text-anchor="start" x="7" y="-445.2" font-family="Arial" font-size="10.00">FOREIGN KEY (model_key, logic_key) REFERENCES logic(model_key, logic_key) ON DELETE CASCADE</text>
</g>
<!-- public.action -->
<g id="node3" class="node">
<title>public.action</title>
<polygon fill="#efefef" stroke="none" points="687.69,-197.2 687.69,-232.8 919.65,-232.8 919.65,-197.2 687.69,-197.2"/>
<polygon fill="none" stroke="black" points="687.69,-197.2 687.69,-232.8 919.65,-232.8 919.65,-197.2 687.69,-197.2"/>
<text text-anchor="start" x="694.69" y="-210.6" font-family="Arial Bold" font-size="18.00">public.action</text>
<text text-anchor="start" x="788.16" y="-210.6" font-family="Arial" font-size="14.00">    </text>
<text text-anchor="start" x="819.28" y="-210.6" font-family="Arial" font-size="14.00" fill="#666666">[BASE TABLE]</text>
<polygon fill="none" stroke="black" points="687.69,-166.4 687.69,-197.2 919.65,-197.2 919.65,-166.4 687.69,-166.4"/>
<text text-anchor="start" x="694.69" y="-178.6" font-family="Arial" font-size="14.00">model_key </text>
<text text-anchor="start" x="766.29" y="-178.6" font-family="Arial" font-size="14.00" fill="#666666">[text]</text>
<polygon fill="none" stroke="black" points="687.69,-135.6 687.69,-166.4 919.65,-166.4 919.65,-135.6 687.69,-135.6"/>
<text text-anchor="start" x="694.69" y="-147.8" font-family="Arial" font-size="14.00">class_key </text>
<text text-anchor="start" x="760.05" y="-147.8" font-family="Arial" font-size="14.00" fill="#666666">[text]</text>
<polygon fill="none" stroke="black" points="687.69,-104.8 687.69,-135.6 919.65,-135.6 919.65,-104.8 687.69,-104.8"/>
<text text-anchor="start" x="694.69" y="-117" font-family="Arial" font-size="14.00">action_key </text>
<text text-anchor="start" x="765.51" y="-117" font-family="Arial" font-size="14.00" fill="#666666">[text]</text>
<polygon fill="none" stroke="black" points="687.69,-74 687.69,-104.8 919.65,-104.8 919.65,-74 687.69,-74"/>
<text text-anchor="start" x="694.69" y="-86.2" font-family="Arial" font-size="14.00">name </text>
<text text-anchor="start" x="733.6" y="-86.2" font-family="Arial" font-size="14.00" fill="#666666">[text]</text>
<polygon fill="none" stroke="black" points="687.69,-43.2 687.69,-74 919.65,-74 919.65,-43.2 687.69,-43.2"/>
<text text-anchor="start" x="694.69" y="-55.4" font-family="Arial" font-size="14.00">details </text>
<text text-anchor="start" x="739.05" y="-55.4" font-family="Arial" font-size="14.00" fill="#666666">[text]</text>
</g>
<!-- public.action_safety&#45;&gt;public.action -->
<g id="edge2" class="edge">
<title>public.action_safety:model_key&#45;&gt;public.action:model_key</title>
<path fill="none" stroke="black" d="M790.78,-434.14C831.99,-424.68 808.57,-354.02 779.64,-312 754.76,-275.85 712.62,-312.12 687.69,-276 663.91,-241.54 644.82,-181.8 686.69,-181.8"/>
<polygon fill="black" stroke="black" points="790.92,-434.13 780.51,-430.69 785.62,-434.68 781.31,-435.13 781.31,-435.13 781.31,-435.13 785.62,-434.68 781.44,-439.64 790.92,-434.13"/>
<text text-anchor="start" x="787.64" y="-445.2" font-family="Arial" font-size="10.00">FOREIGN KEY (model_key, action_key) REFERENCES action(model_key, action_key) ON DELETE CASCADE</text>
</g>
</g>
</svg>
