<?xml version="1.0" encoding="UTF-8" standalone="no"?>
<!DOCTYPE svg PUBLIC "-//W3C//DTD SVG 1.1//EN"
 "http://www.w3.org/Graphics/SVG/1.1/DTD/svg11.dtd">
<!-- Generated by graphviz version 12.1.2 (20240928.0832)
 -->
<!-- Title: public.action_safety Pages: 1 -->
<svg width="1302pt" height="571pt"
 viewBox="0.00 0.00 1301.70 571.20" xmlns="http://www.w3.org/2000/svg" xmlns:xlink="http://www.w3.org/1999/xlink">
<g id="graph0" class="graph" transform="scale(1 1) rotate(0) translate(4 567.2)">
<title>public.action_safety</title>
<polygon fill="white" stroke="none" points="-4,4 -4,-567.2 1297.7,-567.2 1297.7,4 -4,4"/>
<!-- public.action_safety -->
<g id="node1" class="node">
<title>public.action_safety</title>
<polygon fill="#efefef" stroke="none" points="495.7,-481.4 495.7,-517 779.64,-517 779.64,-481.4 495.7,-481.4"/>
<polygon fill="none" stroke="black" points="495.7,-481.4 495.7,-517 779.64,-517 779.64,-481.4 495.7,-481.4"/>
<text text-anchor="start" x="502.7" y="-494.8" font-family="Arial Bold" font-size="18.00">public.action_safety</text>
<text text-anchor="start" x="648.15" y="-494.8" font-family="Arial" font-size="14.00">    </text>
<text text-anchor="start" x="679.27" y="-494.8" font-family="Arial" font-size="14.00" fill="#666666">[BASE TABLE]</text>
<polygon fill="none" stroke="black" points="495.7,-450.6 495.7,-481.4 779.64,-481.4 779.64,-450.6 495.7,-450.6"/>
<text text-anchor="start" x="502.7" y="-462.8" font-family="Arial" font-size="14.00">model_key </text>
<text text-anchor="start" x="574.3" y="-462.8" font-family="Arial" font-size="14.00" fill="#666666">[text]</text>
<polygon fill="none" stroke="black" points="495.7,-419.8 495.7,-450.6 779.64,-450.6 779.64,-419.8 495.7,-419.8"/>
<text text-anchor="start" x="502.7" y="-432" font-family="Arial" font-size="14.00">action_key </text>
<text text-anchor="start" x="573.52" y="-432" font-family="Arial" font-size="14.00" fill="#666666">[text]</text>
<polygon fill="none" stroke="black" points="495.7,-389 495.7,-419.8 779.64,-419.8 779.64,-389 495.7,-389"/>
<text text-anchor="start" x="502.7" y="-401.2" font-family="Arial" font-size="14.00">logic_key </text>
<text text-anchor="start" x="564.96" y="-401.2" font-family="Arial" font-size="14.00" fill="#666666">[text]</text>
<polygon fill="none" stroke="black" stroke-width="3" points="494.2,-387.5 494.2,-518.5 781.14,-518.5 781.14,-387.5 494.2,-387.5"/>
</g>
<!-- public.logic -->
<g id="node2" class="node">
<title>public.logic</title>
<polygon fill="#efefef" stroke="none" points="359.69,-228 359.69,-263.6 583.66,-263.6 583.66,-228 359.69,-228"/>
<polygon fill="none" stroke="black" points="359.69,-228 359.69,-263.6 583.66,-263.6 583.66,-228 359.69,-228"/>
<text text-anchor="start" x="366.69" y="-241.4" font-family="Arial Bold" font-size="18.00">public.logic</text>
<text text-anchor="start" x="452.17" y="-241.4" font-family="Arial" font-size="14.00">    </text>
<text text-anchor="start" x="483.29" y="-241.4" font-family="Arial" font-size="14.00" fill="#666666">[BASE TABLE]</text>
<polygon fill="none" stroke="black" points="359.69,-197.2 359.69,-228 583.66,-228 583.66,-197.2 359.69,-197.2"/>
<text text-anchor="start" x="366.69" y="-209.4" font-family="Arial" font-size="14.00">logic_key </text>
<text text-anchor="start" x="428.94" y="-209.4" font-family="Arial" font-size="14.00" fill="#666666">[text]</text>
<polygon fill="none" stroke="black" points="359.69,-166.4 359.69,-197.2 583.66,-197.2 583.66,-166.4 359.69,-166.4"/>
<text text-anchor="start" x="366.69" y="-178.6" font-family="Arial" font-size="14.00">model_key </text>
<text text-anchor="start" x="438.28" y="-178.6" font-family="Arial" font-size="14.00" fill="#666666">[text]</text>
<polygon fill="none" stroke="black" points="359.69,-135.6 359.69,-166.4 583.66,-166.4 583.66,-135.6 359.69,-135.6"/>
<text text-anchor="start" x="366.69" y="-147.8" font-family="Arial" font-size="14.00">sort_order </text>
<text text-anchor="start" x="434.38" y="-147.8" font-family="Arial" font-size="14.00" fill="#666666">[integer]</text>
<polygon fill="none" stroke="black" points="359.69,-104.8 359.69,-135.6 583.66,-135.6 583.66,-104.8 359.69,-104.8"/>
<text text-anchor="start" x="366.69" y="-117" font-family="Arial" font-size="14.00">description </text>
<text text-anchor="start" x="438.28" y="-117" font-family="Arial" font-size="14.00" fill="#666666">[text]</text>
<polygon fill="none" stroke="black" points="359.69,-74 359.69,-104.8 583.66,-104.8 583.66,-74 359.69,-74"/>
<text text-anchor="start" x="366.69" y="-86.2" font-family="Arial" font-size="14.00">notation </text>
<text text-anchor="start" x="420.4" y="-86.2" font-family="Arial" font-size="14.00" fill="#666666">[notation]</text>
<polygon fill="none" stroke="black" points="359.69,-43.2 359.69,-74 583.66,-74 583.66,-43.2 359.69,-43.2"/>
<text text-anchor="start" x="366.69" y="-55.4" font-family="Arial" font-size="14.00">specification </text>
<text text-anchor="start" x="447.62" y="-55.4" font-family="Arial" font-size="14.00" fill="#666666">[text]</text>
</g>
<!-- public.action_safety&#45;&gt;public.logic -->
<g id="edge1" class="edge">
<title>public.action_safety:model_key&#45;&gt;public.logic:model_key</title>
<path fill="none" stroke="black" d="M484.57,-464.94C443.4,-455.51 467.1,-385.04 495.7,-342.8 519.39,-307.82 559.98,-341.78 583.66,-306.8 614.81,-260.79 640.22,-181.8 584.66,-181.8"/>
<polygon fill="black" stroke="black" points="484.42,-464.93 493.9,-470.44 489.73,-465.48 494.04,-465.93 494.04,-465.93 494.04,-465.93 489.73,-465.48 494.84,-461.49 484.42,-464.93"/>
<text text-anchor="start" x="7" y="-476" font-family="Arial" font-size="10.00">FOREIGN KEY (model_key, logic_key) REFERENCES logic(model_key, logic_key) ON DELETE CASCADE</text>
</g>
<!-- public.action -->
<g id="node3" class="node">
<title>public.action</title>
<polygon fill="#efefef" stroke="none" points="687.69,-212.6 687.69,-248.2 919.65,-248.2 919.65,-212.6 687.69,-212.6"/>
<polygon fill="none" stroke="black" points="687.69,-212.6 687.69,-248.2 919.65,-248.2 919.65,-212.6 687.69,-212.6"/>
<text text-anchor="start" x="694.69" y="-226" font-family="Arial Bold" font-size="18.00">public.action</text>
<text text-anchor="start" x="788.16" y="-226" font-family="Arial" font-size="14.00">    </text>
<text text-anchor="start" x="819.28" y="-226" font-family="Arial" font-size="14.00" fill="#666666">[BASE TABLE]</text>
<polygon fill="none" stroke="black" points="687.69,-181.8 687.69,-212.6 919.65,-212.6 919.65,-181.8 687.69,-181.8"/>
<text text-anchor="start" x="694.69" y="-194" font-family="Arial" font-size="14.00">model_key </text>
<text text-anchor="start" x="766.29" y="-194" font-family="Arial" font-size="14.00" fill="#666666">[text]</text>
<polygon fill="none" stroke="black" points="687.69,-151 687.69,-181.8 919.65,-181.8 919.65,-151 687.69,-151"/>
<text text-anchor="start" x="694.69" y="-163.2" font-family="Arial" font-size="14.00">class_key </text>
<text text-anchor="start" x="760.05" y="-163.2" font-family="Arial" font-size="14.00" fill="#666666">[text]</text>
<polygon fill="none" stroke="black" points="687.69,-120.2 687.69,-151 919.65,-151 919.65,-120.2 687.69,-120.2"/>
<text text-anchor="start" x="694.69" y="-132.4" font-family="Arial" font-size="14.00">action_key </text>
<text text-anchor="start" x="765.51" y="-132.4" font-family="Arial" font-size="14.00" fill="#666666">[text]</text>
<polygon fill="none" stroke="black" points="687.69,-89.4 687.69,-120.2 919.65,-120.2 919.65,-89.4 687.69,-89.4"/>
<text text-anchor="start" x="694.69" y="-101.6" font-family="Arial" font-size="14.00">name </text>
<text text-anchor="start" x="733.6" y="-101.6" font-family="Arial" font-size="14.00" fill="#666666">[text]</text>
<polygon fill="none" stroke="black" points="687.69,-58.6 687.69,-89.4 919.65,-89.4 919.65,-58.6 687.69,-58.6"/>
<text text-anchor="start" x="694.69" y="-70.8" font-family="Arial" font-size="14.00">details </text>
<text text-anchor="start" x="739.05" y="-70.8" font-family="Arial" font-size="14.00" fill="#666666">[text]</text>
</g>
<!-- public.action_safety&#45;&gt;public.action -->
<g id="edge2" class="edge">
<title>public.action_safety:model_key&#45;&gt;public.action:model_key</title>
<path fill="none" stroke="black" d="M791,-464.91C831.48,-455.44 805.58,-386.6 779.64,-342.8 755.79,-302.51 711.6,-331.66 687.69,-291.4 666.32,-255.4 644.82,-197.2 686.69,-197.2"/>
<polygon fill="black" stroke="black" points="790.92,-464.92 780.5,-461.49 785.62,-465.48 781.31,-465.93 781.31,-465.93 781.31,-465.93 785.62,-465.48 781.45,-470.44 790.92,-464.92"/>
<text text-anchor="start" x="787.64" y="-476" font-family="Arial" font-size="10.00">FOREIGN KEY (model_key, action_key) REFERENCES action(model_key, action_key) ON DELETE CASCADE</text>
</g>
</g>
</svg>
