<?xml version="1.0" encoding="UTF-8" standalone="no"?>
<!DOCTYPE svg PUBLIC "-//W3C//DTD SVG 1.1//EN"
 "http://www.w3.org/Graphics/SVG/1.1/DTD/svg11.dtd">
<!-- Generated by graphviz version 12.1.2 (20240928.0832)
 -->
<!-- Title: public.query_require Pages: 1 -->
<svg width="1302pt" height="571pt"
 viewBox="0.00 0.00 1301.68 571.20" xmlns="http://www.w3.org/2000/svg" xmlns:xlink="http://www.w3.org/1999/xlink">
<g id="graph0" class="graph" transform="scale(1 1) rotate(0) translate(4 567.2)">
<title>public.query_require</title>
<polygon fill="white" stroke="none" points="-4,4 -4,-567.2 1297.68,-567.2 1297.68,4 -4,4"/>
<!-- public.query_require -->
<g id="node1" class="node">
<title>public.query_require</title>
<polygon fill="#efefef" stroke="none" points="495.7,-481.4 495.7,-517 784.63,-517 784.63,-481.4 495.7,-481.4"/>
<polygon fill="none" stroke="black" points="495.7,-481.4 495.7,-517 784.63,-517 784.63,-481.4 495.7,-481.4"/>
<text text-anchor="start" x="502.7" y="-494.8" font-family="Arial Bold" font-size="18.00">public.query_require</text>
<text text-anchor="start" x="653.15" y="-494.8" font-family="Arial" font-size="14.00">    </text>
<text text-anchor="start" x="684.26" y="-494.8" font-family="Arial" font-size="14.00" fill="#666666">[BASE TABLE]</text>
<polygon fill="none" stroke="black" points="495.7,-450.6 495.7,-481.4 784.63,-481.4 784.63,-450.6 495.7,-450.6"/>
<text text-anchor="start" x="502.7" y="-462.8" font-family="Arial" font-size="14.00">model_key </text>
<text text-anchor="start" x="574.3" y="-462.8" font-family="Arial" font-size="14.00" fill="#666666">[text]</text>
<polygon fill="none" stroke="black" points="495.7,-419.8 495.7,-450.6 784.63,-450.6 784.63,-419.8 495.7,-419.8"/>
<text text-anchor="start" x="502.7" y="-432" font-family="Arial" font-size="14.00">query_key </text>
<text text-anchor="start" x="571.19" y="-432" font-family="Arial" font-size="14.00" fill="#666666">[text]</text>
<polygon fill="none" stroke="black" points="495.7,-389 495.7,-419.8 784.63,-419.8 784.63,-389 495.7,-389"/>
<text text-anchor="start" x="502.7" y="-401.2" font-family="Arial" font-size="14.00">logic_key </text>
<text text-anchor="start" x="564.96" y="-401.2" font-family="Arial" font-size="14.00" fill="#666666">[text]</text>
<polygon fill="none" stroke="black" stroke-width="3" points="494.2,-387.5 494.2,-518.5 786.13,-518.5 786.13,-387.5 494.2,-387.5"/>
</g>
<!-- public.logic -->
<g id="node2" class="node">
<title>public.logic</title>
<polygon fill="#efefef" stroke="none" points="363.18,-228 363.18,-263.6 587.15,-263.6 587.15,-228 363.18,-228"/>
<polygon fill="none" stroke="black" points="363.18,-228 363.18,-263.6 587.15,-263.6 587.15,-228 363.18,-228"/>
<text text-anchor="start" x="370.18" y="-241.4" font-family="Arial Bold" font-size="18.00">public.logic</text>
<text text-anchor="start" x="455.67" y="-241.4" font-family="Arial" font-size="14.00">    </text>
<text text-anchor="start" x="486.78" y="-241.4" font-family="Arial" font-size="14.00" fill="#666666">[BASE TABLE]</text>
<polygon fill="none" stroke="black" points="363.18,-197.2 363.18,-228 587.15,-228 587.15,-197.2 363.18,-197.2"/>
<text text-anchor="start" x="370.18" y="-209.4" font-family="Arial" font-size="14.00">logic_key </text>
<text text-anchor="start" x="432.44" y="-209.4" font-family="Arial" font-size="14.00" fill="#666666">[text]</text>
<polygon fill="none" stroke="black" points="363.18,-166.4 363.18,-197.2 587.15,-197.2 587.15,-166.4 363.18,-166.4"/>
<text text-anchor="start" x="370.18" y="-178.6" font-family="Arial" font-size="14.00">model_key </text>
<text text-anchor="start" x="441.78" y="-178.6" font-family="Arial" font-size="14.00" fill="#666666">[text]</text>
<polygon fill="none" stroke="black" points="363.18,-135.6 363.18,-166.4 587.15,-166.4 587.15,-135.6 363.18,-135.6"/>
<text text-anchor="start" x="370.18" y="-147.8" font-family="Arial" font-size="14.00">sort_order </text>
<text text-anchor="start" x="437.88" y="-147.8" font-family="Arial" font-size="14.00" fill="#666666">[integer]</text>
<polygon fill="none" stroke="black" points="363.18,-104.8 363.18,-135.6 587.15,-135.6 587.15,-104.8 363.18,-104.8"/>
<text text-anchor="start" x="370.18" y="-117" font-family="Arial" font-size="14.00">description </text>
<text text-anchor="start" x="441.78" y="-117" font-family="Arial" font-size="14.00" fill="#666666">[text]</text>
<polygon fill="none" stroke="black" points="363.18,-74 363.18,-104.8 587.15,-104.8 587.15,-74 363.18,-74"/>
<text text-anchor="start" x="370.18" y="-86.2" font-family="Arial" font-size="14.00">notation </text>
<text text-anchor="start" x="423.89" y="-86.2" font-family="Arial" font-size="14.00" fill="#666666">[notation]</text>
<polygon fill="none" stroke="black" points="363.18,-43.2 363.18,-74 587.15,-74 587.15,-43.2 363.18,-43.2"/>
<text text-anchor="start" x="370.18" y="-55.4" font-family="Arial" font-size="14.00">specification </text>
<text text-anchor="start" x="451.11" y="-55.4" font-family="Arial" font-size="14.00" fill="#666666">[text]</text>
</g>
<!-- public.query_require&#45;&gt;public.logic -->
<g id="edge1" class="edge">
<title>public.query_require:model_key&#45;&gt;public.logic:model_key</title>
<path fill="none" stroke="black" d="M484.56,-464.94C443.36,-455.48 466.82,-384.85 495.7,-342.8 520.44,-306.8 562.42,-342.8 587.15,-306.8 618.61,-261.01 643.71,-181.8 588.15,-181.8"/>
<polygon fill="black" stroke="black" points="484.42,-464.93 493.9,-470.44 489.73,-465.48 494.04,-465.93 494.04,-465.93 494.04,-465.93 489.73,-465.48 494.84,-461.49 484.42,-464.93"/>
<text text-anchor="start" x="7" y="-476" font-family="Arial" font-size="10.00">FOREIGN KEY (model_key, logic_key) REFERENCES logic(model_key, logic_key) ON DELETE CASCADE</text>
</g>
<!-- public.query -->
<g id="node3" class="node">
<title>public.query</title>
<polygon fill="#efefef" stroke="none" points="691.69,-212.6 691.69,-248.2 920.65,-248.2 920.65,-212.6 691.69,-212.6"/>
<polygon fill="none" stroke="black" points="691.69,-212.6 691.69,-248.2 920.65,-248.2 920.65,-212.6 691.69,-212.6"/>
<text text-anchor="start" x="698.69" y="-226" font-family="Arial Bold" font-size="18.00">public.query</text>
<text text-anchor="start" x="789.16" y="-226" font-family="Arial" font-size="14.00">    </text>
<text text-anchor="start" x="820.28" y="-226" font-family="Arial" font-size="14.00" fill="#666666">[BASE TABLE]</text>
<polygon fill="none" stroke="black" points="691.69,-181.8 691.69,-212.6 920.65,-212.6 920.65,-181.8 691.69,-181.8"/>
<text text-anchor="start" x="698.69" y="-194" font-family="Arial" font-size="14.00">model_key </text>
<text text-anchor="start" x="770.28" y="-194" font-family="Arial" font-size="14.00" fill="#666666">[text]</text>
<polygon fill="none" stroke="black" points="691.69,-151 691.69,-181.8 920.65,-181.8 920.65,-151 691.69,-151"/>
<text text-anchor="start" x="698.69" y="-163.2" font-family="Arial" font-size="14.00">class_key </text>
<text text-anchor="start" x="764.05" y="-163.2" font-family="Arial" font-size="14.00" fill="#666666">[text]</text>
<polygon fill="none" stroke="black" points="691.69,-120.2 691.69,-151 920.65,-151 920.65,-120.2 691.69,-120.2"/>
<text text-anchor="start" x="698.69" y="-132.4" font-family="Arial" font-size="14.00">query_key </text>
<text text-anchor="start" x="767.17" y="-132.4" font-family="Arial" font-size="14.00" fill="#666666">[text]</text>
<polygon fill="none" stroke="black" points="691.69,-89.4 691.69,-120.2 920.65,-120.2 920.65,-89.4 691.69,-89.4"/>
<text text-anchor="start" x="698.69" y="-101.6" font-family="Arial" font-size="14.00">name </text>
<text text-anchor="start" x="737.6" y="-101.6" font-family="Arial" font-size="14.00" fill="#666666">[text]</text>
<polygon fill="none" stroke="black" points="691.69,-58.6 691.69,-89.4 920.65,-89.4 920.65,-58.6 691.69,-58.6"/>
<text text-anchor="start" x="698.69" y="-70.8" font-family="Arial" font-size="14.00">details </text>
<text text-anchor="start" x="743.05" y="-70.8" font-family="Arial" font-size="14.00" fill="#666666">[text]</text>
</g>
<!-- public.query_require&#45;&gt;public.query -->
<g id="edge2" class="edge">
<title>public.query_require:model_key&#45;&gt;public.query:model_key</title>
<path fill="none" stroke="black" d="M795.99,-464.91C836.49,-455.44 810.67,-386.54 784.63,-342.8 760.49,-302.24 715.88,-331.93 691.69,-291.4 670.23,-255.45 648.82,-197.2 690.69,-197.2"/>
<polygon fill="black" stroke="black" points="795.91,-464.92 785.5,-461.49 790.61,-465.48 786.3,-465.93 786.3,-465.93 786.3,-465.93 790.61,-465.48 786.44,-470.44 795.91,-464.92"/>
<text text-anchor="start" x="792.63" y="-476" font-family="Arial" font-size="10.00">FOREIGN KEY (model_key, query_key) REFERENCES query(model_key, query_key) ON DELETE CASCADE</text>
</g>
</g>
</svg>
