<?xml version="1.0" encoding="UTF-8" standalone="no"?>
<!DOCTYPE svg PUBLIC "-//W3C//DTD SVG 1.1//EN"
 "http://www.w3.org/Graphics/SVG/1.1/DTD/svg11.dtd">
<!-- Generated by graphviz version 12.1.2 (20240928.0832)
 -->
<!-- Title: public.action_require Pages: 1 -->
<svg width="1310pt" height="633pt"
 viewBox="0.00 0.00 1309.69 632.80" xmlns="http://www.w3.org/2000/svg" xmlns:xlink="http://www.w3.org/1999/xlink">
<g id="graph0" class="graph" transform="scale(1 1) rotate(0) translate(4 628.8)">
<title>public.action_require</title>
<polygon fill="white" stroke="none" points="-4,4 -4,-628.8 1305.69,-628.8 1305.69,4 -4,4"/>
<!-- public.action_require -->
<g id="node1" class="node">
<title>public.action_require</title>
<polygon fill="#efefef" stroke="none" points="495.7,-543 495.7,-578.6 787.63,-578.6 787.63,-543 495.7,-543"/>
<polygon fill="none" stroke="black" points="495.7,-543 495.7,-578.6 787.63,-578.6 787.63,-543 495.7,-543"/>
<text text-anchor="start" x="502.7" y="-556.4" font-family="Arial Bold" font-size="18.00">public.action_require</text>
<text text-anchor="start" x="656.14" y="-556.4" font-family="Arial" font-size="14.00">    </text>
<text text-anchor="start" x="687.26" y="-556.4" font-family="Arial" font-size="14.00" fill="#666666">[BASE TABLE]</text>
<polygon fill="none" stroke="black" points="495.7,-512.2 495.7,-543 787.63,-543 787.63,-512.2 495.7,-512.2"/>
<text text-anchor="start" x="502.7" y="-524.4" font-family="Arial" font-size="14.00">model_key </text>
<text text-anchor="start" x="574.3" y="-524.4" font-family="Arial" font-size="14.00" fill="#666666">[text]</text>
<polygon fill="none" stroke="black" points="495.7,-481.4 495.7,-512.2 787.63,-512.2 787.63,-481.4 495.7,-481.4"/>
<text text-anchor="start" x="502.7" y="-493.6" font-family="Arial" font-size="14.00">action_key </text>
<text text-anchor="start" x="573.52" y="-493.6" font-family="Arial" font-size="14.00" fill="#666666">[text]</text>
<polygon fill="none" stroke="black" points="495.7,-450.6 495.7,-481.4 787.63,-481.4 787.63,-450.6 495.7,-450.6"/>
<text text-anchor="start" x="502.7" y="-462.8" font-family="Arial" font-size="14.00">logic_key </text>
<text text-anchor="start" x="564.96" y="-462.8" font-family="Arial" font-size="14.00" fill="#666666">[text]</text>
<polygon fill="none" stroke="black" stroke-width="3" points="494.2,-449.1 494.2,-580.1 789.13,-580.1 789.13,-449.1 494.2,-449.1"/>
</g>
<!-- public.logic -->
<g id="node2" class="node">
<title>public.logic</title>
<polygon fill="#efefef" stroke="none" points="363.68,-289.6 363.68,-325.2 587.65,-325.2 587.65,-289.6 363.68,-289.6"/>
<polygon fill="none" stroke="black" points="363.68,-289.6 363.68,-325.2 587.65,-325.2 587.65,-289.6 363.68,-289.6"/>
<text text-anchor="start" x="370.68" y="-303" font-family="Arial Bold" font-size="18.00">public.logic</text>
<text text-anchor="start" x="456.16" y="-303" font-family="Arial" font-size="14.00">    </text>
<text text-anchor="start" x="487.28" y="-303" font-family="Arial" font-size="14.00" fill="#666666">[BASE TABLE]</text>
<polygon fill="none" stroke="black" points="363.68,-258.8 363.68,-289.6 587.65,-289.6 587.65,-258.8 363.68,-258.8"/>
<text text-anchor="start" x="370.68" y="-271" font-family="Arial" font-size="14.00">logic_key </text>
<text text-anchor="start" x="432.94" y="-271" font-family="Arial" font-size="14.00" fill="#666666">[text]</text>
<polygon fill="none" stroke="black" points="363.68,-228 363.68,-258.8 587.65,-258.8 587.65,-228 363.68,-228"/>
<text text-anchor="start" x="370.68" y="-240.2" font-family="Arial" font-size="14.00">model_key </text>
<text text-anchor="start" x="442.27" y="-240.2" font-family="Arial" font-size="14.00" fill="#666666">[text]</text>
<polygon fill="none" stroke="black" points="363.68,-197.2 363.68,-228 587.65,-228 587.65,-197.2 363.68,-197.2"/>
<text text-anchor="start" x="370.68" y="-209.4" font-family="Arial" font-size="14.00">sort_order </text>
<text text-anchor="start" x="438.38" y="-209.4" font-family="Arial" font-size="14.00" fill="#666666">[integer]</text>
<polygon fill="none" stroke="black" points="363.68,-166.4 363.68,-197.2 587.65,-197.2 587.65,-166.4 363.68,-166.4"/>
<text text-anchor="start" x="370.68" y="-178.6" font-family="Arial" font-size="14.00">logic_type </text>
<text text-anchor="start" x="437.61" y="-178.6" font-family="Arial" font-size="14.00" fill="#666666">[logic_type]</text>
<polygon fill="none" stroke="black" points="363.68,-135.6 363.68,-166.4 587.65,-166.4 587.65,-135.6 363.68,-135.6"/>
<text text-anchor="start" x="370.68" y="-147.8" font-family="Arial" font-size="14.00">description </text>
<text text-anchor="start" x="442.27" y="-147.8" font-family="Arial" font-size="14.00" fill="#666666">[text]</text>
<polygon fill="none" stroke="black" points="363.68,-104.8 363.68,-135.6 587.65,-135.6 587.65,-104.8 363.68,-104.8"/>
<text text-anchor="start" x="370.68" y="-117" font-family="Arial" font-size="14.00">target </text>
<text text-anchor="start" x="410.37" y="-117" font-family="Arial" font-size="14.00" fill="#666666">[text]</text>
<polygon fill="none" stroke="black" points="363.68,-74 363.68,-104.8 587.65,-104.8 587.65,-74 363.68,-74"/>
<text text-anchor="start" x="370.68" y="-86.2" font-family="Arial" font-size="14.00">notation </text>
<text text-anchor="start" x="424.39" y="-86.2" font-family="Arial" font-size="14.00" fill="#666666">[notation]</text>
<polygon fill="none" stroke="black" points="363.68,-43.2 363.68,-74 587.65,-74 587.65,-43.2 363.68,-43.2"/>
<text text-anchor="start" x="370.68" y="-55.4" font-family="Arial" font-size="14.00">specification </text>
<text text-anchor="start" x="451.61" y="-55.4" font-family="Arial" font-size="14.00" fill="#666666">[text]</text>
</g>
<!-- public.action_require&#45;&gt;public.logic -->
<g id="edge1" class="edge">
<title>public.action_require:model_key&#45;&gt;public.logic:model_key</title>
<path fill="none" stroke="black" d="M484.56,-526.54C443.35,-517.08 466.78,-446.42 495.7,-404.4 520.59,-368.25 562.77,-404.55 587.65,-368.4 619.15,-322.63 644.21,-243.4 588.65,-243.4"/>
<polygon fill="black" stroke="black" points="484.42,-526.53 493.9,-532.04 489.73,-527.08 494.04,-527.53 494.04,-527.53 494.04,-527.53 489.73,-527.08 494.84,-523.09 484.42,-526.53"/>
<text text-anchor="start" x="7" y="-537.6" font-family="Arial" font-size="10.00">FOREIGN KEY (model_key, logic_key) REFERENCES logic(model_key, logic_key) ON DELETE CASCADE</text>
</g>
<!-- public.action -->
<g id="node3" class="node">
<title>public.action</title>
<polygon fill="#efefef" stroke="none" points="691.69,-243.4 691.69,-279 923.65,-279 923.65,-243.4 691.69,-243.4"/>
<polygon fill="none" stroke="black" points="691.69,-243.4 691.69,-279 923.65,-279 923.65,-243.4 691.69,-243.4"/>
<text text-anchor="start" x="698.69" y="-256.8" font-family="Arial Bold" font-size="18.00">public.action</text>
<text text-anchor="start" x="792.16" y="-256.8" font-family="Arial" font-size="14.00">    </text>
<text text-anchor="start" x="823.28" y="-256.8" font-family="Arial" font-size="14.00" fill="#666666">[BASE TABLE]</text>
<polygon fill="none" stroke="black" points="691.69,-212.6 691.69,-243.4 923.65,-243.4 923.65,-212.6 691.69,-212.6"/>
<text text-anchor="start" x="698.69" y="-224.8" font-family="Arial" font-size="14.00">model_key </text>
<text text-anchor="start" x="770.28" y="-224.8" font-family="Arial" font-size="14.00" fill="#666666">[text]</text>
<polygon fill="none" stroke="black" points="691.69,-181.8 691.69,-212.6 923.65,-212.6 923.65,-181.8 691.69,-181.8"/>
<text text-anchor="start" x="698.69" y="-194" font-family="Arial" font-size="14.00">class_key </text>
<text text-anchor="start" x="764.05" y="-194" font-family="Arial" font-size="14.00" fill="#666666">[text]</text>
<polygon fill="none" stroke="black" points="691.69,-151 691.69,-181.8 923.65,-181.8 923.65,-151 691.69,-151"/>
<text text-anchor="start" x="698.69" y="-163.2" font-family="Arial" font-size="14.00">action_key </text>
<text text-anchor="start" x="769.51" y="-163.2" font-family="Arial" font-size="14.00" fill="#666666">[text]</text>
<polygon fill="none" stroke="black" points="691.69,-120.2 691.69,-151 923.65,-151 923.65,-120.2 691.69,-120.2"/>
<text text-anchor="start" x="698.69" y="-132.4" font-family="Arial" font-size="14.00">name </text>
<text text-anchor="start" x="737.6" y="-132.4" font-family="Arial" font-size="14.00" fill="#666666">[text]</text>
<polygon fill="none" stroke="black" points="691.69,-89.4 691.69,-120.2 923.65,-120.2 923.65,-89.4 691.69,-89.4"/>
<text text-anchor="start" x="698.69" y="-101.6" font-family="Arial" font-size="14.00">details </text>
<text text-anchor="start" x="743.05" y="-101.6" font-family="Arial" font-size="14.00" fill="#666666">[text]</text>
</g>
<!-- public.action_require&#45;&gt;public.action -->
<g id="edge2" class="edge">
<title>public.action_require:model_key&#45;&gt;public.action:model_key</title>
<path fill="none" stroke="black" d="M798.92,-526.54C838.84,-517.38 809.1,-450.56 787.63,-404.4 763.96,-353.48 715.43,-373.09 691.69,-322.2 673.99,-284.26 648.82,-228 690.69,-228"/>
<polygon fill="black" stroke="black" points="798.91,-526.54 788.5,-523.09 793.61,-527.09 789.3,-527.53 789.3,-527.53 789.3,-527.53 793.61,-527.09 789.42,-532.04 798.91,-526.54"/>
<text text-anchor="start" x="795.63" y="-537.6" font-family="Arial" font-size="10.00">FOREIGN KEY (model_key, action_key) REFERENCES action(model_key, action_key) ON DELETE CASCADE</text>
</g>
</g>
</svg>
