<?xml version="1.0" encoding="UTF-8" standalone="no"?>
<!DOCTYPE svg PUBLIC "-//W3C//DTD SVG 1.1//EN"
 "http://www.w3.org/Graphics/SVG/1.1/DTD/svg11.dtd">
<!-- Generated by graphviz version 12.1.2 (20240928.0832)
 -->
<!-- Title: public.attribute_invariant Pages: 1 -->
<svg width="1367pt" height="725pt"
 viewBox="0.00 0.00 1367.04 725.20" xmlns="http://www.w3.org/2000/svg" xmlns:xlink="http://www.w3.org/1999/xlink">
<g id="graph0" class="graph" transform="scale(1 1) rotate(0) translate(4 721.2)">
<title>public.attribute_invariant</title>
<polygon fill="white" stroke="none" points="-4,4 -4,-721.2 1363.04,-721.2 1363.04,4 -4,4"/>
<!-- public.attribute_invariant -->
<g id="node1" class="node">
<title>public.attribute_invariant</title>
<polygon fill="#efefef" stroke="none" points="495.7,-635.4 495.7,-671 816.64,-671 816.64,-635.4 495.7,-635.4"/>
<polygon fill="none" stroke="black" points="495.7,-635.4 495.7,-671 816.64,-671 816.64,-635.4 495.7,-635.4"/>
<text text-anchor="start" x="502.7" y="-648.8" font-family="Arial Bold" font-size="18.00">public.attribute_invariant</text>
<text text-anchor="start" x="685.15" y="-648.8" font-family="Arial" font-size="14.00">    </text>
<text text-anchor="start" x="716.26" y="-648.8" font-family="Arial" font-size="14.00" fill="#666666">[BASE TABLE]</text>
<polygon fill="none" stroke="black" points="495.7,-604.6 495.7,-635.4 816.64,-635.4 816.64,-604.6 495.7,-604.6"/>
<text text-anchor="start" x="502.7" y="-616.8" font-family="Arial" font-size="14.00">model_key </text>
<text text-anchor="start" x="574.3" y="-616.8" font-family="Arial" font-size="14.00" fill="#666666">[text]</text>
<polygon fill="none" stroke="black" points="495.7,-573.8 495.7,-604.6 816.64,-604.6 816.64,-573.8 495.7,-573.8"/>
<text text-anchor="start" x="502.7" y="-586" font-family="Arial" font-size="14.00">attribute_key </text>
<text text-anchor="start" x="586.75" y="-586" font-family="Arial" font-size="14.00" fill="#666666">[text]</text>
<polygon fill="none" stroke="black" points="495.7,-543 495.7,-573.8 816.64,-573.8 816.64,-543 495.7,-543"/>
<text text-anchor="start" x="502.7" y="-555.2" font-family="Arial" font-size="14.00">logic_key </text>
<text text-anchor="start" x="564.96" y="-555.2" font-family="Arial" font-size="14.00" fill="#666666">[text]</text>
<polygon fill="none" stroke="black" stroke-width="3" points="494.2,-541.5 494.2,-672.5 818.14,-672.5 818.14,-541.5 494.2,-541.5"/>
</g>
<!-- public.logic -->
<g id="node2" class="node">
<title>public.logic</title>
<polygon fill="#efefef" stroke="none" points="374.18,-382 374.18,-417.6 598.16,-417.6 598.16,-382 374.18,-382"/>
<polygon fill="none" stroke="black" points="374.18,-382 374.18,-417.6 598.16,-417.6 598.16,-382 374.18,-382"/>
<text text-anchor="start" x="381.18" y="-395.4" font-family="Arial Bold" font-size="18.00">public.logic</text>
<text text-anchor="start" x="466.67" y="-395.4" font-family="Arial" font-size="14.00">    </text>
<text text-anchor="start" x="497.78" y="-395.4" font-family="Arial" font-size="14.00" fill="#666666">[BASE TABLE]</text>
<polygon fill="none" stroke="black" points="374.18,-351.2 374.18,-382 598.16,-382 598.16,-351.2 374.18,-351.2"/>
<text text-anchor="start" x="381.18" y="-363.4" font-family="Arial" font-size="14.00">logic_key </text>
<text text-anchor="start" x="443.44" y="-363.4" font-family="Arial" font-size="14.00" fill="#666666">[text]</text>
<polygon fill="none" stroke="black" points="374.18,-320.4 374.18,-351.2 598.16,-351.2 598.16,-320.4 374.18,-320.4"/>
<text text-anchor="start" x="381.18" y="-332.6" font-family="Arial" font-size="14.00">model_key </text>
<text text-anchor="start" x="452.78" y="-332.6" font-family="Arial" font-size="14.00" fill="#666666">[text]</text>
<polygon fill="none" stroke="black" points="374.18,-289.6 374.18,-320.4 598.16,-320.4 598.16,-289.6 374.18,-289.6"/>
<text text-anchor="start" x="381.18" y="-301.8" font-family="Arial" font-size="14.00">sort_order </text>
<text text-anchor="start" x="448.88" y="-301.8" font-family="Arial" font-size="14.00" fill="#666666">[integer]</text>
<polygon fill="none" stroke="black" points="374.18,-258.8 374.18,-289.6 598.16,-289.6 598.16,-258.8 374.18,-258.8"/>
<text text-anchor="start" x="381.18" y="-271" font-family="Arial" font-size="14.00">logic_type </text>
<text text-anchor="start" x="448.11" y="-271" font-family="Arial" font-size="14.00" fill="#666666">[logic_type]</text>
<polygon fill="none" stroke="black" points="374.18,-228 374.18,-258.8 598.16,-258.8 598.16,-228 374.18,-228"/>
<text text-anchor="start" x="381.18" y="-240.2" font-family="Arial" font-size="14.00">description </text>
<text text-anchor="start" x="452.78" y="-240.2" font-family="Arial" font-size="14.00" fill="#666666">[text]</text>
<polygon fill="none" stroke="black" points="374.18,-197.2 374.18,-228 598.16,-228 598.16,-197.2 374.18,-197.2"/>
<text text-anchor="start" x="381.18" y="-209.4" font-family="Arial" font-size="14.00">target </text>
<text text-anchor="start" x="420.87" y="-209.4" font-family="Arial" font-size="14.00" fill="#666666">[text]</text>
<polygon fill="none" stroke="black" points="374.18,-166.4 374.18,-197.2 598.16,-197.2 598.16,-166.4 374.18,-166.4"/>
<text text-anchor="start" x="381.18" y="-178.6" font-family="Arial" font-size="14.00">notation </text>
<text text-anchor="start" x="434.89" y="-178.6" font-family="Arial" font-size="14.00" fill="#666666">[notation]</text>
<polygon fill="none" stroke="black" points="374.18,-135.6 374.18,-166.4 598.16,-166.4 598.16,-135.6 374.18,-135.6"/>
<text text-anchor="start" x="381.18" y="-147.8" font-family="Arial" font-size="14.00">specification </text>
<text text-anchor="start" x="462.11" y="-147.8" font-family="Arial" font-size="14.00" fill="#666666">[text]</text>
<polygon fill="none" stroke="black" points="374.18,-104.8 374.18,-135.6 598.16,-135.6 598.16,-104.8 374.18,-104.8"/>
<text text-anchor="start" x="381.18" y="-117" font-family="Arial" font-size="14.00">target_type_notation </text>
<text text-anchor="start" x="512.73" y="-117" font-family="Arial" font-size="14.00" fill="#666666">[notation]</text>
<polygon fill="none" stroke="black" points="374.18,-74 374.18,-104.8 598.16,-104.8 598.16,-74 374.18,-74"/>
<text text-anchor="start" x="381.18" y="-86.2" font-family="Arial" font-size="14.00">target_type_specification </text>
<text text-anchor="start" x="539.95" y="-86.2" font-family="Arial" font-size="14.00" fill="#666666">[text]</text>
<polygon fill="none" stroke="black" points="374.18,-43.2 374.18,-74 598.16,-74 598.16,-43.2 374.18,-43.2"/>
<text text-anchor="start" x="381.18" y="-55.4" font-family="Arial" font-size="14.00">destroy_event_specification </text>
<text text-anchor="start" x="557.84" y="-55.4" font-family="Arial" font-size="14.00" fill="#666666">[text]</text>
</g>
<!-- public.attribute_invariant&#45;&gt;public.logic -->
<g id="edge1" class="edge">
<title>public.attribute_invariant:model_key&#45;&gt;public.logic:model_key</title>
<path fill="none" stroke="black" d="M484.55,-618.93C443.25,-609.41 466.04,-538.3 495.7,-496.8 523.77,-457.53 570.09,-500.07 598.16,-460.8 630.46,-415.6 654.71,-335.8 599.16,-335.8"/>
<polygon fill="black" stroke="black" points="484.43,-618.92 493.9,-624.44 489.73,-619.48 494.04,-619.93 494.04,-619.93 494.04,-619.93 489.73,-619.48 494.84,-615.49 484.43,-618.92"/>
<text text-anchor="start" x="7" y="-630" font-family="Arial" font-size="10.00">FOREIGN KEY (model_key, logic_key) REFERENCES logic(model_key, logic_key) ON DELETE CASCADE</text>
</g>
<!-- public.attribute -->
<g id="node3" class="node">
<title>public.attribute</title>
<polygon fill="#efefef" stroke="none" points="702.19,-382 702.19,-417.6 950.15,-417.6 950.15,-382 702.19,-382"/>
<polygon fill="none" stroke="black" points="702.19,-382 702.19,-417.6 950.15,-417.6 950.15,-382 702.19,-382"/>
<text text-anchor="start" x="709.19" y="-395.4" font-family="Arial Bold" font-size="18.00">public.attribute</text>
<text text-anchor="start" x="818.66" y="-395.4" font-family="Arial" font-size="14.00">    </text>
<text text-anchor="start" x="849.78" y="-395.4" font-family="Arial" font-size="14.00" fill="#666666">[BASE TABLE]</text>
<polygon fill="none" stroke="black" points="702.19,-351.2 702.19,-382 950.15,-382 950.15,-351.2 702.19,-351.2"/>
<text text-anchor="start" x="709.19" y="-363.4" font-family="Arial" font-size="14.00">model_key </text>
<text text-anchor="start" x="780.78" y="-363.4" font-family="Arial" font-size="14.00" fill="#666666">[text]</text>
<polygon fill="none" stroke="black" points="702.19,-320.4 702.19,-351.2 950.15,-351.2 950.15,-320.4 702.19,-320.4"/>
<text text-anchor="start" x="709.19" y="-332.6" font-family="Arial" font-size="14.00">attribute_key </text>
<text text-anchor="start" x="793.24" y="-332.6" font-family="Arial" font-size="14.00" fill="#666666">[text]</text>
<polygon fill="none" stroke="black" points="702.19,-289.6 702.19,-320.4 950.15,-320.4 950.15,-289.6 702.19,-289.6"/>
<text text-anchor="start" x="709.19" y="-301.8" font-family="Arial" font-size="14.00">class_key </text>
<text text-anchor="start" x="774.55" y="-301.8" font-family="Arial" font-size="14.00" fill="#666666">[text]</text>
<polygon fill="none" stroke="black" points="702.19,-258.8 702.19,-289.6 950.15,-289.6 950.15,-258.8 702.19,-258.8"/>
<text text-anchor="start" x="709.19" y="-271" font-family="Arial" font-size="14.00">sort_order </text>
<text text-anchor="start" x="776.89" y="-271" font-family="Arial" font-size="14.00" fill="#666666">[integer]</text>
<polygon fill="none" stroke="black" points="702.19,-228 702.19,-258.8 950.15,-258.8 950.15,-228 702.19,-228"/>
<text text-anchor="start" x="709.19" y="-240.2" font-family="Arial" font-size="14.00">name </text>
<text text-anchor="start" x="748.1" y="-240.2" font-family="Arial" font-size="14.00" fill="#666666">[text]</text>
<polygon fill="none" stroke="black" points="702.19,-197.2 702.19,-228 950.15,-228 950.15,-197.2 702.19,-197.2"/>
<text text-anchor="start" x="709.19" y="-209.4" font-family="Arial" font-size="14.00">details </text>
<text text-anchor="start" x="753.55" y="-209.4" font-family="Arial" font-size="14.00" fill="#666666">[text]</text>
<polygon fill="none" stroke="black" points="702.19,-166.4 702.19,-197.2 950.15,-197.2 950.15,-166.4 702.19,-166.4"/>
<text text-anchor="start" x="709.19" y="-178.6" font-family="Arial" font-size="14.00">data_type_rules </text>
<text text-anchor="start" x="812.71" y="-178.6" font-family="Arial" font-size="14.00" fill="#666666">[text]</text>
<polygon fill="none" stroke="black" points="702.19,-135.6 702.19,-166.4 950.15,-166.4 950.15,-135.6 702.19,-135.6"/>
<text text-anchor="start" x="709.19" y="-147.8" font-family="Arial" font-size="14.00">data_type_key </text>
<text text-anchor="start" x="804.15" y="-147.8" font-family="Arial" font-size="14.00" fill="#666666">[text]</text>
<polygon fill="none" stroke="black" points="702.19,-104.8 702.19,-135.6 950.15,-135.6 950.15,-104.8 702.19,-104.8"/>
<text text-anchor="start" x="709.19" y="-117" font-family="Arial" font-size="14.00">derivation_policy_key </text>
<text text-anchor="start" x="846.94" y="-117" font-family="Arial" font-size="14.00" fill="#666666">[text]</text>
<polygon fill="none" stroke="black" points="702.19,-74 702.19,-104.8 950.15,-104.8 950.15,-74 702.19,-74"/>
<text text-anchor="start" x="709.19" y="-86.2" font-family="Arial" font-size="14.00">nullable </text>
<text text-anchor="start" x="761.34" y="-86.2" font-family="Arial" font-size="14.00" fill="#666666">[boolean]</text>
<polygon fill="none" stroke="black" points="702.19,-43.2 702.19,-74 950.15,-74 950.15,-43.2 702.19,-43.2"/>
<text text-anchor="start" x="709.19" y="-55.4" font-family="Arial" font-size="14.00">uml_comment </text>
<text text-anchor="start" x="801" y="-55.4" font-family="Arial" font-size="14.00" fill="#666666">[text]</text>
</g>
<!-- public.attribute_invariant&#45;&gt;public.attribute -->
<g id="edge2" class="edge">
<title>public.attribute_invariant:model_key&#45;&gt;public.attribute:model_key</title>
<path fill="none" stroke="black" d="M827.79,-618.93C869.18,-609.34 846.98,-537.81 816.64,-496.8 784.92,-453.94 733.96,-503.62 702.19,-460.8 677.24,-427.18 659.32,-366.6 701.19,-366.6"/>
<polygon fill="black" stroke="black" points="827.91,-618.91 817.5,-615.49 822.61,-619.47 818.3,-619.93 818.3,-619.93 818.3,-619.93 822.61,-619.47 818.44,-624.44 827.91,-618.91"/>
<text text-anchor="start" x="824.64" y="-630" font-family="Arial" font-size="10.00">FOREIGN KEY (model_key, attribute_key) REFERENCES attribute(model_key, attribute_key) ON DELETE CASCADE</text>
</g>
</g>
</svg>
