<?xml version="1.0" encoding="UTF-8" standalone="no"?>
<!DOCTYPE svg PUBLIC "-//W3C//DTD SVG 1.1//EN"
 "http://www.w3.org/Graphics/SVG/1.1/DTD/svg11.dtd">
<!-- Generated by graphviz version 12.1.2 (20240928.0832)
 -->
<!-- Title: public.association_invariant Pages: 1 -->
<svg width="1429pt" height="787pt"
 viewBox="0.00 0.00 1428.73 786.80" xmlns="http://www.w3.org/2000/svg" xmlns:xlink="http://www.w3.org/1999/xlink">
<g id="graph0" class="graph" transform="scale(1 1) rotate(0) translate(4 782.8)">
<title>public.association_invariant</title>
<polygon fill="white" stroke="none" points="-4,4 -4,-782.8 1424.73,-782.8 1424.73,4 -4,4"/>
<!-- public.association_invariant -->
<g id="node1" class="node">
<title>public.association_invariant</title>
<polygon fill="#efefef" stroke="none" points="495.7,-697 495.7,-732.6 836.64,-732.6 836.64,-697 495.7,-697"/>
<polygon fill="none" stroke="black" points="495.7,-697 495.7,-732.6 836.64,-732.6 836.64,-697 495.7,-697"/>
<text text-anchor="start" x="502.7" y="-710.4" font-family="Arial Bold" font-size="18.00">public.association_invariant</text>
<text text-anchor="start" x="705.15" y="-710.4" font-family="Arial" font-size="14.00">    </text>
<text text-anchor="start" x="736.27" y="-710.4" font-family="Arial" font-size="14.00" fill="#666666">[BASE TABLE]</text>
<polygon fill="none" stroke="black" points="495.7,-666.2 495.7,-697 836.64,-697 836.64,-666.2 495.7,-666.2"/>
<text text-anchor="start" x="502.7" y="-678.4" font-family="Arial" font-size="14.00">model_key </text>
<text text-anchor="start" x="574.3" y="-678.4" font-family="Arial" font-size="14.00" fill="#666666">[text]</text>
<polygon fill="none" stroke="black" points="495.7,-635.4 495.7,-666.2 836.64,-666.2 836.64,-635.4 495.7,-635.4"/>
<text text-anchor="start" x="502.7" y="-647.6" font-family="Arial" font-size="14.00">association_key </text>
<text text-anchor="start" x="606.21" y="-647.6" font-family="Arial" font-size="14.00" fill="#666666">[text]</text>
<polygon fill="none" stroke="black" points="495.7,-604.6 495.7,-635.4 836.64,-635.4 836.64,-604.6 495.7,-604.6"/>
<text text-anchor="start" x="502.7" y="-616.8" font-family="Arial" font-size="14.00">logic_key </text>
<text text-anchor="start" x="564.96" y="-616.8" font-family="Arial" font-size="14.00" fill="#666666">[text]</text>
<polygon fill="none" stroke="black" points="495.7,-573.8 495.7,-604.6 836.64,-604.6 836.64,-573.8 495.7,-573.8"/>
<text text-anchor="start" x="502.7" y="-586" font-family="Arial" font-size="14.00">to_class_anchor </text>
<text text-anchor="start" x="608.54" y="-586" font-family="Arial" font-size="14.00" fill="#666666">[boolean]</text>
<polygon fill="none" stroke="black" stroke-width="3" points="494.2,-572.3 494.2,-734.1 838.14,-734.1 838.14,-572.3 494.2,-572.3"/>
</g>
<!-- public.logic -->
<g id="node2" class="node">
<title>public.logic</title>
<polygon fill="#efefef" stroke="none" points="364.38,-412.8 364.38,-448.4 607.96,-448.4 607.96,-412.8 364.38,-412.8"/>
<polygon fill="none" stroke="black" points="364.38,-412.8 364.38,-448.4 607.96,-448.4 607.96,-412.8 364.38,-412.8"/>
<text text-anchor="start" x="381.19" y="-426.2" font-family="Arial Bold" font-size="18.00">public.logic</text>
<text text-anchor="start" x="466.67" y="-426.2" font-family="Arial" font-size="14.00">    </text>
<text text-anchor="start" x="497.79" y="-426.2" font-family="Arial" font-size="14.00" fill="#666666">[BASE TABLE]</text>
<polygon fill="none" stroke="black" points="364.38,-382 364.38,-412.8 607.96,-412.8 607.96,-382 364.38,-382"/>
<text text-anchor="start" x="371.38" y="-394.2" font-family="Arial" font-size="14.00">logic_key </text>
<text text-anchor="start" x="433.63" y="-394.2" font-family="Arial" font-size="14.00" fill="#666666">[text]</text>
<polygon fill="none" stroke="black" points="364.38,-351.2 364.38,-382 607.96,-382 607.96,-351.2 364.38,-351.2"/>
<text text-anchor="start" x="371.38" y="-363.4" font-family="Arial" font-size="14.00">model_key </text>
<text text-anchor="start" x="442.97" y="-363.4" font-family="Arial" font-size="14.00" fill="#666666">[text]</text>
<polygon fill="none" stroke="black" points="364.38,-320.4 364.38,-351.2 607.96,-351.2 607.96,-320.4 364.38,-320.4"/>
<text text-anchor="start" x="371.38" y="-332.6" font-family="Arial" font-size="14.00">sort_order </text>
<text text-anchor="start" x="439.08" y="-332.6" font-family="Arial" font-size="14.00" fill="#666666">[integer]</text>
<polygon fill="none" stroke="black" points="364.38,-289.6 364.38,-320.4 607.96,-320.4 607.96,-289.6 364.38,-289.6"/>
<text text-anchor="start" x="371.38" y="-301.8" font-family="Arial" font-size="14.00">logic_type </text>
<text text-anchor="start" x="438.31" y="-301.8" font-family="Arial" font-size="14.00" fill="#666666">[logic_type]</text>
<polygon fill="none" stroke="black" points="364.38,-258.8 364.38,-289.6 607.96,-289.6 607.96,-258.8 364.38,-258.8"/>
<text text-anchor="start" x="371.38" y="-271" font-family="Arial" font-size="14.00">description </text>
<text text-anchor="start" x="442.97" y="-271" font-family="Arial" font-size="14.00" fill="#666666">[text]</text>
<polygon fill="none" stroke="black" points="364.38,-228 364.38,-258.8 607.96,-258.8 607.96,-228 364.38,-228"/>
<text text-anchor="start" x="371.38" y="-240.2" font-family="Arial" font-size="14.00">target </text>
<text text-anchor="start" x="411.07" y="-240.2" font-family="Arial" font-size="14.00" fill="#666666">[text]</text>
<polygon fill="none" stroke="black" points="364.38,-197.2 364.38,-228 607.96,-228 607.96,-197.2 364.38,-197.2"/>
<text text-anchor="start" x="371.38" y="-209.4" font-family="Arial" font-size="14.00">notation </text>
<text text-anchor="start" x="425.09" y="-209.4" font-family="Arial" font-size="14.00" fill="#666666">[notation]</text>
<polygon fill="none" stroke="black" points="364.38,-166.4 364.38,-197.2 607.96,-197.2 607.96,-166.4 364.38,-166.4"/>
<text text-anchor="start" x="371.38" y="-178.6" font-family="Arial" font-size="14.00">specification </text>
<text text-anchor="start" x="452.31" y="-178.6" font-family="Arial" font-size="14.00" fill="#666666">[text]</text>
<polygon fill="none" stroke="black" points="364.38,-135.6 364.38,-166.4 607.96,-166.4 607.96,-135.6 364.38,-135.6"/>
<text text-anchor="start" x="371.38" y="-147.8" font-family="Arial" font-size="14.00">target_type_notation </text>
<text text-anchor="start" x="502.92" y="-147.8" font-family="Arial" font-size="14.00" fill="#666666">[notation]</text>
<polygon fill="none" stroke="black" points="364.38,-104.8 364.38,-135.6 607.96,-135.6 607.96,-104.8 364.38,-104.8"/>
<text text-anchor="start" x="371.38" y="-117" font-family="Arial" font-size="14.00">target_type_specification </text>
<text text-anchor="start" x="530.14" y="-117" font-family="Arial" font-size="14.00" fill="#666666">[text]</text>
<polygon fill="none" stroke="black" points="364.38,-74 364.38,-104.8 607.96,-104.8 607.96,-74 364.38,-74"/>
<text text-anchor="start" x="371.38" y="-86.2" font-family="Arial" font-size="14.00">destroy_event_specification </text>
<text text-anchor="start" x="548.04" y="-86.2" font-family="Arial" font-size="14.00" fill="#666666">[text]</text>
<polygon fill="none" stroke="black" points="364.38,-43.2 364.38,-74 607.96,-74 607.96,-43.2 364.38,-43.2"/>
<text text-anchor="start" x="371.38" y="-55.4" font-family="Arial" font-size="14.00">endpoint_selector_specification </text>
<text text-anchor="start" x="570.62" y="-55.4" font-family="Arial" font-size="14.00" fill="#666666">[text]</text>
</g>
<!-- public.association_invariant&#45;&gt;public.logic -->
<g id="edge1" class="edge">
<title>public.association_invariant:model_key&#45;&gt;public.logic:model_key</title>
<path fill="none" stroke="black" d="M484.33,-680.74C429.46,-670.92 457.4,-579.75 495.7,-527.6 526.72,-485.37 576.92,-533.81 607.96,-491.6 640.89,-446.85 664.52,-366.6 608.96,-366.6"/>
<polygon fill="black" stroke="black" points="484.4,-680.74 494,-686.06 489.72,-681.19 494.04,-681.54 494.04,-681.54 494.04,-681.54 489.72,-681.19 494.74,-677.09 484.4,-680.74"/>
<text text-anchor="start" x="7" y="-691.6" font-family="Arial" font-size="10.00">FOREIGN KEY (model_key, logic_key) REFERENCES logic(model_key, logic_key) ON DELETE CASCADE</text>
</g>
<!-- public.association -->
<g id="node3" class="node">
<title>public.association</title>
<polygon fill="#efefef" stroke="none" points="712.19,-412.8 712.19,-448.4 980.15,-448.4 980.15,-412.8 712.19,-412.8"/>
<polygon fill="none" stroke="black" points="712.19,-412.8 712.19,-448.4 980.15,-448.4 980.15,-412.8 712.19,-412.8"/>
<text text-anchor="start" x="719.19" y="-426.2" font-family="Arial Bold" font-size="18.00">public.association</text>
<text text-anchor="start" x="848.66" y="-426.2" font-family="Arial" font-size="14.00">    </text>
<text text-anchor="start" x="879.78" y="-426.2" font-family="Arial" font-size="14.00" fill="#666666">[BASE TABLE]</text>
<polygon fill="none" stroke="black" points="712.19,-382 712.19,-412.8 980.15,-412.8 980.15,-382 712.19,-382"/>
<text text-anchor="start" x="719.19" y="-394.2" font-family="Arial" font-size="14.00">model_key </text>
<text text-anchor="start" x="790.78" y="-394.2" font-family="Arial" font-size="14.00" fill="#666666">[text]</text>
<polygon fill="none" stroke="black" points="712.19,-351.2 712.19,-382 980.15,-382 980.15,-351.2 712.19,-351.2"/>
<text text-anchor="start" x="719.19" y="-363.4" font-family="Arial" font-size="14.00">association_key </text>
<text text-anchor="start" x="822.69" y="-363.4" font-family="Arial" font-size="14.00" fill="#666666">[text]</text>
<polygon fill="none" stroke="black" points="712.19,-320.4 712.19,-351.2 980.15,-351.2 980.15,-320.4 712.19,-320.4"/>
<text text-anchor="start" x="719.19" y="-332.6" font-family="Arial" font-size="14.00">from_class_key </text>
<text text-anchor="start" x="820.34" y="-332.6" font-family="Arial" font-size="14.00" fill="#666666">[text]</text>
<polygon fill="none" stroke="black" points="712.19,-289.6 712.19,-320.4 980.15,-320.4 980.15,-289.6 712.19,-289.6"/>
<text text-anchor="start" x="719.19" y="-301.8" font-family="Arial" font-size="14.00">from_multiplicity_lower </text>
<text text-anchor="start" x="864.67" y="-301.8" font-family="Arial" font-size="14.00" fill="#666666">[integer]</text>
<polygon fill="none" stroke="black" points="712.19,-258.8 712.19,-289.6 980.15,-289.6 980.15,-258.8 712.19,-258.8"/>
<text text-anchor="start" x="719.19" y="-271" font-family="Arial" font-size="14.00">from_multiplicity_higher </text>
<text text-anchor="start" x="870.14" y="-271" font-family="Arial" font-size="14.00" fill="#666666">[integer]</text>
<polygon fill="none" stroke="black" points="712.19,-228 712.19,-258.8 980.15,-258.8 980.15,-228 712.19,-228"/>
<text text-anchor="start" x="719.19" y="-240.2" font-family="Arial" font-size="14.00">to_class_key </text>
<text text-anchor="start" x="804.01" y="-240.2" font-family="Arial" font-size="14.00" fill="#666666">[text]</text>
<polygon fill="none" stroke="black" points="712.19,-197.2 712.19,-228 980.15,-228 980.15,-197.2 712.19,-197.2"/>
<text text-anchor="start" x="719.19" y="-209.4" font-family="Arial" font-size="14.00">to_multiplicity_lower </text>
<text text-anchor="start" x="848.35" y="-209.4" font-family="Arial" font-size="14.00" fill="#666666">[integer]</text>
<polygon fill="none" stroke="black" points="712.19,-166.4 712.19,-197.2 980.15,-197.2 980.15,-166.4 712.19,-166.4"/>
<text text-anchor="start" x="719.19" y="-178.6" font-family="Arial" font-size="14.00">to_multiplicity_higher </text>
<text text-anchor="start" x="853.81" y="-178.6" font-family="Arial" font-size="14.00" fill="#666666">[integer]</text>
<polygon fill="none" stroke="black" points="712.19,-135.6 712.19,-166.4 980.15,-166.4 980.15,-135.6 712.19,-135.6"/>
<text text-anchor="start" x="719.19" y="-147.8" font-family="Arial" font-size="14.00">name </text>
<text text-anchor="start" x="758.1" y="-147.8" font-family="Arial" font-size="14.00" fill="#666666">[text]</text>
<polygon fill="none" stroke="black" points="712.19,-104.8 712.19,-135.6 980.15,-135.6 980.15,-104.8 712.19,-104.8"/>
<text text-anchor="start" x="719.19" y="-117" font-family="Arial" font-size="14.00">association_class_key </text>
<text text-anchor="start" x="862.38" y="-117" font-family="Arial" font-size="14.00" fill="#666666">[text]</text>
<polygon fill="none" stroke="black" points="712.19,-74 712.19,-104.8 980.15,-104.8 980.15,-74 712.19,-74"/>
<text text-anchor="start" x="719.19" y="-86.2" font-family="Arial" font-size="14.00">details </text>
<text text-anchor="start" x="763.55" y="-86.2" font-family="Arial" font-size="14.00" fill="#666666">[text]</text>
<polygon fill="none" stroke="black" points="712.19,-43.2 712.19,-74 980.15,-74 980.15,-43.2 712.19,-43.2"/>
<text text-anchor="start" x="719.19" y="-55.4" font-family="Arial" font-size="14.00">uml_comment </text>
<text text-anchor="start" x="811" y="-55.4" font-family="Arial" font-size="14.00" fill="#666666">[text]</text>
</g>
<!-- public.association_invariant&#45;&gt;public.association -->
<g id="edge2" class="edge">
<title>public.association_invariant:model_key&#45;&gt;public.association:model_key</title>
<path fill="none" stroke="black" d="M848.02,-680.73C902.97,-670.86 875.69,-579.19 836.64,-527.6 801.89,-481.69 747.03,-537.44 712.19,-491.6 686.86,-458.27 669.32,-397.4 711.19,-397.4"/>
<polygon fill="black" stroke="black" points="847.94,-680.74 837.6,-677.09 842.62,-681.18 838.31,-681.54 838.31,-681.54 838.31,-681.54 842.62,-681.18 838.35,-686.06 847.94,-680.74"/>
<text text-anchor="start" x="844.64" y="-691.6" font-family="Arial" font-size="10.00">FOREIGN KEY (model_key, association_key) REFERENCES association(model_key, association_key) ON DELETE CASCADE</text>
</g>
</g>
</svg>
