<?xml version="1.0" encoding="UTF-8" standalone="no"?>
<!DOCTYPE svg PUBLIC "-//W3C//DTD SVG 1.1//EN"
 "http://www.w3.org/Graphics/SVG/1.1/DTD/svg11.dtd">
<!-- Generated by graphviz version 12.1.2 (20240928.0832)
 -->
<!-- Title: public.invariant Pages: 1 -->
<svg width="802pt" height="725pt"
 viewBox="0.00 0.00 801.86 725.20" xmlns="http://www.w3.org/2000/svg" xmlns:xlink="http://www.w3.org/1999/xlink">
<g id="graph0" class="graph" transform="scale(1 1) rotate(0) translate(4 721.2)">
<title>public.invariant</title>
<polygon fill="white" stroke="none" points="-4,4 -4,-721.2 797.86,-721.2 797.86,4 -4,4"/>
<!-- public.invariant -->
<g id="node1" class="node">
<title>public.invariant</title>
<polygon fill="#efefef" stroke="none" points="46.2,-635.4 46.2,-671 298.16,-671 298.16,-635.4 46.2,-635.4"/>
<polygon fill="none" stroke="black" points="46.2,-635.4 46.2,-671 298.16,-671 298.16,-635.4 46.2,-635.4"/>
<text text-anchor="start" x="53.2" y="-648.8" font-family="Arial Bold" font-size="18.00">public.invariant</text>
<text text-anchor="start" x="166.67" y="-648.8" font-family="Arial" font-size="14.00">    </text>
<text text-anchor="start" x="197.78" y="-648.8" font-family="Arial" font-size="14.00" fill="#666666">[BASE TABLE]</text>
<polygon fill="none" stroke="black" points="46.2,-604.6 46.2,-635.4 298.16,-635.4 298.16,-604.6 46.2,-604.6"/>
<text text-anchor="start" x="53.2" y="-616.8" font-family="Arial" font-size="14.00">model_key </text>
<text text-anchor="start" x="124.79" y="-616.8" font-family="Arial" font-size="14.00" fill="#666666">[text]</text>
<polygon fill="none" stroke="black" points="46.2,-573.8 46.2,-604.6 298.16,-604.6 298.16,-573.8 46.2,-573.8"/>
<text text-anchor="start" x="53.2" y="-586" font-family="Arial" font-size="14.00">logic_key </text>
<text text-anchor="start" x="115.45" y="-586" font-family="Arial" font-size="14.00" fill="#666666">[text]</text>
<polygon fill="none" stroke="black" stroke-width="3" points="44.7,-572.3 44.7,-672.5 299.66,-672.5 299.66,-572.3 44.7,-572.3"/>
</g>
<!-- public.logic -->
<g id="node2" class="node">
<title>public.logic</title>
<polygon fill="#efefef" stroke="none" points="50.39,-412.8 50.39,-448.4 293.97,-448.4 293.97,-412.8 50.39,-412.8"/>
<polygon fill="none" stroke="black" points="50.39,-412.8 50.39,-448.4 293.97,-448.4 293.97,-412.8 50.39,-412.8"/>
<text text-anchor="start" x="67.19" y="-426.2" font-family="Arial Bold" font-size="18.00">public.logic</text>
<text text-anchor="start" x="152.67" y="-426.2" font-family="Arial" font-size="14.00">    </text>
<text text-anchor="start" x="183.79" y="-426.2" font-family="Arial" font-size="14.00" fill="#666666">[BASE TABLE]</text>
<polygon fill="none" stroke="black" points="50.39,-382 50.39,-412.8 293.97,-412.8 293.97,-382 50.39,-382"/>
<text text-anchor="start" x="57.39" y="-394.2" font-family="Arial" font-size="14.00">logic_key </text>
<text text-anchor="start" x="119.64" y="-394.2" font-family="Arial" font-size="14.00" fill="#666666">[text]</text>
<polygon fill="none" stroke="black" points="50.39,-351.2 50.39,-382 293.97,-382 293.97,-351.2 50.39,-351.2"/>
<text text-anchor="start" x="57.39" y="-363.4" font-family="Arial" font-size="14.00">model_key </text>
<text text-anchor="start" x="128.98" y="-363.4" font-family="Arial" font-size="14.00" fill="#666666">[text]</text>
<polygon fill="none" stroke="black" points="50.39,-320.4 50.39,-351.2 293.97,-351.2 293.97,-320.4 50.39,-320.4"/>
<text text-anchor="start" x="57.39" y="-332.6" font-family="Arial" font-size="14.00">sort_order </text>
<text text-anchor="start" x="125.08" y="-332.6" font-family="Arial" font-size="14.00" fill="#666666">[integer]</text>
<polygon fill="none" stroke="black" points="50.39,-289.6 50.39,-320.4 293.97,-320.4 293.97,-289.6 50.39,-289.6"/>
<text text-anchor="start" x="57.39" y="-301.8" font-family="Arial" font-size="14.00">logic_type </text>
<text text-anchor="start" x="124.32" y="-301.8" font-family="Arial" font-size="14.00" fill="#666666">[logic_type]</text>
<polygon fill="none" stroke="black" points="50.39,-258.8 50.39,-289.6 293.97,-289.6 293.97,-258.8 50.39,-258.8"/>
<text text-anchor="start" x="57.39" y="-271" font-family="Arial" font-size="14.00">description </text>
<text text-anchor="start" x="128.98" y="-271" font-family="Arial" font-size="14.00" fill="#666666">[text]</text>
<polygon fill="none" stroke="black" points="50.39,-228 50.39,-258.8 293.97,-258.8 293.97,-228 50.39,-228"/>
<text text-anchor="start" x="57.39" y="-240.2" font-family="Arial" font-size="14.00">target </text>
<text text-anchor="start" x="97.07" y="-240.2" font-family="Arial" font-size="14.00" fill="#666666">[text]</text>
<polygon fill="none" stroke="black" points="50.39,-197.2 50.39,-228 293.97,-228 293.97,-197.2 50.39,-197.2"/>
<text text-anchor="start" x="57.39" y="-209.4" font-family="Arial" font-size="14.00">notation </text>
<text text-anchor="start" x="111.1" y="-209.4" font-family="Arial" font-size="14.00" fill="#666666">[notation]</text>
<polygon fill="none" stroke="black" points="50.39,-166.4 50.39,-197.2 293.97,-197.2 293.97,-166.4 50.39,-166.4"/>
<text text-anchor="start" x="57.39" y="-178.6" font-family="Arial" font-size="14.00">specification </text>
<text text-anchor="start" x="138.32" y="-178.6" font-family="Arial" font-size="14.00" fill="#666666">[text]</text>
<polygon fill="none" stroke="black" points="50.39,-135.6 50.39,-166.4 293.97,-166.4 293.97,-135.6 50.39,-135.6"/>
<text text-anchor="start" x="57.39" y="-147.8" font-family="Arial" font-size="14.00">target_type_notation </text>
<text text-anchor="start" x="188.93" y="-147.8" font-family="Arial" font-size="14.00" fill="#666666">[notation]</text>
<polygon fill="none" stroke="black" points="50.39,-104.8 50.39,-135.6 293.97,-135.6 293.97,-104.8 50.39,-104.8"/>
<text text-anchor="start" x="57.39" y="-117" font-family="Arial" font-size="14.00">target_type_specification </text>
<text text-anchor="start" x="216.15" y="-117" font-family="Arial" font-size="14.00" fill="#666666">[text]</text>
<polygon fill="none" stroke="black" points="50.39,-74 50.39,-104.8 293.97,-104.8 293.97,-74 50.39,-74"/>
<text text-anchor="start" x="57.39" y="-86.2" font-family="Arial" font-size="14.00">destroy_event_specification </text>
<text text-anchor="start" x="234.05" y="-86.2" font-family="Arial" font-size="14.00" fill="#666666">[text]</text>
<polygon fill="none" stroke="black" points="50.39,-43.2 50.39,-74 293.97,-74 293.97,-43.2 50.39,-43.2"/>
<text text-anchor="start" x="57.39" y="-55.4" font-family="Arial" font-size="14.00">endpoint_selector_specification </text>
<text text-anchor="start" x="256.63" y="-55.4" font-family="Arial" font-size="14.00" fill="#666666">[text]</text>
</g>
<!-- public.invariant&#45;&gt;public.logic -->
<g id="edge1" class="edge">
<title>public.invariant:model_key&#45;&gt;public.logic:model_key</title>
<path fill="none" stroke="black" d="M309.01,-617.15C354.75,-589.31 347.77,-366.6 294.97,-366.6"/>
<polygon fill="black" stroke="black" points="309.08,-617.13 298.23,-615.58 303.96,-618.61 299.8,-619.81 299.8,-619.81 299.8,-619.81 303.96,-618.61 300.73,-624.23 309.08,-617.13"/>
<text text-anchor="start" x="306.16" y="-630" font-family="Arial" font-size="10.00">FOREIGN KEY (model_key, logic_key) REFERENCES logic(model_key, logic_key) ON DELETE CASCADE</text>
</g>
</g>
</svg>
