<?xml version="1.0" encoding="UTF-8" standalone="no"?>
<!DOCTYPE svg PUBLIC "-//W3C//DTD SVG 1.1//EN"
 "http://www.w3.org/Graphics/SVG/1.1/DTD/svg11.dtd">
<!-- Generated by graphviz version 12.1.2 (20240928.0832)
 -->
<!-- Title: public.query_parameter_invariant Pages: 1 -->
<svg width="1591pt" height="756pt"
 viewBox="0.00 0.00 1591.29 756.00" xmlns="http://www.w3.org/2000/svg" xmlns:xlink="http://www.w3.org/1999/xlink">
<g id="graph0" class="graph" transform="scale(1 1) rotate(0) translate(4 752)">
<title>public.query_parameter_invariant</title>
<polygon fill="white" stroke="none" points="-4,4 -4,-752 1587.29,-752 1587.29,4 -4,4"/>
<!-- public.query_parameter_invariant -->
<g id="node1" class="node">
<title>public.query_parameter_invariant</title>
<polygon fill="#efefef" stroke="none" points="495.7,-666.2 495.7,-701.8 878.59,-701.8 878.59,-666.2 495.7,-666.2"/>
<polygon fill="none" stroke="black" points="495.7,-666.2 495.7,-701.8 878.59,-701.8 878.59,-666.2 495.7,-666.2"/>
<text text-anchor="start" x="502.7" y="-679.6" font-family="Arial Bold" font-size="18.00">public.query_parameter_invariant</text>
<text text-anchor="start" x="747.1" y="-679.6" font-family="Arial" font-size="14.00">    </text>
<text text-anchor="start" x="778.22" y="-679.6" font-family="Arial" font-size="14.00" fill="#666666">[BASE TABLE]</text>
<polygon fill="none" stroke="black" points="495.7,-635.4 495.7,-666.2 878.59,-666.2 878.59,-635.4 495.7,-635.4"/>
<text text-anchor="start" x="502.7" y="-647.6" font-family="Arial" font-size="14.00">model_key </text>
<text text-anchor="start" x="574.3" y="-647.6" font-family="Arial" font-size="14.00" fill="#666666">[text]</text>
<polygon fill="none" stroke="black" points="495.7,-604.6 495.7,-635.4 878.59,-635.4 878.59,-604.6 495.7,-604.6"/>
<text text-anchor="start" x="502.7" y="-616.8" font-family="Arial" font-size="14.00">query_key </text>
<text text-anchor="start" x="571.19" y="-616.8" font-family="Arial" font-size="14.00" fill="#666666">[text]</text>
<polygon fill="none" stroke="black" points="495.7,-573.8 495.7,-604.6 878.59,-604.6 878.59,-573.8 495.7,-573.8"/>
<text text-anchor="start" x="502.7" y="-586" font-family="Arial" font-size="14.00">parameter_key </text>
<text text-anchor="start" x="599.97" y="-586" font-family="Arial" font-size="14.00" fill="#666666">[text]</text>
<polygon fill="none" stroke="black" points="495.7,-543 495.7,-573.8 878.59,-573.8 878.59,-543 495.7,-543"/>
<text text-anchor="start" x="502.7" y="-555.2" font-family="Arial" font-size="14.00">logic_key </text>
<text text-anchor="start" x="564.96" y="-555.2" font-family="Arial" font-size="14.00" fill="#666666">[text]</text>
<polygon fill="none" stroke="black" stroke-width="3" points="494.2,-541.5 494.2,-703.3 880.09,-703.3 880.09,-541.5 494.2,-541.5"/>
</g>
<!-- public.logic -->
<g id="node2" class="node">
<title>public.logic</title>
<polygon fill="#efefef" stroke="none" points="390.16,-382 390.16,-417.6 614.13,-417.6 614.13,-382 390.16,-382"/>
<polygon fill="none" stroke="black" points="390.16,-382 390.16,-417.6 614.13,-417.6 614.13,-382 390.16,-382"/>
<text text-anchor="start" x="397.16" y="-395.4" font-family="Arial Bold" font-size="18.00">public.logic</text>
<text text-anchor="start" x="482.64" y="-395.4" font-family="Arial" font-size="14.00">    </text>
<text text-anchor="start" x="513.76" y="-395.4" font-family="Arial" font-size="14.00" fill="#666666">[BASE TABLE]</text>
<polygon fill="none" stroke="black" points="390.16,-351.2 390.16,-382 614.13,-382 614.13,-351.2 390.16,-351.2"/>
<text text-anchor="start" x="397.16" y="-363.4" font-family="Arial" font-size="14.00">logic_key </text>
<text text-anchor="start" x="459.42" y="-363.4" font-family="Arial" font-size="14.00" fill="#666666">[text]</text>
<polygon fill="none" stroke="black" points="390.16,-320.4 390.16,-351.2 614.13,-351.2 614.13,-320.4 390.16,-320.4"/>
<text text-anchor="start" x="397.16" y="-332.6" font-family="Arial" font-size="14.00">model_key </text>
<text text-anchor="start" x="468.75" y="-332.6" font-family="Arial" font-size="14.00" fill="#666666">[text]</text>
<polygon fill="none" stroke="black" points="390.16,-289.6 390.16,-320.4 614.13,-320.4 614.13,-289.6 390.16,-289.6"/>
<text text-anchor="start" x="397.16" y="-301.8" font-family="Arial" font-size="14.00">sort_order </text>
<text text-anchor="start" x="464.86" y="-301.8" font-family="Arial" font-size="14.00" fill="#666666">[integer]</text>
<polygon fill="none" stroke="black" points="390.16,-258.8 390.16,-289.6 614.13,-289.6 614.13,-258.8 390.16,-258.8"/>
<text text-anchor="start" x="397.16" y="-271" font-family="Arial" font-size="14.00">logic_type </text>
<text text-anchor="start" x="464.09" y="-271" font-family="Arial" font-size="14.00" fill="#666666">[logic_type]</text>
<polygon fill="none" stroke="black" points="390.16,-228 390.16,-258.8 614.13,-258.8 614.13,-228 390.16,-228"/>
<text text-anchor="start" x="397.16" y="-240.2" font-family="Arial" font-size="14.00">description </text>
<text text-anchor="start" x="468.75" y="-240.2" font-family="Arial" font-size="14.00" fill="#666666">[text]</text>
<polygon fill="none" stroke="black" points="390.16,-197.2 390.16,-228 614.13,-228 614.13,-197.2 390.16,-197.2"/>
<text text-anchor="start" x="397.16" y="-209.4" font-family="Arial" font-size="14.00">target </text>
<text text-anchor="start" x="436.85" y="-209.4" font-family="Arial" font-size="14.00" fill="#666666">[text]</text>
<polygon fill="none" stroke="black" points="390.16,-166.4 390.16,-197.2 614.13,-197.2 614.13,-166.4 390.16,-166.4"/>
<text text-anchor="start" x="397.16" y="-178.6" font-family="Arial" font-size="14.00">notation </text>
<text text-anchor="start" x="450.87" y="-178.6" font-family="Arial" font-size="14.00" fill="#666666">[notation]</text>
<polygon fill="none" stroke="black" points="390.16,-135.6 390.16,-166.4 614.13,-166.4 614.13,-135.6 390.16,-135.6"/>
<text text-anchor="start" x="397.16" y="-147.8" font-family="Arial" font-size="14.00">specification </text>
<text text-anchor="start" x="478.09" y="-147.8" font-family="Arial" font-size="14.00" fill="#666666">[text]</text>
<polygon fill="none" stroke="black" points="390.16,-104.8 390.16,-135.6 614.13,-135.6 614.13,-104.8 390.16,-104.8"/>
<text text-anchor="start" x="397.16" y="-117" font-family="Arial" font-size="14.00">target_type_notation </text>
<text text-anchor="start" x="528.7" y="-117" font-family="Arial" font-size="14.00" fill="#666666">[notation]</text>
<polygon fill="none" stroke="black" points="390.16,-74 390.16,-104.8 614.13,-104.8 614.13,-74 390.16,-74"/>
<text text-anchor="start" x="397.16" y="-86.2" font-family="Arial" font-size="14.00">target_type_specification </text>
<text text-anchor="start" x="555.93" y="-86.2" font-family="Arial" font-size="14.00" fill="#666666">[text]</text>
<polygon fill="none" stroke="black" points="390.16,-43.2 390.16,-74 614.13,-74 614.13,-43.2 390.16,-43.2"/>
<text text-anchor="start" x="397.16" y="-55.4" font-family="Arial" font-size="14.00">delete_event_specification </text>
<text text-anchor="start" x="566.06" y="-55.4" font-family="Arial" font-size="14.00" fill="#666666">[text]</text>
</g>
<!-- public.query_parameter_invariant&#45;&gt;public.logic -->
<g id="edge1" class="edge">
<title>public.query_parameter_invariant:model_key&#45;&gt;public.logic:model_key</title>
<path fill="none" stroke="black" d="M484.33,-649.93C429.41,-640.09 457.01,-548.66 495.7,-496.8 528.61,-452.71 581.2,-504.87 614.13,-460.8 647.39,-416.3 670.69,-335.8 615.13,-335.8"/>
<polygon fill="black" stroke="black" points="484.4,-649.94 494,-655.26 489.72,-650.38 494.04,-650.74 494.04,-650.74 494.04,-650.74 489.72,-650.38 494.74,-646.29 484.4,-649.94"/>
<text text-anchor="start" x="7" y="-660.8" font-family="Arial" font-size="10.00">FOREIGN KEY (model_key, logic_key) REFERENCES logic(model_key, logic_key) ON DELETE CASCADE</text>
</g>
<!-- public.query_parameter -->
<g id="node3" class="node">
<title>public.query_parameter</title>
<polygon fill="#efefef" stroke="none" points="718.19,-335.8 718.19,-371.4 1028.1,-371.4 1028.1,-335.8 718.19,-335.8"/>
<polygon fill="none" stroke="black" points="718.19,-335.8 718.19,-371.4 1028.1,-371.4 1028.1,-335.8 718.19,-335.8"/>
<text text-anchor="start" x="725.19" y="-349.2" font-family="Arial Bold" font-size="18.00">public.query_parameter</text>
<text text-anchor="start" x="896.61" y="-349.2" font-family="Arial" font-size="14.00">    </text>
<text text-anchor="start" x="927.73" y="-349.2" font-family="Arial" font-size="14.00" fill="#666666">[BASE TABLE]</text>
<polygon fill="none" stroke="black" points="718.19,-305 718.19,-335.8 1028.1,-335.8 1028.1,-305 718.19,-305"/>
<text text-anchor="start" x="725.19" y="-317.2" font-family="Arial" font-size="14.00">model_key </text>
<text text-anchor="start" x="796.78" y="-317.2" font-family="Arial" font-size="14.00" fill="#666666">[text]</text>
<polygon fill="none" stroke="black" points="718.19,-274.2 718.19,-305 1028.1,-305 1028.1,-274.2 718.19,-274.2"/>
<text text-anchor="start" x="725.19" y="-286.4" font-family="Arial" font-size="14.00">query_key </text>
<text text-anchor="start" x="793.67" y="-286.4" font-family="Arial" font-size="14.00" fill="#666666">[text]</text>
<polygon fill="none" stroke="black" points="718.19,-243.4 718.19,-274.2 1028.1,-274.2 1028.1,-243.4 718.19,-243.4"/>
<text text-anchor="start" x="725.19" y="-255.6" font-family="Arial" font-size="14.00">parameter_key </text>
<text text-anchor="start" x="822.46" y="-255.6" font-family="Arial" font-size="14.00" fill="#666666">[text]</text>
<polygon fill="none" stroke="black" points="718.19,-212.6 718.19,-243.4 1028.1,-243.4 1028.1,-212.6 718.19,-212.6"/>
<text text-anchor="start" x="725.19" y="-224.8" font-family="Arial" font-size="14.00">name </text>
<text text-anchor="start" x="764.1" y="-224.8" font-family="Arial" font-size="14.00" fill="#666666">[text]</text>
<polygon fill="none" stroke="black" points="718.19,-181.8 718.19,-212.6 1028.1,-212.6 1028.1,-181.8 718.19,-181.8"/>
<text text-anchor="start" x="725.19" y="-194" font-family="Arial" font-size="14.00">sort_order </text>
<text text-anchor="start" x="792.89" y="-194" font-family="Arial" font-size="14.00" fill="#666666">[integer]</text>
<polygon fill="none" stroke="black" points="718.19,-151 718.19,-181.8 1028.1,-181.8 1028.1,-151 718.19,-151"/>
<text text-anchor="start" x="725.19" y="-163.2" font-family="Arial" font-size="14.00">data_type_rules </text>
<text text-anchor="start" x="828.71" y="-163.2" font-family="Arial" font-size="14.00" fill="#666666">[text]</text>
<polygon fill="none" stroke="black" points="718.19,-120.2 718.19,-151 1028.1,-151 1028.1,-120.2 718.19,-120.2"/>
<text text-anchor="start" x="725.19" y="-132.4" font-family="Arial" font-size="14.00">data_type_key </text>
<text text-anchor="start" x="820.15" y="-132.4" font-family="Arial" font-size="14.00" fill="#666666">[text]</text>
<polygon fill="none" stroke="black" points="718.19,-89.4 718.19,-120.2 1028.1,-120.2 1028.1,-89.4 718.19,-89.4"/>
<text text-anchor="start" x="725.19" y="-101.6" font-family="Arial" font-size="14.00">nullable </text>
<text text-anchor="start" x="777.34" y="-101.6" font-family="Arial" font-size="14.00" fill="#666666">[boolean]</text>
</g>
<!-- public.query_parameter_invariant&#45;&gt;public.query_parameter -->
<g id="edge2" class="edge">
<title>public.query_parameter_invariant:model_key&#45;&gt;public.query_parameter:model_key</title>
<path fill="none" stroke="black" d="M889.92,-649.96C944.36,-640.44 912.51,-551.9 878.59,-496.8 836.59,-428.59 760.33,-482.73 718.19,-414.6 696.17,-378.99 675.32,-320.4 717.19,-320.4"/>
<polygon fill="black" stroke="black" points="889.89,-649.97 879.56,-646.29 884.57,-650.4 880.26,-650.75 880.26,-650.75 880.26,-650.75 884.57,-650.4 880.29,-655.26 889.89,-649.97"/>
<text text-anchor="start" x="886.59" y="-660.8" font-family="Arial" font-size="10.00">FOREIGN KEY (model_key, query_key, parameter_key) REFERENCES query_parameter(model_key, query_key, parameter_key) ON DELETE CASCADE</text>
</g>
</g>
</svg>
