<?xml version="1.0" encoding="UTF-8" standalone="no"?>
<!DOCTYPE svg PUBLIC "-//W3C//DTD SVG 1.1//EN"
 "http://www.w3.org/Graphics/SVG/1.1/DTD/svg11.dtd">
<!-- Generated by graphviz version 12.1.2 (20240928.0832)
 -->
<!-- Title: public.logic Pages: 1 -->
<svg width="2251pt" height="1006pt"
 viewBox="0.00 0.00 2251.47 1006.40" xmlns="http://www.w3.org/2000/svg" xmlns:xlink="http://www.w3.org/1999/xlink">
<g id="graph0" class="graph" transform="scale(1 1) rotate(0) translate(4 1002.4)">
<title>public.logic</title>
<polygon fill="white" stroke="none" points="-4,4 -4,-1002.4 2247.47,-1002.4 2247.47,4 -4,4"/>
<!-- public.logic -->
<g id="node1" class="node">
<title>public.logic</title>
<polygon fill="#efefef" stroke="none" points="1015.74,-450.6 1015.74,-486.2 1239.71,-486.2 1239.71,-450.6 1015.74,-450.6"/>
<polygon fill="none" stroke="black" points="1015.74,-450.6 1015.74,-486.2 1239.71,-486.2 1239.71,-450.6 1015.74,-450.6"/>
<text text-anchor="start" x="1022.74" y="-464" font-family="Arial Bold" font-size="18.00">public.logic</text>
<text text-anchor="start" x="1108.22" y="-464" font-family="Arial" font-size="14.00">    </text>
<text text-anchor="start" x="1139.34" y="-464" font-family="Arial" font-size="14.00" fill="#666666">[BASE TABLE]</text>
<polygon fill="none" stroke="black" points="1015.74,-419.8 1015.74,-450.6 1239.71,-450.6 1239.71,-419.8 1015.74,-419.8"/>
<text text-anchor="start" x="1022.74" y="-432" font-family="Arial" font-size="14.00">logic_key </text>
<text text-anchor="start" x="1084.99" y="-432" font-family="Arial" font-size="14.00" fill="#666666">[text]</text>
<polygon fill="none" stroke="black" points="1015.74,-389 1015.74,-419.8 1239.71,-419.8 1239.71,-389 1015.74,-389"/>
<text text-anchor="start" x="1022.74" y="-401.2" font-family="Arial" font-size="14.00">model_key </text>
<text text-anchor="start" x="1094.33" y="-401.2" font-family="Arial" font-size="14.00" fill="#666666">[text]</text>
<polygon fill="none" stroke="black" points="1015.74,-358.2 1015.74,-389 1239.71,-389 1239.71,-358.2 1015.74,-358.2"/>
<text text-anchor="start" x="1022.74" y="-370.4" font-family="Arial" font-size="14.00">description </text>
<text text-anchor="start" x="1094.33" y="-370.4" font-family="Arial" font-size="14.00" fill="#666666">[text]</text>
<polygon fill="none" stroke="black" points="1015.74,-327.4 1015.74,-358.2 1239.71,-358.2 1239.71,-327.4 1015.74,-327.4"/>
<text text-anchor="start" x="1022.74" y="-339.6" font-family="Arial" font-size="14.00">notation </text>
<text text-anchor="start" x="1076.45" y="-339.6" font-family="Arial" font-size="14.00" fill="#666666">[notation]</text>
<polygon fill="none" stroke="black" points="1015.74,-296.6 1015.74,-327.4 1239.71,-327.4 1239.71,-296.6 1015.74,-296.6"/>
<text text-anchor="start" x="1022.74" y="-308.8" font-family="Arial" font-size="14.00">specification </text>
<text text-anchor="start" x="1103.67" y="-308.8" font-family="Arial" font-size="14.00" fill="#666666">[text]</text>
<polygon fill="none" stroke="black" stroke-width="3" points="1014.24,-295.1 1014.24,-487.7 1241.21,-487.7 1241.21,-295.1 1014.24,-295.1"/>
</g>
<!-- public.model -->
<g id="node7" class="node">
<title>public.model</title>
<polygon fill="#efefef" stroke="none" points="1011.24,-135.6 1011.24,-171.2 1244.21,-171.2 1244.21,-135.6 1011.24,-135.6"/>
<polygon fill="none" stroke="black" points="1011.24,-135.6 1011.24,-171.2 1244.21,-171.2 1244.21,-135.6 1011.24,-135.6"/>
<text text-anchor="start" x="1018.24" y="-149" font-family="Arial Bold" font-size="18.00">public.model</text>
<text text-anchor="start" x="1112.72" y="-149" font-family="Arial" font-size="14.00">    </text>
<text text-anchor="start" x="1143.84" y="-149" font-family="Arial" font-size="14.00" fill="#666666">[BASE TABLE]</text>
<polygon fill="none" stroke="black" points="1011.24,-104.8 1011.24,-135.6 1244.21,-135.6 1244.21,-104.8 1011.24,-104.8"/>
<text text-anchor="start" x="1018.24" y="-117" font-family="Arial" font-size="14.00">model_key </text>
<text text-anchor="start" x="1089.83" y="-117" font-family="Arial" font-size="14.00" fill="#666666">[text]</text>
<polygon fill="none" stroke="black" points="1011.24,-74 1011.24,-104.8 1244.21,-104.8 1244.21,-74 1011.24,-74"/>
<text text-anchor="start" x="1018.24" y="-86.2" font-family="Arial" font-size="14.00">name </text>
<text text-anchor="start" x="1057.15" y="-86.2" font-family="Arial" font-size="14.00" fill="#666666">[text]</text>
<polygon fill="none" stroke="black" points="1011.24,-43.2 1011.24,-74 1244.21,-74 1244.21,-43.2 1011.24,-43.2"/>
<text text-anchor="start" x="1018.24" y="-55.4" font-family="Arial" font-size="14.00">details </text>
<text text-anchor="start" x="1062.6" y="-55.4" font-family="Arial" font-size="14.00" fill="#666666">[text]</text>
</g>
<!-- public.logic&#45;&gt;public.model -->
<g id="edge6" class="edge">
<title>public.logic:model_key&#45;&gt;public.model:model_key</title>
<path fill="none" stroke="black" d="M1250.8,-403.77C1367.19,-389.07 1368.08,-120.2 1245.21,-120.2"/>
<polygon fill="black" stroke="black" points="1251.03,-403.76 1240.77,-399.89 1245.7,-404.09 1241.38,-404.36 1241.38,-404.36 1241.38,-404.36 1245.7,-404.09 1241.32,-408.87 1251.03,-403.76"/>
<text text-anchor="start" x="1247.71" y="-414.4" font-family="Arial" font-size="10.00">FOREIGN KEY (model_key) REFERENCES model(model_key) ON DELETE CASCADE</text>
</g>
<!-- public.invariant -->
<g id="node2" class="node">
<title>public.invariant</title>
<polygon fill="#efefef" stroke="none" points="241.75,-796.4 241.75,-832 493.7,-832 493.7,-796.4 241.75,-796.4"/>
<polygon fill="none" stroke="black" points="241.75,-796.4 241.75,-832 493.7,-832 493.7,-796.4 241.75,-796.4"/>
<text text-anchor="start" x="248.75" y="-809.8" font-family="Arial Bold" font-size="18.00">public.invariant</text>
<text text-anchor="start" x="362.21" y="-809.8" font-family="Arial" font-size="14.00">    </text>
<text text-anchor="start" x="393.33" y="-809.8" font-family="Arial" font-size="14.00" fill="#666666">[BASE TABLE]</text>
<polygon fill="none" stroke="black" points="241.75,-765.6 241.75,-796.4 493.7,-796.4 493.7,-765.6 241.75,-765.6"/>
<text text-anchor="start" x="248.75" y="-777.8" font-family="Arial" font-size="14.00">model_key </text>
<text text-anchor="start" x="320.34" y="-777.8" font-family="Arial" font-size="14.00" fill="#666666">[text]</text>
<polygon fill="none" stroke="black" points="241.75,-734.8 241.75,-765.6 493.7,-765.6 493.7,-734.8 241.75,-734.8"/>
<text text-anchor="start" x="248.75" y="-747" font-family="Arial" font-size="14.00">logic_key </text>
<text text-anchor="start" x="311" y="-747" font-family="Arial" font-size="14.00" fill="#666666">[text]</text>
</g>
<!-- public.invariant&#45;&gt;public.logic -->
<g id="edge1" class="edge">
<title>public.invariant:model_key&#45;&gt;public.logic:model_key</title>
<path fill="none" stroke="black" d="M504.68,-780.43C583.86,-770.67 482.98,-637.81 545.73,-568.4 693.8,-404.58 793.91,-404.4 1014.74,-404.4"/>
<polygon fill="black" stroke="black" points="505.02,-780.41 494.78,-776.49 499.69,-780.71 495.37,-780.96 495.37,-780.96 495.37,-780.96 499.69,-780.71 495.29,-785.47 505.02,-780.41"/>
<text text-anchor="start" x="7" y="-791" font-family="Arial" font-size="10.00">FOREIGN KEY (model_key, logic_key) REFERENCES logic(model_key, logic_key) ON DELETE CASCADE</text>
</g>
<!-- public.global_function -->
<g id="node3" class="node">
<title>public.global_function</title>
<polygon fill="#efefef" stroke="none" points="597.75,-842.6 597.75,-878.2 899.7,-878.2 899.7,-842.6 597.75,-842.6"/>
<polygon fill="none" stroke="black" points="597.75,-842.6 597.75,-878.2 899.7,-878.2 899.7,-842.6 597.75,-842.6"/>
<text text-anchor="start" x="604.75" y="-856" font-family="Arial Bold" font-size="18.00">public.global_function</text>
<text text-anchor="start" x="768.21" y="-856" font-family="Arial" font-size="14.00">    </text>
<text text-anchor="start" x="799.33" y="-856" font-family="Arial" font-size="14.00" fill="#666666">[BASE TABLE]</text>
<polygon fill="none" stroke="black" points="597.75,-811.8 597.75,-842.6 899.7,-842.6 899.7,-811.8 597.75,-811.8"/>
<text text-anchor="start" x="604.75" y="-824" font-family="Arial" font-size="14.00">model_key </text>
<text text-anchor="start" x="676.34" y="-824" font-family="Arial" font-size="14.00" fill="#666666">[text]</text>
<polygon fill="none" stroke="black" points="597.75,-781 597.75,-811.8 899.7,-811.8 899.7,-781 597.75,-781"/>
<text text-anchor="start" x="604.75" y="-793.2" font-family="Arial" font-size="14.00">logic_key </text>
<text text-anchor="start" x="667" y="-793.2" font-family="Arial" font-size="14.00" fill="#666666">[text]</text>
<polygon fill="none" stroke="black" points="597.75,-750.2 597.75,-781 899.7,-781 899.7,-750.2 597.75,-750.2"/>
<text text-anchor="start" x="604.75" y="-762.4" font-family="Arial" font-size="14.00">name </text>
<text text-anchor="start" x="643.66" y="-762.4" font-family="Arial" font-size="14.00" fill="#666666">[text]</text>
<polygon fill="none" stroke="black" points="597.75,-719.4 597.75,-750.2 899.7,-750.2 899.7,-719.4 597.75,-719.4"/>
<text text-anchor="start" x="604.75" y="-731.6" font-family="Arial" font-size="14.00">comment </text>
<text text-anchor="start" x="666.21" y="-731.6" font-family="Arial" font-size="14.00" fill="#666666">[text]</text>
<polygon fill="none" stroke="black" points="597.75,-688.6 597.75,-719.4 899.7,-719.4 899.7,-688.6 597.75,-688.6"/>
<text text-anchor="start" x="604.75" y="-700.8" font-family="Arial" font-size="14.00">parameters </text>
<text text-anchor="start" x="679.44" y="-700.8" font-family="Arial" font-size="14.00" fill="#666666">[text[]]</text>
</g>
<!-- public.global_function&#45;&gt;public.logic -->
<g id="edge2" class="edge">
<title>public.global_function:model_key&#45;&gt;public.logic:model_key</title>
<path fill="none" stroke="black" d="M910.76,-824.91C956.5,-802.46 936.5,-621.2 951.73,-568.4 973.36,-493.37 936.66,-404.4 1014.74,-404.4"/>
<polygon fill="black" stroke="black" points="910.78,-824.91 900.03,-822.74 905.58,-826.09 901.36,-827.05 901.36,-827.05 901.36,-827.05 905.58,-826.09 902.03,-831.51 910.78,-824.91"/>
<text text-anchor="start" x="907.7" y="-837.2" font-family="Arial" font-size="10.00">FOREIGN KEY (model_key, logic_key) REFERENCES logic(model_key, logic_key) ON DELETE CASCADE</text>
</g>
<!-- public.attribute -->
<g id="node4" class="node">
<title>public.attribute</title>
<polygon fill="#efefef" stroke="none" points="1003.75,-919.6 1003.75,-955.2 1251.7,-955.2 1251.7,-919.6 1003.75,-919.6"/>
<polygon fill="none" stroke="black" points="1003.75,-919.6 1003.75,-955.2 1251.7,-955.2 1251.7,-919.6 1003.75,-919.6"/>
<text text-anchor="start" x="1010.75" y="-933" font-family="Arial Bold" font-size="18.00">public.attribute</text>
<text text-anchor="start" x="1120.21" y="-933" font-family="Arial" font-size="14.00">    </text>
<text text-anchor="start" x="1151.33" y="-933" font-family="Arial" font-size="14.00" fill="#666666">[BASE TABLE]</text>
<polygon fill="none" stroke="black" points="1003.75,-888.8 1003.75,-919.6 1251.7,-919.6 1251.7,-888.8 1003.75,-888.8"/>
<text text-anchor="start" x="1010.75" y="-901" font-family="Arial" font-size="14.00">model_key </text>
<text text-anchor="start" x="1082.34" y="-901" font-family="Arial" font-size="14.00" fill="#666666">[text]</text>
<polygon fill="none" stroke="black" points="1003.75,-858 1003.75,-888.8 1251.7,-888.8 1251.7,-858 1003.75,-858"/>
<text text-anchor="start" x="1010.75" y="-870.2" font-family="Arial" font-size="14.00">attribute_key </text>
<text text-anchor="start" x="1094.79" y="-870.2" font-family="Arial" font-size="14.00" fill="#666666">[text]</text>
<polygon fill="none" stroke="black" points="1003.75,-827.2 1003.75,-858 1251.7,-858 1251.7,-827.2 1003.75,-827.2"/>
<text text-anchor="start" x="1010.75" y="-839.4" font-family="Arial" font-size="14.00">class_key </text>
<text text-anchor="start" x="1076.1" y="-839.4" font-family="Arial" font-size="14.00" fill="#666666">[text]</text>
<polygon fill="none" stroke="black" points="1003.75,-796.4 1003.75,-827.2 1251.7,-827.2 1251.7,-796.4 1003.75,-796.4"/>
<text text-anchor="start" x="1010.75" y="-808.6" font-family="Arial" font-size="14.00">name </text>
<text text-anchor="start" x="1049.66" y="-808.6" font-family="Arial" font-size="14.00" fill="#666666">[text]</text>
<polygon fill="none" stroke="black" points="1003.75,-765.6 1003.75,-796.4 1251.7,-796.4 1251.7,-765.6 1003.75,-765.6"/>
<text text-anchor="start" x="1010.75" y="-777.8" font-family="Arial" font-size="14.00">details </text>
<text text-anchor="start" x="1055.1" y="-777.8" font-family="Arial" font-size="14.00" fill="#666666">[text]</text>
<polygon fill="none" stroke="black" points="1003.75,-734.8 1003.75,-765.6 1251.7,-765.6 1251.7,-734.8 1003.75,-734.8"/>
<text text-anchor="start" x="1010.75" y="-747" font-family="Arial" font-size="14.00">data_type_rules </text>
<text text-anchor="start" x="1114.26" y="-747" font-family="Arial" font-size="14.00" fill="#666666">[text]</text>
<polygon fill="none" stroke="black" points="1003.75,-704 1003.75,-734.8 1251.7,-734.8 1251.7,-704 1003.75,-704"/>
<text text-anchor="start" x="1010.75" y="-716.2" font-family="Arial" font-size="14.00">data_type_key </text>
<text text-anchor="start" x="1105.7" y="-716.2" font-family="Arial" font-size="14.00" fill="#666666">[text]</text>
<polygon fill="none" stroke="black" points="1003.75,-673.2 1003.75,-704 1251.7,-704 1251.7,-673.2 1003.75,-673.2"/>
<text text-anchor="start" x="1010.75" y="-685.4" font-family="Arial" font-size="14.00">derivation_policy_key </text>
<text text-anchor="start" x="1148.49" y="-685.4" font-family="Arial" font-size="14.00" fill="#666666">[text]</text>
<polygon fill="none" stroke="black" points="1003.75,-642.4 1003.75,-673.2 1251.7,-673.2 1251.7,-642.4 1003.75,-642.4"/>
<text text-anchor="start" x="1010.75" y="-654.6" font-family="Arial" font-size="14.00">nullable </text>
<text text-anchor="start" x="1062.9" y="-654.6" font-family="Arial" font-size="14.00" fill="#666666">[boolean]</text>
<polygon fill="none" stroke="black" points="1003.75,-611.6 1003.75,-642.4 1251.7,-642.4 1251.7,-611.6 1003.75,-611.6"/>
<text text-anchor="start" x="1010.75" y="-623.8" font-family="Arial" font-size="14.00">uml_comment </text>
<text text-anchor="start" x="1102.55" y="-623.8" font-family="Arial" font-size="14.00" fill="#666666">[text]</text>
</g>
<!-- public.attribute&#45;&gt;public.logic -->
<g id="edge3" class="edge">
<title>public.attribute:model_key&#45;&gt;public.logic:model_key</title>
<path fill="none" stroke="black" d="M1261.78,-899.25C1306.7,-847.35 1293.01,-404.4 1240.71,-404.4"/>
<polygon fill="black" stroke="black" points="1261.78,-899.25 1250.84,-900.09 1257.09,-901.81 1253.29,-903.88 1253.29,-903.88 1253.29,-903.88 1257.09,-901.81 1255.15,-907.99 1261.78,-899.25"/>
<text text-anchor="start" x="1259.7" y="-914.2" font-family="Arial" font-size="10.00">FOREIGN KEY (model_key, derivation_policy_key) REFERENCES logic(model_key, logic_key) ON DELETE CASCADE</text>
</g>
<!-- public.query_require -->
<g id="node5" class="node">
<title>public.query_require</title>
<polygon fill="#efefef" stroke="none" points="1356.26,-811.8 1356.26,-847.4 1645.19,-847.4 1645.19,-811.8 1356.26,-811.8"/>
<polygon fill="none" stroke="black" points="1356.26,-811.8 1356.26,-847.4 1645.19,-847.4 1645.19,-811.8 1356.26,-811.8"/>
<text text-anchor="start" x="1363.26" y="-825.2" font-family="Arial Bold" font-size="18.00">public.query_require</text>
<text text-anchor="start" x="1513.7" y="-825.2" font-family="Arial" font-size="14.00">    </text>
<text text-anchor="start" x="1544.82" y="-825.2" font-family="Arial" font-size="14.00" fill="#666666">[BASE TABLE]</text>
<polygon fill="none" stroke="black" points="1356.26,-781 1356.26,-811.8 1645.19,-811.8 1645.19,-781 1356.26,-781"/>
<text text-anchor="start" x="1363.26" y="-793.2" font-family="Arial" font-size="14.00">model_key </text>
<text text-anchor="start" x="1434.85" y="-793.2" font-family="Arial" font-size="14.00" fill="#666666">[text]</text>
<polygon fill="none" stroke="black" points="1356.26,-750.2 1356.26,-781 1645.19,-781 1645.19,-750.2 1356.26,-750.2"/>
<text text-anchor="start" x="1363.26" y="-762.4" font-family="Arial" font-size="14.00">query_key </text>
<text text-anchor="start" x="1431.74" y="-762.4" font-family="Arial" font-size="14.00" fill="#666666">[text]</text>
<polygon fill="none" stroke="black" points="1356.26,-719.4 1356.26,-750.2 1645.19,-750.2 1645.19,-719.4 1356.26,-719.4"/>
<text text-anchor="start" x="1363.26" y="-731.6" font-family="Arial" font-size="14.00">logic_key </text>
<text text-anchor="start" x="1425.51" y="-731.6" font-family="Arial" font-size="14.00" fill="#666666">[text]</text>
</g>
<!-- public.query_require&#45;&gt;public.logic -->
<g id="edge4" class="edge">
<title>public.query_require:model_key&#45;&gt;public.logic:model_key</title>
<path fill="none" stroke="black" d="M1345.27,-793.86C1305.34,-771.96 1317.75,-614.61 1303.73,-568.4 1281.06,-493.68 1318.8,-404.4 1240.71,-404.4"/>
<polygon fill="black" stroke="black" points="1345.24,-793.86 1353.83,-800.68 1350.41,-795.17 1354.61,-796.24 1354.61,-796.24 1354.61,-796.24 1350.41,-795.17 1356.04,-791.96 1345.24,-793.86"/>
<text text-anchor="start" x="991.23" y="-780.4" font-family="Arial" font-size="10.00">FOREIGN KEY (model_key, logic_key) REFERENCES logic(model_key, logic_key) ON DELETE CASCADE</text>
</g>
<!-- public.query_guarantee -->
<g id="node6" class="node">
<title>public.query_guarantee</title>
<polygon fill="#efefef" stroke="none" points="1749.77,-811.8 1749.77,-847.4 2057.68,-847.4 2057.68,-811.8 1749.77,-811.8"/>
<polygon fill="none" stroke="black" points="1749.77,-811.8 1749.77,-847.4 2057.68,-847.4 2057.68,-811.8 1749.77,-811.8"/>
<text text-anchor="start" x="1756.77" y="-825.2" font-family="Arial Bold" font-size="18.00">public.query_guarantee</text>
<text text-anchor="start" x="1926.19" y="-825.2" font-family="Arial" font-size="14.00">    </text>
<text text-anchor="start" x="1957.31" y="-825.2" font-family="Arial" font-size="14.00" fill="#666666">[BASE TABLE]</text>
<polygon fill="none" stroke="black" points="1749.77,-781 1749.77,-811.8 2057.68,-811.8 2057.68,-781 1749.77,-781"/>
<text text-anchor="start" x="1756.77" y="-793.2" font-family="Arial" font-size="14.00">model_key </text>
<text text-anchor="start" x="1828.36" y="-793.2" font-family="Arial" font-size="14.00" fill="#666666">[text]</text>
<polygon fill="none" stroke="black" points="1749.77,-750.2 1749.77,-781 2057.68,-781 2057.68,-750.2 1749.77,-750.2"/>
<text text-anchor="start" x="1756.77" y="-762.4" font-family="Arial" font-size="14.00">query_key </text>
<text text-anchor="start" x="1825.25" y="-762.4" font-family="Arial" font-size="14.00" fill="#666666">[text]</text>
<polygon fill="none" stroke="black" points="1749.77,-719.4 1749.77,-750.2 2057.68,-750.2 2057.68,-719.4 1749.77,-719.4"/>
<text text-anchor="start" x="1756.77" y="-731.6" font-family="Arial" font-size="14.00">logic_key </text>
<text text-anchor="start" x="1819.02" y="-731.6" font-family="Arial" font-size="14.00" fill="#666666">[text]</text>
</g>
<!-- public.query_guarantee&#45;&gt;public.logic -->
<g id="edge5" class="edge">
<title>public.query_guarantee:model_key&#45;&gt;public.logic:model_key</title>
<path fill="none" stroke="black" d="M1738.37,-795.82C1653.46,-785.64 1763.97,-643.43 1697.73,-568.4 1554.9,-406.62 1456.51,-404.4 1240.71,-404.4"/>
<polygon fill="black" stroke="black" points="1738.45,-795.83 1748.18,-800.87 1743.77,-796.12 1748.1,-796.36 1748.1,-796.36 1748.1,-796.36 1743.77,-796.12 1748.68,-791.89 1738.45,-795.83"/>
<text text-anchor="start" x="1755.77" y="-806.4" font-family="Arial" font-size="10.00">FOREIGN KEY (model_key, logic_key) REFERENCES logic(model_key, logic_key) ON DELETE CASCADE</text>
</g>
</g>
</svg>
