<?xml version="1.0" encoding="UTF-8" standalone="no"?>
<!DOCTYPE svg PUBLIC "-//W3C//DTD SVG 1.1//EN"
 "http://www.w3.org/Graphics/SVG/1.1/DTD/svg11.dtd">
<!-- Generated by graphviz version 12.1.2 (20240928.0832)
 -->
<!-- Title: public.action Pages: 1 -->
<svg width="2697pt" height="1191pt"
 viewBox="0.00 0.00 2696.69 1191.20" xmlns="http://www.w3.org/2000/svg" xmlns:xlink="http://www.w3.org/1999/xlink">
<g id="graph0" class="graph" transform="scale(1 1) rotate(0) translate(4 1187.2)">
<title>public.action</title>
<polygon fill="white" stroke="none" points="-4,4 -4,-1187.2 2692.69,-1187.2 2692.69,4 -4,4"/>
<!-- public.action -->
<g id="node1" class="node">
<title>public.action</title>
<polygon fill="#efefef" stroke="none" points="1253.62,-666.2 1253.62,-701.8 1485.58,-701.8 1485.58,-666.2 1253.62,-666.2"/>
<polygon fill="none" stroke="black" points="1253.62,-666.2 1253.62,-701.8 1485.58,-701.8 1485.58,-666.2 1253.62,-666.2"/>
<text text-anchor="start" x="1260.62" y="-679.6" font-family="Arial Bold" font-size="18.00">public.action</text>
<text text-anchor="start" x="1354.09" y="-679.6" font-family="Arial" font-size="14.00">    </text>
<text text-anchor="start" x="1385.21" y="-679.6" font-family="Arial" font-size="14.00" fill="#666666">[BASE TABLE]</text>
<polygon fill="none" stroke="black" points="1253.62,-635.4 1253.62,-666.2 1485.58,-666.2 1485.58,-635.4 1253.62,-635.4"/>
<text text-anchor="start" x="1260.62" y="-647.6" font-family="Arial" font-size="14.00">model_key </text>
<text text-anchor="start" x="1332.22" y="-647.6" font-family="Arial" font-size="14.00" fill="#666666">[text]</text>
<polygon fill="none" stroke="black" points="1253.62,-604.6 1253.62,-635.4 1485.58,-635.4 1485.58,-604.6 1253.62,-604.6"/>
<text text-anchor="start" x="1260.62" y="-616.8" font-family="Arial" font-size="14.00">class_key </text>
<text text-anchor="start" x="1325.98" y="-616.8" font-family="Arial" font-size="14.00" fill="#666666">[text]</text>
<polygon fill="none" stroke="black" points="1253.62,-573.8 1253.62,-604.6 1485.58,-604.6 1485.58,-573.8 1253.62,-573.8"/>
<text text-anchor="start" x="1260.62" y="-586" font-family="Arial" font-size="14.00">action_key </text>
<text text-anchor="start" x="1331.44" y="-586" font-family="Arial" font-size="14.00" fill="#666666">[text]</text>
<polygon fill="none" stroke="black" points="1253.62,-543 1253.62,-573.8 1485.58,-573.8 1485.58,-543 1253.62,-543"/>
<text text-anchor="start" x="1260.62" y="-555.2" font-family="Arial" font-size="14.00">name </text>
<text text-anchor="start" x="1299.53" y="-555.2" font-family="Arial" font-size="14.00" fill="#666666">[text]</text>
<polygon fill="none" stroke="black" points="1253.62,-512.2 1253.62,-543 1485.58,-543 1485.58,-512.2 1253.62,-512.2"/>
<text text-anchor="start" x="1260.62" y="-524.4" font-family="Arial" font-size="14.00">details </text>
<text text-anchor="start" x="1304.98" y="-524.4" font-family="Arial" font-size="14.00" fill="#666666">[text]</text>
<polygon fill="none" stroke="black" stroke-width="3" points="1252.12,-510.7 1252.12,-703.3 1487.08,-703.3 1487.08,-510.7 1252.12,-510.7"/>
</g>
<!-- public.class -->
<g id="node2" class="node">
<title>public.class</title>
<polygon fill="#efefef" stroke="none" points="1258.12,-351.2 1258.12,-386.8 1481.09,-386.8 1481.09,-351.2 1258.12,-351.2"/>
<polygon fill="none" stroke="black" points="1258.12,-351.2 1258.12,-386.8 1481.09,-386.8 1481.09,-351.2 1258.12,-351.2"/>
<text text-anchor="start" x="1265.12" y="-364.6" font-family="Arial Bold" font-size="18.00">public.class</text>
<text text-anchor="start" x="1349.6" y="-364.6" font-family="Arial" font-size="14.00">    </text>
<text text-anchor="start" x="1380.72" y="-364.6" font-family="Arial" font-size="14.00" fill="#666666">[BASE TABLE]</text>
<polygon fill="none" stroke="black" points="1258.12,-320.4 1258.12,-351.2 1481.09,-351.2 1481.09,-320.4 1258.12,-320.4"/>
<text text-anchor="start" x="1265.12" y="-332.6" font-family="Arial" font-size="14.00">model_key </text>
<text text-anchor="start" x="1336.71" y="-332.6" font-family="Arial" font-size="14.00" fill="#666666">[text]</text>
<polygon fill="none" stroke="black" points="1258.12,-289.6 1258.12,-320.4 1481.09,-320.4 1481.09,-289.6 1258.12,-289.6"/>
<text text-anchor="start" x="1265.12" y="-301.8" font-family="Arial" font-size="14.00">class_key </text>
<text text-anchor="start" x="1330.48" y="-301.8" font-family="Arial" font-size="14.00" fill="#666666">[text]</text>
<polygon fill="none" stroke="black" points="1258.12,-258.8 1258.12,-289.6 1481.09,-289.6 1481.09,-258.8 1258.12,-258.8"/>
<text text-anchor="start" x="1265.12" y="-271" font-family="Arial" font-size="14.00">name </text>
<text text-anchor="start" x="1304.03" y="-271" font-family="Arial" font-size="14.00" fill="#666666">[text]</text>
<polygon fill="none" stroke="black" points="1258.12,-228 1258.12,-258.8 1481.09,-258.8 1481.09,-228 1258.12,-228"/>
<text text-anchor="start" x="1265.12" y="-240.2" font-family="Arial" font-size="14.00">subdomain_key </text>
<text text-anchor="start" x="1367.07" y="-240.2" font-family="Arial" font-size="14.00" fill="#666666">[text]</text>
<polygon fill="none" stroke="black" points="1258.12,-197.2 1258.12,-228 1481.09,-228 1481.09,-197.2 1258.12,-197.2"/>
<text text-anchor="start" x="1265.12" y="-209.4" font-family="Arial" font-size="14.00">actor_key </text>
<text text-anchor="start" x="1329.7" y="-209.4" font-family="Arial" font-size="14.00" fill="#666666">[text]</text>
<polygon fill="none" stroke="black" points="1258.12,-166.4 1258.12,-197.2 1481.09,-197.2 1481.09,-166.4 1258.12,-166.4"/>
<text text-anchor="start" x="1265.12" y="-178.6" font-family="Arial" font-size="14.00">superclass_of_key </text>
<text text-anchor="start" x="1384.96" y="-178.6" font-family="Arial" font-size="14.00" fill="#666666">[text]</text>
<polygon fill="none" stroke="black" points="1258.12,-135.6 1258.12,-166.4 1481.09,-166.4 1481.09,-135.6 1258.12,-135.6"/>
<text text-anchor="start" x="1265.12" y="-147.8" font-family="Arial" font-size="14.00">subclass_of_key </text>
<text text-anchor="start" x="1372.51" y="-147.8" font-family="Arial" font-size="14.00" fill="#666666">[text]</text>
<polygon fill="none" stroke="black" points="1258.12,-104.8 1258.12,-135.6 1481.09,-135.6 1481.09,-104.8 1258.12,-104.8"/>
<text text-anchor="start" x="1265.12" y="-117" font-family="Arial" font-size="14.00">details </text>
<text text-anchor="start" x="1309.48" y="-117" font-family="Arial" font-size="14.00" fill="#666666">[text]</text>
<polygon fill="none" stroke="black" points="1258.12,-74 1258.12,-104.8 1481.09,-104.8 1481.09,-74 1258.12,-74"/>
<text text-anchor="start" x="1265.12" y="-86.2" font-family="Arial" font-size="14.00">unfinished_notes </text>
<text text-anchor="start" x="1374.87" y="-86.2" font-family="Arial" font-size="14.00" fill="#666666">[text]</text>
<polygon fill="none" stroke="black" points="1258.12,-43.2 1258.12,-74 1481.09,-74 1481.09,-43.2 1258.12,-43.2"/>
<text text-anchor="start" x="1265.12" y="-55.4" font-family="Arial" font-size="14.00">uml_comment </text>
<text text-anchor="start" x="1356.93" y="-55.4" font-family="Arial" font-size="14.00" fill="#666666">[text]</text>
</g>
<!-- public.action&#45;&gt;public.class -->
<g id="edge1" class="edge">
<title>public.action:model_key&#45;&gt;public.class:model_key</title>
<path fill="none" stroke="black" d="M1496.97,-650.2C1626.28,-635.01 1618.55,-335.8 1482.09,-335.8"/>
<polygon fill="black" stroke="black" points="1496.9,-650.2 1486.66,-646.29 1491.58,-650.51 1487.25,-650.76 1487.25,-650.76 1487.25,-650.76 1491.58,-650.51 1487.18,-655.27 1496.9,-650.2"/>
<text text-anchor="start" x="1493.58" y="-660.8" font-family="Arial" font-size="10.00">FOREIGN KEY (model_key, class_key) REFERENCES class(model_key, class_key) ON DELETE CASCADE</text>
</g>
<!-- public.action_parameter -->
<g id="node3" class="node">
<title>public.action_parameter</title>
<polygon fill="#efefef" stroke="none" points="199.15,-1089 199.15,-1124.6 512.06,-1124.6 512.06,-1089 199.15,-1089"/>
<polygon fill="none" stroke="black" points="199.15,-1089 199.15,-1124.6 512.06,-1124.6 512.06,-1089 199.15,-1089"/>
<text text-anchor="start" x="206.15" y="-1102.4" font-family="Arial Bold" font-size="18.00">public.action_parameter</text>
<text text-anchor="start" x="380.57" y="-1102.4" font-family="Arial" font-size="14.00">    </text>
<text text-anchor="start" x="411.69" y="-1102.4" font-family="Arial" font-size="14.00" fill="#666666">[BASE TABLE]</text>
<polygon fill="none" stroke="black" points="199.15,-1058.2 199.15,-1089 512.06,-1089 512.06,-1058.2 199.15,-1058.2"/>
<text text-anchor="start" x="206.15" y="-1070.4" font-family="Arial" font-size="14.00">model_key </text>
<text text-anchor="start" x="277.74" y="-1070.4" font-family="Arial" font-size="14.00" fill="#666666">[text]</text>
<polygon fill="none" stroke="black" points="199.15,-1027.4 199.15,-1058.2 512.06,-1058.2 512.06,-1027.4 199.15,-1027.4"/>
<text text-anchor="start" x="206.15" y="-1039.6" font-family="Arial" font-size="14.00">action_key </text>
<text text-anchor="start" x="276.97" y="-1039.6" font-family="Arial" font-size="14.00" fill="#666666">[text]</text>
<polygon fill="none" stroke="black" points="199.15,-996.6 199.15,-1027.4 512.06,-1027.4 512.06,-996.6 199.15,-996.6"/>
<text text-anchor="start" x="206.15" y="-1008.8" font-family="Arial" font-size="14.00">parameter_key </text>
<text text-anchor="start" x="303.42" y="-1008.8" font-family="Arial" font-size="14.00" fill="#666666">[text]</text>
<polygon fill="none" stroke="black" points="199.15,-965.8 199.15,-996.6 512.06,-996.6 512.06,-965.8 199.15,-965.8"/>
<text text-anchor="start" x="206.15" y="-978" font-family="Arial" font-size="14.00">name </text>
<text text-anchor="start" x="245.06" y="-978" font-family="Arial" font-size="14.00" fill="#666666">[text]</text>
<polygon fill="none" stroke="black" points="199.15,-935 199.15,-965.8 512.06,-965.8 512.06,-935 199.15,-935"/>
<text text-anchor="start" x="206.15" y="-947.2" font-family="Arial" font-size="14.00">sort_order </text>
<text text-anchor="start" x="273.85" y="-947.2" font-family="Arial" font-size="14.00" fill="#666666">[integer]</text>
<polygon fill="none" stroke="black" points="199.15,-904.2 199.15,-935 512.06,-935 512.06,-904.2 199.15,-904.2"/>
<text text-anchor="start" x="206.15" y="-916.4" font-family="Arial" font-size="14.00">data_type_rules </text>
<text text-anchor="start" x="309.67" y="-916.4" font-family="Arial" font-size="14.00" fill="#666666">[text]</text>
<polygon fill="none" stroke="black" points="199.15,-873.4 199.15,-904.2 512.06,-904.2 512.06,-873.4 199.15,-873.4"/>
<text text-anchor="start" x="206.15" y="-885.6" font-family="Arial" font-size="14.00">data_type_key </text>
<text text-anchor="start" x="301.11" y="-885.6" font-family="Arial" font-size="14.00" fill="#666666">[text]</text>
<polygon fill="none" stroke="black" points="199.15,-842.6 199.15,-873.4 512.06,-873.4 512.06,-842.6 199.15,-842.6"/>
<text text-anchor="start" x="206.15" y="-854.8" font-family="Arial" font-size="14.00">nullable </text>
<text text-anchor="start" x="258.3" y="-854.8" font-family="Arial" font-size="14.00" fill="#666666">[boolean]</text>
</g>
<!-- public.action_parameter&#45;&gt;public.action -->
<g id="edge2" class="edge">
<title>public.action_parameter:model_key&#45;&gt;public.action:model_key</title>
<path fill="none" stroke="black" d="M523.45,-1073.13C634.32,-1062.56 475.46,-874.5 564.6,-784 673.89,-673.05 1096.89,-650.8 1252.62,-650.8"/>
<polygon fill="black" stroke="black" points="523.38,-1073.14 513.19,-1069.09 518.05,-1073.38 513.73,-1073.57 513.73,-1073.57 513.73,-1073.57 518.05,-1073.38 513.59,-1078.08 523.38,-1073.14"/>
<text text-anchor="start" x="7" y="-1083.6" font-family="Arial" font-size="10.00">FOREIGN KEY (model_key, action_key) REFERENCES action(model_key, action_key) ON DELETE CASCADE</text>
</g>
<!-- public.action_require -->
<g id="node4" class="node">
<title>public.action_require</title>
<polygon fill="#efefef" stroke="none" points="616.64,-1012 616.64,-1047.6 908.57,-1047.6 908.57,-1012 616.64,-1012"/>
<polygon fill="none" stroke="black" points="616.64,-1012 616.64,-1047.6 908.57,-1047.6 908.57,-1012 616.64,-1012"/>
<text text-anchor="start" x="623.64" y="-1025.4" font-family="Arial Bold" font-size="18.00">public.action_require</text>
<text text-anchor="start" x="777.08" y="-1025.4" font-family="Arial" font-size="14.00">    </text>
<text text-anchor="start" x="808.2" y="-1025.4" font-family="Arial" font-size="14.00" fill="#666666">[BASE TABLE]</text>
<polygon fill="none" stroke="black" points="616.64,-981.2 616.64,-1012 908.57,-1012 908.57,-981.2 616.64,-981.2"/>
<text text-anchor="start" x="623.64" y="-993.4" font-family="Arial" font-size="14.00">model_key </text>
<text text-anchor="start" x="695.23" y="-993.4" font-family="Arial" font-size="14.00" fill="#666666">[text]</text>
<polygon fill="none" stroke="black" points="616.64,-950.4 616.64,-981.2 908.57,-981.2 908.57,-950.4 616.64,-950.4"/>
<text text-anchor="start" x="623.64" y="-962.6" font-family="Arial" font-size="14.00">action_key </text>
<text text-anchor="start" x="694.46" y="-962.6" font-family="Arial" font-size="14.00" fill="#666666">[text]</text>
<polygon fill="none" stroke="black" points="616.64,-919.6 616.64,-950.4 908.57,-950.4 908.57,-919.6 616.64,-919.6"/>
<text text-anchor="start" x="623.64" y="-931.8" font-family="Arial" font-size="14.00">logic_key </text>
<text text-anchor="start" x="685.89" y="-931.8" font-family="Arial" font-size="14.00" fill="#666666">[text]</text>
</g>
<!-- public.action_require&#45;&gt;public.action -->
<g id="edge3" class="edge">
<title>public.action_require:model_key&#45;&gt;public.action:model_key</title>
<path fill="none" stroke="black" d="M919.56,-996.04C998.96,-986.47 901.1,-856.21 960.6,-784 1051.32,-673.91 1109.97,-650.8 1252.62,-650.8"/>
<polygon fill="black" stroke="black" points="919.89,-996.02 909.65,-992.09 914.56,-996.32 910.24,-996.56 910.24,-996.56 910.24,-996.56 914.56,-996.32 910.15,-1001.07 919.89,-996.02"/>
<text text-anchor="start" x="403.51" y="-1006.6" font-family="Arial" font-size="10.00">FOREIGN KEY (model_key, action_key) REFERENCES action(model_key, action_key) ON DELETE CASCADE</text>
</g>
<!-- public.action_guarantee -->
<g id="node5" class="node">
<title>public.action_guarantee</title>
<polygon fill="#efefef" stroke="none" points="1013.15,-1012 1013.15,-1047.6 1324.06,-1047.6 1324.06,-1012 1013.15,-1012"/>
<polygon fill="none" stroke="black" points="1013.15,-1012 1013.15,-1047.6 1324.06,-1047.6 1324.06,-1012 1013.15,-1012"/>
<text text-anchor="start" x="1020.15" y="-1025.4" font-family="Arial Bold" font-size="18.00">public.action_guarantee</text>
<text text-anchor="start" x="1192.57" y="-1025.4" font-family="Arial" font-size="14.00">    </text>
<text text-anchor="start" x="1223.69" y="-1025.4" font-family="Arial" font-size="14.00" fill="#666666">[BASE TABLE]</text>
<polygon fill="none" stroke="black" points="1013.15,-981.2 1013.15,-1012 1324.06,-1012 1324.06,-981.2 1013.15,-981.2"/>
<text text-anchor="start" x="1020.15" y="-993.4" font-family="Arial" font-size="14.00">model_key </text>
<text text-anchor="start" x="1091.74" y="-993.4" font-family="Arial" font-size="14.00" fill="#666666">[text]</text>
<polygon fill="none" stroke="black" points="1013.15,-950.4 1013.15,-981.2 1324.06,-981.2 1324.06,-950.4 1013.15,-950.4"/>
<text text-anchor="start" x="1020.15" y="-962.6" font-family="Arial" font-size="14.00">action_key </text>
<text text-anchor="start" x="1090.97" y="-962.6" font-family="Arial" font-size="14.00" fill="#666666">[text]</text>
<polygon fill="none" stroke="black" points="1013.15,-919.6 1013.15,-950.4 1324.06,-950.4 1324.06,-919.6 1013.15,-919.6"/>
<text text-anchor="start" x="1020.15" y="-931.8" font-family="Arial" font-size="14.00">logic_key </text>
<text text-anchor="start" x="1082.4" y="-931.8" font-family="Arial" font-size="14.00" fill="#666666">[text]</text>
</g>
<!-- public.action_guarantee&#45;&gt;public.action -->
<g id="edge4" class="edge">
<title>public.action_guarantee:model_key&#45;&gt;public.action:model_key</title>
<path fill="none" stroke="black" d="M1335.24,-995.94C1422.39,-983.63 1267.91,-802.59 1253.62,-748 1242.68,-706.21 1209.42,-650.8 1252.62,-650.8"/>
<polygon fill="black" stroke="black" points="1335.37,-995.93 1325.1,-992.09 1330.05,-996.28 1325.73,-996.56 1325.73,-996.56 1325.73,-996.56 1330.05,-996.28 1325.69,-1001.07 1335.37,-995.93"/>
<text text-anchor="start" x="1075.53" y="-980.6" font-family="Arial" font-size="10.00">FOREIGN KEY (model_key, action_key) REFERENCES action(model_key, action_key) ON DELETE CASCADE</text>
</g>
<!-- public.action_safety -->
<g id="node6" class="node">
<title>public.action_safety</title>
<polygon fill="#efefef" stroke="none" points="1428.63,-1012 1428.63,-1047.6 1712.57,-1047.6 1712.57,-1012 1428.63,-1012"/>
<polygon fill="none" stroke="black" points="1428.63,-1012 1428.63,-1047.6 1712.57,-1047.6 1712.57,-1012 1428.63,-1012"/>
<text text-anchor="start" x="1435.63" y="-1025.4" font-family="Arial Bold" font-size="18.00">public.action_safety</text>
<text text-anchor="start" x="1581.08" y="-1025.4" font-family="Arial" font-size="14.00">    </text>
<text text-anchor="start" x="1612.2" y="-1025.4" font-family="Arial" font-size="14.00" fill="#666666">[BASE TABLE]</text>
<polygon fill="none" stroke="black" points="1428.63,-981.2 1428.63,-1012 1712.57,-1012 1712.57,-981.2 1428.63,-981.2"/>
<text text-anchor="start" x="1435.63" y="-993.4" font-family="Arial" font-size="14.00">model_key </text>
<text text-anchor="start" x="1507.23" y="-993.4" font-family="Arial" font-size="14.00" fill="#666666">[text]</text>
<polygon fill="none" stroke="black" points="1428.63,-950.4 1428.63,-981.2 1712.57,-981.2 1712.57,-950.4 1428.63,-950.4"/>
<text text-anchor="start" x="1435.63" y="-962.6" font-family="Arial" font-size="14.00">action_key </text>
<text text-anchor="start" x="1506.45" y="-962.6" font-family="Arial" font-size="14.00" fill="#666666">[text]</text>
<polygon fill="none" stroke="black" points="1428.63,-919.6 1428.63,-950.4 1712.57,-950.4 1712.57,-919.6 1428.63,-919.6"/>
<text text-anchor="start" x="1435.63" y="-931.8" font-family="Arial" font-size="14.00">logic_key </text>
<text text-anchor="start" x="1497.89" y="-931.8" font-family="Arial" font-size="14.00" fill="#666666">[text]</text>
</g>
<!-- public.action_safety&#45;&gt;public.action -->
<g id="edge5" class="edge">
<title>public.action_safety:model_key&#45;&gt;public.action:model_key</title>
<path fill="none" stroke="black" d="M1417.53,-996.04C1288.82,-980.58 1638.84,-650.8 1486.58,-650.8"/>
<polygon fill="black" stroke="black" points="1417.32,-996.03 1427.05,-1001.07 1422.64,-996.32 1426.97,-996.56 1426.97,-996.56 1426.97,-996.56 1422.64,-996.32 1427.55,-992.09 1417.32,-996.03"/>
<text text-anchor="start" x="1434.63" y="-1006.6" font-family="Arial" font-size="10.00">FOREIGN KEY (model_key, action_key) REFERENCES action(model_key, action_key) ON DELETE CASCADE</text>
</g>
<!-- public.transition -->
<g id="node7" class="node">
<title>public.transition</title>
<polygon fill="#efefef" stroke="none" points="1816.62,-1104.4 1816.62,-1140 2072.59,-1140 2072.59,-1104.4 1816.62,-1104.4"/>
<polygon fill="none" stroke="black" points="1816.62,-1104.4 1816.62,-1140 2072.59,-1140 2072.59,-1104.4 1816.62,-1104.4"/>
<text text-anchor="start" x="1823.62" y="-1117.8" font-family="Arial Bold" font-size="18.00">public.transition</text>
<text text-anchor="start" x="1941.1" y="-1117.8" font-family="Arial" font-size="14.00">    </text>
<text text-anchor="start" x="1972.22" y="-1117.8" font-family="Arial" font-size="14.00" fill="#666666">[BASE TABLE]</text>
<polygon fill="none" stroke="black" points="1816.62,-1073.6 1816.62,-1104.4 2072.59,-1104.4 2072.59,-1073.6 1816.62,-1073.6"/>
<text text-anchor="start" x="1823.62" y="-1085.8" font-family="Arial" font-size="14.00">model_key </text>
<text text-anchor="start" x="1895.21" y="-1085.8" font-family="Arial" font-size="14.00" fill="#666666">[text]</text>
<polygon fill="none" stroke="black" points="1816.62,-1042.8 1816.62,-1073.6 2072.59,-1073.6 2072.59,-1042.8 1816.62,-1042.8"/>
<text text-anchor="start" x="1823.62" y="-1055" font-family="Arial" font-size="14.00">class_key </text>
<text text-anchor="start" x="1888.98" y="-1055" font-family="Arial" font-size="14.00" fill="#666666">[text]</text>
<polygon fill="none" stroke="black" points="1816.62,-1012 1816.62,-1042.8 2072.59,-1042.8 2072.59,-1012 1816.62,-1012"/>
<text text-anchor="start" x="1823.62" y="-1024.2" font-family="Arial" font-size="14.00">transition_key </text>
<text text-anchor="start" x="1913.89" y="-1024.2" font-family="Arial" font-size="14.00" fill="#666666">[text]</text>
<polygon fill="none" stroke="black" points="1816.62,-981.2 1816.62,-1012 2072.59,-1012 2072.59,-981.2 1816.62,-981.2"/>
<text text-anchor="start" x="1823.62" y="-993.4" font-family="Arial" font-size="14.00">from_state_key </text>
<text text-anchor="start" x="1923.22" y="-993.4" font-family="Arial" font-size="14.00" fill="#666666">[text]</text>
<polygon fill="none" stroke="black" points="1816.62,-950.4 1816.62,-981.2 2072.59,-981.2 2072.59,-950.4 1816.62,-950.4"/>
<text text-anchor="start" x="1823.62" y="-962.6" font-family="Arial" font-size="14.00">event_key </text>
<text text-anchor="start" x="1891.33" y="-962.6" font-family="Arial" font-size="14.00" fill="#666666">[text]</text>
<polygon fill="none" stroke="black" points="1816.62,-919.6 1816.62,-950.4 2072.59,-950.4 2072.59,-919.6 1816.62,-919.6"/>
<text text-anchor="start" x="1823.62" y="-931.8" font-family="Arial" font-size="14.00">guard_key </text>
<text text-anchor="start" x="1892.89" y="-931.8" font-family="Arial" font-size="14.00" fill="#666666">[text]</text>
<polygon fill="none" stroke="black" points="1816.62,-888.8 1816.62,-919.6 2072.59,-919.6 2072.59,-888.8 1816.62,-888.8"/>
<text text-anchor="start" x="1823.62" y="-901" font-family="Arial" font-size="14.00">action_key </text>
<text text-anchor="start" x="1894.44" y="-901" font-family="Arial" font-size="14.00" fill="#666666">[text]</text>
<polygon fill="none" stroke="black" points="1816.62,-858 1816.62,-888.8 2072.59,-888.8 2072.59,-858 1816.62,-858"/>
<text text-anchor="start" x="1823.62" y="-870.2" font-family="Arial" font-size="14.00">to_state_key </text>
<text text-anchor="start" x="1906.89" y="-870.2" font-family="Arial" font-size="14.00" fill="#666666">[text]</text>
<polygon fill="none" stroke="black" points="1816.62,-827.2 1816.62,-858 2072.59,-858 2072.59,-827.2 1816.62,-827.2"/>
<text text-anchor="start" x="1823.62" y="-839.4" font-family="Arial" font-size="14.00">uml_comment </text>
<text text-anchor="start" x="1915.42" y="-839.4" font-family="Arial" font-size="14.00" fill="#666666">[text]</text>
</g>
<!-- public.transition&#45;&gt;public.action -->
<g id="edge6" class="edge">
<title>public.transition:model_key&#45;&gt;public.action:model_key</title>
<path fill="none" stroke="black" d="M1805.45,-1086.83C1753.05,-1062.23 1803.65,-835.92 1764.6,-784 1682.25,-674.5 1623.6,-650.8 1486.58,-650.8"/>
<polygon fill="black" stroke="black" points="1805.51,-1086.84 1814.35,-1093.33 1810.73,-1087.96 1814.96,-1088.86 1814.96,-1088.86 1814.96,-1088.86 1810.73,-1087.96 1816.23,-1084.53 1805.51,-1086.84"/>
<text text-anchor="start" x="1309.56" y="-1099" font-family="Arial" font-size="10.00">FOREIGN KEY (model_key, action_key) REFERENCES action(model_key, action_key) ON DELETE CASCADE</text>
</g>
<!-- public.state_action -->
<g id="node8" class="node">
<title>public.state_action</title>
<polygon fill="#efefef" stroke="none" points="2176.63,-1042.8 2176.63,-1078.4 2450.58,-1078.4 2450.58,-1042.8 2176.63,-1042.8"/>
<polygon fill="none" stroke="black" points="2176.63,-1042.8 2176.63,-1078.4 2450.58,-1078.4 2450.58,-1042.8 2176.63,-1042.8"/>
<text text-anchor="start" x="2183.63" y="-1056.2" font-family="Arial Bold" font-size="18.00">public.state_action</text>
<text text-anchor="start" x="2319.09" y="-1056.2" font-family="Arial" font-size="14.00">    </text>
<text text-anchor="start" x="2350.2" y="-1056.2" font-family="Arial" font-size="14.00" fill="#666666">[BASE TABLE]</text>
<polygon fill="none" stroke="black" points="2176.63,-1012 2176.63,-1042.8 2450.58,-1042.8 2450.58,-1012 2176.63,-1012"/>
<text text-anchor="start" x="2183.63" y="-1024.2" font-family="Arial" font-size="14.00">model_key </text>
<text text-anchor="start" x="2255.22" y="-1024.2" font-family="Arial" font-size="14.00" fill="#666666">[text]</text>
<polygon fill="none" stroke="black" points="2176.63,-981.2 2176.63,-1012 2450.58,-1012 2450.58,-981.2 2176.63,-981.2"/>
<text text-anchor="start" x="2183.63" y="-993.4" font-family="Arial" font-size="14.00">state_key </text>
<text text-anchor="start" x="2247.44" y="-993.4" font-family="Arial" font-size="14.00" fill="#666666">[text]</text>
<polygon fill="none" stroke="black" points="2176.63,-950.4 2176.63,-981.2 2450.58,-981.2 2450.58,-950.4 2176.63,-950.4"/>
<text text-anchor="start" x="2183.63" y="-962.6" font-family="Arial" font-size="14.00">state_action_key </text>
<text text-anchor="start" x="2292.59" y="-962.6" font-family="Arial" font-size="14.00" fill="#666666">[text]</text>
<polygon fill="none" stroke="black" points="2176.63,-919.6 2176.63,-950.4 2450.58,-950.4 2450.58,-919.6 2176.63,-919.6"/>
<text text-anchor="start" x="2183.63" y="-931.8" font-family="Arial" font-size="14.00">action_key </text>
<text text-anchor="start" x="2254.45" y="-931.8" font-family="Arial" font-size="14.00" fill="#666666">[text]</text>
<polygon fill="none" stroke="black" points="2176.63,-888.8 2176.63,-919.6 2450.58,-919.6 2450.58,-888.8 2176.63,-888.8"/>
<text text-anchor="start" x="2183.63" y="-901" font-family="Arial" font-size="14.00">action_when </text>
<text text-anchor="start" x="2266.13" y="-901" font-family="Arial" font-size="14.00" fill="#666666">[state_action_when]</text>
</g>
<!-- public.state_action&#45;&gt;public.action -->
<g id="edge7" class="edge">
<title>public.state_action:model_key&#45;&gt;public.action:model_key</title>
<path fill="none" stroke="black" d="M2165.42,-1026.86C2074.01,-1016.52 2200.2,-859.53 2124.6,-784 2022.14,-681.63 1631.42,-650.8 1486.58,-650.8"/>
<polygon fill="black" stroke="black" points="2165.31,-1026.86 2175.06,-1031.88 2170.64,-1027.14 2174.96,-1027.36 2174.96,-1027.36 2174.96,-1027.36 2170.64,-1027.14 2175.53,-1022.89 2165.31,-1026.86"/>
<text text-anchor="start" x="2182.63" y="-1037.4" font-family="Arial" font-size="10.00">FOREIGN KEY (model_key, action_key) REFERENCES action(model_key, action_key) ON DELETE CASCADE</text>
</g>
</g>
</svg>
