<?xml version="1.0" encoding="UTF-8" standalone="no"?>
<!DOCTYPE svg PUBLIC "-//W3C//DTD SVG 1.1//EN"
 "http://www.w3.org/Graphics/SVG/1.1/DTD/svg11.dtd">
<!-- Generated by graphviz version 12.1.2 (20240928.0832)
 -->
<!-- Title: public.transition Pages: 1 -->
<svg width="1487pt" height="787pt"
 viewBox="0.00 0.00 1486.77 786.80" xmlns="http://www.w3.org/2000/svg" xmlns:xlink="http://www.w3.org/1999/xlink">
<g id="graph0" class="graph" transform="scale(1 1) rotate(0) translate(4 782.8)">
<title>public.transition</title>
<polygon fill="white" stroke="none" points="-4,4 -4,-782.8 1482.77,-782.8 1482.77,4 -4,4"/>
<!-- public.transition -->
<g id="node1" class="node">
<title>public.transition</title>
<polygon fill="#efefef" stroke="none" points="524.6,-697 524.6,-732.6 780.58,-732.6 780.58,-697 524.6,-697"/>
<polygon fill="none" stroke="black" points="524.6,-697 524.6,-732.6 780.58,-732.6 780.58,-697 524.6,-697"/>
<text text-anchor="start" x="531.6" y="-710.4" font-family="Arial Bold" font-size="18.00">public.transition</text>
<text text-anchor="start" x="649.09" y="-710.4" font-family="Arial" font-size="14.00">    </text>
<text text-anchor="start" x="680.21" y="-710.4" font-family="Arial" font-size="14.00" fill="#666666">[BASE TABLE]</text>
<polygon fill="none" stroke="black" points="524.6,-666.2 524.6,-697 780.58,-697 780.58,-666.2 524.6,-666.2"/>
<text text-anchor="start" x="531.6" y="-678.4" font-family="Arial" font-size="14.00">model_key </text>
<text text-anchor="start" x="603.2" y="-678.4" font-family="Arial" font-size="14.00" fill="#666666">[text]</text>
<polygon fill="none" stroke="black" points="524.6,-635.4 524.6,-666.2 780.58,-666.2 780.58,-635.4 524.6,-635.4"/>
<text text-anchor="start" x="531.6" y="-647.6" font-family="Arial" font-size="14.00">class_key </text>
<text text-anchor="start" x="596.96" y="-647.6" font-family="Arial" font-size="14.00" fill="#666666">[text]</text>
<polygon fill="none" stroke="black" points="524.6,-604.6 524.6,-635.4 780.58,-635.4 780.58,-604.6 524.6,-604.6"/>
<text text-anchor="start" x="531.6" y="-616.8" font-family="Arial" font-size="14.00">transition_key </text>
<text text-anchor="start" x="621.87" y="-616.8" font-family="Arial" font-size="14.00" fill="#666666">[text]</text>
<polygon fill="none" stroke="black" points="524.6,-573.8 524.6,-604.6 780.58,-604.6 780.58,-573.8 524.6,-573.8"/>
<text text-anchor="start" x="531.6" y="-586" font-family="Arial" font-size="14.00">from_state_key </text>
<text text-anchor="start" x="631.2" y="-586" font-family="Arial" font-size="14.00" fill="#666666">[text]</text>
<polygon fill="none" stroke="black" points="524.6,-543 524.6,-573.8 780.58,-573.8 780.58,-543 524.6,-543"/>
<text text-anchor="start" x="531.6" y="-555.2" font-family="Arial" font-size="14.00">event_key </text>
<text text-anchor="start" x="599.31" y="-555.2" font-family="Arial" font-size="14.00" fill="#666666">[text]</text>
<polygon fill="none" stroke="black" points="524.6,-512.2 524.6,-543 780.58,-543 780.58,-512.2 524.6,-512.2"/>
<text text-anchor="start" x="531.6" y="-524.4" font-family="Arial" font-size="14.00">guard_key </text>
<text text-anchor="start" x="600.87" y="-524.4" font-family="Arial" font-size="14.00" fill="#666666">[text]</text>
<polygon fill="none" stroke="black" points="524.6,-481.4 524.6,-512.2 780.58,-512.2 780.58,-481.4 524.6,-481.4"/>
<text text-anchor="start" x="531.6" y="-493.6" font-family="Arial" font-size="14.00">action_key </text>
<text text-anchor="start" x="602.42" y="-493.6" font-family="Arial" font-size="14.00" fill="#666666">[text]</text>
<polygon fill="none" stroke="black" points="524.6,-450.6 524.6,-481.4 780.58,-481.4 780.58,-450.6 524.6,-450.6"/>
<text text-anchor="start" x="531.6" y="-462.8" font-family="Arial" font-size="14.00">to_state_key </text>
<text text-anchor="start" x="614.88" y="-462.8" font-family="Arial" font-size="14.00" fill="#666666">[text]</text>
<polygon fill="none" stroke="black" points="524.6,-419.8 524.6,-450.6 780.58,-450.6 780.58,-419.8 524.6,-419.8"/>
<text text-anchor="start" x="531.6" y="-432" font-family="Arial" font-size="14.00">uml_comment </text>
<text text-anchor="start" x="623.41" y="-432" font-family="Arial" font-size="14.00" fill="#666666">[text]</text>
<polygon fill="none" stroke="black" stroke-width="3" points="523.1,-418.3 523.1,-734.1 782.08,-734.1 782.08,-418.3 523.1,-418.3"/>
</g>
<!-- public.state -->
<g id="node2" class="node">
<title>public.state</title>
<polygon fill="#efefef" stroke="none" points="214.11,-243.4 214.11,-279 435.07,-279 435.07,-243.4 214.11,-243.4"/>
<polygon fill="none" stroke="black" points="214.11,-243.4 214.11,-279 435.07,-279 435.07,-243.4 214.11,-243.4"/>
<text text-anchor="start" x="221.11" y="-256.8" font-family="Arial Bold" font-size="18.00">public.state</text>
<text text-anchor="start" x="303.58" y="-256.8" font-family="Arial" font-size="14.00">    </text>
<text text-anchor="start" x="334.7" y="-256.8" font-family="Arial" font-size="14.00" fill="#666666">[BASE TABLE]</text>
<polygon fill="none" stroke="black" points="214.11,-212.6 214.11,-243.4 435.07,-243.4 435.07,-212.6 214.11,-212.6"/>
<text text-anchor="start" x="221.11" y="-224.8" font-family="Arial" font-size="14.00">model_key </text>
<text text-anchor="start" x="292.7" y="-224.8" font-family="Arial" font-size="14.00" fill="#666666">[text]</text>
<polygon fill="none" stroke="black" points="214.11,-181.8 214.11,-212.6 435.07,-212.6 435.07,-181.8 214.11,-181.8"/>
<text text-anchor="start" x="221.11" y="-194" font-family="Arial" font-size="14.00">class_key </text>
<text text-anchor="start" x="286.47" y="-194" font-family="Arial" font-size="14.00" fill="#666666">[text]</text>
<polygon fill="none" stroke="black" points="214.11,-151 214.11,-181.8 435.07,-181.8 435.07,-151 214.11,-151"/>
<text text-anchor="start" x="221.11" y="-163.2" font-family="Arial" font-size="14.00">state_key </text>
<text text-anchor="start" x="284.92" y="-163.2" font-family="Arial" font-size="14.00" fill="#666666">[text]</text>
<polygon fill="none" stroke="black" points="214.11,-120.2 214.11,-151 435.07,-151 435.07,-120.2 214.11,-120.2"/>
<text text-anchor="start" x="221.11" y="-132.4" font-family="Arial" font-size="14.00">name </text>
<text text-anchor="start" x="260.02" y="-132.4" font-family="Arial" font-size="14.00" fill="#666666">[text]</text>
<polygon fill="none" stroke="black" points="214.11,-89.4 214.11,-120.2 435.07,-120.2 435.07,-89.4 214.11,-89.4"/>
<text text-anchor="start" x="221.11" y="-101.6" font-family="Arial" font-size="14.00">details </text>
<text text-anchor="start" x="265.47" y="-101.6" font-family="Arial" font-size="14.00" fill="#666666">[text]</text>
<polygon fill="none" stroke="black" points="214.11,-58.6 214.11,-89.4 435.07,-89.4 435.07,-58.6 214.11,-58.6"/>
<text text-anchor="start" x="221.11" y="-70.8" font-family="Arial" font-size="14.00">uml_comment </text>
<text text-anchor="start" x="312.91" y="-70.8" font-family="Arial" font-size="14.00" fill="#666666">[text]</text>
</g>
<!-- public.transition&#45;&gt;public.state -->
<g id="edge1" class="edge">
<title>public.transition:model_key&#45;&gt;public.state:model_key</title>
<path fill="none" stroke="black" d="M513.51,-680.22C419.32,-652.84 526.71,-228 436.07,-228"/>
<polygon fill="black" stroke="black" points="513.37,-680.2 522.66,-686.01 518.65,-680.92 522.94,-681.51 522.94,-681.51 522.94,-681.51 518.65,-680.92 523.88,-677.1 513.37,-680.2"/>
<text text-anchor="start" x="7" y="-691.6" font-family="Arial" font-size="10.00">FOREIGN KEY (model_key, from_state_key) REFERENCES state(model_key, state_key) ON DELETE CASCADE</text>
</g>
<!-- public.transition&#45;&gt;public.state -->
<g id="edge2" class="edge">
<title>public.transition:model_key&#45;&gt;public.state:model_key</title>
<path fill="none" stroke="black" d="M513.36,-679.48C439.07,-646.1 543.06,-228.85 436.4,-228"/>
<polygon fill="black" stroke="black" points="513.22,-679.45 522.07,-685.93 518.44,-680.56 522.68,-681.46 522.68,-681.46 522.68,-681.46 518.44,-680.56 523.94,-677.13 513.22,-679.45"/>
<text text-anchor="start" x="18.39" y="-665.6" font-family="Arial" font-size="10.00">FOREIGN KEY (model_key, to_state_key) REFERENCES state(model_key, state_key) ON DELETE CASCADE</text>
</g>
<!-- public.event -->
<g id="node3" class="node">
<title>public.event</title>
<polygon fill="#efefef" stroke="none" points="539.11,-228 539.11,-263.6 766.07,-263.6 766.07,-228 539.11,-228"/>
<polygon fill="none" stroke="black" points="539.11,-228 539.11,-263.6 766.07,-263.6 766.07,-228 539.11,-228"/>
<text text-anchor="start" x="546.11" y="-241.4" font-family="Arial Bold" font-size="18.00">public.event</text>
<text text-anchor="start" x="634.58" y="-241.4" font-family="Arial" font-size="14.00">    </text>
<text text-anchor="start" x="665.7" y="-241.4" font-family="Arial" font-size="14.00" fill="#666666">[BASE TABLE]</text>
<polygon fill="none" stroke="black" points="539.11,-197.2 539.11,-228 766.07,-228 766.07,-197.2 539.11,-197.2"/>
<text text-anchor="start" x="546.11" y="-209.4" font-family="Arial" font-size="14.00">model_key </text>
<text text-anchor="start" x="617.7" y="-209.4" font-family="Arial" font-size="14.00" fill="#666666">[text]</text>
<polygon fill="none" stroke="black" points="539.11,-166.4 539.11,-197.2 766.07,-197.2 766.07,-166.4 539.11,-166.4"/>
<text text-anchor="start" x="546.11" y="-178.6" font-family="Arial" font-size="14.00">class_key </text>
<text text-anchor="start" x="611.47" y="-178.6" font-family="Arial" font-size="14.00" fill="#666666">[text]</text>
<polygon fill="none" stroke="black" points="539.11,-135.6 539.11,-166.4 766.07,-166.4 766.07,-135.6 539.11,-135.6"/>
<text text-anchor="start" x="546.11" y="-147.8" font-family="Arial" font-size="14.00">event_key </text>
<text text-anchor="start" x="613.82" y="-147.8" font-family="Arial" font-size="14.00" fill="#666666">[text]</text>
<polygon fill="none" stroke="black" points="539.11,-104.8 539.11,-135.6 766.07,-135.6 766.07,-104.8 539.11,-104.8"/>
<text text-anchor="start" x="546.11" y="-117" font-family="Arial" font-size="14.00">name </text>
<text text-anchor="start" x="585.02" y="-117" font-family="Arial" font-size="14.00" fill="#666666">[text]</text>
<polygon fill="none" stroke="black" points="539.11,-74 539.11,-104.8 766.07,-104.8 766.07,-74 539.11,-74"/>
<text text-anchor="start" x="546.11" y="-86.2" font-family="Arial" font-size="14.00">details </text>
<text text-anchor="start" x="590.47" y="-86.2" font-family="Arial" font-size="14.00" fill="#666666">[text]</text>
</g>
<!-- public.transition&#45;&gt;public.event -->
<g id="edge3" class="edge">
<title>public.transition:model_key&#45;&gt;public.event:model_key</title>
<path fill="none" stroke="black" d="M790.58,-676.33C831.75,-624.81 815.95,-212.6 767.07,-212.6"/>
<polygon fill="black" stroke="black" points="790.5,-676.38 779.59,-677.55 785.89,-679.07 782.15,-681.26 782.15,-681.26 782.15,-681.26 785.89,-679.07 784.14,-685.32 790.5,-676.38"/>
<text text-anchor="start" x="788.58" y="-691.6" font-family="Arial" font-size="10.00">FOREIGN KEY (model_key, event_key) REFERENCES event(model_key, event_key) ON DELETE CASCADE</text>
</g>
<!-- public.guard -->
<g id="node4" class="node">
<title>public.guard</title>
<polygon fill="#efefef" stroke="none" points="870.11,-212.6 870.11,-248.2 1099.07,-248.2 1099.07,-212.6 870.11,-212.6"/>
<polygon fill="none" stroke="black" points="870.11,-212.6 870.11,-248.2 1099.07,-248.2 1099.07,-212.6 870.11,-212.6"/>
<text text-anchor="start" x="877.11" y="-226" font-family="Arial Bold" font-size="18.00">public.guard</text>
<text text-anchor="start" x="967.58" y="-226" font-family="Arial" font-size="14.00">    </text>
<text text-anchor="start" x="998.7" y="-226" font-family="Arial" font-size="14.00" fill="#666666">[BASE TABLE]</text>
<polygon fill="none" stroke="black" points="870.11,-181.8 870.11,-212.6 1099.07,-212.6 1099.07,-181.8 870.11,-181.8"/>
<text text-anchor="start" x="877.11" y="-194" font-family="Arial" font-size="14.00">model_key </text>
<text text-anchor="start" x="948.7" y="-194" font-family="Arial" font-size="14.00" fill="#666666">[text]</text>
<polygon fill="none" stroke="black" points="870.11,-151 870.11,-181.8 1099.07,-181.8 1099.07,-151 870.11,-151"/>
<text text-anchor="start" x="877.11" y="-163.2" font-family="Arial" font-size="14.00">class_key </text>
<text text-anchor="start" x="942.47" y="-163.2" font-family="Arial" font-size="14.00" fill="#666666">[text]</text>
<polygon fill="none" stroke="black" points="870.11,-120.2 870.11,-151 1099.07,-151 1099.07,-120.2 870.11,-120.2"/>
<text text-anchor="start" x="877.11" y="-132.4" font-family="Arial" font-size="14.00">guard_key </text>
<text text-anchor="start" x="946.38" y="-132.4" font-family="Arial" font-size="14.00" fill="#666666">[text]</text>
<polygon fill="none" stroke="black" points="870.11,-89.4 870.11,-120.2 1099.07,-120.2 1099.07,-89.4 870.11,-89.4"/>
<text text-anchor="start" x="877.11" y="-101.6" font-family="Arial" font-size="14.00">name </text>
<text text-anchor="start" x="916.02" y="-101.6" font-family="Arial" font-size="14.00" fill="#666666">[text]</text>
</g>
<!-- public.transition&#45;&gt;public.guard -->
<g id="edge4" class="edge">
<title>public.transition:model_key&#45;&gt;public.guard:model_key</title>
<path fill="none" stroke="black" d="M791.69,-680.03C882.51,-649.97 763.35,-197.2 869.11,-197.2"/>
<polygon fill="black" stroke="black" points="791.79,-680.02 781.22,-677.1 786.52,-680.83 782.24,-681.5 782.24,-681.5 782.24,-681.5 786.52,-680.83 782.6,-686 791.79,-680.02"/>
<text text-anchor="start" x="788.58" y="-665.6" font-family="Arial" font-size="10.00">FOREIGN KEY (model_key, guard_key) REFERENCES guard(model_key, guard_key) ON DELETE CASCADE</text>
</g>
<!-- public.action -->
<g id="node5" class="node">
<title>public.action</title>
<polygon fill="#efefef" stroke="none" points="1203.61,-258.8 1203.61,-294.4 1435.57,-294.4 1435.57,-258.8 1203.61,-258.8"/>
<polygon fill="none" stroke="black" points="1203.61,-258.8 1203.61,-294.4 1435.57,-294.4 1435.57,-258.8 1203.61,-258.8"/>
<text text-anchor="start" x="1210.61" y="-272.2" font-family="Arial Bold" font-size="18.00">public.action</text>
<text text-anchor="start" x="1304.08" y="-272.2" font-family="Arial" font-size="14.00">    </text>
<text text-anchor="start" x="1335.2" y="-272.2" font-family="Arial" font-size="14.00" fill="#666666">[BASE TABLE]</text>
<polygon fill="none" stroke="black" points="1203.61,-228 1203.61,-258.8 1435.57,-258.8 1435.57,-228 1203.61,-228"/>
<text text-anchor="start" x="1210.61" y="-240.2" font-family="Arial" font-size="14.00">model_key </text>
<text text-anchor="start" x="1282.2" y="-240.2" font-family="Arial" font-size="14.00" fill="#666666">[text]</text>
<polygon fill="none" stroke="black" points="1203.61,-197.2 1203.61,-228 1435.57,-228 1435.57,-197.2 1203.61,-197.2"/>
<text text-anchor="start" x="1210.61" y="-209.4" font-family="Arial" font-size="14.00">class_key </text>
<text text-anchor="start" x="1275.97" y="-209.4" font-family="Arial" font-size="14.00" fill="#666666">[text]</text>
<polygon fill="none" stroke="black" points="1203.61,-166.4 1203.61,-197.2 1435.57,-197.2 1435.57,-166.4 1203.61,-166.4"/>
<text text-anchor="start" x="1210.61" y="-178.6" font-family="Arial" font-size="14.00">action_key </text>
<text text-anchor="start" x="1281.43" y="-178.6" font-family="Arial" font-size="14.00" fill="#666666">[text]</text>
<polygon fill="none" stroke="black" points="1203.61,-135.6 1203.61,-166.4 1435.57,-166.4 1435.57,-135.6 1203.61,-135.6"/>
<text text-anchor="start" x="1210.61" y="-147.8" font-family="Arial" font-size="14.00">name </text>
<text text-anchor="start" x="1249.52" y="-147.8" font-family="Arial" font-size="14.00" fill="#666666">[text]</text>
<polygon fill="none" stroke="black" points="1203.61,-104.8 1203.61,-135.6 1435.57,-135.6 1435.57,-104.8 1203.61,-104.8"/>
<text text-anchor="start" x="1210.61" y="-117" font-family="Arial" font-size="14.00">details </text>
<text text-anchor="start" x="1254.97" y="-117" font-family="Arial" font-size="14.00" fill="#666666">[text]</text>
<polygon fill="none" stroke="black" points="1203.61,-74 1203.61,-104.8 1435.57,-104.8 1435.57,-74 1203.61,-74"/>
<text text-anchor="start" x="1210.61" y="-86.2" font-family="Arial" font-size="14.00">requires </text>
<text text-anchor="start" x="1265.08" y="-86.2" font-family="Arial" font-size="14.00" fill="#666666">[text[]]</text>
<polygon fill="none" stroke="black" points="1203.61,-43.2 1203.61,-74 1435.57,-74 1435.57,-43.2 1203.61,-43.2"/>
<text text-anchor="start" x="1210.61" y="-55.4" font-family="Arial" font-size="14.00">guarantees </text>
<text text-anchor="start" x="1284.55" y="-55.4" font-family="Arial" font-size="14.00" fill="#666666">[text[]]</text>
</g>
<!-- public.transition&#45;&gt;public.action -->
<g id="edge5" class="edge">
<title>public.transition:model_key&#45;&gt;public.action:model_key</title>
<path fill="none" stroke="black" d="M791.95,-681.48C1006.4,-676.39 1016.23,-512.34 1151.59,-337.6 1180.75,-299.96 1155,-243.4 1202.61,-243.4"/>
<polygon fill="black" stroke="black" points="791.91,-681.48 781.86,-677.1 786.58,-681.54 782.25,-681.59 782.25,-681.59 782.25,-681.59 786.58,-681.54 781.96,-686.1 791.91,-681.48"/>
<text text-anchor="start" x="275.52" y="-691.6" font-family="Arial" font-size="10.00">FOREIGN KEY (model_key, action_key) REFERENCES action(model_key, action_key) ON DELETE CASCADE</text>
</g>
</g>
</svg>
