<?xml version="1.0" encoding="UTF-8" standalone="no"?>
<!DOCTYPE svg PUBLIC "-//W3C//DTD SVG 1.1//EN"
 "http://www.w3.org/Graphics/SVG/1.1/DTD/svg11.dtd">
<!-- Generated by graphviz version 12.1.2 (20240928.0832)
 -->
<!-- Title: public.subdomain_association Pages: 1 -->
<svg width="1394pt" height="664pt"
 viewBox="0.00 0.00 1394.29 663.60" xmlns="http://www.w3.org/2000/svg" xmlns:xlink="http://www.w3.org/1999/xlink">
<g id="graph0" class="graph" transform="scale(1 1) rotate(0) translate(4 659.6)">
<title>public.subdomain_association</title>
<polygon fill="white" stroke="none" points="-4,4 -4,-659.6 1390.29,-659.6 1390.29,4 -4,4"/>
<!-- public.subdomain_association -->
<g id="node1" class="node">
<title>public.subdomain_association</title>
<polygon fill="#efefef" stroke="none" points="407.88,-573.8 407.88,-609.4 763.84,-609.4 763.84,-573.8 407.88,-573.8"/>
<polygon fill="none" stroke="black" points="407.88,-573.8 407.88,-609.4 763.84,-609.4 763.84,-573.8 407.88,-573.8"/>
<text text-anchor="start" x="414.88" y="-587.2" font-family="Arial Bold" font-size="18.00">public.subdomain_association</text>
<text text-anchor="start" x="632.35" y="-587.2" font-family="Arial" font-size="14.00">    </text>
<text text-anchor="start" x="663.47" y="-587.2" font-family="Arial" font-size="14.00" fill="#666666">[BASE TABLE]</text>
<polygon fill="none" stroke="black" points="407.88,-543 407.88,-573.8 763.84,-573.8 763.84,-543 407.88,-543"/>
<text text-anchor="start" x="414.88" y="-555.2" font-family="Arial" font-size="14.00">model_key </text>
<text text-anchor="start" x="486.47" y="-555.2" font-family="Arial" font-size="14.00" fill="#666666">[text]</text>
<polygon fill="none" stroke="black" points="407.88,-512.2 407.88,-543 763.84,-543 763.84,-512.2 407.88,-512.2"/>
<text text-anchor="start" x="414.88" y="-524.4" font-family="Arial" font-size="14.00">association_key </text>
<text text-anchor="start" x="518.38" y="-524.4" font-family="Arial" font-size="14.00" fill="#666666">[text]</text>
<polygon fill="none" stroke="black" points="407.88,-481.4 407.88,-512.2 763.84,-512.2 763.84,-481.4 407.88,-481.4"/>
<text text-anchor="start" x="414.88" y="-493.6" font-family="Arial" font-size="14.00">problem_subdomain_key </text>
<text text-anchor="start" x="575.2" y="-493.6" font-family="Arial" font-size="14.00" fill="#666666">[text]</text>
<polygon fill="none" stroke="black" points="407.88,-450.6 407.88,-481.4 763.84,-481.4 763.84,-450.6 407.88,-450.6"/>
<text text-anchor="start" x="414.88" y="-462.8" font-family="Arial" font-size="14.00">solution_subdomain_key </text>
<text text-anchor="start" x="572.87" y="-462.8" font-family="Arial" font-size="14.00" fill="#666666">[text]</text>
<polygon fill="none" stroke="black" points="407.88,-419.8 407.88,-450.6 763.84,-450.6 763.84,-419.8 407.88,-419.8"/>
<text text-anchor="start" x="414.88" y="-432" font-family="Arial" font-size="14.00">uml_comment </text>
<text text-anchor="start" x="506.69" y="-432" font-family="Arial" font-size="14.00" fill="#666666">[text]</text>
<polygon fill="none" stroke="black" stroke-width="3" points="406.38,-418.3 406.38,-610.9 765.34,-610.9 765.34,-418.3 406.38,-418.3"/>
</g>
<!-- public.model -->
<g id="node2" class="node">
<title>public.model</title>
<polygon fill="#efefef" stroke="none" points="115.37,-212.6 115.37,-248.2 348.35,-248.2 348.35,-212.6 115.37,-212.6"/>
<polygon fill="none" stroke="black" points="115.37,-212.6 115.37,-248.2 348.35,-248.2 348.35,-212.6 115.37,-212.6"/>
<text text-anchor="start" x="122.37" y="-226" font-family="Arial Bold" font-size="18.00">public.model</text>
<text text-anchor="start" x="216.86" y="-226" font-family="Arial" font-size="14.00">    </text>
<text text-anchor="start" x="247.97" y="-226" font-family="Arial" font-size="14.00" fill="#666666">[BASE TABLE]</text>
<polygon fill="none" stroke="black" points="115.37,-181.8 115.37,-212.6 348.35,-212.6 348.35,-181.8 115.37,-181.8"/>
<text text-anchor="start" x="122.37" y="-194" font-family="Arial" font-size="14.00">model_key </text>
<text text-anchor="start" x="193.97" y="-194" font-family="Arial" font-size="14.00" fill="#666666">[text]</text>
<polygon fill="none" stroke="black" points="115.37,-151 115.37,-181.8 348.35,-181.8 348.35,-151 115.37,-151"/>
<text text-anchor="start" x="122.37" y="-163.2" font-family="Arial" font-size="14.00">name </text>
<text text-anchor="start" x="161.28" y="-163.2" font-family="Arial" font-size="14.00" fill="#666666">[text]</text>
<polygon fill="none" stroke="black" points="115.37,-120.2 115.37,-151 348.35,-151 348.35,-120.2 115.37,-120.2"/>
<text text-anchor="start" x="122.37" y="-132.4" font-family="Arial" font-size="14.00">details </text>
<text text-anchor="start" x="166.73" y="-132.4" font-family="Arial" font-size="14.00" fill="#666666">[text]</text>
<polygon fill="none" stroke="black" points="115.37,-89.4 115.37,-120.2 348.35,-120.2 348.35,-89.4 115.37,-89.4"/>
<text text-anchor="start" x="122.37" y="-101.6" font-family="Arial" font-size="14.00">unfinished_notes </text>
<text text-anchor="start" x="232.12" y="-101.6" font-family="Arial" font-size="14.00" fill="#666666">[text]</text>
</g>
<!-- public.subdomain_association&#45;&gt;public.model -->
<g id="edge1" class="edge">
<title>public.subdomain_association:model_key&#45;&gt;public.model:model_key</title>
<path fill="none" stroke="black" d="M397.02,-556.28C334.66,-526.68 426.97,-197.2 349.35,-197.2"/>
<polygon fill="black" stroke="black" points="396.78,-556.23 405.61,-562.73 401.99,-557.35 406.23,-558.26 406.23,-558.26 406.23,-558.26 401.99,-557.35 407.5,-553.93 396.78,-556.23"/>
<text text-anchor="start" x="7" y="-568.4" font-family="Arial" font-size="10.00">FOREIGN KEY (model_key) REFERENCES model(model_key) ON DELETE CASCADE</text>
</g>
<!-- public.subdomain -->
<g id="node3" class="node">
<title>public.subdomain</title>
<polygon fill="#efefef" stroke="none" points="452.37,-258.8 452.37,-294.4 719.35,-294.4 719.35,-258.8 452.37,-258.8"/>
<polygon fill="none" stroke="black" points="452.37,-258.8 452.37,-294.4 719.35,-294.4 719.35,-258.8 452.37,-258.8"/>
<text text-anchor="start" x="459.37" y="-272.2" font-family="Arial Bold" font-size="18.00">public.subdomain</text>
<text text-anchor="start" x="587.86" y="-272.2" font-family="Arial" font-size="14.00">    </text>
<text text-anchor="start" x="618.98" y="-272.2" font-family="Arial" font-size="14.00" fill="#666666">[BASE TABLE]</text>
<polygon fill="none" stroke="black" points="452.37,-228 452.37,-258.8 719.35,-258.8 719.35,-228 452.37,-228"/>
<text text-anchor="start" x="459.37" y="-240.2" font-family="Arial" font-size="14.00">subdomain_key </text>
<text text-anchor="start" x="561.32" y="-240.2" font-family="Arial" font-size="14.00" fill="#666666">[text]</text>
<polygon fill="none" stroke="black" points="452.37,-197.2 452.37,-228 719.35,-228 719.35,-197.2 452.37,-197.2"/>
<text text-anchor="start" x="459.37" y="-209.4" font-family="Arial" font-size="14.00">model_key </text>
<text text-anchor="start" x="530.96" y="-209.4" font-family="Arial" font-size="14.00" fill="#666666">[text]</text>
<polygon fill="none" stroke="black" points="452.37,-166.4 452.37,-197.2 719.35,-197.2 719.35,-166.4 452.37,-166.4"/>
<text text-anchor="start" x="459.37" y="-178.6" font-family="Arial" font-size="14.00">domain_key </text>
<text text-anchor="start" x="538.75" y="-178.6" font-family="Arial" font-size="14.00" fill="#666666">[text]</text>
<polygon fill="none" stroke="black" points="452.37,-135.6 452.37,-166.4 719.35,-166.4 719.35,-135.6 452.37,-135.6"/>
<text text-anchor="start" x="459.37" y="-147.8" font-family="Arial" font-size="14.00">name </text>
<text text-anchor="start" x="498.28" y="-147.8" font-family="Arial" font-size="14.00" fill="#666666">[text]</text>
<polygon fill="none" stroke="black" points="452.37,-104.8 452.37,-135.6 719.35,-135.6 719.35,-104.8 452.37,-104.8"/>
<text text-anchor="start" x="459.37" y="-117" font-family="Arial" font-size="14.00">details </text>
<text text-anchor="start" x="503.73" y="-117" font-family="Arial" font-size="14.00" fill="#666666">[text]</text>
<polygon fill="none" stroke="black" points="452.37,-74 452.37,-104.8 719.35,-104.8 719.35,-74 452.37,-74"/>
<text text-anchor="start" x="459.37" y="-86.2" font-family="Arial" font-size="14.00">unfinished_notes </text>
<text text-anchor="start" x="569.12" y="-86.2" font-family="Arial" font-size="14.00" fill="#666666">[text]</text>
<polygon fill="none" stroke="black" points="452.37,-43.2 452.37,-74 719.35,-74 719.35,-43.2 452.37,-43.2"/>
<text text-anchor="start" x="459.37" y="-55.4" font-family="Arial" font-size="14.00">uml_comment </text>
<text text-anchor="start" x="551.18" y="-55.4" font-family="Arial" font-size="14.00" fill="#666666">[text]</text>
</g>
<!-- public.subdomain_association&#45;&gt;public.subdomain -->
<g id="edge2" class="edge">
<title>public.subdomain_association:model_key&#45;&gt;public.subdomain:model_key</title>
<path fill="none" stroke="black" d="M774.74,-555.62C828.56,-522.89 785.21,-212.6 720.35,-212.6"/>
<polygon fill="black" stroke="black" points="774.79,-555.6 763.94,-553.98 769.65,-557.05 765.48,-558.22 765.48,-558.22 765.48,-558.22 769.65,-557.05 766.38,-562.64 774.79,-555.6"/>
<text text-anchor="start" x="771.84" y="-568.4" font-family="Arial" font-size="10.00">FOREIGN KEY (model_key, problem_subdomain_key) REFERENCES subdomain(model_key, subdomain_key) ON DELETE CASCADE</text>
</g>
<!-- public.subdomain_association&#45;&gt;public.subdomain -->
<g id="edge3" class="edge">
<title>public.subdomain_association:model_key&#45;&gt;public.subdomain:model_key</title>
<path fill="none" stroke="black" d="M775.03,-556.63C847.44,-530.05 803.29,-213.25 720.6,-212.6"/>
<polygon fill="black" stroke="black" points="775.27,-556.59 764.63,-553.91 770.01,-557.52 765.75,-558.28 765.75,-558.28 765.75,-558.28 770.01,-557.52 766.21,-562.77 775.27,-556.59"/>
<text text-anchor="start" x="772.09" y="-542.4" font-family="Arial" font-size="10.00">FOREIGN KEY (model_key, solution_subdomain_key) REFERENCES subdomain(model_key, subdomain_key) ON DELETE CASCADE</text>
</g>
</g>
</svg>
