<?xml version="1.0" encoding="UTF-8" standalone="no"?>
<!DOCTYPE svg PUBLIC "-//W3C//DTD SVG 1.1//EN"
 "http://www.w3.org/Graphics/SVG/1.1/DTD/svg11.dtd">
<!-- Generated by graphviz version 12.1.2 (20240928.0832)
 -->
<!-- Title: public.logic Pages: 1 -->
<svg width="2669pt" height="1006pt"
 viewBox="0.00 0.00 2668.96 1006.40" xmlns="http://www.w3.org/2000/svg" xmlns:xlink="http://www.w3.org/1999/xlink">
<g id="graph0" class="graph" transform="scale(1 1) rotate(0) translate(4 1002.4)">
<title>public.logic</title>
<polygon fill="white" stroke="none" points="-4,4 -4,-1002.4 2664.96,-1002.4 2664.96,4 -4,4"/>
<!-- public.logic -->
<g id="node1" class="node">
<title>public.logic</title>
<polygon fill="#efefef" stroke="none" points="1201.74,-450.6 1201.74,-486.2 1425.71,-486.2 1425.71,-450.6 1201.74,-450.6"/>
<polygon fill="none" stroke="black" points="1201.74,-450.6 1201.74,-486.2 1425.71,-486.2 1425.71,-450.6 1201.74,-450.6"/>
<text text-anchor="start" x="1208.74" y="-464" font-family="Arial Bold" font-size="18.00">public.logic</text>
<text text-anchor="start" x="1294.22" y="-464" font-family="Arial" font-size="14.00">    </text>
<text text-anchor="start" x="1325.34" y="-464" font-family="Arial" font-size="14.00" fill="#666666">[BASE TABLE]</text>
<polygon fill="none" stroke="black" points="1201.74,-419.8 1201.74,-450.6 1425.71,-450.6 1425.71,-419.8 1201.74,-419.8"/>
<text text-anchor="start" x="1208.74" y="-432" font-family="Arial" font-size="14.00">logic_key </text>
<text text-anchor="start" x="1270.99" y="-432" font-family="Arial" font-size="14.00" fill="#666666">[text]</text>
<polygon fill="none" stroke="black" points="1201.74,-389 1201.74,-419.8 1425.71,-419.8 1425.71,-389 1201.74,-389"/>
<text text-anchor="start" x="1208.74" y="-401.2" font-family="Arial" font-size="14.00">model_key </text>
<text text-anchor="start" x="1280.33" y="-401.2" font-family="Arial" font-size="14.00" fill="#666666">[text]</text>
<polygon fill="none" stroke="black" points="1201.74,-358.2 1201.74,-389 1425.71,-389 1425.71,-358.2 1201.74,-358.2"/>
<text text-anchor="start" x="1208.74" y="-370.4" font-family="Arial" font-size="14.00">description </text>
<text text-anchor="start" x="1280.33" y="-370.4" font-family="Arial" font-size="14.00" fill="#666666">[text]</text>
<polygon fill="none" stroke="black" points="1201.74,-327.4 1201.74,-358.2 1425.71,-358.2 1425.71,-327.4 1201.74,-327.4"/>
<text text-anchor="start" x="1208.74" y="-339.6" font-family="Arial" font-size="14.00">notation </text>
<text text-anchor="start" x="1262.45" y="-339.6" font-family="Arial" font-size="14.00" fill="#666666">[notation]</text>
<polygon fill="none" stroke="black" points="1201.74,-296.6 1201.74,-327.4 1425.71,-327.4 1425.71,-296.6 1201.74,-296.6"/>
<text text-anchor="start" x="1208.74" y="-308.8" font-family="Arial" font-size="14.00">specification </text>
<text text-anchor="start" x="1289.67" y="-308.8" font-family="Arial" font-size="14.00" fill="#666666">[text]</text>
<polygon fill="none" stroke="black" stroke-width="3" points="1200.24,-295.1 1200.24,-487.7 1427.21,-487.7 1427.21,-295.1 1200.24,-295.1"/>
</g>
<!-- public.model -->
<g id="node8" class="node">
<title>public.model</title>
<polygon fill="#efefef" stroke="none" points="1197.24,-135.6 1197.24,-171.2 1430.21,-171.2 1430.21,-135.6 1197.24,-135.6"/>
<polygon fill="none" stroke="black" points="1197.24,-135.6 1197.24,-171.2 1430.21,-171.2 1430.21,-135.6 1197.24,-135.6"/>
<text text-anchor="start" x="1204.24" y="-149" font-family="Arial Bold" font-size="18.00">public.model</text>
<text text-anchor="start" x="1298.72" y="-149" font-family="Arial" font-size="14.00">    </text>
<text text-anchor="start" x="1329.84" y="-149" font-family="Arial" font-size="14.00" fill="#666666">[BASE TABLE]</text>
<polygon fill="none" stroke="black" points="1197.24,-104.8 1197.24,-135.6 1430.21,-135.6 1430.21,-104.8 1197.24,-104.8"/>
<text text-anchor="start" x="1204.24" y="-117" font-family="Arial" font-size="14.00">model_key </text>
<text text-anchor="start" x="1275.83" y="-117" font-family="Arial" font-size="14.00" fill="#666666">[text]</text>
<polygon fill="none" stroke="black" points="1197.24,-74 1197.24,-104.8 1430.21,-104.8 1430.21,-74 1197.24,-74"/>
<text text-anchor="start" x="1204.24" y="-86.2" font-family="Arial" font-size="14.00">name </text>
<text text-anchor="start" x="1243.15" y="-86.2" font-family="Arial" font-size="14.00" fill="#666666">[text]</text>
<polygon fill="none" stroke="black" points="1197.24,-43.2 1197.24,-74 1430.21,-74 1430.21,-43.2 1197.24,-43.2"/>
<text text-anchor="start" x="1204.24" y="-55.4" font-family="Arial" font-size="14.00">details </text>
<text text-anchor="start" x="1248.6" y="-55.4" font-family="Arial" font-size="14.00" fill="#666666">[text]</text>
</g>
<!-- public.logic&#45;&gt;public.model -->
<g id="edge7" class="edge">
<title>public.logic:model_key&#45;&gt;public.model:model_key</title>
<path fill="none" stroke="black" d="M1436.8,-403.77C1553.19,-389.07 1554.08,-120.2 1431.21,-120.2"/>
<polygon fill="black" stroke="black" points="1437.03,-403.76 1426.77,-399.89 1431.7,-404.09 1427.38,-404.36 1427.38,-404.36 1427.38,-404.36 1431.7,-404.09 1427.32,-408.87 1437.03,-403.76"/>
<text text-anchor="start" x="1433.71" y="-414.4" font-family="Arial" font-size="10.00">FOREIGN KEY (model_key) REFERENCES model(model_key) ON DELETE CASCADE</text>
</g>
<!-- public.invariant -->
<g id="node2" class="node">
<title>public.invariant</title>
<polygon fill="#efefef" stroke="none" points="241.75,-796.4 241.75,-832 493.7,-832 493.7,-796.4 241.75,-796.4"/>
<polygon fill="none" stroke="black" points="241.75,-796.4 241.75,-832 493.7,-832 493.7,-796.4 241.75,-796.4"/>
<text text-anchor="start" x="248.75" y="-809.8" font-family="Arial Bold" font-size="18.00">public.invariant</text>
<text text-anchor="start" x="362.21" y="-809.8" font-family="Arial" font-size="14.00">    </text>
<text text-anchor="start" x="393.33" y="-809.8" font-family="Arial" font-size="14.00" fill="#666666">[BASE TABLE]</text>
<polygon fill="none" stroke="black" points="241.75,-765.6 241.75,-796.4 493.7,-796.4 493.7,-765.6 241.75,-765.6"/>
<text text-anchor="start" x="248.75" y="-777.8" font-family="Arial" font-size="14.00">model_key </text>
<text text-anchor="start" x="320.34" y="-777.8" font-family="Arial" font-size="14.00" fill="#666666">[text]</text>
<polygon fill="none" stroke="black" points="241.75,-734.8 241.75,-765.6 493.7,-765.6 493.7,-734.8 241.75,-734.8"/>
<text text-anchor="start" x="248.75" y="-747" font-family="Arial" font-size="14.00">logic_key </text>
<text text-anchor="start" x="311" y="-747" font-family="Arial" font-size="14.00" fill="#666666">[text]</text>
</g>
<!-- public.invariant&#45;&gt;public.logic -->
<g id="edge1" class="edge">
<title>public.invariant:model_key&#45;&gt;public.logic:model_key</title>
<path fill="none" stroke="black" d="M504.67,-780.42C583.63,-770.45 479.89,-634.88 545.73,-568.4 651.31,-461.78 1050.69,-404.4 1200.74,-404.4"/>
<polygon fill="black" stroke="black" points="505.02,-780.4 494.77,-776.49 499.69,-780.71 495.37,-780.96 495.37,-780.96 495.37,-780.96 499.69,-780.71 495.3,-785.47 505.02,-780.4"/>
<text text-anchor="start" x="7" y="-791" font-family="Arial" font-size="10.00">FOREIGN KEY (model_key, logic_key) REFERENCES logic(model_key, logic_key) ON DELETE CASCADE</text>
</g>
<!-- public.global_function -->
<g id="node3" class="node">
<title>public.global_function</title>
<polygon fill="#efefef" stroke="none" points="597.75,-842.6 597.75,-878.2 899.7,-878.2 899.7,-842.6 597.75,-842.6"/>
<polygon fill="none" stroke="black" points="597.75,-842.6 597.75,-878.2 899.7,-878.2 899.7,-842.6 597.75,-842.6"/>
<text text-anchor="start" x="604.75" y="-856" font-family="Arial Bold" font-size="18.00">public.global_function</text>
<text text-anchor="start" x="768.21" y="-856" font-family="Arial" font-size="14.00">    </text>
<text text-anchor="start" x="799.33" y="-856" font-family="Arial" font-size="14.00" fill="#666666">[BASE TABLE]</text>
<polygon fill="none" stroke="black" points="597.75,-811.8 597.75,-842.6 899.7,-842.6 899.7,-811.8 597.75,-811.8"/>
<text text-anchor="start" x="604.75" y="-824" font-family="Arial" font-size="14.00">model_key </text>
<text text-anchor="start" x="676.34" y="-824" font-family="Arial" font-size="14.00" fill="#666666">[text]</text>
<polygon fill="none" stroke="black" points="597.75,-781 597.75,-811.8 899.7,-811.8 899.7,-781 597.75,-781"/>
<text text-anchor="start" x="604.75" y="-793.2" font-family="Arial" font-size="14.00">logic_key </text>
<text text-anchor="start" x="667" y="-793.2" font-family="Arial" font-size="14.00" fill="#666666">[text]</text>
<polygon fill="none" stroke="black" points="597.75,-750.2 597.75,-781 899.7,-781 899.7,-750.2 597.75,-750.2"/>
<text text-anchor="start" x="604.75" y="-762.4" font-family="Arial" font-size="14.00">name </text>
<text text-anchor="start" x="643.66" y="-762.4" font-family="Arial" font-size="14.00" fill="#666666">[text]</text>
<polygon fill="none" stroke="black" points="597.75,-719.4 597.75,-750.2 899.7,-750.2 899.7,-719.4 597.75,-719.4"/>
<text text-anchor="start" x="604.75" y="-731.6" font-family="Arial" font-size="14.00">comment </text>
<text text-anchor="start" x="666.21" y="-731.6" font-family="Arial" font-size="14.00" fill="#666666">[text]</text>
<polygon fill="none" stroke="black" points="597.75,-688.6 597.75,-719.4 899.7,-719.4 899.7,-688.6 597.75,-688.6"/>
<text text-anchor="start" x="604.75" y="-700.8" font-family="Arial" font-size="14.00">parameters </text>
<text text-anchor="start" x="679.44" y="-700.8" font-family="Arial" font-size="14.00" fill="#666666">[text[]]</text>
</g>
<!-- public.global_function&#45;&gt;public.logic -->
<g id="edge2" class="edge">
<title>public.global_function:model_key&#45;&gt;public.logic:model_key</title>
<path fill="none" stroke="black" d="M910.98,-826.73C1009.91,-817.17 888.39,-662.68 951.73,-568.4 1025.62,-458.4 1068.22,-404.4 1200.74,-404.4"/>
<polygon fill="black" stroke="black" points="911.03,-826.73 900.83,-822.69 905.7,-826.97 901.37,-827.17 901.37,-827.17 901.37,-827.17 905.7,-826.97 901.24,-831.68 911.03,-826.73"/>
<text text-anchor="start" x="413" y="-837.2" font-family="Arial" font-size="10.00">FOREIGN KEY (model_key, logic_key) REFERENCES logic(model_key, logic_key) ON DELETE CASCADE</text>
</g>
<!-- public.attribute -->
<g id="node4" class="node">
<title>public.attribute</title>
<polygon fill="#efefef" stroke="none" points="1003.75,-919.6 1003.75,-955.2 1251.7,-955.2 1251.7,-919.6 1003.75,-919.6"/>
<polygon fill="none" stroke="black" points="1003.75,-919.6 1003.75,-955.2 1251.7,-955.2 1251.7,-919.6 1003.75,-919.6"/>
<text text-anchor="start" x="1010.75" y="-933" font-family="Arial Bold" font-size="18.00">public.attribute</text>
<text text-anchor="start" x="1120.21" y="-933" font-family="Arial" font-size="14.00">    </text>
<text text-anchor="start" x="1151.33" y="-933" font-family="Arial" font-size="14.00" fill="#666666">[BASE TABLE]</text>
<polygon fill="none" stroke="black" points="1003.75,-888.8 1003.75,-919.6 1251.7,-919.6 1251.7,-888.8 1003.75,-888.8"/>
<text text-anchor="start" x="1010.75" y="-901" font-family="Arial" font-size="14.00">model_key </text>
<text text-anchor="start" x="1082.34" y="-901" font-family="Arial" font-size="14.00" fill="#666666">[text]</text>
<polygon fill="none" stroke="black" points="1003.75,-858 1003.75,-888.8 1251.7,-888.8 1251.7,-858 1003.75,-858"/>
<text text-anchor="start" x="1010.75" y="-870.2" font-family="Arial" font-size="14.00">attribute_key </text>
<text text-anchor="start" x="1094.79" y="-870.2" font-family="Arial" font-size="14.00" fill="#666666">[text]</text>
<polygon fill="none" stroke="black" points="1003.75,-827.2 1003.75,-858 1251.7,-858 1251.7,-827.2 1003.75,-827.2"/>
<text text-anchor="start" x="1010.75" y="-839.4" font-family="Arial" font-size="14.00">class_key </text>
<text text-anchor="start" x="1076.1" y="-839.4" font-family="Arial" font-size="14.00" fill="#666666">[text]</text>
<polygon fill="none" stroke="black" points="1003.75,-796.4 1003.75,-827.2 1251.7,-827.2 1251.7,-796.4 1003.75,-796.4"/>
<text text-anchor="start" x="1010.75" y="-808.6" font-family="Arial" font-size="14.00">name </text>
<text text-anchor="start" x="1049.66" y="-808.6" font-family="Arial" font-size="14.00" fill="#666666">[text]</text>
<polygon fill="none" stroke="black" points="1003.75,-765.6 1003.75,-796.4 1251.7,-796.4 1251.7,-765.6 1003.75,-765.6"/>
<text text-anchor="start" x="1010.75" y="-777.8" font-family="Arial" font-size="14.00">details </text>
<text text-anchor="start" x="1055.1" y="-777.8" font-family="Arial" font-size="14.00" fill="#666666">[text]</text>
<polygon fill="none" stroke="black" points="1003.75,-734.8 1003.75,-765.6 1251.7,-765.6 1251.7,-734.8 1003.75,-734.8"/>
<text text-anchor="start" x="1010.75" y="-747" font-family="Arial" font-size="14.00">data_type_rules </text>
<text text-anchor="start" x="1114.26" y="-747" font-family="Arial" font-size="14.00" fill="#666666">[text]</text>
<polygon fill="none" stroke="black" points="1003.75,-704 1003.75,-734.8 1251.7,-734.8 1251.7,-704 1003.75,-704"/>
<text text-anchor="start" x="1010.75" y="-716.2" font-family="Arial" font-size="14.00">data_type_key </text>
<text text-anchor="start" x="1105.7" y="-716.2" font-family="Arial" font-size="14.00" fill="#666666">[text]</text>
<polygon fill="none" stroke="black" points="1003.75,-673.2 1003.75,-704 1251.7,-704 1251.7,-673.2 1003.75,-673.2"/>
<text text-anchor="start" x="1010.75" y="-685.4" font-family="Arial" font-size="14.00">derivation_policy_key </text>
<text text-anchor="start" x="1148.49" y="-685.4" font-family="Arial" font-size="14.00" fill="#666666">[text]</text>
<polygon fill="none" stroke="black" points="1003.75,-642.4 1003.75,-673.2 1251.7,-673.2 1251.7,-642.4 1003.75,-642.4"/>
<text text-anchor="start" x="1010.75" y="-654.6" font-family="Arial" font-size="14.00">nullable </text>
<text text-anchor="start" x="1062.9" y="-654.6" font-family="Arial" font-size="14.00" fill="#666666">[boolean]</text>
<polygon fill="none" stroke="black" points="1003.75,-611.6 1003.75,-642.4 1251.7,-642.4 1251.7,-611.6 1003.75,-611.6"/>
<text text-anchor="start" x="1010.75" y="-623.8" font-family="Arial" font-size="14.00">uml_comment </text>
<text text-anchor="start" x="1102.55" y="-623.8" font-family="Arial" font-size="14.00" fill="#666666">[text]</text>
</g>
<!-- public.attribute&#45;&gt;public.logic -->
<g id="edge3" class="edge">
<title>public.attribute:model_key&#45;&gt;public.logic:model_key</title>
<path fill="none" stroke="black" d="M1262.82,-902.33C1323.29,-878.37 1284.15,-631.53 1251.7,-568.4 1239.19,-544.06 1214.31,-556.71 1201.74,-532.4 1175.61,-481.86 1143.85,-404.4 1200.74,-404.4"/>
<polygon fill="black" stroke="black" points="1262.87,-902.32 1252.21,-899.71 1257.62,-903.29 1253.36,-904.08 1253.36,-904.08 1253.36,-904.08 1257.62,-903.29 1253.85,-908.56 1262.87,-902.32"/>
<text text-anchor="start" x="1259.7" y="-914.2" font-family="Arial" font-size="10.00">FOREIGN KEY (model_key, derivation_policy_key) REFERENCES logic(model_key, logic_key) ON DELETE CASCADE</text>
</g>
<!-- public.query_require -->
<g id="node5" class="node">
<title>public.query_require</title>
<polygon fill="#efefef" stroke="none" points="1356.26,-811.8 1356.26,-847.4 1645.19,-847.4 1645.19,-811.8 1356.26,-811.8"/>
<polygon fill="none" stroke="black" points="1356.26,-811.8 1356.26,-847.4 1645.19,-847.4 1645.19,-811.8 1356.26,-811.8"/>
<text text-anchor="start" x="1363.26" y="-825.2" font-family="Arial Bold" font-size="18.00">public.query_require</text>
<text text-anchor="start" x="1513.7" y="-825.2" font-family="Arial" font-size="14.00">    </text>
<text text-anchor="start" x="1544.82" y="-825.2" font-family="Arial" font-size="14.00" fill="#666666">[BASE TABLE]</text>
<polygon fill="none" stroke="black" points="1356.26,-781 1356.26,-811.8 1645.19,-811.8 1645.19,-781 1356.26,-781"/>
<text text-anchor="start" x="1363.26" y="-793.2" font-family="Arial" font-size="14.00">model_key </text>
<text text-anchor="start" x="1434.85" y="-793.2" font-family="Arial" font-size="14.00" fill="#666666">[text]</text>
<polygon fill="none" stroke="black" points="1356.26,-750.2 1356.26,-781 1645.19,-781 1645.19,-750.2 1356.26,-750.2"/>
<text text-anchor="start" x="1363.26" y="-762.4" font-family="Arial" font-size="14.00">query_key </text>
<text text-anchor="start" x="1431.74" y="-762.4" font-family="Arial" font-size="14.00" fill="#666666">[text]</text>
<polygon fill="none" stroke="black" points="1356.26,-719.4 1356.26,-750.2 1645.19,-750.2 1645.19,-719.4 1356.26,-719.4"/>
<text text-anchor="start" x="1363.26" y="-731.6" font-family="Arial" font-size="14.00">logic_key </text>
<text text-anchor="start" x="1425.51" y="-731.6" font-family="Arial" font-size="14.00" fill="#666666">[text]</text>
</g>
<!-- public.query_require&#45;&gt;public.logic -->
<g id="edge4" class="edge">
<title>public.query_require:model_key&#45;&gt;public.logic:model_key</title>
<path fill="none" stroke="black" d="M1345.11,-795.91C1195.37,-780.49 1600.17,-404.4 1426.71,-404.4"/>
<polygon fill="black" stroke="black" points="1344.94,-795.9 1354.71,-800.88 1350.27,-796.16 1354.59,-796.37 1354.59,-796.37 1354.59,-796.37 1350.27,-796.16 1355.14,-791.89 1344.94,-795.9"/>
<text text-anchor="start" x="1114.91" y="-780.4" font-family="Arial" font-size="10.00">FOREIGN KEY (model_key, logic_key) REFERENCES logic(model_key, logic_key) ON DELETE CASCADE</text>
</g>
<!-- public.query_guarantee -->
<g id="node6" class="node">
<title>public.query_guarantee</title>
<polygon fill="#efefef" stroke="none" points="1749.77,-811.8 1749.77,-847.4 2057.68,-847.4 2057.68,-811.8 1749.77,-811.8"/>
<polygon fill="none" stroke="black" points="1749.77,-811.8 1749.77,-847.4 2057.68,-847.4 2057.68,-811.8 1749.77,-811.8"/>
<text text-anchor="start" x="1756.77" y="-825.2" font-family="Arial Bold" font-size="18.00">public.query_guarantee</text>
<text text-anchor="start" x="1926.19" y="-825.2" font-family="Arial" font-size="14.00">    </text>
<text text-anchor="start" x="1957.31" y="-825.2" font-family="Arial" font-size="14.00" fill="#666666">[BASE TABLE]</text>
<polygon fill="none" stroke="black" points="1749.77,-781 1749.77,-811.8 2057.68,-811.8 2057.68,-781 1749.77,-781"/>
<text text-anchor="start" x="1756.77" y="-793.2" font-family="Arial" font-size="14.00">model_key </text>
<text text-anchor="start" x="1828.36" y="-793.2" font-family="Arial" font-size="14.00" fill="#666666">[text]</text>
<polygon fill="none" stroke="black" points="1749.77,-750.2 1749.77,-781 2057.68,-781 2057.68,-750.2 1749.77,-750.2"/>
<text text-anchor="start" x="1756.77" y="-762.4" font-family="Arial" font-size="14.00">query_key </text>
<text text-anchor="start" x="1825.25" y="-762.4" font-family="Arial" font-size="14.00" fill="#666666">[text]</text>
<polygon fill="none" stroke="black" points="1749.77,-719.4 1749.77,-750.2 2057.68,-750.2 2057.68,-719.4 1749.77,-719.4"/>
<text text-anchor="start" x="1756.77" y="-731.6" font-family="Arial" font-size="14.00">logic_key </text>
<text text-anchor="start" x="1819.02" y="-731.6" font-family="Arial" font-size="14.00" fill="#666666">[text]</text>
</g>
<!-- public.query_guarantee&#45;&gt;public.logic -->
<g id="edge5" class="edge">
<title>public.query_guarantee:model_key&#45;&gt;public.logic:model_key</title>
<path fill="none" stroke="black" d="M1738.34,-795.85C1652.89,-786.09 1756.16,-649.66 1697.73,-568.4 1615.53,-454.1 1567.5,-404.4 1426.71,-404.4"/>
<polygon fill="black" stroke="black" points="1738.45,-795.85 1748.19,-800.88 1743.77,-796.13 1748.1,-796.36 1748.1,-796.36 1748.1,-796.36 1743.77,-796.13 1748.67,-791.89 1738.45,-795.85"/>
<text text-anchor="start" x="1755.77" y="-806.4" font-family="Arial" font-size="10.00">FOREIGN KEY (model_key, logic_key) REFERENCES logic(model_key, logic_key) ON DELETE CASCADE</text>
</g>
<!-- public.guard -->
<g id="node7" class="node">
<title>public.guard</title>
<polygon fill="#efefef" stroke="none" points="2162.24,-827.2 2162.24,-862.8 2391.21,-862.8 2391.21,-827.2 2162.24,-827.2"/>
<polygon fill="none" stroke="black" points="2162.24,-827.2 2162.24,-862.8 2391.21,-862.8 2391.21,-827.2 2162.24,-827.2"/>
<text text-anchor="start" x="2169.24" y="-840.6" font-family="Arial Bold" font-size="18.00">public.guard</text>
<text text-anchor="start" x="2259.72" y="-840.6" font-family="Arial" font-size="14.00">    </text>
<text text-anchor="start" x="2290.83" y="-840.6" font-family="Arial" font-size="14.00" fill="#666666">[BASE TABLE]</text>
<polygon fill="none" stroke="black" points="2162.24,-796.4 2162.24,-827.2 2391.21,-827.2 2391.21,-796.4 2162.24,-796.4"/>
<text text-anchor="start" x="2169.24" y="-808.6" font-family="Arial" font-size="14.00">model_key </text>
<text text-anchor="start" x="2240.84" y="-808.6" font-family="Arial" font-size="14.00" fill="#666666">[text]</text>
<polygon fill="none" stroke="black" points="2162.24,-765.6 2162.24,-796.4 2391.21,-796.4 2391.21,-765.6 2162.24,-765.6"/>
<text text-anchor="start" x="2169.24" y="-777.8" font-family="Arial" font-size="14.00">class_key </text>
<text text-anchor="start" x="2234.6" y="-777.8" font-family="Arial" font-size="14.00" fill="#666666">[text]</text>
<polygon fill="none" stroke="black" points="2162.24,-734.8 2162.24,-765.6 2391.21,-765.6 2391.21,-734.8 2162.24,-734.8"/>
<text text-anchor="start" x="2169.24" y="-747" font-family="Arial" font-size="14.00">guard_key </text>
<text text-anchor="start" x="2238.51" y="-747" font-family="Arial" font-size="14.00" fill="#666666">[text]</text>
<polygon fill="none" stroke="black" points="2162.24,-704 2162.24,-734.8 2391.21,-734.8 2391.21,-704 2162.24,-704"/>
<text text-anchor="start" x="2169.24" y="-716.2" font-family="Arial" font-size="14.00">name </text>
<text text-anchor="start" x="2208.15" y="-716.2" font-family="Arial" font-size="14.00" fill="#666666">[text]</text>
</g>
<!-- public.guard&#45;&gt;public.logic -->
<g id="edge6" class="edge">
<title>public.guard:model_key&#45;&gt;public.logic:model_key</title>
<path fill="none" stroke="black" d="M2151.03,-811.27C2059.48,-800.99 2184.29,-645.01 2109.73,-568.4 2000.85,-456.54 1582.81,-404.4 1426.71,-404.4"/>
<polygon fill="black" stroke="black" points="2150.92,-811.26 2160.67,-816.28 2156.25,-811.54 2160.58,-811.77 2160.58,-811.77 2160.58,-811.77 2156.25,-811.54 2161.14,-807.29 2150.92,-811.26"/>
<text text-anchor="start" x="2168.24" y="-821.8" font-family="Arial" font-size="10.00">FOREIGN KEY (model_key, guard_key) REFERENCES logic(model_key, logic_key) ON DELETE CASCADE</text>
</g>
</g>
</svg>
