<?xml version="1.0" encoding="UTF-8" standalone="no"?>
<!DOCTYPE svg PUBLIC "-//W3C//DTD SVG 1.1//EN"
 "http://www.w3.org/Graphics/SVG/1.1/DTD/svg11.dtd">
<!-- Generated by graphviz version 12.1.2 (20240928.0832)
 -->
<!-- Title: public.query_guarantee Pages: 1 -->
<svg width="1321pt" height="756pt"
 viewBox="0.00 0.00 1320.67 756.00" xmlns="http://www.w3.org/2000/svg" xmlns:xlink="http://www.w3.org/1999/xlink">
<g id="graph0" class="graph" transform="scale(1 1) rotate(0) translate(4 752)">
<title>public.query_guarantee</title>
<polygon fill="white" stroke="none" points="-4,4 -4,-752 1316.67,-752 1316.67,4 -4,4"/>
<!-- public.query_guarantee -->
<g id="node1" class="node">
<title>public.query_guarantee</title>
<polygon fill="#efefef" stroke="none" points="495.7,-666.2 495.7,-701.8 803.62,-701.8 803.62,-666.2 495.7,-666.2"/>
<polygon fill="none" stroke="black" points="495.7,-666.2 495.7,-701.8 803.62,-701.8 803.62,-666.2 495.7,-666.2"/>
<text text-anchor="start" x="502.7" y="-679.6" font-family="Arial Bold" font-size="18.00">public.query_guarantee</text>
<text text-anchor="start" x="672.13" y="-679.6" font-family="Arial" font-size="14.00">    </text>
<text text-anchor="start" x="703.25" y="-679.6" font-family="Arial" font-size="14.00" fill="#666666">[BASE TABLE]</text>
<polygon fill="none" stroke="black" points="495.7,-635.4 495.7,-666.2 803.62,-666.2 803.62,-635.4 495.7,-635.4"/>
<text text-anchor="start" x="502.7" y="-647.6" font-family="Arial" font-size="14.00">model_key </text>
<text text-anchor="start" x="574.3" y="-647.6" font-family="Arial" font-size="14.00" fill="#666666">[text]</text>
<polygon fill="none" stroke="black" points="495.7,-604.6 495.7,-635.4 803.62,-635.4 803.62,-604.6 495.7,-604.6"/>
<text text-anchor="start" x="502.7" y="-616.8" font-family="Arial" font-size="14.00">query_key </text>
<text text-anchor="start" x="571.19" y="-616.8" font-family="Arial" font-size="14.00" fill="#666666">[text]</text>
<polygon fill="none" stroke="black" points="495.7,-573.8 495.7,-604.6 803.62,-604.6 803.62,-573.8 495.7,-573.8"/>
<text text-anchor="start" x="502.7" y="-586" font-family="Arial" font-size="14.00">logic_key </text>
<text text-anchor="start" x="564.96" y="-586" font-family="Arial" font-size="14.00" fill="#666666">[text]</text>
<polygon fill="none" stroke="black" stroke-width="3" points="494.2,-572.3 494.2,-703.3 805.12,-703.3 805.12,-572.3 494.2,-572.3"/>
</g>
<!-- public.logic -->
<g id="node2" class="node">
<title>public.logic</title>
<polygon fill="#efefef" stroke="none" points="357.87,-412.8 357.87,-448.4 601.45,-448.4 601.45,-412.8 357.87,-412.8"/>
<polygon fill="none" stroke="black" points="357.87,-412.8 357.87,-448.4 601.45,-448.4 601.45,-412.8 357.87,-412.8"/>
<text text-anchor="start" x="374.68" y="-426.2" font-family="Arial Bold" font-size="18.00">public.logic</text>
<text text-anchor="start" x="460.16" y="-426.2" font-family="Arial" font-size="14.00">    </text>
<text text-anchor="start" x="491.27" y="-426.2" font-family="Arial" font-size="14.00" fill="#666666">[BASE TABLE]</text>
<polygon fill="none" stroke="black" points="357.87,-382 357.87,-412.8 601.45,-412.8 601.45,-382 357.87,-382"/>
<text text-anchor="start" x="364.87" y="-394.2" font-family="Arial" font-size="14.00">logic_key </text>
<text text-anchor="start" x="427.12" y="-394.2" font-family="Arial" font-size="14.00" fill="#666666">[text]</text>
<polygon fill="none" stroke="black" points="357.87,-351.2 357.87,-382 601.45,-382 601.45,-351.2 357.87,-351.2"/>
<text text-anchor="start" x="364.87" y="-363.4" font-family="Arial" font-size="14.00">model_key </text>
<text text-anchor="start" x="436.46" y="-363.4" font-family="Arial" font-size="14.00" fill="#666666">[text]</text>
<polygon fill="none" stroke="black" points="357.87,-320.4 357.87,-351.2 601.45,-351.2 601.45,-320.4 357.87,-320.4"/>
<text text-anchor="start" x="364.87" y="-332.6" font-family="Arial" font-size="14.00">sort_order </text>
<text text-anchor="start" x="432.56" y="-332.6" font-family="Arial" font-size="14.00" fill="#666666">[integer]</text>
<polygon fill="none" stroke="black" points="357.87,-289.6 357.87,-320.4 601.45,-320.4 601.45,-289.6 357.87,-289.6"/>
<text text-anchor="start" x="364.87" y="-301.8" font-family="Arial" font-size="14.00">logic_type </text>
<text text-anchor="start" x="431.8" y="-301.8" font-family="Arial" font-size="14.00" fill="#666666">[logic_type]</text>
<polygon fill="none" stroke="black" points="357.87,-258.8 357.87,-289.6 601.45,-289.6 601.45,-258.8 357.87,-258.8"/>
<text text-anchor="start" x="364.87" y="-271" font-family="Arial" font-size="14.00">description </text>
<text text-anchor="start" x="436.46" y="-271" font-family="Arial" font-size="14.00" fill="#666666">[text]</text>
<polygon fill="none" stroke="black" points="357.87,-228 357.87,-258.8 601.45,-258.8 601.45,-228 357.87,-228"/>
<text text-anchor="start" x="364.87" y="-240.2" font-family="Arial" font-size="14.00">target </text>
<text text-anchor="start" x="404.56" y="-240.2" font-family="Arial" font-size="14.00" fill="#666666">[text]</text>
<polygon fill="none" stroke="black" points="357.87,-197.2 357.87,-228 601.45,-228 601.45,-197.2 357.87,-197.2"/>
<text text-anchor="start" x="364.87" y="-209.4" font-family="Arial" font-size="14.00">notation </text>
<text text-anchor="start" x="418.58" y="-209.4" font-family="Arial" font-size="14.00" fill="#666666">[notation]</text>
<polygon fill="none" stroke="black" points="357.87,-166.4 357.87,-197.2 601.45,-197.2 601.45,-166.4 357.87,-166.4"/>
<text text-anchor="start" x="364.87" y="-178.6" font-family="Arial" font-size="14.00">specification </text>
<text text-anchor="start" x="445.8" y="-178.6" font-family="Arial" font-size="14.00" fill="#666666">[text]</text>
<polygon fill="none" stroke="black" points="357.87,-135.6 357.87,-166.4 601.45,-166.4 601.45,-135.6 357.87,-135.6"/>
<text text-anchor="start" x="364.87" y="-147.8" font-family="Arial" font-size="14.00">target_type_notation </text>
<text text-anchor="start" x="496.41" y="-147.8" font-family="Arial" font-size="14.00" fill="#666666">[notation]</text>
<polygon fill="none" stroke="black" points="357.87,-104.8 357.87,-135.6 601.45,-135.6 601.45,-104.8 357.87,-104.8"/>
<text text-anchor="start" x="364.87" y="-117" font-family="Arial" font-size="14.00">target_type_specification </text>
<text text-anchor="start" x="523.63" y="-117" font-family="Arial" font-size="14.00" fill="#666666">[text]</text>
<polygon fill="none" stroke="black" points="357.87,-74 357.87,-104.8 601.45,-104.8 601.45,-74 357.87,-74"/>
<text text-anchor="start" x="364.87" y="-86.2" font-family="Arial" font-size="14.00">destroy_event_specification </text>
<text text-anchor="start" x="541.53" y="-86.2" font-family="Arial" font-size="14.00" fill="#666666">[text]</text>
<polygon fill="none" stroke="black" points="357.87,-43.2 357.87,-74 601.45,-74 601.45,-43.2 357.87,-43.2"/>
<text text-anchor="start" x="364.87" y="-55.4" font-family="Arial" font-size="14.00">endpoint_selector_specification </text>
<text text-anchor="start" x="564.11" y="-55.4" font-family="Arial" font-size="14.00" fill="#666666">[text]</text>
</g>
<!-- public.query_guarantee&#45;&gt;public.logic -->
<g id="edge1" class="edge">
<title>public.query_guarantee:model_key&#45;&gt;public.logic:model_key</title>
<path fill="none" stroke="black" d="M484.55,-649.73C443.23,-640.19 465.84,-568.96 495.7,-527.6 524.77,-487.35 572.39,-531.85 601.45,-491.6 633.98,-446.56 658.01,-366.6 602.45,-366.6"/>
<polygon fill="black" stroke="black" points="484.43,-649.72 493.9,-655.24 489.73,-650.28 494.04,-650.73 494.04,-650.73 494.04,-650.73 489.73,-650.28 494.84,-646.29 484.43,-649.72"/>
<text text-anchor="start" x="7" y="-660.8" font-family="Arial" font-size="10.00">FOREIGN KEY (model_key, logic_key) REFERENCES logic(model_key, logic_key) ON DELETE CASCADE</text>
</g>
<!-- public.query -->
<g id="node3" class="node">
<title>public.query</title>
<polygon fill="#efefef" stroke="none" points="706.18,-305 706.18,-340.6 935.14,-340.6 935.14,-305 706.18,-305"/>
<polygon fill="none" stroke="black" points="706.18,-305 706.18,-340.6 935.14,-340.6 935.14,-305 706.18,-305"/>
<text text-anchor="start" x="713.18" y="-318.4" font-family="Arial Bold" font-size="18.00">public.query</text>
<text text-anchor="start" x="803.65" y="-318.4" font-family="Arial" font-size="14.00">    </text>
<text text-anchor="start" x="834.77" y="-318.4" font-family="Arial" font-size="14.00" fill="#666666">[BASE TABLE]</text>
<polygon fill="none" stroke="black" points="706.18,-274.2 706.18,-305 935.14,-305 935.14,-274.2 706.18,-274.2"/>
<text text-anchor="start" x="713.18" y="-286.4" font-family="Arial" font-size="14.00">model_key </text>
<text text-anchor="start" x="784.77" y="-286.4" font-family="Arial" font-size="14.00" fill="#666666">[text]</text>
<polygon fill="none" stroke="black" points="706.18,-243.4 706.18,-274.2 935.14,-274.2 935.14,-243.4 706.18,-243.4"/>
<text text-anchor="start" x="713.18" y="-255.6" font-family="Arial" font-size="14.00">class_key </text>
<text text-anchor="start" x="778.54" y="-255.6" font-family="Arial" font-size="14.00" fill="#666666">[text]</text>
<polygon fill="none" stroke="black" points="706.18,-212.6 706.18,-243.4 935.14,-243.4 935.14,-212.6 706.18,-212.6"/>
<text text-anchor="start" x="713.18" y="-224.8" font-family="Arial" font-size="14.00">query_key </text>
<text text-anchor="start" x="781.66" y="-224.8" font-family="Arial" font-size="14.00" fill="#666666">[text]</text>
<polygon fill="none" stroke="black" points="706.18,-181.8 706.18,-212.6 935.14,-212.6 935.14,-181.8 706.18,-181.8"/>
<text text-anchor="start" x="713.18" y="-194" font-family="Arial" font-size="14.00">name </text>
<text text-anchor="start" x="752.09" y="-194" font-family="Arial" font-size="14.00" fill="#666666">[text]</text>
<polygon fill="none" stroke="black" points="706.18,-151 706.18,-181.8 935.14,-181.8 935.14,-151 706.18,-151"/>
<text text-anchor="start" x="713.18" y="-163.2" font-family="Arial" font-size="14.00">details </text>
<text text-anchor="start" x="757.54" y="-163.2" font-family="Arial" font-size="14.00" fill="#666666">[text]</text>
</g>
<!-- public.query_guarantee&#45;&gt;public.query -->
<g id="edge2" class="edge">
<title>public.query_guarantee:model_key&#45;&gt;public.query:model_key</title>
<path fill="none" stroke="black" d="M814.81,-649.78C853.94,-640.92 818.75,-576.21 803.62,-527.6 780.67,-453.89 729.22,-457.48 706.18,-383.8 693.68,-343.84 663.31,-289.6 705.18,-289.6"/>
<polygon fill="black" stroke="black" points="814.9,-649.77 804.5,-646.29 809.59,-650.3 805.28,-650.73 805.28,-650.73 805.28,-650.73 809.59,-650.3 805.4,-655.24 814.9,-649.77"/>
<text text-anchor="start" x="811.62" y="-660.8" font-family="Arial" font-size="10.00">FOREIGN KEY (model_key, query_key) REFERENCES query(model_key, query_key) ON DELETE CASCADE</text>
</g>
</g>
</svg>
