<?xml version="1.0" encoding="UTF-8" standalone="no"?>
<!DOCTYPE svg PUBLIC "-//W3C//DTD SVG 1.1//EN"
 "http://www.w3.org/Graphics/SVG/1.1/DTD/svg11.dtd">
<!-- Generated by graphviz version 12.1.2 (20240928.0832)
 -->
<!-- Title: public.logic Pages: 1 -->
<svg width="4209pt" height="1037pt"
 viewBox="0.00 0.00 4209.46 1037.20" xmlns="http://www.w3.org/2000/svg" xmlns:xlink="http://www.w3.org/1999/xlink">
<g id="graph0" class="graph" transform="scale(1 1) rotate(0) translate(4 1033.2)">
<title>public.logic</title>
<polygon fill="white" stroke="none" points="-4,4 -4,-1033.2 4205.46,-1033.2 4205.46,4 -4,4"/>
<!-- public.logic -->
<g id="node1" class="node">
<title>public.logic</title>
<polygon fill="#efefef" stroke="none" points="1989.74,-481.4 1989.74,-517 2213.71,-517 2213.71,-481.4 1989.74,-481.4"/>
<polygon fill="none" stroke="black" points="1989.74,-481.4 1989.74,-517 2213.71,-517 2213.71,-481.4 1989.74,-481.4"/>
<text text-anchor="start" x="1996.74" y="-494.8" font-family="Arial Bold" font-size="18.00">public.logic</text>
<text text-anchor="start" x="2082.22" y="-494.8" font-family="Arial" font-size="14.00">    </text>
<text text-anchor="start" x="2113.34" y="-494.8" font-family="Arial" font-size="14.00" fill="#666666">[BASE TABLE]</text>
<polygon fill="none" stroke="black" points="1989.74,-450.6 1989.74,-481.4 2213.71,-481.4 2213.71,-450.6 1989.74,-450.6"/>
<text text-anchor="start" x="1996.74" y="-462.8" font-family="Arial" font-size="14.00">logic_key </text>
<text text-anchor="start" x="2058.99" y="-462.8" font-family="Arial" font-size="14.00" fill="#666666">[text]</text>
<polygon fill="none" stroke="black" points="1989.74,-419.8 1989.74,-450.6 2213.71,-450.6 2213.71,-419.8 1989.74,-419.8"/>
<text text-anchor="start" x="1996.74" y="-432" font-family="Arial" font-size="14.00">model_key </text>
<text text-anchor="start" x="2068.33" y="-432" font-family="Arial" font-size="14.00" fill="#666666">[text]</text>
<polygon fill="none" stroke="black" points="1989.74,-389 1989.74,-419.8 2213.71,-419.8 2213.71,-389 1989.74,-389"/>
<text text-anchor="start" x="1996.74" y="-401.2" font-family="Arial" font-size="14.00">sort_order </text>
<text text-anchor="start" x="2064.44" y="-401.2" font-family="Arial" font-size="14.00" fill="#666666">[integer]</text>
<polygon fill="none" stroke="black" points="1989.74,-358.2 1989.74,-389 2213.71,-389 2213.71,-358.2 1989.74,-358.2"/>
<text text-anchor="start" x="1996.74" y="-370.4" font-family="Arial" font-size="14.00">description </text>
<text text-anchor="start" x="2068.33" y="-370.4" font-family="Arial" font-size="14.00" fill="#666666">[text]</text>
<polygon fill="none" stroke="black" points="1989.74,-327.4 1989.74,-358.2 2213.71,-358.2 2213.71,-327.4 1989.74,-327.4"/>
<text text-anchor="start" x="1996.74" y="-339.6" font-family="Arial" font-size="14.00">notation </text>
<text text-anchor="start" x="2050.45" y="-339.6" font-family="Arial" font-size="14.00" fill="#666666">[notation]</text>
<polygon fill="none" stroke="black" points="1989.74,-296.6 1989.74,-327.4 2213.71,-327.4 2213.71,-296.6 1989.74,-296.6"/>
<text text-anchor="start" x="1996.74" y="-308.8" font-family="Arial" font-size="14.00">specification </text>
<text text-anchor="start" x="2077.67" y="-308.8" font-family="Arial" font-size="14.00" fill="#666666">[text]</text>
<polygon fill="none" stroke="black" stroke-width="3" points="1988.24,-295.1 1988.24,-518.5 2215.21,-518.5 2215.21,-295.1 1988.24,-295.1"/>
</g>
<!-- public.model -->
<g id="node12" class="node">
<title>public.model</title>
<polygon fill="#efefef" stroke="none" points="1985.24,-135.6 1985.24,-171.2 2218.21,-171.2 2218.21,-135.6 1985.24,-135.6"/>
<polygon fill="none" stroke="black" points="1985.24,-135.6 1985.24,-171.2 2218.21,-171.2 2218.21,-135.6 1985.24,-135.6"/>
<text text-anchor="start" x="1992.24" y="-149" font-family="Arial Bold" font-size="18.00">public.model</text>
<text text-anchor="start" x="2086.72" y="-149" font-family="Arial" font-size="14.00">    </text>
<text text-anchor="start" x="2117.84" y="-149" font-family="Arial" font-size="14.00" fill="#666666">[BASE TABLE]</text>
<polygon fill="none" stroke="black" points="1985.24,-104.8 1985.24,-135.6 2218.21,-135.6 2218.21,-104.8 1985.24,-104.8"/>
<text text-anchor="start" x="1992.24" y="-117" font-family="Arial" font-size="14.00">model_key </text>
<text text-anchor="start" x="2063.83" y="-117" font-family="Arial" font-size="14.00" fill="#666666">[text]</text>
<polygon fill="none" stroke="black" points="1985.24,-74 1985.24,-104.8 2218.21,-104.8 2218.21,-74 1985.24,-74"/>
<text text-anchor="start" x="1992.24" y="-86.2" font-family="Arial" font-size="14.00">name </text>
<text text-anchor="start" x="2031.15" y="-86.2" font-family="Arial" font-size="14.00" fill="#666666">[text]</text>
<polygon fill="none" stroke="black" points="1985.24,-43.2 1985.24,-74 2218.21,-74 2218.21,-43.2 1985.24,-43.2"/>
<text text-anchor="start" x="1992.24" y="-55.4" font-family="Arial" font-size="14.00">details </text>
<text text-anchor="start" x="2036.6" y="-55.4" font-family="Arial" font-size="14.00" fill="#666666">[text]</text>
</g>
<!-- public.logic&#45;&gt;public.model -->
<g id="edge11" class="edge">
<title>public.logic:model_key&#45;&gt;public.model:model_key</title>
<path fill="none" stroke="black" d="M2225.11,-434.6C2354.86,-419.41 2355.67,-120.2 2219.21,-120.2"/>
<polygon fill="black" stroke="black" points="2225.03,-434.61 2214.79,-430.69 2219.7,-434.91 2215.38,-435.16 2215.38,-435.16 2215.38,-435.16 2219.7,-434.91 2215.3,-439.67 2225.03,-434.61"/>
<text text-anchor="start" x="2221.71" y="-445.2" font-family="Arial" font-size="10.00">FOREIGN KEY (model_key) REFERENCES model(model_key) ON DELETE CASCADE</text>
</g>
<!-- public.invariant -->
<g id="node2" class="node">
<title>public.invariant</title>
<polygon fill="#efefef" stroke="none" points="241.75,-827.2 241.75,-862.8 493.7,-862.8 493.7,-827.2 241.75,-827.2"/>
<polygon fill="none" stroke="black" points="241.75,-827.2 241.75,-862.8 493.7,-862.8 493.7,-827.2 241.75,-827.2"/>
<text text-anchor="start" x="248.75" y="-840.6" font-family="Arial Bold" font-size="18.00">public.invariant</text>
<text text-anchor="start" x="362.21" y="-840.6" font-family="Arial" font-size="14.00">    </text>
<text text-anchor="start" x="393.33" y="-840.6" font-family="Arial" font-size="14.00" fill="#666666">[BASE TABLE]</text>
<polygon fill="none" stroke="black" points="241.75,-796.4 241.75,-827.2 493.7,-827.2 493.7,-796.4 241.75,-796.4"/>
<text text-anchor="start" x="248.75" y="-808.6" font-family="Arial" font-size="14.00">model_key </text>
<text text-anchor="start" x="320.34" y="-808.6" font-family="Arial" font-size="14.00" fill="#666666">[text]</text>
<polygon fill="none" stroke="black" points="241.75,-765.6 241.75,-796.4 493.7,-796.4 493.7,-765.6 241.75,-765.6"/>
<text text-anchor="start" x="248.75" y="-777.8" font-family="Arial" font-size="14.00">logic_key </text>
<text text-anchor="start" x="311" y="-777.8" font-family="Arial" font-size="14.00" fill="#666666">[text]</text>
</g>
<!-- public.invariant&#45;&gt;public.logic -->
<g id="edge1" class="edge">
<title>public.invariant:model_key&#45;&gt;public.logic:model_key</title>
<path fill="none" stroke="black" d="M504.65,-811.2C583.31,-800.91 475.64,-661.19 545.73,-599.2 666.59,-492.29 1827.37,-435.2 1988.74,-435.2"/>
<polygon fill="black" stroke="black" points="505.02,-811.18 494.77,-807.29 499.69,-811.5 495.37,-811.76 495.37,-811.76 495.37,-811.76 499.69,-811.5 495.31,-816.27 505.02,-811.18"/>
<text text-anchor="start" x="7" y="-821.8" font-family="Arial" font-size="10.00">FOREIGN KEY (model_key, logic_key) REFERENCES logic(model_key, logic_key) ON DELETE CASCADE</text>
</g>
<!-- public.global_function -->
<g id="node3" class="node">
<title>public.global_function</title>
<polygon fill="#efefef" stroke="none" points="597.75,-858 597.75,-893.6 899.7,-893.6 899.7,-858 597.75,-858"/>
<polygon fill="none" stroke="black" points="597.75,-858 597.75,-893.6 899.7,-893.6 899.7,-858 597.75,-858"/>
<text text-anchor="start" x="604.75" y="-871.4" font-family="Arial Bold" font-size="18.00">public.global_function</text>
<text text-anchor="start" x="768.21" y="-871.4" font-family="Arial" font-size="14.00">    </text>
<text text-anchor="start" x="799.33" y="-871.4" font-family="Arial" font-size="14.00" fill="#666666">[BASE TABLE]</text>
<polygon fill="none" stroke="black" points="597.75,-827.2 597.75,-858 899.7,-858 899.7,-827.2 597.75,-827.2"/>
<text text-anchor="start" x="604.75" y="-839.4" font-family="Arial" font-size="14.00">model_key </text>
<text text-anchor="start" x="676.34" y="-839.4" font-family="Arial" font-size="14.00" fill="#666666">[text]</text>
<polygon fill="none" stroke="black" points="597.75,-796.4 597.75,-827.2 899.7,-827.2 899.7,-796.4 597.75,-796.4"/>
<text text-anchor="start" x="604.75" y="-808.6" font-family="Arial" font-size="14.00">logic_key </text>
<text text-anchor="start" x="667" y="-808.6" font-family="Arial" font-size="14.00" fill="#666666">[text]</text>
<polygon fill="none" stroke="black" points="597.75,-765.6 597.75,-796.4 899.7,-796.4 899.7,-765.6 597.75,-765.6"/>
<text text-anchor="start" x="604.75" y="-777.8" font-family="Arial" font-size="14.00">name </text>
<text text-anchor="start" x="643.66" y="-777.8" font-family="Arial" font-size="14.00" fill="#666666">[text]</text>
<polygon fill="none" stroke="black" points="597.75,-734.8 597.75,-765.6 899.7,-765.6 899.7,-734.8 597.75,-734.8"/>
<text text-anchor="start" x="604.75" y="-747" font-family="Arial" font-size="14.00">parameters </text>
<text text-anchor="start" x="679.44" y="-747" font-family="Arial" font-size="14.00" fill="#666666">[text[]]</text>
</g>
<!-- public.global_function&#45;&gt;public.logic -->
<g id="edge2" class="edge">
<title>public.global_function:model_key&#45;&gt;public.logic:model_key</title>
<path fill="none" stroke="black" d="M910.9,-842.06C1002.21,-831.6 874.31,-672.86 951.73,-599.2 1120.76,-438.38 1755.43,-435.2 1988.74,-435.2"/>
<polygon fill="black" stroke="black" points="911.02,-842.05 900.8,-838.09 905.7,-842.33 901.37,-842.56 901.37,-842.56 901.37,-842.56 905.7,-842.33 901.28,-847.08 911.02,-842.05"/>
<text text-anchor="start" x="413" y="-852.6" font-family="Arial" font-size="10.00">FOREIGN KEY (model_key, logic_key) REFERENCES logic(model_key, logic_key) ON DELETE CASCADE</text>
</g>
<!-- public.attribute -->
<g id="node4" class="node">
<title>public.attribute</title>
<polygon fill="#efefef" stroke="none" points="1003.75,-950.4 1003.75,-986 1251.7,-986 1251.7,-950.4 1003.75,-950.4"/>
<polygon fill="none" stroke="black" points="1003.75,-950.4 1003.75,-986 1251.7,-986 1251.7,-950.4 1003.75,-950.4"/>
<text text-anchor="start" x="1010.75" y="-963.8" font-family="Arial Bold" font-size="18.00">public.attribute</text>
<text text-anchor="start" x="1120.21" y="-963.8" font-family="Arial" font-size="14.00">    </text>
<text text-anchor="start" x="1151.33" y="-963.8" font-family="Arial" font-size="14.00" fill="#666666">[BASE TABLE]</text>
<polygon fill="none" stroke="black" points="1003.75,-919.6 1003.75,-950.4 1251.7,-950.4 1251.7,-919.6 1003.75,-919.6"/>
<text text-anchor="start" x="1010.75" y="-931.8" font-family="Arial" font-size="14.00">model_key </text>
<text text-anchor="start" x="1082.34" y="-931.8" font-family="Arial" font-size="14.00" fill="#666666">[text]</text>
<polygon fill="none" stroke="black" points="1003.75,-888.8 1003.75,-919.6 1251.7,-919.6 1251.7,-888.8 1003.75,-888.8"/>
<text text-anchor="start" x="1010.75" y="-901" font-family="Arial" font-size="14.00">attribute_key </text>
<text text-anchor="start" x="1094.79" y="-901" font-family="Arial" font-size="14.00" fill="#666666">[text]</text>
<polygon fill="none" stroke="black" points="1003.75,-858 1003.75,-888.8 1251.7,-888.8 1251.7,-858 1003.75,-858"/>
<text text-anchor="start" x="1010.75" y="-870.2" font-family="Arial" font-size="14.00">class_key </text>
<text text-anchor="start" x="1076.1" y="-870.2" font-family="Arial" font-size="14.00" fill="#666666">[text]</text>
<polygon fill="none" stroke="black" points="1003.75,-827.2 1003.75,-858 1251.7,-858 1251.7,-827.2 1003.75,-827.2"/>
<text text-anchor="start" x="1010.75" y="-839.4" font-family="Arial" font-size="14.00">name </text>
<text text-anchor="start" x="1049.66" y="-839.4" font-family="Arial" font-size="14.00" fill="#666666">[text]</text>
<polygon fill="none" stroke="black" points="1003.75,-796.4 1003.75,-827.2 1251.7,-827.2 1251.7,-796.4 1003.75,-796.4"/>
<text text-anchor="start" x="1010.75" y="-808.6" font-family="Arial" font-size="14.00">details </text>
<text text-anchor="start" x="1055.1" y="-808.6" font-family="Arial" font-size="14.00" fill="#666666">[text]</text>
<polygon fill="none" stroke="black" points="1003.75,-765.6 1003.75,-796.4 1251.7,-796.4 1251.7,-765.6 1003.75,-765.6"/>
<text text-anchor="start" x="1010.75" y="-777.8" font-family="Arial" font-size="14.00">data_type_rules </text>
<text text-anchor="start" x="1114.26" y="-777.8" font-family="Arial" font-size="14.00" fill="#666666">[text]</text>
<polygon fill="none" stroke="black" points="1003.75,-734.8 1003.75,-765.6 1251.7,-765.6 1251.7,-734.8 1003.75,-734.8"/>
<text text-anchor="start" x="1010.75" y="-747" font-family="Arial" font-size="14.00">data_type_key </text>
<text text-anchor="start" x="1105.7" y="-747" font-family="Arial" font-size="14.00" fill="#666666">[text]</text>
<polygon fill="none" stroke="black" points="1003.75,-704 1003.75,-734.8 1251.7,-734.8 1251.7,-704 1003.75,-704"/>
<text text-anchor="start" x="1010.75" y="-716.2" font-family="Arial" font-size="14.00">derivation_policy_key </text>
<text text-anchor="start" x="1148.49" y="-716.2" font-family="Arial" font-size="14.00" fill="#666666">[text]</text>
<polygon fill="none" stroke="black" points="1003.75,-673.2 1003.75,-704 1251.7,-704 1251.7,-673.2 1003.75,-673.2"/>
<text text-anchor="start" x="1010.75" y="-685.4" font-family="Arial" font-size="14.00">nullable </text>
<text text-anchor="start" x="1062.9" y="-685.4" font-family="Arial" font-size="14.00" fill="#666666">[boolean]</text>
<polygon fill="none" stroke="black" points="1003.75,-642.4 1003.75,-673.2 1251.7,-673.2 1251.7,-642.4 1003.75,-642.4"/>
<text text-anchor="start" x="1010.75" y="-654.6" font-family="Arial" font-size="14.00">uml_comment </text>
<text text-anchor="start" x="1102.55" y="-654.6" font-family="Arial" font-size="14.00" fill="#666666">[text]</text>
</g>
<!-- public.attribute&#45;&gt;public.logic -->
<g id="edge3" class="edge">
<title>public.attribute:model_key&#45;&gt;public.logic:model_key</title>
<path fill="none" stroke="black" d="M1262.71,-933.05C1321.11,-908.17 1255.14,-652.06 1303.73,-599.2 1409.65,-483.96 1832.21,-435.2 1988.74,-435.2"/>
<polygon fill="black" stroke="black" points="1262.85,-933.03 1252.17,-930.52 1257.61,-934.05 1253.36,-934.87 1253.36,-934.87 1253.36,-934.87 1257.61,-934.05 1253.89,-939.35 1262.85,-933.03"/>
<text text-anchor="start" x="1259.7" y="-945" font-family="Arial" font-size="10.00">FOREIGN KEY (model_key, derivation_policy_key) REFERENCES logic(model_key, logic_key) ON DELETE CASCADE</text>
</g>
<!-- public.class_invariant -->
<g id="node5" class="node">
<title>public.class_invariant</title>
<polygon fill="#efefef" stroke="none" points="1355.75,-842.6 1355.75,-878.2 1651.7,-878.2 1651.7,-842.6 1355.75,-842.6"/>
<polygon fill="none" stroke="black" points="1355.75,-842.6 1355.75,-878.2 1651.7,-878.2 1651.7,-842.6 1355.75,-842.6"/>
<text text-anchor="start" x="1362.75" y="-856" font-family="Arial Bold" font-size="18.00">public.class_invariant</text>
<text text-anchor="start" x="1520.21" y="-856" font-family="Arial" font-size="14.00">    </text>
<text text-anchor="start" x="1551.33" y="-856" font-family="Arial" font-size="14.00" fill="#666666">[BASE TABLE]</text>
<polygon fill="none" stroke="black" points="1355.75,-811.8 1355.75,-842.6 1651.7,-842.6 1651.7,-811.8 1355.75,-811.8"/>
<text text-anchor="start" x="1362.75" y="-824" font-family="Arial" font-size="14.00">model_key </text>
<text text-anchor="start" x="1434.35" y="-824" font-family="Arial" font-size="14.00" fill="#666666">[text]</text>
<polygon fill="none" stroke="black" points="1355.75,-781 1355.75,-811.8 1651.7,-811.8 1651.7,-781 1355.75,-781"/>
<text text-anchor="start" x="1362.75" y="-793.2" font-family="Arial" font-size="14.00">class_key </text>
<text text-anchor="start" x="1428.11" y="-793.2" font-family="Arial" font-size="14.00" fill="#666666">[text]</text>
<polygon fill="none" stroke="black" points="1355.75,-750.2 1355.75,-781 1651.7,-781 1651.7,-750.2 1355.75,-750.2"/>
<text text-anchor="start" x="1362.75" y="-762.4" font-family="Arial" font-size="14.00">logic_key </text>
<text text-anchor="start" x="1425.01" y="-762.4" font-family="Arial" font-size="14.00" fill="#666666">[text]</text>
</g>
<!-- public.class_invariant&#45;&gt;public.logic -->
<g id="edge4" class="edge">
<title>public.class_invariant:model_key&#45;&gt;public.logic:model_key</title>
<path fill="none" stroke="black" d="M1663.12,-826.64C1748.5,-816.85 1644.4,-679.81 1703.73,-599.2 1790.35,-481.49 1842.59,-435.2 1988.74,-435.2"/>
<polygon fill="black" stroke="black" points="1663.02,-826.65 1652.79,-822.69 1657.69,-826.93 1653.37,-827.16 1653.37,-827.16 1653.37,-827.16 1657.69,-826.93 1653.27,-831.68 1663.02,-826.65"/>
<text text-anchor="start" x="1164.99" y="-837.2" font-family="Arial" font-size="10.00">FOREIGN KEY (model_key, logic_key) REFERENCES logic(model_key, logic_key) ON DELETE CASCADE</text>
</g>
<!-- public.query_require -->
<g id="node6" class="node">
<title>public.query_require</title>
<polygon fill="#efefef" stroke="none" points="1756.26,-842.6 1756.26,-878.2 2045.19,-878.2 2045.19,-842.6 1756.26,-842.6"/>
<polygon fill="none" stroke="black" points="1756.26,-842.6 1756.26,-878.2 2045.19,-878.2 2045.19,-842.6 1756.26,-842.6"/>
<text text-anchor="start" x="1763.26" y="-856" font-family="Arial Bold" font-size="18.00">public.query_require</text>
<text text-anchor="start" x="1913.7" y="-856" font-family="Arial" font-size="14.00">    </text>
<text text-anchor="start" x="1944.82" y="-856" font-family="Arial" font-size="14.00" fill="#666666">[BASE TABLE]</text>
<polygon fill="none" stroke="black" points="1756.26,-811.8 1756.26,-842.6 2045.19,-842.6 2045.19,-811.8 1756.26,-811.8"/>
<text text-anchor="start" x="1763.26" y="-824" font-family="Arial" font-size="14.00">model_key </text>
<text text-anchor="start" x="1834.85" y="-824" font-family="Arial" font-size="14.00" fill="#666666">[text]</text>
<polygon fill="none" stroke="black" points="1756.26,-781 1756.26,-811.8 2045.19,-811.8 2045.19,-781 1756.26,-781"/>
<text text-anchor="start" x="1763.26" y="-793.2" font-family="Arial" font-size="14.00">query_key </text>
<text text-anchor="start" x="1831.74" y="-793.2" font-family="Arial" font-size="14.00" fill="#666666">[text]</text>
<polygon fill="none" stroke="black" points="1756.26,-750.2 1756.26,-781 2045.19,-781 2045.19,-750.2 1756.26,-750.2"/>
<text text-anchor="start" x="1763.26" y="-762.4" font-family="Arial" font-size="14.00">logic_key </text>
<text text-anchor="start" x="1825.51" y="-762.4" font-family="Arial" font-size="14.00" fill="#666666">[text]</text>
</g>
<!-- public.query_require&#45;&gt;public.logic -->
<g id="edge5" class="edge">
<title>public.query_require:model_key&#45;&gt;public.logic:model_key</title>
<path fill="none" stroke="black" d="M2056.3,-826.71C2205.72,-811.29 1816.27,-435.2 1988.74,-435.2"/>
<polygon fill="black" stroke="black" points="2056.51,-826.7 2046.31,-822.69 2051.19,-826.96 2046.86,-827.17 2046.86,-827.17 2046.86,-827.17 2051.19,-826.96 2046.74,-831.68 2056.51,-826.7"/>
<text text-anchor="start" x="1805.84" y="-811.2" font-family="Arial" font-size="10.00">FOREIGN KEY (model_key, logic_key) REFERENCES logic(model_key, logic_key) ON DELETE CASCADE</text>
</g>
<!-- public.query_guarantee -->
<g id="node7" class="node">
<title>public.query_guarantee</title>
<polygon fill="#efefef" stroke="none" points="2149.77,-842.6 2149.77,-878.2 2457.68,-878.2 2457.68,-842.6 2149.77,-842.6"/>
<polygon fill="none" stroke="black" points="2149.77,-842.6 2149.77,-878.2 2457.68,-878.2 2457.68,-842.6 2149.77,-842.6"/>
<text text-anchor="start" x="2156.77" y="-856" font-family="Arial Bold" font-size="18.00">public.query_guarantee</text>
<text text-anchor="start" x="2326.19" y="-856" font-family="Arial" font-size="14.00">    </text>
<text text-anchor="start" x="2357.31" y="-856" font-family="Arial" font-size="14.00" fill="#666666">[BASE TABLE]</text>
<polygon fill="none" stroke="black" points="2149.77,-811.8 2149.77,-842.6 2457.68,-842.6 2457.68,-811.8 2149.77,-811.8"/>
<text text-anchor="start" x="2156.77" y="-824" font-family="Arial" font-size="14.00">model_key </text>
<text text-anchor="start" x="2228.36" y="-824" font-family="Arial" font-size="14.00" fill="#666666">[text]</text>
<polygon fill="none" stroke="black" points="2149.77,-781 2149.77,-811.8 2457.68,-811.8 2457.68,-781 2149.77,-781"/>
<text text-anchor="start" x="2156.77" y="-793.2" font-family="Arial" font-size="14.00">query_key </text>
<text text-anchor="start" x="2225.25" y="-793.2" font-family="Arial" font-size="14.00" fill="#666666">[text]</text>
<polygon fill="none" stroke="black" points="2149.77,-750.2 2149.77,-781 2457.68,-781 2457.68,-750.2 2149.77,-750.2"/>
<text text-anchor="start" x="2156.77" y="-762.4" font-family="Arial" font-size="14.00">logic_key </text>
<text text-anchor="start" x="2219.02" y="-762.4" font-family="Arial" font-size="14.00" fill="#666666">[text]</text>
</g>
<!-- public.query_guarantee&#45;&gt;public.logic -->
<g id="edge6" class="edge">
<title>public.query_guarantee:model_key&#45;&gt;public.logic:model_key</title>
<path fill="none" stroke="black" d="M2138.64,-826.71C1989.04,-811.29 2387.76,-435.2 2214.71,-435.2"/>
<polygon fill="black" stroke="black" points="2138.44,-826.7 2148.22,-831.68 2143.77,-826.96 2148.1,-827.17 2148.1,-827.17 2148.1,-827.17 2143.77,-826.96 2148.65,-822.69 2138.44,-826.7"/>
<text text-anchor="start" x="2155.77" y="-837.2" font-family="Arial" font-size="10.00">FOREIGN KEY (model_key, logic_key) REFERENCES logic(model_key, logic_key) ON DELETE CASCADE</text>
</g>
<!-- public.guard -->
<g id="node8" class="node">
<title>public.guard</title>
<polygon fill="#efefef" stroke="none" points="2562.24,-858 2562.24,-893.6 2791.21,-893.6 2791.21,-858 2562.24,-858"/>
<polygon fill="none" stroke="black" points="2562.24,-858 2562.24,-893.6 2791.21,-893.6 2791.21,-858 2562.24,-858"/>
<text text-anchor="start" x="2569.24" y="-871.4" font-family="Arial Bold" font-size="18.00">public.guard</text>
<text text-anchor="start" x="2659.72" y="-871.4" font-family="Arial" font-size="14.00">    </text>
<text text-anchor="start" x="2690.83" y="-871.4" font-family="Arial" font-size="14.00" fill="#666666">[BASE TABLE]</text>
<polygon fill="none" stroke="black" points="2562.24,-827.2 2562.24,-858 2791.21,-858 2791.21,-827.2 2562.24,-827.2"/>
<text text-anchor="start" x="2569.24" y="-839.4" font-family="Arial" font-size="14.00">model_key </text>
<text text-anchor="start" x="2640.84" y="-839.4" font-family="Arial" font-size="14.00" fill="#666666">[text]</text>
<polygon fill="none" stroke="black" points="2562.24,-796.4 2562.24,-827.2 2791.21,-827.2 2791.21,-796.4 2562.24,-796.4"/>
<text text-anchor="start" x="2569.24" y="-808.6" font-family="Arial" font-size="14.00">class_key </text>
<text text-anchor="start" x="2634.6" y="-808.6" font-family="Arial" font-size="14.00" fill="#666666">[text]</text>
<polygon fill="none" stroke="black" points="2562.24,-765.6 2562.24,-796.4 2791.21,-796.4 2791.21,-765.6 2562.24,-765.6"/>
<text text-anchor="start" x="2569.24" y="-777.8" font-family="Arial" font-size="14.00">guard_key </text>
<text text-anchor="start" x="2638.51" y="-777.8" font-family="Arial" font-size="14.00" fill="#666666">[text]</text>
<polygon fill="none" stroke="black" points="2562.24,-734.8 2562.24,-765.6 2791.21,-765.6 2791.21,-734.8 2562.24,-734.8"/>
<text text-anchor="start" x="2569.24" y="-747" font-family="Arial" font-size="14.00">name </text>
<text text-anchor="start" x="2608.15" y="-747" font-family="Arial" font-size="14.00" fill="#666666">[text]</text>
</g>
<!-- public.guard&#45;&gt;public.logic -->
<g id="edge7" class="edge">
<title>public.guard:model_key&#45;&gt;public.logic:model_key</title>
<path fill="none" stroke="black" d="M2550.99,-842.1C2458.74,-832.42 2573.22,-685.2 2509.73,-599.2 2420.62,-478.52 2364.73,-435.2 2214.71,-435.2"/>
<polygon fill="black" stroke="black" points="2550.92,-842.09 2560.69,-847.08 2556.25,-842.36 2560.58,-842.57 2560.58,-842.57 2560.58,-842.57 2556.25,-842.36 2561.13,-838.09 2550.92,-842.09"/>
<text text-anchor="start" x="2568.24" y="-852.6" font-family="Arial" font-size="10.00">FOREIGN KEY (model_key, guard_key) REFERENCES logic(model_key, logic_key) ON DELETE CASCADE</text>
</g>
<!-- public.action_require -->
<g id="node9" class="node">
<title>public.action_require</title>
<polygon fill="#efefef" stroke="none" points="2895.76,-842.6 2895.76,-878.2 3187.69,-878.2 3187.69,-842.6 2895.76,-842.6"/>
<polygon fill="none" stroke="black" points="2895.76,-842.6 2895.76,-878.2 3187.69,-878.2 3187.69,-842.6 2895.76,-842.6"/>
<text text-anchor="start" x="2902.76" y="-856" font-family="Arial Bold" font-size="18.00">public.action_require</text>
<text text-anchor="start" x="3056.2" y="-856" font-family="Arial" font-size="14.00">    </text>
<text text-anchor="start" x="3087.32" y="-856" font-family="Arial" font-size="14.00" fill="#666666">[BASE TABLE]</text>
<polygon fill="none" stroke="black" points="2895.76,-811.8 2895.76,-842.6 3187.69,-842.6 3187.69,-811.8 2895.76,-811.8"/>
<text text-anchor="start" x="2902.76" y="-824" font-family="Arial" font-size="14.00">model_key </text>
<text text-anchor="start" x="2974.35" y="-824" font-family="Arial" font-size="14.00" fill="#666666">[text]</text>
<polygon fill="none" stroke="black" points="2895.76,-781 2895.76,-811.8 3187.69,-811.8 3187.69,-781 2895.76,-781"/>
<text text-anchor="start" x="2902.76" y="-793.2" font-family="Arial" font-size="14.00">action_key </text>
<text text-anchor="start" x="2973.58" y="-793.2" font-family="Arial" font-size="14.00" fill="#666666">[text]</text>
<polygon fill="none" stroke="black" points="2895.76,-750.2 2895.76,-781 3187.69,-781 3187.69,-750.2 2895.76,-750.2"/>
<text text-anchor="start" x="2902.76" y="-762.4" font-family="Arial" font-size="14.00">logic_key </text>
<text text-anchor="start" x="2965.02" y="-762.4" font-family="Arial" font-size="14.00" fill="#666666">[text]</text>
</g>
<!-- public.action_require&#45;&gt;public.logic -->
<g id="edge8" class="edge">
<title>public.action_require:model_key&#45;&gt;public.logic:model_key</title>
<path fill="none" stroke="black" d="M2884.38,-826.61C2799.69,-816.22 2913.26,-671.2 2843.73,-599.2 2743.38,-495.29 2359.16,-435.2 2214.71,-435.2"/>
<polygon fill="black" stroke="black" points="2884.44,-826.61 2894.17,-831.67 2889.77,-826.92 2894.09,-827.16 2894.09,-827.16 2894.09,-827.16 2889.77,-826.92 2894.68,-822.69 2884.44,-826.61"/>
<text text-anchor="start" x="2654.41" y="-811.2" font-family="Arial" font-size="10.00">FOREIGN KEY (model_key, logic_key) REFERENCES logic(model_key, logic_key) ON DELETE CASCADE</text>
</g>
<!-- public.action_guarantee -->
<g id="node10" class="node">
<title>public.action_guarantee</title>
<polygon fill="#efefef" stroke="none" points="3292.27,-842.6 3292.27,-878.2 3603.18,-878.2 3603.18,-842.6 3292.27,-842.6"/>
<polygon fill="none" stroke="black" points="3292.27,-842.6 3292.27,-878.2 3603.18,-878.2 3603.18,-842.6 3292.27,-842.6"/>
<text text-anchor="start" x="3299.27" y="-856" font-family="Arial Bold" font-size="18.00">public.action_guarantee</text>
<text text-anchor="start" x="3471.69" y="-856" font-family="Arial" font-size="14.00">    </text>
<text text-anchor="start" x="3502.81" y="-856" font-family="Arial" font-size="14.00" fill="#666666">[BASE TABLE]</text>
<polygon fill="none" stroke="black" points="3292.27,-811.8 3292.27,-842.6 3603.18,-842.6 3603.18,-811.8 3292.27,-811.8"/>
<text text-anchor="start" x="3299.27" y="-824" font-family="Arial" font-size="14.00">model_key </text>
<text text-anchor="start" x="3370.86" y="-824" font-family="Arial" font-size="14.00" fill="#666666">[text]</text>
<polygon fill="none" stroke="black" points="3292.27,-781 3292.27,-811.8 3603.18,-811.8 3603.18,-781 3292.27,-781"/>
<text text-anchor="start" x="3299.27" y="-793.2" font-family="Arial" font-size="14.00">action_key </text>
<text text-anchor="start" x="3370.09" y="-793.2" font-family="Arial" font-size="14.00" fill="#666666">[text]</text>
<polygon fill="none" stroke="black" points="3292.27,-750.2 3292.27,-781 3603.18,-781 3603.18,-750.2 3292.27,-750.2"/>
<text text-anchor="start" x="3299.27" y="-762.4" font-family="Arial" font-size="14.00">logic_key </text>
<text text-anchor="start" x="3361.52" y="-762.4" font-family="Arial" font-size="14.00" fill="#666666">[text]</text>
</g>
<!-- public.action_guarantee&#45;&gt;public.logic -->
<g id="edge9" class="edge">
<title>public.action_guarantee:model_key&#45;&gt;public.logic:model_key</title>
<path fill="none" stroke="black" d="M3280.9,-826.6C3196.37,-815.97 3312.75,-667.72 3239.73,-599.2 3071.5,-441.36 2445.39,-435.2 2214.71,-435.2"/>
<polygon fill="black" stroke="black" points="3280.95,-826.6 3290.67,-831.67 3286.28,-826.91 3290.6,-827.16 3290.6,-827.16 3290.6,-827.16 3286.28,-826.91 3291.2,-822.69 3280.95,-826.6"/>
<text text-anchor="start" x="2803.57" y="-837.2" font-family="Arial" font-size="10.00">FOREIGN KEY (model_key, logic_key) REFERENCES logic(model_key, logic_key) ON DELETE CASCADE</text>
</g>
<!-- public.action_safety -->
<g id="node11" class="node">
<title>public.action_safety</title>
<polygon fill="#efefef" stroke="none" points="3707.76,-842.6 3707.76,-878.2 3991.69,-878.2 3991.69,-842.6 3707.76,-842.6"/>
<polygon fill="none" stroke="black" points="3707.76,-842.6 3707.76,-878.2 3991.69,-878.2 3991.69,-842.6 3707.76,-842.6"/>
<text text-anchor="start" x="3714.76" y="-856" font-family="Arial Bold" font-size="18.00">public.action_safety</text>
<text text-anchor="start" x="3860.21" y="-856" font-family="Arial" font-size="14.00">    </text>
<text text-anchor="start" x="3891.32" y="-856" font-family="Arial" font-size="14.00" fill="#666666">[BASE TABLE]</text>
<polygon fill="none" stroke="black" points="3707.76,-811.8 3707.76,-842.6 3991.69,-842.6 3991.69,-811.8 3707.76,-811.8"/>
<text text-anchor="start" x="3714.76" y="-824" font-family="Arial" font-size="14.00">model_key </text>
<text text-anchor="start" x="3786.35" y="-824" font-family="Arial" font-size="14.00" fill="#666666">[text]</text>
<polygon fill="none" stroke="black" points="3707.76,-781 3707.76,-811.8 3991.69,-811.8 3991.69,-781 3707.76,-781"/>
<text text-anchor="start" x="3714.76" y="-793.2" font-family="Arial" font-size="14.00">action_key </text>
<text text-anchor="start" x="3785.58" y="-793.2" font-family="Arial" font-size="14.00" fill="#666666">[text]</text>
<polygon fill="none" stroke="black" points="3707.76,-750.2 3707.76,-781 3991.69,-781 3991.69,-750.2 3707.76,-750.2"/>
<text text-anchor="start" x="3714.76" y="-762.4" font-family="Arial" font-size="14.00">logic_key </text>
<text text-anchor="start" x="3777.01" y="-762.4" font-family="Arial" font-size="14.00" fill="#666666">[text]</text>
</g>
<!-- public.action_safety&#45;&gt;public.logic -->
<g id="edge10" class="edge">
<title>public.action_safety:model_key&#45;&gt;public.logic:model_key</title>
<path fill="none" stroke="black" d="M3696.39,-826.59C3612.04,-815.86 3730.18,-666.09 3655.73,-599.2 3535.85,-491.5 2375.86,-435.2 2214.71,-435.2"/>
<polygon fill="black" stroke="black" points="3696.44,-826.59 3706.16,-831.67 3701.76,-826.91 3706.09,-827.16 3706.09,-827.16 3706.09,-827.16 3701.76,-826.91 3706.69,-822.69 3696.44,-826.59"/>
<text text-anchor="start" x="3713.76" y="-837.2" font-family="Arial" font-size="10.00">FOREIGN KEY (model_key, logic_key) REFERENCES logic(model_key, logic_key) ON DELETE CASCADE</text>
</g>
</g>
</svg>
