<?xml version="1.0" encoding="UTF-8" standalone="no"?>
<!DOCTYPE svg PUBLIC "-//W3C//DTD SVG 1.1//EN"
 "http://www.w3.org/Graphics/SVG/1.1/DTD/svg11.dtd">
<!-- Generated by graphviz version 12.1.2 (20240928.0832)
 -->
<!-- Title: public.query_require Pages: 1 -->
<svg width="1302pt" height="633pt"
 viewBox="0.00 0.00 1301.68 632.80" xmlns="http://www.w3.org/2000/svg" xmlns:xlink="http://www.w3.org/1999/xlink">
<g id="graph0" class="graph" transform="scale(1 1) rotate(0) translate(4 628.8)">
<title>public.query_require</title>
<polygon fill="white" stroke="none" points="-4,4 -4,-628.8 1297.68,-628.8 1297.68,4 -4,4"/>
<!-- public.query_require -->
<g id="node1" class="node">
<title>public.query_require</title>
<polygon fill="#efefef" stroke="none" points="495.7,-543 495.7,-578.6 784.63,-578.6 784.63,-543 495.7,-543"/>
<polygon fill="none" stroke="black" points="495.7,-543 495.7,-578.6 784.63,-578.6 784.63,-543 495.7,-543"/>
<text text-anchor="start" x="502.7" y="-556.4" font-family="Arial Bold" font-size="18.00">public.query_require</text>
<text text-anchor="start" x="653.15" y="-556.4" font-family="Arial" font-size="14.00">    </text>
<text text-anchor="start" x="684.26" y="-556.4" font-family="Arial" font-size="14.00" fill="#666666">[BASE TABLE]</text>
<polygon fill="none" stroke="black" points="495.7,-512.2 495.7,-543 784.63,-543 784.63,-512.2 495.7,-512.2"/>
<text text-anchor="start" x="502.7" y="-524.4" font-family="Arial" font-size="14.00">model_key </text>
<text text-anchor="start" x="574.3" y="-524.4" font-family="Arial" font-size="14.00" fill="#666666">[text]</text>
<polygon fill="none" stroke="black" points="495.7,-481.4 495.7,-512.2 784.63,-512.2 784.63,-481.4 495.7,-481.4"/>
<text text-anchor="start" x="502.7" y="-493.6" font-family="Arial" font-size="14.00">query_key </text>
<text text-anchor="start" x="571.19" y="-493.6" font-family="Arial" font-size="14.00" fill="#666666">[text]</text>
<polygon fill="none" stroke="black" points="495.7,-450.6 495.7,-481.4 784.63,-481.4 784.63,-450.6 495.7,-450.6"/>
<text text-anchor="start" x="502.7" y="-462.8" font-family="Arial" font-size="14.00">logic_key </text>
<text text-anchor="start" x="564.96" y="-462.8" font-family="Arial" font-size="14.00" fill="#666666">[text]</text>
<polygon fill="none" stroke="black" stroke-width="3" points="494.2,-449.1 494.2,-580.1 786.13,-580.1 786.13,-449.1 494.2,-449.1"/>
</g>
<!-- public.logic -->
<g id="node2" class="node">
<title>public.logic</title>
<polygon fill="#efefef" stroke="none" points="363.18,-289.6 363.18,-325.2 587.15,-325.2 587.15,-289.6 363.18,-289.6"/>
<polygon fill="none" stroke="black" points="363.18,-289.6 363.18,-325.2 587.15,-325.2 587.15,-289.6 363.18,-289.6"/>
<text text-anchor="start" x="370.18" y="-303" font-family="Arial Bold" font-size="18.00">public.logic</text>
<text text-anchor="start" x="455.67" y="-303" font-family="Arial" font-size="14.00">    </text>
<text text-anchor="start" x="486.78" y="-303" font-family="Arial" font-size="14.00" fill="#666666">[BASE TABLE]</text>
<polygon fill="none" stroke="black" points="363.18,-258.8 363.18,-289.6 587.15,-289.6 587.15,-258.8 363.18,-258.8"/>
<text text-anchor="start" x="370.18" y="-271" font-family="Arial" font-size="14.00">logic_key </text>
<text text-anchor="start" x="432.44" y="-271" font-family="Arial" font-size="14.00" fill="#666666">[text]</text>
<polygon fill="none" stroke="black" points="363.18,-228 363.18,-258.8 587.15,-258.8 587.15,-228 363.18,-228"/>
<text text-anchor="start" x="370.18" y="-240.2" font-family="Arial" font-size="14.00">model_key </text>
<text text-anchor="start" x="441.78" y="-240.2" font-family="Arial" font-size="14.00" fill="#666666">[text]</text>
<polygon fill="none" stroke="black" points="363.18,-197.2 363.18,-228 587.15,-228 587.15,-197.2 363.18,-197.2"/>
<text text-anchor="start" x="370.18" y="-209.4" font-family="Arial" font-size="14.00">sort_order </text>
<text text-anchor="start" x="437.88" y="-209.4" font-family="Arial" font-size="14.00" fill="#666666">[integer]</text>
<polygon fill="none" stroke="black" points="363.18,-166.4 363.18,-197.2 587.15,-197.2 587.15,-166.4 363.18,-166.4"/>
<text text-anchor="start" x="370.18" y="-178.6" font-family="Arial" font-size="14.00">logic_type </text>
<text text-anchor="start" x="437.11" y="-178.6" font-family="Arial" font-size="14.00" fill="#666666">[logic_type]</text>
<polygon fill="none" stroke="black" points="363.18,-135.6 363.18,-166.4 587.15,-166.4 587.15,-135.6 363.18,-135.6"/>
<text text-anchor="start" x="370.18" y="-147.8" font-family="Arial" font-size="14.00">description </text>
<text text-anchor="start" x="441.78" y="-147.8" font-family="Arial" font-size="14.00" fill="#666666">[text]</text>
<polygon fill="none" stroke="black" points="363.18,-104.8 363.18,-135.6 587.15,-135.6 587.15,-104.8 363.18,-104.8"/>
<text text-anchor="start" x="370.18" y="-117" font-family="Arial" font-size="14.00">target </text>
<text text-anchor="start" x="409.87" y="-117" font-family="Arial" font-size="14.00" fill="#666666">[text]</text>
<polygon fill="none" stroke="black" points="363.18,-74 363.18,-104.8 587.15,-104.8 587.15,-74 363.18,-74"/>
<text text-anchor="start" x="370.18" y="-86.2" font-family="Arial" font-size="14.00">notation </text>
<text text-anchor="start" x="423.89" y="-86.2" font-family="Arial" font-size="14.00" fill="#666666">[notation]</text>
<polygon fill="none" stroke="black" points="363.18,-43.2 363.18,-74 587.15,-74 587.15,-43.2 363.18,-43.2"/>
<text text-anchor="start" x="370.18" y="-55.4" font-family="Arial" font-size="14.00">specification </text>
<text text-anchor="start" x="451.11" y="-55.4" font-family="Arial" font-size="14.00" fill="#666666">[text]</text>
</g>
<!-- public.query_require&#45;&gt;public.logic -->
<g id="edge1" class="edge">
<title>public.query_require:model_key&#45;&gt;public.logic:model_key</title>
<path fill="none" stroke="black" d="M484.56,-526.54C443.36,-517.08 466.82,-446.45 495.7,-404.4 520.44,-368.4 562.42,-404.4 587.15,-368.4 618.61,-322.61 643.71,-243.4 588.15,-243.4"/>
<polygon fill="black" stroke="black" points="484.42,-526.53 493.9,-532.04 489.73,-527.08 494.04,-527.53 494.04,-527.53 494.04,-527.53 489.73,-527.08 494.84,-523.09 484.42,-526.53"/>
<text text-anchor="start" x="7" y="-537.6" font-family="Arial" font-size="10.00">FOREIGN KEY (model_key, logic_key) REFERENCES logic(model_key, logic_key) ON DELETE CASCADE</text>
</g>
<!-- public.query -->
<g id="node3" class="node">
<title>public.query</title>
<polygon fill="#efefef" stroke="none" points="691.69,-243.4 691.69,-279 920.65,-279 920.65,-243.4 691.69,-243.4"/>
<polygon fill="none" stroke="black" points="691.69,-243.4 691.69,-279 920.65,-279 920.65,-243.4 691.69,-243.4"/>
<text text-anchor="start" x="698.69" y="-256.8" font-family="Arial Bold" font-size="18.00">public.query</text>
<text text-anchor="start" x="789.16" y="-256.8" font-family="Arial" font-size="14.00">    </text>
<text text-anchor="start" x="820.28" y="-256.8" font-family="Arial" font-size="14.00" fill="#666666">[BASE TABLE]</text>
<polygon fill="none" stroke="black" points="691.69,-212.6 691.69,-243.4 920.65,-243.4 920.65,-212.6 691.69,-212.6"/>
<text text-anchor="start" x="698.69" y="-224.8" font-family="Arial" font-size="14.00">model_key </text>
<text text-anchor="start" x="770.28" y="-224.8" font-family="Arial" font-size="14.00" fill="#666666">[text]</text>
<polygon fill="none" stroke="black" points="691.69,-181.8 691.69,-212.6 920.65,-212.6 920.65,-181.8 691.69,-181.8"/>
<text text-anchor="start" x="698.69" y="-194" font-family="Arial" font-size="14.00">class_key </text>
<text text-anchor="start" x="764.05" y="-194" font-family="Arial" font-size="14.00" fill="#666666">[text]</text>
<polygon fill="none" stroke="black" points="691.69,-151 691.69,-181.8 920.65,-181.8 920.65,-151 691.69,-151"/>
<text text-anchor="start" x="698.69" y="-163.2" font-family="Arial" font-size="14.00">query_key </text>
<text text-anchor="start" x="767.17" y="-163.2" font-family="Arial" font-size="14.00" fill="#666666">[text]</text>
<polygon fill="none" stroke="black" points="691.69,-120.2 691.69,-151 920.65,-151 920.65,-120.2 691.69,-120.2"/>
<text text-anchor="start" x="698.69" y="-132.4" font-family="Arial" font-size="14.00">name </text>
<text text-anchor="start" x="737.6" y="-132.4" font-family="Arial" font-size="14.00" fill="#666666">[text]</text>
<polygon fill="none" stroke="black" points="691.69,-89.4 691.69,-120.2 920.65,-120.2 920.65,-89.4 691.69,-89.4"/>
<text text-anchor="start" x="698.69" y="-101.6" font-family="Arial" font-size="14.00">details </text>
<text text-anchor="start" x="743.05" y="-101.6" font-family="Arial" font-size="14.00" fill="#666666">[text]</text>
</g>
<!-- public.query_require&#45;&gt;public.query -->
<g id="edge2" class="edge">
<title>public.query_require:model_key&#45;&gt;public.query:model_key</title>
<path fill="none" stroke="black" d="M795.92,-526.55C835.79,-517.4 805.74,-450.73 784.63,-404.4 761.78,-354.21 714.61,-372.36 691.69,-322.2 674.28,-284.12 648.82,-228 690.69,-228"/>
<polygon fill="black" stroke="black" points="795.92,-526.55 785.51,-523.09 790.61,-527.09 786.3,-527.53 786.3,-527.53 786.3,-527.53 790.61,-527.09 786.43,-532.04 795.92,-526.55"/>
<text text-anchor="start" x="792.63" y="-537.6" font-family="Arial" font-size="10.00">FOREIGN KEY (model_key, query_key) REFERENCES query(model_key, query_key) ON DELETE CASCADE</text>
</g>
</g>
</svg>
