<?xml version="1.0" encoding="UTF-8" standalone="no"?>
<!DOCTYPE svg PUBLIC "-//W3C//DTD SVG 1.1//EN"
 "http://www.w3.org/Graphics/SVG/1.1/DTD/svg11.dtd">
<!-- Generated by graphviz version 12.1.2 (20240928.0832)
 -->
<!-- Title: public.global_function Pages: 1 -->
<svg width="852pt" height="756pt"
 viewBox="0.00 0.00 851.86 756.00" xmlns="http://www.w3.org/2000/svg" xmlns:xlink="http://www.w3.org/1999/xlink">
<g id="graph0" class="graph" transform="scale(1 1) rotate(0) translate(4 752)">
<title>public.global_function</title>
<polygon fill="white" stroke="none" points="-4,4 -4,-752 847.86,-752 847.86,4 -4,4"/>
<!-- public.global_function -->
<g id="node1" class="node">
<title>public.global_function</title>
<polygon fill="#efefef" stroke="none" points="46.2,-666.2 46.2,-701.8 348.16,-701.8 348.16,-666.2 46.2,-666.2"/>
<polygon fill="none" stroke="black" points="46.2,-666.2 46.2,-701.8 348.16,-701.8 348.16,-666.2 46.2,-666.2"/>
<text text-anchor="start" x="53.2" y="-679.6" font-family="Arial Bold" font-size="18.00">public.global_function</text>
<text text-anchor="start" x="216.67" y="-679.6" font-family="Arial" font-size="14.00">    </text>
<text text-anchor="start" x="247.78" y="-679.6" font-family="Arial" font-size="14.00" fill="#666666">[BASE TABLE]</text>
<polygon fill="none" stroke="black" points="46.2,-635.4 46.2,-666.2 348.16,-666.2 348.16,-635.4 46.2,-635.4"/>
<text text-anchor="start" x="53.2" y="-647.6" font-family="Arial" font-size="14.00">model_key </text>
<text text-anchor="start" x="124.79" y="-647.6" font-family="Arial" font-size="14.00" fill="#666666">[text]</text>
<polygon fill="none" stroke="black" points="46.2,-604.6 46.2,-635.4 348.16,-635.4 348.16,-604.6 46.2,-604.6"/>
<text text-anchor="start" x="53.2" y="-616.8" font-family="Arial" font-size="14.00">logic_key </text>
<text text-anchor="start" x="115.45" y="-616.8" font-family="Arial" font-size="14.00" fill="#666666">[text]</text>
<polygon fill="none" stroke="black" points="46.2,-573.8 46.2,-604.6 348.16,-604.6 348.16,-573.8 46.2,-573.8"/>
<text text-anchor="start" x="53.2" y="-586" font-family="Arial" font-size="14.00">name </text>
<text text-anchor="start" x="92.11" y="-586" font-family="Arial" font-size="14.00" fill="#666666">[text]</text>
<polygon fill="none" stroke="black" points="46.2,-543 46.2,-573.8 348.16,-573.8 348.16,-543 46.2,-543"/>
<text text-anchor="start" x="53.2" y="-555.2" font-family="Arial" font-size="14.00">parameters </text>
<text text-anchor="start" x="127.9" y="-555.2" font-family="Arial" font-size="14.00" fill="#666666">[text[]]</text>
<polygon fill="none" stroke="black" stroke-width="3" points="44.7,-541.5 44.7,-703.3 349.66,-703.3 349.66,-541.5 44.7,-541.5"/>
</g>
<!-- public.logic -->
<g id="node2" class="node">
<title>public.logic</title>
<polygon fill="#efefef" stroke="none" points="85.19,-382 85.19,-417.6 309.16,-417.6 309.16,-382 85.19,-382"/>
<polygon fill="none" stroke="black" points="85.19,-382 85.19,-417.6 309.16,-417.6 309.16,-382 85.19,-382"/>
<text text-anchor="start" x="92.19" y="-395.4" font-family="Arial Bold" font-size="18.00">public.logic</text>
<text text-anchor="start" x="177.68" y="-395.4" font-family="Arial" font-size="14.00">    </text>
<text text-anchor="start" x="208.79" y="-395.4" font-family="Arial" font-size="14.00" fill="#666666">[BASE TABLE]</text>
<polygon fill="none" stroke="black" points="85.19,-351.2 85.19,-382 309.16,-382 309.16,-351.2 85.19,-351.2"/>
<text text-anchor="start" x="92.19" y="-363.4" font-family="Arial" font-size="14.00">logic_key </text>
<text text-anchor="start" x="154.45" y="-363.4" font-family="Arial" font-size="14.00" fill="#666666">[text]</text>
<polygon fill="none" stroke="black" points="85.19,-320.4 85.19,-351.2 309.16,-351.2 309.16,-320.4 85.19,-320.4"/>
<text text-anchor="start" x="92.19" y="-332.6" font-family="Arial" font-size="14.00">model_key </text>
<text text-anchor="start" x="163.79" y="-332.6" font-family="Arial" font-size="14.00" fill="#666666">[text]</text>
<polygon fill="none" stroke="black" points="85.19,-289.6 85.19,-320.4 309.16,-320.4 309.16,-289.6 85.19,-289.6"/>
<text text-anchor="start" x="92.19" y="-301.8" font-family="Arial" font-size="14.00">sort_order </text>
<text text-anchor="start" x="159.89" y="-301.8" font-family="Arial" font-size="14.00" fill="#666666">[integer]</text>
<polygon fill="none" stroke="black" points="85.19,-258.8 85.19,-289.6 309.16,-289.6 309.16,-258.8 85.19,-258.8"/>
<text text-anchor="start" x="92.19" y="-271" font-family="Arial" font-size="14.00">logic_type </text>
<text text-anchor="start" x="159.12" y="-271" font-family="Arial" font-size="14.00" fill="#666666">[logic_type]</text>
<polygon fill="none" stroke="black" points="85.19,-228 85.19,-258.8 309.16,-258.8 309.16,-228 85.19,-228"/>
<text text-anchor="start" x="92.19" y="-240.2" font-family="Arial" font-size="14.00">description </text>
<text text-anchor="start" x="163.79" y="-240.2" font-family="Arial" font-size="14.00" fill="#666666">[text]</text>
<polygon fill="none" stroke="black" points="85.19,-197.2 85.19,-228 309.16,-228 309.16,-197.2 85.19,-197.2"/>
<text text-anchor="start" x="92.19" y="-209.4" font-family="Arial" font-size="14.00">target </text>
<text text-anchor="start" x="131.88" y="-209.4" font-family="Arial" font-size="14.00" fill="#666666">[text]</text>
<polygon fill="none" stroke="black" points="85.19,-166.4 85.19,-197.2 309.16,-197.2 309.16,-166.4 85.19,-166.4"/>
<text text-anchor="start" x="92.19" y="-178.6" font-family="Arial" font-size="14.00">notation </text>
<text text-anchor="start" x="145.9" y="-178.6" font-family="Arial" font-size="14.00" fill="#666666">[notation]</text>
<polygon fill="none" stroke="black" points="85.19,-135.6 85.19,-166.4 309.16,-166.4 309.16,-135.6 85.19,-135.6"/>
<text text-anchor="start" x="92.19" y="-147.8" font-family="Arial" font-size="14.00">specification </text>
<text text-anchor="start" x="173.12" y="-147.8" font-family="Arial" font-size="14.00" fill="#666666">[text]</text>
<polygon fill="none" stroke="black" points="85.19,-104.8 85.19,-135.6 309.16,-135.6 309.16,-104.8 85.19,-104.8"/>
<text text-anchor="start" x="92.19" y="-117" font-family="Arial" font-size="14.00">target_type_notation </text>
<text text-anchor="start" x="223.74" y="-117" font-family="Arial" font-size="14.00" fill="#666666">[notation]</text>
<polygon fill="none" stroke="black" points="85.19,-74 85.19,-104.8 309.16,-104.8 309.16,-74 85.19,-74"/>
<text text-anchor="start" x="92.19" y="-86.2" font-family="Arial" font-size="14.00">target_type_specification </text>
<text text-anchor="start" x="250.96" y="-86.2" font-family="Arial" font-size="14.00" fill="#666666">[text]</text>
<polygon fill="none" stroke="black" points="85.19,-43.2 85.19,-74 309.16,-74 309.16,-43.2 85.19,-43.2"/>
<text text-anchor="start" x="92.19" y="-55.4" font-family="Arial" font-size="14.00">destroy_event_specification </text>
<text text-anchor="start" x="268.85" y="-55.4" font-family="Arial" font-size="14.00" fill="#666666">[text]</text>
</g>
<!-- public.global_function&#45;&gt;public.logic -->
<g id="edge1" class="edge">
<title>public.global_function:model_key&#45;&gt;public.logic:model_key</title>
<path fill="none" stroke="black" d="M359.07,-648.45C415.65,-619.62 377.12,-335.8 310.16,-335.8"/>
<polygon fill="black" stroke="black" points="359.21,-648.41 348.44,-646.34 354.02,-649.64 349.81,-650.65 349.81,-650.65 349.81,-650.65 354.02,-649.64 350.52,-655.1 359.21,-648.41"/>
<text text-anchor="start" x="356.16" y="-660.8" font-family="Arial" font-size="10.00">FOREIGN KEY (model_key, logic_key) REFERENCES logic(model_key, logic_key) ON DELETE CASCADE</text>
</g>
</g>
</svg>
