<?xml version="1.0" encoding="UTF-8" standalone="no"?>
<!DOCTYPE svg PUBLIC "-//W3C//DTD SVG 1.1//EN"
 "http://www.w3.org/Graphics/SVG/1.1/DTD/svg11.dtd">
<!-- Generated by graphviz version 12.1.2 (20240928.0832)
 -->
<!-- Title: public.query_parameter Pages: 1 -->
<svg width="1393pt" height="756pt"
 viewBox="0.00 0.00 1392.74 756.00" xmlns="http://www.w3.org/2000/svg" xmlns:xlink="http://www.w3.org/1999/xlink">
<g id="graph0" class="graph" transform="scale(1 1) rotate(0) translate(4 752)">
<title>public.query_parameter</title>
<polygon fill="white" stroke="none" points="-4,4 -4,-752 1388.74,-752 1388.74,4 -4,4"/>
<!-- public.query_parameter -->
<g id="node1" class="node">
<title>public.query_parameter</title>
<polygon fill="#efefef" stroke="none" points="565.78,-666.2 565.78,-701.8 875.69,-701.8 875.69,-666.2 565.78,-666.2"/>
<polygon fill="none" stroke="black" points="565.78,-666.2 565.78,-701.8 875.69,-701.8 875.69,-666.2 565.78,-666.2"/>
<text text-anchor="start" x="572.78" y="-679.6" font-family="Arial Bold" font-size="18.00">public.query_parameter</text>
<text text-anchor="start" x="744.2" y="-679.6" font-family="Arial" font-size="14.00">    </text>
<text text-anchor="start" x="775.32" y="-679.6" font-family="Arial" font-size="14.00" fill="#666666">[BASE TABLE]</text>
<polygon fill="none" stroke="black" points="565.78,-635.4 565.78,-666.2 875.69,-666.2 875.69,-635.4 565.78,-635.4"/>
<text text-anchor="start" x="572.78" y="-647.6" font-family="Arial" font-size="14.00">model_key </text>
<text text-anchor="start" x="644.37" y="-647.6" font-family="Arial" font-size="14.00" fill="#666666">[text]</text>
<polygon fill="none" stroke="black" points="565.78,-604.6 565.78,-635.4 875.69,-635.4 875.69,-604.6 565.78,-604.6"/>
<text text-anchor="start" x="572.78" y="-616.8" font-family="Arial" font-size="14.00">parameter_key </text>
<text text-anchor="start" x="670.05" y="-616.8" font-family="Arial" font-size="14.00" fill="#666666">[text]</text>
<polygon fill="none" stroke="black" points="565.78,-573.8 565.78,-604.6 875.69,-604.6 875.69,-573.8 565.78,-573.8"/>
<text text-anchor="start" x="572.78" y="-586" font-family="Arial" font-size="14.00">query_key </text>
<text text-anchor="start" x="641.26" y="-586" font-family="Arial" font-size="14.00" fill="#666666">[text]</text>
<polygon fill="none" stroke="black" points="565.78,-543 565.78,-573.8 875.69,-573.8 875.69,-543 565.78,-543"/>
<text text-anchor="start" x="572.78" y="-555.2" font-family="Arial" font-size="14.00">data_type_rules </text>
<text text-anchor="start" x="676.3" y="-555.2" font-family="Arial" font-size="14.00" fill="#666666">[text]</text>
<polygon fill="none" stroke="black" points="565.78,-512.2 565.78,-543 875.69,-543 875.69,-512.2 565.78,-512.2"/>
<text text-anchor="start" x="572.78" y="-524.4" font-family="Arial" font-size="14.00">data_type_key </text>
<text text-anchor="start" x="667.74" y="-524.4" font-family="Arial" font-size="14.00" fill="#666666">[text]</text>
<polygon fill="none" stroke="black" points="565.78,-481.4 565.78,-512.2 875.69,-512.2 875.69,-481.4 565.78,-481.4"/>
<text text-anchor="start" x="572.78" y="-493.6" font-family="Arial" font-size="14.00">name </text>
<text text-anchor="start" x="611.69" y="-493.6" font-family="Arial" font-size="14.00" fill="#666666">[text]</text>
<polygon fill="none" stroke="black" points="565.78,-450.6 565.78,-481.4 875.69,-481.4 875.69,-450.6 565.78,-450.6"/>
<text text-anchor="start" x="572.78" y="-462.8" font-family="Arial" font-size="14.00">details </text>
<text text-anchor="start" x="617.14" y="-462.8" font-family="Arial" font-size="14.00" fill="#666666">[text]</text>
<polygon fill="none" stroke="black" points="565.78,-419.8 565.78,-450.6 875.69,-450.6 875.69,-419.8 565.78,-419.8"/>
<text text-anchor="start" x="572.78" y="-432" font-family="Arial" font-size="14.00">uml_comment </text>
<text text-anchor="start" x="664.59" y="-432" font-family="Arial" font-size="14.00" fill="#666666">[text]</text>
<polygon fill="none" stroke="black" stroke-width="3" points="564.28,-418.3 564.28,-703.3 877.19,-703.3 877.19,-418.3 564.28,-418.3"/>
</g>
<!-- public.data_type -->
<g id="node2" class="node">
<title>public.data_type</title>
<polygon fill="#efefef" stroke="none" points="417.76,-243.4 417.76,-279 675.71,-279 675.71,-243.4 417.76,-243.4"/>
<polygon fill="none" stroke="black" points="417.76,-243.4 417.76,-279 675.71,-279 675.71,-243.4 417.76,-243.4"/>
<text text-anchor="start" x="424.76" y="-256.8" font-family="Arial Bold" font-size="18.00">public.data_type</text>
<text text-anchor="start" x="544.22" y="-256.8" font-family="Arial" font-size="14.00">    </text>
<text text-anchor="start" x="575.34" y="-256.8" font-family="Arial" font-size="14.00" fill="#666666">[BASE TABLE]</text>
<polygon fill="none" stroke="black" points="417.76,-212.6 417.76,-243.4 675.71,-243.4 675.71,-212.6 417.76,-212.6"/>
<text text-anchor="start" x="424.76" y="-224.8" font-family="Arial" font-size="14.00">model_key </text>
<text text-anchor="start" x="496.35" y="-224.8" font-family="Arial" font-size="14.00" fill="#666666">[text]</text>
<polygon fill="none" stroke="black" points="417.76,-181.8 417.76,-212.6 675.71,-212.6 675.71,-181.8 417.76,-181.8"/>
<text text-anchor="start" x="424.76" y="-194" font-family="Arial" font-size="14.00">data_type_key </text>
<text text-anchor="start" x="519.72" y="-194" font-family="Arial" font-size="14.00" fill="#666666">[text]</text>
<polygon fill="none" stroke="black" points="417.76,-151 417.76,-181.8 675.71,-181.8 675.71,-151 417.76,-151"/>
<text text-anchor="start" x="424.76" y="-163.2" font-family="Arial" font-size="14.00">collection_type </text>
<text text-anchor="start" x="521.26" y="-163.2" font-family="Arial" font-size="14.00" fill="#666666">[collection_type]</text>
<polygon fill="none" stroke="black" points="417.76,-120.2 417.76,-151 675.71,-151 675.71,-120.2 417.76,-120.2"/>
<text text-anchor="start" x="424.76" y="-132.4" font-family="Arial" font-size="14.00">collection_unique </text>
<text text-anchor="start" x="536.84" y="-132.4" font-family="Arial" font-size="14.00" fill="#666666">[boolean]</text>
<polygon fill="none" stroke="black" points="417.76,-89.4 417.76,-120.2 675.71,-120.2 675.71,-89.4 417.76,-89.4"/>
<text text-anchor="start" x="424.76" y="-101.6" font-family="Arial" font-size="14.00">collection_min </text>
<text text-anchor="start" x="517.36" y="-101.6" font-family="Arial" font-size="14.00" fill="#666666">[bigint]</text>
<polygon fill="none" stroke="black" points="417.76,-58.6 417.76,-89.4 675.71,-89.4 675.71,-58.6 417.76,-58.6"/>
<text text-anchor="start" x="424.76" y="-70.8" font-family="Arial" font-size="14.00">collection_max </text>
<text text-anchor="start" x="521.25" y="-70.8" font-family="Arial" font-size="14.00" fill="#666666">[bigint]</text>
</g>
<!-- public.query_parameter&#45;&gt;public.data_type -->
<g id="edge1" class="edge">
<title>public.query_parameter:model_key&#45;&gt;public.data_type:model_key</title>
<path fill="none" stroke="black" d="M554.41,-650.36C444.98,-640.7 501.4,-474.38 565.78,-373.6 594.82,-328.15 646.52,-367.55 675.71,-322.2 698.38,-287 718.58,-228 676.71,-228"/>
<polygon fill="black" stroke="black" points="554.46,-650.36 564.26,-655.28 559.79,-650.59 564.11,-650.77 564.11,-650.77 564.11,-650.77 559.79,-650.59 564.64,-646.29 554.46,-650.36"/>
<text text-anchor="start" x="7" y="-660.8" font-family="Arial" font-size="10.00">FOREIGN KEY (model_key, data_type_key) REFERENCES data_type(model_key, data_type_key) ON DELETE CASCADE</text>
</g>
<!-- public.query -->
<g id="node3" class="node">
<title>public.query</title>
<polygon fill="#efefef" stroke="none" points="780.25,-258.8 780.25,-294.4 1009.22,-294.4 1009.22,-258.8 780.25,-258.8"/>
<polygon fill="none" stroke="black" points="780.25,-258.8 780.25,-294.4 1009.22,-294.4 1009.22,-258.8 780.25,-258.8"/>
<text text-anchor="start" x="787.25" y="-272.2" font-family="Arial Bold" font-size="18.00">public.query</text>
<text text-anchor="start" x="877.73" y="-272.2" font-family="Arial" font-size="14.00">    </text>
<text text-anchor="start" x="908.85" y="-272.2" font-family="Arial" font-size="14.00" fill="#666666">[BASE TABLE]</text>
<polygon fill="none" stroke="black" points="780.25,-228 780.25,-258.8 1009.22,-258.8 1009.22,-228 780.25,-228"/>
<text text-anchor="start" x="787.25" y="-240.2" font-family="Arial" font-size="14.00">model_key </text>
<text text-anchor="start" x="858.85" y="-240.2" font-family="Arial" font-size="14.00" fill="#666666">[text]</text>
<polygon fill="none" stroke="black" points="780.25,-197.2 780.25,-228 1009.22,-228 1009.22,-197.2 780.25,-197.2"/>
<text text-anchor="start" x="787.25" y="-209.4" font-family="Arial" font-size="14.00">class_key </text>
<text text-anchor="start" x="852.61" y="-209.4" font-family="Arial" font-size="14.00" fill="#666666">[text]</text>
<polygon fill="none" stroke="black" points="780.25,-166.4 780.25,-197.2 1009.22,-197.2 1009.22,-166.4 780.25,-166.4"/>
<text text-anchor="start" x="787.25" y="-178.6" font-family="Arial" font-size="14.00">query_key </text>
<text text-anchor="start" x="855.74" y="-178.6" font-family="Arial" font-size="14.00" fill="#666666">[text]</text>
<polygon fill="none" stroke="black" points="780.25,-135.6 780.25,-166.4 1009.22,-166.4 1009.22,-135.6 780.25,-135.6"/>
<text text-anchor="start" x="787.25" y="-147.8" font-family="Arial" font-size="14.00">name </text>
<text text-anchor="start" x="826.17" y="-147.8" font-family="Arial" font-size="14.00" fill="#666666">[text]</text>
<polygon fill="none" stroke="black" points="780.25,-104.8 780.25,-135.6 1009.22,-135.6 1009.22,-104.8 780.25,-104.8"/>
<text text-anchor="start" x="787.25" y="-117" font-family="Arial" font-size="14.00">details </text>
<text text-anchor="start" x="831.61" y="-117" font-family="Arial" font-size="14.00" fill="#666666">[text]</text>
<polygon fill="none" stroke="black" points="780.25,-74 780.25,-104.8 1009.22,-104.8 1009.22,-74 780.25,-74"/>
<text text-anchor="start" x="787.25" y="-86.2" font-family="Arial" font-size="14.00">requires </text>
<text text-anchor="start" x="841.72" y="-86.2" font-family="Arial" font-size="14.00" fill="#666666">[text[]]</text>
<polygon fill="none" stroke="black" points="780.25,-43.2 780.25,-74 1009.22,-74 1009.22,-43.2 780.25,-43.2"/>
<text text-anchor="start" x="787.25" y="-55.4" font-family="Arial" font-size="14.00">guarantees </text>
<text text-anchor="start" x="861.2" y="-55.4" font-family="Arial" font-size="14.00" fill="#666666">[text[]]</text>
</g>
<!-- public.query_parameter&#45;&gt;public.query -->
<g id="edge2" class="edge">
<title>public.query_parameter:model_key&#45;&gt;public.query:model_key</title>
<path fill="none" stroke="black" d="M887.07,-650.35C996.72,-640.55 943.89,-471.84 875.69,-373.6 849.84,-336.36 806.24,-374.75 780.25,-337.6 756.26,-303.29 737.39,-243.4 779.25,-243.4"/>
<polygon fill="black" stroke="black" points="887.02,-650.36 876.83,-646.29 881.69,-650.58 877.36,-650.77 877.36,-650.77 877.36,-650.77 881.69,-650.58 877.22,-655.28 887.02,-650.36"/>
<text text-anchor="start" x="883.69" y="-660.8" font-family="Arial" font-size="10.00">FOREIGN KEY (model_key, query_key) REFERENCES query(model_key, query_key) ON DELETE CASCADE</text>
</g>
</g>
</svg>
