<?xml version="1.0" encoding="UTF-8" standalone="no"?>
<!DOCTYPE svg PUBLIC "-//W3C//DTD SVG 1.1//EN"
 "http://www.w3.org/Graphics/SVG/1.1/DTD/svg11.dtd">
<!-- Generated by graphviz version 12.1.2 (20240928.0832)
 -->
<!-- Title: public.logic Pages: 1 -->
<svg width="1559pt" height="1006pt"
 viewBox="0.00 0.00 1559.37 1006.40" xmlns="http://www.w3.org/2000/svg" xmlns:xlink="http://www.w3.org/1999/xlink">
<g id="graph0" class="graph" transform="scale(1 1) rotate(0) translate(4 1002.4)">
<title>public.logic</title>
<polygon fill="white" stroke="none" points="-4,4 -4,-1002.4 1555.37,-1002.4 1555.37,4 -4,4"/>
<!-- public.logic -->
<g id="node1" class="node">
<title>public.logic</title>
<polygon fill="#efefef" stroke="none" points="636.74,-450.6 636.74,-486.2 860.71,-486.2 860.71,-450.6 636.74,-450.6"/>
<polygon fill="none" stroke="black" points="636.74,-450.6 636.74,-486.2 860.71,-486.2 860.71,-450.6 636.74,-450.6"/>
<text text-anchor="start" x="643.74" y="-464" font-family="Arial Bold" font-size="18.00">public.logic</text>
<text text-anchor="start" x="729.22" y="-464" font-family="Arial" font-size="14.00">    </text>
<text text-anchor="start" x="760.34" y="-464" font-family="Arial" font-size="14.00" fill="#666666">[BASE TABLE]</text>
<polygon fill="none" stroke="black" points="636.74,-419.8 636.74,-450.6 860.71,-450.6 860.71,-419.8 636.74,-419.8"/>
<text text-anchor="start" x="643.74" y="-432" font-family="Arial" font-size="14.00">logic_key </text>
<text text-anchor="start" x="705.99" y="-432" font-family="Arial" font-size="14.00" fill="#666666">[text]</text>
<polygon fill="none" stroke="black" points="636.74,-389 636.74,-419.8 860.71,-419.8 860.71,-389 636.74,-389"/>
<text text-anchor="start" x="643.74" y="-401.2" font-family="Arial" font-size="14.00">model_key </text>
<text text-anchor="start" x="715.33" y="-401.2" font-family="Arial" font-size="14.00" fill="#666666">[text]</text>
<polygon fill="none" stroke="black" points="636.74,-358.2 636.74,-389 860.71,-389 860.71,-358.2 636.74,-358.2"/>
<text text-anchor="start" x="643.74" y="-370.4" font-family="Arial" font-size="14.00">description </text>
<text text-anchor="start" x="715.33" y="-370.4" font-family="Arial" font-size="14.00" fill="#666666">[text]</text>
<polygon fill="none" stroke="black" points="636.74,-327.4 636.74,-358.2 860.71,-358.2 860.71,-327.4 636.74,-327.4"/>
<text text-anchor="start" x="643.74" y="-339.6" font-family="Arial" font-size="14.00">notation </text>
<text text-anchor="start" x="697.45" y="-339.6" font-family="Arial" font-size="14.00" fill="#666666">[notation]</text>
<polygon fill="none" stroke="black" points="636.74,-296.6 636.74,-327.4 860.71,-327.4 860.71,-296.6 636.74,-296.6"/>
<text text-anchor="start" x="643.74" y="-308.8" font-family="Arial" font-size="14.00">specification </text>
<text text-anchor="start" x="724.67" y="-308.8" font-family="Arial" font-size="14.00" fill="#666666">[text]</text>
<polygon fill="none" stroke="black" stroke-width="3" points="635.24,-295.1 635.24,-487.7 862.21,-487.7 862.21,-295.1 635.24,-295.1"/>
</g>
<!-- public.model -->
<g id="node5" class="node">
<title>public.model</title>
<polygon fill="#efefef" stroke="none" points="632.24,-135.6 632.24,-171.2 865.21,-171.2 865.21,-135.6 632.24,-135.6"/>
<polygon fill="none" stroke="black" points="632.24,-135.6 632.24,-171.2 865.21,-171.2 865.21,-135.6 632.24,-135.6"/>
<text text-anchor="start" x="639.24" y="-149" font-family="Arial Bold" font-size="18.00">public.model</text>
<text text-anchor="start" x="733.72" y="-149" font-family="Arial" font-size="14.00">    </text>
<text text-anchor="start" x="764.84" y="-149" font-family="Arial" font-size="14.00" fill="#666666">[BASE TABLE]</text>
<polygon fill="none" stroke="black" points="632.24,-104.8 632.24,-135.6 865.21,-135.6 865.21,-104.8 632.24,-104.8"/>
<text text-anchor="start" x="639.24" y="-117" font-family="Arial" font-size="14.00">model_key </text>
<text text-anchor="start" x="710.83" y="-117" font-family="Arial" font-size="14.00" fill="#666666">[text]</text>
<polygon fill="none" stroke="black" points="632.24,-74 632.24,-104.8 865.21,-104.8 865.21,-74 632.24,-74"/>
<text text-anchor="start" x="639.24" y="-86.2" font-family="Arial" font-size="14.00">name </text>
<text text-anchor="start" x="678.15" y="-86.2" font-family="Arial" font-size="14.00" fill="#666666">[text]</text>
<polygon fill="none" stroke="black" points="632.24,-43.2 632.24,-74 865.21,-74 865.21,-43.2 632.24,-43.2"/>
<text text-anchor="start" x="639.24" y="-55.4" font-family="Arial" font-size="14.00">details </text>
<text text-anchor="start" x="683.6" y="-55.4" font-family="Arial" font-size="14.00" fill="#666666">[text]</text>
</g>
<!-- public.logic&#45;&gt;public.model -->
<g id="edge4" class="edge">
<title>public.logic:model_key&#45;&gt;public.model:model_key</title>
<path fill="none" stroke="black" d="M871.8,-403.77C988.19,-389.07 989.08,-120.2 866.21,-120.2"/>
<polygon fill="black" stroke="black" points="872.03,-403.76 861.77,-399.89 866.7,-404.09 862.38,-404.36 862.38,-404.36 862.38,-404.36 866.7,-404.09 862.32,-408.87 872.03,-403.76"/>
<text text-anchor="start" x="868.71" y="-414.4" font-family="Arial" font-size="10.00">FOREIGN KEY (model_key) REFERENCES model(model_key) ON DELETE CASCADE</text>
</g>
<!-- public.invariant -->
<g id="node2" class="node">
<title>public.invariant</title>
<polygon fill="#efefef" stroke="none" points="241.75,-796.4 241.75,-832 493.7,-832 493.7,-796.4 241.75,-796.4"/>
<polygon fill="none" stroke="black" points="241.75,-796.4 241.75,-832 493.7,-832 493.7,-796.4 241.75,-796.4"/>
<text text-anchor="start" x="248.75" y="-809.8" font-family="Arial Bold" font-size="18.00">public.invariant</text>
<text text-anchor="start" x="362.21" y="-809.8" font-family="Arial" font-size="14.00">    </text>
<text text-anchor="start" x="393.33" y="-809.8" font-family="Arial" font-size="14.00" fill="#666666">[BASE TABLE]</text>
<polygon fill="none" stroke="black" points="241.75,-765.6 241.75,-796.4 493.7,-796.4 493.7,-765.6 241.75,-765.6"/>
<text text-anchor="start" x="248.75" y="-777.8" font-family="Arial" font-size="14.00">model_key </text>
<text text-anchor="start" x="320.34" y="-777.8" font-family="Arial" font-size="14.00" fill="#666666">[text]</text>
<polygon fill="none" stroke="black" points="241.75,-734.8 241.75,-765.6 493.7,-765.6 493.7,-734.8 241.75,-734.8"/>
<text text-anchor="start" x="248.75" y="-747" font-family="Arial" font-size="14.00">logic_key </text>
<text text-anchor="start" x="311" y="-747" font-family="Arial" font-size="14.00" fill="#666666">[text]</text>
</g>
<!-- public.invariant&#45;&gt;public.logic -->
<g id="edge1" class="edge">
<title>public.invariant:model_key&#45;&gt;public.logic:model_key</title>
<path fill="none" stroke="black" d="M504.8,-780.5C586.01,-771.99 512,-655.68 545.73,-568.4 575.7,-490.84 552.59,-404.4 635.74,-404.4"/>
<polygon fill="black" stroke="black" points="505.03,-780.49 494.82,-776.49 499.7,-780.75 495.37,-780.97 495.37,-780.97 495.37,-780.97 499.7,-780.75 495.26,-785.48 505.03,-780.49"/>
<text text-anchor="start" x="7" y="-791" font-family="Arial" font-size="10.00">FOREIGN KEY (model_key, logic_key) REFERENCES logic(model_key, logic_key) ON DELETE CASCADE</text>
</g>
<!-- public.global_function -->
<g id="node3" class="node">
<title>public.global_function</title>
<polygon fill="#efefef" stroke="none" points="597.75,-842.6 597.75,-878.2 899.7,-878.2 899.7,-842.6 597.75,-842.6"/>
<polygon fill="none" stroke="black" points="597.75,-842.6 597.75,-878.2 899.7,-878.2 899.7,-842.6 597.75,-842.6"/>
<text text-anchor="start" x="604.75" y="-856" font-family="Arial Bold" font-size="18.00">public.global_function</text>
<text text-anchor="start" x="768.21" y="-856" font-family="Arial" font-size="14.00">    </text>
<text text-anchor="start" x="799.33" y="-856" font-family="Arial" font-size="14.00" fill="#666666">[BASE TABLE]</text>
<polygon fill="none" stroke="black" points="597.75,-811.8 597.75,-842.6 899.7,-842.6 899.7,-811.8 597.75,-811.8"/>
<text text-anchor="start" x="604.75" y="-824" font-family="Arial" font-size="14.00">model_key </text>
<text text-anchor="start" x="676.34" y="-824" font-family="Arial" font-size="14.00" fill="#666666">[text]</text>
<polygon fill="none" stroke="black" points="597.75,-781 597.75,-811.8 899.7,-811.8 899.7,-781 597.75,-781"/>
<text text-anchor="start" x="604.75" y="-793.2" font-family="Arial" font-size="14.00">logic_key </text>
<text text-anchor="start" x="667" y="-793.2" font-family="Arial" font-size="14.00" fill="#666666">[text]</text>
<polygon fill="none" stroke="black" points="597.75,-750.2 597.75,-781 899.7,-781 899.7,-750.2 597.75,-750.2"/>
<text text-anchor="start" x="604.75" y="-762.4" font-family="Arial" font-size="14.00">name </text>
<text text-anchor="start" x="643.66" y="-762.4" font-family="Arial" font-size="14.00" fill="#666666">[text]</text>
<polygon fill="none" stroke="black" points="597.75,-719.4 597.75,-750.2 899.7,-750.2 899.7,-719.4 597.75,-719.4"/>
<text text-anchor="start" x="604.75" y="-731.6" font-family="Arial" font-size="14.00">comment </text>
<text text-anchor="start" x="666.21" y="-731.6" font-family="Arial" font-size="14.00" fill="#666666">[text]</text>
<polygon fill="none" stroke="black" points="597.75,-688.6 597.75,-719.4 899.7,-719.4 899.7,-688.6 597.75,-688.6"/>
<text text-anchor="start" x="604.75" y="-700.8" font-family="Arial" font-size="14.00">parameters </text>
<text text-anchor="start" x="679.44" y="-700.8" font-family="Arial" font-size="14.00" fill="#666666">[text[]]</text>
</g>
<!-- public.global_function&#45;&gt;public.logic -->
<g id="edge2" class="edge">
<title>public.global_function:model_key&#45;&gt;public.logic:model_key</title>
<path fill="none" stroke="black" d="M909.2,-821.54C942.51,-771.37 905.66,-404.4 861.71,-404.4"/>
<polygon fill="black" stroke="black" points="909.3,-821.47 898.49,-823.27 904.86,-824.43 901.26,-826.83 901.26,-826.83 901.26,-826.83 904.86,-824.43 903.48,-830.76 909.3,-821.47"/>
<text text-anchor="start" x="413" y="-837.2" font-family="Arial" font-size="10.00">FOREIGN KEY (model_key, logic_key) REFERENCES logic(model_key, logic_key) ON DELETE CASCADE</text>
</g>
<!-- public.attribute -->
<g id="node4" class="node">
<title>public.attribute</title>
<polygon fill="#efefef" stroke="none" points="1003.75,-919.6 1003.75,-955.2 1251.7,-955.2 1251.7,-919.6 1003.75,-919.6"/>
<polygon fill="none" stroke="black" points="1003.75,-919.6 1003.75,-955.2 1251.7,-955.2 1251.7,-919.6 1003.75,-919.6"/>
<text text-anchor="start" x="1010.75" y="-933" font-family="Arial Bold" font-size="18.00">public.attribute</text>
<text text-anchor="start" x="1120.21" y="-933" font-family="Arial" font-size="14.00">    </text>
<text text-anchor="start" x="1151.33" y="-933" font-family="Arial" font-size="14.00" fill="#666666">[BASE TABLE]</text>
<polygon fill="none" stroke="black" points="1003.75,-888.8 1003.75,-919.6 1251.7,-919.6 1251.7,-888.8 1003.75,-888.8"/>
<text text-anchor="start" x="1010.75" y="-901" font-family="Arial" font-size="14.00">model_key </text>
<text text-anchor="start" x="1082.34" y="-901" font-family="Arial" font-size="14.00" fill="#666666">[text]</text>
<polygon fill="none" stroke="black" points="1003.75,-858 1003.75,-888.8 1251.7,-888.8 1251.7,-858 1003.75,-858"/>
<text text-anchor="start" x="1010.75" y="-870.2" font-family="Arial" font-size="14.00">attribute_key </text>
<text text-anchor="start" x="1094.79" y="-870.2" font-family="Arial" font-size="14.00" fill="#666666">[text]</text>
<polygon fill="none" stroke="black" points="1003.75,-827.2 1003.75,-858 1251.7,-858 1251.7,-827.2 1003.75,-827.2"/>
<text text-anchor="start" x="1010.75" y="-839.4" font-family="Arial" font-size="14.00">class_key </text>
<text text-anchor="start" x="1076.1" y="-839.4" font-family="Arial" font-size="14.00" fill="#666666">[text]</text>
<polygon fill="none" stroke="black" points="1003.75,-796.4 1003.75,-827.2 1251.7,-827.2 1251.7,-796.4 1003.75,-796.4"/>
<text text-anchor="start" x="1010.75" y="-808.6" font-family="Arial" font-size="14.00">name </text>
<text text-anchor="start" x="1049.66" y="-808.6" font-family="Arial" font-size="14.00" fill="#666666">[text]</text>
<polygon fill="none" stroke="black" points="1003.75,-765.6 1003.75,-796.4 1251.7,-796.4 1251.7,-765.6 1003.75,-765.6"/>
<text text-anchor="start" x="1010.75" y="-777.8" font-family="Arial" font-size="14.00">details </text>
<text text-anchor="start" x="1055.1" y="-777.8" font-family="Arial" font-size="14.00" fill="#666666">[text]</text>
<polygon fill="none" stroke="black" points="1003.75,-734.8 1003.75,-765.6 1251.7,-765.6 1251.7,-734.8 1003.75,-734.8"/>
<text text-anchor="start" x="1010.75" y="-747" font-family="Arial" font-size="14.00">data_type_rules </text>
<text text-anchor="start" x="1114.26" y="-747" font-family="Arial" font-size="14.00" fill="#666666">[text]</text>
<polygon fill="none" stroke="black" points="1003.75,-704 1003.75,-734.8 1251.7,-734.8 1251.7,-704 1003.75,-704"/>
<text text-anchor="start" x="1010.75" y="-716.2" font-family="Arial" font-size="14.00">data_type_key </text>
<text text-anchor="start" x="1105.7" y="-716.2" font-family="Arial" font-size="14.00" fill="#666666">[text]</text>
<polygon fill="none" stroke="black" points="1003.75,-673.2 1003.75,-704 1251.7,-704 1251.7,-673.2 1003.75,-673.2"/>
<text text-anchor="start" x="1010.75" y="-685.4" font-family="Arial" font-size="14.00">derivation_policy_key </text>
<text text-anchor="start" x="1148.49" y="-685.4" font-family="Arial" font-size="14.00" fill="#666666">[text]</text>
<polygon fill="none" stroke="black" points="1003.75,-642.4 1003.75,-673.2 1251.7,-673.2 1251.7,-642.4 1003.75,-642.4"/>
<text text-anchor="start" x="1010.75" y="-654.6" font-family="Arial" font-size="14.00">nullable </text>
<text text-anchor="start" x="1062.9" y="-654.6" font-family="Arial" font-size="14.00" fill="#666666">[boolean]</text>
<polygon fill="none" stroke="black" points="1003.75,-611.6 1003.75,-642.4 1251.7,-642.4 1251.7,-611.6 1003.75,-611.6"/>
<text text-anchor="start" x="1010.75" y="-623.8" font-family="Arial" font-size="14.00">uml_comment </text>
<text text-anchor="start" x="1102.55" y="-623.8" font-family="Arial" font-size="14.00" fill="#666666">[text]</text>
</g>
<!-- public.attribute&#45;&gt;public.logic -->
<g id="edge3" class="edge">
<title>public.attribute:model_key&#45;&gt;public.logic:model_key</title>
<path fill="none" stroke="black" d="M992.56,-902.36C931.85,-878.85 974.74,-636.4 951.73,-568.4 925.07,-489.64 944.86,-404.4 861.71,-404.4"/>
<polygon fill="black" stroke="black" points="992.58,-902.37 1001.62,-908.57 997.83,-903.31 1002.09,-904.08 1002.09,-904.08 1002.09,-904.08 997.83,-903.31 1003.22,-899.71 992.58,-902.37"/>
<text text-anchor="start" x="1009.75" y="-914.2" font-family="Arial" font-size="10.00">FOREIGN KEY (model_key, derivation_policy_key) REFERENCES logic(model_key, logic_key) ON DELETE CASCADE</text>
</g>
</g>
</svg>
