<?xml version="1.0" encoding="UTF-8" standalone="no"?>
<!DOCTYPE svg PUBLIC "-//W3C//DTD SVG 1.1//EN"
 "http://www.w3.org/Graphics/SVG/1.1/DTD/svg11.dtd">
<!-- Generated by graphviz version 12.1.2 (20240928.0832)
 -->
<!-- Title: public.scenario Pages: 1 -->
<svg width="1238pt" height="1222pt"
 viewBox="0.00 0.00 1237.72 1222.00" xmlns="http://www.w3.org/2000/svg" xmlns:xlink="http://www.w3.org/1999/xlink">
<g id="graph0" class="graph" transform="scale(1 1) rotate(0) translate(4 1218)">
<title>public.scenario</title>
<polygon fill="white" stroke="none" points="-4,4 -4,-1218 1233.72,-1218 1233.72,4 -4,4"/>
<!-- public.scenario -->
<g id="node1" class="node">
<title>public.scenario</title>
<polygon fill="#efefef" stroke="none" points="407.88,-697 407.88,-732.6 655.83,-732.6 655.83,-697 407.88,-697"/>
<polygon fill="none" stroke="black" points="407.88,-697 407.88,-732.6 655.83,-732.6 655.83,-697 407.88,-697"/>
<text text-anchor="start" x="414.88" y="-710.4" font-family="Arial Bold" font-size="18.00">public.scenario</text>
<text text-anchor="start" x="524.34" y="-710.4" font-family="Arial" font-size="14.00">    </text>
<text text-anchor="start" x="555.46" y="-710.4" font-family="Arial" font-size="14.00" fill="#666666">[BASE TABLE]</text>
<polygon fill="none" stroke="black" points="407.88,-666.2 407.88,-697 655.83,-697 655.83,-666.2 407.88,-666.2"/>
<text text-anchor="start" x="414.88" y="-678.4" font-family="Arial" font-size="14.00">model_key </text>
<text text-anchor="start" x="486.47" y="-678.4" font-family="Arial" font-size="14.00" fill="#666666">[text]</text>
<polygon fill="none" stroke="black" points="407.88,-635.4 407.88,-666.2 655.83,-666.2 655.83,-635.4 407.88,-635.4"/>
<text text-anchor="start" x="414.88" y="-647.6" font-family="Arial" font-size="14.00">scenario_key </text>
<text text-anchor="start" x="501.26" y="-647.6" font-family="Arial" font-size="14.00" fill="#666666">[text]</text>
<polygon fill="none" stroke="black" points="407.88,-604.6 407.88,-635.4 655.83,-635.4 655.83,-604.6 407.88,-604.6"/>
<text text-anchor="start" x="414.88" y="-616.8" font-family="Arial" font-size="14.00">name </text>
<text text-anchor="start" x="453.79" y="-616.8" font-family="Arial" font-size="14.00" fill="#666666">[text]</text>
<polygon fill="none" stroke="black" points="407.88,-573.8 407.88,-604.6 655.83,-604.6 655.83,-573.8 407.88,-573.8"/>
<text text-anchor="start" x="414.88" y="-586" font-family="Arial" font-size="14.00">use_case_key </text>
<text text-anchor="start" x="508.27" y="-586" font-family="Arial" font-size="14.00" fill="#666666">[text]</text>
<polygon fill="none" stroke="black" points="407.88,-543 407.88,-573.8 655.83,-573.8 655.83,-543 407.88,-543"/>
<text text-anchor="start" x="414.88" y="-555.2" font-family="Arial" font-size="14.00">details </text>
<text text-anchor="start" x="459.24" y="-555.2" font-family="Arial" font-size="14.00" fill="#666666">[text]</text>
<polygon fill="none" stroke="black" points="407.88,-512.2 407.88,-543 655.83,-543 655.83,-512.2 407.88,-512.2"/>
<text text-anchor="start" x="414.88" y="-524.4" font-family="Arial" font-size="14.00">steps </text>
<text text-anchor="start" x="452.23" y="-524.4" font-family="Arial" font-size="14.00" fill="#666666">[jsonb]</text>
<polygon fill="none" stroke="black" stroke-width="3" points="406.38,-510.7 406.38,-734.1 657.33,-734.1 657.33,-510.7 406.38,-510.7"/>
</g>
<!-- public.model -->
<g id="node2" class="node">
<title>public.model</title>
<polygon fill="#efefef" stroke="none" points="242.37,-243.4 242.37,-279 475.34,-279 475.34,-243.4 242.37,-243.4"/>
<polygon fill="none" stroke="black" points="242.37,-243.4 242.37,-279 475.34,-279 475.34,-243.4 242.37,-243.4"/>
<text text-anchor="start" x="249.37" y="-256.8" font-family="Arial Bold" font-size="18.00">public.model</text>
<text text-anchor="start" x="343.85" y="-256.8" font-family="Arial" font-size="14.00">    </text>
<text text-anchor="start" x="374.97" y="-256.8" font-family="Arial" font-size="14.00" fill="#666666">[BASE TABLE]</text>
<polygon fill="none" stroke="black" points="242.37,-212.6 242.37,-243.4 475.34,-243.4 475.34,-212.6 242.37,-212.6"/>
<text text-anchor="start" x="249.37" y="-224.8" font-family="Arial" font-size="14.00">model_key </text>
<text text-anchor="start" x="320.96" y="-224.8" font-family="Arial" font-size="14.00" fill="#666666">[text]</text>
<polygon fill="none" stroke="black" points="242.37,-181.8 242.37,-212.6 475.34,-212.6 475.34,-181.8 242.37,-181.8"/>
<text text-anchor="start" x="249.37" y="-194" font-family="Arial" font-size="14.00">name </text>
<text text-anchor="start" x="288.28" y="-194" font-family="Arial" font-size="14.00" fill="#666666">[text]</text>
<polygon fill="none" stroke="black" points="242.37,-151 242.37,-181.8 475.34,-181.8 475.34,-151 242.37,-151"/>
<text text-anchor="start" x="249.37" y="-163.2" font-family="Arial" font-size="14.00">details </text>
<text text-anchor="start" x="293.73" y="-163.2" font-family="Arial" font-size="14.00" fill="#666666">[text]</text>
</g>
<!-- public.scenario&#45;&gt;public.model -->
<g id="edge1" class="edge">
<title>public.scenario:model_key&#45;&gt;public.model:model_key</title>
<path fill="none" stroke="black" d="M396.91,-681.1C316.6,-672.58 387.6,-556.01 407.88,-466 423.4,-397.13 459.62,-391.02 475.34,-322.2 484.67,-281.38 518.21,-228 476.34,-228"/>
<polygon fill="black" stroke="black" points="396.56,-681.09 406.32,-686.08 401.89,-681.35 406.21,-681.57 406.21,-681.57 406.21,-681.57 401.89,-681.35 406.77,-677.09 396.56,-681.09"/>
<text text-anchor="start" x="7" y="-691.6" font-family="Arial" font-size="10.00">FOREIGN KEY (model_key) REFERENCES model(model_key) ON DELETE CASCADE</text>
</g>
<!-- public.use_case -->
<g id="node3" class="node">
<title>public.use_case</title>
<polygon fill="#efefef" stroke="none" points="579.88,-351.2 579.88,-386.8 831.83,-386.8 831.83,-351.2 579.88,-351.2"/>
<polygon fill="none" stroke="black" points="579.88,-351.2 579.88,-386.8 831.83,-386.8 831.83,-351.2 579.88,-351.2"/>
<text text-anchor="start" x="586.88" y="-364.6" font-family="Arial Bold" font-size="18.00">public.use_case</text>
<text text-anchor="start" x="700.34" y="-364.6" font-family="Arial" font-size="14.00">    </text>
<text text-anchor="start" x="731.46" y="-364.6" font-family="Arial" font-size="14.00" fill="#666666">[BASE TABLE]</text>
<polygon fill="none" stroke="black" points="579.88,-320.4 579.88,-351.2 831.83,-351.2 831.83,-320.4 579.88,-320.4"/>
<text text-anchor="start" x="586.88" y="-332.6" font-family="Arial" font-size="14.00">model_key </text>
<text text-anchor="start" x="658.47" y="-332.6" font-family="Arial" font-size="14.00" fill="#666666">[text]</text>
<polygon fill="none" stroke="black" points="579.88,-289.6 579.88,-320.4 831.83,-320.4 831.83,-289.6 579.88,-289.6"/>
<text text-anchor="start" x="586.88" y="-301.8" font-family="Arial" font-size="14.00">use_case_key </text>
<text text-anchor="start" x="680.27" y="-301.8" font-family="Arial" font-size="14.00" fill="#666666">[text]</text>
<polygon fill="none" stroke="black" points="579.88,-258.8 579.88,-289.6 831.83,-289.6 831.83,-258.8 579.88,-258.8"/>
<text text-anchor="start" x="586.88" y="-271" font-family="Arial" font-size="14.00">name </text>
<text text-anchor="start" x="625.79" y="-271" font-family="Arial" font-size="14.00" fill="#666666">[text]</text>
<polygon fill="none" stroke="black" points="579.88,-228 579.88,-258.8 831.83,-258.8 831.83,-228 579.88,-228"/>
<text text-anchor="start" x="586.88" y="-240.2" font-family="Arial" font-size="14.00">details </text>
<text text-anchor="start" x="631.24" y="-240.2" font-family="Arial" font-size="14.00" fill="#666666">[text]</text>
<polygon fill="none" stroke="black" points="579.88,-197.2 579.88,-228 831.83,-228 831.83,-197.2 579.88,-197.2"/>
<text text-anchor="start" x="586.88" y="-209.4" font-family="Arial" font-size="14.00">level </text>
<text text-anchor="start" x="619.56" y="-209.4" font-family="Arial" font-size="14.00" fill="#666666">[use_case_level]</text>
<polygon fill="none" stroke="black" points="579.88,-166.4 579.88,-197.2 831.83,-197.2 831.83,-166.4 579.88,-166.4"/>
<text text-anchor="start" x="586.88" y="-178.6" font-family="Arial" font-size="14.00">read_only </text>
<text text-anchor="start" x="652.26" y="-178.6" font-family="Arial" font-size="14.00" fill="#666666">[boolean]</text>
<polygon fill="none" stroke="black" points="579.88,-135.6 579.88,-166.4 831.83,-166.4 831.83,-135.6 579.88,-135.6"/>
<text text-anchor="start" x="586.88" y="-147.8" font-family="Arial" font-size="14.00">subdomain_key </text>
<text text-anchor="start" x="688.83" y="-147.8" font-family="Arial" font-size="14.00" fill="#666666">[text]</text>
<polygon fill="none" stroke="black" points="579.88,-104.8 579.88,-135.6 831.83,-135.6 831.83,-104.8 579.88,-104.8"/>
<text text-anchor="start" x="586.88" y="-117" font-family="Arial" font-size="14.00">superclass_of_key </text>
<text text-anchor="start" x="706.72" y="-117" font-family="Arial" font-size="14.00" fill="#666666">[text]</text>
<polygon fill="none" stroke="black" points="579.88,-74 579.88,-104.8 831.83,-104.8 831.83,-74 579.88,-74"/>
<text text-anchor="start" x="586.88" y="-86.2" font-family="Arial" font-size="14.00">subclass_of_key </text>
<text text-anchor="start" x="694.27" y="-86.2" font-family="Arial" font-size="14.00" fill="#666666">[text]</text>
<polygon fill="none" stroke="black" points="579.88,-43.2 579.88,-74 831.83,-74 831.83,-43.2 579.88,-43.2"/>
<text text-anchor="start" x="586.88" y="-55.4" font-family="Arial" font-size="14.00">uml_comment </text>
<text text-anchor="start" x="678.69" y="-55.4" font-family="Arial" font-size="14.00" fill="#666666">[text]</text>
</g>
<!-- public.scenario&#45;&gt;public.use_case -->
<g id="edge2" class="edge">
<title>public.scenario:model_key&#45;&gt;public.use_case:model_key</title>
<path fill="none" stroke="black" d="M667.17,-681.02C749.19,-671.41 705.29,-543.78 655.83,-466 635.78,-434.48 600.02,-461.46 579.88,-430 557.31,-394.74 537.01,-335.8 578.88,-335.8"/>
<polygon fill="black" stroke="black" points="667.15,-681.03 656.91,-677.09 661.82,-681.32 657.5,-681.56 657.5,-681.56 657.5,-681.56 661.82,-681.32 657.41,-686.07 667.15,-681.03"/>
<text text-anchor="start" x="663.83" y="-691.6" font-family="Arial" font-size="10.00">FOREIGN KEY (model_key, use_case_key) REFERENCES use_case(model_key, use_case_key) ON DELETE CASCADE</text>
</g>
<!-- public.scenario_object -->
<g id="node4" class="node">
<title>public.scenario_object</title>
<polygon fill="#efefef" stroke="none" points="381.39,-1135.2 381.39,-1170.8 682.32,-1170.8 682.32,-1135.2 381.39,-1135.2"/>
<polygon fill="none" stroke="black" points="381.39,-1135.2 381.39,-1170.8 682.32,-1170.8 682.32,-1135.2 381.39,-1135.2"/>
<text text-anchor="start" x="388.39" y="-1148.6" font-family="Arial Bold" font-size="18.00">public.scenario_object</text>
<text text-anchor="start" x="550.83" y="-1148.6" font-family="Arial" font-size="14.00">    </text>
<text text-anchor="start" x="581.95" y="-1148.6" font-family="Arial" font-size="14.00" fill="#666666">[BASE TABLE]</text>
<polygon fill="none" stroke="black" points="381.39,-1104.4 381.39,-1135.2 682.32,-1135.2 682.32,-1104.4 381.39,-1104.4"/>
<text text-anchor="start" x="388.39" y="-1116.6" font-family="Arial" font-size="14.00">model_key </text>
<text text-anchor="start" x="459.98" y="-1116.6" font-family="Arial" font-size="14.00" fill="#666666">[text]</text>
<polygon fill="none" stroke="black" points="381.39,-1073.6 381.39,-1104.4 682.32,-1104.4 682.32,-1073.6 381.39,-1073.6"/>
<text text-anchor="start" x="388.39" y="-1085.8" font-family="Arial" font-size="14.00">scenario_object_key </text>
<text text-anchor="start" x="519.91" y="-1085.8" font-family="Arial" font-size="14.00" fill="#666666">[text]</text>
<polygon fill="none" stroke="black" points="381.39,-1042.8 381.39,-1073.6 682.32,-1073.6 682.32,-1042.8 381.39,-1042.8"/>
<text text-anchor="start" x="388.39" y="-1055" font-family="Arial" font-size="14.00">scenario_key </text>
<text text-anchor="start" x="474.77" y="-1055" font-family="Arial" font-size="14.00" fill="#666666">[text]</text>
<polygon fill="none" stroke="black" points="381.39,-1012 381.39,-1042.8 682.32,-1042.8 682.32,-1012 381.39,-1012"/>
<text text-anchor="start" x="388.39" y="-1024.2" font-family="Arial" font-size="14.00">object_number </text>
<text text-anchor="start" x="484.89" y="-1024.2" font-family="Arial" font-size="14.00" fill="#666666">[integer]</text>
<polygon fill="none" stroke="black" points="381.39,-981.2 381.39,-1012 682.32,-1012 682.32,-981.2 381.39,-981.2"/>
<text text-anchor="start" x="388.39" y="-993.4" font-family="Arial" font-size="14.00">name </text>
<text text-anchor="start" x="427.3" y="-993.4" font-family="Arial" font-size="14.00" fill="#666666">[text]</text>
<polygon fill="none" stroke="black" points="381.39,-950.4 381.39,-981.2 682.32,-981.2 682.32,-950.4 381.39,-950.4"/>
<text text-anchor="start" x="388.39" y="-962.6" font-family="Arial" font-size="14.00">name_style </text>
<text text-anchor="start" x="463.87" y="-962.6" font-family="Arial" font-size="14.00" fill="#666666">[scenario_object_name_style]</text>
<polygon fill="none" stroke="black" points="381.39,-919.6 381.39,-950.4 682.32,-950.4 682.32,-919.6 381.39,-919.6"/>
<text text-anchor="start" x="388.39" y="-931.8" font-family="Arial" font-size="14.00">class_key </text>
<text text-anchor="start" x="453.75" y="-931.8" font-family="Arial" font-size="14.00" fill="#666666">[text]</text>
<polygon fill="none" stroke="black" points="381.39,-888.8 381.39,-919.6 682.32,-919.6 682.32,-888.8 381.39,-888.8"/>
<text text-anchor="start" x="388.39" y="-901" font-family="Arial" font-size="14.00">multi </text>
<text text-anchor="start" x="421.84" y="-901" font-family="Arial" font-size="14.00" fill="#666666">[boolean]</text>
<polygon fill="none" stroke="black" points="381.39,-858 381.39,-888.8 682.32,-888.8 682.32,-858 381.39,-858"/>
<text text-anchor="start" x="388.39" y="-870.2" font-family="Arial" font-size="14.00">uml_comment </text>
<text text-anchor="start" x="480.2" y="-870.2" font-family="Arial" font-size="14.00" fill="#666666">[text]</text>
</g>
<!-- public.scenario_object&#45;&gt;public.scenario -->
<g id="edge3" class="edge">
<title>public.scenario_object:model_key&#45;&gt;public.scenario:model_key</title>
<path fill="none" stroke="black" d="M693.68,-1119.38C877.42,-1104.11 848.42,-681.6 656.83,-681.6"/>
<polygon fill="black" stroke="black" points="693.65,-1119.38 683.47,-1115.29 688.32,-1119.6 683.99,-1119.77 683.99,-1119.77 683.99,-1119.77 688.32,-1119.6 683.84,-1124.28 693.65,-1119.38"/>
<text text-anchor="start" x="690.32" y="-1129.8" font-family="Arial" font-size="10.00">FOREIGN KEY (model_key, scenario_key) REFERENCES scenario(model_key, scenario_key) ON DELETE CASCADE</text>
</g>
</g>
</svg>
