<?xml version="1.0" encoding="UTF-8" standalone="no"?>
<!DOCTYPE svg PUBLIC "-//W3C//DTD SVG 1.1//EN"
 "http://www.w3.org/Graphics/SVG/1.1/DTD/svg11.dtd">
<!-- Generated by graphviz version 12.1.2 (20240928.0832)
 -->
<!-- Title: public.data_type Pages: 1 -->
<svg width="2410pt" height="1191pt"
 viewBox="0.00 0.00 2410.14 1191.20" xmlns="http://www.w3.org/2000/svg" xmlns:xlink="http://www.w3.org/1999/xlink">
<g id="graph0" class="graph" transform="scale(1 1) rotate(0) translate(4 1187.2)">
<title>public.data_type</title>
<polygon fill="white" stroke="none" points="-4,4 -4,-1187.2 2406.14,-1187.2 2406.14,4 -4,4"/>
<!-- public.data_type -->
<g id="node1" class="node">
<title>public.data_type</title>
<polygon fill="#efefef" stroke="none" points="877.84,-604.6 877.84,-640.2 1135.79,-640.2 1135.79,-604.6 877.84,-604.6"/>
<polygon fill="none" stroke="black" points="877.84,-604.6 877.84,-640.2 1135.79,-640.2 1135.79,-604.6 877.84,-604.6"/>
<text text-anchor="start" x="884.84" y="-618" font-family="Arial Bold" font-size="18.00">public.data_type</text>
<text text-anchor="start" x="1004.3" y="-618" font-family="Arial" font-size="14.00">    </text>
<text text-anchor="start" x="1035.42" y="-618" font-family="Arial" font-size="14.00" fill="#666666">[BASE TABLE]</text>
<polygon fill="none" stroke="black" points="877.84,-573.8 877.84,-604.6 1135.79,-604.6 1135.79,-573.8 877.84,-573.8"/>
<text text-anchor="start" x="884.84" y="-586" font-family="Arial" font-size="14.00">model_key </text>
<text text-anchor="start" x="956.43" y="-586" font-family="Arial" font-size="14.00" fill="#666666">[text]</text>
<polygon fill="none" stroke="black" points="877.84,-543 877.84,-573.8 1135.79,-573.8 1135.79,-543 877.84,-543"/>
<text text-anchor="start" x="884.84" y="-555.2" font-family="Arial" font-size="14.00">data_type_key </text>
<text text-anchor="start" x="979.8" y="-555.2" font-family="Arial" font-size="14.00" fill="#666666">[text]</text>
<polygon fill="none" stroke="black" points="877.84,-512.2 877.84,-543 1135.79,-543 1135.79,-512.2 877.84,-512.2"/>
<text text-anchor="start" x="884.84" y="-524.4" font-family="Arial" font-size="14.00">collection_type </text>
<text text-anchor="start" x="981.34" y="-524.4" font-family="Arial" font-size="14.00" fill="#666666">[collection_type]</text>
<polygon fill="none" stroke="black" points="877.84,-481.4 877.84,-512.2 1135.79,-512.2 1135.79,-481.4 877.84,-481.4"/>
<text text-anchor="start" x="884.84" y="-493.6" font-family="Arial" font-size="14.00">collection_unique </text>
<text text-anchor="start" x="996.92" y="-493.6" font-family="Arial" font-size="14.00" fill="#666666">[boolean]</text>
<polygon fill="none" stroke="black" points="877.84,-450.6 877.84,-481.4 1135.79,-481.4 1135.79,-450.6 877.84,-450.6"/>
<text text-anchor="start" x="884.84" y="-462.8" font-family="Arial" font-size="14.00">collection_min </text>
<text text-anchor="start" x="977.44" y="-462.8" font-family="Arial" font-size="14.00" fill="#666666">[bigint]</text>
<polygon fill="none" stroke="black" points="877.84,-419.8 877.84,-450.6 1135.79,-450.6 1135.79,-419.8 877.84,-419.8"/>
<text text-anchor="start" x="884.84" y="-432" font-family="Arial" font-size="14.00">collection_max </text>
<text text-anchor="start" x="981.33" y="-432" font-family="Arial" font-size="14.00" fill="#666666">[bigint]</text>
<polygon fill="none" stroke="black" points="877.84,-389 877.84,-419.8 1135.79,-419.8 1135.79,-389 877.84,-389"/>
<text text-anchor="start" x="884.84" y="-401.2" font-family="Arial" font-size="14.00">element_data_type_key </text>
<text text-anchor="start" x="1037.39" y="-401.2" font-family="Arial" font-size="14.00" fill="#666666">[text]</text>
<polygon fill="none" stroke="black" points="877.84,-358.2 877.84,-389 1135.79,-389 1135.79,-358.2 877.84,-358.2"/>
<text text-anchor="start" x="884.84" y="-370.4" font-family="Arial" font-size="14.00">type_spec_notation </text>
<text text-anchor="start" x="1010.16" y="-370.4" font-family="Arial" font-size="14.00" fill="#666666">[notation]</text>
<polygon fill="none" stroke="black" points="877.84,-327.4 877.84,-358.2 1135.79,-358.2 1135.79,-327.4 877.84,-327.4"/>
<text text-anchor="start" x="884.84" y="-339.6" font-family="Arial" font-size="14.00">type_spec_specification </text>
<text text-anchor="start" x="1037.38" y="-339.6" font-family="Arial" font-size="14.00" fill="#666666">[text]</text>
<polygon fill="none" stroke="black" stroke-width="3" points="876.34,-325.9 876.34,-641.7 1137.29,-641.7 1137.29,-325.9 876.34,-325.9"/>
</g>
<!-- public.data_type&#45;&gt;public.data_type -->
<g id="edge2" class="edge">
<title>public.data_type:model_key&#45;&gt;public.data_type:model_key</title>
<path fill="none" stroke="black" d="M1008.46,-614.48C1015.78,-735.9 1015.23,-867 1006.82,-867 998.17,-867 997.83,-728.43 1005.8,-604.26"/>
<polygon fill="black" stroke="black" points="1008.47,-614.58 1012.34,-604.32 1008.14,-609.25 1007.87,-604.93 1007.87,-604.93 1007.87,-604.93 1008.14,-609.25 1003.36,-604.87 1008.47,-614.58"/>
<text text-anchor="start" x="1014.83" y="-614.26" font-family="Arial" font-size="10.00">FOREIGN KEY (model_key, element_data_type_key) REFERENCES data_type(model_key, data_type_key) ON DELETE CASCADE</text>
</g>
<!-- public.model -->
<g id="node2" class="node">
<title>public.model</title>
<polygon fill="#efefef" stroke="none" points="890.33,-166.4 890.33,-202 1123.3,-202 1123.3,-166.4 890.33,-166.4"/>
<polygon fill="none" stroke="black" points="890.33,-166.4 890.33,-202 1123.3,-202 1123.3,-166.4 890.33,-166.4"/>
<text text-anchor="start" x="897.33" y="-179.8" font-family="Arial Bold" font-size="18.00">public.model</text>
<text text-anchor="start" x="991.81" y="-179.8" font-family="Arial" font-size="14.00">    </text>
<text text-anchor="start" x="1022.93" y="-179.8" font-family="Arial" font-size="14.00" fill="#666666">[BASE TABLE]</text>
<polygon fill="none" stroke="black" points="890.33,-135.6 890.33,-166.4 1123.3,-166.4 1123.3,-135.6 890.33,-135.6"/>
<text text-anchor="start" x="897.33" y="-147.8" font-family="Arial" font-size="14.00">model_key </text>
<text text-anchor="start" x="968.92" y="-147.8" font-family="Arial" font-size="14.00" fill="#666666">[text]</text>
<polygon fill="none" stroke="black" points="890.33,-104.8 890.33,-135.6 1123.3,-135.6 1123.3,-104.8 890.33,-104.8"/>
<text text-anchor="start" x="897.33" y="-117" font-family="Arial" font-size="14.00">name </text>
<text text-anchor="start" x="936.24" y="-117" font-family="Arial" font-size="14.00" fill="#666666">[text]</text>
<polygon fill="none" stroke="black" points="890.33,-74 890.33,-104.8 1123.3,-104.8 1123.3,-74 890.33,-74"/>
<text text-anchor="start" x="897.33" y="-86.2" font-family="Arial" font-size="14.00">details </text>
<text text-anchor="start" x="941.69" y="-86.2" font-family="Arial" font-size="14.00" fill="#666666">[text]</text>
<polygon fill="none" stroke="black" points="890.33,-43.2 890.33,-74 1123.3,-74 1123.3,-43.2 890.33,-43.2"/>
<text text-anchor="start" x="897.33" y="-55.4" font-family="Arial" font-size="14.00">unfinished_notes </text>
<text text-anchor="start" x="1007.08" y="-55.4" font-family="Arial" font-size="14.00" fill="#666666">[text]</text>
</g>
<!-- public.data_type&#45;&gt;public.model -->
<g id="edge1" class="edge">
<title>public.data_type:model_key&#45;&gt;public.model:model_key</title>
<path fill="none" stroke="black" d="M1147.15,-588.78C1331.11,-573.51 1315.62,-151 1124.3,-151"/>
<polygon fill="black" stroke="black" points="1147.12,-588.78 1136.94,-584.69 1141.79,-589 1137.46,-589.17 1137.46,-589.17 1137.46,-589.17 1141.79,-589 1137.31,-593.68 1147.12,-588.78"/>
<text text-anchor="start" x="1143.79" y="-573.2" font-family="Arial" font-size="10.00">FOREIGN KEY (model_key) REFERENCES model(model_key) ON DELETE CASCADE</text>
</g>
<!-- public.data_type_atomic -->
<g id="node3" class="node">
<title>public.data_type_atomic</title>
<polygon fill="#efefef" stroke="none" points="247.85,-1027.4 247.85,-1063 563.78,-1063 563.78,-1027.4 247.85,-1027.4"/>
<polygon fill="none" stroke="black" points="247.85,-1027.4 247.85,-1063 563.78,-1063 563.78,-1027.4 247.85,-1027.4"/>
<text text-anchor="start" x="254.85" y="-1040.8" font-family="Arial Bold" font-size="18.00">public.data_type_atomic</text>
<text text-anchor="start" x="432.29" y="-1040.8" font-family="Arial" font-size="14.00">    </text>
<text text-anchor="start" x="463.41" y="-1040.8" font-family="Arial" font-size="14.00" fill="#666666">[BASE TABLE]</text>
<polygon fill="none" stroke="black" points="247.85,-996.6 247.85,-1027.4 563.78,-1027.4 563.78,-996.6 247.85,-996.6"/>
<text text-anchor="start" x="254.85" y="-1008.8" font-family="Arial" font-size="14.00">model_key </text>
<text text-anchor="start" x="326.44" y="-1008.8" font-family="Arial" font-size="14.00" fill="#666666">[text]</text>
<polygon fill="none" stroke="black" points="247.85,-965.8 247.85,-996.6 563.78,-996.6 563.78,-965.8 247.85,-965.8"/>
<text text-anchor="start" x="254.85" y="-978" font-family="Arial" font-size="14.00">data_type_key </text>
<text text-anchor="start" x="349.81" y="-978" font-family="Arial" font-size="14.00" fill="#666666">[text]</text>
<polygon fill="none" stroke="black" points="247.85,-935 247.85,-965.8 563.78,-965.8 563.78,-935 247.85,-935"/>
<text text-anchor="start" x="254.85" y="-947.2" font-family="Arial" font-size="14.00">constraint_type </text>
<text text-anchor="start" x="353.68" y="-947.2" font-family="Arial" font-size="14.00" fill="#666666">[constraint_type]</text>
<polygon fill="none" stroke="black" points="247.85,-904.2 247.85,-935 563.78,-935 563.78,-904.2 247.85,-904.2"/>
<text text-anchor="start" x="254.85" y="-916.4" font-family="Arial" font-size="14.00">reference </text>
<text text-anchor="start" x="317.88" y="-916.4" font-family="Arial" font-size="14.00" fill="#666666">[text]</text>
<polygon fill="none" stroke="black" points="247.85,-873.4 247.85,-904.2 563.78,-904.2 563.78,-873.4 247.85,-873.4"/>
<text text-anchor="start" x="254.85" y="-885.6" font-family="Arial" font-size="14.00">enum_ordered </text>
<text text-anchor="start" x="349.8" y="-885.6" font-family="Arial" font-size="14.00" fill="#666666">[boolean]</text>
<polygon fill="none" stroke="black" points="247.85,-842.6 247.85,-873.4 563.78,-873.4 563.78,-842.6 247.85,-842.6"/>
<text text-anchor="start" x="254.85" y="-854.8" font-family="Arial" font-size="14.00">object_class_key </text>
<text text-anchor="start" x="365.35" y="-854.8" font-family="Arial" font-size="14.00" fill="#666666">[text]</text>
</g>
<!-- public.data_type_atomic&#45;&gt;public.data_type -->
<g id="edge3" class="edge">
<title>public.data_type_atomic:model_key&#45;&gt;public.data_type:model_key</title>
<path fill="none" stroke="black" d="M574.78,-1009.8C624.4,-985.74 579.16,-771.97 615.82,-722.4 693.25,-617.68 746.6,-589.2 876.84,-589.2"/>
<polygon fill="black" stroke="black" points="574.87,-1009.78 564.14,-1007.53 569.66,-1010.92 565.43,-1011.86 565.43,-1011.86 565.43,-1011.86 569.66,-1010.92 566.08,-1016.32 574.87,-1009.78"/>
<text text-anchor="start" x="7" y="-1022" font-family="Arial" font-size="10.00">FOREIGN KEY (model_key, data_type_key) REFERENCES data_type(model_key, data_type_key) ON DELETE CASCADE</text>
</g>
<!-- public.data_type_field -->
<g id="node4" class="node">
<title>public.data_type_field</title>
<polygon fill="#efefef" stroke="none" points="667.85,-996.6 667.85,-1032.2 967.78,-1032.2 967.78,-996.6 667.85,-996.6"/>
<polygon fill="none" stroke="black" points="667.85,-996.6 667.85,-1032.2 967.78,-1032.2 967.78,-996.6 667.85,-996.6"/>
<text text-anchor="start" x="674.85" y="-1010" font-family="Arial Bold" font-size="18.00">public.data_type_field</text>
<text text-anchor="start" x="836.29" y="-1010" font-family="Arial" font-size="14.00">    </text>
<text text-anchor="start" x="867.41" y="-1010" font-family="Arial" font-size="14.00" fill="#666666">[BASE TABLE]</text>
<polygon fill="none" stroke="black" points="667.85,-965.8 667.85,-996.6 967.78,-996.6 967.78,-965.8 667.85,-965.8"/>
<text text-anchor="start" x="674.85" y="-978" font-family="Arial" font-size="14.00">model_key </text>
<text text-anchor="start" x="746.44" y="-978" font-family="Arial" font-size="14.00" fill="#666666">[text]</text>
<polygon fill="none" stroke="black" points="667.85,-935 667.85,-965.8 967.78,-965.8 967.78,-935 667.85,-935"/>
<text text-anchor="start" x="674.85" y="-947.2" font-family="Arial" font-size="14.00">data_type_key </text>
<text text-anchor="start" x="769.81" y="-947.2" font-family="Arial" font-size="14.00" fill="#666666">[text]</text>
<polygon fill="none" stroke="black" points="667.85,-904.2 667.85,-935 967.78,-935 967.78,-904.2 667.85,-904.2"/>
<text text-anchor="start" x="674.85" y="-916.4" font-family="Arial" font-size="14.00">name </text>
<text text-anchor="start" x="713.76" y="-916.4" font-family="Arial" font-size="14.00" fill="#666666">[text]</text>
<polygon fill="none" stroke="black" points="667.85,-873.4 667.85,-904.2 967.78,-904.2 967.78,-873.4 667.85,-873.4"/>
<text text-anchor="start" x="674.85" y="-885.6" font-family="Arial" font-size="14.00">field_data_type_key </text>
<text text-anchor="start" x="803.27" y="-885.6" font-family="Arial" font-size="14.00" fill="#666666">[text]</text>
</g>
<!-- public.data_type_field&#45;&gt;public.data_type -->
<g id="edge4" class="edge">
<title>public.data_type_field:model_key&#45;&gt;public.data_type:model_key</title>
<path fill="none" stroke="black" d="M978.98,-980.09C1020.47,-969.8 976.27,-890.37 958.78,-830.2 937.75,-757.81 890.01,-758.75 868.84,-686.4 856.71,-644.94 824.64,-589.2 876.84,-589.2"/>
<polygon fill="black" stroke="black" points="979.06,-980.08 968.63,-976.69 973.75,-980.66 969.45,-981.13 969.45,-981.13 969.45,-981.13 973.75,-980.66 969.6,-985.64 979.06,-980.08"/>
<text text-anchor="start" x="411" y="-991.2" font-family="Arial" font-size="10.00">FOREIGN KEY (model_key, data_type_key) REFERENCES data_type(model_key, data_type_key) ON DELETE CASCADE</text>
</g>
<!-- public.data_type_field&#45;&gt;public.data_type -->
<g id="edge5" class="edge">
<title>public.data_type_field:model_key&#45;&gt;public.data_type:model_key</title>
<path fill="none" stroke="black" d="M979.41,-980.55C1039.97,-972.48 994.56,-891.38 976.78,-830.2 955.75,-757.81 908.01,-758.75 886.84,-686.4 874.76,-645.1 842.89,-589.64 876.44,-589.2"/>
<polygon fill="black" stroke="black" points="979.54,-980.54 969.27,-976.69 974.22,-980.88 969.9,-981.16 969.9,-981.16 969.9,-981.16 974.22,-980.88 969.85,-985.67 979.54,-980.54"/>
<text text-anchor="start" x="387.54" y="-965.2" font-family="Arial" font-size="10.00">FOREIGN KEY (model_key, field_data_type_key) REFERENCES data_type(model_key, data_type_key) ON DELETE CASCADE</text>
</g>
<!-- public.attribute -->
<g id="node5" class="node">
<title>public.attribute</title>
<polygon fill="#efefef" stroke="none" points="1071.84,-1104.4 1071.84,-1140 1319.79,-1140 1319.79,-1104.4 1071.84,-1104.4"/>
<polygon fill="none" stroke="black" points="1071.84,-1104.4 1071.84,-1140 1319.79,-1140 1319.79,-1104.4 1071.84,-1104.4"/>
<text text-anchor="start" x="1078.84" y="-1117.8" font-family="Arial Bold" font-size="18.00">public.attribute</text>
<text text-anchor="start" x="1188.3" y="-1117.8" font-family="Arial" font-size="14.00">    </text>
<text text-anchor="start" x="1219.42" y="-1117.8" font-family="Arial" font-size="14.00" fill="#666666">[BASE TABLE]</text>
<polygon fill="none" stroke="black" points="1071.84,-1073.6 1071.84,-1104.4 1319.79,-1104.4 1319.79,-1073.6 1071.84,-1073.6"/>
<text text-anchor="start" x="1078.84" y="-1085.8" font-family="Arial" font-size="14.00">model_key </text>
<text text-anchor="start" x="1150.43" y="-1085.8" font-family="Arial" font-size="14.00" fill="#666666">[text]</text>
<polygon fill="none" stroke="black" points="1071.84,-1042.8 1071.84,-1073.6 1319.79,-1073.6 1319.79,-1042.8 1071.84,-1042.8"/>
<text text-anchor="start" x="1078.84" y="-1055" font-family="Arial" font-size="14.00">attribute_key </text>
<text text-anchor="start" x="1162.88" y="-1055" font-family="Arial" font-size="14.00" fill="#666666">[text]</text>
<polygon fill="none" stroke="black" points="1071.84,-1012 1071.84,-1042.8 1319.79,-1042.8 1319.79,-1012 1071.84,-1012"/>
<text text-anchor="start" x="1078.84" y="-1024.2" font-family="Arial" font-size="14.00">class_key </text>
<text text-anchor="start" x="1144.2" y="-1024.2" font-family="Arial" font-size="14.00" fill="#666666">[text]</text>
<polygon fill="none" stroke="black" points="1071.84,-981.2 1071.84,-1012 1319.79,-1012 1319.79,-981.2 1071.84,-981.2"/>
<text text-anchor="start" x="1078.84" y="-993.4" font-family="Arial" font-size="14.00">sort_order </text>
<text text-anchor="start" x="1146.53" y="-993.4" font-family="Arial" font-size="14.00" fill="#666666">[integer]</text>
<polygon fill="none" stroke="black" points="1071.84,-950.4 1071.84,-981.2 1319.79,-981.2 1319.79,-950.4 1071.84,-950.4"/>
<text text-anchor="start" x="1078.84" y="-962.6" font-family="Arial" font-size="14.00">name </text>
<text text-anchor="start" x="1117.75" y="-962.6" font-family="Arial" font-size="14.00" fill="#666666">[text]</text>
<polygon fill="none" stroke="black" points="1071.84,-919.6 1071.84,-950.4 1319.79,-950.4 1319.79,-919.6 1071.84,-919.6"/>
<text text-anchor="start" x="1078.84" y="-931.8" font-family="Arial" font-size="14.00">details </text>
<text text-anchor="start" x="1123.2" y="-931.8" font-family="Arial" font-size="14.00" fill="#666666">[text]</text>
<polygon fill="none" stroke="black" points="1071.84,-888.8 1071.84,-919.6 1319.79,-919.6 1319.79,-888.8 1071.84,-888.8"/>
<text text-anchor="start" x="1078.84" y="-901" font-family="Arial" font-size="14.00">data_type_rules </text>
<text text-anchor="start" x="1182.35" y="-901" font-family="Arial" font-size="14.00" fill="#666666">[text]</text>
<polygon fill="none" stroke="black" points="1071.84,-858 1071.84,-888.8 1319.79,-888.8 1319.79,-858 1071.84,-858"/>
<text text-anchor="start" x="1078.84" y="-870.2" font-family="Arial" font-size="14.00">data_type_key </text>
<text text-anchor="start" x="1173.79" y="-870.2" font-family="Arial" font-size="14.00" fill="#666666">[text]</text>
<polygon fill="none" stroke="black" points="1071.84,-827.2 1071.84,-858 1319.79,-858 1319.79,-827.2 1071.84,-827.2"/>
<text text-anchor="start" x="1078.84" y="-839.4" font-family="Arial" font-size="14.00">derivation_policy_key </text>
<text text-anchor="start" x="1216.58" y="-839.4" font-family="Arial" font-size="14.00" fill="#666666">[text]</text>
<polygon fill="none" stroke="black" points="1071.84,-796.4 1071.84,-827.2 1319.79,-827.2 1319.79,-796.4 1071.84,-796.4"/>
<text text-anchor="start" x="1078.84" y="-808.6" font-family="Arial" font-size="14.00">nullable </text>
<text text-anchor="start" x="1130.99" y="-808.6" font-family="Arial" font-size="14.00" fill="#666666">[boolean]</text>
<polygon fill="none" stroke="black" points="1071.84,-765.6 1071.84,-796.4 1319.79,-796.4 1319.79,-765.6 1071.84,-765.6"/>
<text text-anchor="start" x="1078.84" y="-777.8" font-family="Arial" font-size="14.00">uml_comment </text>
<text text-anchor="start" x="1170.64" y="-777.8" font-family="Arial" font-size="14.00" fill="#666666">[text]</text>
</g>
<!-- public.attribute&#45;&gt;public.data_type -->
<g id="edge6" class="edge">
<title>public.attribute:model_key&#45;&gt;public.data_type:model_key</title>
<path fill="none" stroke="black" d="M1060.59,-1087.25C993.08,-1062.83 1032.48,-789.52 1071.84,-722.4 1088.34,-694.26 1119.18,-714.47 1135.79,-686.4 1157.79,-649.22 1179.99,-589.2 1136.79,-589.2"/>
<polygon fill="black" stroke="black" points="1060.65,-1087.26 1069.75,-1093.38 1065.91,-1088.16 1070.18,-1088.89 1070.18,-1088.89 1070.18,-1088.89 1065.91,-1088.16 1071.26,-1084.51 1060.65,-1087.26"/>
<text text-anchor="start" x="513.06" y="-1099" font-family="Arial" font-size="10.00">FOREIGN KEY (model_key, data_type_key) REFERENCES data_type(model_key, data_type_key) ON DELETE CASCADE</text>
</g>
<!-- public.query_parameter -->
<g id="node6" class="node">
<title>public.query_parameter</title>
<polygon fill="#efefef" stroke="none" points="1423.86,-1058.2 1423.86,-1093.8 1733.77,-1093.8 1733.77,-1058.2 1423.86,-1058.2"/>
<polygon fill="none" stroke="black" points="1423.86,-1058.2 1423.86,-1093.8 1733.77,-1093.8 1733.77,-1058.2 1423.86,-1058.2"/>
<text text-anchor="start" x="1430.86" y="-1071.6" font-family="Arial Bold" font-size="18.00">public.query_parameter</text>
<text text-anchor="start" x="1602.28" y="-1071.6" font-family="Arial" font-size="14.00">    </text>
<text text-anchor="start" x="1633.4" y="-1071.6" font-family="Arial" font-size="14.00" fill="#666666">[BASE TABLE]</text>
<polygon fill="none" stroke="black" points="1423.86,-1027.4 1423.86,-1058.2 1733.77,-1058.2 1733.77,-1027.4 1423.86,-1027.4"/>
<text text-anchor="start" x="1430.86" y="-1039.6" font-family="Arial" font-size="14.00">model_key </text>
<text text-anchor="start" x="1502.45" y="-1039.6" font-family="Arial" font-size="14.00" fill="#666666">[text]</text>
<polygon fill="none" stroke="black" points="1423.86,-996.6 1423.86,-1027.4 1733.77,-1027.4 1733.77,-996.6 1423.86,-996.6"/>
<text text-anchor="start" x="1430.86" y="-1008.8" font-family="Arial" font-size="14.00">query_key </text>
<text text-anchor="start" x="1499.34" y="-1008.8" font-family="Arial" font-size="14.00" fill="#666666">[text]</text>
<polygon fill="none" stroke="black" points="1423.86,-965.8 1423.86,-996.6 1733.77,-996.6 1733.77,-965.8 1423.86,-965.8"/>
<text text-anchor="start" x="1430.86" y="-978" font-family="Arial" font-size="14.00">parameter_key </text>
<text text-anchor="start" x="1528.13" y="-978" font-family="Arial" font-size="14.00" fill="#666666">[text]</text>
<polygon fill="none" stroke="black" points="1423.86,-935 1423.86,-965.8 1733.77,-965.8 1733.77,-935 1423.86,-935"/>
<text text-anchor="start" x="1430.86" y="-947.2" font-family="Arial" font-size="14.00">name </text>
<text text-anchor="start" x="1469.77" y="-947.2" font-family="Arial" font-size="14.00" fill="#666666">[text]</text>
<polygon fill="none" stroke="black" points="1423.86,-904.2 1423.86,-935 1733.77,-935 1733.77,-904.2 1423.86,-904.2"/>
<text text-anchor="start" x="1430.86" y="-916.4" font-family="Arial" font-size="14.00">sort_order </text>
<text text-anchor="start" x="1498.56" y="-916.4" font-family="Arial" font-size="14.00" fill="#666666">[integer]</text>
<polygon fill="none" stroke="black" points="1423.86,-873.4 1423.86,-904.2 1733.77,-904.2 1733.77,-873.4 1423.86,-873.4"/>
<text text-anchor="start" x="1430.86" y="-885.6" font-family="Arial" font-size="14.00">data_type_rules </text>
<text text-anchor="start" x="1534.38" y="-885.6" font-family="Arial" font-size="14.00" fill="#666666">[text]</text>
<polygon fill="none" stroke="black" points="1423.86,-842.6 1423.86,-873.4 1733.77,-873.4 1733.77,-842.6 1423.86,-842.6"/>
<text text-anchor="start" x="1430.86" y="-854.8" font-family="Arial" font-size="14.00">data_type_key </text>
<text text-anchor="start" x="1525.82" y="-854.8" font-family="Arial" font-size="14.00" fill="#666666">[text]</text>
<polygon fill="none" stroke="black" points="1423.86,-811.8 1423.86,-842.6 1733.77,-842.6 1733.77,-811.8 1423.86,-811.8"/>
<text text-anchor="start" x="1430.86" y="-824" font-family="Arial" font-size="14.00">nullable </text>
<text text-anchor="start" x="1483.01" y="-824" font-family="Arial" font-size="14.00" fill="#666666">[boolean]</text>
</g>
<!-- public.query_parameter&#45;&gt;public.data_type -->
<g id="edge7" class="edge">
<title>public.query_parameter:model_key&#45;&gt;public.data_type:model_key</title>
<path fill="none" stroke="black" d="M1412.88,-1040.84C1356.81,-1016.8 1410.83,-778.63 1371.82,-722.4 1303.37,-623.75 1256.86,-589.2 1136.79,-589.2"/>
<polygon fill="black" stroke="black" points="1412.72,-1040.81 1421.66,-1047.15 1417.95,-1041.84 1422.2,-1042.67 1422.2,-1042.67 1422.2,-1042.67 1417.95,-1041.84 1423.4,-1038.32 1412.72,-1040.81"/>
<text text-anchor="start" x="1147.47" y="-1026.8" font-family="Arial" font-size="10.00">FOREIGN KEY (model_key, data_type_key) REFERENCES data_type(model_key, data_type_key) ON DELETE CASCADE</text>
</g>
<!-- public.action_parameter -->
<g id="node7" class="node">
<title>public.action_parameter</title>
<polygon fill="#efefef" stroke="none" points="1838.36,-1058.2 1838.36,-1093.8 2151.27,-1093.8 2151.27,-1058.2 1838.36,-1058.2"/>
<polygon fill="none" stroke="black" points="1838.36,-1058.2 1838.36,-1093.8 2151.27,-1093.8 2151.27,-1058.2 1838.36,-1058.2"/>
<text text-anchor="start" x="1845.36" y="-1071.6" font-family="Arial Bold" font-size="18.00">public.action_parameter</text>
<text text-anchor="start" x="2019.78" y="-1071.6" font-family="Arial" font-size="14.00">    </text>
<text text-anchor="start" x="2050.9" y="-1071.6" font-family="Arial" font-size="14.00" fill="#666666">[BASE TABLE]</text>
<polygon fill="none" stroke="black" points="1838.36,-1027.4 1838.36,-1058.2 2151.27,-1058.2 2151.27,-1027.4 1838.36,-1027.4"/>
<text text-anchor="start" x="1845.36" y="-1039.6" font-family="Arial" font-size="14.00">model_key </text>
<text text-anchor="start" x="1916.95" y="-1039.6" font-family="Arial" font-size="14.00" fill="#666666">[text]</text>
<polygon fill="none" stroke="black" points="1838.36,-996.6 1838.36,-1027.4 2151.27,-1027.4 2151.27,-996.6 1838.36,-996.6"/>
<text text-anchor="start" x="1845.36" y="-1008.8" font-family="Arial" font-size="14.00">action_key </text>
<text text-anchor="start" x="1916.18" y="-1008.8" font-family="Arial" font-size="14.00" fill="#666666">[text]</text>
<polygon fill="none" stroke="black" points="1838.36,-965.8 1838.36,-996.6 2151.27,-996.6 2151.27,-965.8 1838.36,-965.8"/>
<text text-anchor="start" x="1845.36" y="-978" font-family="Arial" font-size="14.00">parameter_key </text>
<text text-anchor="start" x="1942.63" y="-978" font-family="Arial" font-size="14.00" fill="#666666">[text]</text>
<polygon fill="none" stroke="black" points="1838.36,-935 1838.36,-965.8 2151.27,-965.8 2151.27,-935 1838.36,-935"/>
<text text-anchor="start" x="1845.36" y="-947.2" font-family="Arial" font-size="14.00">name </text>
<text text-anchor="start" x="1884.27" y="-947.2" font-family="Arial" font-size="14.00" fill="#666666">[text]</text>
<polygon fill="none" stroke="black" points="1838.36,-904.2 1838.36,-935 2151.27,-935 2151.27,-904.2 1838.36,-904.2"/>
<text text-anchor="start" x="1845.36" y="-916.4" font-family="Arial" font-size="14.00">sort_order </text>
<text text-anchor="start" x="1913.06" y="-916.4" font-family="Arial" font-size="14.00" fill="#666666">[integer]</text>
<polygon fill="none" stroke="black" points="1838.36,-873.4 1838.36,-904.2 2151.27,-904.2 2151.27,-873.4 1838.36,-873.4"/>
<text text-anchor="start" x="1845.36" y="-885.6" font-family="Arial" font-size="14.00">data_type_rules </text>
<text text-anchor="start" x="1948.88" y="-885.6" font-family="Arial" font-size="14.00" fill="#666666">[text]</text>
<polygon fill="none" stroke="black" points="1838.36,-842.6 1838.36,-873.4 2151.27,-873.4 2151.27,-842.6 1838.36,-842.6"/>
<text text-anchor="start" x="1845.36" y="-854.8" font-family="Arial" font-size="14.00">data_type_key </text>
<text text-anchor="start" x="1940.32" y="-854.8" font-family="Arial" font-size="14.00" fill="#666666">[text]</text>
<polygon fill="none" stroke="black" points="1838.36,-811.8 1838.36,-842.6 2151.27,-842.6 2151.27,-811.8 1838.36,-811.8"/>
<text text-anchor="start" x="1845.36" y="-824" font-family="Arial" font-size="14.00">nullable </text>
<text text-anchor="start" x="1897.51" y="-824" font-family="Arial" font-size="14.00" fill="#666666">[boolean]</text>
</g>
<!-- public.action_parameter&#45;&gt;public.data_type -->
<g id="edge8" class="edge">
<title>public.action_parameter:model_key&#45;&gt;public.data_type:model_key</title>
<path fill="none" stroke="black" d="M1827.44,-1040.79C1772.09,-1016.11 1833.17,-771.83 1785.82,-722.4 1683.96,-616.08 1284.02,-589.2 1136.79,-589.2"/>
<polygon fill="black" stroke="black" points="1827.23,-1040.74 1836.14,-1047.14 1832.46,-1041.81 1836.71,-1042.67 1836.71,-1042.67 1836.71,-1042.67 1832.46,-1041.81 1837.93,-1038.32 1827.23,-1040.74"/>
<text text-anchor="start" x="1844.36" y="-1052.8" font-family="Arial" font-size="10.00">FOREIGN KEY (model_key, data_type_key) REFERENCES data_type(model_key, data_type_key) ON DELETE CASCADE</text>
</g>
</g>
</svg>
