<?xml version="1.0" encoding="UTF-8" standalone="no"?>
<!DOCTYPE svg PUBLIC "-//W3C//DTD SVG 1.1//EN"
 "http://www.w3.org/Graphics/SVG/1.1/DTD/svg11.dtd">
<!-- Generated by graphviz version 12.1.2 (20240928.0832)
 -->
<!-- Title: public.actor_generalization Pages: 1 -->
<svg width="982pt" height="1099pt"
 viewBox="0.00 0.00 981.97 1098.80" xmlns="http://www.w3.org/2000/svg" xmlns:xlink="http://www.w3.org/1999/xlink">
<g id="graph0" class="graph" transform="scale(1 1) rotate(0) translate(4 1094.8)">
<title>public.actor_generalization</title>
<polygon fill="white" stroke="none" points="-4,4 -4,-1094.8 977.97,-1094.8 977.97,4 -4,4"/>
<!-- public.actor_generalization -->
<g id="node1" class="node">
<title>public.actor_generalization</title>
<polygon fill="#efefef" stroke="none" points="46.2,-573.8 46.2,-609.4 381.1,-609.4 381.1,-573.8 46.2,-573.8"/>
<polygon fill="none" stroke="black" points="46.2,-573.8 46.2,-609.4 381.1,-609.4 381.1,-573.8 46.2,-573.8"/>
<text text-anchor="start" x="53.2" y="-587.2" font-family="Arial Bold" font-size="18.00">public.actor_generalization</text>
<text text-anchor="start" x="249.61" y="-587.2" font-family="Arial" font-size="14.00">    </text>
<text text-anchor="start" x="280.73" y="-587.2" font-family="Arial" font-size="14.00" fill="#666666">[BASE TABLE]</text>
<polygon fill="none" stroke="black" points="46.2,-543 46.2,-573.8 381.1,-573.8 381.1,-543 46.2,-543"/>
<text text-anchor="start" x="53.2" y="-555.2" font-family="Arial" font-size="14.00">model_key </text>
<text text-anchor="start" x="124.79" y="-555.2" font-family="Arial" font-size="14.00" fill="#666666">[text]</text>
<polygon fill="none" stroke="black" points="46.2,-512.2 46.2,-543 381.1,-543 381.1,-512.2 46.2,-512.2"/>
<text text-anchor="start" x="53.2" y="-524.4" font-family="Arial" font-size="14.00">generalization_key </text>
<text text-anchor="start" x="173.83" y="-524.4" font-family="Arial" font-size="14.00" fill="#666666">[text]</text>
<polygon fill="none" stroke="black" points="46.2,-481.4 46.2,-512.2 381.1,-512.2 381.1,-481.4 46.2,-481.4"/>
<text text-anchor="start" x="53.2" y="-493.6" font-family="Arial" font-size="14.00">name </text>
<text text-anchor="start" x="92.11" y="-493.6" font-family="Arial" font-size="14.00" fill="#666666">[text]</text>
<polygon fill="none" stroke="black" points="46.2,-450.6 46.2,-481.4 381.1,-481.4 381.1,-450.6 46.2,-450.6"/>
<text text-anchor="start" x="53.2" y="-462.8" font-family="Arial" font-size="14.00">is_complete </text>
<text text-anchor="start" x="131.79" y="-462.8" font-family="Arial" font-size="14.00" fill="#666666">[boolean]</text>
<polygon fill="none" stroke="black" points="46.2,-419.8 46.2,-450.6 381.1,-450.6 381.1,-419.8 46.2,-419.8"/>
<text text-anchor="start" x="53.2" y="-432" font-family="Arial" font-size="14.00">is_static </text>
<text text-anchor="start" x="107.66" y="-432" font-family="Arial" font-size="14.00" fill="#666666">[boolean]</text>
<polygon fill="none" stroke="black" points="46.2,-389 46.2,-419.8 381.1,-419.8 381.1,-389 46.2,-389"/>
<text text-anchor="start" x="53.2" y="-401.2" font-family="Arial" font-size="14.00">details </text>
<text text-anchor="start" x="97.56" y="-401.2" font-family="Arial" font-size="14.00" fill="#666666">[text]</text>
<polygon fill="none" stroke="black" points="46.2,-358.2 46.2,-389 381.1,-389 381.1,-358.2 46.2,-358.2"/>
<text text-anchor="start" x="53.2" y="-370.4" font-family="Arial" font-size="14.00">unfinished_notes </text>
<text text-anchor="start" x="162.95" y="-370.4" font-family="Arial" font-size="14.00" fill="#666666">[text]</text>
<polygon fill="none" stroke="black" points="46.2,-327.4 46.2,-358.2 381.1,-358.2 381.1,-327.4 46.2,-327.4"/>
<text text-anchor="start" x="53.2" y="-339.6" font-family="Arial" font-size="14.00">uml_comment </text>
<text text-anchor="start" x="145.01" y="-339.6" font-family="Arial" font-size="14.00" fill="#666666">[text]</text>
<polygon fill="none" stroke="black" stroke-width="3" points="44.7,-325.9 44.7,-610.9 382.6,-610.9 382.6,-325.9 44.7,-325.9"/>
</g>
<!-- public.model -->
<g id="node2" class="node">
<title>public.model</title>
<polygon fill="#efefef" stroke="none" points="97.16,-166.4 97.16,-202 330.14,-202 330.14,-166.4 97.16,-166.4"/>
<polygon fill="none" stroke="black" points="97.16,-166.4 97.16,-202 330.14,-202 330.14,-166.4 97.16,-166.4"/>
<text text-anchor="start" x="104.16" y="-179.8" font-family="Arial Bold" font-size="18.00">public.model</text>
<text text-anchor="start" x="198.65" y="-179.8" font-family="Arial" font-size="14.00">    </text>
<text text-anchor="start" x="229.76" y="-179.8" font-family="Arial" font-size="14.00" fill="#666666">[BASE TABLE]</text>
<polygon fill="none" stroke="black" points="97.16,-135.6 97.16,-166.4 330.14,-166.4 330.14,-135.6 97.16,-135.6"/>
<text text-anchor="start" x="104.16" y="-147.8" font-family="Arial" font-size="14.00">model_key </text>
<text text-anchor="start" x="175.76" y="-147.8" font-family="Arial" font-size="14.00" fill="#666666">[text]</text>
<polygon fill="none" stroke="black" points="97.16,-104.8 97.16,-135.6 330.14,-135.6 330.14,-104.8 97.16,-104.8"/>
<text text-anchor="start" x="104.16" y="-117" font-family="Arial" font-size="14.00">name </text>
<text text-anchor="start" x="143.07" y="-117" font-family="Arial" font-size="14.00" fill="#666666">[text]</text>
<polygon fill="none" stroke="black" points="97.16,-74 97.16,-104.8 330.14,-104.8 330.14,-74 97.16,-74"/>
<text text-anchor="start" x="104.16" y="-86.2" font-family="Arial" font-size="14.00">details </text>
<text text-anchor="start" x="148.52" y="-86.2" font-family="Arial" font-size="14.00" fill="#666666">[text]</text>
<polygon fill="none" stroke="black" points="97.16,-43.2 97.16,-74 330.14,-74 330.14,-43.2 97.16,-43.2"/>
<text text-anchor="start" x="104.16" y="-55.4" font-family="Arial" font-size="14.00">unfinished_notes </text>
<text text-anchor="start" x="213.91" y="-55.4" font-family="Arial" font-size="14.00" fill="#666666">[text]</text>
</g>
<!-- public.actor_generalization&#45;&gt;public.model -->
<g id="edge1" class="edge">
<title>public.actor_generalization:model_key&#45;&gt;public.model:model_key</title>
<path fill="none" stroke="black" d="M392.15,-556.58C469.29,-527.19 418.81,-151 331.14,-151"/>
<polygon fill="black" stroke="black" points="392.27,-556.56 381.63,-553.91 387.02,-557.51 382.76,-558.28 382.76,-558.28 382.76,-558.28 387.02,-557.51 383.23,-562.77 392.27,-556.56"/>
<text text-anchor="start" x="389.1" y="-568.4" font-family="Arial" font-size="10.00">FOREIGN KEY (model_key) REFERENCES model(model_key) ON DELETE CASCADE</text>
</g>
<!-- public.actor -->
<g id="node3" class="node">
<title>public.actor</title>
<polygon fill="#efefef" stroke="none" points="101.67,-1012 101.67,-1047.6 325.63,-1047.6 325.63,-1012 101.67,-1012"/>
<polygon fill="none" stroke="black" points="101.67,-1012 101.67,-1047.6 325.63,-1047.6 325.63,-1012 101.67,-1012"/>
<text text-anchor="start" x="108.67" y="-1025.4" font-family="Arial Bold" font-size="18.00">public.actor</text>
<text text-anchor="start" x="194.14" y="-1025.4" font-family="Arial" font-size="14.00">    </text>
<text text-anchor="start" x="225.25" y="-1025.4" font-family="Arial" font-size="14.00" fill="#666666">[BASE TABLE]</text>
<polygon fill="none" stroke="black" points="101.67,-981.2 101.67,-1012 325.63,-1012 325.63,-981.2 101.67,-981.2"/>
<text text-anchor="start" x="108.67" y="-993.4" font-family="Arial" font-size="14.00">model_key </text>
<text text-anchor="start" x="180.26" y="-993.4" font-family="Arial" font-size="14.00" fill="#666666">[text]</text>
<polygon fill="none" stroke="black" points="101.67,-950.4 101.67,-981.2 325.63,-981.2 325.63,-950.4 101.67,-950.4"/>
<text text-anchor="start" x="108.67" y="-962.6" font-family="Arial" font-size="14.00">actor_key </text>
<text text-anchor="start" x="173.26" y="-962.6" font-family="Arial" font-size="14.00" fill="#666666">[text]</text>
<polygon fill="none" stroke="black" points="101.67,-919.6 101.67,-950.4 325.63,-950.4 325.63,-919.6 101.67,-919.6"/>
<text text-anchor="start" x="108.67" y="-931.8" font-family="Arial" font-size="14.00">name </text>
<text text-anchor="start" x="147.58" y="-931.8" font-family="Arial" font-size="14.00" fill="#666666">[text]</text>
<polygon fill="none" stroke="black" points="101.67,-888.8 101.67,-919.6 325.63,-919.6 325.63,-888.8 101.67,-888.8"/>
<text text-anchor="start" x="108.67" y="-901" font-family="Arial" font-size="14.00">details </text>
<text text-anchor="start" x="153.03" y="-901" font-family="Arial" font-size="14.00" fill="#666666">[text]</text>
<polygon fill="none" stroke="black" points="101.67,-858 101.67,-888.8 325.63,-888.8 325.63,-858 101.67,-858"/>
<text text-anchor="start" x="108.67" y="-870.2" font-family="Arial" font-size="14.00">unfinished_notes </text>
<text text-anchor="start" x="218.42" y="-870.2" font-family="Arial" font-size="14.00" fill="#666666">[text]</text>
<polygon fill="none" stroke="black" points="101.67,-827.2 101.67,-858 325.63,-858 325.63,-827.2 101.67,-827.2"/>
<text text-anchor="start" x="108.67" y="-839.4" font-family="Arial" font-size="14.00">actor_type </text>
<text text-anchor="start" x="177.93" y="-839.4" font-family="Arial" font-size="14.00" fill="#666666">[actor_type]</text>
<polygon fill="none" stroke="black" points="101.67,-796.4 101.67,-827.2 325.63,-827.2 325.63,-796.4 101.67,-796.4"/>
<text text-anchor="start" x="108.67" y="-808.6" font-family="Arial" font-size="14.00">superclass_of_key </text>
<text text-anchor="start" x="228.51" y="-808.6" font-family="Arial" font-size="14.00" fill="#666666">[text]</text>
<polygon fill="none" stroke="black" points="101.67,-765.6 101.67,-796.4 325.63,-796.4 325.63,-765.6 101.67,-765.6"/>
<text text-anchor="start" x="108.67" y="-777.8" font-family="Arial" font-size="14.00">subclass_of_key </text>
<text text-anchor="start" x="216.06" y="-777.8" font-family="Arial" font-size="14.00" fill="#666666">[text]</text>
<polygon fill="none" stroke="black" points="101.67,-734.8 101.67,-765.6 325.63,-765.6 325.63,-734.8 101.67,-734.8"/>
<text text-anchor="start" x="108.67" y="-747" font-family="Arial" font-size="14.00">uml_comment </text>
<text text-anchor="start" x="200.48" y="-747" font-family="Arial" font-size="14.00" fill="#666666">[text]</text>
</g>
<!-- public.actor&#45;&gt;public.actor_generalization -->
<g id="edge2" class="edge">
<title>public.actor:model_key&#45;&gt;public.actor_generalization:model_key</title>
<path fill="none" stroke="black" d="M336.66,-994.74C419.8,-963.86 467.86,-558.4 382.1,-558.4"/>
<polygon fill="black" stroke="black" points="336.79,-994.72 326.14,-992.11 331.54,-995.69 327.28,-996.48 327.28,-996.48 327.28,-996.48 331.54,-995.69 327.77,-1000.96 336.79,-994.72"/>
<text text-anchor="start" x="333.63" y="-1006.6" font-family="Arial" font-size="10.00">FOREIGN KEY (model_key, subclass_of_key) REFERENCES actor_generalization(model_key, generalization_key) ON DELETE CASCADE</text>
</g>
<!-- public.actor&#45;&gt;public.actor_generalization -->
<g id="edge3" class="edge">
<title>public.actor:model_key&#45;&gt;public.actor_generalization:model_key</title>
<path fill="none" stroke="black" d="M337.11,-995.19C437.18,-968.06 485.6,-559.23 382.41,-558.4"/>
<polygon fill="black" stroke="black" points="337.18,-995.18 326.65,-992.1 331.89,-995.91 327.6,-996.51 327.6,-996.51 327.6,-996.51 331.89,-995.91 327.89,-1001.01 337.18,-995.18"/>
<text text-anchor="start" x="333.94" y="-980.6" font-family="Arial" font-size="10.00">FOREIGN KEY (model_key, superclass_of_key) REFERENCES actor_generalization(model_key, generalization_key) ON DELETE CASCADE</text>
</g>
</g>
</svg>
