<?xml version="1.0" encoding="UTF-8" standalone="no"?>
<!DOCTYPE svg PUBLIC "-//W3C//DTD SVG 1.1//EN"
 "http://www.w3.org/Graphics/SVG/1.1/DTD/svg11.dtd">
<!-- Generated by graphviz version 12.1.2 (20240928.0832)
 -->
<!-- Title: public.data_type Pages: 1 -->
<svg width="2410pt" height="1130pt"
 viewBox="0.00 0.00 2410.14 1129.60" xmlns="http://www.w3.org/2000/svg" xmlns:xlink="http://www.w3.org/1999/xlink">
<g id="graph0" class="graph" transform="scale(1 1) rotate(0) translate(4 1125.6)">
<title>public.data_type</title>
<polygon fill="white" stroke="none" points="-4,4 -4,-1125.6 2406.14,-1125.6 2406.14,4 -4,4"/>
<!-- public.data_type -->
<g id="node1" class="node">
<title>public.data_type</title>
<polygon fill="#efefef" stroke="none" points="877.84,-573.8 877.84,-609.4 1135.79,-609.4 1135.79,-573.8 877.84,-573.8"/>
<polygon fill="none" stroke="black" points="877.84,-573.8 877.84,-609.4 1135.79,-609.4 1135.79,-573.8 877.84,-573.8"/>
<text text-anchor="start" x="884.84" y="-587.2" font-family="Arial Bold" font-size="18.00">public.data_type</text>
<text text-anchor="start" x="1004.3" y="-587.2" font-family="Arial" font-size="14.00">    </text>
<text text-anchor="start" x="1035.42" y="-587.2" font-family="Arial" font-size="14.00" fill="#666666">[BASE TABLE]</text>
<polygon fill="none" stroke="black" points="877.84,-543 877.84,-573.8 1135.79,-573.8 1135.79,-543 877.84,-543"/>
<text text-anchor="start" x="884.84" y="-555.2" font-family="Arial" font-size="14.00">model_key </text>
<text text-anchor="start" x="956.43" y="-555.2" font-family="Arial" font-size="14.00" fill="#666666">[text]</text>
<polygon fill="none" stroke="black" points="877.84,-512.2 877.84,-543 1135.79,-543 1135.79,-512.2 877.84,-512.2"/>
<text text-anchor="start" x="884.84" y="-524.4" font-family="Arial" font-size="14.00">data_type_key </text>
<text text-anchor="start" x="979.8" y="-524.4" font-family="Arial" font-size="14.00" fill="#666666">[text]</text>
<polygon fill="none" stroke="black" points="877.84,-481.4 877.84,-512.2 1135.79,-512.2 1135.79,-481.4 877.84,-481.4"/>
<text text-anchor="start" x="884.84" y="-493.6" font-family="Arial" font-size="14.00">collection_type </text>
<text text-anchor="start" x="981.34" y="-493.6" font-family="Arial" font-size="14.00" fill="#666666">[collection_type]</text>
<polygon fill="none" stroke="black" points="877.84,-450.6 877.84,-481.4 1135.79,-481.4 1135.79,-450.6 877.84,-450.6"/>
<text text-anchor="start" x="884.84" y="-462.8" font-family="Arial" font-size="14.00">collection_unique </text>
<text text-anchor="start" x="996.92" y="-462.8" font-family="Arial" font-size="14.00" fill="#666666">[boolean]</text>
<polygon fill="none" stroke="black" points="877.84,-419.8 877.84,-450.6 1135.79,-450.6 1135.79,-419.8 877.84,-419.8"/>
<text text-anchor="start" x="884.84" y="-432" font-family="Arial" font-size="14.00">collection_min </text>
<text text-anchor="start" x="977.44" y="-432" font-family="Arial" font-size="14.00" fill="#666666">[bigint]</text>
<polygon fill="none" stroke="black" points="877.84,-389 877.84,-419.8 1135.79,-419.8 1135.79,-389 877.84,-389"/>
<text text-anchor="start" x="884.84" y="-401.2" font-family="Arial" font-size="14.00">collection_max </text>
<text text-anchor="start" x="981.33" y="-401.2" font-family="Arial" font-size="14.00" fill="#666666">[bigint]</text>
<polygon fill="none" stroke="black" points="877.84,-358.2 877.84,-389 1135.79,-389 1135.79,-358.2 877.84,-358.2"/>
<text text-anchor="start" x="884.84" y="-370.4" font-family="Arial" font-size="14.00">type_spec_notation </text>
<text text-anchor="start" x="1010.16" y="-370.4" font-family="Arial" font-size="14.00" fill="#666666">[notation]</text>
<polygon fill="none" stroke="black" points="877.84,-327.4 877.84,-358.2 1135.79,-358.2 1135.79,-327.4 877.84,-327.4"/>
<text text-anchor="start" x="884.84" y="-339.6" font-family="Arial" font-size="14.00">type_spec_specification </text>
<text text-anchor="start" x="1037.38" y="-339.6" font-family="Arial" font-size="14.00" fill="#666666">[text]</text>
<polygon fill="none" stroke="black" stroke-width="3" points="876.34,-325.9 876.34,-610.9 1137.29,-610.9 1137.29,-325.9 876.34,-325.9"/>
</g>
<!-- public.model -->
<g id="node2" class="node">
<title>public.model</title>
<polygon fill="#efefef" stroke="none" points="890.33,-166.4 890.33,-202 1123.3,-202 1123.3,-166.4 890.33,-166.4"/>
<polygon fill="none" stroke="black" points="890.33,-166.4 890.33,-202 1123.3,-202 1123.3,-166.4 890.33,-166.4"/>
<text text-anchor="start" x="897.33" y="-179.8" font-family="Arial Bold" font-size="18.00">public.model</text>
<text text-anchor="start" x="991.81" y="-179.8" font-family="Arial" font-size="14.00">    </text>
<text text-anchor="start" x="1022.93" y="-179.8" font-family="Arial" font-size="14.00" fill="#666666">[BASE TABLE]</text>
<polygon fill="none" stroke="black" points="890.33,-135.6 890.33,-166.4 1123.3,-166.4 1123.3,-135.6 890.33,-135.6"/>
<text text-anchor="start" x="897.33" y="-147.8" font-family="Arial" font-size="14.00">model_key </text>
<text text-anchor="start" x="968.92" y="-147.8" font-family="Arial" font-size="14.00" fill="#666666">[text]</text>
<polygon fill="none" stroke="black" points="890.33,-104.8 890.33,-135.6 1123.3,-135.6 1123.3,-104.8 890.33,-104.8"/>
<text text-anchor="start" x="897.33" y="-117" font-family="Arial" font-size="14.00">name </text>
<text text-anchor="start" x="936.24" y="-117" font-family="Arial" font-size="14.00" fill="#666666">[text]</text>
<polygon fill="none" stroke="black" points="890.33,-74 890.33,-104.8 1123.3,-104.8 1123.3,-74 890.33,-74"/>
<text text-anchor="start" x="897.33" y="-86.2" font-family="Arial" font-size="14.00">details </text>
<text text-anchor="start" x="941.69" y="-86.2" font-family="Arial" font-size="14.00" fill="#666666">[text]</text>
<polygon fill="none" stroke="black" points="890.33,-43.2 890.33,-74 1123.3,-74 1123.3,-43.2 890.33,-43.2"/>
<text text-anchor="start" x="897.33" y="-55.4" font-family="Arial" font-size="14.00">unfinished_notes </text>
<text text-anchor="start" x="1007.08" y="-55.4" font-family="Arial" font-size="14.00" fill="#666666">[text]</text>
</g>
<!-- public.data_type&#45;&gt;public.model -->
<g id="edge1" class="edge">
<title>public.data_type:model_key&#45;&gt;public.model:model_key</title>
<path fill="none" stroke="black" d="M1147.18,-557.94C1317.39,-542.64 1301.91,-151 1124.3,-151"/>
<polygon fill="black" stroke="black" points="1147.11,-557.94 1136.93,-553.89 1141.79,-558.18 1137.46,-558.37 1137.46,-558.37 1137.46,-558.37 1141.79,-558.18 1137.32,-562.88 1147.11,-557.94"/>
<text text-anchor="start" x="1143.79" y="-568.4" font-family="Arial" font-size="10.00">FOREIGN KEY (model_key) REFERENCES model(model_key) ON DELETE CASCADE</text>
</g>
<!-- public.data_type_atomic -->
<g id="node3" class="node">
<title>public.data_type_atomic</title>
<polygon fill="#efefef" stroke="none" points="247.85,-981.2 247.85,-1016.8 563.78,-1016.8 563.78,-981.2 247.85,-981.2"/>
<polygon fill="none" stroke="black" points="247.85,-981.2 247.85,-1016.8 563.78,-1016.8 563.78,-981.2 247.85,-981.2"/>
<text text-anchor="start" x="254.85" y="-994.6" font-family="Arial Bold" font-size="18.00">public.data_type_atomic</text>
<text text-anchor="start" x="432.29" y="-994.6" font-family="Arial" font-size="14.00">    </text>
<text text-anchor="start" x="463.41" y="-994.6" font-family="Arial" font-size="14.00" fill="#666666">[BASE TABLE]</text>
<polygon fill="none" stroke="black" points="247.85,-950.4 247.85,-981.2 563.78,-981.2 563.78,-950.4 247.85,-950.4"/>
<text text-anchor="start" x="254.85" y="-962.6" font-family="Arial" font-size="14.00">model_key </text>
<text text-anchor="start" x="326.44" y="-962.6" font-family="Arial" font-size="14.00" fill="#666666">[text]</text>
<polygon fill="none" stroke="black" points="247.85,-919.6 247.85,-950.4 563.78,-950.4 563.78,-919.6 247.85,-919.6"/>
<text text-anchor="start" x="254.85" y="-931.8" font-family="Arial" font-size="14.00">data_type_key </text>
<text text-anchor="start" x="349.81" y="-931.8" font-family="Arial" font-size="14.00" fill="#666666">[text]</text>
<polygon fill="none" stroke="black" points="247.85,-888.8 247.85,-919.6 563.78,-919.6 563.78,-888.8 247.85,-888.8"/>
<text text-anchor="start" x="254.85" y="-901" font-family="Arial" font-size="14.00">constraint_type </text>
<text text-anchor="start" x="353.68" y="-901" font-family="Arial" font-size="14.00" fill="#666666">[constraint_type]</text>
<polygon fill="none" stroke="black" points="247.85,-858 247.85,-888.8 563.78,-888.8 563.78,-858 247.85,-858"/>
<text text-anchor="start" x="254.85" y="-870.2" font-family="Arial" font-size="14.00">reference </text>
<text text-anchor="start" x="317.88" y="-870.2" font-family="Arial" font-size="14.00" fill="#666666">[text]</text>
<polygon fill="none" stroke="black" points="247.85,-827.2 247.85,-858 563.78,-858 563.78,-827.2 247.85,-827.2"/>
<text text-anchor="start" x="254.85" y="-839.4" font-family="Arial" font-size="14.00">enum_ordered </text>
<text text-anchor="start" x="349.8" y="-839.4" font-family="Arial" font-size="14.00" fill="#666666">[boolean]</text>
<polygon fill="none" stroke="black" points="247.85,-796.4 247.85,-827.2 563.78,-827.2 563.78,-796.4 247.85,-796.4"/>
<text text-anchor="start" x="254.85" y="-808.6" font-family="Arial" font-size="14.00">object_class_key </text>
<text text-anchor="start" x="365.35" y="-808.6" font-family="Arial" font-size="14.00" fill="#666666">[text]</text>
</g>
<!-- public.data_type_atomic&#45;&gt;public.data_type -->
<g id="edge2" class="edge">
<title>public.data_type_atomic:model_key&#45;&gt;public.data_type:model_key</title>
<path fill="none" stroke="black" d="M574.87,-963.42C621.26,-939.25 580.97,-738.25 615.82,-691.6 693.75,-587.25 746.6,-558.4 876.84,-558.4"/>
<polygon fill="black" stroke="black" points="574.84,-963.43 564.07,-961.34 569.65,-964.65 565.43,-965.65 565.43,-965.65 565.43,-965.65 569.65,-964.65 566.14,-970.1 574.84,-963.43"/>
<text text-anchor="start" x="7" y="-975.8" font-family="Arial" font-size="10.00">FOREIGN KEY (model_key, data_type_key) REFERENCES data_type(model_key, data_type_key) ON DELETE CASCADE</text>
</g>
<!-- public.data_type_field -->
<g id="node4" class="node">
<title>public.data_type_field</title>
<polygon fill="#efefef" stroke="none" points="667.85,-950.4 667.85,-986 967.78,-986 967.78,-950.4 667.85,-950.4"/>
<polygon fill="none" stroke="black" points="667.85,-950.4 667.85,-986 967.78,-986 967.78,-950.4 667.85,-950.4"/>
<text text-anchor="start" x="674.85" y="-963.8" font-family="Arial Bold" font-size="18.00">public.data_type_field</text>
<text text-anchor="start" x="836.29" y="-963.8" font-family="Arial" font-size="14.00">    </text>
<text text-anchor="start" x="867.41" y="-963.8" font-family="Arial" font-size="14.00" fill="#666666">[BASE TABLE]</text>
<polygon fill="none" stroke="black" points="667.85,-919.6 667.85,-950.4 967.78,-950.4 967.78,-919.6 667.85,-919.6"/>
<text text-anchor="start" x="674.85" y="-931.8" font-family="Arial" font-size="14.00">model_key </text>
<text text-anchor="start" x="746.44" y="-931.8" font-family="Arial" font-size="14.00" fill="#666666">[text]</text>
<polygon fill="none" stroke="black" points="667.85,-888.8 667.85,-919.6 967.78,-919.6 967.78,-888.8 667.85,-888.8"/>
<text text-anchor="start" x="674.85" y="-901" font-family="Arial" font-size="14.00">data_type_key </text>
<text text-anchor="start" x="769.81" y="-901" font-family="Arial" font-size="14.00" fill="#666666">[text]</text>
<polygon fill="none" stroke="black" points="667.85,-858 667.85,-888.8 967.78,-888.8 967.78,-858 667.85,-858"/>
<text text-anchor="start" x="674.85" y="-870.2" font-family="Arial" font-size="14.00">name </text>
<text text-anchor="start" x="713.76" y="-870.2" font-family="Arial" font-size="14.00" fill="#666666">[text]</text>
<polygon fill="none" stroke="black" points="667.85,-827.2 667.85,-858 967.78,-858 967.78,-827.2 667.85,-827.2"/>
<text text-anchor="start" x="674.85" y="-839.4" font-family="Arial" font-size="14.00">field_data_type_key </text>
<text text-anchor="start" x="803.27" y="-839.4" font-family="Arial" font-size="14.00" fill="#666666">[text]</text>
</g>
<!-- public.data_type_field&#45;&gt;public.data_type -->
<g id="edge3" class="edge">
<title>public.data_type_field:model_key&#45;&gt;public.data_type:model_key</title>
<path fill="none" stroke="black" d="M979,-933.88C1020.68,-923.54 977.83,-843.69 958.78,-784 937.61,-717.62 890.14,-721.94 868.84,-655.6 855.63,-614.47 824.64,-558.4 876.84,-558.4"/>
<polygon fill="black" stroke="black" points="979.06,-933.87 968.63,-930.49 973.75,-934.46 969.45,-934.93 969.45,-934.93 969.45,-934.93 973.75,-934.46 969.61,-939.44 979.06,-933.87"/>
<text text-anchor="start" x="411" y="-945" font-family="Arial" font-size="10.00">FOREIGN KEY (model_key, data_type_key) REFERENCES data_type(model_key, data_type_key) ON DELETE CASCADE</text>
</g>
<!-- public.data_type_field&#45;&gt;public.data_type -->
<g id="edge4" class="edge">
<title>public.data_type_field:model_key&#45;&gt;public.data_type:model_key</title>
<path fill="none" stroke="black" d="M979.42,-934.34C1040.13,-926.23 996.15,-844.7 976.78,-784 955.61,-717.62 908.14,-721.94 886.84,-655.6 873.69,-614.63 842.88,-558.84 876.44,-558.4"/>
<polygon fill="black" stroke="black" points="979.54,-934.34 969.27,-930.49 974.22,-934.68 969.9,-934.96 969.9,-934.96 969.9,-934.96 974.22,-934.68 969.85,-939.47 979.54,-934.34"/>
<text text-anchor="start" x="387.54" y="-919" font-family="Arial" font-size="10.00">FOREIGN KEY (model_key, field_data_type_key) REFERENCES data_type(model_key, data_type_key) ON DELETE CASCADE</text>
</g>
<!-- public.attribute -->
<g id="node5" class="node">
<title>public.attribute</title>
<polygon fill="#efefef" stroke="none" points="1071.84,-1042.8 1071.84,-1078.4 1319.79,-1078.4 1319.79,-1042.8 1071.84,-1042.8"/>
<polygon fill="none" stroke="black" points="1071.84,-1042.8 1071.84,-1078.4 1319.79,-1078.4 1319.79,-1042.8 1071.84,-1042.8"/>
<text text-anchor="start" x="1078.84" y="-1056.2" font-family="Arial Bold" font-size="18.00">public.attribute</text>
<text text-anchor="start" x="1188.3" y="-1056.2" font-family="Arial" font-size="14.00">    </text>
<text text-anchor="start" x="1219.42" y="-1056.2" font-family="Arial" font-size="14.00" fill="#666666">[BASE TABLE]</text>
<polygon fill="none" stroke="black" points="1071.84,-1012 1071.84,-1042.8 1319.79,-1042.8 1319.79,-1012 1071.84,-1012"/>
<text text-anchor="start" x="1078.84" y="-1024.2" font-family="Arial" font-size="14.00">model_key </text>
<text text-anchor="start" x="1150.43" y="-1024.2" font-family="Arial" font-size="14.00" fill="#666666">[text]</text>
<polygon fill="none" stroke="black" points="1071.84,-981.2 1071.84,-1012 1319.79,-1012 1319.79,-981.2 1071.84,-981.2"/>
<text text-anchor="start" x="1078.84" y="-993.4" font-family="Arial" font-size="14.00">attribute_key </text>
<text text-anchor="start" x="1162.88" y="-993.4" font-family="Arial" font-size="14.00" fill="#666666">[text]</text>
<polygon fill="none" stroke="black" points="1071.84,-950.4 1071.84,-981.2 1319.79,-981.2 1319.79,-950.4 1071.84,-950.4"/>
<text text-anchor="start" x="1078.84" y="-962.6" font-family="Arial" font-size="14.00">class_key </text>
<text text-anchor="start" x="1144.2" y="-962.6" font-family="Arial" font-size="14.00" fill="#666666">[text]</text>
<polygon fill="none" stroke="black" points="1071.84,-919.6 1071.84,-950.4 1319.79,-950.4 1319.79,-919.6 1071.84,-919.6"/>
<text text-anchor="start" x="1078.84" y="-931.8" font-family="Arial" font-size="14.00">name </text>
<text text-anchor="start" x="1117.75" y="-931.8" font-family="Arial" font-size="14.00" fill="#666666">[text]</text>
<polygon fill="none" stroke="black" points="1071.84,-888.8 1071.84,-919.6 1319.79,-919.6 1319.79,-888.8 1071.84,-888.8"/>
<text text-anchor="start" x="1078.84" y="-901" font-family="Arial" font-size="14.00">details </text>
<text text-anchor="start" x="1123.2" y="-901" font-family="Arial" font-size="14.00" fill="#666666">[text]</text>
<polygon fill="none" stroke="black" points="1071.84,-858 1071.84,-888.8 1319.79,-888.8 1319.79,-858 1071.84,-858"/>
<text text-anchor="start" x="1078.84" y="-870.2" font-family="Arial" font-size="14.00">data_type_rules </text>
<text text-anchor="start" x="1182.35" y="-870.2" font-family="Arial" font-size="14.00" fill="#666666">[text]</text>
<polygon fill="none" stroke="black" points="1071.84,-827.2 1071.84,-858 1319.79,-858 1319.79,-827.2 1071.84,-827.2"/>
<text text-anchor="start" x="1078.84" y="-839.4" font-family="Arial" font-size="14.00">data_type_key </text>
<text text-anchor="start" x="1173.79" y="-839.4" font-family="Arial" font-size="14.00" fill="#666666">[text]</text>
<polygon fill="none" stroke="black" points="1071.84,-796.4 1071.84,-827.2 1319.79,-827.2 1319.79,-796.4 1071.84,-796.4"/>
<text text-anchor="start" x="1078.84" y="-808.6" font-family="Arial" font-size="14.00">derivation_policy_key </text>
<text text-anchor="start" x="1216.58" y="-808.6" font-family="Arial" font-size="14.00" fill="#666666">[text]</text>
<polygon fill="none" stroke="black" points="1071.84,-765.6 1071.84,-796.4 1319.79,-796.4 1319.79,-765.6 1071.84,-765.6"/>
<text text-anchor="start" x="1078.84" y="-777.8" font-family="Arial" font-size="14.00">nullable </text>
<text text-anchor="start" x="1130.99" y="-777.8" font-family="Arial" font-size="14.00" fill="#666666">[boolean]</text>
<polygon fill="none" stroke="black" points="1071.84,-734.8 1071.84,-765.6 1319.79,-765.6 1319.79,-734.8 1071.84,-734.8"/>
<text text-anchor="start" x="1078.84" y="-747" font-family="Arial" font-size="14.00">uml_comment </text>
<text text-anchor="start" x="1170.64" y="-747" font-family="Arial" font-size="14.00" fill="#666666">[text]</text>
</g>
<!-- public.attribute&#45;&gt;public.data_type -->
<g id="edge5" class="edge">
<title>public.attribute:model_key&#45;&gt;public.data_type:model_key</title>
<path fill="none" stroke="black" d="M1060.7,-1025.51C999.91,-1001.39 1035.92,-752.82 1071.84,-691.6 1088.34,-663.47 1119.18,-683.67 1135.79,-655.6 1157.79,-618.42 1179.99,-558.4 1136.79,-558.4"/>
<polygon fill="black" stroke="black" points="1060.68,-1025.51 1069.69,-1031.76 1065.92,-1026.49 1070.18,-1027.28 1070.18,-1027.28 1070.18,-1027.28 1065.92,-1026.49 1071.33,-1022.91 1060.68,-1025.51"/>
<text text-anchor="start" x="513.06" y="-1037.4" font-family="Arial" font-size="10.00">FOREIGN KEY (model_key, data_type_key) REFERENCES data_type(model_key, data_type_key) ON DELETE CASCADE</text>
</g>
<!-- public.query_parameter -->
<g id="node6" class="node">
<title>public.query_parameter</title>
<polygon fill="#efefef" stroke="none" points="1423.86,-1012 1423.86,-1047.6 1733.77,-1047.6 1733.77,-1012 1423.86,-1012"/>
<polygon fill="none" stroke="black" points="1423.86,-1012 1423.86,-1047.6 1733.77,-1047.6 1733.77,-1012 1423.86,-1012"/>
<text text-anchor="start" x="1430.86" y="-1025.4" font-family="Arial Bold" font-size="18.00">public.query_parameter</text>
<text text-anchor="start" x="1602.28" y="-1025.4" font-family="Arial" font-size="14.00">    </text>
<text text-anchor="start" x="1633.4" y="-1025.4" font-family="Arial" font-size="14.00" fill="#666666">[BASE TABLE]</text>
<polygon fill="none" stroke="black" points="1423.86,-981.2 1423.86,-1012 1733.77,-1012 1733.77,-981.2 1423.86,-981.2"/>
<text text-anchor="start" x="1430.86" y="-993.4" font-family="Arial" font-size="14.00">model_key </text>
<text text-anchor="start" x="1502.45" y="-993.4" font-family="Arial" font-size="14.00" fill="#666666">[text]</text>
<polygon fill="none" stroke="black" points="1423.86,-950.4 1423.86,-981.2 1733.77,-981.2 1733.77,-950.4 1423.86,-950.4"/>
<text text-anchor="start" x="1430.86" y="-962.6" font-family="Arial" font-size="14.00">query_key </text>
<text text-anchor="start" x="1499.34" y="-962.6" font-family="Arial" font-size="14.00" fill="#666666">[text]</text>
<polygon fill="none" stroke="black" points="1423.86,-919.6 1423.86,-950.4 1733.77,-950.4 1733.77,-919.6 1423.86,-919.6"/>
<text text-anchor="start" x="1430.86" y="-931.8" font-family="Arial" font-size="14.00">parameter_key </text>
<text text-anchor="start" x="1528.13" y="-931.8" font-family="Arial" font-size="14.00" fill="#666666">[text]</text>
<polygon fill="none" stroke="black" points="1423.86,-888.8 1423.86,-919.6 1733.77,-919.6 1733.77,-888.8 1423.86,-888.8"/>
<text text-anchor="start" x="1430.86" y="-901" font-family="Arial" font-size="14.00">name </text>
<text text-anchor="start" x="1469.77" y="-901" font-family="Arial" font-size="14.00" fill="#666666">[text]</text>
<polygon fill="none" stroke="black" points="1423.86,-858 1423.86,-888.8 1733.77,-888.8 1733.77,-858 1423.86,-858"/>
<text text-anchor="start" x="1430.86" y="-870.2" font-family="Arial" font-size="14.00">sort_order </text>
<text text-anchor="start" x="1498.56" y="-870.2" font-family="Arial" font-size="14.00" fill="#666666">[integer]</text>
<polygon fill="none" stroke="black" points="1423.86,-827.2 1423.86,-858 1733.77,-858 1733.77,-827.2 1423.86,-827.2"/>
<text text-anchor="start" x="1430.86" y="-839.4" font-family="Arial" font-size="14.00">data_type_rules </text>
<text text-anchor="start" x="1534.38" y="-839.4" font-family="Arial" font-size="14.00" fill="#666666">[text]</text>
<polygon fill="none" stroke="black" points="1423.86,-796.4 1423.86,-827.2 1733.77,-827.2 1733.77,-796.4 1423.86,-796.4"/>
<text text-anchor="start" x="1430.86" y="-808.6" font-family="Arial" font-size="14.00">data_type_key </text>
<text text-anchor="start" x="1525.82" y="-808.6" font-family="Arial" font-size="14.00" fill="#666666">[text]</text>
<polygon fill="none" stroke="black" points="1423.86,-765.6 1423.86,-796.4 1733.77,-796.4 1733.77,-765.6 1423.86,-765.6"/>
<text text-anchor="start" x="1430.86" y="-777.8" font-family="Arial" font-size="14.00">nullable </text>
<text text-anchor="start" x="1483.01" y="-777.8" font-family="Arial" font-size="14.00" fill="#666666">[boolean]</text>
</g>
<!-- public.query_parameter&#45;&gt;public.data_type -->
<g id="edge6" class="edge">
<title>public.query_parameter:model_key&#45;&gt;public.data_type:model_key</title>
<path fill="none" stroke="black" d="M1412.68,-994.44C1360.09,-969.97 1409.06,-744.83 1371.82,-691.6 1302.98,-593.22 1256.86,-558.4 1136.79,-558.4"/>
<polygon fill="black" stroke="black" points="1412.75,-994.46 1421.6,-1000.93 1417.97,-995.56 1422.21,-996.46 1422.21,-996.46 1422.21,-996.46 1417.97,-995.56 1423.47,-992.13 1412.75,-994.46"/>
<text text-anchor="start" x="1147.47" y="-980.6" font-family="Arial" font-size="10.00">FOREIGN KEY (model_key, data_type_key) REFERENCES data_type(model_key, data_type_key) ON DELETE CASCADE</text>
</g>
<!-- public.action_parameter -->
<g id="node7" class="node">
<title>public.action_parameter</title>
<polygon fill="#efefef" stroke="none" points="1838.36,-1012 1838.36,-1047.6 2151.27,-1047.6 2151.27,-1012 1838.36,-1012"/>
<polygon fill="none" stroke="black" points="1838.36,-1012 1838.36,-1047.6 2151.27,-1047.6 2151.27,-1012 1838.36,-1012"/>
<text text-anchor="start" x="1845.36" y="-1025.4" font-family="Arial Bold" font-size="18.00">public.action_parameter</text>
<text text-anchor="start" x="2019.78" y="-1025.4" font-family="Arial" font-size="14.00">    </text>
<text text-anchor="start" x="2050.9" y="-1025.4" font-family="Arial" font-size="14.00" fill="#666666">[BASE TABLE]</text>
<polygon fill="none" stroke="black" points="1838.36,-981.2 1838.36,-1012 2151.27,-1012 2151.27,-981.2 1838.36,-981.2"/>
<text text-anchor="start" x="1845.36" y="-993.4" font-family="Arial" font-size="14.00">model_key </text>
<text text-anchor="start" x="1916.95" y="-993.4" font-family="Arial" font-size="14.00" fill="#666666">[text]</text>
<polygon fill="none" stroke="black" points="1838.36,-950.4 1838.36,-981.2 2151.27,-981.2 2151.27,-950.4 1838.36,-950.4"/>
<text text-anchor="start" x="1845.36" y="-962.6" font-family="Arial" font-size="14.00">action_key </text>
<text text-anchor="start" x="1916.18" y="-962.6" font-family="Arial" font-size="14.00" fill="#666666">[text]</text>
<polygon fill="none" stroke="black" points="1838.36,-919.6 1838.36,-950.4 2151.27,-950.4 2151.27,-919.6 1838.36,-919.6"/>
<text text-anchor="start" x="1845.36" y="-931.8" font-family="Arial" font-size="14.00">parameter_key </text>
<text text-anchor="start" x="1942.63" y="-931.8" font-family="Arial" font-size="14.00" fill="#666666">[text]</text>
<polygon fill="none" stroke="black" points="1838.36,-888.8 1838.36,-919.6 2151.27,-919.6 2151.27,-888.8 1838.36,-888.8"/>
<text text-anchor="start" x="1845.36" y="-901" font-family="Arial" font-size="14.00">name </text>
<text text-anchor="start" x="1884.27" y="-901" font-family="Arial" font-size="14.00" fill="#666666">[text]</text>
<polygon fill="none" stroke="black" points="1838.36,-858 1838.36,-888.8 2151.27,-888.8 2151.27,-858 1838.36,-858"/>
<text text-anchor="start" x="1845.36" y="-870.2" font-family="Arial" font-size="14.00">sort_order </text>
<text text-anchor="start" x="1913.06" y="-870.2" font-family="Arial" font-size="14.00" fill="#666666">[integer]</text>
<polygon fill="none" stroke="black" points="1838.36,-827.2 1838.36,-858 2151.27,-858 2151.27,-827.2 1838.36,-827.2"/>
<text text-anchor="start" x="1845.36" y="-839.4" font-family="Arial" font-size="14.00">data_type_rules </text>
<text text-anchor="start" x="1948.88" y="-839.4" font-family="Arial" font-size="14.00" fill="#666666">[text]</text>
<polygon fill="none" stroke="black" points="1838.36,-796.4 1838.36,-827.2 2151.27,-827.2 2151.27,-796.4 1838.36,-796.4"/>
<text text-anchor="start" x="1845.36" y="-808.6" font-family="Arial" font-size="14.00">data_type_key </text>
<text text-anchor="start" x="1940.32" y="-808.6" font-family="Arial" font-size="14.00" fill="#666666">[text]</text>
<polygon fill="none" stroke="black" points="1838.36,-765.6 1838.36,-796.4 2151.27,-796.4 2151.27,-765.6 1838.36,-765.6"/>
<text text-anchor="start" x="1845.36" y="-777.8" font-family="Arial" font-size="14.00">nullable </text>
<text text-anchor="start" x="1897.51" y="-777.8" font-family="Arial" font-size="14.00" fill="#666666">[boolean]</text>
</g>
<!-- public.action_parameter&#45;&gt;public.data_type -->
<g id="edge7" class="edge">
<title>public.action_parameter:model_key&#45;&gt;public.data_type:model_key</title>
<path fill="none" stroke="black" d="M1827.24,-994.38C1775.39,-969.27 1830.95,-738.34 1785.82,-691.6 1683.54,-585.68 1284.02,-558.4 1136.79,-558.4"/>
<polygon fill="black" stroke="black" points="1827.27,-994.39 1836.07,-1000.92 1832.48,-995.53 1836.71,-996.46 1836.71,-996.46 1836.71,-996.46 1832.48,-995.53 1838,-992.13 1827.27,-994.39"/>
<text text-anchor="start" x="1844.36" y="-1006.6" font-family="Arial" font-size="10.00">FOREIGN KEY (model_key, data_type_key) REFERENCES data_type(model_key, data_type_key) ON DELETE CASCADE</text>
</g>
</g>
</svg>
