<?xml version="1.0" encoding="UTF-8" standalone="no"?>
<!DOCTYPE svg PUBLIC "-//W3C//DTD SVG 1.1//EN"
 "http://www.w3.org/Graphics/SVG/1.1/DTD/svg11.dtd">
<!-- Generated by graphviz version 12.1.2 (20240928.0832)
 -->
<!-- Title: public.model Pages: 1 -->
<svg width="4198pt" height="756pt"
 viewBox="0.00 0.00 4198.31 756.00" xmlns="http://www.w3.org/2000/svg" xmlns:xlink="http://www.w3.org/1999/xlink">
<g id="graph0" class="graph" transform="scale(1 1) rotate(0) translate(4 752)">
<title>public.model</title>
<polygon fill="white" stroke="none" points="-4,4 -4,-752 4194.31,-752 4194.31,4 -4,4"/>
<!-- public.model -->
<g id="node1" class="node">
<title>public.model</title>
<polygon fill="#efefef" stroke="none" points="2026.41,-138.6 2026.41,-174.2 2259.38,-174.2 2259.38,-138.6 2026.41,-138.6"/>
<polygon fill="none" stroke="black" points="2026.41,-138.6 2026.41,-174.2 2259.38,-174.2 2259.38,-138.6 2026.41,-138.6"/>
<text text-anchor="start" x="2033.41" y="-152" font-family="Arial Bold" font-size="18.00">public.model</text>
<text text-anchor="start" x="2127.89" y="-152" font-family="Arial" font-size="14.00">    </text>
<text text-anchor="start" x="2159.01" y="-152" font-family="Arial" font-size="14.00" fill="#666666">[BASE TABLE]</text>
<polygon fill="none" stroke="black" points="2026.41,-107.8 2026.41,-138.6 2259.38,-138.6 2259.38,-107.8 2026.41,-107.8"/>
<text text-anchor="start" x="2033.41" y="-120" font-family="Arial" font-size="14.00">model_key </text>
<text text-anchor="start" x="2105" y="-120" font-family="Arial" font-size="14.00" fill="#666666">[text]</text>
<polygon fill="none" stroke="black" points="2026.41,-77 2026.41,-107.8 2259.38,-107.8 2259.38,-77 2026.41,-77"/>
<text text-anchor="start" x="2033.41" y="-89.2" font-family="Arial" font-size="14.00">name </text>
<text text-anchor="start" x="2072.32" y="-89.2" font-family="Arial" font-size="14.00" fill="#666666">[text]</text>
<polygon fill="none" stroke="black" points="2026.41,-46.2 2026.41,-77 2259.38,-77 2259.38,-46.2 2026.41,-46.2"/>
<text text-anchor="start" x="2033.41" y="-58.4" font-family="Arial" font-size="14.00">details </text>
<text text-anchor="start" x="2077.77" y="-58.4" font-family="Arial" font-size="14.00" fill="#666666">[text]</text>
<polygon fill="none" stroke="black" stroke-width="3" points="2024.91,-44.7 2024.91,-175.7 2260.88,-175.7 2260.88,-44.7 2024.91,-44.7"/>
</g>
<!-- public.logic -->
<g id="node2" class="node">
<title>public.logic</title>
<polygon fill="#efefef" stroke="none" points="181.91,-561.4 181.91,-597 405.88,-597 405.88,-561.4 181.91,-561.4"/>
<polygon fill="none" stroke="black" points="181.91,-561.4 181.91,-597 405.88,-597 405.88,-561.4 181.91,-561.4"/>
<text text-anchor="start" x="188.91" y="-574.8" font-family="Arial Bold" font-size="18.00">public.logic</text>
<text text-anchor="start" x="274.39" y="-574.8" font-family="Arial" font-size="14.00">    </text>
<text text-anchor="start" x="305.51" y="-574.8" font-family="Arial" font-size="14.00" fill="#666666">[BASE TABLE]</text>
<polygon fill="none" stroke="black" points="181.91,-530.6 181.91,-561.4 405.88,-561.4 405.88,-530.6 181.91,-530.6"/>
<text text-anchor="start" x="188.91" y="-542.8" font-family="Arial" font-size="14.00">logic_key </text>
<text text-anchor="start" x="251.16" y="-542.8" font-family="Arial" font-size="14.00" fill="#666666">[text]</text>
<polygon fill="none" stroke="black" points="181.91,-499.8 181.91,-530.6 405.88,-530.6 405.88,-499.8 181.91,-499.8"/>
<text text-anchor="start" x="188.91" y="-512" font-family="Arial" font-size="14.00">model_key </text>
<text text-anchor="start" x="260.5" y="-512" font-family="Arial" font-size="14.00" fill="#666666">[text]</text>
<polygon fill="none" stroke="black" points="181.91,-469 181.91,-499.8 405.88,-499.8 405.88,-469 181.91,-469"/>
<text text-anchor="start" x="188.91" y="-481.2" font-family="Arial" font-size="14.00">description </text>
<text text-anchor="start" x="260.5" y="-481.2" font-family="Arial" font-size="14.00" fill="#666666">[text]</text>
<polygon fill="none" stroke="black" points="181.91,-438.2 181.91,-469 405.88,-469 405.88,-438.2 181.91,-438.2"/>
<text text-anchor="start" x="188.91" y="-450.4" font-family="Arial" font-size="14.00">notation </text>
<text text-anchor="start" x="242.62" y="-450.4" font-family="Arial" font-size="14.00" fill="#666666">[notation]</text>
<polygon fill="none" stroke="black" points="181.91,-407.4 181.91,-438.2 405.88,-438.2 405.88,-407.4 181.91,-407.4"/>
<text text-anchor="start" x="188.91" y="-419.6" font-family="Arial" font-size="14.00">specification </text>
<text text-anchor="start" x="269.84" y="-419.6" font-family="Arial" font-size="14.00" fill="#666666">[text]</text>
</g>
<!-- public.logic&#45;&gt;public.model -->
<g id="edge1" class="edge">
<title>public.logic:model_key&#45;&gt;public.model:model_key</title>
<path fill="none" stroke="black" d="M417.09,-514.68C514.76,-504.01 373.3,-332.18 457.9,-256.4 588.09,-139.77 1850.61,-123.2 2025.41,-123.2"/>
<polygon fill="black" stroke="black" points="417.2,-514.67 406.99,-510.69 411.87,-514.95 407.55,-515.17 407.55,-515.17 407.55,-515.17 411.87,-514.95 407.44,-519.68 417.2,-514.67"/>
<text text-anchor="start" x="7" y="-525.2" font-family="Arial" font-size="10.00">FOREIGN KEY (model_key) REFERENCES model(model_key) ON DELETE CASCADE</text>
</g>
<!-- public.domain -->
<g id="node3" class="node">
<title>public.domain</title>
<polygon fill="#efefef" stroke="none" points="509.91,-576.8 509.91,-612.4 751.88,-612.4 751.88,-576.8 509.91,-576.8"/>
<polygon fill="none" stroke="black" points="509.91,-576.8 509.91,-612.4 751.88,-612.4 751.88,-576.8 509.91,-576.8"/>
<text text-anchor="start" x="516.91" y="-590.2" font-family="Arial Bold" font-size="18.00">public.domain</text>
<text text-anchor="start" x="620.39" y="-590.2" font-family="Arial" font-size="14.00">    </text>
<text text-anchor="start" x="651.51" y="-590.2" font-family="Arial" font-size="14.00" fill="#666666">[BASE TABLE]</text>
<polygon fill="none" stroke="black" points="509.91,-546 509.91,-576.8 751.88,-576.8 751.88,-546 509.91,-546"/>
<text text-anchor="start" x="516.91" y="-558.2" font-family="Arial" font-size="14.00">domain_key </text>
<text text-anchor="start" x="596.29" y="-558.2" font-family="Arial" font-size="14.00" fill="#666666">[text]</text>
<polygon fill="none" stroke="black" points="509.91,-515.2 509.91,-546 751.88,-546 751.88,-515.2 509.91,-515.2"/>
<text text-anchor="start" x="516.91" y="-527.4" font-family="Arial" font-size="14.00">model_key </text>
<text text-anchor="start" x="588.5" y="-527.4" font-family="Arial" font-size="14.00" fill="#666666">[text]</text>
<polygon fill="none" stroke="black" points="509.91,-484.4 509.91,-515.2 751.88,-515.2 751.88,-484.4 509.91,-484.4"/>
<text text-anchor="start" x="516.91" y="-496.6" font-family="Arial" font-size="14.00">name </text>
<text text-anchor="start" x="555.82" y="-496.6" font-family="Arial" font-size="14.00" fill="#666666">[text]</text>
<polygon fill="none" stroke="black" points="509.91,-453.6 509.91,-484.4 751.88,-484.4 751.88,-453.6 509.91,-453.6"/>
<text text-anchor="start" x="516.91" y="-465.8" font-family="Arial" font-size="14.00">details </text>
<text text-anchor="start" x="561.27" y="-465.8" font-family="Arial" font-size="14.00" fill="#666666">[text]</text>
<polygon fill="none" stroke="black" points="509.91,-422.8 509.91,-453.6 751.88,-453.6 751.88,-422.8 509.91,-422.8"/>
<text text-anchor="start" x="516.91" y="-435" font-family="Arial" font-size="14.00">realized </text>
<text text-anchor="start" x="569.83" y="-435" font-family="Arial" font-size="14.00" fill="#666666">[boolean]</text>
<polygon fill="none" stroke="black" points="509.91,-392 509.91,-422.8 751.88,-422.8 751.88,-392 509.91,-392"/>
<text text-anchor="start" x="516.91" y="-404.2" font-family="Arial" font-size="14.00">uml_comment </text>
<text text-anchor="start" x="608.72" y="-404.2" font-family="Arial" font-size="14.00" fill="#666666">[text]</text>
</g>
<!-- public.domain&#45;&gt;public.model -->
<g id="edge2" class="edge">
<title>public.domain:model_key&#45;&gt;public.model:model_key</title>
<path fill="none" stroke="black" d="M763.05,-530.12C867.46,-519.56 715.67,-338.22 803.9,-256.4 904,-163.56 1888.88,-123.2 2025.41,-123.2"/>
<polygon fill="black" stroke="black" points="763.2,-530.11 753,-526.09 757.88,-530.36 753.55,-530.57 753.55,-530.57 753.55,-530.57 757.88,-530.36 753.43,-535.08 763.2,-530.11"/>
<text text-anchor="start" x="759.88" y="-540.6" font-family="Arial" font-size="10.00">FOREIGN KEY (model_key) REFERENCES model(model_key) ON DELETE CASCADE</text>
</g>
<!-- public.domain_association -->
<g id="node4" class="node">
<title>public.domain_association</title>
<polygon fill="#efefef" stroke="none" points="856.42,-561.4 856.42,-597 1187.37,-597 1187.37,-561.4 856.42,-561.4"/>
<polygon fill="none" stroke="black" points="856.42,-561.4 856.42,-597 1187.37,-597 1187.37,-561.4 856.42,-561.4"/>
<text text-anchor="start" x="863.42" y="-574.8" font-family="Arial Bold" font-size="18.00">public.domain_association</text>
<text text-anchor="start" x="1055.88" y="-574.8" font-family="Arial" font-size="14.00">    </text>
<text text-anchor="start" x="1087" y="-574.8" font-family="Arial" font-size="14.00" fill="#666666">[BASE TABLE]</text>
<polygon fill="none" stroke="black" points="856.42,-530.6 856.42,-561.4 1187.37,-561.4 1187.37,-530.6 856.42,-530.6"/>
<text text-anchor="start" x="863.42" y="-542.8" font-family="Arial" font-size="14.00">model_key </text>
<text text-anchor="start" x="935.01" y="-542.8" font-family="Arial" font-size="14.00" fill="#666666">[text]</text>
<polygon fill="none" stroke="black" points="856.42,-499.8 856.42,-530.6 1187.37,-530.6 1187.37,-499.8 856.42,-499.8"/>
<text text-anchor="start" x="863.42" y="-512" font-family="Arial" font-size="14.00">association_key </text>
<text text-anchor="start" x="966.92" y="-512" font-family="Arial" font-size="14.00" fill="#666666">[text]</text>
<polygon fill="none" stroke="black" points="856.42,-469 856.42,-499.8 1187.37,-499.8 1187.37,-469 856.42,-469"/>
<text text-anchor="start" x="863.42" y="-481.2" font-family="Arial" font-size="14.00">problem_domain_key </text>
<text text-anchor="start" x="1001.16" y="-481.2" font-family="Arial" font-size="14.00" fill="#666666">[text]</text>
<polygon fill="none" stroke="black" points="856.42,-438.2 856.42,-469 1187.37,-469 1187.37,-438.2 856.42,-438.2"/>
<text text-anchor="start" x="863.42" y="-450.4" font-family="Arial" font-size="14.00">solution_domain_key </text>
<text text-anchor="start" x="998.84" y="-450.4" font-family="Arial" font-size="14.00" fill="#666666">[text]</text>
<polygon fill="none" stroke="black" points="856.42,-407.4 856.42,-438.2 1187.37,-438.2 1187.37,-407.4 856.42,-407.4"/>
<text text-anchor="start" x="863.42" y="-419.6" font-family="Arial" font-size="14.00">uml_comment </text>
<text text-anchor="start" x="955.23" y="-419.6" font-family="Arial" font-size="14.00" fill="#666666">[text]</text>
</g>
<!-- public.domain_association&#45;&gt;public.model -->
<g id="edge3" class="edge">
<title>public.domain_association:model_key&#45;&gt;public.model:model_key</title>
<path fill="none" stroke="black" d="M1198.76,-545.53C1309.57,-534.9 1149.71,-345.86 1239.9,-256.4 1365.59,-131.71 1848.36,-123.2 2025.41,-123.2"/>
<polygon fill="black" stroke="black" points="1198.7,-545.53 1188.5,-541.49 1193.37,-545.77 1189.04,-545.97 1189.04,-545.97 1189.04,-545.97 1193.37,-545.77 1188.91,-550.48 1198.7,-545.53"/>
<text text-anchor="start" x="991.93" y="-530" font-family="Arial" font-size="10.00">FOREIGN KEY (model_key) REFERENCES model(model_key) ON DELETE CASCADE</text>
</g>
<!-- public.generalization -->
<g id="node5" class="node">
<title>public.generalization</title>
<polygon fill="#efefef" stroke="none" points="1291.93,-592.2 1291.93,-627.8 1581.86,-627.8 1581.86,-592.2 1291.93,-592.2"/>
<polygon fill="none" stroke="black" points="1291.93,-592.2 1291.93,-627.8 1581.86,-627.8 1581.86,-592.2 1291.93,-592.2"/>
<text text-anchor="start" x="1298.93" y="-605.6" font-family="Arial Bold" font-size="18.00">public.generalization</text>
<text text-anchor="start" x="1450.37" y="-605.6" font-family="Arial" font-size="14.00">    </text>
<text text-anchor="start" x="1481.49" y="-605.6" font-family="Arial" font-size="14.00" fill="#666666">[BASE TABLE]</text>
<polygon fill="none" stroke="black" points="1291.93,-561.4 1291.93,-592.2 1581.86,-592.2 1581.86,-561.4 1291.93,-561.4"/>
<text text-anchor="start" x="1298.93" y="-573.6" font-family="Arial" font-size="14.00">model_key </text>
<text text-anchor="start" x="1370.53" y="-573.6" font-family="Arial" font-size="14.00" fill="#666666">[text]</text>
<polygon fill="none" stroke="black" points="1291.93,-530.6 1291.93,-561.4 1581.86,-561.4 1581.86,-530.6 1291.93,-530.6"/>
<text text-anchor="start" x="1298.93" y="-542.8" font-family="Arial" font-size="14.00">generalization_key </text>
<text text-anchor="start" x="1419.57" y="-542.8" font-family="Arial" font-size="14.00" fill="#666666">[text]</text>
<polygon fill="none" stroke="black" points="1291.93,-499.8 1291.93,-530.6 1581.86,-530.6 1581.86,-499.8 1291.93,-499.8"/>
<text text-anchor="start" x="1298.93" y="-512" font-family="Arial" font-size="14.00">name </text>
<text text-anchor="start" x="1337.84" y="-512" font-family="Arial" font-size="14.00" fill="#666666">[text]</text>
<polygon fill="none" stroke="black" points="1291.93,-469 1291.93,-499.8 1581.86,-499.8 1581.86,-469 1291.93,-469"/>
<text text-anchor="start" x="1298.93" y="-481.2" font-family="Arial" font-size="14.00">is_complete </text>
<text text-anchor="start" x="1377.53" y="-481.2" font-family="Arial" font-size="14.00" fill="#666666">[boolean]</text>
<polygon fill="none" stroke="black" points="1291.93,-438.2 1291.93,-469 1581.86,-469 1581.86,-438.2 1291.93,-438.2"/>
<text text-anchor="start" x="1298.93" y="-450.4" font-family="Arial" font-size="14.00">is_static </text>
<text text-anchor="start" x="1353.39" y="-450.4" font-family="Arial" font-size="14.00" fill="#666666">[boolean]</text>
<polygon fill="none" stroke="black" points="1291.93,-407.4 1291.93,-438.2 1581.86,-438.2 1581.86,-407.4 1291.93,-407.4"/>
<text text-anchor="start" x="1298.93" y="-419.6" font-family="Arial" font-size="14.00">details </text>
<text text-anchor="start" x="1343.29" y="-419.6" font-family="Arial" font-size="14.00" fill="#666666">[text]</text>
<polygon fill="none" stroke="black" points="1291.93,-376.6 1291.93,-407.4 1581.86,-407.4 1581.86,-376.6 1291.93,-376.6"/>
<text text-anchor="start" x="1298.93" y="-388.8" font-family="Arial" font-size="14.00">uml_comment </text>
<text text-anchor="start" x="1390.74" y="-388.8" font-family="Arial" font-size="14.00" fill="#666666">[text]</text>
</g>
<!-- public.generalization&#45;&gt;public.model -->
<g id="edge4" class="edge">
<title>public.generalization:model_key&#45;&gt;public.model:model_key</title>
<path fill="none" stroke="black" d="M1592.79,-574.81C1648.39,-550.4 1589.79,-308.72 1633.9,-256.4 1693.13,-186.14 1933.51,-123.2 2025.41,-123.2"/>
<polygon fill="black" stroke="black" points="1592.99,-574.77 1582.3,-572.32 1587.76,-575.82 1583.51,-576.67 1583.51,-576.67 1583.51,-576.67 1587.76,-575.82 1584.07,-581.15 1592.99,-574.77"/>
<text text-anchor="start" x="1386.42" y="-560.8" font-family="Arial" font-size="10.00">FOREIGN KEY (model_key) REFERENCES model(model_key) ON DELETE CASCADE</text>
</g>
<!-- public.actor -->
<g id="node6" class="node">
<title>public.actor</title>
<polygon fill="#efefef" stroke="none" points="1685.92,-607.6 1685.92,-643.2 1909.87,-643.2 1909.87,-607.6 1685.92,-607.6"/>
<polygon fill="none" stroke="black" points="1685.92,-607.6 1685.92,-643.2 1909.87,-643.2 1909.87,-607.6 1685.92,-607.6"/>
<text text-anchor="start" x="1692.92" y="-621" font-family="Arial Bold" font-size="18.00">public.actor</text>
<text text-anchor="start" x="1778.38" y="-621" font-family="Arial" font-size="14.00">    </text>
<text text-anchor="start" x="1809.5" y="-621" font-family="Arial" font-size="14.00" fill="#666666">[BASE TABLE]</text>
<polygon fill="none" stroke="black" points="1685.92,-576.8 1685.92,-607.6 1909.87,-607.6 1909.87,-576.8 1685.92,-576.8"/>
<text text-anchor="start" x="1692.92" y="-589" font-family="Arial" font-size="14.00">model_key </text>
<text text-anchor="start" x="1764.51" y="-589" font-family="Arial" font-size="14.00" fill="#666666">[text]</text>
<polygon fill="none" stroke="black" points="1685.92,-546 1685.92,-576.8 1909.87,-576.8 1909.87,-546 1685.92,-546"/>
<text text-anchor="start" x="1692.92" y="-558.2" font-family="Arial" font-size="14.00">actor_key </text>
<text text-anchor="start" x="1757.5" y="-558.2" font-family="Arial" font-size="14.00" fill="#666666">[text]</text>
<polygon fill="none" stroke="black" points="1685.92,-515.2 1685.92,-546 1909.87,-546 1909.87,-515.2 1685.92,-515.2"/>
<text text-anchor="start" x="1692.92" y="-527.4" font-family="Arial" font-size="14.00">name </text>
<text text-anchor="start" x="1731.83" y="-527.4" font-family="Arial" font-size="14.00" fill="#666666">[text]</text>
<polygon fill="none" stroke="black" points="1685.92,-484.4 1685.92,-515.2 1909.87,-515.2 1909.87,-484.4 1685.92,-484.4"/>
<text text-anchor="start" x="1692.92" y="-496.6" font-family="Arial" font-size="14.00">details </text>
<text text-anchor="start" x="1737.28" y="-496.6" font-family="Arial" font-size="14.00" fill="#666666">[text]</text>
<polygon fill="none" stroke="black" points="1685.92,-453.6 1685.92,-484.4 1909.87,-484.4 1909.87,-453.6 1685.92,-453.6"/>
<text text-anchor="start" x="1692.92" y="-465.8" font-family="Arial" font-size="14.00">actor_type </text>
<text text-anchor="start" x="1762.18" y="-465.8" font-family="Arial" font-size="14.00" fill="#666666">[actor_type]</text>
<polygon fill="none" stroke="black" points="1685.92,-422.8 1685.92,-453.6 1909.87,-453.6 1909.87,-422.8 1685.92,-422.8"/>
<text text-anchor="start" x="1692.92" y="-435" font-family="Arial" font-size="14.00">superclass_of_key </text>
<text text-anchor="start" x="1812.76" y="-435" font-family="Arial" font-size="14.00" fill="#666666">[text]</text>
<polygon fill="none" stroke="black" points="1685.92,-392 1685.92,-422.8 1909.87,-422.8 1909.87,-392 1685.92,-392"/>
<text text-anchor="start" x="1692.92" y="-404.2" font-family="Arial" font-size="14.00">subclass_of_key </text>
<text text-anchor="start" x="1800.31" y="-404.2" font-family="Arial" font-size="14.00" fill="#666666">[text]</text>
<polygon fill="none" stroke="black" points="1685.92,-361.2 1685.92,-392 1909.87,-392 1909.87,-361.2 1685.92,-361.2"/>
<text text-anchor="start" x="1692.92" y="-373.4" font-family="Arial" font-size="14.00">uml_comment </text>
<text text-anchor="start" x="1784.72" y="-373.4" font-family="Arial" font-size="14.00" fill="#666666">[text]</text>
</g>
<!-- public.actor&#45;&gt;public.model -->
<g id="edge5" class="edge">
<title>public.actor:model_key&#45;&gt;public.model:model_key</title>
<path fill="none" stroke="black" d="M1921.08,-590.37C1981.96,-566.91 1940.83,-325.03 1961.9,-256.4 1981.14,-193.7 1959.82,-123.2 2025.41,-123.2"/>
<polygon fill="black" stroke="black" points="1921.04,-590.37 1910.41,-587.71 1915.79,-591.32 1911.53,-592.08 1911.53,-592.08 1911.53,-592.08 1915.79,-591.32 1912,-596.57 1921.04,-590.37"/>
<text text-anchor="start" x="1917.87" y="-602.2" font-family="Arial" font-size="10.00">FOREIGN KEY (model_key) REFERENCES model(model_key) ON DELETE CASCADE</text>
</g>
<!-- public.data_type -->
<g id="node7" class="node">
<title>public.data_type</title>
<polygon fill="#efefef" stroke="none" points="2013.92,-576.8 2013.92,-612.4 2271.87,-612.4 2271.87,-576.8 2013.92,-576.8"/>
<polygon fill="none" stroke="black" points="2013.92,-576.8 2013.92,-612.4 2271.87,-612.4 2271.87,-576.8 2013.92,-576.8"/>
<text text-anchor="start" x="2020.92" y="-590.2" font-family="Arial Bold" font-size="18.00">public.data_type</text>
<text text-anchor="start" x="2140.38" y="-590.2" font-family="Arial" font-size="14.00">    </text>
<text text-anchor="start" x="2171.5" y="-590.2" font-family="Arial" font-size="14.00" fill="#666666">[BASE TABLE]</text>
<polygon fill="none" stroke="black" points="2013.92,-546 2013.92,-576.8 2271.87,-576.8 2271.87,-546 2013.92,-546"/>
<text text-anchor="start" x="2020.92" y="-558.2" font-family="Arial" font-size="14.00">model_key </text>
<text text-anchor="start" x="2092.51" y="-558.2" font-family="Arial" font-size="14.00" fill="#666666">[text]</text>
<polygon fill="none" stroke="black" points="2013.92,-515.2 2013.92,-546 2271.87,-546 2271.87,-515.2 2013.92,-515.2"/>
<text text-anchor="start" x="2020.92" y="-527.4" font-family="Arial" font-size="14.00">data_type_key </text>
<text text-anchor="start" x="2115.88" y="-527.4" font-family="Arial" font-size="14.00" fill="#666666">[text]</text>
<polygon fill="none" stroke="black" points="2013.92,-484.4 2013.92,-515.2 2271.87,-515.2 2271.87,-484.4 2013.92,-484.4"/>
<text text-anchor="start" x="2020.92" y="-496.6" font-family="Arial" font-size="14.00">collection_type </text>
<text text-anchor="start" x="2117.42" y="-496.6" font-family="Arial" font-size="14.00" fill="#666666">[collection_type]</text>
<polygon fill="none" stroke="black" points="2013.92,-453.6 2013.92,-484.4 2271.87,-484.4 2271.87,-453.6 2013.92,-453.6"/>
<text text-anchor="start" x="2020.92" y="-465.8" font-family="Arial" font-size="14.00">collection_unique </text>
<text text-anchor="start" x="2133" y="-465.8" font-family="Arial" font-size="14.00" fill="#666666">[boolean]</text>
<polygon fill="none" stroke="black" points="2013.92,-422.8 2013.92,-453.6 2271.87,-453.6 2271.87,-422.8 2013.92,-422.8"/>
<text text-anchor="start" x="2020.92" y="-435" font-family="Arial" font-size="14.00">collection_min </text>
<text text-anchor="start" x="2113.52" y="-435" font-family="Arial" font-size="14.00" fill="#666666">[bigint]</text>
<polygon fill="none" stroke="black" points="2013.92,-392 2013.92,-422.8 2271.87,-422.8 2271.87,-392 2013.92,-392"/>
<text text-anchor="start" x="2020.92" y="-404.2" font-family="Arial" font-size="14.00">collection_max </text>
<text text-anchor="start" x="2117.41" y="-404.2" font-family="Arial" font-size="14.00" fill="#666666">[bigint]</text>
</g>
<!-- public.data_type&#45;&gt;public.model -->
<g id="edge6" class="edge">
<title>public.data_type:model_key&#45;&gt;public.model:model_key</title>
<path fill="none" stroke="black" d="M2281.53,-556.17C2319.82,-506.73 2305.95,-123.2 2260.38,-123.2"/>
<polygon fill="black" stroke="black" points="2281.72,-556.06 2270.83,-557.37 2277.15,-558.82 2273.44,-561.05 2273.44,-561.05 2273.44,-561.05 2277.15,-558.82 2275.48,-565.08 2281.72,-556.06"/>
<text text-anchor="start" x="1872.99" y="-571.4" font-family="Arial" font-size="10.00">FOREIGN KEY (model_key) REFERENCES model(model_key) ON DELETE CASCADE</text>
</g>
<!-- public.class -->
<g id="node8" class="node">
<title>public.class</title>
<polygon fill="#efefef" stroke="none" points="2376.41,-623 2376.41,-658.6 2599.38,-658.6 2599.38,-623 2376.41,-623"/>
<polygon fill="none" stroke="black" points="2376.41,-623 2376.41,-658.6 2599.38,-658.6 2599.38,-623 2376.41,-623"/>
<text text-anchor="start" x="2383.41" y="-636.4" font-family="Arial Bold" font-size="18.00">public.class</text>
<text text-anchor="start" x="2467.89" y="-636.4" font-family="Arial" font-size="14.00">    </text>
<text text-anchor="start" x="2499.01" y="-636.4" font-family="Arial" font-size="14.00" fill="#666666">[BASE TABLE]</text>
<polygon fill="none" stroke="black" points="2376.41,-592.2 2376.41,-623 2599.38,-623 2599.38,-592.2 2376.41,-592.2"/>
<text text-anchor="start" x="2383.41" y="-604.4" font-family="Arial" font-size="14.00">model_key </text>
<text text-anchor="start" x="2455" y="-604.4" font-family="Arial" font-size="14.00" fill="#666666">[text]</text>
<polygon fill="none" stroke="black" points="2376.41,-561.4 2376.41,-592.2 2599.38,-592.2 2599.38,-561.4 2376.41,-561.4"/>
<text text-anchor="start" x="2383.41" y="-573.6" font-family="Arial" font-size="14.00">class_key </text>
<text text-anchor="start" x="2448.77" y="-573.6" font-family="Arial" font-size="14.00" fill="#666666">[text]</text>
<polygon fill="none" stroke="black" points="2376.41,-530.6 2376.41,-561.4 2599.38,-561.4 2599.38,-530.6 2376.41,-530.6"/>
<text text-anchor="start" x="2383.41" y="-542.8" font-family="Arial" font-size="14.00">name </text>
<text text-anchor="start" x="2422.32" y="-542.8" font-family="Arial" font-size="14.00" fill="#666666">[text]</text>
<polygon fill="none" stroke="black" points="2376.41,-499.8 2376.41,-530.6 2599.38,-530.6 2599.38,-499.8 2376.41,-499.8"/>
<text text-anchor="start" x="2383.41" y="-512" font-family="Arial" font-size="14.00">subdomain_key </text>
<text text-anchor="start" x="2485.36" y="-512" font-family="Arial" font-size="14.00" fill="#666666">[text]</text>
<polygon fill="none" stroke="black" points="2376.41,-469 2376.41,-499.8 2599.38,-499.8 2599.38,-469 2376.41,-469"/>
<text text-anchor="start" x="2383.41" y="-481.2" font-family="Arial" font-size="14.00">actor_key </text>
<text text-anchor="start" x="2448" y="-481.2" font-family="Arial" font-size="14.00" fill="#666666">[text]</text>
<polygon fill="none" stroke="black" points="2376.41,-438.2 2376.41,-469 2599.38,-469 2599.38,-438.2 2376.41,-438.2"/>
<text text-anchor="start" x="2383.41" y="-450.4" font-family="Arial" font-size="14.00">superclass_of_key </text>
<text text-anchor="start" x="2503.25" y="-450.4" font-family="Arial" font-size="14.00" fill="#666666">[text]</text>
<polygon fill="none" stroke="black" points="2376.41,-407.4 2376.41,-438.2 2599.38,-438.2 2599.38,-407.4 2376.41,-407.4"/>
<text text-anchor="start" x="2383.41" y="-419.6" font-family="Arial" font-size="14.00">subclass_of_key </text>
<text text-anchor="start" x="2490.8" y="-419.6" font-family="Arial" font-size="14.00" fill="#666666">[text]</text>
<polygon fill="none" stroke="black" points="2376.41,-376.6 2376.41,-407.4 2599.38,-407.4 2599.38,-376.6 2376.41,-376.6"/>
<text text-anchor="start" x="2383.41" y="-388.8" font-family="Arial" font-size="14.00">details </text>
<text text-anchor="start" x="2427.77" y="-388.8" font-family="Arial" font-size="14.00" fill="#666666">[text]</text>
<polygon fill="none" stroke="black" points="2376.41,-345.8 2376.41,-376.6 2599.38,-376.6 2599.38,-345.8 2376.41,-345.8"/>
<text text-anchor="start" x="2383.41" y="-358" font-family="Arial" font-size="14.00">uml_comment </text>
<text text-anchor="start" x="2475.22" y="-358" font-family="Arial" font-size="14.00" fill="#666666">[text]</text>
</g>
<!-- public.class&#45;&gt;public.model -->
<g id="edge7" class="edge">
<title>public.class:model_key&#45;&gt;public.model:model_key</title>
<path fill="none" stroke="black" d="M2365.15,-605.83C2301.09,-582.19 2345.77,-328.33 2323.9,-256.4 2304.81,-193.65 2325.97,-123.2 2260.38,-123.2"/>
<polygon fill="black" stroke="black" points="2365.23,-605.84 2374.32,-611.98 2370.48,-606.75 2374.75,-607.49 2374.75,-607.49 2374.75,-607.49 2370.48,-606.75 2375.84,-603.11 2365.23,-605.84"/>
<text text-anchor="start" x="2382.41" y="-617.6" font-family="Arial" font-size="10.00">FOREIGN KEY (model_key) REFERENCES model(model_key) ON DELETE CASCADE</text>
</g>
<!-- public.association -->
<g id="node9" class="node">
<title>public.association</title>
<polygon fill="#efefef" stroke="none" points="2703.91,-669.2 2703.91,-704.8 2971.88,-704.8 2971.88,-669.2 2703.91,-669.2"/>
<polygon fill="none" stroke="black" points="2703.91,-669.2 2703.91,-704.8 2971.88,-704.8 2971.88,-669.2 2703.91,-669.2"/>
<text text-anchor="start" x="2710.91" y="-682.6" font-family="Arial Bold" font-size="18.00">public.association</text>
<text text-anchor="start" x="2840.39" y="-682.6" font-family="Arial" font-size="14.00">    </text>
<text text-anchor="start" x="2871.5" y="-682.6" font-family="Arial" font-size="14.00" fill="#666666">[BASE TABLE]</text>
<polygon fill="none" stroke="black" points="2703.91,-638.4 2703.91,-669.2 2971.88,-669.2 2971.88,-638.4 2703.91,-638.4"/>
<text text-anchor="start" x="2710.91" y="-650.6" font-family="Arial" font-size="14.00">model_key </text>
<text text-anchor="start" x="2782.51" y="-650.6" font-family="Arial" font-size="14.00" fill="#666666">[text]</text>
<polygon fill="none" stroke="black" points="2703.91,-607.6 2703.91,-638.4 2971.88,-638.4 2971.88,-607.6 2703.91,-607.6"/>
<text text-anchor="start" x="2710.91" y="-619.8" font-family="Arial" font-size="14.00">association_key </text>
<text text-anchor="start" x="2814.42" y="-619.8" font-family="Arial" font-size="14.00" fill="#666666">[text]</text>
<polygon fill="none" stroke="black" points="2703.91,-576.8 2703.91,-607.6 2971.88,-607.6 2971.88,-576.8 2703.91,-576.8"/>
<text text-anchor="start" x="2710.91" y="-589" font-family="Arial" font-size="14.00">from_class_key </text>
<text text-anchor="start" x="2812.06" y="-589" font-family="Arial" font-size="14.00" fill="#666666">[text]</text>
<polygon fill="none" stroke="black" points="2703.91,-546 2703.91,-576.8 2971.88,-576.8 2971.88,-546 2703.91,-546"/>
<text text-anchor="start" x="2710.91" y="-558.2" font-family="Arial" font-size="14.00">from_multiplicity_lower </text>
<text text-anchor="start" x="2856.4" y="-558.2" font-family="Arial" font-size="14.00" fill="#666666">[integer]</text>
<polygon fill="none" stroke="black" points="2703.91,-515.2 2703.91,-546 2971.88,-546 2971.88,-515.2 2703.91,-515.2"/>
<text text-anchor="start" x="2710.91" y="-527.4" font-family="Arial" font-size="14.00">from_multiplicity_higher </text>
<text text-anchor="start" x="2861.86" y="-527.4" font-family="Arial" font-size="14.00" fill="#666666">[integer]</text>
<polygon fill="none" stroke="black" points="2703.91,-484.4 2703.91,-515.2 2971.88,-515.2 2971.88,-484.4 2703.91,-484.4"/>
<text text-anchor="start" x="2710.91" y="-496.6" font-family="Arial" font-size="14.00">to_class_key </text>
<text text-anchor="start" x="2795.73" y="-496.6" font-family="Arial" font-size="14.00" fill="#666666">[text]</text>
<polygon fill="none" stroke="black" points="2703.91,-453.6 2703.91,-484.4 2971.88,-484.4 2971.88,-453.6 2703.91,-453.6"/>
<text text-anchor="start" x="2710.91" y="-465.8" font-family="Arial" font-size="14.00">to_multiplicity_lower </text>
<text text-anchor="start" x="2840.07" y="-465.8" font-family="Arial" font-size="14.00" fill="#666666">[integer]</text>
<polygon fill="none" stroke="black" points="2703.91,-422.8 2703.91,-453.6 2971.88,-453.6 2971.88,-422.8 2703.91,-422.8"/>
<text text-anchor="start" x="2710.91" y="-435" font-family="Arial" font-size="14.00">to_multiplicity_higher </text>
<text text-anchor="start" x="2845.53" y="-435" font-family="Arial" font-size="14.00" fill="#666666">[integer]</text>
<polygon fill="none" stroke="black" points="2703.91,-392 2703.91,-422.8 2971.88,-422.8 2971.88,-392 2703.91,-392"/>
<text text-anchor="start" x="2710.91" y="-404.2" font-family="Arial" font-size="14.00">name </text>
<text text-anchor="start" x="2749.82" y="-404.2" font-family="Arial" font-size="14.00" fill="#666666">[text]</text>
<polygon fill="none" stroke="black" points="2703.91,-361.2 2703.91,-392 2971.88,-392 2971.88,-361.2 2703.91,-361.2"/>
<text text-anchor="start" x="2710.91" y="-373.4" font-family="Arial" font-size="14.00">association_class_key </text>
<text text-anchor="start" x="2854.1" y="-373.4" font-family="Arial" font-size="14.00" fill="#666666">[text]</text>
<polygon fill="none" stroke="black" points="2703.91,-330.4 2703.91,-361.2 2971.88,-361.2 2971.88,-330.4 2703.91,-330.4"/>
<text text-anchor="start" x="2710.91" y="-342.6" font-family="Arial" font-size="14.00">details </text>
<text text-anchor="start" x="2755.27" y="-342.6" font-family="Arial" font-size="14.00" fill="#666666">[text]</text>
<polygon fill="none" stroke="black" points="2703.91,-299.6 2703.91,-330.4 2971.88,-330.4 2971.88,-299.6 2703.91,-299.6"/>
<text text-anchor="start" x="2710.91" y="-311.8" font-family="Arial" font-size="14.00">uml_comment </text>
<text text-anchor="start" x="2802.72" y="-311.8" font-family="Arial" font-size="14.00" fill="#666666">[text]</text>
</g>
<!-- public.association&#45;&gt;public.model -->
<g id="edge8" class="edge">
<title>public.association:model_key&#45;&gt;public.model:model_key</title>
<path fill="none" stroke="black" d="M2692.86,-652.18C2621.37,-627.29 2705.93,-322.51 2651.9,-256.4 2593.73,-185.25 2352.28,-123.2 2260.38,-123.2"/>
<polygon fill="black" stroke="black" points="2692.71,-652.16 2701.87,-658.19 2697.98,-653.01 2702.25,-653.69 2702.25,-653.69 2702.25,-653.69 2697.98,-653.01 2703.3,-649.3 2692.71,-652.16"/>
<text text-anchor="start" x="2709.91" y="-663.8" font-family="Arial" font-size="10.00">FOREIGN KEY (model_key) REFERENCES model(model_key) ON DELETE CASCADE</text>
</g>
<!-- public.use_case -->
<g id="node10" class="node">
<title>public.use_case</title>
<polygon fill="#efefef" stroke="none" points="3075.92,-638.4 3075.92,-674 3327.87,-674 3327.87,-638.4 3075.92,-638.4"/>
<polygon fill="none" stroke="black" points="3075.92,-638.4 3075.92,-674 3327.87,-674 3327.87,-638.4 3075.92,-638.4"/>
<text text-anchor="start" x="3082.92" y="-651.8" font-family="Arial Bold" font-size="18.00">public.use_case</text>
<text text-anchor="start" x="3196.38" y="-651.8" font-family="Arial" font-size="14.00">    </text>
<text text-anchor="start" x="3227.5" y="-651.8" font-family="Arial" font-size="14.00" fill="#666666">[BASE TABLE]</text>
<polygon fill="none" stroke="black" points="3075.92,-607.6 3075.92,-638.4 3327.87,-638.4 3327.87,-607.6 3075.92,-607.6"/>
<text text-anchor="start" x="3082.92" y="-619.8" font-family="Arial" font-size="14.00">model_key </text>
<text text-anchor="start" x="3154.51" y="-619.8" font-family="Arial" font-size="14.00" fill="#666666">[text]</text>
<polygon fill="none" stroke="black" points="3075.92,-576.8 3075.92,-607.6 3327.87,-607.6 3327.87,-576.8 3075.92,-576.8"/>
<text text-anchor="start" x="3082.92" y="-589" font-family="Arial" font-size="14.00">use_case_key </text>
<text text-anchor="start" x="3176.31" y="-589" font-family="Arial" font-size="14.00" fill="#666666">[text]</text>
<polygon fill="none" stroke="black" points="3075.92,-546 3075.92,-576.8 3327.87,-576.8 3327.87,-546 3075.92,-546"/>
<text text-anchor="start" x="3082.92" y="-558.2" font-family="Arial" font-size="14.00">name </text>
<text text-anchor="start" x="3121.83" y="-558.2" font-family="Arial" font-size="14.00" fill="#666666">[text]</text>
<polygon fill="none" stroke="black" points="3075.92,-515.2 3075.92,-546 3327.87,-546 3327.87,-515.2 3075.92,-515.2"/>
<text text-anchor="start" x="3082.92" y="-527.4" font-family="Arial" font-size="14.00">details </text>
<text text-anchor="start" x="3127.28" y="-527.4" font-family="Arial" font-size="14.00" fill="#666666">[text]</text>
<polygon fill="none" stroke="black" points="3075.92,-484.4 3075.92,-515.2 3327.87,-515.2 3327.87,-484.4 3075.92,-484.4"/>
<text text-anchor="start" x="3082.92" y="-496.6" font-family="Arial" font-size="14.00">level </text>
<text text-anchor="start" x="3115.6" y="-496.6" font-family="Arial" font-size="14.00" fill="#666666">[use_case_level]</text>
<polygon fill="none" stroke="black" points="3075.92,-453.6 3075.92,-484.4 3327.87,-484.4 3327.87,-453.6 3075.92,-453.6"/>
<text text-anchor="start" x="3082.92" y="-465.8" font-family="Arial" font-size="14.00">read_only </text>
<text text-anchor="start" x="3148.3" y="-465.8" font-family="Arial" font-size="14.00" fill="#666666">[boolean]</text>
<polygon fill="none" stroke="black" points="3075.92,-422.8 3075.92,-453.6 3327.87,-453.6 3327.87,-422.8 3075.92,-422.8"/>
<text text-anchor="start" x="3082.92" y="-435" font-family="Arial" font-size="14.00">subdomain_key </text>
<text text-anchor="start" x="3184.87" y="-435" font-family="Arial" font-size="14.00" fill="#666666">[text]</text>
<polygon fill="none" stroke="black" points="3075.92,-392 3075.92,-422.8 3327.87,-422.8 3327.87,-392 3075.92,-392"/>
<text text-anchor="start" x="3082.92" y="-404.2" font-family="Arial" font-size="14.00">superclass_of_key </text>
<text text-anchor="start" x="3202.76" y="-404.2" font-family="Arial" font-size="14.00" fill="#666666">[text]</text>
<polygon fill="none" stroke="black" points="3075.92,-361.2 3075.92,-392 3327.87,-392 3327.87,-361.2 3075.92,-361.2"/>
<text text-anchor="start" x="3082.92" y="-373.4" font-family="Arial" font-size="14.00">subclass_of_key </text>
<text text-anchor="start" x="3190.31" y="-373.4" font-family="Arial" font-size="14.00" fill="#666666">[text]</text>
<polygon fill="none" stroke="black" points="3075.92,-330.4 3075.92,-361.2 3327.87,-361.2 3327.87,-330.4 3075.92,-330.4"/>
<text text-anchor="start" x="3082.92" y="-342.6" font-family="Arial" font-size="14.00">uml_comment </text>
<text text-anchor="start" x="3174.73" y="-342.6" font-family="Arial" font-size="14.00" fill="#666666">[text]</text>
</g>
<!-- public.use_case&#45;&gt;public.model -->
<g id="edge9" class="edge">
<title>public.use_case:model_key&#45;&gt;public.model:model_key</title>
<path fill="none" stroke="black" d="M3064.84,-621.19C3000.32,-595.88 3078.48,-312.9 3023.9,-256.4 2904.22,-132.54 2432.61,-123.2 2260.38,-123.2"/>
<polygon fill="black" stroke="black" points="3064.75,-621.17 3073.8,-627.37 3070,-622.12 3074.26,-622.88 3074.26,-622.88 3074.26,-622.88 3070,-622.12 3075.39,-618.51 3064.75,-621.17"/>
<text text-anchor="start" x="2675.04" y="-633" font-family="Arial" font-size="10.00">FOREIGN KEY (model_key) REFERENCES model(model_key) ON DELETE CASCADE</text>
</g>
<!-- public.scenario -->
<g id="node11" class="node">
<title>public.scenario</title>
<polygon fill="#efefef" stroke="none" points="3431.92,-576.8 3431.92,-612.4 3679.87,-612.4 3679.87,-576.8 3431.92,-576.8"/>
<polygon fill="none" stroke="black" points="3431.92,-576.8 3431.92,-612.4 3679.87,-612.4 3679.87,-576.8 3431.92,-576.8"/>
<text text-anchor="start" x="3438.92" y="-590.2" font-family="Arial Bold" font-size="18.00">public.scenario</text>
<text text-anchor="start" x="3548.38" y="-590.2" font-family="Arial" font-size="14.00">    </text>
<text text-anchor="start" x="3579.5" y="-590.2" font-family="Arial" font-size="14.00" fill="#666666">[BASE TABLE]</text>
<polygon fill="none" stroke="black" points="3431.92,-546 3431.92,-576.8 3679.87,-576.8 3679.87,-546 3431.92,-546"/>
<text text-anchor="start" x="3438.92" y="-558.2" font-family="Arial" font-size="14.00">model_key </text>
<text text-anchor="start" x="3510.51" y="-558.2" font-family="Arial" font-size="14.00" fill="#666666">[text]</text>
<polygon fill="none" stroke="black" points="3431.92,-515.2 3431.92,-546 3679.87,-546 3679.87,-515.2 3431.92,-515.2"/>
<text text-anchor="start" x="3438.92" y="-527.4" font-family="Arial" font-size="14.00">scenario_key </text>
<text text-anchor="start" x="3525.3" y="-527.4" font-family="Arial" font-size="14.00" fill="#666666">[text]</text>
<polygon fill="none" stroke="black" points="3431.92,-484.4 3431.92,-515.2 3679.87,-515.2 3679.87,-484.4 3431.92,-484.4"/>
<text text-anchor="start" x="3438.92" y="-496.6" font-family="Arial" font-size="14.00">name </text>
<text text-anchor="start" x="3477.83" y="-496.6" font-family="Arial" font-size="14.00" fill="#666666">[text]</text>
<polygon fill="none" stroke="black" points="3431.92,-453.6 3431.92,-484.4 3679.87,-484.4 3679.87,-453.6 3431.92,-453.6"/>
<text text-anchor="start" x="3438.92" y="-465.8" font-family="Arial" font-size="14.00">use_case_key </text>
<text text-anchor="start" x="3532.31" y="-465.8" font-family="Arial" font-size="14.00" fill="#666666">[text]</text>
<polygon fill="none" stroke="black" points="3431.92,-422.8 3431.92,-453.6 3679.87,-453.6 3679.87,-422.8 3431.92,-422.8"/>
<text text-anchor="start" x="3438.92" y="-435" font-family="Arial" font-size="14.00">details </text>
<text text-anchor="start" x="3483.28" y="-435" font-family="Arial" font-size="14.00" fill="#666666">[text]</text>
<polygon fill="none" stroke="black" points="3431.92,-392 3431.92,-422.8 3679.87,-422.8 3679.87,-392 3431.92,-392"/>
<text text-anchor="start" x="3438.92" y="-404.2" font-family="Arial" font-size="14.00">steps </text>
<text text-anchor="start" x="3476.27" y="-404.2" font-family="Arial" font-size="14.00" fill="#666666">[jsonb]</text>
</g>
<!-- public.scenario&#45;&gt;public.model -->
<g id="edge10" class="edge">
<title>public.scenario:model_key&#45;&gt;public.model:model_key</title>
<path fill="none" stroke="black" d="M3420.83,-559.17C3369.23,-533.86 3426.9,-301.23 3379.9,-256.4 3289.25,-169.94 2385.65,-123.2 2260.38,-123.2"/>
<polygon fill="black" stroke="black" points="3420.83,-559.17 3429.62,-565.72 3426.04,-560.32 3430.27,-561.26 3430.27,-561.26 3430.27,-561.26 3426.04,-560.32 3431.57,-556.93 3420.83,-559.17"/>
<text text-anchor="start" x="3437.92" y="-571.4" font-family="Arial" font-size="10.00">FOREIGN KEY (model_key) REFERENCES model(model_key) ON DELETE CASCADE</text>
</g>
<!-- public.scenario_object -->
<g id="node12" class="node">
<title>public.scenario_object</title>
<polygon fill="#efefef" stroke="none" points="3784.43,-623 3784.43,-658.6 4085.36,-658.6 4085.36,-623 3784.43,-623"/>
<polygon fill="none" stroke="black" points="3784.43,-623 3784.43,-658.6 4085.36,-658.6 4085.36,-623 3784.43,-623"/>
<text text-anchor="start" x="3791.43" y="-636.4" font-family="Arial Bold" font-size="18.00">public.scenario_object</text>
<text text-anchor="start" x="3953.87" y="-636.4" font-family="Arial" font-size="14.00">    </text>
<text text-anchor="start" x="3984.99" y="-636.4" font-family="Arial" font-size="14.00" fill="#666666">[BASE TABLE]</text>
<polygon fill="none" stroke="black" points="3784.43,-592.2 3784.43,-623 4085.36,-623 4085.36,-592.2 3784.43,-592.2"/>
<text text-anchor="start" x="3791.43" y="-604.4" font-family="Arial" font-size="14.00">model_key </text>
<text text-anchor="start" x="3863.02" y="-604.4" font-family="Arial" font-size="14.00" fill="#666666">[text]</text>
<polygon fill="none" stroke="black" points="3784.43,-561.4 3784.43,-592.2 4085.36,-592.2 4085.36,-561.4 3784.43,-561.4"/>
<text text-anchor="start" x="3791.43" y="-573.6" font-family="Arial" font-size="14.00">scenario_object_key </text>
<text text-anchor="start" x="3922.95" y="-573.6" font-family="Arial" font-size="14.00" fill="#666666">[text]</text>
<polygon fill="none" stroke="black" points="3784.43,-530.6 3784.43,-561.4 4085.36,-561.4 4085.36,-530.6 3784.43,-530.6"/>
<text text-anchor="start" x="3791.43" y="-542.8" font-family="Arial" font-size="14.00">scenario_key </text>
<text text-anchor="start" x="3877.81" y="-542.8" font-family="Arial" font-size="14.00" fill="#666666">[text]</text>
<polygon fill="none" stroke="black" points="3784.43,-499.8 3784.43,-530.6 4085.36,-530.6 4085.36,-499.8 3784.43,-499.8"/>
<text text-anchor="start" x="3791.43" y="-512" font-family="Arial" font-size="14.00">object_number </text>
<text text-anchor="start" x="3887.93" y="-512" font-family="Arial" font-size="14.00" fill="#666666">[integer]</text>
<polygon fill="none" stroke="black" points="3784.43,-469 3784.43,-499.8 4085.36,-499.8 4085.36,-469 3784.43,-469"/>
<text text-anchor="start" x="3791.43" y="-481.2" font-family="Arial" font-size="14.00">name </text>
<text text-anchor="start" x="3830.34" y="-481.2" font-family="Arial" font-size="14.00" fill="#666666">[text]</text>
<polygon fill="none" stroke="black" points="3784.43,-438.2 3784.43,-469 4085.36,-469 4085.36,-438.2 3784.43,-438.2"/>
<text text-anchor="start" x="3791.43" y="-450.4" font-family="Arial" font-size="14.00">name_style </text>
<text text-anchor="start" x="3866.91" y="-450.4" font-family="Arial" font-size="14.00" fill="#666666">[scenario_object_name_style]</text>
<polygon fill="none" stroke="black" points="3784.43,-407.4 3784.43,-438.2 4085.36,-438.2 4085.36,-407.4 3784.43,-407.4"/>
<text text-anchor="start" x="3791.43" y="-419.6" font-family="Arial" font-size="14.00">class_key </text>
<text text-anchor="start" x="3856.79" y="-419.6" font-family="Arial" font-size="14.00" fill="#666666">[text]</text>
<polygon fill="none" stroke="black" points="3784.43,-376.6 3784.43,-407.4 4085.36,-407.4 4085.36,-376.6 3784.43,-376.6"/>
<text text-anchor="start" x="3791.43" y="-388.8" font-family="Arial" font-size="14.00">multi </text>
<text text-anchor="start" x="3824.88" y="-388.8" font-family="Arial" font-size="14.00" fill="#666666">[boolean]</text>
<polygon fill="none" stroke="black" points="3784.43,-345.8 3784.43,-376.6 4085.36,-376.6 4085.36,-345.8 3784.43,-345.8"/>
<text text-anchor="start" x="3791.43" y="-358" font-family="Arial" font-size="14.00">uml_comment </text>
<text text-anchor="start" x="3883.24" y="-358" font-family="Arial" font-size="14.00" fill="#666666">[text]</text>
</g>
<!-- public.scenario_object&#45;&gt;public.model -->
<g id="edge11" class="edge">
<title>public.scenario_object:model_key&#45;&gt;public.model:model_key</title>
<path fill="none" stroke="black" d="M3773.38,-605.7C3712.17,-580.29 3786.51,-308.07 3731.9,-256.4 3612.64,-143.58 2424.55,-123.2 2260.38,-123.2"/>
<polygon fill="black" stroke="black" points="3773.28,-605.68 3782.26,-611.96 3778.52,-606.67 3782.77,-607.48 3782.77,-607.48 3782.77,-607.48 3778.52,-606.67 3783.94,-603.12 3773.28,-605.68"/>
<text text-anchor="start" x="3790.43" y="-617.6" font-family="Arial" font-size="10.00">FOREIGN KEY (model_key) REFERENCES model(model_key) ON DELETE CASCADE</text>
</g>
</g>
</svg>
