<?xml version="1.0" encoding="UTF-8" standalone="no"?>
<!DOCTYPE svg PUBLIC "-//W3C//DTD SVG 1.1//EN"
 "http://www.w3.org/Graphics/SVG/1.1/DTD/svg11.dtd">
<!-- Generated by graphviz version 12.1.2 (20240928.0832)
 -->
<!-- Title: public.use_case Pages: 1 -->
<svg width="1645pt" height="1222pt"
 viewBox="0.00 0.00 1645.42 1222.00" xmlns="http://www.w3.org/2000/svg" xmlns:xlink="http://www.w3.org/1999/xlink">
<g id="graph0" class="graph" transform="scale(1 1) rotate(0) translate(4 1218)">
<title>public.use_case</title>
<polygon fill="white" stroke="none" points="-4,4 -4,-1218 1641.42,-1218 1641.42,4 -4,4"/>
<!-- public.use_case -->
<g id="node1" class="node">
<title>public.use_case</title>
<polygon fill="#efefef" stroke="none" points="692.99,-820.2 692.99,-855.8 944.94,-855.8 944.94,-820.2 692.99,-820.2"/>
<polygon fill="none" stroke="black" points="692.99,-820.2 692.99,-855.8 944.94,-855.8 944.94,-820.2 692.99,-820.2"/>
<text text-anchor="start" x="699.99" y="-833.6" font-family="Arial Bold" font-size="18.00">public.use_case</text>
<text text-anchor="start" x="813.45" y="-833.6" font-family="Arial" font-size="14.00">    </text>
<text text-anchor="start" x="844.57" y="-833.6" font-family="Arial" font-size="14.00" fill="#666666">[BASE TABLE]</text>
<polygon fill="none" stroke="black" points="692.99,-789.4 692.99,-820.2 944.94,-820.2 944.94,-789.4 692.99,-789.4"/>
<text text-anchor="start" x="699.99" y="-801.6" font-family="Arial" font-size="14.00">model_key </text>
<text text-anchor="start" x="771.59" y="-801.6" font-family="Arial" font-size="14.00" fill="#666666">[text]</text>
<polygon fill="none" stroke="black" points="692.99,-758.6 692.99,-789.4 944.94,-789.4 944.94,-758.6 692.99,-758.6"/>
<text text-anchor="start" x="699.99" y="-770.8" font-family="Arial" font-size="14.00">use_case_key </text>
<text text-anchor="start" x="793.39" y="-770.8" font-family="Arial" font-size="14.00" fill="#666666">[text]</text>
<polygon fill="none" stroke="black" points="692.99,-727.8 692.99,-758.6 944.94,-758.6 944.94,-727.8 692.99,-727.8"/>
<text text-anchor="start" x="699.99" y="-740" font-family="Arial" font-size="14.00">name </text>
<text text-anchor="start" x="738.9" y="-740" font-family="Arial" font-size="14.00" fill="#666666">[text]</text>
<polygon fill="none" stroke="black" points="692.99,-697 692.99,-727.8 944.94,-727.8 944.94,-697 692.99,-697"/>
<text text-anchor="start" x="699.99" y="-709.2" font-family="Arial" font-size="14.00">details </text>
<text text-anchor="start" x="744.35" y="-709.2" font-family="Arial" font-size="14.00" fill="#666666">[text]</text>
<polygon fill="none" stroke="black" points="692.99,-666.2 692.99,-697 944.94,-697 944.94,-666.2 692.99,-666.2"/>
<text text-anchor="start" x="699.99" y="-678.4" font-family="Arial" font-size="14.00">unfinished_notes </text>
<text text-anchor="start" x="809.74" y="-678.4" font-family="Arial" font-size="14.00" fill="#666666">[text]</text>
<polygon fill="none" stroke="black" points="692.99,-635.4 692.99,-666.2 944.94,-666.2 944.94,-635.4 692.99,-635.4"/>
<text text-anchor="start" x="699.99" y="-647.6" font-family="Arial" font-size="14.00">level </text>
<text text-anchor="start" x="732.68" y="-647.6" font-family="Arial" font-size="14.00" fill="#666666">[use_case_level]</text>
<polygon fill="none" stroke="black" points="692.99,-604.6 692.99,-635.4 944.94,-635.4 944.94,-604.6 692.99,-604.6"/>
<text text-anchor="start" x="699.99" y="-616.8" font-family="Arial" font-size="14.00">read_only </text>
<text text-anchor="start" x="765.37" y="-616.8" font-family="Arial" font-size="14.00" fill="#666666">[boolean]</text>
<polygon fill="none" stroke="black" points="692.99,-573.8 692.99,-604.6 944.94,-604.6 944.94,-573.8 692.99,-573.8"/>
<text text-anchor="start" x="699.99" y="-586" font-family="Arial" font-size="14.00">subdomain_key </text>
<text text-anchor="start" x="801.94" y="-586" font-family="Arial" font-size="14.00" fill="#666666">[text]</text>
<polygon fill="none" stroke="black" points="692.99,-543 692.99,-573.8 944.94,-573.8 944.94,-543 692.99,-543"/>
<text text-anchor="start" x="699.99" y="-555.2" font-family="Arial" font-size="14.00">superclass_of_key </text>
<text text-anchor="start" x="819.83" y="-555.2" font-family="Arial" font-size="14.00" fill="#666666">[text]</text>
<polygon fill="none" stroke="black" points="692.99,-512.2 692.99,-543 944.94,-543 944.94,-512.2 692.99,-512.2"/>
<text text-anchor="start" x="699.99" y="-524.4" font-family="Arial" font-size="14.00">subclass_of_key </text>
<text text-anchor="start" x="807.39" y="-524.4" font-family="Arial" font-size="14.00" fill="#666666">[text]</text>
<polygon fill="none" stroke="black" points="692.99,-481.4 692.99,-512.2 944.94,-512.2 944.94,-481.4 692.99,-481.4"/>
<text text-anchor="start" x="699.99" y="-493.6" font-family="Arial" font-size="14.00">uml_comment </text>
<text text-anchor="start" x="791.8" y="-493.6" font-family="Arial" font-size="14.00" fill="#666666">[text]</text>
<polygon fill="none" stroke="black" stroke-width="3" points="691.49,-479.9 691.49,-857.3 946.44,-857.3 946.44,-479.9 691.49,-479.9"/>
</g>
<!-- public.model -->
<g id="node2" class="node">
<title>public.model</title>
<polygon fill="#efefef" stroke="none" points="139.48,-243.4 139.48,-279 372.45,-279 372.45,-243.4 139.48,-243.4"/>
<polygon fill="none" stroke="black" points="139.48,-243.4 139.48,-279 372.45,-279 372.45,-243.4 139.48,-243.4"/>
<text text-anchor="start" x="146.48" y="-256.8" font-family="Arial Bold" font-size="18.00">public.model</text>
<text text-anchor="start" x="240.96" y="-256.8" font-family="Arial" font-size="14.00">    </text>
<text text-anchor="start" x="272.08" y="-256.8" font-family="Arial" font-size="14.00" fill="#666666">[BASE TABLE]</text>
<polygon fill="none" stroke="black" points="139.48,-212.6 139.48,-243.4 372.45,-243.4 372.45,-212.6 139.48,-212.6"/>
<text text-anchor="start" x="146.48" y="-224.8" font-family="Arial" font-size="14.00">model_key </text>
<text text-anchor="start" x="218.07" y="-224.8" font-family="Arial" font-size="14.00" fill="#666666">[text]</text>
<polygon fill="none" stroke="black" points="139.48,-181.8 139.48,-212.6 372.45,-212.6 372.45,-181.8 139.48,-181.8"/>
<text text-anchor="start" x="146.48" y="-194" font-family="Arial" font-size="14.00">name </text>
<text text-anchor="start" x="185.39" y="-194" font-family="Arial" font-size="14.00" fill="#666666">[text]</text>
<polygon fill="none" stroke="black" points="139.48,-151 139.48,-181.8 372.45,-181.8 372.45,-151 139.48,-151"/>
<text text-anchor="start" x="146.48" y="-163.2" font-family="Arial" font-size="14.00">details </text>
<text text-anchor="start" x="190.84" y="-163.2" font-family="Arial" font-size="14.00" fill="#666666">[text]</text>
<polygon fill="none" stroke="black" points="139.48,-120.2 139.48,-151 372.45,-151 372.45,-120.2 139.48,-120.2"/>
<text text-anchor="start" x="146.48" y="-132.4" font-family="Arial" font-size="14.00">unfinished_notes </text>
<text text-anchor="start" x="256.23" y="-132.4" font-family="Arial" font-size="14.00" fill="#666666">[text]</text>
</g>
<!-- public.use_case&#45;&gt;public.model -->
<g id="edge1" class="edge">
<title>public.use_case:model_key&#45;&gt;public.model:model_key</title>
<path fill="none" stroke="black" d="M681.75,-804.64C477.15,-798.05 513.64,-591.95 423.97,-399.2 390.5,-327.27 452.78,-228 373.45,-228"/>
<polygon fill="black" stroke="black" points="681.66,-804.64 691.59,-809.29 686.99,-804.72 691.32,-804.79 691.32,-804.79 691.32,-804.79 686.99,-804.72 691.73,-800.3 681.66,-804.64"/>
<text text-anchor="start" x="292.11" y="-814.8" font-family="Arial" font-size="10.00">FOREIGN KEY (model_key) REFERENCES model(model_key) ON DELETE CASCADE</text>
</g>
<!-- public.subdomain -->
<g id="node3" class="node">
<title>public.subdomain</title>
<polygon fill="#efefef" stroke="none" points="476.48,-289.6 476.48,-325.2 743.45,-325.2 743.45,-289.6 476.48,-289.6"/>
<polygon fill="none" stroke="black" points="476.48,-289.6 476.48,-325.2 743.45,-325.2 743.45,-289.6 476.48,-289.6"/>
<text text-anchor="start" x="483.48" y="-303" font-family="Arial Bold" font-size="18.00">public.subdomain</text>
<text text-anchor="start" x="611.97" y="-303" font-family="Arial" font-size="14.00">    </text>
<text text-anchor="start" x="643.08" y="-303" font-family="Arial" font-size="14.00" fill="#666666">[BASE TABLE]</text>
<polygon fill="none" stroke="black" points="476.48,-258.8 476.48,-289.6 743.45,-289.6 743.45,-258.8 476.48,-258.8"/>
<text text-anchor="start" x="483.48" y="-271" font-family="Arial" font-size="14.00">subdomain_key </text>
<text text-anchor="start" x="585.43" y="-271" font-family="Arial" font-size="14.00" fill="#666666">[text]</text>
<polygon fill="none" stroke="black" points="476.48,-228 476.48,-258.8 743.45,-258.8 743.45,-228 476.48,-228"/>
<text text-anchor="start" x="483.48" y="-240.2" font-family="Arial" font-size="14.00">model_key </text>
<text text-anchor="start" x="555.07" y="-240.2" font-family="Arial" font-size="14.00" fill="#666666">[text]</text>
<polygon fill="none" stroke="black" points="476.48,-197.2 476.48,-228 743.45,-228 743.45,-197.2 476.48,-197.2"/>
<text text-anchor="start" x="483.48" y="-209.4" font-family="Arial" font-size="14.00">domain_key </text>
<text text-anchor="start" x="562.86" y="-209.4" font-family="Arial" font-size="14.00" fill="#666666">[text]</text>
<polygon fill="none" stroke="black" points="476.48,-166.4 476.48,-197.2 743.45,-197.2 743.45,-166.4 476.48,-166.4"/>
<text text-anchor="start" x="483.48" y="-178.6" font-family="Arial" font-size="14.00">name </text>
<text text-anchor="start" x="522.39" y="-178.6" font-family="Arial" font-size="14.00" fill="#666666">[text]</text>
<polygon fill="none" stroke="black" points="476.48,-135.6 476.48,-166.4 743.45,-166.4 743.45,-135.6 476.48,-135.6"/>
<text text-anchor="start" x="483.48" y="-147.8" font-family="Arial" font-size="14.00">details </text>
<text text-anchor="start" x="527.84" y="-147.8" font-family="Arial" font-size="14.00" fill="#666666">[text]</text>
<polygon fill="none" stroke="black" points="476.48,-104.8 476.48,-135.6 743.45,-135.6 743.45,-104.8 476.48,-104.8"/>
<text text-anchor="start" x="483.48" y="-117" font-family="Arial" font-size="14.00">unfinished_notes </text>
<text text-anchor="start" x="593.23" y="-117" font-family="Arial" font-size="14.00" fill="#666666">[text]</text>
<polygon fill="none" stroke="black" points="476.48,-74 476.48,-104.8 743.45,-104.8 743.45,-74 476.48,-74"/>
<text text-anchor="start" x="483.48" y="-86.2" font-family="Arial" font-size="14.00">uml_comment </text>
<text text-anchor="start" x="575.28" y="-86.2" font-family="Arial" font-size="14.00" fill="#666666">[text]</text>
</g>
<!-- public.use_case&#45;&gt;public.subdomain -->
<g id="edge2" class="edge">
<title>public.use_case:model_key&#45;&gt;public.subdomain:model_key</title>
<path fill="none" stroke="black" d="M681.79,-804.51C532.55,-795.63 641.69,-587.53 692.99,-435.2 704.87,-399.94 731.49,-403.63 743.45,-368.4 761.33,-315.8 800.01,-243.4 744.45,-243.4"/>
<polygon fill="black" stroke="black" points="681.66,-804.5 691.53,-809.29 686.99,-804.66 691.32,-804.78 691.32,-804.78 691.32,-804.78 686.99,-804.66 691.79,-800.29 681.66,-804.5"/>
<text text-anchor="start" x="119.23" y="-788.8" font-family="Arial" font-size="10.00">FOREIGN KEY (model_key, subdomain_key) REFERENCES subdomain(model_key, subdomain_key) ON DELETE CASCADE</text>
</g>
<!-- public.use_case_generalization -->
<g id="node4" class="node">
<title>public.use_case_generalization</title>
<polygon fill="#efefef" stroke="none" points="847.52,-320.4 847.52,-356 1210.41,-356 1210.41,-320.4 847.52,-320.4"/>
<polygon fill="none" stroke="black" points="847.52,-320.4 847.52,-356 1210.41,-356 1210.41,-320.4 847.52,-320.4"/>
<text text-anchor="start" x="854.52" y="-333.8" font-family="Arial Bold" font-size="18.00">public.use_case_generalization</text>
<text text-anchor="start" x="1078.92" y="-333.8" font-family="Arial" font-size="14.00">    </text>
<text text-anchor="start" x="1110.04" y="-333.8" font-family="Arial" font-size="14.00" fill="#666666">[BASE TABLE]</text>
<polygon fill="none" stroke="black" points="847.52,-289.6 847.52,-320.4 1210.41,-320.4 1210.41,-289.6 847.52,-289.6"/>
<text text-anchor="start" x="854.52" y="-301.8" font-family="Arial" font-size="14.00">model_key </text>
<text text-anchor="start" x="926.11" y="-301.8" font-family="Arial" font-size="14.00" fill="#666666">[text]</text>
<polygon fill="none" stroke="black" points="847.52,-258.8 847.52,-289.6 1210.41,-289.6 1210.41,-258.8 847.52,-258.8"/>
<text text-anchor="start" x="854.52" y="-271" font-family="Arial" font-size="14.00">generalization_key </text>
<text text-anchor="start" x="975.15" y="-271" font-family="Arial" font-size="14.00" fill="#666666">[text]</text>
<polygon fill="none" stroke="black" points="847.52,-228 847.52,-258.8 1210.41,-258.8 1210.41,-228 847.52,-228"/>
<text text-anchor="start" x="854.52" y="-240.2" font-family="Arial" font-size="14.00">name </text>
<text text-anchor="start" x="893.43" y="-240.2" font-family="Arial" font-size="14.00" fill="#666666">[text]</text>
<polygon fill="none" stroke="black" points="847.52,-197.2 847.52,-228 1210.41,-228 1210.41,-197.2 847.52,-197.2"/>
<text text-anchor="start" x="854.52" y="-209.4" font-family="Arial" font-size="14.00">subdomain_key </text>
<text text-anchor="start" x="956.47" y="-209.4" font-family="Arial" font-size="14.00" fill="#666666">[text]</text>
<polygon fill="none" stroke="black" points="847.52,-166.4 847.52,-197.2 1210.41,-197.2 1210.41,-166.4 847.52,-166.4"/>
<text text-anchor="start" x="854.52" y="-178.6" font-family="Arial" font-size="14.00">is_complete </text>
<text text-anchor="start" x="933.11" y="-178.6" font-family="Arial" font-size="14.00" fill="#666666">[boolean]</text>
<polygon fill="none" stroke="black" points="847.52,-135.6 847.52,-166.4 1210.41,-166.4 1210.41,-135.6 847.52,-135.6"/>
<text text-anchor="start" x="854.52" y="-147.8" font-family="Arial" font-size="14.00">is_static </text>
<text text-anchor="start" x="908.98" y="-147.8" font-family="Arial" font-size="14.00" fill="#666666">[boolean]</text>
<polygon fill="none" stroke="black" points="847.52,-104.8 847.52,-135.6 1210.41,-135.6 1210.41,-104.8 847.52,-104.8"/>
<text text-anchor="start" x="854.52" y="-117" font-family="Arial" font-size="14.00">details </text>
<text text-anchor="start" x="898.88" y="-117" font-family="Arial" font-size="14.00" fill="#666666">[text]</text>
<polygon fill="none" stroke="black" points="847.52,-74 847.52,-104.8 1210.41,-104.8 1210.41,-74 847.52,-74"/>
<text text-anchor="start" x="854.52" y="-86.2" font-family="Arial" font-size="14.00">unfinished_notes </text>
<text text-anchor="start" x="964.27" y="-86.2" font-family="Arial" font-size="14.00" fill="#666666">[text]</text>
<polygon fill="none" stroke="black" points="847.52,-43.2 847.52,-74 1210.41,-74 1210.41,-43.2 847.52,-43.2"/>
<text text-anchor="start" x="854.52" y="-55.4" font-family="Arial" font-size="14.00">uml_comment </text>
<text text-anchor="start" x="946.33" y="-55.4" font-family="Arial" font-size="14.00" fill="#666666">[text]</text>
</g>
<!-- public.use_case&#45;&gt;public.use_case_generalization -->
<g id="edge3" class="edge">
<title>public.use_case:model_key&#45;&gt;public.use_case_generalization:model_key</title>
<path fill="none" stroke="black" d="M956.06,-804.45C1098,-794.3 1027.9,-566.84 935.94,-435.2 909.51,-397.36 865.1,-436.94 838.52,-399.2 814.41,-364.97 795.65,-305 846.52,-305"/>
<polygon fill="black" stroke="black" points="956.27,-804.44 946.12,-800.29 950.94,-804.63 946.61,-804.78 946.61,-804.78 946.61,-804.78 950.94,-804.63 946.43,-809.29 956.27,-804.44"/>
<text text-anchor="start" x="952.94" y="-814.8" font-family="Arial" font-size="10.00">FOREIGN KEY (model_key, subclass_of_key) REFERENCES use_case_generalization(model_key, generalization_key) ON DELETE CASCADE</text>
</g>
<!-- public.use_case&#45;&gt;public.use_case_generalization -->
<g id="edge4" class="edge">
<title>public.use_case:model_key&#45;&gt;public.use_case_generalization:model_key</title>
<path fill="none" stroke="black" d="M956.53,-804.49C1116.21,-794.98 1046.04,-567.04 953.94,-435.2 927.51,-397.36 883.1,-436.94 856.52,-399.2 832.5,-365.11 813.8,-305.47 846.14,-305"/>
<polygon fill="black" stroke="black" points="956.52,-804.49 946.39,-800.29 951.19,-804.65 946.86,-804.78 946.86,-804.78 946.86,-804.78 951.19,-804.65 946.66,-809.29 956.52,-804.49"/>
<text text-anchor="start" x="953.19" y="-788.8" font-family="Arial" font-size="10.00">FOREIGN KEY (model_key, superclass_of_key) REFERENCES use_case_generalization(model_key, generalization_key) ON DELETE CASCADE</text>
</g>
<!-- public.use_case_actor -->
<g id="node5" class="node">
<title>public.use_case_actor</title>
<polygon fill="#efefef" stroke="none" points="263.51,-1119.8 263.51,-1155.4 560.43,-1155.4 560.43,-1119.8 263.51,-1119.8"/>
<polygon fill="none" stroke="black" points="263.51,-1119.8 263.51,-1155.4 560.43,-1155.4 560.43,-1119.8 263.51,-1119.8"/>
<text text-anchor="start" x="270.51" y="-1133.2" font-family="Arial Bold" font-size="18.00">public.use_case_actor</text>
<text text-anchor="start" x="428.94" y="-1133.2" font-family="Arial" font-size="14.00">    </text>
<text text-anchor="start" x="460.05" y="-1133.2" font-family="Arial" font-size="14.00" fill="#666666">[BASE TABLE]</text>
<polygon fill="none" stroke="black" points="263.51,-1089 263.51,-1119.8 560.43,-1119.8 560.43,-1089 263.51,-1089"/>
<text text-anchor="start" x="270.51" y="-1101.2" font-family="Arial" font-size="14.00">model_key </text>
<text text-anchor="start" x="342.1" y="-1101.2" font-family="Arial" font-size="14.00" fill="#666666">[text]</text>
<polygon fill="none" stroke="black" points="263.51,-1058.2 263.51,-1089 560.43,-1089 560.43,-1058.2 263.51,-1058.2"/>
<text text-anchor="start" x="270.51" y="-1070.4" font-family="Arial" font-size="14.00">use_case_key </text>
<text text-anchor="start" x="363.9" y="-1070.4" font-family="Arial" font-size="14.00" fill="#666666">[text]</text>
<polygon fill="none" stroke="black" points="263.51,-1027.4 263.51,-1058.2 560.43,-1058.2 560.43,-1027.4 263.51,-1027.4"/>
<text text-anchor="start" x="270.51" y="-1039.6" font-family="Arial" font-size="14.00">actor_key </text>
<text text-anchor="start" x="335.09" y="-1039.6" font-family="Arial" font-size="14.00" fill="#666666">[text]</text>
<polygon fill="none" stroke="black" points="263.51,-996.6 263.51,-1027.4 560.43,-1027.4 560.43,-996.6 263.51,-996.6"/>
<text text-anchor="start" x="270.51" y="-1008.8" font-family="Arial" font-size="14.00">uml_comment </text>
<text text-anchor="start" x="362.31" y="-1008.8" font-family="Arial" font-size="14.00" fill="#666666">[text]</text>
</g>
<!-- public.use_case_actor&#45;&gt;public.use_case -->
<g id="edge5" class="edge">
<title>public.use_case_actor:model_key&#45;&gt;public.use_case:model_key</title>
<path fill="none" stroke="black" d="M571.83,-1103.73C633.46,-1095.12 583.08,-1005.3 612.97,-938 640.9,-875.09 623.16,-804.8 691.99,-804.8"/>
<polygon fill="black" stroke="black" points="571.74,-1103.74 561.47,-1099.89 566.42,-1104.08 562.09,-1104.36 562.09,-1104.36 562.09,-1104.36 566.42,-1104.08 562.05,-1108.87 571.74,-1103.74"/>
<text text-anchor="start" x="7" y="-1114.4" font-family="Arial" font-size="10.00">FOREIGN KEY (model_key, use_case_key) REFERENCES use_case(model_key, use_case_key) ON DELETE CASCADE</text>
</g>
<!-- public.use_case_shared -->
<g id="node6" class="node">
<title>public.use_case_shared</title>
<polygon fill="#efefef" stroke="none" points="665,-1135.2 665,-1170.8 972.93,-1170.8 972.93,-1135.2 665,-1135.2"/>
<polygon fill="none" stroke="black" points="665,-1135.2 665,-1170.8 972.93,-1170.8 972.93,-1135.2 665,-1135.2"/>
<text text-anchor="start" x="672" y="-1148.6" font-family="Arial Bold" font-size="18.00">public.use_case_shared</text>
<text text-anchor="start" x="841.44" y="-1148.6" font-family="Arial" font-size="14.00">    </text>
<text text-anchor="start" x="872.56" y="-1148.6" font-family="Arial" font-size="14.00" fill="#666666">[BASE TABLE]</text>
<polygon fill="none" stroke="black" points="665,-1104.4 665,-1135.2 972.93,-1135.2 972.93,-1104.4 665,-1104.4"/>
<text text-anchor="start" x="672" y="-1116.6" font-family="Arial" font-size="14.00">model_key </text>
<text text-anchor="start" x="743.6" y="-1116.6" font-family="Arial" font-size="14.00" fill="#666666">[text]</text>
<polygon fill="none" stroke="black" points="665,-1073.6 665,-1104.4 972.93,-1104.4 972.93,-1073.6 665,-1073.6"/>
<text text-anchor="start" x="672" y="-1085.8" font-family="Arial" font-size="14.00">sea_use_case_key </text>
<text text-anchor="start" x="795.75" y="-1085.8" font-family="Arial" font-size="14.00" fill="#666666">[text]</text>
<polygon fill="none" stroke="black" points="665,-1042.8 665,-1073.6 972.93,-1073.6 972.93,-1042.8 665,-1042.8"/>
<text text-anchor="start" x="672" y="-1055" font-family="Arial" font-size="14.00">mud_use_case_key </text>
<text text-anchor="start" x="800.42" y="-1055" font-family="Arial" font-size="14.00" fill="#666666">[text]</text>
<polygon fill="none" stroke="black" points="665,-1012 665,-1042.8 972.93,-1042.8 972.93,-1012 665,-1012"/>
<text text-anchor="start" x="672" y="-1024.2" font-family="Arial" font-size="14.00">share_type </text>
<text text-anchor="start" x="745.16" y="-1024.2" font-family="Arial" font-size="14.00" fill="#666666">[share_type]</text>
<polygon fill="none" stroke="black" points="665,-981.2 665,-1012 972.93,-1012 972.93,-981.2 665,-981.2"/>
<text text-anchor="start" x="672" y="-993.4" font-family="Arial" font-size="14.00">uml_comment </text>
<text text-anchor="start" x="763.81" y="-993.4" font-family="Arial" font-size="14.00" fill="#666666">[text]</text>
</g>
<!-- public.use_case_shared&#45;&gt;public.use_case -->
<g id="edge6" class="edge">
<title>public.use_case_shared:model_key&#45;&gt;public.use_case:model_key</title>
<path fill="none" stroke="black" d="M983.79,-1116.68C1031.81,-1083.97 1003.63,-804.8 945.94,-804.8"/>
<polygon fill="black" stroke="black" points="983.78,-1116.69 972.89,-1115.41 978.7,-1118.29 974.57,-1119.6 974.57,-1119.6 974.57,-1119.6 978.7,-1118.29 975.6,-1123.99 983.78,-1116.69"/>
<text text-anchor="start" x="687.71" y="-1103.8" font-family="Arial" font-size="10.00">FOREIGN KEY (model_key, mud_use_case_key) REFERENCES use_case(model_key, use_case_key) ON DELETE CASCADE</text>
</g>
<!-- public.use_case_shared&#45;&gt;public.use_case -->
<g id="edge7" class="edge">
<title>public.use_case_shared:model_key&#45;&gt;public.use_case:model_key</title>
<path fill="none" stroke="black" d="M984.34,-1117.8C1050.34,-1091.12 1021.63,-805.97 946.4,-804.8"/>
<polygon fill="black" stroke="black" points="984.53,-1117.77 973.84,-1115.32 979.29,-1118.81 975.05,-1119.66 975.05,-1119.66 975.05,-1119.66 979.29,-1118.81 975.6,-1124.14 984.53,-1117.77"/>
<text text-anchor="start" x="398.28" y="-1129.8" font-family="Arial" font-size="10.00">FOREIGN KEY (model_key, sea_use_case_key) REFERENCES use_case(model_key, use_case_key) ON DELETE CASCADE</text>
</g>
<!-- public.scenario -->
<g id="node7" class="node">
<title>public.scenario</title>
<polygon fill="#efefef" stroke="none" points="1076.99,-1135.2 1076.99,-1170.8 1324.94,-1170.8 1324.94,-1135.2 1076.99,-1135.2"/>
<polygon fill="none" stroke="black" points="1076.99,-1135.2 1076.99,-1170.8 1324.94,-1170.8 1324.94,-1135.2 1076.99,-1135.2"/>
<text text-anchor="start" x="1083.99" y="-1148.6" font-family="Arial Bold" font-size="18.00">public.scenario</text>
<text text-anchor="start" x="1193.45" y="-1148.6" font-family="Arial" font-size="14.00">    </text>
<text text-anchor="start" x="1224.57" y="-1148.6" font-family="Arial" font-size="14.00" fill="#666666">[BASE TABLE]</text>
<polygon fill="none" stroke="black" points="1076.99,-1104.4 1076.99,-1135.2 1324.94,-1135.2 1324.94,-1104.4 1076.99,-1104.4"/>
<text text-anchor="start" x="1083.99" y="-1116.6" font-family="Arial" font-size="14.00">model_key </text>
<text text-anchor="start" x="1155.58" y="-1116.6" font-family="Arial" font-size="14.00" fill="#666666">[text]</text>
<polygon fill="none" stroke="black" points="1076.99,-1073.6 1076.99,-1104.4 1324.94,-1104.4 1324.94,-1073.6 1076.99,-1073.6"/>
<text text-anchor="start" x="1083.99" y="-1085.8" font-family="Arial" font-size="14.00">scenario_key </text>
<text text-anchor="start" x="1170.37" y="-1085.8" font-family="Arial" font-size="14.00" fill="#666666">[text]</text>
<polygon fill="none" stroke="black" points="1076.99,-1042.8 1076.99,-1073.6 1324.94,-1073.6 1324.94,-1042.8 1076.99,-1042.8"/>
<text text-anchor="start" x="1083.99" y="-1055" font-family="Arial" font-size="14.00">name </text>
<text text-anchor="start" x="1122.9" y="-1055" font-family="Arial" font-size="14.00" fill="#666666">[text]</text>
<polygon fill="none" stroke="black" points="1076.99,-1012 1076.99,-1042.8 1324.94,-1042.8 1324.94,-1012 1076.99,-1012"/>
<text text-anchor="start" x="1083.99" y="-1024.2" font-family="Arial" font-size="14.00">use_case_key </text>
<text text-anchor="start" x="1177.38" y="-1024.2" font-family="Arial" font-size="14.00" fill="#666666">[text]</text>
<polygon fill="none" stroke="black" points="1076.99,-981.2 1076.99,-1012 1324.94,-1012 1324.94,-981.2 1076.99,-981.2"/>
<text text-anchor="start" x="1083.99" y="-993.4" font-family="Arial" font-size="14.00">details </text>
<text text-anchor="start" x="1128.35" y="-993.4" font-family="Arial" font-size="14.00" fill="#666666">[text]</text>
</g>
<!-- public.scenario&#45;&gt;public.use_case -->
<g id="edge8" class="edge">
<title>public.scenario:model_key&#45;&gt;public.use_case:model_key</title>
<path fill="none" stroke="black" d="M1065.98,-1119.23C997.55,-1110.86 1056.58,-1011.83 1024.97,-938 997.87,-874.72 1014.77,-804.8 945.94,-804.8"/>
<polygon fill="black" stroke="black" points="1065.67,-1119.21 1075.4,-1124.27 1071,-1119.52 1075.32,-1119.76 1075.32,-1119.76 1075.32,-1119.76 1071,-1119.52 1075.91,-1115.29 1065.67,-1119.21"/>
<text text-anchor="start" x="1082.99" y="-1129.8" font-family="Arial" font-size="10.00">FOREIGN KEY (model_key, use_case_key) REFERENCES use_case(model_key, use_case_key) ON DELETE CASCADE</text>
</g>
</g>
</svg>
