<?xml version="1.0" encoding="UTF-8" standalone="no"?>
<!DOCTYPE svg PUBLIC "-//W3C//DTD SVG 1.1//EN"
 "http://www.w3.org/Graphics/SVG/1.1/DTD/svg11.dtd">
<!-- Generated by graphviz version 12.1.2 (20240928.0832)
 -->
<!-- Title: public.query_require Pages: 1 -->
<svg width="1302pt" height="725pt"
 viewBox="0.00 0.00 1301.68 725.20" xmlns="http://www.w3.org/2000/svg" xmlns:xlink="http://www.w3.org/1999/xlink">
<g id="graph0" class="graph" transform="scale(1 1) rotate(0) translate(4 721.2)">
<title>public.query_require</title>
<polygon fill="white" stroke="none" points="-4,4 -4,-721.2 1297.68,-721.2 1297.68,4 -4,4"/>
<!-- public.query_require -->
<g id="node1" class="node">
<title>public.query_require</title>
<polygon fill="#efefef" stroke="none" points="495.7,-635.4 495.7,-671 784.63,-671 784.63,-635.4 495.7,-635.4"/>
<polygon fill="none" stroke="black" points="495.7,-635.4 495.7,-671 784.63,-671 784.63,-635.4 495.7,-635.4"/>
<text text-anchor="start" x="502.7" y="-648.8" font-family="Arial Bold" font-size="18.00">public.query_require</text>
<text text-anchor="start" x="653.15" y="-648.8" font-family="Arial" font-size="14.00">    </text>
<text text-anchor="start" x="684.26" y="-648.8" font-family="Arial" font-size="14.00" fill="#666666">[BASE TABLE]</text>
<polygon fill="none" stroke="black" points="495.7,-604.6 495.7,-635.4 784.63,-635.4 784.63,-604.6 495.7,-604.6"/>
<text text-anchor="start" x="502.7" y="-616.8" font-family="Arial" font-size="14.00">model_key </text>
<text text-anchor="start" x="574.3" y="-616.8" font-family="Arial" font-size="14.00" fill="#666666">[text]</text>
<polygon fill="none" stroke="black" points="495.7,-573.8 495.7,-604.6 784.63,-604.6 784.63,-573.8 495.7,-573.8"/>
<text text-anchor="start" x="502.7" y="-586" font-family="Arial" font-size="14.00">query_key </text>
<text text-anchor="start" x="571.19" y="-586" font-family="Arial" font-size="14.00" fill="#666666">[text]</text>
<polygon fill="none" stroke="black" points="495.7,-543 495.7,-573.8 784.63,-573.8 784.63,-543 495.7,-543"/>
<text text-anchor="start" x="502.7" y="-555.2" font-family="Arial" font-size="14.00">logic_key </text>
<text text-anchor="start" x="564.96" y="-555.2" font-family="Arial" font-size="14.00" fill="#666666">[text]</text>
<polygon fill="none" stroke="black" stroke-width="3" points="494.2,-541.5 494.2,-672.5 786.13,-672.5 786.13,-541.5 494.2,-541.5"/>
</g>
<!-- public.logic -->
<g id="node2" class="node">
<title>public.logic</title>
<polygon fill="#efefef" stroke="none" points="363.18,-382 363.18,-417.6 587.15,-417.6 587.15,-382 363.18,-382"/>
<polygon fill="none" stroke="black" points="363.18,-382 363.18,-417.6 587.15,-417.6 587.15,-382 363.18,-382"/>
<text text-anchor="start" x="370.18" y="-395.4" font-family="Arial Bold" font-size="18.00">public.logic</text>
<text text-anchor="start" x="455.67" y="-395.4" font-family="Arial" font-size="14.00">    </text>
<text text-anchor="start" x="486.78" y="-395.4" font-family="Arial" font-size="14.00" fill="#666666">[BASE TABLE]</text>
<polygon fill="none" stroke="black" points="363.18,-351.2 363.18,-382 587.15,-382 587.15,-351.2 363.18,-351.2"/>
<text text-anchor="start" x="370.18" y="-363.4" font-family="Arial" font-size="14.00">logic_key </text>
<text text-anchor="start" x="432.44" y="-363.4" font-family="Arial" font-size="14.00" fill="#666666">[text]</text>
<polygon fill="none" stroke="black" points="363.18,-320.4 363.18,-351.2 587.15,-351.2 587.15,-320.4 363.18,-320.4"/>
<text text-anchor="start" x="370.18" y="-332.6" font-family="Arial" font-size="14.00">model_key </text>
<text text-anchor="start" x="441.78" y="-332.6" font-family="Arial" font-size="14.00" fill="#666666">[text]</text>
<polygon fill="none" stroke="black" points="363.18,-289.6 363.18,-320.4 587.15,-320.4 587.15,-289.6 363.18,-289.6"/>
<text text-anchor="start" x="370.18" y="-301.8" font-family="Arial" font-size="14.00">sort_order </text>
<text text-anchor="start" x="437.88" y="-301.8" font-family="Arial" font-size="14.00" fill="#666666">[integer]</text>
<polygon fill="none" stroke="black" points="363.18,-258.8 363.18,-289.6 587.15,-289.6 587.15,-258.8 363.18,-258.8"/>
<text text-anchor="start" x="370.18" y="-271" font-family="Arial" font-size="14.00">logic_type </text>
<text text-anchor="start" x="437.11" y="-271" font-family="Arial" font-size="14.00" fill="#666666">[logic_type]</text>
<polygon fill="none" stroke="black" points="363.18,-228 363.18,-258.8 587.15,-258.8 587.15,-228 363.18,-228"/>
<text text-anchor="start" x="370.18" y="-240.2" font-family="Arial" font-size="14.00">description </text>
<text text-anchor="start" x="441.78" y="-240.2" font-family="Arial" font-size="14.00" fill="#666666">[text]</text>
<polygon fill="none" stroke="black" points="363.18,-197.2 363.18,-228 587.15,-228 587.15,-197.2 363.18,-197.2"/>
<text text-anchor="start" x="370.18" y="-209.4" font-family="Arial" font-size="14.00">target </text>
<text text-anchor="start" x="409.87" y="-209.4" font-family="Arial" font-size="14.00" fill="#666666">[text]</text>
<polygon fill="none" stroke="black" points="363.18,-166.4 363.18,-197.2 587.15,-197.2 587.15,-166.4 363.18,-166.4"/>
<text text-anchor="start" x="370.18" y="-178.6" font-family="Arial" font-size="14.00">notation </text>
<text text-anchor="start" x="423.89" y="-178.6" font-family="Arial" font-size="14.00" fill="#666666">[notation]</text>
<polygon fill="none" stroke="black" points="363.18,-135.6 363.18,-166.4 587.15,-166.4 587.15,-135.6 363.18,-135.6"/>
<text text-anchor="start" x="370.18" y="-147.8" font-family="Arial" font-size="14.00">specification </text>
<text text-anchor="start" x="451.11" y="-147.8" font-family="Arial" font-size="14.00" fill="#666666">[text]</text>
<polygon fill="none" stroke="black" points="363.18,-104.8 363.18,-135.6 587.15,-135.6 587.15,-104.8 363.18,-104.8"/>
<text text-anchor="start" x="370.18" y="-117" font-family="Arial" font-size="14.00">target_type_notation </text>
<text text-anchor="start" x="501.73" y="-117" font-family="Arial" font-size="14.00" fill="#666666">[notation]</text>
<polygon fill="none" stroke="black" points="363.18,-74 363.18,-104.8 587.15,-104.8 587.15,-74 363.18,-74"/>
<text text-anchor="start" x="370.18" y="-86.2" font-family="Arial" font-size="14.00">target_type_specification </text>
<text text-anchor="start" x="528.95" y="-86.2" font-family="Arial" font-size="14.00" fill="#666666">[text]</text>
<polygon fill="none" stroke="black" points="363.18,-43.2 363.18,-74 587.15,-74 587.15,-43.2 363.18,-43.2"/>
<text text-anchor="start" x="370.18" y="-55.4" font-family="Arial" font-size="14.00">delete_event_specification </text>
<text text-anchor="start" x="539.08" y="-55.4" font-family="Arial" font-size="14.00" fill="#666666">[text]</text>
</g>
<!-- public.query_require&#45;&gt;public.logic -->
<g id="edge1" class="edge">
<title>public.query_require:model_key&#45;&gt;public.logic:model_key</title>
<path fill="none" stroke="black" d="M484.56,-618.94C443.36,-609.48 466.82,-538.85 495.7,-496.8 520.44,-460.8 562.42,-496.8 587.15,-460.8 618.61,-415.01 643.71,-335.8 588.15,-335.8"/>
<polygon fill="black" stroke="black" points="484.42,-618.93 493.9,-624.44 489.73,-619.48 494.04,-619.93 494.04,-619.93 494.04,-619.93 489.73,-619.48 494.84,-615.49 484.42,-618.93"/>
<text text-anchor="start" x="7" y="-630" font-family="Arial" font-size="10.00">FOREIGN KEY (model_key, logic_key) REFERENCES logic(model_key, logic_key) ON DELETE CASCADE</text>
</g>
<!-- public.query -->
<g id="node3" class="node">
<title>public.query</title>
<polygon fill="#efefef" stroke="none" points="691.69,-289.6 691.69,-325.2 920.65,-325.2 920.65,-289.6 691.69,-289.6"/>
<polygon fill="none" stroke="black" points="691.69,-289.6 691.69,-325.2 920.65,-325.2 920.65,-289.6 691.69,-289.6"/>
<text text-anchor="start" x="698.69" y="-303" font-family="Arial Bold" font-size="18.00">public.query</text>
<text text-anchor="start" x="789.16" y="-303" font-family="Arial" font-size="14.00">    </text>
<text text-anchor="start" x="820.28" y="-303" font-family="Arial" font-size="14.00" fill="#666666">[BASE TABLE]</text>
<polygon fill="none" stroke="black" points="691.69,-258.8 691.69,-289.6 920.65,-289.6 920.65,-258.8 691.69,-258.8"/>
<text text-anchor="start" x="698.69" y="-271" font-family="Arial" font-size="14.00">model_key </text>
<text text-anchor="start" x="770.28" y="-271" font-family="Arial" font-size="14.00" fill="#666666">[text]</text>
<polygon fill="none" stroke="black" points="691.69,-228 691.69,-258.8 920.65,-258.8 920.65,-228 691.69,-228"/>
<text text-anchor="start" x="698.69" y="-240.2" font-family="Arial" font-size="14.00">class_key </text>
<text text-anchor="start" x="764.05" y="-240.2" font-family="Arial" font-size="14.00" fill="#666666">[text]</text>
<polygon fill="none" stroke="black" points="691.69,-197.2 691.69,-228 920.65,-228 920.65,-197.2 691.69,-197.2"/>
<text text-anchor="start" x="698.69" y="-209.4" font-family="Arial" font-size="14.00">query_key </text>
<text text-anchor="start" x="767.17" y="-209.4" font-family="Arial" font-size="14.00" fill="#666666">[text]</text>
<polygon fill="none" stroke="black" points="691.69,-166.4 691.69,-197.2 920.65,-197.2 920.65,-166.4 691.69,-166.4"/>
<text text-anchor="start" x="698.69" y="-178.6" font-family="Arial" font-size="14.00">name </text>
<text text-anchor="start" x="737.6" y="-178.6" font-family="Arial" font-size="14.00" fill="#666666">[text]</text>
<polygon fill="none" stroke="black" points="691.69,-135.6 691.69,-166.4 920.65,-166.4 920.65,-135.6 691.69,-135.6"/>
<text text-anchor="start" x="698.69" y="-147.8" font-family="Arial" font-size="14.00">details </text>
<text text-anchor="start" x="743.05" y="-147.8" font-family="Arial" font-size="14.00" fill="#666666">[text]</text>
</g>
<!-- public.query_require&#45;&gt;public.query -->
<g id="edge2" class="edge">
<title>public.query_require:model_key&#45;&gt;public.query:model_key</title>
<path fill="none" stroke="black" d="M795.84,-618.98C835.06,-610.09 800.52,-545.17 784.63,-496.8 762.65,-429.87 713.75,-435.3 691.69,-368.4 678.57,-328.64 648.82,-274.2 690.69,-274.2"/>
<polygon fill="black" stroke="black" points="795.92,-618.97 785.52,-615.49 790.61,-619.5 786.3,-619.93 786.3,-619.93 786.3,-619.93 790.61,-619.5 786.42,-624.44 795.92,-618.97"/>
<text text-anchor="start" x="792.63" y="-630" font-family="Arial" font-size="10.00">FOREIGN KEY (model_key, query_key) REFERENCES query(model_key, query_key) ON DELETE CASCADE</text>
</g>
</g>
</svg>
