<?xml version="1.0" encoding="UTF-8" standalone="no"?>
<!DOCTYPE svg PUBLIC "-//W3C//DTD SVG 1.1//EN"
 "http://www.w3.org/Graphics/SVG/1.1/DTD/svg11.dtd">
<!-- Generated by graphviz version 12.1.2 (20240928.0832)
 -->
<!-- Title: public.action_require Pages: 1 -->
<svg width="1310pt" height="571pt"
 viewBox="0.00 0.00 1309.69 571.20" xmlns="http://www.w3.org/2000/svg" xmlns:xlink="http://www.w3.org/1999/xlink">
<g id="graph0" class="graph" transform="scale(1 1) rotate(0) translate(4 567.2)">
<title>public.action_require</title>
<polygon fill="white" stroke="none" points="-4,4 -4,-567.2 1305.69,-567.2 1305.69,4 -4,4"/>
<!-- public.action_require -->
<g id="node1" class="node">
<title>public.action_require</title>
<polygon fill="#efefef" stroke="none" points="495.7,-481.4 495.7,-517 787.63,-517 787.63,-481.4 495.7,-481.4"/>
<polygon fill="none" stroke="black" points="495.7,-481.4 495.7,-517 787.63,-517 787.63,-481.4 495.7,-481.4"/>
<text text-anchor="start" x="502.7" y="-494.8" font-family="Arial Bold" font-size="18.00">public.action_require</text>
<text text-anchor="start" x="656.14" y="-494.8" font-family="Arial" font-size="14.00">    </text>
<text text-anchor="start" x="687.26" y="-494.8" font-family="Arial" font-size="14.00" fill="#666666">[BASE TABLE]</text>
<polygon fill="none" stroke="black" points="495.7,-450.6 495.7,-481.4 787.63,-481.4 787.63,-450.6 495.7,-450.6"/>
<text text-anchor="start" x="502.7" y="-462.8" font-family="Arial" font-size="14.00">model_key </text>
<text text-anchor="start" x="574.3" y="-462.8" font-family="Arial" font-size="14.00" fill="#666666">[text]</text>
<polygon fill="none" stroke="black" points="495.7,-419.8 495.7,-450.6 787.63,-450.6 787.63,-419.8 495.7,-419.8"/>
<text text-anchor="start" x="502.7" y="-432" font-family="Arial" font-size="14.00">action_key </text>
<text text-anchor="start" x="573.52" y="-432" font-family="Arial" font-size="14.00" fill="#666666">[text]</text>
<polygon fill="none" stroke="black" points="495.7,-389 495.7,-419.8 787.63,-419.8 787.63,-389 495.7,-389"/>
<text text-anchor="start" x="502.7" y="-401.2" font-family="Arial" font-size="14.00">logic_key </text>
<text text-anchor="start" x="564.96" y="-401.2" font-family="Arial" font-size="14.00" fill="#666666">[text]</text>
<polygon fill="none" stroke="black" stroke-width="3" points="494.2,-387.5 494.2,-518.5 789.13,-518.5 789.13,-387.5 494.2,-387.5"/>
</g>
<!-- public.logic -->
<g id="node2" class="node">
<title>public.logic</title>
<polygon fill="#efefef" stroke="none" points="363.68,-228 363.68,-263.6 587.65,-263.6 587.65,-228 363.68,-228"/>
<polygon fill="none" stroke="black" points="363.68,-228 363.68,-263.6 587.65,-263.6 587.65,-228 363.68,-228"/>
<text text-anchor="start" x="370.68" y="-241.4" font-family="Arial Bold" font-size="18.00">public.logic</text>
<text text-anchor="start" x="456.16" y="-241.4" font-family="Arial" font-size="14.00">    </text>
<text text-anchor="start" x="487.28" y="-241.4" font-family="Arial" font-size="14.00" fill="#666666">[BASE TABLE]</text>
<polygon fill="none" stroke="black" points="363.68,-197.2 363.68,-228 587.65,-228 587.65,-197.2 363.68,-197.2"/>
<text text-anchor="start" x="370.68" y="-209.4" font-family="Arial" font-size="14.00">logic_key </text>
<text text-anchor="start" x="432.94" y="-209.4" font-family="Arial" font-size="14.00" fill="#666666">[text]</text>
<polygon fill="none" stroke="black" points="363.68,-166.4 363.68,-197.2 587.65,-197.2 587.65,-166.4 363.68,-166.4"/>
<text text-anchor="start" x="370.68" y="-178.6" font-family="Arial" font-size="14.00">model_key </text>
<text text-anchor="start" x="442.27" y="-178.6" font-family="Arial" font-size="14.00" fill="#666666">[text]</text>
<polygon fill="none" stroke="black" points="363.68,-135.6 363.68,-166.4 587.65,-166.4 587.65,-135.6 363.68,-135.6"/>
<text text-anchor="start" x="370.68" y="-147.8" font-family="Arial" font-size="14.00">sort_order </text>
<text text-anchor="start" x="438.38" y="-147.8" font-family="Arial" font-size="14.00" fill="#666666">[integer]</text>
<polygon fill="none" stroke="black" points="363.68,-104.8 363.68,-135.6 587.65,-135.6 587.65,-104.8 363.68,-104.8"/>
<text text-anchor="start" x="370.68" y="-117" font-family="Arial" font-size="14.00">description </text>
<text text-anchor="start" x="442.27" y="-117" font-family="Arial" font-size="14.00" fill="#666666">[text]</text>
<polygon fill="none" stroke="black" points="363.68,-74 363.68,-104.8 587.65,-104.8 587.65,-74 363.68,-74"/>
<text text-anchor="start" x="370.68" y="-86.2" font-family="Arial" font-size="14.00">notation </text>
<text text-anchor="start" x="424.39" y="-86.2" font-family="Arial" font-size="14.00" fill="#666666">[notation]</text>
<polygon fill="none" stroke="black" points="363.68,-43.2 363.68,-74 587.65,-74 587.65,-43.2 363.68,-43.2"/>
<text text-anchor="start" x="370.68" y="-55.4" font-family="Arial" font-size="14.00">specification </text>
<text text-anchor="start" x="451.61" y="-55.4" font-family="Arial" font-size="14.00" fill="#666666">[text]</text>
</g>
<!-- public.action_require&#45;&gt;public.logic -->
<g id="edge1" class="edge">
<title>public.action_require:model_key&#45;&gt;public.logic:model_key</title>
<path fill="none" stroke="black" d="M484.56,-464.94C443.35,-455.48 466.78,-384.82 495.7,-342.8 520.59,-306.65 562.77,-342.95 587.65,-306.8 619.15,-261.03 644.21,-181.8 588.65,-181.8"/>
<polygon fill="black" stroke="black" points="484.42,-464.93 493.9,-470.44 489.73,-465.48 494.04,-465.93 494.04,-465.93 494.04,-465.93 489.73,-465.48 494.84,-461.49 484.42,-464.93"/>
<text text-anchor="start" x="7" y="-476" font-family="Arial" font-size="10.00">FOREIGN KEY (model_key, logic_key) REFERENCES logic(model_key, logic_key) ON DELETE CASCADE</text>
</g>
<!-- public.action -->
<g id="node3" class="node">
<title>public.action</title>
<polygon fill="#efefef" stroke="none" points="691.69,-212.6 691.69,-248.2 923.65,-248.2 923.65,-212.6 691.69,-212.6"/>
<polygon fill="none" stroke="black" points="691.69,-212.6 691.69,-248.2 923.65,-248.2 923.65,-212.6 691.69,-212.6"/>
<text text-anchor="start" x="698.69" y="-226" font-family="Arial Bold" font-size="18.00">public.action</text>
<text text-anchor="start" x="792.16" y="-226" font-family="Arial" font-size="14.00">    </text>
<text text-anchor="start" x="823.28" y="-226" font-family="Arial" font-size="14.00" fill="#666666">[BASE TABLE]</text>
<polygon fill="none" stroke="black" points="691.69,-181.8 691.69,-212.6 923.65,-212.6 923.65,-181.8 691.69,-181.8"/>
<text text-anchor="start" x="698.69" y="-194" font-family="Arial" font-size="14.00">model_key </text>
<text text-anchor="start" x="770.28" y="-194" font-family="Arial" font-size="14.00" fill="#666666">[text]</text>
<polygon fill="none" stroke="black" points="691.69,-151 691.69,-181.8 923.65,-181.8 923.65,-151 691.69,-151"/>
<text text-anchor="start" x="698.69" y="-163.2" font-family="Arial" font-size="14.00">class_key </text>
<text text-anchor="start" x="764.05" y="-163.2" font-family="Arial" font-size="14.00" fill="#666666">[text]</text>
<polygon fill="none" stroke="black" points="691.69,-120.2 691.69,-151 923.65,-151 923.65,-120.2 691.69,-120.2"/>
<text text-anchor="start" x="698.69" y="-132.4" font-family="Arial" font-size="14.00">action_key </text>
<text text-anchor="start" x="769.51" y="-132.4" font-family="Arial" font-size="14.00" fill="#666666">[text]</text>
<polygon fill="none" stroke="black" points="691.69,-89.4 691.69,-120.2 923.65,-120.2 923.65,-89.4 691.69,-89.4"/>
<text text-anchor="start" x="698.69" y="-101.6" font-family="Arial" font-size="14.00">name </text>
<text text-anchor="start" x="737.6" y="-101.6" font-family="Arial" font-size="14.00" fill="#666666">[text]</text>
<polygon fill="none" stroke="black" points="691.69,-58.6 691.69,-89.4 923.65,-89.4 923.65,-58.6 691.69,-58.6"/>
<text text-anchor="start" x="698.69" y="-70.8" font-family="Arial" font-size="14.00">details </text>
<text text-anchor="start" x="743.05" y="-70.8" font-family="Arial" font-size="14.00" fill="#666666">[text]</text>
</g>
<!-- public.action_require&#45;&gt;public.action -->
<g id="edge2" class="edge">
<title>public.action_require:model_key&#45;&gt;public.action:model_key</title>
<path fill="none" stroke="black" d="M798.99,-464.9C839.53,-455.41 813.96,-386.37 787.63,-342.8 762.61,-301.4 716.76,-332.77 691.69,-291.4 669.99,-255.59 648.82,-197.2 690.69,-197.2"/>
<polygon fill="black" stroke="black" points="798.91,-464.91 788.49,-461.49 793.6,-465.47 789.3,-465.93 789.3,-465.93 789.3,-465.93 793.6,-465.47 789.44,-470.44 798.91,-464.91"/>
<text text-anchor="start" x="795.63" y="-476" font-family="Arial" font-size="10.00">FOREIGN KEY (model_key, action_key) REFERENCES action(model_key, action_key) ON DELETE CASCADE</text>
</g>
</g>
</svg>
