<?xml version="1.0" encoding="UTF-8" standalone="no"?>
<!DOCTYPE svg PUBLIC "-//W3C//DTD SVG 1.1//EN"
 "http://www.w3.org/Graphics/SVG/1.1/DTD/svg11.dtd">
<!-- Generated by graphviz version 12.1.2 (20240928.0832)
 -->
<!-- Title: public.use_case_generalization Pages: 1 -->
<svg width="1392pt" height="1284pt"
 viewBox="0.00 0.00 1392.24 1283.60" xmlns="http://www.w3.org/2000/svg" xmlns:xlink="http://www.w3.org/1999/xlink">
<g id="graph0" class="graph" transform="scale(1 1) rotate(0) translate(4 1279.6)">
<title>public.use_case_generalization</title>
<polygon fill="white" stroke="none" points="-4,4 -4,-1279.6 1388.24,-1279.6 1388.24,4 -4,4"/>
<!-- public.use_case_generalization -->
<g id="node1" class="node">
<title>public.use_case_generalization</title>
<polygon fill="#efefef" stroke="none" points="407.88,-697 407.88,-732.6 770.77,-732.6 770.77,-697 407.88,-697"/>
<polygon fill="none" stroke="black" points="407.88,-697 407.88,-732.6 770.77,-732.6 770.77,-697 407.88,-697"/>
<text text-anchor="start" x="414.88" y="-710.4" font-family="Arial Bold" font-size="18.00">public.use_case_generalization</text>
<text text-anchor="start" x="639.28" y="-710.4" font-family="Arial" font-size="14.00">    </text>
<text text-anchor="start" x="670.4" y="-710.4" font-family="Arial" font-size="14.00" fill="#666666">[BASE TABLE]</text>
<polygon fill="none" stroke="black" points="407.88,-666.2 407.88,-697 770.77,-697 770.77,-666.2 407.88,-666.2"/>
<text text-anchor="start" x="414.88" y="-678.4" font-family="Arial" font-size="14.00">model_key </text>
<text text-anchor="start" x="486.47" y="-678.4" font-family="Arial" font-size="14.00" fill="#666666">[text]</text>
<polygon fill="none" stroke="black" points="407.88,-635.4 407.88,-666.2 770.77,-666.2 770.77,-635.4 407.88,-635.4"/>
<text text-anchor="start" x="414.88" y="-647.6" font-family="Arial" font-size="14.00">generalization_key </text>
<text text-anchor="start" x="535.51" y="-647.6" font-family="Arial" font-size="14.00" fill="#666666">[text]</text>
<polygon fill="none" stroke="black" points="407.88,-604.6 407.88,-635.4 770.77,-635.4 770.77,-604.6 407.88,-604.6"/>
<text text-anchor="start" x="414.88" y="-616.8" font-family="Arial" font-size="14.00">name </text>
<text text-anchor="start" x="453.79" y="-616.8" font-family="Arial" font-size="14.00" fill="#666666">[text]</text>
<polygon fill="none" stroke="black" points="407.88,-573.8 407.88,-604.6 770.77,-604.6 770.77,-573.8 407.88,-573.8"/>
<text text-anchor="start" x="414.88" y="-586" font-family="Arial" font-size="14.00">subdomain_key </text>
<text text-anchor="start" x="516.83" y="-586" font-family="Arial" font-size="14.00" fill="#666666">[text]</text>
<polygon fill="none" stroke="black" points="407.88,-543 407.88,-573.8 770.77,-573.8 770.77,-543 407.88,-543"/>
<text text-anchor="start" x="414.88" y="-555.2" font-family="Arial" font-size="14.00">is_complete </text>
<text text-anchor="start" x="493.47" y="-555.2" font-family="Arial" font-size="14.00" fill="#666666">[boolean]</text>
<polygon fill="none" stroke="black" points="407.88,-512.2 407.88,-543 770.77,-543 770.77,-512.2 407.88,-512.2"/>
<text text-anchor="start" x="414.88" y="-524.4" font-family="Arial" font-size="14.00">is_static </text>
<text text-anchor="start" x="469.34" y="-524.4" font-family="Arial" font-size="14.00" fill="#666666">[boolean]</text>
<polygon fill="none" stroke="black" points="407.88,-481.4 407.88,-512.2 770.77,-512.2 770.77,-481.4 407.88,-481.4"/>
<text text-anchor="start" x="414.88" y="-493.6" font-family="Arial" font-size="14.00">details </text>
<text text-anchor="start" x="459.24" y="-493.6" font-family="Arial" font-size="14.00" fill="#666666">[text]</text>
<polygon fill="none" stroke="black" points="407.88,-450.6 407.88,-481.4 770.77,-481.4 770.77,-450.6 407.88,-450.6"/>
<text text-anchor="start" x="414.88" y="-462.8" font-family="Arial" font-size="14.00">unfinished_notes </text>
<text text-anchor="start" x="524.63" y="-462.8" font-family="Arial" font-size="14.00" fill="#666666">[text]</text>
<polygon fill="none" stroke="black" points="407.88,-419.8 407.88,-450.6 770.77,-450.6 770.77,-419.8 407.88,-419.8"/>
<text text-anchor="start" x="414.88" y="-432" font-family="Arial" font-size="14.00">uml_comment </text>
<text text-anchor="start" x="506.69" y="-432" font-family="Arial" font-size="14.00" fill="#666666">[text]</text>
<polygon fill="none" stroke="black" stroke-width="3" points="406.38,-418.3 406.38,-734.1 772.27,-734.1 772.27,-418.3 406.38,-418.3"/>
</g>
<!-- public.model -->
<g id="node2" class="node">
<title>public.model</title>
<polygon fill="#efefef" stroke="none" points="295.84,-212.6 295.84,-248.2 528.81,-248.2 528.81,-212.6 295.84,-212.6"/>
<polygon fill="none" stroke="black" points="295.84,-212.6 295.84,-248.2 528.81,-248.2 528.81,-212.6 295.84,-212.6"/>
<text text-anchor="start" x="302.84" y="-226" font-family="Arial Bold" font-size="18.00">public.model</text>
<text text-anchor="start" x="397.32" y="-226" font-family="Arial" font-size="14.00">    </text>
<text text-anchor="start" x="428.44" y="-226" font-family="Arial" font-size="14.00" fill="#666666">[BASE TABLE]</text>
<polygon fill="none" stroke="black" points="295.84,-181.8 295.84,-212.6 528.81,-212.6 528.81,-181.8 295.84,-181.8"/>
<text text-anchor="start" x="302.84" y="-194" font-family="Arial" font-size="14.00">model_key </text>
<text text-anchor="start" x="374.43" y="-194" font-family="Arial" font-size="14.00" fill="#666666">[text]</text>
<polygon fill="none" stroke="black" points="295.84,-151 295.84,-181.8 528.81,-181.8 528.81,-151 295.84,-151"/>
<text text-anchor="start" x="302.84" y="-163.2" font-family="Arial" font-size="14.00">name </text>
<text text-anchor="start" x="341.75" y="-163.2" font-family="Arial" font-size="14.00" fill="#666666">[text]</text>
<polygon fill="none" stroke="black" points="295.84,-120.2 295.84,-151 528.81,-151 528.81,-120.2 295.84,-120.2"/>
<text text-anchor="start" x="302.84" y="-132.4" font-family="Arial" font-size="14.00">details </text>
<text text-anchor="start" x="347.2" y="-132.4" font-family="Arial" font-size="14.00" fill="#666666">[text]</text>
<polygon fill="none" stroke="black" points="295.84,-89.4 295.84,-120.2 528.81,-120.2 528.81,-89.4 295.84,-89.4"/>
<text text-anchor="start" x="302.84" y="-101.6" font-family="Arial" font-size="14.00">unfinished_notes </text>
<text text-anchor="start" x="412.59" y="-101.6" font-family="Arial" font-size="14.00" fill="#666666">[text]</text>
</g>
<!-- public.use_case_generalization&#45;&gt;public.model -->
<g id="edge1" class="edge">
<title>public.use_case_generalization:model_key&#45;&gt;public.model:model_key</title>
<path fill="none" stroke="black" d="M396.49,-681.21C273.87,-671.78 345.33,-491.29 407.88,-373.6 438.38,-316.21 498.1,-348.67 528.81,-291.4 548.6,-254.5 571.68,-197.2 529.81,-197.2"/>
<polygon fill="black" stroke="black" points="396.55,-681.22 406.38,-686.08 401.88,-681.41 406.21,-681.58 406.21,-681.58 406.21,-681.58 401.88,-681.41 406.71,-677.09 396.55,-681.22"/>
<text text-anchor="start" x="7" y="-691.6" font-family="Arial" font-size="10.00">FOREIGN KEY (model_key) REFERENCES model(model_key) ON DELETE CASCADE</text>
</g>
<!-- public.subdomain -->
<g id="node3" class="node">
<title>public.subdomain</title>
<polygon fill="#efefef" stroke="none" points="632.84,-258.8 632.84,-294.4 899.81,-294.4 899.81,-258.8 632.84,-258.8"/>
<polygon fill="none" stroke="black" points="632.84,-258.8 632.84,-294.4 899.81,-294.4 899.81,-258.8 632.84,-258.8"/>
<text text-anchor="start" x="639.84" y="-272.2" font-family="Arial Bold" font-size="18.00">public.subdomain</text>
<text text-anchor="start" x="768.33" y="-272.2" font-family="Arial" font-size="14.00">    </text>
<text text-anchor="start" x="799.44" y="-272.2" font-family="Arial" font-size="14.00" fill="#666666">[BASE TABLE]</text>
<polygon fill="none" stroke="black" points="632.84,-228 632.84,-258.8 899.81,-258.8 899.81,-228 632.84,-228"/>
<text text-anchor="start" x="639.84" y="-240.2" font-family="Arial" font-size="14.00">subdomain_key </text>
<text text-anchor="start" x="741.79" y="-240.2" font-family="Arial" font-size="14.00" fill="#666666">[text]</text>
<polygon fill="none" stroke="black" points="632.84,-197.2 632.84,-228 899.81,-228 899.81,-197.2 632.84,-197.2"/>
<text text-anchor="start" x="639.84" y="-209.4" font-family="Arial" font-size="14.00">model_key </text>
<text text-anchor="start" x="711.43" y="-209.4" font-family="Arial" font-size="14.00" fill="#666666">[text]</text>
<polygon fill="none" stroke="black" points="632.84,-166.4 632.84,-197.2 899.81,-197.2 899.81,-166.4 632.84,-166.4"/>
<text text-anchor="start" x="639.84" y="-178.6" font-family="Arial" font-size="14.00">domain_key </text>
<text text-anchor="start" x="719.22" y="-178.6" font-family="Arial" font-size="14.00" fill="#666666">[text]</text>
<polygon fill="none" stroke="black" points="632.84,-135.6 632.84,-166.4 899.81,-166.4 899.81,-135.6 632.84,-135.6"/>
<text text-anchor="start" x="639.84" y="-147.8" font-family="Arial" font-size="14.00">name </text>
<text text-anchor="start" x="678.75" y="-147.8" font-family="Arial" font-size="14.00" fill="#666666">[text]</text>
<polygon fill="none" stroke="black" points="632.84,-104.8 632.84,-135.6 899.81,-135.6 899.81,-104.8 632.84,-104.8"/>
<text text-anchor="start" x="639.84" y="-117" font-family="Arial" font-size="14.00">details </text>
<text text-anchor="start" x="684.2" y="-117" font-family="Arial" font-size="14.00" fill="#666666">[text]</text>
<polygon fill="none" stroke="black" points="632.84,-74 632.84,-104.8 899.81,-104.8 899.81,-74 632.84,-74"/>
<text text-anchor="start" x="639.84" y="-86.2" font-family="Arial" font-size="14.00">unfinished_notes </text>
<text text-anchor="start" x="749.59" y="-86.2" font-family="Arial" font-size="14.00" fill="#666666">[text]</text>
<polygon fill="none" stroke="black" points="632.84,-43.2 632.84,-74 899.81,-74 899.81,-43.2 632.84,-43.2"/>
<text text-anchor="start" x="639.84" y="-55.4" font-family="Arial" font-size="14.00">uml_comment </text>
<text text-anchor="start" x="731.65" y="-55.4" font-family="Arial" font-size="14.00" fill="#666666">[text]</text>
</g>
<!-- public.use_case_generalization&#45;&gt;public.subdomain -->
<g id="edge2" class="edge">
<title>public.use_case_generalization:model_key&#45;&gt;public.subdomain:model_key</title>
<path fill="none" stroke="black" d="M782.21,-681.19C905.79,-671.13 852.42,-478.94 770.77,-373.6 731.96,-323.52 671.77,-387.58 632.84,-337.6 598.7,-293.77 576.28,-212.6 631.84,-212.6"/>
<polygon fill="black" stroke="black" points="782.1,-681.19 771.93,-677.09 776.77,-681.4 772.44,-681.57 772.44,-681.57 772.44,-681.57 776.77,-681.4 772.28,-686.08 782.1,-681.19"/>
<text text-anchor="start" x="778.77" y="-691.6" font-family="Arial" font-size="10.00">FOREIGN KEY (model_key, subdomain_key) REFERENCES subdomain(model_key, subdomain_key) ON DELETE CASCADE</text>
</g>
<!-- public.use_case -->
<g id="node4" class="node">
<title>public.use_case</title>
<polygon fill="#efefef" stroke="none" points="463.35,-1196.8 463.35,-1232.4 715.3,-1232.4 715.3,-1196.8 463.35,-1196.8"/>
<polygon fill="none" stroke="black" points="463.35,-1196.8 463.35,-1232.4 715.3,-1232.4 715.3,-1196.8 463.35,-1196.8"/>
<text text-anchor="start" x="470.35" y="-1210.2" font-family="Arial Bold" font-size="18.00">public.use_case</text>
<text text-anchor="start" x="583.81" y="-1210.2" font-family="Arial" font-size="14.00">    </text>
<text text-anchor="start" x="614.93" y="-1210.2" font-family="Arial" font-size="14.00" fill="#666666">[BASE TABLE]</text>
<polygon fill="none" stroke="black" points="463.35,-1166 463.35,-1196.8 715.3,-1196.8 715.3,-1166 463.35,-1166"/>
<text text-anchor="start" x="470.35" y="-1178.2" font-family="Arial" font-size="14.00">model_key </text>
<text text-anchor="start" x="541.95" y="-1178.2" font-family="Arial" font-size="14.00" fill="#666666">[text]</text>
<polygon fill="none" stroke="black" points="463.35,-1135.2 463.35,-1166 715.3,-1166 715.3,-1135.2 463.35,-1135.2"/>
<text text-anchor="start" x="470.35" y="-1147.4" font-family="Arial" font-size="14.00">use_case_key </text>
<text text-anchor="start" x="563.75" y="-1147.4" font-family="Arial" font-size="14.00" fill="#666666">[text]</text>
<polygon fill="none" stroke="black" points="463.35,-1104.4 463.35,-1135.2 715.3,-1135.2 715.3,-1104.4 463.35,-1104.4"/>
<text text-anchor="start" x="470.35" y="-1116.6" font-family="Arial" font-size="14.00">name </text>
<text text-anchor="start" x="509.26" y="-1116.6" font-family="Arial" font-size="14.00" fill="#666666">[text]</text>
<polygon fill="none" stroke="black" points="463.35,-1073.6 463.35,-1104.4 715.3,-1104.4 715.3,-1073.6 463.35,-1073.6"/>
<text text-anchor="start" x="470.35" y="-1085.8" font-family="Arial" font-size="14.00">details </text>
<text text-anchor="start" x="514.71" y="-1085.8" font-family="Arial" font-size="14.00" fill="#666666">[text]</text>
<polygon fill="none" stroke="black" points="463.35,-1042.8 463.35,-1073.6 715.3,-1073.6 715.3,-1042.8 463.35,-1042.8"/>
<text text-anchor="start" x="470.35" y="-1055" font-family="Arial" font-size="14.00">unfinished_notes </text>
<text text-anchor="start" x="580.1" y="-1055" font-family="Arial" font-size="14.00" fill="#666666">[text]</text>
<polygon fill="none" stroke="black" points="463.35,-1012 463.35,-1042.8 715.3,-1042.8 715.3,-1012 463.35,-1012"/>
<text text-anchor="start" x="470.35" y="-1024.2" font-family="Arial" font-size="14.00">level </text>
<text text-anchor="start" x="503.04" y="-1024.2" font-family="Arial" font-size="14.00" fill="#666666">[use_case_level]</text>
<polygon fill="none" stroke="black" points="463.35,-981.2 463.35,-1012 715.3,-1012 715.3,-981.2 463.35,-981.2"/>
<text text-anchor="start" x="470.35" y="-993.4" font-family="Arial" font-size="14.00">read_only </text>
<text text-anchor="start" x="535.73" y="-993.4" font-family="Arial" font-size="14.00" fill="#666666">[boolean]</text>
<polygon fill="none" stroke="black" points="463.35,-950.4 463.35,-981.2 715.3,-981.2 715.3,-950.4 463.35,-950.4"/>
<text text-anchor="start" x="470.35" y="-962.6" font-family="Arial" font-size="14.00">subdomain_key </text>
<text text-anchor="start" x="572.3" y="-962.6" font-family="Arial" font-size="14.00" fill="#666666">[text]</text>
<polygon fill="none" stroke="black" points="463.35,-919.6 463.35,-950.4 715.3,-950.4 715.3,-919.6 463.35,-919.6"/>
<text text-anchor="start" x="470.35" y="-931.8" font-family="Arial" font-size="14.00">superclass_of_key </text>
<text text-anchor="start" x="590.19" y="-931.8" font-family="Arial" font-size="14.00" fill="#666666">[text]</text>
<polygon fill="none" stroke="black" points="463.35,-888.8 463.35,-919.6 715.3,-919.6 715.3,-888.8 463.35,-888.8"/>
<text text-anchor="start" x="470.35" y="-901" font-family="Arial" font-size="14.00">subclass_of_key </text>
<text text-anchor="start" x="577.75" y="-901" font-family="Arial" font-size="14.00" fill="#666666">[text]</text>
<polygon fill="none" stroke="black" points="463.35,-858 463.35,-888.8 715.3,-888.8 715.3,-858 463.35,-858"/>
<text text-anchor="start" x="470.35" y="-870.2" font-family="Arial" font-size="14.00">uml_comment </text>
<text text-anchor="start" x="562.16" y="-870.2" font-family="Arial" font-size="14.00" fill="#666666">[text]</text>
</g>
<!-- public.use_case&#45;&gt;public.use_case_generalization -->
<g id="edge3" class="edge">
<title>public.use_case:model_key&#45;&gt;public.use_case_generalization:model_key</title>
<path fill="none" stroke="black" d="M726.54,-1181.01C932.52,-1165.42 982.81,-681.6 771.77,-681.6"/>
<polygon fill="black" stroke="black" points="726.63,-1181.01 716.47,-1176.89 721.3,-1181.21 716.97,-1181.37 716.97,-1181.37 716.97,-1181.37 721.3,-1181.21 716.8,-1185.88 726.63,-1181.01"/>
<text text-anchor="start" x="723.3" y="-1191.4" font-family="Arial" font-size="10.00">FOREIGN KEY (model_key, subclass_of_key) REFERENCES use_case_generalization(model_key, generalization_key) ON DELETE CASCADE</text>
</g>
<!-- public.use_case&#45;&gt;public.use_case_generalization -->
<g id="edge4" class="edge">
<title>public.use_case:model_key&#45;&gt;public.use_case_generalization:model_key</title>
<path fill="none" stroke="black" d="M727.06,-1181.04C950.35,-1165.93 1000.59,-682.08 772.11,-681.6"/>
<polygon fill="black" stroke="black" points="726.97,-1181.04 716.82,-1176.89 721.64,-1181.23 717.31,-1181.38 717.31,-1181.38 717.31,-1181.38 721.64,-1181.23 717.13,-1185.89 726.97,-1181.04"/>
<text text-anchor="start" x="723.64" y="-1165.4" font-family="Arial" font-size="10.00">FOREIGN KEY (model_key, superclass_of_key) REFERENCES use_case_generalization(model_key, generalization_key) ON DELETE CASCADE</text>
</g>
</g>
</svg>
