<?xml version="1.0" encoding="UTF-8" standalone="no"?>
<!DOCTYPE svg PUBLIC "-//W3C//DTD SVG 1.1//EN"
 "http://www.w3.org/Graphics/SVG/1.1/DTD/svg11.dtd">
<!-- Generated by graphviz version 12.1.2 (20240928.0832)
 -->
<!-- Title: public.action_parameter_simulation_require Pages: 1 -->
<svg width="1671pt" height="756pt"
 viewBox="0.00 0.00 1671.29 756.00" xmlns="http://www.w3.org/2000/svg" xmlns:xlink="http://www.w3.org/1999/xlink">
<g id="graph0" class="graph" transform="scale(1 1) rotate(0) translate(4 752)">
<title>public.action_parameter_simulation_require</title>
<polygon fill="white" stroke="none" points="-4,4 -4,-752 1667.29,-752 1667.29,4 -4,4"/>
<!-- public.action_parameter_simulation_require -->
<g id="node1" class="node">
<title>public.action_parameter_simulation_require</title>
<polygon fill="#efefef" stroke="none" points="495.7,-666.2 495.7,-701.8 953.58,-701.8 953.58,-666.2 495.7,-666.2"/>
<polygon fill="none" stroke="black" points="495.7,-666.2 495.7,-701.8 953.58,-701.8 953.58,-666.2 495.7,-666.2"/>
<text text-anchor="start" x="502.7" y="-679.6" font-family="Arial Bold" font-size="18.00">public.action_parameter_simulation_require</text>
<text text-anchor="start" x="822.09" y="-679.6" font-family="Arial" font-size="14.00">    </text>
<text text-anchor="start" x="853.21" y="-679.6" font-family="Arial" font-size="14.00" fill="#666666">[BASE TABLE]</text>
<polygon fill="none" stroke="black" points="495.7,-635.4 495.7,-666.2 953.58,-666.2 953.58,-635.4 495.7,-635.4"/>
<text text-anchor="start" x="502.7" y="-647.6" font-family="Arial" font-size="14.00">model_key </text>
<text text-anchor="start" x="574.3" y="-647.6" font-family="Arial" font-size="14.00" fill="#666666">[text]</text>
<polygon fill="none" stroke="black" points="495.7,-604.6 495.7,-635.4 953.58,-635.4 953.58,-604.6 495.7,-604.6"/>
<text text-anchor="start" x="502.7" y="-616.8" font-family="Arial" font-size="14.00">action_key </text>
<text text-anchor="start" x="573.52" y="-616.8" font-family="Arial" font-size="14.00" fill="#666666">[text]</text>
<polygon fill="none" stroke="black" points="495.7,-573.8 495.7,-604.6 953.58,-604.6 953.58,-573.8 495.7,-573.8"/>
<text text-anchor="start" x="502.7" y="-586" font-family="Arial" font-size="14.00">parameter_key </text>
<text text-anchor="start" x="599.97" y="-586" font-family="Arial" font-size="14.00" fill="#666666">[text]</text>
<polygon fill="none" stroke="black" points="495.7,-543 495.7,-573.8 953.58,-573.8 953.58,-543 495.7,-543"/>
<text text-anchor="start" x="502.7" y="-555.2" font-family="Arial" font-size="14.00">logic_key </text>
<text text-anchor="start" x="564.96" y="-555.2" font-family="Arial" font-size="14.00" fill="#666666">[text]</text>
<polygon fill="none" stroke="black" stroke-width="3" points="494.2,-541.5 494.2,-703.3 955.08,-703.3 955.08,-541.5 494.2,-541.5"/>
</g>
<!-- public.logic -->
<g id="node2" class="node">
<title>public.logic</title>
<polygon fill="#efefef" stroke="none" points="426.65,-382 426.65,-417.6 650.63,-417.6 650.63,-382 426.65,-382"/>
<polygon fill="none" stroke="black" points="426.65,-382 426.65,-417.6 650.63,-417.6 650.63,-382 426.65,-382"/>
<text text-anchor="start" x="433.65" y="-395.4" font-family="Arial Bold" font-size="18.00">public.logic</text>
<text text-anchor="start" x="519.14" y="-395.4" font-family="Arial" font-size="14.00">    </text>
<text text-anchor="start" x="550.25" y="-395.4" font-family="Arial" font-size="14.00" fill="#666666">[BASE TABLE]</text>
<polygon fill="none" stroke="black" points="426.65,-351.2 426.65,-382 650.63,-382 650.63,-351.2 426.65,-351.2"/>
<text text-anchor="start" x="433.65" y="-363.4" font-family="Arial" font-size="14.00">logic_key </text>
<text text-anchor="start" x="495.91" y="-363.4" font-family="Arial" font-size="14.00" fill="#666666">[text]</text>
<polygon fill="none" stroke="black" points="426.65,-320.4 426.65,-351.2 650.63,-351.2 650.63,-320.4 426.65,-320.4"/>
<text text-anchor="start" x="433.65" y="-332.6" font-family="Arial" font-size="14.00">model_key </text>
<text text-anchor="start" x="505.25" y="-332.6" font-family="Arial" font-size="14.00" fill="#666666">[text]</text>
<polygon fill="none" stroke="black" points="426.65,-289.6 426.65,-320.4 650.63,-320.4 650.63,-289.6 426.65,-289.6"/>
<text text-anchor="start" x="433.65" y="-301.8" font-family="Arial" font-size="14.00">sort_order </text>
<text text-anchor="start" x="501.35" y="-301.8" font-family="Arial" font-size="14.00" fill="#666666">[integer]</text>
<polygon fill="none" stroke="black" points="426.65,-258.8 426.65,-289.6 650.63,-289.6 650.63,-258.8 426.65,-258.8"/>
<text text-anchor="start" x="433.65" y="-271" font-family="Arial" font-size="14.00">logic_type </text>
<text text-anchor="start" x="500.59" y="-271" font-family="Arial" font-size="14.00" fill="#666666">[logic_type]</text>
<polygon fill="none" stroke="black" points="426.65,-228 426.65,-258.8 650.63,-258.8 650.63,-228 426.65,-228"/>
<text text-anchor="start" x="433.65" y="-240.2" font-family="Arial" font-size="14.00">description </text>
<text text-anchor="start" x="505.25" y="-240.2" font-family="Arial" font-size="14.00" fill="#666666">[text]</text>
<polygon fill="none" stroke="black" points="426.65,-197.2 426.65,-228 650.63,-228 650.63,-197.2 426.65,-197.2"/>
<text text-anchor="start" x="433.65" y="-209.4" font-family="Arial" font-size="14.00">target </text>
<text text-anchor="start" x="473.34" y="-209.4" font-family="Arial" font-size="14.00" fill="#666666">[text]</text>
<polygon fill="none" stroke="black" points="426.65,-166.4 426.65,-197.2 650.63,-197.2 650.63,-166.4 426.65,-166.4"/>
<text text-anchor="start" x="433.65" y="-178.6" font-family="Arial" font-size="14.00">notation </text>
<text text-anchor="start" x="487.36" y="-178.6" font-family="Arial" font-size="14.00" fill="#666666">[notation]</text>
<polygon fill="none" stroke="black" points="426.65,-135.6 426.65,-166.4 650.63,-166.4 650.63,-135.6 426.65,-135.6"/>
<text text-anchor="start" x="433.65" y="-147.8" font-family="Arial" font-size="14.00">specification </text>
<text text-anchor="start" x="514.59" y="-147.8" font-family="Arial" font-size="14.00" fill="#666666">[text]</text>
<polygon fill="none" stroke="black" points="426.65,-104.8 426.65,-135.6 650.63,-135.6 650.63,-104.8 426.65,-104.8"/>
<text text-anchor="start" x="433.65" y="-117" font-family="Arial" font-size="14.00">target_type_notation </text>
<text text-anchor="start" x="565.2" y="-117" font-family="Arial" font-size="14.00" fill="#666666">[notation]</text>
<polygon fill="none" stroke="black" points="426.65,-74 426.65,-104.8 650.63,-104.8 650.63,-74 426.65,-74"/>
<text text-anchor="start" x="433.65" y="-86.2" font-family="Arial" font-size="14.00">target_type_specification </text>
<text text-anchor="start" x="592.42" y="-86.2" font-family="Arial" font-size="14.00" fill="#666666">[text]</text>
<polygon fill="none" stroke="black" points="426.65,-43.2 426.65,-74 650.63,-74 650.63,-43.2 426.65,-43.2"/>
<text text-anchor="start" x="433.65" y="-55.4" font-family="Arial" font-size="14.00">destroy_event_specification </text>
<text text-anchor="start" x="610.32" y="-55.4" font-family="Arial" font-size="14.00" fill="#666666">[text]</text>
</g>
<!-- public.action_parameter_simulation_require&#45;&gt;public.logic -->
<g id="edge1" class="edge">
<title>public.action_parameter_simulation_require:model_key&#45;&gt;public.logic:model_key</title>
<path fill="none" stroke="black" d="M484.31,-649.92C429.23,-639.94 455.3,-547.33 495.7,-496.8 539.85,-441.59 606.44,-515.98 650.63,-460.8 685.35,-417.43 707.18,-335.8 651.63,-335.8"/>
<polygon fill="black" stroke="black" points="484.41,-649.93 493.99,-655.26 489.72,-650.38 494.04,-650.74 494.04,-650.74 494.04,-650.74 489.72,-650.38 494.75,-646.29 484.41,-649.93"/>
<text text-anchor="start" x="7" y="-660.8" font-family="Arial" font-size="10.00">FOREIGN KEY (model_key, logic_key) REFERENCES logic(model_key, logic_key) ON DELETE CASCADE</text>
</g>
<!-- public.action_parameter -->
<g id="node3" class="node">
<title>public.action_parameter</title>
<polygon fill="#efefef" stroke="none" points="755.19,-335.8 755.19,-371.4 1068.09,-371.4 1068.09,-335.8 755.19,-335.8"/>
<polygon fill="none" stroke="black" points="755.19,-335.8 755.19,-371.4 1068.09,-371.4 1068.09,-335.8 755.19,-335.8"/>
<text text-anchor="start" x="762.19" y="-349.2" font-family="Arial Bold" font-size="18.00">public.action_parameter</text>
<text text-anchor="start" x="936.61" y="-349.2" font-family="Arial" font-size="14.00">    </text>
<text text-anchor="start" x="967.72" y="-349.2" font-family="Arial" font-size="14.00" fill="#666666">[BASE TABLE]</text>
<polygon fill="none" stroke="black" points="755.19,-305 755.19,-335.8 1068.09,-335.8 1068.09,-305 755.19,-305"/>
<text text-anchor="start" x="762.19" y="-317.2" font-family="Arial" font-size="14.00">model_key </text>
<text text-anchor="start" x="833.78" y="-317.2" font-family="Arial" font-size="14.00" fill="#666666">[text]</text>
<polygon fill="none" stroke="black" points="755.19,-274.2 755.19,-305 1068.09,-305 1068.09,-274.2 755.19,-274.2"/>
<text text-anchor="start" x="762.19" y="-286.4" font-family="Arial" font-size="14.00">action_key </text>
<text text-anchor="start" x="833.01" y="-286.4" font-family="Arial" font-size="14.00" fill="#666666">[text]</text>
<polygon fill="none" stroke="black" points="755.19,-243.4 755.19,-274.2 1068.09,-274.2 1068.09,-243.4 755.19,-243.4"/>
<text text-anchor="start" x="762.19" y="-255.6" font-family="Arial" font-size="14.00">parameter_key </text>
<text text-anchor="start" x="859.46" y="-255.6" font-family="Arial" font-size="14.00" fill="#666666">[text]</text>
<polygon fill="none" stroke="black" points="755.19,-212.6 755.19,-243.4 1068.09,-243.4 1068.09,-212.6 755.19,-212.6"/>
<text text-anchor="start" x="762.19" y="-224.8" font-family="Arial" font-size="14.00">name </text>
<text text-anchor="start" x="801.1" y="-224.8" font-family="Arial" font-size="14.00" fill="#666666">[text]</text>
<polygon fill="none" stroke="black" points="755.19,-181.8 755.19,-212.6 1068.09,-212.6 1068.09,-181.8 755.19,-181.8"/>
<text text-anchor="start" x="762.19" y="-194" font-family="Arial" font-size="14.00">sort_order </text>
<text text-anchor="start" x="829.88" y="-194" font-family="Arial" font-size="14.00" fill="#666666">[integer]</text>
<polygon fill="none" stroke="black" points="755.19,-151 755.19,-181.8 1068.09,-181.8 1068.09,-151 755.19,-151"/>
<text text-anchor="start" x="762.19" y="-163.2" font-family="Arial" font-size="14.00">data_type_rules </text>
<text text-anchor="start" x="865.7" y="-163.2" font-family="Arial" font-size="14.00" fill="#666666">[text]</text>
<polygon fill="none" stroke="black" points="755.19,-120.2 755.19,-151 1068.09,-151 1068.09,-120.2 755.19,-120.2"/>
<text text-anchor="start" x="762.19" y="-132.4" font-family="Arial" font-size="14.00">data_type_key </text>
<text text-anchor="start" x="857.14" y="-132.4" font-family="Arial" font-size="14.00" fill="#666666">[text]</text>
<polygon fill="none" stroke="black" points="755.19,-89.4 755.19,-120.2 1068.09,-120.2 1068.09,-89.4 755.19,-89.4"/>
<text text-anchor="start" x="762.19" y="-101.6" font-family="Arial" font-size="14.00">nullable </text>
<text text-anchor="start" x="814.34" y="-101.6" font-family="Arial" font-size="14.00" fill="#666666">[boolean]</text>
</g>
<!-- public.action_parameter_simulation_require&#45;&gt;public.action_parameter -->
<g id="edge2" class="edge">
<title>public.action_parameter_simulation_require:model_key&#45;&gt;public.action_parameter:model_key</title>
<path fill="none" stroke="black" d="M964.93,-649.95C1019.59,-640.29 989.7,-550.48 953.58,-496.8 900.3,-417.61 808.63,-493.68 755.19,-414.6 731.74,-379.91 712.32,-320.4 754.19,-320.4"/>
<polygon fill="black" stroke="black" points="964.88,-649.95 954.54,-646.29 959.56,-650.39 955.24,-650.75 955.24,-650.75 955.24,-650.75 959.56,-650.39 955.28,-655.26 964.88,-649.95"/>
<text text-anchor="start" x="961.58" y="-660.8" font-family="Arial" font-size="10.00">FOREIGN KEY (model_key, action_key, parameter_key) REFERENCES action_parameter(model_key, action_key, parameter_key) ON DELETE CASCADE</text>
</g>
</g>
</svg>
