<?xml version="1.0" encoding="UTF-8" standalone="no"?>
<!DOCTYPE svg PUBLIC "-//W3C//DTD SVG 1.1//EN"
 "http://www.w3.org/Graphics/SVG/1.1/DTD/svg11.dtd">
<!-- Generated by graphviz version 12.1.2 (20240928.0832)
 -->
<!-- Title: public.parameter Pages: 1 -->
<svg width="828pt" height="725pt"
 viewBox="0.00 0.00 828.19 725.20" xmlns="http://www.w3.org/2000/svg" xmlns:xlink="http://www.w3.org/1999/xlink">
<g id="graph0" class="graph" transform="scale(1 1) rotate(0) translate(4 721.2)">
<title>public.parameter</title>
<polygon fill="white" stroke="none" points="-4,4 -4,-721.2 824.19,-721.2 824.19,4 -4,4"/>
<!-- public.parameter -->
<g id="node1" class="node">
<title>public.parameter</title>
<polygon fill="#efefef" stroke="none" points="46.2,-635.4 46.2,-671 306.13,-671 306.13,-635.4 46.2,-635.4"/>
<polygon fill="none" stroke="black" points="46.2,-635.4 46.2,-671 306.13,-671 306.13,-635.4 46.2,-635.4"/>
<text text-anchor="start" x="53.2" y="-648.8" font-family="Arial Bold" font-size="18.00">public.parameter</text>
<text text-anchor="start" x="174.64" y="-648.8" font-family="Arial" font-size="14.00">    </text>
<text text-anchor="start" x="205.76" y="-648.8" font-family="Arial" font-size="14.00" fill="#666666">[BASE TABLE]</text>
<polygon fill="none" stroke="black" points="46.2,-604.6 46.2,-635.4 306.13,-635.4 306.13,-604.6 46.2,-604.6"/>
<text text-anchor="start" x="53.2" y="-616.8" font-family="Arial" font-size="14.00">model_key </text>
<text text-anchor="start" x="124.79" y="-616.8" font-family="Arial" font-size="14.00" fill="#666666">[text]</text>
<polygon fill="none" stroke="black" points="46.2,-573.8 46.2,-604.6 306.13,-604.6 306.13,-573.8 46.2,-573.8"/>
<text text-anchor="start" x="53.2" y="-586" font-family="Arial" font-size="14.00">parameter_key </text>
<text text-anchor="start" x="150.47" y="-586" font-family="Arial" font-size="14.00" fill="#666666">[text]</text>
<polygon fill="none" stroke="black" points="46.2,-543 46.2,-573.8 306.13,-573.8 306.13,-543 46.2,-543"/>
<text text-anchor="start" x="53.2" y="-555.2" font-family="Arial" font-size="14.00">action_key </text>
<text text-anchor="start" x="124.02" y="-555.2" font-family="Arial" font-size="14.00" fill="#666666">[text]</text>
<polygon fill="none" stroke="black" points="46.2,-512.2 46.2,-543 306.13,-543 306.13,-512.2 46.2,-512.2"/>
<text text-anchor="start" x="53.2" y="-524.4" font-family="Arial" font-size="14.00">data_type_rules </text>
<text text-anchor="start" x="156.72" y="-524.4" font-family="Arial" font-size="14.00" fill="#666666">[text]</text>
<polygon fill="none" stroke="black" points="46.2,-481.4 46.2,-512.2 306.13,-512.2 306.13,-481.4 46.2,-481.4"/>
<text text-anchor="start" x="53.2" y="-493.6" font-family="Arial" font-size="14.00">name </text>
<text text-anchor="start" x="92.11" y="-493.6" font-family="Arial" font-size="14.00" fill="#666666">[text]</text>
<polygon fill="none" stroke="black" points="46.2,-450.6 46.2,-481.4 306.13,-481.4 306.13,-450.6 46.2,-450.6"/>
<text text-anchor="start" x="53.2" y="-462.8" font-family="Arial" font-size="14.00">details </text>
<text text-anchor="start" x="97.56" y="-462.8" font-family="Arial" font-size="14.00" fill="#666666">[text]</text>
<polygon fill="none" stroke="black" points="46.2,-419.8 46.2,-450.6 306.13,-450.6 306.13,-419.8 46.2,-419.8"/>
<text text-anchor="start" x="53.2" y="-432" font-family="Arial" font-size="14.00">uml_comment </text>
<text text-anchor="start" x="145.01" y="-432" font-family="Arial" font-size="14.00" fill="#666666">[text]</text>
<polygon fill="none" stroke="black" stroke-width="3" points="44.7,-418.3 44.7,-672.5 307.63,-672.5 307.63,-418.3 44.7,-418.3"/>
</g>
<!-- public.action -->
<g id="node2" class="node">
<title>public.action</title>
<polygon fill="#efefef" stroke="none" points="60.18,-258.8 60.18,-294.4 292.14,-294.4 292.14,-258.8 60.18,-258.8"/>
<polygon fill="none" stroke="black" points="60.18,-258.8 60.18,-294.4 292.14,-294.4 292.14,-258.8 60.18,-258.8"/>
<text text-anchor="start" x="67.18" y="-272.2" font-family="Arial Bold" font-size="18.00">public.action</text>
<text text-anchor="start" x="160.66" y="-272.2" font-family="Arial" font-size="14.00">    </text>
<text text-anchor="start" x="191.77" y="-272.2" font-family="Arial" font-size="14.00" fill="#666666">[BASE TABLE]</text>
<polygon fill="none" stroke="black" points="60.18,-228 60.18,-258.8 292.14,-258.8 292.14,-228 60.18,-228"/>
<text text-anchor="start" x="67.18" y="-240.2" font-family="Arial" font-size="14.00">model_key </text>
<text text-anchor="start" x="138.78" y="-240.2" font-family="Arial" font-size="14.00" fill="#666666">[text]</text>
<polygon fill="none" stroke="black" points="60.18,-197.2 60.18,-228 292.14,-228 292.14,-197.2 60.18,-197.2"/>
<text text-anchor="start" x="67.18" y="-209.4" font-family="Arial" font-size="14.00">class_key </text>
<text text-anchor="start" x="132.54" y="-209.4" font-family="Arial" font-size="14.00" fill="#666666">[text]</text>
<polygon fill="none" stroke="black" points="60.18,-166.4 60.18,-197.2 292.14,-197.2 292.14,-166.4 60.18,-166.4"/>
<text text-anchor="start" x="67.18" y="-178.6" font-family="Arial" font-size="14.00">action_key </text>
<text text-anchor="start" x="138" y="-178.6" font-family="Arial" font-size="14.00" fill="#666666">[text]</text>
<polygon fill="none" stroke="black" points="60.18,-135.6 60.18,-166.4 292.14,-166.4 292.14,-135.6 60.18,-135.6"/>
<text text-anchor="start" x="67.18" y="-147.8" font-family="Arial" font-size="14.00">name </text>
<text text-anchor="start" x="106.09" y="-147.8" font-family="Arial" font-size="14.00" fill="#666666">[text]</text>
<polygon fill="none" stroke="black" points="60.18,-104.8 60.18,-135.6 292.14,-135.6 292.14,-104.8 60.18,-104.8"/>
<text text-anchor="start" x="67.18" y="-117" font-family="Arial" font-size="14.00">details </text>
<text text-anchor="start" x="111.54" y="-117" font-family="Arial" font-size="14.00" fill="#666666">[text]</text>
<polygon fill="none" stroke="black" points="60.18,-74 60.18,-104.8 292.14,-104.8 292.14,-74 60.18,-74"/>
<text text-anchor="start" x="67.18" y="-86.2" font-family="Arial" font-size="14.00">requires </text>
<text text-anchor="start" x="121.65" y="-86.2" font-family="Arial" font-size="14.00" fill="#666666">[text[]]</text>
<polygon fill="none" stroke="black" points="60.18,-43.2 60.18,-74 292.14,-74 292.14,-43.2 60.18,-43.2"/>
<text text-anchor="start" x="67.18" y="-55.4" font-family="Arial" font-size="14.00">guarantees </text>
<text text-anchor="start" x="141.13" y="-55.4" font-family="Arial" font-size="14.00" fill="#666666">[text[]]</text>
</g>
<!-- public.parameter&#45;&gt;public.action -->
<g id="edge1" class="edge">
<title>public.parameter:model_key&#45;&gt;public.action:model_key</title>
<path fill="none" stroke="black" d="M316.94,-618.15C389.61,-589.74 373.46,-243.4 293.14,-243.4"/>
<polygon fill="black" stroke="black" points="317.28,-618.09 306.62,-615.52 312.04,-619.07 307.79,-619.88 307.79,-619.88 307.79,-619.88 312.04,-619.07 308.29,-624.36 317.28,-618.09"/>
<text text-anchor="start" x="314.13" y="-630" font-family="Arial" font-size="10.00">FOREIGN KEY (model_key, action_key) REFERENCES action(model_key, action_key) ON DELETE CASCADE</text>
</g>
</g>
</svg>
