<?xml version="1.0" encoding="UTF-8" standalone="no"?>
<!DOCTYPE svg PUBLIC "-//W3C//DTD SVG 1.1//EN"
 "http://www.w3.org/Graphics/SVG/1.1/DTD/svg11.dtd">
<!-- Generated by graphviz version 12.1.2 (20240928.0832)
 -->
<!-- Title: public.data_type_atomic Pages: 1 -->
<svg width="1369pt" height="1130pt"
 viewBox="0.00 0.00 1369.09 1129.60" xmlns="http://www.w3.org/2000/svg" xmlns:xlink="http://www.w3.org/1999/xlink">
<g id="graph0" class="graph" transform="scale(1 1) rotate(0) translate(4 1125.6)">
<title>public.data_type_atomic</title>
<polygon fill="white" stroke="none" points="-4,4 -4,-1125.6 1365.09,-1125.6 1365.09,4 -4,4"/>
<!-- public.data_type_atomic -->
<g id="node1" class="node">
<title>public.data_type_atomic</title>
<polygon fill="#efefef" stroke="none" points="479.38,-573.8 479.38,-609.4 795.31,-609.4 795.31,-573.8 479.38,-573.8"/>
<polygon fill="none" stroke="black" points="479.38,-573.8 479.38,-609.4 795.31,-609.4 795.31,-573.8 479.38,-573.8"/>
<text text-anchor="start" x="486.38" y="-587.2" font-family="Arial Bold" font-size="18.00">public.data_type_atomic</text>
<text text-anchor="start" x="663.82" y="-587.2" font-family="Arial" font-size="14.00">    </text>
<text text-anchor="start" x="694.94" y="-587.2" font-family="Arial" font-size="14.00" fill="#666666">[BASE TABLE]</text>
<polygon fill="none" stroke="black" points="479.38,-543 479.38,-573.8 795.31,-573.8 795.31,-543 479.38,-543"/>
<text text-anchor="start" x="486.38" y="-555.2" font-family="Arial" font-size="14.00">model_key </text>
<text text-anchor="start" x="557.97" y="-555.2" font-family="Arial" font-size="14.00" fill="#666666">[text]</text>
<polygon fill="none" stroke="black" points="479.38,-512.2 479.38,-543 795.31,-543 795.31,-512.2 479.38,-512.2"/>
<text text-anchor="start" x="486.38" y="-524.4" font-family="Arial" font-size="14.00">data_type_key </text>
<text text-anchor="start" x="581.34" y="-524.4" font-family="Arial" font-size="14.00" fill="#666666">[text]</text>
<polygon fill="none" stroke="black" points="479.38,-481.4 479.38,-512.2 795.31,-512.2 795.31,-481.4 479.38,-481.4"/>
<text text-anchor="start" x="486.38" y="-493.6" font-family="Arial" font-size="14.00">constraint_type </text>
<text text-anchor="start" x="585.21" y="-493.6" font-family="Arial" font-size="14.00" fill="#666666">[constraint_type]</text>
<polygon fill="none" stroke="black" points="479.38,-450.6 479.38,-481.4 795.31,-481.4 795.31,-450.6 479.38,-450.6"/>
<text text-anchor="start" x="486.38" y="-462.8" font-family="Arial" font-size="14.00">reference </text>
<text text-anchor="start" x="549.41" y="-462.8" font-family="Arial" font-size="14.00" fill="#666666">[text]</text>
<polygon fill="none" stroke="black" points="479.38,-419.8 479.38,-450.6 795.31,-450.6 795.31,-419.8 479.38,-419.8"/>
<text text-anchor="start" x="486.38" y="-432" font-family="Arial" font-size="14.00">enum_ordered </text>
<text text-anchor="start" x="581.33" y="-432" font-family="Arial" font-size="14.00" fill="#666666">[boolean]</text>
<polygon fill="none" stroke="black" points="479.38,-389 479.38,-419.8 795.31,-419.8 795.31,-389 479.38,-389"/>
<text text-anchor="start" x="486.38" y="-401.2" font-family="Arial" font-size="14.00">object_class_key </text>
<text text-anchor="start" x="596.88" y="-401.2" font-family="Arial" font-size="14.00" fill="#666666">[text]</text>
<polygon fill="none" stroke="black" stroke-width="3" points="477.88,-387.5 477.88,-610.9 796.81,-610.9 796.81,-387.5 477.88,-387.5"/>
</g>
<!-- public.data_type -->
<g id="node2" class="node">
<title>public.data_type</title>
<polygon fill="#efefef" stroke="none" points="508.37,-228 508.37,-263.6 766.32,-263.6 766.32,-228 508.37,-228"/>
<polygon fill="none" stroke="black" points="508.37,-228 508.37,-263.6 766.32,-263.6 766.32,-228 508.37,-228"/>
<text text-anchor="start" x="515.37" y="-241.4" font-family="Arial Bold" font-size="18.00">public.data_type</text>
<text text-anchor="start" x="634.83" y="-241.4" font-family="Arial" font-size="14.00">    </text>
<text text-anchor="start" x="665.95" y="-241.4" font-family="Arial" font-size="14.00" fill="#666666">[BASE TABLE]</text>
<polygon fill="none" stroke="black" points="508.37,-197.2 508.37,-228 766.32,-228 766.32,-197.2 508.37,-197.2"/>
<text text-anchor="start" x="515.37" y="-209.4" font-family="Arial" font-size="14.00">model_key </text>
<text text-anchor="start" x="586.96" y="-209.4" font-family="Arial" font-size="14.00" fill="#666666">[text]</text>
<polygon fill="none" stroke="black" points="508.37,-166.4 508.37,-197.2 766.32,-197.2 766.32,-166.4 508.37,-166.4"/>
<text text-anchor="start" x="515.37" y="-178.6" font-family="Arial" font-size="14.00">data_type_key </text>
<text text-anchor="start" x="610.33" y="-178.6" font-family="Arial" font-size="14.00" fill="#666666">[text]</text>
<polygon fill="none" stroke="black" points="508.37,-135.6 508.37,-166.4 766.32,-166.4 766.32,-135.6 508.37,-135.6"/>
<text text-anchor="start" x="515.37" y="-147.8" font-family="Arial" font-size="14.00">collection_type </text>
<text text-anchor="start" x="611.87" y="-147.8" font-family="Arial" font-size="14.00" fill="#666666">[collection_type]</text>
<polygon fill="none" stroke="black" points="508.37,-104.8 508.37,-135.6 766.32,-135.6 766.32,-104.8 508.37,-104.8"/>
<text text-anchor="start" x="515.37" y="-117" font-family="Arial" font-size="14.00">collection_unique </text>
<text text-anchor="start" x="627.45" y="-117" font-family="Arial" font-size="14.00" fill="#666666">[boolean]</text>
<polygon fill="none" stroke="black" points="508.37,-74 508.37,-104.8 766.32,-104.8 766.32,-74 508.37,-74"/>
<text text-anchor="start" x="515.37" y="-86.2" font-family="Arial" font-size="14.00">collection_min </text>
<text text-anchor="start" x="607.97" y="-86.2" font-family="Arial" font-size="14.00" fill="#666666">[bigint]</text>
<polygon fill="none" stroke="black" points="508.37,-43.2 508.37,-74 766.32,-74 766.32,-43.2 508.37,-43.2"/>
<text text-anchor="start" x="515.37" y="-55.4" font-family="Arial" font-size="14.00">collection_max </text>
<text text-anchor="start" x="611.86" y="-55.4" font-family="Arial" font-size="14.00" fill="#666666">[bigint]</text>
</g>
<!-- public.data_type_atomic&#45;&gt;public.data_type -->
<g id="edge1" class="edge">
<title>public.data_type_atomic:model_key&#45;&gt;public.data_type:model_key</title>
<path fill="none" stroke="black" d="M806.43,-557.88C949.17,-543.04 918.08,-212.6 767.32,-212.6"/>
<polygon fill="black" stroke="black" points="806.63,-557.87 796.42,-553.89 801.3,-558.15 796.98,-558.37 796.98,-558.37 796.98,-558.37 801.3,-558.15 796.87,-562.88 806.63,-557.87"/>
<text text-anchor="start" x="803.31" y="-568.4" font-family="Arial" font-size="10.00">FOREIGN KEY (model_key, data_type_key) REFERENCES data_type(model_key, data_type_key) ON DELETE CASCADE</text>
</g>
<!-- public.data_type_atomic_enum_value -->
<g id="node3" class="node">
<title>public.data_type_atomic_enum_value</title>
<polygon fill="#efefef" stroke="none" points="185.89,-950.4 185.89,-986 598.8,-986 598.8,-950.4 185.89,-950.4"/>
<polygon fill="none" stroke="black" points="185.89,-950.4 185.89,-986 598.8,-986 598.8,-950.4 185.89,-950.4"/>
<text text-anchor="start" x="192.89" y="-963.8" font-family="Arial Bold" font-size="18.00">public.data_type_atomic_enum_value</text>
<text text-anchor="start" x="467.31" y="-963.8" font-family="Arial" font-size="14.00">    </text>
<text text-anchor="start" x="498.42" y="-963.8" font-family="Arial" font-size="14.00" fill="#666666">[BASE TABLE]</text>
<polygon fill="none" stroke="black" points="185.89,-919.6 185.89,-950.4 598.8,-950.4 598.8,-919.6 185.89,-919.6"/>
<text text-anchor="start" x="192.89" y="-931.8" font-family="Arial" font-size="14.00">model_key </text>
<text text-anchor="start" x="264.49" y="-931.8" font-family="Arial" font-size="14.00" fill="#666666">[text]</text>
<polygon fill="none" stroke="black" points="185.89,-888.8 185.89,-919.6 598.8,-919.6 598.8,-888.8 185.89,-888.8"/>
<text text-anchor="start" x="192.89" y="-901" font-family="Arial" font-size="14.00">data_type_key </text>
<text text-anchor="start" x="287.85" y="-901" font-family="Arial" font-size="14.00" fill="#666666">[text]</text>
<polygon fill="none" stroke="black" points="185.89,-858 185.89,-888.8 598.8,-888.8 598.8,-858 185.89,-858"/>
<text text-anchor="start" x="192.89" y="-870.2" font-family="Arial" font-size="14.00">value </text>
<text text-anchor="start" x="230.25" y="-870.2" font-family="Arial" font-size="14.00" fill="#666666">[text]</text>
<polygon fill="none" stroke="black" points="185.89,-827.2 185.89,-858 598.8,-858 598.8,-827.2 185.89,-827.2"/>
<text text-anchor="start" x="192.89" y="-839.4" font-family="Arial" font-size="14.00">sort_order </text>
<text text-anchor="start" x="260.59" y="-839.4" font-family="Arial" font-size="14.00" fill="#666666">[integer]</text>
</g>
<!-- public.data_type_atomic_enum_value&#45;&gt;public.data_type_atomic -->
<g id="edge2" class="edge">
<title>public.data_type_atomic_enum_value:model_key&#45;&gt;public.data_type_atomic:model_key</title>
<path fill="none" stroke="black" d="M610.16,-934.17C662.06,-925.04 622.16,-842.84 598.8,-784 570.04,-711.57 508.27,-727.98 479.38,-655.6 463.37,-615.48 435.18,-558.4 478.38,-558.4"/>
<polygon fill="black" stroke="black" points="610.1,-934.17 599.77,-930.49 604.78,-934.6 600.46,-934.95 600.46,-934.95 600.46,-934.95 604.78,-934.6 600.49,-939.46 610.1,-934.17"/>
<text text-anchor="start" x="7" y="-945" font-family="Arial" font-size="10.00">FOREIGN KEY (model_key, data_type_key) REFERENCES data_type_atomic(model_key, data_type_key) ON DELETE CASCADE</text>
</g>
<!-- public.data_type_atomic_span -->
<g id="node4" class="node">
<title>public.data_type_atomic_span</title>
<polygon fill="#efefef" stroke="none" points="703.38,-1042.8 703.38,-1078.4 1061.31,-1078.4 1061.31,-1042.8 703.38,-1042.8"/>
<polygon fill="none" stroke="black" points="703.38,-1042.8 703.38,-1078.4 1061.31,-1078.4 1061.31,-1042.8 703.38,-1042.8"/>
<text text-anchor="start" x="710.38" y="-1056.2" font-family="Arial Bold" font-size="18.00">public.data_type_atomic_span</text>
<text text-anchor="start" x="929.82" y="-1056.2" font-family="Arial" font-size="14.00">    </text>
<text text-anchor="start" x="960.94" y="-1056.2" font-family="Arial" font-size="14.00" fill="#666666">[BASE TABLE]</text>
<polygon fill="none" stroke="black" points="703.38,-1012 703.38,-1042.8 1061.31,-1042.8 1061.31,-1012 703.38,-1012"/>
<text text-anchor="start" x="710.38" y="-1024.2" font-family="Arial" font-size="14.00">model_key </text>
<text text-anchor="start" x="781.98" y="-1024.2" font-family="Arial" font-size="14.00" fill="#666666">[text]</text>
<polygon fill="none" stroke="black" points="703.38,-981.2 703.38,-1012 1061.31,-1012 1061.31,-981.2 703.38,-981.2"/>
<text text-anchor="start" x="710.38" y="-993.4" font-family="Arial" font-size="14.00">data_type_key </text>
<text text-anchor="start" x="805.34" y="-993.4" font-family="Arial" font-size="14.00" fill="#666666">[text]</text>
<polygon fill="none" stroke="black" points="703.38,-950.4 703.38,-981.2 1061.31,-981.2 1061.31,-950.4 703.38,-950.4"/>
<text text-anchor="start" x="710.38" y="-962.6" font-family="Arial" font-size="14.00">lower_type </text>
<text text-anchor="start" x="781.98" y="-962.6" font-family="Arial" font-size="14.00" fill="#666666">[bound_limit_type]</text>
<polygon fill="none" stroke="black" points="703.38,-919.6 703.38,-950.4 1061.31,-950.4 1061.31,-919.6 703.38,-919.6"/>
<text text-anchor="start" x="710.38" y="-931.8" font-family="Arial" font-size="14.00">lower_value </text>
<text text-anchor="start" x="788.98" y="-931.8" font-family="Arial" font-size="14.00" fill="#666666">[bigint]</text>
<polygon fill="none" stroke="black" points="703.38,-888.8 703.38,-919.6 1061.31,-919.6 1061.31,-888.8 703.38,-888.8"/>
<text text-anchor="start" x="710.38" y="-901" font-family="Arial" font-size="14.00">lower_denominator </text>
<text text-anchor="start" x="833.34" y="-901" font-family="Arial" font-size="14.00" fill="#666666">[bigint]</text>
<polygon fill="none" stroke="black" points="703.38,-858 703.38,-888.8 1061.31,-888.8 1061.31,-858 703.38,-858"/>
<text text-anchor="start" x="710.38" y="-870.2" font-family="Arial" font-size="14.00">higher_type </text>
<text text-anchor="start" x="787.44" y="-870.2" font-family="Arial" font-size="14.00" fill="#666666">[bound_limit_type]</text>
<polygon fill="none" stroke="black" points="703.38,-827.2 703.38,-858 1061.31,-858 1061.31,-827.2 703.38,-827.2"/>
<text text-anchor="start" x="710.38" y="-839.4" font-family="Arial" font-size="14.00">higher_value </text>
<text text-anchor="start" x="794.44" y="-839.4" font-family="Arial" font-size="14.00" fill="#666666">[bigint]</text>
<polygon fill="none" stroke="black" points="703.38,-796.4 703.38,-827.2 1061.31,-827.2 1061.31,-796.4 703.38,-796.4"/>
<text text-anchor="start" x="710.38" y="-808.6" font-family="Arial" font-size="14.00">higher_denominator </text>
<text text-anchor="start" x="838.8" y="-808.6" font-family="Arial" font-size="14.00" fill="#666666">[bigint]</text>
<polygon fill="none" stroke="black" points="703.38,-765.6 703.38,-796.4 1061.31,-796.4 1061.31,-765.6 703.38,-765.6"/>
<text text-anchor="start" x="710.38" y="-777.8" font-family="Arial" font-size="14.00">units </text>
<text text-anchor="start" x="743.84" y="-777.8" font-family="Arial" font-size="14.00" fill="#666666">[text]</text>
<polygon fill="none" stroke="black" points="703.38,-734.8 703.38,-765.6 1061.31,-765.6 1061.31,-734.8 703.38,-734.8"/>
<text text-anchor="start" x="710.38" y="-747" font-family="Arial" font-size="14.00">precision </text>
<text text-anchor="start" x="770.3" y="-747" font-family="Arial" font-size="14.00" fill="#666666">[numeric]</text>
</g>
<!-- public.data_type_atomic_span&#45;&gt;public.data_type_atomic -->
<g id="edge3" class="edge">
<title>public.data_type_atomic_span:model_key&#45;&gt;public.data_type_atomic:model_key</title>
<path fill="none" stroke="black" d="M692.21,-1025.5C631.05,-1001.13 663.29,-750.17 703.38,-691.6 728.17,-655.39 770.39,-691.72 795.31,-655.6 819.84,-620.04 839.51,-558.4 796.31,-558.4"/>
<polygon fill="black" stroke="black" points="692.22,-1025.5 701.23,-1031.76 697.47,-1026.48 701.72,-1027.28 701.72,-1027.28 701.72,-1027.28 697.47,-1026.48 702.88,-1022.92 692.22,-1025.5"/>
<text text-anchor="start" x="109.59" y="-1037.4" font-family="Arial" font-size="10.00">FOREIGN KEY (model_key, data_type_key) REFERENCES data_type_atomic(model_key, data_type_key) ON DELETE CASCADE</text>
</g>
</g>
</svg>
