<?xml version="1.0" encoding="UTF-8" standalone="no"?>
<!DOCTYPE svg PUBLIC "-//W3C//DTD SVG 1.1//EN"
 "http://www.w3.org/Graphics/SVG/1.1/DTD/svg11.dtd">
<!-- Generated by graphviz version 12.1.2 (20240928.0832)
 -->
<!-- Title: public.data_type2 Pages: 1 -->
<svg width="830pt" height="1068pt"
 viewBox="0.00 0.00 830.11 1068.00" xmlns="http://www.w3.org/2000/svg" xmlns:xlink="http://www.w3.org/1999/xlink">
<g id="graph0" class="graph" transform="scale(1 1) rotate(0) translate(4 1064)">
<title>public.data_type2</title>
<polygon fill="white" stroke="none" points="-4,4 -4,-1064 826.11,-1064 826.11,4 -4,4"/>
<!-- public.data_type2 -->
<g id="node1" class="node">
<title>public.data_type2</title>
<polygon fill="#efefef" stroke="none" points="72.19,-635.4 72.19,-671 339.14,-671 339.14,-635.4 72.19,-635.4"/>
<polygon fill="none" stroke="black" points="72.19,-635.4 72.19,-671 339.14,-671 339.14,-635.4 72.19,-635.4"/>
<text text-anchor="start" x="79.19" y="-648.8" font-family="Arial Bold" font-size="18.00">public.data_type2</text>
<text text-anchor="start" x="207.65" y="-648.8" font-family="Arial" font-size="14.00">    </text>
<text text-anchor="start" x="238.77" y="-648.8" font-family="Arial" font-size="14.00" fill="#666666">[BASE TABLE]</text>
<polygon fill="none" stroke="black" points="72.19,-604.6 72.19,-635.4 339.14,-635.4 339.14,-604.6 72.19,-604.6"/>
<text text-anchor="start" x="79.19" y="-616.8" font-family="Arial" font-size="14.00">data_type_id </text>
<text text-anchor="start" x="163.26" y="-616.8" font-family="Arial" font-size="14.00" fill="#666666">[bigint]</text>
<polygon fill="none" stroke="black" points="72.19,-573.8 72.19,-604.6 339.14,-604.6 339.14,-573.8 72.19,-573.8"/>
<text text-anchor="start" x="79.19" y="-586" font-family="Arial" font-size="14.00">collection_type </text>
<text text-anchor="start" x="175.69" y="-586" font-family="Arial" font-size="14.00" fill="#666666">[collection_type]</text>
<polygon fill="none" stroke="black" points="72.19,-543 72.19,-573.8 339.14,-573.8 339.14,-543 72.19,-543"/>
<text text-anchor="start" x="79.19" y="-555.2" font-family="Arial" font-size="14.00">collection_unique </text>
<text text-anchor="start" x="191.27" y="-555.2" font-family="Arial" font-size="14.00" fill="#666666">[boolean]</text>
<polygon fill="none" stroke="black" points="72.19,-512.2 72.19,-543 339.14,-543 339.14,-512.2 72.19,-512.2"/>
<text text-anchor="start" x="79.19" y="-524.4" font-family="Arial" font-size="14.00">collection_min </text>
<text text-anchor="start" x="171.79" y="-524.4" font-family="Arial" font-size="14.00" fill="#666666">[bigint]</text>
<polygon fill="none" stroke="black" points="72.19,-481.4 72.19,-512.2 339.14,-512.2 339.14,-481.4 72.19,-481.4"/>
<text text-anchor="start" x="79.19" y="-493.6" font-family="Arial" font-size="14.00">collection_max </text>
<text text-anchor="start" x="175.68" y="-493.6" font-family="Arial" font-size="14.00" fill="#666666">[bigint]</text>
<polygon fill="none" stroke="black" points="72.19,-450.6 72.19,-481.4 339.14,-481.4 339.14,-450.6 72.19,-450.6"/>
<text text-anchor="start" x="79.19" y="-462.8" font-family="Arial" font-size="14.00">details </text>
<text text-anchor="start" x="123.55" y="-462.8" font-family="Arial" font-size="14.00" fill="#666666">[text]</text>
<polygon fill="none" stroke="black" points="72.19,-419.8 72.19,-450.6 339.14,-450.6 339.14,-419.8 72.19,-419.8"/>
<text text-anchor="start" x="79.19" y="-432" font-family="Arial" font-size="14.00">uml_comment </text>
<text text-anchor="start" x="171" y="-432" font-family="Arial" font-size="14.00" fill="#666666">[text]</text>
<polygon fill="none" stroke="black" stroke-width="3" points="70.69,-418.3 70.69,-672.5 340.64,-672.5 340.64,-418.3 70.69,-418.3"/>
</g>
<!-- public.data_type_atomic2 -->
<g id="node2" class="node">
<title>public.data_type_atomic2</title>
<polygon fill="#efefef" stroke="none" points="43.2,-258.8 43.2,-294.4 368.13,-294.4 368.13,-258.8 43.2,-258.8"/>
<polygon fill="none" stroke="black" points="43.2,-258.8 43.2,-294.4 368.13,-294.4 368.13,-258.8 43.2,-258.8"/>
<text text-anchor="start" x="50.2" y="-272.2" font-family="Arial Bold" font-size="18.00">public.data_type_atomic2</text>
<text text-anchor="start" x="236.64" y="-272.2" font-family="Arial" font-size="14.00">    </text>
<text text-anchor="start" x="267.76" y="-272.2" font-family="Arial" font-size="14.00" fill="#666666">[BASE TABLE]</text>
<polygon fill="none" stroke="black" points="43.2,-228 43.2,-258.8 368.13,-258.8 368.13,-228 43.2,-228"/>
<text text-anchor="start" x="50.2" y="-240.2" font-family="Arial" font-size="14.00">data_type_id </text>
<text text-anchor="start" x="134.27" y="-240.2" font-family="Arial" font-size="14.00" fill="#666666">[integer]</text>
<polygon fill="none" stroke="black" points="43.2,-197.2 43.2,-228 368.13,-228 368.13,-197.2 43.2,-197.2"/>
<text text-anchor="start" x="50.2" y="-209.4" font-family="Arial" font-size="14.00">constraint_type </text>
<text text-anchor="start" x="149.03" y="-209.4" font-family="Arial" font-size="14.00" fill="#666666">[constraint_type]</text>
<polygon fill="none" stroke="black" points="43.2,-166.4 43.2,-197.2 368.13,-197.2 368.13,-166.4 43.2,-166.4"/>
<text text-anchor="start" x="50.2" y="-178.6" font-family="Arial" font-size="14.00">reference </text>
<text text-anchor="start" x="113.23" y="-178.6" font-family="Arial" font-size="14.00" fill="#666666">[text]</text>
<polygon fill="none" stroke="black" points="43.2,-135.6 43.2,-166.4 368.13,-166.4 368.13,-135.6 43.2,-135.6"/>
<text text-anchor="start" x="50.2" y="-147.8" font-family="Arial" font-size="14.00">enum_ordered </text>
<text text-anchor="start" x="145.15" y="-147.8" font-family="Arial" font-size="14.00" fill="#666666">[boolean]</text>
<polygon fill="none" stroke="black" points="43.2,-104.8 43.2,-135.6 368.13,-135.6 368.13,-104.8 43.2,-104.8"/>
<text text-anchor="start" x="50.2" y="-117" font-family="Arial" font-size="14.00">object_class_key </text>
<text text-anchor="start" x="160.7" y="-117" font-family="Arial" font-size="14.00" fill="#666666">[text]</text>
<polygon fill="none" stroke="black" points="43.2,-74 43.2,-104.8 368.13,-104.8 368.13,-74 43.2,-74"/>
<text text-anchor="start" x="50.2" y="-86.2" font-family="Arial" font-size="14.00">details </text>
<text text-anchor="start" x="94.56" y="-86.2" font-family="Arial" font-size="14.00" fill="#666666">[text]</text>
<polygon fill="none" stroke="black" points="43.2,-43.2 43.2,-74 368.13,-74 368.13,-43.2 43.2,-43.2"/>
<text text-anchor="start" x="50.2" y="-55.4" font-family="Arial" font-size="14.00">uml_comment </text>
<text text-anchor="start" x="142.01" y="-55.4" font-family="Arial" font-size="14.00" fill="#666666">[text]</text>
</g>
<!-- public.data_type2&#45;&gt;public.data_type_atomic2 -->
<g id="edge1" class="edge">
<title>public.data_type2:data_type_id&#45;&gt;public.data_type_atomic2:data_type_id</title>
<path fill="none" stroke="black" d="M350.19,-618.15C426.27,-589.74 449.63,-243.4 369.13,-243.4"/>
<polygon fill="black" stroke="black" points="350.3,-618.13 339.66,-615.51 345.06,-619.1 340.8,-619.88 340.8,-619.88 340.8,-619.88 345.06,-619.1 341.28,-624.37 350.3,-618.13"/>
<text text-anchor="start" x="347.14" y="-630" font-family="Arial" font-size="10.00">FOREIGN KEY (data_type_id) REFERENCES data_type_atomic2(data_type_id) ON DELETE CASCADE</text>
</g>
<!-- public.field -->
<g id="node3" class="node">
<title>public.field</title>
<polygon fill="#efefef" stroke="none" points="95.18,-981.2 95.18,-1016.8 316.15,-1016.8 316.15,-981.2 95.18,-981.2"/>
<polygon fill="none" stroke="black" points="95.18,-981.2 95.18,-1016.8 316.15,-1016.8 316.15,-981.2 95.18,-981.2"/>
<text text-anchor="start" x="102.18" y="-994.6" font-family="Arial Bold" font-size="18.00">public.field</text>
<text text-anchor="start" x="184.66" y="-994.6" font-family="Arial" font-size="14.00">    </text>
<text text-anchor="start" x="215.78" y="-994.6" font-family="Arial" font-size="14.00" fill="#666666">[BASE TABLE]</text>
<polygon fill="none" stroke="black" points="95.18,-950.4 95.18,-981.2 316.15,-981.2 316.15,-950.4 95.18,-950.4"/>
<text text-anchor="start" x="102.18" y="-962.6" font-family="Arial" font-size="14.00">field_id </text>
<text text-anchor="start" x="150.44" y="-962.6" font-family="Arial" font-size="14.00" fill="#666666">[integer]</text>
<polygon fill="none" stroke="black" points="95.18,-919.6 95.18,-950.4 316.15,-950.4 316.15,-919.6 95.18,-919.6"/>
<text text-anchor="start" x="102.18" y="-931.8" font-family="Arial" font-size="14.00">record_data_type_id </text>
<text text-anchor="start" x="233.72" y="-931.8" font-family="Arial" font-size="14.00" fill="#666666">[bigint]</text>
<polygon fill="none" stroke="black" points="95.18,-888.8 95.18,-919.6 316.15,-919.6 316.15,-888.8 95.18,-888.8"/>
<text text-anchor="start" x="102.18" y="-901" font-family="Arial" font-size="14.00">name </text>
<text text-anchor="start" x="141.09" y="-901" font-family="Arial" font-size="14.00" fill="#666666">[text]</text>
<polygon fill="none" stroke="black" points="95.18,-858 95.18,-888.8 316.15,-888.8 316.15,-858 95.18,-858"/>
<text text-anchor="start" x="102.18" y="-870.2" font-family="Arial" font-size="14.00">field_data_type_id </text>
<text text-anchor="start" x="219.72" y="-870.2" font-family="Arial" font-size="14.00" fill="#666666">[bigint]</text>
<polygon fill="none" stroke="black" points="95.18,-827.2 95.18,-858 316.15,-858 316.15,-827.2 95.18,-827.2"/>
<text text-anchor="start" x="102.18" y="-839.4" font-family="Arial" font-size="14.00">details </text>
<text text-anchor="start" x="146.54" y="-839.4" font-family="Arial" font-size="14.00" fill="#666666">[text]</text>
<polygon fill="none" stroke="black" points="95.18,-796.4 95.18,-827.2 316.15,-827.2 316.15,-796.4 95.18,-796.4"/>
<text text-anchor="start" x="102.18" y="-808.6" font-family="Arial" font-size="14.00">uml_comment </text>
<text text-anchor="start" x="193.99" y="-808.6" font-family="Arial" font-size="14.00" fill="#666666">[text]</text>
</g>
<!-- public.field&#45;&gt;public.data_type2 -->
<g id="edge2" class="edge">
<title>public.field:record_data_type_id&#45;&gt;public.data_type2:data_type_id</title>
<path fill="none" stroke="black" d="M327.09,-932.82C389.36,-904.99 406.9,-620 340.14,-620"/>
<polygon fill="black" stroke="black" points="327.24,-932.79 316.51,-930.53 322.03,-933.93 317.8,-934.86 317.8,-934.86 317.8,-934.86 322.03,-933.93 318.44,-939.32 327.24,-932.79"/>
<text text-anchor="start" x="324.15" y="-945" font-family="Arial" font-size="10.00">FOREIGN KEY (record_data_type_id) REFERENCES data_type2(data_type_id) ON DELETE CASCADE</text>
</g>
<!-- public.field&#45;&gt;public.data_type2 -->
<g id="edge3" class="edge">
<title>public.field:field_data_type_id&#45;&gt;public.data_type2:data_type_id</title>
<path fill="none" stroke="black" d="M327.49,-872.67C431.54,-857.81 449.69,-620 340.14,-620"/>
<polygon fill="black" stroke="black" points="327.46,-872.67 317.17,-868.89 322.14,-873.05 317.82,-873.35 317.82,-873.35 317.82,-873.35 322.14,-873.05 317.8,-877.87 327.46,-872.67"/>
<text text-anchor="start" x="324.15" y="-883.4" font-family="Arial" font-size="10.00">FOREIGN KEY (field_data_type_id) REFERENCES data_type2(data_type_id) ON DELETE CASCADE</text>
</g>
</g>
</svg>
