<?xml version="1.0" encoding="UTF-8" standalone="no"?>
<!DOCTYPE svg PUBLIC "-//W3C//DTD SVG 1.1//EN"
 "http://www.w3.org/Graphics/SVG/1.1/DTD/svg11.dtd">
<!-- Generated by graphviz version 12.1.2 (20240928.0832)
 -->
<!-- Title: public.event_parameter Pages: 1 -->
<svg width="1389pt" height="756pt"
 viewBox="0.00 0.00 1389.08 756.00" xmlns="http://www.w3.org/2000/svg" xmlns:xlink="http://www.w3.org/1999/xlink">
<g id="graph0" class="graph" transform="scale(1 1) rotate(0) translate(4 752)">
<title>public.event_parameter</title>
<polygon fill="white" stroke="none" points="-4,4 -4,-752 1385.08,-752 1385.08,4 -4,4"/>
<!-- public.event_parameter -->
<g id="node1" class="node">
<title>public.event_parameter</title>
<polygon fill="#efefef" stroke="none" points="565.78,-666.2 565.78,-701.8 873.69,-701.8 873.69,-666.2 565.78,-666.2"/>
<polygon fill="none" stroke="black" points="565.78,-666.2 565.78,-701.8 873.69,-701.8 873.69,-666.2 565.78,-666.2"/>
<text text-anchor="start" x="572.78" y="-679.6" font-family="Arial Bold" font-size="18.00">public.event_parameter</text>
<text text-anchor="start" x="742.2" y="-679.6" font-family="Arial" font-size="14.00">    </text>
<text text-anchor="start" x="773.32" y="-679.6" font-family="Arial" font-size="14.00" fill="#666666">[BASE TABLE]</text>
<polygon fill="none" stroke="black" points="565.78,-635.4 565.78,-666.2 873.69,-666.2 873.69,-635.4 565.78,-635.4"/>
<text text-anchor="start" x="572.78" y="-647.6" font-family="Arial" font-size="14.00">model_key </text>
<text text-anchor="start" x="644.37" y="-647.6" font-family="Arial" font-size="14.00" fill="#666666">[text]</text>
<polygon fill="none" stroke="black" points="565.78,-604.6 565.78,-635.4 873.69,-635.4 873.69,-604.6 565.78,-604.6"/>
<text text-anchor="start" x="572.78" y="-616.8" font-family="Arial" font-size="14.00">event_key </text>
<text text-anchor="start" x="640.49" y="-616.8" font-family="Arial" font-size="14.00" fill="#666666">[text]</text>
<polygon fill="none" stroke="black" points="565.78,-573.8 565.78,-604.6 873.69,-604.6 873.69,-573.8 565.78,-573.8"/>
<text text-anchor="start" x="572.78" y="-586" font-family="Arial" font-size="14.00">parameter_key </text>
<text text-anchor="start" x="670.05" y="-586" font-family="Arial" font-size="14.00" fill="#666666">[text]</text>
<polygon fill="none" stroke="black" points="565.78,-543 565.78,-573.8 873.69,-573.8 873.69,-543 565.78,-543"/>
<text text-anchor="start" x="572.78" y="-555.2" font-family="Arial" font-size="14.00">name </text>
<text text-anchor="start" x="611.69" y="-555.2" font-family="Arial" font-size="14.00" fill="#666666">[text]</text>
<polygon fill="none" stroke="black" points="565.78,-512.2 565.78,-543 873.69,-543 873.69,-512.2 565.78,-512.2"/>
<text text-anchor="start" x="572.78" y="-524.4" font-family="Arial" font-size="14.00">sort_order </text>
<text text-anchor="start" x="640.48" y="-524.4" font-family="Arial" font-size="14.00" fill="#666666">[integer]</text>
<polygon fill="none" stroke="black" points="565.78,-481.4 565.78,-512.2 873.69,-512.2 873.69,-481.4 565.78,-481.4"/>
<text text-anchor="start" x="572.78" y="-493.6" font-family="Arial" font-size="14.00">data_type_rules </text>
<text text-anchor="start" x="676.3" y="-493.6" font-family="Arial" font-size="14.00" fill="#666666">[text]</text>
<polygon fill="none" stroke="black" points="565.78,-450.6 565.78,-481.4 873.69,-481.4 873.69,-450.6 565.78,-450.6"/>
<text text-anchor="start" x="572.78" y="-462.8" font-family="Arial" font-size="14.00">data_type_key </text>
<text text-anchor="start" x="667.74" y="-462.8" font-family="Arial" font-size="14.00" fill="#666666">[text]</text>
<polygon fill="none" stroke="black" stroke-width="3" points="564.28,-449.1 564.28,-703.3 875.19,-703.3 875.19,-449.1 564.28,-449.1"/>
</g>
<!-- public.data_type -->
<g id="node2" class="node">
<title>public.data_type</title>
<polygon fill="#efefef" stroke="none" points="417.76,-289.6 417.76,-325.2 675.71,-325.2 675.71,-289.6 417.76,-289.6"/>
<polygon fill="none" stroke="black" points="417.76,-289.6 417.76,-325.2 675.71,-325.2 675.71,-289.6 417.76,-289.6"/>
<text text-anchor="start" x="424.76" y="-303" font-family="Arial Bold" font-size="18.00">public.data_type</text>
<text text-anchor="start" x="544.22" y="-303" font-family="Arial" font-size="14.00">    </text>
<text text-anchor="start" x="575.34" y="-303" font-family="Arial" font-size="14.00" fill="#666666">[BASE TABLE]</text>
<polygon fill="none" stroke="black" points="417.76,-258.8 417.76,-289.6 675.71,-289.6 675.71,-258.8 417.76,-258.8"/>
<text text-anchor="start" x="424.76" y="-271" font-family="Arial" font-size="14.00">model_key </text>
<text text-anchor="start" x="496.35" y="-271" font-family="Arial" font-size="14.00" fill="#666666">[text]</text>
<polygon fill="none" stroke="black" points="417.76,-228 417.76,-258.8 675.71,-258.8 675.71,-228 417.76,-228"/>
<text text-anchor="start" x="424.76" y="-240.2" font-family="Arial" font-size="14.00">data_type_key </text>
<text text-anchor="start" x="519.72" y="-240.2" font-family="Arial" font-size="14.00" fill="#666666">[text]</text>
<polygon fill="none" stroke="black" points="417.76,-197.2 417.76,-228 675.71,-228 675.71,-197.2 417.76,-197.2"/>
<text text-anchor="start" x="424.76" y="-209.4" font-family="Arial" font-size="14.00">collection_type </text>
<text text-anchor="start" x="521.26" y="-209.4" font-family="Arial" font-size="14.00" fill="#666666">[collection_type]</text>
<polygon fill="none" stroke="black" points="417.76,-166.4 417.76,-197.2 675.71,-197.2 675.71,-166.4 417.76,-166.4"/>
<text text-anchor="start" x="424.76" y="-178.6" font-family="Arial" font-size="14.00">collection_unique </text>
<text text-anchor="start" x="536.84" y="-178.6" font-family="Arial" font-size="14.00" fill="#666666">[boolean]</text>
<polygon fill="none" stroke="black" points="417.76,-135.6 417.76,-166.4 675.71,-166.4 675.71,-135.6 417.76,-135.6"/>
<text text-anchor="start" x="424.76" y="-147.8" font-family="Arial" font-size="14.00">collection_min </text>
<text text-anchor="start" x="517.36" y="-147.8" font-family="Arial" font-size="14.00" fill="#666666">[bigint]</text>
<polygon fill="none" stroke="black" points="417.76,-104.8 417.76,-135.6 675.71,-135.6 675.71,-104.8 417.76,-104.8"/>
<text text-anchor="start" x="424.76" y="-117" font-family="Arial" font-size="14.00">collection_max </text>
<text text-anchor="start" x="521.25" y="-117" font-family="Arial" font-size="14.00" fill="#666666">[bigint]</text>
<polygon fill="none" stroke="black" points="417.76,-74 417.76,-104.8 675.71,-104.8 675.71,-74 417.76,-74"/>
<text text-anchor="start" x="424.76" y="-86.2" font-family="Arial" font-size="14.00">type_spec_notation </text>
<text text-anchor="start" x="550.08" y="-86.2" font-family="Arial" font-size="14.00" fill="#666666">[notation]</text>
<polygon fill="none" stroke="black" points="417.76,-43.2 417.76,-74 675.71,-74 675.71,-43.2 417.76,-43.2"/>
<text text-anchor="start" x="424.76" y="-55.4" font-family="Arial" font-size="14.00">type_spec_specification </text>
<text text-anchor="start" x="577.3" y="-55.4" font-family="Arial" font-size="14.00" fill="#666666">[text]</text>
</g>
<!-- public.event_parameter&#45;&gt;public.data_type -->
<g id="edge1" class="edge">
<title>public.event_parameter:model_key&#45;&gt;public.data_type:model_key</title>
<path fill="none" stroke="black" d="M554.38,-650.29C458.35,-640.39 503.47,-490 565.78,-404.4 596.04,-362.83 645.32,-409.87 675.71,-368.4 700.46,-334.63 718.58,-274.2 676.71,-274.2"/>
<polygon fill="black" stroke="black" points="554.46,-650.29 564.23,-655.28 559.79,-650.55 564.11,-650.77 564.11,-650.77 564.11,-650.77 559.79,-650.55 564.67,-646.29 554.46,-650.29"/>
<text text-anchor="start" x="7" y="-660.8" font-family="Arial" font-size="10.00">FOREIGN KEY (model_key, data_type_key) REFERENCES data_type(model_key, data_type_key) ON DELETE CASCADE</text>
</g>
<!-- public.event -->
<g id="node3" class="node">
<title>public.event</title>
<polygon fill="#efefef" stroke="none" points="780.25,-243.4 780.25,-279 1007.21,-279 1007.21,-243.4 780.25,-243.4"/>
<polygon fill="none" stroke="black" points="780.25,-243.4 780.25,-279 1007.21,-279 1007.21,-243.4 780.25,-243.4"/>
<text text-anchor="start" x="787.25" y="-256.8" font-family="Arial Bold" font-size="18.00">public.event</text>
<text text-anchor="start" x="875.73" y="-256.8" font-family="Arial" font-size="14.00">    </text>
<text text-anchor="start" x="906.84" y="-256.8" font-family="Arial" font-size="14.00" fill="#666666">[BASE TABLE]</text>
<polygon fill="none" stroke="black" points="780.25,-212.6 780.25,-243.4 1007.21,-243.4 1007.21,-212.6 780.25,-212.6"/>
<text text-anchor="start" x="787.25" y="-224.8" font-family="Arial" font-size="14.00">model_key </text>
<text text-anchor="start" x="858.85" y="-224.8" font-family="Arial" font-size="14.00" fill="#666666">[text]</text>
<polygon fill="none" stroke="black" points="780.25,-181.8 780.25,-212.6 1007.21,-212.6 1007.21,-181.8 780.25,-181.8"/>
<text text-anchor="start" x="787.25" y="-194" font-family="Arial" font-size="14.00">class_key </text>
<text text-anchor="start" x="852.61" y="-194" font-family="Arial" font-size="14.00" fill="#666666">[text]</text>
<polygon fill="none" stroke="black" points="780.25,-151 780.25,-181.8 1007.21,-181.8 1007.21,-151 780.25,-151"/>
<text text-anchor="start" x="787.25" y="-163.2" font-family="Arial" font-size="14.00">event_key </text>
<text text-anchor="start" x="854.96" y="-163.2" font-family="Arial" font-size="14.00" fill="#666666">[text]</text>
<polygon fill="none" stroke="black" points="780.25,-120.2 780.25,-151 1007.21,-151 1007.21,-120.2 780.25,-120.2"/>
<text text-anchor="start" x="787.25" y="-132.4" font-family="Arial" font-size="14.00">name </text>
<text text-anchor="start" x="826.17" y="-132.4" font-family="Arial" font-size="14.00" fill="#666666">[text]</text>
<polygon fill="none" stroke="black" points="780.25,-89.4 780.25,-120.2 1007.21,-120.2 1007.21,-89.4 780.25,-89.4"/>
<text text-anchor="start" x="787.25" y="-101.6" font-family="Arial" font-size="14.00">details </text>
<text text-anchor="start" x="831.61" y="-101.6" font-family="Arial" font-size="14.00" fill="#666666">[text]</text>
</g>
<!-- public.event_parameter&#45;&gt;public.event -->
<g id="edge2" class="edge">
<title>public.event_parameter:model_key&#45;&gt;public.event:model_key</title>
<path fill="none" stroke="black" d="M885.03,-650.32C979.89,-641.11 917.5,-500.78 873.69,-404.4 850.8,-354.05 803.31,-372.48 780.25,-322.2 762.8,-284.14 737.39,-228 779.25,-228"/>
<polygon fill="black" stroke="black" points="885.01,-650.32 874.81,-646.29 879.68,-650.57 875.36,-650.77 875.36,-650.77 875.36,-650.77 879.68,-650.57 875.23,-655.28 885.01,-650.32"/>
<text text-anchor="start" x="881.69" y="-660.8" font-family="Arial" font-size="10.00">FOREIGN KEY (model_key, event_key) REFERENCES event(model_key, event_key) ON DELETE CASCADE</text>
</g>
</g>
</svg>
