<?xml version="1.0" encoding="UTF-8" standalone="no"?>
<!DOCTYPE svg PUBLIC "-//W3C//DTD SVG 1.1//EN"
 "http://www.w3.org/Graphics/SVG/1.1/DTD/svg11.dtd">
<!-- Generated by graphviz version 12.1.2 (20240928.0832)
 -->
<!-- Title: public.action_guarantee Pages: 1 -->
<svg width="1329pt" height="633pt"
 viewBox="0.00 0.00 1328.67 632.80" xmlns="http://www.w3.org/2000/svg" xmlns:xlink="http://www.w3.org/1999/xlink">
<g id="graph0" class="graph" transform="scale(1 1) rotate(0) translate(4 628.8)">
<title>public.action_guarantee</title>
<polygon fill="white" stroke="none" points="-4,4 -4,-628.8 1324.67,-628.8 1324.67,4 -4,4"/>
<!-- public.action_guarantee -->
<g id="node1" class="node">
<title>public.action_guarantee</title>
<polygon fill="#efefef" stroke="none" points="495.7,-543 495.7,-578.6 806.62,-578.6 806.62,-543 495.7,-543"/>
<polygon fill="none" stroke="black" points="495.7,-543 495.7,-578.6 806.62,-578.6 806.62,-543 495.7,-543"/>
<text text-anchor="start" x="502.7" y="-556.4" font-family="Arial Bold" font-size="18.00">public.action_guarantee</text>
<text text-anchor="start" x="675.13" y="-556.4" font-family="Arial" font-size="14.00">    </text>
<text text-anchor="start" x="706.24" y="-556.4" font-family="Arial" font-size="14.00" fill="#666666">[BASE TABLE]</text>
<polygon fill="none" stroke="black" points="495.7,-512.2 495.7,-543 806.62,-543 806.62,-512.2 495.7,-512.2"/>
<text text-anchor="start" x="502.7" y="-524.4" font-family="Arial" font-size="14.00">model_key </text>
<text text-anchor="start" x="574.3" y="-524.4" font-family="Arial" font-size="14.00" fill="#666666">[text]</text>
<polygon fill="none" stroke="black" points="495.7,-481.4 495.7,-512.2 806.62,-512.2 806.62,-481.4 495.7,-481.4"/>
<text text-anchor="start" x="502.7" y="-493.6" font-family="Arial" font-size="14.00">action_key </text>
<text text-anchor="start" x="573.52" y="-493.6" font-family="Arial" font-size="14.00" fill="#666666">[text]</text>
<polygon fill="none" stroke="black" points="495.7,-450.6 495.7,-481.4 806.62,-481.4 806.62,-450.6 495.7,-450.6"/>
<text text-anchor="start" x="502.7" y="-462.8" font-family="Arial" font-size="14.00">logic_key </text>
<text text-anchor="start" x="564.96" y="-462.8" font-family="Arial" font-size="14.00" fill="#666666">[text]</text>
<polygon fill="none" stroke="black" stroke-width="3" points="494.2,-449.1 494.2,-580.1 808.12,-580.1 808.12,-449.1 494.2,-449.1"/>
</g>
<!-- public.logic -->
<g id="node2" class="node">
<title>public.logic</title>
<polygon fill="#efefef" stroke="none" points="373.17,-289.6 373.17,-325.2 597.15,-325.2 597.15,-289.6 373.17,-289.6"/>
<polygon fill="none" stroke="black" points="373.17,-289.6 373.17,-325.2 597.15,-325.2 597.15,-289.6 373.17,-289.6"/>
<text text-anchor="start" x="380.17" y="-303" font-family="Arial Bold" font-size="18.00">public.logic</text>
<text text-anchor="start" x="465.66" y="-303" font-family="Arial" font-size="14.00">    </text>
<text text-anchor="start" x="496.77" y="-303" font-family="Arial" font-size="14.00" fill="#666666">[BASE TABLE]</text>
<polygon fill="none" stroke="black" points="373.17,-258.8 373.17,-289.6 597.15,-289.6 597.15,-258.8 373.17,-258.8"/>
<text text-anchor="start" x="380.17" y="-271" font-family="Arial" font-size="14.00">logic_key </text>
<text text-anchor="start" x="442.43" y="-271" font-family="Arial" font-size="14.00" fill="#666666">[text]</text>
<polygon fill="none" stroke="black" points="373.17,-228 373.17,-258.8 597.15,-258.8 597.15,-228 373.17,-228"/>
<text text-anchor="start" x="380.17" y="-240.2" font-family="Arial" font-size="14.00">model_key </text>
<text text-anchor="start" x="451.77" y="-240.2" font-family="Arial" font-size="14.00" fill="#666666">[text]</text>
<polygon fill="none" stroke="black" points="373.17,-197.2 373.17,-228 597.15,-228 597.15,-197.2 373.17,-197.2"/>
<text text-anchor="start" x="380.17" y="-209.4" font-family="Arial" font-size="14.00">sort_order </text>
<text text-anchor="start" x="447.87" y="-209.4" font-family="Arial" font-size="14.00" fill="#666666">[integer]</text>
<polygon fill="none" stroke="black" points="373.17,-166.4 373.17,-197.2 597.15,-197.2 597.15,-166.4 373.17,-166.4"/>
<text text-anchor="start" x="380.17" y="-178.6" font-family="Arial" font-size="14.00">logic_type </text>
<text text-anchor="start" x="447.1" y="-178.6" font-family="Arial" font-size="14.00" fill="#666666">[logic_type]</text>
<polygon fill="none" stroke="black" points="373.17,-135.6 373.17,-166.4 597.15,-166.4 597.15,-135.6 373.17,-135.6"/>
<text text-anchor="start" x="380.17" y="-147.8" font-family="Arial" font-size="14.00">description </text>
<text text-anchor="start" x="451.77" y="-147.8" font-family="Arial" font-size="14.00" fill="#666666">[text]</text>
<polygon fill="none" stroke="black" points="373.17,-104.8 373.17,-135.6 597.15,-135.6 597.15,-104.8 373.17,-104.8"/>
<text text-anchor="start" x="380.17" y="-117" font-family="Arial" font-size="14.00">target </text>
<text text-anchor="start" x="419.86" y="-117" font-family="Arial" font-size="14.00" fill="#666666">[text]</text>
<polygon fill="none" stroke="black" points="373.17,-74 373.17,-104.8 597.15,-104.8 597.15,-74 373.17,-74"/>
<text text-anchor="start" x="380.17" y="-86.2" font-family="Arial" font-size="14.00">notation </text>
<text text-anchor="start" x="433.88" y="-86.2" font-family="Arial" font-size="14.00" fill="#666666">[notation]</text>
<polygon fill="none" stroke="black" points="373.17,-43.2 373.17,-74 597.15,-74 597.15,-43.2 373.17,-43.2"/>
<text text-anchor="start" x="380.17" y="-55.4" font-family="Arial" font-size="14.00">specification </text>
<text text-anchor="start" x="461.1" y="-55.4" font-family="Arial" font-size="14.00" fill="#666666">[text]</text>
</g>
<!-- public.action_guarantee&#45;&gt;public.logic -->
<g id="edge1" class="edge">
<title>public.action_guarantee:model_key&#45;&gt;public.logic:model_key</title>
<path fill="none" stroke="black" d="M484.55,-526.53C443.26,-517.01 466.11,-445.95 495.7,-404.4 523.46,-365.43 569.39,-407.37 597.15,-368.4 629.38,-323.15 653.7,-243.4 598.15,-243.4"/>
<polygon fill="black" stroke="black" points="484.43,-526.52 493.9,-532.04 489.73,-527.08 494.04,-527.53 494.04,-527.53 494.04,-527.53 489.73,-527.08 494.84,-523.09 484.43,-526.52"/>
<text text-anchor="start" x="7" y="-537.6" font-family="Arial" font-size="10.00">FOREIGN KEY (model_key, logic_key) REFERENCES logic(model_key, logic_key) ON DELETE CASCADE</text>
</g>
<!-- public.action -->
<g id="node3" class="node">
<title>public.action</title>
<polygon fill="#efefef" stroke="none" points="701.18,-243.4 701.18,-279 933.14,-279 933.14,-243.4 701.18,-243.4"/>
<polygon fill="none" stroke="black" points="701.18,-243.4 701.18,-279 933.14,-279 933.14,-243.4 701.18,-243.4"/>
<text text-anchor="start" x="708.18" y="-256.8" font-family="Arial Bold" font-size="18.00">public.action</text>
<text text-anchor="start" x="801.65" y="-256.8" font-family="Arial" font-size="14.00">    </text>
<text text-anchor="start" x="832.77" y="-256.8" font-family="Arial" font-size="14.00" fill="#666666">[BASE TABLE]</text>
<polygon fill="none" stroke="black" points="701.18,-212.6 701.18,-243.4 933.14,-243.4 933.14,-212.6 701.18,-212.6"/>
<text text-anchor="start" x="708.18" y="-224.8" font-family="Arial" font-size="14.00">model_key </text>
<text text-anchor="start" x="779.77" y="-224.8" font-family="Arial" font-size="14.00" fill="#666666">[text]</text>
<polygon fill="none" stroke="black" points="701.18,-181.8 701.18,-212.6 933.14,-212.6 933.14,-181.8 701.18,-181.8"/>
<text text-anchor="start" x="708.18" y="-194" font-family="Arial" font-size="14.00">class_key </text>
<text text-anchor="start" x="773.54" y="-194" font-family="Arial" font-size="14.00" fill="#666666">[text]</text>
<polygon fill="none" stroke="black" points="701.18,-151 701.18,-181.8 933.14,-181.8 933.14,-151 701.18,-151"/>
<text text-anchor="start" x="708.18" y="-163.2" font-family="Arial" font-size="14.00">action_key </text>
<text text-anchor="start" x="779" y="-163.2" font-family="Arial" font-size="14.00" fill="#666666">[text]</text>
<polygon fill="none" stroke="black" points="701.18,-120.2 701.18,-151 933.14,-151 933.14,-120.2 701.18,-120.2"/>
<text text-anchor="start" x="708.18" y="-132.4" font-family="Arial" font-size="14.00">name </text>
<text text-anchor="start" x="747.09" y="-132.4" font-family="Arial" font-size="14.00" fill="#666666">[text]</text>
<polygon fill="none" stroke="black" points="701.18,-89.4 701.18,-120.2 933.14,-120.2 933.14,-89.4 701.18,-89.4"/>
<text text-anchor="start" x="708.18" y="-101.6" font-family="Arial" font-size="14.00">details </text>
<text text-anchor="start" x="752.54" y="-101.6" font-family="Arial" font-size="14.00" fill="#666666">[text]</text>
</g>
<!-- public.action_guarantee&#45;&gt;public.action -->
<g id="edge2" class="edge">
<title>public.action_guarantee:model_key&#45;&gt;public.action:model_key</title>
<path fill="none" stroke="black" d="M817.92,-526.54C857.98,-517.3 829.14,-450.05 806.62,-404.4 780.32,-351.11 727.54,-375.45 701.18,-322.2 682.61,-284.68 658.31,-228 700.18,-228"/>
<polygon fill="black" stroke="black" points="817.9,-526.54 807.49,-523.09 812.59,-527.09 808.28,-527.53 808.28,-527.53 808.28,-527.53 812.59,-527.09 808.41,-532.04 817.9,-526.54"/>
<text text-anchor="start" x="814.62" y="-537.6" font-family="Arial" font-size="10.00">FOREIGN KEY (model_key, action_key) REFERENCES action(model_key, action_key) ON DELETE CASCADE</text>
</g>
</g>
</svg>
