<?xml version="1.0" encoding="UTF-8" standalone="no"?>
<!DOCTYPE svg PUBLIC "-//W3C//DTD SVG 1.1//EN"
 "http://www.w3.org/Graphics/SVG/1.1/DTD/svg11.dtd">
<!-- Generated by graphviz version 12.1.2 (20240928.0832)
 -->
<!-- Title: public.data_type_atomic_span Pages: 1 -->
<svg width="1013pt" height="787pt"
 viewBox="0.00 0.00 1012.92 786.80" xmlns="http://www.w3.org/2000/svg" xmlns:xlink="http://www.w3.org/1999/xlink">
<g id="graph0" class="graph" transform="scale(1 1) rotate(0) translate(4 782.8)">
<title>public.data_type_atomic_span</title>
<polygon fill="white" stroke="none" points="-4,4 -4,-782.8 1008.92,-782.8 1008.92,4 -4,4"/>
<!-- public.data_type_atomic_span -->
<g id="node1" class="node">
<title>public.data_type_atomic_span</title>
<polygon fill="#efefef" stroke="none" points="46.2,-697 46.2,-732.6 404.13,-732.6 404.13,-697 46.2,-697"/>
<polygon fill="none" stroke="black" points="46.2,-697 46.2,-732.6 404.13,-732.6 404.13,-697 46.2,-697"/>
<text text-anchor="start" x="53.2" y="-710.4" font-family="Arial Bold" font-size="18.00">public.data_type_atomic_span</text>
<text text-anchor="start" x="272.64" y="-710.4" font-family="Arial" font-size="14.00">    </text>
<text text-anchor="start" x="303.75" y="-710.4" font-family="Arial" font-size="14.00" fill="#666666">[BASE TABLE]</text>
<polygon fill="none" stroke="black" points="46.2,-666.2 46.2,-697 404.13,-697 404.13,-666.2 46.2,-666.2"/>
<text text-anchor="start" x="53.2" y="-678.4" font-family="Arial" font-size="14.00">model_key </text>
<text text-anchor="start" x="124.79" y="-678.4" font-family="Arial" font-size="14.00" fill="#666666">[text]</text>
<polygon fill="none" stroke="black" points="46.2,-635.4 46.2,-666.2 404.13,-666.2 404.13,-635.4 46.2,-635.4"/>
<text text-anchor="start" x="53.2" y="-647.6" font-family="Arial" font-size="14.00">data_type_key </text>
<text text-anchor="start" x="148.16" y="-647.6" font-family="Arial" font-size="14.00" fill="#666666">[text]</text>
<polygon fill="none" stroke="black" points="46.2,-604.6 46.2,-635.4 404.13,-635.4 404.13,-604.6 46.2,-604.6"/>
<text text-anchor="start" x="53.2" y="-616.8" font-family="Arial" font-size="14.00">lower_type </text>
<text text-anchor="start" x="124.79" y="-616.8" font-family="Arial" font-size="14.00" fill="#666666">[bound_limit_type]</text>
<polygon fill="none" stroke="black" points="46.2,-573.8 46.2,-604.6 404.13,-604.6 404.13,-573.8 46.2,-573.8"/>
<text text-anchor="start" x="53.2" y="-586" font-family="Arial" font-size="14.00">lower_value </text>
<text text-anchor="start" x="131.8" y="-586" font-family="Arial" font-size="14.00" fill="#666666">[bigint]</text>
<polygon fill="none" stroke="black" points="46.2,-543 46.2,-573.8 404.13,-573.8 404.13,-543 46.2,-543"/>
<text text-anchor="start" x="53.2" y="-555.2" font-family="Arial" font-size="14.00">lower_denominator </text>
<text text-anchor="start" x="176.16" y="-555.2" font-family="Arial" font-size="14.00" fill="#666666">[bigint]</text>
<polygon fill="none" stroke="black" points="46.2,-512.2 46.2,-543 404.13,-543 404.13,-512.2 46.2,-512.2"/>
<text text-anchor="start" x="53.2" y="-524.4" font-family="Arial" font-size="14.00">higher_type </text>
<text text-anchor="start" x="130.25" y="-524.4" font-family="Arial" font-size="14.00" fill="#666666">[bound_limit_type]</text>
<polygon fill="none" stroke="black" points="46.2,-481.4 46.2,-512.2 404.13,-512.2 404.13,-481.4 46.2,-481.4"/>
<text text-anchor="start" x="53.2" y="-493.6" font-family="Arial" font-size="14.00">higher_value </text>
<text text-anchor="start" x="137.26" y="-493.6" font-family="Arial" font-size="14.00" fill="#666666">[bigint]</text>
<polygon fill="none" stroke="black" points="46.2,-450.6 46.2,-481.4 404.13,-481.4 404.13,-450.6 46.2,-450.6"/>
<text text-anchor="start" x="53.2" y="-462.8" font-family="Arial" font-size="14.00">higher_denominator </text>
<text text-anchor="start" x="181.62" y="-462.8" font-family="Arial" font-size="14.00" fill="#666666">[bigint]</text>
<polygon fill="none" stroke="black" points="46.2,-419.8 46.2,-450.6 404.13,-450.6 404.13,-419.8 46.2,-419.8"/>
<text text-anchor="start" x="53.2" y="-432" font-family="Arial" font-size="14.00">units </text>
<text text-anchor="start" x="86.66" y="-432" font-family="Arial" font-size="14.00" fill="#666666">[text]</text>
<polygon fill="none" stroke="black" points="46.2,-389 46.2,-419.8 404.13,-419.8 404.13,-389 46.2,-389"/>
<text text-anchor="start" x="53.2" y="-401.2" font-family="Arial" font-size="14.00">precision </text>
<text text-anchor="start" x="113.12" y="-401.2" font-family="Arial" font-size="14.00" fill="#666666">[numeric]</text>
<polygon fill="none" stroke="black" stroke-width="3" points="44.7,-387.5 44.7,-734.1 405.63,-734.1 405.63,-387.5 44.7,-387.5"/>
</g>
<!-- public.data_type_atomic -->
<g id="node2" class="node">
<title>public.data_type_atomic</title>
<polygon fill="#efefef" stroke="none" points="67.2,-228 67.2,-263.6 383.13,-263.6 383.13,-228 67.2,-228"/>
<polygon fill="none" stroke="black" points="67.2,-228 67.2,-263.6 383.13,-263.6 383.13,-228 67.2,-228"/>
<text text-anchor="start" x="74.2" y="-241.4" font-family="Arial Bold" font-size="18.00">public.data_type_atomic</text>
<text text-anchor="start" x="251.64" y="-241.4" font-family="Arial" font-size="14.00">    </text>
<text text-anchor="start" x="282.76" y="-241.4" font-family="Arial" font-size="14.00" fill="#666666">[BASE TABLE]</text>
<polygon fill="none" stroke="black" points="67.2,-197.2 67.2,-228 383.13,-228 383.13,-197.2 67.2,-197.2"/>
<text text-anchor="start" x="74.2" y="-209.4" font-family="Arial" font-size="14.00">model_key </text>
<text text-anchor="start" x="145.79" y="-209.4" font-family="Arial" font-size="14.00" fill="#666666">[text]</text>
<polygon fill="none" stroke="black" points="67.2,-166.4 67.2,-197.2 383.13,-197.2 383.13,-166.4 67.2,-166.4"/>
<text text-anchor="start" x="74.2" y="-178.6" font-family="Arial" font-size="14.00">data_type_key </text>
<text text-anchor="start" x="169.16" y="-178.6" font-family="Arial" font-size="14.00" fill="#666666">[text]</text>
<polygon fill="none" stroke="black" points="67.2,-135.6 67.2,-166.4 383.13,-166.4 383.13,-135.6 67.2,-135.6"/>
<text text-anchor="start" x="74.2" y="-147.8" font-family="Arial" font-size="14.00">constraint_type </text>
<text text-anchor="start" x="173.03" y="-147.8" font-family="Arial" font-size="14.00" fill="#666666">[constraint_type]</text>
<polygon fill="none" stroke="black" points="67.2,-104.8 67.2,-135.6 383.13,-135.6 383.13,-104.8 67.2,-104.8"/>
<text text-anchor="start" x="74.2" y="-117" font-family="Arial" font-size="14.00">reference </text>
<text text-anchor="start" x="137.23" y="-117" font-family="Arial" font-size="14.00" fill="#666666">[text]</text>
<polygon fill="none" stroke="black" points="67.2,-74 67.2,-104.8 383.13,-104.8 383.13,-74 67.2,-74"/>
<text text-anchor="start" x="74.2" y="-86.2" font-family="Arial" font-size="14.00">enum_ordered </text>
<text text-anchor="start" x="169.15" y="-86.2" font-family="Arial" font-size="14.00" fill="#666666">[boolean]</text>
<polygon fill="none" stroke="black" points="67.2,-43.2 67.2,-74 383.13,-74 383.13,-43.2 67.2,-43.2"/>
<text text-anchor="start" x="74.2" y="-55.4" font-family="Arial" font-size="14.00">object_class_key </text>
<text text-anchor="start" x="184.7" y="-55.4" font-family="Arial" font-size="14.00" fill="#666666">[text]</text>
</g>
<!-- public.data_type_atomic_span&#45;&gt;public.data_type_atomic -->
<g id="edge1" class="edge">
<title>public.data_type_atomic_span:model_key&#45;&gt;public.data_type_atomic:model_key</title>
<path fill="none" stroke="black" d="M415.39,-679.99C507.92,-650.09 484.89,-212.6 384.13,-212.6"/>
<polygon fill="black" stroke="black" points="415.34,-680 404.76,-677.1 410.07,-680.83 405.79,-681.5 405.79,-681.5 405.79,-681.5 410.07,-680.83 406.15,-685.99 415.34,-680"/>
<text text-anchor="start" x="412.13" y="-691.6" font-family="Arial" font-size="10.00">FOREIGN KEY (model_key, data_type_key) REFERENCES data_type_atomic(model_key, data_type_key) ON DELETE CASCADE</text>
</g>
</g>
</svg>
