<?xml version="1.0" encoding="UTF-8" standalone="no"?>
<!DOCTYPE svg PUBLIC "-//W3C//DTD SVG 1.1//EN"
 "http://www.w3.org/Graphics/SVG/1.1/DTD/svg11.dtd">
<!-- Generated by graphviz version 12.1.2 (20240928.0832)
 -->
<!-- Title: public.query Pages: 1 -->
<svg width="1754pt" height="1314pt"
 viewBox="0.00 0.00 1754.26 1314.40" xmlns="http://www.w3.org/2000/svg" xmlns:xlink="http://www.w3.org/1999/xlink">
<g id="graph0" class="graph" transform="scale(1 1) rotate(0) translate(4 1310.4)">
<title>public.query</title>
<polygon fill="white" stroke="none" points="-4,4 -4,-1310.4 1750.26,-1310.4 1750.26,4 -4,4"/>
<!-- public.query -->
<g id="node1" class="node">
<title>public.query</title>
<polygon fill="#efefef" stroke="none" points="842.61,-635.4 842.61,-671 1071.57,-671 1071.57,-635.4 842.61,-635.4"/>
<polygon fill="none" stroke="black" points="842.61,-635.4 842.61,-671 1071.57,-671 1071.57,-635.4 842.61,-635.4"/>
<text text-anchor="start" x="849.61" y="-648.8" font-family="Arial Bold" font-size="18.00">public.query</text>
<text text-anchor="start" x="940.08" y="-648.8" font-family="Arial" font-size="14.00">    </text>
<text text-anchor="start" x="971.2" y="-648.8" font-family="Arial" font-size="14.00" fill="#666666">[BASE TABLE]</text>
<polygon fill="none" stroke="black" points="842.61,-604.6 842.61,-635.4 1071.57,-635.4 1071.57,-604.6 842.61,-604.6"/>
<text text-anchor="start" x="849.61" y="-616.8" font-family="Arial" font-size="14.00">model_key </text>
<text text-anchor="start" x="921.2" y="-616.8" font-family="Arial" font-size="14.00" fill="#666666">[text]</text>
<polygon fill="none" stroke="black" points="842.61,-573.8 842.61,-604.6 1071.57,-604.6 1071.57,-573.8 842.61,-573.8"/>
<text text-anchor="start" x="849.61" y="-586" font-family="Arial" font-size="14.00">class_key </text>
<text text-anchor="start" x="914.97" y="-586" font-family="Arial" font-size="14.00" fill="#666666">[text]</text>
<polygon fill="none" stroke="black" points="842.61,-543 842.61,-573.8 1071.57,-573.8 1071.57,-543 842.61,-543"/>
<text text-anchor="start" x="849.61" y="-555.2" font-family="Arial" font-size="14.00">query_key </text>
<text text-anchor="start" x="918.09" y="-555.2" font-family="Arial" font-size="14.00" fill="#666666">[text]</text>
<polygon fill="none" stroke="black" points="842.61,-512.2 842.61,-543 1071.57,-543 1071.57,-512.2 842.61,-512.2"/>
<text text-anchor="start" x="849.61" y="-524.4" font-family="Arial" font-size="14.00">name </text>
<text text-anchor="start" x="888.52" y="-524.4" font-family="Arial" font-size="14.00" fill="#666666">[text]</text>
<polygon fill="none" stroke="black" points="842.61,-481.4 842.61,-512.2 1071.57,-512.2 1071.57,-481.4 842.61,-481.4"/>
<text text-anchor="start" x="849.61" y="-493.6" font-family="Arial" font-size="14.00">details </text>
<text text-anchor="start" x="893.97" y="-493.6" font-family="Arial" font-size="14.00" fill="#666666">[text]</text>
<polygon fill="none" stroke="black" stroke-width="3" points="841.11,-479.9 841.11,-672.5 1073.07,-672.5 1073.07,-479.9 841.11,-479.9"/>
</g>
<!-- public.class -->
<g id="node2" class="node">
<title>public.class</title>
<polygon fill="#efefef" stroke="none" points="845.61,-320.4 845.61,-356 1068.58,-356 1068.58,-320.4 845.61,-320.4"/>
<polygon fill="none" stroke="black" points="845.61,-320.4 845.61,-356 1068.58,-356 1068.58,-320.4 845.61,-320.4"/>
<text text-anchor="start" x="852.61" y="-333.8" font-family="Arial Bold" font-size="18.00">public.class</text>
<text text-anchor="start" x="937.09" y="-333.8" font-family="Arial" font-size="14.00">    </text>
<text text-anchor="start" x="968.21" y="-333.8" font-family="Arial" font-size="14.00" fill="#666666">[BASE TABLE]</text>
<polygon fill="none" stroke="black" points="845.61,-289.6 845.61,-320.4 1068.58,-320.4 1068.58,-289.6 845.61,-289.6"/>
<text text-anchor="start" x="852.61" y="-301.8" font-family="Arial" font-size="14.00">model_key </text>
<text text-anchor="start" x="924.2" y="-301.8" font-family="Arial" font-size="14.00" fill="#666666">[text]</text>
<polygon fill="none" stroke="black" points="845.61,-258.8 845.61,-289.6 1068.58,-289.6 1068.58,-258.8 845.61,-258.8"/>
<text text-anchor="start" x="852.61" y="-271" font-family="Arial" font-size="14.00">class_key </text>
<text text-anchor="start" x="917.97" y="-271" font-family="Arial" font-size="14.00" fill="#666666">[text]</text>
<polygon fill="none" stroke="black" points="845.61,-228 845.61,-258.8 1068.58,-258.8 1068.58,-228 845.61,-228"/>
<text text-anchor="start" x="852.61" y="-240.2" font-family="Arial" font-size="14.00">name </text>
<text text-anchor="start" x="891.52" y="-240.2" font-family="Arial" font-size="14.00" fill="#666666">[text]</text>
<polygon fill="none" stroke="black" points="845.61,-197.2 845.61,-228 1068.58,-228 1068.58,-197.2 845.61,-197.2"/>
<text text-anchor="start" x="852.61" y="-209.4" font-family="Arial" font-size="14.00">subdomain_key </text>
<text text-anchor="start" x="954.56" y="-209.4" font-family="Arial" font-size="14.00" fill="#666666">[text]</text>
<polygon fill="none" stroke="black" points="845.61,-166.4 845.61,-197.2 1068.58,-197.2 1068.58,-166.4 845.61,-166.4"/>
<text text-anchor="start" x="852.61" y="-178.6" font-family="Arial" font-size="14.00">actor_key </text>
<text text-anchor="start" x="917.19" y="-178.6" font-family="Arial" font-size="14.00" fill="#666666">[text]</text>
<polygon fill="none" stroke="black" points="845.61,-135.6 845.61,-166.4 1068.58,-166.4 1068.58,-135.6 845.61,-135.6"/>
<text text-anchor="start" x="852.61" y="-147.8" font-family="Arial" font-size="14.00">superclass_of_key </text>
<text text-anchor="start" x="972.45" y="-147.8" font-family="Arial" font-size="14.00" fill="#666666">[text]</text>
<polygon fill="none" stroke="black" points="845.61,-104.8 845.61,-135.6 1068.58,-135.6 1068.58,-104.8 845.61,-104.8"/>
<text text-anchor="start" x="852.61" y="-117" font-family="Arial" font-size="14.00">subclass_of_key </text>
<text text-anchor="start" x="960" y="-117" font-family="Arial" font-size="14.00" fill="#666666">[text]</text>
<polygon fill="none" stroke="black" points="845.61,-74 845.61,-104.8 1068.58,-104.8 1068.58,-74 845.61,-74"/>
<text text-anchor="start" x="852.61" y="-86.2" font-family="Arial" font-size="14.00">details </text>
<text text-anchor="start" x="896.97" y="-86.2" font-family="Arial" font-size="14.00" fill="#666666">[text]</text>
<polygon fill="none" stroke="black" points="845.61,-43.2 845.61,-74 1068.58,-74 1068.58,-43.2 845.61,-43.2"/>
<text text-anchor="start" x="852.61" y="-55.4" font-family="Arial" font-size="14.00">uml_comment </text>
<text text-anchor="start" x="944.41" y="-55.4" font-family="Arial" font-size="14.00" fill="#666666">[text]</text>
</g>
<!-- public.query&#45;&gt;public.class -->
<g id="edge1" class="edge">
<title>public.query:model_key&#45;&gt;public.class:model_key</title>
<path fill="none" stroke="black" d="M1082.96,-619.4C1212.34,-604.21 1206.03,-305 1069.58,-305"/>
<polygon fill="black" stroke="black" points="1082.89,-619.41 1072.65,-615.49 1077.57,-619.71 1073.24,-619.96 1073.24,-619.96 1073.24,-619.96 1077.57,-619.71 1073.17,-624.47 1082.89,-619.41"/>
<text text-anchor="start" x="1079.57" y="-630" font-family="Arial" font-size="10.00">FOREIGN KEY (model_key, class_key) REFERENCES class(model_key, class_key) ON DELETE CASCADE</text>
</g>
<!-- public.query_parameter -->
<g id="node3" class="node">
<title>public.query_parameter</title>
<polygon fill="#efefef" stroke="none" points="197.14,-1119.8 197.14,-1155.4 507.05,-1155.4 507.05,-1119.8 197.14,-1119.8"/>
<polygon fill="none" stroke="black" points="197.14,-1119.8 197.14,-1155.4 507.05,-1155.4 507.05,-1119.8 197.14,-1119.8"/>
<text text-anchor="start" x="204.14" y="-1133.2" font-family="Arial Bold" font-size="18.00">public.query_parameter</text>
<text text-anchor="start" x="375.56" y="-1133.2" font-family="Arial" font-size="14.00">    </text>
<text text-anchor="start" x="406.68" y="-1133.2" font-family="Arial" font-size="14.00" fill="#666666">[BASE TABLE]</text>
<polygon fill="none" stroke="black" points="197.14,-1089 197.14,-1119.8 507.05,-1119.8 507.05,-1089 197.14,-1089"/>
<text text-anchor="start" x="204.14" y="-1101.2" font-family="Arial" font-size="14.00">model_key </text>
<text text-anchor="start" x="275.73" y="-1101.2" font-family="Arial" font-size="14.00" fill="#666666">[text]</text>
<polygon fill="none" stroke="black" points="197.14,-1058.2 197.14,-1089 507.05,-1089 507.05,-1058.2 197.14,-1058.2"/>
<text text-anchor="start" x="204.14" y="-1070.4" font-family="Arial" font-size="14.00">query_key </text>
<text text-anchor="start" x="272.62" y="-1070.4" font-family="Arial" font-size="14.00" fill="#666666">[text]</text>
<polygon fill="none" stroke="black" points="197.14,-1027.4 197.14,-1058.2 507.05,-1058.2 507.05,-1027.4 197.14,-1027.4"/>
<text text-anchor="start" x="204.14" y="-1039.6" font-family="Arial" font-size="14.00">parameter_key </text>
<text text-anchor="start" x="301.41" y="-1039.6" font-family="Arial" font-size="14.00" fill="#666666">[text]</text>
<polygon fill="none" stroke="black" points="197.14,-996.6 197.14,-1027.4 507.05,-1027.4 507.05,-996.6 197.14,-996.6"/>
<text text-anchor="start" x="204.14" y="-1008.8" font-family="Arial" font-size="14.00">name </text>
<text text-anchor="start" x="243.05" y="-1008.8" font-family="Arial" font-size="14.00" fill="#666666">[text]</text>
<polygon fill="none" stroke="black" points="197.14,-965.8 197.14,-996.6 507.05,-996.6 507.05,-965.8 197.14,-965.8"/>
<text text-anchor="start" x="204.14" y="-978" font-family="Arial" font-size="14.00">sort_order </text>
<text text-anchor="start" x="271.83" y="-978" font-family="Arial" font-size="14.00" fill="#666666">[integer]</text>
<polygon fill="none" stroke="black" points="197.14,-935 197.14,-965.8 507.05,-965.8 507.05,-935 197.14,-935"/>
<text text-anchor="start" x="204.14" y="-947.2" font-family="Arial" font-size="14.00">data_type_rules </text>
<text text-anchor="start" x="307.65" y="-947.2" font-family="Arial" font-size="14.00" fill="#666666">[text]</text>
<polygon fill="none" stroke="black" points="197.14,-904.2 197.14,-935 507.05,-935 507.05,-904.2 197.14,-904.2"/>
<text text-anchor="start" x="204.14" y="-916.4" font-family="Arial" font-size="14.00">data_type_key </text>
<text text-anchor="start" x="299.09" y="-916.4" font-family="Arial" font-size="14.00" fill="#666666">[text]</text>
</g>
<!-- public.query_parameter&#45;&gt;public.query -->
<g id="edge2" class="edge">
<title>public.query_parameter:model_key&#45;&gt;public.query:model_key</title>
<path fill="none" stroke="black" d="M518.15,-1102.56C580.17,-1077.91 514.37,-813.61 559.09,-753.2 641.69,-641.63 702.79,-620 841.61,-620"/>
<polygon fill="black" stroke="black" points="518.21,-1102.54 507.57,-1099.91 512.97,-1103.5 508.71,-1104.28 508.71,-1104.28 508.71,-1104.28 512.97,-1103.5 509.18,-1108.77 518.21,-1102.54"/>
<text text-anchor="start" x="7" y="-1114.4" font-family="Arial" font-size="10.00">FOREIGN KEY (model_key, query_key) REFERENCES query(model_key, query_key) ON DELETE CASCADE</text>
</g>
<!-- public.query_require -->
<g id="node4" class="node">
<title>public.query_require</title>
<polygon fill="#efefef" stroke="none" points="611.63,-1058.2 611.63,-1093.8 900.56,-1093.8 900.56,-1058.2 611.63,-1058.2"/>
<polygon fill="none" stroke="black" points="611.63,-1058.2 611.63,-1093.8 900.56,-1093.8 900.56,-1058.2 611.63,-1058.2"/>
<text text-anchor="start" x="618.63" y="-1071.6" font-family="Arial Bold" font-size="18.00">public.query_require</text>
<text text-anchor="start" x="769.07" y="-1071.6" font-family="Arial" font-size="14.00">    </text>
<text text-anchor="start" x="800.19" y="-1071.6" font-family="Arial" font-size="14.00" fill="#666666">[BASE TABLE]</text>
<polygon fill="none" stroke="black" points="611.63,-1027.4 611.63,-1058.2 900.56,-1058.2 900.56,-1027.4 611.63,-1027.4"/>
<text text-anchor="start" x="618.63" y="-1039.6" font-family="Arial" font-size="14.00">model_key </text>
<text text-anchor="start" x="690.22" y="-1039.6" font-family="Arial" font-size="14.00" fill="#666666">[text]</text>
<polygon fill="none" stroke="black" points="611.63,-996.6 611.63,-1027.4 900.56,-1027.4 900.56,-996.6 611.63,-996.6"/>
<text text-anchor="start" x="618.63" y="-1008.8" font-family="Arial" font-size="14.00">query_key </text>
<text text-anchor="start" x="687.11" y="-1008.8" font-family="Arial" font-size="14.00" fill="#666666">[text]</text>
<polygon fill="none" stroke="black" points="611.63,-965.8 611.63,-996.6 900.56,-996.6 900.56,-965.8 611.63,-965.8"/>
<text text-anchor="start" x="618.63" y="-978" font-family="Arial" font-size="14.00">logic_key </text>
<text text-anchor="start" x="680.88" y="-978" font-family="Arial" font-size="14.00" fill="#666666">[text]</text>
</g>
<!-- public.query_require&#45;&gt;public.query -->
<g id="edge3" class="edge">
<title>public.query_require:model_key&#45;&gt;public.query:model_key</title>
<path fill="none" stroke="black" d="M911.97,-1042.32C1074.42,-1026.45 655.53,-620 841.61,-620"/>
<polygon fill="black" stroke="black" points="911.88,-1042.33 901.69,-1038.29 906.55,-1042.57 902.23,-1042.77 902.23,-1042.77 902.23,-1042.77 906.55,-1042.57 902.1,-1047.28 911.88,-1042.33"/>
<text text-anchor="start" x="908.56" y="-1052.8" font-family="Arial" font-size="10.00">FOREIGN KEY (model_key, query_key) REFERENCES query(model_key, query_key) ON DELETE CASCADE</text>
</g>
<!-- public.query_guarantee -->
<g id="node5" class="node">
<title>public.query_guarantee</title>
<polygon fill="#efefef" stroke="none" points="1005.13,-1058.2 1005.13,-1093.8 1313.05,-1093.8 1313.05,-1058.2 1005.13,-1058.2"/>
<polygon fill="none" stroke="black" points="1005.13,-1058.2 1005.13,-1093.8 1313.05,-1093.8 1313.05,-1058.2 1005.13,-1058.2"/>
<text text-anchor="start" x="1012.13" y="-1071.6" font-family="Arial Bold" font-size="18.00">public.query_guarantee</text>
<text text-anchor="start" x="1181.56" y="-1071.6" font-family="Arial" font-size="14.00">    </text>
<text text-anchor="start" x="1212.68" y="-1071.6" font-family="Arial" font-size="14.00" fill="#666666">[BASE TABLE]</text>
<polygon fill="none" stroke="black" points="1005.13,-1027.4 1005.13,-1058.2 1313.05,-1058.2 1313.05,-1027.4 1005.13,-1027.4"/>
<text text-anchor="start" x="1012.13" y="-1039.6" font-family="Arial" font-size="14.00">model_key </text>
<text text-anchor="start" x="1083.73" y="-1039.6" font-family="Arial" font-size="14.00" fill="#666666">[text]</text>
<polygon fill="none" stroke="black" points="1005.13,-996.6 1005.13,-1027.4 1313.05,-1027.4 1313.05,-996.6 1005.13,-996.6"/>
<text text-anchor="start" x="1012.13" y="-1008.8" font-family="Arial" font-size="14.00">query_key </text>
<text text-anchor="start" x="1080.62" y="-1008.8" font-family="Arial" font-size="14.00" fill="#666666">[text]</text>
<polygon fill="none" stroke="black" points="1005.13,-965.8 1005.13,-996.6 1313.05,-996.6 1313.05,-965.8 1005.13,-965.8"/>
<text text-anchor="start" x="1012.13" y="-978" font-family="Arial" font-size="14.00">logic_key </text>
<text text-anchor="start" x="1074.39" y="-978" font-family="Arial" font-size="14.00" fill="#666666">[text]</text>
</g>
<!-- public.query_guarantee&#45;&gt;public.query -->
<g id="edge4" class="edge">
<title>public.query_guarantee:model_key&#45;&gt;public.query:model_key</title>
<path fill="none" stroke="black" d="M994.19,-1042.37C830.22,-1027.26 1259.4,-620 1072.57,-620"/>
<polygon fill="black" stroke="black" points="993.81,-1042.35 1003.61,-1047.28 999.14,-1042.58 1003.47,-1042.77 1003.47,-1042.77 1003.47,-1042.77 999.14,-1042.58 1004,-1038.29 993.81,-1042.35"/>
<text text-anchor="start" x="1011.13" y="-1026.8" font-family="Arial" font-size="10.00">FOREIGN KEY (model_key, query_key) REFERENCES query(model_key, query_key) ON DELETE CASCADE</text>
</g>
<!-- public.scenario_step -->
<g id="node6" class="node">
<title>public.scenario_step</title>
<polygon fill="#efefef" stroke="none" points="1417.12,-1227.6 1417.12,-1263.2 1703.06,-1263.2 1703.06,-1227.6 1417.12,-1227.6"/>
<polygon fill="none" stroke="black" points="1417.12,-1227.6 1417.12,-1263.2 1703.06,-1263.2 1703.06,-1227.6 1417.12,-1227.6"/>
<text text-anchor="start" x="1424.12" y="-1241" font-family="Arial Bold" font-size="18.00">public.scenario_step</text>
<text text-anchor="start" x="1571.57" y="-1241" font-family="Arial" font-size="14.00">    </text>
<text text-anchor="start" x="1602.69" y="-1241" font-family="Arial" font-size="14.00" fill="#666666">[BASE TABLE]</text>
<polygon fill="none" stroke="black" points="1417.12,-1196.8 1417.12,-1227.6 1703.06,-1227.6 1703.06,-1196.8 1417.12,-1196.8"/>
<text text-anchor="start" x="1424.12" y="-1209" font-family="Arial" font-size="14.00">model_key </text>
<text text-anchor="start" x="1495.71" y="-1209" font-family="Arial" font-size="14.00" fill="#666666">[text]</text>
<polygon fill="none" stroke="black" points="1417.12,-1166 1417.12,-1196.8 1703.06,-1196.8 1703.06,-1166 1417.12,-1166"/>
<text text-anchor="start" x="1424.12" y="-1178.2" font-family="Arial" font-size="14.00">scenario_step_key </text>
<text text-anchor="start" x="1544.75" y="-1178.2" font-family="Arial" font-size="14.00" fill="#666666">[text]</text>
<polygon fill="none" stroke="black" points="1417.12,-1135.2 1417.12,-1166 1703.06,-1166 1703.06,-1135.2 1417.12,-1135.2"/>
<text text-anchor="start" x="1424.12" y="-1147.4" font-family="Arial" font-size="14.00">scenario_key </text>
<text text-anchor="start" x="1510.5" y="-1147.4" font-family="Arial" font-size="14.00" fill="#666666">[text]</text>
<polygon fill="none" stroke="black" points="1417.12,-1104.4 1417.12,-1135.2 1703.06,-1135.2 1703.06,-1104.4 1417.12,-1104.4"/>
<text text-anchor="start" x="1424.12" y="-1116.6" font-family="Arial" font-size="14.00">parent_step_key </text>
<text text-anchor="start" x="1531.53" y="-1116.6" font-family="Arial" font-size="14.00" fill="#666666">[text]</text>
<polygon fill="none" stroke="black" points="1417.12,-1073.6 1417.12,-1104.4 1703.06,-1104.4 1703.06,-1073.6 1417.12,-1073.6"/>
<text text-anchor="start" x="1424.12" y="-1085.8" font-family="Arial" font-size="14.00">sort_order </text>
<text text-anchor="start" x="1491.82" y="-1085.8" font-family="Arial" font-size="14.00" fill="#666666">[integer]</text>
<polygon fill="none" stroke="black" points="1417.12,-1042.8 1417.12,-1073.6 1703.06,-1073.6 1703.06,-1042.8 1417.12,-1042.8"/>
<text text-anchor="start" x="1424.12" y="-1055" font-family="Arial" font-size="14.00">step_type </text>
<text text-anchor="start" x="1488.72" y="-1055" font-family="Arial" font-size="14.00" fill="#666666">[step_type]</text>
<polygon fill="none" stroke="black" points="1417.12,-1012 1417.12,-1042.8 1703.06,-1042.8 1703.06,-1012 1417.12,-1012"/>
<text text-anchor="start" x="1424.12" y="-1024.2" font-family="Arial" font-size="14.00">leaf_type </text>
<text text-anchor="start" x="1484.83" y="-1024.2" font-family="Arial" font-size="14.00" fill="#666666">[leaf_type]</text>
<polygon fill="none" stroke="black" points="1417.12,-981.2 1417.12,-1012 1703.06,-1012 1703.06,-981.2 1417.12,-981.2"/>
<text text-anchor="start" x="1424.12" y="-993.4" font-family="Arial" font-size="14.00">condition </text>
<text text-anchor="start" x="1484.05" y="-993.4" font-family="Arial" font-size="14.00" fill="#666666">[text]</text>
<polygon fill="none" stroke="black" points="1417.12,-950.4 1417.12,-981.2 1703.06,-981.2 1703.06,-950.4 1417.12,-950.4"/>
<text text-anchor="start" x="1424.12" y="-962.6" font-family="Arial" font-size="14.00">description </text>
<text text-anchor="start" x="1495.71" y="-962.6" font-family="Arial" font-size="14.00" fill="#666666">[text]</text>
<polygon fill="none" stroke="black" points="1417.12,-919.6 1417.12,-950.4 1703.06,-950.4 1703.06,-919.6 1417.12,-919.6"/>
<text text-anchor="start" x="1424.12" y="-931.8" font-family="Arial" font-size="14.00">from_object_key </text>
<text text-anchor="start" x="1530.73" y="-931.8" font-family="Arial" font-size="14.00" fill="#666666">[text]</text>
<polygon fill="none" stroke="black" points="1417.12,-888.8 1417.12,-919.6 1703.06,-919.6 1703.06,-888.8 1417.12,-888.8"/>
<text text-anchor="start" x="1424.12" y="-901" font-family="Arial" font-size="14.00">to_object_key </text>
<text text-anchor="start" x="1514.4" y="-901" font-family="Arial" font-size="14.00" fill="#666666">[text]</text>
<polygon fill="none" stroke="black" points="1417.12,-858 1417.12,-888.8 1703.06,-888.8 1703.06,-858 1417.12,-858"/>
<text text-anchor="start" x="1424.12" y="-870.2" font-family="Arial" font-size="14.00">event_key </text>
<text text-anchor="start" x="1491.83" y="-870.2" font-family="Arial" font-size="14.00" fill="#666666">[text]</text>
<polygon fill="none" stroke="black" points="1417.12,-827.2 1417.12,-858 1703.06,-858 1703.06,-827.2 1417.12,-827.2"/>
<text text-anchor="start" x="1424.12" y="-839.4" font-family="Arial" font-size="14.00">query_key </text>
<text text-anchor="start" x="1492.6" y="-839.4" font-family="Arial" font-size="14.00" fill="#666666">[text]</text>
<polygon fill="none" stroke="black" points="1417.12,-796.4 1417.12,-827.2 1703.06,-827.2 1703.06,-796.4 1417.12,-796.4"/>
<text text-anchor="start" x="1424.12" y="-808.6" font-family="Arial" font-size="14.00">scenario_ref_key </text>
<text text-anchor="start" x="1534.62" y="-808.6" font-family="Arial" font-size="14.00" fill="#666666">[text]</text>
</g>
<!-- public.scenario_step&#45;&gt;public.query -->
<g id="edge5" class="edge">
<title>public.scenario_step:model_key&#45;&gt;public.query:model_key</title>
<path fill="none" stroke="black" d="M1405.82,-1210.76C1321.35,-1185.42 1423.14,-833.3 1365.09,-753.2 1281.27,-637.53 1215.43,-620 1072.57,-620"/>
<polygon fill="black" stroke="black" points="1405.89,-1210.77 1415.17,-1216.61 1411.17,-1211.51 1415.46,-1212.11 1415.46,-1212.11 1415.46,-1212.11 1411.17,-1211.51 1416.41,-1207.7 1405.89,-1210.77"/>
<text text-anchor="start" x="915.07" y="-1222.2" font-family="Arial" font-size="10.00">FOREIGN KEY (model_key, query_key) REFERENCES query(model_key, query_key) ON DELETE CASCADE</text>
</g>
</g>
</svg>
