<?xml version="1.0" encoding="UTF-8" standalone="no"?>
<!DOCTYPE svg PUBLIC "-//W3C//DTD SVG 1.1//EN"
 "http://www.w3.org/Graphics/SVG/1.1/DTD/svg11.dtd">
<!-- Generated by graphviz version 12.1.2 (20240928.0832)
 -->
<!-- Title: public.data_type_atomic Pages: 1 -->
<svg width="1507pt" height="787pt"
 viewBox="0.00 0.00 1506.60 786.80" xmlns="http://www.w3.org/2000/svg" xmlns:xlink="http://www.w3.org/1999/xlink">
<g id="graph0" class="graph" transform="scale(1 1) rotate(0) translate(4 782.8)">
<title>public.data_type_atomic</title>
<polygon fill="white" stroke="none" points="-4,4 -4,-782.8 1502.6,-782.8 1502.6,4 -4,4"/>
<!-- public.data_type_atomic -->
<g id="node1" class="node">
<title>public.data_type_atomic</title>
<polygon fill="#efefef" stroke="none" points="554.2,-261.8 554.2,-297.4 870.13,-297.4 870.13,-261.8 554.2,-261.8"/>
<polygon fill="none" stroke="black" points="554.2,-261.8 554.2,-297.4 870.13,-297.4 870.13,-261.8 554.2,-261.8"/>
<text text-anchor="start" x="561.2" y="-275.2" font-family="Arial Bold" font-size="18.00">public.data_type_atomic</text>
<text text-anchor="start" x="738.64" y="-275.2" font-family="Arial" font-size="14.00">    </text>
<text text-anchor="start" x="769.76" y="-275.2" font-family="Arial" font-size="14.00" fill="#666666">[BASE TABLE]</text>
<polygon fill="none" stroke="black" points="554.2,-231 554.2,-261.8 870.13,-261.8 870.13,-231 554.2,-231"/>
<text text-anchor="start" x="561.2" y="-243.2" font-family="Arial" font-size="14.00">data_type_id </text>
<text text-anchor="start" x="645.27" y="-243.2" font-family="Arial" font-size="14.00" fill="#666666">[integer]</text>
<polygon fill="none" stroke="black" points="554.2,-200.2 554.2,-231 870.13,-231 870.13,-200.2 554.2,-200.2"/>
<text text-anchor="start" x="561.2" y="-212.4" font-family="Arial" font-size="14.00">constraint_type </text>
<text text-anchor="start" x="660.03" y="-212.4" font-family="Arial" font-size="14.00" fill="#666666">[constraint_type]</text>
<polygon fill="none" stroke="black" points="554.2,-169.4 554.2,-200.2 870.13,-200.2 870.13,-169.4 554.2,-169.4"/>
<text text-anchor="start" x="561.2" y="-181.6" font-family="Arial" font-size="14.00">reference </text>
<text text-anchor="start" x="624.23" y="-181.6" font-family="Arial" font-size="14.00" fill="#666666">[text]</text>
<polygon fill="none" stroke="black" points="554.2,-138.6 554.2,-169.4 870.13,-169.4 870.13,-138.6 554.2,-138.6"/>
<text text-anchor="start" x="561.2" y="-150.8" font-family="Arial" font-size="14.00">enum_ordered </text>
<text text-anchor="start" x="656.15" y="-150.8" font-family="Arial" font-size="14.00" fill="#666666">[boolean]</text>
<polygon fill="none" stroke="black" points="554.2,-107.8 554.2,-138.6 870.13,-138.6 870.13,-107.8 554.2,-107.8"/>
<text text-anchor="start" x="561.2" y="-120" font-family="Arial" font-size="14.00">object_class_key </text>
<text text-anchor="start" x="671.7" y="-120" font-family="Arial" font-size="14.00" fill="#666666">[text]</text>
<polygon fill="none" stroke="black" points="554.2,-77 554.2,-107.8 870.13,-107.8 870.13,-77 554.2,-77"/>
<text text-anchor="start" x="561.2" y="-89.2" font-family="Arial" font-size="14.00">details </text>
<text text-anchor="start" x="605.56" y="-89.2" font-family="Arial" font-size="14.00" fill="#666666">[text]</text>
<polygon fill="none" stroke="black" points="554.2,-46.2 554.2,-77 870.13,-77 870.13,-46.2 554.2,-46.2"/>
<text text-anchor="start" x="561.2" y="-58.4" font-family="Arial" font-size="14.00">uml_comment </text>
<text text-anchor="start" x="653" y="-58.4" font-family="Arial" font-size="14.00" fill="#666666">[text]</text>
<polygon fill="none" stroke="black" stroke-width="3" points="552.7,-44.7 552.7,-298.9 871.63,-298.9 871.63,-44.7 552.7,-44.7"/>
</g>
<!-- public.data_type_atomic_span -->
<g id="node2" class="node">
<title>public.data_type_atomic_span</title>
<polygon fill="#efefef" stroke="none" points="43.2,-700 43.2,-735.6 401.13,-735.6 401.13,-700 43.2,-700"/>
<polygon fill="none" stroke="black" points="43.2,-700 43.2,-735.6 401.13,-735.6 401.13,-700 43.2,-700"/>
<text text-anchor="start" x="50.2" y="-713.4" font-family="Arial Bold" font-size="18.00">public.data_type_atomic_span</text>
<text text-anchor="start" x="269.64" y="-713.4" font-family="Arial" font-size="14.00">    </text>
<text text-anchor="start" x="300.75" y="-713.4" font-family="Arial" font-size="14.00" fill="#666666">[BASE TABLE]</text>
<polygon fill="none" stroke="black" points="43.2,-669.2 43.2,-700 401.13,-700 401.13,-669.2 43.2,-669.2"/>
<text text-anchor="start" x="50.2" y="-681.4" font-family="Arial" font-size="14.00">data_type_id </text>
<text text-anchor="start" x="134.27" y="-681.4" font-family="Arial" font-size="14.00" fill="#666666">[bigint]</text>
<polygon fill="none" stroke="black" points="43.2,-638.4 43.2,-669.2 401.13,-669.2 401.13,-638.4 43.2,-638.4"/>
<text text-anchor="start" x="50.2" y="-650.6" font-family="Arial" font-size="14.00">lower_type </text>
<text text-anchor="start" x="121.79" y="-650.6" font-family="Arial" font-size="14.00" fill="#666666">[bound_limit_type]</text>
<polygon fill="none" stroke="black" points="43.2,-607.6 43.2,-638.4 401.13,-638.4 401.13,-607.6 43.2,-607.6"/>
<text text-anchor="start" x="50.2" y="-619.8" font-family="Arial" font-size="14.00">lower_value </text>
<text text-anchor="start" x="128.8" y="-619.8" font-family="Arial" font-size="14.00" fill="#666666">[bigint]</text>
<polygon fill="none" stroke="black" points="43.2,-576.8 43.2,-607.6 401.13,-607.6 401.13,-576.8 43.2,-576.8"/>
<text text-anchor="start" x="50.2" y="-589" font-family="Arial" font-size="14.00">lower_denominator </text>
<text text-anchor="start" x="173.16" y="-589" font-family="Arial" font-size="14.00" fill="#666666">[bigint]</text>
<polygon fill="none" stroke="black" points="43.2,-546 43.2,-576.8 401.13,-576.8 401.13,-546 43.2,-546"/>
<text text-anchor="start" x="50.2" y="-558.2" font-family="Arial" font-size="14.00">higher_type </text>
<text text-anchor="start" x="127.25" y="-558.2" font-family="Arial" font-size="14.00" fill="#666666">[bound_limit_type]</text>
<polygon fill="none" stroke="black" points="43.2,-515.2 43.2,-546 401.13,-546 401.13,-515.2 43.2,-515.2"/>
<text text-anchor="start" x="50.2" y="-527.4" font-family="Arial" font-size="14.00">higher_value </text>
<text text-anchor="start" x="134.26" y="-527.4" font-family="Arial" font-size="14.00" fill="#666666">[bigint]</text>
<polygon fill="none" stroke="black" points="43.2,-484.4 43.2,-515.2 401.13,-515.2 401.13,-484.4 43.2,-484.4"/>
<text text-anchor="start" x="50.2" y="-496.6" font-family="Arial" font-size="14.00">higher_denominator </text>
<text text-anchor="start" x="178.62" y="-496.6" font-family="Arial" font-size="14.00" fill="#666666">[bigint]</text>
<polygon fill="none" stroke="black" points="43.2,-453.6 43.2,-484.4 401.13,-484.4 401.13,-453.6 43.2,-453.6"/>
<text text-anchor="start" x="50.2" y="-465.8" font-family="Arial" font-size="14.00">units </text>
<text text-anchor="start" x="83.66" y="-465.8" font-family="Arial" font-size="14.00" fill="#666666">[text]</text>
<polygon fill="none" stroke="black" points="43.2,-422.8 43.2,-453.6 401.13,-453.6 401.13,-422.8 43.2,-422.8"/>
<text text-anchor="start" x="50.2" y="-435" font-family="Arial" font-size="14.00">precision </text>
<text text-anchor="start" x="110.12" y="-435" font-family="Arial" font-size="14.00" fill="#666666">[bigint]</text>
</g>
<!-- public.data_type_atomic_span&#45;&gt;public.data_type_atomic -->
<g id="edge1" class="edge">
<title>public.data_type_atomic_span:data_type_id&#45;&gt;public.data_type_atomic:data_type_id</title>
<path fill="none" stroke="black" d="M412.08,-682.64C466.33,-659.59 427.52,-439.43 453.16,-379.6 482.33,-311.55 479.16,-246.4 553.2,-246.4"/>
<polygon fill="black" stroke="black" points="412.27,-682.61 401.59,-680.12 407.03,-683.64 402.78,-684.47 402.78,-684.47 402.78,-684.47 407.03,-683.64 403.32,-688.95 412.27,-682.61"/>
<text text-anchor="start" x="409.13" y="-694.6" font-family="Arial" font-size="10.00">FOREIGN KEY (data_type_id) REFERENCES data_type_atomic(data_type_id) ON DELETE CASCADE</text>
</g>
<!-- public.data_type_atomic_enum_value -->
<g id="node3" class="node">
<title>public.data_type_atomic_enum_value</title>
<polygon fill="#efefef" stroke="none" points="505.71,-607.6 505.71,-643.2 918.61,-643.2 918.61,-607.6 505.71,-607.6"/>
<polygon fill="none" stroke="black" points="505.71,-607.6 505.71,-643.2 918.61,-643.2 918.61,-607.6 505.71,-607.6"/>
<text text-anchor="start" x="512.71" y="-621" font-family="Arial Bold" font-size="18.00">public.data_type_atomic_enum_value</text>
<text text-anchor="start" x="787.12" y="-621" font-family="Arial" font-size="14.00">    </text>
<text text-anchor="start" x="818.24" y="-621" font-family="Arial" font-size="14.00" fill="#666666">[BASE TABLE]</text>
<polygon fill="none" stroke="black" points="505.71,-576.8 505.71,-607.6 918.61,-607.6 918.61,-576.8 505.71,-576.8"/>
<text text-anchor="start" x="512.71" y="-589" font-family="Arial" font-size="14.00">data_type_id </text>
<text text-anchor="start" x="596.78" y="-589" font-family="Arial" font-size="14.00" fill="#666666">[bigint]</text>
<polygon fill="none" stroke="black" points="505.71,-546 505.71,-576.8 918.61,-576.8 918.61,-546 505.71,-546"/>
<text text-anchor="start" x="512.71" y="-558.2" font-family="Arial" font-size="14.00">value </text>
<text text-anchor="start" x="550.07" y="-558.2" font-family="Arial" font-size="14.00" fill="#666666">[text]</text>
<polygon fill="none" stroke="black" points="505.71,-515.2 505.71,-546 918.61,-546 918.61,-515.2 505.71,-515.2"/>
<text text-anchor="start" x="512.71" y="-527.4" font-family="Arial" font-size="14.00">sort_order </text>
<text text-anchor="start" x="580.41" y="-527.4" font-family="Arial" font-size="14.00" fill="#666666">[integer]</text>
</g>
<!-- public.data_type_atomic_enum_value&#45;&gt;public.data_type_atomic -->
<g id="edge2" class="edge">
<title>public.data_type_atomic_enum_value:data_type_id&#45;&gt;public.data_type_atomic:data_type_id</title>
<path fill="none" stroke="black" d="M929.7,-589.99C992.6,-560.54 945.09,-246.4 871.13,-246.4"/>
<polygon fill="black" stroke="black" points="929.71,-589.99 918.98,-587.73 924.5,-591.13 920.27,-592.06 920.27,-592.06 920.27,-592.06 924.5,-591.13 920.9,-596.52 929.71,-589.99"/>
<text text-anchor="start" x="450.21" y="-602.2" font-family="Arial" font-size="10.00">FOREIGN KEY (data_type_id) REFERENCES data_type_atomic(data_type_id) ON DELETE CASCADE</text>
</g>
<!-- public.data_type -->
<g id="node4" class="node">
<title>public.data_type</title>
<polygon fill="#efefef" stroke="none" points="1023.19,-669.2 1023.19,-704.8 1281.14,-704.8 1281.14,-669.2 1023.19,-669.2"/>
<polygon fill="none" stroke="black" points="1023.19,-669.2 1023.19,-704.8 1281.14,-704.8 1281.14,-669.2 1023.19,-669.2"/>
<text text-anchor="start" x="1030.19" y="-682.6" font-family="Arial Bold" font-size="18.00">public.data_type</text>
<text text-anchor="start" x="1149.65" y="-682.6" font-family="Arial" font-size="14.00">    </text>
<text text-anchor="start" x="1180.77" y="-682.6" font-family="Arial" font-size="14.00" fill="#666666">[BASE TABLE]</text>
<polygon fill="none" stroke="black" points="1023.19,-638.4 1023.19,-669.2 1281.14,-669.2 1281.14,-638.4 1023.19,-638.4"/>
<text text-anchor="start" x="1030.19" y="-650.6" font-family="Arial" font-size="14.00">data_type_id </text>
<text text-anchor="start" x="1114.26" y="-650.6" font-family="Arial" font-size="14.00" fill="#666666">[bigint]</text>
<polygon fill="none" stroke="black" points="1023.19,-607.6 1023.19,-638.4 1281.14,-638.4 1281.14,-607.6 1023.19,-607.6"/>
<text text-anchor="start" x="1030.19" y="-619.8" font-family="Arial" font-size="14.00">collection_type </text>
<text text-anchor="start" x="1126.69" y="-619.8" font-family="Arial" font-size="14.00" fill="#666666">[collection_type]</text>
<polygon fill="none" stroke="black" points="1023.19,-576.8 1023.19,-607.6 1281.14,-607.6 1281.14,-576.8 1023.19,-576.8"/>
<text text-anchor="start" x="1030.19" y="-589" font-family="Arial" font-size="14.00">collection_unique </text>
<text text-anchor="start" x="1142.27" y="-589" font-family="Arial" font-size="14.00" fill="#666666">[boolean]</text>
<polygon fill="none" stroke="black" points="1023.19,-546 1023.19,-576.8 1281.14,-576.8 1281.14,-546 1023.19,-546"/>
<text text-anchor="start" x="1030.19" y="-558.2" font-family="Arial" font-size="14.00">collection_min </text>
<text text-anchor="start" x="1122.79" y="-558.2" font-family="Arial" font-size="14.00" fill="#666666">[bigint]</text>
<polygon fill="none" stroke="black" points="1023.19,-515.2 1023.19,-546 1281.14,-546 1281.14,-515.2 1023.19,-515.2"/>
<text text-anchor="start" x="1030.19" y="-527.4" font-family="Arial" font-size="14.00">collection_max </text>
<text text-anchor="start" x="1126.68" y="-527.4" font-family="Arial" font-size="14.00" fill="#666666">[bigint]</text>
<polygon fill="none" stroke="black" points="1023.19,-484.4 1023.19,-515.2 1281.14,-515.2 1281.14,-484.4 1023.19,-484.4"/>
<text text-anchor="start" x="1030.19" y="-496.6" font-family="Arial" font-size="14.00">details </text>
<text text-anchor="start" x="1074.55" y="-496.6" font-family="Arial" font-size="14.00" fill="#666666">[text]</text>
<polygon fill="none" stroke="black" points="1023.19,-453.6 1023.19,-484.4 1281.14,-484.4 1281.14,-453.6 1023.19,-453.6"/>
<text text-anchor="start" x="1030.19" y="-465.8" font-family="Arial" font-size="14.00">uml_comment </text>
<text text-anchor="start" x="1121.99" y="-465.8" font-family="Arial" font-size="14.00" fill="#666666">[text]</text>
</g>
<!-- public.data_type&#45;&gt;public.data_type_atomic -->
<g id="edge3" class="edge">
<title>public.data_type:data_type_id&#45;&gt;public.data_type_atomic:data_type_id</title>
<path fill="none" stroke="black" d="M1012.27,-651.64C964.21,-628.87 994.64,-433.02 971.16,-379.6 941.38,-311.82 945.16,-246.4 871.13,-246.4"/>
<polygon fill="black" stroke="black" points="1012.09,-651.6 1020.9,-658.13 1017.3,-652.73 1021.53,-653.66 1021.53,-653.66 1021.53,-653.66 1017.3,-652.73 1022.82,-649.33 1012.09,-651.6"/>
<text text-anchor="start" x="1029.19" y="-663.8" font-family="Arial" font-size="10.00">FOREIGN KEY (data_type_id) REFERENCES data_type_atomic(data_type_id) ON DELETE CASCADE</text>
</g>
</g>
</svg>
