<?xml version="1.0" encoding="UTF-8" standalone="no"?>
<!DOCTYPE svg PUBLIC "-//W3C//DTD SVG 1.1//EN"
 "http://www.w3.org/Graphics/SVG/1.1/DTD/svg11.dtd">
<!-- Generated by graphviz version 12.1.2 (20240928.0832)
 -->
<!-- Title: public.attribute Pages: 1 -->
<svg width="1371pt" height="1222pt"
 viewBox="0.00 0.00 1371.36 1222.00" xmlns="http://www.w3.org/2000/svg" xmlns:xlink="http://www.w3.org/1999/xlink">
<g id="graph0" class="graph" transform="scale(1 1) rotate(0) translate(4 1218)">
<title>public.attribute</title>
<polygon fill="white" stroke="none" points="-4,4 -4,-1218 1367.36,-1218 1367.36,4 -4,4"/>
<!-- public.attribute -->
<g id="node1" class="node">
<title>public.attribute</title>
<polygon fill="#efefef" stroke="none" points="549.62,-851 549.62,-886.6 797.58,-886.6 797.58,-851 549.62,-851"/>
<polygon fill="none" stroke="black" points="549.62,-851 549.62,-886.6 797.58,-886.6 797.58,-851 549.62,-851"/>
<text text-anchor="start" x="556.62" y="-864.4" font-family="Arial Bold" font-size="18.00">public.attribute</text>
<text text-anchor="start" x="666.09" y="-864.4" font-family="Arial" font-size="14.00">    </text>
<text text-anchor="start" x="697.21" y="-864.4" font-family="Arial" font-size="14.00" fill="#666666">[BASE TABLE]</text>
<polygon fill="none" stroke="black" points="549.62,-820.2 549.62,-851 797.58,-851 797.58,-820.2 549.62,-820.2"/>
<text text-anchor="start" x="556.62" y="-832.4" font-family="Arial" font-size="14.00">model_key </text>
<text text-anchor="start" x="628.22" y="-832.4" font-family="Arial" font-size="14.00" fill="#666666">[text]</text>
<polygon fill="none" stroke="black" points="549.62,-789.4 549.62,-820.2 797.58,-820.2 797.58,-789.4 549.62,-789.4"/>
<text text-anchor="start" x="556.62" y="-801.6" font-family="Arial" font-size="14.00">attribute_key </text>
<text text-anchor="start" x="640.67" y="-801.6" font-family="Arial" font-size="14.00" fill="#666666">[text]</text>
<polygon fill="none" stroke="black" points="549.62,-758.6 549.62,-789.4 797.58,-789.4 797.58,-758.6 549.62,-758.6"/>
<text text-anchor="start" x="556.62" y="-770.8" font-family="Arial" font-size="14.00">class_key </text>
<text text-anchor="start" x="621.98" y="-770.8" font-family="Arial" font-size="14.00" fill="#666666">[text]</text>
<polygon fill="none" stroke="black" points="549.62,-727.8 549.62,-758.6 797.58,-758.6 797.58,-727.8 549.62,-727.8"/>
<text text-anchor="start" x="556.62" y="-740" font-family="Arial" font-size="14.00">sort_order </text>
<text text-anchor="start" x="624.32" y="-740" font-family="Arial" font-size="14.00" fill="#666666">[integer]</text>
<polygon fill="none" stroke="black" points="549.62,-697 549.62,-727.8 797.58,-727.8 797.58,-697 549.62,-697"/>
<text text-anchor="start" x="556.62" y="-709.2" font-family="Arial" font-size="14.00">name </text>
<text text-anchor="start" x="595.53" y="-709.2" font-family="Arial" font-size="14.00" fill="#666666">[text]</text>
<polygon fill="none" stroke="black" points="549.62,-666.2 549.62,-697 797.58,-697 797.58,-666.2 549.62,-666.2"/>
<text text-anchor="start" x="556.62" y="-678.4" font-family="Arial" font-size="14.00">details </text>
<text text-anchor="start" x="600.98" y="-678.4" font-family="Arial" font-size="14.00" fill="#666666">[text]</text>
<polygon fill="none" stroke="black" points="549.62,-635.4 549.62,-666.2 797.58,-666.2 797.58,-635.4 549.62,-635.4"/>
<text text-anchor="start" x="556.62" y="-647.6" font-family="Arial" font-size="14.00">data_type_rules </text>
<text text-anchor="start" x="660.14" y="-647.6" font-family="Arial" font-size="14.00" fill="#666666">[text]</text>
<polygon fill="none" stroke="black" points="549.62,-604.6 549.62,-635.4 797.58,-635.4 797.58,-604.6 549.62,-604.6"/>
<text text-anchor="start" x="556.62" y="-616.8" font-family="Arial" font-size="14.00">data_type_key </text>
<text text-anchor="start" x="651.58" y="-616.8" font-family="Arial" font-size="14.00" fill="#666666">[text]</text>
<polygon fill="none" stroke="black" points="549.62,-573.8 549.62,-604.6 797.58,-604.6 797.58,-573.8 549.62,-573.8"/>
<text text-anchor="start" x="556.62" y="-586" font-family="Arial" font-size="14.00">derivation_policy_key </text>
<text text-anchor="start" x="694.37" y="-586" font-family="Arial" font-size="14.00" fill="#666666">[text]</text>
<polygon fill="none" stroke="black" points="549.62,-543 549.62,-573.8 797.58,-573.8 797.58,-543 549.62,-543"/>
<text text-anchor="start" x="556.62" y="-555.2" font-family="Arial" font-size="14.00">nullable </text>
<text text-anchor="start" x="608.78" y="-555.2" font-family="Arial" font-size="14.00" fill="#666666">[boolean]</text>
<polygon fill="none" stroke="black" points="549.62,-512.2 549.62,-543 797.58,-543 797.58,-512.2 549.62,-512.2"/>
<text text-anchor="start" x="556.62" y="-524.4" font-family="Arial" font-size="14.00">uml_comment </text>
<text text-anchor="start" x="648.43" y="-524.4" font-family="Arial" font-size="14.00" fill="#666666">[text]</text>
<polygon fill="none" stroke="black" stroke-width="3" points="548.12,-510.7 548.12,-888.1 799.08,-888.1 799.08,-510.7 548.12,-510.7"/>
</g>
<!-- public.logic -->
<g id="node2" class="node">
<title>public.logic</title>
<polygon fill="#efefef" stroke="none" points="216.62,-351.2 216.62,-386.8 440.59,-386.8 440.59,-351.2 216.62,-351.2"/>
<polygon fill="none" stroke="black" points="216.62,-351.2 216.62,-386.8 440.59,-386.8 440.59,-351.2 216.62,-351.2"/>
<text text-anchor="start" x="223.62" y="-364.6" font-family="Arial Bold" font-size="18.00">public.logic</text>
<text text-anchor="start" x="309.1" y="-364.6" font-family="Arial" font-size="14.00">    </text>
<text text-anchor="start" x="340.22" y="-364.6" font-family="Arial" font-size="14.00" fill="#666666">[BASE TABLE]</text>
<polygon fill="none" stroke="black" points="216.62,-320.4 216.62,-351.2 440.59,-351.2 440.59,-320.4 216.62,-320.4"/>
<text text-anchor="start" x="223.62" y="-332.6" font-family="Arial" font-size="14.00">logic_key </text>
<text text-anchor="start" x="285.87" y="-332.6" font-family="Arial" font-size="14.00" fill="#666666">[text]</text>
<polygon fill="none" stroke="black" points="216.62,-289.6 216.62,-320.4 440.59,-320.4 440.59,-289.6 216.62,-289.6"/>
<text text-anchor="start" x="223.62" y="-301.8" font-family="Arial" font-size="14.00">model_key </text>
<text text-anchor="start" x="295.21" y="-301.8" font-family="Arial" font-size="14.00" fill="#666666">[text]</text>
<polygon fill="none" stroke="black" points="216.62,-258.8 216.62,-289.6 440.59,-289.6 440.59,-258.8 216.62,-258.8"/>
<text text-anchor="start" x="223.62" y="-271" font-family="Arial" font-size="14.00">sort_order </text>
<text text-anchor="start" x="291.31" y="-271" font-family="Arial" font-size="14.00" fill="#666666">[integer]</text>
<polygon fill="none" stroke="black" points="216.62,-228 216.62,-258.8 440.59,-258.8 440.59,-228 216.62,-228"/>
<text text-anchor="start" x="223.62" y="-240.2" font-family="Arial" font-size="14.00">logic_type </text>
<text text-anchor="start" x="290.55" y="-240.2" font-family="Arial" font-size="14.00" fill="#666666">[logic_type]</text>
<polygon fill="none" stroke="black" points="216.62,-197.2 216.62,-228 440.59,-228 440.59,-197.2 216.62,-197.2"/>
<text text-anchor="start" x="223.62" y="-209.4" font-family="Arial" font-size="14.00">description </text>
<text text-anchor="start" x="295.21" y="-209.4" font-family="Arial" font-size="14.00" fill="#666666">[text]</text>
<polygon fill="none" stroke="black" points="216.62,-166.4 216.62,-197.2 440.59,-197.2 440.59,-166.4 216.62,-166.4"/>
<text text-anchor="start" x="223.62" y="-178.6" font-family="Arial" font-size="14.00">target </text>
<text text-anchor="start" x="263.31" y="-178.6" font-family="Arial" font-size="14.00" fill="#666666">[text]</text>
<polygon fill="none" stroke="black" points="216.62,-135.6 216.62,-166.4 440.59,-166.4 440.59,-135.6 216.62,-135.6"/>
<text text-anchor="start" x="223.62" y="-147.8" font-family="Arial" font-size="14.00">notation </text>
<text text-anchor="start" x="277.33" y="-147.8" font-family="Arial" font-size="14.00" fill="#666666">[notation]</text>
<polygon fill="none" stroke="black" points="216.62,-104.8 216.62,-135.6 440.59,-135.6 440.59,-104.8 216.62,-104.8"/>
<text text-anchor="start" x="223.62" y="-117" font-family="Arial" font-size="14.00">specification </text>
<text text-anchor="start" x="304.55" y="-117" font-family="Arial" font-size="14.00" fill="#666666">[text]</text>
<polygon fill="none" stroke="black" points="216.62,-74 216.62,-104.8 440.59,-104.8 440.59,-74 216.62,-74"/>
<text text-anchor="start" x="223.62" y="-86.2" font-family="Arial" font-size="14.00">target_type_notation </text>
<text text-anchor="start" x="355.16" y="-86.2" font-family="Arial" font-size="14.00" fill="#666666">[notation]</text>
<polygon fill="none" stroke="black" points="216.62,-43.2 216.62,-74 440.59,-74 440.59,-43.2 216.62,-43.2"/>
<text text-anchor="start" x="223.62" y="-55.4" font-family="Arial" font-size="14.00">target_type_specification </text>
<text text-anchor="start" x="382.38" y="-55.4" font-family="Arial" font-size="14.00" fill="#666666">[text]</text>
</g>
<!-- public.attribute&#45;&gt;public.logic -->
<g id="edge1" class="edge">
<title>public.attribute:model_key&#45;&gt;public.logic:model_key</title>
<path fill="none" stroke="black" d="M539.39,-831.01C489.71,-779.15 498.44,-305 441.59,-305"/>
<polygon fill="black" stroke="black" points="539.37,-831 546.32,-839.48 544.15,-833.38 548.02,-835.3 548.02,-835.3 548.02,-835.3 544.15,-833.38 550.33,-831.42 539.37,-831"/>
<text text-anchor="start" x="7" y="-845.6" font-family="Arial" font-size="10.00">FOREIGN KEY (model_key, derivation_policy_key) REFERENCES logic(model_key, logic_key) ON DELETE CASCADE</text>
</g>
<!-- public.data_type -->
<g id="node3" class="node">
<title>public.data_type</title>
<polygon fill="#efefef" stroke="none" points="544.63,-320.4 544.63,-356 802.58,-356 802.58,-320.4 544.63,-320.4"/>
<polygon fill="none" stroke="black" points="544.63,-320.4 544.63,-356 802.58,-356 802.58,-320.4 544.63,-320.4"/>
<text text-anchor="start" x="551.63" y="-333.8" font-family="Arial Bold" font-size="18.00">public.data_type</text>
<text text-anchor="start" x="671.09" y="-333.8" font-family="Arial" font-size="14.00">    </text>
<text text-anchor="start" x="702.21" y="-333.8" font-family="Arial" font-size="14.00" fill="#666666">[BASE TABLE]</text>
<polygon fill="none" stroke="black" points="544.63,-289.6 544.63,-320.4 802.58,-320.4 802.58,-289.6 544.63,-289.6"/>
<text text-anchor="start" x="551.63" y="-301.8" font-family="Arial" font-size="14.00">model_key </text>
<text text-anchor="start" x="623.22" y="-301.8" font-family="Arial" font-size="14.00" fill="#666666">[text]</text>
<polygon fill="none" stroke="black" points="544.63,-258.8 544.63,-289.6 802.58,-289.6 802.58,-258.8 544.63,-258.8"/>
<text text-anchor="start" x="551.63" y="-271" font-family="Arial" font-size="14.00">data_type_key </text>
<text text-anchor="start" x="646.59" y="-271" font-family="Arial" font-size="14.00" fill="#666666">[text]</text>
<polygon fill="none" stroke="black" points="544.63,-228 544.63,-258.8 802.58,-258.8 802.58,-228 544.63,-228"/>
<text text-anchor="start" x="551.63" y="-240.2" font-family="Arial" font-size="14.00">collection_type </text>
<text text-anchor="start" x="648.13" y="-240.2" font-family="Arial" font-size="14.00" fill="#666666">[collection_type]</text>
<polygon fill="none" stroke="black" points="544.63,-197.2 544.63,-228 802.58,-228 802.58,-197.2 544.63,-197.2"/>
<text text-anchor="start" x="551.63" y="-209.4" font-family="Arial" font-size="14.00">collection_unique </text>
<text text-anchor="start" x="663.71" y="-209.4" font-family="Arial" font-size="14.00" fill="#666666">[boolean]</text>
<polygon fill="none" stroke="black" points="544.63,-166.4 544.63,-197.2 802.58,-197.2 802.58,-166.4 544.63,-166.4"/>
<text text-anchor="start" x="551.63" y="-178.6" font-family="Arial" font-size="14.00">collection_min </text>
<text text-anchor="start" x="644.23" y="-178.6" font-family="Arial" font-size="14.00" fill="#666666">[bigint]</text>
<polygon fill="none" stroke="black" points="544.63,-135.6 544.63,-166.4 802.58,-166.4 802.58,-135.6 544.63,-135.6"/>
<text text-anchor="start" x="551.63" y="-147.8" font-family="Arial" font-size="14.00">collection_max </text>
<text text-anchor="start" x="648.12" y="-147.8" font-family="Arial" font-size="14.00" fill="#666666">[bigint]</text>
<polygon fill="none" stroke="black" points="544.63,-104.8 544.63,-135.6 802.58,-135.6 802.58,-104.8 544.63,-104.8"/>
<text text-anchor="start" x="551.63" y="-117" font-family="Arial" font-size="14.00">type_spec_notation </text>
<text text-anchor="start" x="676.94" y="-117" font-family="Arial" font-size="14.00" fill="#666666">[notation]</text>
<polygon fill="none" stroke="black" points="544.63,-74 544.63,-104.8 802.58,-104.8 802.58,-74 544.63,-74"/>
<text text-anchor="start" x="551.63" y="-86.2" font-family="Arial" font-size="14.00">type_spec_specification </text>
<text text-anchor="start" x="704.16" y="-86.2" font-family="Arial" font-size="14.00" fill="#666666">[text]</text>
</g>
<!-- public.attribute&#45;&gt;public.data_type -->
<g id="edge2" class="edge">
<title>public.attribute:model_key&#45;&gt;public.data_type:model_key</title>
<path fill="none" stroke="black" d="M807.77,-831.01C857.89,-779.15 859.31,-305 803.58,-305"/>
<polygon fill="black" stroke="black" points="807.83,-830.98 796.87,-831.42 803.05,-833.37 799.18,-835.3 799.18,-835.3 799.18,-835.3 803.05,-833.37 800.89,-839.48 807.83,-830.98"/>
<text text-anchor="start" x="805.58" y="-845.6" font-family="Arial" font-size="10.00">FOREIGN KEY (model_key, data_type_key) REFERENCES data_type(model_key, data_type_key) ON DELETE CASCADE</text>
</g>
<!-- public.class -->
<g id="node4" class="node">
<title>public.class</title>
<polygon fill="#efefef" stroke="none" points="907.12,-351.2 907.12,-386.8 1130.09,-386.8 1130.09,-351.2 907.12,-351.2"/>
<polygon fill="none" stroke="black" points="907.12,-351.2 907.12,-386.8 1130.09,-386.8 1130.09,-351.2 907.12,-351.2"/>
<text text-anchor="start" x="914.12" y="-364.6" font-family="Arial Bold" font-size="18.00">public.class</text>
<text text-anchor="start" x="998.6" y="-364.6" font-family="Arial" font-size="14.00">    </text>
<text text-anchor="start" x="1029.72" y="-364.6" font-family="Arial" font-size="14.00" fill="#666666">[BASE TABLE]</text>
<polygon fill="none" stroke="black" points="907.12,-320.4 907.12,-351.2 1130.09,-351.2 1130.09,-320.4 907.12,-320.4"/>
<text text-anchor="start" x="914.12" y="-332.6" font-family="Arial" font-size="14.00">model_key </text>
<text text-anchor="start" x="985.71" y="-332.6" font-family="Arial" font-size="14.00" fill="#666666">[text]</text>
<polygon fill="none" stroke="black" points="907.12,-289.6 907.12,-320.4 1130.09,-320.4 1130.09,-289.6 907.12,-289.6"/>
<text text-anchor="start" x="914.12" y="-301.8" font-family="Arial" font-size="14.00">class_key </text>
<text text-anchor="start" x="979.48" y="-301.8" font-family="Arial" font-size="14.00" fill="#666666">[text]</text>
<polygon fill="none" stroke="black" points="907.12,-258.8 907.12,-289.6 1130.09,-289.6 1130.09,-258.8 907.12,-258.8"/>
<text text-anchor="start" x="914.12" y="-271" font-family="Arial" font-size="14.00">name </text>
<text text-anchor="start" x="953.03" y="-271" font-family="Arial" font-size="14.00" fill="#666666">[text]</text>
<polygon fill="none" stroke="black" points="907.12,-228 907.12,-258.8 1130.09,-258.8 1130.09,-228 907.12,-228"/>
<text text-anchor="start" x="914.12" y="-240.2" font-family="Arial" font-size="14.00">subdomain_key </text>
<text text-anchor="start" x="1016.07" y="-240.2" font-family="Arial" font-size="14.00" fill="#666666">[text]</text>
<polygon fill="none" stroke="black" points="907.12,-197.2 907.12,-228 1130.09,-228 1130.09,-197.2 907.12,-197.2"/>
<text text-anchor="start" x="914.12" y="-209.4" font-family="Arial" font-size="14.00">actor_key </text>
<text text-anchor="start" x="978.7" y="-209.4" font-family="Arial" font-size="14.00" fill="#666666">[text]</text>
<polygon fill="none" stroke="black" points="907.12,-166.4 907.12,-197.2 1130.09,-197.2 1130.09,-166.4 907.12,-166.4"/>
<text text-anchor="start" x="914.12" y="-178.6" font-family="Arial" font-size="14.00">superclass_of_key </text>
<text text-anchor="start" x="1033.96" y="-178.6" font-family="Arial" font-size="14.00" fill="#666666">[text]</text>
<polygon fill="none" stroke="black" points="907.12,-135.6 907.12,-166.4 1130.09,-166.4 1130.09,-135.6 907.12,-135.6"/>
<text text-anchor="start" x="914.12" y="-147.8" font-family="Arial" font-size="14.00">subclass_of_key </text>
<text text-anchor="start" x="1021.51" y="-147.8" font-family="Arial" font-size="14.00" fill="#666666">[text]</text>
<polygon fill="none" stroke="black" points="907.12,-104.8 907.12,-135.6 1130.09,-135.6 1130.09,-104.8 907.12,-104.8"/>
<text text-anchor="start" x="914.12" y="-117" font-family="Arial" font-size="14.00">details </text>
<text text-anchor="start" x="958.48" y="-117" font-family="Arial" font-size="14.00" fill="#666666">[text]</text>
<polygon fill="none" stroke="black" points="907.12,-74 907.12,-104.8 1130.09,-104.8 1130.09,-74 907.12,-74"/>
<text text-anchor="start" x="914.12" y="-86.2" font-family="Arial" font-size="14.00">unfinished_notes </text>
<text text-anchor="start" x="1023.87" y="-86.2" font-family="Arial" font-size="14.00" fill="#666666">[text]</text>
<polygon fill="none" stroke="black" points="907.12,-43.2 907.12,-74 1130.09,-74 1130.09,-43.2 907.12,-43.2"/>
<text text-anchor="start" x="914.12" y="-55.4" font-family="Arial" font-size="14.00">uml_comment </text>
<text text-anchor="start" x="1005.92" y="-55.4" font-family="Arial" font-size="14.00" fill="#666666">[text]</text>
</g>
<!-- public.attribute&#45;&gt;public.class -->
<g id="edge3" class="edge">
<title>public.attribute:model_key&#45;&gt;public.class:model_key</title>
<path fill="none" stroke="black" d="M808.85,-834.08C904.72,-803.91 796.17,-335.8 906.12,-335.8"/>
<polygon fill="black" stroke="black" points="808.8,-834.08 798.25,-831.1 803.53,-834.87 799.24,-835.5 799.24,-835.5 799.24,-835.5 803.53,-834.87 799.57,-840 808.8,-834.08"/>
<text text-anchor="start" x="805.58" y="-819.6" font-family="Arial" font-size="10.00">FOREIGN KEY (model_key, class_key) REFERENCES class(model_key, class_key) ON DELETE CASCADE</text>
</g>
<!-- public.class_index -->
<g id="node5" class="node">
<title>public.class_index</title>
<polygon fill="#efefef" stroke="none" points="337.62,-1135.2 337.62,-1170.8 609.58,-1170.8 609.58,-1135.2 337.62,-1135.2"/>
<polygon fill="none" stroke="black" points="337.62,-1135.2 337.62,-1170.8 609.58,-1170.8 609.58,-1135.2 337.62,-1135.2"/>
<text text-anchor="start" x="344.62" y="-1148.6" font-family="Arial Bold" font-size="18.00">public.class_index</text>
<text text-anchor="start" x="478.09" y="-1148.6" font-family="Arial" font-size="14.00">    </text>
<text text-anchor="start" x="509.21" y="-1148.6" font-family="Arial" font-size="14.00" fill="#666666">[BASE TABLE]</text>
<polygon fill="none" stroke="black" points="337.62,-1104.4 337.62,-1135.2 609.58,-1135.2 609.58,-1104.4 337.62,-1104.4"/>
<text text-anchor="start" x="344.62" y="-1116.6" font-family="Arial" font-size="14.00">model_key </text>
<text text-anchor="start" x="416.22" y="-1116.6" font-family="Arial" font-size="14.00" fill="#666666">[text]</text>
<polygon fill="none" stroke="black" points="337.62,-1073.6 337.62,-1104.4 609.58,-1104.4 609.58,-1073.6 337.62,-1073.6"/>
<text text-anchor="start" x="344.62" y="-1085.8" font-family="Arial" font-size="14.00">class_key </text>
<text text-anchor="start" x="409.98" y="-1085.8" font-family="Arial" font-size="14.00" fill="#666666">[text]</text>
<polygon fill="none" stroke="black" points="337.62,-1042.8 337.62,-1073.6 609.58,-1073.6 609.58,-1042.8 337.62,-1042.8"/>
<text text-anchor="start" x="344.62" y="-1055" font-family="Arial" font-size="14.00">index_num </text>
<text text-anchor="start" x="417" y="-1055" font-family="Arial" font-size="14.00" fill="#666666">[integer]</text>
<polygon fill="none" stroke="black" points="337.62,-1012 337.62,-1042.8 609.58,-1042.8 609.58,-1012 337.62,-1012"/>
<text text-anchor="start" x="344.62" y="-1024.2" font-family="Arial" font-size="14.00">attribute_key </text>
<text text-anchor="start" x="428.67" y="-1024.2" font-family="Arial" font-size="14.00" fill="#666666">[text]</text>
</g>
<!-- public.class_index&#45;&gt;public.attribute -->
<g id="edge4" class="edge">
<title>public.class_index:model_key&#45;&gt;public.attribute:model_key</title>
<path fill="none" stroke="black" d="M620.7,-1118.99C673.89,-1109.76 641.01,-1023.91 609.58,-968.8 594.18,-941.8 565.07,-959.77 549.62,-932.8 528.15,-895.31 505.42,-835.6 548.62,-835.6"/>
<polygon fill="black" stroke="black" points="620.88,-1118.97 610.56,-1115.29 615.57,-1119.4 611.25,-1119.75 611.25,-1119.75 611.25,-1119.75 615.57,-1119.4 611.28,-1124.26 620.88,-1118.97"/>
<text text-anchor="start" x="76.18" y="-1129.8" font-family="Arial" font-size="10.00">FOREIGN KEY (model_key, attribute_key) REFERENCES attribute(model_key, attribute_key) ON DELETE CASCADE</text>
</g>
<!-- public.attribute_invariant -->
<g id="node6" class="node">
<title>public.attribute_invariant</title>
<polygon fill="#efefef" stroke="none" points="714.14,-1119.8 714.14,-1155.4 1035.07,-1155.4 1035.07,-1119.8 714.14,-1119.8"/>
<polygon fill="none" stroke="black" points="714.14,-1119.8 714.14,-1155.4 1035.07,-1155.4 1035.07,-1119.8 714.14,-1119.8"/>
<text text-anchor="start" x="721.14" y="-1133.2" font-family="Arial Bold" font-size="18.00">public.attribute_invariant</text>
<text text-anchor="start" x="903.58" y="-1133.2" font-family="Arial" font-size="14.00">    </text>
<text text-anchor="start" x="934.7" y="-1133.2" font-family="Arial" font-size="14.00" fill="#666666">[BASE TABLE]</text>
<polygon fill="none" stroke="black" points="714.14,-1089 714.14,-1119.8 1035.07,-1119.8 1035.07,-1089 714.14,-1089"/>
<text text-anchor="start" x="721.14" y="-1101.2" font-family="Arial" font-size="14.00">model_key </text>
<text text-anchor="start" x="792.73" y="-1101.2" font-family="Arial" font-size="14.00" fill="#666666">[text]</text>
<polygon fill="none" stroke="black" points="714.14,-1058.2 714.14,-1089 1035.07,-1089 1035.07,-1058.2 714.14,-1058.2"/>
<text text-anchor="start" x="721.14" y="-1070.4" font-family="Arial" font-size="14.00">attribute_key </text>
<text text-anchor="start" x="805.18" y="-1070.4" font-family="Arial" font-size="14.00" fill="#666666">[text]</text>
<polygon fill="none" stroke="black" points="714.14,-1027.4 714.14,-1058.2 1035.07,-1058.2 1035.07,-1027.4 714.14,-1027.4"/>
<text text-anchor="start" x="721.14" y="-1039.6" font-family="Arial" font-size="14.00">logic_key </text>
<text text-anchor="start" x="783.39" y="-1039.6" font-family="Arial" font-size="14.00" fill="#666666">[text]</text>
</g>
<!-- public.attribute_invariant&#45;&gt;public.attribute -->
<g id="edge5" class="edge">
<title>public.attribute_invariant:model_key&#45;&gt;public.attribute:model_key</title>
<path fill="none" stroke="black" d="M703.05,-1103.34C663.67,-1094.17 689.74,-1027.46 714.14,-984.2 735.53,-946.26 776.15,-970.72 797.58,-932.8 818.84,-895.19 841.78,-835.6 798.58,-835.6"/>
<polygon fill="black" stroke="black" points="702.86,-1103.32 712.33,-1108.84 708.16,-1103.88 712.47,-1104.33 712.47,-1104.33 712.47,-1104.33 708.16,-1103.88 713.27,-1099.89 702.86,-1103.32"/>
<text text-anchor="start" x="720.14" y="-1114.4" font-family="Arial" font-size="10.00">FOREIGN KEY (model_key, attribute_key) REFERENCES attribute(model_key, attribute_key) ON DELETE CASCADE</text>
</g>
</g>
</svg>
