<?xml version="1.0" encoding="UTF-8" standalone="no"?>
<!DOCTYPE svg PUBLIC "-//W3C//DTD SVG 1.1//EN"
 "http://www.w3.org/Graphics/SVG/1.1/DTD/svg11.dtd">
<!-- Generated by graphviz version 12.1.2 (20240928.0832)
 -->
<!-- Title: public.action_require Pages: 1 -->
<svg width="1310pt" height="540pt"
 viewBox="0.00 0.00 1309.69 540.40" xmlns="http://www.w3.org/2000/svg" xmlns:xlink="http://www.w3.org/1999/xlink">
<g id="graph0" class="graph" transform="scale(1 1) rotate(0) translate(4 536.4)">
<title>public.action_require</title>
<polygon fill="white" stroke="none" points="-4,4 -4,-536.4 1305.69,-536.4 1305.69,4 -4,4"/>
<!-- public.action_require -->
<g id="node1" class="node">
<title>public.action_require</title>
<polygon fill="#efefef" stroke="none" points="495.7,-450.6 495.7,-486.2 787.63,-486.2 787.63,-450.6 495.7,-450.6"/>
<polygon fill="none" stroke="black" points="495.7,-450.6 495.7,-486.2 787.63,-486.2 787.63,-450.6 495.7,-450.6"/>
<text text-anchor="start" x="502.7" y="-464" font-family="Arial Bold" font-size="18.00">public.action_require</text>
<text text-anchor="start" x="656.14" y="-464" font-family="Arial" font-size="14.00">    </text>
<text text-anchor="start" x="687.26" y="-464" font-family="Arial" font-size="14.00" fill="#666666">[BASE TABLE]</text>
<polygon fill="none" stroke="black" points="495.7,-419.8 495.7,-450.6 787.63,-450.6 787.63,-419.8 495.7,-419.8"/>
<text text-anchor="start" x="502.7" y="-432" font-family="Arial" font-size="14.00">model_key </text>
<text text-anchor="start" x="574.3" y="-432" font-family="Arial" font-size="14.00" fill="#666666">[text]</text>
<polygon fill="none" stroke="black" points="495.7,-389 495.7,-419.8 787.63,-419.8 787.63,-389 495.7,-389"/>
<text text-anchor="start" x="502.7" y="-401.2" font-family="Arial" font-size="14.00">action_key </text>
<text text-anchor="start" x="573.52" y="-401.2" font-family="Arial" font-size="14.00" fill="#666666">[text]</text>
<polygon fill="none" stroke="black" points="495.7,-358.2 495.7,-389 787.63,-389 787.63,-358.2 495.7,-358.2"/>
<text text-anchor="start" x="502.7" y="-370.4" font-family="Arial" font-size="14.00">logic_key </text>
<text text-anchor="start" x="564.96" y="-370.4" font-family="Arial" font-size="14.00" fill="#666666">[text]</text>
<polygon fill="none" stroke="black" stroke-width="3" points="494.2,-356.7 494.2,-487.7 789.13,-487.7 789.13,-356.7 494.2,-356.7"/>
</g>
<!-- public.logic -->
<g id="node2" class="node">
<title>public.logic</title>
<polygon fill="#efefef" stroke="none" points="363.68,-197.2 363.68,-232.8 587.65,-232.8 587.65,-197.2 363.68,-197.2"/>
<polygon fill="none" stroke="black" points="363.68,-197.2 363.68,-232.8 587.65,-232.8 587.65,-197.2 363.68,-197.2"/>
<text text-anchor="start" x="370.68" y="-210.6" font-family="Arial Bold" font-size="18.00">public.logic</text>
<text text-anchor="start" x="456.16" y="-210.6" font-family="Arial" font-size="14.00">    </text>
<text text-anchor="start" x="487.28" y="-210.6" font-family="Arial" font-size="14.00" fill="#666666">[BASE TABLE]</text>
<polygon fill="none" stroke="black" points="363.68,-166.4 363.68,-197.2 587.65,-197.2 587.65,-166.4 363.68,-166.4"/>
<text text-anchor="start" x="370.68" y="-178.6" font-family="Arial" font-size="14.00">logic_key </text>
<text text-anchor="start" x="432.94" y="-178.6" font-family="Arial" font-size="14.00" fill="#666666">[text]</text>
<polygon fill="none" stroke="black" points="363.68,-135.6 363.68,-166.4 587.65,-166.4 587.65,-135.6 363.68,-135.6"/>
<text text-anchor="start" x="370.68" y="-147.8" font-family="Arial" font-size="14.00">model_key </text>
<text text-anchor="start" x="442.27" y="-147.8" font-family="Arial" font-size="14.00" fill="#666666">[text]</text>
<polygon fill="none" stroke="black" points="363.68,-104.8 363.68,-135.6 587.65,-135.6 587.65,-104.8 363.68,-104.8"/>
<text text-anchor="start" x="370.68" y="-117" font-family="Arial" font-size="14.00">description </text>
<text text-anchor="start" x="442.27" y="-117" font-family="Arial" font-size="14.00" fill="#666666">[text]</text>
<polygon fill="none" stroke="black" points="363.68,-74 363.68,-104.8 587.65,-104.8 587.65,-74 363.68,-74"/>
<text text-anchor="start" x="370.68" y="-86.2" font-family="Arial" font-size="14.00">notation </text>
<text text-anchor="start" x="424.39" y="-86.2" font-family="Arial" font-size="14.00" fill="#666666">[notation]</text>
<polygon fill="none" stroke="black" points="363.68,-43.2 363.68,-74 587.65,-74 587.65,-43.2 363.68,-43.2"/>
<text text-anchor="start" x="370.68" y="-55.4" font-family="Arial" font-size="14.00">specification </text>
<text text-anchor="start" x="451.61" y="-55.4" font-family="Arial" font-size="14.00" fill="#666666">[text]</text>
</g>
<!-- public.action_require&#45;&gt;public.logic -->
<g id="edge1" class="edge">
<title>public.action_require:model_key&#45;&gt;public.logic:model_key</title>
<path fill="none" stroke="black" d="M484.56,-434.14C443.35,-424.68 466.78,-354.02 495.7,-312 520.59,-275.85 562.77,-312.15 587.65,-276 619.15,-230.23 644.21,-151 588.65,-151"/>
<polygon fill="black" stroke="black" points="484.42,-434.13 493.9,-439.64 489.73,-434.68 494.04,-435.13 494.04,-435.13 494.04,-435.13 489.73,-434.68 494.84,-430.69 484.42,-434.13"/>
<text text-anchor="start" x="7" y="-445.2" font-family="Arial" font-size="10.00">FOREIGN KEY (model_key, logic_key) REFERENCES logic(model_key, logic_key) ON DELETE CASCADE</text>
</g>
<!-- public.action -->
<g id="node3" class="node">
<title>public.action</title>
<polygon fill="#efefef" stroke="none" points="691.69,-197.2 691.69,-232.8 923.65,-232.8 923.65,-197.2 691.69,-197.2"/>
<polygon fill="none" stroke="black" points="691.69,-197.2 691.69,-232.8 923.65,-232.8 923.65,-197.2 691.69,-197.2"/>
<text text-anchor="start" x="698.69" y="-210.6" font-family="Arial Bold" font-size="18.00">public.action</text>
<text text-anchor="start" x="792.16" y="-210.6" font-family="Arial" font-size="14.00">    </text>
<text text-anchor="start" x="823.28" y="-210.6" font-family="Arial" font-size="14.00" fill="#666666">[BASE TABLE]</text>
<polygon fill="none" stroke="black" points="691.69,-166.4 691.69,-197.2 923.65,-197.2 923.65,-166.4 691.69,-166.4"/>
<text text-anchor="start" x="698.69" y="-178.6" font-family="Arial" font-size="14.00">model_key </text>
<text text-anchor="start" x="770.28" y="-178.6" font-family="Arial" font-size="14.00" fill="#666666">[text]</text>
<polygon fill="none" stroke="black" points="691.69,-135.6 691.69,-166.4 923.65,-166.4 923.65,-135.6 691.69,-135.6"/>
<text text-anchor="start" x="698.69" y="-147.8" font-family="Arial" font-size="14.00">class_key </text>
<text text-anchor="start" x="764.05" y="-147.8" font-family="Arial" font-size="14.00" fill="#666666">[text]</text>
<polygon fill="none" stroke="black" points="691.69,-104.8 691.69,-135.6 923.65,-135.6 923.65,-104.8 691.69,-104.8"/>
<text text-anchor="start" x="698.69" y="-117" font-family="Arial" font-size="14.00">action_key </text>
<text text-anchor="start" x="769.51" y="-117" font-family="Arial" font-size="14.00" fill="#666666">[text]</text>
<polygon fill="none" stroke="black" points="691.69,-74 691.69,-104.8 923.65,-104.8 923.65,-74 691.69,-74"/>
<text text-anchor="start" x="698.69" y="-86.2" font-family="Arial" font-size="14.00">name </text>
<text text-anchor="start" x="737.6" y="-86.2" font-family="Arial" font-size="14.00" fill="#666666">[text]</text>
<polygon fill="none" stroke="black" points="691.69,-43.2 691.69,-74 923.65,-74 923.65,-43.2 691.69,-43.2"/>
<text text-anchor="start" x="698.69" y="-55.4" font-family="Arial" font-size="14.00">details </text>
<text text-anchor="start" x="743.05" y="-55.4" font-family="Arial" font-size="14.00" fill="#666666">[text]</text>
</g>
<!-- public.action_require&#45;&gt;public.action -->
<g id="edge2" class="edge">
<title>public.action_require:model_key&#45;&gt;public.action:model_key</title>
<path fill="none" stroke="black" d="M798.77,-434.14C840.02,-424.65 816.86,-353.81 787.63,-312 761.54,-274.67 717.82,-313.3 691.69,-276 667.66,-241.71 648.82,-181.8 690.69,-181.8"/>
<polygon fill="black" stroke="black" points="798.91,-434.12 788.5,-430.69 793.6,-434.68 789.3,-435.13 789.3,-435.13 789.3,-435.13 793.6,-434.68 789.43,-439.64 798.91,-434.12"/>
<text text-anchor="start" x="795.63" y="-445.2" font-family="Arial" font-size="10.00">FOREIGN KEY (model_key, action_key) REFERENCES action(model_key, action_key) ON DELETE CASCADE</text>
</g>
</g>
</svg>
