<?xml version="1.0" encoding="UTF-8" standalone="no"?>
<!DOCTYPE svg PUBLIC "-//W3C//DTD SVG 1.1//EN"
 "http://www.w3.org/Graphics/SVG/1.1/DTD/svg11.dtd">
<!-- Generated by graphviz version 12.1.2 (20240928.0832)
 -->
<!-- Title: public.event_parameter Pages: 1 -->
<svg width="1389pt" height="694pt"
 viewBox="0.00 0.00 1389.08 694.40" xmlns="http://www.w3.org/2000/svg" xmlns:xlink="http://www.w3.org/1999/xlink">
<g id="graph0" class="graph" transform="scale(1 1) rotate(0) translate(4 690.4)">
<title>public.event_parameter</title>
<polygon fill="white" stroke="none" points="-4,4 -4,-690.4 1385.08,-690.4 1385.08,4 -4,4"/>
<!-- public.event_parameter -->
<g id="node1" class="node">
<title>public.event_parameter</title>
<polygon fill="#efefef" stroke="none" points="565.78,-604.6 565.78,-640.2 873.69,-640.2 873.69,-604.6 565.78,-604.6"/>
<polygon fill="none" stroke="black" points="565.78,-604.6 565.78,-640.2 873.69,-640.2 873.69,-604.6 565.78,-604.6"/>
<text text-anchor="start" x="572.78" y="-618" font-family="Arial Bold" font-size="18.00">public.event_parameter</text>
<text text-anchor="start" x="742.2" y="-618" font-family="Arial" font-size="14.00">    </text>
<text text-anchor="start" x="773.32" y="-618" font-family="Arial" font-size="14.00" fill="#666666">[BASE TABLE]</text>
<polygon fill="none" stroke="black" points="565.78,-573.8 565.78,-604.6 873.69,-604.6 873.69,-573.8 565.78,-573.8"/>
<text text-anchor="start" x="572.78" y="-586" font-family="Arial" font-size="14.00">model_key </text>
<text text-anchor="start" x="644.37" y="-586" font-family="Arial" font-size="14.00" fill="#666666">[text]</text>
<polygon fill="none" stroke="black" points="565.78,-543 565.78,-573.8 873.69,-573.8 873.69,-543 565.78,-543"/>
<text text-anchor="start" x="572.78" y="-555.2" font-family="Arial" font-size="14.00">event_key </text>
<text text-anchor="start" x="640.49" y="-555.2" font-family="Arial" font-size="14.00" fill="#666666">[text]</text>
<polygon fill="none" stroke="black" points="565.78,-512.2 565.78,-543 873.69,-543 873.69,-512.2 565.78,-512.2"/>
<text text-anchor="start" x="572.78" y="-524.4" font-family="Arial" font-size="14.00">parameter_key </text>
<text text-anchor="start" x="670.05" y="-524.4" font-family="Arial" font-size="14.00" fill="#666666">[text]</text>
<polygon fill="none" stroke="black" points="565.78,-481.4 565.78,-512.2 873.69,-512.2 873.69,-481.4 565.78,-481.4"/>
<text text-anchor="start" x="572.78" y="-493.6" font-family="Arial" font-size="14.00">name </text>
<text text-anchor="start" x="611.69" y="-493.6" font-family="Arial" font-size="14.00" fill="#666666">[text]</text>
<polygon fill="none" stroke="black" points="565.78,-450.6 565.78,-481.4 873.69,-481.4 873.69,-450.6 565.78,-450.6"/>
<text text-anchor="start" x="572.78" y="-462.8" font-family="Arial" font-size="14.00">sort_order </text>
<text text-anchor="start" x="640.48" y="-462.8" font-family="Arial" font-size="14.00" fill="#666666">[integer]</text>
<polygon fill="none" stroke="black" points="565.78,-419.8 565.78,-450.6 873.69,-450.6 873.69,-419.8 565.78,-419.8"/>
<text text-anchor="start" x="572.78" y="-432" font-family="Arial" font-size="14.00">data_type_rules </text>
<text text-anchor="start" x="676.3" y="-432" font-family="Arial" font-size="14.00" fill="#666666">[text]</text>
<polygon fill="none" stroke="black" points="565.78,-389 565.78,-419.8 873.69,-419.8 873.69,-389 565.78,-389"/>
<text text-anchor="start" x="572.78" y="-401.2" font-family="Arial" font-size="14.00">data_type_key </text>
<text text-anchor="start" x="667.74" y="-401.2" font-family="Arial" font-size="14.00" fill="#666666">[text]</text>
<polygon fill="none" stroke="black" stroke-width="3" points="564.28,-387.5 564.28,-641.7 875.19,-641.7 875.19,-387.5 564.28,-387.5"/>
</g>
<!-- public.data_type -->
<g id="node2" class="node">
<title>public.data_type</title>
<polygon fill="#efefef" stroke="none" points="417.76,-228 417.76,-263.6 675.71,-263.6 675.71,-228 417.76,-228"/>
<polygon fill="none" stroke="black" points="417.76,-228 417.76,-263.6 675.71,-263.6 675.71,-228 417.76,-228"/>
<text text-anchor="start" x="424.76" y="-241.4" font-family="Arial Bold" font-size="18.00">public.data_type</text>
<text text-anchor="start" x="544.22" y="-241.4" font-family="Arial" font-size="14.00">    </text>
<text text-anchor="start" x="575.34" y="-241.4" font-family="Arial" font-size="14.00" fill="#666666">[BASE TABLE]</text>
<polygon fill="none" stroke="black" points="417.76,-197.2 417.76,-228 675.71,-228 675.71,-197.2 417.76,-197.2"/>
<text text-anchor="start" x="424.76" y="-209.4" font-family="Arial" font-size="14.00">model_key </text>
<text text-anchor="start" x="496.35" y="-209.4" font-family="Arial" font-size="14.00" fill="#666666">[text]</text>
<polygon fill="none" stroke="black" points="417.76,-166.4 417.76,-197.2 675.71,-197.2 675.71,-166.4 417.76,-166.4"/>
<text text-anchor="start" x="424.76" y="-178.6" font-family="Arial" font-size="14.00">data_type_key </text>
<text text-anchor="start" x="519.72" y="-178.6" font-family="Arial" font-size="14.00" fill="#666666">[text]</text>
<polygon fill="none" stroke="black" points="417.76,-135.6 417.76,-166.4 675.71,-166.4 675.71,-135.6 417.76,-135.6"/>
<text text-anchor="start" x="424.76" y="-147.8" font-family="Arial" font-size="14.00">collection_type </text>
<text text-anchor="start" x="521.26" y="-147.8" font-family="Arial" font-size="14.00" fill="#666666">[collection_type]</text>
<polygon fill="none" stroke="black" points="417.76,-104.8 417.76,-135.6 675.71,-135.6 675.71,-104.8 417.76,-104.8"/>
<text text-anchor="start" x="424.76" y="-117" font-family="Arial" font-size="14.00">collection_unique </text>
<text text-anchor="start" x="536.84" y="-117" font-family="Arial" font-size="14.00" fill="#666666">[boolean]</text>
<polygon fill="none" stroke="black" points="417.76,-74 417.76,-104.8 675.71,-104.8 675.71,-74 417.76,-74"/>
<text text-anchor="start" x="424.76" y="-86.2" font-family="Arial" font-size="14.00">collection_min </text>
<text text-anchor="start" x="517.36" y="-86.2" font-family="Arial" font-size="14.00" fill="#666666">[bigint]</text>
<polygon fill="none" stroke="black" points="417.76,-43.2 417.76,-74 675.71,-74 675.71,-43.2 417.76,-43.2"/>
<text text-anchor="start" x="424.76" y="-55.4" font-family="Arial" font-size="14.00">collection_max </text>
<text text-anchor="start" x="521.25" y="-55.4" font-family="Arial" font-size="14.00" fill="#666666">[bigint]</text>
</g>
<!-- public.event_parameter&#45;&gt;public.data_type -->
<g id="edge1" class="edge">
<title>public.event_parameter:model_key&#45;&gt;public.data_type:model_key</title>
<path fill="none" stroke="black" d="M554.38,-588.69C458.35,-578.79 503.47,-428.4 565.78,-342.8 596.04,-301.23 645.32,-348.27 675.71,-306.8 700.46,-273.03 718.58,-212.6 676.71,-212.6"/>
<polygon fill="black" stroke="black" points="554.46,-588.69 564.23,-593.68 559.79,-588.95 564.11,-589.17 564.11,-589.17 564.11,-589.17 559.79,-588.95 564.67,-584.69 554.46,-588.69"/>
<text text-anchor="start" x="7" y="-599.2" font-family="Arial" font-size="10.00">FOREIGN KEY (model_key, data_type_key) REFERENCES data_type(model_key, data_type_key) ON DELETE CASCADE</text>
</g>
<!-- public.event -->
<g id="node3" class="node">
<title>public.event</title>
<polygon fill="#efefef" stroke="none" points="780.25,-212.6 780.25,-248.2 1007.21,-248.2 1007.21,-212.6 780.25,-212.6"/>
<polygon fill="none" stroke="black" points="780.25,-212.6 780.25,-248.2 1007.21,-248.2 1007.21,-212.6 780.25,-212.6"/>
<text text-anchor="start" x="787.25" y="-226" font-family="Arial Bold" font-size="18.00">public.event</text>
<text text-anchor="start" x="875.73" y="-226" font-family="Arial" font-size="14.00">    </text>
<text text-anchor="start" x="906.84" y="-226" font-family="Arial" font-size="14.00" fill="#666666">[BASE TABLE]</text>
<polygon fill="none" stroke="black" points="780.25,-181.8 780.25,-212.6 1007.21,-212.6 1007.21,-181.8 780.25,-181.8"/>
<text text-anchor="start" x="787.25" y="-194" font-family="Arial" font-size="14.00">model_key </text>
<text text-anchor="start" x="858.85" y="-194" font-family="Arial" font-size="14.00" fill="#666666">[text]</text>
<polygon fill="none" stroke="black" points="780.25,-151 780.25,-181.8 1007.21,-181.8 1007.21,-151 780.25,-151"/>
<text text-anchor="start" x="787.25" y="-163.2" font-family="Arial" font-size="14.00">class_key </text>
<text text-anchor="start" x="852.61" y="-163.2" font-family="Arial" font-size="14.00" fill="#666666">[text]</text>
<polygon fill="none" stroke="black" points="780.25,-120.2 780.25,-151 1007.21,-151 1007.21,-120.2 780.25,-120.2"/>
<text text-anchor="start" x="787.25" y="-132.4" font-family="Arial" font-size="14.00">event_key </text>
<text text-anchor="start" x="854.96" y="-132.4" font-family="Arial" font-size="14.00" fill="#666666">[text]</text>
<polygon fill="none" stroke="black" points="780.25,-89.4 780.25,-120.2 1007.21,-120.2 1007.21,-89.4 780.25,-89.4"/>
<text text-anchor="start" x="787.25" y="-101.6" font-family="Arial" font-size="14.00">name </text>
<text text-anchor="start" x="826.17" y="-101.6" font-family="Arial" font-size="14.00" fill="#666666">[text]</text>
<polygon fill="none" stroke="black" points="780.25,-58.6 780.25,-89.4 1007.21,-89.4 1007.21,-58.6 780.25,-58.6"/>
<text text-anchor="start" x="787.25" y="-70.8" font-family="Arial" font-size="14.00">details </text>
<text text-anchor="start" x="831.61" y="-70.8" font-family="Arial" font-size="14.00" fill="#666666">[text]</text>
</g>
<!-- public.event_parameter&#45;&gt;public.event -->
<g id="edge2" class="edge">
<title>public.event_parameter:model_key&#45;&gt;public.event:model_key</title>
<path fill="none" stroke="black" d="M885.06,-588.7C980.57,-579.15 927.76,-433.83 873.69,-342.8 849.49,-302.05 804.59,-332.07 780.25,-291.4 758.76,-255.47 737.39,-197.2 779.25,-197.2"/>
<polygon fill="black" stroke="black" points="885.01,-588.71 874.81,-584.69 879.68,-588.96 875.36,-589.17 875.36,-589.17 875.36,-589.17 879.68,-588.96 875.24,-593.68 885.01,-588.71"/>
<text text-anchor="start" x="881.69" y="-599.2" font-family="Arial" font-size="10.00">FOREIGN KEY (model_key, event_key) REFERENCES event(model_key, event_key) ON DELETE CASCADE</text>
</g>
</g>
</svg>
