<?xml version="1.0" encoding="UTF-8" standalone="no"?>
<!DOCTYPE svg PUBLIC "-//W3C//DTD SVG 1.1//EN"
 "http://www.w3.org/Graphics/SVG/1.1/DTD/svg11.dtd">
<!-- Generated by graphviz version 12.1.2 (20240928.0832)
 -->
<!-- Title: public.attribute Pages: 1 -->
<svg width="1371pt" height="1160pt"
 viewBox="0.00 0.00 1371.36 1160.40" xmlns="http://www.w3.org/2000/svg" xmlns:xlink="http://www.w3.org/1999/xlink">
<g id="graph0" class="graph" transform="scale(1 1) rotate(0) translate(4 1156.4)">
<title>public.attribute</title>
<polygon fill="white" stroke="none" points="-4,4 -4,-1156.4 1367.36,-1156.4 1367.36,4 -4,4"/>
<!-- public.attribute -->
<g id="node1" class="node">
<title>public.attribute</title>
<polygon fill="#efefef" stroke="none" points="549.62,-789.4 549.62,-825 797.58,-825 797.58,-789.4 549.62,-789.4"/>
<polygon fill="none" stroke="black" points="549.62,-789.4 549.62,-825 797.58,-825 797.58,-789.4 549.62,-789.4"/>
<text text-anchor="start" x="556.62" y="-802.8" font-family="Arial Bold" font-size="18.00">public.attribute</text>
<text text-anchor="start" x="666.09" y="-802.8" font-family="Arial" font-size="14.00">    </text>
<text text-anchor="start" x="697.21" y="-802.8" font-family="Arial" font-size="14.00" fill="#666666">[BASE TABLE]</text>
<polygon fill="none" stroke="black" points="549.62,-758.6 549.62,-789.4 797.58,-789.4 797.58,-758.6 549.62,-758.6"/>
<text text-anchor="start" x="556.62" y="-770.8" font-family="Arial" font-size="14.00">model_key </text>
<text text-anchor="start" x="628.22" y="-770.8" font-family="Arial" font-size="14.00" fill="#666666">[text]</text>
<polygon fill="none" stroke="black" points="549.62,-727.8 549.62,-758.6 797.58,-758.6 797.58,-727.8 549.62,-727.8"/>
<text text-anchor="start" x="556.62" y="-740" font-family="Arial" font-size="14.00">attribute_key </text>
<text text-anchor="start" x="640.67" y="-740" font-family="Arial" font-size="14.00" fill="#666666">[text]</text>
<polygon fill="none" stroke="black" points="549.62,-697 549.62,-727.8 797.58,-727.8 797.58,-697 549.62,-697"/>
<text text-anchor="start" x="556.62" y="-709.2" font-family="Arial" font-size="14.00">class_key </text>
<text text-anchor="start" x="621.98" y="-709.2" font-family="Arial" font-size="14.00" fill="#666666">[text]</text>
<polygon fill="none" stroke="black" points="549.62,-666.2 549.62,-697 797.58,-697 797.58,-666.2 549.62,-666.2"/>
<text text-anchor="start" x="556.62" y="-678.4" font-family="Arial" font-size="14.00">name </text>
<text text-anchor="start" x="595.53" y="-678.4" font-family="Arial" font-size="14.00" fill="#666666">[text]</text>
<polygon fill="none" stroke="black" points="549.62,-635.4 549.62,-666.2 797.58,-666.2 797.58,-635.4 549.62,-635.4"/>
<text text-anchor="start" x="556.62" y="-647.6" font-family="Arial" font-size="14.00">details </text>
<text text-anchor="start" x="600.98" y="-647.6" font-family="Arial" font-size="14.00" fill="#666666">[text]</text>
<polygon fill="none" stroke="black" points="549.62,-604.6 549.62,-635.4 797.58,-635.4 797.58,-604.6 549.62,-604.6"/>
<text text-anchor="start" x="556.62" y="-616.8" font-family="Arial" font-size="14.00">data_type_rules </text>
<text text-anchor="start" x="660.14" y="-616.8" font-family="Arial" font-size="14.00" fill="#666666">[text]</text>
<polygon fill="none" stroke="black" points="549.62,-573.8 549.62,-604.6 797.58,-604.6 797.58,-573.8 549.62,-573.8"/>
<text text-anchor="start" x="556.62" y="-586" font-family="Arial" font-size="14.00">data_type_key </text>
<text text-anchor="start" x="651.58" y="-586" font-family="Arial" font-size="14.00" fill="#666666">[text]</text>
<polygon fill="none" stroke="black" points="549.62,-543 549.62,-573.8 797.58,-573.8 797.58,-543 549.62,-543"/>
<text text-anchor="start" x="556.62" y="-555.2" font-family="Arial" font-size="14.00">derivation_policy_key </text>
<text text-anchor="start" x="694.37" y="-555.2" font-family="Arial" font-size="14.00" fill="#666666">[text]</text>
<polygon fill="none" stroke="black" points="549.62,-512.2 549.62,-543 797.58,-543 797.58,-512.2 549.62,-512.2"/>
<text text-anchor="start" x="556.62" y="-524.4" font-family="Arial" font-size="14.00">nullable </text>
<text text-anchor="start" x="608.78" y="-524.4" font-family="Arial" font-size="14.00" fill="#666666">[boolean]</text>
<polygon fill="none" stroke="black" points="549.62,-481.4 549.62,-512.2 797.58,-512.2 797.58,-481.4 549.62,-481.4"/>
<text text-anchor="start" x="556.62" y="-493.6" font-family="Arial" font-size="14.00">uml_comment </text>
<text text-anchor="start" x="648.43" y="-493.6" font-family="Arial" font-size="14.00" fill="#666666">[text]</text>
<polygon fill="none" stroke="black" stroke-width="3" points="548.12,-479.9 548.12,-826.5 799.08,-826.5 799.08,-479.9 548.12,-479.9"/>
</g>
<!-- public.logic -->
<g id="node2" class="node">
<title>public.logic</title>
<polygon fill="#efefef" stroke="none" points="216.62,-258.8 216.62,-294.4 440.59,-294.4 440.59,-258.8 216.62,-258.8"/>
<polygon fill="none" stroke="black" points="216.62,-258.8 216.62,-294.4 440.59,-294.4 440.59,-258.8 216.62,-258.8"/>
<text text-anchor="start" x="223.62" y="-272.2" font-family="Arial Bold" font-size="18.00">public.logic</text>
<text text-anchor="start" x="309.1" y="-272.2" font-family="Arial" font-size="14.00">    </text>
<text text-anchor="start" x="340.22" y="-272.2" font-family="Arial" font-size="14.00" fill="#666666">[BASE TABLE]</text>
<polygon fill="none" stroke="black" points="216.62,-228 216.62,-258.8 440.59,-258.8 440.59,-228 216.62,-228"/>
<text text-anchor="start" x="223.62" y="-240.2" font-family="Arial" font-size="14.00">logic_key </text>
<text text-anchor="start" x="285.87" y="-240.2" font-family="Arial" font-size="14.00" fill="#666666">[text]</text>
<polygon fill="none" stroke="black" points="216.62,-197.2 216.62,-228 440.59,-228 440.59,-197.2 216.62,-197.2"/>
<text text-anchor="start" x="223.62" y="-209.4" font-family="Arial" font-size="14.00">model_key </text>
<text text-anchor="start" x="295.21" y="-209.4" font-family="Arial" font-size="14.00" fill="#666666">[text]</text>
<polygon fill="none" stroke="black" points="216.62,-166.4 216.62,-197.2 440.59,-197.2 440.59,-166.4 216.62,-166.4"/>
<text text-anchor="start" x="223.62" y="-178.6" font-family="Arial" font-size="14.00">description </text>
<text text-anchor="start" x="295.21" y="-178.6" font-family="Arial" font-size="14.00" fill="#666666">[text]</text>
<polygon fill="none" stroke="black" points="216.62,-135.6 216.62,-166.4 440.59,-166.4 440.59,-135.6 216.62,-135.6"/>
<text text-anchor="start" x="223.62" y="-147.8" font-family="Arial" font-size="14.00">notation </text>
<text text-anchor="start" x="277.33" y="-147.8" font-family="Arial" font-size="14.00" fill="#666666">[notation]</text>
<polygon fill="none" stroke="black" points="216.62,-104.8 216.62,-135.6 440.59,-135.6 440.59,-104.8 216.62,-104.8"/>
<text text-anchor="start" x="223.62" y="-117" font-family="Arial" font-size="14.00">specification </text>
<text text-anchor="start" x="304.55" y="-117" font-family="Arial" font-size="14.00" fill="#666666">[text]</text>
</g>
<!-- public.attribute&#45;&gt;public.logic -->
<g id="edge1" class="edge">
<title>public.attribute:model_key&#45;&gt;public.logic:model_key</title>
<path fill="none" stroke="black" d="M539.25,-769.48C487,-716.35 501.74,-212.6 441.59,-212.6"/>
<polygon fill="black" stroke="black" points="539.31,-769.51 546.37,-777.91 544.12,-771.83 548.02,-773.71 548.02,-773.71 548.02,-773.71 544.12,-771.83 550.28,-769.8 539.31,-769.51"/>
<text text-anchor="start" x="7" y="-784" font-family="Arial" font-size="10.00">FOREIGN KEY (model_key, derivation_policy_key) REFERENCES logic(model_key, logic_key) ON DELETE CASCADE</text>
</g>
<!-- public.data_type -->
<g id="node3" class="node">
<title>public.data_type</title>
<polygon fill="#efefef" stroke="none" points="544.63,-274.2 544.63,-309.8 802.58,-309.8 802.58,-274.2 544.63,-274.2"/>
<polygon fill="none" stroke="black" points="544.63,-274.2 544.63,-309.8 802.58,-309.8 802.58,-274.2 544.63,-274.2"/>
<text text-anchor="start" x="551.63" y="-287.6" font-family="Arial Bold" font-size="18.00">public.data_type</text>
<text text-anchor="start" x="671.09" y="-287.6" font-family="Arial" font-size="14.00">    </text>
<text text-anchor="start" x="702.21" y="-287.6" font-family="Arial" font-size="14.00" fill="#666666">[BASE TABLE]</text>
<polygon fill="none" stroke="black" points="544.63,-243.4 544.63,-274.2 802.58,-274.2 802.58,-243.4 544.63,-243.4"/>
<text text-anchor="start" x="551.63" y="-255.6" font-family="Arial" font-size="14.00">model_key </text>
<text text-anchor="start" x="623.22" y="-255.6" font-family="Arial" font-size="14.00" fill="#666666">[text]</text>
<polygon fill="none" stroke="black" points="544.63,-212.6 544.63,-243.4 802.58,-243.4 802.58,-212.6 544.63,-212.6"/>
<text text-anchor="start" x="551.63" y="-224.8" font-family="Arial" font-size="14.00">data_type_key </text>
<text text-anchor="start" x="646.59" y="-224.8" font-family="Arial" font-size="14.00" fill="#666666">[text]</text>
<polygon fill="none" stroke="black" points="544.63,-181.8 544.63,-212.6 802.58,-212.6 802.58,-181.8 544.63,-181.8"/>
<text text-anchor="start" x="551.63" y="-194" font-family="Arial" font-size="14.00">collection_type </text>
<text text-anchor="start" x="648.13" y="-194" font-family="Arial" font-size="14.00" fill="#666666">[collection_type]</text>
<polygon fill="none" stroke="black" points="544.63,-151 544.63,-181.8 802.58,-181.8 802.58,-151 544.63,-151"/>
<text text-anchor="start" x="551.63" y="-163.2" font-family="Arial" font-size="14.00">collection_unique </text>
<text text-anchor="start" x="663.71" y="-163.2" font-family="Arial" font-size="14.00" fill="#666666">[boolean]</text>
<polygon fill="none" stroke="black" points="544.63,-120.2 544.63,-151 802.58,-151 802.58,-120.2 544.63,-120.2"/>
<text text-anchor="start" x="551.63" y="-132.4" font-family="Arial" font-size="14.00">collection_min </text>
<text text-anchor="start" x="644.23" y="-132.4" font-family="Arial" font-size="14.00" fill="#666666">[bigint]</text>
<polygon fill="none" stroke="black" points="544.63,-89.4 544.63,-120.2 802.58,-120.2 802.58,-89.4 544.63,-89.4"/>
<text text-anchor="start" x="551.63" y="-101.6" font-family="Arial" font-size="14.00">collection_max </text>
<text text-anchor="start" x="648.12" y="-101.6" font-family="Arial" font-size="14.00" fill="#666666">[bigint]</text>
</g>
<!-- public.attribute&#45;&gt;public.data_type -->
<g id="edge2" class="edge">
<title>public.attribute:model_key&#45;&gt;public.data_type:model_key</title>
<path fill="none" stroke="black" d="M807.8,-769.23C856.19,-717.29 857.58,-258.8 803.58,-258.8"/>
<polygon fill="black" stroke="black" points="807.76,-769.25 796.81,-769.85 803.02,-771.7 799.18,-773.69 799.18,-773.69 799.18,-773.69 803.02,-771.7 800.95,-777.84 807.76,-769.25"/>
<text text-anchor="start" x="805.58" y="-784" font-family="Arial" font-size="10.00">FOREIGN KEY (model_key, data_type_key) REFERENCES data_type(model_key, data_type_key) ON DELETE CASCADE</text>
</g>
<!-- public.class -->
<g id="node4" class="node">
<title>public.class</title>
<polygon fill="#efefef" stroke="none" points="907.12,-320.4 907.12,-356 1130.09,-356 1130.09,-320.4 907.12,-320.4"/>
<polygon fill="none" stroke="black" points="907.12,-320.4 907.12,-356 1130.09,-356 1130.09,-320.4 907.12,-320.4"/>
<text text-anchor="start" x="914.12" y="-333.8" font-family="Arial Bold" font-size="18.00">public.class</text>
<text text-anchor="start" x="998.6" y="-333.8" font-family="Arial" font-size="14.00">    </text>
<text text-anchor="start" x="1029.72" y="-333.8" font-family="Arial" font-size="14.00" fill="#666666">[BASE TABLE]</text>
<polygon fill="none" stroke="black" points="907.12,-289.6 907.12,-320.4 1130.09,-320.4 1130.09,-289.6 907.12,-289.6"/>
<text text-anchor="start" x="914.12" y="-301.8" font-family="Arial" font-size="14.00">model_key </text>
<text text-anchor="start" x="985.71" y="-301.8" font-family="Arial" font-size="14.00" fill="#666666">[text]</text>
<polygon fill="none" stroke="black" points="907.12,-258.8 907.12,-289.6 1130.09,-289.6 1130.09,-258.8 907.12,-258.8"/>
<text text-anchor="start" x="914.12" y="-271" font-family="Arial" font-size="14.00">class_key </text>
<text text-anchor="start" x="979.48" y="-271" font-family="Arial" font-size="14.00" fill="#666666">[text]</text>
<polygon fill="none" stroke="black" points="907.12,-228 907.12,-258.8 1130.09,-258.8 1130.09,-228 907.12,-228"/>
<text text-anchor="start" x="914.12" y="-240.2" font-family="Arial" font-size="14.00">name </text>
<text text-anchor="start" x="953.03" y="-240.2" font-family="Arial" font-size="14.00" fill="#666666">[text]</text>
<polygon fill="none" stroke="black" points="907.12,-197.2 907.12,-228 1130.09,-228 1130.09,-197.2 907.12,-197.2"/>
<text text-anchor="start" x="914.12" y="-209.4" font-family="Arial" font-size="14.00">subdomain_key </text>
<text text-anchor="start" x="1016.07" y="-209.4" font-family="Arial" font-size="14.00" fill="#666666">[text]</text>
<polygon fill="none" stroke="black" points="907.12,-166.4 907.12,-197.2 1130.09,-197.2 1130.09,-166.4 907.12,-166.4"/>
<text text-anchor="start" x="914.12" y="-178.6" font-family="Arial" font-size="14.00">actor_key </text>
<text text-anchor="start" x="978.7" y="-178.6" font-family="Arial" font-size="14.00" fill="#666666">[text]</text>
<polygon fill="none" stroke="black" points="907.12,-135.6 907.12,-166.4 1130.09,-166.4 1130.09,-135.6 907.12,-135.6"/>
<text text-anchor="start" x="914.12" y="-147.8" font-family="Arial" font-size="14.00">superclass_of_key </text>
<text text-anchor="start" x="1033.96" y="-147.8" font-family="Arial" font-size="14.00" fill="#666666">[text]</text>
<polygon fill="none" stroke="black" points="907.12,-104.8 907.12,-135.6 1130.09,-135.6 1130.09,-104.8 907.12,-104.8"/>
<text text-anchor="start" x="914.12" y="-117" font-family="Arial" font-size="14.00">subclass_of_key </text>
<text text-anchor="start" x="1021.51" y="-117" font-family="Arial" font-size="14.00" fill="#666666">[text]</text>
<polygon fill="none" stroke="black" points="907.12,-74 907.12,-104.8 1130.09,-104.8 1130.09,-74 907.12,-74"/>
<text text-anchor="start" x="914.12" y="-86.2" font-family="Arial" font-size="14.00">details </text>
<text text-anchor="start" x="958.48" y="-86.2" font-family="Arial" font-size="14.00" fill="#666666">[text]</text>
<polygon fill="none" stroke="black" points="907.12,-43.2 907.12,-74 1130.09,-74 1130.09,-43.2 907.12,-43.2"/>
<text text-anchor="start" x="914.12" y="-55.4" font-family="Arial" font-size="14.00">uml_comment </text>
<text text-anchor="start" x="1005.92" y="-55.4" font-family="Arial" font-size="14.00" fill="#666666">[text]</text>
</g>
<!-- public.attribute&#45;&gt;public.class -->
<g id="edge3" class="edge">
<title>public.attribute:model_key&#45;&gt;public.class:model_key</title>
<path fill="none" stroke="black" d="M808.81,-772.39C898.49,-742.49 802.85,-305 906.12,-305"/>
<polygon fill="black" stroke="black" points="808.79,-772.4 798.21,-769.5 803.52,-773.22 799.24,-773.9 799.24,-773.9 799.24,-773.9 803.52,-773.22 799.61,-778.39 808.79,-772.4"/>
<text text-anchor="start" x="805.58" y="-758" font-family="Arial" font-size="10.00">FOREIGN KEY (model_key, class_key) REFERENCES class(model_key, class_key) ON DELETE CASCADE</text>
</g>
<!-- public.class_index -->
<g id="node5" class="node">
<title>public.class_index</title>
<polygon fill="#efefef" stroke="none" points="537.62,-1073.6 537.62,-1109.2 809.58,-1109.2 809.58,-1073.6 537.62,-1073.6"/>
<polygon fill="none" stroke="black" points="537.62,-1073.6 537.62,-1109.2 809.58,-1109.2 809.58,-1073.6 537.62,-1073.6"/>
<text text-anchor="start" x="544.62" y="-1087" font-family="Arial Bold" font-size="18.00">public.class_index</text>
<text text-anchor="start" x="678.09" y="-1087" font-family="Arial" font-size="14.00">    </text>
<text text-anchor="start" x="709.21" y="-1087" font-family="Arial" font-size="14.00" fill="#666666">[BASE TABLE]</text>
<polygon fill="none" stroke="black" points="537.62,-1042.8 537.62,-1073.6 809.58,-1073.6 809.58,-1042.8 537.62,-1042.8"/>
<text text-anchor="start" x="544.62" y="-1055" font-family="Arial" font-size="14.00">model_key </text>
<text text-anchor="start" x="616.22" y="-1055" font-family="Arial" font-size="14.00" fill="#666666">[text]</text>
<polygon fill="none" stroke="black" points="537.62,-1012 537.62,-1042.8 809.58,-1042.8 809.58,-1012 537.62,-1012"/>
<text text-anchor="start" x="544.62" y="-1024.2" font-family="Arial" font-size="14.00">class_key </text>
<text text-anchor="start" x="609.98" y="-1024.2" font-family="Arial" font-size="14.00" fill="#666666">[text]</text>
<polygon fill="none" stroke="black" points="537.62,-981.2 537.62,-1012 809.58,-1012 809.58,-981.2 537.62,-981.2"/>
<text text-anchor="start" x="544.62" y="-993.4" font-family="Arial" font-size="14.00">index_num </text>
<text text-anchor="start" x="617" y="-993.4" font-family="Arial" font-size="14.00" fill="#666666">[integer]</text>
<polygon fill="none" stroke="black" points="537.62,-950.4 537.62,-981.2 809.58,-981.2 809.58,-950.4 537.62,-950.4"/>
<text text-anchor="start" x="544.62" y="-962.6" font-family="Arial" font-size="14.00">attribute_key </text>
<text text-anchor="start" x="628.67" y="-962.6" font-family="Arial" font-size="14.00" fill="#666666">[text]</text>
</g>
<!-- public.class_index&#45;&gt;public.attribute -->
<g id="edge4" class="edge">
<title>public.class_index:model_key&#45;&gt;public.attribute:model_key</title>
<path fill="none" stroke="black" d="M820.99,-1057.53C936.23,-1042.33 921.42,-774 798.58,-774"/>
<polygon fill="black" stroke="black" points="820.9,-1057.54 810.63,-1053.69 815.57,-1057.88 811.25,-1058.16 811.25,-1058.16 811.25,-1058.16 815.57,-1057.88 811.21,-1062.67 820.9,-1057.54"/>
<text text-anchor="start" x="817.58" y="-1068.2" font-family="Arial" font-size="10.00">FOREIGN KEY (model_key, attribute_key) REFERENCES attribute(model_key, attribute_key) ON DELETE CASCADE</text>
</g>
</g>
</svg>
