<?xml version="1.0" encoding="UTF-8" standalone="no"?>
<!DOCTYPE svg PUBLIC "-//W3C//DTD SVG 1.1//EN"
 "http://www.w3.org/Graphics/SVG/1.1/DTD/svg11.dtd">
<!-- Generated by graphviz version 12.1.2 (20240928.0832)
 -->
<!-- Title: public.data_type_atomic2_span Pages: 1 -->
<svg width="904pt" height="787pt"
 viewBox="0.00 0.00 904.09 786.80" xmlns="http://www.w3.org/2000/svg" xmlns:xlink="http://www.w3.org/1999/xlink">
<g id="graph0" class="graph" transform="scale(1 1) rotate(0) translate(4 782.8)">
<title>public.data_type_atomic2_span</title>
<polygon fill="white" stroke="none" points="-4,4 -4,-782.8 900.09,-782.8 900.09,4 -4,4"/>
<!-- public.data_type_atomic2_span -->
<g id="node1" class="node">
<title>public.data_type_atomic2_span</title>
<polygon fill="#efefef" stroke="none" points="46.2,-697 46.2,-732.6 413.13,-732.6 413.13,-697 46.2,-697"/>
<polygon fill="none" stroke="black" points="46.2,-697 46.2,-732.6 413.13,-732.6 413.13,-697 46.2,-697"/>
<text text-anchor="start" x="53.2" y="-710.4" font-family="Arial Bold" font-size="18.00">public.data_type_atomic2_span</text>
<text text-anchor="start" x="281.64" y="-710.4" font-family="Arial" font-size="14.00">    </text>
<text text-anchor="start" x="312.75" y="-710.4" font-family="Arial" font-size="14.00" fill="#666666">[BASE TABLE]</text>
<polygon fill="none" stroke="black" points="46.2,-666.2 46.2,-697 413.13,-697 413.13,-666.2 46.2,-666.2"/>
<text text-anchor="start" x="53.2" y="-678.4" font-family="Arial" font-size="14.00">data_type_id </text>
<text text-anchor="start" x="137.27" y="-678.4" font-family="Arial" font-size="14.00" fill="#666666">[bigint]</text>
<polygon fill="none" stroke="black" points="46.2,-635.4 46.2,-666.2 413.13,-666.2 413.13,-635.4 46.2,-635.4"/>
<text text-anchor="start" x="53.2" y="-647.6" font-family="Arial" font-size="14.00">lower_type </text>
<text text-anchor="start" x="124.79" y="-647.6" font-family="Arial" font-size="14.00" fill="#666666">[bound_limit_type]</text>
<polygon fill="none" stroke="black" points="46.2,-604.6 46.2,-635.4 413.13,-635.4 413.13,-604.6 46.2,-604.6"/>
<text text-anchor="start" x="53.2" y="-616.8" font-family="Arial" font-size="14.00">lower_value </text>
<text text-anchor="start" x="131.8" y="-616.8" font-family="Arial" font-size="14.00" fill="#666666">[bigint]</text>
<polygon fill="none" stroke="black" points="46.2,-573.8 46.2,-604.6 413.13,-604.6 413.13,-573.8 46.2,-573.8"/>
<text text-anchor="start" x="53.2" y="-586" font-family="Arial" font-size="14.00">lower_denominator </text>
<text text-anchor="start" x="176.16" y="-586" font-family="Arial" font-size="14.00" fill="#666666">[bigint]</text>
<polygon fill="none" stroke="black" points="46.2,-543 46.2,-573.8 413.13,-573.8 413.13,-543 46.2,-543"/>
<text text-anchor="start" x="53.2" y="-555.2" font-family="Arial" font-size="14.00">higher_type </text>
<text text-anchor="start" x="130.25" y="-555.2" font-family="Arial" font-size="14.00" fill="#666666">[bound_limit_type]</text>
<polygon fill="none" stroke="black" points="46.2,-512.2 46.2,-543 413.13,-543 413.13,-512.2 46.2,-512.2"/>
<text text-anchor="start" x="53.2" y="-524.4" font-family="Arial" font-size="14.00">higher_value </text>
<text text-anchor="start" x="137.26" y="-524.4" font-family="Arial" font-size="14.00" fill="#666666">[bigint]</text>
<polygon fill="none" stroke="black" points="46.2,-481.4 46.2,-512.2 413.13,-512.2 413.13,-481.4 46.2,-481.4"/>
<text text-anchor="start" x="53.2" y="-493.6" font-family="Arial" font-size="14.00">higher_denominator </text>
<text text-anchor="start" x="181.62" y="-493.6" font-family="Arial" font-size="14.00" fill="#666666">[bigint]</text>
<polygon fill="none" stroke="black" points="46.2,-450.6 46.2,-481.4 413.13,-481.4 413.13,-450.6 46.2,-450.6"/>
<text text-anchor="start" x="53.2" y="-462.8" font-family="Arial" font-size="14.00">units </text>
<text text-anchor="start" x="86.66" y="-462.8" font-family="Arial" font-size="14.00" fill="#666666">[text]</text>
<polygon fill="none" stroke="black" points="46.2,-419.8 46.2,-450.6 413.13,-450.6 413.13,-419.8 46.2,-419.8"/>
<text text-anchor="start" x="53.2" y="-432" font-family="Arial" font-size="14.00">precision </text>
<text text-anchor="start" x="113.12" y="-432" font-family="Arial" font-size="14.00" fill="#666666">[bigint]</text>
<polygon fill="none" stroke="black" stroke-width="3" points="44.7,-418.3 44.7,-734.1 414.63,-734.1 414.63,-418.3 44.7,-418.3"/>
</g>
<!-- public.data_type_atomic2 -->
<g id="node2" class="node">
<title>public.data_type_atomic2</title>
<polygon fill="#efefef" stroke="none" points="67.2,-258.8 67.2,-294.4 392.13,-294.4 392.13,-258.8 67.2,-258.8"/>
<polygon fill="none" stroke="black" points="67.2,-258.8 67.2,-294.4 392.13,-294.4 392.13,-258.8 67.2,-258.8"/>
<text text-anchor="start" x="74.2" y="-272.2" font-family="Arial Bold" font-size="18.00">public.data_type_atomic2</text>
<text text-anchor="start" x="260.64" y="-272.2" font-family="Arial" font-size="14.00">    </text>
<text text-anchor="start" x="291.76" y="-272.2" font-family="Arial" font-size="14.00" fill="#666666">[BASE TABLE]</text>
<polygon fill="none" stroke="black" points="67.2,-228 67.2,-258.8 392.13,-258.8 392.13,-228 67.2,-228"/>
<text text-anchor="start" x="74.2" y="-240.2" font-family="Arial" font-size="14.00">data_type_id </text>
<text text-anchor="start" x="158.27" y="-240.2" font-family="Arial" font-size="14.00" fill="#666666">[integer]</text>
<polygon fill="none" stroke="black" points="67.2,-197.2 67.2,-228 392.13,-228 392.13,-197.2 67.2,-197.2"/>
<text text-anchor="start" x="74.2" y="-209.4" font-family="Arial" font-size="14.00">constraint_type </text>
<text text-anchor="start" x="173.03" y="-209.4" font-family="Arial" font-size="14.00" fill="#666666">[constraint_type]</text>
<polygon fill="none" stroke="black" points="67.2,-166.4 67.2,-197.2 392.13,-197.2 392.13,-166.4 67.2,-166.4"/>
<text text-anchor="start" x="74.2" y="-178.6" font-family="Arial" font-size="14.00">reference </text>
<text text-anchor="start" x="137.23" y="-178.6" font-family="Arial" font-size="14.00" fill="#666666">[text]</text>
<polygon fill="none" stroke="black" points="67.2,-135.6 67.2,-166.4 392.13,-166.4 392.13,-135.6 67.2,-135.6"/>
<text text-anchor="start" x="74.2" y="-147.8" font-family="Arial" font-size="14.00">enum_ordered </text>
<text text-anchor="start" x="169.15" y="-147.8" font-family="Arial" font-size="14.00" fill="#666666">[boolean]</text>
<polygon fill="none" stroke="black" points="67.2,-104.8 67.2,-135.6 392.13,-135.6 392.13,-104.8 67.2,-104.8"/>
<text text-anchor="start" x="74.2" y="-117" font-family="Arial" font-size="14.00">object_class_key </text>
<text text-anchor="start" x="184.7" y="-117" font-family="Arial" font-size="14.00" fill="#666666">[text]</text>
<polygon fill="none" stroke="black" points="67.2,-74 67.2,-104.8 392.13,-104.8 392.13,-74 67.2,-74"/>
<text text-anchor="start" x="74.2" y="-86.2" font-family="Arial" font-size="14.00">details </text>
<text text-anchor="start" x="118.56" y="-86.2" font-family="Arial" font-size="14.00" fill="#666666">[text]</text>
<polygon fill="none" stroke="black" points="67.2,-43.2 67.2,-74 392.13,-74 392.13,-43.2 67.2,-43.2"/>
<text text-anchor="start" x="74.2" y="-55.4" font-family="Arial" font-size="14.00">uml_comment </text>
<text text-anchor="start" x="166" y="-55.4" font-family="Arial" font-size="14.00" fill="#666666">[text]</text>
</g>
<!-- public.data_type_atomic2_span&#45;&gt;public.data_type_atomic2 -->
<g id="edge1" class="edge">
<title>public.data_type_atomic2_span:data_type_id&#45;&gt;public.data_type_atomic2:data_type_id</title>
<path fill="none" stroke="black" d="M424.23,-679.93C510,-650.51 487.1,-243.4 393.13,-243.4"/>
<polygon fill="black" stroke="black" points="424.32,-679.91 413.72,-677.11 419.06,-680.78 414.79,-681.49 414.79,-681.49 414.79,-681.49 419.06,-680.78 415.19,-685.98 424.32,-679.91"/>
<text text-anchor="start" x="421.13" y="-691.6" font-family="Arial" font-size="10.00">FOREIGN KEY (data_type_id) REFERENCES data_type_atomic2(data_type_id) ON DELETE CASCADE</text>
</g>
</g>
</svg>
