<?xml version="1.0" encoding="UTF-8" standalone="no"?>
<!DOCTYPE svg PUBLIC "-//W3C//DTD SVG 1.1//EN"
 "http://www.w3.org/Graphics/SVG/1.1/DTD/svg11.dtd">
<!-- Generated by graphviz version 12.1.2 (20240928.0832)
 -->
<!-- Title: public.invariant Pages: 1 -->
<svg width="802pt" height="540pt"
 viewBox="0.00 0.00 801.86 540.40" xmlns="http://www.w3.org/2000/svg" xmlns:xlink="http://www.w3.org/1999/xlink">
<g id="graph0" class="graph" transform="scale(1 1) rotate(0) translate(4 536.4)">
<title>public.invariant</title>
<polygon fill="white" stroke="none" points="-4,4 -4,-536.4 797.86,-536.4 797.86,4 -4,4"/>
<!-- public.invariant -->
<g id="node1" class="node">
<title>public.invariant</title>
<polygon fill="#efefef" stroke="none" points="46.2,-450.6 46.2,-486.2 298.16,-486.2 298.16,-450.6 46.2,-450.6"/>
<polygon fill="none" stroke="black" points="46.2,-450.6 46.2,-486.2 298.16,-486.2 298.16,-450.6 46.2,-450.6"/>
<text text-anchor="start" x="53.2" y="-464" font-family="Arial Bold" font-size="18.00">public.invariant</text>
<text text-anchor="start" x="166.67" y="-464" font-family="Arial" font-size="14.00">    </text>
<text text-anchor="start" x="197.78" y="-464" font-family="Arial" font-size="14.00" fill="#666666">[BASE TABLE]</text>
<polygon fill="none" stroke="black" points="46.2,-419.8 46.2,-450.6 298.16,-450.6 298.16,-419.8 46.2,-419.8"/>
<text text-anchor="start" x="53.2" y="-432" font-family="Arial" font-size="14.00">model_key </text>
<text text-anchor="start" x="124.79" y="-432" font-family="Arial" font-size="14.00" fill="#666666">[text]</text>
<polygon fill="none" stroke="black" points="46.2,-389 46.2,-419.8 298.16,-419.8 298.16,-389 46.2,-389"/>
<text text-anchor="start" x="53.2" y="-401.2" font-family="Arial" font-size="14.00">logic_key </text>
<text text-anchor="start" x="115.45" y="-401.2" font-family="Arial" font-size="14.00" fill="#666666">[text]</text>
<polygon fill="none" stroke="black" stroke-width="3" points="44.7,-387.5 44.7,-487.7 299.66,-487.7 299.66,-387.5 44.7,-387.5"/>
</g>
<!-- public.logic -->
<g id="node2" class="node">
<title>public.logic</title>
<polygon fill="#efefef" stroke="none" points="60.19,-228 60.19,-263.6 284.16,-263.6 284.16,-228 60.19,-228"/>
<polygon fill="none" stroke="black" points="60.19,-228 60.19,-263.6 284.16,-263.6 284.16,-228 60.19,-228"/>
<text text-anchor="start" x="67.19" y="-241.4" font-family="Arial Bold" font-size="18.00">public.logic</text>
<text text-anchor="start" x="152.67" y="-241.4" font-family="Arial" font-size="14.00">    </text>
<text text-anchor="start" x="183.79" y="-241.4" font-family="Arial" font-size="14.00" fill="#666666">[BASE TABLE]</text>
<polygon fill="none" stroke="black" points="60.19,-197.2 60.19,-228 284.16,-228 284.16,-197.2 60.19,-197.2"/>
<text text-anchor="start" x="67.19" y="-209.4" font-family="Arial" font-size="14.00">logic_key </text>
<text text-anchor="start" x="129.45" y="-209.4" font-family="Arial" font-size="14.00" fill="#666666">[text]</text>
<polygon fill="none" stroke="black" points="60.19,-166.4 60.19,-197.2 284.16,-197.2 284.16,-166.4 60.19,-166.4"/>
<text text-anchor="start" x="67.19" y="-178.6" font-family="Arial" font-size="14.00">model_key </text>
<text text-anchor="start" x="138.78" y="-178.6" font-family="Arial" font-size="14.00" fill="#666666">[text]</text>
<polygon fill="none" stroke="black" points="60.19,-135.6 60.19,-166.4 284.16,-166.4 284.16,-135.6 60.19,-135.6"/>
<text text-anchor="start" x="67.19" y="-147.8" font-family="Arial" font-size="14.00">sort_order </text>
<text text-anchor="start" x="134.89" y="-147.8" font-family="Arial" font-size="14.00" fill="#666666">[integer]</text>
<polygon fill="none" stroke="black" points="60.19,-104.8 60.19,-135.6 284.16,-135.6 284.16,-104.8 60.19,-104.8"/>
<text text-anchor="start" x="67.19" y="-117" font-family="Arial" font-size="14.00">description </text>
<text text-anchor="start" x="138.78" y="-117" font-family="Arial" font-size="14.00" fill="#666666">[text]</text>
<polygon fill="none" stroke="black" points="60.19,-74 60.19,-104.8 284.16,-104.8 284.16,-74 60.19,-74"/>
<text text-anchor="start" x="67.19" y="-86.2" font-family="Arial" font-size="14.00">notation </text>
<text text-anchor="start" x="120.9" y="-86.2" font-family="Arial" font-size="14.00" fill="#666666">[notation]</text>
<polygon fill="none" stroke="black" points="60.19,-43.2 60.19,-74 284.16,-74 284.16,-43.2 60.19,-43.2"/>
<text text-anchor="start" x="67.19" y="-55.4" font-family="Arial" font-size="14.00">specification </text>
<text text-anchor="start" x="148.12" y="-55.4" font-family="Arial" font-size="14.00" fill="#666666">[text]</text>
</g>
<!-- public.invariant&#45;&gt;public.logic -->
<g id="edge1" class="edge">
<title>public.invariant:model_key&#45;&gt;public.logic:model_key</title>
<path fill="none" stroke="black" d="M308.91,-432.35C353.64,-404.51 338.04,-181.8 285.16,-181.8"/>
<polygon fill="black" stroke="black" points="309.08,-432.31 298.22,-430.79 303.96,-433.8 299.8,-435.01 299.8,-435.01 299.8,-435.01 303.96,-433.8 300.74,-439.43 309.08,-432.31"/>
<text text-anchor="start" x="306.16" y="-445.2" font-family="Arial" font-size="10.00">FOREIGN KEY (model_key, logic_key) REFERENCES logic(model_key, logic_key) ON DELETE CASCADE</text>
</g>
</g>
</svg>
