<?xml version="1.0" encoding="UTF-8" standalone="no"?>
<!DOCTYPE svg PUBLIC "-//W3C//DTD SVG 1.1//EN"
 "http://www.w3.org/Graphics/SVG/1.1/DTD/svg11.dtd">
<!-- Generated by graphviz version 12.1.2 (20240928.0832)
 -->
<!-- Title: public.class_invariant Pages: 1 -->
<svg width="1302pt" height="756pt"
 viewBox="0.00 0.00 1302.00 756.00" xmlns="http://www.w3.org/2000/svg" xmlns:xlink="http://www.w3.org/1999/xlink">
<g id="graph0" class="graph" transform="scale(1 1) rotate(0) translate(4 752)">
<title>public.class_invariant</title>
<polygon fill="white" stroke="none" points="-4,4 -4,-752 1298,-752 1298,4 -4,4"/>
<!-- public.class_invariant -->
<g id="node1" class="node">
<title>public.class_invariant</title>
<polygon fill="#efefef" stroke="none" points="495.7,-666.2 495.7,-701.8 791.65,-701.8 791.65,-666.2 495.7,-666.2"/>
<polygon fill="none" stroke="black" points="495.7,-666.2 495.7,-701.8 791.65,-701.8 791.65,-666.2 495.7,-666.2"/>
<text text-anchor="start" x="502.7" y="-679.6" font-family="Arial Bold" font-size="18.00">public.class_invariant</text>
<text text-anchor="start" x="660.16" y="-679.6" font-family="Arial" font-size="14.00">    </text>
<text text-anchor="start" x="691.28" y="-679.6" font-family="Arial" font-size="14.00" fill="#666666">[BASE TABLE]</text>
<polygon fill="none" stroke="black" points="495.7,-635.4 495.7,-666.2 791.65,-666.2 791.65,-635.4 495.7,-635.4"/>
<text text-anchor="start" x="502.7" y="-647.6" font-family="Arial" font-size="14.00">model_key </text>
<text text-anchor="start" x="574.3" y="-647.6" font-family="Arial" font-size="14.00" fill="#666666">[text]</text>
<polygon fill="none" stroke="black" points="495.7,-604.6 495.7,-635.4 791.65,-635.4 791.65,-604.6 495.7,-604.6"/>
<text text-anchor="start" x="502.7" y="-616.8" font-family="Arial" font-size="14.00">class_key </text>
<text text-anchor="start" x="568.06" y="-616.8" font-family="Arial" font-size="14.00" fill="#666666">[text]</text>
<polygon fill="none" stroke="black" points="495.7,-573.8 495.7,-604.6 791.65,-604.6 791.65,-573.8 495.7,-573.8"/>
<text text-anchor="start" x="502.7" y="-586" font-family="Arial" font-size="14.00">logic_key </text>
<text text-anchor="start" x="564.96" y="-586" font-family="Arial" font-size="14.00" fill="#666666">[text]</text>
<polygon fill="none" stroke="black" stroke-width="3" points="494.2,-572.3 494.2,-703.3 793.15,-703.3 793.15,-572.3 494.2,-572.3"/>
</g>
<!-- public.logic -->
<g id="node2" class="node">
<title>public.logic</title>
<polygon fill="#efefef" stroke="none" points="352.88,-412.8 352.88,-448.4 596.47,-448.4 596.47,-412.8 352.88,-412.8"/>
<polygon fill="none" stroke="black" points="352.88,-412.8 352.88,-448.4 596.47,-448.4 596.47,-412.8 352.88,-412.8"/>
<text text-anchor="start" x="369.69" y="-426.2" font-family="Arial Bold" font-size="18.00">public.logic</text>
<text text-anchor="start" x="455.17" y="-426.2" font-family="Arial" font-size="14.00">    </text>
<text text-anchor="start" x="486.29" y="-426.2" font-family="Arial" font-size="14.00" fill="#666666">[BASE TABLE]</text>
<polygon fill="none" stroke="black" points="352.88,-382 352.88,-412.8 596.47,-412.8 596.47,-382 352.88,-382"/>
<text text-anchor="start" x="359.88" y="-394.2" font-family="Arial" font-size="14.00">logic_key </text>
<text text-anchor="start" x="422.14" y="-394.2" font-family="Arial" font-size="14.00" fill="#666666">[text]</text>
<polygon fill="none" stroke="black" points="352.88,-351.2 352.88,-382 596.47,-382 596.47,-351.2 352.88,-351.2"/>
<text text-anchor="start" x="359.88" y="-363.4" font-family="Arial" font-size="14.00">model_key </text>
<text text-anchor="start" x="431.48" y="-363.4" font-family="Arial" font-size="14.00" fill="#666666">[text]</text>
<polygon fill="none" stroke="black" points="352.88,-320.4 352.88,-351.2 596.47,-351.2 596.47,-320.4 352.88,-320.4"/>
<text text-anchor="start" x="359.88" y="-332.6" font-family="Arial" font-size="14.00">sort_order </text>
<text text-anchor="start" x="427.58" y="-332.6" font-family="Arial" font-size="14.00" fill="#666666">[integer]</text>
<polygon fill="none" stroke="black" points="352.88,-289.6 352.88,-320.4 596.47,-320.4 596.47,-289.6 352.88,-289.6"/>
<text text-anchor="start" x="359.88" y="-301.8" font-family="Arial" font-size="14.00">logic_type </text>
<text text-anchor="start" x="426.81" y="-301.8" font-family="Arial" font-size="14.00" fill="#666666">[logic_type]</text>
<polygon fill="none" stroke="black" points="352.88,-258.8 352.88,-289.6 596.47,-289.6 596.47,-258.8 352.88,-258.8"/>
<text text-anchor="start" x="359.88" y="-271" font-family="Arial" font-size="14.00">description </text>
<text text-anchor="start" x="431.48" y="-271" font-family="Arial" font-size="14.00" fill="#666666">[text]</text>
<polygon fill="none" stroke="black" points="352.88,-228 352.88,-258.8 596.47,-258.8 596.47,-228 352.88,-228"/>
<text text-anchor="start" x="359.88" y="-240.2" font-family="Arial" font-size="14.00">target </text>
<text text-anchor="start" x="399.57" y="-240.2" font-family="Arial" font-size="14.00" fill="#666666">[text]</text>
<polygon fill="none" stroke="black" points="352.88,-197.2 352.88,-228 596.47,-228 596.47,-197.2 352.88,-197.2"/>
<text text-anchor="start" x="359.88" y="-209.4" font-family="Arial" font-size="14.00">notation </text>
<text text-anchor="start" x="413.59" y="-209.4" font-family="Arial" font-size="14.00" fill="#666666">[notation]</text>
<polygon fill="none" stroke="black" points="352.88,-166.4 352.88,-197.2 596.47,-197.2 596.47,-166.4 352.88,-166.4"/>
<text text-anchor="start" x="359.88" y="-178.6" font-family="Arial" font-size="14.00">specification </text>
<text text-anchor="start" x="440.81" y="-178.6" font-family="Arial" font-size="14.00" fill="#666666">[text]</text>
<polygon fill="none" stroke="black" points="352.88,-135.6 352.88,-166.4 596.47,-166.4 596.47,-135.6 352.88,-135.6"/>
<text text-anchor="start" x="359.88" y="-147.8" font-family="Arial" font-size="14.00">target_type_notation </text>
<text text-anchor="start" x="491.43" y="-147.8" font-family="Arial" font-size="14.00" fill="#666666">[notation]</text>
<polygon fill="none" stroke="black" points="352.88,-104.8 352.88,-135.6 596.47,-135.6 596.47,-104.8 352.88,-104.8"/>
<text text-anchor="start" x="359.88" y="-117" font-family="Arial" font-size="14.00">target_type_specification </text>
<text text-anchor="start" x="518.65" y="-117" font-family="Arial" font-size="14.00" fill="#666666">[text]</text>
<polygon fill="none" stroke="black" points="352.88,-74 352.88,-104.8 596.47,-104.8 596.47,-74 352.88,-74"/>
<text text-anchor="start" x="359.88" y="-86.2" font-family="Arial" font-size="14.00">destroy_event_specification </text>
<text text-anchor="start" x="536.54" y="-86.2" font-family="Arial" font-size="14.00" fill="#666666">[text]</text>
<polygon fill="none" stroke="black" points="352.88,-43.2 352.88,-74 596.47,-74 596.47,-43.2 352.88,-43.2"/>
<text text-anchor="start" x="359.88" y="-55.4" font-family="Arial" font-size="14.00">endpoint_selector_specification </text>
<text text-anchor="start" x="559.12" y="-55.4" font-family="Arial" font-size="14.00" fill="#666666">[text]</text>
</g>
<!-- public.class_invariant&#45;&gt;public.logic -->
<g id="edge1" class="edge">
<title>public.class_invariant:model_key&#45;&gt;public.logic:model_key</title>
<path fill="none" stroke="black" d="M484.56,-649.73C443.27,-640.22 466.15,-569.18 495.7,-527.6 523.25,-488.84 568.92,-530.37 596.47,-491.6 628.65,-446.31 653.03,-366.6 597.47,-366.6"/>
<polygon fill="black" stroke="black" points="484.43,-649.72 493.9,-655.24 489.73,-650.28 494.04,-650.73 494.04,-650.73 494.04,-650.73 489.73,-650.28 494.84,-646.29 484.43,-649.72"/>
<text text-anchor="start" x="7" y="-660.8" font-family="Arial" font-size="10.00">FOREIGN KEY (model_key, logic_key) REFERENCES logic(model_key, logic_key) ON DELETE CASCADE</text>
</g>
<!-- public.class -->
<g id="node3" class="node">
<title>public.class</title>
<polygon fill="#efefef" stroke="none" points="701.19,-397.4 701.19,-433 924.16,-433 924.16,-397.4 701.19,-397.4"/>
<polygon fill="none" stroke="black" points="701.19,-397.4 701.19,-433 924.16,-433 924.16,-397.4 701.19,-397.4"/>
<text text-anchor="start" x="708.19" y="-410.8" font-family="Arial Bold" font-size="18.00">public.class</text>
<text text-anchor="start" x="792.67" y="-410.8" font-family="Arial" font-size="14.00">    </text>
<text text-anchor="start" x="823.79" y="-410.8" font-family="Arial" font-size="14.00" fill="#666666">[BASE TABLE]</text>
<polygon fill="none" stroke="black" points="701.19,-366.6 701.19,-397.4 924.16,-397.4 924.16,-366.6 701.19,-366.6"/>
<text text-anchor="start" x="708.19" y="-378.8" font-family="Arial" font-size="14.00">model_key </text>
<text text-anchor="start" x="779.78" y="-378.8" font-family="Arial" font-size="14.00" fill="#666666">[text]</text>
<polygon fill="none" stroke="black" points="701.19,-335.8 701.19,-366.6 924.16,-366.6 924.16,-335.8 701.19,-335.8"/>
<text text-anchor="start" x="708.19" y="-348" font-family="Arial" font-size="14.00">class_key </text>
<text text-anchor="start" x="773.55" y="-348" font-family="Arial" font-size="14.00" fill="#666666">[text]</text>
<polygon fill="none" stroke="black" points="701.19,-305 701.19,-335.8 924.16,-335.8 924.16,-305 701.19,-305"/>
<text text-anchor="start" x="708.19" y="-317.2" font-family="Arial" font-size="14.00">name </text>
<text text-anchor="start" x="747.1" y="-317.2" font-family="Arial" font-size="14.00" fill="#666666">[text]</text>
<polygon fill="none" stroke="black" points="701.19,-274.2 701.19,-305 924.16,-305 924.16,-274.2 701.19,-274.2"/>
<text text-anchor="start" x="708.19" y="-286.4" font-family="Arial" font-size="14.00">subdomain_key </text>
<text text-anchor="start" x="810.14" y="-286.4" font-family="Arial" font-size="14.00" fill="#666666">[text]</text>
<polygon fill="none" stroke="black" points="701.19,-243.4 701.19,-274.2 924.16,-274.2 924.16,-243.4 701.19,-243.4"/>
<text text-anchor="start" x="708.19" y="-255.6" font-family="Arial" font-size="14.00">actor_key </text>
<text text-anchor="start" x="772.78" y="-255.6" font-family="Arial" font-size="14.00" fill="#666666">[text]</text>
<polygon fill="none" stroke="black" points="701.19,-212.6 701.19,-243.4 924.16,-243.4 924.16,-212.6 701.19,-212.6"/>
<text text-anchor="start" x="708.19" y="-224.8" font-family="Arial" font-size="14.00">superclass_of_key </text>
<text text-anchor="start" x="828.03" y="-224.8" font-family="Arial" font-size="14.00" fill="#666666">[text]</text>
<polygon fill="none" stroke="black" points="701.19,-181.8 701.19,-212.6 924.16,-212.6 924.16,-181.8 701.19,-181.8"/>
<text text-anchor="start" x="708.19" y="-194" font-family="Arial" font-size="14.00">subclass_of_key </text>
<text text-anchor="start" x="815.58" y="-194" font-family="Arial" font-size="14.00" fill="#666666">[text]</text>
<polygon fill="none" stroke="black" points="701.19,-151 701.19,-181.8 924.16,-181.8 924.16,-151 701.19,-151"/>
<text text-anchor="start" x="708.19" y="-163.2" font-family="Arial" font-size="14.00">details </text>
<text text-anchor="start" x="752.55" y="-163.2" font-family="Arial" font-size="14.00" fill="#666666">[text]</text>
<polygon fill="none" stroke="black" points="701.19,-120.2 701.19,-151 924.16,-151 924.16,-120.2 701.19,-120.2"/>
<text text-anchor="start" x="708.19" y="-132.4" font-family="Arial" font-size="14.00">unfinished_notes </text>
<text text-anchor="start" x="817.94" y="-132.4" font-family="Arial" font-size="14.00" fill="#666666">[text]</text>
<polygon fill="none" stroke="black" points="701.19,-89.4 701.19,-120.2 924.16,-120.2 924.16,-89.4 701.19,-89.4"/>
<text text-anchor="start" x="708.19" y="-101.6" font-family="Arial" font-size="14.00">uml_comment </text>
<text text-anchor="start" x="800" y="-101.6" font-family="Arial" font-size="14.00" fill="#666666">[text]</text>
<polygon fill="none" stroke="black" points="701.19,-58.6 701.19,-89.4 924.16,-89.4 924.16,-58.6 701.19,-58.6"/>
<text text-anchor="start" x="708.19" y="-70.8" font-family="Arial" font-size="14.00">marked </text>
<text text-anchor="start" x="758.76" y="-70.8" font-family="Arial" font-size="14.00" fill="#666666">[boolean]</text>
</g>
<!-- public.class_invariant&#45;&gt;public.class -->
<g id="edge2" class="edge">
<title>public.class_invariant:model_key&#45;&gt;public.class:model_key</title>
<path fill="none" stroke="black" d="M803,-649.71C843.47,-640.26 817.43,-571.49 791.65,-527.6 768.23,-487.73 724.66,-516.04 701.19,-476.2 679.94,-440.12 658.32,-382 700.19,-382"/>
<polygon fill="black" stroke="black" points="802.93,-649.72 792.51,-646.29 797.62,-650.28 793.31,-650.73 793.31,-650.73 793.31,-650.73 797.62,-650.28 793.45,-655.24 802.93,-649.72"/>
<text text-anchor="start" x="799.65" y="-660.8" font-family="Arial" font-size="10.00">FOREIGN KEY (model_key, class_key) REFERENCES class(model_key, class_key) ON DELETE CASCADE</text>
</g>
</g>
</svg>
