<?xml version="1.0" encoding="UTF-8" standalone="no"?>
<!DOCTYPE svg PUBLIC "-//W3C//DTD SVG 1.1//EN"
 "http://www.w3.org/Graphics/SVG/1.1/DTD/svg11.dtd">
<!-- Generated by graphviz version 12.1.2 (20240928.0832)
 -->
<!-- Title: public.model Pages: 1 -->
<svg width="4710pt" height="756pt"
 viewBox="0.00 0.00 4710.31 756.00" xmlns="http://www.w3.org/2000/svg" xmlns:xlink="http://www.w3.org/1999/xlink">
<g id="graph0" class="graph" transform="scale(1 1) rotate(0) translate(4 752)">
<title>public.model</title>
<polygon fill="white" stroke="none" points="-4,4 -4,-752 4706.31,-752 4706.31,4 -4,4"/>
<!-- public.model -->
<g id="node1" class="node">
<title>public.model</title>
<polygon fill="#efefef" stroke="none" points="2223.41,-138.6 2223.41,-174.2 2456.38,-174.2 2456.38,-138.6 2223.41,-138.6"/>
<polygon fill="none" stroke="black" points="2223.41,-138.6 2223.41,-174.2 2456.38,-174.2 2456.38,-138.6 2223.41,-138.6"/>
<text text-anchor="start" x="2230.41" y="-152" font-family="Arial Bold" font-size="18.00">public.model</text>
<text text-anchor="start" x="2324.89" y="-152" font-family="Arial" font-size="14.00">    </text>
<text text-anchor="start" x="2356.01" y="-152" font-family="Arial" font-size="14.00" fill="#666666">[BASE TABLE]</text>
<polygon fill="none" stroke="black" points="2223.41,-107.8 2223.41,-138.6 2456.38,-138.6 2456.38,-107.8 2223.41,-107.8"/>
<text text-anchor="start" x="2230.41" y="-120" font-family="Arial" font-size="14.00">model_key </text>
<text text-anchor="start" x="2302" y="-120" font-family="Arial" font-size="14.00" fill="#666666">[text]</text>
<polygon fill="none" stroke="black" points="2223.41,-77 2223.41,-107.8 2456.38,-107.8 2456.38,-77 2223.41,-77"/>
<text text-anchor="start" x="2230.41" y="-89.2" font-family="Arial" font-size="14.00">name </text>
<text text-anchor="start" x="2269.32" y="-89.2" font-family="Arial" font-size="14.00" fill="#666666">[text]</text>
<polygon fill="none" stroke="black" points="2223.41,-46.2 2223.41,-77 2456.38,-77 2456.38,-46.2 2223.41,-46.2"/>
<text text-anchor="start" x="2230.41" y="-58.4" font-family="Arial" font-size="14.00">details </text>
<text text-anchor="start" x="2274.77" y="-58.4" font-family="Arial" font-size="14.00" fill="#666666">[text]</text>
<polygon fill="none" stroke="black" stroke-width="3" points="2221.91,-44.7 2221.91,-175.7 2457.88,-175.7 2457.88,-44.7 2221.91,-44.7"/>
</g>
<!-- public.logic -->
<g id="node2" class="node">
<title>public.logic</title>
<polygon fill="#efefef" stroke="none" points="181.91,-561.4 181.91,-597 405.88,-597 405.88,-561.4 181.91,-561.4"/>
<polygon fill="none" stroke="black" points="181.91,-561.4 181.91,-597 405.88,-597 405.88,-561.4 181.91,-561.4"/>
<text text-anchor="start" x="188.91" y="-574.8" font-family="Arial Bold" font-size="18.00">public.logic</text>
<text text-anchor="start" x="274.39" y="-574.8" font-family="Arial" font-size="14.00">    </text>
<text text-anchor="start" x="305.51" y="-574.8" font-family="Arial" font-size="14.00" fill="#666666">[BASE TABLE]</text>
<polygon fill="none" stroke="black" points="181.91,-530.6 181.91,-561.4 405.88,-561.4 405.88,-530.6 181.91,-530.6"/>
<text text-anchor="start" x="188.91" y="-542.8" font-family="Arial" font-size="14.00">logic_key </text>
<text text-anchor="start" x="251.16" y="-542.8" font-family="Arial" font-size="14.00" fill="#666666">[text]</text>
<polygon fill="none" stroke="black" points="181.91,-499.8 181.91,-530.6 405.88,-530.6 405.88,-499.8 181.91,-499.8"/>
<text text-anchor="start" x="188.91" y="-512" font-family="Arial" font-size="14.00">model_key </text>
<text text-anchor="start" x="260.5" y="-512" font-family="Arial" font-size="14.00" fill="#666666">[text]</text>
<polygon fill="none" stroke="black" points="181.91,-469 181.91,-499.8 405.88,-499.8 405.88,-469 181.91,-469"/>
<text text-anchor="start" x="188.91" y="-481.2" font-family="Arial" font-size="14.00">description </text>
<text text-anchor="start" x="260.5" y="-481.2" font-family="Arial" font-size="14.00" fill="#666666">[text]</text>
<polygon fill="none" stroke="black" points="181.91,-438.2 181.91,-469 405.88,-469 405.88,-438.2 181.91,-438.2"/>
<text text-anchor="start" x="188.91" y="-450.4" font-family="Arial" font-size="14.00">notation </text>
<text text-anchor="start" x="242.62" y="-450.4" font-family="Arial" font-size="14.00" fill="#666666">[notation]</text>
<polygon fill="none" stroke="black" points="181.91,-407.4 181.91,-438.2 405.88,-438.2 405.88,-407.4 181.91,-407.4"/>
<text text-anchor="start" x="188.91" y="-419.6" font-family="Arial" font-size="14.00">specification </text>
<text text-anchor="start" x="269.84" y="-419.6" font-family="Arial" font-size="14.00" fill="#666666">[text]</text>
</g>
<!-- public.logic&#45;&gt;public.model -->
<g id="edge1" class="edge">
<title>public.logic:model_key&#45;&gt;public.model:model_key</title>
<path fill="none" stroke="black" d="M417.09,-514.68C514.73,-503.99 372.94,-331.78 457.9,-256.4 604.96,-125.91 2025.79,-123.2 2222.41,-123.2"/>
<polygon fill="black" stroke="black" points="417.2,-514.67 406.99,-510.69 411.87,-514.94 407.55,-515.17 407.55,-515.17 407.55,-515.17 411.87,-514.94 407.44,-519.68 417.2,-514.67"/>
<text text-anchor="start" x="7" y="-525.2" font-family="Arial" font-size="10.00">FOREIGN KEY (model_key) REFERENCES model(model_key) ON DELETE CASCADE</text>
</g>
<!-- public.domain -->
<g id="node3" class="node">
<title>public.domain</title>
<polygon fill="#efefef" stroke="none" points="509.91,-576.8 509.91,-612.4 751.88,-612.4 751.88,-576.8 509.91,-576.8"/>
<polygon fill="none" stroke="black" points="509.91,-576.8 509.91,-612.4 751.88,-612.4 751.88,-576.8 509.91,-576.8"/>
<text text-anchor="start" x="516.91" y="-590.2" font-family="Arial Bold" font-size="18.00">public.domain</text>
<text text-anchor="start" x="620.39" y="-590.2" font-family="Arial" font-size="14.00">    </text>
<text text-anchor="start" x="651.51" y="-590.2" font-family="Arial" font-size="14.00" fill="#666666">[BASE TABLE]</text>
<polygon fill="none" stroke="black" points="509.91,-546 509.91,-576.8 751.88,-576.8 751.88,-546 509.91,-546"/>
<text text-anchor="start" x="516.91" y="-558.2" font-family="Arial" font-size="14.00">domain_key </text>
<text text-anchor="start" x="596.29" y="-558.2" font-family="Arial" font-size="14.00" fill="#666666">[text]</text>
<polygon fill="none" stroke="black" points="509.91,-515.2 509.91,-546 751.88,-546 751.88,-515.2 509.91,-515.2"/>
<text text-anchor="start" x="516.91" y="-527.4" font-family="Arial" font-size="14.00">model_key </text>
<text text-anchor="start" x="588.5" y="-527.4" font-family="Arial" font-size="14.00" fill="#666666">[text]</text>
<polygon fill="none" stroke="black" points="509.91,-484.4 509.91,-515.2 751.88,-515.2 751.88,-484.4 509.91,-484.4"/>
<text text-anchor="start" x="516.91" y="-496.6" font-family="Arial" font-size="14.00">name </text>
<text text-anchor="start" x="555.82" y="-496.6" font-family="Arial" font-size="14.00" fill="#666666">[text]</text>
<polygon fill="none" stroke="black" points="509.91,-453.6 509.91,-484.4 751.88,-484.4 751.88,-453.6 509.91,-453.6"/>
<text text-anchor="start" x="516.91" y="-465.8" font-family="Arial" font-size="14.00">details </text>
<text text-anchor="start" x="561.27" y="-465.8" font-family="Arial" font-size="14.00" fill="#666666">[text]</text>
<polygon fill="none" stroke="black" points="509.91,-422.8 509.91,-453.6 751.88,-453.6 751.88,-422.8 509.91,-422.8"/>
<text text-anchor="start" x="516.91" y="-435" font-family="Arial" font-size="14.00">realized </text>
<text text-anchor="start" x="569.83" y="-435" font-family="Arial" font-size="14.00" fill="#666666">[boolean]</text>
<polygon fill="none" stroke="black" points="509.91,-392 509.91,-422.8 751.88,-422.8 751.88,-392 509.91,-392"/>
<text text-anchor="start" x="516.91" y="-404.2" font-family="Arial" font-size="14.00">uml_comment </text>
<text text-anchor="start" x="608.72" y="-404.2" font-family="Arial" font-size="14.00" fill="#666666">[text]</text>
</g>
<!-- public.domain&#45;&gt;public.model -->
<g id="edge2" class="edge">
<title>public.domain:model_key&#45;&gt;public.model:model_key</title>
<path fill="none" stroke="black" d="M763.05,-530.12C867.42,-519.52 715.06,-337.56 803.9,-256.4 920.77,-149.63 2064.1,-123.2 2222.41,-123.2"/>
<polygon fill="black" stroke="black" points="763.2,-530.11 753,-526.09 757.88,-530.36 753.55,-530.57 753.55,-530.57 753.55,-530.57 757.88,-530.36 753.43,-535.08 763.2,-530.11"/>
<text text-anchor="start" x="556.44" y="-514.6" font-family="Arial" font-size="10.00">FOREIGN KEY (model_key) REFERENCES model(model_key) ON DELETE CASCADE</text>
</g>
<!-- public.domain_association -->
<g id="node4" class="node">
<title>public.domain_association</title>
<polygon fill="#efefef" stroke="none" points="856.42,-561.4 856.42,-597 1187.37,-597 1187.37,-561.4 856.42,-561.4"/>
<polygon fill="none" stroke="black" points="856.42,-561.4 856.42,-597 1187.37,-597 1187.37,-561.4 856.42,-561.4"/>
<text text-anchor="start" x="863.42" y="-574.8" font-family="Arial Bold" font-size="18.00">public.domain_association</text>
<text text-anchor="start" x="1055.88" y="-574.8" font-family="Arial" font-size="14.00">    </text>
<text text-anchor="start" x="1087" y="-574.8" font-family="Arial" font-size="14.00" fill="#666666">[BASE TABLE]</text>
<polygon fill="none" stroke="black" points="856.42,-530.6 856.42,-561.4 1187.37,-561.4 1187.37,-530.6 856.42,-530.6"/>
<text text-anchor="start" x="863.42" y="-542.8" font-family="Arial" font-size="14.00">model_key </text>
<text text-anchor="start" x="935.01" y="-542.8" font-family="Arial" font-size="14.00" fill="#666666">[text]</text>
<polygon fill="none" stroke="black" points="856.42,-499.8 856.42,-530.6 1187.37,-530.6 1187.37,-499.8 856.42,-499.8"/>
<text text-anchor="start" x="863.42" y="-512" font-family="Arial" font-size="14.00">association_key </text>
<text text-anchor="start" x="966.92" y="-512" font-family="Arial" font-size="14.00" fill="#666666">[text]</text>
<polygon fill="none" stroke="black" points="856.42,-469 856.42,-499.8 1187.37,-499.8 1187.37,-469 856.42,-469"/>
<text text-anchor="start" x="863.42" y="-481.2" font-family="Arial" font-size="14.00">problem_domain_key </text>
<text text-anchor="start" x="1001.16" y="-481.2" font-family="Arial" font-size="14.00" fill="#666666">[text]</text>
<polygon fill="none" stroke="black" points="856.42,-438.2 856.42,-469 1187.37,-469 1187.37,-438.2 856.42,-438.2"/>
<text text-anchor="start" x="863.42" y="-450.4" font-family="Arial" font-size="14.00">solution_domain_key </text>
<text text-anchor="start" x="998.84" y="-450.4" font-family="Arial" font-size="14.00" fill="#666666">[text]</text>
<polygon fill="none" stroke="black" points="856.42,-407.4 856.42,-438.2 1187.37,-438.2 1187.37,-407.4 856.42,-407.4"/>
<text text-anchor="start" x="863.42" y="-419.6" font-family="Arial" font-size="14.00">uml_comment </text>
<text text-anchor="start" x="955.23" y="-419.6" font-family="Arial" font-size="14.00" fill="#666666">[text]</text>
</g>
<!-- public.domain_association&#45;&gt;public.model -->
<g id="edge3" class="edge">
<title>public.domain_association:model_key&#45;&gt;public.model:model_key</title>
<path fill="none" stroke="black" d="M1198.76,-545.53C1309.49,-534.81 1148.23,-344.35 1239.9,-256.4 1319.39,-180.13 2112.24,-123.2 2222.41,-123.2"/>
<polygon fill="black" stroke="black" points="1198.69,-545.53 1188.5,-541.49 1193.37,-545.77 1189.04,-545.97 1189.04,-545.97 1189.04,-545.97 1193.37,-545.77 1188.91,-550.48 1198.69,-545.53"/>
<text text-anchor="start" x="991.93" y="-530" font-family="Arial" font-size="10.00">FOREIGN KEY (model_key) REFERENCES model(model_key) ON DELETE CASCADE</text>
</g>
<!-- public.actor -->
<g id="node5" class="node">
<title>public.actor</title>
<polygon fill="#efefef" stroke="none" points="1291.92,-576.8 1291.92,-612.4 1515.87,-612.4 1515.87,-576.8 1291.92,-576.8"/>
<polygon fill="none" stroke="black" points="1291.92,-576.8 1291.92,-612.4 1515.87,-612.4 1515.87,-576.8 1291.92,-576.8"/>
<text text-anchor="start" x="1298.92" y="-590.2" font-family="Arial Bold" font-size="18.00">public.actor</text>
<text text-anchor="start" x="1384.38" y="-590.2" font-family="Arial" font-size="14.00">    </text>
<text text-anchor="start" x="1415.5" y="-590.2" font-family="Arial" font-size="14.00" fill="#666666">[BASE TABLE]</text>
<polygon fill="none" stroke="black" points="1291.92,-546 1291.92,-576.8 1515.87,-576.8 1515.87,-546 1291.92,-546"/>
<text text-anchor="start" x="1298.92" y="-558.2" font-family="Arial" font-size="14.00">model_key </text>
<text text-anchor="start" x="1370.51" y="-558.2" font-family="Arial" font-size="14.00" fill="#666666">[text]</text>
<polygon fill="none" stroke="black" points="1291.92,-515.2 1291.92,-546 1515.87,-546 1515.87,-515.2 1291.92,-515.2"/>
<text text-anchor="start" x="1298.92" y="-527.4" font-family="Arial" font-size="14.00">actor_key </text>
<text text-anchor="start" x="1363.5" y="-527.4" font-family="Arial" font-size="14.00" fill="#666666">[text]</text>
<polygon fill="none" stroke="black" points="1291.92,-484.4 1291.92,-515.2 1515.87,-515.2 1515.87,-484.4 1291.92,-484.4"/>
<text text-anchor="start" x="1298.92" y="-496.6" font-family="Arial" font-size="14.00">name </text>
<text text-anchor="start" x="1337.83" y="-496.6" font-family="Arial" font-size="14.00" fill="#666666">[text]</text>
<polygon fill="none" stroke="black" points="1291.92,-453.6 1291.92,-484.4 1515.87,-484.4 1515.87,-453.6 1291.92,-453.6"/>
<text text-anchor="start" x="1298.92" y="-465.8" font-family="Arial" font-size="14.00">details </text>
<text text-anchor="start" x="1343.28" y="-465.8" font-family="Arial" font-size="14.00" fill="#666666">[text]</text>
<polygon fill="none" stroke="black" points="1291.92,-422.8 1291.92,-453.6 1515.87,-453.6 1515.87,-422.8 1291.92,-422.8"/>
<text text-anchor="start" x="1298.92" y="-435" font-family="Arial" font-size="14.00">actor_type </text>
<text text-anchor="start" x="1368.18" y="-435" font-family="Arial" font-size="14.00" fill="#666666">[actor_type]</text>
<polygon fill="none" stroke="black" points="1291.92,-392 1291.92,-422.8 1515.87,-422.8 1515.87,-392 1291.92,-392"/>
<text text-anchor="start" x="1298.92" y="-404.2" font-family="Arial" font-size="14.00">uml_comment </text>
<text text-anchor="start" x="1390.72" y="-404.2" font-family="Arial" font-size="14.00" fill="#666666">[text]</text>
</g>
<!-- public.actor&#45;&gt;public.model -->
<g id="edge4" class="edge">
<title>public.actor:model_key&#45;&gt;public.model:model_key</title>
<path fill="none" stroke="black" d="M1526.98,-559.18C1578.77,-534.06 1522.77,-303.13 1567.9,-256.4 1671,-149.62 2073.98,-123.2 2222.41,-123.2"/>
<polygon fill="black" stroke="black" points="1526.97,-559.19 1516.23,-556.93 1521.76,-560.33 1517.53,-561.26 1517.53,-561.26 1517.53,-561.26 1521.76,-560.33 1518.16,-565.72 1526.97,-559.19"/>
<text text-anchor="start" x="1523.87" y="-571.4" font-family="Arial" font-size="10.00">FOREIGN KEY (model_key) REFERENCES model(model_key) ON DELETE CASCADE</text>
</g>
<!-- public.data_type -->
<g id="node6" class="node">
<title>public.data_type</title>
<polygon fill="#efefef" stroke="none" points="1619.92,-576.8 1619.92,-612.4 1877.87,-612.4 1877.87,-576.8 1619.92,-576.8"/>
<polygon fill="none" stroke="black" points="1619.92,-576.8 1619.92,-612.4 1877.87,-612.4 1877.87,-576.8 1619.92,-576.8"/>
<text text-anchor="start" x="1626.92" y="-590.2" font-family="Arial Bold" font-size="18.00">public.data_type</text>
<text text-anchor="start" x="1746.38" y="-590.2" font-family="Arial" font-size="14.00">    </text>
<text text-anchor="start" x="1777.5" y="-590.2" font-family="Arial" font-size="14.00" fill="#666666">[BASE TABLE]</text>
<polygon fill="none" stroke="black" points="1619.92,-546 1619.92,-576.8 1877.87,-576.8 1877.87,-546 1619.92,-546"/>
<text text-anchor="start" x="1626.92" y="-558.2" font-family="Arial" font-size="14.00">model_key </text>
<text text-anchor="start" x="1698.51" y="-558.2" font-family="Arial" font-size="14.00" fill="#666666">[text]</text>
<polygon fill="none" stroke="black" points="1619.92,-515.2 1619.92,-546 1877.87,-546 1877.87,-515.2 1619.92,-515.2"/>
<text text-anchor="start" x="1626.92" y="-527.4" font-family="Arial" font-size="14.00">data_type_key </text>
<text text-anchor="start" x="1721.88" y="-527.4" font-family="Arial" font-size="14.00" fill="#666666">[text]</text>
<polygon fill="none" stroke="black" points="1619.92,-484.4 1619.92,-515.2 1877.87,-515.2 1877.87,-484.4 1619.92,-484.4"/>
<text text-anchor="start" x="1626.92" y="-496.6" font-family="Arial" font-size="14.00">collection_type </text>
<text text-anchor="start" x="1723.42" y="-496.6" font-family="Arial" font-size="14.00" fill="#666666">[collection_type]</text>
<polygon fill="none" stroke="black" points="1619.92,-453.6 1619.92,-484.4 1877.87,-484.4 1877.87,-453.6 1619.92,-453.6"/>
<text text-anchor="start" x="1626.92" y="-465.8" font-family="Arial" font-size="14.00">collection_unique </text>
<text text-anchor="start" x="1739" y="-465.8" font-family="Arial" font-size="14.00" fill="#666666">[boolean]</text>
<polygon fill="none" stroke="black" points="1619.92,-422.8 1619.92,-453.6 1877.87,-453.6 1877.87,-422.8 1619.92,-422.8"/>
<text text-anchor="start" x="1626.92" y="-435" font-family="Arial" font-size="14.00">collection_min </text>
<text text-anchor="start" x="1719.52" y="-435" font-family="Arial" font-size="14.00" fill="#666666">[bigint]</text>
<polygon fill="none" stroke="black" points="1619.92,-392 1619.92,-422.8 1877.87,-422.8 1877.87,-392 1619.92,-392"/>
<text text-anchor="start" x="1626.92" y="-404.2" font-family="Arial" font-size="14.00">collection_max </text>
<text text-anchor="start" x="1723.41" y="-404.2" font-family="Arial" font-size="14.00" fill="#666666">[bigint]</text>
</g>
<!-- public.data_type&#45;&gt;public.model -->
<g id="edge5" class="edge">
<title>public.data_type:model_key&#45;&gt;public.model:model_key</title>
<path fill="none" stroke="black" d="M1889.03,-559.23C1941.38,-534.59 1890.34,-307.93 1929.9,-256.4 2016.87,-143.08 2079.56,-123.2 2222.41,-123.2"/>
<polygon fill="black" stroke="black" points="1888.98,-559.24 1878.26,-556.93 1883.76,-560.35 1879.52,-561.26 1879.52,-561.26 1879.52,-561.26 1883.76,-560.35 1880.14,-565.73 1888.98,-559.24"/>
<text text-anchor="start" x="1478.99" y="-545.4" font-family="Arial" font-size="10.00">FOREIGN KEY (model_key) REFERENCES model(model_key) ON DELETE CASCADE</text>
</g>
<!-- public.class_generalization -->
<g id="node7" class="node">
<title>public.class_generalization</title>
<polygon fill="#efefef" stroke="none" points="1981.94,-607.6 1981.94,-643.2 2315.85,-643.2 2315.85,-607.6 1981.94,-607.6"/>
<polygon fill="none" stroke="black" points="1981.94,-607.6 1981.94,-643.2 2315.85,-643.2 2315.85,-607.6 1981.94,-607.6"/>
<text text-anchor="start" x="1988.94" y="-621" font-family="Arial Bold" font-size="18.00">public.class_generalization</text>
<text text-anchor="start" x="2184.36" y="-621" font-family="Arial" font-size="14.00">    </text>
<text text-anchor="start" x="2215.48" y="-621" font-family="Arial" font-size="14.00" fill="#666666">[BASE TABLE]</text>
<polygon fill="none" stroke="black" points="1981.94,-576.8 1981.94,-607.6 2315.85,-607.6 2315.85,-576.8 1981.94,-576.8"/>
<text text-anchor="start" x="1988.94" y="-589" font-family="Arial" font-size="14.00">model_key </text>
<text text-anchor="start" x="2060.53" y="-589" font-family="Arial" font-size="14.00" fill="#666666">[text]</text>
<polygon fill="none" stroke="black" points="1981.94,-546 1981.94,-576.8 2315.85,-576.8 2315.85,-546 1981.94,-546"/>
<text text-anchor="start" x="1988.94" y="-558.2" font-family="Arial" font-size="14.00">generalization_key </text>
<text text-anchor="start" x="2109.57" y="-558.2" font-family="Arial" font-size="14.00" fill="#666666">[text]</text>
<polygon fill="none" stroke="black" points="1981.94,-515.2 1981.94,-546 2315.85,-546 2315.85,-515.2 1981.94,-515.2"/>
<text text-anchor="start" x="1988.94" y="-527.4" font-family="Arial" font-size="14.00">name </text>
<text text-anchor="start" x="2027.85" y="-527.4" font-family="Arial" font-size="14.00" fill="#666666">[text]</text>
<polygon fill="none" stroke="black" points="1981.94,-484.4 1981.94,-515.2 2315.85,-515.2 2315.85,-484.4 1981.94,-484.4"/>
<text text-anchor="start" x="1988.94" y="-496.6" font-family="Arial" font-size="14.00">subdomain_key </text>
<text text-anchor="start" x="2090.89" y="-496.6" font-family="Arial" font-size="14.00" fill="#666666">[text]</text>
<polygon fill="none" stroke="black" points="1981.94,-453.6 1981.94,-484.4 2315.85,-484.4 2315.85,-453.6 1981.94,-453.6"/>
<text text-anchor="start" x="1988.94" y="-465.8" font-family="Arial" font-size="14.00">is_complete </text>
<text text-anchor="start" x="2067.53" y="-465.8" font-family="Arial" font-size="14.00" fill="#666666">[boolean]</text>
<polygon fill="none" stroke="black" points="1981.94,-422.8 1981.94,-453.6 2315.85,-453.6 2315.85,-422.8 1981.94,-422.8"/>
<text text-anchor="start" x="1988.94" y="-435" font-family="Arial" font-size="14.00">is_static </text>
<text text-anchor="start" x="2043.4" y="-435" font-family="Arial" font-size="14.00" fill="#666666">[boolean]</text>
<polygon fill="none" stroke="black" points="1981.94,-392 1981.94,-422.8 2315.85,-422.8 2315.85,-392 1981.94,-392"/>
<text text-anchor="start" x="1988.94" y="-404.2" font-family="Arial" font-size="14.00">details </text>
<text text-anchor="start" x="2033.3" y="-404.2" font-family="Arial" font-size="14.00" fill="#666666">[text]</text>
<polygon fill="none" stroke="black" points="1981.94,-361.2 1981.94,-392 2315.85,-392 2315.85,-361.2 1981.94,-361.2"/>
<text text-anchor="start" x="1988.94" y="-373.4" font-family="Arial" font-size="14.00">uml_comment </text>
<text text-anchor="start" x="2080.74" y="-373.4" font-family="Arial" font-size="14.00" fill="#666666">[text]</text>
</g>
<!-- public.class_generalization&#45;&gt;public.model -->
<g id="edge6" class="edge">
<title>public.class_generalization:model_key&#45;&gt;public.model:model_key</title>
<path fill="none" stroke="black" d="M2326.84,-589.89C2373.09,-566.44 2337.14,-371.14 2315.85,-318 2293.64,-262.54 2245.81,-275.79 2223.41,-220.4 2207.21,-180.35 2179.21,-123.2 2222.41,-123.2"/>
<polygon fill="black" stroke="black" points="2326.92,-589.87 2316.16,-587.74 2321.72,-591.07 2317.5,-592.05 2317.5,-592.05 2317.5,-592.05 2321.72,-591.07 2318.19,-596.51 2326.92,-589.87"/>
<text text-anchor="start" x="2323.85" y="-602.2" font-family="Arial" font-size="10.00">FOREIGN KEY (model_key) REFERENCES model(model_key) ON DELETE CASCADE</text>
</g>
<!-- public.class -->
<g id="node8" class="node">
<title>public.class</title>
<polygon fill="#efefef" stroke="none" points="2420.41,-623 2420.41,-658.6 2643.38,-658.6 2643.38,-623 2420.41,-623"/>
<polygon fill="none" stroke="black" points="2420.41,-623 2420.41,-658.6 2643.38,-658.6 2643.38,-623 2420.41,-623"/>
<text text-anchor="start" x="2427.41" y="-636.4" font-family="Arial Bold" font-size="18.00">public.class</text>
<text text-anchor="start" x="2511.89" y="-636.4" font-family="Arial" font-size="14.00">    </text>
<text text-anchor="start" x="2543.01" y="-636.4" font-family="Arial" font-size="14.00" fill="#666666">[BASE TABLE]</text>
<polygon fill="none" stroke="black" points="2420.41,-592.2 2420.41,-623 2643.38,-623 2643.38,-592.2 2420.41,-592.2"/>
<text text-anchor="start" x="2427.41" y="-604.4" font-family="Arial" font-size="14.00">model_key </text>
<text text-anchor="start" x="2499" y="-604.4" font-family="Arial" font-size="14.00" fill="#666666">[text]</text>
<polygon fill="none" stroke="black" points="2420.41,-561.4 2420.41,-592.2 2643.38,-592.2 2643.38,-561.4 2420.41,-561.4"/>
<text text-anchor="start" x="2427.41" y="-573.6" font-family="Arial" font-size="14.00">class_key </text>
<text text-anchor="start" x="2492.77" y="-573.6" font-family="Arial" font-size="14.00" fill="#666666">[text]</text>
<polygon fill="none" stroke="black" points="2420.41,-530.6 2420.41,-561.4 2643.38,-561.4 2643.38,-530.6 2420.41,-530.6"/>
<text text-anchor="start" x="2427.41" y="-542.8" font-family="Arial" font-size="14.00">name </text>
<text text-anchor="start" x="2466.32" y="-542.8" font-family="Arial" font-size="14.00" fill="#666666">[text]</text>
<polygon fill="none" stroke="black" points="2420.41,-499.8 2420.41,-530.6 2643.38,-530.6 2643.38,-499.8 2420.41,-499.8"/>
<text text-anchor="start" x="2427.41" y="-512" font-family="Arial" font-size="14.00">subdomain_key </text>
<text text-anchor="start" x="2529.36" y="-512" font-family="Arial" font-size="14.00" fill="#666666">[text]</text>
<polygon fill="none" stroke="black" points="2420.41,-469 2420.41,-499.8 2643.38,-499.8 2643.38,-469 2420.41,-469"/>
<text text-anchor="start" x="2427.41" y="-481.2" font-family="Arial" font-size="14.00">actor_key </text>
<text text-anchor="start" x="2492" y="-481.2" font-family="Arial" font-size="14.00" fill="#666666">[text]</text>
<polygon fill="none" stroke="black" points="2420.41,-438.2 2420.41,-469 2643.38,-469 2643.38,-438.2 2420.41,-438.2"/>
<text text-anchor="start" x="2427.41" y="-450.4" font-family="Arial" font-size="14.00">superclass_of_key </text>
<text text-anchor="start" x="2547.25" y="-450.4" font-family="Arial" font-size="14.00" fill="#666666">[text]</text>
<polygon fill="none" stroke="black" points="2420.41,-407.4 2420.41,-438.2 2643.38,-438.2 2643.38,-407.4 2420.41,-407.4"/>
<text text-anchor="start" x="2427.41" y="-419.6" font-family="Arial" font-size="14.00">subclass_of_key </text>
<text text-anchor="start" x="2534.8" y="-419.6" font-family="Arial" font-size="14.00" fill="#666666">[text]</text>
<polygon fill="none" stroke="black" points="2420.41,-376.6 2420.41,-407.4 2643.38,-407.4 2643.38,-376.6 2420.41,-376.6"/>
<text text-anchor="start" x="2427.41" y="-388.8" font-family="Arial" font-size="14.00">details </text>
<text text-anchor="start" x="2471.77" y="-388.8" font-family="Arial" font-size="14.00" fill="#666666">[text]</text>
<polygon fill="none" stroke="black" points="2420.41,-345.8 2420.41,-376.6 2643.38,-376.6 2643.38,-345.8 2420.41,-345.8"/>
<text text-anchor="start" x="2427.41" y="-358" font-family="Arial" font-size="14.00">uml_comment </text>
<text text-anchor="start" x="2519.22" y="-358" font-family="Arial" font-size="14.00" fill="#666666">[text]</text>
</g>
<!-- public.class&#45;&gt;public.model -->
<g id="edge7" class="edge">
<title>public.class:model_key&#45;&gt;public.model:model_key</title>
<path fill="none" stroke="black" d="M2409.36,-605.53C2357.5,-582.01 2407.19,-365.29 2420.41,-302.6 2428.64,-263.58 2448.01,-259.39 2456.38,-220.4 2465.45,-178.16 2500.58,-123.2 2457.38,-123.2"/>
<polygon fill="black" stroke="black" points="2409.29,-605.51 2418.17,-611.94 2414.51,-606.59 2418.76,-607.46 2418.76,-607.46 2418.76,-607.46 2414.51,-606.59 2419.99,-603.13 2409.29,-605.51"/>
<text text-anchor="start" x="2426.41" y="-617.6" font-family="Arial" font-size="10.00">FOREIGN KEY (model_key) REFERENCES model(model_key) ON DELETE CASCADE</text>
</g>
<!-- public.association -->
<g id="node9" class="node">
<title>public.association</title>
<polygon fill="#efefef" stroke="none" points="2747.91,-669.2 2747.91,-704.8 3015.88,-704.8 3015.88,-669.2 2747.91,-669.2"/>
<polygon fill="none" stroke="black" points="2747.91,-669.2 2747.91,-704.8 3015.88,-704.8 3015.88,-669.2 2747.91,-669.2"/>
<text text-anchor="start" x="2754.91" y="-682.6" font-family="Arial Bold" font-size="18.00">public.association</text>
<text text-anchor="start" x="2884.39" y="-682.6" font-family="Arial" font-size="14.00">    </text>
<text text-anchor="start" x="2915.5" y="-682.6" font-family="Arial" font-size="14.00" fill="#666666">[BASE TABLE]</text>
<polygon fill="none" stroke="black" points="2747.91,-638.4 2747.91,-669.2 3015.88,-669.2 3015.88,-638.4 2747.91,-638.4"/>
<text text-anchor="start" x="2754.91" y="-650.6" font-family="Arial" font-size="14.00">model_key </text>
<text text-anchor="start" x="2826.51" y="-650.6" font-family="Arial" font-size="14.00" fill="#666666">[text]</text>
<polygon fill="none" stroke="black" points="2747.91,-607.6 2747.91,-638.4 3015.88,-638.4 3015.88,-607.6 2747.91,-607.6"/>
<text text-anchor="start" x="2754.91" y="-619.8" font-family="Arial" font-size="14.00">association_key </text>
<text text-anchor="start" x="2858.42" y="-619.8" font-family="Arial" font-size="14.00" fill="#666666">[text]</text>
<polygon fill="none" stroke="black" points="2747.91,-576.8 2747.91,-607.6 3015.88,-607.6 3015.88,-576.8 2747.91,-576.8"/>
<text text-anchor="start" x="2754.91" y="-589" font-family="Arial" font-size="14.00">from_class_key </text>
<text text-anchor="start" x="2856.06" y="-589" font-family="Arial" font-size="14.00" fill="#666666">[text]</text>
<polygon fill="none" stroke="black" points="2747.91,-546 2747.91,-576.8 3015.88,-576.8 3015.88,-546 2747.91,-546"/>
<text text-anchor="start" x="2754.91" y="-558.2" font-family="Arial" font-size="14.00">from_multiplicity_lower </text>
<text text-anchor="start" x="2900.4" y="-558.2" font-family="Arial" font-size="14.00" fill="#666666">[integer]</text>
<polygon fill="none" stroke="black" points="2747.91,-515.2 2747.91,-546 3015.88,-546 3015.88,-515.2 2747.91,-515.2"/>
<text text-anchor="start" x="2754.91" y="-527.4" font-family="Arial" font-size="14.00">from_multiplicity_higher </text>
<text text-anchor="start" x="2905.86" y="-527.4" font-family="Arial" font-size="14.00" fill="#666666">[integer]</text>
<polygon fill="none" stroke="black" points="2747.91,-484.4 2747.91,-515.2 3015.88,-515.2 3015.88,-484.4 2747.91,-484.4"/>
<text text-anchor="start" x="2754.91" y="-496.6" font-family="Arial" font-size="14.00">to_class_key </text>
<text text-anchor="start" x="2839.73" y="-496.6" font-family="Arial" font-size="14.00" fill="#666666">[text]</text>
<polygon fill="none" stroke="black" points="2747.91,-453.6 2747.91,-484.4 3015.88,-484.4 3015.88,-453.6 2747.91,-453.6"/>
<text text-anchor="start" x="2754.91" y="-465.8" font-family="Arial" font-size="14.00">to_multiplicity_lower </text>
<text text-anchor="start" x="2884.07" y="-465.8" font-family="Arial" font-size="14.00" fill="#666666">[integer]</text>
<polygon fill="none" stroke="black" points="2747.91,-422.8 2747.91,-453.6 3015.88,-453.6 3015.88,-422.8 2747.91,-422.8"/>
<text text-anchor="start" x="2754.91" y="-435" font-family="Arial" font-size="14.00">to_multiplicity_higher </text>
<text text-anchor="start" x="2889.53" y="-435" font-family="Arial" font-size="14.00" fill="#666666">[integer]</text>
<polygon fill="none" stroke="black" points="2747.91,-392 2747.91,-422.8 3015.88,-422.8 3015.88,-392 2747.91,-392"/>
<text text-anchor="start" x="2754.91" y="-404.2" font-family="Arial" font-size="14.00">name </text>
<text text-anchor="start" x="2793.82" y="-404.2" font-family="Arial" font-size="14.00" fill="#666666">[text]</text>
<polygon fill="none" stroke="black" points="2747.91,-361.2 2747.91,-392 3015.88,-392 3015.88,-361.2 2747.91,-361.2"/>
<text text-anchor="start" x="2754.91" y="-373.4" font-family="Arial" font-size="14.00">association_class_key </text>
<text text-anchor="start" x="2898.1" y="-373.4" font-family="Arial" font-size="14.00" fill="#666666">[text]</text>
<polygon fill="none" stroke="black" points="2747.91,-330.4 2747.91,-361.2 3015.88,-361.2 3015.88,-330.4 2747.91,-330.4"/>
<text text-anchor="start" x="2754.91" y="-342.6" font-family="Arial" font-size="14.00">details </text>
<text text-anchor="start" x="2799.27" y="-342.6" font-family="Arial" font-size="14.00" fill="#666666">[text]</text>
<polygon fill="none" stroke="black" points="2747.91,-299.6 2747.91,-330.4 3015.88,-330.4 3015.88,-299.6 2747.91,-299.6"/>
<text text-anchor="start" x="2754.91" y="-311.8" font-family="Arial" font-size="14.00">uml_comment </text>
<text text-anchor="start" x="2846.72" y="-311.8" font-family="Arial" font-size="14.00" fill="#666666">[text]</text>
</g>
<!-- public.association&#45;&gt;public.model -->
<g id="edge8" class="edge">
<title>public.association:model_key&#45;&gt;public.model:model_key</title>
<path fill="none" stroke="black" d="M2736.83,-652.21C2664.86,-627.67 2743.72,-327.13 2695.9,-256.4 2627.88,-155.82 2578.8,-123.2 2457.38,-123.2"/>
<polygon fill="black" stroke="black" points="2736.71,-652.19 2745.88,-658.19 2741.98,-653.02 2746.25,-653.7 2746.25,-653.7 2746.25,-653.7 2741.98,-653.02 2747.29,-649.3 2736.71,-652.19"/>
<text text-anchor="start" x="2347.03" y="-663.8" font-family="Arial" font-size="10.00">FOREIGN KEY (model_key) REFERENCES model(model_key) ON DELETE CASCADE</text>
</g>
<!-- public.use_case_generalization -->
<g id="node10" class="node">
<title>public.use_case_generalization</title>
<polygon fill="#efefef" stroke="none" points="3120.45,-607.6 3120.45,-643.2 3483.34,-643.2 3483.34,-607.6 3120.45,-607.6"/>
<polygon fill="none" stroke="black" points="3120.45,-607.6 3120.45,-643.2 3483.34,-643.2 3483.34,-607.6 3120.45,-607.6"/>
<text text-anchor="start" x="3127.45" y="-621" font-family="Arial Bold" font-size="18.00">public.use_case_generalization</text>
<text text-anchor="start" x="3351.85" y="-621" font-family="Arial" font-size="14.00">    </text>
<text text-anchor="start" x="3382.97" y="-621" font-family="Arial" font-size="14.00" fill="#666666">[BASE TABLE]</text>
<polygon fill="none" stroke="black" points="3120.45,-576.8 3120.45,-607.6 3483.34,-607.6 3483.34,-576.8 3120.45,-576.8"/>
<text text-anchor="start" x="3127.45" y="-589" font-family="Arial" font-size="14.00">model_key </text>
<text text-anchor="start" x="3199.04" y="-589" font-family="Arial" font-size="14.00" fill="#666666">[text]</text>
<polygon fill="none" stroke="black" points="3120.45,-546 3120.45,-576.8 3483.34,-576.8 3483.34,-546 3120.45,-546"/>
<text text-anchor="start" x="3127.45" y="-558.2" font-family="Arial" font-size="14.00">generalization_key </text>
<text text-anchor="start" x="3248.08" y="-558.2" font-family="Arial" font-size="14.00" fill="#666666">[text]</text>
<polygon fill="none" stroke="black" points="3120.45,-515.2 3120.45,-546 3483.34,-546 3483.34,-515.2 3120.45,-515.2"/>
<text text-anchor="start" x="3127.45" y="-527.4" font-family="Arial" font-size="14.00">name </text>
<text text-anchor="start" x="3166.36" y="-527.4" font-family="Arial" font-size="14.00" fill="#666666">[text]</text>
<polygon fill="none" stroke="black" points="3120.45,-484.4 3120.45,-515.2 3483.34,-515.2 3483.34,-484.4 3120.45,-484.4"/>
<text text-anchor="start" x="3127.45" y="-496.6" font-family="Arial" font-size="14.00">subdomain_key </text>
<text text-anchor="start" x="3229.4" y="-496.6" font-family="Arial" font-size="14.00" fill="#666666">[text]</text>
<polygon fill="none" stroke="black" points="3120.45,-453.6 3120.45,-484.4 3483.34,-484.4 3483.34,-453.6 3120.45,-453.6"/>
<text text-anchor="start" x="3127.45" y="-465.8" font-family="Arial" font-size="14.00">is_complete </text>
<text text-anchor="start" x="3206.04" y="-465.8" font-family="Arial" font-size="14.00" fill="#666666">[boolean]</text>
<polygon fill="none" stroke="black" points="3120.45,-422.8 3120.45,-453.6 3483.34,-453.6 3483.34,-422.8 3120.45,-422.8"/>
<text text-anchor="start" x="3127.45" y="-435" font-family="Arial" font-size="14.00">is_static </text>
<text text-anchor="start" x="3181.91" y="-435" font-family="Arial" font-size="14.00" fill="#666666">[boolean]</text>
<polygon fill="none" stroke="black" points="3120.45,-392 3120.45,-422.8 3483.34,-422.8 3483.34,-392 3120.45,-392"/>
<text text-anchor="start" x="3127.45" y="-404.2" font-family="Arial" font-size="14.00">details </text>
<text text-anchor="start" x="3171.81" y="-404.2" font-family="Arial" font-size="14.00" fill="#666666">[text]</text>
<polygon fill="none" stroke="black" points="3120.45,-361.2 3120.45,-392 3483.34,-392 3483.34,-361.2 3120.45,-361.2"/>
<text text-anchor="start" x="3127.45" y="-373.4" font-family="Arial" font-size="14.00">uml_comment </text>
<text text-anchor="start" x="3219.26" y="-373.4" font-family="Arial" font-size="14.00" fill="#666666">[text]</text>
</g>
<!-- public.use_case_generalization&#45;&gt;public.model -->
<g id="edge9" class="edge">
<title>public.use_case_generalization:model_key&#45;&gt;public.model:model_key</title>
<path fill="none" stroke="black" d="M3109.44,-590.25C3051.04,-565.32 3117.06,-308.74 3067.9,-256.4 2972.82,-155.19 2596.24,-123.2 2457.38,-123.2"/>
<polygon fill="black" stroke="black" points="3109.31,-590.22 3118.26,-596.55 3114.54,-591.24 3118.79,-592.07 3118.79,-592.07 3118.79,-592.07 3114.54,-591.24 3119.98,-587.72 3109.31,-590.22"/>
<text text-anchor="start" x="3126.45" y="-602.2" font-family="Arial" font-size="10.00">FOREIGN KEY (model_key) REFERENCES model(model_key) ON DELETE CASCADE</text>
</g>
<!-- public.use_case -->
<g id="node11" class="node">
<title>public.use_case</title>
<polygon fill="#efefef" stroke="none" points="3587.92,-638.4 3587.92,-674 3839.87,-674 3839.87,-638.4 3587.92,-638.4"/>
<polygon fill="none" stroke="black" points="3587.92,-638.4 3587.92,-674 3839.87,-674 3839.87,-638.4 3587.92,-638.4"/>
<text text-anchor="start" x="3594.92" y="-651.8" font-family="Arial Bold" font-size="18.00">public.use_case</text>
<text text-anchor="start" x="3708.38" y="-651.8" font-family="Arial" font-size="14.00">    </text>
<text text-anchor="start" x="3739.5" y="-651.8" font-family="Arial" font-size="14.00" fill="#666666">[BASE TABLE]</text>
<polygon fill="none" stroke="black" points="3587.92,-607.6 3587.92,-638.4 3839.87,-638.4 3839.87,-607.6 3587.92,-607.6"/>
<text text-anchor="start" x="3594.92" y="-619.8" font-family="Arial" font-size="14.00">model_key </text>
<text text-anchor="start" x="3666.51" y="-619.8" font-family="Arial" font-size="14.00" fill="#666666">[text]</text>
<polygon fill="none" stroke="black" points="3587.92,-576.8 3587.92,-607.6 3839.87,-607.6 3839.87,-576.8 3587.92,-576.8"/>
<text text-anchor="start" x="3594.92" y="-589" font-family="Arial" font-size="14.00">use_case_key </text>
<text text-anchor="start" x="3688.31" y="-589" font-family="Arial" font-size="14.00" fill="#666666">[text]</text>
<polygon fill="none" stroke="black" points="3587.92,-546 3587.92,-576.8 3839.87,-576.8 3839.87,-546 3587.92,-546"/>
<text text-anchor="start" x="3594.92" y="-558.2" font-family="Arial" font-size="14.00">name </text>
<text text-anchor="start" x="3633.83" y="-558.2" font-family="Arial" font-size="14.00" fill="#666666">[text]</text>
<polygon fill="none" stroke="black" points="3587.92,-515.2 3587.92,-546 3839.87,-546 3839.87,-515.2 3587.92,-515.2"/>
<text text-anchor="start" x="3594.92" y="-527.4" font-family="Arial" font-size="14.00">details </text>
<text text-anchor="start" x="3639.28" y="-527.4" font-family="Arial" font-size="14.00" fill="#666666">[text]</text>
<polygon fill="none" stroke="black" points="3587.92,-484.4 3587.92,-515.2 3839.87,-515.2 3839.87,-484.4 3587.92,-484.4"/>
<text text-anchor="start" x="3594.92" y="-496.6" font-family="Arial" font-size="14.00">level </text>
<text text-anchor="start" x="3627.6" y="-496.6" font-family="Arial" font-size="14.00" fill="#666666">[use_case_level]</text>
<polygon fill="none" stroke="black" points="3587.92,-453.6 3587.92,-484.4 3839.87,-484.4 3839.87,-453.6 3587.92,-453.6"/>
<text text-anchor="start" x="3594.92" y="-465.8" font-family="Arial" font-size="14.00">read_only </text>
<text text-anchor="start" x="3660.3" y="-465.8" font-family="Arial" font-size="14.00" fill="#666666">[boolean]</text>
<polygon fill="none" stroke="black" points="3587.92,-422.8 3587.92,-453.6 3839.87,-453.6 3839.87,-422.8 3587.92,-422.8"/>
<text text-anchor="start" x="3594.92" y="-435" font-family="Arial" font-size="14.00">subdomain_key </text>
<text text-anchor="start" x="3696.87" y="-435" font-family="Arial" font-size="14.00" fill="#666666">[text]</text>
<polygon fill="none" stroke="black" points="3587.92,-392 3587.92,-422.8 3839.87,-422.8 3839.87,-392 3587.92,-392"/>
<text text-anchor="start" x="3594.92" y="-404.2" font-family="Arial" font-size="14.00">superclass_of_key </text>
<text text-anchor="start" x="3714.76" y="-404.2" font-family="Arial" font-size="14.00" fill="#666666">[text]</text>
<polygon fill="none" stroke="black" points="3587.92,-361.2 3587.92,-392 3839.87,-392 3839.87,-361.2 3587.92,-361.2"/>
<text text-anchor="start" x="3594.92" y="-373.4" font-family="Arial" font-size="14.00">subclass_of_key </text>
<text text-anchor="start" x="3702.31" y="-373.4" font-family="Arial" font-size="14.00" fill="#666666">[text]</text>
<polygon fill="none" stroke="black" points="3587.92,-330.4 3587.92,-361.2 3839.87,-361.2 3839.87,-330.4 3587.92,-330.4"/>
<text text-anchor="start" x="3594.92" y="-342.6" font-family="Arial" font-size="14.00">uml_comment </text>
<text text-anchor="start" x="3686.73" y="-342.6" font-family="Arial" font-size="14.00" fill="#666666">[text]</text>
</g>
<!-- public.use_case&#45;&gt;public.model -->
<g id="edge10" class="edge">
<title>public.use_case:model_key&#45;&gt;public.model:model_key</title>
<path fill="none" stroke="black" d="M3576.85,-621.18C3512.44,-595.76 3591.87,-311.52 3535.9,-256.4 3449.86,-171.68 2578.13,-123.2 2457.38,-123.2"/>
<polygon fill="black" stroke="black" points="3576.75,-621.16 3585.79,-627.37 3582,-622.11 3586.26,-622.88 3586.26,-622.88 3586.26,-622.88 3582,-622.11 3587.39,-618.51 3576.75,-621.16"/>
<text text-anchor="start" x="3187.04" y="-633" font-family="Arial" font-size="10.00">FOREIGN KEY (model_key) REFERENCES model(model_key) ON DELETE CASCADE</text>
</g>
<!-- public.scenario -->
<g id="node12" class="node">
<title>public.scenario</title>
<polygon fill="#efefef" stroke="none" points="3943.92,-576.8 3943.92,-612.4 4191.87,-612.4 4191.87,-576.8 3943.92,-576.8"/>
<polygon fill="none" stroke="black" points="3943.92,-576.8 3943.92,-612.4 4191.87,-612.4 4191.87,-576.8 3943.92,-576.8"/>
<text text-anchor="start" x="3950.92" y="-590.2" font-family="Arial Bold" font-size="18.00">public.scenario</text>
<text text-anchor="start" x="4060.38" y="-590.2" font-family="Arial" font-size="14.00">    </text>
<text text-anchor="start" x="4091.5" y="-590.2" font-family="Arial" font-size="14.00" fill="#666666">[BASE TABLE]</text>
<polygon fill="none" stroke="black" points="3943.92,-546 3943.92,-576.8 4191.87,-576.8 4191.87,-546 3943.92,-546"/>
<text text-anchor="start" x="3950.92" y="-558.2" font-family="Arial" font-size="14.00">model_key </text>
<text text-anchor="start" x="4022.51" y="-558.2" font-family="Arial" font-size="14.00" fill="#666666">[text]</text>
<polygon fill="none" stroke="black" points="3943.92,-515.2 3943.92,-546 4191.87,-546 4191.87,-515.2 3943.92,-515.2"/>
<text text-anchor="start" x="3950.92" y="-527.4" font-family="Arial" font-size="14.00">scenario_key </text>
<text text-anchor="start" x="4037.3" y="-527.4" font-family="Arial" font-size="14.00" fill="#666666">[text]</text>
<polygon fill="none" stroke="black" points="3943.92,-484.4 3943.92,-515.2 4191.87,-515.2 4191.87,-484.4 3943.92,-484.4"/>
<text text-anchor="start" x="3950.92" y="-496.6" font-family="Arial" font-size="14.00">name </text>
<text text-anchor="start" x="3989.83" y="-496.6" font-family="Arial" font-size="14.00" fill="#666666">[text]</text>
<polygon fill="none" stroke="black" points="3943.92,-453.6 3943.92,-484.4 4191.87,-484.4 4191.87,-453.6 3943.92,-453.6"/>
<text text-anchor="start" x="3950.92" y="-465.8" font-family="Arial" font-size="14.00">use_case_key </text>
<text text-anchor="start" x="4044.31" y="-465.8" font-family="Arial" font-size="14.00" fill="#666666">[text]</text>
<polygon fill="none" stroke="black" points="3943.92,-422.8 3943.92,-453.6 4191.87,-453.6 4191.87,-422.8 3943.92,-422.8"/>
<text text-anchor="start" x="3950.92" y="-435" font-family="Arial" font-size="14.00">details </text>
<text text-anchor="start" x="3995.28" y="-435" font-family="Arial" font-size="14.00" fill="#666666">[text]</text>
<polygon fill="none" stroke="black" points="3943.92,-392 3943.92,-422.8 4191.87,-422.8 4191.87,-392 3943.92,-392"/>
<text text-anchor="start" x="3950.92" y="-404.2" font-family="Arial" font-size="14.00">steps </text>
<text text-anchor="start" x="3988.27" y="-404.2" font-family="Arial" font-size="14.00" fill="#666666">[jsonb]</text>
</g>
<!-- public.scenario&#45;&gt;public.model -->
<g id="edge11" class="edge">
<title>public.scenario:model_key&#45;&gt;public.model:model_key</title>
<path fill="none" stroke="black" d="M3932.83,-559.16C3881.29,-533.79 3939.48,-300.62 3891.9,-256.4 3774.64,-147.43 2617.46,-123.2 2457.38,-123.2"/>
<polygon fill="black" stroke="black" points="3932.83,-559.16 3941.62,-565.72 3938.04,-560.32 3942.27,-561.26 3942.27,-561.26 3942.27,-561.26 3938.04,-560.32 3943.57,-556.93 3932.83,-559.16"/>
<text text-anchor="start" x="3543.04" y="-571.4" font-family="Arial" font-size="10.00">FOREIGN KEY (model_key) REFERENCES model(model_key) ON DELETE CASCADE</text>
</g>
<!-- public.scenario_object -->
<g id="node13" class="node">
<title>public.scenario_object</title>
<polygon fill="#efefef" stroke="none" points="4296.43,-623 4296.43,-658.6 4597.36,-658.6 4597.36,-623 4296.43,-623"/>
<polygon fill="none" stroke="black" points="4296.43,-623 4296.43,-658.6 4597.36,-658.6 4597.36,-623 4296.43,-623"/>
<text text-anchor="start" x="4303.43" y="-636.4" font-family="Arial Bold" font-size="18.00">public.scenario_object</text>
<text text-anchor="start" x="4465.87" y="-636.4" font-family="Arial" font-size="14.00">    </text>
<text text-anchor="start" x="4496.99" y="-636.4" font-family="Arial" font-size="14.00" fill="#666666">[BASE TABLE]</text>
<polygon fill="none" stroke="black" points="4296.43,-592.2 4296.43,-623 4597.36,-623 4597.36,-592.2 4296.43,-592.2"/>
<text text-anchor="start" x="4303.43" y="-604.4" font-family="Arial" font-size="14.00">model_key </text>
<text text-anchor="start" x="4375.02" y="-604.4" font-family="Arial" font-size="14.00" fill="#666666">[text]</text>
<polygon fill="none" stroke="black" points="4296.43,-561.4 4296.43,-592.2 4597.36,-592.2 4597.36,-561.4 4296.43,-561.4"/>
<text text-anchor="start" x="4303.43" y="-573.6" font-family="Arial" font-size="14.00">scenario_object_key </text>
<text text-anchor="start" x="4434.95" y="-573.6" font-family="Arial" font-size="14.00" fill="#666666">[text]</text>
<polygon fill="none" stroke="black" points="4296.43,-530.6 4296.43,-561.4 4597.36,-561.4 4597.36,-530.6 4296.43,-530.6"/>
<text text-anchor="start" x="4303.43" y="-542.8" font-family="Arial" font-size="14.00">scenario_key </text>
<text text-anchor="start" x="4389.81" y="-542.8" font-family="Arial" font-size="14.00" fill="#666666">[text]</text>
<polygon fill="none" stroke="black" points="4296.43,-499.8 4296.43,-530.6 4597.36,-530.6 4597.36,-499.8 4296.43,-499.8"/>
<text text-anchor="start" x="4303.43" y="-512" font-family="Arial" font-size="14.00">object_number </text>
<text text-anchor="start" x="4399.93" y="-512" font-family="Arial" font-size="14.00" fill="#666666">[integer]</text>
<polygon fill="none" stroke="black" points="4296.43,-469 4296.43,-499.8 4597.36,-499.8 4597.36,-469 4296.43,-469"/>
<text text-anchor="start" x="4303.43" y="-481.2" font-family="Arial" font-size="14.00">name </text>
<text text-anchor="start" x="4342.34" y="-481.2" font-family="Arial" font-size="14.00" fill="#666666">[text]</text>
<polygon fill="none" stroke="black" points="4296.43,-438.2 4296.43,-469 4597.36,-469 4597.36,-438.2 4296.43,-438.2"/>
<text text-anchor="start" x="4303.43" y="-450.4" font-family="Arial" font-size="14.00">name_style </text>
<text text-anchor="start" x="4378.91" y="-450.4" font-family="Arial" font-size="14.00" fill="#666666">[scenario_object_name_style]</text>
<polygon fill="none" stroke="black" points="4296.43,-407.4 4296.43,-438.2 4597.36,-438.2 4597.36,-407.4 4296.43,-407.4"/>
<text text-anchor="start" x="4303.43" y="-419.6" font-family="Arial" font-size="14.00">class_key </text>
<text text-anchor="start" x="4368.79" y="-419.6" font-family="Arial" font-size="14.00" fill="#666666">[text]</text>
<polygon fill="none" stroke="black" points="4296.43,-376.6 4296.43,-407.4 4597.36,-407.4 4597.36,-376.6 4296.43,-376.6"/>
<text text-anchor="start" x="4303.43" y="-388.8" font-family="Arial" font-size="14.00">multi </text>
<text text-anchor="start" x="4336.88" y="-388.8" font-family="Arial" font-size="14.00" fill="#666666">[boolean]</text>
<polygon fill="none" stroke="black" points="4296.43,-345.8 4296.43,-376.6 4597.36,-376.6 4597.36,-345.8 4296.43,-345.8"/>
<text text-anchor="start" x="4303.43" y="-358" font-family="Arial" font-size="14.00">uml_comment </text>
<text text-anchor="start" x="4395.24" y="-358" font-family="Arial" font-size="14.00" fill="#666666">[text]</text>
</g>
<!-- public.scenario_object&#45;&gt;public.model -->
<g id="edge12" class="edge">
<title>public.scenario_object:model_key&#45;&gt;public.model:model_key</title>
<path fill="none" stroke="black" d="M4285.39,-605.7C4224.21,-580.25 4298.92,-307.63 4243.9,-256.4 4171.06,-188.58 2556.91,-123.2 2457.38,-123.2"/>
<polygon fill="black" stroke="black" points="4285.28,-605.67 4294.26,-611.96 4290.52,-606.67 4294.77,-607.48 4294.77,-607.48 4294.77,-607.48 4290.52,-606.67 4295.94,-603.12 4285.28,-605.67"/>
<text text-anchor="start" x="4302.43" y="-617.6" font-family="Arial" font-size="10.00">FOREIGN KEY (model_key) REFERENCES model(model_key) ON DELETE CASCADE</text>
</g>
</g>
</svg>
