<?xml version="1.0" encoding="UTF-8" standalone="no"?>
<!DOCTYPE svg PUBLIC "-//W3C//DTD SVG 1.1//EN"
 "http://www.w3.org/Graphics/SVG/1.1/DTD/svg11.dtd">
<!-- Generated by graphviz version 12.1.2 (20240928.0832)
 -->
<!-- Title: public.logic Pages: 1 -->
<svg width="6056pt" height="1222pt"
 viewBox="0.00 0.00 6056.46 1222.00" xmlns="http://www.w3.org/2000/svg" xmlns:xlink="http://www.w3.org/1999/xlink">
<g id="graph0" class="graph" transform="scale(1 1) rotate(0) translate(4 1218)">
<title>public.logic</title>
<polygon fill="white" stroke="none" points="-4,4 -4,-1218 6052.46,-1218 6052.46,4 -4,4"/>
<!-- public.logic -->
<g id="node1" class="node">
<title>public.logic</title>
<polygon fill="#efefef" stroke="none" points="2925.74,-635.4 2925.74,-671 3149.71,-671 3149.71,-635.4 2925.74,-635.4"/>
<polygon fill="none" stroke="black" points="2925.74,-635.4 2925.74,-671 3149.71,-671 3149.71,-635.4 2925.74,-635.4"/>
<text text-anchor="start" x="2932.74" y="-648.8" font-family="Arial Bold" font-size="18.00">public.logic</text>
<text text-anchor="start" x="3018.22" y="-648.8" font-family="Arial" font-size="14.00">    </text>
<text text-anchor="start" x="3049.34" y="-648.8" font-family="Arial" font-size="14.00" fill="#666666">[BASE TABLE]</text>
<polygon fill="none" stroke="black" points="2925.74,-604.6 2925.74,-635.4 3149.71,-635.4 3149.71,-604.6 2925.74,-604.6"/>
<text text-anchor="start" x="2932.74" y="-616.8" font-family="Arial" font-size="14.00">logic_key </text>
<text text-anchor="start" x="2994.99" y="-616.8" font-family="Arial" font-size="14.00" fill="#666666">[text]</text>
<polygon fill="none" stroke="black" points="2925.74,-573.8 2925.74,-604.6 3149.71,-604.6 3149.71,-573.8 2925.74,-573.8"/>
<text text-anchor="start" x="2932.74" y="-586" font-family="Arial" font-size="14.00">model_key </text>
<text text-anchor="start" x="3004.33" y="-586" font-family="Arial" font-size="14.00" fill="#666666">[text]</text>
<polygon fill="none" stroke="black" points="2925.74,-543 2925.74,-573.8 3149.71,-573.8 3149.71,-543 2925.74,-543"/>
<text text-anchor="start" x="2932.74" y="-555.2" font-family="Arial" font-size="14.00">sort_order </text>
<text text-anchor="start" x="3000.44" y="-555.2" font-family="Arial" font-size="14.00" fill="#666666">[integer]</text>
<polygon fill="none" stroke="black" points="2925.74,-512.2 2925.74,-543 3149.71,-543 3149.71,-512.2 2925.74,-512.2"/>
<text text-anchor="start" x="2932.74" y="-524.4" font-family="Arial" font-size="14.00">logic_type </text>
<text text-anchor="start" x="2999.67" y="-524.4" font-family="Arial" font-size="14.00" fill="#666666">[logic_type]</text>
<polygon fill="none" stroke="black" points="2925.74,-481.4 2925.74,-512.2 3149.71,-512.2 3149.71,-481.4 2925.74,-481.4"/>
<text text-anchor="start" x="2932.74" y="-493.6" font-family="Arial" font-size="14.00">description </text>
<text text-anchor="start" x="3004.33" y="-493.6" font-family="Arial" font-size="14.00" fill="#666666">[text]</text>
<polygon fill="none" stroke="black" points="2925.74,-450.6 2925.74,-481.4 3149.71,-481.4 3149.71,-450.6 2925.74,-450.6"/>
<text text-anchor="start" x="2932.74" y="-462.8" font-family="Arial" font-size="14.00">target </text>
<text text-anchor="start" x="2972.43" y="-462.8" font-family="Arial" font-size="14.00" fill="#666666">[text]</text>
<polygon fill="none" stroke="black" points="2925.74,-419.8 2925.74,-450.6 3149.71,-450.6 3149.71,-419.8 2925.74,-419.8"/>
<text text-anchor="start" x="2932.74" y="-432" font-family="Arial" font-size="14.00">notation </text>
<text text-anchor="start" x="2986.45" y="-432" font-family="Arial" font-size="14.00" fill="#666666">[notation]</text>
<polygon fill="none" stroke="black" points="2925.74,-389 2925.74,-419.8 3149.71,-419.8 3149.71,-389 2925.74,-389"/>
<text text-anchor="start" x="2932.74" y="-401.2" font-family="Arial" font-size="14.00">specification </text>
<text text-anchor="start" x="3013.67" y="-401.2" font-family="Arial" font-size="14.00" fill="#666666">[text]</text>
<polygon fill="none" stroke="black" points="2925.74,-358.2 2925.74,-389 3149.71,-389 3149.71,-358.2 2925.74,-358.2"/>
<text text-anchor="start" x="2932.74" y="-370.4" font-family="Arial" font-size="14.00">target_type_notation </text>
<text text-anchor="start" x="3064.28" y="-370.4" font-family="Arial" font-size="14.00" fill="#666666">[notation]</text>
<polygon fill="none" stroke="black" points="2925.74,-327.4 2925.74,-358.2 3149.71,-358.2 3149.71,-327.4 2925.74,-327.4"/>
<text text-anchor="start" x="2932.74" y="-339.6" font-family="Arial" font-size="14.00">target_type_specification </text>
<text text-anchor="start" x="3091.5" y="-339.6" font-family="Arial" font-size="14.00" fill="#666666">[text]</text>
<polygon fill="none" stroke="black" stroke-width="3" points="2924.24,-325.9 2924.24,-672.5 3151.21,-672.5 3151.21,-325.9 2924.24,-325.9"/>
</g>
<!-- public.model -->
<g id="node16" class="node">
<title>public.model</title>
<polygon fill="#efefef" stroke="none" points="2921.24,-166.4 2921.24,-202 3154.21,-202 3154.21,-166.4 2921.24,-166.4"/>
<polygon fill="none" stroke="black" points="2921.24,-166.4 2921.24,-202 3154.21,-202 3154.21,-166.4 2921.24,-166.4"/>
<text text-anchor="start" x="2928.24" y="-179.8" font-family="Arial Bold" font-size="18.00">public.model</text>
<text text-anchor="start" x="3022.72" y="-179.8" font-family="Arial" font-size="14.00">    </text>
<text text-anchor="start" x="3053.84" y="-179.8" font-family="Arial" font-size="14.00" fill="#666666">[BASE TABLE]</text>
<polygon fill="none" stroke="black" points="2921.24,-135.6 2921.24,-166.4 3154.21,-166.4 3154.21,-135.6 2921.24,-135.6"/>
<text text-anchor="start" x="2928.24" y="-147.8" font-family="Arial" font-size="14.00">model_key </text>
<text text-anchor="start" x="2999.83" y="-147.8" font-family="Arial" font-size="14.00" fill="#666666">[text]</text>
<polygon fill="none" stroke="black" points="2921.24,-104.8 2921.24,-135.6 3154.21,-135.6 3154.21,-104.8 2921.24,-104.8"/>
<text text-anchor="start" x="2928.24" y="-117" font-family="Arial" font-size="14.00">name </text>
<text text-anchor="start" x="2967.15" y="-117" font-family="Arial" font-size="14.00" fill="#666666">[text]</text>
<polygon fill="none" stroke="black" points="2921.24,-74 2921.24,-104.8 3154.21,-104.8 3154.21,-74 2921.24,-74"/>
<text text-anchor="start" x="2928.24" y="-86.2" font-family="Arial" font-size="14.00">details </text>
<text text-anchor="start" x="2972.6" y="-86.2" font-family="Arial" font-size="14.00" fill="#666666">[text]</text>
<polygon fill="none" stroke="black" points="2921.24,-43.2 2921.24,-74 3154.21,-74 3154.21,-43.2 2921.24,-43.2"/>
<text text-anchor="start" x="2928.24" y="-55.4" font-family="Arial" font-size="14.00">unfinished_notes </text>
<text text-anchor="start" x="3037.99" y="-55.4" font-family="Arial" font-size="14.00" fill="#666666">[text]</text>
</g>
<!-- public.logic&#45;&gt;public.model -->
<g id="edge15" class="edge">
<title>public.logic:model_key&#45;&gt;public.model:model_key</title>
<path fill="none" stroke="black" d="M3161.08,-588.78C3345.57,-573.51 3346.46,-151 3155.21,-151"/>
<polygon fill="black" stroke="black" points="3161.04,-588.78 3150.86,-584.69 3155.71,-589 3151.38,-589.17 3151.38,-589.17 3151.38,-589.17 3155.71,-589 3151.23,-593.68 3161.04,-588.78"/>
<text text-anchor="start" x="3157.71" y="-599.2" font-family="Arial" font-size="10.00">FOREIGN KEY (model_key) REFERENCES model(model_key) ON DELETE CASCADE</text>
</g>
<!-- public.invariant -->
<g id="node2" class="node">
<title>public.invariant</title>
<polygon fill="#efefef" stroke="none" points="241.75,-996.6 241.75,-1032.2 493.7,-1032.2 493.7,-996.6 241.75,-996.6"/>
<polygon fill="none" stroke="black" points="241.75,-996.6 241.75,-1032.2 493.7,-1032.2 493.7,-996.6 241.75,-996.6"/>
<text text-anchor="start" x="248.75" y="-1010" font-family="Arial Bold" font-size="18.00">public.invariant</text>
<text text-anchor="start" x="362.21" y="-1010" font-family="Arial" font-size="14.00">    </text>
<text text-anchor="start" x="393.33" y="-1010" font-family="Arial" font-size="14.00" fill="#666666">[BASE TABLE]</text>
<polygon fill="none" stroke="black" points="241.75,-965.8 241.75,-996.6 493.7,-996.6 493.7,-965.8 241.75,-965.8"/>
<text text-anchor="start" x="248.75" y="-978" font-family="Arial" font-size="14.00">model_key </text>
<text text-anchor="start" x="320.34" y="-978" font-family="Arial" font-size="14.00" fill="#666666">[text]</text>
<polygon fill="none" stroke="black" points="241.75,-935 241.75,-965.8 493.7,-965.8 493.7,-935 241.75,-935"/>
<text text-anchor="start" x="248.75" y="-947.2" font-family="Arial" font-size="14.00">logic_key </text>
<text text-anchor="start" x="311" y="-947.2" font-family="Arial" font-size="14.00" fill="#666666">[text]</text>
</g>
<!-- public.invariant&#45;&gt;public.logic -->
<g id="edge1" class="edge">
<title>public.invariant:model_key&#45;&gt;public.logic:model_key</title>
<path fill="none" stroke="black" d="M505.06,-980.58C589.31,-969.73 469.81,-818.42 545.73,-753.2 646.22,-666.87 2792.26,-589.2 2924.74,-589.2"/>
<polygon fill="black" stroke="black" points="505.02,-980.59 494.77,-976.69 499.69,-980.9 495.37,-981.16 495.37,-981.16 495.37,-981.16 499.69,-980.9 495.3,-985.67 505.02,-980.59"/>
<text text-anchor="start" x="7" y="-991.2" font-family="Arial" font-size="10.00">FOREIGN KEY (model_key, logic_key) REFERENCES logic(model_key, logic_key) ON DELETE CASCADE</text>
</g>
<!-- public.global_function -->
<g id="node3" class="node">
<title>public.global_function</title>
<polygon fill="#efefef" stroke="none" points="597.75,-1027.4 597.75,-1063 899.7,-1063 899.7,-1027.4 597.75,-1027.4"/>
<polygon fill="none" stroke="black" points="597.75,-1027.4 597.75,-1063 899.7,-1063 899.7,-1027.4 597.75,-1027.4"/>
<text text-anchor="start" x="604.75" y="-1040.8" font-family="Arial Bold" font-size="18.00">public.global_function</text>
<text text-anchor="start" x="768.21" y="-1040.8" font-family="Arial" font-size="14.00">    </text>
<text text-anchor="start" x="799.33" y="-1040.8" font-family="Arial" font-size="14.00" fill="#666666">[BASE TABLE]</text>
<polygon fill="none" stroke="black" points="597.75,-996.6 597.75,-1027.4 899.7,-1027.4 899.7,-996.6 597.75,-996.6"/>
<text text-anchor="start" x="604.75" y="-1008.8" font-family="Arial" font-size="14.00">model_key </text>
<text text-anchor="start" x="676.34" y="-1008.8" font-family="Arial" font-size="14.00" fill="#666666">[text]</text>
<polygon fill="none" stroke="black" points="597.75,-965.8 597.75,-996.6 899.7,-996.6 899.7,-965.8 597.75,-965.8"/>
<text text-anchor="start" x="604.75" y="-978" font-family="Arial" font-size="14.00">logic_key </text>
<text text-anchor="start" x="667" y="-978" font-family="Arial" font-size="14.00" fill="#666666">[text]</text>
<polygon fill="none" stroke="black" points="597.75,-935 597.75,-965.8 899.7,-965.8 899.7,-935 597.75,-935"/>
<text text-anchor="start" x="604.75" y="-947.2" font-family="Arial" font-size="14.00">name </text>
<text text-anchor="start" x="643.66" y="-947.2" font-family="Arial" font-size="14.00" fill="#666666">[text]</text>
<polygon fill="none" stroke="black" points="597.75,-904.2 597.75,-935 899.7,-935 899.7,-904.2 597.75,-904.2"/>
<text text-anchor="start" x="604.75" y="-916.4" font-family="Arial" font-size="14.00">parameters </text>
<text text-anchor="start" x="679.44" y="-916.4" font-family="Arial" font-size="14.00" fill="#666666">[text[]]</text>
</g>
<!-- public.global_function&#45;&gt;public.logic -->
<g id="edge2" class="edge">
<title>public.global_function:model_key&#45;&gt;public.logic:model_key</title>
<path fill="none" stroke="black" d="M910.92,-1011.48C1008.57,-1000.81 867.06,-828.9 951.73,-753.2 1115.72,-606.58 2704.76,-589.2 2924.74,-589.2"/>
<polygon fill="black" stroke="black" points="911.02,-1011.47 900.81,-1007.49 905.7,-1011.75 901.37,-1011.97 901.37,-1011.97 901.37,-1011.97 905.7,-1011.75 901.27,-1016.48 911.02,-1011.47"/>
<text text-anchor="start" x="413" y="-1022" font-family="Arial" font-size="10.00">FOREIGN KEY (model_key, logic_key) REFERENCES logic(model_key, logic_key) ON DELETE CASCADE</text>
</g>
<!-- public.attribute -->
<g id="node4" class="node">
<title>public.attribute</title>
<polygon fill="#efefef" stroke="none" points="1003.75,-1135.2 1003.75,-1170.8 1251.7,-1170.8 1251.7,-1135.2 1003.75,-1135.2"/>
<polygon fill="none" stroke="black" points="1003.75,-1135.2 1003.75,-1170.8 1251.7,-1170.8 1251.7,-1135.2 1003.75,-1135.2"/>
<text text-anchor="start" x="1010.75" y="-1148.6" font-family="Arial Bold" font-size="18.00">public.attribute</text>
<text text-anchor="start" x="1120.21" y="-1148.6" font-family="Arial" font-size="14.00">    </text>
<text text-anchor="start" x="1151.33" y="-1148.6" font-family="Arial" font-size="14.00" fill="#666666">[BASE TABLE]</text>
<polygon fill="none" stroke="black" points="1003.75,-1104.4 1003.75,-1135.2 1251.7,-1135.2 1251.7,-1104.4 1003.75,-1104.4"/>
<text text-anchor="start" x="1010.75" y="-1116.6" font-family="Arial" font-size="14.00">model_key </text>
<text text-anchor="start" x="1082.34" y="-1116.6" font-family="Arial" font-size="14.00" fill="#666666">[text]</text>
<polygon fill="none" stroke="black" points="1003.75,-1073.6 1003.75,-1104.4 1251.7,-1104.4 1251.7,-1073.6 1003.75,-1073.6"/>
<text text-anchor="start" x="1010.75" y="-1085.8" font-family="Arial" font-size="14.00">attribute_key </text>
<text text-anchor="start" x="1094.79" y="-1085.8" font-family="Arial" font-size="14.00" fill="#666666">[text]</text>
<polygon fill="none" stroke="black" points="1003.75,-1042.8 1003.75,-1073.6 1251.7,-1073.6 1251.7,-1042.8 1003.75,-1042.8"/>
<text text-anchor="start" x="1010.75" y="-1055" font-family="Arial" font-size="14.00">class_key </text>
<text text-anchor="start" x="1076.1" y="-1055" font-family="Arial" font-size="14.00" fill="#666666">[text]</text>
<polygon fill="none" stroke="black" points="1003.75,-1012 1003.75,-1042.8 1251.7,-1042.8 1251.7,-1012 1003.75,-1012"/>
<text text-anchor="start" x="1010.75" y="-1024.2" font-family="Arial" font-size="14.00">sort_order </text>
<text text-anchor="start" x="1078.44" y="-1024.2" font-family="Arial" font-size="14.00" fill="#666666">[integer]</text>
<polygon fill="none" stroke="black" points="1003.75,-981.2 1003.75,-1012 1251.7,-1012 1251.7,-981.2 1003.75,-981.2"/>
<text text-anchor="start" x="1010.75" y="-993.4" font-family="Arial" font-size="14.00">name </text>
<text text-anchor="start" x="1049.66" y="-993.4" font-family="Arial" font-size="14.00" fill="#666666">[text]</text>
<polygon fill="none" stroke="black" points="1003.75,-950.4 1003.75,-981.2 1251.7,-981.2 1251.7,-950.4 1003.75,-950.4"/>
<text text-anchor="start" x="1010.75" y="-962.6" font-family="Arial" font-size="14.00">details </text>
<text text-anchor="start" x="1055.1" y="-962.6" font-family="Arial" font-size="14.00" fill="#666666">[text]</text>
<polygon fill="none" stroke="black" points="1003.75,-919.6 1003.75,-950.4 1251.7,-950.4 1251.7,-919.6 1003.75,-919.6"/>
<text text-anchor="start" x="1010.75" y="-931.8" font-family="Arial" font-size="14.00">data_type_rules </text>
<text text-anchor="start" x="1114.26" y="-931.8" font-family="Arial" font-size="14.00" fill="#666666">[text]</text>
<polygon fill="none" stroke="black" points="1003.75,-888.8 1003.75,-919.6 1251.7,-919.6 1251.7,-888.8 1003.75,-888.8"/>
<text text-anchor="start" x="1010.75" y="-901" font-family="Arial" font-size="14.00">data_type_key </text>
<text text-anchor="start" x="1105.7" y="-901" font-family="Arial" font-size="14.00" fill="#666666">[text]</text>
<polygon fill="none" stroke="black" points="1003.75,-858 1003.75,-888.8 1251.7,-888.8 1251.7,-858 1003.75,-858"/>
<text text-anchor="start" x="1010.75" y="-870.2" font-family="Arial" font-size="14.00">derivation_policy_key </text>
<text text-anchor="start" x="1148.49" y="-870.2" font-family="Arial" font-size="14.00" fill="#666666">[text]</text>
<polygon fill="none" stroke="black" points="1003.75,-827.2 1003.75,-858 1251.7,-858 1251.7,-827.2 1003.75,-827.2"/>
<text text-anchor="start" x="1010.75" y="-839.4" font-family="Arial" font-size="14.00">nullable </text>
<text text-anchor="start" x="1062.9" y="-839.4" font-family="Arial" font-size="14.00" fill="#666666">[boolean]</text>
<polygon fill="none" stroke="black" points="1003.75,-796.4 1003.75,-827.2 1251.7,-827.2 1251.7,-796.4 1003.75,-796.4"/>
<text text-anchor="start" x="1010.75" y="-808.6" font-family="Arial" font-size="14.00">uml_comment </text>
<text text-anchor="start" x="1102.55" y="-808.6" font-family="Arial" font-size="14.00" fill="#666666">[text]</text>
</g>
<!-- public.attribute&#45;&gt;public.logic -->
<g id="edge3" class="edge">
<title>public.attribute:model_key&#45;&gt;public.logic:model_key</title>
<path fill="none" stroke="black" d="M1262.77,-1117.98C1327.13,-1092.5 1247.15,-807.7 1303.73,-753.2 1434.11,-627.61 2743.71,-589.2 2924.74,-589.2"/>
<polygon fill="black" stroke="black" points="1262.87,-1117.96 1252.23,-1115.31 1257.62,-1118.91 1253.36,-1119.68 1253.36,-1119.68 1253.36,-1119.68 1257.62,-1118.91 1253.83,-1124.17 1262.87,-1117.96"/>
<text text-anchor="start" x="1259.7" y="-1129.8" font-family="Arial" font-size="10.00">FOREIGN KEY (model_key, derivation_policy_key) REFERENCES logic(model_key, logic_key) ON DELETE CASCADE</text>
</g>
<!-- public.class_invariant -->
<g id="node5" class="node">
<title>public.class_invariant</title>
<polygon fill="#efefef" stroke="none" points="1355.75,-1012 1355.75,-1047.6 1651.7,-1047.6 1651.7,-1012 1355.75,-1012"/>
<polygon fill="none" stroke="black" points="1355.75,-1012 1355.75,-1047.6 1651.7,-1047.6 1651.7,-1012 1355.75,-1012"/>
<text text-anchor="start" x="1362.75" y="-1025.4" font-family="Arial Bold" font-size="18.00">public.class_invariant</text>
<text text-anchor="start" x="1520.21" y="-1025.4" font-family="Arial" font-size="14.00">    </text>
<text text-anchor="start" x="1551.33" y="-1025.4" font-family="Arial" font-size="14.00" fill="#666666">[BASE TABLE]</text>
<polygon fill="none" stroke="black" points="1355.75,-981.2 1355.75,-1012 1651.7,-1012 1651.7,-981.2 1355.75,-981.2"/>
<text text-anchor="start" x="1362.75" y="-993.4" font-family="Arial" font-size="14.00">model_key </text>
<text text-anchor="start" x="1434.35" y="-993.4" font-family="Arial" font-size="14.00" fill="#666666">[text]</text>
<polygon fill="none" stroke="black" points="1355.75,-950.4 1355.75,-981.2 1651.7,-981.2 1651.7,-950.4 1355.75,-950.4"/>
<text text-anchor="start" x="1362.75" y="-962.6" font-family="Arial" font-size="14.00">class_key </text>
<text text-anchor="start" x="1428.11" y="-962.6" font-family="Arial" font-size="14.00" fill="#666666">[text]</text>
<polygon fill="none" stroke="black" points="1355.75,-919.6 1355.75,-950.4 1651.7,-950.4 1651.7,-919.6 1355.75,-919.6"/>
<text text-anchor="start" x="1362.75" y="-931.8" font-family="Arial" font-size="14.00">logic_key </text>
<text text-anchor="start" x="1425.01" y="-931.8" font-family="Arial" font-size="14.00" fill="#666666">[text]</text>
</g>
<!-- public.class_invariant&#45;&gt;public.logic -->
<g id="edge4" class="edge">
<title>public.class_invariant:model_key&#45;&gt;public.logic:model_key</title>
<path fill="none" stroke="black" d="M1662.89,-996.05C1754.14,-985.54 1625.45,-825.95 1703.73,-753.2 1803.99,-660.01 2787.85,-589.2 2924.74,-589.2"/>
<polygon fill="black" stroke="black" points="1663.02,-996.05 1652.79,-992.09 1657.69,-996.33 1653.37,-996.56 1653.37,-996.56 1653.37,-996.56 1657.69,-996.33 1653.27,-1001.08 1663.02,-996.05"/>
<text text-anchor="start" x="1164.99" y="-1006.6" font-family="Arial" font-size="10.00">FOREIGN KEY (model_key, logic_key) REFERENCES logic(model_key, logic_key) ON DELETE CASCADE</text>
</g>
<!-- public.attribute_invariant -->
<g id="node6" class="node">
<title>public.attribute_invariant</title>
<polygon fill="#efefef" stroke="none" points="1756.26,-1012 1756.26,-1047.6 2077.19,-1047.6 2077.19,-1012 1756.26,-1012"/>
<polygon fill="none" stroke="black" points="1756.26,-1012 1756.26,-1047.6 2077.19,-1047.6 2077.19,-1012 1756.26,-1012"/>
<text text-anchor="start" x="1763.26" y="-1025.4" font-family="Arial Bold" font-size="18.00">public.attribute_invariant</text>
<text text-anchor="start" x="1945.7" y="-1025.4" font-family="Arial" font-size="14.00">    </text>
<text text-anchor="start" x="1976.82" y="-1025.4" font-family="Arial" font-size="14.00" fill="#666666">[BASE TABLE]</text>
<polygon fill="none" stroke="black" points="1756.26,-981.2 1756.26,-1012 2077.19,-1012 2077.19,-981.2 1756.26,-981.2"/>
<text text-anchor="start" x="1763.26" y="-993.4" font-family="Arial" font-size="14.00">model_key </text>
<text text-anchor="start" x="1834.85" y="-993.4" font-family="Arial" font-size="14.00" fill="#666666">[text]</text>
<polygon fill="none" stroke="black" points="1756.26,-950.4 1756.26,-981.2 2077.19,-981.2 2077.19,-950.4 1756.26,-950.4"/>
<text text-anchor="start" x="1763.26" y="-962.6" font-family="Arial" font-size="14.00">attribute_key </text>
<text text-anchor="start" x="1847.31" y="-962.6" font-family="Arial" font-size="14.00" fill="#666666">[text]</text>
<polygon fill="none" stroke="black" points="1756.26,-919.6 1756.26,-950.4 2077.19,-950.4 2077.19,-919.6 1756.26,-919.6"/>
<text text-anchor="start" x="1763.26" y="-931.8" font-family="Arial" font-size="14.00">logic_key </text>
<text text-anchor="start" x="1825.51" y="-931.8" font-family="Arial" font-size="14.00" fill="#666666">[text]</text>
</g>
<!-- public.attribute_invariant&#45;&gt;public.logic -->
<g id="edge5" class="edge">
<title>public.attribute_invariant:model_key&#45;&gt;public.logic:model_key</title>
<path fill="none" stroke="black" d="M2088.39,-996.06C2179.74,-985.72 2053.14,-828.67 2128.73,-753.2 2256.53,-625.59 2744.13,-589.2 2924.74,-589.2"/>
<polygon fill="black" stroke="black" points="2088.51,-996.06 2078.29,-992.09 2083.18,-996.34 2078.86,-996.56 2078.86,-996.56 2078.86,-996.56 2083.18,-996.34 2078.76,-1001.08 2088.51,-996.06"/>
<text text-anchor="start" x="1837.84" y="-980.6" font-family="Arial" font-size="10.00">FOREIGN KEY (model_key, logic_key) REFERENCES logic(model_key, logic_key) ON DELETE CASCADE</text>
</g>
<!-- public.association_invariant -->
<g id="node7" class="node">
<title>public.association_invariant</title>
<polygon fill="#efefef" stroke="none" points="2181.26,-1027.4 2181.26,-1063 2522.19,-1063 2522.19,-1027.4 2181.26,-1027.4"/>
<polygon fill="none" stroke="black" points="2181.26,-1027.4 2181.26,-1063 2522.19,-1063 2522.19,-1027.4 2181.26,-1027.4"/>
<text text-anchor="start" x="2188.26" y="-1040.8" font-family="Arial Bold" font-size="18.00">public.association_invariant</text>
<text text-anchor="start" x="2390.7" y="-1040.8" font-family="Arial" font-size="14.00">    </text>
<text text-anchor="start" x="2421.82" y="-1040.8" font-family="Arial" font-size="14.00" fill="#666666">[BASE TABLE]</text>
<polygon fill="none" stroke="black" points="2181.26,-996.6 2181.26,-1027.4 2522.19,-1027.4 2522.19,-996.6 2181.26,-996.6"/>
<text text-anchor="start" x="2188.26" y="-1008.8" font-family="Arial" font-size="14.00">model_key </text>
<text text-anchor="start" x="2259.85" y="-1008.8" font-family="Arial" font-size="14.00" fill="#666666">[text]</text>
<polygon fill="none" stroke="black" points="2181.26,-965.8 2181.26,-996.6 2522.19,-996.6 2522.19,-965.8 2181.26,-965.8"/>
<text text-anchor="start" x="2188.26" y="-978" font-family="Arial" font-size="14.00">association_key </text>
<text text-anchor="start" x="2291.76" y="-978" font-family="Arial" font-size="14.00" fill="#666666">[text]</text>
<polygon fill="none" stroke="black" points="2181.26,-935 2181.26,-965.8 2522.19,-965.8 2522.19,-935 2181.26,-935"/>
<text text-anchor="start" x="2188.26" y="-947.2" font-family="Arial" font-size="14.00">logic_key </text>
<text text-anchor="start" x="2250.51" y="-947.2" font-family="Arial" font-size="14.00" fill="#666666">[text]</text>
<polygon fill="none" stroke="black" points="2181.26,-904.2 2181.26,-935 2522.19,-935 2522.19,-904.2 2181.26,-904.2"/>
<text text-anchor="start" x="2188.26" y="-916.4" font-family="Arial" font-size="14.00">to_class_anchor </text>
<text text-anchor="start" x="2294.1" y="-916.4" font-family="Arial" font-size="14.00" fill="#666666">[boolean]</text>
</g>
<!-- public.association_invariant&#45;&gt;public.logic -->
<g id="edge6" class="edge">
<title>public.association_invariant:model_key&#45;&gt;public.logic:model_key</title>
<path fill="none" stroke="black" d="M2533.44,-1011.52C2631.92,-1001.67 2503.82,-842.66 2573.73,-753.2 2679.74,-617.51 2752.55,-589.2 2924.74,-589.2"/>
<polygon fill="black" stroke="black" points="2533.52,-1011.52 2523.32,-1007.49 2528.19,-1011.77 2523.86,-1011.97 2523.86,-1011.97 2523.86,-1011.97 2528.19,-1011.77 2523.74,-1016.48 2533.52,-1011.52"/>
<text text-anchor="start" x="2406.52" y="-996" font-family="Arial" font-size="10.00">FOREIGN KEY (model_key, logic_key) REFERENCES logic(model_key, logic_key) ON DELETE CASCADE</text>
</g>
<!-- public.query_parameter_invariant -->
<g id="node8" class="node">
<title>public.query_parameter_invariant</title>
<polygon fill="#efefef" stroke="none" points="2626.28,-1027.4 2626.28,-1063 3009.17,-1063 3009.17,-1027.4 2626.28,-1027.4"/>
<polygon fill="none" stroke="black" points="2626.28,-1027.4 2626.28,-1063 3009.17,-1063 3009.17,-1027.4 2626.28,-1027.4"/>
<text text-anchor="start" x="2633.28" y="-1040.8" font-family="Arial Bold" font-size="18.00">public.query_parameter_invariant</text>
<text text-anchor="start" x="2877.68" y="-1040.8" font-family="Arial" font-size="14.00">    </text>
<text text-anchor="start" x="2908.8" y="-1040.8" font-family="Arial" font-size="14.00" fill="#666666">[BASE TABLE]</text>
<polygon fill="none" stroke="black" points="2626.28,-996.6 2626.28,-1027.4 3009.17,-1027.4 3009.17,-996.6 2626.28,-996.6"/>
<text text-anchor="start" x="2633.28" y="-1008.8" font-family="Arial" font-size="14.00">model_key </text>
<text text-anchor="start" x="2704.87" y="-1008.8" font-family="Arial" font-size="14.00" fill="#666666">[text]</text>
<polygon fill="none" stroke="black" points="2626.28,-965.8 2626.28,-996.6 3009.17,-996.6 3009.17,-965.8 2626.28,-965.8"/>
<text text-anchor="start" x="2633.28" y="-978" font-family="Arial" font-size="14.00">query_key </text>
<text text-anchor="start" x="2701.76" y="-978" font-family="Arial" font-size="14.00" fill="#666666">[text]</text>
<polygon fill="none" stroke="black" points="2626.28,-935 2626.28,-965.8 3009.17,-965.8 3009.17,-935 2626.28,-935"/>
<text text-anchor="start" x="2633.28" y="-947.2" font-family="Arial" font-size="14.00">parameter_key </text>
<text text-anchor="start" x="2730.55" y="-947.2" font-family="Arial" font-size="14.00" fill="#666666">[text]</text>
<polygon fill="none" stroke="black" points="2626.28,-904.2 2626.28,-935 3009.17,-935 3009.17,-904.2 2626.28,-904.2"/>
<text text-anchor="start" x="2633.28" y="-916.4" font-family="Arial" font-size="14.00">logic_key </text>
<text text-anchor="start" x="2695.54" y="-916.4" font-family="Arial" font-size="14.00" fill="#666666">[text]</text>
</g>
<!-- public.query_parameter_invariant&#45;&gt;public.logic -->
<g id="edge7" class="edge">
<title>public.query_parameter_invariant:model_key&#45;&gt;public.logic:model_key</title>
<path fill="none" stroke="black" d="M3020.38,-1011.54C3142.5,-999.85 2939.92,-769.07 2925.74,-717.2 2910.74,-662.32 2867.85,-589.2 2924.74,-589.2"/>
<polygon fill="black" stroke="black" points="3020.49,-1011.53 3010.3,-1007.49 3015.16,-1011.77 3010.84,-1011.97 3010.84,-1011.97 3010.84,-1011.97 3015.16,-1011.77 3010.71,-1016.48 3020.49,-1011.53"/>
<text text-anchor="start" x="3017.17" y="-1022" font-family="Arial" font-size="10.00">FOREIGN KEY (model_key, logic_key) REFERENCES logic(model_key, logic_key) ON DELETE CASCADE</text>
</g>
<!-- public.query_require -->
<g id="node9" class="node">
<title>public.query_require</title>
<polygon fill="#efefef" stroke="none" points="3113.26,-1012 3113.26,-1047.6 3402.19,-1047.6 3402.19,-1012 3113.26,-1012"/>
<polygon fill="none" stroke="black" points="3113.26,-1012 3113.26,-1047.6 3402.19,-1047.6 3402.19,-1012 3113.26,-1012"/>
<text text-anchor="start" x="3120.26" y="-1025.4" font-family="Arial Bold" font-size="18.00">public.query_require</text>
<text text-anchor="start" x="3270.7" y="-1025.4" font-family="Arial" font-size="14.00">    </text>
<text text-anchor="start" x="3301.82" y="-1025.4" font-family="Arial" font-size="14.00" fill="#666666">[BASE TABLE]</text>
<polygon fill="none" stroke="black" points="3113.26,-981.2 3113.26,-1012 3402.19,-1012 3402.19,-981.2 3113.26,-981.2"/>
<text text-anchor="start" x="3120.26" y="-993.4" font-family="Arial" font-size="14.00">model_key </text>
<text text-anchor="start" x="3191.85" y="-993.4" font-family="Arial" font-size="14.00" fill="#666666">[text]</text>
<polygon fill="none" stroke="black" points="3113.26,-950.4 3113.26,-981.2 3402.19,-981.2 3402.19,-950.4 3113.26,-950.4"/>
<text text-anchor="start" x="3120.26" y="-962.6" font-family="Arial" font-size="14.00">query_key </text>
<text text-anchor="start" x="3188.74" y="-962.6" font-family="Arial" font-size="14.00" fill="#666666">[text]</text>
<polygon fill="none" stroke="black" points="3113.26,-919.6 3113.26,-950.4 3402.19,-950.4 3402.19,-919.6 3113.26,-919.6"/>
<text text-anchor="start" x="3120.26" y="-931.8" font-family="Arial" font-size="14.00">logic_key </text>
<text text-anchor="start" x="3182.51" y="-931.8" font-family="Arial" font-size="14.00" fill="#666666">[text]</text>
</g>
<!-- public.query_require&#45;&gt;public.logic -->
<g id="edge8" class="edge">
<title>public.query_require:model_key&#45;&gt;public.logic:model_key</title>
<path fill="none" stroke="black" d="M3102.26,-996.14C2945.88,-980.84 3329.03,-589.2 3150.71,-589.2"/>
<polygon fill="black" stroke="black" points="3101.94,-996.12 3111.72,-1001.08 3107.26,-996.37 3111.59,-996.57 3111.59,-996.57 3111.59,-996.57 3107.26,-996.37 3112.13,-992.09 3101.94,-996.12"/>
<text text-anchor="start" x="3119.26" y="-1006.6" font-family="Arial" font-size="10.00">FOREIGN KEY (model_key, logic_key) REFERENCES logic(model_key, logic_key) ON DELETE CASCADE</text>
</g>
<!-- public.query_guarantee -->
<g id="node10" class="node">
<title>public.query_guarantee</title>
<polygon fill="#efefef" stroke="none" points="3506.77,-1012 3506.77,-1047.6 3814.68,-1047.6 3814.68,-1012 3506.77,-1012"/>
<polygon fill="none" stroke="black" points="3506.77,-1012 3506.77,-1047.6 3814.68,-1047.6 3814.68,-1012 3506.77,-1012"/>
<text text-anchor="start" x="3513.77" y="-1025.4" font-family="Arial Bold" font-size="18.00">public.query_guarantee</text>
<text text-anchor="start" x="3683.19" y="-1025.4" font-family="Arial" font-size="14.00">    </text>
<text text-anchor="start" x="3714.31" y="-1025.4" font-family="Arial" font-size="14.00" fill="#666666">[BASE TABLE]</text>
<polygon fill="none" stroke="black" points="3506.77,-981.2 3506.77,-1012 3814.68,-1012 3814.68,-981.2 3506.77,-981.2"/>
<text text-anchor="start" x="3513.77" y="-993.4" font-family="Arial" font-size="14.00">model_key </text>
<text text-anchor="start" x="3585.36" y="-993.4" font-family="Arial" font-size="14.00" fill="#666666">[text]</text>
<polygon fill="none" stroke="black" points="3506.77,-950.4 3506.77,-981.2 3814.68,-981.2 3814.68,-950.4 3506.77,-950.4"/>
<text text-anchor="start" x="3513.77" y="-962.6" font-family="Arial" font-size="14.00">query_key </text>
<text text-anchor="start" x="3582.25" y="-962.6" font-family="Arial" font-size="14.00" fill="#666666">[text]</text>
<polygon fill="none" stroke="black" points="3506.77,-919.6 3506.77,-950.4 3814.68,-950.4 3814.68,-919.6 3506.77,-919.6"/>
<text text-anchor="start" x="3513.77" y="-931.8" font-family="Arial" font-size="14.00">logic_key </text>
<text text-anchor="start" x="3576.02" y="-931.8" font-family="Arial" font-size="14.00" fill="#666666">[text]</text>
</g>
<!-- public.query_guarantee&#45;&gt;public.logic -->
<g id="edge9" class="edge">
<title>public.query_guarantee:model_key&#45;&gt;public.logic:model_key</title>
<path fill="none" stroke="black" d="M3495.52,-996.1C3403.37,-986.39 3518.66,-838.82 3454.73,-753.2 3362.87,-630.19 3304.23,-589.2 3150.71,-589.2"/>
<polygon fill="black" stroke="black" points="3495.45,-996.09 3505.21,-1001.08 3500.77,-996.35 3505.1,-996.57 3505.1,-996.57 3505.1,-996.57 3500.77,-996.35 3505.65,-992.09 3495.45,-996.09"/>
<text text-anchor="start" x="3018.06" y="-980.6" font-family="Arial" font-size="10.00">FOREIGN KEY (model_key, logic_key) REFERENCES logic(model_key, logic_key) ON DELETE CASCADE</text>
</g>
<!-- public.guard -->
<g id="node11" class="node">
<title>public.guard</title>
<polygon fill="#efefef" stroke="none" points="3919.24,-1027.4 3919.24,-1063 4148.21,-1063 4148.21,-1027.4 3919.24,-1027.4"/>
<polygon fill="none" stroke="black" points="3919.24,-1027.4 3919.24,-1063 4148.21,-1063 4148.21,-1027.4 3919.24,-1027.4"/>
<text text-anchor="start" x="3926.24" y="-1040.8" font-family="Arial Bold" font-size="18.00">public.guard</text>
<text text-anchor="start" x="4016.72" y="-1040.8" font-family="Arial" font-size="14.00">    </text>
<text text-anchor="start" x="4047.83" y="-1040.8" font-family="Arial" font-size="14.00" fill="#666666">[BASE TABLE]</text>
<polygon fill="none" stroke="black" points="3919.24,-996.6 3919.24,-1027.4 4148.21,-1027.4 4148.21,-996.6 3919.24,-996.6"/>
<text text-anchor="start" x="3926.24" y="-1008.8" font-family="Arial" font-size="14.00">model_key </text>
<text text-anchor="start" x="3997.84" y="-1008.8" font-family="Arial" font-size="14.00" fill="#666666">[text]</text>
<polygon fill="none" stroke="black" points="3919.24,-965.8 3919.24,-996.6 4148.21,-996.6 4148.21,-965.8 3919.24,-965.8"/>
<text text-anchor="start" x="3926.24" y="-978" font-family="Arial" font-size="14.00">class_key </text>
<text text-anchor="start" x="3991.6" y="-978" font-family="Arial" font-size="14.00" fill="#666666">[text]</text>
<polygon fill="none" stroke="black" points="3919.24,-935 3919.24,-965.8 4148.21,-965.8 4148.21,-935 3919.24,-935"/>
<text text-anchor="start" x="3926.24" y="-947.2" font-family="Arial" font-size="14.00">guard_key </text>
<text text-anchor="start" x="3995.51" y="-947.2" font-family="Arial" font-size="14.00" fill="#666666">[text]</text>
<polygon fill="none" stroke="black" points="3919.24,-904.2 3919.24,-935 4148.21,-935 4148.21,-904.2 3919.24,-904.2"/>
<text text-anchor="start" x="3926.24" y="-916.4" font-family="Arial" font-size="14.00">name </text>
<text text-anchor="start" x="3965.15" y="-916.4" font-family="Arial" font-size="14.00" fill="#666666">[text]</text>
</g>
<!-- public.guard&#45;&gt;public.logic -->
<g id="edge10" class="edge">
<title>public.guard:model_key&#45;&gt;public.logic:model_key</title>
<path fill="none" stroke="black" d="M3908.01,-1011.5C3809.96,-1001.17 3945.9,-834.68 3866.73,-753.2 3752.97,-636.13 3313.95,-589.2 3150.71,-589.2"/>
<polygon fill="black" stroke="black" points="3907.92,-1011.49 3917.69,-1016.48 3913.25,-1011.75 3917.58,-1011.97 3917.58,-1011.97 3917.58,-1011.97 3913.25,-1011.75 3918.13,-1007.49 3907.92,-1011.49"/>
<text text-anchor="start" x="3925.24" y="-1022" font-family="Arial" font-size="10.00">FOREIGN KEY (model_key, guard_key) REFERENCES logic(model_key, logic_key) ON DELETE CASCADE</text>
</g>
<!-- public.action_parameter_invariant -->
<g id="node12" class="node">
<title>public.action_parameter_invariant</title>
<polygon fill="#efefef" stroke="none" points="4252.78,-1027.4 4252.78,-1063 4638.67,-1063 4638.67,-1027.4 4252.78,-1027.4"/>
<polygon fill="none" stroke="black" points="4252.78,-1027.4 4252.78,-1063 4638.67,-1063 4638.67,-1027.4 4252.78,-1027.4"/>
<text text-anchor="start" x="4259.78" y="-1040.8" font-family="Arial Bold" font-size="18.00">public.action_parameter_invariant</text>
<text text-anchor="start" x="4507.18" y="-1040.8" font-family="Arial" font-size="14.00">    </text>
<text text-anchor="start" x="4538.29" y="-1040.8" font-family="Arial" font-size="14.00" fill="#666666">[BASE TABLE]</text>
<polygon fill="none" stroke="black" points="4252.78,-996.6 4252.78,-1027.4 4638.67,-1027.4 4638.67,-996.6 4252.78,-996.6"/>
<text text-anchor="start" x="4259.78" y="-1008.8" font-family="Arial" font-size="14.00">model_key </text>
<text text-anchor="start" x="4331.38" y="-1008.8" font-family="Arial" font-size="14.00" fill="#666666">[text]</text>
<polygon fill="none" stroke="black" points="4252.78,-965.8 4252.78,-996.6 4638.67,-996.6 4638.67,-965.8 4252.78,-965.8"/>
<text text-anchor="start" x="4259.78" y="-978" font-family="Arial" font-size="14.00">action_key </text>
<text text-anchor="start" x="4330.6" y="-978" font-family="Arial" font-size="14.00" fill="#666666">[text]</text>
<polygon fill="none" stroke="black" points="4252.78,-935 4252.78,-965.8 4638.67,-965.8 4638.67,-935 4252.78,-935"/>
<text text-anchor="start" x="4259.78" y="-947.2" font-family="Arial" font-size="14.00">parameter_key </text>
<text text-anchor="start" x="4357.05" y="-947.2" font-family="Arial" font-size="14.00" fill="#666666">[text]</text>
<polygon fill="none" stroke="black" points="4252.78,-904.2 4252.78,-935 4638.67,-935 4638.67,-904.2 4252.78,-904.2"/>
<text text-anchor="start" x="4259.78" y="-916.4" font-family="Arial" font-size="14.00">logic_key </text>
<text text-anchor="start" x="4322.04" y="-916.4" font-family="Arial" font-size="14.00" fill="#666666">[text]</text>
</g>
<!-- public.action_parameter_invariant&#45;&gt;public.logic -->
<g id="edge11" class="edge">
<title>public.action_parameter_invariant:model_key&#45;&gt;public.logic:model_key</title>
<path fill="none" stroke="black" d="M4241.56,-1011.49C4143.73,-1001 4282.62,-831.89 4200.73,-753.2 4030.44,-589.57 3386.88,-589.2 3150.71,-589.2"/>
<polygon fill="black" stroke="black" points="4241.46,-1011.48 4251.22,-1016.48 4246.79,-1011.75 4251.12,-1011.97 4251.12,-1011.97 4251.12,-1011.97 4246.79,-1011.75 4251.67,-1007.49 4241.46,-1011.48"/>
<text text-anchor="start" x="3887.76" y="-996" font-family="Arial" font-size="10.00">FOREIGN KEY (model_key, logic_key) REFERENCES logic(model_key, logic_key) ON DELETE CASCADE</text>
</g>
<!-- public.action_require -->
<g id="node13" class="node">
<title>public.action_require</title>
<polygon fill="#efefef" stroke="none" points="4742.76,-1012 4742.76,-1047.6 5034.69,-1047.6 5034.69,-1012 4742.76,-1012"/>
<polygon fill="none" stroke="black" points="4742.76,-1012 4742.76,-1047.6 5034.69,-1047.6 5034.69,-1012 4742.76,-1012"/>
<text text-anchor="start" x="4749.76" y="-1025.4" font-family="Arial Bold" font-size="18.00">public.action_require</text>
<text text-anchor="start" x="4903.2" y="-1025.4" font-family="Arial" font-size="14.00">    </text>
<text text-anchor="start" x="4934.32" y="-1025.4" font-family="Arial" font-size="14.00" fill="#666666">[BASE TABLE]</text>
<polygon fill="none" stroke="black" points="4742.76,-981.2 4742.76,-1012 5034.69,-1012 5034.69,-981.2 4742.76,-981.2"/>
<text text-anchor="start" x="4749.76" y="-993.4" font-family="Arial" font-size="14.00">model_key </text>
<text text-anchor="start" x="4821.35" y="-993.4" font-family="Arial" font-size="14.00" fill="#666666">[text]</text>
<polygon fill="none" stroke="black" points="4742.76,-950.4 4742.76,-981.2 5034.69,-981.2 5034.69,-950.4 4742.76,-950.4"/>
<text text-anchor="start" x="4749.76" y="-962.6" font-family="Arial" font-size="14.00">action_key </text>
<text text-anchor="start" x="4820.58" y="-962.6" font-family="Arial" font-size="14.00" fill="#666666">[text]</text>
<polygon fill="none" stroke="black" points="4742.76,-919.6 4742.76,-950.4 5034.69,-950.4 5034.69,-919.6 4742.76,-919.6"/>
<text text-anchor="start" x="4749.76" y="-931.8" font-family="Arial" font-size="14.00">logic_key </text>
<text text-anchor="start" x="4812.02" y="-931.8" font-family="Arial" font-size="14.00" fill="#666666">[text]</text>
</g>
<!-- public.action_require&#45;&gt;public.logic -->
<g id="edge12" class="edge">
<title>public.action_require:model_key&#45;&gt;public.logic:model_key</title>
<path fill="none" stroke="black" d="M4731.57,-996.05C4640.38,-985.46 4769.99,-824.87 4690.73,-753.2 4563.08,-637.79 3322.79,-589.2 3150.71,-589.2"/>
<polygon fill="black" stroke="black" points="4731.44,-996.04 4741.18,-1001.08 4736.77,-996.33 4741.09,-996.56 4741.09,-996.56 4741.09,-996.56 4736.77,-996.33 4741.67,-992.09 4731.44,-996.04"/>
<text text-anchor="start" x="4748.76" y="-1006.6" font-family="Arial" font-size="10.00">FOREIGN KEY (model_key, logic_key) REFERENCES logic(model_key, logic_key) ON DELETE CASCADE</text>
</g>
<!-- public.action_guarantee -->
<g id="node14" class="node">
<title>public.action_guarantee</title>
<polygon fill="#efefef" stroke="none" points="5139.27,-1012 5139.27,-1047.6 5450.18,-1047.6 5450.18,-1012 5139.27,-1012"/>
<polygon fill="none" stroke="black" points="5139.27,-1012 5139.27,-1047.6 5450.18,-1047.6 5450.18,-1012 5139.27,-1012"/>
<text text-anchor="start" x="5146.27" y="-1025.4" font-family="Arial Bold" font-size="18.00">public.action_guarantee</text>
<text text-anchor="start" x="5318.69" y="-1025.4" font-family="Arial" font-size="14.00">    </text>
<text text-anchor="start" x="5349.81" y="-1025.4" font-family="Arial" font-size="14.00" fill="#666666">[BASE TABLE]</text>
<polygon fill="none" stroke="black" points="5139.27,-981.2 5139.27,-1012 5450.18,-1012 5450.18,-981.2 5139.27,-981.2"/>
<text text-anchor="start" x="5146.27" y="-993.4" font-family="Arial" font-size="14.00">model_key </text>
<text text-anchor="start" x="5217.86" y="-993.4" font-family="Arial" font-size="14.00" fill="#666666">[text]</text>
<polygon fill="none" stroke="black" points="5139.27,-950.4 5139.27,-981.2 5450.18,-981.2 5450.18,-950.4 5139.27,-950.4"/>
<text text-anchor="start" x="5146.27" y="-962.6" font-family="Arial" font-size="14.00">action_key </text>
<text text-anchor="start" x="5217.09" y="-962.6" font-family="Arial" font-size="14.00" fill="#666666">[text]</text>
<polygon fill="none" stroke="black" points="5139.27,-919.6 5139.27,-950.4 5450.18,-950.4 5450.18,-919.6 5139.27,-919.6"/>
<text text-anchor="start" x="5146.27" y="-931.8" font-family="Arial" font-size="14.00">logic_key </text>
<text text-anchor="start" x="5208.52" y="-931.8" font-family="Arial" font-size="14.00" fill="#666666">[text]</text>
</g>
<!-- public.action_guarantee&#45;&gt;public.logic -->
<g id="edge13" class="edge">
<title>public.action_guarantee:model_key&#45;&gt;public.logic:model_key</title>
<path fill="none" stroke="black" d="M5128.07,-996.05C5036.87,-985.4 5166.86,-823.96 5086.73,-753.2 4924.9,-610.31 3366.59,-589.2 3150.71,-589.2"/>
<polygon fill="black" stroke="black" points="5127.95,-996.04 5137.69,-1001.08 5133.28,-996.33 5137.6,-996.56 5137.6,-996.56 5137.6,-996.56 5133.28,-996.33 5138.18,-992.09 5127.95,-996.04"/>
<text text-anchor="start" x="4650.57" y="-980.6" font-family="Arial" font-size="10.00">FOREIGN KEY (model_key, logic_key) REFERENCES logic(model_key, logic_key) ON DELETE CASCADE</text>
</g>
<!-- public.action_safety -->
<g id="node15" class="node">
<title>public.action_safety</title>
<polygon fill="#efefef" stroke="none" points="5554.76,-1012 5554.76,-1047.6 5838.69,-1047.6 5838.69,-1012 5554.76,-1012"/>
<polygon fill="none" stroke="black" points="5554.76,-1012 5554.76,-1047.6 5838.69,-1047.6 5838.69,-1012 5554.76,-1012"/>
<text text-anchor="start" x="5561.76" y="-1025.4" font-family="Arial Bold" font-size="18.00">public.action_safety</text>
<text text-anchor="start" x="5707.21" y="-1025.4" font-family="Arial" font-size="14.00">    </text>
<text text-anchor="start" x="5738.32" y="-1025.4" font-family="Arial" font-size="14.00" fill="#666666">[BASE TABLE]</text>
<polygon fill="none" stroke="black" points="5554.76,-981.2 5554.76,-1012 5838.69,-1012 5838.69,-981.2 5554.76,-981.2"/>
<text text-anchor="start" x="5561.76" y="-993.4" font-family="Arial" font-size="14.00">model_key </text>
<text text-anchor="start" x="5633.35" y="-993.4" font-family="Arial" font-size="14.00" fill="#666666">[text]</text>
<polygon fill="none" stroke="black" points="5554.76,-950.4 5554.76,-981.2 5838.69,-981.2 5838.69,-950.4 5554.76,-950.4"/>
<text text-anchor="start" x="5561.76" y="-962.6" font-family="Arial" font-size="14.00">action_key </text>
<text text-anchor="start" x="5632.58" y="-962.6" font-family="Arial" font-size="14.00" fill="#666666">[text]</text>
<polygon fill="none" stroke="black" points="5554.76,-919.6 5554.76,-950.4 5838.69,-950.4 5838.69,-919.6 5554.76,-919.6"/>
<text text-anchor="start" x="5561.76" y="-931.8" font-family="Arial" font-size="14.00">logic_key </text>
<text text-anchor="start" x="5624.01" y="-931.8" font-family="Arial" font-size="14.00" fill="#666666">[text]</text>
</g>
<!-- public.action_safety&#45;&gt;public.logic -->
<g id="edge14" class="edge">
<title>public.action_safety:model_key&#45;&gt;public.logic:model_key</title>
<path fill="none" stroke="black" d="M5543.57,-996.05C5452.46,-985.37 5583.28,-823.41 5502.73,-753.2 5403.98,-667.14 3281.7,-589.2 3150.71,-589.2"/>
<polygon fill="black" stroke="black" points="5543.44,-996.04 5553.18,-1001.08 5548.76,-996.33 5553.09,-996.56 5553.09,-996.56 5553.09,-996.56 5548.76,-996.33 5553.67,-992.09 5543.44,-996.04"/>
<text text-anchor="start" x="5560.76" y="-1006.6" font-family="Arial" font-size="10.00">FOREIGN KEY (model_key, logic_key) REFERENCES logic(model_key, logic_key) ON DELETE CASCADE</text>
</g>
</g>
</svg>
