<?xml version="1.0" encoding="UTF-8" standalone="no"?>
<!DOCTYPE svg PUBLIC "-//W3C//DTD SVG 1.1//EN"
 "http://www.w3.org/Graphics/SVG/1.1/DTD/svg11.dtd">
<!-- Generated by graphviz version 12.1.2 (20240928.0832)
 -->
<!-- Title: public.event Pages: 1 -->
<svg width="1361pt" height="1314pt"
 viewBox="0.00 0.00 1361.27 1314.40" xmlns="http://www.w3.org/2000/svg" xmlns:xlink="http://www.w3.org/1999/xlink">
<g id="graph0" class="graph" transform="scale(1 1) rotate(0) translate(4 1310.4)">
<title>public.event</title>
<polygon fill="white" stroke="none" points="-4,4 -4,-1310.4 1357.27,-1310.4 1357.27,4 -4,4"/>
<!-- public.event -->
<g id="node1" class="node">
<title>public.event</title>
<polygon fill="#efefef" stroke="none" points="623.96,-635.4 623.96,-671 850.92,-671 850.92,-635.4 623.96,-635.4"/>
<polygon fill="none" stroke="black" points="623.96,-635.4 623.96,-671 850.92,-671 850.92,-635.4 623.96,-635.4"/>
<text text-anchor="start" x="630.96" y="-648.8" font-family="Arial Bold" font-size="18.00">public.event</text>
<text text-anchor="start" x="719.43" y="-648.8" font-family="Arial" font-size="14.00">    </text>
<text text-anchor="start" x="750.55" y="-648.8" font-family="Arial" font-size="14.00" fill="#666666">[BASE TABLE]</text>
<polygon fill="none" stroke="black" points="623.96,-604.6 623.96,-635.4 850.92,-635.4 850.92,-604.6 623.96,-604.6"/>
<text text-anchor="start" x="630.96" y="-616.8" font-family="Arial" font-size="14.00">model_key </text>
<text text-anchor="start" x="702.55" y="-616.8" font-family="Arial" font-size="14.00" fill="#666666">[text]</text>
<polygon fill="none" stroke="black" points="623.96,-573.8 623.96,-604.6 850.92,-604.6 850.92,-573.8 623.96,-573.8"/>
<text text-anchor="start" x="630.96" y="-586" font-family="Arial" font-size="14.00">class_key </text>
<text text-anchor="start" x="696.32" y="-586" font-family="Arial" font-size="14.00" fill="#666666">[text]</text>
<polygon fill="none" stroke="black" points="623.96,-543 623.96,-573.8 850.92,-573.8 850.92,-543 623.96,-543"/>
<text text-anchor="start" x="630.96" y="-555.2" font-family="Arial" font-size="14.00">event_key </text>
<text text-anchor="start" x="698.67" y="-555.2" font-family="Arial" font-size="14.00" fill="#666666">[text]</text>
<polygon fill="none" stroke="black" points="623.96,-512.2 623.96,-543 850.92,-543 850.92,-512.2 623.96,-512.2"/>
<text text-anchor="start" x="630.96" y="-524.4" font-family="Arial" font-size="14.00">name </text>
<text text-anchor="start" x="669.87" y="-524.4" font-family="Arial" font-size="14.00" fill="#666666">[text]</text>
<polygon fill="none" stroke="black" points="623.96,-481.4 623.96,-512.2 850.92,-512.2 850.92,-481.4 623.96,-481.4"/>
<text text-anchor="start" x="630.96" y="-493.6" font-family="Arial" font-size="14.00">details </text>
<text text-anchor="start" x="675.32" y="-493.6" font-family="Arial" font-size="14.00" fill="#666666">[text]</text>
<polygon fill="none" stroke="black" stroke-width="3" points="622.46,-479.9 622.46,-672.5 852.42,-672.5 852.42,-479.9 622.46,-479.9"/>
</g>
<!-- public.class -->
<g id="node2" class="node">
<title>public.class</title>
<polygon fill="#efefef" stroke="none" points="625.95,-320.4 625.95,-356 848.92,-356 848.92,-320.4 625.95,-320.4"/>
<polygon fill="none" stroke="black" points="625.95,-320.4 625.95,-356 848.92,-356 848.92,-320.4 625.95,-320.4"/>
<text text-anchor="start" x="632.95" y="-333.8" font-family="Arial Bold" font-size="18.00">public.class</text>
<text text-anchor="start" x="717.43" y="-333.8" font-family="Arial" font-size="14.00">    </text>
<text text-anchor="start" x="748.55" y="-333.8" font-family="Arial" font-size="14.00" fill="#666666">[BASE TABLE]</text>
<polygon fill="none" stroke="black" points="625.95,-289.6 625.95,-320.4 848.92,-320.4 848.92,-289.6 625.95,-289.6"/>
<text text-anchor="start" x="632.95" y="-301.8" font-family="Arial" font-size="14.00">model_key </text>
<text text-anchor="start" x="704.55" y="-301.8" font-family="Arial" font-size="14.00" fill="#666666">[text]</text>
<polygon fill="none" stroke="black" points="625.95,-258.8 625.95,-289.6 848.92,-289.6 848.92,-258.8 625.95,-258.8"/>
<text text-anchor="start" x="632.95" y="-271" font-family="Arial" font-size="14.00">class_key </text>
<text text-anchor="start" x="698.31" y="-271" font-family="Arial" font-size="14.00" fill="#666666">[text]</text>
<polygon fill="none" stroke="black" points="625.95,-228 625.95,-258.8 848.92,-258.8 848.92,-228 625.95,-228"/>
<text text-anchor="start" x="632.95" y="-240.2" font-family="Arial" font-size="14.00">name </text>
<text text-anchor="start" x="671.86" y="-240.2" font-family="Arial" font-size="14.00" fill="#666666">[text]</text>
<polygon fill="none" stroke="black" points="625.95,-197.2 625.95,-228 848.92,-228 848.92,-197.2 625.95,-197.2"/>
<text text-anchor="start" x="632.95" y="-209.4" font-family="Arial" font-size="14.00">subdomain_key </text>
<text text-anchor="start" x="734.91" y="-209.4" font-family="Arial" font-size="14.00" fill="#666666">[text]</text>
<polygon fill="none" stroke="black" points="625.95,-166.4 625.95,-197.2 848.92,-197.2 848.92,-166.4 625.95,-166.4"/>
<text text-anchor="start" x="632.95" y="-178.6" font-family="Arial" font-size="14.00">actor_key </text>
<text text-anchor="start" x="697.54" y="-178.6" font-family="Arial" font-size="14.00" fill="#666666">[text]</text>
<polygon fill="none" stroke="black" points="625.95,-135.6 625.95,-166.4 848.92,-166.4 848.92,-135.6 625.95,-135.6"/>
<text text-anchor="start" x="632.95" y="-147.8" font-family="Arial" font-size="14.00">superclass_of_key </text>
<text text-anchor="start" x="752.79" y="-147.8" font-family="Arial" font-size="14.00" fill="#666666">[text]</text>
<polygon fill="none" stroke="black" points="625.95,-104.8 625.95,-135.6 848.92,-135.6 848.92,-104.8 625.95,-104.8"/>
<text text-anchor="start" x="632.95" y="-117" font-family="Arial" font-size="14.00">subclass_of_key </text>
<text text-anchor="start" x="740.35" y="-117" font-family="Arial" font-size="14.00" fill="#666666">[text]</text>
<polygon fill="none" stroke="black" points="625.95,-74 625.95,-104.8 848.92,-104.8 848.92,-74 625.95,-74"/>
<text text-anchor="start" x="632.95" y="-86.2" font-family="Arial" font-size="14.00">details </text>
<text text-anchor="start" x="677.31" y="-86.2" font-family="Arial" font-size="14.00" fill="#666666">[text]</text>
<polygon fill="none" stroke="black" points="625.95,-43.2 625.95,-74 848.92,-74 848.92,-43.2 625.95,-43.2"/>
<text text-anchor="start" x="632.95" y="-55.4" font-family="Arial" font-size="14.00">uml_comment </text>
<text text-anchor="start" x="724.76" y="-55.4" font-family="Arial" font-size="14.00" fill="#666666">[text]</text>
</g>
<!-- public.event&#45;&gt;public.class -->
<g id="edge1" class="edge">
<title>public.event:model_key&#45;&gt;public.class:model_key</title>
<path fill="none" stroke="black" d="M862.31,-619.4C991.73,-604.21 986.37,-305 849.92,-305"/>
<polygon fill="black" stroke="black" points="862.24,-619.41 851.99,-615.49 856.91,-619.71 852.59,-619.96 852.59,-619.96 852.59,-619.96 856.91,-619.71 852.51,-624.47 862.24,-619.41"/>
<text text-anchor="start" x="858.92" y="-630" font-family="Arial" font-size="10.00">FOREIGN KEY (model_key, class_key) REFERENCES class(model_key, class_key) ON DELETE CASCADE</text>
</g>
<!-- public.event_parameter -->
<g id="node3" class="node">
<title>public.event_parameter</title>
<polygon fill="#efefef" stroke="none" points="197.49,-1119.8 197.49,-1155.4 505.39,-1155.4 505.39,-1119.8 197.49,-1119.8"/>
<polygon fill="none" stroke="black" points="197.49,-1119.8 197.49,-1155.4 505.39,-1155.4 505.39,-1119.8 197.49,-1119.8"/>
<text text-anchor="start" x="204.49" y="-1133.2" font-family="Arial Bold" font-size="18.00">public.event_parameter</text>
<text text-anchor="start" x="373.9" y="-1133.2" font-family="Arial" font-size="14.00">    </text>
<text text-anchor="start" x="405.02" y="-1133.2" font-family="Arial" font-size="14.00" fill="#666666">[BASE TABLE]</text>
<polygon fill="none" stroke="black" points="197.49,-1089 197.49,-1119.8 505.39,-1119.8 505.39,-1089 197.49,-1089"/>
<text text-anchor="start" x="204.49" y="-1101.2" font-family="Arial" font-size="14.00">model_key </text>
<text text-anchor="start" x="276.08" y="-1101.2" font-family="Arial" font-size="14.00" fill="#666666">[text]</text>
<polygon fill="none" stroke="black" points="197.49,-1058.2 197.49,-1089 505.39,-1089 505.39,-1058.2 197.49,-1058.2"/>
<text text-anchor="start" x="204.49" y="-1070.4" font-family="Arial" font-size="14.00">event_key </text>
<text text-anchor="start" x="272.2" y="-1070.4" font-family="Arial" font-size="14.00" fill="#666666">[text]</text>
<polygon fill="none" stroke="black" points="197.49,-1027.4 197.49,-1058.2 505.39,-1058.2 505.39,-1027.4 197.49,-1027.4"/>
<text text-anchor="start" x="204.49" y="-1039.6" font-family="Arial" font-size="14.00">parameter_key </text>
<text text-anchor="start" x="301.75" y="-1039.6" font-family="Arial" font-size="14.00" fill="#666666">[text]</text>
<polygon fill="none" stroke="black" points="197.49,-996.6 197.49,-1027.4 505.39,-1027.4 505.39,-996.6 197.49,-996.6"/>
<text text-anchor="start" x="204.49" y="-1008.8" font-family="Arial" font-size="14.00">name </text>
<text text-anchor="start" x="243.4" y="-1008.8" font-family="Arial" font-size="14.00" fill="#666666">[text]</text>
<polygon fill="none" stroke="black" points="197.49,-965.8 197.49,-996.6 505.39,-996.6 505.39,-965.8 197.49,-965.8"/>
<text text-anchor="start" x="204.49" y="-978" font-family="Arial" font-size="14.00">sort_order </text>
<text text-anchor="start" x="272.18" y="-978" font-family="Arial" font-size="14.00" fill="#666666">[integer]</text>
<polygon fill="none" stroke="black" points="197.49,-935 197.49,-965.8 505.39,-965.8 505.39,-935 197.49,-935"/>
<text text-anchor="start" x="204.49" y="-947.2" font-family="Arial" font-size="14.00">data_type_rules </text>
<text text-anchor="start" x="308" y="-947.2" font-family="Arial" font-size="14.00" fill="#666666">[text]</text>
<polygon fill="none" stroke="black" points="197.49,-904.2 197.49,-935 505.39,-935 505.39,-904.2 197.49,-904.2"/>
<text text-anchor="start" x="204.49" y="-916.4" font-family="Arial" font-size="14.00">data_type_key </text>
<text text-anchor="start" x="299.44" y="-916.4" font-family="Arial" font-size="14.00" fill="#666666">[text]</text>
</g>
<!-- public.event_parameter&#45;&gt;public.event -->
<g id="edge2" class="edge">
<title>public.event_parameter:model_key&#45;&gt;public.event:model_key</title>
<path fill="none" stroke="black" d="M516.65,-1102.63C580.62,-1078.98 535.17,-824.99 557.44,-753.2 576.98,-690.19 556.98,-620 622.96,-620"/>
<polygon fill="black" stroke="black" points="516.58,-1102.64 505.96,-1099.91 511.32,-1103.55 507.05,-1104.29 507.05,-1104.29 507.05,-1104.29 511.32,-1103.55 507.49,-1108.78 516.58,-1102.64"/>
<text text-anchor="start" x="7" y="-1114.4" font-family="Arial" font-size="10.00">FOREIGN KEY (model_key, event_key) REFERENCES event(model_key, event_key) ON DELETE CASCADE</text>
</g>
<!-- public.transition -->
<g id="node4" class="node">
<title>public.transition</title>
<polygon fill="#efefef" stroke="none" points="609.45,-1150.6 609.45,-1186.2 865.43,-1186.2 865.43,-1150.6 609.45,-1150.6"/>
<polygon fill="none" stroke="black" points="609.45,-1150.6 609.45,-1186.2 865.43,-1186.2 865.43,-1150.6 609.45,-1150.6"/>
<text text-anchor="start" x="616.45" y="-1164" font-family="Arial Bold" font-size="18.00">public.transition</text>
<text text-anchor="start" x="733.94" y="-1164" font-family="Arial" font-size="14.00">    </text>
<text text-anchor="start" x="765.05" y="-1164" font-family="Arial" font-size="14.00" fill="#666666">[BASE TABLE]</text>
<polygon fill="none" stroke="black" points="609.45,-1119.8 609.45,-1150.6 865.43,-1150.6 865.43,-1119.8 609.45,-1119.8"/>
<text text-anchor="start" x="616.45" y="-1132" font-family="Arial" font-size="14.00">model_key </text>
<text text-anchor="start" x="688.05" y="-1132" font-family="Arial" font-size="14.00" fill="#666666">[text]</text>
<polygon fill="none" stroke="black" points="609.45,-1089 609.45,-1119.8 865.43,-1119.8 865.43,-1089 609.45,-1089"/>
<text text-anchor="start" x="616.45" y="-1101.2" font-family="Arial" font-size="14.00">class_key </text>
<text text-anchor="start" x="681.81" y="-1101.2" font-family="Arial" font-size="14.00" fill="#666666">[text]</text>
<polygon fill="none" stroke="black" points="609.45,-1058.2 609.45,-1089 865.43,-1089 865.43,-1058.2 609.45,-1058.2"/>
<text text-anchor="start" x="616.45" y="-1070.4" font-family="Arial" font-size="14.00">transition_key </text>
<text text-anchor="start" x="706.72" y="-1070.4" font-family="Arial" font-size="14.00" fill="#666666">[text]</text>
<polygon fill="none" stroke="black" points="609.45,-1027.4 609.45,-1058.2 865.43,-1058.2 865.43,-1027.4 609.45,-1027.4"/>
<text text-anchor="start" x="616.45" y="-1039.6" font-family="Arial" font-size="14.00">from_state_key </text>
<text text-anchor="start" x="716.05" y="-1039.6" font-family="Arial" font-size="14.00" fill="#666666">[text]</text>
<polygon fill="none" stroke="black" points="609.45,-996.6 609.45,-1027.4 865.43,-1027.4 865.43,-996.6 609.45,-996.6"/>
<text text-anchor="start" x="616.45" y="-1008.8" font-family="Arial" font-size="14.00">event_key </text>
<text text-anchor="start" x="684.16" y="-1008.8" font-family="Arial" font-size="14.00" fill="#666666">[text]</text>
<polygon fill="none" stroke="black" points="609.45,-965.8 609.45,-996.6 865.43,-996.6 865.43,-965.8 609.45,-965.8"/>
<text text-anchor="start" x="616.45" y="-978" font-family="Arial" font-size="14.00">guard_key </text>
<text text-anchor="start" x="685.72" y="-978" font-family="Arial" font-size="14.00" fill="#666666">[text]</text>
<polygon fill="none" stroke="black" points="609.45,-935 609.45,-965.8 865.43,-965.8 865.43,-935 609.45,-935"/>
<text text-anchor="start" x="616.45" y="-947.2" font-family="Arial" font-size="14.00">action_key </text>
<text text-anchor="start" x="687.27" y="-947.2" font-family="Arial" font-size="14.00" fill="#666666">[text]</text>
<polygon fill="none" stroke="black" points="609.45,-904.2 609.45,-935 865.43,-935 865.43,-904.2 609.45,-904.2"/>
<text text-anchor="start" x="616.45" y="-916.4" font-family="Arial" font-size="14.00">to_state_key </text>
<text text-anchor="start" x="699.73" y="-916.4" font-family="Arial" font-size="14.00" fill="#666666">[text]</text>
<polygon fill="none" stroke="black" points="609.45,-873.4 609.45,-904.2 865.43,-904.2 865.43,-873.4 609.45,-873.4"/>
<text text-anchor="start" x="616.45" y="-885.6" font-family="Arial" font-size="14.00">uml_comment </text>
<text text-anchor="start" x="708.26" y="-885.6" font-family="Arial" font-size="14.00" fill="#666666">[text]</text>
</g>
<!-- public.transition&#45;&gt;public.event -->
<g id="edge3" class="edge">
<title>public.transition:model_key&#45;&gt;public.event:model_key</title>
<path fill="none" stroke="black" d="M875.47,-1130.43C921.91,-1078.49 905.94,-620 851.92,-620"/>
<polygon fill="black" stroke="black" points="875.57,-1130.38 864.62,-1131.06 870.85,-1132.87 867.02,-1134.89 867.02,-1134.89 867.02,-1134.89 870.85,-1132.87 868.82,-1139.02 875.57,-1130.38"/>
<text text-anchor="start" x="367.03" y="-1145.2" font-family="Arial" font-size="10.00">FOREIGN KEY (model_key, event_key) REFERENCES event(model_key, event_key) ON DELETE CASCADE</text>
</g>
<!-- public.scenario_step -->
<g id="node5" class="node">
<title>public.scenario_step</title>
<polygon fill="#efefef" stroke="none" points="969.47,-1227.6 969.47,-1263.2 1255.41,-1263.2 1255.41,-1227.6 969.47,-1227.6"/>
<polygon fill="none" stroke="black" points="969.47,-1227.6 969.47,-1263.2 1255.41,-1263.2 1255.41,-1227.6 969.47,-1227.6"/>
<text text-anchor="start" x="976.47" y="-1241" font-family="Arial Bold" font-size="18.00">public.scenario_step</text>
<text text-anchor="start" x="1123.92" y="-1241" font-family="Arial" font-size="14.00">    </text>
<text text-anchor="start" x="1155.04" y="-1241" font-family="Arial" font-size="14.00" fill="#666666">[BASE TABLE]</text>
<polygon fill="none" stroke="black" points="969.47,-1196.8 969.47,-1227.6 1255.41,-1227.6 1255.41,-1196.8 969.47,-1196.8"/>
<text text-anchor="start" x="976.47" y="-1209" font-family="Arial" font-size="14.00">model_key </text>
<text text-anchor="start" x="1048.06" y="-1209" font-family="Arial" font-size="14.00" fill="#666666">[text]</text>
<polygon fill="none" stroke="black" points="969.47,-1166 969.47,-1196.8 1255.41,-1196.8 1255.41,-1166 969.47,-1166"/>
<text text-anchor="start" x="976.47" y="-1178.2" font-family="Arial" font-size="14.00">scenario_step_key </text>
<text text-anchor="start" x="1097.09" y="-1178.2" font-family="Arial" font-size="14.00" fill="#666666">[text]</text>
<polygon fill="none" stroke="black" points="969.47,-1135.2 969.47,-1166 1255.41,-1166 1255.41,-1135.2 969.47,-1135.2"/>
<text text-anchor="start" x="976.47" y="-1147.4" font-family="Arial" font-size="14.00">scenario_key </text>
<text text-anchor="start" x="1062.85" y="-1147.4" font-family="Arial" font-size="14.00" fill="#666666">[text]</text>
<polygon fill="none" stroke="black" points="969.47,-1104.4 969.47,-1135.2 1255.41,-1135.2 1255.41,-1104.4 969.47,-1104.4"/>
<text text-anchor="start" x="976.47" y="-1116.6" font-family="Arial" font-size="14.00">parent_step_key </text>
<text text-anchor="start" x="1083.87" y="-1116.6" font-family="Arial" font-size="14.00" fill="#666666">[text]</text>
<polygon fill="none" stroke="black" points="969.47,-1073.6 969.47,-1104.4 1255.41,-1104.4 1255.41,-1073.6 969.47,-1073.6"/>
<text text-anchor="start" x="976.47" y="-1085.8" font-family="Arial" font-size="14.00">sort_order </text>
<text text-anchor="start" x="1044.16" y="-1085.8" font-family="Arial" font-size="14.00" fill="#666666">[integer]</text>
<polygon fill="none" stroke="black" points="969.47,-1042.8 969.47,-1073.6 1255.41,-1073.6 1255.41,-1042.8 969.47,-1042.8"/>
<text text-anchor="start" x="976.47" y="-1055" font-family="Arial" font-size="14.00">step_type </text>
<text text-anchor="start" x="1041.07" y="-1055" font-family="Arial" font-size="14.00" fill="#666666">[step_type]</text>
<polygon fill="none" stroke="black" points="969.47,-1012 969.47,-1042.8 1255.41,-1042.8 1255.41,-1012 969.47,-1012"/>
<text text-anchor="start" x="976.47" y="-1024.2" font-family="Arial" font-size="14.00">leaf_type </text>
<text text-anchor="start" x="1037.18" y="-1024.2" font-family="Arial" font-size="14.00" fill="#666666">[leaf_type]</text>
<polygon fill="none" stroke="black" points="969.47,-981.2 969.47,-1012 1255.41,-1012 1255.41,-981.2 969.47,-981.2"/>
<text text-anchor="start" x="976.47" y="-993.4" font-family="Arial" font-size="14.00">condition </text>
<text text-anchor="start" x="1036.4" y="-993.4" font-family="Arial" font-size="14.00" fill="#666666">[text]</text>
<polygon fill="none" stroke="black" points="969.47,-950.4 969.47,-981.2 1255.41,-981.2 1255.41,-950.4 969.47,-950.4"/>
<text text-anchor="start" x="976.47" y="-962.6" font-family="Arial" font-size="14.00">description </text>
<text text-anchor="start" x="1048.06" y="-962.6" font-family="Arial" font-size="14.00" fill="#666666">[text]</text>
<polygon fill="none" stroke="black" points="969.47,-919.6 969.47,-950.4 1255.41,-950.4 1255.41,-919.6 969.47,-919.6"/>
<text text-anchor="start" x="976.47" y="-931.8" font-family="Arial" font-size="14.00">from_object_key </text>
<text text-anchor="start" x="1083.07" y="-931.8" font-family="Arial" font-size="14.00" fill="#666666">[text]</text>
<polygon fill="none" stroke="black" points="969.47,-888.8 969.47,-919.6 1255.41,-919.6 1255.41,-888.8 969.47,-888.8"/>
<text text-anchor="start" x="976.47" y="-901" font-family="Arial" font-size="14.00">to_object_key </text>
<text text-anchor="start" x="1066.75" y="-901" font-family="Arial" font-size="14.00" fill="#666666">[text]</text>
<polygon fill="none" stroke="black" points="969.47,-858 969.47,-888.8 1255.41,-888.8 1255.41,-858 969.47,-858"/>
<text text-anchor="start" x="976.47" y="-870.2" font-family="Arial" font-size="14.00">event_key </text>
<text text-anchor="start" x="1044.18" y="-870.2" font-family="Arial" font-size="14.00" fill="#666666">[text]</text>
<polygon fill="none" stroke="black" points="969.47,-827.2 969.47,-858 1255.41,-858 1255.41,-827.2 969.47,-827.2"/>
<text text-anchor="start" x="976.47" y="-839.4" font-family="Arial" font-size="14.00">query_key </text>
<text text-anchor="start" x="1044.95" y="-839.4" font-family="Arial" font-size="14.00" fill="#666666">[text]</text>
<polygon fill="none" stroke="black" points="969.47,-796.4 969.47,-827.2 1255.41,-827.2 1255.41,-796.4 969.47,-796.4"/>
<text text-anchor="start" x="976.47" y="-808.6" font-family="Arial" font-size="14.00">scenario_ref_key </text>
<text text-anchor="start" x="1086.97" y="-808.6" font-family="Arial" font-size="14.00" fill="#666666">[text]</text>
</g>
<!-- public.scenario_step&#45;&gt;public.event -->
<g id="edge4" class="edge">
<title>public.scenario_step:model_key&#45;&gt;public.event:model_key</title>
<path fill="none" stroke="black" d="M959.34,-1207.3C918.92,-1160.88 930.89,-799.28 917.44,-753.2 898.96,-689.87 917.89,-620 851.92,-620"/>
<polygon fill="black" stroke="black" points="959.36,-1207.31 966.04,-1216.01 964.06,-1209.83 967.88,-1211.88 967.88,-1211.88 967.88,-1211.88 964.06,-1209.83 970.3,-1208.08 959.36,-1207.31"/>
<text text-anchor="start" x="469.07" y="-1222.2" font-family="Arial" font-size="10.00">FOREIGN KEY (model_key, event_key) REFERENCES event(model_key, event_key) ON DELETE CASCADE</text>
</g>
</g>
</svg>
