<?xml version="1.0" encoding="UTF-8" standalone="no"?>
<!DOCTYPE svg PUBLIC "-//W3C//DTD SVG 1.1//EN"
 "http://www.w3.org/Graphics/SVG/1.1/DTD/svg11.dtd">
<!-- Generated by graphviz version 12.1.2 (20240928.0832)
 -->
<!-- Title: public.generalization Pages: 1 -->
<svg width="1704pt" height="1068pt"
 viewBox="0.00 0.00 1704.42 1068.00" xmlns="http://www.w3.org/2000/svg" xmlns:xlink="http://www.w3.org/1999/xlink">
<g id="graph0" class="graph" transform="scale(1 1) rotate(0) translate(4 1064)">
<title>public.generalization</title>
<polygon fill="white" stroke="none" points="-4,4 -4,-1064 1700.42,-1064 1700.42,4 -4,4"/>
<!-- public.generalization -->
<g id="node1" class="node">
<title>public.generalization</title>
<polygon fill="#efefef" stroke="none" points="702.98,-512.2 702.98,-547.8 992.9,-547.8 992.9,-512.2 702.98,-512.2"/>
<polygon fill="none" stroke="black" points="702.98,-512.2 702.98,-547.8 992.9,-547.8 992.9,-512.2 702.98,-512.2"/>
<text text-anchor="start" x="709.98" y="-525.6" font-family="Arial Bold" font-size="18.00">public.generalization</text>
<text text-anchor="start" x="861.41" y="-525.6" font-family="Arial" font-size="14.00">    </text>
<text text-anchor="start" x="892.53" y="-525.6" font-family="Arial" font-size="14.00" fill="#666666">[BASE TABLE]</text>
<polygon fill="none" stroke="black" points="702.98,-481.4 702.98,-512.2 992.9,-512.2 992.9,-481.4 702.98,-481.4"/>
<text text-anchor="start" x="709.98" y="-493.6" font-family="Arial" font-size="14.00">model_key </text>
<text text-anchor="start" x="781.57" y="-493.6" font-family="Arial" font-size="14.00" fill="#666666">[text]</text>
<polygon fill="none" stroke="black" points="702.98,-450.6 702.98,-481.4 992.9,-481.4 992.9,-450.6 702.98,-450.6"/>
<text text-anchor="start" x="709.98" y="-462.8" font-family="Arial" font-size="14.00">generalization_key </text>
<text text-anchor="start" x="830.61" y="-462.8" font-family="Arial" font-size="14.00" fill="#666666">[text]</text>
<polygon fill="none" stroke="black" points="702.98,-419.8 702.98,-450.6 992.9,-450.6 992.9,-419.8 702.98,-419.8"/>
<text text-anchor="start" x="709.98" y="-432" font-family="Arial" font-size="14.00">name </text>
<text text-anchor="start" x="748.89" y="-432" font-family="Arial" font-size="14.00" fill="#666666">[text]</text>
<polygon fill="none" stroke="black" points="702.98,-389 702.98,-419.8 992.9,-419.8 992.9,-389 702.98,-389"/>
<text text-anchor="start" x="709.98" y="-401.2" font-family="Arial" font-size="14.00">is_complete </text>
<text text-anchor="start" x="788.57" y="-401.2" font-family="Arial" font-size="14.00" fill="#666666">[boolean]</text>
<polygon fill="none" stroke="black" points="702.98,-358.2 702.98,-389 992.9,-389 992.9,-358.2 702.98,-358.2"/>
<text text-anchor="start" x="709.98" y="-370.4" font-family="Arial" font-size="14.00">is_static </text>
<text text-anchor="start" x="764.44" y="-370.4" font-family="Arial" font-size="14.00" fill="#666666">[boolean]</text>
<polygon fill="none" stroke="black" points="702.98,-327.4 702.98,-358.2 992.9,-358.2 992.9,-327.4 702.98,-327.4"/>
<text text-anchor="start" x="709.98" y="-339.6" font-family="Arial" font-size="14.00">details </text>
<text text-anchor="start" x="754.34" y="-339.6" font-family="Arial" font-size="14.00" fill="#666666">[text]</text>
<polygon fill="none" stroke="black" points="702.98,-296.6 702.98,-327.4 992.9,-327.4 992.9,-296.6 702.98,-296.6"/>
<text text-anchor="start" x="709.98" y="-308.8" font-family="Arial" font-size="14.00">uml_comment </text>
<text text-anchor="start" x="801.79" y="-308.8" font-family="Arial" font-size="14.00" fill="#666666">[text]</text>
<polygon fill="none" stroke="black" stroke-width="3" points="701.48,-295.1 701.48,-549.3 994.4,-549.3 994.4,-295.1 701.48,-295.1"/>
</g>
<!-- public.model -->
<g id="node2" class="node">
<title>public.model</title>
<polygon fill="#efefef" stroke="none" points="731.46,-135.6 731.46,-171.2 964.43,-171.2 964.43,-135.6 731.46,-135.6"/>
<polygon fill="none" stroke="black" points="731.46,-135.6 731.46,-171.2 964.43,-171.2 964.43,-135.6 731.46,-135.6"/>
<text text-anchor="start" x="738.46" y="-149" font-family="Arial Bold" font-size="18.00">public.model</text>
<text text-anchor="start" x="832.94" y="-149" font-family="Arial" font-size="14.00">    </text>
<text text-anchor="start" x="864.05" y="-149" font-family="Arial" font-size="14.00" fill="#666666">[BASE TABLE]</text>
<polygon fill="none" stroke="black" points="731.46,-104.8 731.46,-135.6 964.43,-135.6 964.43,-104.8 731.46,-104.8"/>
<text text-anchor="start" x="738.46" y="-117" font-family="Arial" font-size="14.00">model_key </text>
<text text-anchor="start" x="810.05" y="-117" font-family="Arial" font-size="14.00" fill="#666666">[text]</text>
<polygon fill="none" stroke="black" points="731.46,-74 731.46,-104.8 964.43,-104.8 964.43,-74 731.46,-74"/>
<text text-anchor="start" x="738.46" y="-86.2" font-family="Arial" font-size="14.00">name </text>
<text text-anchor="start" x="777.37" y="-86.2" font-family="Arial" font-size="14.00" fill="#666666">[text]</text>
<polygon fill="none" stroke="black" points="731.46,-43.2 731.46,-74 964.43,-74 964.43,-43.2 731.46,-43.2"/>
<text text-anchor="start" x="738.46" y="-55.4" font-family="Arial" font-size="14.00">details </text>
<text text-anchor="start" x="782.81" y="-55.4" font-family="Arial" font-size="14.00" fill="#666666">[text]</text>
</g>
<!-- public.generalization&#45;&gt;public.model -->
<g id="edge1" class="edge">
<title>public.generalization:model_key&#45;&gt;public.model:model_key</title>
<path fill="none" stroke="black" d="M1003.98,-496.33C1160.53,-481.51 1129.84,-120.2 965.43,-120.2"/>
<polygon fill="black" stroke="black" points="1004.23,-496.32 994.03,-492.29 998.9,-496.57 994.57,-496.77 994.57,-496.77 994.57,-496.77 998.9,-496.57 994.45,-501.28 1004.23,-496.32"/>
<text text-anchor="start" x="1000.9" y="-506.8" font-family="Arial" font-size="10.00">FOREIGN KEY (model_key) REFERENCES model(model_key) ON DELETE CASCADE</text>
</g>
<!-- public.actor -->
<g id="node3" class="node">
<title>public.actor</title>
<polygon fill="#efefef" stroke="none" points="393.96,-950.4 393.96,-986 617.92,-986 617.92,-950.4 393.96,-950.4"/>
<polygon fill="none" stroke="black" points="393.96,-950.4 393.96,-986 617.92,-986 617.92,-950.4 393.96,-950.4"/>
<text text-anchor="start" x="400.96" y="-963.8" font-family="Arial Bold" font-size="18.00">public.actor</text>
<text text-anchor="start" x="486.43" y="-963.8" font-family="Arial" font-size="14.00">    </text>
<text text-anchor="start" x="517.55" y="-963.8" font-family="Arial" font-size="14.00" fill="#666666">[BASE TABLE]</text>
<polygon fill="none" stroke="black" points="393.96,-919.6 393.96,-950.4 617.92,-950.4 617.92,-919.6 393.96,-919.6"/>
<text text-anchor="start" x="400.96" y="-931.8" font-family="Arial" font-size="14.00">model_key </text>
<text text-anchor="start" x="472.56" y="-931.8" font-family="Arial" font-size="14.00" fill="#666666">[text]</text>
<polygon fill="none" stroke="black" points="393.96,-888.8 393.96,-919.6 617.92,-919.6 617.92,-888.8 393.96,-888.8"/>
<text text-anchor="start" x="400.96" y="-901" font-family="Arial" font-size="14.00">actor_key </text>
<text text-anchor="start" x="465.55" y="-901" font-family="Arial" font-size="14.00" fill="#666666">[text]</text>
<polygon fill="none" stroke="black" points="393.96,-858 393.96,-888.8 617.92,-888.8 617.92,-858 393.96,-858"/>
<text text-anchor="start" x="400.96" y="-870.2" font-family="Arial" font-size="14.00">name </text>
<text text-anchor="start" x="439.87" y="-870.2" font-family="Arial" font-size="14.00" fill="#666666">[text]</text>
<polygon fill="none" stroke="black" points="393.96,-827.2 393.96,-858 617.92,-858 617.92,-827.2 393.96,-827.2"/>
<text text-anchor="start" x="400.96" y="-839.4" font-family="Arial" font-size="14.00">details </text>
<text text-anchor="start" x="445.32" y="-839.4" font-family="Arial" font-size="14.00" fill="#666666">[text]</text>
<polygon fill="none" stroke="black" points="393.96,-796.4 393.96,-827.2 617.92,-827.2 617.92,-796.4 393.96,-796.4"/>
<text text-anchor="start" x="400.96" y="-808.6" font-family="Arial" font-size="14.00">actor_type </text>
<text text-anchor="start" x="470.23" y="-808.6" font-family="Arial" font-size="14.00" fill="#666666">[actor_type]</text>
<polygon fill="none" stroke="black" points="393.96,-765.6 393.96,-796.4 617.92,-796.4 617.92,-765.6 393.96,-765.6"/>
<text text-anchor="start" x="400.96" y="-777.8" font-family="Arial" font-size="14.00">superclass_of_key </text>
<text text-anchor="start" x="520.8" y="-777.8" font-family="Arial" font-size="14.00" fill="#666666">[text]</text>
<polygon fill="none" stroke="black" points="393.96,-734.8 393.96,-765.6 617.92,-765.6 617.92,-734.8 393.96,-734.8"/>
<text text-anchor="start" x="400.96" y="-747" font-family="Arial" font-size="14.00">subclass_of_key </text>
<text text-anchor="start" x="508.36" y="-747" font-family="Arial" font-size="14.00" fill="#666666">[text]</text>
<polygon fill="none" stroke="black" points="393.96,-704 393.96,-734.8 617.92,-734.8 617.92,-704 393.96,-704"/>
<text text-anchor="start" x="400.96" y="-716.2" font-family="Arial" font-size="14.00">uml_comment </text>
<text text-anchor="start" x="492.77" y="-716.2" font-family="Arial" font-size="14.00" fill="#666666">[text]</text>
</g>
<!-- public.actor&#45;&gt;public.generalization -->
<g id="edge2" class="edge">
<title>public.actor:model_key&#45;&gt;public.generalization:model_key</title>
<path fill="none" stroke="black" d="M629,-932.85C699.96,-899.79 598.3,-496.8 701.98,-496.8"/>
<polygon fill="black" stroke="black" points="629.03,-932.84 618.31,-930.53 623.81,-933.96 619.57,-934.86 619.57,-934.86 619.57,-934.86 623.81,-933.96 620.18,-939.33 629.03,-932.84"/>
<text text-anchor="start" x="15.58" y="-945" font-family="Arial" font-size="10.00">FOREIGN KEY (model_key, subclass_of_key) REFERENCES generalization(model_key, generalization_key) ON DELETE CASCADE</text>
</g>
<!-- public.actor&#45;&gt;public.generalization -->
<g id="edge3" class="edge">
<title>public.actor:model_key&#45;&gt;public.generalization:model_key</title>
<path fill="none" stroke="black" d="M629.49,-933.42C719.11,-904.82 615.24,-497.62 701.72,-496.8"/>
<polygon fill="black" stroke="black" points="629.45,-933.43 618.88,-930.5 624.18,-934.24 619.9,-934.9 619.9,-934.9 619.9,-934.9 624.18,-934.24 620.25,-939.4 629.45,-933.43"/>
<text text-anchor="start" x="7" y="-919" font-family="Arial" font-size="10.00">FOREIGN KEY (model_key, superclass_of_key) REFERENCES generalization(model_key, generalization_key) ON DELETE CASCADE</text>
</g>
<!-- public.use_case -->
<g id="node4" class="node">
<title>public.use_case</title>
<polygon fill="#efefef" stroke="none" points="721.97,-981.2 721.97,-1016.8 973.91,-1016.8 973.91,-981.2 721.97,-981.2"/>
<polygon fill="none" stroke="black" points="721.97,-981.2 721.97,-1016.8 973.91,-1016.8 973.91,-981.2 721.97,-981.2"/>
<text text-anchor="start" x="728.97" y="-994.6" font-family="Arial Bold" font-size="18.00">public.use_case</text>
<text text-anchor="start" x="842.43" y="-994.6" font-family="Arial" font-size="14.00">    </text>
<text text-anchor="start" x="873.54" y="-994.6" font-family="Arial" font-size="14.00" fill="#666666">[BASE TABLE]</text>
<polygon fill="none" stroke="black" points="721.97,-950.4 721.97,-981.2 973.91,-981.2 973.91,-950.4 721.97,-950.4"/>
<text text-anchor="start" x="728.97" y="-962.6" font-family="Arial" font-size="14.00">model_key </text>
<text text-anchor="start" x="800.56" y="-962.6" font-family="Arial" font-size="14.00" fill="#666666">[text]</text>
<polygon fill="none" stroke="black" points="721.97,-919.6 721.97,-950.4 973.91,-950.4 973.91,-919.6 721.97,-919.6"/>
<text text-anchor="start" x="728.97" y="-931.8" font-family="Arial" font-size="14.00">use_case_key </text>
<text text-anchor="start" x="822.36" y="-931.8" font-family="Arial" font-size="14.00" fill="#666666">[text]</text>
<polygon fill="none" stroke="black" points="721.97,-888.8 721.97,-919.6 973.91,-919.6 973.91,-888.8 721.97,-888.8"/>
<text text-anchor="start" x="728.97" y="-901" font-family="Arial" font-size="14.00">name </text>
<text text-anchor="start" x="767.88" y="-901" font-family="Arial" font-size="14.00" fill="#666666">[text]</text>
<polygon fill="none" stroke="black" points="721.97,-858 721.97,-888.8 973.91,-888.8 973.91,-858 721.97,-858"/>
<text text-anchor="start" x="728.97" y="-870.2" font-family="Arial" font-size="14.00">details </text>
<text text-anchor="start" x="773.33" y="-870.2" font-family="Arial" font-size="14.00" fill="#666666">[text]</text>
<polygon fill="none" stroke="black" points="721.97,-827.2 721.97,-858 973.91,-858 973.91,-827.2 721.97,-827.2"/>
<text text-anchor="start" x="728.97" y="-839.4" font-family="Arial" font-size="14.00">level </text>
<text text-anchor="start" x="761.65" y="-839.4" font-family="Arial" font-size="14.00" fill="#666666">[use_case_level]</text>
<polygon fill="none" stroke="black" points="721.97,-796.4 721.97,-827.2 973.91,-827.2 973.91,-796.4 721.97,-796.4"/>
<text text-anchor="start" x="728.97" y="-808.6" font-family="Arial" font-size="14.00">read_only </text>
<text text-anchor="start" x="794.35" y="-808.6" font-family="Arial" font-size="14.00" fill="#666666">[boolean]</text>
<polygon fill="none" stroke="black" points="721.97,-765.6 721.97,-796.4 973.91,-796.4 973.91,-765.6 721.97,-765.6"/>
<text text-anchor="start" x="728.97" y="-777.8" font-family="Arial" font-size="14.00">subdomain_key </text>
<text text-anchor="start" x="830.92" y="-777.8" font-family="Arial" font-size="14.00" fill="#666666">[text]</text>
<polygon fill="none" stroke="black" points="721.97,-734.8 721.97,-765.6 973.91,-765.6 973.91,-734.8 721.97,-734.8"/>
<text text-anchor="start" x="728.97" y="-747" font-family="Arial" font-size="14.00">superclass_of_key </text>
<text text-anchor="start" x="848.81" y="-747" font-family="Arial" font-size="14.00" fill="#666666">[text]</text>
<polygon fill="none" stroke="black" points="721.97,-704 721.97,-734.8 973.91,-734.8 973.91,-704 721.97,-704"/>
<text text-anchor="start" x="728.97" y="-716.2" font-family="Arial" font-size="14.00">subclass_of_key </text>
<text text-anchor="start" x="836.36" y="-716.2" font-family="Arial" font-size="14.00" fill="#666666">[text]</text>
<polygon fill="none" stroke="black" points="721.97,-673.2 721.97,-704 973.91,-704 973.91,-673.2 721.97,-673.2"/>
<text text-anchor="start" x="728.97" y="-685.4" font-family="Arial" font-size="14.00">uml_comment </text>
<text text-anchor="start" x="820.77" y="-685.4" font-family="Arial" font-size="14.00" fill="#666666">[text]</text>
</g>
<!-- public.use_case&#45;&gt;public.generalization -->
<g id="edge4" class="edge">
<title>public.use_case:model_key&#45;&gt;public.generalization:model_key</title>
<path fill="none" stroke="black" d="M983.18,-959.87C1020.32,-905.58 1034.19,-496.8 993.9,-496.8"/>
<polygon fill="black" stroke="black" points="983.31,-959.78 972.56,-961.95 978.98,-962.89 975.46,-965.41 975.46,-965.41 975.46,-965.41 978.98,-962.89 977.81,-969.26 983.31,-959.78"/>
<text text-anchor="start" x="981.91" y="-975.8" font-family="Arial" font-size="10.00">FOREIGN KEY (model_key, subclass_of_key) REFERENCES generalization(model_key, generalization_key) ON DELETE CASCADE</text>
</g>
<!-- public.use_case&#45;&gt;public.generalization -->
<g id="edge5" class="edge">
<title>public.use_case:model_key&#45;&gt;public.generalization:model_key</title>
<path fill="none" stroke="black" d="M984.53,-961.78C1037.79,-916.18 1051.67,-498.53 994.26,-496.81"/>
<polygon fill="black" stroke="black" points="984.75,-961.68 973.79,-961.53 979.86,-963.8 975.89,-965.53 975.89,-965.53 975.89,-965.53 979.86,-963.8 977.37,-969.79 984.75,-961.68"/>
<text text-anchor="start" x="982.27" y="-949.79" font-family="Arial" font-size="10.00">FOREIGN KEY (model_key, superclass_of_key) REFERENCES generalization(model_key, generalization_key) ON DELETE CASCADE</text>
</g>
<!-- public.class -->
<g id="node5" class="node">
<title>public.class</title>
<polygon fill="#efefef" stroke="none" points="1078.46,-965.8 1078.46,-1001.4 1301.43,-1001.4 1301.43,-965.8 1078.46,-965.8"/>
<polygon fill="none" stroke="black" points="1078.46,-965.8 1078.46,-1001.4 1301.43,-1001.4 1301.43,-965.8 1078.46,-965.8"/>
<text text-anchor="start" x="1085.46" y="-979.2" font-family="Arial Bold" font-size="18.00">public.class</text>
<text text-anchor="start" x="1169.94" y="-979.2" font-family="Arial" font-size="14.00">    </text>
<text text-anchor="start" x="1201.05" y="-979.2" font-family="Arial" font-size="14.00" fill="#666666">[BASE TABLE]</text>
<polygon fill="none" stroke="black" points="1078.46,-935 1078.46,-965.8 1301.43,-965.8 1301.43,-935 1078.46,-935"/>
<text text-anchor="start" x="1085.46" y="-947.2" font-family="Arial" font-size="14.00">model_key </text>
<text text-anchor="start" x="1157.05" y="-947.2" font-family="Arial" font-size="14.00" fill="#666666">[text]</text>
<polygon fill="none" stroke="black" points="1078.46,-904.2 1078.46,-935 1301.43,-935 1301.43,-904.2 1078.46,-904.2"/>
<text text-anchor="start" x="1085.46" y="-916.4" font-family="Arial" font-size="14.00">class_key </text>
<text text-anchor="start" x="1150.81" y="-916.4" font-family="Arial" font-size="14.00" fill="#666666">[text]</text>
<polygon fill="none" stroke="black" points="1078.46,-873.4 1078.46,-904.2 1301.43,-904.2 1301.43,-873.4 1078.46,-873.4"/>
<text text-anchor="start" x="1085.46" y="-885.6" font-family="Arial" font-size="14.00">name </text>
<text text-anchor="start" x="1124.37" y="-885.6" font-family="Arial" font-size="14.00" fill="#666666">[text]</text>
<polygon fill="none" stroke="black" points="1078.46,-842.6 1078.46,-873.4 1301.43,-873.4 1301.43,-842.6 1078.46,-842.6"/>
<text text-anchor="start" x="1085.46" y="-854.8" font-family="Arial" font-size="14.00">subdomain_key </text>
<text text-anchor="start" x="1187.41" y="-854.8" font-family="Arial" font-size="14.00" fill="#666666">[text]</text>
<polygon fill="none" stroke="black" points="1078.46,-811.8 1078.46,-842.6 1301.43,-842.6 1301.43,-811.8 1078.46,-811.8"/>
<text text-anchor="start" x="1085.46" y="-824" font-family="Arial" font-size="14.00">actor_key </text>
<text text-anchor="start" x="1150.04" y="-824" font-family="Arial" font-size="14.00" fill="#666666">[text]</text>
<polygon fill="none" stroke="black" points="1078.46,-781 1078.46,-811.8 1301.43,-811.8 1301.43,-781 1078.46,-781"/>
<text text-anchor="start" x="1085.46" y="-793.2" font-family="Arial" font-size="14.00">superclass_of_key </text>
<text text-anchor="start" x="1205.3" y="-793.2" font-family="Arial" font-size="14.00" fill="#666666">[text]</text>
<polygon fill="none" stroke="black" points="1078.46,-750.2 1078.46,-781 1301.43,-781 1301.43,-750.2 1078.46,-750.2"/>
<text text-anchor="start" x="1085.46" y="-762.4" font-family="Arial" font-size="14.00">subclass_of_key </text>
<text text-anchor="start" x="1192.85" y="-762.4" font-family="Arial" font-size="14.00" fill="#666666">[text]</text>
<polygon fill="none" stroke="black" points="1078.46,-719.4 1078.46,-750.2 1301.43,-750.2 1301.43,-719.4 1078.46,-719.4"/>
<text text-anchor="start" x="1085.46" y="-731.6" font-family="Arial" font-size="14.00">details </text>
<text text-anchor="start" x="1129.81" y="-731.6" font-family="Arial" font-size="14.00" fill="#666666">[text]</text>
<polygon fill="none" stroke="black" points="1078.46,-688.6 1078.46,-719.4 1301.43,-719.4 1301.43,-688.6 1078.46,-688.6"/>
<text text-anchor="start" x="1085.46" y="-700.8" font-family="Arial" font-size="14.00">uml_comment </text>
<text text-anchor="start" x="1177.26" y="-700.8" font-family="Arial" font-size="14.00" fill="#666666">[text]</text>
</g>
<!-- public.class&#45;&gt;public.generalization -->
<g id="edge6" class="edge">
<title>public.class:model_key&#45;&gt;public.generalization:model_key</title>
<path fill="none" stroke="black" d="M1067.39,-949.02C973.56,-921.64 1084.39,-496.8 993.9,-496.8"/>
<polygon fill="black" stroke="black" points="1067.22,-948.99 1076.51,-954.81 1072.5,-949.72 1076.79,-950.31 1076.79,-950.31 1076.79,-950.31 1072.5,-949.72 1077.74,-945.9 1067.22,-948.99"/>
<text text-anchor="start" x="1084.46" y="-934.4" font-family="Arial" font-size="10.00">FOREIGN KEY (model_key, subclass_of_key) REFERENCES generalization(model_key, generalization_key) ON DELETE CASCADE</text>
</g>
<!-- public.class&#45;&gt;public.generalization -->
<g id="edge7" class="edge">
<title>public.class:model_key&#45;&gt;public.generalization:model_key</title>
<path fill="none" stroke="black" d="M1067.25,-948.28C993.37,-914.9 1100.73,-497.65 994.23,-496.8"/>
<polygon fill="black" stroke="black" points="1067.07,-948.25 1075.92,-954.73 1072.29,-949.36 1076.53,-950.26 1076.53,-950.26 1076.53,-950.26 1072.29,-949.36 1077.79,-945.93 1067.07,-948.25"/>
<text text-anchor="start" x="1084.18" y="-960.4" font-family="Arial" font-size="10.00">FOREIGN KEY (model_key, superclass_of_key) REFERENCES generalization(model_key, generalization_key) ON DELETE CASCADE</text>
</g>
</g>
</svg>
