<?xml version="1.0" encoding="UTF-8" standalone="no"?>
<!DOCTYPE svg PUBLIC "-//W3C//DTD SVG 1.1//EN"
 "http://www.w3.org/Graphics/SVG/1.1/DTD/svg11.dtd">
<!-- Generated by graphviz version 12.1.2 (20240928.0832)
 -->
<!-- Title: public.attribute Pages: 1 -->
<svg width="1619pt" height="1314pt"
 viewBox="0.00 0.00 1618.86 1314.40" xmlns="http://www.w3.org/2000/svg" xmlns:xlink="http://www.w3.org/1999/xlink">
<g id="graph0" class="graph" transform="scale(1 1) rotate(0) translate(4 1310.4)">
<title>public.attribute</title>
<polygon fill="white" stroke="none" points="-4,4 -4,-1310.4 1614.86,-1310.4 1614.86,4 -4,4"/>
<!-- public.attribute -->
<g id="node1" class="node">
<title>public.attribute</title>
<polygon fill="#efefef" stroke="none" points="681.44,-912.6 681.44,-948.2 929.4,-948.2 929.4,-912.6 681.44,-912.6"/>
<polygon fill="none" stroke="black" points="681.44,-912.6 681.44,-948.2 929.4,-948.2 929.4,-912.6 681.44,-912.6"/>
<text text-anchor="start" x="688.44" y="-926" font-family="Arial Bold" font-size="18.00">public.attribute</text>
<text text-anchor="start" x="797.91" y="-926" font-family="Arial" font-size="14.00">    </text>
<text text-anchor="start" x="829.03" y="-926" font-family="Arial" font-size="14.00" fill="#666666">[BASE TABLE]</text>
<polygon fill="none" stroke="black" points="681.44,-881.8 681.44,-912.6 929.4,-912.6 929.4,-881.8 681.44,-881.8"/>
<text text-anchor="start" x="688.44" y="-894" font-family="Arial" font-size="14.00">model_key </text>
<text text-anchor="start" x="760.04" y="-894" font-family="Arial" font-size="14.00" fill="#666666">[text]</text>
<polygon fill="none" stroke="black" points="681.44,-851 681.44,-881.8 929.4,-881.8 929.4,-851 681.44,-851"/>
<text text-anchor="start" x="688.44" y="-863.2" font-family="Arial" font-size="14.00">attribute_key </text>
<text text-anchor="start" x="772.49" y="-863.2" font-family="Arial" font-size="14.00" fill="#666666">[text]</text>
<polygon fill="none" stroke="black" points="681.44,-820.2 681.44,-851 929.4,-851 929.4,-820.2 681.44,-820.2"/>
<text text-anchor="start" x="688.44" y="-832.4" font-family="Arial" font-size="14.00">class_key </text>
<text text-anchor="start" x="753.8" y="-832.4" font-family="Arial" font-size="14.00" fill="#666666">[text]</text>
<polygon fill="none" stroke="black" points="681.44,-789.4 681.44,-820.2 929.4,-820.2 929.4,-789.4 681.44,-789.4"/>
<text text-anchor="start" x="688.44" y="-801.6" font-family="Arial" font-size="14.00">sort_order </text>
<text text-anchor="start" x="756.14" y="-801.6" font-family="Arial" font-size="14.00" fill="#666666">[integer]</text>
<polygon fill="none" stroke="black" points="681.44,-758.6 681.44,-789.4 929.4,-789.4 929.4,-758.6 681.44,-758.6"/>
<text text-anchor="start" x="688.44" y="-770.8" font-family="Arial" font-size="14.00">name </text>
<text text-anchor="start" x="727.35" y="-770.8" font-family="Arial" font-size="14.00" fill="#666666">[text]</text>
<polygon fill="none" stroke="black" points="681.44,-727.8 681.44,-758.6 929.4,-758.6 929.4,-727.8 681.44,-727.8"/>
<text text-anchor="start" x="688.44" y="-740" font-family="Arial" font-size="14.00">details </text>
<text text-anchor="start" x="732.8" y="-740" font-family="Arial" font-size="14.00" fill="#666666">[text]</text>
<polygon fill="none" stroke="black" points="681.44,-697 681.44,-727.8 929.4,-727.8 929.4,-697 681.44,-697"/>
<text text-anchor="start" x="688.44" y="-709.2" font-family="Arial" font-size="14.00">data_type_rules </text>
<text text-anchor="start" x="791.96" y="-709.2" font-family="Arial" font-size="14.00" fill="#666666">[text]</text>
<polygon fill="none" stroke="black" points="681.44,-666.2 681.44,-697 929.4,-697 929.4,-666.2 681.44,-666.2"/>
<text text-anchor="start" x="688.44" y="-678.4" font-family="Arial" font-size="14.00">data_type_key </text>
<text text-anchor="start" x="783.4" y="-678.4" font-family="Arial" font-size="14.00" fill="#666666">[text]</text>
<polygon fill="none" stroke="black" points="681.44,-635.4 681.44,-666.2 929.4,-666.2 929.4,-635.4 681.44,-635.4"/>
<text text-anchor="start" x="688.44" y="-647.6" font-family="Arial" font-size="14.00">derivation_policy_key </text>
<text text-anchor="start" x="826.19" y="-647.6" font-family="Arial" font-size="14.00" fill="#666666">[text]</text>
<polygon fill="none" stroke="black" points="681.44,-604.6 681.44,-635.4 929.4,-635.4 929.4,-604.6 681.44,-604.6"/>
<text text-anchor="start" x="688.44" y="-616.8" font-family="Arial" font-size="14.00">nullable </text>
<text text-anchor="start" x="740.6" y="-616.8" font-family="Arial" font-size="14.00" fill="#666666">[boolean]</text>
<polygon fill="none" stroke="black" points="681.44,-573.8 681.44,-604.6 929.4,-604.6 929.4,-573.8 681.44,-573.8"/>
<text text-anchor="start" x="688.44" y="-586" font-family="Arial" font-size="14.00">uml_comment </text>
<text text-anchor="start" x="780.25" y="-586" font-family="Arial" font-size="14.00" fill="#666666">[text]</text>
<polygon fill="none" stroke="black" stroke-width="3" points="679.94,-572.3 679.94,-949.7 930.9,-949.7 930.9,-572.3 679.94,-572.3"/>
</g>
<!-- public.logic -->
<g id="node2" class="node">
<title>public.logic</title>
<polygon fill="#efefef" stroke="none" points="328.63,-412.8 328.63,-448.4 572.21,-448.4 572.21,-412.8 328.63,-412.8"/>
<polygon fill="none" stroke="black" points="328.63,-412.8 328.63,-448.4 572.21,-448.4 572.21,-412.8 328.63,-412.8"/>
<text text-anchor="start" x="345.44" y="-426.2" font-family="Arial Bold" font-size="18.00">public.logic</text>
<text text-anchor="start" x="430.92" y="-426.2" font-family="Arial" font-size="14.00">    </text>
<text text-anchor="start" x="462.04" y="-426.2" font-family="Arial" font-size="14.00" fill="#666666">[BASE TABLE]</text>
<polygon fill="none" stroke="black" points="328.63,-382 328.63,-412.8 572.21,-412.8 572.21,-382 328.63,-382"/>
<text text-anchor="start" x="335.63" y="-394.2" font-family="Arial" font-size="14.00">logic_key </text>
<text text-anchor="start" x="397.88" y="-394.2" font-family="Arial" font-size="14.00" fill="#666666">[text]</text>
<polygon fill="none" stroke="black" points="328.63,-351.2 328.63,-382 572.21,-382 572.21,-351.2 328.63,-351.2"/>
<text text-anchor="start" x="335.63" y="-363.4" font-family="Arial" font-size="14.00">model_key </text>
<text text-anchor="start" x="407.22" y="-363.4" font-family="Arial" font-size="14.00" fill="#666666">[text]</text>
<polygon fill="none" stroke="black" points="328.63,-320.4 328.63,-351.2 572.21,-351.2 572.21,-320.4 328.63,-320.4"/>
<text text-anchor="start" x="335.63" y="-332.6" font-family="Arial" font-size="14.00">sort_order </text>
<text text-anchor="start" x="403.33" y="-332.6" font-family="Arial" font-size="14.00" fill="#666666">[integer]</text>
<polygon fill="none" stroke="black" points="328.63,-289.6 328.63,-320.4 572.21,-320.4 572.21,-289.6 328.63,-289.6"/>
<text text-anchor="start" x="335.63" y="-301.8" font-family="Arial" font-size="14.00">logic_type </text>
<text text-anchor="start" x="402.56" y="-301.8" font-family="Arial" font-size="14.00" fill="#666666">[logic_type]</text>
<polygon fill="none" stroke="black" points="328.63,-258.8 328.63,-289.6 572.21,-289.6 572.21,-258.8 328.63,-258.8"/>
<text text-anchor="start" x="335.63" y="-271" font-family="Arial" font-size="14.00">description </text>
<text text-anchor="start" x="407.22" y="-271" font-family="Arial" font-size="14.00" fill="#666666">[text]</text>
<polygon fill="none" stroke="black" points="328.63,-228 328.63,-258.8 572.21,-258.8 572.21,-228 328.63,-228"/>
<text text-anchor="start" x="335.63" y="-240.2" font-family="Arial" font-size="14.00">target </text>
<text text-anchor="start" x="375.32" y="-240.2" font-family="Arial" font-size="14.00" fill="#666666">[text]</text>
<polygon fill="none" stroke="black" points="328.63,-197.2 328.63,-228 572.21,-228 572.21,-197.2 328.63,-197.2"/>
<text text-anchor="start" x="335.63" y="-209.4" font-family="Arial" font-size="14.00">notation </text>
<text text-anchor="start" x="389.34" y="-209.4" font-family="Arial" font-size="14.00" fill="#666666">[notation]</text>
<polygon fill="none" stroke="black" points="328.63,-166.4 328.63,-197.2 572.21,-197.2 572.21,-166.4 328.63,-166.4"/>
<text text-anchor="start" x="335.63" y="-178.6" font-family="Arial" font-size="14.00">specification </text>
<text text-anchor="start" x="416.56" y="-178.6" font-family="Arial" font-size="14.00" fill="#666666">[text]</text>
<polygon fill="none" stroke="black" points="328.63,-135.6 328.63,-166.4 572.21,-166.4 572.21,-135.6 328.63,-135.6"/>
<text text-anchor="start" x="335.63" y="-147.8" font-family="Arial" font-size="14.00">target_type_notation </text>
<text text-anchor="start" x="467.17" y="-147.8" font-family="Arial" font-size="14.00" fill="#666666">[notation]</text>
<polygon fill="none" stroke="black" points="328.63,-104.8 328.63,-135.6 572.21,-135.6 572.21,-104.8 328.63,-104.8"/>
<text text-anchor="start" x="335.63" y="-117" font-family="Arial" font-size="14.00">target_type_specification </text>
<text text-anchor="start" x="494.39" y="-117" font-family="Arial" font-size="14.00" fill="#666666">[text]</text>
<polygon fill="none" stroke="black" points="328.63,-74 328.63,-104.8 572.21,-104.8 572.21,-74 328.63,-74"/>
<text text-anchor="start" x="335.63" y="-86.2" font-family="Arial" font-size="14.00">destroy_event_specification </text>
<text text-anchor="start" x="512.29" y="-86.2" font-family="Arial" font-size="14.00" fill="#666666">[text]</text>
<polygon fill="none" stroke="black" points="328.63,-43.2 328.63,-74 572.21,-74 572.21,-43.2 328.63,-43.2"/>
<text text-anchor="start" x="335.63" y="-55.4" font-family="Arial" font-size="14.00">endpoint_selector_specification </text>
<text text-anchor="start" x="534.87" y="-55.4" font-family="Arial" font-size="14.00" fill="#666666">[text]</text>
</g>
<!-- public.attribute&#45;&gt;public.logic -->
<g id="edge1" class="edge">
<title>public.attribute:model_key&#45;&gt;public.logic:model_key</title>
<path fill="none" stroke="black" d="M671.21,-892.61C621.51,-840.75 630.07,-366.6 573.21,-366.6"/>
<polygon fill="black" stroke="black" points="671.19,-892.6 678.14,-901.08 675.97,-894.98 679.84,-896.9 679.84,-896.9 679.84,-896.9 675.97,-894.98 682.15,-893.02 671.19,-892.6"/>
<text text-anchor="start" x="138.82" y="-907.2" font-family="Arial" font-size="10.00">FOREIGN KEY (model_key, derivation_policy_key) REFERENCES logic(model_key, logic_key) ON DELETE CASCADE</text>
</g>
<!-- public.data_type -->
<g id="node3" class="node">
<title>public.data_type</title>
<polygon fill="#efefef" stroke="none" points="676.45,-366.6 676.45,-402.2 934.4,-402.2 934.4,-366.6 676.45,-366.6"/>
<polygon fill="none" stroke="black" points="676.45,-366.6 676.45,-402.2 934.4,-402.2 934.4,-366.6 676.45,-366.6"/>
<text text-anchor="start" x="683.45" y="-380" font-family="Arial Bold" font-size="18.00">public.data_type</text>
<text text-anchor="start" x="802.91" y="-380" font-family="Arial" font-size="14.00">    </text>
<text text-anchor="start" x="834.03" y="-380" font-family="Arial" font-size="14.00" fill="#666666">[BASE TABLE]</text>
<polygon fill="none" stroke="black" points="676.45,-335.8 676.45,-366.6 934.4,-366.6 934.4,-335.8 676.45,-335.8"/>
<text text-anchor="start" x="683.45" y="-348" font-family="Arial" font-size="14.00">model_key </text>
<text text-anchor="start" x="755.04" y="-348" font-family="Arial" font-size="14.00" fill="#666666">[text]</text>
<polygon fill="none" stroke="black" points="676.45,-305 676.45,-335.8 934.4,-335.8 934.4,-305 676.45,-305"/>
<text text-anchor="start" x="683.45" y="-317.2" font-family="Arial" font-size="14.00">data_type_key </text>
<text text-anchor="start" x="778.41" y="-317.2" font-family="Arial" font-size="14.00" fill="#666666">[text]</text>
<polygon fill="none" stroke="black" points="676.45,-274.2 676.45,-305 934.4,-305 934.4,-274.2 676.45,-274.2"/>
<text text-anchor="start" x="683.45" y="-286.4" font-family="Arial" font-size="14.00">collection_type </text>
<text text-anchor="start" x="779.95" y="-286.4" font-family="Arial" font-size="14.00" fill="#666666">[collection_type]</text>
<polygon fill="none" stroke="black" points="676.45,-243.4 676.45,-274.2 934.4,-274.2 934.4,-243.4 676.45,-243.4"/>
<text text-anchor="start" x="683.45" y="-255.6" font-family="Arial" font-size="14.00">collection_unique </text>
<text text-anchor="start" x="795.53" y="-255.6" font-family="Arial" font-size="14.00" fill="#666666">[boolean]</text>
<polygon fill="none" stroke="black" points="676.45,-212.6 676.45,-243.4 934.4,-243.4 934.4,-212.6 676.45,-212.6"/>
<text text-anchor="start" x="683.45" y="-224.8" font-family="Arial" font-size="14.00">collection_min </text>
<text text-anchor="start" x="776.05" y="-224.8" font-family="Arial" font-size="14.00" fill="#666666">[bigint]</text>
<polygon fill="none" stroke="black" points="676.45,-181.8 676.45,-212.6 934.4,-212.6 934.4,-181.8 676.45,-181.8"/>
<text text-anchor="start" x="683.45" y="-194" font-family="Arial" font-size="14.00">collection_max </text>
<text text-anchor="start" x="779.94" y="-194" font-family="Arial" font-size="14.00" fill="#666666">[bigint]</text>
<polygon fill="none" stroke="black" points="676.45,-151 676.45,-181.8 934.4,-181.8 934.4,-151 676.45,-151"/>
<text text-anchor="start" x="683.45" y="-163.2" font-family="Arial" font-size="14.00">element_data_type_key </text>
<text text-anchor="start" x="836" y="-163.2" font-family="Arial" font-size="14.00" fill="#666666">[text]</text>
<polygon fill="none" stroke="black" points="676.45,-120.2 676.45,-151 934.4,-151 934.4,-120.2 676.45,-120.2"/>
<text text-anchor="start" x="683.45" y="-132.4" font-family="Arial" font-size="14.00">type_spec_notation </text>
<text text-anchor="start" x="808.76" y="-132.4" font-family="Arial" font-size="14.00" fill="#666666">[notation]</text>
<polygon fill="none" stroke="black" points="676.45,-89.4 676.45,-120.2 934.4,-120.2 934.4,-89.4 676.45,-89.4"/>
<text text-anchor="start" x="683.45" y="-101.6" font-family="Arial" font-size="14.00">type_spec_specification </text>
<text text-anchor="start" x="835.98" y="-101.6" font-family="Arial" font-size="14.00" fill="#666666">[text]</text>
</g>
<!-- public.attribute&#45;&gt;public.data_type -->
<g id="edge2" class="edge">
<title>public.attribute:model_key&#45;&gt;public.data_type:model_key</title>
<path fill="none" stroke="black" d="M939.53,-892.81C991.41,-841.13 992.87,-351.2 935.4,-351.2"/>
<polygon fill="black" stroke="black" points="939.71,-892.72 928.75,-893 934.91,-895.03 931,-896.91 931,-896.91 931,-896.91 934.91,-895.03 932.65,-901.11 939.71,-892.72"/>
<text text-anchor="start" x="937.4" y="-907.2" font-family="Arial" font-size="10.00">FOREIGN KEY (model_key, data_type_key) REFERENCES data_type(model_key, data_type_key) ON DELETE CASCADE</text>
</g>
<!-- public.class -->
<g id="node4" class="node">
<title>public.class</title>
<polygon fill="#efefef" stroke="none" points="1038.94,-382 1038.94,-417.6 1261.91,-417.6 1261.91,-382 1038.94,-382"/>
<polygon fill="none" stroke="black" points="1038.94,-382 1038.94,-417.6 1261.91,-417.6 1261.91,-382 1038.94,-382"/>
<text text-anchor="start" x="1045.94" y="-395.4" font-family="Arial Bold" font-size="18.00">public.class</text>
<text text-anchor="start" x="1130.42" y="-395.4" font-family="Arial" font-size="14.00">    </text>
<text text-anchor="start" x="1161.54" y="-395.4" font-family="Arial" font-size="14.00" fill="#666666">[BASE TABLE]</text>
<polygon fill="none" stroke="black" points="1038.94,-351.2 1038.94,-382 1261.91,-382 1261.91,-351.2 1038.94,-351.2"/>
<text text-anchor="start" x="1045.94" y="-363.4" font-family="Arial" font-size="14.00">model_key </text>
<text text-anchor="start" x="1117.53" y="-363.4" font-family="Arial" font-size="14.00" fill="#666666">[text]</text>
<polygon fill="none" stroke="black" points="1038.94,-320.4 1038.94,-351.2 1261.91,-351.2 1261.91,-320.4 1038.94,-320.4"/>
<text text-anchor="start" x="1045.94" y="-332.6" font-family="Arial" font-size="14.00">class_key </text>
<text text-anchor="start" x="1111.3" y="-332.6" font-family="Arial" font-size="14.00" fill="#666666">[text]</text>
<polygon fill="none" stroke="black" points="1038.94,-289.6 1038.94,-320.4 1261.91,-320.4 1261.91,-289.6 1038.94,-289.6"/>
<text text-anchor="start" x="1045.94" y="-301.8" font-family="Arial" font-size="14.00">name </text>
<text text-anchor="start" x="1084.85" y="-301.8" font-family="Arial" font-size="14.00" fill="#666666">[text]</text>
<polygon fill="none" stroke="black" points="1038.94,-258.8 1038.94,-289.6 1261.91,-289.6 1261.91,-258.8 1038.94,-258.8"/>
<text text-anchor="start" x="1045.94" y="-271" font-family="Arial" font-size="14.00">subdomain_key </text>
<text text-anchor="start" x="1147.89" y="-271" font-family="Arial" font-size="14.00" fill="#666666">[text]</text>
<polygon fill="none" stroke="black" points="1038.94,-228 1038.94,-258.8 1261.91,-258.8 1261.91,-228 1038.94,-228"/>
<text text-anchor="start" x="1045.94" y="-240.2" font-family="Arial" font-size="14.00">actor_key </text>
<text text-anchor="start" x="1110.52" y="-240.2" font-family="Arial" font-size="14.00" fill="#666666">[text]</text>
<polygon fill="none" stroke="black" points="1038.94,-197.2 1038.94,-228 1261.91,-228 1261.91,-197.2 1038.94,-197.2"/>
<text text-anchor="start" x="1045.94" y="-209.4" font-family="Arial" font-size="14.00">superclass_of_key </text>
<text text-anchor="start" x="1165.78" y="-209.4" font-family="Arial" font-size="14.00" fill="#666666">[text]</text>
<polygon fill="none" stroke="black" points="1038.94,-166.4 1038.94,-197.2 1261.91,-197.2 1261.91,-166.4 1038.94,-166.4"/>
<text text-anchor="start" x="1045.94" y="-178.6" font-family="Arial" font-size="14.00">subclass_of_key </text>
<text text-anchor="start" x="1153.33" y="-178.6" font-family="Arial" font-size="14.00" fill="#666666">[text]</text>
<polygon fill="none" stroke="black" points="1038.94,-135.6 1038.94,-166.4 1261.91,-166.4 1261.91,-135.6 1038.94,-135.6"/>
<text text-anchor="start" x="1045.94" y="-147.8" font-family="Arial" font-size="14.00">details </text>
<text text-anchor="start" x="1090.3" y="-147.8" font-family="Arial" font-size="14.00" fill="#666666">[text]</text>
<polygon fill="none" stroke="black" points="1038.94,-104.8 1038.94,-135.6 1261.91,-135.6 1261.91,-104.8 1038.94,-104.8"/>
<text text-anchor="start" x="1045.94" y="-117" font-family="Arial" font-size="14.00">unfinished_notes </text>
<text text-anchor="start" x="1155.69" y="-117" font-family="Arial" font-size="14.00" fill="#666666">[text]</text>
<polygon fill="none" stroke="black" points="1038.94,-74 1038.94,-104.8 1261.91,-104.8 1261.91,-74 1038.94,-74"/>
<text text-anchor="start" x="1045.94" y="-86.2" font-family="Arial" font-size="14.00">uml_comment </text>
<text text-anchor="start" x="1137.74" y="-86.2" font-family="Arial" font-size="14.00" fill="#666666">[text]</text>
</g>
<!-- public.attribute&#45;&gt;public.class -->
<g id="edge3" class="edge">
<title>public.attribute:model_key&#45;&gt;public.class:model_key</title>
<path fill="none" stroke="black" d="M939.64,-892.61C989.38,-840.75 981.07,-366.6 1037.94,-366.6"/>
<polygon fill="black" stroke="black" points="939.66,-892.6 928.7,-893.02 934.88,-894.98 931,-896.9 931,-896.9 931,-896.9 934.88,-894.98 932.7,-901.08 939.66,-892.6"/>
<text text-anchor="start" x="937.4" y="-881.2" font-family="Arial" font-size="10.00">FOREIGN KEY (model_key, class_key) REFERENCES class(model_key, class_key) ON DELETE CASCADE</text>
</g>
<!-- public.class_index -->
<g id="node5" class="node">
<title>public.class_index</title>
<polygon fill="#efefef" stroke="none" points="268.44,-1212.2 268.44,-1247.8 540.4,-1247.8 540.4,-1212.2 268.44,-1212.2"/>
<polygon fill="none" stroke="black" points="268.44,-1212.2 268.44,-1247.8 540.4,-1247.8 540.4,-1212.2 268.44,-1212.2"/>
<text text-anchor="start" x="275.44" y="-1225.6" font-family="Arial Bold" font-size="18.00">public.class_index</text>
<text text-anchor="start" x="408.91" y="-1225.6" font-family="Arial" font-size="14.00">    </text>
<text text-anchor="start" x="440.03" y="-1225.6" font-family="Arial" font-size="14.00" fill="#666666">[BASE TABLE]</text>
<polygon fill="none" stroke="black" points="268.44,-1181.4 268.44,-1212.2 540.4,-1212.2 540.4,-1181.4 268.44,-1181.4"/>
<text text-anchor="start" x="275.44" y="-1193.6" font-family="Arial" font-size="14.00">model_key </text>
<text text-anchor="start" x="347.04" y="-1193.6" font-family="Arial" font-size="14.00" fill="#666666">[text]</text>
<polygon fill="none" stroke="black" points="268.44,-1150.6 268.44,-1181.4 540.4,-1181.4 540.4,-1150.6 268.44,-1150.6"/>
<text text-anchor="start" x="275.44" y="-1162.8" font-family="Arial" font-size="14.00">class_key </text>
<text text-anchor="start" x="340.8" y="-1162.8" font-family="Arial" font-size="14.00" fill="#666666">[text]</text>
<polygon fill="none" stroke="black" points="268.44,-1119.8 268.44,-1150.6 540.4,-1150.6 540.4,-1119.8 268.44,-1119.8"/>
<text text-anchor="start" x="275.44" y="-1132" font-family="Arial" font-size="14.00">index_num </text>
<text text-anchor="start" x="347.82" y="-1132" font-family="Arial" font-size="14.00" fill="#666666">[integer]</text>
<polygon fill="none" stroke="black" points="268.44,-1089 268.44,-1119.8 540.4,-1119.8 540.4,-1089 268.44,-1089"/>
<text text-anchor="start" x="275.44" y="-1101.2" font-family="Arial" font-size="14.00">attribute_key </text>
<text text-anchor="start" x="359.49" y="-1101.2" font-family="Arial" font-size="14.00" fill="#666666">[text]</text>
</g>
<!-- public.class_index&#45;&gt;public.attribute -->
<g id="edge4" class="edge">
<title>public.class_index:model_key&#45;&gt;public.attribute:model_key</title>
<path fill="none" stroke="black" d="M551.78,-1196.12C613.18,-1187.45 561.03,-1096.95 592.42,-1030.4 622.69,-966.22 609.49,-897.2 680.44,-897.2"/>
<polygon fill="black" stroke="black" points="551.72,-1196.13 541.44,-1192.29 546.39,-1196.48 542.07,-1196.76 542.07,-1196.76 542.07,-1196.76 546.39,-1196.48 542.03,-1201.27 551.72,-1196.13"/>
<text text-anchor="start" x="7" y="-1206.8" font-family="Arial" font-size="10.00">FOREIGN KEY (model_key, attribute_key) REFERENCES attribute(model_key, attribute_key) ON DELETE CASCADE</text>
</g>
<!-- public.attribute_invariant -->
<g id="node6" class="node">
<title>public.attribute_invariant</title>
<polygon fill="#efefef" stroke="none" points="644.96,-1196.8 644.96,-1232.4 965.89,-1232.4 965.89,-1196.8 644.96,-1196.8"/>
<polygon fill="none" stroke="black" points="644.96,-1196.8 644.96,-1232.4 965.89,-1232.4 965.89,-1196.8 644.96,-1196.8"/>
<text text-anchor="start" x="651.96" y="-1210.2" font-family="Arial Bold" font-size="18.00">public.attribute_invariant</text>
<text text-anchor="start" x="834.4" y="-1210.2" font-family="Arial" font-size="14.00">    </text>
<text text-anchor="start" x="865.52" y="-1210.2" font-family="Arial" font-size="14.00" fill="#666666">[BASE TABLE]</text>
<polygon fill="none" stroke="black" points="644.96,-1166 644.96,-1196.8 965.89,-1196.8 965.89,-1166 644.96,-1166"/>
<text text-anchor="start" x="651.96" y="-1178.2" font-family="Arial" font-size="14.00">model_key </text>
<text text-anchor="start" x="723.55" y="-1178.2" font-family="Arial" font-size="14.00" fill="#666666">[text]</text>
<polygon fill="none" stroke="black" points="644.96,-1135.2 644.96,-1166 965.89,-1166 965.89,-1135.2 644.96,-1135.2"/>
<text text-anchor="start" x="651.96" y="-1147.4" font-family="Arial" font-size="14.00">attribute_key </text>
<text text-anchor="start" x="736" y="-1147.4" font-family="Arial" font-size="14.00" fill="#666666">[text]</text>
<polygon fill="none" stroke="black" points="644.96,-1104.4 644.96,-1135.2 965.89,-1135.2 965.89,-1104.4 644.96,-1104.4"/>
<text text-anchor="start" x="651.96" y="-1116.6" font-family="Arial" font-size="14.00">logic_key </text>
<text text-anchor="start" x="714.21" y="-1116.6" font-family="Arial" font-size="14.00" fill="#666666">[text]</text>
</g>
<!-- public.attribute_invariant&#45;&gt;public.attribute -->
<g id="edge5" class="edge">
<title>public.attribute_invariant:model_key&#45;&gt;public.attribute:model_key</title>
<path fill="none" stroke="black" d="M976.76,-1178.77C1026.34,-1150.12 990.47,-897.2 930.4,-897.2"/>
<polygon fill="black" stroke="black" points="976.87,-1178.74 966.05,-1176.97 971.72,-1180.11 967.54,-1181.23 967.54,-1181.23 967.54,-1181.23 971.72,-1180.11 968.37,-1185.66 976.87,-1178.74"/>
<text text-anchor="start" x="703.19" y="-1165.4" font-family="Arial" font-size="10.00">FOREIGN KEY (model_key, attribute_key) REFERENCES attribute(model_key, attribute_key) ON DELETE CASCADE</text>
</g>
<!-- public.association_uniqueness_attribute -->
<g id="node7" class="node">
<title>public.association_uniqueness_attribute</title>
<polygon fill="#efefef" stroke="none" points="1070.46,-1227.6 1070.46,-1263.2 1496.39,-1263.2 1496.39,-1227.6 1070.46,-1227.6"/>
<polygon fill="none" stroke="black" points="1070.46,-1227.6 1070.46,-1263.2 1496.39,-1263.2 1496.39,-1227.6 1070.46,-1227.6"/>
<text text-anchor="start" x="1077.46" y="-1241" font-family="Arial Bold" font-size="18.00">public.association_uniqueness_attribute</text>
<text text-anchor="start" x="1364.9" y="-1241" font-family="Arial" font-size="14.00">    </text>
<text text-anchor="start" x="1396.01" y="-1241" font-family="Arial" font-size="14.00" fill="#666666">[BASE TABLE]</text>
<polygon fill="none" stroke="black" points="1070.46,-1196.8 1070.46,-1227.6 1496.39,-1227.6 1496.39,-1196.8 1070.46,-1196.8"/>
<text text-anchor="start" x="1077.46" y="-1209" font-family="Arial" font-size="14.00">model_key </text>
<text text-anchor="start" x="1149.05" y="-1209" font-family="Arial" font-size="14.00" fill="#666666">[text]</text>
<polygon fill="none" stroke="black" points="1070.46,-1166 1070.46,-1196.8 1496.39,-1196.8 1496.39,-1166 1070.46,-1166"/>
<text text-anchor="start" x="1077.46" y="-1178.2" font-family="Arial" font-size="14.00">association_key </text>
<text text-anchor="start" x="1180.96" y="-1178.2" font-family="Arial" font-size="14.00" fill="#666666">[text]</text>
<polygon fill="none" stroke="black" points="1070.46,-1135.2 1070.46,-1166 1496.39,-1166 1496.39,-1135.2 1070.46,-1135.2"/>
<text text-anchor="start" x="1077.46" y="-1147.4" font-family="Arial" font-size="14.00">end_side </text>
<text text-anchor="start" x="1138.18" y="-1147.4" font-family="Arial" font-size="14.00" fill="#666666">[association_end]</text>
<polygon fill="none" stroke="black" points="1070.46,-1104.4 1070.46,-1135.2 1496.39,-1135.2 1496.39,-1104.4 1070.46,-1104.4"/>
<text text-anchor="start" x="1077.46" y="-1116.6" font-family="Arial" font-size="14.00">attribute_sort_order </text>
<text text-anchor="start" x="1203.53" y="-1116.6" font-family="Arial" font-size="14.00" fill="#666666">[integer]</text>
<polygon fill="none" stroke="black" points="1070.46,-1073.6 1070.46,-1104.4 1496.39,-1104.4 1496.39,-1073.6 1070.46,-1073.6"/>
<text text-anchor="start" x="1077.46" y="-1085.8" font-family="Arial" font-size="14.00">attribute_key </text>
<text text-anchor="start" x="1161.51" y="-1085.8" font-family="Arial" font-size="14.00" fill="#666666">[text]</text>
</g>
<!-- public.association_uniqueness_attribute&#45;&gt;public.attribute -->
<g id="edge6" class="edge">
<title>public.association_uniqueness_attribute:model_key&#45;&gt;public.attribute:model_key</title>
<path fill="none" stroke="black" d="M1059.04,-1211.57C991.42,-1202.78 1051.75,-1103.3 1018.42,-1030.4 988.92,-965.87 1001.36,-897.2 930.4,-897.2"/>
<polygon fill="black" stroke="black" points="1059.14,-1211.58 1068.85,-1216.67 1064.47,-1211.9 1068.79,-1212.16 1068.79,-1212.16 1068.79,-1212.16 1064.47,-1211.9 1069.4,-1207.69 1059.14,-1211.58"/>
<text text-anchor="start" x="1076.46" y="-1222.2" font-family="Arial" font-size="10.00">FOREIGN KEY (model_key, attribute_key) REFERENCES attribute(model_key, attribute_key) ON DELETE CASCADE</text>
</g>
</g>
</svg>
