<?xml version="1.0" encoding="UTF-8" standalone="no"?>
<!DOCTYPE svg PUBLIC "-//W3C//DTD SVG 1.1//EN"
 "http://www.w3.org/Graphics/SVG/1.1/DTD/svg11.dtd">
<!-- Generated by graphviz version 12.1.2 (20240928.0832)
 -->
<!-- Title: public.data_type Pages: 1 -->
<svg width="2822pt" height="1099pt"
 viewBox="0.00 0.00 2822.14 1098.80" xmlns="http://www.w3.org/2000/svg" xmlns:xlink="http://www.w3.org/1999/xlink">
<g id="graph0" class="graph" transform="scale(1 1) rotate(0) translate(4 1094.8)">
<title>public.data_type</title>
<polygon fill="white" stroke="none" points="-4,4 -4,-1094.8 2818.14,-1094.8 2818.14,4 -4,4"/>
<!-- public.data_type -->
<g id="node1" class="node">
<title>public.data_type</title>
<polygon fill="#efefef" stroke="none" points="1066.84,-543 1066.84,-578.6 1324.79,-578.6 1324.79,-543 1066.84,-543"/>
<polygon fill="none" stroke="black" points="1066.84,-543 1066.84,-578.6 1324.79,-578.6 1324.79,-543 1066.84,-543"/>
<text text-anchor="start" x="1073.84" y="-556.4" font-family="Arial Bold" font-size="18.00">public.data_type</text>
<text text-anchor="start" x="1193.3" y="-556.4" font-family="Arial" font-size="14.00">    </text>
<text text-anchor="start" x="1224.42" y="-556.4" font-family="Arial" font-size="14.00" fill="#666666">[BASE TABLE]</text>
<polygon fill="none" stroke="black" points="1066.84,-512.2 1066.84,-543 1324.79,-543 1324.79,-512.2 1066.84,-512.2"/>
<text text-anchor="start" x="1073.84" y="-524.4" font-family="Arial" font-size="14.00">model_key </text>
<text text-anchor="start" x="1145.43" y="-524.4" font-family="Arial" font-size="14.00" fill="#666666">[text]</text>
<polygon fill="none" stroke="black" points="1066.84,-481.4 1066.84,-512.2 1324.79,-512.2 1324.79,-481.4 1066.84,-481.4"/>
<text text-anchor="start" x="1073.84" y="-493.6" font-family="Arial" font-size="14.00">data_type_key </text>
<text text-anchor="start" x="1168.8" y="-493.6" font-family="Arial" font-size="14.00" fill="#666666">[text]</text>
<polygon fill="none" stroke="black" points="1066.84,-450.6 1066.84,-481.4 1324.79,-481.4 1324.79,-450.6 1066.84,-450.6"/>
<text text-anchor="start" x="1073.84" y="-462.8" font-family="Arial" font-size="14.00">collection_type </text>
<text text-anchor="start" x="1170.34" y="-462.8" font-family="Arial" font-size="14.00" fill="#666666">[collection_type]</text>
<polygon fill="none" stroke="black" points="1066.84,-419.8 1066.84,-450.6 1324.79,-450.6 1324.79,-419.8 1066.84,-419.8"/>
<text text-anchor="start" x="1073.84" y="-432" font-family="Arial" font-size="14.00">collection_unique </text>
<text text-anchor="start" x="1185.92" y="-432" font-family="Arial" font-size="14.00" fill="#666666">[boolean]</text>
<polygon fill="none" stroke="black" points="1066.84,-389 1066.84,-419.8 1324.79,-419.8 1324.79,-389 1066.84,-389"/>
<text text-anchor="start" x="1073.84" y="-401.2" font-family="Arial" font-size="14.00">collection_min </text>
<text text-anchor="start" x="1166.44" y="-401.2" font-family="Arial" font-size="14.00" fill="#666666">[bigint]</text>
<polygon fill="none" stroke="black" points="1066.84,-358.2 1066.84,-389 1324.79,-389 1324.79,-358.2 1066.84,-358.2"/>
<text text-anchor="start" x="1073.84" y="-370.4" font-family="Arial" font-size="14.00">collection_max </text>
<text text-anchor="start" x="1170.33" y="-370.4" font-family="Arial" font-size="14.00" fill="#666666">[bigint]</text>
<polygon fill="none" stroke="black" points="1066.84,-327.4 1066.84,-358.2 1324.79,-358.2 1324.79,-327.4 1066.84,-327.4"/>
<text text-anchor="start" x="1073.84" y="-339.6" font-family="Arial" font-size="14.00">type_spec_notation </text>
<text text-anchor="start" x="1199.16" y="-339.6" font-family="Arial" font-size="14.00" fill="#666666">[notation]</text>
<polygon fill="none" stroke="black" points="1066.84,-296.6 1066.84,-327.4 1324.79,-327.4 1324.79,-296.6 1066.84,-296.6"/>
<text text-anchor="start" x="1073.84" y="-308.8" font-family="Arial" font-size="14.00">type_spec_specification </text>
<text text-anchor="start" x="1226.38" y="-308.8" font-family="Arial" font-size="14.00" fill="#666666">[text]</text>
<polygon fill="none" stroke="black" stroke-width="3" points="1065.34,-295.1 1065.34,-580.1 1326.29,-580.1 1326.29,-295.1 1065.34,-295.1"/>
</g>
<!-- public.model -->
<g id="node2" class="node">
<title>public.model</title>
<polygon fill="#efefef" stroke="none" points="1079.33,-135.6 1079.33,-171.2 1312.3,-171.2 1312.3,-135.6 1079.33,-135.6"/>
<polygon fill="none" stroke="black" points="1079.33,-135.6 1079.33,-171.2 1312.3,-171.2 1312.3,-135.6 1079.33,-135.6"/>
<text text-anchor="start" x="1086.33" y="-149" font-family="Arial Bold" font-size="18.00">public.model</text>
<text text-anchor="start" x="1180.81" y="-149" font-family="Arial" font-size="14.00">    </text>
<text text-anchor="start" x="1211.93" y="-149" font-family="Arial" font-size="14.00" fill="#666666">[BASE TABLE]</text>
<polygon fill="none" stroke="black" points="1079.33,-104.8 1079.33,-135.6 1312.3,-135.6 1312.3,-104.8 1079.33,-104.8"/>
<text text-anchor="start" x="1086.33" y="-117" font-family="Arial" font-size="14.00">model_key </text>
<text text-anchor="start" x="1157.92" y="-117" font-family="Arial" font-size="14.00" fill="#666666">[text]</text>
<polygon fill="none" stroke="black" points="1079.33,-74 1079.33,-104.8 1312.3,-104.8 1312.3,-74 1079.33,-74"/>
<text text-anchor="start" x="1086.33" y="-86.2" font-family="Arial" font-size="14.00">name </text>
<text text-anchor="start" x="1125.24" y="-86.2" font-family="Arial" font-size="14.00" fill="#666666">[text]</text>
<polygon fill="none" stroke="black" points="1079.33,-43.2 1079.33,-74 1312.3,-74 1312.3,-43.2 1079.33,-43.2"/>
<text text-anchor="start" x="1086.33" y="-55.4" font-family="Arial" font-size="14.00">details </text>
<text text-anchor="start" x="1130.69" y="-55.4" font-family="Arial" font-size="14.00" fill="#666666">[text]</text>
</g>
<!-- public.data_type&#45;&gt;public.model -->
<g id="edge1" class="edge">
<title>public.data_type:model_key&#45;&gt;public.model:model_key</title>
<path fill="none" stroke="black" d="M1336.18,-527.14C1506.39,-511.84 1490.91,-120.2 1313.3,-120.2"/>
<polygon fill="black" stroke="black" points="1336.11,-527.14 1325.93,-523.09 1330.79,-527.38 1326.46,-527.57 1326.46,-527.57 1326.46,-527.57 1330.79,-527.38 1326.32,-532.08 1336.11,-527.14"/>
<text text-anchor="start" x="1332.79" y="-537.6" font-family="Arial" font-size="10.00">FOREIGN KEY (model_key) REFERENCES model(model_key) ON DELETE CASCADE</text>
</g>
<!-- public.data_type_atomic -->
<g id="node3" class="node">
<title>public.data_type_atomic</title>
<polygon fill="#efefef" stroke="none" points="247.85,-950.4 247.85,-986 563.78,-986 563.78,-950.4 247.85,-950.4"/>
<polygon fill="none" stroke="black" points="247.85,-950.4 247.85,-986 563.78,-986 563.78,-950.4 247.85,-950.4"/>
<text text-anchor="start" x="254.85" y="-963.8" font-family="Arial Bold" font-size="18.00">public.data_type_atomic</text>
<text text-anchor="start" x="432.29" y="-963.8" font-family="Arial" font-size="14.00">    </text>
<text text-anchor="start" x="463.41" y="-963.8" font-family="Arial" font-size="14.00" fill="#666666">[BASE TABLE]</text>
<polygon fill="none" stroke="black" points="247.85,-919.6 247.85,-950.4 563.78,-950.4 563.78,-919.6 247.85,-919.6"/>
<text text-anchor="start" x="254.85" y="-931.8" font-family="Arial" font-size="14.00">model_key </text>
<text text-anchor="start" x="326.44" y="-931.8" font-family="Arial" font-size="14.00" fill="#666666">[text]</text>
<polygon fill="none" stroke="black" points="247.85,-888.8 247.85,-919.6 563.78,-919.6 563.78,-888.8 247.85,-888.8"/>
<text text-anchor="start" x="254.85" y="-901" font-family="Arial" font-size="14.00">data_type_key </text>
<text text-anchor="start" x="349.81" y="-901" font-family="Arial" font-size="14.00" fill="#666666">[text]</text>
<polygon fill="none" stroke="black" points="247.85,-858 247.85,-888.8 563.78,-888.8 563.78,-858 247.85,-858"/>
<text text-anchor="start" x="254.85" y="-870.2" font-family="Arial" font-size="14.00">constraint_type </text>
<text text-anchor="start" x="353.68" y="-870.2" font-family="Arial" font-size="14.00" fill="#666666">[constraint_type]</text>
<polygon fill="none" stroke="black" points="247.85,-827.2 247.85,-858 563.78,-858 563.78,-827.2 247.85,-827.2"/>
<text text-anchor="start" x="254.85" y="-839.4" font-family="Arial" font-size="14.00">reference </text>
<text text-anchor="start" x="317.88" y="-839.4" font-family="Arial" font-size="14.00" fill="#666666">[text]</text>
<polygon fill="none" stroke="black" points="247.85,-796.4 247.85,-827.2 563.78,-827.2 563.78,-796.4 247.85,-796.4"/>
<text text-anchor="start" x="254.85" y="-808.6" font-family="Arial" font-size="14.00">enum_ordered </text>
<text text-anchor="start" x="349.8" y="-808.6" font-family="Arial" font-size="14.00" fill="#666666">[boolean]</text>
<polygon fill="none" stroke="black" points="247.85,-765.6 247.85,-796.4 563.78,-796.4 563.78,-765.6 247.85,-765.6"/>
<text text-anchor="start" x="254.85" y="-777.8" font-family="Arial" font-size="14.00">object_class_key </text>
<text text-anchor="start" x="365.35" y="-777.8" font-family="Arial" font-size="14.00" fill="#666666">[text]</text>
</g>
<!-- public.data_type_atomic&#45;&gt;public.data_type -->
<g id="edge2" class="edge">
<title>public.data_type_atomic:model_key&#45;&gt;public.data_type:model_key</title>
<path fill="none" stroke="black" d="M574.97,-934.54C679.81,-924.41 535.26,-750.18 615.82,-660.8 685.64,-583.33 961.55,-527.6 1065.84,-527.6"/>
<polygon fill="black" stroke="black" points="575.11,-934.53 564.91,-930.49 569.78,-934.77 565.45,-934.97 565.45,-934.97 565.45,-934.97 569.78,-934.77 565.32,-939.48 575.11,-934.53"/>
<text text-anchor="start" x="7" y="-945" font-family="Arial" font-size="10.00">FOREIGN KEY (model_key, data_type_key) REFERENCES data_type(model_key, data_type_key) ON DELETE CASCADE</text>
</g>
<!-- public.data_type_field -->
<g id="node4" class="node">
<title>public.data_type_field</title>
<polygon fill="#efefef" stroke="none" points="667.85,-919.6 667.85,-955.2 967.78,-955.2 967.78,-919.6 667.85,-919.6"/>
<polygon fill="none" stroke="black" points="667.85,-919.6 667.85,-955.2 967.78,-955.2 967.78,-919.6 667.85,-919.6"/>
<text text-anchor="start" x="674.85" y="-933" font-family="Arial Bold" font-size="18.00">public.data_type_field</text>
<text text-anchor="start" x="836.29" y="-933" font-family="Arial" font-size="14.00">    </text>
<text text-anchor="start" x="867.41" y="-933" font-family="Arial" font-size="14.00" fill="#666666">[BASE TABLE]</text>
<polygon fill="none" stroke="black" points="667.85,-888.8 667.85,-919.6 967.78,-919.6 967.78,-888.8 667.85,-888.8"/>
<text text-anchor="start" x="674.85" y="-901" font-family="Arial" font-size="14.00">model_key </text>
<text text-anchor="start" x="746.44" y="-901" font-family="Arial" font-size="14.00" fill="#666666">[text]</text>
<polygon fill="none" stroke="black" points="667.85,-858 667.85,-888.8 967.78,-888.8 967.78,-858 667.85,-858"/>
<text text-anchor="start" x="674.85" y="-870.2" font-family="Arial" font-size="14.00">data_type_key </text>
<text text-anchor="start" x="769.81" y="-870.2" font-family="Arial" font-size="14.00" fill="#666666">[text]</text>
<polygon fill="none" stroke="black" points="667.85,-827.2 667.85,-858 967.78,-858 967.78,-827.2 667.85,-827.2"/>
<text text-anchor="start" x="674.85" y="-839.4" font-family="Arial" font-size="14.00">name </text>
<text text-anchor="start" x="713.76" y="-839.4" font-family="Arial" font-size="14.00" fill="#666666">[text]</text>
<polygon fill="none" stroke="black" points="667.85,-796.4 667.85,-827.2 967.78,-827.2 967.78,-796.4 667.85,-796.4"/>
<text text-anchor="start" x="674.85" y="-808.6" font-family="Arial" font-size="14.00">field_data_type_key </text>
<text text-anchor="start" x="803.27" y="-808.6" font-family="Arial" font-size="14.00" fill="#666666">[text]</text>
</g>
<!-- public.data_type_field&#45;&gt;public.data_type -->
<g id="edge3" class="edge">
<title>public.data_type_field:model_key&#45;&gt;public.data_type:model_key</title>
<path fill="none" stroke="black" d="M978.69,-901.8C1039.48,-869.72 974.89,-527.6 1065.84,-527.6"/>
<polygon fill="black" stroke="black" points="978.83,-901.76 968.05,-899.75 973.64,-903.02 969.43,-904.04 969.43,-904.04 969.43,-904.04 973.64,-903.02 970.17,-908.49 978.83,-901.76"/>
<text text-anchor="start" x="411" y="-914.2" font-family="Arial" font-size="10.00">FOREIGN KEY (model_key, data_type_key) REFERENCES data_type(model_key, data_type_key) ON DELETE CASCADE</text>
</g>
<!-- public.data_type_field&#45;&gt;public.data_type -->
<g id="edge4" class="edge">
<title>public.data_type_field:model_key&#45;&gt;public.data_type:model_key</title>
<path fill="none" stroke="black" d="M978.93,-902.61C1058.51,-876.19 991.63,-529.01 1065.39,-527.6"/>
<polygon fill="black" stroke="black" points="979.27,-902.56 968.68,-899.7 974,-903.41 969.72,-904.09 969.72,-904.09 969.72,-904.09 974,-903.41 970.11,-908.59 979.27,-902.56"/>
<text text-anchor="start" x="387.37" y="-888.2" font-family="Arial" font-size="10.00">FOREIGN KEY (model_key, field_data_type_key) REFERENCES data_type(model_key, data_type_key) ON DELETE CASCADE</text>
</g>
<!-- public.attribute -->
<g id="node5" class="node">
<title>public.attribute</title>
<polygon fill="#efefef" stroke="none" points="1071.84,-1012 1071.84,-1047.6 1319.79,-1047.6 1319.79,-1012 1071.84,-1012"/>
<polygon fill="none" stroke="black" points="1071.84,-1012 1071.84,-1047.6 1319.79,-1047.6 1319.79,-1012 1071.84,-1012"/>
<text text-anchor="start" x="1078.84" y="-1025.4" font-family="Arial Bold" font-size="18.00">public.attribute</text>
<text text-anchor="start" x="1188.3" y="-1025.4" font-family="Arial" font-size="14.00">    </text>
<text text-anchor="start" x="1219.42" y="-1025.4" font-family="Arial" font-size="14.00" fill="#666666">[BASE TABLE]</text>
<polygon fill="none" stroke="black" points="1071.84,-981.2 1071.84,-1012 1319.79,-1012 1319.79,-981.2 1071.84,-981.2"/>
<text text-anchor="start" x="1078.84" y="-993.4" font-family="Arial" font-size="14.00">model_key </text>
<text text-anchor="start" x="1150.43" y="-993.4" font-family="Arial" font-size="14.00" fill="#666666">[text]</text>
<polygon fill="none" stroke="black" points="1071.84,-950.4 1071.84,-981.2 1319.79,-981.2 1319.79,-950.4 1071.84,-950.4"/>
<text text-anchor="start" x="1078.84" y="-962.6" font-family="Arial" font-size="14.00">attribute_key </text>
<text text-anchor="start" x="1162.88" y="-962.6" font-family="Arial" font-size="14.00" fill="#666666">[text]</text>
<polygon fill="none" stroke="black" points="1071.84,-919.6 1071.84,-950.4 1319.79,-950.4 1319.79,-919.6 1071.84,-919.6"/>
<text text-anchor="start" x="1078.84" y="-931.8" font-family="Arial" font-size="14.00">class_key </text>
<text text-anchor="start" x="1144.2" y="-931.8" font-family="Arial" font-size="14.00" fill="#666666">[text]</text>
<polygon fill="none" stroke="black" points="1071.84,-888.8 1071.84,-919.6 1319.79,-919.6 1319.79,-888.8 1071.84,-888.8"/>
<text text-anchor="start" x="1078.84" y="-901" font-family="Arial" font-size="14.00">name </text>
<text text-anchor="start" x="1117.75" y="-901" font-family="Arial" font-size="14.00" fill="#666666">[text]</text>
<polygon fill="none" stroke="black" points="1071.84,-858 1071.84,-888.8 1319.79,-888.8 1319.79,-858 1071.84,-858"/>
<text text-anchor="start" x="1078.84" y="-870.2" font-family="Arial" font-size="14.00">details </text>
<text text-anchor="start" x="1123.2" y="-870.2" font-family="Arial" font-size="14.00" fill="#666666">[text]</text>
<polygon fill="none" stroke="black" points="1071.84,-827.2 1071.84,-858 1319.79,-858 1319.79,-827.2 1071.84,-827.2"/>
<text text-anchor="start" x="1078.84" y="-839.4" font-family="Arial" font-size="14.00">data_type_rules </text>
<text text-anchor="start" x="1182.35" y="-839.4" font-family="Arial" font-size="14.00" fill="#666666">[text]</text>
<polygon fill="none" stroke="black" points="1071.84,-796.4 1071.84,-827.2 1319.79,-827.2 1319.79,-796.4 1071.84,-796.4"/>
<text text-anchor="start" x="1078.84" y="-808.6" font-family="Arial" font-size="14.00">data_type_key </text>
<text text-anchor="start" x="1173.79" y="-808.6" font-family="Arial" font-size="14.00" fill="#666666">[text]</text>
<polygon fill="none" stroke="black" points="1071.84,-765.6 1071.84,-796.4 1319.79,-796.4 1319.79,-765.6 1071.84,-765.6"/>
<text text-anchor="start" x="1078.84" y="-777.8" font-family="Arial" font-size="14.00">derivation_policy_key </text>
<text text-anchor="start" x="1216.58" y="-777.8" font-family="Arial" font-size="14.00" fill="#666666">[text]</text>
<polygon fill="none" stroke="black" points="1071.84,-734.8 1071.84,-765.6 1319.79,-765.6 1319.79,-734.8 1071.84,-734.8"/>
<text text-anchor="start" x="1078.84" y="-747" font-family="Arial" font-size="14.00">nullable </text>
<text text-anchor="start" x="1130.99" y="-747" font-family="Arial" font-size="14.00" fill="#666666">[boolean]</text>
<polygon fill="none" stroke="black" points="1071.84,-704 1071.84,-734.8 1319.79,-734.8 1319.79,-704 1071.84,-704"/>
<text text-anchor="start" x="1078.84" y="-716.2" font-family="Arial" font-size="14.00">uml_comment </text>
<text text-anchor="start" x="1170.64" y="-716.2" font-family="Arial" font-size="14.00" fill="#666666">[text]</text>
</g>
<!-- public.attribute&#45;&gt;public.data_type -->
<g id="edge5" class="edge">
<title>public.attribute:model_key&#45;&gt;public.data_type:model_key</title>
<path fill="none" stroke="black" d="M1329.74,-991.65C1373.3,-941.53 1374.75,-527.6 1325.79,-527.6"/>
<polygon fill="black" stroke="black" points="1329.84,-991.6 1318.91,-992.5 1325.17,-994.18 1321.38,-996.28 1321.38,-996.28 1321.38,-996.28 1325.17,-994.18 1323.27,-1000.38 1329.84,-991.6"/>
<text text-anchor="start" x="763.01" y="-1006.6" font-family="Arial" font-size="10.00">FOREIGN KEY (model_key, data_type_key) REFERENCES data_type(model_key, data_type_key) ON DELETE CASCADE</text>
</g>
<!-- public.query_parameter -->
<g id="node6" class="node">
<title>public.query_parameter</title>
<polygon fill="#efefef" stroke="none" points="1423.86,-965.8 1423.86,-1001.4 1733.77,-1001.4 1733.77,-965.8 1423.86,-965.8"/>
<polygon fill="none" stroke="black" points="1423.86,-965.8 1423.86,-1001.4 1733.77,-1001.4 1733.77,-965.8 1423.86,-965.8"/>
<text text-anchor="start" x="1430.86" y="-979.2" font-family="Arial Bold" font-size="18.00">public.query_parameter</text>
<text text-anchor="start" x="1602.28" y="-979.2" font-family="Arial" font-size="14.00">    </text>
<text text-anchor="start" x="1633.4" y="-979.2" font-family="Arial" font-size="14.00" fill="#666666">[BASE TABLE]</text>
<polygon fill="none" stroke="black" points="1423.86,-935 1423.86,-965.8 1733.77,-965.8 1733.77,-935 1423.86,-935"/>
<text text-anchor="start" x="1430.86" y="-947.2" font-family="Arial" font-size="14.00">model_key </text>
<text text-anchor="start" x="1502.45" y="-947.2" font-family="Arial" font-size="14.00" fill="#666666">[text]</text>
<polygon fill="none" stroke="black" points="1423.86,-904.2 1423.86,-935 1733.77,-935 1733.77,-904.2 1423.86,-904.2"/>
<text text-anchor="start" x="1430.86" y="-916.4" font-family="Arial" font-size="14.00">query_key </text>
<text text-anchor="start" x="1499.34" y="-916.4" font-family="Arial" font-size="14.00" fill="#666666">[text]</text>
<polygon fill="none" stroke="black" points="1423.86,-873.4 1423.86,-904.2 1733.77,-904.2 1733.77,-873.4 1423.86,-873.4"/>
<text text-anchor="start" x="1430.86" y="-885.6" font-family="Arial" font-size="14.00">parameter_key </text>
<text text-anchor="start" x="1528.13" y="-885.6" font-family="Arial" font-size="14.00" fill="#666666">[text]</text>
<polygon fill="none" stroke="black" points="1423.86,-842.6 1423.86,-873.4 1733.77,-873.4 1733.77,-842.6 1423.86,-842.6"/>
<text text-anchor="start" x="1430.86" y="-854.8" font-family="Arial" font-size="14.00">name </text>
<text text-anchor="start" x="1469.77" y="-854.8" font-family="Arial" font-size="14.00" fill="#666666">[text]</text>
<polygon fill="none" stroke="black" points="1423.86,-811.8 1423.86,-842.6 1733.77,-842.6 1733.77,-811.8 1423.86,-811.8"/>
<text text-anchor="start" x="1430.86" y="-824" font-family="Arial" font-size="14.00">sort_order </text>
<text text-anchor="start" x="1498.56" y="-824" font-family="Arial" font-size="14.00" fill="#666666">[integer]</text>
<polygon fill="none" stroke="black" points="1423.86,-781 1423.86,-811.8 1733.77,-811.8 1733.77,-781 1423.86,-781"/>
<text text-anchor="start" x="1430.86" y="-793.2" font-family="Arial" font-size="14.00">data_type_rules </text>
<text text-anchor="start" x="1534.38" y="-793.2" font-family="Arial" font-size="14.00" fill="#666666">[text]</text>
<polygon fill="none" stroke="black" points="1423.86,-750.2 1423.86,-781 1733.77,-781 1733.77,-750.2 1423.86,-750.2"/>
<text text-anchor="start" x="1430.86" y="-762.4" font-family="Arial" font-size="14.00">data_type_key </text>
<text text-anchor="start" x="1525.82" y="-762.4" font-family="Arial" font-size="14.00" fill="#666666">[text]</text>
</g>
<!-- public.query_parameter&#45;&gt;public.data_type -->
<g id="edge6" class="edge">
<title>public.query_parameter:model_key&#45;&gt;public.data_type:model_key</title>
<path fill="none" stroke="black" d="M1412.9,-948.7C1333.3,-919.6 1418.61,-527.6 1325.79,-527.6"/>
<polygon fill="black" stroke="black" points="1412.67,-948.66 1421.77,-954.78 1417.93,-949.56 1422.2,-950.29 1422.2,-950.29 1422.2,-950.29 1417.93,-949.56 1423.29,-945.91 1412.67,-948.66"/>
<text text-anchor="start" x="1147.47" y="-934.4" font-family="Arial" font-size="10.00">FOREIGN KEY (model_key, data_type_key) REFERENCES data_type(model_key, data_type_key) ON DELETE CASCADE</text>
</g>
<!-- public.event_parameter -->
<g id="node7" class="node">
<title>public.event_parameter</title>
<polygon fill="#efefef" stroke="none" points="1837.86,-965.8 1837.86,-1001.4 2145.77,-1001.4 2145.77,-965.8 1837.86,-965.8"/>
<polygon fill="none" stroke="black" points="1837.86,-965.8 1837.86,-1001.4 2145.77,-1001.4 2145.77,-965.8 1837.86,-965.8"/>
<text text-anchor="start" x="1844.86" y="-979.2" font-family="Arial Bold" font-size="18.00">public.event_parameter</text>
<text text-anchor="start" x="2014.28" y="-979.2" font-family="Arial" font-size="14.00">    </text>
<text text-anchor="start" x="2045.4" y="-979.2" font-family="Arial" font-size="14.00" fill="#666666">[BASE TABLE]</text>
<polygon fill="none" stroke="black" points="1837.86,-935 1837.86,-965.8 2145.77,-965.8 2145.77,-935 1837.86,-935"/>
<text text-anchor="start" x="1844.86" y="-947.2" font-family="Arial" font-size="14.00">model_key </text>
<text text-anchor="start" x="1916.45" y="-947.2" font-family="Arial" font-size="14.00" fill="#666666">[text]</text>
<polygon fill="none" stroke="black" points="1837.86,-904.2 1837.86,-935 2145.77,-935 2145.77,-904.2 1837.86,-904.2"/>
<text text-anchor="start" x="1844.86" y="-916.4" font-family="Arial" font-size="14.00">event_key </text>
<text text-anchor="start" x="1912.57" y="-916.4" font-family="Arial" font-size="14.00" fill="#666666">[text]</text>
<polygon fill="none" stroke="black" points="1837.86,-873.4 1837.86,-904.2 2145.77,-904.2 2145.77,-873.4 1837.86,-873.4"/>
<text text-anchor="start" x="1844.86" y="-885.6" font-family="Arial" font-size="14.00">parameter_key </text>
<text text-anchor="start" x="1942.13" y="-885.6" font-family="Arial" font-size="14.00" fill="#666666">[text]</text>
<polygon fill="none" stroke="black" points="1837.86,-842.6 1837.86,-873.4 2145.77,-873.4 2145.77,-842.6 1837.86,-842.6"/>
<text text-anchor="start" x="1844.86" y="-854.8" font-family="Arial" font-size="14.00">name </text>
<text text-anchor="start" x="1883.77" y="-854.8" font-family="Arial" font-size="14.00" fill="#666666">[text]</text>
<polygon fill="none" stroke="black" points="1837.86,-811.8 1837.86,-842.6 2145.77,-842.6 2145.77,-811.8 1837.86,-811.8"/>
<text text-anchor="start" x="1844.86" y="-824" font-family="Arial" font-size="14.00">sort_order </text>
<text text-anchor="start" x="1912.56" y="-824" font-family="Arial" font-size="14.00" fill="#666666">[integer]</text>
<polygon fill="none" stroke="black" points="1837.86,-781 1837.86,-811.8 2145.77,-811.8 2145.77,-781 1837.86,-781"/>
<text text-anchor="start" x="1844.86" y="-793.2" font-family="Arial" font-size="14.00">data_type_rules </text>
<text text-anchor="start" x="1948.38" y="-793.2" font-family="Arial" font-size="14.00" fill="#666666">[text]</text>
<polygon fill="none" stroke="black" points="1837.86,-750.2 1837.86,-781 2145.77,-781 2145.77,-750.2 1837.86,-750.2"/>
<text text-anchor="start" x="1844.86" y="-762.4" font-family="Arial" font-size="14.00">data_type_key </text>
<text text-anchor="start" x="1939.82" y="-762.4" font-family="Arial" font-size="14.00" fill="#666666">[text]</text>
</g>
<!-- public.event_parameter&#45;&gt;public.data_type -->
<g id="edge7" class="edge">
<title>public.event_parameter:model_key&#45;&gt;public.data_type:model_key</title>
<path fill="none" stroke="black" d="M1826.9,-948.16C1777.75,-923.72 1827,-706.67 1785.82,-660.8 1714.71,-581.62 1432.22,-527.6 1325.79,-527.6"/>
<polygon fill="black" stroke="black" points="1826.78,-948.13 1835.55,-954.72 1831.98,-949.3 1836.21,-950.25 1836.21,-950.25 1836.21,-950.25 1831.98,-949.3 1837.52,-945.94 1826.78,-948.13"/>
<text text-anchor="start" x="1843.86" y="-960.4" font-family="Arial" font-size="10.00">FOREIGN KEY (model_key, data_type_key) REFERENCES data_type(model_key, data_type_key) ON DELETE CASCADE</text>
</g>
<!-- public.action_parameter -->
<g id="node8" class="node">
<title>public.action_parameter</title>
<polygon fill="#efefef" stroke="none" points="2250.36,-965.8 2250.36,-1001.4 2563.27,-1001.4 2563.27,-965.8 2250.36,-965.8"/>
<polygon fill="none" stroke="black" points="2250.36,-965.8 2250.36,-1001.4 2563.27,-1001.4 2563.27,-965.8 2250.36,-965.8"/>
<text text-anchor="start" x="2257.36" y="-979.2" font-family="Arial Bold" font-size="18.00">public.action_parameter</text>
<text text-anchor="start" x="2431.78" y="-979.2" font-family="Arial" font-size="14.00">    </text>
<text text-anchor="start" x="2462.9" y="-979.2" font-family="Arial" font-size="14.00" fill="#666666">[BASE TABLE]</text>
<polygon fill="none" stroke="black" points="2250.36,-935 2250.36,-965.8 2563.27,-965.8 2563.27,-935 2250.36,-935"/>
<text text-anchor="start" x="2257.36" y="-947.2" font-family="Arial" font-size="14.00">model_key </text>
<text text-anchor="start" x="2328.95" y="-947.2" font-family="Arial" font-size="14.00" fill="#666666">[text]</text>
<polygon fill="none" stroke="black" points="2250.36,-904.2 2250.36,-935 2563.27,-935 2563.27,-904.2 2250.36,-904.2"/>
<text text-anchor="start" x="2257.36" y="-916.4" font-family="Arial" font-size="14.00">action_key </text>
<text text-anchor="start" x="2328.18" y="-916.4" font-family="Arial" font-size="14.00" fill="#666666">[text]</text>
<polygon fill="none" stroke="black" points="2250.36,-873.4 2250.36,-904.2 2563.27,-904.2 2563.27,-873.4 2250.36,-873.4"/>
<text text-anchor="start" x="2257.36" y="-885.6" font-family="Arial" font-size="14.00">parameter_key </text>
<text text-anchor="start" x="2354.63" y="-885.6" font-family="Arial" font-size="14.00" fill="#666666">[text]</text>
<polygon fill="none" stroke="black" points="2250.36,-842.6 2250.36,-873.4 2563.27,-873.4 2563.27,-842.6 2250.36,-842.6"/>
<text text-anchor="start" x="2257.36" y="-854.8" font-family="Arial" font-size="14.00">name </text>
<text text-anchor="start" x="2296.27" y="-854.8" font-family="Arial" font-size="14.00" fill="#666666">[text]</text>
<polygon fill="none" stroke="black" points="2250.36,-811.8 2250.36,-842.6 2563.27,-842.6 2563.27,-811.8 2250.36,-811.8"/>
<text text-anchor="start" x="2257.36" y="-824" font-family="Arial" font-size="14.00">sort_order </text>
<text text-anchor="start" x="2325.06" y="-824" font-family="Arial" font-size="14.00" fill="#666666">[integer]</text>
<polygon fill="none" stroke="black" points="2250.36,-781 2250.36,-811.8 2563.27,-811.8 2563.27,-781 2250.36,-781"/>
<text text-anchor="start" x="2257.36" y="-793.2" font-family="Arial" font-size="14.00">data_type_rules </text>
<text text-anchor="start" x="2360.88" y="-793.2" font-family="Arial" font-size="14.00" fill="#666666">[text]</text>
<polygon fill="none" stroke="black" points="2250.36,-750.2 2250.36,-781 2563.27,-781 2563.27,-750.2 2250.36,-750.2"/>
<text text-anchor="start" x="2257.36" y="-762.4" font-family="Arial" font-size="14.00">data_type_key </text>
<text text-anchor="start" x="2352.32" y="-762.4" font-family="Arial" font-size="14.00" fill="#666666">[text]</text>
</g>
<!-- public.action_parameter&#45;&gt;public.data_type -->
<g id="edge8" class="edge">
<title>public.action_parameter:model_key&#45;&gt;public.data_type:model_key</title>
<path fill="none" stroke="black" d="M2238.97,-949.93C2128.2,-939.25 2288.74,-749.51 2197.82,-660.8 2127.66,-592.35 1423.81,-527.6 1325.79,-527.6"/>
<polygon fill="black" stroke="black" points="2239.04,-949.93 2248.82,-954.88 2244.37,-950.17 2248.69,-950.37 2248.69,-950.37 2248.69,-950.37 2244.37,-950.17 2249.23,-945.89 2239.04,-949.93"/>
<text text-anchor="start" x="2256.36" y="-934.4" font-family="Arial" font-size="10.00">FOREIGN KEY (model_key, data_type_key) REFERENCES data_type(model_key, data_type_key) ON DELETE CASCADE</text>
</g>
</g>
</svg>
