<?xml version="1.0" encoding="UTF-8" standalone="no"?>
<!DOCTYPE svg PUBLIC "-//W3C//DTD SVG 1.1//EN"
 "http://www.w3.org/Graphics/SVG/1.1/DTD/svg11.dtd">
<!-- Generated by graphviz version 12.1.2 (20240928.0832)
 -->
<!-- Title: public.class_invariant Pages: 1 -->
<svg width="1302pt" height="694pt"
 viewBox="0.00 0.00 1302.00 694.40" xmlns="http://www.w3.org/2000/svg" xmlns:xlink="http://www.w3.org/1999/xlink">
<g id="graph0" class="graph" transform="scale(1 1) rotate(0) translate(4 690.4)">
<title>public.class_invariant</title>
<polygon fill="white" stroke="none" points="-4,4 -4,-690.4 1298,-690.4 1298,4 -4,4"/>
<!-- public.class_invariant -->
<g id="node1" class="node">
<title>public.class_invariant</title>
<polygon fill="#efefef" stroke="none" points="495.7,-604.6 495.7,-640.2 791.65,-640.2 791.65,-604.6 495.7,-604.6"/>
<polygon fill="none" stroke="black" points="495.7,-604.6 495.7,-640.2 791.65,-640.2 791.65,-604.6 495.7,-604.6"/>
<text text-anchor="start" x="502.7" y="-618" font-family="Arial Bold" font-size="18.00">public.class_invariant</text>
<text text-anchor="start" x="660.16" y="-618" font-family="Arial" font-size="14.00">    </text>
<text text-anchor="start" x="691.28" y="-618" font-family="Arial" font-size="14.00" fill="#666666">[BASE TABLE]</text>
<polygon fill="none" stroke="black" points="495.7,-573.8 495.7,-604.6 791.65,-604.6 791.65,-573.8 495.7,-573.8"/>
<text text-anchor="start" x="502.7" y="-586" font-family="Arial" font-size="14.00">model_key </text>
<text text-anchor="start" x="574.3" y="-586" font-family="Arial" font-size="14.00" fill="#666666">[text]</text>
<polygon fill="none" stroke="black" points="495.7,-543 495.7,-573.8 791.65,-573.8 791.65,-543 495.7,-543"/>
<text text-anchor="start" x="502.7" y="-555.2" font-family="Arial" font-size="14.00">class_key </text>
<text text-anchor="start" x="568.06" y="-555.2" font-family="Arial" font-size="14.00" fill="#666666">[text]</text>
<polygon fill="none" stroke="black" points="495.7,-512.2 495.7,-543 791.65,-543 791.65,-512.2 495.7,-512.2"/>
<text text-anchor="start" x="502.7" y="-524.4" font-family="Arial" font-size="14.00">logic_key </text>
<text text-anchor="start" x="564.96" y="-524.4" font-family="Arial" font-size="14.00" fill="#666666">[text]</text>
<polygon fill="none" stroke="black" stroke-width="3" points="494.2,-510.7 494.2,-641.7 793.15,-641.7 793.15,-510.7 494.2,-510.7"/>
</g>
<!-- public.logic -->
<g id="node2" class="node">
<title>public.logic</title>
<polygon fill="#efefef" stroke="none" points="367.69,-351.2 367.69,-386.8 591.66,-386.8 591.66,-351.2 367.69,-351.2"/>
<polygon fill="none" stroke="black" points="367.69,-351.2 367.69,-386.8 591.66,-386.8 591.66,-351.2 367.69,-351.2"/>
<text text-anchor="start" x="374.69" y="-364.6" font-family="Arial Bold" font-size="18.00">public.logic</text>
<text text-anchor="start" x="460.17" y="-364.6" font-family="Arial" font-size="14.00">    </text>
<text text-anchor="start" x="491.29" y="-364.6" font-family="Arial" font-size="14.00" fill="#666666">[BASE TABLE]</text>
<polygon fill="none" stroke="black" points="367.69,-320.4 367.69,-351.2 591.66,-351.2 591.66,-320.4 367.69,-320.4"/>
<text text-anchor="start" x="374.69" y="-332.6" font-family="Arial" font-size="14.00">logic_key </text>
<text text-anchor="start" x="436.94" y="-332.6" font-family="Arial" font-size="14.00" fill="#666666">[text]</text>
<polygon fill="none" stroke="black" points="367.69,-289.6 367.69,-320.4 591.66,-320.4 591.66,-289.6 367.69,-289.6"/>
<text text-anchor="start" x="374.69" y="-301.8" font-family="Arial" font-size="14.00">model_key </text>
<text text-anchor="start" x="446.28" y="-301.8" font-family="Arial" font-size="14.00" fill="#666666">[text]</text>
<polygon fill="none" stroke="black" points="367.69,-258.8 367.69,-289.6 591.66,-289.6 591.66,-258.8 367.69,-258.8"/>
<text text-anchor="start" x="374.69" y="-271" font-family="Arial" font-size="14.00">sort_order </text>
<text text-anchor="start" x="442.39" y="-271" font-family="Arial" font-size="14.00" fill="#666666">[integer]</text>
<polygon fill="none" stroke="black" points="367.69,-228 367.69,-258.8 591.66,-258.8 591.66,-228 367.69,-228"/>
<text text-anchor="start" x="374.69" y="-240.2" font-family="Arial" font-size="14.00">logic_type </text>
<text text-anchor="start" x="441.62" y="-240.2" font-family="Arial" font-size="14.00" fill="#666666">[logic_type]</text>
<polygon fill="none" stroke="black" points="367.69,-197.2 367.69,-228 591.66,-228 591.66,-197.2 367.69,-197.2"/>
<text text-anchor="start" x="374.69" y="-209.4" font-family="Arial" font-size="14.00">description </text>
<text text-anchor="start" x="446.28" y="-209.4" font-family="Arial" font-size="14.00" fill="#666666">[text]</text>
<polygon fill="none" stroke="black" points="367.69,-166.4 367.69,-197.2 591.66,-197.2 591.66,-166.4 367.69,-166.4"/>
<text text-anchor="start" x="374.69" y="-178.6" font-family="Arial" font-size="14.00">target </text>
<text text-anchor="start" x="414.38" y="-178.6" font-family="Arial" font-size="14.00" fill="#666666">[text]</text>
<polygon fill="none" stroke="black" points="367.69,-135.6 367.69,-166.4 591.66,-166.4 591.66,-135.6 367.69,-135.6"/>
<text text-anchor="start" x="374.69" y="-147.8" font-family="Arial" font-size="14.00">notation </text>
<text text-anchor="start" x="428.4" y="-147.8" font-family="Arial" font-size="14.00" fill="#666666">[notation]</text>
<polygon fill="none" stroke="black" points="367.69,-104.8 367.69,-135.6 591.66,-135.6 591.66,-104.8 367.69,-104.8"/>
<text text-anchor="start" x="374.69" y="-117" font-family="Arial" font-size="14.00">specification </text>
<text text-anchor="start" x="455.62" y="-117" font-family="Arial" font-size="14.00" fill="#666666">[text]</text>
<polygon fill="none" stroke="black" points="367.69,-74 367.69,-104.8 591.66,-104.8 591.66,-74 367.69,-74"/>
<text text-anchor="start" x="374.69" y="-86.2" font-family="Arial" font-size="14.00">target_type_notation </text>
<text text-anchor="start" x="506.23" y="-86.2" font-family="Arial" font-size="14.00" fill="#666666">[notation]</text>
<polygon fill="none" stroke="black" points="367.69,-43.2 367.69,-74 591.66,-74 591.66,-43.2 367.69,-43.2"/>
<text text-anchor="start" x="374.69" y="-55.4" font-family="Arial" font-size="14.00">target_type_specification </text>
<text text-anchor="start" x="533.45" y="-55.4" font-family="Arial" font-size="14.00" fill="#666666">[text]</text>
</g>
<!-- public.class_invariant&#45;&gt;public.logic -->
<g id="edge1" class="edge">
<title>public.class_invariant:model_key&#45;&gt;public.logic:model_key</title>
<path fill="none" stroke="black" d="M484.56,-588.14C443.31,-578.65 466.48,-507.81 495.7,-466 521.8,-428.66 565.57,-467.34 591.66,-430 623.49,-384.46 648.22,-305 592.66,-305"/>
<polygon fill="black" stroke="black" points="484.42,-588.12 493.9,-593.64 489.73,-588.68 494.04,-589.13 494.04,-589.13 494.04,-589.13 489.73,-588.68 494.84,-584.69 484.42,-588.12"/>
<text text-anchor="start" x="7" y="-599.2" font-family="Arial" font-size="10.00">FOREIGN KEY (model_key, logic_key) REFERENCES logic(model_key, logic_key) ON DELETE CASCADE</text>
</g>
<!-- public.class -->
<g id="node3" class="node">
<title>public.class</title>
<polygon fill="#efefef" stroke="none" points="696.19,-335.8 696.19,-371.4 919.16,-371.4 919.16,-335.8 696.19,-335.8"/>
<polygon fill="none" stroke="black" points="696.19,-335.8 696.19,-371.4 919.16,-371.4 919.16,-335.8 696.19,-335.8"/>
<text text-anchor="start" x="703.19" y="-349.2" font-family="Arial Bold" font-size="18.00">public.class</text>
<text text-anchor="start" x="787.67" y="-349.2" font-family="Arial" font-size="14.00">    </text>
<text text-anchor="start" x="818.79" y="-349.2" font-family="Arial" font-size="14.00" fill="#666666">[BASE TABLE]</text>
<polygon fill="none" stroke="black" points="696.19,-305 696.19,-335.8 919.16,-335.8 919.16,-305 696.19,-305"/>
<text text-anchor="start" x="703.19" y="-317.2" font-family="Arial" font-size="14.00">model_key </text>
<text text-anchor="start" x="774.78" y="-317.2" font-family="Arial" font-size="14.00" fill="#666666">[text]</text>
<polygon fill="none" stroke="black" points="696.19,-274.2 696.19,-305 919.16,-305 919.16,-274.2 696.19,-274.2"/>
<text text-anchor="start" x="703.19" y="-286.4" font-family="Arial" font-size="14.00">class_key </text>
<text text-anchor="start" x="768.55" y="-286.4" font-family="Arial" font-size="14.00" fill="#666666">[text]</text>
<polygon fill="none" stroke="black" points="696.19,-243.4 696.19,-274.2 919.16,-274.2 919.16,-243.4 696.19,-243.4"/>
<text text-anchor="start" x="703.19" y="-255.6" font-family="Arial" font-size="14.00">name </text>
<text text-anchor="start" x="742.1" y="-255.6" font-family="Arial" font-size="14.00" fill="#666666">[text]</text>
<polygon fill="none" stroke="black" points="696.19,-212.6 696.19,-243.4 919.16,-243.4 919.16,-212.6 696.19,-212.6"/>
<text text-anchor="start" x="703.19" y="-224.8" font-family="Arial" font-size="14.00">subdomain_key </text>
<text text-anchor="start" x="805.14" y="-224.8" font-family="Arial" font-size="14.00" fill="#666666">[text]</text>
<polygon fill="none" stroke="black" points="696.19,-181.8 696.19,-212.6 919.16,-212.6 919.16,-181.8 696.19,-181.8"/>
<text text-anchor="start" x="703.19" y="-194" font-family="Arial" font-size="14.00">actor_key </text>
<text text-anchor="start" x="767.78" y="-194" font-family="Arial" font-size="14.00" fill="#666666">[text]</text>
<polygon fill="none" stroke="black" points="696.19,-151 696.19,-181.8 919.16,-181.8 919.16,-151 696.19,-151"/>
<text text-anchor="start" x="703.19" y="-163.2" font-family="Arial" font-size="14.00">superclass_of_key </text>
<text text-anchor="start" x="823.03" y="-163.2" font-family="Arial" font-size="14.00" fill="#666666">[text]</text>
<polygon fill="none" stroke="black" points="696.19,-120.2 696.19,-151 919.16,-151 919.16,-120.2 696.19,-120.2"/>
<text text-anchor="start" x="703.19" y="-132.4" font-family="Arial" font-size="14.00">subclass_of_key </text>
<text text-anchor="start" x="810.58" y="-132.4" font-family="Arial" font-size="14.00" fill="#666666">[text]</text>
<polygon fill="none" stroke="black" points="696.19,-89.4 696.19,-120.2 919.16,-120.2 919.16,-89.4 696.19,-89.4"/>
<text text-anchor="start" x="703.19" y="-101.6" font-family="Arial" font-size="14.00">details </text>
<text text-anchor="start" x="747.55" y="-101.6" font-family="Arial" font-size="14.00" fill="#666666">[text]</text>
<polygon fill="none" stroke="black" points="696.19,-58.6 696.19,-89.4 919.16,-89.4 919.16,-58.6 696.19,-58.6"/>
<text text-anchor="start" x="703.19" y="-70.8" font-family="Arial" font-size="14.00">uml_comment </text>
<text text-anchor="start" x="795" y="-70.8" font-family="Arial" font-size="14.00" fill="#666666">[text]</text>
</g>
<!-- public.class_invariant&#45;&gt;public.class -->
<g id="edge2" class="edge">
<title>public.class_invariant:model_key&#45;&gt;public.class:model_key</title>
<path fill="none" stroke="black" d="M803.01,-588.11C843.54,-578.62 817.93,-509.6 791.65,-466 766.77,-424.73 721.12,-455.84 696.19,-414.6 674.53,-378.77 653.32,-320.4 695.19,-320.4"/>
<polygon fill="black" stroke="black" points="802.93,-588.11 792.51,-584.69 797.62,-588.67 793.31,-589.13 793.31,-589.13 793.31,-589.13 797.62,-588.67 793.45,-593.64 802.93,-588.11"/>
<text text-anchor="start" x="799.65" y="-599.2" font-family="Arial" font-size="10.00">FOREIGN KEY (model_key, class_key) REFERENCES class(model_key, class_key) ON DELETE CASCADE</text>
</g>
</g>
</svg>
