<?xml version="1.0" encoding="UTF-8" standalone="no"?>
<!DOCTYPE svg PUBLIC "-//W3C//DTD SVG 1.1//EN"
 "http://www.w3.org/Graphics/SVG/1.1/DTD/svg11.dtd">
<!-- Generated by graphviz version 12.1.2 (20240928.0832)
 -->
<!-- Title: public.action_guarantee Pages: 1 -->
<svg width="1329pt" height="571pt"
 viewBox="0.00 0.00 1328.67 571.20" xmlns="http://www.w3.org/2000/svg" xmlns:xlink="http://www.w3.org/1999/xlink">
<g id="graph0" class="graph" transform="scale(1 1) rotate(0) translate(4 567.2)">
<title>public.action_guarantee</title>
<polygon fill="white" stroke="none" points="-4,4 -4,-567.2 1324.67,-567.2 1324.67,4 -4,4"/>
<!-- public.action_guarantee -->
<g id="node1" class="node">
<title>public.action_guarantee</title>
<polygon fill="#efefef" stroke="none" points="495.7,-481.4 495.7,-517 806.62,-517 806.62,-481.4 495.7,-481.4"/>
<polygon fill="none" stroke="black" points="495.7,-481.4 495.7,-517 806.62,-517 806.62,-481.4 495.7,-481.4"/>
<text text-anchor="start" x="502.7" y="-494.8" font-family="Arial Bold" font-size="18.00">public.action_guarantee</text>
<text text-anchor="start" x="675.13" y="-494.8" font-family="Arial" font-size="14.00">    </text>
<text text-anchor="start" x="706.24" y="-494.8" font-family="Arial" font-size="14.00" fill="#666666">[BASE TABLE]</text>
<polygon fill="none" stroke="black" points="495.7,-450.6 495.7,-481.4 806.62,-481.4 806.62,-450.6 495.7,-450.6"/>
<text text-anchor="start" x="502.7" y="-462.8" font-family="Arial" font-size="14.00">model_key </text>
<text text-anchor="start" x="574.3" y="-462.8" font-family="Arial" font-size="14.00" fill="#666666">[text]</text>
<polygon fill="none" stroke="black" points="495.7,-419.8 495.7,-450.6 806.62,-450.6 806.62,-419.8 495.7,-419.8"/>
<text text-anchor="start" x="502.7" y="-432" font-family="Arial" font-size="14.00">action_key </text>
<text text-anchor="start" x="573.52" y="-432" font-family="Arial" font-size="14.00" fill="#666666">[text]</text>
<polygon fill="none" stroke="black" points="495.7,-389 495.7,-419.8 806.62,-419.8 806.62,-389 495.7,-389"/>
<text text-anchor="start" x="502.7" y="-401.2" font-family="Arial" font-size="14.00">logic_key </text>
<text text-anchor="start" x="564.96" y="-401.2" font-family="Arial" font-size="14.00" fill="#666666">[text]</text>
<polygon fill="none" stroke="black" stroke-width="3" points="494.2,-387.5 494.2,-518.5 808.12,-518.5 808.12,-387.5 494.2,-387.5"/>
</g>
<!-- public.logic -->
<g id="node2" class="node">
<title>public.logic</title>
<polygon fill="#efefef" stroke="none" points="373.17,-228 373.17,-263.6 597.15,-263.6 597.15,-228 373.17,-228"/>
<polygon fill="none" stroke="black" points="373.17,-228 373.17,-263.6 597.15,-263.6 597.15,-228 373.17,-228"/>
<text text-anchor="start" x="380.17" y="-241.4" font-family="Arial Bold" font-size="18.00">public.logic</text>
<text text-anchor="start" x="465.66" y="-241.4" font-family="Arial" font-size="14.00">    </text>
<text text-anchor="start" x="496.77" y="-241.4" font-family="Arial" font-size="14.00" fill="#666666">[BASE TABLE]</text>
<polygon fill="none" stroke="black" points="373.17,-197.2 373.17,-228 597.15,-228 597.15,-197.2 373.17,-197.2"/>
<text text-anchor="start" x="380.17" y="-209.4" font-family="Arial" font-size="14.00">logic_key </text>
<text text-anchor="start" x="442.43" y="-209.4" font-family="Arial" font-size="14.00" fill="#666666">[text]</text>
<polygon fill="none" stroke="black" points="373.17,-166.4 373.17,-197.2 597.15,-197.2 597.15,-166.4 373.17,-166.4"/>
<text text-anchor="start" x="380.17" y="-178.6" font-family="Arial" font-size="14.00">model_key </text>
<text text-anchor="start" x="451.77" y="-178.6" font-family="Arial" font-size="14.00" fill="#666666">[text]</text>
<polygon fill="none" stroke="black" points="373.17,-135.6 373.17,-166.4 597.15,-166.4 597.15,-135.6 373.17,-135.6"/>
<text text-anchor="start" x="380.17" y="-147.8" font-family="Arial" font-size="14.00">sort_order </text>
<text text-anchor="start" x="447.87" y="-147.8" font-family="Arial" font-size="14.00" fill="#666666">[integer]</text>
<polygon fill="none" stroke="black" points="373.17,-104.8 373.17,-135.6 597.15,-135.6 597.15,-104.8 373.17,-104.8"/>
<text text-anchor="start" x="380.17" y="-117" font-family="Arial" font-size="14.00">description </text>
<text text-anchor="start" x="451.77" y="-117" font-family="Arial" font-size="14.00" fill="#666666">[text]</text>
<polygon fill="none" stroke="black" points="373.17,-74 373.17,-104.8 597.15,-104.8 597.15,-74 373.17,-74"/>
<text text-anchor="start" x="380.17" y="-86.2" font-family="Arial" font-size="14.00">notation </text>
<text text-anchor="start" x="433.88" y="-86.2" font-family="Arial" font-size="14.00" fill="#666666">[notation]</text>
<polygon fill="none" stroke="black" points="373.17,-43.2 373.17,-74 597.15,-74 597.15,-43.2 373.17,-43.2"/>
<text text-anchor="start" x="380.17" y="-55.4" font-family="Arial" font-size="14.00">specification </text>
<text text-anchor="start" x="461.1" y="-55.4" font-family="Arial" font-size="14.00" fill="#666666">[text]</text>
</g>
<!-- public.action_guarantee&#45;&gt;public.logic -->
<g id="edge1" class="edge">
<title>public.action_guarantee:model_key&#45;&gt;public.logic:model_key</title>
<path fill="none" stroke="black" d="M484.55,-464.93C443.26,-455.41 466.11,-384.35 495.7,-342.8 523.46,-303.83 569.39,-345.77 597.15,-306.8 629.38,-261.55 653.7,-181.8 598.15,-181.8"/>
<polygon fill="black" stroke="black" points="484.43,-464.92 493.9,-470.44 489.73,-465.48 494.04,-465.93 494.04,-465.93 494.04,-465.93 489.73,-465.48 494.84,-461.49 484.43,-464.92"/>
<text text-anchor="start" x="7" y="-476" font-family="Arial" font-size="10.00">FOREIGN KEY (model_key, logic_key) REFERENCES logic(model_key, logic_key) ON DELETE CASCADE</text>
</g>
<!-- public.action -->
<g id="node3" class="node">
<title>public.action</title>
<polygon fill="#efefef" stroke="none" points="701.18,-212.6 701.18,-248.2 933.14,-248.2 933.14,-212.6 701.18,-212.6"/>
<polygon fill="none" stroke="black" points="701.18,-212.6 701.18,-248.2 933.14,-248.2 933.14,-212.6 701.18,-212.6"/>
<text text-anchor="start" x="708.18" y="-226" font-family="Arial Bold" font-size="18.00">public.action</text>
<text text-anchor="start" x="801.65" y="-226" font-family="Arial" font-size="14.00">    </text>
<text text-anchor="start" x="832.77" y="-226" font-family="Arial" font-size="14.00" fill="#666666">[BASE TABLE]</text>
<polygon fill="none" stroke="black" points="701.18,-181.8 701.18,-212.6 933.14,-212.6 933.14,-181.8 701.18,-181.8"/>
<text text-anchor="start" x="708.18" y="-194" font-family="Arial" font-size="14.00">model_key </text>
<text text-anchor="start" x="779.77" y="-194" font-family="Arial" font-size="14.00" fill="#666666">[text]</text>
<polygon fill="none" stroke="black" points="701.18,-151 701.18,-181.8 933.14,-181.8 933.14,-151 701.18,-151"/>
<text text-anchor="start" x="708.18" y="-163.2" font-family="Arial" font-size="14.00">class_key </text>
<text text-anchor="start" x="773.54" y="-163.2" font-family="Arial" font-size="14.00" fill="#666666">[text]</text>
<polygon fill="none" stroke="black" points="701.18,-120.2 701.18,-151 933.14,-151 933.14,-120.2 701.18,-120.2"/>
<text text-anchor="start" x="708.18" y="-132.4" font-family="Arial" font-size="14.00">action_key </text>
<text text-anchor="start" x="779" y="-132.4" font-family="Arial" font-size="14.00" fill="#666666">[text]</text>
<polygon fill="none" stroke="black" points="701.18,-89.4 701.18,-120.2 933.14,-120.2 933.14,-89.4 701.18,-89.4"/>
<text text-anchor="start" x="708.18" y="-101.6" font-family="Arial" font-size="14.00">name </text>
<text text-anchor="start" x="747.09" y="-101.6" font-family="Arial" font-size="14.00" fill="#666666">[text]</text>
<polygon fill="none" stroke="black" points="701.18,-58.6 701.18,-89.4 933.14,-89.4 933.14,-58.6 701.18,-58.6"/>
<text text-anchor="start" x="708.18" y="-70.8" font-family="Arial" font-size="14.00">details </text>
<text text-anchor="start" x="752.54" y="-70.8" font-family="Arial" font-size="14.00" fill="#666666">[text]</text>
</g>
<!-- public.action_guarantee&#45;&gt;public.action -->
<g id="edge2" class="edge">
<title>public.action_guarantee:model_key&#45;&gt;public.action:model_key</title>
<path fill="none" stroke="black" d="M817.99,-464.9C858.63,-455.34 833.77,-385.86 806.62,-342.8 778.81,-298.7 729.04,-335.46 701.18,-291.4 678.8,-256.01 658.31,-197.2 700.18,-197.2"/>
<polygon fill="black" stroke="black" points="817.89,-464.91 807.47,-461.49 812.59,-465.47 808.28,-465.93 808.28,-465.93 808.28,-465.93 812.59,-465.47 808.42,-470.44 817.89,-464.91"/>
<text text-anchor="start" x="814.62" y="-476" font-family="Arial" font-size="10.00">FOREIGN KEY (model_key, action_key) REFERENCES action(model_key, action_key) ON DELETE CASCADE</text>
</g>
</g>
</svg>
