<?xml version="1.0" encoding="UTF-8" standalone="no"?>
<!DOCTYPE svg PUBLIC "-//W3C//DTD SVG 1.1//EN"
 "http://www.w3.org/Graphics/SVG/1.1/DTD/svg11.dtd">
<!-- Generated by graphviz version 12.1.2 (20240928.0832)
 -->
<!-- Title: public.action_require Pages: 1 -->
<svg width="1310pt" height="602pt"
 viewBox="0.00 0.00 1309.69 602.00" xmlns="http://www.w3.org/2000/svg" xmlns:xlink="http://www.w3.org/1999/xlink">
<g id="graph0" class="graph" transform="scale(1 1) rotate(0) translate(4 598)">
<title>public.action_require</title>
<polygon fill="white" stroke="none" points="-4,4 -4,-598 1305.69,-598 1305.69,4 -4,4"/>
<!-- public.action_require -->
<g id="node1" class="node">
<title>public.action_require</title>
<polygon fill="#efefef" stroke="none" points="495.7,-512.2 495.7,-547.8 787.63,-547.8 787.63,-512.2 495.7,-512.2"/>
<polygon fill="none" stroke="black" points="495.7,-512.2 495.7,-547.8 787.63,-547.8 787.63,-512.2 495.7,-512.2"/>
<text text-anchor="start" x="502.7" y="-525.6" font-family="Arial Bold" font-size="18.00">public.action_require</text>
<text text-anchor="start" x="656.14" y="-525.6" font-family="Arial" font-size="14.00">    </text>
<text text-anchor="start" x="687.26" y="-525.6" font-family="Arial" font-size="14.00" fill="#666666">[BASE TABLE]</text>
<polygon fill="none" stroke="black" points="495.7,-481.4 495.7,-512.2 787.63,-512.2 787.63,-481.4 495.7,-481.4"/>
<text text-anchor="start" x="502.7" y="-493.6" font-family="Arial" font-size="14.00">model_key </text>
<text text-anchor="start" x="574.3" y="-493.6" font-family="Arial" font-size="14.00" fill="#666666">[text]</text>
<polygon fill="none" stroke="black" points="495.7,-450.6 495.7,-481.4 787.63,-481.4 787.63,-450.6 495.7,-450.6"/>
<text text-anchor="start" x="502.7" y="-462.8" font-family="Arial" font-size="14.00">action_key </text>
<text text-anchor="start" x="573.52" y="-462.8" font-family="Arial" font-size="14.00" fill="#666666">[text]</text>
<polygon fill="none" stroke="black" points="495.7,-419.8 495.7,-450.6 787.63,-450.6 787.63,-419.8 495.7,-419.8"/>
<text text-anchor="start" x="502.7" y="-432" font-family="Arial" font-size="14.00">logic_key </text>
<text text-anchor="start" x="564.96" y="-432" font-family="Arial" font-size="14.00" fill="#666666">[text]</text>
<polygon fill="none" stroke="black" stroke-width="3" points="494.2,-418.3 494.2,-549.3 789.13,-549.3 789.13,-418.3 494.2,-418.3"/>
</g>
<!-- public.logic -->
<g id="node2" class="node">
<title>public.logic</title>
<polygon fill="#efefef" stroke="none" points="363.68,-258.8 363.68,-294.4 587.65,-294.4 587.65,-258.8 363.68,-258.8"/>
<polygon fill="none" stroke="black" points="363.68,-258.8 363.68,-294.4 587.65,-294.4 587.65,-258.8 363.68,-258.8"/>
<text text-anchor="start" x="370.68" y="-272.2" font-family="Arial Bold" font-size="18.00">public.logic</text>
<text text-anchor="start" x="456.16" y="-272.2" font-family="Arial" font-size="14.00">    </text>
<text text-anchor="start" x="487.28" y="-272.2" font-family="Arial" font-size="14.00" fill="#666666">[BASE TABLE]</text>
<polygon fill="none" stroke="black" points="363.68,-228 363.68,-258.8 587.65,-258.8 587.65,-228 363.68,-228"/>
<text text-anchor="start" x="370.68" y="-240.2" font-family="Arial" font-size="14.00">logic_key </text>
<text text-anchor="start" x="432.94" y="-240.2" font-family="Arial" font-size="14.00" fill="#666666">[text]</text>
<polygon fill="none" stroke="black" points="363.68,-197.2 363.68,-228 587.65,-228 587.65,-197.2 363.68,-197.2"/>
<text text-anchor="start" x="370.68" y="-209.4" font-family="Arial" font-size="14.00">model_key </text>
<text text-anchor="start" x="442.27" y="-209.4" font-family="Arial" font-size="14.00" fill="#666666">[text]</text>
<polygon fill="none" stroke="black" points="363.68,-166.4 363.68,-197.2 587.65,-197.2 587.65,-166.4 363.68,-166.4"/>
<text text-anchor="start" x="370.68" y="-178.6" font-family="Arial" font-size="14.00">sort_order </text>
<text text-anchor="start" x="438.38" y="-178.6" font-family="Arial" font-size="14.00" fill="#666666">[integer]</text>
<polygon fill="none" stroke="black" points="363.68,-135.6 363.68,-166.4 587.65,-166.4 587.65,-135.6 363.68,-135.6"/>
<text text-anchor="start" x="370.68" y="-147.8" font-family="Arial" font-size="14.00">logic_type </text>
<text text-anchor="start" x="437.61" y="-147.8" font-family="Arial" font-size="14.00" fill="#666666">[logic_type]</text>
<polygon fill="none" stroke="black" points="363.68,-104.8 363.68,-135.6 587.65,-135.6 587.65,-104.8 363.68,-104.8"/>
<text text-anchor="start" x="370.68" y="-117" font-family="Arial" font-size="14.00">description </text>
<text text-anchor="start" x="442.27" y="-117" font-family="Arial" font-size="14.00" fill="#666666">[text]</text>
<polygon fill="none" stroke="black" points="363.68,-74 363.68,-104.8 587.65,-104.8 587.65,-74 363.68,-74"/>
<text text-anchor="start" x="370.68" y="-86.2" font-family="Arial" font-size="14.00">notation </text>
<text text-anchor="start" x="424.39" y="-86.2" font-family="Arial" font-size="14.00" fill="#666666">[notation]</text>
<polygon fill="none" stroke="black" points="363.68,-43.2 363.68,-74 587.65,-74 587.65,-43.2 363.68,-43.2"/>
<text text-anchor="start" x="370.68" y="-55.4" font-family="Arial" font-size="14.00">specification </text>
<text text-anchor="start" x="451.61" y="-55.4" font-family="Arial" font-size="14.00" fill="#666666">[text]</text>
</g>
<!-- public.action_require&#45;&gt;public.logic -->
<g id="edge1" class="edge">
<title>public.action_require:model_key&#45;&gt;public.logic:model_key</title>
<path fill="none" stroke="black" d="M484.56,-495.74C443.35,-486.28 466.78,-415.62 495.7,-373.6 520.59,-337.45 562.77,-373.75 587.65,-337.6 619.15,-291.83 644.21,-212.6 588.65,-212.6"/>
<polygon fill="black" stroke="black" points="484.42,-495.73 493.9,-501.24 489.73,-496.28 494.04,-496.73 494.04,-496.73 494.04,-496.73 489.73,-496.28 494.84,-492.29 484.42,-495.73"/>
<text text-anchor="start" x="7" y="-506.8" font-family="Arial" font-size="10.00">FOREIGN KEY (model_key, logic_key) REFERENCES logic(model_key, logic_key) ON DELETE CASCADE</text>
</g>
<!-- public.action -->
<g id="node3" class="node">
<title>public.action</title>
<polygon fill="#efefef" stroke="none" points="691.69,-228 691.69,-263.6 923.65,-263.6 923.65,-228 691.69,-228"/>
<polygon fill="none" stroke="black" points="691.69,-228 691.69,-263.6 923.65,-263.6 923.65,-228 691.69,-228"/>
<text text-anchor="start" x="698.69" y="-241.4" font-family="Arial Bold" font-size="18.00">public.action</text>
<text text-anchor="start" x="792.16" y="-241.4" font-family="Arial" font-size="14.00">    </text>
<text text-anchor="start" x="823.28" y="-241.4" font-family="Arial" font-size="14.00" fill="#666666">[BASE TABLE]</text>
<polygon fill="none" stroke="black" points="691.69,-197.2 691.69,-228 923.65,-228 923.65,-197.2 691.69,-197.2"/>
<text text-anchor="start" x="698.69" y="-209.4" font-family="Arial" font-size="14.00">model_key </text>
<text text-anchor="start" x="770.28" y="-209.4" font-family="Arial" font-size="14.00" fill="#666666">[text]</text>
<polygon fill="none" stroke="black" points="691.69,-166.4 691.69,-197.2 923.65,-197.2 923.65,-166.4 691.69,-166.4"/>
<text text-anchor="start" x="698.69" y="-178.6" font-family="Arial" font-size="14.00">class_key </text>
<text text-anchor="start" x="764.05" y="-178.6" font-family="Arial" font-size="14.00" fill="#666666">[text]</text>
<polygon fill="none" stroke="black" points="691.69,-135.6 691.69,-166.4 923.65,-166.4 923.65,-135.6 691.69,-135.6"/>
<text text-anchor="start" x="698.69" y="-147.8" font-family="Arial" font-size="14.00">action_key </text>
<text text-anchor="start" x="769.51" y="-147.8" font-family="Arial" font-size="14.00" fill="#666666">[text]</text>
<polygon fill="none" stroke="black" points="691.69,-104.8 691.69,-135.6 923.65,-135.6 923.65,-104.8 691.69,-104.8"/>
<text text-anchor="start" x="698.69" y="-117" font-family="Arial" font-size="14.00">name </text>
<text text-anchor="start" x="737.6" y="-117" font-family="Arial" font-size="14.00" fill="#666666">[text]</text>
<polygon fill="none" stroke="black" points="691.69,-74 691.69,-104.8 923.65,-104.8 923.65,-74 691.69,-74"/>
<text text-anchor="start" x="698.69" y="-86.2" font-family="Arial" font-size="14.00">details </text>
<text text-anchor="start" x="743.05" y="-86.2" font-family="Arial" font-size="14.00" fill="#666666">[text]</text>
</g>
<!-- public.action_require&#45;&gt;public.action -->
<g id="edge2" class="edge">
<title>public.action_require:model_key&#45;&gt;public.action:model_key</title>
<path fill="none" stroke="black" d="M798.95,-495.73C839.16,-486.42 811.38,-418.63 787.63,-373.6 763.39,-327.64 715.98,-352.73 691.69,-306.8 672.11,-269.79 648.82,-212.6 690.69,-212.6"/>
<polygon fill="black" stroke="black" points="798.91,-495.73 788.5,-492.29 793.6,-496.28 789.3,-496.73 789.3,-496.73 789.3,-496.73 793.6,-496.28 789.43,-501.24 798.91,-495.73"/>
<text text-anchor="start" x="795.63" y="-506.8" font-family="Arial" font-size="10.00">FOREIGN KEY (model_key, action_key) REFERENCES action(model_key, action_key) ON DELETE CASCADE</text>
</g>
</g>
</svg>
