<?xml version="1.0" encoding="UTF-8" standalone="no"?>
<!DOCTYPE svg PUBLIC "-//W3C//DTD SVG 1.1//EN"
 "http://www.w3.org/Graphics/SVG/1.1/DTD/svg11.dtd">
<!-- Generated by graphviz version 12.1.2 (20240928.0832)
 -->
<!-- Title: public.association Pages: 1 -->
<svg width="1242pt" height="1314pt"
 viewBox="0.00 0.00 1241.79 1314.40" xmlns="http://www.w3.org/2000/svg" xmlns:xlink="http://www.w3.org/1999/xlink">
<g id="graph0" class="graph" transform="scale(1 1) rotate(0) translate(4 1310.4)">
<title>public.association</title>
<polygon fill="white" stroke="none" points="-4,4 -4,-1310.4 1237.79,-1310.4 1237.79,4 -4,4"/>
<!-- public.association -->
<g id="node1" class="node">
<title>public.association</title>
<polygon fill="#efefef" stroke="none" points="407.88,-912.6 407.88,-948.2 675.84,-948.2 675.84,-912.6 407.88,-912.6"/>
<polygon fill="none" stroke="black" points="407.88,-912.6 407.88,-948.2 675.84,-948.2 675.84,-912.6 407.88,-912.6"/>
<text text-anchor="start" x="414.88" y="-926" font-family="Arial Bold" font-size="18.00">public.association</text>
<text text-anchor="start" x="544.35" y="-926" font-family="Arial" font-size="14.00">    </text>
<text text-anchor="start" x="575.47" y="-926" font-family="Arial" font-size="14.00" fill="#666666">[BASE TABLE]</text>
<polygon fill="none" stroke="black" points="407.88,-881.8 407.88,-912.6 675.84,-912.6 675.84,-881.8 407.88,-881.8"/>
<text text-anchor="start" x="414.88" y="-894" font-family="Arial" font-size="14.00">model_key </text>
<text text-anchor="start" x="486.47" y="-894" font-family="Arial" font-size="14.00" fill="#666666">[text]</text>
<polygon fill="none" stroke="black" points="407.88,-851 407.88,-881.8 675.84,-881.8 675.84,-851 407.88,-851"/>
<text text-anchor="start" x="414.88" y="-863.2" font-family="Arial" font-size="14.00">association_key </text>
<text text-anchor="start" x="518.38" y="-863.2" font-family="Arial" font-size="14.00" fill="#666666">[text]</text>
<polygon fill="none" stroke="black" points="407.88,-820.2 407.88,-851 675.84,-851 675.84,-820.2 407.88,-820.2"/>
<text text-anchor="start" x="414.88" y="-832.4" font-family="Arial" font-size="14.00">from_class_key </text>
<text text-anchor="start" x="516.03" y="-832.4" font-family="Arial" font-size="14.00" fill="#666666">[text]</text>
<polygon fill="none" stroke="black" points="407.88,-789.4 407.88,-820.2 675.84,-820.2 675.84,-789.4 407.88,-789.4"/>
<text text-anchor="start" x="414.88" y="-801.6" font-family="Arial" font-size="14.00">from_multiplicity_lower </text>
<text text-anchor="start" x="560.36" y="-801.6" font-family="Arial" font-size="14.00" fill="#666666">[integer]</text>
<polygon fill="none" stroke="black" points="407.88,-758.6 407.88,-789.4 675.84,-789.4 675.84,-758.6 407.88,-758.6"/>
<text text-anchor="start" x="414.88" y="-770.8" font-family="Arial" font-size="14.00">from_multiplicity_higher </text>
<text text-anchor="start" x="565.83" y="-770.8" font-family="Arial" font-size="14.00" fill="#666666">[integer]</text>
<polygon fill="none" stroke="black" points="407.88,-727.8 407.88,-758.6 675.84,-758.6 675.84,-727.8 407.88,-727.8"/>
<text text-anchor="start" x="414.88" y="-740" font-family="Arial" font-size="14.00">to_class_key </text>
<text text-anchor="start" x="499.7" y="-740" font-family="Arial" font-size="14.00" fill="#666666">[text]</text>
<polygon fill="none" stroke="black" points="407.88,-697 407.88,-727.8 675.84,-727.8 675.84,-697 407.88,-697"/>
<text text-anchor="start" x="414.88" y="-709.2" font-family="Arial" font-size="14.00">to_multiplicity_lower </text>
<text text-anchor="start" x="544.04" y="-709.2" font-family="Arial" font-size="14.00" fill="#666666">[integer]</text>
<polygon fill="none" stroke="black" points="407.88,-666.2 407.88,-697 675.84,-697 675.84,-666.2 407.88,-666.2"/>
<text text-anchor="start" x="414.88" y="-678.4" font-family="Arial" font-size="14.00">to_multiplicity_higher </text>
<text text-anchor="start" x="549.5" y="-678.4" font-family="Arial" font-size="14.00" fill="#666666">[integer]</text>
<polygon fill="none" stroke="black" points="407.88,-635.4 407.88,-666.2 675.84,-666.2 675.84,-635.4 407.88,-635.4"/>
<text text-anchor="start" x="414.88" y="-647.6" font-family="Arial" font-size="14.00">name </text>
<text text-anchor="start" x="453.79" y="-647.6" font-family="Arial" font-size="14.00" fill="#666666">[text]</text>
<polygon fill="none" stroke="black" points="407.88,-604.6 407.88,-635.4 675.84,-635.4 675.84,-604.6 407.88,-604.6"/>
<text text-anchor="start" x="414.88" y="-616.8" font-family="Arial" font-size="14.00">association_class_key </text>
<text text-anchor="start" x="558.07" y="-616.8" font-family="Arial" font-size="14.00" fill="#666666">[text]</text>
<polygon fill="none" stroke="black" points="407.88,-573.8 407.88,-604.6 675.84,-604.6 675.84,-573.8 407.88,-573.8"/>
<text text-anchor="start" x="414.88" y="-586" font-family="Arial" font-size="14.00">details </text>
<text text-anchor="start" x="459.24" y="-586" font-family="Arial" font-size="14.00" fill="#666666">[text]</text>
<polygon fill="none" stroke="black" points="407.88,-543 407.88,-573.8 675.84,-573.8 675.84,-543 407.88,-543"/>
<text text-anchor="start" x="414.88" y="-555.2" font-family="Arial" font-size="14.00">uml_comment </text>
<text text-anchor="start" x="506.69" y="-555.2" font-family="Arial" font-size="14.00" fill="#666666">[text]</text>
<polygon fill="none" stroke="black" stroke-width="3" points="406.38,-541.5 406.38,-949.7 677.34,-949.7 677.34,-541.5 406.38,-541.5"/>
</g>
<!-- public.model -->
<g id="node2" class="node">
<title>public.model</title>
<polygon fill="#efefef" stroke="none" points="93.38,-274.2 93.38,-309.8 326.35,-309.8 326.35,-274.2 93.38,-274.2"/>
<polygon fill="none" stroke="black" points="93.38,-274.2 93.38,-309.8 326.35,-309.8 326.35,-274.2 93.38,-274.2"/>
<text text-anchor="start" x="100.38" y="-287.6" font-family="Arial Bold" font-size="18.00">public.model</text>
<text text-anchor="start" x="194.86" y="-287.6" font-family="Arial" font-size="14.00">    </text>
<text text-anchor="start" x="225.98" y="-287.6" font-family="Arial" font-size="14.00" fill="#666666">[BASE TABLE]</text>
<polygon fill="none" stroke="black" points="93.38,-243.4 93.38,-274.2 326.35,-274.2 326.35,-243.4 93.38,-243.4"/>
<text text-anchor="start" x="100.38" y="-255.6" font-family="Arial" font-size="14.00">model_key </text>
<text text-anchor="start" x="171.97" y="-255.6" font-family="Arial" font-size="14.00" fill="#666666">[text]</text>
<polygon fill="none" stroke="black" points="93.38,-212.6 93.38,-243.4 326.35,-243.4 326.35,-212.6 93.38,-212.6"/>
<text text-anchor="start" x="100.38" y="-224.8" font-family="Arial" font-size="14.00">name </text>
<text text-anchor="start" x="139.29" y="-224.8" font-family="Arial" font-size="14.00" fill="#666666">[text]</text>
<polygon fill="none" stroke="black" points="93.38,-181.8 93.38,-212.6 326.35,-212.6 326.35,-181.8 93.38,-181.8"/>
<text text-anchor="start" x="100.38" y="-194" font-family="Arial" font-size="14.00">details </text>
<text text-anchor="start" x="144.73" y="-194" font-family="Arial" font-size="14.00" fill="#666666">[text]</text>
<polygon fill="none" stroke="black" points="93.38,-151 93.38,-181.8 326.35,-181.8 326.35,-151 93.38,-151"/>
<text text-anchor="start" x="100.38" y="-163.2" font-family="Arial" font-size="14.00">unfinished_notes </text>
<text text-anchor="start" x="210.13" y="-163.2" font-family="Arial" font-size="14.00" fill="#666666">[text]</text>
</g>
<!-- public.association&#45;&gt;public.model -->
<g id="edge1" class="edge">
<title>public.association:model_key&#45;&gt;public.model:model_key</title>
<path fill="none" stroke="black" d="M397.69,-893.12C341.05,-838.75 395.48,-258.8 327.35,-258.8"/>
<polygon fill="black" stroke="black" points="397.43,-893.01 404.75,-901.18 402.31,-895.17 406.27,-896.93 406.27,-896.93 406.27,-896.93 402.31,-895.17 408.4,-892.95 397.43,-893.01"/>
<text text-anchor="start" x="7" y="-907.2" font-family="Arial" font-size="10.00">FOREIGN KEY (model_key) REFERENCES model(model_key) ON DELETE CASCADE</text>
</g>
<!-- public.class -->
<g id="node3" class="node">
<title>public.class</title>
<polygon fill="#efefef" stroke="none" points="430.38,-382 430.38,-417.6 653.35,-417.6 653.35,-382 430.38,-382"/>
<polygon fill="none" stroke="black" points="430.38,-382 430.38,-417.6 653.35,-417.6 653.35,-382 430.38,-382"/>
<text text-anchor="start" x="437.38" y="-395.4" font-family="Arial Bold" font-size="18.00">public.class</text>
<text text-anchor="start" x="521.86" y="-395.4" font-family="Arial" font-size="14.00">    </text>
<text text-anchor="start" x="552.97" y="-395.4" font-family="Arial" font-size="14.00" fill="#666666">[BASE TABLE]</text>
<polygon fill="none" stroke="black" points="430.38,-351.2 430.38,-382 653.35,-382 653.35,-351.2 430.38,-351.2"/>
<text text-anchor="start" x="437.38" y="-363.4" font-family="Arial" font-size="14.00">model_key </text>
<text text-anchor="start" x="508.97" y="-363.4" font-family="Arial" font-size="14.00" fill="#666666">[text]</text>
<polygon fill="none" stroke="black" points="430.38,-320.4 430.38,-351.2 653.35,-351.2 653.35,-320.4 430.38,-320.4"/>
<text text-anchor="start" x="437.38" y="-332.6" font-family="Arial" font-size="14.00">class_key </text>
<text text-anchor="start" x="502.73" y="-332.6" font-family="Arial" font-size="14.00" fill="#666666">[text]</text>
<polygon fill="none" stroke="black" points="430.38,-289.6 430.38,-320.4 653.35,-320.4 653.35,-289.6 430.38,-289.6"/>
<text text-anchor="start" x="437.38" y="-301.8" font-family="Arial" font-size="14.00">name </text>
<text text-anchor="start" x="476.29" y="-301.8" font-family="Arial" font-size="14.00" fill="#666666">[text]</text>
<polygon fill="none" stroke="black" points="430.38,-258.8 430.38,-289.6 653.35,-289.6 653.35,-258.8 430.38,-258.8"/>
<text text-anchor="start" x="437.38" y="-271" font-family="Arial" font-size="14.00">subdomain_key </text>
<text text-anchor="start" x="539.33" y="-271" font-family="Arial" font-size="14.00" fill="#666666">[text]</text>
<polygon fill="none" stroke="black" points="430.38,-228 430.38,-258.8 653.35,-258.8 653.35,-228 430.38,-228"/>
<text text-anchor="start" x="437.38" y="-240.2" font-family="Arial" font-size="14.00">actor_key </text>
<text text-anchor="start" x="501.96" y="-240.2" font-family="Arial" font-size="14.00" fill="#666666">[text]</text>
<polygon fill="none" stroke="black" points="430.38,-197.2 430.38,-228 653.35,-228 653.35,-197.2 430.38,-197.2"/>
<text text-anchor="start" x="437.38" y="-209.4" font-family="Arial" font-size="14.00">superclass_of_key </text>
<text text-anchor="start" x="557.22" y="-209.4" font-family="Arial" font-size="14.00" fill="#666666">[text]</text>
<polygon fill="none" stroke="black" points="430.38,-166.4 430.38,-197.2 653.35,-197.2 653.35,-166.4 430.38,-166.4"/>
<text text-anchor="start" x="437.38" y="-178.6" font-family="Arial" font-size="14.00">subclass_of_key </text>
<text text-anchor="start" x="544.77" y="-178.6" font-family="Arial" font-size="14.00" fill="#666666">[text]</text>
<polygon fill="none" stroke="black" points="430.38,-135.6 430.38,-166.4 653.35,-166.4 653.35,-135.6 430.38,-135.6"/>
<text text-anchor="start" x="437.38" y="-147.8" font-family="Arial" font-size="14.00">details </text>
<text text-anchor="start" x="481.73" y="-147.8" font-family="Arial" font-size="14.00" fill="#666666">[text]</text>
<polygon fill="none" stroke="black" points="430.38,-104.8 430.38,-135.6 653.35,-135.6 653.35,-104.8 430.38,-104.8"/>
<text text-anchor="start" x="437.38" y="-117" font-family="Arial" font-size="14.00">unfinished_notes </text>
<text text-anchor="start" x="547.13" y="-117" font-family="Arial" font-size="14.00" fill="#666666">[text]</text>
<polygon fill="none" stroke="black" points="430.38,-74 430.38,-104.8 653.35,-104.8 653.35,-74 430.38,-74"/>
<text text-anchor="start" x="437.38" y="-86.2" font-family="Arial" font-size="14.00">uml_comment </text>
<text text-anchor="start" x="529.18" y="-86.2" font-family="Arial" font-size="14.00" fill="#666666">[text]</text>
<polygon fill="none" stroke="black" points="430.38,-43.2 430.38,-74 653.35,-74 653.35,-43.2 430.38,-43.2"/>
<text text-anchor="start" x="437.38" y="-55.4" font-family="Arial" font-size="14.00">marked </text>
<text text-anchor="start" x="487.95" y="-55.4" font-family="Arial" font-size="14.00" fill="#666666">[boolean]</text>
</g>
<!-- public.association&#45;&gt;public.class -->
<g id="edge2" class="edge">
<title>public.association:model_key&#45;&gt;public.class:model_key</title>
<path fill="none" stroke="black" d="M687.19,-896.79C894.1,-880.24 868.87,-366.6 654.35,-366.6"/>
<polygon fill="black" stroke="black" points="687.17,-896.79 677,-892.69 681.84,-897 677.51,-897.17 677.51,-897.17 677.51,-897.17 681.84,-897 677.35,-901.68 687.17,-896.79"/>
<text text-anchor="start" x="683.84" y="-907.2" font-family="Arial" font-size="10.00">FOREIGN KEY (model_key, association_class_key) REFERENCES class(model_key, class_key) ON DELETE CASCADE</text>
</g>
<!-- public.association&#45;&gt;public.class -->
<g id="edge3" class="edge">
<title>public.association:model_key&#45;&gt;public.class:model_key</title>
<path fill="none" stroke="black" d="M687.37,-896.84C912.04,-881.28 886.84,-367.11 654.69,-366.6"/>
<polygon fill="black" stroke="black" points="687.52,-896.83 677.36,-892.69 682.18,-897.02 677.86,-897.18 677.86,-897.18 677.86,-897.18 682.18,-897.02 677.68,-901.68 687.52,-896.83"/>
<text text-anchor="start" x="684.19" y="-881.2" font-family="Arial" font-size="10.00">FOREIGN KEY (model_key, from_class_key) REFERENCES class(model_key, class_key) ON DELETE CASCADE</text>
</g>
<!-- public.association&#45;&gt;public.class -->
<g id="edge4" class="edge">
<title>public.association:model_key&#45;&gt;public.class:model_key</title>
<path fill="none" stroke="black" d="M687.46,-896.88C930.07,-882.3 904.81,-367.11 654.72,-366.6"/>
<polygon fill="black" stroke="black" points="687.54,-896.88 677.41,-892.69 682.21,-897.05 677.88,-897.18 677.88,-897.18 677.88,-897.18 682.21,-897.05 677.69,-901.69 687.54,-896.88"/>
<text text-anchor="start" x="168.96" y="-881.2" font-family="Arial" font-size="10.00">FOREIGN KEY (model_key, to_class_key) REFERENCES class(model_key, class_key) ON DELETE CASCADE</text>
</g>
<!-- public.association_uniqueness_attribute -->
<g id="node4" class="node">
<title>public.association_uniqueness_attribute</title>
<polygon fill="#efefef" stroke="none" points="84.9,-1227.6 84.9,-1263.2 510.82,-1263.2 510.82,-1227.6 84.9,-1227.6"/>
<polygon fill="none" stroke="black" points="84.9,-1227.6 84.9,-1263.2 510.82,-1263.2 510.82,-1227.6 84.9,-1227.6"/>
<text text-anchor="start" x="91.9" y="-1241" font-family="Arial Bold" font-size="18.00">public.association_uniqueness_attribute</text>
<text text-anchor="start" x="379.34" y="-1241" font-family="Arial" font-size="14.00">    </text>
<text text-anchor="start" x="410.45" y="-1241" font-family="Arial" font-size="14.00" fill="#666666">[BASE TABLE]</text>
<polygon fill="none" stroke="black" points="84.9,-1196.8 84.9,-1227.6 510.82,-1227.6 510.82,-1196.8 84.9,-1196.8"/>
<text text-anchor="start" x="91.9" y="-1209" font-family="Arial" font-size="14.00">model_key </text>
<text text-anchor="start" x="163.49" y="-1209" font-family="Arial" font-size="14.00" fill="#666666">[text]</text>
<polygon fill="none" stroke="black" points="84.9,-1166 84.9,-1196.8 510.82,-1196.8 510.82,-1166 84.9,-1166"/>
<text text-anchor="start" x="91.9" y="-1178.2" font-family="Arial" font-size="14.00">association_key </text>
<text text-anchor="start" x="195.4" y="-1178.2" font-family="Arial" font-size="14.00" fill="#666666">[text]</text>
<polygon fill="none" stroke="black" points="84.9,-1135.2 84.9,-1166 510.82,-1166 510.82,-1135.2 84.9,-1135.2"/>
<text text-anchor="start" x="91.9" y="-1147.4" font-family="Arial" font-size="14.00">end_side </text>
<text text-anchor="start" x="152.61" y="-1147.4" font-family="Arial" font-size="14.00" fill="#666666">[association_end]</text>
<polygon fill="none" stroke="black" points="84.9,-1104.4 84.9,-1135.2 510.82,-1135.2 510.82,-1104.4 84.9,-1104.4"/>
<text text-anchor="start" x="91.9" y="-1116.6" font-family="Arial" font-size="14.00">attribute_sort_order </text>
<text text-anchor="start" x="217.97" y="-1116.6" font-family="Arial" font-size="14.00" fill="#666666">[integer]</text>
<polygon fill="none" stroke="black" points="84.9,-1073.6 84.9,-1104.4 510.82,-1104.4 510.82,-1073.6 84.9,-1073.6"/>
<text text-anchor="start" x="91.9" y="-1085.8" font-family="Arial" font-size="14.00">attribute_key </text>
<text text-anchor="start" x="175.95" y="-1085.8" font-family="Arial" font-size="14.00" fill="#666666">[text]</text>
</g>
<!-- public.association_uniqueness_attribute&#45;&gt;public.association -->
<g id="edge5" class="edge">
<title>public.association_uniqueness_attribute:model_key&#45;&gt;public.association:model_key</title>
<path fill="none" stroke="black" d="M522.02,-1211.51C589.47,-1201.88 555.66,-1093.21 510.82,-1030.4 482.66,-990.95 436.14,-1033.78 407.88,-994.4 382.7,-959.3 363.68,-897.2 406.88,-897.2"/>
<polygon fill="black" stroke="black" points="522.14,-1211.5 511.86,-1207.69 516.81,-1211.86 512.49,-1212.16 512.49,-1212.16 512.49,-1212.16 516.81,-1211.86 512.46,-1216.67 522.14,-1211.5"/>
<text text-anchor="start" x="518.82" y="-1222.2" font-family="Arial" font-size="10.00">FOREIGN KEY (model_key, association_key) REFERENCES association(model_key, association_key) ON DELETE CASCADE</text>
</g>
<!-- public.association_invariant -->
<g id="node5" class="node">
<title>public.association_invariant</title>
<polygon fill="#efefef" stroke="none" points="615.39,-1212.2 615.39,-1247.8 956.33,-1247.8 956.33,-1212.2 615.39,-1212.2"/>
<polygon fill="none" stroke="black" points="615.39,-1212.2 615.39,-1247.8 956.33,-1247.8 956.33,-1212.2 615.39,-1212.2"/>
<text text-anchor="start" x="622.39" y="-1225.6" font-family="Arial Bold" font-size="18.00">public.association_invariant</text>
<text text-anchor="start" x="824.84" y="-1225.6" font-family="Arial" font-size="14.00">    </text>
<text text-anchor="start" x="855.96" y="-1225.6" font-family="Arial" font-size="14.00" fill="#666666">[BASE TABLE]</text>
<polygon fill="none" stroke="black" points="615.39,-1181.4 615.39,-1212.2 956.33,-1212.2 956.33,-1181.4 615.39,-1181.4"/>
<text text-anchor="start" x="622.39" y="-1193.6" font-family="Arial" font-size="14.00">model_key </text>
<text text-anchor="start" x="693.99" y="-1193.6" font-family="Arial" font-size="14.00" fill="#666666">[text]</text>
<polygon fill="none" stroke="black" points="615.39,-1150.6 615.39,-1181.4 956.33,-1181.4 956.33,-1150.6 615.39,-1150.6"/>
<text text-anchor="start" x="622.39" y="-1162.8" font-family="Arial" font-size="14.00">association_key </text>
<text text-anchor="start" x="725.9" y="-1162.8" font-family="Arial" font-size="14.00" fill="#666666">[text]</text>
<polygon fill="none" stroke="black" points="615.39,-1119.8 615.39,-1150.6 956.33,-1150.6 956.33,-1119.8 615.39,-1119.8"/>
<text text-anchor="start" x="622.39" y="-1132" font-family="Arial" font-size="14.00">logic_key </text>
<text text-anchor="start" x="684.65" y="-1132" font-family="Arial" font-size="14.00" fill="#666666">[text]</text>
<polygon fill="none" stroke="black" points="615.39,-1089 615.39,-1119.8 956.33,-1119.8 956.33,-1089 615.39,-1089"/>
<text text-anchor="start" x="622.39" y="-1101.2" font-family="Arial" font-size="14.00">to_class_anchor </text>
<text text-anchor="start" x="728.23" y="-1101.2" font-family="Arial" font-size="14.00" fill="#666666">[boolean]</text>
</g>
<!-- public.association_invariant&#45;&gt;public.association -->
<g id="edge6" class="edge">
<title>public.association_invariant:model_key&#45;&gt;public.association:model_key</title>
<path fill="none" stroke="black" d="M604,-1195.95C551.75,-1186.68 588.63,-1103.18 615.39,-1045.8 630.3,-1013.84 660.88,-1026.33 675.84,-994.4 694.17,-955.28 720.04,-897.2 676.84,-897.2"/>
<polygon fill="black" stroke="black" points="604.09,-1195.96 613.69,-1201.26 609.41,-1196.39 613.73,-1196.75 613.73,-1196.75 613.73,-1196.75 609.41,-1196.39 614.42,-1192.29 604.09,-1195.96"/>
<text text-anchor="start" x="621.39" y="-1180.8" font-family="Arial" font-size="10.00">FOREIGN KEY (model_key, association_key) REFERENCES association(model_key, association_key) ON DELETE CASCADE</text>
</g>
</g>
</svg>
