<?xml version="1.0" encoding="UTF-8" standalone="no"?>
<!DOCTYPE svg PUBLIC "-//W3C//DTD SVG 1.1//EN"
 "http://www.w3.org/Graphics/SVG/1.1/DTD/svg11.dtd">
<!-- Generated by graphviz version 12.1.2 (20240928.0832)
 -->
<!-- Title: public.scenario Pages: 1 -->
<svg width="1509pt" height="1376pt"
 viewBox="0.00 0.00 1508.93 1376.00" xmlns="http://www.w3.org/2000/svg" xmlns:xlink="http://www.w3.org/1999/xlink">
<g id="graph0" class="graph" transform="scale(1 1) rotate(0) translate(4 1372)">
<title>public.scenario</title>
<polygon fill="white" stroke="none" points="-4,4 -4,-1372 1504.93,-1372 1504.93,4 -4,4"/>
<!-- public.scenario -->
<g id="node1" class="node">
<title>public.scenario</title>
<polygon fill="#efefef" stroke="none" points="668.96,-697 668.96,-732.6 916.91,-732.6 916.91,-697 668.96,-697"/>
<polygon fill="none" stroke="black" points="668.96,-697 668.96,-732.6 916.91,-732.6 916.91,-697 668.96,-697"/>
<text text-anchor="start" x="675.96" y="-710.4" font-family="Arial Bold" font-size="18.00">public.scenario</text>
<text text-anchor="start" x="785.42" y="-710.4" font-family="Arial" font-size="14.00">    </text>
<text text-anchor="start" x="816.54" y="-710.4" font-family="Arial" font-size="14.00" fill="#666666">[BASE TABLE]</text>
<polygon fill="none" stroke="black" points="668.96,-666.2 668.96,-697 916.91,-697 916.91,-666.2 668.96,-666.2"/>
<text text-anchor="start" x="675.96" y="-678.4" font-family="Arial" font-size="14.00">model_key </text>
<text text-anchor="start" x="747.55" y="-678.4" font-family="Arial" font-size="14.00" fill="#666666">[text]</text>
<polygon fill="none" stroke="black" points="668.96,-635.4 668.96,-666.2 916.91,-666.2 916.91,-635.4 668.96,-635.4"/>
<text text-anchor="start" x="675.96" y="-647.6" font-family="Arial" font-size="14.00">scenario_key </text>
<text text-anchor="start" x="762.34" y="-647.6" font-family="Arial" font-size="14.00" fill="#666666">[text]</text>
<polygon fill="none" stroke="black" points="668.96,-604.6 668.96,-635.4 916.91,-635.4 916.91,-604.6 668.96,-604.6"/>
<text text-anchor="start" x="675.96" y="-616.8" font-family="Arial" font-size="14.00">name </text>
<text text-anchor="start" x="714.87" y="-616.8" font-family="Arial" font-size="14.00" fill="#666666">[text]</text>
<polygon fill="none" stroke="black" points="668.96,-573.8 668.96,-604.6 916.91,-604.6 916.91,-573.8 668.96,-573.8"/>
<text text-anchor="start" x="675.96" y="-586" font-family="Arial" font-size="14.00">use_case_key </text>
<text text-anchor="start" x="769.35" y="-586" font-family="Arial" font-size="14.00" fill="#666666">[text]</text>
<polygon fill="none" stroke="black" points="668.96,-543 668.96,-573.8 916.91,-573.8 916.91,-543 668.96,-543"/>
<text text-anchor="start" x="675.96" y="-555.2" font-family="Arial" font-size="14.00">details </text>
<text text-anchor="start" x="720.32" y="-555.2" font-family="Arial" font-size="14.00" fill="#666666">[text]</text>
<polygon fill="none" stroke="black" stroke-width="3" points="667.46,-541.5 667.46,-734.1 918.41,-734.1 918.41,-541.5 667.46,-541.5"/>
</g>
<!-- public.model -->
<g id="node2" class="node">
<title>public.model</title>
<polygon fill="#efefef" stroke="none" points="503.45,-274.2 503.45,-309.8 736.42,-309.8 736.42,-274.2 503.45,-274.2"/>
<polygon fill="none" stroke="black" points="503.45,-274.2 503.45,-309.8 736.42,-309.8 736.42,-274.2 503.45,-274.2"/>
<text text-anchor="start" x="510.45" y="-287.6" font-family="Arial Bold" font-size="18.00">public.model</text>
<text text-anchor="start" x="604.93" y="-287.6" font-family="Arial" font-size="14.00">    </text>
<text text-anchor="start" x="636.05" y="-287.6" font-family="Arial" font-size="14.00" fill="#666666">[BASE TABLE]</text>
<polygon fill="none" stroke="black" points="503.45,-243.4 503.45,-274.2 736.42,-274.2 736.42,-243.4 503.45,-243.4"/>
<text text-anchor="start" x="510.45" y="-255.6" font-family="Arial" font-size="14.00">model_key </text>
<text text-anchor="start" x="582.04" y="-255.6" font-family="Arial" font-size="14.00" fill="#666666">[text]</text>
<polygon fill="none" stroke="black" points="503.45,-212.6 503.45,-243.4 736.42,-243.4 736.42,-212.6 503.45,-212.6"/>
<text text-anchor="start" x="510.45" y="-224.8" font-family="Arial" font-size="14.00">name </text>
<text text-anchor="start" x="549.36" y="-224.8" font-family="Arial" font-size="14.00" fill="#666666">[text]</text>
<polygon fill="none" stroke="black" points="503.45,-181.8 503.45,-212.6 736.42,-212.6 736.42,-181.8 503.45,-181.8"/>
<text text-anchor="start" x="510.45" y="-194" font-family="Arial" font-size="14.00">details </text>
<text text-anchor="start" x="554.81" y="-194" font-family="Arial" font-size="14.00" fill="#666666">[text]</text>
<polygon fill="none" stroke="black" points="503.45,-151 503.45,-181.8 736.42,-181.8 736.42,-151 503.45,-151"/>
<text text-anchor="start" x="510.45" y="-163.2" font-family="Arial" font-size="14.00">unfinished_notes </text>
<text text-anchor="start" x="620.2" y="-163.2" font-family="Arial" font-size="14.00" fill="#666666">[text]</text>
</g>
<!-- public.scenario&#45;&gt;public.model -->
<g id="edge1" class="edge">
<title>public.scenario:model_key&#45;&gt;public.model:model_key</title>
<path fill="none" stroke="black" d="M657.58,-680.99C533.39,-665.44 735,-359.2 736.42,-353 745.75,-312.18 779.29,-258.8 737.42,-258.8"/>
<polygon fill="black" stroke="black" points="657.64,-680.99 667.36,-686.07 662.97,-681.31 667.29,-681.56 667.29,-681.56 667.29,-681.56 662.97,-681.31 667.89,-677.09 657.64,-680.99"/>
<text text-anchor="start" x="268.08" y="-691.6" font-family="Arial" font-size="10.00">FOREIGN KEY (model_key) REFERENCES model(model_key) ON DELETE CASCADE</text>
</g>
<!-- public.use_case -->
<g id="node3" class="node">
<title>public.use_case</title>
<polygon fill="#efefef" stroke="none" points="840.96,-382 840.96,-417.6 1092.91,-417.6 1092.91,-382 840.96,-382"/>
<polygon fill="none" stroke="black" points="840.96,-382 840.96,-417.6 1092.91,-417.6 1092.91,-382 840.96,-382"/>
<text text-anchor="start" x="847.96" y="-395.4" font-family="Arial Bold" font-size="18.00">public.use_case</text>
<text text-anchor="start" x="961.42" y="-395.4" font-family="Arial" font-size="14.00">    </text>
<text text-anchor="start" x="992.53" y="-395.4" font-family="Arial" font-size="14.00" fill="#666666">[BASE TABLE]</text>
<polygon fill="none" stroke="black" points="840.96,-351.2 840.96,-382 1092.91,-382 1092.91,-351.2 840.96,-351.2"/>
<text text-anchor="start" x="847.96" y="-363.4" font-family="Arial" font-size="14.00">model_key </text>
<text text-anchor="start" x="919.55" y="-363.4" font-family="Arial" font-size="14.00" fill="#666666">[text]</text>
<polygon fill="none" stroke="black" points="840.96,-320.4 840.96,-351.2 1092.91,-351.2 1092.91,-320.4 840.96,-320.4"/>
<text text-anchor="start" x="847.96" y="-332.6" font-family="Arial" font-size="14.00">use_case_key </text>
<text text-anchor="start" x="941.35" y="-332.6" font-family="Arial" font-size="14.00" fill="#666666">[text]</text>
<polygon fill="none" stroke="black" points="840.96,-289.6 840.96,-320.4 1092.91,-320.4 1092.91,-289.6 840.96,-289.6"/>
<text text-anchor="start" x="847.96" y="-301.8" font-family="Arial" font-size="14.00">name </text>
<text text-anchor="start" x="886.87" y="-301.8" font-family="Arial" font-size="14.00" fill="#666666">[text]</text>
<polygon fill="none" stroke="black" points="840.96,-258.8 840.96,-289.6 1092.91,-289.6 1092.91,-258.8 840.96,-258.8"/>
<text text-anchor="start" x="847.96" y="-271" font-family="Arial" font-size="14.00">details </text>
<text text-anchor="start" x="892.32" y="-271" font-family="Arial" font-size="14.00" fill="#666666">[text]</text>
<polygon fill="none" stroke="black" points="840.96,-228 840.96,-258.8 1092.91,-258.8 1092.91,-228 840.96,-228"/>
<text text-anchor="start" x="847.96" y="-240.2" font-family="Arial" font-size="14.00">unfinished_notes </text>
<text text-anchor="start" x="957.71" y="-240.2" font-family="Arial" font-size="14.00" fill="#666666">[text]</text>
<polygon fill="none" stroke="black" points="840.96,-197.2 840.96,-228 1092.91,-228 1092.91,-197.2 840.96,-197.2"/>
<text text-anchor="start" x="847.96" y="-209.4" font-family="Arial" font-size="14.00">level </text>
<text text-anchor="start" x="880.64" y="-209.4" font-family="Arial" font-size="14.00" fill="#666666">[use_case_level]</text>
<polygon fill="none" stroke="black" points="840.96,-166.4 840.96,-197.2 1092.91,-197.2 1092.91,-166.4 840.96,-166.4"/>
<text text-anchor="start" x="847.96" y="-178.6" font-family="Arial" font-size="14.00">read_only </text>
<text text-anchor="start" x="913.34" y="-178.6" font-family="Arial" font-size="14.00" fill="#666666">[boolean]</text>
<polygon fill="none" stroke="black" points="840.96,-135.6 840.96,-166.4 1092.91,-166.4 1092.91,-135.6 840.96,-135.6"/>
<text text-anchor="start" x="847.96" y="-147.8" font-family="Arial" font-size="14.00">subdomain_key </text>
<text text-anchor="start" x="949.91" y="-147.8" font-family="Arial" font-size="14.00" fill="#666666">[text]</text>
<polygon fill="none" stroke="black" points="840.96,-104.8 840.96,-135.6 1092.91,-135.6 1092.91,-104.8 840.96,-104.8"/>
<text text-anchor="start" x="847.96" y="-117" font-family="Arial" font-size="14.00">superclass_of_key </text>
<text text-anchor="start" x="967.8" y="-117" font-family="Arial" font-size="14.00" fill="#666666">[text]</text>
<polygon fill="none" stroke="black" points="840.96,-74 840.96,-104.8 1092.91,-104.8 1092.91,-74 840.96,-74"/>
<text text-anchor="start" x="847.96" y="-86.2" font-family="Arial" font-size="14.00">subclass_of_key </text>
<text text-anchor="start" x="955.35" y="-86.2" font-family="Arial" font-size="14.00" fill="#666666">[text]</text>
<polygon fill="none" stroke="black" points="840.96,-43.2 840.96,-74 1092.91,-74 1092.91,-43.2 840.96,-43.2"/>
<text text-anchor="start" x="847.96" y="-55.4" font-family="Arial" font-size="14.00">uml_comment </text>
<text text-anchor="start" x="939.77" y="-55.4" font-family="Arial" font-size="14.00" fill="#666666">[text]</text>
</g>
<!-- public.scenario&#45;&gt;public.use_case -->
<g id="edge2" class="edge">
<title>public.scenario:model_key&#45;&gt;public.use_case:model_key</title>
<path fill="none" stroke="black" d="M928.25,-680.92C996.52,-671.32 959.03,-562.98 916.91,-496.8 896.85,-465.29 861.1,-492.26 840.96,-460.8 818.39,-425.54 798.09,-366.6 839.96,-366.6"/>
<polygon fill="black" stroke="black" points="928.22,-680.92 917.94,-677.09 922.9,-681.27 918.57,-681.56 918.57,-681.56 918.57,-681.56 922.9,-681.27 918.54,-686.07 928.22,-680.92"/>
<text text-anchor="start" x="924.91" y="-691.6" font-family="Arial" font-size="10.00">FOREIGN KEY (model_key, use_case_key) REFERENCES use_case(model_key, use_case_key) ON DELETE CASCADE</text>
</g>
<!-- public.scenario_object -->
<g id="node4" class="node">
<title>public.scenario_object</title>
<polygon fill="#efefef" stroke="none" points="244.47,-1212.2 244.47,-1247.8 545.4,-1247.8 545.4,-1212.2 244.47,-1212.2"/>
<polygon fill="none" stroke="black" points="244.47,-1212.2 244.47,-1247.8 545.4,-1247.8 545.4,-1212.2 244.47,-1212.2"/>
<text text-anchor="start" x="251.47" y="-1225.6" font-family="Arial Bold" font-size="18.00">public.scenario_object</text>
<text text-anchor="start" x="413.91" y="-1225.6" font-family="Arial" font-size="14.00">    </text>
<text text-anchor="start" x="445.03" y="-1225.6" font-family="Arial" font-size="14.00" fill="#666666">[BASE TABLE]</text>
<polygon fill="none" stroke="black" points="244.47,-1181.4 244.47,-1212.2 545.4,-1212.2 545.4,-1181.4 244.47,-1181.4"/>
<text text-anchor="start" x="251.47" y="-1193.6" font-family="Arial" font-size="14.00">model_key </text>
<text text-anchor="start" x="323.06" y="-1193.6" font-family="Arial" font-size="14.00" fill="#666666">[text]</text>
<polygon fill="none" stroke="black" points="244.47,-1150.6 244.47,-1181.4 545.4,-1181.4 545.4,-1150.6 244.47,-1150.6"/>
<text text-anchor="start" x="251.47" y="-1162.8" font-family="Arial" font-size="14.00">scenario_object_key </text>
<text text-anchor="start" x="382.99" y="-1162.8" font-family="Arial" font-size="14.00" fill="#666666">[text]</text>
<polygon fill="none" stroke="black" points="244.47,-1119.8 244.47,-1150.6 545.4,-1150.6 545.4,-1119.8 244.47,-1119.8"/>
<text text-anchor="start" x="251.47" y="-1132" font-family="Arial" font-size="14.00">scenario_key </text>
<text text-anchor="start" x="337.85" y="-1132" font-family="Arial" font-size="14.00" fill="#666666">[text]</text>
<polygon fill="none" stroke="black" points="244.47,-1089 244.47,-1119.8 545.4,-1119.8 545.4,-1089 244.47,-1089"/>
<text text-anchor="start" x="251.47" y="-1101.2" font-family="Arial" font-size="14.00">object_number </text>
<text text-anchor="start" x="347.97" y="-1101.2" font-family="Arial" font-size="14.00" fill="#666666">[integer]</text>
<polygon fill="none" stroke="black" points="244.47,-1058.2 244.47,-1089 545.4,-1089 545.4,-1058.2 244.47,-1058.2"/>
<text text-anchor="start" x="251.47" y="-1070.4" font-family="Arial" font-size="14.00">name </text>
<text text-anchor="start" x="290.38" y="-1070.4" font-family="Arial" font-size="14.00" fill="#666666">[text]</text>
<polygon fill="none" stroke="black" points="244.47,-1027.4 244.47,-1058.2 545.4,-1058.2 545.4,-1027.4 244.47,-1027.4"/>
<text text-anchor="start" x="251.47" y="-1039.6" font-family="Arial" font-size="14.00">name_style </text>
<text text-anchor="start" x="326.95" y="-1039.6" font-family="Arial" font-size="14.00" fill="#666666">[scenario_object_name_style]</text>
<polygon fill="none" stroke="black" points="244.47,-996.6 244.47,-1027.4 545.4,-1027.4 545.4,-996.6 244.47,-996.6"/>
<text text-anchor="start" x="251.47" y="-1008.8" font-family="Arial" font-size="14.00">class_key </text>
<text text-anchor="start" x="316.83" y="-1008.8" font-family="Arial" font-size="14.00" fill="#666666">[text]</text>
<polygon fill="none" stroke="black" points="244.47,-965.8 244.47,-996.6 545.4,-996.6 545.4,-965.8 244.47,-965.8"/>
<text text-anchor="start" x="251.47" y="-978" font-family="Arial" font-size="14.00">multi </text>
<text text-anchor="start" x="284.92" y="-978" font-family="Arial" font-size="14.00" fill="#666666">[boolean]</text>
<polygon fill="none" stroke="black" points="244.47,-935 244.47,-965.8 545.4,-965.8 545.4,-935 244.47,-935"/>
<text text-anchor="start" x="251.47" y="-947.2" font-family="Arial" font-size="14.00">uml_comment </text>
<text text-anchor="start" x="343.28" y="-947.2" font-family="Arial" font-size="14.00" fill="#666666">[text]</text>
</g>
<!-- public.scenario_object&#45;&gt;public.scenario -->
<g id="edge3" class="edge">
<title>public.scenario_object:model_key&#45;&gt;public.scenario:model_key</title>
<path fill="none" stroke="black" d="M556.65,-1195.18C627.04,-1171.39 573,-892.89 597.93,-814.8 618.28,-751.09 601.08,-681.6 667.96,-681.6"/>
<polygon fill="black" stroke="black" points="556.6,-1195.18 546.02,-1192.3 551.34,-1196.02 547.06,-1196.7 547.06,-1196.7 547.06,-1196.7 551.34,-1196.02 547.43,-1201.19 556.6,-1195.18"/>
<text text-anchor="start" x="7" y="-1206.8" font-family="Arial" font-size="10.00">FOREIGN KEY (model_key, scenario_key) REFERENCES scenario(model_key, scenario_key) ON DELETE CASCADE</text>
</g>
<!-- public.scenario_step -->
<g id="node5" class="node">
<title>public.scenario_step</title>
<polygon fill="#efefef" stroke="none" points="649.96,-1289.2 649.96,-1324.8 935.9,-1324.8 935.9,-1289.2 649.96,-1289.2"/>
<polygon fill="none" stroke="black" points="649.96,-1289.2 649.96,-1324.8 935.9,-1324.8 935.9,-1289.2 649.96,-1289.2"/>
<text text-anchor="start" x="656.96" y="-1302.6" font-family="Arial Bold" font-size="18.00">public.scenario_step</text>
<text text-anchor="start" x="804.42" y="-1302.6" font-family="Arial" font-size="14.00">    </text>
<text text-anchor="start" x="835.53" y="-1302.6" font-family="Arial" font-size="14.00" fill="#666666">[BASE TABLE]</text>
<polygon fill="none" stroke="black" points="649.96,-1258.4 649.96,-1289.2 935.9,-1289.2 935.9,-1258.4 649.96,-1258.4"/>
<text text-anchor="start" x="656.96" y="-1270.6" font-family="Arial" font-size="14.00">model_key </text>
<text text-anchor="start" x="728.55" y="-1270.6" font-family="Arial" font-size="14.00" fill="#666666">[text]</text>
<polygon fill="none" stroke="black" points="649.96,-1227.6 649.96,-1258.4 935.9,-1258.4 935.9,-1227.6 649.96,-1227.6"/>
<text text-anchor="start" x="656.96" y="-1239.8" font-family="Arial" font-size="14.00">scenario_step_key </text>
<text text-anchor="start" x="777.59" y="-1239.8" font-family="Arial" font-size="14.00" fill="#666666">[text]</text>
<polygon fill="none" stroke="black" points="649.96,-1196.8 649.96,-1227.6 935.9,-1227.6 935.9,-1196.8 649.96,-1196.8"/>
<text text-anchor="start" x="656.96" y="-1209" font-family="Arial" font-size="14.00">scenario_key </text>
<text text-anchor="start" x="743.34" y="-1209" font-family="Arial" font-size="14.00" fill="#666666">[text]</text>
<polygon fill="none" stroke="black" points="649.96,-1166 649.96,-1196.8 935.9,-1196.8 935.9,-1166 649.96,-1166"/>
<text text-anchor="start" x="656.96" y="-1178.2" font-family="Arial" font-size="14.00">parent_step_key </text>
<text text-anchor="start" x="764.37" y="-1178.2" font-family="Arial" font-size="14.00" fill="#666666">[text]</text>
<polygon fill="none" stroke="black" points="649.96,-1135.2 649.96,-1166 935.9,-1166 935.9,-1135.2 649.96,-1135.2"/>
<text text-anchor="start" x="656.96" y="-1147.4" font-family="Arial" font-size="14.00">sort_order </text>
<text text-anchor="start" x="724.66" y="-1147.4" font-family="Arial" font-size="14.00" fill="#666666">[integer]</text>
<polygon fill="none" stroke="black" points="649.96,-1104.4 649.96,-1135.2 935.9,-1135.2 935.9,-1104.4 649.96,-1104.4"/>
<text text-anchor="start" x="656.96" y="-1116.6" font-family="Arial" font-size="14.00">step_type </text>
<text text-anchor="start" x="721.56" y="-1116.6" font-family="Arial" font-size="14.00" fill="#666666">[step_type]</text>
<polygon fill="none" stroke="black" points="649.96,-1073.6 649.96,-1104.4 935.9,-1104.4 935.9,-1073.6 649.96,-1073.6"/>
<text text-anchor="start" x="656.96" y="-1085.8" font-family="Arial" font-size="14.00">leaf_type </text>
<text text-anchor="start" x="717.67" y="-1085.8" font-family="Arial" font-size="14.00" fill="#666666">[leaf_type]</text>
<polygon fill="none" stroke="black" points="649.96,-1042.8 649.96,-1073.6 935.9,-1073.6 935.9,-1042.8 649.96,-1042.8"/>
<text text-anchor="start" x="656.96" y="-1055" font-family="Arial" font-size="14.00">condition </text>
<text text-anchor="start" x="716.89" y="-1055" font-family="Arial" font-size="14.00" fill="#666666">[text]</text>
<polygon fill="none" stroke="black" points="649.96,-1012 649.96,-1042.8 935.9,-1042.8 935.9,-1012 649.96,-1012"/>
<text text-anchor="start" x="656.96" y="-1024.2" font-family="Arial" font-size="14.00">description </text>
<text text-anchor="start" x="728.55" y="-1024.2" font-family="Arial" font-size="14.00" fill="#666666">[text]</text>
<polygon fill="none" stroke="black" points="649.96,-981.2 649.96,-1012 935.9,-1012 935.9,-981.2 649.96,-981.2"/>
<text text-anchor="start" x="656.96" y="-993.4" font-family="Arial" font-size="14.00">from_object_key </text>
<text text-anchor="start" x="763.57" y="-993.4" font-family="Arial" font-size="14.00" fill="#666666">[text]</text>
<polygon fill="none" stroke="black" points="649.96,-950.4 649.96,-981.2 935.9,-981.2 935.9,-950.4 649.96,-950.4"/>
<text text-anchor="start" x="656.96" y="-962.6" font-family="Arial" font-size="14.00">to_object_key </text>
<text text-anchor="start" x="747.24" y="-962.6" font-family="Arial" font-size="14.00" fill="#666666">[text]</text>
<polygon fill="none" stroke="black" points="649.96,-919.6 649.96,-950.4 935.9,-950.4 935.9,-919.6 649.96,-919.6"/>
<text text-anchor="start" x="656.96" y="-931.8" font-family="Arial" font-size="14.00">event_key </text>
<text text-anchor="start" x="724.67" y="-931.8" font-family="Arial" font-size="14.00" fill="#666666">[text]</text>
<polygon fill="none" stroke="black" points="649.96,-888.8 649.96,-919.6 935.9,-919.6 935.9,-888.8 649.96,-888.8"/>
<text text-anchor="start" x="656.96" y="-901" font-family="Arial" font-size="14.00">query_key </text>
<text text-anchor="start" x="725.44" y="-901" font-family="Arial" font-size="14.00" fill="#666666">[text]</text>
<polygon fill="none" stroke="black" points="649.96,-858 649.96,-888.8 935.9,-888.8 935.9,-858 649.96,-858"/>
<text text-anchor="start" x="656.96" y="-870.2" font-family="Arial" font-size="14.00">scenario_ref_key </text>
<text text-anchor="start" x="767.46" y="-870.2" font-family="Arial" font-size="14.00" fill="#666666">[text]</text>
</g>
<!-- public.scenario_step&#45;&gt;public.scenario -->
<g id="edge4" class="edge">
<title>public.scenario_step:model_key&#45;&gt;public.scenario:model_key</title>
<path fill="none" stroke="black" d="M947.18,-1273.47C1190.68,-1257.72 1168.77,-681.6 917.91,-681.6"/>
<polygon fill="black" stroke="black" points="947.23,-1273.47 937.1,-1269.29 941.9,-1273.64 937.57,-1273.78 937.57,-1273.78 937.57,-1273.78 941.9,-1273.64 937.38,-1278.29 947.23,-1273.47"/>
<text text-anchor="start" x="943.9" y="-1283.8" font-family="Arial" font-size="10.00">FOREIGN KEY (model_key, scenario_key) REFERENCES scenario(model_key, scenario_key) ON DELETE CASCADE</text>
</g>
<!-- public.scenario_step&#45;&gt;public.scenario -->
<g id="edge5" class="edge">
<title>public.scenario_step:model_key&#45;&gt;public.scenario:model_key</title>
<path fill="none" stroke="black" d="M947.51,-1273.49C1208.57,-1258.31 1186.68,-682.17 918.31,-681.6"/>
<polygon fill="black" stroke="black" points="947.63,-1273.49 937.5,-1269.29 942.3,-1273.65 937.97,-1273.78 937.97,-1273.78 937.97,-1273.78 942.3,-1273.65 937.77,-1278.29 947.63,-1273.49"/>
<text text-anchor="start" x="944.3" y="-1257.8" font-family="Arial" font-size="10.00">FOREIGN KEY (model_key, scenario_ref_key) REFERENCES scenario(model_key, scenario_key) ON DELETE CASCADE</text>
</g>
</g>
</svg>
