<?xml version="1.0" encoding="UTF-8" standalone="no"?>
<!DOCTYPE svg PUBLIC "-//W3C//DTD SVG 1.1//EN"
 "http://www.w3.org/Graphics/SVG/1.1/DTD/svg11.dtd">
<!-- Generated by graphviz version 12.1.2 (20240928.0832)
 -->
<!-- Title: public.query_guarantee Pages: 1 -->
<svg width="1321pt" height="602pt"
 viewBox="0.00 0.00 1320.67 602.00" xmlns="http://www.w3.org/2000/svg" xmlns:xlink="http://www.w3.org/1999/xlink">
<g id="graph0" class="graph" transform="scale(1 1) rotate(0) translate(4 598)">
<title>public.query_guarantee</title>
<polygon fill="white" stroke="none" points="-4,4 -4,-598 1316.67,-598 1316.67,4 -4,4"/>
<!-- public.query_guarantee -->
<g id="node1" class="node">
<title>public.query_guarantee</title>
<polygon fill="#efefef" stroke="none" points="495.7,-512.2 495.7,-547.8 803.62,-547.8 803.62,-512.2 495.7,-512.2"/>
<polygon fill="none" stroke="black" points="495.7,-512.2 495.7,-547.8 803.62,-547.8 803.62,-512.2 495.7,-512.2"/>
<text text-anchor="start" x="502.7" y="-525.6" font-family="Arial Bold" font-size="18.00">public.query_guarantee</text>
<text text-anchor="start" x="672.13" y="-525.6" font-family="Arial" font-size="14.00">    </text>
<text text-anchor="start" x="703.25" y="-525.6" font-family="Arial" font-size="14.00" fill="#666666">[BASE TABLE]</text>
<polygon fill="none" stroke="black" points="495.7,-481.4 495.7,-512.2 803.62,-512.2 803.62,-481.4 495.7,-481.4"/>
<text text-anchor="start" x="502.7" y="-493.6" font-family="Arial" font-size="14.00">model_key </text>
<text text-anchor="start" x="574.3" y="-493.6" font-family="Arial" font-size="14.00" fill="#666666">[text]</text>
<polygon fill="none" stroke="black" points="495.7,-450.6 495.7,-481.4 803.62,-481.4 803.62,-450.6 495.7,-450.6"/>
<text text-anchor="start" x="502.7" y="-462.8" font-family="Arial" font-size="14.00">query_key </text>
<text text-anchor="start" x="571.19" y="-462.8" font-family="Arial" font-size="14.00" fill="#666666">[text]</text>
<polygon fill="none" stroke="black" points="495.7,-419.8 495.7,-450.6 803.62,-450.6 803.62,-419.8 495.7,-419.8"/>
<text text-anchor="start" x="502.7" y="-432" font-family="Arial" font-size="14.00">logic_key </text>
<text text-anchor="start" x="564.96" y="-432" font-family="Arial" font-size="14.00" fill="#666666">[text]</text>
<polygon fill="none" stroke="black" stroke-width="3" points="494.2,-418.3 494.2,-549.3 805.12,-549.3 805.12,-418.3 494.2,-418.3"/>
</g>
<!-- public.logic -->
<g id="node2" class="node">
<title>public.logic</title>
<polygon fill="#efefef" stroke="none" points="372.68,-258.8 372.68,-294.4 596.65,-294.4 596.65,-258.8 372.68,-258.8"/>
<polygon fill="none" stroke="black" points="372.68,-258.8 372.68,-294.4 596.65,-294.4 596.65,-258.8 372.68,-258.8"/>
<text text-anchor="start" x="379.68" y="-272.2" font-family="Arial Bold" font-size="18.00">public.logic</text>
<text text-anchor="start" x="465.16" y="-272.2" font-family="Arial" font-size="14.00">    </text>
<text text-anchor="start" x="496.27" y="-272.2" font-family="Arial" font-size="14.00" fill="#666666">[BASE TABLE]</text>
<polygon fill="none" stroke="black" points="372.68,-228 372.68,-258.8 596.65,-258.8 596.65,-228 372.68,-228"/>
<text text-anchor="start" x="379.68" y="-240.2" font-family="Arial" font-size="14.00">logic_key </text>
<text text-anchor="start" x="441.93" y="-240.2" font-family="Arial" font-size="14.00" fill="#666666">[text]</text>
<polygon fill="none" stroke="black" points="372.68,-197.2 372.68,-228 596.65,-228 596.65,-197.2 372.68,-197.2"/>
<text text-anchor="start" x="379.68" y="-209.4" font-family="Arial" font-size="14.00">model_key </text>
<text text-anchor="start" x="451.27" y="-209.4" font-family="Arial" font-size="14.00" fill="#666666">[text]</text>
<polygon fill="none" stroke="black" points="372.68,-166.4 372.68,-197.2 596.65,-197.2 596.65,-166.4 372.68,-166.4"/>
<text text-anchor="start" x="379.68" y="-178.6" font-family="Arial" font-size="14.00">sort_order </text>
<text text-anchor="start" x="447.37" y="-178.6" font-family="Arial" font-size="14.00" fill="#666666">[integer]</text>
<polygon fill="none" stroke="black" points="372.68,-135.6 372.68,-166.4 596.65,-166.4 596.65,-135.6 372.68,-135.6"/>
<text text-anchor="start" x="379.68" y="-147.8" font-family="Arial" font-size="14.00">logic_type </text>
<text text-anchor="start" x="446.61" y="-147.8" font-family="Arial" font-size="14.00" fill="#666666">[logic_type]</text>
<polygon fill="none" stroke="black" points="372.68,-104.8 372.68,-135.6 596.65,-135.6 596.65,-104.8 372.68,-104.8"/>
<text text-anchor="start" x="379.68" y="-117" font-family="Arial" font-size="14.00">description </text>
<text text-anchor="start" x="451.27" y="-117" font-family="Arial" font-size="14.00" fill="#666666">[text]</text>
<polygon fill="none" stroke="black" points="372.68,-74 372.68,-104.8 596.65,-104.8 596.65,-74 372.68,-74"/>
<text text-anchor="start" x="379.68" y="-86.2" font-family="Arial" font-size="14.00">notation </text>
<text text-anchor="start" x="433.39" y="-86.2" font-family="Arial" font-size="14.00" fill="#666666">[notation]</text>
<polygon fill="none" stroke="black" points="372.68,-43.2 372.68,-74 596.65,-74 596.65,-43.2 372.68,-43.2"/>
<text text-anchor="start" x="379.68" y="-55.4" font-family="Arial" font-size="14.00">specification </text>
<text text-anchor="start" x="460.61" y="-55.4" font-family="Arial" font-size="14.00" fill="#666666">[text]</text>
</g>
<!-- public.query_guarantee&#45;&gt;public.logic -->
<g id="edge1" class="edge">
<title>public.query_guarantee:model_key&#45;&gt;public.logic:model_key</title>
<path fill="none" stroke="black" d="M484.56,-495.73C443.27,-486.22 466.14,-415.17 495.7,-373.6 523.31,-334.78 569.04,-376.42 596.65,-337.6 628.84,-292.32 653.2,-212.6 597.65,-212.6"/>
<polygon fill="black" stroke="black" points="484.43,-495.72 493.9,-501.24 489.73,-496.28 494.04,-496.73 494.04,-496.73 494.04,-496.73 489.73,-496.28 494.84,-492.29 484.43,-495.72"/>
<text text-anchor="start" x="7" y="-506.8" font-family="Arial" font-size="10.00">FOREIGN KEY (model_key, logic_key) REFERENCES logic(model_key, logic_key) ON DELETE CASCADE</text>
</g>
<!-- public.query -->
<g id="node3" class="node">
<title>public.query</title>
<polygon fill="#efefef" stroke="none" points="701.18,-228 701.18,-263.6 930.14,-263.6 930.14,-228 701.18,-228"/>
<polygon fill="none" stroke="black" points="701.18,-228 701.18,-263.6 930.14,-263.6 930.14,-228 701.18,-228"/>
<text text-anchor="start" x="708.18" y="-241.4" font-family="Arial Bold" font-size="18.00">public.query</text>
<text text-anchor="start" x="798.65" y="-241.4" font-family="Arial" font-size="14.00">    </text>
<text text-anchor="start" x="829.77" y="-241.4" font-family="Arial" font-size="14.00" fill="#666666">[BASE TABLE]</text>
<polygon fill="none" stroke="black" points="701.18,-197.2 701.18,-228 930.14,-228 930.14,-197.2 701.18,-197.2"/>
<text text-anchor="start" x="708.18" y="-209.4" font-family="Arial" font-size="14.00">model_key </text>
<text text-anchor="start" x="779.77" y="-209.4" font-family="Arial" font-size="14.00" fill="#666666">[text]</text>
<polygon fill="none" stroke="black" points="701.18,-166.4 701.18,-197.2 930.14,-197.2 930.14,-166.4 701.18,-166.4"/>
<text text-anchor="start" x="708.18" y="-178.6" font-family="Arial" font-size="14.00">class_key </text>
<text text-anchor="start" x="773.54" y="-178.6" font-family="Arial" font-size="14.00" fill="#666666">[text]</text>
<polygon fill="none" stroke="black" points="701.18,-135.6 701.18,-166.4 930.14,-166.4 930.14,-135.6 701.18,-135.6"/>
<text text-anchor="start" x="708.18" y="-147.8" font-family="Arial" font-size="14.00">query_key </text>
<text text-anchor="start" x="776.66" y="-147.8" font-family="Arial" font-size="14.00" fill="#666666">[text]</text>
<polygon fill="none" stroke="black" points="701.18,-104.8 701.18,-135.6 930.14,-135.6 930.14,-104.8 701.18,-104.8"/>
<text text-anchor="start" x="708.18" y="-117" font-family="Arial" font-size="14.00">name </text>
<text text-anchor="start" x="747.09" y="-117" font-family="Arial" font-size="14.00" fill="#666666">[text]</text>
<polygon fill="none" stroke="black" points="701.18,-74 701.18,-104.8 930.14,-104.8 930.14,-74 701.18,-74"/>
<text text-anchor="start" x="708.18" y="-86.2" font-family="Arial" font-size="14.00">details </text>
<text text-anchor="start" x="752.54" y="-86.2" font-family="Arial" font-size="14.00" fill="#666666">[text]</text>
</g>
<!-- public.query_guarantee&#45;&gt;public.query -->
<g id="edge2" class="edge">
<title>public.query_guarantee:model_key&#45;&gt;public.query:model_key</title>
<path fill="none" stroke="black" d="M814.95,-495.72C855.25,-486.36 828.05,-418.26 803.62,-373.6 777.54,-325.91 727.32,-354.45 701.18,-306.8 681.04,-270.09 658.31,-212.6 700.18,-212.6"/>
<polygon fill="black" stroke="black" points="814.9,-495.73 804.48,-492.29 809.59,-496.28 805.28,-496.73 805.28,-496.73 805.28,-496.73 809.59,-496.28 805.42,-501.24 814.9,-495.73"/>
<text text-anchor="start" x="811.62" y="-506.8" font-family="Arial" font-size="10.00">FOREIGN KEY (model_key, query_key) REFERENCES query(model_key, query_key) ON DELETE CASCADE</text>
</g>
</g>
</svg>
