<?xml version="1.0" encoding="UTF-8" standalone="no"?>
<!DOCTYPE svg PUBLIC "-//W3C//DTD SVG 1.1//EN"
 "http://www.w3.org/Graphics/SVG/1.1/DTD/svg11.dtd">
<!-- Generated by graphviz version 12.1.2 (20240928.0832)
 -->
<!-- Title: public.logic Pages: 1 -->
<svg width="799pt" height="760pt"
 viewBox="0.00 0.00 798.86 760.00" xmlns="http://www.w3.org/2000/svg" xmlns:xlink="http://www.w3.org/1999/xlink">
<g id="graph0" class="graph" transform="scale(1 1) rotate(0) translate(4 756)">
<title>public.logic</title>
<polygon fill="white" stroke="none" points="-4,4 -4,-756 794.86,-756 794.86,4 -4,4"/>
<!-- public.logic -->
<g id="node1" class="node">
<title>public.logic</title>
<polygon fill="#efefef" stroke="none" points="57.19,-450.6 57.19,-486.2 281.16,-486.2 281.16,-450.6 57.19,-450.6"/>
<polygon fill="none" stroke="black" points="57.19,-450.6 57.19,-486.2 281.16,-486.2 281.16,-450.6 57.19,-450.6"/>
<text text-anchor="start" x="64.19" y="-464" font-family="Arial Bold" font-size="18.00">public.logic</text>
<text text-anchor="start" x="149.67" y="-464" font-family="Arial" font-size="14.00">    </text>
<text text-anchor="start" x="180.79" y="-464" font-family="Arial" font-size="14.00" fill="#666666">[BASE TABLE]</text>
<polygon fill="none" stroke="black" points="57.19,-419.8 57.19,-450.6 281.16,-450.6 281.16,-419.8 57.19,-419.8"/>
<text text-anchor="start" x="64.19" y="-432" font-family="Arial" font-size="14.00">logic_key </text>
<text text-anchor="start" x="126.45" y="-432" font-family="Arial" font-size="14.00" fill="#666666">[text]</text>
<polygon fill="none" stroke="black" points="57.19,-389 57.19,-419.8 281.16,-419.8 281.16,-389 57.19,-389"/>
<text text-anchor="start" x="64.19" y="-401.2" font-family="Arial" font-size="14.00">model_key </text>
<text text-anchor="start" x="135.78" y="-401.2" font-family="Arial" font-size="14.00" fill="#666666">[text]</text>
<polygon fill="none" stroke="black" points="57.19,-358.2 57.19,-389 281.16,-389 281.16,-358.2 57.19,-358.2"/>
<text text-anchor="start" x="64.19" y="-370.4" font-family="Arial" font-size="14.00">description </text>
<text text-anchor="start" x="135.78" y="-370.4" font-family="Arial" font-size="14.00" fill="#666666">[text]</text>
<polygon fill="none" stroke="black" points="57.19,-327.4 57.19,-358.2 281.16,-358.2 281.16,-327.4 57.19,-327.4"/>
<text text-anchor="start" x="64.19" y="-339.6" font-family="Arial" font-size="14.00">notation </text>
<text text-anchor="start" x="117.9" y="-339.6" font-family="Arial" font-size="14.00" fill="#666666">[notation]</text>
<polygon fill="none" stroke="black" points="57.19,-296.6 57.19,-327.4 281.16,-327.4 281.16,-296.6 57.19,-296.6"/>
<text text-anchor="start" x="64.19" y="-308.8" font-family="Arial" font-size="14.00">specification </text>
<text text-anchor="start" x="145.12" y="-308.8" font-family="Arial" font-size="14.00" fill="#666666">[text]</text>
<polygon fill="none" stroke="black" stroke-width="3" points="55.69,-295.1 55.69,-487.7 282.66,-487.7 282.66,-295.1 55.69,-295.1"/>
</g>
<!-- public.model -->
<g id="node3" class="node">
<title>public.model</title>
<polygon fill="#efefef" stroke="none" points="52.69,-135.6 52.69,-171.2 285.66,-171.2 285.66,-135.6 52.69,-135.6"/>
<polygon fill="none" stroke="black" points="52.69,-135.6 52.69,-171.2 285.66,-171.2 285.66,-135.6 52.69,-135.6"/>
<text text-anchor="start" x="59.69" y="-149" font-family="Arial Bold" font-size="18.00">public.model</text>
<text text-anchor="start" x="154.17" y="-149" font-family="Arial" font-size="14.00">    </text>
<text text-anchor="start" x="185.29" y="-149" font-family="Arial" font-size="14.00" fill="#666666">[BASE TABLE]</text>
<polygon fill="none" stroke="black" points="52.69,-104.8 52.69,-135.6 285.66,-135.6 285.66,-104.8 52.69,-104.8"/>
<text text-anchor="start" x="59.69" y="-117" font-family="Arial" font-size="14.00">model_key </text>
<text text-anchor="start" x="131.28" y="-117" font-family="Arial" font-size="14.00" fill="#666666">[text]</text>
<polygon fill="none" stroke="black" points="52.69,-74 52.69,-104.8 285.66,-104.8 285.66,-74 52.69,-74"/>
<text text-anchor="start" x="59.69" y="-86.2" font-family="Arial" font-size="14.00">name </text>
<text text-anchor="start" x="98.6" y="-86.2" font-family="Arial" font-size="14.00" fill="#666666">[text]</text>
<polygon fill="none" stroke="black" points="52.69,-43.2 52.69,-74 285.66,-74 285.66,-43.2 52.69,-43.2"/>
<text text-anchor="start" x="59.69" y="-55.4" font-family="Arial" font-size="14.00">details </text>
<text text-anchor="start" x="104.05" y="-55.4" font-family="Arial" font-size="14.00" fill="#666666">[text]</text>
</g>
<!-- public.logic&#45;&gt;public.model -->
<g id="edge2" class="edge">
<title>public.logic:model_key&#45;&gt;public.model:model_key</title>
<path fill="none" stroke="black" d="M292.25,-403.77C408.64,-389.07 409.54,-120.2 286.66,-120.2"/>
<polygon fill="black" stroke="black" points="292.48,-403.76 282.22,-399.89 287.15,-404.09 282.83,-404.36 282.83,-404.36 282.83,-404.36 287.15,-404.09 282.78,-408.87 292.48,-403.76"/>
<text text-anchor="start" x="289.16" y="-414.4" font-family="Arial" font-size="10.00">FOREIGN KEY (model_key) REFERENCES model(model_key) ON DELETE CASCADE</text>
</g>
<!-- public.invariant -->
<g id="node2" class="node">
<title>public.invariant</title>
<polygon fill="#efefef" stroke="none" points="43.2,-673.2 43.2,-708.8 295.16,-708.8 295.16,-673.2 43.2,-673.2"/>
<polygon fill="none" stroke="black" points="43.2,-673.2 43.2,-708.8 295.16,-708.8 295.16,-673.2 43.2,-673.2"/>
<text text-anchor="start" x="50.2" y="-686.6" font-family="Arial Bold" font-size="18.00">public.invariant</text>
<text text-anchor="start" x="163.67" y="-686.6" font-family="Arial" font-size="14.00">    </text>
<text text-anchor="start" x="194.78" y="-686.6" font-family="Arial" font-size="14.00" fill="#666666">[BASE TABLE]</text>
<polygon fill="none" stroke="black" points="43.2,-642.4 43.2,-673.2 295.16,-673.2 295.16,-642.4 43.2,-642.4"/>
<text text-anchor="start" x="50.2" y="-654.6" font-family="Arial" font-size="14.00">model_key </text>
<text text-anchor="start" x="121.79" y="-654.6" font-family="Arial" font-size="14.00" fill="#666666">[text]</text>
<polygon fill="none" stroke="black" points="43.2,-611.6 43.2,-642.4 295.16,-642.4 295.16,-611.6 43.2,-611.6"/>
<text text-anchor="start" x="50.2" y="-623.8" font-family="Arial" font-size="14.00">logic_key </text>
<text text-anchor="start" x="112.45" y="-623.8" font-family="Arial" font-size="14.00" fill="#666666">[text]</text>
</g>
<!-- public.invariant&#45;&gt;public.logic -->
<g id="edge1" class="edge">
<title>public.invariant:model_key&#45;&gt;public.logic:model_key</title>
<path fill="none" stroke="black" d="M306.36,-657.07C407.98,-642.21 391.43,-404.4 282.16,-404.4"/>
<polygon fill="black" stroke="black" points="306.46,-657.07 296.17,-653.29 301.14,-657.44 296.82,-657.75 296.82,-657.75 296.82,-657.75 301.14,-657.44 296.81,-662.26 306.46,-657.07"/>
<text text-anchor="start" x="303.16" y="-667.8" font-family="Arial" font-size="10.00">FOREIGN KEY (model_key, logic_key) REFERENCES logic(model_key, logic_key) ON DELETE CASCADE</text>
</g>
</g>
</svg>
