<?xml version="1.0" encoding="UTF-8" standalone="no"?>
<!DOCTYPE svg PUBLIC "-//W3C//DTD SVG 1.1//EN"
 "http://www.w3.org/Graphics/SVG/1.1/DTD/svg11.dtd">
<!-- Generated by graphviz version 12.1.2 (20240928.0832)
 -->
<!-- Title: public.logic Pages: 1 -->
<svg width="4634pt" height="1160pt"
 viewBox="0.00 0.00 4634.46 1160.40" xmlns="http://www.w3.org/2000/svg" xmlns:xlink="http://www.w3.org/1999/xlink">
<g id="graph0" class="graph" transform="scale(1 1) rotate(0) translate(4 1156.4)">
<title>public.logic</title>
<polygon fill="white" stroke="none" points="-4,4 -4,-1156.4 4630.46,-1156.4 4630.46,4 -4,4"/>
<!-- public.logic -->
<g id="node1" class="node">
<title>public.logic</title>
<polygon fill="#efefef" stroke="none" points="2213.74,-604.6 2213.74,-640.2 2437.71,-640.2 2437.71,-604.6 2213.74,-604.6"/>
<polygon fill="none" stroke="black" points="2213.74,-604.6 2213.74,-640.2 2437.71,-640.2 2437.71,-604.6 2213.74,-604.6"/>
<text text-anchor="start" x="2220.74" y="-618" font-family="Arial Bold" font-size="18.00">public.logic</text>
<text text-anchor="start" x="2306.22" y="-618" font-family="Arial" font-size="14.00">    </text>
<text text-anchor="start" x="2337.34" y="-618" font-family="Arial" font-size="14.00" fill="#666666">[BASE TABLE]</text>
<polygon fill="none" stroke="black" points="2213.74,-573.8 2213.74,-604.6 2437.71,-604.6 2437.71,-573.8 2213.74,-573.8"/>
<text text-anchor="start" x="2220.74" y="-586" font-family="Arial" font-size="14.00">logic_key </text>
<text text-anchor="start" x="2282.99" y="-586" font-family="Arial" font-size="14.00" fill="#666666">[text]</text>
<polygon fill="none" stroke="black" points="2213.74,-543 2213.74,-573.8 2437.71,-573.8 2437.71,-543 2213.74,-543"/>
<text text-anchor="start" x="2220.74" y="-555.2" font-family="Arial" font-size="14.00">model_key </text>
<text text-anchor="start" x="2292.33" y="-555.2" font-family="Arial" font-size="14.00" fill="#666666">[text]</text>
<polygon fill="none" stroke="black" points="2213.74,-512.2 2213.74,-543 2437.71,-543 2437.71,-512.2 2213.74,-512.2"/>
<text text-anchor="start" x="2220.74" y="-524.4" font-family="Arial" font-size="14.00">sort_order </text>
<text text-anchor="start" x="2288.44" y="-524.4" font-family="Arial" font-size="14.00" fill="#666666">[integer]</text>
<polygon fill="none" stroke="black" points="2213.74,-481.4 2213.74,-512.2 2437.71,-512.2 2437.71,-481.4 2213.74,-481.4"/>
<text text-anchor="start" x="2220.74" y="-493.6" font-family="Arial" font-size="14.00">logic_type </text>
<text text-anchor="start" x="2287.67" y="-493.6" font-family="Arial" font-size="14.00" fill="#666666">[logic_type]</text>
<polygon fill="none" stroke="black" points="2213.74,-450.6 2213.74,-481.4 2437.71,-481.4 2437.71,-450.6 2213.74,-450.6"/>
<text text-anchor="start" x="2220.74" y="-462.8" font-family="Arial" font-size="14.00">description </text>
<text text-anchor="start" x="2292.33" y="-462.8" font-family="Arial" font-size="14.00" fill="#666666">[text]</text>
<polygon fill="none" stroke="black" points="2213.74,-419.8 2213.74,-450.6 2437.71,-450.6 2437.71,-419.8 2213.74,-419.8"/>
<text text-anchor="start" x="2220.74" y="-432" font-family="Arial" font-size="14.00">target </text>
<text text-anchor="start" x="2260.43" y="-432" font-family="Arial" font-size="14.00" fill="#666666">[text]</text>
<polygon fill="none" stroke="black" points="2213.74,-389 2213.74,-419.8 2437.71,-419.8 2437.71,-389 2213.74,-389"/>
<text text-anchor="start" x="2220.74" y="-401.2" font-family="Arial" font-size="14.00">notation </text>
<text text-anchor="start" x="2274.45" y="-401.2" font-family="Arial" font-size="14.00" fill="#666666">[notation]</text>
<polygon fill="none" stroke="black" points="2213.74,-358.2 2213.74,-389 2437.71,-389 2437.71,-358.2 2213.74,-358.2"/>
<text text-anchor="start" x="2220.74" y="-370.4" font-family="Arial" font-size="14.00">specification </text>
<text text-anchor="start" x="2301.67" y="-370.4" font-family="Arial" font-size="14.00" fill="#666666">[text]</text>
<polygon fill="none" stroke="black" points="2213.74,-327.4 2213.74,-358.2 2437.71,-358.2 2437.71,-327.4 2213.74,-327.4"/>
<text text-anchor="start" x="2220.74" y="-339.6" font-family="Arial" font-size="14.00">target_type_notation </text>
<text text-anchor="start" x="2352.28" y="-339.6" font-family="Arial" font-size="14.00" fill="#666666">[notation]</text>
<polygon fill="none" stroke="black" points="2213.74,-296.6 2213.74,-327.4 2437.71,-327.4 2437.71,-296.6 2213.74,-296.6"/>
<text text-anchor="start" x="2220.74" y="-308.8" font-family="Arial" font-size="14.00">target_type_specification </text>
<text text-anchor="start" x="2379.5" y="-308.8" font-family="Arial" font-size="14.00" fill="#666666">[text]</text>
<polygon fill="none" stroke="black" stroke-width="3" points="2212.24,-295.1 2212.24,-641.7 2439.21,-641.7 2439.21,-295.1 2212.24,-295.1"/>
</g>
<!-- public.model -->
<g id="node13" class="node">
<title>public.model</title>
<polygon fill="#efefef" stroke="none" points="2209.24,-135.6 2209.24,-171.2 2442.21,-171.2 2442.21,-135.6 2209.24,-135.6"/>
<polygon fill="none" stroke="black" points="2209.24,-135.6 2209.24,-171.2 2442.21,-171.2 2442.21,-135.6 2209.24,-135.6"/>
<text text-anchor="start" x="2216.24" y="-149" font-family="Arial Bold" font-size="18.00">public.model</text>
<text text-anchor="start" x="2310.72" y="-149" font-family="Arial" font-size="14.00">    </text>
<text text-anchor="start" x="2341.84" y="-149" font-family="Arial" font-size="14.00" fill="#666666">[BASE TABLE]</text>
<polygon fill="none" stroke="black" points="2209.24,-104.8 2209.24,-135.6 2442.21,-135.6 2442.21,-104.8 2209.24,-104.8"/>
<text text-anchor="start" x="2216.24" y="-117" font-family="Arial" font-size="14.00">model_key </text>
<text text-anchor="start" x="2287.83" y="-117" font-family="Arial" font-size="14.00" fill="#666666">[text]</text>
<polygon fill="none" stroke="black" points="2209.24,-74 2209.24,-104.8 2442.21,-104.8 2442.21,-74 2209.24,-74"/>
<text text-anchor="start" x="2216.24" y="-86.2" font-family="Arial" font-size="14.00">name </text>
<text text-anchor="start" x="2255.15" y="-86.2" font-family="Arial" font-size="14.00" fill="#666666">[text]</text>
<polygon fill="none" stroke="black" points="2209.24,-43.2 2209.24,-74 2442.21,-74 2442.21,-43.2 2209.24,-43.2"/>
<text text-anchor="start" x="2216.24" y="-55.4" font-family="Arial" font-size="14.00">details </text>
<text text-anchor="start" x="2260.6" y="-55.4" font-family="Arial" font-size="14.00" fill="#666666">[text]</text>
</g>
<!-- public.logic&#45;&gt;public.model -->
<g id="edge12" class="edge">
<title>public.logic:model_key&#45;&gt;public.model:model_key</title>
<path fill="none" stroke="black" d="M2449.08,-557.98C2633.57,-542.71 2634.46,-120.2 2443.21,-120.2"/>
<polygon fill="black" stroke="black" points="2449.04,-557.98 2438.86,-553.89 2443.71,-558.2 2439.38,-558.37 2439.38,-558.37 2439.38,-558.37 2443.71,-558.2 2439.23,-562.88 2449.04,-557.98"/>
<text text-anchor="start" x="2445.71" y="-568.4" font-family="Arial" font-size="10.00">FOREIGN KEY (model_key) REFERENCES model(model_key) ON DELETE CASCADE</text>
</g>
<!-- public.invariant -->
<g id="node2" class="node">
<title>public.invariant</title>
<polygon fill="#efefef" stroke="none" points="241.75,-950.4 241.75,-986 493.7,-986 493.7,-950.4 241.75,-950.4"/>
<polygon fill="none" stroke="black" points="241.75,-950.4 241.75,-986 493.7,-986 493.7,-950.4 241.75,-950.4"/>
<text text-anchor="start" x="248.75" y="-963.8" font-family="Arial Bold" font-size="18.00">public.invariant</text>
<text text-anchor="start" x="362.21" y="-963.8" font-family="Arial" font-size="14.00">    </text>
<text text-anchor="start" x="393.33" y="-963.8" font-family="Arial" font-size="14.00" fill="#666666">[BASE TABLE]</text>
<polygon fill="none" stroke="black" points="241.75,-919.6 241.75,-950.4 493.7,-950.4 493.7,-919.6 241.75,-919.6"/>
<text text-anchor="start" x="248.75" y="-931.8" font-family="Arial" font-size="14.00">model_key </text>
<text text-anchor="start" x="320.34" y="-931.8" font-family="Arial" font-size="14.00" fill="#666666">[text]</text>
<polygon fill="none" stroke="black" points="241.75,-888.8 241.75,-919.6 493.7,-919.6 493.7,-888.8 241.75,-888.8"/>
<text text-anchor="start" x="248.75" y="-901" font-family="Arial" font-size="14.00">logic_key </text>
<text text-anchor="start" x="311" y="-901" font-family="Arial" font-size="14.00" fill="#666666">[text]</text>
</g>
<!-- public.invariant&#45;&gt;public.logic -->
<g id="edge1" class="edge">
<title>public.invariant:model_key&#45;&gt;public.logic:model_key</title>
<path fill="none" stroke="black" d="M505.12,-934.33C582.84,-923.51 475.32,-783.74 545.73,-722.4 686.06,-600.14 2026.62,-558.4 2212.74,-558.4"/>
<polygon fill="black" stroke="black" points="505.02,-934.34 494.75,-930.49 499.69,-934.68 495.37,-934.96 495.37,-934.96 495.37,-934.96 499.69,-934.68 495.32,-939.47 505.02,-934.34"/>
<text text-anchor="start" x="7" y="-945" font-family="Arial" font-size="10.00">FOREIGN KEY (model_key, logic_key) REFERENCES logic(model_key, logic_key) ON DELETE CASCADE</text>
</g>
<!-- public.global_function -->
<g id="node3" class="node">
<title>public.global_function</title>
<polygon fill="#efefef" stroke="none" points="597.75,-981.2 597.75,-1016.8 899.7,-1016.8 899.7,-981.2 597.75,-981.2"/>
<polygon fill="none" stroke="black" points="597.75,-981.2 597.75,-1016.8 899.7,-1016.8 899.7,-981.2 597.75,-981.2"/>
<text text-anchor="start" x="604.75" y="-994.6" font-family="Arial Bold" font-size="18.00">public.global_function</text>
<text text-anchor="start" x="768.21" y="-994.6" font-family="Arial" font-size="14.00">    </text>
<text text-anchor="start" x="799.33" y="-994.6" font-family="Arial" font-size="14.00" fill="#666666">[BASE TABLE]</text>
<polygon fill="none" stroke="black" points="597.75,-950.4 597.75,-981.2 899.7,-981.2 899.7,-950.4 597.75,-950.4"/>
<text text-anchor="start" x="604.75" y="-962.6" font-family="Arial" font-size="14.00">model_key </text>
<text text-anchor="start" x="676.34" y="-962.6" font-family="Arial" font-size="14.00" fill="#666666">[text]</text>
<polygon fill="none" stroke="black" points="597.75,-919.6 597.75,-950.4 899.7,-950.4 899.7,-919.6 597.75,-919.6"/>
<text text-anchor="start" x="604.75" y="-931.8" font-family="Arial" font-size="14.00">logic_key </text>
<text text-anchor="start" x="667" y="-931.8" font-family="Arial" font-size="14.00" fill="#666666">[text]</text>
<polygon fill="none" stroke="black" points="597.75,-888.8 597.75,-919.6 899.7,-919.6 899.7,-888.8 597.75,-888.8"/>
<text text-anchor="start" x="604.75" y="-901" font-family="Arial" font-size="14.00">name </text>
<text text-anchor="start" x="643.66" y="-901" font-family="Arial" font-size="14.00" fill="#666666">[text]</text>
<polygon fill="none" stroke="black" points="597.75,-858 597.75,-888.8 899.7,-888.8 899.7,-858 597.75,-858"/>
<text text-anchor="start" x="604.75" y="-870.2" font-family="Arial" font-size="14.00">parameters </text>
<text text-anchor="start" x="679.44" y="-870.2" font-family="Arial" font-size="14.00" fill="#666666">[text[]]</text>
</g>
<!-- public.global_function&#45;&gt;public.logic -->
<g id="edge2" class="edge">
<title>public.global_function:model_key&#45;&gt;public.logic:model_key</title>
<path fill="none" stroke="black" d="M910.9,-965.25C1002.14,-954.73 873.3,-794.98 951.73,-722.4 1055.42,-626.43 2071.45,-558.4 2212.74,-558.4"/>
<polygon fill="black" stroke="black" points="911.02,-965.25 900.8,-961.29 905.7,-965.53 901.37,-965.76 901.37,-965.76 901.37,-965.76 905.7,-965.53 901.28,-970.28 911.02,-965.25"/>
<text text-anchor="start" x="413" y="-975.8" font-family="Arial" font-size="10.00">FOREIGN KEY (model_key, logic_key) REFERENCES logic(model_key, logic_key) ON DELETE CASCADE</text>
</g>
<!-- public.attribute -->
<g id="node4" class="node">
<title>public.attribute</title>
<polygon fill="#efefef" stroke="none" points="1003.75,-1073.6 1003.75,-1109.2 1251.7,-1109.2 1251.7,-1073.6 1003.75,-1073.6"/>
<polygon fill="none" stroke="black" points="1003.75,-1073.6 1003.75,-1109.2 1251.7,-1109.2 1251.7,-1073.6 1003.75,-1073.6"/>
<text text-anchor="start" x="1010.75" y="-1087" font-family="Arial Bold" font-size="18.00">public.attribute</text>
<text text-anchor="start" x="1120.21" y="-1087" font-family="Arial" font-size="14.00">    </text>
<text text-anchor="start" x="1151.33" y="-1087" font-family="Arial" font-size="14.00" fill="#666666">[BASE TABLE]</text>
<polygon fill="none" stroke="black" points="1003.75,-1042.8 1003.75,-1073.6 1251.7,-1073.6 1251.7,-1042.8 1003.75,-1042.8"/>
<text text-anchor="start" x="1010.75" y="-1055" font-family="Arial" font-size="14.00">model_key </text>
<text text-anchor="start" x="1082.34" y="-1055" font-family="Arial" font-size="14.00" fill="#666666">[text]</text>
<polygon fill="none" stroke="black" points="1003.75,-1012 1003.75,-1042.8 1251.7,-1042.8 1251.7,-1012 1003.75,-1012"/>
<text text-anchor="start" x="1010.75" y="-1024.2" font-family="Arial" font-size="14.00">attribute_key </text>
<text text-anchor="start" x="1094.79" y="-1024.2" font-family="Arial" font-size="14.00" fill="#666666">[text]</text>
<polygon fill="none" stroke="black" points="1003.75,-981.2 1003.75,-1012 1251.7,-1012 1251.7,-981.2 1003.75,-981.2"/>
<text text-anchor="start" x="1010.75" y="-993.4" font-family="Arial" font-size="14.00">class_key </text>
<text text-anchor="start" x="1076.1" y="-993.4" font-family="Arial" font-size="14.00" fill="#666666">[text]</text>
<polygon fill="none" stroke="black" points="1003.75,-950.4 1003.75,-981.2 1251.7,-981.2 1251.7,-950.4 1003.75,-950.4"/>
<text text-anchor="start" x="1010.75" y="-962.6" font-family="Arial" font-size="14.00">name </text>
<text text-anchor="start" x="1049.66" y="-962.6" font-family="Arial" font-size="14.00" fill="#666666">[text]</text>
<polygon fill="none" stroke="black" points="1003.75,-919.6 1003.75,-950.4 1251.7,-950.4 1251.7,-919.6 1003.75,-919.6"/>
<text text-anchor="start" x="1010.75" y="-931.8" font-family="Arial" font-size="14.00">details </text>
<text text-anchor="start" x="1055.1" y="-931.8" font-family="Arial" font-size="14.00" fill="#666666">[text]</text>
<polygon fill="none" stroke="black" points="1003.75,-888.8 1003.75,-919.6 1251.7,-919.6 1251.7,-888.8 1003.75,-888.8"/>
<text text-anchor="start" x="1010.75" y="-901" font-family="Arial" font-size="14.00">data_type_rules </text>
<text text-anchor="start" x="1114.26" y="-901" font-family="Arial" font-size="14.00" fill="#666666">[text]</text>
<polygon fill="none" stroke="black" points="1003.75,-858 1003.75,-888.8 1251.7,-888.8 1251.7,-858 1003.75,-858"/>
<text text-anchor="start" x="1010.75" y="-870.2" font-family="Arial" font-size="14.00">data_type_key </text>
<text text-anchor="start" x="1105.7" y="-870.2" font-family="Arial" font-size="14.00" fill="#666666">[text]</text>
<polygon fill="none" stroke="black" points="1003.75,-827.2 1003.75,-858 1251.7,-858 1251.7,-827.2 1003.75,-827.2"/>
<text text-anchor="start" x="1010.75" y="-839.4" font-family="Arial" font-size="14.00">derivation_policy_key </text>
<text text-anchor="start" x="1148.49" y="-839.4" font-family="Arial" font-size="14.00" fill="#666666">[text]</text>
<polygon fill="none" stroke="black" points="1003.75,-796.4 1003.75,-827.2 1251.7,-827.2 1251.7,-796.4 1003.75,-796.4"/>
<text text-anchor="start" x="1010.75" y="-808.6" font-family="Arial" font-size="14.00">nullable </text>
<text text-anchor="start" x="1062.9" y="-808.6" font-family="Arial" font-size="14.00" fill="#666666">[boolean]</text>
<polygon fill="none" stroke="black" points="1003.75,-765.6 1003.75,-796.4 1251.7,-796.4 1251.7,-765.6 1003.75,-765.6"/>
<text text-anchor="start" x="1010.75" y="-777.8" font-family="Arial" font-size="14.00">uml_comment </text>
<text text-anchor="start" x="1102.55" y="-777.8" font-family="Arial" font-size="14.00" fill="#666666">[text]</text>
</g>
<!-- public.attribute&#45;&gt;public.logic -->
<g id="edge3" class="edge">
<title>public.attribute:model_key&#45;&gt;public.logic:model_key</title>
<path fill="none" stroke="black" d="M1262.7,-1056.24C1320.96,-1031.23 1253.67,-773.86 1303.73,-722.4 1446.84,-575.26 2007.47,-558.4 2212.74,-558.4"/>
<polygon fill="black" stroke="black" points="1262.85,-1056.22 1252.17,-1053.72 1257.61,-1057.24 1253.36,-1058.07 1253.36,-1058.07 1253.36,-1058.07 1257.61,-1057.24 1253.9,-1062.55 1262.85,-1056.22"/>
<text text-anchor="start" x="1259.7" y="-1068.2" font-family="Arial" font-size="10.00">FOREIGN KEY (model_key, derivation_policy_key) REFERENCES logic(model_key, logic_key) ON DELETE CASCADE</text>
</g>
<!-- public.class_invariant -->
<g id="node5" class="node">
<title>public.class_invariant</title>
<polygon fill="#efefef" stroke="none" points="1355.75,-965.8 1355.75,-1001.4 1651.7,-1001.4 1651.7,-965.8 1355.75,-965.8"/>
<polygon fill="none" stroke="black" points="1355.75,-965.8 1355.75,-1001.4 1651.7,-1001.4 1651.7,-965.8 1355.75,-965.8"/>
<text text-anchor="start" x="1362.75" y="-979.2" font-family="Arial Bold" font-size="18.00">public.class_invariant</text>
<text text-anchor="start" x="1520.21" y="-979.2" font-family="Arial" font-size="14.00">    </text>
<text text-anchor="start" x="1551.33" y="-979.2" font-family="Arial" font-size="14.00" fill="#666666">[BASE TABLE]</text>
<polygon fill="none" stroke="black" points="1355.75,-935 1355.75,-965.8 1651.7,-965.8 1651.7,-935 1355.75,-935"/>
<text text-anchor="start" x="1362.75" y="-947.2" font-family="Arial" font-size="14.00">model_key </text>
<text text-anchor="start" x="1434.35" y="-947.2" font-family="Arial" font-size="14.00" fill="#666666">[text]</text>
<polygon fill="none" stroke="black" points="1355.75,-904.2 1355.75,-935 1651.7,-935 1651.7,-904.2 1355.75,-904.2"/>
<text text-anchor="start" x="1362.75" y="-916.4" font-family="Arial" font-size="14.00">class_key </text>
<text text-anchor="start" x="1428.11" y="-916.4" font-family="Arial" font-size="14.00" fill="#666666">[text]</text>
<polygon fill="none" stroke="black" points="1355.75,-873.4 1355.75,-904.2 1651.7,-904.2 1651.7,-873.4 1355.75,-873.4"/>
<text text-anchor="start" x="1362.75" y="-885.6" font-family="Arial" font-size="14.00">logic_key </text>
<text text-anchor="start" x="1425.01" y="-885.6" font-family="Arial" font-size="14.00" fill="#666666">[text]</text>
</g>
<!-- public.class_invariant&#45;&gt;public.logic -->
<g id="edge4" class="edge">
<title>public.class_invariant:model_key&#45;&gt;public.logic:model_key</title>
<path fill="none" stroke="black" d="M1663.09,-949.82C1747.92,-939.56 1636.26,-796.34 1703.73,-722.4 1783.83,-634.61 2093.9,-558.4 2212.74,-558.4"/>
<polygon fill="black" stroke="black" points="1663.02,-949.82 1652.78,-945.89 1657.69,-950.12 1653.37,-950.36 1653.37,-950.36 1653.37,-950.36 1657.69,-950.12 1653.28,-954.87 1663.02,-949.82"/>
<text text-anchor="start" x="1412.35" y="-934.4" font-family="Arial" font-size="10.00">FOREIGN KEY (model_key, logic_key) REFERENCES logic(model_key, logic_key) ON DELETE CASCADE</text>
</g>
<!-- public.attribute_invariant -->
<g id="node6" class="node">
<title>public.attribute_invariant</title>
<polygon fill="#efefef" stroke="none" points="1756.26,-965.8 1756.26,-1001.4 2077.19,-1001.4 2077.19,-965.8 1756.26,-965.8"/>
<polygon fill="none" stroke="black" points="1756.26,-965.8 1756.26,-1001.4 2077.19,-1001.4 2077.19,-965.8 1756.26,-965.8"/>
<text text-anchor="start" x="1763.26" y="-979.2" font-family="Arial Bold" font-size="18.00">public.attribute_invariant</text>
<text text-anchor="start" x="1945.7" y="-979.2" font-family="Arial" font-size="14.00">    </text>
<text text-anchor="start" x="1976.82" y="-979.2" font-family="Arial" font-size="14.00" fill="#666666">[BASE TABLE]</text>
<polygon fill="none" stroke="black" points="1756.26,-935 1756.26,-965.8 2077.19,-965.8 2077.19,-935 1756.26,-935"/>
<text text-anchor="start" x="1763.26" y="-947.2" font-family="Arial" font-size="14.00">model_key </text>
<text text-anchor="start" x="1834.85" y="-947.2" font-family="Arial" font-size="14.00" fill="#666666">[text]</text>
<polygon fill="none" stroke="black" points="1756.26,-904.2 1756.26,-935 2077.19,-935 2077.19,-904.2 1756.26,-904.2"/>
<text text-anchor="start" x="1763.26" y="-916.4" font-family="Arial" font-size="14.00">attribute_key </text>
<text text-anchor="start" x="1847.31" y="-916.4" font-family="Arial" font-size="14.00" fill="#666666">[text]</text>
<polygon fill="none" stroke="black" points="1756.26,-873.4 1756.26,-904.2 2077.19,-904.2 2077.19,-873.4 1756.26,-873.4"/>
<text text-anchor="start" x="1763.26" y="-885.6" font-family="Arial" font-size="14.00">logic_key </text>
<text text-anchor="start" x="1825.51" y="-885.6" font-family="Arial" font-size="14.00" fill="#666666">[text]</text>
</g>
<!-- public.attribute_invariant&#45;&gt;public.logic -->
<g id="edge5" class="edge">
<title>public.attribute_invariant:model_key&#45;&gt;public.logic:model_key</title>
<path fill="none" stroke="black" d="M2088.12,-947.85C2127.6,-925.85 2112.37,-767.79 2128.73,-722.4 2156.48,-645.35 2130.84,-558.4 2212.74,-558.4"/>
<polygon fill="black" stroke="black" points="2088.2,-947.83 2077.4,-945.96 2083.03,-949.16 2078.84,-950.23 2078.84,-950.23 2078.84,-950.23 2083.03,-949.16 2079.63,-954.68 2088.2,-947.83"/>
<text text-anchor="start" x="2085.19" y="-960.4" font-family="Arial" font-size="10.00">FOREIGN KEY (model_key, logic_key) REFERENCES logic(model_key, logic_key) ON DELETE CASCADE</text>
</g>
<!-- public.query_require -->
<g id="node7" class="node">
<title>public.query_require</title>
<polygon fill="#efefef" stroke="none" points="2181.26,-965.8 2181.26,-1001.4 2470.19,-1001.4 2470.19,-965.8 2181.26,-965.8"/>
<polygon fill="none" stroke="black" points="2181.26,-965.8 2181.26,-1001.4 2470.19,-1001.4 2470.19,-965.8 2181.26,-965.8"/>
<text text-anchor="start" x="2188.26" y="-979.2" font-family="Arial Bold" font-size="18.00">public.query_require</text>
<text text-anchor="start" x="2338.7" y="-979.2" font-family="Arial" font-size="14.00">    </text>
<text text-anchor="start" x="2369.82" y="-979.2" font-family="Arial" font-size="14.00" fill="#666666">[BASE TABLE]</text>
<polygon fill="none" stroke="black" points="2181.26,-935 2181.26,-965.8 2470.19,-965.8 2470.19,-935 2181.26,-935"/>
<text text-anchor="start" x="2188.26" y="-947.2" font-family="Arial" font-size="14.00">model_key </text>
<text text-anchor="start" x="2259.85" y="-947.2" font-family="Arial" font-size="14.00" fill="#666666">[text]</text>
<polygon fill="none" stroke="black" points="2181.26,-904.2 2181.26,-935 2470.19,-935 2470.19,-904.2 2181.26,-904.2"/>
<text text-anchor="start" x="2188.26" y="-916.4" font-family="Arial" font-size="14.00">query_key </text>
<text text-anchor="start" x="2256.74" y="-916.4" font-family="Arial" font-size="14.00" fill="#666666">[text]</text>
<polygon fill="none" stroke="black" points="2181.26,-873.4 2181.26,-904.2 2470.19,-904.2 2470.19,-873.4 2181.26,-873.4"/>
<text text-anchor="start" x="2188.26" y="-885.6" font-family="Arial" font-size="14.00">logic_key </text>
<text text-anchor="start" x="2250.51" y="-885.6" font-family="Arial" font-size="14.00" fill="#666666">[text]</text>
</g>
<!-- public.query_require&#45;&gt;public.logic -->
<g id="edge6" class="edge">
<title>public.query_require:model_key&#45;&gt;public.logic:model_key</title>
<path fill="none" stroke="black" d="M2481.35,-948.48C2555.84,-918.9 2522.54,-558.4 2438.71,-558.4"/>
<polygon fill="black" stroke="black" points="2481.34,-948.48 2470.68,-945.92 2476.1,-949.47 2471.85,-950.28 2471.85,-950.28 2471.85,-950.28 2476.1,-949.47 2472.36,-954.76 2481.34,-948.48"/>
<text text-anchor="start" x="2230.84" y="-934.4" font-family="Arial" font-size="10.00">FOREIGN KEY (model_key, logic_key) REFERENCES logic(model_key, logic_key) ON DELETE CASCADE</text>
</g>
<!-- public.query_guarantee -->
<g id="node8" class="node">
<title>public.query_guarantee</title>
<polygon fill="#efefef" stroke="none" points="2574.77,-965.8 2574.77,-1001.4 2882.68,-1001.4 2882.68,-965.8 2574.77,-965.8"/>
<polygon fill="none" stroke="black" points="2574.77,-965.8 2574.77,-1001.4 2882.68,-1001.4 2882.68,-965.8 2574.77,-965.8"/>
<text text-anchor="start" x="2581.77" y="-979.2" font-family="Arial Bold" font-size="18.00">public.query_guarantee</text>
<text text-anchor="start" x="2751.19" y="-979.2" font-family="Arial" font-size="14.00">    </text>
<text text-anchor="start" x="2782.31" y="-979.2" font-family="Arial" font-size="14.00" fill="#666666">[BASE TABLE]</text>
<polygon fill="none" stroke="black" points="2574.77,-935 2574.77,-965.8 2882.68,-965.8 2882.68,-935 2574.77,-935"/>
<text text-anchor="start" x="2581.77" y="-947.2" font-family="Arial" font-size="14.00">model_key </text>
<text text-anchor="start" x="2653.36" y="-947.2" font-family="Arial" font-size="14.00" fill="#666666">[text]</text>
<polygon fill="none" stroke="black" points="2574.77,-904.2 2574.77,-935 2882.68,-935 2882.68,-904.2 2574.77,-904.2"/>
<text text-anchor="start" x="2581.77" y="-916.4" font-family="Arial" font-size="14.00">query_key </text>
<text text-anchor="start" x="2650.25" y="-916.4" font-family="Arial" font-size="14.00" fill="#666666">[text]</text>
<polygon fill="none" stroke="black" points="2574.77,-873.4 2574.77,-904.2 2882.68,-904.2 2882.68,-873.4 2574.77,-873.4"/>
<text text-anchor="start" x="2581.77" y="-885.6" font-family="Arial" font-size="14.00">logic_key </text>
<text text-anchor="start" x="2644.02" y="-885.6" font-family="Arial" font-size="14.00" fill="#666666">[text]</text>
</g>
<!-- public.query_guarantee&#45;&gt;public.logic -->
<g id="edge7" class="edge">
<title>public.query_guarantee:model_key&#45;&gt;public.logic:model_key</title>
<path fill="none" stroke="black" d="M2563.82,-947.85C2524.27,-925.85 2539.13,-767.8 2522.73,-722.4 2494.89,-645.38 2520.61,-558.4 2438.71,-558.4"/>
<polygon fill="black" stroke="black" points="2563.76,-947.83 2572.33,-954.68 2568.92,-949.16 2573.12,-950.23 2573.12,-950.23 2573.12,-950.23 2568.92,-949.16 2574.56,-945.96 2563.76,-947.83"/>
<text text-anchor="start" x="2580.77" y="-960.4" font-family="Arial" font-size="10.00">FOREIGN KEY (model_key, logic_key) REFERENCES logic(model_key, logic_key) ON DELETE CASCADE</text>
</g>
<!-- public.guard -->
<g id="node9" class="node">
<title>public.guard</title>
<polygon fill="#efefef" stroke="none" points="2987.24,-981.2 2987.24,-1016.8 3216.21,-1016.8 3216.21,-981.2 2987.24,-981.2"/>
<polygon fill="none" stroke="black" points="2987.24,-981.2 2987.24,-1016.8 3216.21,-1016.8 3216.21,-981.2 2987.24,-981.2"/>
<text text-anchor="start" x="2994.24" y="-994.6" font-family="Arial Bold" font-size="18.00">public.guard</text>
<text text-anchor="start" x="3084.72" y="-994.6" font-family="Arial" font-size="14.00">    </text>
<text text-anchor="start" x="3115.83" y="-994.6" font-family="Arial" font-size="14.00" fill="#666666">[BASE TABLE]</text>
<polygon fill="none" stroke="black" points="2987.24,-950.4 2987.24,-981.2 3216.21,-981.2 3216.21,-950.4 2987.24,-950.4"/>
<text text-anchor="start" x="2994.24" y="-962.6" font-family="Arial" font-size="14.00">model_key </text>
<text text-anchor="start" x="3065.84" y="-962.6" font-family="Arial" font-size="14.00" fill="#666666">[text]</text>
<polygon fill="none" stroke="black" points="2987.24,-919.6 2987.24,-950.4 3216.21,-950.4 3216.21,-919.6 2987.24,-919.6"/>
<text text-anchor="start" x="2994.24" y="-931.8" font-family="Arial" font-size="14.00">class_key </text>
<text text-anchor="start" x="3059.6" y="-931.8" font-family="Arial" font-size="14.00" fill="#666666">[text]</text>
<polygon fill="none" stroke="black" points="2987.24,-888.8 2987.24,-919.6 3216.21,-919.6 3216.21,-888.8 2987.24,-888.8"/>
<text text-anchor="start" x="2994.24" y="-901" font-family="Arial" font-size="14.00">guard_key </text>
<text text-anchor="start" x="3063.51" y="-901" font-family="Arial" font-size="14.00" fill="#666666">[text]</text>
<polygon fill="none" stroke="black" points="2987.24,-858 2987.24,-888.8 3216.21,-888.8 3216.21,-858 2987.24,-858"/>
<text text-anchor="start" x="2994.24" y="-870.2" font-family="Arial" font-size="14.00">name </text>
<text text-anchor="start" x="3033.15" y="-870.2" font-family="Arial" font-size="14.00" fill="#666666">[text]</text>
</g>
<!-- public.guard&#45;&gt;public.logic -->
<g id="edge8" class="edge">
<title>public.guard:model_key&#45;&gt;public.logic:model_key</title>
<path fill="none" stroke="black" d="M2976.02,-965.28C2884.26,-955.19 3006.02,-802.06 2934.73,-722.4 2857.3,-635.89 2554.8,-558.4 2438.71,-558.4"/>
<polygon fill="black" stroke="black" points="2975.92,-965.27 2985.68,-970.28 2981.25,-965.54 2985.58,-965.77 2985.58,-965.77 2985.58,-965.77 2981.25,-965.54 2986.14,-961.29 2975.92,-965.27"/>
<text text-anchor="start" x="2993.24" y="-975.8" font-family="Arial" font-size="10.00">FOREIGN KEY (model_key, guard_key) REFERENCES logic(model_key, logic_key) ON DELETE CASCADE</text>
</g>
<!-- public.action_require -->
<g id="node10" class="node">
<title>public.action_require</title>
<polygon fill="#efefef" stroke="none" points="3320.76,-965.8 3320.76,-1001.4 3612.69,-1001.4 3612.69,-965.8 3320.76,-965.8"/>
<polygon fill="none" stroke="black" points="3320.76,-965.8 3320.76,-1001.4 3612.69,-1001.4 3612.69,-965.8 3320.76,-965.8"/>
<text text-anchor="start" x="3327.76" y="-979.2" font-family="Arial Bold" font-size="18.00">public.action_require</text>
<text text-anchor="start" x="3481.2" y="-979.2" font-family="Arial" font-size="14.00">    </text>
<text text-anchor="start" x="3512.32" y="-979.2" font-family="Arial" font-size="14.00" fill="#666666">[BASE TABLE]</text>
<polygon fill="none" stroke="black" points="3320.76,-935 3320.76,-965.8 3612.69,-965.8 3612.69,-935 3320.76,-935"/>
<text text-anchor="start" x="3327.76" y="-947.2" font-family="Arial" font-size="14.00">model_key </text>
<text text-anchor="start" x="3399.35" y="-947.2" font-family="Arial" font-size="14.00" fill="#666666">[text]</text>
<polygon fill="none" stroke="black" points="3320.76,-904.2 3320.76,-935 3612.69,-935 3612.69,-904.2 3320.76,-904.2"/>
<text text-anchor="start" x="3327.76" y="-916.4" font-family="Arial" font-size="14.00">action_key </text>
<text text-anchor="start" x="3398.58" y="-916.4" font-family="Arial" font-size="14.00" fill="#666666">[text]</text>
<polygon fill="none" stroke="black" points="3320.76,-873.4 3320.76,-904.2 3612.69,-904.2 3612.69,-873.4 3320.76,-873.4"/>
<text text-anchor="start" x="3327.76" y="-885.6" font-family="Arial" font-size="14.00">logic_key </text>
<text text-anchor="start" x="3390.02" y="-885.6" font-family="Arial" font-size="14.00" fill="#666666">[text]</text>
</g>
<!-- public.action_require&#45;&gt;public.logic -->
<g id="edge9" class="edge">
<title>public.action_require:model_key&#45;&gt;public.logic:model_key</title>
<path fill="none" stroke="black" d="M3309.39,-949.8C3224.85,-939.27 3340.38,-792.28 3268.73,-722.4 3134.12,-591.14 2626.72,-558.4 2438.71,-558.4"/>
<polygon fill="black" stroke="black" points="3309.44,-949.81 3319.17,-954.87 3314.77,-950.11 3319.09,-950.36 3319.09,-950.36 3319.09,-950.36 3314.77,-950.11 3319.69,-945.89 3309.44,-949.81"/>
<text text-anchor="start" x="2955.73" y="-934.4" font-family="Arial" font-size="10.00">FOREIGN KEY (model_key, logic_key) REFERENCES logic(model_key, logic_key) ON DELETE CASCADE</text>
</g>
<!-- public.action_guarantee -->
<g id="node11" class="node">
<title>public.action_guarantee</title>
<polygon fill="#efefef" stroke="none" points="3717.27,-965.8 3717.27,-1001.4 4028.18,-1001.4 4028.18,-965.8 3717.27,-965.8"/>
<polygon fill="none" stroke="black" points="3717.27,-965.8 3717.27,-1001.4 4028.18,-1001.4 4028.18,-965.8 3717.27,-965.8"/>
<text text-anchor="start" x="3724.27" y="-979.2" font-family="Arial Bold" font-size="18.00">public.action_guarantee</text>
<text text-anchor="start" x="3896.69" y="-979.2" font-family="Arial" font-size="14.00">    </text>
<text text-anchor="start" x="3927.81" y="-979.2" font-family="Arial" font-size="14.00" fill="#666666">[BASE TABLE]</text>
<polygon fill="none" stroke="black" points="3717.27,-935 3717.27,-965.8 4028.18,-965.8 4028.18,-935 3717.27,-935"/>
<text text-anchor="start" x="3724.27" y="-947.2" font-family="Arial" font-size="14.00">model_key </text>
<text text-anchor="start" x="3795.86" y="-947.2" font-family="Arial" font-size="14.00" fill="#666666">[text]</text>
<polygon fill="none" stroke="black" points="3717.27,-904.2 3717.27,-935 4028.18,-935 4028.18,-904.2 3717.27,-904.2"/>
<text text-anchor="start" x="3724.27" y="-916.4" font-family="Arial" font-size="14.00">action_key </text>
<text text-anchor="start" x="3795.09" y="-916.4" font-family="Arial" font-size="14.00" fill="#666666">[text]</text>
<polygon fill="none" stroke="black" points="3717.27,-873.4 3717.27,-904.2 4028.18,-904.2 4028.18,-873.4 3717.27,-873.4"/>
<text text-anchor="start" x="3724.27" y="-885.6" font-family="Arial" font-size="14.00">logic_key </text>
<text text-anchor="start" x="3786.52" y="-885.6" font-family="Arial" font-size="14.00" fill="#666666">[text]</text>
</g>
<!-- public.action_guarantee&#45;&gt;public.logic -->
<g id="edge10" class="edge">
<title>public.action_guarantee:model_key&#45;&gt;public.logic:model_key</title>
<path fill="none" stroke="black" d="M3705.9,-949.79C3621.43,-939.1 3738.62,-789.97 3664.73,-722.4 3563.3,-629.65 2576.15,-558.4 2438.71,-558.4"/>
<polygon fill="black" stroke="black" points="3705.95,-949.8 3715.67,-954.87 3711.28,-950.11 3715.6,-950.36 3715.6,-950.36 3715.6,-950.36 3711.28,-950.11 3716.2,-945.89 3705.95,-949.8"/>
<text text-anchor="start" x="3475.92" y="-934.4" font-family="Arial" font-size="10.00">FOREIGN KEY (model_key, logic_key) REFERENCES logic(model_key, logic_key) ON DELETE CASCADE</text>
</g>
<!-- public.action_safety -->
<g id="node12" class="node">
<title>public.action_safety</title>
<polygon fill="#efefef" stroke="none" points="4132.76,-965.8 4132.76,-1001.4 4416.69,-1001.4 4416.69,-965.8 4132.76,-965.8"/>
<polygon fill="none" stroke="black" points="4132.76,-965.8 4132.76,-1001.4 4416.69,-1001.4 4416.69,-965.8 4132.76,-965.8"/>
<text text-anchor="start" x="4139.76" y="-979.2" font-family="Arial Bold" font-size="18.00">public.action_safety</text>
<text text-anchor="start" x="4285.21" y="-979.2" font-family="Arial" font-size="14.00">    </text>
<text text-anchor="start" x="4316.32" y="-979.2" font-family="Arial" font-size="14.00" fill="#666666">[BASE TABLE]</text>
<polygon fill="none" stroke="black" points="4132.76,-935 4132.76,-965.8 4416.69,-965.8 4416.69,-935 4132.76,-935"/>
<text text-anchor="start" x="4139.76" y="-947.2" font-family="Arial" font-size="14.00">model_key </text>
<text text-anchor="start" x="4211.35" y="-947.2" font-family="Arial" font-size="14.00" fill="#666666">[text]</text>
<polygon fill="none" stroke="black" points="4132.76,-904.2 4132.76,-935 4416.69,-935 4416.69,-904.2 4132.76,-904.2"/>
<text text-anchor="start" x="4139.76" y="-916.4" font-family="Arial" font-size="14.00">action_key </text>
<text text-anchor="start" x="4210.58" y="-916.4" font-family="Arial" font-size="14.00" fill="#666666">[text]</text>
<polygon fill="none" stroke="black" points="4132.76,-873.4 4132.76,-904.2 4416.69,-904.2 4416.69,-873.4 4132.76,-873.4"/>
<text text-anchor="start" x="4139.76" y="-885.6" font-family="Arial" font-size="14.00">logic_key </text>
<text text-anchor="start" x="4202.01" y="-885.6" font-family="Arial" font-size="14.00" fill="#666666">[text]</text>
</g>
<!-- public.action_safety&#45;&gt;public.logic -->
<g id="edge11" class="edge">
<title>public.action_safety:model_key&#45;&gt;public.logic:model_key</title>
<path fill="none" stroke="black" d="M4121.4,-949.79C4037.08,-939.02 4155.64,-788.78 4080.73,-722.4 3943.49,-600.8 2622.06,-558.4 2438.71,-558.4"/>
<polygon fill="black" stroke="black" points="4121.44,-949.79 4131.16,-954.87 4126.76,-950.11 4131.09,-950.36 4131.09,-950.36 4131.09,-950.36 4126.76,-950.11 4131.69,-945.89 4121.44,-949.79"/>
<text text-anchor="start" x="4138.76" y="-960.4" font-family="Arial" font-size="10.00">FOREIGN KEY (model_key, logic_key) REFERENCES logic(model_key, logic_key) ON DELETE CASCADE</text>
</g>
</g>
</svg>
