<?xml version="1.0" encoding="UTF-8" standalone="no"?>
<!DOCTYPE svg PUBLIC "-//W3C//DTD SVG 1.1//EN"
 "http://www.w3.org/Graphics/SVG/1.1/DTD/svg11.dtd">
<!-- Generated by graphviz version 12.1.2 (20240928.0832)
 -->
<!-- Title: public.use_case_actor Pages: 1 -->
<svg width="1369pt" height="725pt"
 viewBox="0.00 0.00 1369.15 725.20" xmlns="http://www.w3.org/2000/svg" xmlns:xlink="http://www.w3.org/1999/xlink">
<g id="graph0" class="graph" transform="scale(1 1) rotate(0) translate(4 721.2)">
<title>public.use_case_actor</title>
<polygon fill="white" stroke="none" points="-4,4 -4,-721.2 1365.15,-721.2 1365.15,4 -4,4"/>
<!-- public.use_case_actor -->
<g id="node1" class="node">
<title>public.use_case_actor</title>
<polygon fill="#efefef" stroke="none" points="501.8,-635.4 501.8,-671 798.72,-671 798.72,-635.4 501.8,-635.4"/>
<polygon fill="none" stroke="black" points="501.8,-635.4 501.8,-671 798.72,-671 798.72,-635.4 501.8,-635.4"/>
<text text-anchor="start" x="508.8" y="-648.8" font-family="Arial Bold" font-size="18.00">public.use_case_actor</text>
<text text-anchor="start" x="667.23" y="-648.8" font-family="Arial" font-size="14.00">    </text>
<text text-anchor="start" x="698.35" y="-648.8" font-family="Arial" font-size="14.00" fill="#666666">[BASE TABLE]</text>
<polygon fill="none" stroke="black" points="501.8,-604.6 501.8,-635.4 798.72,-635.4 798.72,-604.6 501.8,-604.6"/>
<text text-anchor="start" x="508.8" y="-616.8" font-family="Arial" font-size="14.00">model_key </text>
<text text-anchor="start" x="580.39" y="-616.8" font-family="Arial" font-size="14.00" fill="#666666">[text]</text>
<polygon fill="none" stroke="black" points="501.8,-573.8 501.8,-604.6 798.72,-604.6 798.72,-573.8 501.8,-573.8"/>
<text text-anchor="start" x="508.8" y="-586" font-family="Arial" font-size="14.00">use_case_key </text>
<text text-anchor="start" x="602.19" y="-586" font-family="Arial" font-size="14.00" fill="#666666">[text]</text>
<polygon fill="none" stroke="black" points="501.8,-543 501.8,-573.8 798.72,-573.8 798.72,-543 501.8,-543"/>
<text text-anchor="start" x="508.8" y="-555.2" font-family="Arial" font-size="14.00">actor_key </text>
<text text-anchor="start" x="573.39" y="-555.2" font-family="Arial" font-size="14.00" fill="#666666">[text]</text>
<polygon fill="none" stroke="black" points="501.8,-512.2 501.8,-543 798.72,-543 798.72,-512.2 501.8,-512.2"/>
<text text-anchor="start" x="508.8" y="-524.4" font-family="Arial" font-size="14.00">uml_comment </text>
<text text-anchor="start" x="600.61" y="-524.4" font-family="Arial" font-size="14.00" fill="#666666">[text]</text>
<polygon fill="none" stroke="black" stroke-width="3" points="500.3,-510.7 500.3,-672.5 800.22,-672.5 800.22,-510.7 500.3,-510.7"/>
</g>
<!-- public.class -->
<g id="node2" class="node">
<title>public.class</title>
<polygon fill="#efefef" stroke="none" points="367.78,-335.8 367.78,-371.4 590.75,-371.4 590.75,-335.8 367.78,-335.8"/>
<polygon fill="none" stroke="black" points="367.78,-335.8 367.78,-371.4 590.75,-371.4 590.75,-335.8 367.78,-335.8"/>
<text text-anchor="start" x="374.78" y="-349.2" font-family="Arial Bold" font-size="18.00">public.class</text>
<text text-anchor="start" x="459.26" y="-349.2" font-family="Arial" font-size="14.00">    </text>
<text text-anchor="start" x="490.38" y="-349.2" font-family="Arial" font-size="14.00" fill="#666666">[BASE TABLE]</text>
<polygon fill="none" stroke="black" points="367.78,-305 367.78,-335.8 590.75,-335.8 590.75,-305 367.78,-305"/>
<text text-anchor="start" x="374.78" y="-317.2" font-family="Arial" font-size="14.00">model_key </text>
<text text-anchor="start" x="446.37" y="-317.2" font-family="Arial" font-size="14.00" fill="#666666">[text]</text>
<polygon fill="none" stroke="black" points="367.78,-274.2 367.78,-305 590.75,-305 590.75,-274.2 367.78,-274.2"/>
<text text-anchor="start" x="374.78" y="-286.4" font-family="Arial" font-size="14.00">class_key </text>
<text text-anchor="start" x="440.14" y="-286.4" font-family="Arial" font-size="14.00" fill="#666666">[text]</text>
<polygon fill="none" stroke="black" points="367.78,-243.4 367.78,-274.2 590.75,-274.2 590.75,-243.4 367.78,-243.4"/>
<text text-anchor="start" x="374.78" y="-255.6" font-family="Arial" font-size="14.00">name </text>
<text text-anchor="start" x="413.69" y="-255.6" font-family="Arial" font-size="14.00" fill="#666666">[text]</text>
<polygon fill="none" stroke="black" points="367.78,-212.6 367.78,-243.4 590.75,-243.4 590.75,-212.6 367.78,-212.6"/>
<text text-anchor="start" x="374.78" y="-224.8" font-family="Arial" font-size="14.00">subdomain_key </text>
<text text-anchor="start" x="476.73" y="-224.8" font-family="Arial" font-size="14.00" fill="#666666">[text]</text>
<polygon fill="none" stroke="black" points="367.78,-181.8 367.78,-212.6 590.75,-212.6 590.75,-181.8 367.78,-181.8"/>
<text text-anchor="start" x="374.78" y="-194" font-family="Arial" font-size="14.00">actor_key </text>
<text text-anchor="start" x="439.36" y="-194" font-family="Arial" font-size="14.00" fill="#666666">[text]</text>
<polygon fill="none" stroke="black" points="367.78,-151 367.78,-181.8 590.75,-181.8 590.75,-151 367.78,-151"/>
<text text-anchor="start" x="374.78" y="-163.2" font-family="Arial" font-size="14.00">superclass_of_key </text>
<text text-anchor="start" x="494.62" y="-163.2" font-family="Arial" font-size="14.00" fill="#666666">[text]</text>
<polygon fill="none" stroke="black" points="367.78,-120.2 367.78,-151 590.75,-151 590.75,-120.2 367.78,-120.2"/>
<text text-anchor="start" x="374.78" y="-132.4" font-family="Arial" font-size="14.00">subclass_of_key </text>
<text text-anchor="start" x="482.17" y="-132.4" font-family="Arial" font-size="14.00" fill="#666666">[text]</text>
<polygon fill="none" stroke="black" points="367.78,-89.4 367.78,-120.2 590.75,-120.2 590.75,-89.4 367.78,-89.4"/>
<text text-anchor="start" x="374.78" y="-101.6" font-family="Arial" font-size="14.00">details </text>
<text text-anchor="start" x="419.14" y="-101.6" font-family="Arial" font-size="14.00" fill="#666666">[text]</text>
<polygon fill="none" stroke="black" points="367.78,-58.6 367.78,-89.4 590.75,-89.4 590.75,-58.6 367.78,-58.6"/>
<text text-anchor="start" x="374.78" y="-70.8" font-family="Arial" font-size="14.00">uml_comment </text>
<text text-anchor="start" x="466.58" y="-70.8" font-family="Arial" font-size="14.00" fill="#666666">[text]</text>
</g>
<!-- public.use_case_actor&#45;&gt;public.class -->
<g id="edge1" class="edge">
<title>public.use_case_actor:model_key&#45;&gt;public.class:model_key</title>
<path fill="none" stroke="black" d="M490.48,-619.17C436.19,-609.73 469.28,-521.94 501.8,-466 524.75,-426.53 567.72,-454.02 590.75,-414.6 611.87,-378.45 633.62,-320.4 591.75,-320.4"/>
<polygon fill="black" stroke="black" points="490.5,-619.17 500.11,-624.46 495.82,-619.6 500.13,-619.95 500.13,-619.95 500.13,-619.95 495.82,-619.6 500.83,-615.49 490.5,-619.17"/>
<text text-anchor="start" x="7" y="-630" font-family="Arial" font-size="10.00">FOREIGN KEY (model_key, actor_key) REFERENCES class(model_key, class_key) ON DELETE CASCADE</text>
</g>
<!-- public.use_case -->
<g id="node3" class="node">
<title>public.use_case</title>
<polygon fill="#efefef" stroke="none" points="695.29,-351.2 695.29,-386.8 947.24,-386.8 947.24,-351.2 695.29,-351.2"/>
<polygon fill="none" stroke="black" points="695.29,-351.2 695.29,-386.8 947.24,-386.8 947.24,-351.2 695.29,-351.2"/>
<text text-anchor="start" x="702.29" y="-364.6" font-family="Arial Bold" font-size="18.00">public.use_case</text>
<text text-anchor="start" x="815.75" y="-364.6" font-family="Arial" font-size="14.00">    </text>
<text text-anchor="start" x="846.86" y="-364.6" font-family="Arial" font-size="14.00" fill="#666666">[BASE TABLE]</text>
<polygon fill="none" stroke="black" points="695.29,-320.4 695.29,-351.2 947.24,-351.2 947.24,-320.4 695.29,-320.4"/>
<text text-anchor="start" x="702.29" y="-332.6" font-family="Arial" font-size="14.00">model_key </text>
<text text-anchor="start" x="773.88" y="-332.6" font-family="Arial" font-size="14.00" fill="#666666">[text]</text>
<polygon fill="none" stroke="black" points="695.29,-289.6 695.29,-320.4 947.24,-320.4 947.24,-289.6 695.29,-289.6"/>
<text text-anchor="start" x="702.29" y="-301.8" font-family="Arial" font-size="14.00">use_case_key </text>
<text text-anchor="start" x="795.68" y="-301.8" font-family="Arial" font-size="14.00" fill="#666666">[text]</text>
<polygon fill="none" stroke="black" points="695.29,-258.8 695.29,-289.6 947.24,-289.6 947.24,-258.8 695.29,-258.8"/>
<text text-anchor="start" x="702.29" y="-271" font-family="Arial" font-size="14.00">name </text>
<text text-anchor="start" x="741.2" y="-271" font-family="Arial" font-size="14.00" fill="#666666">[text]</text>
<polygon fill="none" stroke="black" points="695.29,-228 695.29,-258.8 947.24,-258.8 947.24,-228 695.29,-228"/>
<text text-anchor="start" x="702.29" y="-240.2" font-family="Arial" font-size="14.00">details </text>
<text text-anchor="start" x="746.65" y="-240.2" font-family="Arial" font-size="14.00" fill="#666666">[text]</text>
<polygon fill="none" stroke="black" points="695.29,-197.2 695.29,-228 947.24,-228 947.24,-197.2 695.29,-197.2"/>
<text text-anchor="start" x="702.29" y="-209.4" font-family="Arial" font-size="14.00">level </text>
<text text-anchor="start" x="734.97" y="-209.4" font-family="Arial" font-size="14.00" fill="#666666">[use_case_level]</text>
<polygon fill="none" stroke="black" points="695.29,-166.4 695.29,-197.2 947.24,-197.2 947.24,-166.4 695.29,-166.4"/>
<text text-anchor="start" x="702.29" y="-178.6" font-family="Arial" font-size="14.00">read_only </text>
<text text-anchor="start" x="767.67" y="-178.6" font-family="Arial" font-size="14.00" fill="#666666">[boolean]</text>
<polygon fill="none" stroke="black" points="695.29,-135.6 695.29,-166.4 947.24,-166.4 947.24,-135.6 695.29,-135.6"/>
<text text-anchor="start" x="702.29" y="-147.8" font-family="Arial" font-size="14.00">subdomain_key </text>
<text text-anchor="start" x="804.24" y="-147.8" font-family="Arial" font-size="14.00" fill="#666666">[text]</text>
<polygon fill="none" stroke="black" points="695.29,-104.8 695.29,-135.6 947.24,-135.6 947.24,-104.8 695.29,-104.8"/>
<text text-anchor="start" x="702.29" y="-117" font-family="Arial" font-size="14.00">superclass_of_key </text>
<text text-anchor="start" x="822.13" y="-117" font-family="Arial" font-size="14.00" fill="#666666">[text]</text>
<polygon fill="none" stroke="black" points="695.29,-74 695.29,-104.8 947.24,-104.8 947.24,-74 695.29,-74"/>
<text text-anchor="start" x="702.29" y="-86.2" font-family="Arial" font-size="14.00">subclass_of_key </text>
<text text-anchor="start" x="809.68" y="-86.2" font-family="Arial" font-size="14.00" fill="#666666">[text]</text>
<polygon fill="none" stroke="black" points="695.29,-43.2 695.29,-74 947.24,-74 947.24,-43.2 695.29,-43.2"/>
<text text-anchor="start" x="702.29" y="-55.4" font-family="Arial" font-size="14.00">uml_comment </text>
<text text-anchor="start" x="794.1" y="-55.4" font-family="Arial" font-size="14.00" fill="#666666">[text]</text>
</g>
<!-- public.use_case_actor&#45;&gt;public.use_case -->
<g id="edge2" class="edge">
<title>public.use_case_actor:model_key&#45;&gt;public.use_case:model_key</title>
<path fill="none" stroke="black" d="M810.09,-619.14C864.9,-609.37 836.38,-518.62 798.72,-466 770.39,-426.42 723.7,-469.52 695.29,-430 670.85,-396 652.42,-335.8 694.29,-335.8"/>
<polygon fill="black" stroke="black" points="810.02,-619.15 799.68,-615.49 804.71,-619.59 800.39,-619.94 800.39,-619.94 800.39,-619.94 804.71,-619.59 800.43,-624.46 810.02,-619.15"/>
<text text-anchor="start" x="806.72" y="-630" font-family="Arial" font-size="10.00">FOREIGN KEY (model_key, use_case_key) REFERENCES use_case(model_key, use_case_key) ON DELETE CASCADE</text>
</g>
</g>
</svg>
