<?xml version="1.0" encoding="UTF-8" standalone="no"?>
<!DOCTYPE svg PUBLIC "-//W3C//DTD SVG 1.1//EN"
 "http://www.w3.org/Graphics/SVG/1.1/DTD/svg11.dtd">
<!-- Generated by graphviz version 12.1.2 (20240928.0832)
 -->
<!-- Title: public.subdomain Pages: 1 -->
<svg width="1298pt" height="1130pt"
 viewBox="0.00 0.00 1297.68 1129.60" xmlns="http://www.w3.org/2000/svg" xmlns:xlink="http://www.w3.org/1999/xlink">
<g id="graph0" class="graph" transform="scale(1 1) rotate(0) translate(4 1125.6)">
<title>public.subdomain</title>
<polygon fill="white" stroke="none" points="-4,4 -4,-1125.6 1293.68,-1125.6 1293.68,4 -4,4"/>
<!-- public.subdomain -->
<g id="node1" class="node">
<title>public.subdomain</title>
<polygon fill="#efefef" stroke="none" points="490.3,-573.8 490.3,-609.4 757.28,-609.4 757.28,-573.8 490.3,-573.8"/>
<polygon fill="none" stroke="black" points="490.3,-573.8 490.3,-609.4 757.28,-609.4 757.28,-573.8 490.3,-573.8"/>
<text text-anchor="start" x="497.3" y="-587.2" font-family="Arial Bold" font-size="18.00">public.subdomain</text>
<text text-anchor="start" x="625.79" y="-587.2" font-family="Arial" font-size="14.00">    </text>
<text text-anchor="start" x="656.91" y="-587.2" font-family="Arial" font-size="14.00" fill="#666666">[BASE TABLE]</text>
<polygon fill="none" stroke="black" points="490.3,-543 490.3,-573.8 757.28,-573.8 757.28,-543 490.3,-543"/>
<text text-anchor="start" x="497.3" y="-555.2" font-family="Arial" font-size="14.00">subdomain_key </text>
<text text-anchor="start" x="599.26" y="-555.2" font-family="Arial" font-size="14.00" fill="#666666">[text]</text>
<polygon fill="none" stroke="black" points="490.3,-512.2 490.3,-543 757.28,-543 757.28,-512.2 490.3,-512.2"/>
<text text-anchor="start" x="497.3" y="-524.4" font-family="Arial" font-size="14.00">model_key </text>
<text text-anchor="start" x="568.9" y="-524.4" font-family="Arial" font-size="14.00" fill="#666666">[text]</text>
<polygon fill="none" stroke="black" points="490.3,-481.4 490.3,-512.2 757.28,-512.2 757.28,-481.4 490.3,-481.4"/>
<text text-anchor="start" x="497.3" y="-493.6" font-family="Arial" font-size="14.00">domain_key </text>
<text text-anchor="start" x="576.68" y="-493.6" font-family="Arial" font-size="14.00" fill="#666666">[text]</text>
<polygon fill="none" stroke="black" points="490.3,-450.6 490.3,-481.4 757.28,-481.4 757.28,-450.6 490.3,-450.6"/>
<text text-anchor="start" x="497.3" y="-462.8" font-family="Arial" font-size="14.00">name </text>
<text text-anchor="start" x="536.21" y="-462.8" font-family="Arial" font-size="14.00" fill="#666666">[text]</text>
<polygon fill="none" stroke="black" points="490.3,-419.8 490.3,-450.6 757.28,-450.6 757.28,-419.8 490.3,-419.8"/>
<text text-anchor="start" x="497.3" y="-432" font-family="Arial" font-size="14.00">details </text>
<text text-anchor="start" x="541.66" y="-432" font-family="Arial" font-size="14.00" fill="#666666">[text]</text>
<polygon fill="none" stroke="black" points="490.3,-389 490.3,-419.8 757.28,-419.8 757.28,-389 490.3,-389"/>
<text text-anchor="start" x="497.3" y="-401.2" font-family="Arial" font-size="14.00">uml_comment </text>
<text text-anchor="start" x="589.11" y="-401.2" font-family="Arial" font-size="14.00" fill="#666666">[text]</text>
<polygon fill="none" stroke="black" stroke-width="3" points="488.8,-387.5 488.8,-610.9 758.78,-610.9 758.78,-387.5 488.8,-387.5"/>
</g>
<!-- public.domain -->
<g id="node4" class="node">
<title>public.domain</title>
<polygon fill="#efefef" stroke="none" points="502.81,-228 502.81,-263.6 744.78,-263.6 744.78,-228 502.81,-228"/>
<polygon fill="none" stroke="black" points="502.81,-228 502.81,-263.6 744.78,-263.6 744.78,-228 502.81,-228"/>
<text text-anchor="start" x="509.81" y="-241.4" font-family="Arial Bold" font-size="18.00">public.domain</text>
<text text-anchor="start" x="613.29" y="-241.4" font-family="Arial" font-size="14.00">    </text>
<text text-anchor="start" x="644.41" y="-241.4" font-family="Arial" font-size="14.00" fill="#666666">[BASE TABLE]</text>
<polygon fill="none" stroke="black" points="502.81,-197.2 502.81,-228 744.78,-228 744.78,-197.2 502.81,-197.2"/>
<text text-anchor="start" x="509.81" y="-209.4" font-family="Arial" font-size="14.00">domain_key </text>
<text text-anchor="start" x="589.19" y="-209.4" font-family="Arial" font-size="14.00" fill="#666666">[text]</text>
<polygon fill="none" stroke="black" points="502.81,-166.4 502.81,-197.2 744.78,-197.2 744.78,-166.4 502.81,-166.4"/>
<text text-anchor="start" x="509.81" y="-178.6" font-family="Arial" font-size="14.00">model_key </text>
<text text-anchor="start" x="581.4" y="-178.6" font-family="Arial" font-size="14.00" fill="#666666">[text]</text>
<polygon fill="none" stroke="black" points="502.81,-135.6 502.81,-166.4 744.78,-166.4 744.78,-135.6 502.81,-135.6"/>
<text text-anchor="start" x="509.81" y="-147.8" font-family="Arial" font-size="14.00">name </text>
<text text-anchor="start" x="548.72" y="-147.8" font-family="Arial" font-size="14.00" fill="#666666">[text]</text>
<polygon fill="none" stroke="black" points="502.81,-104.8 502.81,-135.6 744.78,-135.6 744.78,-104.8 502.81,-104.8"/>
<text text-anchor="start" x="509.81" y="-117" font-family="Arial" font-size="14.00">details </text>
<text text-anchor="start" x="554.17" y="-117" font-family="Arial" font-size="14.00" fill="#666666">[text]</text>
<polygon fill="none" stroke="black" points="502.81,-74 502.81,-104.8 744.78,-104.8 744.78,-74 502.81,-74"/>
<text text-anchor="start" x="509.81" y="-86.2" font-family="Arial" font-size="14.00">realized </text>
<text text-anchor="start" x="562.72" y="-86.2" font-family="Arial" font-size="14.00" fill="#666666">[boolean]</text>
<polygon fill="none" stroke="black" points="502.81,-43.2 502.81,-74 744.78,-74 744.78,-43.2 502.81,-43.2"/>
<text text-anchor="start" x="509.81" y="-55.4" font-family="Arial" font-size="14.00">uml_comment </text>
<text text-anchor="start" x="601.61" y="-55.4" font-family="Arial" font-size="14.00" fill="#666666">[text]</text>
</g>
<!-- public.subdomain&#45;&gt;public.domain -->
<g id="edge3" class="edge">
<title>public.subdomain:model_key&#45;&gt;public.domain:model_key</title>
<path fill="none" stroke="black" d="M768.39,-527.08C911.44,-512.24 896.11,-181.8 745.78,-181.8"/>
<polygon fill="black" stroke="black" points="768.6,-527.07 758.39,-523.09 763.27,-527.35 758.95,-527.57 758.95,-527.57 758.95,-527.57 763.27,-527.35 758.84,-532.08 768.6,-527.07"/>
<text text-anchor="start" x="765.28" y="-537.6" font-family="Arial" font-size="10.00">FOREIGN KEY (model_key, domain_key) REFERENCES domain(model_key, domain_key) ON DELETE CASCADE</text>
</g>
<!-- public.use_case -->
<g id="node2" class="node">
<title>public.use_case</title>
<polygon fill="#efefef" stroke="none" points="326.82,-1042.8 326.82,-1078.4 578.77,-1078.4 578.77,-1042.8 326.82,-1042.8"/>
<polygon fill="none" stroke="black" points="326.82,-1042.8 326.82,-1078.4 578.77,-1078.4 578.77,-1042.8 326.82,-1042.8"/>
<text text-anchor="start" x="333.82" y="-1056.2" font-family="Arial Bold" font-size="18.00">public.use_case</text>
<text text-anchor="start" x="447.28" y="-1056.2" font-family="Arial" font-size="14.00">    </text>
<text text-anchor="start" x="478.39" y="-1056.2" font-family="Arial" font-size="14.00" fill="#666666">[BASE TABLE]</text>
<polygon fill="none" stroke="black" points="326.82,-1012 326.82,-1042.8 578.77,-1042.8 578.77,-1012 326.82,-1012"/>
<text text-anchor="start" x="333.82" y="-1024.2" font-family="Arial" font-size="14.00">model_key </text>
<text text-anchor="start" x="405.41" y="-1024.2" font-family="Arial" font-size="14.00" fill="#666666">[text]</text>
<polygon fill="none" stroke="black" points="326.82,-981.2 326.82,-1012 578.77,-1012 578.77,-981.2 326.82,-981.2"/>
<text text-anchor="start" x="333.82" y="-993.4" font-family="Arial" font-size="14.00">use_case_key </text>
<text text-anchor="start" x="427.21" y="-993.4" font-family="Arial" font-size="14.00" fill="#666666">[text]</text>
<polygon fill="none" stroke="black" points="326.82,-950.4 326.82,-981.2 578.77,-981.2 578.77,-950.4 326.82,-950.4"/>
<text text-anchor="start" x="333.82" y="-962.6" font-family="Arial" font-size="14.00">name </text>
<text text-anchor="start" x="372.73" y="-962.6" font-family="Arial" font-size="14.00" fill="#666666">[text]</text>
<polygon fill="none" stroke="black" points="326.82,-919.6 326.82,-950.4 578.77,-950.4 578.77,-919.6 326.82,-919.6"/>
<text text-anchor="start" x="333.82" y="-931.8" font-family="Arial" font-size="14.00">details </text>
<text text-anchor="start" x="378.18" y="-931.8" font-family="Arial" font-size="14.00" fill="#666666">[text]</text>
<polygon fill="none" stroke="black" points="326.82,-888.8 326.82,-919.6 578.77,-919.6 578.77,-888.8 326.82,-888.8"/>
<text text-anchor="start" x="333.82" y="-901" font-family="Arial" font-size="14.00">level </text>
<text text-anchor="start" x="366.5" y="-901" font-family="Arial" font-size="14.00" fill="#666666">[use_case_level]</text>
<polygon fill="none" stroke="black" points="326.82,-858 326.82,-888.8 578.77,-888.8 578.77,-858 326.82,-858"/>
<text text-anchor="start" x="333.82" y="-870.2" font-family="Arial" font-size="14.00">read_only </text>
<text text-anchor="start" x="399.2" y="-870.2" font-family="Arial" font-size="14.00" fill="#666666">[boolean]</text>
<polygon fill="none" stroke="black" points="326.82,-827.2 326.82,-858 578.77,-858 578.77,-827.2 326.82,-827.2"/>
<text text-anchor="start" x="333.82" y="-839.4" font-family="Arial" font-size="14.00">subdomain_key </text>
<text text-anchor="start" x="435.77" y="-839.4" font-family="Arial" font-size="14.00" fill="#666666">[text]</text>
<polygon fill="none" stroke="black" points="326.82,-796.4 326.82,-827.2 578.77,-827.2 578.77,-796.4 326.82,-796.4"/>
<text text-anchor="start" x="333.82" y="-808.6" font-family="Arial" font-size="14.00">superclass_of_key </text>
<text text-anchor="start" x="453.66" y="-808.6" font-family="Arial" font-size="14.00" fill="#666666">[text]</text>
<polygon fill="none" stroke="black" points="326.82,-765.6 326.82,-796.4 578.77,-796.4 578.77,-765.6 326.82,-765.6"/>
<text text-anchor="start" x="333.82" y="-777.8" font-family="Arial" font-size="14.00">subclass_of_key </text>
<text text-anchor="start" x="441.21" y="-777.8" font-family="Arial" font-size="14.00" fill="#666666">[text]</text>
<polygon fill="none" stroke="black" points="326.82,-734.8 326.82,-765.6 578.77,-765.6 578.77,-734.8 326.82,-734.8"/>
<text text-anchor="start" x="333.82" y="-747" font-family="Arial" font-size="14.00">uml_comment </text>
<text text-anchor="start" x="425.63" y="-747" font-family="Arial" font-size="14.00" fill="#666666">[text]</text>
</g>
<!-- public.use_case&#45;&gt;public.subdomain -->
<g id="edge1" class="edge">
<title>public.use_case:model_key&#45;&gt;public.subdomain:model_key</title>
<path fill="none" stroke="black" d="M589.93,-1025.5C651.06,-1001.15 618.47,-750.43 578.77,-691.6 555.02,-656.42 514.13,-690.73 490.3,-655.6 458.37,-608.52 432.41,-527.6 489.3,-527.6"/>
<polygon fill="black" stroke="black" points="589.92,-1025.5 579.27,-1022.92 584.68,-1026.48 580.42,-1027.28 580.42,-1027.28 580.42,-1027.28 584.68,-1026.48 580.92,-1031.76 589.92,-1025.5"/>
<text text-anchor="start" x="7" y="-1037.4" font-family="Arial" font-size="10.00">FOREIGN KEY (model_key, subdomain_key) REFERENCES subdomain(model_key, subdomain_key) ON DELETE CASCADE</text>
</g>
<!-- public.class -->
<g id="node3" class="node">
<title>public.class</title>
<polygon fill="#efefef" stroke="none" points="683.31,-1027.4 683.31,-1063 906.28,-1063 906.28,-1027.4 683.31,-1027.4"/>
<polygon fill="none" stroke="black" points="683.31,-1027.4 683.31,-1063 906.28,-1063 906.28,-1027.4 683.31,-1027.4"/>
<text text-anchor="start" x="690.31" y="-1040.8" font-family="Arial Bold" font-size="18.00">public.class</text>
<text text-anchor="start" x="774.79" y="-1040.8" font-family="Arial" font-size="14.00">    </text>
<text text-anchor="start" x="805.91" y="-1040.8" font-family="Arial" font-size="14.00" fill="#666666">[BASE TABLE]</text>
<polygon fill="none" stroke="black" points="683.31,-996.6 683.31,-1027.4 906.28,-1027.4 906.28,-996.6 683.31,-996.6"/>
<text text-anchor="start" x="690.31" y="-1008.8" font-family="Arial" font-size="14.00">model_key </text>
<text text-anchor="start" x="761.9" y="-1008.8" font-family="Arial" font-size="14.00" fill="#666666">[text]</text>
<polygon fill="none" stroke="black" points="683.31,-965.8 683.31,-996.6 906.28,-996.6 906.28,-965.8 683.31,-965.8"/>
<text text-anchor="start" x="690.31" y="-978" font-family="Arial" font-size="14.00">class_key </text>
<text text-anchor="start" x="755.67" y="-978" font-family="Arial" font-size="14.00" fill="#666666">[text]</text>
<polygon fill="none" stroke="black" points="683.31,-935 683.31,-965.8 906.28,-965.8 906.28,-935 683.31,-935"/>
<text text-anchor="start" x="690.31" y="-947.2" font-family="Arial" font-size="14.00">name </text>
<text text-anchor="start" x="729.22" y="-947.2" font-family="Arial" font-size="14.00" fill="#666666">[text]</text>
<polygon fill="none" stroke="black" points="683.31,-904.2 683.31,-935 906.28,-935 906.28,-904.2 683.31,-904.2"/>
<text text-anchor="start" x="690.31" y="-916.4" font-family="Arial" font-size="14.00">subdomain_key </text>
<text text-anchor="start" x="792.26" y="-916.4" font-family="Arial" font-size="14.00" fill="#666666">[text]</text>
<polygon fill="none" stroke="black" points="683.31,-873.4 683.31,-904.2 906.28,-904.2 906.28,-873.4 683.31,-873.4"/>
<text text-anchor="start" x="690.31" y="-885.6" font-family="Arial" font-size="14.00">actor_key </text>
<text text-anchor="start" x="754.89" y="-885.6" font-family="Arial" font-size="14.00" fill="#666666">[text]</text>
<polygon fill="none" stroke="black" points="683.31,-842.6 683.31,-873.4 906.28,-873.4 906.28,-842.6 683.31,-842.6"/>
<text text-anchor="start" x="690.31" y="-854.8" font-family="Arial" font-size="14.00">superclass_of_key </text>
<text text-anchor="start" x="810.15" y="-854.8" font-family="Arial" font-size="14.00" fill="#666666">[text]</text>
<polygon fill="none" stroke="black" points="683.31,-811.8 683.31,-842.6 906.28,-842.6 906.28,-811.8 683.31,-811.8"/>
<text text-anchor="start" x="690.31" y="-824" font-family="Arial" font-size="14.00">subclass_of_key </text>
<text text-anchor="start" x="797.7" y="-824" font-family="Arial" font-size="14.00" fill="#666666">[text]</text>
<polygon fill="none" stroke="black" points="683.31,-781 683.31,-811.8 906.28,-811.8 906.28,-781 683.31,-781"/>
<text text-anchor="start" x="690.31" y="-793.2" font-family="Arial" font-size="14.00">details </text>
<text text-anchor="start" x="734.67" y="-793.2" font-family="Arial" font-size="14.00" fill="#666666">[text]</text>
<polygon fill="none" stroke="black" points="683.31,-750.2 683.31,-781 906.28,-781 906.28,-750.2 683.31,-750.2"/>
<text text-anchor="start" x="690.31" y="-762.4" font-family="Arial" font-size="14.00">uml_comment </text>
<text text-anchor="start" x="782.11" y="-762.4" font-family="Arial" font-size="14.00" fill="#666666">[text]</text>
</g>
<!-- public.class&#45;&gt;public.subdomain -->
<g id="edge2" class="edge">
<title>public.class:model_key&#45;&gt;public.subdomain:model_key</title>
<path fill="none" stroke="black" d="M672.11,-1009.87C618.59,-985.76 653.53,-763.73 683.31,-707 701.92,-671.55 738.59,-691 757.28,-655.6 783.84,-605.29 815.17,-527.6 758.28,-527.6"/>
<polygon fill="black" stroke="black" points="672.19,-1009.89 681.06,-1016.34 677.41,-1010.98 681.65,-1011.86 681.65,-1011.86 681.65,-1011.86 677.41,-1010.98 682.9,-1007.53 672.19,-1009.89"/>
<text text-anchor="start" x="689.31" y="-1022" font-family="Arial" font-size="10.00">FOREIGN KEY (model_key, subdomain_key) REFERENCES subdomain(model_key, subdomain_key) ON DELETE CASCADE</text>
</g>
</g>
</svg>
