<?xml version="1.0" encoding="UTF-8" standalone="no"?>
<!DOCTYPE svg PUBLIC "-//W3C//DTD SVG 1.1//EN"
 "http://www.w3.org/Graphics/SVG/1.1/DTD/svg11.dtd">
<!-- Generated by graphviz version 12.1.2 (20240928.0832)
 -->
<!-- Title: public.attribute Pages: 1 -->
<svg width="866pt" height="1130pt"
 viewBox="0.00 0.00 865.56 1129.60" xmlns="http://www.w3.org/2000/svg" xmlns:xlink="http://www.w3.org/1999/xlink">
<g id="graph0" class="graph" transform="scale(1 1) rotate(0) translate(4 1125.6)">
<title>public.attribute</title>
<polygon fill="white" stroke="none" points="-4,4 -4,-1125.6 861.56,-1125.6 861.56,4 -4,4"/>
<!-- public.attribute -->
<g id="node1" class="node">
<title>public.attribute</title>
<polygon fill="#efefef" stroke="none" points="55.2,-758.6 55.2,-794.2 303.16,-794.2 303.16,-758.6 55.2,-758.6"/>
<polygon fill="none" stroke="black" points="55.2,-758.6 55.2,-794.2 303.16,-794.2 303.16,-758.6 55.2,-758.6"/>
<text text-anchor="start" x="62.2" y="-772" font-family="Arial Bold" font-size="18.00">public.attribute</text>
<text text-anchor="start" x="171.67" y="-772" font-family="Arial" font-size="14.00">    </text>
<text text-anchor="start" x="202.79" y="-772" font-family="Arial" font-size="14.00" fill="#666666">[BASE TABLE]</text>
<polygon fill="none" stroke="black" points="55.2,-727.8 55.2,-758.6 303.16,-758.6 303.16,-727.8 55.2,-727.8"/>
<text text-anchor="start" x="62.2" y="-740" font-family="Arial" font-size="14.00">model_key </text>
<text text-anchor="start" x="133.79" y="-740" font-family="Arial" font-size="14.00" fill="#666666">[text]</text>
<polygon fill="none" stroke="black" points="55.2,-697 55.2,-727.8 303.16,-727.8 303.16,-697 55.2,-697"/>
<text text-anchor="start" x="62.2" y="-709.2" font-family="Arial" font-size="14.00">attribute_key </text>
<text text-anchor="start" x="146.25" y="-709.2" font-family="Arial" font-size="14.00" fill="#666666">[text]</text>
<polygon fill="none" stroke="black" points="55.2,-666.2 55.2,-697 303.16,-697 303.16,-666.2 55.2,-666.2"/>
<text text-anchor="start" x="62.2" y="-678.4" font-family="Arial" font-size="14.00">class_key </text>
<text text-anchor="start" x="127.56" y="-678.4" font-family="Arial" font-size="14.00" fill="#666666">[text]</text>
<polygon fill="none" stroke="black" points="55.2,-635.4 55.2,-666.2 303.16,-666.2 303.16,-635.4 55.2,-635.4"/>
<text text-anchor="start" x="62.2" y="-647.6" font-family="Arial" font-size="14.00">name </text>
<text text-anchor="start" x="101.11" y="-647.6" font-family="Arial" font-size="14.00" fill="#666666">[text]</text>
<polygon fill="none" stroke="black" points="55.2,-604.6 55.2,-635.4 303.16,-635.4 303.16,-604.6 55.2,-604.6"/>
<text text-anchor="start" x="62.2" y="-616.8" font-family="Arial" font-size="14.00">details </text>
<text text-anchor="start" x="106.56" y="-616.8" font-family="Arial" font-size="14.00" fill="#666666">[text]</text>
<polygon fill="none" stroke="black" points="55.2,-573.8 55.2,-604.6 303.16,-604.6 303.16,-573.8 55.2,-573.8"/>
<text text-anchor="start" x="62.2" y="-586" font-family="Arial" font-size="14.00">data_type_rules </text>
<text text-anchor="start" x="165.72" y="-586" font-family="Arial" font-size="14.00" fill="#666666">[text]</text>
<polygon fill="none" stroke="black" points="55.2,-543 55.2,-573.8 303.16,-573.8 303.16,-543 55.2,-543"/>
<text text-anchor="start" x="62.2" y="-555.2" font-family="Arial" font-size="14.00">derivation_policy </text>
<text text-anchor="start" x="170.37" y="-555.2" font-family="Arial" font-size="14.00" fill="#666666">[text]</text>
<polygon fill="none" stroke="black" points="55.2,-512.2 55.2,-543 303.16,-543 303.16,-512.2 55.2,-512.2"/>
<text text-anchor="start" x="62.2" y="-524.4" font-family="Arial" font-size="14.00">nullable </text>
<text text-anchor="start" x="114.35" y="-524.4" font-family="Arial" font-size="14.00" fill="#666666">[boolean]</text>
<polygon fill="none" stroke="black" points="55.2,-481.4 55.2,-512.2 303.16,-512.2 303.16,-481.4 55.2,-481.4"/>
<text text-anchor="start" x="62.2" y="-493.6" font-family="Arial" font-size="14.00">uml_comment </text>
<text text-anchor="start" x="154.01" y="-493.6" font-family="Arial" font-size="14.00" fill="#666666">[text]</text>
<polygon fill="none" stroke="black" stroke-width="3" points="53.7,-479.9 53.7,-795.7 304.66,-795.7 304.66,-479.9 53.7,-479.9"/>
</g>
<!-- public.class -->
<g id="node2" class="node">
<title>public.class</title>
<polygon fill="#efefef" stroke="none" points="67.7,-320.4 67.7,-356 290.66,-356 290.66,-320.4 67.7,-320.4"/>
<polygon fill="none" stroke="black" points="67.7,-320.4 67.7,-356 290.66,-356 290.66,-320.4 67.7,-320.4"/>
<text text-anchor="start" x="74.7" y="-333.8" font-family="Arial Bold" font-size="18.00">public.class</text>
<text text-anchor="start" x="159.18" y="-333.8" font-family="Arial" font-size="14.00">    </text>
<text text-anchor="start" x="190.29" y="-333.8" font-family="Arial" font-size="14.00" fill="#666666">[BASE TABLE]</text>
<polygon fill="none" stroke="black" points="67.7,-289.6 67.7,-320.4 290.66,-320.4 290.66,-289.6 67.7,-289.6"/>
<text text-anchor="start" x="74.7" y="-301.8" font-family="Arial" font-size="14.00">model_key </text>
<text text-anchor="start" x="146.29" y="-301.8" font-family="Arial" font-size="14.00" fill="#666666">[text]</text>
<polygon fill="none" stroke="black" points="67.7,-258.8 67.7,-289.6 290.66,-289.6 290.66,-258.8 67.7,-258.8"/>
<text text-anchor="start" x="74.7" y="-271" font-family="Arial" font-size="14.00">class_key </text>
<text text-anchor="start" x="140.05" y="-271" font-family="Arial" font-size="14.00" fill="#666666">[text]</text>
<polygon fill="none" stroke="black" points="67.7,-228 67.7,-258.8 290.66,-258.8 290.66,-228 67.7,-228"/>
<text text-anchor="start" x="74.7" y="-240.2" font-family="Arial" font-size="14.00">name </text>
<text text-anchor="start" x="113.61" y="-240.2" font-family="Arial" font-size="14.00" fill="#666666">[text]</text>
<polygon fill="none" stroke="black" points="67.7,-197.2 67.7,-228 290.66,-228 290.66,-197.2 67.7,-197.2"/>
<text text-anchor="start" x="74.7" y="-209.4" font-family="Arial" font-size="14.00">subdomain_key </text>
<text text-anchor="start" x="176.65" y="-209.4" font-family="Arial" font-size="14.00" fill="#666666">[text]</text>
<polygon fill="none" stroke="black" points="67.7,-166.4 67.7,-197.2 290.66,-197.2 290.66,-166.4 67.7,-166.4"/>
<text text-anchor="start" x="74.7" y="-178.6" font-family="Arial" font-size="14.00">actor_key </text>
<text text-anchor="start" x="139.28" y="-178.6" font-family="Arial" font-size="14.00" fill="#666666">[text]</text>
<polygon fill="none" stroke="black" points="67.7,-135.6 67.7,-166.4 290.66,-166.4 290.66,-135.6 67.7,-135.6"/>
<text text-anchor="start" x="74.7" y="-147.8" font-family="Arial" font-size="14.00">superclass_of_key </text>
<text text-anchor="start" x="194.54" y="-147.8" font-family="Arial" font-size="14.00" fill="#666666">[text]</text>
<polygon fill="none" stroke="black" points="67.7,-104.8 67.7,-135.6 290.66,-135.6 290.66,-104.8 67.7,-104.8"/>
<text text-anchor="start" x="74.7" y="-117" font-family="Arial" font-size="14.00">subclass_of_key </text>
<text text-anchor="start" x="182.09" y="-117" font-family="Arial" font-size="14.00" fill="#666666">[text]</text>
<polygon fill="none" stroke="black" points="67.7,-74 67.7,-104.8 290.66,-104.8 290.66,-74 67.7,-74"/>
<text text-anchor="start" x="74.7" y="-86.2" font-family="Arial" font-size="14.00">details </text>
<text text-anchor="start" x="119.05" y="-86.2" font-family="Arial" font-size="14.00" fill="#666666">[text]</text>
<polygon fill="none" stroke="black" points="67.7,-43.2 67.7,-74 290.66,-74 290.66,-43.2 67.7,-43.2"/>
<text text-anchor="start" x="74.7" y="-55.4" font-family="Arial" font-size="14.00">uml_comment </text>
<text text-anchor="start" x="166.5" y="-55.4" font-family="Arial" font-size="14.00" fill="#666666">[text]</text>
</g>
<!-- public.attribute&#45;&gt;public.class -->
<g id="edge1" class="edge">
<title>public.attribute:model_key&#45;&gt;public.class:model_key</title>
<path fill="none" stroke="black" d="M314.29,-741.53C400.56,-712.11 385.56,-305 291.66,-305"/>
<polygon fill="black" stroke="black" points="314.35,-741.51 303.75,-738.71 309.09,-742.38 304.82,-743.09 304.82,-743.09 304.82,-743.09 309.09,-742.38 305.22,-747.59 314.35,-741.51"/>
<text text-anchor="start" x="311.16" y="-753.2" font-family="Arial" font-size="10.00">FOREIGN KEY (model_key, class_key) REFERENCES class(model_key, class_key) ON DELETE CASCADE</text>
</g>
<!-- public.class_index -->
<g id="node3" class="node">
<title>public.class_index</title>
<polygon fill="#efefef" stroke="none" points="43.2,-1042.8 43.2,-1078.4 315.16,-1078.4 315.16,-1042.8 43.2,-1042.8"/>
<polygon fill="none" stroke="black" points="43.2,-1042.8 43.2,-1078.4 315.16,-1078.4 315.16,-1042.8 43.2,-1042.8"/>
<text text-anchor="start" x="50.2" y="-1056.2" font-family="Arial Bold" font-size="18.00">public.class_index</text>
<text text-anchor="start" x="183.67" y="-1056.2" font-family="Arial" font-size="14.00">    </text>
<text text-anchor="start" x="214.79" y="-1056.2" font-family="Arial" font-size="14.00" fill="#666666">[BASE TABLE]</text>
<polygon fill="none" stroke="black" points="43.2,-1012 43.2,-1042.8 315.16,-1042.8 315.16,-1012 43.2,-1012"/>
<text text-anchor="start" x="50.2" y="-1024.2" font-family="Arial" font-size="14.00">model_key </text>
<text text-anchor="start" x="121.79" y="-1024.2" font-family="Arial" font-size="14.00" fill="#666666">[text]</text>
<polygon fill="none" stroke="black" points="43.2,-981.2 43.2,-1012 315.16,-1012 315.16,-981.2 43.2,-981.2"/>
<text text-anchor="start" x="50.2" y="-993.4" font-family="Arial" font-size="14.00">class_key </text>
<text text-anchor="start" x="115.56" y="-993.4" font-family="Arial" font-size="14.00" fill="#666666">[text]</text>
<polygon fill="none" stroke="black" points="43.2,-950.4 43.2,-981.2 315.16,-981.2 315.16,-950.4 43.2,-950.4"/>
<text text-anchor="start" x="50.2" y="-962.6" font-family="Arial" font-size="14.00">index_num </text>
<text text-anchor="start" x="122.58" y="-962.6" font-family="Arial" font-size="14.00" fill="#666666">[integer]</text>
<polygon fill="none" stroke="black" points="43.2,-919.6 43.2,-950.4 315.16,-950.4 315.16,-919.6 43.2,-919.6"/>
<text text-anchor="start" x="50.2" y="-931.8" font-family="Arial" font-size="14.00">attribute_key </text>
<text text-anchor="start" x="134.25" y="-931.8" font-family="Arial" font-size="14.00" fill="#666666">[text]</text>
</g>
<!-- public.class_index&#45;&gt;public.attribute -->
<g id="edge2" class="edge">
<title>public.class_index:model_key&#45;&gt;public.attribute:model_key</title>
<path fill="none" stroke="black" d="M326.57,-1026.73C441.81,-1011.53 427,-743.2 304.16,-743.2"/>
<polygon fill="black" stroke="black" points="326.47,-1026.74 316.2,-1022.89 321.15,-1027.08 316.83,-1027.36 316.83,-1027.36 316.83,-1027.36 321.15,-1027.08 316.78,-1031.87 326.47,-1026.74"/>
<text text-anchor="start" x="323.16" y="-1037.4" font-family="Arial" font-size="10.00">FOREIGN KEY (model_key, attribute_key) REFERENCES attribute(model_key, attribute_key) ON DELETE CASCADE</text>
</g>
</g>
</svg>
