<?xml version="1.0" encoding="UTF-8" standalone="no"?>
<!DOCTYPE svg PUBLIC "-//W3C//DTD SVG 1.1//EN"
 "http://www.w3.org/Graphics/SVG/1.1/DTD/svg11.dtd">
<!-- Generated by graphviz version 12.1.2 (20240928.0832)
 -->
<!-- Title: public.action_parameter_simulation_spec Pages: 1 -->
<svg width="1652pt" height="787pt"
 viewBox="0.00 0.00 1652.30 786.80" xmlns="http://www.w3.org/2000/svg" xmlns:xlink="http://www.w3.org/1999/xlink">
<g id="graph0" class="graph" transform="scale(1 1) rotate(0) translate(4 782.8)">
<title>public.action_parameter_simulation_spec</title>
<polygon fill="white" stroke="none" points="-4,4 -4,-782.8 1648.3,-782.8 1648.3,4 -4,4"/>
<!-- public.action_parameter_simulation_spec -->
<g id="node1" class="node">
<title>public.action_parameter_simulation_spec</title>
<polygon fill="#efefef" stroke="none" points="495.7,-697 495.7,-732.6 934.59,-732.6 934.59,-697 495.7,-697"/>
<polygon fill="none" stroke="black" points="495.7,-697 495.7,-732.6 934.59,-732.6 934.59,-697 495.7,-697"/>
<text text-anchor="start" x="502.7" y="-710.4" font-family="Arial Bold" font-size="18.00">public.action_parameter_simulation_spec</text>
<text text-anchor="start" x="803.1" y="-710.4" font-family="Arial" font-size="14.00">    </text>
<text text-anchor="start" x="834.22" y="-710.4" font-family="Arial" font-size="14.00" fill="#666666">[BASE TABLE]</text>
<polygon fill="none" stroke="black" points="495.7,-666.2 495.7,-697 934.59,-697 934.59,-666.2 495.7,-666.2"/>
<text text-anchor="start" x="502.7" y="-678.4" font-family="Arial" font-size="14.00">model_key </text>
<text text-anchor="start" x="574.3" y="-678.4" font-family="Arial" font-size="14.00" fill="#666666">[text]</text>
<polygon fill="none" stroke="black" points="495.7,-635.4 495.7,-666.2 934.59,-666.2 934.59,-635.4 495.7,-635.4"/>
<text text-anchor="start" x="502.7" y="-647.6" font-family="Arial" font-size="14.00">action_key </text>
<text text-anchor="start" x="573.52" y="-647.6" font-family="Arial" font-size="14.00" fill="#666666">[text]</text>
<polygon fill="none" stroke="black" points="495.7,-604.6 495.7,-635.4 934.59,-635.4 934.59,-604.6 495.7,-604.6"/>
<text text-anchor="start" x="502.7" y="-616.8" font-family="Arial" font-size="14.00">parameter_key </text>
<text text-anchor="start" x="599.97" y="-616.8" font-family="Arial" font-size="14.00" fill="#666666">[text]</text>
<polygon fill="none" stroke="black" points="495.7,-573.8 495.7,-604.6 934.59,-604.6 934.59,-573.8 495.7,-573.8"/>
<text text-anchor="start" x="502.7" y="-586" font-family="Arial" font-size="14.00">logic_key </text>
<text text-anchor="start" x="564.96" y="-586" font-family="Arial" font-size="14.00" fill="#666666">[text]</text>
<polygon fill="none" stroke="black" stroke-width="3" points="494.2,-572.3 494.2,-734.1 936.09,-734.1 936.09,-572.3 494.2,-572.3"/>
</g>
<!-- public.logic -->
<g id="node2" class="node">
<title>public.logic</title>
<polygon fill="#efefef" stroke="none" points="402.36,-412.8 402.36,-448.4 645.94,-448.4 645.94,-412.8 402.36,-412.8"/>
<polygon fill="none" stroke="black" points="402.36,-412.8 402.36,-448.4 645.94,-448.4 645.94,-412.8 402.36,-412.8"/>
<text text-anchor="start" x="419.16" y="-426.2" font-family="Arial Bold" font-size="18.00">public.logic</text>
<text text-anchor="start" x="504.65" y="-426.2" font-family="Arial" font-size="14.00">    </text>
<text text-anchor="start" x="535.76" y="-426.2" font-family="Arial" font-size="14.00" fill="#666666">[BASE TABLE]</text>
<polygon fill="none" stroke="black" points="402.36,-382 402.36,-412.8 645.94,-412.8 645.94,-382 402.36,-382"/>
<text text-anchor="start" x="409.36" y="-394.2" font-family="Arial" font-size="14.00">logic_key </text>
<text text-anchor="start" x="471.61" y="-394.2" font-family="Arial" font-size="14.00" fill="#666666">[text]</text>
<polygon fill="none" stroke="black" points="402.36,-351.2 402.36,-382 645.94,-382 645.94,-351.2 402.36,-351.2"/>
<text text-anchor="start" x="409.36" y="-363.4" font-family="Arial" font-size="14.00">model_key </text>
<text text-anchor="start" x="480.95" y="-363.4" font-family="Arial" font-size="14.00" fill="#666666">[text]</text>
<polygon fill="none" stroke="black" points="402.36,-320.4 402.36,-351.2 645.94,-351.2 645.94,-320.4 402.36,-320.4"/>
<text text-anchor="start" x="409.36" y="-332.6" font-family="Arial" font-size="14.00">sort_order </text>
<text text-anchor="start" x="477.05" y="-332.6" font-family="Arial" font-size="14.00" fill="#666666">[integer]</text>
<polygon fill="none" stroke="black" points="402.36,-289.6 402.36,-320.4 645.94,-320.4 645.94,-289.6 402.36,-289.6"/>
<text text-anchor="start" x="409.36" y="-301.8" font-family="Arial" font-size="14.00">logic_type </text>
<text text-anchor="start" x="476.29" y="-301.8" font-family="Arial" font-size="14.00" fill="#666666">[logic_type]</text>
<polygon fill="none" stroke="black" points="402.36,-258.8 402.36,-289.6 645.94,-289.6 645.94,-258.8 402.36,-258.8"/>
<text text-anchor="start" x="409.36" y="-271" font-family="Arial" font-size="14.00">description </text>
<text text-anchor="start" x="480.95" y="-271" font-family="Arial" font-size="14.00" fill="#666666">[text]</text>
<polygon fill="none" stroke="black" points="402.36,-228 402.36,-258.8 645.94,-258.8 645.94,-228 402.36,-228"/>
<text text-anchor="start" x="409.36" y="-240.2" font-family="Arial" font-size="14.00">target </text>
<text text-anchor="start" x="449.05" y="-240.2" font-family="Arial" font-size="14.00" fill="#666666">[text]</text>
<polygon fill="none" stroke="black" points="402.36,-197.2 402.36,-228 645.94,-228 645.94,-197.2 402.36,-197.2"/>
<text text-anchor="start" x="409.36" y="-209.4" font-family="Arial" font-size="14.00">notation </text>
<text text-anchor="start" x="463.07" y="-209.4" font-family="Arial" font-size="14.00" fill="#666666">[notation]</text>
<polygon fill="none" stroke="black" points="402.36,-166.4 402.36,-197.2 645.94,-197.2 645.94,-166.4 402.36,-166.4"/>
<text text-anchor="start" x="409.36" y="-178.6" font-family="Arial" font-size="14.00">specification </text>
<text text-anchor="start" x="490.29" y="-178.6" font-family="Arial" font-size="14.00" fill="#666666">[text]</text>
<polygon fill="none" stroke="black" points="402.36,-135.6 402.36,-166.4 645.94,-166.4 645.94,-135.6 402.36,-135.6"/>
<text text-anchor="start" x="409.36" y="-147.8" font-family="Arial" font-size="14.00">target_type_notation </text>
<text text-anchor="start" x="540.9" y="-147.8" font-family="Arial" font-size="14.00" fill="#666666">[notation]</text>
<polygon fill="none" stroke="black" points="402.36,-104.8 402.36,-135.6 645.94,-135.6 645.94,-104.8 402.36,-104.8"/>
<text text-anchor="start" x="409.36" y="-117" font-family="Arial" font-size="14.00">target_type_specification </text>
<text text-anchor="start" x="568.12" y="-117" font-family="Arial" font-size="14.00" fill="#666666">[text]</text>
<polygon fill="none" stroke="black" points="402.36,-74 402.36,-104.8 645.94,-104.8 645.94,-74 402.36,-74"/>
<text text-anchor="start" x="409.36" y="-86.2" font-family="Arial" font-size="14.00">destroy_event_specification </text>
<text text-anchor="start" x="586.02" y="-86.2" font-family="Arial" font-size="14.00" fill="#666666">[text]</text>
<polygon fill="none" stroke="black" points="402.36,-43.2 402.36,-74 645.94,-74 645.94,-43.2 402.36,-43.2"/>
<text text-anchor="start" x="409.36" y="-55.4" font-family="Arial" font-size="14.00">endpoint_selector_specification </text>
<text text-anchor="start" x="608.6" y="-55.4" font-family="Arial" font-size="14.00" fill="#666666">[text]</text>
</g>
<!-- public.action_parameter_simulation_spec&#45;&gt;public.logic -->
<g id="edge1" class="edge">
<title>public.action_parameter_simulation_spec:model_key&#45;&gt;public.logic:model_key</title>
<path fill="none" stroke="black" d="M484.32,-680.72C429.24,-670.76 455.47,-578.27 495.7,-527.6 538.4,-473.83 603.21,-545.34 645.94,-491.6 680.52,-448.12 702.5,-366.6 646.94,-366.6"/>
<polygon fill="black" stroke="black" points="484.41,-680.73 493.99,-686.06 489.72,-681.18 494.04,-681.54 494.04,-681.54 494.04,-681.54 489.72,-681.18 494.75,-677.09 484.41,-680.73"/>
<text text-anchor="start" x="7" y="-691.6" font-family="Arial" font-size="10.00">FOREIGN KEY (model_key, logic_key) REFERENCES logic(model_key, logic_key) ON DELETE CASCADE</text>
</g>
<!-- public.action_parameter -->
<g id="node3" class="node">
<title>public.action_parameter</title>
<polygon fill="#efefef" stroke="none" points="750.69,-351.2 750.69,-386.8 1063.6,-386.8 1063.6,-351.2 750.69,-351.2"/>
<polygon fill="none" stroke="black" points="750.69,-351.2 750.69,-386.8 1063.6,-386.8 1063.6,-351.2 750.69,-351.2"/>
<text text-anchor="start" x="757.69" y="-364.6" font-family="Arial Bold" font-size="18.00">public.action_parameter</text>
<text text-anchor="start" x="932.11" y="-364.6" font-family="Arial" font-size="14.00">    </text>
<text text-anchor="start" x="963.23" y="-364.6" font-family="Arial" font-size="14.00" fill="#666666">[BASE TABLE]</text>
<polygon fill="none" stroke="black" points="750.69,-320.4 750.69,-351.2 1063.6,-351.2 1063.6,-320.4 750.69,-320.4"/>
<text text-anchor="start" x="757.69" y="-332.6" font-family="Arial" font-size="14.00">model_key </text>
<text text-anchor="start" x="829.29" y="-332.6" font-family="Arial" font-size="14.00" fill="#666666">[text]</text>
<polygon fill="none" stroke="black" points="750.69,-289.6 750.69,-320.4 1063.6,-320.4 1063.6,-289.6 750.69,-289.6"/>
<text text-anchor="start" x="757.69" y="-301.8" font-family="Arial" font-size="14.00">action_key </text>
<text text-anchor="start" x="828.51" y="-301.8" font-family="Arial" font-size="14.00" fill="#666666">[text]</text>
<polygon fill="none" stroke="black" points="750.69,-258.8 750.69,-289.6 1063.6,-289.6 1063.6,-258.8 750.69,-258.8"/>
<text text-anchor="start" x="757.69" y="-271" font-family="Arial" font-size="14.00">parameter_key </text>
<text text-anchor="start" x="854.96" y="-271" font-family="Arial" font-size="14.00" fill="#666666">[text]</text>
<polygon fill="none" stroke="black" points="750.69,-228 750.69,-258.8 1063.6,-258.8 1063.6,-228 750.69,-228"/>
<text text-anchor="start" x="757.69" y="-240.2" font-family="Arial" font-size="14.00">name </text>
<text text-anchor="start" x="796.6" y="-240.2" font-family="Arial" font-size="14.00" fill="#666666">[text]</text>
<polygon fill="none" stroke="black" points="750.69,-197.2 750.69,-228 1063.6,-228 1063.6,-197.2 750.69,-197.2"/>
<text text-anchor="start" x="757.69" y="-209.4" font-family="Arial" font-size="14.00">sort_order </text>
<text text-anchor="start" x="825.39" y="-209.4" font-family="Arial" font-size="14.00" fill="#666666">[integer]</text>
<polygon fill="none" stroke="black" points="750.69,-166.4 750.69,-197.2 1063.6,-197.2 1063.6,-166.4 750.69,-166.4"/>
<text text-anchor="start" x="757.69" y="-178.6" font-family="Arial" font-size="14.00">data_type_rules </text>
<text text-anchor="start" x="861.21" y="-178.6" font-family="Arial" font-size="14.00" fill="#666666">[text]</text>
<polygon fill="none" stroke="black" points="750.69,-135.6 750.69,-166.4 1063.6,-166.4 1063.6,-135.6 750.69,-135.6"/>
<text text-anchor="start" x="757.69" y="-147.8" font-family="Arial" font-size="14.00">data_type_key </text>
<text text-anchor="start" x="852.65" y="-147.8" font-family="Arial" font-size="14.00" fill="#666666">[text]</text>
<polygon fill="none" stroke="black" points="750.69,-104.8 750.69,-135.6 1063.6,-135.6 1063.6,-104.8 750.69,-104.8"/>
<text text-anchor="start" x="757.69" y="-117" font-family="Arial" font-size="14.00">nullable </text>
<text text-anchor="start" x="809.85" y="-117" font-family="Arial" font-size="14.00" fill="#666666">[boolean]</text>
</g>
<!-- public.action_parameter_simulation_spec&#45;&gt;public.action_parameter -->
<g id="edge2" class="edge">
<title>public.action_parameter_simulation_spec:model_key&#45;&gt;public.action_parameter:model_key</title>
<path fill="none" stroke="black" d="M945.92,-680.77C1000.32,-671.27 968.12,-582.94 934.59,-527.6 886.65,-448.46 798.8,-509.04 750.69,-430 728.93,-394.23 707.83,-335.8 749.69,-335.8"/>
<polygon fill="black" stroke="black" points="945.89,-680.77 935.56,-677.09 940.58,-681.2 936.26,-681.55 936.26,-681.55 936.26,-681.55 940.58,-681.2 936.29,-686.06 945.89,-680.77"/>
<text text-anchor="start" x="942.59" y="-691.6" font-family="Arial" font-size="10.00">FOREIGN KEY (model_key, action_key, parameter_key) REFERENCES action_parameter(model_key, action_key, parameter_key) ON DELETE CASCADE</text>
</g>
</g>
</svg>
