<?xml version="1.0" encoding="UTF-8" standalone="no"?>
<!DOCTYPE svg PUBLIC "-//W3C//DTD SVG 1.1//EN"
 "http://www.w3.org/Graphics/SVG/1.1/DTD/svg11.dtd">
<!-- Generated by graphviz version 12.1.2 (20240928.0832)
 -->
<!-- Title: public.guard Pages: 1 -->
<svg width="1262pt" height="1160pt"
 viewBox="0.00 0.00 1261.91 1160.40" xmlns="http://www.w3.org/2000/svg" xmlns:xlink="http://www.w3.org/1999/xlink">
<g id="graph0" class="graph" transform="scale(1 1) rotate(0) translate(4 1156.4)">
<title>public.guard</title>
<polygon fill="white" stroke="none" points="-4,4 -4,-1156.4 1257.91,-1156.4 1257.91,4 -4,4"/>
<!-- public.guard -->
<g id="node1" class="node">
<title>public.guard</title>
<polygon fill="#efefef" stroke="none" points="500.71,-635.4 500.71,-671 729.68,-671 729.68,-635.4 500.71,-635.4"/>
<polygon fill="none" stroke="black" points="500.71,-635.4 500.71,-671 729.68,-671 729.68,-635.4 500.71,-635.4"/>
<text text-anchor="start" x="507.71" y="-648.8" font-family="Arial Bold" font-size="18.00">public.guard</text>
<text text-anchor="start" x="598.19" y="-648.8" font-family="Arial" font-size="14.00">    </text>
<text text-anchor="start" x="629.3" y="-648.8" font-family="Arial" font-size="14.00" fill="#666666">[BASE TABLE]</text>
<polygon fill="none" stroke="black" points="500.71,-604.6 500.71,-635.4 729.68,-635.4 729.68,-604.6 500.71,-604.6"/>
<text text-anchor="start" x="507.71" y="-616.8" font-family="Arial" font-size="14.00">model_key </text>
<text text-anchor="start" x="579.31" y="-616.8" font-family="Arial" font-size="14.00" fill="#666666">[text]</text>
<polygon fill="none" stroke="black" points="500.71,-573.8 500.71,-604.6 729.68,-604.6 729.68,-573.8 500.71,-573.8"/>
<text text-anchor="start" x="507.71" y="-586" font-family="Arial" font-size="14.00">class_key </text>
<text text-anchor="start" x="573.07" y="-586" font-family="Arial" font-size="14.00" fill="#666666">[text]</text>
<polygon fill="none" stroke="black" points="500.71,-543 500.71,-573.8 729.68,-573.8 729.68,-543 500.71,-543"/>
<text text-anchor="start" x="507.71" y="-555.2" font-family="Arial" font-size="14.00">guard_key </text>
<text text-anchor="start" x="576.98" y="-555.2" font-family="Arial" font-size="14.00" fill="#666666">[text]</text>
<polygon fill="none" stroke="black" points="500.71,-512.2 500.71,-543 729.68,-543 729.68,-512.2 500.71,-512.2"/>
<text text-anchor="start" x="507.71" y="-524.4" font-family="Arial" font-size="14.00">name </text>
<text text-anchor="start" x="546.62" y="-524.4" font-family="Arial" font-size="14.00" fill="#666666">[text]</text>
<polygon fill="none" stroke="black" stroke-width="3" points="499.21,-510.7 499.21,-672.5 731.18,-672.5 731.18,-510.7 499.21,-510.7"/>
</g>
<!-- public.logic -->
<g id="node2" class="node">
<title>public.logic</title>
<polygon fill="#efefef" stroke="none" points="339.21,-351.2 339.21,-386.8 563.18,-386.8 563.18,-351.2 339.21,-351.2"/>
<polygon fill="none" stroke="black" points="339.21,-351.2 339.21,-386.8 563.18,-386.8 563.18,-351.2 339.21,-351.2"/>
<text text-anchor="start" x="346.21" y="-364.6" font-family="Arial Bold" font-size="18.00">public.logic</text>
<text text-anchor="start" x="431.69" y="-364.6" font-family="Arial" font-size="14.00">    </text>
<text text-anchor="start" x="462.81" y="-364.6" font-family="Arial" font-size="14.00" fill="#666666">[BASE TABLE]</text>
<polygon fill="none" stroke="black" points="339.21,-320.4 339.21,-351.2 563.18,-351.2 563.18,-320.4 339.21,-320.4"/>
<text text-anchor="start" x="346.21" y="-332.6" font-family="Arial" font-size="14.00">logic_key </text>
<text text-anchor="start" x="408.46" y="-332.6" font-family="Arial" font-size="14.00" fill="#666666">[text]</text>
<polygon fill="none" stroke="black" points="339.21,-289.6 339.21,-320.4 563.18,-320.4 563.18,-289.6 339.21,-289.6"/>
<text text-anchor="start" x="346.21" y="-301.8" font-family="Arial" font-size="14.00">model_key </text>
<text text-anchor="start" x="417.8" y="-301.8" font-family="Arial" font-size="14.00" fill="#666666">[text]</text>
<polygon fill="none" stroke="black" points="339.21,-258.8 339.21,-289.6 563.18,-289.6 563.18,-258.8 339.21,-258.8"/>
<text text-anchor="start" x="346.21" y="-271" font-family="Arial" font-size="14.00">sort_order </text>
<text text-anchor="start" x="413.91" y="-271" font-family="Arial" font-size="14.00" fill="#666666">[integer]</text>
<polygon fill="none" stroke="black" points="339.21,-228 339.21,-258.8 563.18,-258.8 563.18,-228 339.21,-228"/>
<text text-anchor="start" x="346.21" y="-240.2" font-family="Arial" font-size="14.00">logic_type </text>
<text text-anchor="start" x="413.14" y="-240.2" font-family="Arial" font-size="14.00" fill="#666666">[logic_type]</text>
<polygon fill="none" stroke="black" points="339.21,-197.2 339.21,-228 563.18,-228 563.18,-197.2 339.21,-197.2"/>
<text text-anchor="start" x="346.21" y="-209.4" font-family="Arial" font-size="14.00">description </text>
<text text-anchor="start" x="417.8" y="-209.4" font-family="Arial" font-size="14.00" fill="#666666">[text]</text>
<polygon fill="none" stroke="black" points="339.21,-166.4 339.21,-197.2 563.18,-197.2 563.18,-166.4 339.21,-166.4"/>
<text text-anchor="start" x="346.21" y="-178.6" font-family="Arial" font-size="14.00">target </text>
<text text-anchor="start" x="385.9" y="-178.6" font-family="Arial" font-size="14.00" fill="#666666">[text]</text>
<polygon fill="none" stroke="black" points="339.21,-135.6 339.21,-166.4 563.18,-166.4 563.18,-135.6 339.21,-135.6"/>
<text text-anchor="start" x="346.21" y="-147.8" font-family="Arial" font-size="14.00">notation </text>
<text text-anchor="start" x="399.92" y="-147.8" font-family="Arial" font-size="14.00" fill="#666666">[notation]</text>
<polygon fill="none" stroke="black" points="339.21,-104.8 339.21,-135.6 563.18,-135.6 563.18,-104.8 339.21,-104.8"/>
<text text-anchor="start" x="346.21" y="-117" font-family="Arial" font-size="14.00">specification </text>
<text text-anchor="start" x="427.14" y="-117" font-family="Arial" font-size="14.00" fill="#666666">[text]</text>
<polygon fill="none" stroke="black" points="339.21,-74 339.21,-104.8 563.18,-104.8 563.18,-74 339.21,-74"/>
<text text-anchor="start" x="346.21" y="-86.2" font-family="Arial" font-size="14.00">target_type_notation </text>
<text text-anchor="start" x="477.75" y="-86.2" font-family="Arial" font-size="14.00" fill="#666666">[notation]</text>
<polygon fill="none" stroke="black" points="339.21,-43.2 339.21,-74 563.18,-74 563.18,-43.2 339.21,-43.2"/>
<text text-anchor="start" x="346.21" y="-55.4" font-family="Arial" font-size="14.00">target_type_specification </text>
<text text-anchor="start" x="504.97" y="-55.4" font-family="Arial" font-size="14.00" fill="#666666">[text]</text>
</g>
<!-- public.guard&#45;&gt;public.logic -->
<g id="edge1" class="edge">
<title>public.guard:model_key&#45;&gt;public.logic:model_key</title>
<path fill="none" stroke="black" d="M489.39,-619.17C435.09,-609.73 468.16,-521.92 500.71,-466 516.84,-438.31 547.04,-457.68 563.18,-430 591.17,-382.01 619.74,-305 564.18,-305"/>
<polygon fill="black" stroke="black" points="489.41,-619.17 499.02,-624.46 494.73,-619.6 499.05,-619.95 499.05,-619.95 499.05,-619.95 494.73,-619.6 499.74,-615.49 489.41,-619.17"/>
<text text-anchor="start" x="7" y="-630" font-family="Arial" font-size="10.00">FOREIGN KEY (model_key, guard_key) REFERENCES logic(model_key, logic_key) ON DELETE CASCADE</text>
</g>
<!-- public.class -->
<g id="node3" class="node">
<title>public.class</title>
<polygon fill="#efefef" stroke="none" points="667.71,-335.8 667.71,-371.4 890.68,-371.4 890.68,-335.8 667.71,-335.8"/>
<polygon fill="none" stroke="black" points="667.71,-335.8 667.71,-371.4 890.68,-371.4 890.68,-335.8 667.71,-335.8"/>
<text text-anchor="start" x="674.71" y="-349.2" font-family="Arial Bold" font-size="18.00">public.class</text>
<text text-anchor="start" x="759.19" y="-349.2" font-family="Arial" font-size="14.00">    </text>
<text text-anchor="start" x="790.31" y="-349.2" font-family="Arial" font-size="14.00" fill="#666666">[BASE TABLE]</text>
<polygon fill="none" stroke="black" points="667.71,-305 667.71,-335.8 890.68,-335.8 890.68,-305 667.71,-305"/>
<text text-anchor="start" x="674.71" y="-317.2" font-family="Arial" font-size="14.00">model_key </text>
<text text-anchor="start" x="746.3" y="-317.2" font-family="Arial" font-size="14.00" fill="#666666">[text]</text>
<polygon fill="none" stroke="black" points="667.71,-274.2 667.71,-305 890.68,-305 890.68,-274.2 667.71,-274.2"/>
<text text-anchor="start" x="674.71" y="-286.4" font-family="Arial" font-size="14.00">class_key </text>
<text text-anchor="start" x="740.07" y="-286.4" font-family="Arial" font-size="14.00" fill="#666666">[text]</text>
<polygon fill="none" stroke="black" points="667.71,-243.4 667.71,-274.2 890.68,-274.2 890.68,-243.4 667.71,-243.4"/>
<text text-anchor="start" x="674.71" y="-255.6" font-family="Arial" font-size="14.00">name </text>
<text text-anchor="start" x="713.62" y="-255.6" font-family="Arial" font-size="14.00" fill="#666666">[text]</text>
<polygon fill="none" stroke="black" points="667.71,-212.6 667.71,-243.4 890.68,-243.4 890.68,-212.6 667.71,-212.6"/>
<text text-anchor="start" x="674.71" y="-224.8" font-family="Arial" font-size="14.00">subdomain_key </text>
<text text-anchor="start" x="776.66" y="-224.8" font-family="Arial" font-size="14.00" fill="#666666">[text]</text>
<polygon fill="none" stroke="black" points="667.71,-181.8 667.71,-212.6 890.68,-212.6 890.68,-181.8 667.71,-181.8"/>
<text text-anchor="start" x="674.71" y="-194" font-family="Arial" font-size="14.00">actor_key </text>
<text text-anchor="start" x="739.3" y="-194" font-family="Arial" font-size="14.00" fill="#666666">[text]</text>
<polygon fill="none" stroke="black" points="667.71,-151 667.71,-181.8 890.68,-181.8 890.68,-151 667.71,-151"/>
<text text-anchor="start" x="674.71" y="-163.2" font-family="Arial" font-size="14.00">superclass_of_key </text>
<text text-anchor="start" x="794.55" y="-163.2" font-family="Arial" font-size="14.00" fill="#666666">[text]</text>
<polygon fill="none" stroke="black" points="667.71,-120.2 667.71,-151 890.68,-151 890.68,-120.2 667.71,-120.2"/>
<text text-anchor="start" x="674.71" y="-132.4" font-family="Arial" font-size="14.00">subclass_of_key </text>
<text text-anchor="start" x="782.1" y="-132.4" font-family="Arial" font-size="14.00" fill="#666666">[text]</text>
<polygon fill="none" stroke="black" points="667.71,-89.4 667.71,-120.2 890.68,-120.2 890.68,-89.4 667.71,-89.4"/>
<text text-anchor="start" x="674.71" y="-101.6" font-family="Arial" font-size="14.00">details </text>
<text text-anchor="start" x="719.07" y="-101.6" font-family="Arial" font-size="14.00" fill="#666666">[text]</text>
<polygon fill="none" stroke="black" points="667.71,-58.6 667.71,-89.4 890.68,-89.4 890.68,-58.6 667.71,-58.6"/>
<text text-anchor="start" x="674.71" y="-70.8" font-family="Arial" font-size="14.00">uml_comment </text>
<text text-anchor="start" x="766.52" y="-70.8" font-family="Arial" font-size="14.00" fill="#666666">[text]</text>
</g>
<!-- public.guard&#45;&gt;public.class -->
<g id="edge2" class="edge">
<title>public.guard:model_key&#45;&gt;public.class:model_key</title>
<path fill="none" stroke="black" d="M741.04,-619.9C991.97,-614.98 674.2,-428.24 667.71,-414.6 649.71,-376.8 624.84,-320.4 666.71,-320.4"/>
<polygon fill="black" stroke="black" points="741.01,-619.9 730.97,-615.5 735.68,-619.95 731.35,-619.99 731.35,-619.99 731.35,-619.99 735.68,-619.95 731.05,-624.5 741.01,-619.9"/>
<text text-anchor="start" x="737.68" y="-630" font-family="Arial" font-size="10.00">FOREIGN KEY (model_key, class_key) REFERENCES class(model_key, class_key) ON DELETE CASCADE</text>
</g>
<!-- public.transition -->
<g id="node4" class="node">
<title>public.transition</title>
<polygon fill="#efefef" stroke="none" points="487.21,-1073.6 487.21,-1109.2 743.18,-1109.2 743.18,-1073.6 487.21,-1073.6"/>
<polygon fill="none" stroke="black" points="487.21,-1073.6 487.21,-1109.2 743.18,-1109.2 743.18,-1073.6 487.21,-1073.6"/>
<text text-anchor="start" x="494.21" y="-1087" font-family="Arial Bold" font-size="18.00">public.transition</text>
<text text-anchor="start" x="611.69" y="-1087" font-family="Arial" font-size="14.00">    </text>
<text text-anchor="start" x="642.81" y="-1087" font-family="Arial" font-size="14.00" fill="#666666">[BASE TABLE]</text>
<polygon fill="none" stroke="black" points="487.21,-1042.8 487.21,-1073.6 743.18,-1073.6 743.18,-1042.8 487.21,-1042.8"/>
<text text-anchor="start" x="494.21" y="-1055" font-family="Arial" font-size="14.00">model_key </text>
<text text-anchor="start" x="565.8" y="-1055" font-family="Arial" font-size="14.00" fill="#666666">[text]</text>
<polygon fill="none" stroke="black" points="487.21,-1012 487.21,-1042.8 743.18,-1042.8 743.18,-1012 487.21,-1012"/>
<text text-anchor="start" x="494.21" y="-1024.2" font-family="Arial" font-size="14.00">class_key </text>
<text text-anchor="start" x="559.57" y="-1024.2" font-family="Arial" font-size="14.00" fill="#666666">[text]</text>
<polygon fill="none" stroke="black" points="487.21,-981.2 487.21,-1012 743.18,-1012 743.18,-981.2 487.21,-981.2"/>
<text text-anchor="start" x="494.21" y="-993.4" font-family="Arial" font-size="14.00">transition_key </text>
<text text-anchor="start" x="584.48" y="-993.4" font-family="Arial" font-size="14.00" fill="#666666">[text]</text>
<polygon fill="none" stroke="black" points="487.21,-950.4 487.21,-981.2 743.18,-981.2 743.18,-950.4 487.21,-950.4"/>
<text text-anchor="start" x="494.21" y="-962.6" font-family="Arial" font-size="14.00">from_state_key </text>
<text text-anchor="start" x="593.81" y="-962.6" font-family="Arial" font-size="14.00" fill="#666666">[text]</text>
<polygon fill="none" stroke="black" points="487.21,-919.6 487.21,-950.4 743.18,-950.4 743.18,-919.6 487.21,-919.6"/>
<text text-anchor="start" x="494.21" y="-931.8" font-family="Arial" font-size="14.00">event_key </text>
<text text-anchor="start" x="561.92" y="-931.8" font-family="Arial" font-size="14.00" fill="#666666">[text]</text>
<polygon fill="none" stroke="black" points="487.21,-888.8 487.21,-919.6 743.18,-919.6 743.18,-888.8 487.21,-888.8"/>
<text text-anchor="start" x="494.21" y="-901" font-family="Arial" font-size="14.00">guard_key </text>
<text text-anchor="start" x="563.48" y="-901" font-family="Arial" font-size="14.00" fill="#666666">[text]</text>
<polygon fill="none" stroke="black" points="487.21,-858 487.21,-888.8 743.18,-888.8 743.18,-858 487.21,-858"/>
<text text-anchor="start" x="494.21" y="-870.2" font-family="Arial" font-size="14.00">action_key </text>
<text text-anchor="start" x="565.03" y="-870.2" font-family="Arial" font-size="14.00" fill="#666666">[text]</text>
<polygon fill="none" stroke="black" points="487.21,-827.2 487.21,-858 743.18,-858 743.18,-827.2 487.21,-827.2"/>
<text text-anchor="start" x="494.21" y="-839.4" font-family="Arial" font-size="14.00">to_state_key </text>
<text text-anchor="start" x="577.48" y="-839.4" font-family="Arial" font-size="14.00" fill="#666666">[text]</text>
<polygon fill="none" stroke="black" points="487.21,-796.4 487.21,-827.2 743.18,-827.2 743.18,-796.4 487.21,-796.4"/>
<text text-anchor="start" x="494.21" y="-808.6" font-family="Arial" font-size="14.00">uml_comment </text>
<text text-anchor="start" x="586.02" y="-808.6" font-family="Arial" font-size="14.00" fill="#666666">[text]</text>
</g>
<!-- public.transition&#45;&gt;public.guard -->
<g id="edge3" class="edge">
<title>public.transition:model_key&#45;&gt;public.guard:model_key</title>
<path fill="none" stroke="black" d="M754.54,-1057.78C938.48,-1042.51 922,-620 730.68,-620"/>
<polygon fill="black" stroke="black" points="754.51,-1057.78 744.33,-1053.69 749.18,-1058 744.85,-1058.17 744.85,-1058.17 744.85,-1058.17 749.18,-1058 744.7,-1062.68 754.51,-1057.78"/>
<text text-anchor="start" x="751.18" y="-1068.2" font-family="Arial" font-size="10.00">FOREIGN KEY (model_key, guard_key) REFERENCES guard(model_key, guard_key) ON DELETE CASCADE</text>
</g>
</g>
</svg>
