<?xml version="1.0" encoding="UTF-8" standalone="no"?>
<!DOCTYPE svg PUBLIC "-//W3C//DTD SVG 1.1//EN"
 "http://www.w3.org/Graphics/SVG/1.1/DTD/svg11.dtd">
<!-- Generated by graphviz version 12.1.2 (20240928.0832)
 -->
<!-- Title: public.guard Pages: 1 -->
<svg width="1262pt" height="1222pt"
 viewBox="0.00 0.00 1261.91 1222.00" xmlns="http://www.w3.org/2000/svg" xmlns:xlink="http://www.w3.org/1999/xlink">
<g id="graph0" class="graph" transform="scale(1 1) rotate(0) translate(4 1218)">
<title>public.guard</title>
<polygon fill="white" stroke="none" points="-4,4 -4,-1218 1257.91,-1218 1257.91,4 -4,4"/>
<!-- public.guard -->
<g id="node1" class="node">
<title>public.guard</title>
<polygon fill="#efefef" stroke="none" points="500.71,-697 500.71,-732.6 729.68,-732.6 729.68,-697 500.71,-697"/>
<polygon fill="none" stroke="black" points="500.71,-697 500.71,-732.6 729.68,-732.6 729.68,-697 500.71,-697"/>
<text text-anchor="start" x="507.71" y="-710.4" font-family="Arial Bold" font-size="18.00">public.guard</text>
<text text-anchor="start" x="598.19" y="-710.4" font-family="Arial" font-size="14.00">    </text>
<text text-anchor="start" x="629.3" y="-710.4" font-family="Arial" font-size="14.00" fill="#666666">[BASE TABLE]</text>
<polygon fill="none" stroke="black" points="500.71,-666.2 500.71,-697 729.68,-697 729.68,-666.2 500.71,-666.2"/>
<text text-anchor="start" x="507.71" y="-678.4" font-family="Arial" font-size="14.00">model_key </text>
<text text-anchor="start" x="579.31" y="-678.4" font-family="Arial" font-size="14.00" fill="#666666">[text]</text>
<polygon fill="none" stroke="black" points="500.71,-635.4 500.71,-666.2 729.68,-666.2 729.68,-635.4 500.71,-635.4"/>
<text text-anchor="start" x="507.71" y="-647.6" font-family="Arial" font-size="14.00">class_key </text>
<text text-anchor="start" x="573.07" y="-647.6" font-family="Arial" font-size="14.00" fill="#666666">[text]</text>
<polygon fill="none" stroke="black" points="500.71,-604.6 500.71,-635.4 729.68,-635.4 729.68,-604.6 500.71,-604.6"/>
<text text-anchor="start" x="507.71" y="-616.8" font-family="Arial" font-size="14.00">guard_key </text>
<text text-anchor="start" x="576.98" y="-616.8" font-family="Arial" font-size="14.00" fill="#666666">[text]</text>
<polygon fill="none" stroke="black" points="500.71,-573.8 500.71,-604.6 729.68,-604.6 729.68,-573.8 500.71,-573.8"/>
<text text-anchor="start" x="507.71" y="-586" font-family="Arial" font-size="14.00">name </text>
<text text-anchor="start" x="546.62" y="-586" font-family="Arial" font-size="14.00" fill="#666666">[text]</text>
<polygon fill="none" stroke="black" stroke-width="3" points="499.21,-572.3 499.21,-734.1 731.18,-734.1 731.18,-572.3 499.21,-572.3"/>
</g>
<!-- public.logic -->
<g id="node2" class="node">
<title>public.logic</title>
<polygon fill="#efefef" stroke="none" points="324.4,-412.8 324.4,-448.4 567.99,-448.4 567.99,-412.8 324.4,-412.8"/>
<polygon fill="none" stroke="black" points="324.4,-412.8 324.4,-448.4 567.99,-448.4 567.99,-412.8 324.4,-412.8"/>
<text text-anchor="start" x="341.21" y="-426.2" font-family="Arial Bold" font-size="18.00">public.logic</text>
<text text-anchor="start" x="426.69" y="-426.2" font-family="Arial" font-size="14.00">    </text>
<text text-anchor="start" x="457.81" y="-426.2" font-family="Arial" font-size="14.00" fill="#666666">[BASE TABLE]</text>
<polygon fill="none" stroke="black" points="324.4,-382 324.4,-412.8 567.99,-412.8 567.99,-382 324.4,-382"/>
<text text-anchor="start" x="331.4" y="-394.2" font-family="Arial" font-size="14.00">logic_key </text>
<text text-anchor="start" x="393.66" y="-394.2" font-family="Arial" font-size="14.00" fill="#666666">[text]</text>
<polygon fill="none" stroke="black" points="324.4,-351.2 324.4,-382 567.99,-382 567.99,-351.2 324.4,-351.2"/>
<text text-anchor="start" x="331.4" y="-363.4" font-family="Arial" font-size="14.00">model_key </text>
<text text-anchor="start" x="403" y="-363.4" font-family="Arial" font-size="14.00" fill="#666666">[text]</text>
<polygon fill="none" stroke="black" points="324.4,-320.4 324.4,-351.2 567.99,-351.2 567.99,-320.4 324.4,-320.4"/>
<text text-anchor="start" x="331.4" y="-332.6" font-family="Arial" font-size="14.00">sort_order </text>
<text text-anchor="start" x="399.1" y="-332.6" font-family="Arial" font-size="14.00" fill="#666666">[integer]</text>
<polygon fill="none" stroke="black" points="324.4,-289.6 324.4,-320.4 567.99,-320.4 567.99,-289.6 324.4,-289.6"/>
<text text-anchor="start" x="331.4" y="-301.8" font-family="Arial" font-size="14.00">logic_type </text>
<text text-anchor="start" x="398.33" y="-301.8" font-family="Arial" font-size="14.00" fill="#666666">[logic_type]</text>
<polygon fill="none" stroke="black" points="324.4,-258.8 324.4,-289.6 567.99,-289.6 567.99,-258.8 324.4,-258.8"/>
<text text-anchor="start" x="331.4" y="-271" font-family="Arial" font-size="14.00">description </text>
<text text-anchor="start" x="403" y="-271" font-family="Arial" font-size="14.00" fill="#666666">[text]</text>
<polygon fill="none" stroke="black" points="324.4,-228 324.4,-258.8 567.99,-258.8 567.99,-228 324.4,-228"/>
<text text-anchor="start" x="331.4" y="-240.2" font-family="Arial" font-size="14.00">target </text>
<text text-anchor="start" x="371.09" y="-240.2" font-family="Arial" font-size="14.00" fill="#666666">[text]</text>
<polygon fill="none" stroke="black" points="324.4,-197.2 324.4,-228 567.99,-228 567.99,-197.2 324.4,-197.2"/>
<text text-anchor="start" x="331.4" y="-209.4" font-family="Arial" font-size="14.00">notation </text>
<text text-anchor="start" x="385.11" y="-209.4" font-family="Arial" font-size="14.00" fill="#666666">[notation]</text>
<polygon fill="none" stroke="black" points="324.4,-166.4 324.4,-197.2 567.99,-197.2 567.99,-166.4 324.4,-166.4"/>
<text text-anchor="start" x="331.4" y="-178.6" font-family="Arial" font-size="14.00">specification </text>
<text text-anchor="start" x="412.33" y="-178.6" font-family="Arial" font-size="14.00" fill="#666666">[text]</text>
<polygon fill="none" stroke="black" points="324.4,-135.6 324.4,-166.4 567.99,-166.4 567.99,-135.6 324.4,-135.6"/>
<text text-anchor="start" x="331.4" y="-147.8" font-family="Arial" font-size="14.00">target_type_notation </text>
<text text-anchor="start" x="462.95" y="-147.8" font-family="Arial" font-size="14.00" fill="#666666">[notation]</text>
<polygon fill="none" stroke="black" points="324.4,-104.8 324.4,-135.6 567.99,-135.6 567.99,-104.8 324.4,-104.8"/>
<text text-anchor="start" x="331.4" y="-117" font-family="Arial" font-size="14.00">target_type_specification </text>
<text text-anchor="start" x="490.17" y="-117" font-family="Arial" font-size="14.00" fill="#666666">[text]</text>
<polygon fill="none" stroke="black" points="324.4,-74 324.4,-104.8 567.99,-104.8 567.99,-74 324.4,-74"/>
<text text-anchor="start" x="331.4" y="-86.2" font-family="Arial" font-size="14.00">destroy_event_specification </text>
<text text-anchor="start" x="508.06" y="-86.2" font-family="Arial" font-size="14.00" fill="#666666">[text]</text>
<polygon fill="none" stroke="black" points="324.4,-43.2 324.4,-74 567.99,-74 567.99,-43.2 324.4,-43.2"/>
<text text-anchor="start" x="331.4" y="-55.4" font-family="Arial" font-size="14.00">endpoint_selector_specification </text>
<text text-anchor="start" x="530.64" y="-55.4" font-family="Arial" font-size="14.00" fill="#666666">[text]</text>
</g>
<!-- public.guard&#45;&gt;public.logic -->
<g id="edge1" class="edge">
<title>public.guard:model_key&#45;&gt;public.logic:model_key</title>
<path fill="none" stroke="black" d="M489.39,-680.77C435,-671.28 467.28,-583 500.71,-527.6 518.23,-498.57 550.44,-520.62 567.99,-491.6 596.73,-444.05 624.54,-366.6 568.99,-366.6"/>
<polygon fill="black" stroke="black" points="489.41,-680.77 499.02,-686.06 494.73,-681.2 499.05,-681.55 499.05,-681.55 499.05,-681.55 494.73,-681.2 499.74,-677.09 489.41,-680.77"/>
<text text-anchor="start" x="7" y="-691.6" font-family="Arial" font-size="10.00">FOREIGN KEY (model_key, guard_key) REFERENCES logic(model_key, logic_key) ON DELETE CASCADE</text>
</g>
<!-- public.class -->
<g id="node3" class="node">
<title>public.class</title>
<polygon fill="#efefef" stroke="none" points="672.71,-397.4 672.71,-433 895.68,-433 895.68,-397.4 672.71,-397.4"/>
<polygon fill="none" stroke="black" points="672.71,-397.4 672.71,-433 895.68,-433 895.68,-397.4 672.71,-397.4"/>
<text text-anchor="start" x="679.71" y="-410.8" font-family="Arial Bold" font-size="18.00">public.class</text>
<text text-anchor="start" x="764.19" y="-410.8" font-family="Arial" font-size="14.00">    </text>
<text text-anchor="start" x="795.31" y="-410.8" font-family="Arial" font-size="14.00" fill="#666666">[BASE TABLE]</text>
<polygon fill="none" stroke="black" points="672.71,-366.6 672.71,-397.4 895.68,-397.4 895.68,-366.6 672.71,-366.6"/>
<text text-anchor="start" x="679.71" y="-378.8" font-family="Arial" font-size="14.00">model_key </text>
<text text-anchor="start" x="751.3" y="-378.8" font-family="Arial" font-size="14.00" fill="#666666">[text]</text>
<polygon fill="none" stroke="black" points="672.71,-335.8 672.71,-366.6 895.68,-366.6 895.68,-335.8 672.71,-335.8"/>
<text text-anchor="start" x="679.71" y="-348" font-family="Arial" font-size="14.00">class_key </text>
<text text-anchor="start" x="745.07" y="-348" font-family="Arial" font-size="14.00" fill="#666666">[text]</text>
<polygon fill="none" stroke="black" points="672.71,-305 672.71,-335.8 895.68,-335.8 895.68,-305 672.71,-305"/>
<text text-anchor="start" x="679.71" y="-317.2" font-family="Arial" font-size="14.00">name </text>
<text text-anchor="start" x="718.62" y="-317.2" font-family="Arial" font-size="14.00" fill="#666666">[text]</text>
<polygon fill="none" stroke="black" points="672.71,-274.2 672.71,-305 895.68,-305 895.68,-274.2 672.71,-274.2"/>
<text text-anchor="start" x="679.71" y="-286.4" font-family="Arial" font-size="14.00">subdomain_key </text>
<text text-anchor="start" x="781.66" y="-286.4" font-family="Arial" font-size="14.00" fill="#666666">[text]</text>
<polygon fill="none" stroke="black" points="672.71,-243.4 672.71,-274.2 895.68,-274.2 895.68,-243.4 672.71,-243.4"/>
<text text-anchor="start" x="679.71" y="-255.6" font-family="Arial" font-size="14.00">actor_key </text>
<text text-anchor="start" x="744.3" y="-255.6" font-family="Arial" font-size="14.00" fill="#666666">[text]</text>
<polygon fill="none" stroke="black" points="672.71,-212.6 672.71,-243.4 895.68,-243.4 895.68,-212.6 672.71,-212.6"/>
<text text-anchor="start" x="679.71" y="-224.8" font-family="Arial" font-size="14.00">superclass_of_key </text>
<text text-anchor="start" x="799.55" y="-224.8" font-family="Arial" font-size="14.00" fill="#666666">[text]</text>
<polygon fill="none" stroke="black" points="672.71,-181.8 672.71,-212.6 895.68,-212.6 895.68,-181.8 672.71,-181.8"/>
<text text-anchor="start" x="679.71" y="-194" font-family="Arial" font-size="14.00">subclass_of_key </text>
<text text-anchor="start" x="787.1" y="-194" font-family="Arial" font-size="14.00" fill="#666666">[text]</text>
<polygon fill="none" stroke="black" points="672.71,-151 672.71,-181.8 895.68,-181.8 895.68,-151 672.71,-151"/>
<text text-anchor="start" x="679.71" y="-163.2" font-family="Arial" font-size="14.00">details </text>
<text text-anchor="start" x="724.07" y="-163.2" font-family="Arial" font-size="14.00" fill="#666666">[text]</text>
<polygon fill="none" stroke="black" points="672.71,-120.2 672.71,-151 895.68,-151 895.68,-120.2 672.71,-120.2"/>
<text text-anchor="start" x="679.71" y="-132.4" font-family="Arial" font-size="14.00">unfinished_notes </text>
<text text-anchor="start" x="789.46" y="-132.4" font-family="Arial" font-size="14.00" fill="#666666">[text]</text>
<polygon fill="none" stroke="black" points="672.71,-89.4 672.71,-120.2 895.68,-120.2 895.68,-89.4 672.71,-89.4"/>
<text text-anchor="start" x="679.71" y="-101.6" font-family="Arial" font-size="14.00">uml_comment </text>
<text text-anchor="start" x="771.52" y="-101.6" font-family="Arial" font-size="14.00" fill="#666666">[text]</text>
<polygon fill="none" stroke="black" points="672.71,-58.6 672.71,-89.4 895.68,-89.4 895.68,-58.6 672.71,-58.6"/>
<text text-anchor="start" x="679.71" y="-70.8" font-family="Arial" font-size="14.00">marked </text>
<text text-anchor="start" x="730.28" y="-70.8" font-family="Arial" font-size="14.00" fill="#666666">[boolean]</text>
</g>
<!-- public.guard&#45;&gt;public.class -->
<g id="edge2" class="edge">
<title>public.guard:model_key&#45;&gt;public.class:model_key</title>
<path fill="none" stroke="black" d="M740.91,-681.49C979.51,-676.15 674.89,-481.04 672.71,-476.2 655.5,-438.03 629.84,-382 671.71,-382"/>
<polygon fill="black" stroke="black" points="741.01,-681.49 730.96,-677.1 735.68,-681.55 731.35,-681.59 731.35,-681.59 731.35,-681.59 735.68,-681.55 731.06,-686.1 741.01,-681.49"/>
<text text-anchor="start" x="737.68" y="-691.6" font-family="Arial" font-size="10.00">FOREIGN KEY (model_key, class_key) REFERENCES class(model_key, class_key) ON DELETE CASCADE</text>
</g>
<!-- public.transition -->
<g id="node4" class="node">
<title>public.transition</title>
<polygon fill="#efefef" stroke="none" points="487.21,-1135.2 487.21,-1170.8 743.18,-1170.8 743.18,-1135.2 487.21,-1135.2"/>
<polygon fill="none" stroke="black" points="487.21,-1135.2 487.21,-1170.8 743.18,-1170.8 743.18,-1135.2 487.21,-1135.2"/>
<text text-anchor="start" x="494.21" y="-1148.6" font-family="Arial Bold" font-size="18.00">public.transition</text>
<text text-anchor="start" x="611.69" y="-1148.6" font-family="Arial" font-size="14.00">    </text>
<text text-anchor="start" x="642.81" y="-1148.6" font-family="Arial" font-size="14.00" fill="#666666">[BASE TABLE]</text>
<polygon fill="none" stroke="black" points="487.21,-1104.4 487.21,-1135.2 743.18,-1135.2 743.18,-1104.4 487.21,-1104.4"/>
<text text-anchor="start" x="494.21" y="-1116.6" font-family="Arial" font-size="14.00">model_key </text>
<text text-anchor="start" x="565.8" y="-1116.6" font-family="Arial" font-size="14.00" fill="#666666">[text]</text>
<polygon fill="none" stroke="black" points="487.21,-1073.6 487.21,-1104.4 743.18,-1104.4 743.18,-1073.6 487.21,-1073.6"/>
<text text-anchor="start" x="494.21" y="-1085.8" font-family="Arial" font-size="14.00">class_key </text>
<text text-anchor="start" x="559.57" y="-1085.8" font-family="Arial" font-size="14.00" fill="#666666">[text]</text>
<polygon fill="none" stroke="black" points="487.21,-1042.8 487.21,-1073.6 743.18,-1073.6 743.18,-1042.8 487.21,-1042.8"/>
<text text-anchor="start" x="494.21" y="-1055" font-family="Arial" font-size="14.00">transition_key </text>
<text text-anchor="start" x="584.48" y="-1055" font-family="Arial" font-size="14.00" fill="#666666">[text]</text>
<polygon fill="none" stroke="black" points="487.21,-1012 487.21,-1042.8 743.18,-1042.8 743.18,-1012 487.21,-1012"/>
<text text-anchor="start" x="494.21" y="-1024.2" font-family="Arial" font-size="14.00">from_state_key </text>
<text text-anchor="start" x="593.81" y="-1024.2" font-family="Arial" font-size="14.00" fill="#666666">[text]</text>
<polygon fill="none" stroke="black" points="487.21,-981.2 487.21,-1012 743.18,-1012 743.18,-981.2 487.21,-981.2"/>
<text text-anchor="start" x="494.21" y="-993.4" font-family="Arial" font-size="14.00">event_key </text>
<text text-anchor="start" x="561.92" y="-993.4" font-family="Arial" font-size="14.00" fill="#666666">[text]</text>
<polygon fill="none" stroke="black" points="487.21,-950.4 487.21,-981.2 743.18,-981.2 743.18,-950.4 487.21,-950.4"/>
<text text-anchor="start" x="494.21" y="-962.6" font-family="Arial" font-size="14.00">guard_key </text>
<text text-anchor="start" x="563.48" y="-962.6" font-family="Arial" font-size="14.00" fill="#666666">[text]</text>
<polygon fill="none" stroke="black" points="487.21,-919.6 487.21,-950.4 743.18,-950.4 743.18,-919.6 487.21,-919.6"/>
<text text-anchor="start" x="494.21" y="-931.8" font-family="Arial" font-size="14.00">action_key </text>
<text text-anchor="start" x="565.03" y="-931.8" font-family="Arial" font-size="14.00" fill="#666666">[text]</text>
<polygon fill="none" stroke="black" points="487.21,-888.8 487.21,-919.6 743.18,-919.6 743.18,-888.8 487.21,-888.8"/>
<text text-anchor="start" x="494.21" y="-901" font-family="Arial" font-size="14.00">to_state_key </text>
<text text-anchor="start" x="577.48" y="-901" font-family="Arial" font-size="14.00" fill="#666666">[text]</text>
<polygon fill="none" stroke="black" points="487.21,-858 487.21,-888.8 743.18,-888.8 743.18,-858 487.21,-858"/>
<text text-anchor="start" x="494.21" y="-870.2" font-family="Arial" font-size="14.00">uml_comment </text>
<text text-anchor="start" x="586.02" y="-870.2" font-family="Arial" font-size="14.00" fill="#666666">[text]</text>
</g>
<!-- public.transition&#45;&gt;public.guard -->
<g id="edge3" class="edge">
<title>public.transition:model_key&#45;&gt;public.guard:model_key</title>
<path fill="none" stroke="black" d="M754.54,-1119.38C938.48,-1104.11 922,-681.6 730.68,-681.6"/>
<polygon fill="black" stroke="black" points="754.51,-1119.38 744.33,-1115.29 749.18,-1119.6 744.85,-1119.77 744.85,-1119.77 744.85,-1119.77 749.18,-1119.6 744.7,-1124.28 754.51,-1119.38"/>
<text text-anchor="start" x="751.18" y="-1129.8" font-family="Arial" font-size="10.00">FOREIGN KEY (model_key, guard_key) REFERENCES guard(model_key, guard_key) ON DELETE CASCADE</text>
</g>
</g>
</svg>
