<?xml version="1.0" encoding="UTF-8" standalone="no"?>
<!DOCTYPE svg PUBLIC "-//W3C//DTD SVG 1.1//EN"
 "http://www.w3.org/Graphics/SVG/1.1/DTD/svg11.dtd">
<!-- Generated by graphviz version 12.1.2 (20240928.0832)
 -->
<!-- Title: public.query_require Pages: 1 -->
<svg width="1302pt" height="540pt"
 viewBox="0.00 0.00 1301.68 540.40" xmlns="http://www.w3.org/2000/svg" xmlns:xlink="http://www.w3.org/1999/xlink">
<g id="graph0" class="graph" transform="scale(1 1) rotate(0) translate(4 536.4)">
<title>public.query_require</title>
<polygon fill="white" stroke="none" points="-4,4 -4,-536.4 1297.68,-536.4 1297.68,4 -4,4"/>
<!-- public.query_require -->
<g id="node1" class="node">
<title>public.query_require</title>
<polygon fill="#efefef" stroke="none" points="495.7,-450.6 495.7,-486.2 784.63,-486.2 784.63,-450.6 495.7,-450.6"/>
<polygon fill="none" stroke="black" points="495.7,-450.6 495.7,-486.2 784.63,-486.2 784.63,-450.6 495.7,-450.6"/>
<text text-anchor="start" x="502.7" y="-464" font-family="Arial Bold" font-size="18.00">public.query_require</text>
<text text-anchor="start" x="653.15" y="-464" font-family="Arial" font-size="14.00">    </text>
<text text-anchor="start" x="684.26" y="-464" font-family="Arial" font-size="14.00" fill="#666666">[BASE TABLE]</text>
<polygon fill="none" stroke="black" points="495.7,-419.8 495.7,-450.6 784.63,-450.6 784.63,-419.8 495.7,-419.8"/>
<text text-anchor="start" x="502.7" y="-432" font-family="Arial" font-size="14.00">model_key </text>
<text text-anchor="start" x="574.3" y="-432" font-family="Arial" font-size="14.00" fill="#666666">[text]</text>
<polygon fill="none" stroke="black" points="495.7,-389 495.7,-419.8 784.63,-419.8 784.63,-389 495.7,-389"/>
<text text-anchor="start" x="502.7" y="-401.2" font-family="Arial" font-size="14.00">query_key </text>
<text text-anchor="start" x="571.19" y="-401.2" font-family="Arial" font-size="14.00" fill="#666666">[text]</text>
<polygon fill="none" stroke="black" points="495.7,-358.2 495.7,-389 784.63,-389 784.63,-358.2 495.7,-358.2"/>
<text text-anchor="start" x="502.7" y="-370.4" font-family="Arial" font-size="14.00">logic_key </text>
<text text-anchor="start" x="564.96" y="-370.4" font-family="Arial" font-size="14.00" fill="#666666">[text]</text>
<polygon fill="none" stroke="black" stroke-width="3" points="494.2,-356.7 494.2,-487.7 786.13,-487.7 786.13,-356.7 494.2,-356.7"/>
</g>
<!-- public.logic -->
<g id="node2" class="node">
<title>public.logic</title>
<polygon fill="#efefef" stroke="none" points="363.18,-197.2 363.18,-232.8 587.15,-232.8 587.15,-197.2 363.18,-197.2"/>
<polygon fill="none" stroke="black" points="363.18,-197.2 363.18,-232.8 587.15,-232.8 587.15,-197.2 363.18,-197.2"/>
<text text-anchor="start" x="370.18" y="-210.6" font-family="Arial Bold" font-size="18.00">public.logic</text>
<text text-anchor="start" x="455.67" y="-210.6" font-family="Arial" font-size="14.00">    </text>
<text text-anchor="start" x="486.78" y="-210.6" font-family="Arial" font-size="14.00" fill="#666666">[BASE TABLE]</text>
<polygon fill="none" stroke="black" points="363.18,-166.4 363.18,-197.2 587.15,-197.2 587.15,-166.4 363.18,-166.4"/>
<text text-anchor="start" x="370.18" y="-178.6" font-family="Arial" font-size="14.00">logic_key </text>
<text text-anchor="start" x="432.44" y="-178.6" font-family="Arial" font-size="14.00" fill="#666666">[text]</text>
<polygon fill="none" stroke="black" points="363.18,-135.6 363.18,-166.4 587.15,-166.4 587.15,-135.6 363.18,-135.6"/>
<text text-anchor="start" x="370.18" y="-147.8" font-family="Arial" font-size="14.00">model_key </text>
<text text-anchor="start" x="441.78" y="-147.8" font-family="Arial" font-size="14.00" fill="#666666">[text]</text>
<polygon fill="none" stroke="black" points="363.18,-104.8 363.18,-135.6 587.15,-135.6 587.15,-104.8 363.18,-104.8"/>
<text text-anchor="start" x="370.18" y="-117" font-family="Arial" font-size="14.00">description </text>
<text text-anchor="start" x="441.78" y="-117" font-family="Arial" font-size="14.00" fill="#666666">[text]</text>
<polygon fill="none" stroke="black" points="363.18,-74 363.18,-104.8 587.15,-104.8 587.15,-74 363.18,-74"/>
<text text-anchor="start" x="370.18" y="-86.2" font-family="Arial" font-size="14.00">notation </text>
<text text-anchor="start" x="423.89" y="-86.2" font-family="Arial" font-size="14.00" fill="#666666">[notation]</text>
<polygon fill="none" stroke="black" points="363.18,-43.2 363.18,-74 587.15,-74 587.15,-43.2 363.18,-43.2"/>
<text text-anchor="start" x="370.18" y="-55.4" font-family="Arial" font-size="14.00">specification </text>
<text text-anchor="start" x="451.11" y="-55.4" font-family="Arial" font-size="14.00" fill="#666666">[text]</text>
</g>
<!-- public.query_require&#45;&gt;public.logic -->
<g id="edge1" class="edge">
<title>public.query_require:model_key&#45;&gt;public.logic:model_key</title>
<path fill="none" stroke="black" d="M484.56,-434.14C443.36,-424.68 466.82,-354.05 495.7,-312 520.44,-276 562.42,-312 587.15,-276 618.61,-230.21 643.71,-151 588.15,-151"/>
<polygon fill="black" stroke="black" points="484.42,-434.13 493.9,-439.64 489.73,-434.68 494.04,-435.13 494.04,-435.13 494.04,-435.13 489.73,-434.68 494.84,-430.69 484.42,-434.13"/>
<text text-anchor="start" x="7" y="-445.2" font-family="Arial" font-size="10.00">FOREIGN KEY (model_key, logic_key) REFERENCES logic(model_key, logic_key) ON DELETE CASCADE</text>
</g>
<!-- public.query -->
<g id="node3" class="node">
<title>public.query</title>
<polygon fill="#efefef" stroke="none" points="691.69,-197.2 691.69,-232.8 920.65,-232.8 920.65,-197.2 691.69,-197.2"/>
<polygon fill="none" stroke="black" points="691.69,-197.2 691.69,-232.8 920.65,-232.8 920.65,-197.2 691.69,-197.2"/>
<text text-anchor="start" x="698.69" y="-210.6" font-family="Arial Bold" font-size="18.00">public.query</text>
<text text-anchor="start" x="789.16" y="-210.6" font-family="Arial" font-size="14.00">    </text>
<text text-anchor="start" x="820.28" y="-210.6" font-family="Arial" font-size="14.00" fill="#666666">[BASE TABLE]</text>
<polygon fill="none" stroke="black" points="691.69,-166.4 691.69,-197.2 920.65,-197.2 920.65,-166.4 691.69,-166.4"/>
<text text-anchor="start" x="698.69" y="-178.6" font-family="Arial" font-size="14.00">model_key </text>
<text text-anchor="start" x="770.28" y="-178.6" font-family="Arial" font-size="14.00" fill="#666666">[text]</text>
<polygon fill="none" stroke="black" points="691.69,-135.6 691.69,-166.4 920.65,-166.4 920.65,-135.6 691.69,-135.6"/>
<text text-anchor="start" x="698.69" y="-147.8" font-family="Arial" font-size="14.00">class_key </text>
<text text-anchor="start" x="764.05" y="-147.8" font-family="Arial" font-size="14.00" fill="#666666">[text]</text>
<polygon fill="none" stroke="black" points="691.69,-104.8 691.69,-135.6 920.65,-135.6 920.65,-104.8 691.69,-104.8"/>
<text text-anchor="start" x="698.69" y="-117" font-family="Arial" font-size="14.00">query_key </text>
<text text-anchor="start" x="767.17" y="-117" font-family="Arial" font-size="14.00" fill="#666666">[text]</text>
<polygon fill="none" stroke="black" points="691.69,-74 691.69,-104.8 920.65,-104.8 920.65,-74 691.69,-74"/>
<text text-anchor="start" x="698.69" y="-86.2" font-family="Arial" font-size="14.00">name </text>
<text text-anchor="start" x="737.6" y="-86.2" font-family="Arial" font-size="14.00" fill="#666666">[text]</text>
<polygon fill="none" stroke="black" points="691.69,-43.2 691.69,-74 920.65,-74 920.65,-43.2 691.69,-43.2"/>
<text text-anchor="start" x="698.69" y="-55.4" font-family="Arial" font-size="14.00">details </text>
<text text-anchor="start" x="743.05" y="-55.4" font-family="Arial" font-size="14.00" fill="#666666">[text]</text>
</g>
<!-- public.query_require&#45;&gt;public.query -->
<g id="edge2" class="edge">
<title>public.query_require:model_key&#45;&gt;public.query:model_key</title>
<path fill="none" stroke="black" d="M795.77,-434.14C836.99,-424.67 813.64,-353.97 784.63,-312 759.45,-275.56 716.92,-312.41 691.69,-276 667.84,-241.59 648.82,-181.8 690.69,-181.8"/>
<polygon fill="black" stroke="black" points="795.91,-434.13 785.5,-430.69 790.61,-434.68 786.3,-435.13 786.3,-435.13 786.3,-435.13 790.61,-434.68 786.44,-439.64 795.91,-434.13"/>
<text text-anchor="start" x="792.63" y="-445.2" font-family="Arial" font-size="10.00">FOREIGN KEY (model_key, query_key) REFERENCES query(model_key, query_key) ON DELETE CASCADE</text>
</g>
</g>
</svg>
