<?xml version="1.0" encoding="UTF-8" standalone="no"?>
<!DOCTYPE svg PUBLIC "-//W3C//DTD SVG 1.1//EN"
 "http://www.w3.org/Graphics/SVG/1.1/DTD/svg11.dtd">
<!-- Generated by graphviz version 12.1.2 (20240928.0832)
 -->
<!-- Title: public.flow_message_box Pages: 1 -->
<svg width="1156pt" height="941pt"
 viewBox="0.00 0.00 1155.72 940.80" xmlns="http://www.w3.org/2000/svg" xmlns:xlink="http://www.w3.org/1999/xlink">
<g id="graph0" class="graph" transform="scale(1 1) rotate(0) translate(4 936.8)">
<title>public.flow_message_box</title>
<polygon fill="white" stroke="none" points="-4,4 -4,-936.8 1151.72,-936.8 1151.72,4 -4,4"/>
<!-- public.flow_message_box -->
<g id="node1" class="node">
<title>public.flow_message_box</title>
<polygon fill="#efefef" stroke="none" points="381.2,-851 381.2,-886.6 708.15,-886.6 708.15,-851 381.2,-851"/>
<polygon fill="none" stroke="black" points="381.2,-851 381.2,-886.6 708.15,-886.6 708.15,-851 381.2,-851"/>
<text text-anchor="start" x="388.2" y="-864.4" font-family="Arial Bold" font-size="18.00">public.flow_message_box</text>
<text text-anchor="start" x="576.66" y="-864.4" font-family="Arial" font-size="14.00">    </text>
<text text-anchor="start" x="607.78" y="-864.4" font-family="Arial" font-size="14.00" fill="#666666">[BASE TABLE]</text>
<polygon fill="none" stroke="black" points="381.2,-820.2 381.2,-851 708.15,-851 708.15,-820.2 381.2,-820.2"/>
<text text-anchor="start" x="388.2" y="-832.4" font-family="Arial" font-size="14.00">message_box_id </text>
<text text-anchor="start" x="497.93" y="-832.4" font-family="Arial" font-size="14.00" fill="#666666">[integer]</text>
<polygon fill="none" stroke="black" points="381.2,-789.4 381.2,-820.2 708.15,-820.2 708.15,-789.4 381.2,-789.4"/>
<text text-anchor="start" x="388.2" y="-801.6" font-family="Arial" font-size="14.00">flow_id </text>
<text text-anchor="start" x="435.67" y="-801.6" font-family="Arial" font-size="14.00" fill="#666666">[bigint]</text>
<polygon fill="none" stroke="black" points="381.2,-758.6 381.2,-789.4 708.15,-789.4 708.15,-758.6 381.2,-758.6"/>
<text text-anchor="start" x="388.2" y="-770.8" font-family="Arial" font-size="14.00">parent_id </text>
<text text-anchor="start" x="450.46" y="-770.8" font-family="Arial" font-size="14.00" fill="#666666">[bigint]</text>
<polygon fill="none" stroke="black" points="381.2,-727.8 381.2,-758.6 708.15,-758.6 708.15,-727.8 381.2,-727.8"/>
<text text-anchor="start" x="388.2" y="-740" font-family="Arial" font-size="14.00">child_num </text>
<text text-anchor="start" x="455.9" y="-740" font-family="Arial" font-size="14.00" fill="#666666">[bigint]</text>
<polygon fill="none" stroke="black" points="381.2,-697 381.2,-727.8 708.15,-727.8 708.15,-697 381.2,-697"/>
<text text-anchor="start" x="388.2" y="-709.2" font-family="Arial" font-size="14.00">message_box_type </text>
<text text-anchor="start" x="513.5" y="-709.2" font-family="Arial" font-size="14.00" fill="#666666">[message_box_type]</text>
<polygon fill="none" stroke="black" points="381.2,-666.2 381.2,-697 708.15,-697 708.15,-666.2 381.2,-666.2"/>
<text text-anchor="start" x="388.2" y="-678.4" font-family="Arial" font-size="14.00">from_object_id </text>
<text text-anchor="start" x="483.91" y="-678.4" font-family="Arial" font-size="14.00" fill="#666666">[bigint]</text>
<polygon fill="none" stroke="black" points="381.2,-635.4 381.2,-666.2 708.15,-666.2 708.15,-635.4 381.2,-635.4"/>
<text text-anchor="start" x="388.2" y="-647.6" font-family="Arial" font-size="14.00">to_object_id </text>
<text text-anchor="start" x="467.59" y="-647.6" font-family="Arial" font-size="14.00" fill="#666666">[bigint]</text>
<polygon fill="none" stroke="black" points="381.2,-604.6 381.2,-635.4 708.15,-635.4 708.15,-604.6 381.2,-604.6"/>
<text text-anchor="start" x="388.2" y="-616.8" font-family="Arial" font-size="14.00">association_key </text>
<text text-anchor="start" x="491.7" y="-616.8" font-family="Arial" font-size="14.00" fill="#666666">[text]</text>
<polygon fill="none" stroke="black" points="381.2,-573.8 381.2,-604.6 708.15,-604.6 708.15,-573.8 381.2,-573.8"/>
<text text-anchor="start" x="388.2" y="-586" font-family="Arial" font-size="14.00">event_key </text>
<text text-anchor="start" x="455.91" y="-586" font-family="Arial" font-size="14.00" fill="#666666">[text]</text>
<polygon fill="none" stroke="black" points="381.2,-543 381.2,-573.8 708.15,-573.8 708.15,-543 381.2,-543"/>
<text text-anchor="start" x="388.2" y="-555.2" font-family="Arial" font-size="14.00">attribute_key </text>
<text text-anchor="start" x="472.24" y="-555.2" font-family="Arial" font-size="14.00" fill="#666666">[text]</text>
<polygon fill="none" stroke="black" points="381.2,-512.2 381.2,-543 708.15,-543 708.15,-512.2 381.2,-512.2"/>
<text text-anchor="start" x="388.2" y="-524.4" font-family="Arial" font-size="14.00">is_for_all </text>
<text text-anchor="start" x="448.11" y="-524.4" font-family="Arial" font-size="14.00" fill="#666666">[boolean]</text>
<polygon fill="none" stroke="black" points="381.2,-481.4 381.2,-512.2 708.15,-512.2 708.15,-481.4 381.2,-481.4"/>
<text text-anchor="start" x="388.2" y="-493.6" font-family="Arial" font-size="14.00">guard </text>
<text text-anchor="start" x="427.89" y="-493.6" font-family="Arial" font-size="14.00" fill="#666666">[text]</text>
<polygon fill="none" stroke="black" points="381.2,-450.6 381.2,-481.4 708.15,-481.4 708.15,-450.6 381.2,-450.6"/>
<text text-anchor="start" x="388.2" y="-462.8" font-family="Arial" font-size="14.00">ref_flow_id </text>
<text text-anchor="start" x="459.79" y="-462.8" font-family="Arial" font-size="14.00" fill="#666666">[bigint]</text>
<polygon fill="none" stroke="black" points="381.2,-419.8 381.2,-450.6 708.15,-450.6 708.15,-419.8 381.2,-419.8"/>
<text text-anchor="start" x="388.2" y="-432" font-family="Arial" font-size="14.00">details </text>
<text text-anchor="start" x="432.55" y="-432" font-family="Arial" font-size="14.00" fill="#666666">[text]</text>
<polygon fill="none" stroke="black" points="381.2,-389 381.2,-419.8 708.15,-419.8 708.15,-389 381.2,-389"/>
<text text-anchor="start" x="388.2" y="-401.2" font-family="Arial" font-size="14.00">uml_comment </text>
<text text-anchor="start" x="480" y="-401.2" font-family="Arial" font-size="14.00" fill="#666666">[text]</text>
<polygon fill="none" stroke="black" stroke-width="3" points="379.7,-387.5 379.7,-888.1 709.65,-888.1 709.65,-387.5 379.7,-387.5"/>
</g>
<!-- public.flow -->
<g id="node2" class="node">
<title>public.flow</title>
<polygon fill="#efefef" stroke="none" points="258.19,-212.6 258.19,-248.2 479.16,-248.2 479.16,-212.6 258.19,-212.6"/>
<polygon fill="none" stroke="black" points="258.19,-212.6 258.19,-248.2 479.16,-248.2 479.16,-212.6 258.19,-212.6"/>
<text text-anchor="start" x="265.19" y="-226" font-family="Arial Bold" font-size="18.00">public.flow</text>
<text text-anchor="start" x="347.67" y="-226" font-family="Arial" font-size="14.00">    </text>
<text text-anchor="start" x="378.79" y="-226" font-family="Arial" font-size="14.00" fill="#666666">[BASE TABLE]</text>
<polygon fill="none" stroke="black" points="258.19,-181.8 258.19,-212.6 479.16,-212.6 479.16,-181.8 258.19,-181.8"/>
<text text-anchor="start" x="265.19" y="-194" font-family="Arial" font-size="14.00">flow_id </text>
<text text-anchor="start" x="312.65" y="-194" font-family="Arial" font-size="14.00" fill="#666666">[integer]</text>
<polygon fill="none" stroke="black" points="258.19,-151 258.19,-181.8 479.16,-181.8 479.16,-151 258.19,-151"/>
<text text-anchor="start" x="265.19" y="-163.2" font-family="Arial" font-size="14.00">model_key </text>
<text text-anchor="start" x="336.78" y="-163.2" font-family="Arial" font-size="14.00" fill="#666666">[text]</text>
<polygon fill="none" stroke="black" points="258.19,-120.2 258.19,-151 479.16,-151 479.16,-120.2 258.19,-120.2"/>
<text text-anchor="start" x="265.19" y="-132.4" font-family="Arial" font-size="14.00">name </text>
<text text-anchor="start" x="304.1" y="-132.4" font-family="Arial" font-size="14.00" fill="#666666">[text]</text>
<polygon fill="none" stroke="black" points="258.19,-89.4 258.19,-120.2 479.16,-120.2 479.16,-89.4 258.19,-89.4"/>
<text text-anchor="start" x="265.19" y="-101.6" font-family="Arial" font-size="14.00">details </text>
<text text-anchor="start" x="309.54" y="-101.6" font-family="Arial" font-size="14.00" fill="#666666">[text]</text>
<polygon fill="none" stroke="black" points="258.19,-58.6 258.19,-89.4 479.16,-89.4 479.16,-58.6 258.19,-58.6"/>
<text text-anchor="start" x="265.19" y="-70.8" font-family="Arial" font-size="14.00">uml_comment </text>
<text text-anchor="start" x="356.99" y="-70.8" font-family="Arial" font-size="14.00" fill="#666666">[text]</text>
</g>
<!-- public.flow_message_box&#45;&gt;public.flow -->
<g id="edge1" class="edge">
<title>public.flow_message_box:flow_id&#45;&gt;public.flow:flow_id</title>
<path fill="none" stroke="black" d="M369.93,-804.55C178.28,-795.04 276.59,-515.4 381.2,-342.8 406.68,-300.75 453.5,-333.34 479.16,-291.4 501.01,-255.69 522.03,-197.2 480.16,-197.2"/>
<polygon fill="black" stroke="black" points="369.86,-804.55 379.75,-809.29 375.2,-804.68 379.53,-804.78 379.53,-804.78 379.53,-804.78 375.2,-804.68 379.97,-800.29 369.86,-804.55"/>
<text text-anchor="start" x="24.23" y="-814.8" font-family="Arial" font-size="10.00">FOREIGN KEY (flow_id) REFERENCES flow(flow_id) ON DELETE CASCADE</text>
</g>
<!-- public.flow_message_box&#45;&gt;public.flow -->
<g id="edge4" class="edge">
<title>public.flow_message_box:ref_flow_id&#45;&gt;public.flow:flow_id</title>
<path fill="none" stroke="black" d="M369.83,-464.9C329.28,-455.4 354.68,-386.26 381.2,-342.8 406.81,-300.83 453.5,-333.34 479.16,-291.4 501.01,-255.69 522.03,-197.2 480.16,-197.2"/>
<polygon fill="black" stroke="black" points="369.92,-464.91 379.39,-470.44 375.22,-465.47 379.53,-465.93 379.53,-465.93 379.53,-465.93 375.22,-465.47 380.34,-461.49 369.92,-464.91"/>
<text text-anchor="start" x="7" y="-476" font-family="Arial" font-size="10.00">FOREIGN KEY (ref_flow_id) REFERENCES flow(flow_id) ON DELETE CASCADE</text>
</g>
<!-- public.flow_object -->
<g id="node3" class="node">
<title>public.flow_object</title>
<polygon fill="#efefef" stroke="none" points="583.7,-228 583.7,-263.6 857.65,-263.6 857.65,-228 583.7,-228"/>
<polygon fill="none" stroke="black" points="583.7,-228 583.7,-263.6 857.65,-263.6 857.65,-228 583.7,-228"/>
<text text-anchor="start" x="590.7" y="-241.4" font-family="Arial Bold" font-size="18.00">public.flow_object</text>
<text text-anchor="start" x="726.16" y="-241.4" font-family="Arial" font-size="14.00">    </text>
<text text-anchor="start" x="757.28" y="-241.4" font-family="Arial" font-size="14.00" fill="#666666">[BASE TABLE]</text>
<polygon fill="none" stroke="black" points="583.7,-197.2 583.7,-228 857.65,-228 857.65,-197.2 583.7,-197.2"/>
<text text-anchor="start" x="590.7" y="-209.4" font-family="Arial" font-size="14.00">object_id </text>
<text text-anchor="start" x="650.63" y="-209.4" font-family="Arial" font-size="14.00" fill="#666666">[integer]</text>
<polygon fill="none" stroke="black" points="583.7,-166.4 583.7,-197.2 857.65,-197.2 857.65,-166.4 583.7,-166.4"/>
<text text-anchor="start" x="590.7" y="-178.6" font-family="Arial" font-size="14.00">flow_id </text>
<text text-anchor="start" x="638.16" y="-178.6" font-family="Arial" font-size="14.00" fill="#666666">[bigint]</text>
<polygon fill="none" stroke="black" points="583.7,-135.6 583.7,-166.4 857.65,-166.4 857.65,-135.6 583.7,-135.6"/>
<text text-anchor="start" x="590.7" y="-147.8" font-family="Arial" font-size="14.00">class_key </text>
<text text-anchor="start" x="656.05" y="-147.8" font-family="Arial" font-size="14.00" fill="#666666">[text]</text>
<polygon fill="none" stroke="black" points="583.7,-104.8 583.7,-135.6 857.65,-135.6 857.65,-104.8 583.7,-104.8"/>
<text text-anchor="start" x="590.7" y="-117" font-family="Arial" font-size="14.00">name </text>
<text text-anchor="start" x="629.61" y="-117" font-family="Arial" font-size="14.00" fill="#666666">[text]</text>
<polygon fill="none" stroke="black" points="583.7,-74 583.7,-104.8 857.65,-104.8 857.65,-74 583.7,-74"/>
<text text-anchor="start" x="590.7" y="-86.2" font-family="Arial" font-size="14.00">details </text>
<text text-anchor="start" x="635.05" y="-86.2" font-family="Arial" font-size="14.00" fill="#666666">[text]</text>
<polygon fill="none" stroke="black" points="583.7,-43.2 583.7,-74 857.65,-74 857.65,-43.2 583.7,-43.2"/>
<text text-anchor="start" x="590.7" y="-55.4" font-family="Arial" font-size="14.00">uml_comment </text>
<text text-anchor="start" x="682.5" y="-55.4" font-family="Arial" font-size="14.00" fill="#666666">[text]</text>
</g>
<!-- public.flow_message_box&#45;&gt;public.flow_object -->
<g id="edge2" class="edge">
<title>public.flow_message_box:from_object_id&#45;&gt;public.flow_object:object_id</title>
<path fill="none" stroke="black" d="M719.39,-681.24C856.86,-671.41 796.68,-460.21 708.15,-342.8 673.48,-296.82 618.54,-352.64 583.7,-306.8 558.36,-273.47 540.83,-212.6 582.7,-212.6"/>
<polygon fill="black" stroke="black" points="719.48,-681.24 709.33,-677.09 714.15,-681.43 709.82,-681.58 709.82,-681.58 709.82,-681.58 714.15,-681.43 709.64,-686.09 719.48,-681.24"/>
<text text-anchor="start" x="716.15" y="-691.6" font-family="Arial" font-size="10.00">FOREIGN KEY (from_object_id) REFERENCES flow_object(object_id) ON DELETE CASCADE</text>
</g>
<!-- public.flow_message_box&#45;&gt;public.flow_object -->
<g id="edge3" class="edge">
<title>public.flow_message_box:to_object_id&#45;&gt;public.flow_object:object_id</title>
<path fill="none" stroke="black" d="M719.58,-650.39C843.1,-640.38 788.41,-449.21 708.15,-342.8 673.48,-296.83 618.54,-352.64 583.7,-306.8 558.36,-273.47 540.83,-212.6 582.7,-212.6"/>
<polygon fill="black" stroke="black" points="719.48,-650.39 709.31,-646.29 714.15,-650.6 709.82,-650.77 709.82,-650.77 709.82,-650.77 714.15,-650.6 709.66,-655.28 719.48,-650.39"/>
<text text-anchor="start" x="716.15" y="-660.8" font-family="Arial" font-size="10.00">FOREIGN KEY (to_object_id) REFERENCES flow_object(object_id) ON DELETE CASCADE</text>
</g>
</g>
</svg>
