<?xml version="1.0" encoding="UTF-8" standalone="no"?>
<!DOCTYPE svg PUBLIC "-//W3C//DTD SVG 1.1//EN"
 "http://www.w3.org/Graphics/SVG/1.1/DTD/svg11.dtd">
<!-- Generated by graphviz version 12.1.2 (20240928.0832)
 -->
<!-- Title: public.object Pages: 1 -->
<svg width="1196pt" height="1099pt"
 viewBox="0.00 0.00 1196.38 1098.80" xmlns="http://www.w3.org/2000/svg" xmlns:xlink="http://www.w3.org/1999/xlink">
<g id="graph0" class="graph" transform="scale(1 1) rotate(0) translate(4 1094.8)">
<title>public.object</title>
<polygon fill="white" stroke="none" points="-4,4 -4,-1094.8 1192.38,-1094.8 1192.38,4 -4,4"/>
<!-- public.object -->
<g id="node1" class="node">
<title>public.object</title>
<polygon fill="#efefef" stroke="none" points="407.88,-635.4 407.88,-671 639.84,-671 639.84,-635.4 407.88,-635.4"/>
<polygon fill="none" stroke="black" points="407.88,-635.4 407.88,-671 639.84,-671 639.84,-635.4 407.88,-635.4"/>
<text text-anchor="start" x="414.88" y="-648.8" font-family="Arial Bold" font-size="18.00">public.object</text>
<text text-anchor="start" x="508.35" y="-648.8" font-family="Arial" font-size="14.00">    </text>
<text text-anchor="start" x="539.47" y="-648.8" font-family="Arial" font-size="14.00" fill="#666666">[BASE TABLE]</text>
<polygon fill="none" stroke="black" points="407.88,-604.6 407.88,-635.4 639.84,-635.4 639.84,-604.6 407.88,-604.6"/>
<text text-anchor="start" x="414.88" y="-616.8" font-family="Arial" font-size="14.00">model_key </text>
<text text-anchor="start" x="486.47" y="-616.8" font-family="Arial" font-size="14.00" fill="#666666">[text]</text>
<polygon fill="none" stroke="black" points="407.88,-573.8 407.88,-604.6 639.84,-604.6 639.84,-573.8 407.88,-573.8"/>
<text text-anchor="start" x="414.88" y="-586" font-family="Arial" font-size="14.00">object_key </text>
<text text-anchor="start" x="485.7" y="-586" font-family="Arial" font-size="14.00" fill="#666666">[text]</text>
<polygon fill="none" stroke="black" points="407.88,-543 407.88,-573.8 639.84,-573.8 639.84,-543 407.88,-543"/>
<text text-anchor="start" x="414.88" y="-555.2" font-family="Arial" font-size="14.00">name </text>
<text text-anchor="start" x="453.79" y="-555.2" font-family="Arial" font-size="14.00" fill="#666666">[text]</text>
<polygon fill="none" stroke="black" points="407.88,-512.2 407.88,-543 639.84,-543 639.84,-512.2 407.88,-512.2"/>
<text text-anchor="start" x="414.88" y="-524.4" font-family="Arial" font-size="14.00">name_style </text>
<text text-anchor="start" x="490.36" y="-524.4" font-family="Arial" font-size="14.00" fill="#666666">[object_name_style]</text>
<polygon fill="none" stroke="black" points="407.88,-481.4 407.88,-512.2 639.84,-512.2 639.84,-481.4 407.88,-481.4"/>
<text text-anchor="start" x="414.88" y="-493.6" font-family="Arial" font-size="14.00">class_key </text>
<text text-anchor="start" x="480.24" y="-493.6" font-family="Arial" font-size="14.00" fill="#666666">[text]</text>
<polygon fill="none" stroke="black" stroke-width="3" points="406.38,-479.9 406.38,-672.5 641.34,-672.5 641.34,-479.9 406.38,-479.9"/>
</g>
<!-- public.model -->
<g id="node2" class="node">
<title>public.model</title>
<polygon fill="#efefef" stroke="none" points="241.38,-228 241.38,-263.6 474.35,-263.6 474.35,-228 241.38,-228"/>
<polygon fill="none" stroke="black" points="241.38,-228 241.38,-263.6 474.35,-263.6 474.35,-228 241.38,-228"/>
<text text-anchor="start" x="248.38" y="-241.4" font-family="Arial Bold" font-size="18.00">public.model</text>
<text text-anchor="start" x="342.86" y="-241.4" font-family="Arial" font-size="14.00">    </text>
<text text-anchor="start" x="373.98" y="-241.4" font-family="Arial" font-size="14.00" fill="#666666">[BASE TABLE]</text>
<polygon fill="none" stroke="black" points="241.38,-197.2 241.38,-228 474.35,-228 474.35,-197.2 241.38,-197.2"/>
<text text-anchor="start" x="248.38" y="-209.4" font-family="Arial" font-size="14.00">model_key </text>
<text text-anchor="start" x="319.97" y="-209.4" font-family="Arial" font-size="14.00" fill="#666666">[text]</text>
<polygon fill="none" stroke="black" points="241.38,-166.4 241.38,-197.2 474.35,-197.2 474.35,-166.4 241.38,-166.4"/>
<text text-anchor="start" x="248.38" y="-178.6" font-family="Arial" font-size="14.00">name </text>
<text text-anchor="start" x="287.29" y="-178.6" font-family="Arial" font-size="14.00" fill="#666666">[text]</text>
<polygon fill="none" stroke="black" points="241.38,-135.6 241.38,-166.4 474.35,-166.4 474.35,-135.6 241.38,-135.6"/>
<text text-anchor="start" x="248.38" y="-147.8" font-family="Arial" font-size="14.00">details </text>
<text text-anchor="start" x="292.73" y="-147.8" font-family="Arial" font-size="14.00" fill="#666666">[text]</text>
</g>
<!-- public.object&#45;&gt;public.model -->
<g id="edge1" class="edge">
<title>public.object:model_key&#45;&gt;public.model:model_key</title>
<path fill="none" stroke="black" d="M396.68,-619.38C330.36,-610.61 389.12,-511.37 407.88,-435.2 423.25,-372.81 458.81,-369.15 474.35,-306.8 484.47,-266.17 517.22,-212.6 475.35,-212.6"/>
<polygon fill="black" stroke="black" points="396.57,-619.37 406.27,-624.47 401.89,-619.69 406.21,-619.96 406.21,-619.96 406.21,-619.96 401.89,-619.69 406.82,-615.49 396.57,-619.37"/>
<text text-anchor="start" x="7" y="-630" font-family="Arial" font-size="10.00">FOREIGN KEY (model_key) REFERENCES model(model_key) ON DELETE CASCADE</text>
</g>
<!-- public.class -->
<g id="node3" class="node">
<title>public.class</title>
<polygon fill="#efefef" stroke="none" points="578.38,-320.4 578.38,-356 801.35,-356 801.35,-320.4 578.38,-320.4"/>
<polygon fill="none" stroke="black" points="578.38,-320.4 578.38,-356 801.35,-356 801.35,-320.4 578.38,-320.4"/>
<text text-anchor="start" x="585.38" y="-333.8" font-family="Arial Bold" font-size="18.00">public.class</text>
<text text-anchor="start" x="669.86" y="-333.8" font-family="Arial" font-size="14.00">    </text>
<text text-anchor="start" x="700.97" y="-333.8" font-family="Arial" font-size="14.00" fill="#666666">[BASE TABLE]</text>
<polygon fill="none" stroke="black" points="578.38,-289.6 578.38,-320.4 801.35,-320.4 801.35,-289.6 578.38,-289.6"/>
<text text-anchor="start" x="585.38" y="-301.8" font-family="Arial" font-size="14.00">model_key </text>
<text text-anchor="start" x="656.97" y="-301.8" font-family="Arial" font-size="14.00" fill="#666666">[text]</text>
<polygon fill="none" stroke="black" points="578.38,-258.8 578.38,-289.6 801.35,-289.6 801.35,-258.8 578.38,-258.8"/>
<text text-anchor="start" x="585.38" y="-271" font-family="Arial" font-size="14.00">class_key </text>
<text text-anchor="start" x="650.73" y="-271" font-family="Arial" font-size="14.00" fill="#666666">[text]</text>
<polygon fill="none" stroke="black" points="578.38,-228 578.38,-258.8 801.35,-258.8 801.35,-228 578.38,-228"/>
<text text-anchor="start" x="585.38" y="-240.2" font-family="Arial" font-size="14.00">name </text>
<text text-anchor="start" x="624.29" y="-240.2" font-family="Arial" font-size="14.00" fill="#666666">[text]</text>
<polygon fill="none" stroke="black" points="578.38,-197.2 578.38,-228 801.35,-228 801.35,-197.2 578.38,-197.2"/>
<text text-anchor="start" x="585.38" y="-209.4" font-family="Arial" font-size="14.00">subdomain_key </text>
<text text-anchor="start" x="687.33" y="-209.4" font-family="Arial" font-size="14.00" fill="#666666">[text]</text>
<polygon fill="none" stroke="black" points="578.38,-166.4 578.38,-197.2 801.35,-197.2 801.35,-166.4 578.38,-166.4"/>
<text text-anchor="start" x="585.38" y="-178.6" font-family="Arial" font-size="14.00">actor_key </text>
<text text-anchor="start" x="649.96" y="-178.6" font-family="Arial" font-size="14.00" fill="#666666">[text]</text>
<polygon fill="none" stroke="black" points="578.38,-135.6 578.38,-166.4 801.35,-166.4 801.35,-135.6 578.38,-135.6"/>
<text text-anchor="start" x="585.38" y="-147.8" font-family="Arial" font-size="14.00">superclass_of_key </text>
<text text-anchor="start" x="705.22" y="-147.8" font-family="Arial" font-size="14.00" fill="#666666">[text]</text>
<polygon fill="none" stroke="black" points="578.38,-104.8 578.38,-135.6 801.35,-135.6 801.35,-104.8 578.38,-104.8"/>
<text text-anchor="start" x="585.38" y="-117" font-family="Arial" font-size="14.00">subclass_of_key </text>
<text text-anchor="start" x="692.77" y="-117" font-family="Arial" font-size="14.00" fill="#666666">[text]</text>
<polygon fill="none" stroke="black" points="578.38,-74 578.38,-104.8 801.35,-104.8 801.35,-74 578.38,-74"/>
<text text-anchor="start" x="585.38" y="-86.2" font-family="Arial" font-size="14.00">details </text>
<text text-anchor="start" x="629.73" y="-86.2" font-family="Arial" font-size="14.00" fill="#666666">[text]</text>
<polygon fill="none" stroke="black" points="578.38,-43.2 578.38,-74 801.35,-74 801.35,-43.2 578.38,-43.2"/>
<text text-anchor="start" x="585.38" y="-55.4" font-family="Arial" font-size="14.00">uml_comment </text>
<text text-anchor="start" x="677.18" y="-55.4" font-family="Arial" font-size="14.00" fill="#666666">[text]</text>
</g>
<!-- public.object&#45;&gt;public.class -->
<g id="edge2" class="edge">
<title>public.object:model_key&#45;&gt;public.class:model_key</title>
<path fill="none" stroke="black" d="M651.16,-619.96C1054.59,-616.64 588.54,-416.72 578.38,-399.2 557.36,-362.99 535.51,-305 577.38,-305"/>
<polygon fill="black" stroke="black" points="651.18,-619.96 641.16,-615.5 645.84,-619.98 641.51,-620 641.51,-620 641.51,-620 645.84,-619.98 641.19,-624.5 651.18,-619.96"/>
<text text-anchor="start" x="647.84" y="-630" font-family="Arial" font-size="10.00">FOREIGN KEY (model_key, class_key) REFERENCES class(model_key, class_key) ON DELETE CASCADE</text>
</g>
<!-- public.scenario_object -->
<g id="node4" class="node">
<title>public.scenario_object</title>
<polygon fill="#efefef" stroke="none" points="373.4,-1012 373.4,-1047.6 674.33,-1047.6 674.33,-1012 373.4,-1012"/>
<polygon fill="none" stroke="black" points="373.4,-1012 373.4,-1047.6 674.33,-1047.6 674.33,-1012 373.4,-1012"/>
<text text-anchor="start" x="380.4" y="-1025.4" font-family="Arial Bold" font-size="18.00">public.scenario_object</text>
<text text-anchor="start" x="542.84" y="-1025.4" font-family="Arial" font-size="14.00">    </text>
<text text-anchor="start" x="573.95" y="-1025.4" font-family="Arial" font-size="14.00" fill="#666666">[BASE TABLE]</text>
<polygon fill="none" stroke="black" points="373.4,-981.2 373.4,-1012 674.33,-1012 674.33,-981.2 373.4,-981.2"/>
<text text-anchor="start" x="380.4" y="-993.4" font-family="Arial" font-size="14.00">model_key </text>
<text text-anchor="start" x="451.99" y="-993.4" font-family="Arial" font-size="14.00" fill="#666666">[text]</text>
<polygon fill="none" stroke="black" points="373.4,-950.4 373.4,-981.2 674.33,-981.2 674.33,-950.4 373.4,-950.4"/>
<text text-anchor="start" x="380.4" y="-962.6" font-family="Arial" font-size="14.00">scenario_object_key </text>
<text text-anchor="start" x="511.92" y="-962.6" font-family="Arial" font-size="14.00" fill="#666666">[text]</text>
<polygon fill="none" stroke="black" points="373.4,-919.6 373.4,-950.4 674.33,-950.4 674.33,-919.6 373.4,-919.6"/>
<text text-anchor="start" x="380.4" y="-931.8" font-family="Arial" font-size="14.00">scenario_key </text>
<text text-anchor="start" x="466.78" y="-931.8" font-family="Arial" font-size="14.00" fill="#666666">[text]</text>
<polygon fill="none" stroke="black" points="373.4,-888.8 373.4,-919.6 674.33,-919.6 674.33,-888.8 373.4,-888.8"/>
<text text-anchor="start" x="380.4" y="-901" font-family="Arial" font-size="14.00">object_number </text>
<text text-anchor="start" x="476.9" y="-901" font-family="Arial" font-size="14.00" fill="#666666">[integer]</text>
<polygon fill="none" stroke="black" points="373.4,-858 373.4,-888.8 674.33,-888.8 674.33,-858 373.4,-858"/>
<text text-anchor="start" x="380.4" y="-870.2" font-family="Arial" font-size="14.00">object_key </text>
<text text-anchor="start" x="451.22" y="-870.2" font-family="Arial" font-size="14.00" fill="#666666">[text]</text>
<polygon fill="none" stroke="black" points="373.4,-827.2 373.4,-858 674.33,-858 674.33,-827.2 373.4,-827.2"/>
<text text-anchor="start" x="380.4" y="-839.4" font-family="Arial" font-size="14.00">multi </text>
<text text-anchor="start" x="413.85" y="-839.4" font-family="Arial" font-size="14.00" fill="#666666">[boolean]</text>
<polygon fill="none" stroke="black" points="373.4,-796.4 373.4,-827.2 674.33,-827.2 674.33,-796.4 373.4,-796.4"/>
<text text-anchor="start" x="380.4" y="-808.6" font-family="Arial" font-size="14.00">uml_comment </text>
<text text-anchor="start" x="472.2" y="-808.6" font-family="Arial" font-size="14.00" fill="#666666">[text]</text>
</g>
<!-- public.scenario_object&#45;&gt;public.object -->
<g id="edge3" class="edge">
<title>public.scenario_object:model_key&#45;&gt;public.object:model_key</title>
<path fill="none" stroke="black" d="M685.41,-996.13C841.93,-981.31 805.47,-620 640.84,-620"/>
<polygon fill="black" stroke="black" points="685.65,-996.12 675.45,-992.09 680.32,-996.37 675.99,-996.57 675.99,-996.57 675.99,-996.57 680.32,-996.37 675.87,-1001.08 685.65,-996.12"/>
<text text-anchor="start" x="682.33" y="-1006.6" font-family="Arial" font-size="10.00">FOREIGN KEY (model_key, object_key) REFERENCES object(model_key, object_key) ON DELETE CASCADE</text>
</g>
</g>
</svg>
