<?xml version="1.0" encoding="UTF-8" standalone="no"?>
<!DOCTYPE svg PUBLIC "-//W3C//DTD SVG 1.1//EN"
 "http://www.w3.org/Graphics/SVG/1.1/DTD/svg11.dtd">
<!-- Generated by graphviz version 12.1.2 (20240928.0832)
 -->
<!-- Title: public.flow Pages: 1 -->
<svg width="1183pt" height="1160pt"
 viewBox="0.00 0.00 1182.66 1160.40" xmlns="http://www.w3.org/2000/svg" xmlns:xlink="http://www.w3.org/1999/xlink">
<g id="graph0" class="graph" transform="scale(1 1) rotate(0) translate(4 1156.4)">
<title>public.flow</title>
<polygon fill="white" stroke="none" points="-4,4 -4,-1156.4 1178.66,-1156.4 1178.66,4 -4,4"/>
<!-- public.flow -->
<g id="node1" class="node">
<title>public.flow</title>
<polygon fill="#efefef" stroke="none" points="519.5,-450.6 519.5,-486.2 740.47,-486.2 740.47,-450.6 519.5,-450.6"/>
<polygon fill="none" stroke="black" points="519.5,-450.6 519.5,-486.2 740.47,-486.2 740.47,-450.6 519.5,-450.6"/>
<text text-anchor="start" x="526.5" y="-464" font-family="Arial Bold" font-size="18.00">public.flow</text>
<text text-anchor="start" x="608.99" y="-464" font-family="Arial" font-size="14.00">    </text>
<text text-anchor="start" x="640.1" y="-464" font-family="Arial" font-size="14.00" fill="#666666">[BASE TABLE]</text>
<polygon fill="none" stroke="black" points="519.5,-419.8 519.5,-450.6 740.47,-450.6 740.47,-419.8 519.5,-419.8"/>
<text text-anchor="start" x="526.5" y="-432" font-family="Arial" font-size="14.00">flow_id </text>
<text text-anchor="start" x="573.97" y="-432" font-family="Arial" font-size="14.00" fill="#666666">[integer]</text>
<polygon fill="none" stroke="black" points="519.5,-389 519.5,-419.8 740.47,-419.8 740.47,-389 519.5,-389"/>
<text text-anchor="start" x="526.5" y="-401.2" font-family="Arial" font-size="14.00">model_key </text>
<text text-anchor="start" x="598.09" y="-401.2" font-family="Arial" font-size="14.00" fill="#666666">[text]</text>
<polygon fill="none" stroke="black" points="519.5,-358.2 519.5,-389 740.47,-389 740.47,-358.2 519.5,-358.2"/>
<text text-anchor="start" x="526.5" y="-370.4" font-family="Arial" font-size="14.00">name </text>
<text text-anchor="start" x="565.41" y="-370.4" font-family="Arial" font-size="14.00" fill="#666666">[text]</text>
<polygon fill="none" stroke="black" points="519.5,-327.4 519.5,-358.2 740.47,-358.2 740.47,-327.4 519.5,-327.4"/>
<text text-anchor="start" x="526.5" y="-339.6" font-family="Arial" font-size="14.00">details </text>
<text text-anchor="start" x="570.86" y="-339.6" font-family="Arial" font-size="14.00" fill="#666666">[text]</text>
<polygon fill="none" stroke="black" points="519.5,-296.6 519.5,-327.4 740.47,-327.4 740.47,-296.6 519.5,-296.6"/>
<text text-anchor="start" x="526.5" y="-308.8" font-family="Arial" font-size="14.00">uml_comment </text>
<text text-anchor="start" x="618.31" y="-308.8" font-family="Arial" font-size="14.00" fill="#666666">[text]</text>
<polygon fill="none" stroke="black" stroke-width="3" points="518,-295.1 518,-487.7 741.97,-487.7 741.97,-295.1 518,-295.1"/>
</g>
<!-- public.model -->
<g id="node4" class="node">
<title>public.model</title>
<polygon fill="#efefef" stroke="none" points="513.5,-135.6 513.5,-171.2 746.47,-171.2 746.47,-135.6 513.5,-135.6"/>
<polygon fill="none" stroke="black" points="513.5,-135.6 513.5,-171.2 746.47,-171.2 746.47,-135.6 513.5,-135.6"/>
<text text-anchor="start" x="520.5" y="-149" font-family="Arial Bold" font-size="18.00">public.model</text>
<text text-anchor="start" x="614.98" y="-149" font-family="Arial" font-size="14.00">    </text>
<text text-anchor="start" x="646.1" y="-149" font-family="Arial" font-size="14.00" fill="#666666">[BASE TABLE]</text>
<polygon fill="none" stroke="black" points="513.5,-104.8 513.5,-135.6 746.47,-135.6 746.47,-104.8 513.5,-104.8"/>
<text text-anchor="start" x="520.5" y="-117" font-family="Arial" font-size="14.00">model_key </text>
<text text-anchor="start" x="592.09" y="-117" font-family="Arial" font-size="14.00" fill="#666666">[text]</text>
<polygon fill="none" stroke="black" points="513.5,-74 513.5,-104.8 746.47,-104.8 746.47,-74 513.5,-74"/>
<text text-anchor="start" x="520.5" y="-86.2" font-family="Arial" font-size="14.00">name </text>
<text text-anchor="start" x="559.41" y="-86.2" font-family="Arial" font-size="14.00" fill="#666666">[text]</text>
<polygon fill="none" stroke="black" points="513.5,-43.2 513.5,-74 746.47,-74 746.47,-43.2 513.5,-43.2"/>
<text text-anchor="start" x="520.5" y="-55.4" font-family="Arial" font-size="14.00">details </text>
<text text-anchor="start" x="564.86" y="-55.4" font-family="Arial" font-size="14.00" fill="#666666">[text]</text>
</g>
<!-- public.flow&#45;&gt;public.model -->
<g id="edge4" class="edge">
<title>public.flow:model_key&#45;&gt;public.model:model_key</title>
<path fill="none" stroke="black" d="M751.57,-403.77C868.04,-389.07 870.36,-120.2 747.47,-120.2"/>
<polygon fill="black" stroke="black" points="751.79,-403.76 741.53,-399.89 746.47,-404.09 742.14,-404.36 742.14,-404.36 742.14,-404.36 746.47,-404.09 742.09,-408.87 751.79,-403.76"/>
<text text-anchor="start" x="748.47" y="-414.4" font-family="Arial" font-size="10.00">FOREIGN KEY (model_key) REFERENCES model(model_key) ON DELETE CASCADE</text>
</g>
<!-- public.flow_object -->
<g id="node2" class="node">
<title>public.flow_object</title>
<polygon fill="#efefef" stroke="none" points="88.01,-935 88.01,-970.6 361.96,-970.6 361.96,-935 88.01,-935"/>
<polygon fill="none" stroke="black" points="88.01,-935 88.01,-970.6 361.96,-970.6 361.96,-935 88.01,-935"/>
<text text-anchor="start" x="95.01" y="-948.4" font-family="Arial Bold" font-size="18.00">public.flow_object</text>
<text text-anchor="start" x="230.48" y="-948.4" font-family="Arial" font-size="14.00">    </text>
<text text-anchor="start" x="261.59" y="-948.4" font-family="Arial" font-size="14.00" fill="#666666">[BASE TABLE]</text>
<polygon fill="none" stroke="black" points="88.01,-904.2 88.01,-935 361.96,-935 361.96,-904.2 88.01,-904.2"/>
<text text-anchor="start" x="95.01" y="-916.4" font-family="Arial" font-size="14.00">object_id </text>
<text text-anchor="start" x="154.94" y="-916.4" font-family="Arial" font-size="14.00" fill="#666666">[integer]</text>
<polygon fill="none" stroke="black" points="88.01,-873.4 88.01,-904.2 361.96,-904.2 361.96,-873.4 88.01,-873.4"/>
<text text-anchor="start" x="95.01" y="-885.6" font-family="Arial" font-size="14.00">flow_id </text>
<text text-anchor="start" x="142.48" y="-885.6" font-family="Arial" font-size="14.00" fill="#666666">[bigint]</text>
<polygon fill="none" stroke="black" points="88.01,-842.6 88.01,-873.4 361.96,-873.4 361.96,-842.6 88.01,-842.6"/>
<text text-anchor="start" x="95.01" y="-854.8" font-family="Arial" font-size="14.00">class_key </text>
<text text-anchor="start" x="160.37" y="-854.8" font-family="Arial" font-size="14.00" fill="#666666">[text]</text>
<polygon fill="none" stroke="black" points="88.01,-811.8 88.01,-842.6 361.96,-842.6 361.96,-811.8 88.01,-811.8"/>
<text text-anchor="start" x="95.01" y="-824" font-family="Arial" font-size="14.00">name </text>
<text text-anchor="start" x="133.92" y="-824" font-family="Arial" font-size="14.00" fill="#666666">[text]</text>
<polygon fill="none" stroke="black" points="88.01,-781 88.01,-811.8 361.96,-811.8 361.96,-781 88.01,-781"/>
<text text-anchor="start" x="95.01" y="-793.2" font-family="Arial" font-size="14.00">details </text>
<text text-anchor="start" x="139.37" y="-793.2" font-family="Arial" font-size="14.00" fill="#666666">[text]</text>
<polygon fill="none" stroke="black" points="88.01,-750.2 88.01,-781 361.96,-781 361.96,-750.2 88.01,-750.2"/>
<text text-anchor="start" x="95.01" y="-762.4" font-family="Arial" font-size="14.00">uml_comment </text>
<text text-anchor="start" x="186.82" y="-762.4" font-family="Arial" font-size="14.00" fill="#666666">[text]</text>
</g>
<!-- public.flow_object&#45;&gt;public.flow -->
<g id="edge1" class="edge">
<title>public.flow_object:flow_id&#45;&gt;public.flow:flow_id</title>
<path fill="none" stroke="black" d="M373.03,-886.89C430.2,-863.46 386.61,-631.12 413.99,-568.4 444.09,-499.44 443.25,-435.2 518.5,-435.2"/>
<polygon fill="black" stroke="black" points="373.12,-886.87 362.45,-884.32 367.88,-887.87 363.62,-888.68 363.62,-888.68 363.62,-888.68 367.88,-887.87 364.13,-893.16 373.12,-886.87"/>
<text text-anchor="start" x="7" y="-898.8" font-family="Arial" font-size="10.00">FOREIGN KEY (flow_id) REFERENCES flow(flow_id) ON DELETE CASCADE</text>
</g>
<!-- public.flow_message_box -->
<g id="node3" class="node">
<title>public.flow_message_box</title>
<polygon fill="#efefef" stroke="none" points="466.51,-1073.6 466.51,-1109.2 793.46,-1109.2 793.46,-1073.6 466.51,-1073.6"/>
<polygon fill="none" stroke="black" points="466.51,-1073.6 466.51,-1109.2 793.46,-1109.2 793.46,-1073.6 466.51,-1073.6"/>
<text text-anchor="start" x="473.51" y="-1087" font-family="Arial Bold" font-size="18.00">public.flow_message_box</text>
<text text-anchor="start" x="661.97" y="-1087" font-family="Arial" font-size="14.00">    </text>
<text text-anchor="start" x="693.09" y="-1087" font-family="Arial" font-size="14.00" fill="#666666">[BASE TABLE]</text>
<polygon fill="none" stroke="black" points="466.51,-1042.8 466.51,-1073.6 793.46,-1073.6 793.46,-1042.8 466.51,-1042.8"/>
<text text-anchor="start" x="473.51" y="-1055" font-family="Arial" font-size="14.00">message_box_id </text>
<text text-anchor="start" x="583.25" y="-1055" font-family="Arial" font-size="14.00" fill="#666666">[integer]</text>
<polygon fill="none" stroke="black" points="466.51,-1012 466.51,-1042.8 793.46,-1042.8 793.46,-1012 466.51,-1012"/>
<text text-anchor="start" x="473.51" y="-1024.2" font-family="Arial" font-size="14.00">flow_id </text>
<text text-anchor="start" x="520.98" y="-1024.2" font-family="Arial" font-size="14.00" fill="#666666">[bigint]</text>
<polygon fill="none" stroke="black" points="466.51,-981.2 466.51,-1012 793.46,-1012 793.46,-981.2 466.51,-981.2"/>
<text text-anchor="start" x="473.51" y="-993.4" font-family="Arial" font-size="14.00">parent_id </text>
<text text-anchor="start" x="535.78" y="-993.4" font-family="Arial" font-size="14.00" fill="#666666">[bigint]</text>
<polygon fill="none" stroke="black" points="466.51,-950.4 466.51,-981.2 793.46,-981.2 793.46,-950.4 466.51,-950.4"/>
<text text-anchor="start" x="473.51" y="-962.6" font-family="Arial" font-size="14.00">child_num </text>
<text text-anchor="start" x="541.21" y="-962.6" font-family="Arial" font-size="14.00" fill="#666666">[bigint]</text>
<polygon fill="none" stroke="black" points="466.51,-919.6 466.51,-950.4 793.46,-950.4 793.46,-919.6 466.51,-919.6"/>
<text text-anchor="start" x="473.51" y="-931.8" font-family="Arial" font-size="14.00">message_box_type </text>
<text text-anchor="start" x="598.81" y="-931.8" font-family="Arial" font-size="14.00" fill="#666666">[message_box_type]</text>
<polygon fill="none" stroke="black" points="466.51,-888.8 466.51,-919.6 793.46,-919.6 793.46,-888.8 466.51,-888.8"/>
<text text-anchor="start" x="473.51" y="-901" font-family="Arial" font-size="14.00">from_object_id </text>
<text text-anchor="start" x="569.23" y="-901" font-family="Arial" font-size="14.00" fill="#666666">[bigint]</text>
<polygon fill="none" stroke="black" points="466.51,-858 466.51,-888.8 793.46,-888.8 793.46,-858 466.51,-858"/>
<text text-anchor="start" x="473.51" y="-870.2" font-family="Arial" font-size="14.00">to_object_id </text>
<text text-anchor="start" x="552.9" y="-870.2" font-family="Arial" font-size="14.00" fill="#666666">[bigint]</text>
<polygon fill="none" stroke="black" points="466.51,-827.2 466.51,-858 793.46,-858 793.46,-827.2 466.51,-827.2"/>
<text text-anchor="start" x="473.51" y="-839.4" font-family="Arial" font-size="14.00">association_key </text>
<text text-anchor="start" x="577.01" y="-839.4" font-family="Arial" font-size="14.00" fill="#666666">[text]</text>
<polygon fill="none" stroke="black" points="466.51,-796.4 466.51,-827.2 793.46,-827.2 793.46,-796.4 466.51,-796.4"/>
<text text-anchor="start" x="473.51" y="-808.6" font-family="Arial" font-size="14.00">event_key </text>
<text text-anchor="start" x="541.22" y="-808.6" font-family="Arial" font-size="14.00" fill="#666666">[text]</text>
<polygon fill="none" stroke="black" points="466.51,-765.6 466.51,-796.4 793.46,-796.4 793.46,-765.6 466.51,-765.6"/>
<text text-anchor="start" x="473.51" y="-777.8" font-family="Arial" font-size="14.00">attribute_key </text>
<text text-anchor="start" x="557.56" y="-777.8" font-family="Arial" font-size="14.00" fill="#666666">[text]</text>
<polygon fill="none" stroke="black" points="466.51,-734.8 466.51,-765.6 793.46,-765.6 793.46,-734.8 466.51,-734.8"/>
<text text-anchor="start" x="473.51" y="-747" font-family="Arial" font-size="14.00">is_for_all </text>
<text text-anchor="start" x="533.43" y="-747" font-family="Arial" font-size="14.00" fill="#666666">[boolean]</text>
<polygon fill="none" stroke="black" points="466.51,-704 466.51,-734.8 793.46,-734.8 793.46,-704 466.51,-704"/>
<text text-anchor="start" x="473.51" y="-716.2" font-family="Arial" font-size="14.00">guard </text>
<text text-anchor="start" x="513.21" y="-716.2" font-family="Arial" font-size="14.00" fill="#666666">[text]</text>
<polygon fill="none" stroke="black" points="466.51,-673.2 466.51,-704 793.46,-704 793.46,-673.2 466.51,-673.2"/>
<text text-anchor="start" x="473.51" y="-685.4" font-family="Arial" font-size="14.00">ref_flow_id </text>
<text text-anchor="start" x="545.1" y="-685.4" font-family="Arial" font-size="14.00" fill="#666666">[bigint]</text>
<polygon fill="none" stroke="black" points="466.51,-642.4 466.51,-673.2 793.46,-673.2 793.46,-642.4 466.51,-642.4"/>
<text text-anchor="start" x="473.51" y="-654.6" font-family="Arial" font-size="14.00">details </text>
<text text-anchor="start" x="517.87" y="-654.6" font-family="Arial" font-size="14.00" fill="#666666">[text]</text>
<polygon fill="none" stroke="black" points="466.51,-611.6 466.51,-642.4 793.46,-642.4 793.46,-611.6 466.51,-611.6"/>
<text text-anchor="start" x="473.51" y="-623.8" font-family="Arial" font-size="14.00">uml_comment </text>
<text text-anchor="start" x="565.32" y="-623.8" font-family="Arial" font-size="14.00" fill="#666666">[text]</text>
</g>
<!-- public.flow_message_box&#45;&gt;public.flow -->
<g id="edge2" class="edge">
<title>public.flow_message_box:flow_id&#45;&gt;public.flow:flow_id</title>
<path fill="none" stroke="black" d="M804.53,-1026.19C923.74,-996.58 870.12,-435.2 741.47,-435.2"/>
<polygon fill="black" stroke="black" points="804.72,-1026.16 794.26,-1022.89 799.43,-1026.8 795.13,-1027.32 795.13,-1027.32 795.13,-1027.32 799.43,-1026.8 795.33,-1031.83 804.72,-1026.16"/>
<text text-anchor="start" x="801.46" y="-1037.4" font-family="Arial" font-size="10.00">FOREIGN KEY (flow_id) REFERENCES flow(flow_id) ON DELETE CASCADE</text>
</g>
<!-- public.flow_message_box&#45;&gt;public.flow -->
<g id="edge3" class="edge">
<title>public.flow_message_box:ref_flow_id&#45;&gt;public.flow:flow_id</title>
<path fill="none" stroke="black" d="M804.76,-687.87C906.15,-673.01 852.94,-435.2 741.47,-435.2"/>
<polygon fill="black" stroke="black" points="804.77,-687.87 794.48,-684.09 799.45,-688.25 795.13,-688.55 795.13,-688.55 795.13,-688.55 799.45,-688.25 795.11,-693.07 804.77,-687.87"/>
<text text-anchor="start" x="801.46" y="-698.6" font-family="Arial" font-size="10.00">FOREIGN KEY (ref_flow_id) REFERENCES flow(flow_id) ON DELETE CASCADE</text>
</g>
</g>
</svg>
