<?xml version="1.0" encoding="UTF-8" standalone="no"?>
<!DOCTYPE svg PUBLIC "-//W3C//DTD SVG 1.1//EN"
 "http://www.w3.org/Graphics/SVG/1.1/DTD/svg11.dtd">
<!-- Generated by graphviz version 12.1.2 (20240928.0832)
 -->
<!-- Title: public.guard Pages: 1 -->
<svg width="818pt" height="1160pt"
 viewBox="0.00 0.00 817.91 1160.40" xmlns="http://www.w3.org/2000/svg" xmlns:xlink="http://www.w3.org/1999/xlink">
<g id="graph0" class="graph" transform="scale(1 1) rotate(0) translate(4 1156.4)">
<title>public.guard</title>
<polygon fill="white" stroke="none" points="-4,4 -4,-1156.4 813.91,-1156.4 813.91,4 -4,4"/>
<!-- public.guard -->
<g id="node1" class="node">
<title>public.guard</title>
<polygon fill="#efefef" stroke="none" points="56.7,-635.4 56.7,-671 285.67,-671 285.67,-635.4 56.7,-635.4"/>
<polygon fill="none" stroke="black" points="56.7,-635.4 56.7,-671 285.67,-671 285.67,-635.4 56.7,-635.4"/>
<text text-anchor="start" x="63.7" y="-648.8" font-family="Arial Bold" font-size="18.00">public.guard</text>
<text text-anchor="start" x="154.18" y="-648.8" font-family="Arial" font-size="14.00">    </text>
<text text-anchor="start" x="185.3" y="-648.8" font-family="Arial" font-size="14.00" fill="#666666">[BASE TABLE]</text>
<polygon fill="none" stroke="black" points="56.7,-604.6 56.7,-635.4 285.67,-635.4 285.67,-604.6 56.7,-604.6"/>
<text text-anchor="start" x="63.7" y="-616.8" font-family="Arial" font-size="14.00">model_key </text>
<text text-anchor="start" x="135.3" y="-616.8" font-family="Arial" font-size="14.00" fill="#666666">[text]</text>
<polygon fill="none" stroke="black" points="56.7,-573.8 56.7,-604.6 285.67,-604.6 285.67,-573.8 56.7,-573.8"/>
<text text-anchor="start" x="63.7" y="-586" font-family="Arial" font-size="14.00">class_key </text>
<text text-anchor="start" x="129.06" y="-586" font-family="Arial" font-size="14.00" fill="#666666">[text]</text>
<polygon fill="none" stroke="black" points="56.7,-543 56.7,-573.8 285.67,-573.8 285.67,-543 56.7,-543"/>
<text text-anchor="start" x="63.7" y="-555.2" font-family="Arial" font-size="14.00">guard_key </text>
<text text-anchor="start" x="132.97" y="-555.2" font-family="Arial" font-size="14.00" fill="#666666">[text]</text>
<polygon fill="none" stroke="black" points="56.7,-512.2 56.7,-543 285.67,-543 285.67,-512.2 56.7,-512.2"/>
<text text-anchor="start" x="63.7" y="-524.4" font-family="Arial" font-size="14.00">name </text>
<text text-anchor="start" x="102.61" y="-524.4" font-family="Arial" font-size="14.00" fill="#666666">[text]</text>
<polygon fill="none" stroke="black" points="56.7,-481.4 56.7,-512.2 285.67,-512.2 285.67,-481.4 56.7,-481.4"/>
<text text-anchor="start" x="63.7" y="-493.6" font-family="Arial" font-size="14.00">details </text>
<text text-anchor="start" x="108.06" y="-493.6" font-family="Arial" font-size="14.00" fill="#666666">[text]</text>
<polygon fill="none" stroke="black" stroke-width="3" points="55.2,-479.9 55.2,-672.5 287.17,-672.5 287.17,-479.9 55.2,-479.9"/>
</g>
<!-- public.class -->
<g id="node2" class="node">
<title>public.class</title>
<polygon fill="#efefef" stroke="none" points="59.7,-320.4 59.7,-356 282.67,-356 282.67,-320.4 59.7,-320.4"/>
<polygon fill="none" stroke="black" points="59.7,-320.4 59.7,-356 282.67,-356 282.67,-320.4 59.7,-320.4"/>
<text text-anchor="start" x="66.7" y="-333.8" font-family="Arial Bold" font-size="18.00">public.class</text>
<text text-anchor="start" x="151.18" y="-333.8" font-family="Arial" font-size="14.00">    </text>
<text text-anchor="start" x="182.3" y="-333.8" font-family="Arial" font-size="14.00" fill="#666666">[BASE TABLE]</text>
<polygon fill="none" stroke="black" points="59.7,-289.6 59.7,-320.4 282.67,-320.4 282.67,-289.6 59.7,-289.6"/>
<text text-anchor="start" x="66.7" y="-301.8" font-family="Arial" font-size="14.00">model_key </text>
<text text-anchor="start" x="138.29" y="-301.8" font-family="Arial" font-size="14.00" fill="#666666">[text]</text>
<polygon fill="none" stroke="black" points="59.7,-258.8 59.7,-289.6 282.67,-289.6 282.67,-258.8 59.7,-258.8"/>
<text text-anchor="start" x="66.7" y="-271" font-family="Arial" font-size="14.00">class_key </text>
<text text-anchor="start" x="132.06" y="-271" font-family="Arial" font-size="14.00" fill="#666666">[text]</text>
<polygon fill="none" stroke="black" points="59.7,-228 59.7,-258.8 282.67,-258.8 282.67,-228 59.7,-228"/>
<text text-anchor="start" x="66.7" y="-240.2" font-family="Arial" font-size="14.00">name </text>
<text text-anchor="start" x="105.61" y="-240.2" font-family="Arial" font-size="14.00" fill="#666666">[text]</text>
<polygon fill="none" stroke="black" points="59.7,-197.2 59.7,-228 282.67,-228 282.67,-197.2 59.7,-197.2"/>
<text text-anchor="start" x="66.7" y="-209.4" font-family="Arial" font-size="14.00">subdomain_key </text>
<text text-anchor="start" x="168.65" y="-209.4" font-family="Arial" font-size="14.00" fill="#666666">[text]</text>
<polygon fill="none" stroke="black" points="59.7,-166.4 59.7,-197.2 282.67,-197.2 282.67,-166.4 59.7,-166.4"/>
<text text-anchor="start" x="66.7" y="-178.6" font-family="Arial" font-size="14.00">actor_key </text>
<text text-anchor="start" x="131.29" y="-178.6" font-family="Arial" font-size="14.00" fill="#666666">[text]</text>
<polygon fill="none" stroke="black" points="59.7,-135.6 59.7,-166.4 282.67,-166.4 282.67,-135.6 59.7,-135.6"/>
<text text-anchor="start" x="66.7" y="-147.8" font-family="Arial" font-size="14.00">superclass_of_key </text>
<text text-anchor="start" x="186.54" y="-147.8" font-family="Arial" font-size="14.00" fill="#666666">[text]</text>
<polygon fill="none" stroke="black" points="59.7,-104.8 59.7,-135.6 282.67,-135.6 282.67,-104.8 59.7,-104.8"/>
<text text-anchor="start" x="66.7" y="-117" font-family="Arial" font-size="14.00">subclass_of_key </text>
<text text-anchor="start" x="174.09" y="-117" font-family="Arial" font-size="14.00" fill="#666666">[text]</text>
<polygon fill="none" stroke="black" points="59.7,-74 59.7,-104.8 282.67,-104.8 282.67,-74 59.7,-74"/>
<text text-anchor="start" x="66.7" y="-86.2" font-family="Arial" font-size="14.00">details </text>
<text text-anchor="start" x="111.06" y="-86.2" font-family="Arial" font-size="14.00" fill="#666666">[text]</text>
<polygon fill="none" stroke="black" points="59.7,-43.2 59.7,-74 282.67,-74 282.67,-43.2 59.7,-43.2"/>
<text text-anchor="start" x="66.7" y="-55.4" font-family="Arial" font-size="14.00">uml_comment </text>
<text text-anchor="start" x="158.51" y="-55.4" font-family="Arial" font-size="14.00" fill="#666666">[text]</text>
</g>
<!-- public.guard&#45;&gt;public.class -->
<g id="edge1" class="edge">
<title>public.guard:model_key&#45;&gt;public.class:model_key</title>
<path fill="none" stroke="black" d="M297.06,-619.4C426.43,-604.21 420.12,-305 283.67,-305"/>
<polygon fill="black" stroke="black" points="296.99,-619.41 286.74,-615.49 291.66,-619.71 287.34,-619.96 287.34,-619.96 287.34,-619.96 291.66,-619.71 287.26,-624.47 296.99,-619.41"/>
<text text-anchor="start" x="293.67" y="-630" font-family="Arial" font-size="10.00">FOREIGN KEY (model_key, class_key) REFERENCES class(model_key, class_key) ON DELETE CASCADE</text>
</g>
<!-- public.transition -->
<g id="node3" class="node">
<title>public.transition</title>
<polygon fill="#efefef" stroke="none" points="43.2,-1073.6 43.2,-1109.2 299.17,-1109.2 299.17,-1073.6 43.2,-1073.6"/>
<polygon fill="none" stroke="black" points="43.2,-1073.6 43.2,-1109.2 299.17,-1109.2 299.17,-1073.6 43.2,-1073.6"/>
<text text-anchor="start" x="50.2" y="-1087" font-family="Arial Bold" font-size="18.00">public.transition</text>
<text text-anchor="start" x="167.68" y="-1087" font-family="Arial" font-size="14.00">    </text>
<text text-anchor="start" x="198.8" y="-1087" font-family="Arial" font-size="14.00" fill="#666666">[BASE TABLE]</text>
<polygon fill="none" stroke="black" points="43.2,-1042.8 43.2,-1073.6 299.17,-1073.6 299.17,-1042.8 43.2,-1042.8"/>
<text text-anchor="start" x="50.2" y="-1055" font-family="Arial" font-size="14.00">model_key </text>
<text text-anchor="start" x="121.79" y="-1055" font-family="Arial" font-size="14.00" fill="#666666">[text]</text>
<polygon fill="none" stroke="black" points="43.2,-1012 43.2,-1042.8 299.17,-1042.8 299.17,-1012 43.2,-1012"/>
<text text-anchor="start" x="50.2" y="-1024.2" font-family="Arial" font-size="14.00">class_key </text>
<text text-anchor="start" x="115.56" y="-1024.2" font-family="Arial" font-size="14.00" fill="#666666">[text]</text>
<polygon fill="none" stroke="black" points="43.2,-981.2 43.2,-1012 299.17,-1012 299.17,-981.2 43.2,-981.2"/>
<text text-anchor="start" x="50.2" y="-993.4" font-family="Arial" font-size="14.00">transition_key </text>
<text text-anchor="start" x="140.47" y="-993.4" font-family="Arial" font-size="14.00" fill="#666666">[text]</text>
<polygon fill="none" stroke="black" points="43.2,-950.4 43.2,-981.2 299.17,-981.2 299.17,-950.4 43.2,-950.4"/>
<text text-anchor="start" x="50.2" y="-962.6" font-family="Arial" font-size="14.00">from_state_key </text>
<text text-anchor="start" x="149.8" y="-962.6" font-family="Arial" font-size="14.00" fill="#666666">[text]</text>
<polygon fill="none" stroke="black" points="43.2,-919.6 43.2,-950.4 299.17,-950.4 299.17,-919.6 43.2,-919.6"/>
<text text-anchor="start" x="50.2" y="-931.8" font-family="Arial" font-size="14.00">event_key </text>
<text text-anchor="start" x="117.91" y="-931.8" font-family="Arial" font-size="14.00" fill="#666666">[text]</text>
<polygon fill="none" stroke="black" points="43.2,-888.8 43.2,-919.6 299.17,-919.6 299.17,-888.8 43.2,-888.8"/>
<text text-anchor="start" x="50.2" y="-901" font-family="Arial" font-size="14.00">guard_key </text>
<text text-anchor="start" x="119.47" y="-901" font-family="Arial" font-size="14.00" fill="#666666">[text]</text>
<polygon fill="none" stroke="black" points="43.2,-858 43.2,-888.8 299.17,-888.8 299.17,-858 43.2,-858"/>
<text text-anchor="start" x="50.2" y="-870.2" font-family="Arial" font-size="14.00">action_key </text>
<text text-anchor="start" x="121.02" y="-870.2" font-family="Arial" font-size="14.00" fill="#666666">[text]</text>
<polygon fill="none" stroke="black" points="43.2,-827.2 43.2,-858 299.17,-858 299.17,-827.2 43.2,-827.2"/>
<text text-anchor="start" x="50.2" y="-839.4" font-family="Arial" font-size="14.00">to_state_key </text>
<text text-anchor="start" x="133.48" y="-839.4" font-family="Arial" font-size="14.00" fill="#666666">[text]</text>
<polygon fill="none" stroke="black" points="43.2,-796.4 43.2,-827.2 299.17,-827.2 299.17,-796.4 43.2,-796.4"/>
<text text-anchor="start" x="50.2" y="-808.6" font-family="Arial" font-size="14.00">uml_comment </text>
<text text-anchor="start" x="142.01" y="-808.6" font-family="Arial" font-size="14.00" fill="#666666">[text]</text>
</g>
<!-- public.transition&#45;&gt;public.guard -->
<g id="edge2" class="edge">
<title>public.transition:model_key&#45;&gt;public.guard:model_key</title>
<path fill="none" stroke="black" d="M310.3,-1056.53C396.51,-1027.11 380.57,-620 286.67,-620"/>
<polygon fill="black" stroke="black" points="310.37,-1056.51 299.77,-1053.71 305.11,-1057.38 300.83,-1058.09 300.83,-1058.09 300.83,-1058.09 305.11,-1057.38 301.24,-1062.59 310.37,-1056.51"/>
<text text-anchor="start" x="307.17" y="-1068.2" font-family="Arial" font-size="10.00">FOREIGN KEY (model_key, guard_key) REFERENCES guard(model_key, guard_key) ON DELETE CASCADE</text>
</g>
</g>
</svg>
