<?xml version="1.0" encoding="UTF-8" standalone="no"?>
<!DOCTYPE svg PUBLIC "-//W3C//DTD SVG 1.1//EN"
 "http://www.w3.org/Graphics/SVG/1.1/DTD/svg11.dtd">
<!-- Generated by graphviz version 12.1.2 (20240928.0832)
 -->
<!-- Title: public.model Pages: 1 -->
<svg width="3895pt" height="756pt"
 viewBox="0.00 0.00 3895.29 756.00" xmlns="http://www.w3.org/2000/svg" xmlns:xlink="http://www.w3.org/1999/xlink">
<g id="graph0" class="graph" transform="scale(1 1) rotate(0) translate(4 752)">
<title>public.model</title>
<polygon fill="white" stroke="none" points="-4,4 -4,-752 3891.29,-752 3891.29,4 -4,4"/>
<!-- public.model -->
<g id="node1" class="node">
<title>public.model</title>
<polygon fill="#efefef" stroke="none" points="1848.41,-138.6 1848.41,-174.2 2081.38,-174.2 2081.38,-138.6 1848.41,-138.6"/>
<polygon fill="none" stroke="black" points="1848.41,-138.6 1848.41,-174.2 2081.38,-174.2 2081.38,-138.6 1848.41,-138.6"/>
<text text-anchor="start" x="1855.41" y="-152" font-family="Arial Bold" font-size="18.00">public.model</text>
<text text-anchor="start" x="1949.89" y="-152" font-family="Arial" font-size="14.00">    </text>
<text text-anchor="start" x="1981.01" y="-152" font-family="Arial" font-size="14.00" fill="#666666">[BASE TABLE]</text>
<polygon fill="none" stroke="black" points="1848.41,-107.8 1848.41,-138.6 2081.38,-138.6 2081.38,-107.8 1848.41,-107.8"/>
<text text-anchor="start" x="1855.41" y="-120" font-family="Arial" font-size="14.00">model_key </text>
<text text-anchor="start" x="1927" y="-120" font-family="Arial" font-size="14.00" fill="#666666">[text]</text>
<polygon fill="none" stroke="black" points="1848.41,-77 1848.41,-107.8 2081.38,-107.8 2081.38,-77 1848.41,-77"/>
<text text-anchor="start" x="1855.41" y="-89.2" font-family="Arial" font-size="14.00">name </text>
<text text-anchor="start" x="1894.32" y="-89.2" font-family="Arial" font-size="14.00" fill="#666666">[text]</text>
<polygon fill="none" stroke="black" points="1848.41,-46.2 1848.41,-77 2081.38,-77 2081.38,-46.2 1848.41,-46.2"/>
<text text-anchor="start" x="1855.41" y="-58.4" font-family="Arial" font-size="14.00">details </text>
<text text-anchor="start" x="1899.77" y="-58.4" font-family="Arial" font-size="14.00" fill="#666666">[text]</text>
<polygon fill="none" stroke="black" stroke-width="3" points="1846.91,-44.7 1846.91,-175.7 2082.88,-175.7 2082.88,-44.7 1846.91,-44.7"/>
</g>
<!-- public.domain -->
<g id="node2" class="node">
<title>public.domain</title>
<polygon fill="#efefef" stroke="none" points="163.91,-576.8 163.91,-612.4 405.88,-612.4 405.88,-576.8 163.91,-576.8"/>
<polygon fill="none" stroke="black" points="163.91,-576.8 163.91,-612.4 405.88,-612.4 405.88,-576.8 163.91,-576.8"/>
<text text-anchor="start" x="170.91" y="-590.2" font-family="Arial Bold" font-size="18.00">public.domain</text>
<text text-anchor="start" x="274.39" y="-590.2" font-family="Arial" font-size="14.00">    </text>
<text text-anchor="start" x="305.51" y="-590.2" font-family="Arial" font-size="14.00" fill="#666666">[BASE TABLE]</text>
<polygon fill="none" stroke="black" points="163.91,-546 163.91,-576.8 405.88,-576.8 405.88,-546 163.91,-546"/>
<text text-anchor="start" x="170.91" y="-558.2" font-family="Arial" font-size="14.00">domain_key </text>
<text text-anchor="start" x="250.29" y="-558.2" font-family="Arial" font-size="14.00" fill="#666666">[text]</text>
<polygon fill="none" stroke="black" points="163.91,-515.2 163.91,-546 405.88,-546 405.88,-515.2 163.91,-515.2"/>
<text text-anchor="start" x="170.91" y="-527.4" font-family="Arial" font-size="14.00">model_key </text>
<text text-anchor="start" x="242.5" y="-527.4" font-family="Arial" font-size="14.00" fill="#666666">[text]</text>
<polygon fill="none" stroke="black" points="163.91,-484.4 163.91,-515.2 405.88,-515.2 405.88,-484.4 163.91,-484.4"/>
<text text-anchor="start" x="170.91" y="-496.6" font-family="Arial" font-size="14.00">name </text>
<text text-anchor="start" x="209.82" y="-496.6" font-family="Arial" font-size="14.00" fill="#666666">[text]</text>
<polygon fill="none" stroke="black" points="163.91,-453.6 163.91,-484.4 405.88,-484.4 405.88,-453.6 163.91,-453.6"/>
<text text-anchor="start" x="170.91" y="-465.8" font-family="Arial" font-size="14.00">details </text>
<text text-anchor="start" x="215.27" y="-465.8" font-family="Arial" font-size="14.00" fill="#666666">[text]</text>
<polygon fill="none" stroke="black" points="163.91,-422.8 163.91,-453.6 405.88,-453.6 405.88,-422.8 163.91,-422.8"/>
<text text-anchor="start" x="170.91" y="-435" font-family="Arial" font-size="14.00">realized </text>
<text text-anchor="start" x="223.83" y="-435" font-family="Arial" font-size="14.00" fill="#666666">[boolean]</text>
<polygon fill="none" stroke="black" points="163.91,-392 163.91,-422.8 405.88,-422.8 405.88,-392 163.91,-392"/>
<text text-anchor="start" x="170.91" y="-404.2" font-family="Arial" font-size="14.00">uml_comment </text>
<text text-anchor="start" x="262.72" y="-404.2" font-family="Arial" font-size="14.00" fill="#666666">[text]</text>
</g>
<!-- public.domain&#45;&gt;public.model -->
<g id="edge1" class="edge">
<title>public.domain:model_key&#45;&gt;public.model:model_key</title>
<path fill="none" stroke="black" d="M417.05,-530.12C521.43,-519.53 369.14,-337.64 457.9,-256.4 572.3,-151.68 1692.31,-123.2 1847.41,-123.2"/>
<polygon fill="black" stroke="black" points="417.2,-530.11 407,-526.09 411.88,-530.36 407.55,-530.57 407.55,-530.57 407.55,-530.57 411.88,-530.36 407.43,-535.08 417.2,-530.11"/>
<text text-anchor="start" x="7" y="-540.6" font-family="Arial" font-size="10.00">FOREIGN KEY (model_key) REFERENCES model(model_key) ON DELETE CASCADE</text>
</g>
<!-- public.domain_association -->
<g id="node3" class="node">
<title>public.domain_association</title>
<polygon fill="#efefef" stroke="none" points="510.42,-561.4 510.42,-597 841.37,-597 841.37,-561.4 510.42,-561.4"/>
<polygon fill="none" stroke="black" points="510.42,-561.4 510.42,-597 841.37,-597 841.37,-561.4 510.42,-561.4"/>
<text text-anchor="start" x="517.42" y="-574.8" font-family="Arial Bold" font-size="18.00">public.domain_association</text>
<text text-anchor="start" x="709.88" y="-574.8" font-family="Arial" font-size="14.00">    </text>
<text text-anchor="start" x="741" y="-574.8" font-family="Arial" font-size="14.00" fill="#666666">[BASE TABLE]</text>
<polygon fill="none" stroke="black" points="510.42,-530.6 510.42,-561.4 841.37,-561.4 841.37,-530.6 510.42,-530.6"/>
<text text-anchor="start" x="517.42" y="-542.8" font-family="Arial" font-size="14.00">model_key </text>
<text text-anchor="start" x="589.01" y="-542.8" font-family="Arial" font-size="14.00" fill="#666666">[text]</text>
<polygon fill="none" stroke="black" points="510.42,-499.8 510.42,-530.6 841.37,-530.6 841.37,-499.8 510.42,-499.8"/>
<text text-anchor="start" x="517.42" y="-512" font-family="Arial" font-size="14.00">association_key </text>
<text text-anchor="start" x="620.92" y="-512" font-family="Arial" font-size="14.00" fill="#666666">[text]</text>
<polygon fill="none" stroke="black" points="510.42,-469 510.42,-499.8 841.37,-499.8 841.37,-469 510.42,-469"/>
<text text-anchor="start" x="517.42" y="-481.2" font-family="Arial" font-size="14.00">problem_domain_key </text>
<text text-anchor="start" x="655.16" y="-481.2" font-family="Arial" font-size="14.00" fill="#666666">[text]</text>
<polygon fill="none" stroke="black" points="510.42,-438.2 510.42,-469 841.37,-469 841.37,-438.2 510.42,-438.2"/>
<text text-anchor="start" x="517.42" y="-450.4" font-family="Arial" font-size="14.00">solution_domain_key </text>
<text text-anchor="start" x="652.84" y="-450.4" font-family="Arial" font-size="14.00" fill="#666666">[text]</text>
<polygon fill="none" stroke="black" points="510.42,-407.4 510.42,-438.2 841.37,-438.2 841.37,-407.4 510.42,-407.4"/>
<text text-anchor="start" x="517.42" y="-419.6" font-family="Arial" font-size="14.00">uml_comment </text>
<text text-anchor="start" x="609.23" y="-419.6" font-family="Arial" font-size="14.00" fill="#666666">[text]</text>
</g>
<!-- public.domain_association&#45;&gt;public.model -->
<g id="edge2" class="edge">
<title>public.domain_association:model_key&#45;&gt;public.model:model_key</title>
<path fill="none" stroke="black" d="M852.76,-545.53C963.5,-534.82 802.41,-344.53 893.9,-256.4 970.93,-182.18 1740.43,-123.2 1847.41,-123.2"/>
<polygon fill="black" stroke="black" points="852.69,-545.53 842.5,-541.49 847.37,-545.77 843.04,-545.97 843.04,-545.97 843.04,-545.97 847.37,-545.77 842.91,-550.48 852.69,-545.53"/>
<text text-anchor="start" x="645.93" y="-530" font-family="Arial" font-size="10.00">FOREIGN KEY (model_key) REFERENCES model(model_key) ON DELETE CASCADE</text>
</g>
<!-- public.generalization -->
<g id="node4" class="node">
<title>public.generalization</title>
<polygon fill="#efefef" stroke="none" points="945.93,-592.2 945.93,-627.8 1235.86,-627.8 1235.86,-592.2 945.93,-592.2"/>
<polygon fill="none" stroke="black" points="945.93,-592.2 945.93,-627.8 1235.86,-627.8 1235.86,-592.2 945.93,-592.2"/>
<text text-anchor="start" x="952.93" y="-605.6" font-family="Arial Bold" font-size="18.00">public.generalization</text>
<text text-anchor="start" x="1104.37" y="-605.6" font-family="Arial" font-size="14.00">    </text>
<text text-anchor="start" x="1135.49" y="-605.6" font-family="Arial" font-size="14.00" fill="#666666">[BASE TABLE]</text>
<polygon fill="none" stroke="black" points="945.93,-561.4 945.93,-592.2 1235.86,-592.2 1235.86,-561.4 945.93,-561.4"/>
<text text-anchor="start" x="952.93" y="-573.6" font-family="Arial" font-size="14.00">model_key </text>
<text text-anchor="start" x="1024.53" y="-573.6" font-family="Arial" font-size="14.00" fill="#666666">[text]</text>
<polygon fill="none" stroke="black" points="945.93,-530.6 945.93,-561.4 1235.86,-561.4 1235.86,-530.6 945.93,-530.6"/>
<text text-anchor="start" x="952.93" y="-542.8" font-family="Arial" font-size="14.00">generalization_key </text>
<text text-anchor="start" x="1073.57" y="-542.8" font-family="Arial" font-size="14.00" fill="#666666">[text]</text>
<polygon fill="none" stroke="black" points="945.93,-499.8 945.93,-530.6 1235.86,-530.6 1235.86,-499.8 945.93,-499.8"/>
<text text-anchor="start" x="952.93" y="-512" font-family="Arial" font-size="14.00">name </text>
<text text-anchor="start" x="991.84" y="-512" font-family="Arial" font-size="14.00" fill="#666666">[text]</text>
<polygon fill="none" stroke="black" points="945.93,-469 945.93,-499.8 1235.86,-499.8 1235.86,-469 945.93,-469"/>
<text text-anchor="start" x="952.93" y="-481.2" font-family="Arial" font-size="14.00">is_complete </text>
<text text-anchor="start" x="1031.53" y="-481.2" font-family="Arial" font-size="14.00" fill="#666666">[boolean]</text>
<polygon fill="none" stroke="black" points="945.93,-438.2 945.93,-469 1235.86,-469 1235.86,-438.2 945.93,-438.2"/>
<text text-anchor="start" x="952.93" y="-450.4" font-family="Arial" font-size="14.00">is_static </text>
<text text-anchor="start" x="1007.39" y="-450.4" font-family="Arial" font-size="14.00" fill="#666666">[boolean]</text>
<polygon fill="none" stroke="black" points="945.93,-407.4 945.93,-438.2 1235.86,-438.2 1235.86,-407.4 945.93,-407.4"/>
<text text-anchor="start" x="952.93" y="-419.6" font-family="Arial" font-size="14.00">details </text>
<text text-anchor="start" x="997.29" y="-419.6" font-family="Arial" font-size="14.00" fill="#666666">[text]</text>
<polygon fill="none" stroke="black" points="945.93,-376.6 945.93,-407.4 1235.86,-407.4 1235.86,-376.6 945.93,-376.6"/>
<text text-anchor="start" x="952.93" y="-388.8" font-family="Arial" font-size="14.00">uml_comment </text>
<text text-anchor="start" x="1044.74" y="-388.8" font-family="Arial" font-size="14.00" fill="#666666">[text]</text>
</g>
<!-- public.generalization&#45;&gt;public.model -->
<g id="edge3" class="edge">
<title>public.generalization:model_key&#45;&gt;public.model:model_key</title>
<path fill="none" stroke="black" d="M1246.78,-574.79C1302.15,-550.18 1241.37,-306.59 1287.9,-256.4 1374.78,-162.67 1719.6,-123.2 1847.41,-123.2"/>
<polygon fill="black" stroke="black" points="1246.99,-574.75 1236.29,-572.32 1241.76,-575.81 1237.51,-576.67 1237.51,-576.67 1237.51,-576.67 1241.76,-575.81 1238.08,-581.14 1246.99,-574.75"/>
<text text-anchor="start" x="1040.42" y="-560.8" font-family="Arial" font-size="10.00">FOREIGN KEY (model_key) REFERENCES model(model_key) ON DELETE CASCADE</text>
</g>
<!-- public.actor -->
<g id="node5" class="node">
<title>public.actor</title>
<polygon fill="#efefef" stroke="none" points="1339.92,-607.6 1339.92,-643.2 1563.87,-643.2 1563.87,-607.6 1339.92,-607.6"/>
<polygon fill="none" stroke="black" points="1339.92,-607.6 1339.92,-643.2 1563.87,-643.2 1563.87,-607.6 1339.92,-607.6"/>
<text text-anchor="start" x="1346.92" y="-621" font-family="Arial Bold" font-size="18.00">public.actor</text>
<text text-anchor="start" x="1432.38" y="-621" font-family="Arial" font-size="14.00">    </text>
<text text-anchor="start" x="1463.5" y="-621" font-family="Arial" font-size="14.00" fill="#666666">[BASE TABLE]</text>
<polygon fill="none" stroke="black" points="1339.92,-576.8 1339.92,-607.6 1563.87,-607.6 1563.87,-576.8 1339.92,-576.8"/>
<text text-anchor="start" x="1346.92" y="-589" font-family="Arial" font-size="14.00">model_key </text>
<text text-anchor="start" x="1418.51" y="-589" font-family="Arial" font-size="14.00" fill="#666666">[text]</text>
<polygon fill="none" stroke="black" points="1339.92,-546 1339.92,-576.8 1563.87,-576.8 1563.87,-546 1339.92,-546"/>
<text text-anchor="start" x="1346.92" y="-558.2" font-family="Arial" font-size="14.00">actor_key </text>
<text text-anchor="start" x="1411.5" y="-558.2" font-family="Arial" font-size="14.00" fill="#666666">[text]</text>
<polygon fill="none" stroke="black" points="1339.92,-515.2 1339.92,-546 1563.87,-546 1563.87,-515.2 1339.92,-515.2"/>
<text text-anchor="start" x="1346.92" y="-527.4" font-family="Arial" font-size="14.00">name </text>
<text text-anchor="start" x="1385.83" y="-527.4" font-family="Arial" font-size="14.00" fill="#666666">[text]</text>
<polygon fill="none" stroke="black" points="1339.92,-484.4 1339.92,-515.2 1563.87,-515.2 1563.87,-484.4 1339.92,-484.4"/>
<text text-anchor="start" x="1346.92" y="-496.6" font-family="Arial" font-size="14.00">details </text>
<text text-anchor="start" x="1391.28" y="-496.6" font-family="Arial" font-size="14.00" fill="#666666">[text]</text>
<polygon fill="none" stroke="black" points="1339.92,-453.6 1339.92,-484.4 1563.87,-484.4 1563.87,-453.6 1339.92,-453.6"/>
<text text-anchor="start" x="1346.92" y="-465.8" font-family="Arial" font-size="14.00">actor_type </text>
<text text-anchor="start" x="1416.18" y="-465.8" font-family="Arial" font-size="14.00" fill="#666666">[actor_type]</text>
<polygon fill="none" stroke="black" points="1339.92,-422.8 1339.92,-453.6 1563.87,-453.6 1563.87,-422.8 1339.92,-422.8"/>
<text text-anchor="start" x="1346.92" y="-435" font-family="Arial" font-size="14.00">superclass_of_key </text>
<text text-anchor="start" x="1466.76" y="-435" font-family="Arial" font-size="14.00" fill="#666666">[text]</text>
<polygon fill="none" stroke="black" points="1339.92,-392 1339.92,-422.8 1563.87,-422.8 1563.87,-392 1339.92,-392"/>
<text text-anchor="start" x="1346.92" y="-404.2" font-family="Arial" font-size="14.00">subclass_of_key </text>
<text text-anchor="start" x="1454.31" y="-404.2" font-family="Arial" font-size="14.00" fill="#666666">[text]</text>
<polygon fill="none" stroke="black" points="1339.92,-361.2 1339.92,-392 1563.87,-392 1563.87,-361.2 1339.92,-361.2"/>
<text text-anchor="start" x="1346.92" y="-373.4" font-family="Arial" font-size="14.00">uml_comment </text>
<text text-anchor="start" x="1438.72" y="-373.4" font-family="Arial" font-size="14.00" fill="#666666">[text]</text>
</g>
<!-- public.actor&#45;&gt;public.model -->
<g id="edge4" class="edge">
<title>public.actor:model_key&#45;&gt;public.model:model_key</title>
<path fill="none" stroke="black" d="M1574.94,-590.3C1634.06,-566 1575.37,-315.66 1615.9,-256.4 1682.9,-158.41 1728.7,-123.2 1847.41,-123.2"/>
<polygon fill="black" stroke="black" points="1575.03,-590.28 1564.37,-587.72 1569.79,-591.27 1565.53,-592.08 1565.53,-592.08 1565.53,-592.08 1569.79,-591.27 1566.04,-596.56 1575.03,-590.28"/>
<text text-anchor="start" x="1470.15" y="-576.2" font-family="Arial" font-size="10.00">FOREIGN KEY (model_key) REFERENCES model(model_key) ON DELETE CASCADE</text>
</g>
<!-- public.use_case -->
<g id="node6" class="node">
<title>public.use_case</title>
<polygon fill="#efefef" stroke="none" points="1667.92,-638.4 1667.92,-674 1919.87,-674 1919.87,-638.4 1667.92,-638.4"/>
<polygon fill="none" stroke="black" points="1667.92,-638.4 1667.92,-674 1919.87,-674 1919.87,-638.4 1667.92,-638.4"/>
<text text-anchor="start" x="1674.92" y="-651.8" font-family="Arial Bold" font-size="18.00">public.use_case</text>
<text text-anchor="start" x="1788.38" y="-651.8" font-family="Arial" font-size="14.00">    </text>
<text text-anchor="start" x="1819.5" y="-651.8" font-family="Arial" font-size="14.00" fill="#666666">[BASE TABLE]</text>
<polygon fill="none" stroke="black" points="1667.92,-607.6 1667.92,-638.4 1919.87,-638.4 1919.87,-607.6 1667.92,-607.6"/>
<text text-anchor="start" x="1674.92" y="-619.8" font-family="Arial" font-size="14.00">model_key </text>
<text text-anchor="start" x="1746.51" y="-619.8" font-family="Arial" font-size="14.00" fill="#666666">[text]</text>
<polygon fill="none" stroke="black" points="1667.92,-576.8 1667.92,-607.6 1919.87,-607.6 1919.87,-576.8 1667.92,-576.8"/>
<text text-anchor="start" x="1674.92" y="-589" font-family="Arial" font-size="14.00">use_case_key </text>
<text text-anchor="start" x="1768.31" y="-589" font-family="Arial" font-size="14.00" fill="#666666">[text]</text>
<polygon fill="none" stroke="black" points="1667.92,-546 1667.92,-576.8 1919.87,-576.8 1919.87,-546 1667.92,-546"/>
<text text-anchor="start" x="1674.92" y="-558.2" font-family="Arial" font-size="14.00">name </text>
<text text-anchor="start" x="1713.83" y="-558.2" font-family="Arial" font-size="14.00" fill="#666666">[text]</text>
<polygon fill="none" stroke="black" points="1667.92,-515.2 1667.92,-546 1919.87,-546 1919.87,-515.2 1667.92,-515.2"/>
<text text-anchor="start" x="1674.92" y="-527.4" font-family="Arial" font-size="14.00">details </text>
<text text-anchor="start" x="1719.28" y="-527.4" font-family="Arial" font-size="14.00" fill="#666666">[text]</text>
<polygon fill="none" stroke="black" points="1667.92,-484.4 1667.92,-515.2 1919.87,-515.2 1919.87,-484.4 1667.92,-484.4"/>
<text text-anchor="start" x="1674.92" y="-496.6" font-family="Arial" font-size="14.00">level </text>
<text text-anchor="start" x="1707.6" y="-496.6" font-family="Arial" font-size="14.00" fill="#666666">[use_case_level]</text>
<polygon fill="none" stroke="black" points="1667.92,-453.6 1667.92,-484.4 1919.87,-484.4 1919.87,-453.6 1667.92,-453.6"/>
<text text-anchor="start" x="1674.92" y="-465.8" font-family="Arial" font-size="14.00">read_only </text>
<text text-anchor="start" x="1740.3" y="-465.8" font-family="Arial" font-size="14.00" fill="#666666">[boolean]</text>
<polygon fill="none" stroke="black" points="1667.92,-422.8 1667.92,-453.6 1919.87,-453.6 1919.87,-422.8 1667.92,-422.8"/>
<text text-anchor="start" x="1674.92" y="-435" font-family="Arial" font-size="14.00">subdomain_key </text>
<text text-anchor="start" x="1776.87" y="-435" font-family="Arial" font-size="14.00" fill="#666666">[text]</text>
<polygon fill="none" stroke="black" points="1667.92,-392 1667.92,-422.8 1919.87,-422.8 1919.87,-392 1667.92,-392"/>
<text text-anchor="start" x="1674.92" y="-404.2" font-family="Arial" font-size="14.00">superclass_of_key </text>
<text text-anchor="start" x="1794.76" y="-404.2" font-family="Arial" font-size="14.00" fill="#666666">[text]</text>
<polygon fill="none" stroke="black" points="1667.92,-361.2 1667.92,-392 1919.87,-392 1919.87,-361.2 1667.92,-361.2"/>
<text text-anchor="start" x="1674.92" y="-373.4" font-family="Arial" font-size="14.00">subclass_of_key </text>
<text text-anchor="start" x="1782.31" y="-373.4" font-family="Arial" font-size="14.00" fill="#666666">[text]</text>
<polygon fill="none" stroke="black" points="1667.92,-330.4 1667.92,-361.2 1919.87,-361.2 1919.87,-330.4 1667.92,-330.4"/>
<text text-anchor="start" x="1674.92" y="-342.6" font-family="Arial" font-size="14.00">uml_comment </text>
<text text-anchor="start" x="1766.73" y="-342.6" font-family="Arial" font-size="14.00" fill="#666666">[text]</text>
</g>
<!-- public.use_case&#45;&gt;public.model -->
<g id="edge5" class="edge">
<title>public.use_case:model_key&#45;&gt;public.model:model_key</title>
<path fill="none" stroke="black" d="M1930.95,-621.14C1991.06,-597.36 1948.23,-352.27 1919.87,-287.2 1902.5,-247.35 1865.93,-260.19 1848.41,-220.4 1831,-180.86 1804.21,-123.2 1847.41,-123.2"/>
<polygon fill="black" stroke="black" points="1931.03,-621.13 1920.38,-618.51 1925.79,-622.09 1921.53,-622.88 1921.53,-622.88 1921.53,-622.88 1925.79,-622.09 1922.01,-627.36 1931.03,-621.13"/>
<text text-anchor="start" x="1927.87" y="-633" font-family="Arial" font-size="10.00">FOREIGN KEY (model_key) REFERENCES model(model_key) ON DELETE CASCADE</text>
</g>
<!-- public.class -->
<g id="node7" class="node">
<title>public.class</title>
<polygon fill="#efefef" stroke="none" points="2024.41,-623 2024.41,-658.6 2247.38,-658.6 2247.38,-623 2024.41,-623"/>
<polygon fill="none" stroke="black" points="2024.41,-623 2024.41,-658.6 2247.38,-658.6 2247.38,-623 2024.41,-623"/>
<text text-anchor="start" x="2031.41" y="-636.4" font-family="Arial Bold" font-size="18.00">public.class</text>
<text text-anchor="start" x="2115.89" y="-636.4" font-family="Arial" font-size="14.00">    </text>
<text text-anchor="start" x="2147.01" y="-636.4" font-family="Arial" font-size="14.00" fill="#666666">[BASE TABLE]</text>
<polygon fill="none" stroke="black" points="2024.41,-592.2 2024.41,-623 2247.38,-623 2247.38,-592.2 2024.41,-592.2"/>
<text text-anchor="start" x="2031.41" y="-604.4" font-family="Arial" font-size="14.00">model_key </text>
<text text-anchor="start" x="2103" y="-604.4" font-family="Arial" font-size="14.00" fill="#666666">[text]</text>
<polygon fill="none" stroke="black" points="2024.41,-561.4 2024.41,-592.2 2247.38,-592.2 2247.38,-561.4 2024.41,-561.4"/>
<text text-anchor="start" x="2031.41" y="-573.6" font-family="Arial" font-size="14.00">class_key </text>
<text text-anchor="start" x="2096.77" y="-573.6" font-family="Arial" font-size="14.00" fill="#666666">[text]</text>
<polygon fill="none" stroke="black" points="2024.41,-530.6 2024.41,-561.4 2247.38,-561.4 2247.38,-530.6 2024.41,-530.6"/>
<text text-anchor="start" x="2031.41" y="-542.8" font-family="Arial" font-size="14.00">name </text>
<text text-anchor="start" x="2070.32" y="-542.8" font-family="Arial" font-size="14.00" fill="#666666">[text]</text>
<polygon fill="none" stroke="black" points="2024.41,-499.8 2024.41,-530.6 2247.38,-530.6 2247.38,-499.8 2024.41,-499.8"/>
<text text-anchor="start" x="2031.41" y="-512" font-family="Arial" font-size="14.00">subdomain_key </text>
<text text-anchor="start" x="2133.36" y="-512" font-family="Arial" font-size="14.00" fill="#666666">[text]</text>
<polygon fill="none" stroke="black" points="2024.41,-469 2024.41,-499.8 2247.38,-499.8 2247.38,-469 2024.41,-469"/>
<text text-anchor="start" x="2031.41" y="-481.2" font-family="Arial" font-size="14.00">actor_key </text>
<text text-anchor="start" x="2096" y="-481.2" font-family="Arial" font-size="14.00" fill="#666666">[text]</text>
<polygon fill="none" stroke="black" points="2024.41,-438.2 2024.41,-469 2247.38,-469 2247.38,-438.2 2024.41,-438.2"/>
<text text-anchor="start" x="2031.41" y="-450.4" font-family="Arial" font-size="14.00">superclass_of_key </text>
<text text-anchor="start" x="2151.25" y="-450.4" font-family="Arial" font-size="14.00" fill="#666666">[text]</text>
<polygon fill="none" stroke="black" points="2024.41,-407.4 2024.41,-438.2 2247.38,-438.2 2247.38,-407.4 2024.41,-407.4"/>
<text text-anchor="start" x="2031.41" y="-419.6" font-family="Arial" font-size="14.00">subclass_of_key </text>
<text text-anchor="start" x="2138.8" y="-419.6" font-family="Arial" font-size="14.00" fill="#666666">[text]</text>
<polygon fill="none" stroke="black" points="2024.41,-376.6 2024.41,-407.4 2247.38,-407.4 2247.38,-376.6 2024.41,-376.6"/>
<text text-anchor="start" x="2031.41" y="-388.8" font-family="Arial" font-size="14.00">details </text>
<text text-anchor="start" x="2075.77" y="-388.8" font-family="Arial" font-size="14.00" fill="#666666">[text]</text>
<polygon fill="none" stroke="black" points="2024.41,-345.8 2024.41,-376.6 2247.38,-376.6 2247.38,-345.8 2024.41,-345.8"/>
<text text-anchor="start" x="2031.41" y="-358" font-family="Arial" font-size="14.00">uml_comment </text>
<text text-anchor="start" x="2123.22" y="-358" font-family="Arial" font-size="14.00" fill="#666666">[text]</text>
</g>
<!-- public.class&#45;&gt;public.model -->
<g id="edge6" class="edge">
<title>public.class:model_key&#45;&gt;public.model:model_key</title>
<path fill="none" stroke="black" d="M2013.31,-605.51C1960.85,-581.84 2005.19,-363.72 2024.41,-302.6 2037.74,-260.2 2067.9,-262.76 2081.38,-220.4 2094.48,-179.23 2125.58,-123.2 2082.38,-123.2"/>
<polygon fill="black" stroke="black" points="2013.29,-605.51 2022.17,-611.94 2018.51,-606.59 2022.76,-607.46 2022.76,-607.46 2022.76,-607.46 2018.51,-606.59 2023.99,-603.13 2013.29,-605.51"/>
<text text-anchor="start" x="2030.41" y="-617.6" font-family="Arial" font-size="10.00">FOREIGN KEY (model_key) REFERENCES model(model_key) ON DELETE CASCADE</text>
</g>
<!-- public.association -->
<g id="node8" class="node">
<title>public.association</title>
<polygon fill="#efefef" stroke="none" points="2351.91,-669.2 2351.91,-704.8 2619.88,-704.8 2619.88,-669.2 2351.91,-669.2"/>
<polygon fill="none" stroke="black" points="2351.91,-669.2 2351.91,-704.8 2619.88,-704.8 2619.88,-669.2 2351.91,-669.2"/>
<text text-anchor="start" x="2358.91" y="-682.6" font-family="Arial Bold" font-size="18.00">public.association</text>
<text text-anchor="start" x="2488.39" y="-682.6" font-family="Arial" font-size="14.00">    </text>
<text text-anchor="start" x="2519.5" y="-682.6" font-family="Arial" font-size="14.00" fill="#666666">[BASE TABLE]</text>
<polygon fill="none" stroke="black" points="2351.91,-638.4 2351.91,-669.2 2619.88,-669.2 2619.88,-638.4 2351.91,-638.4"/>
<text text-anchor="start" x="2358.91" y="-650.6" font-family="Arial" font-size="14.00">model_key </text>
<text text-anchor="start" x="2430.51" y="-650.6" font-family="Arial" font-size="14.00" fill="#666666">[text]</text>
<polygon fill="none" stroke="black" points="2351.91,-607.6 2351.91,-638.4 2619.88,-638.4 2619.88,-607.6 2351.91,-607.6"/>
<text text-anchor="start" x="2358.91" y="-619.8" font-family="Arial" font-size="14.00">association_key </text>
<text text-anchor="start" x="2462.42" y="-619.8" font-family="Arial" font-size="14.00" fill="#666666">[text]</text>
<polygon fill="none" stroke="black" points="2351.91,-576.8 2351.91,-607.6 2619.88,-607.6 2619.88,-576.8 2351.91,-576.8"/>
<text text-anchor="start" x="2358.91" y="-589" font-family="Arial" font-size="14.00">from_class_key </text>
<text text-anchor="start" x="2460.06" y="-589" font-family="Arial" font-size="14.00" fill="#666666">[text]</text>
<polygon fill="none" stroke="black" points="2351.91,-546 2351.91,-576.8 2619.88,-576.8 2619.88,-546 2351.91,-546"/>
<text text-anchor="start" x="2358.91" y="-558.2" font-family="Arial" font-size="14.00">from_multiplicity_lower </text>
<text text-anchor="start" x="2504.4" y="-558.2" font-family="Arial" font-size="14.00" fill="#666666">[integer]</text>
<polygon fill="none" stroke="black" points="2351.91,-515.2 2351.91,-546 2619.88,-546 2619.88,-515.2 2351.91,-515.2"/>
<text text-anchor="start" x="2358.91" y="-527.4" font-family="Arial" font-size="14.00">from_multiplicity_higher </text>
<text text-anchor="start" x="2509.86" y="-527.4" font-family="Arial" font-size="14.00" fill="#666666">[integer]</text>
<polygon fill="none" stroke="black" points="2351.91,-484.4 2351.91,-515.2 2619.88,-515.2 2619.88,-484.4 2351.91,-484.4"/>
<text text-anchor="start" x="2358.91" y="-496.6" font-family="Arial" font-size="14.00">to_class_key </text>
<text text-anchor="start" x="2443.73" y="-496.6" font-family="Arial" font-size="14.00" fill="#666666">[text]</text>
<polygon fill="none" stroke="black" points="2351.91,-453.6 2351.91,-484.4 2619.88,-484.4 2619.88,-453.6 2351.91,-453.6"/>
<text text-anchor="start" x="2358.91" y="-465.8" font-family="Arial" font-size="14.00">to_multiplicity_lower </text>
<text text-anchor="start" x="2488.07" y="-465.8" font-family="Arial" font-size="14.00" fill="#666666">[integer]</text>
<polygon fill="none" stroke="black" points="2351.91,-422.8 2351.91,-453.6 2619.88,-453.6 2619.88,-422.8 2351.91,-422.8"/>
<text text-anchor="start" x="2358.91" y="-435" font-family="Arial" font-size="14.00">to_multiplicity_higher </text>
<text text-anchor="start" x="2493.53" y="-435" font-family="Arial" font-size="14.00" fill="#666666">[integer]</text>
<polygon fill="none" stroke="black" points="2351.91,-392 2351.91,-422.8 2619.88,-422.8 2619.88,-392 2351.91,-392"/>
<text text-anchor="start" x="2358.91" y="-404.2" font-family="Arial" font-size="14.00">name </text>
<text text-anchor="start" x="2397.82" y="-404.2" font-family="Arial" font-size="14.00" fill="#666666">[text]</text>
<polygon fill="none" stroke="black" points="2351.91,-361.2 2351.91,-392 2619.88,-392 2619.88,-361.2 2351.91,-361.2"/>
<text text-anchor="start" x="2358.91" y="-373.4" font-family="Arial" font-size="14.00">association_class_key </text>
<text text-anchor="start" x="2502.1" y="-373.4" font-family="Arial" font-size="14.00" fill="#666666">[text]</text>
<polygon fill="none" stroke="black" points="2351.91,-330.4 2351.91,-361.2 2619.88,-361.2 2619.88,-330.4 2351.91,-330.4"/>
<text text-anchor="start" x="2358.91" y="-342.6" font-family="Arial" font-size="14.00">details </text>
<text text-anchor="start" x="2403.27" y="-342.6" font-family="Arial" font-size="14.00" fill="#666666">[text]</text>
<polygon fill="none" stroke="black" points="2351.91,-299.6 2351.91,-330.4 2619.88,-330.4 2619.88,-299.6 2351.91,-299.6"/>
<text text-anchor="start" x="2358.91" y="-311.8" font-family="Arial" font-size="14.00">uml_comment </text>
<text text-anchor="start" x="2450.72" y="-311.8" font-family="Arial" font-size="14.00" fill="#666666">[text]</text>
</g>
<!-- public.association&#45;&gt;public.model -->
<g id="edge7" class="edge">
<title>public.association:model_key&#45;&gt;public.model:model_key</title>
<path fill="none" stroke="black" d="M2340.82,-652.21C2268.74,-627.75 2346.29,-328.08 2299.9,-256.4 2238.29,-161.24 2195.74,-123.2 2082.38,-123.2"/>
<polygon fill="black" stroke="black" points="2340.71,-652.19 2349.88,-658.19 2345.98,-653.02 2350.25,-653.7 2350.25,-653.7 2350.25,-653.7 2345.98,-653.02 2351.28,-649.3 2340.71,-652.19"/>
<text text-anchor="start" x="1951.03" y="-663.8" font-family="Arial" font-size="10.00">FOREIGN KEY (model_key) REFERENCES model(model_key) ON DELETE CASCADE</text>
</g>
<!-- public.scenario -->
<g id="node9" class="node">
<title>public.scenario</title>
<polygon fill="#efefef" stroke="none" points="2723.92,-576.8 2723.92,-612.4 2971.87,-612.4 2971.87,-576.8 2723.92,-576.8"/>
<polygon fill="none" stroke="black" points="2723.92,-576.8 2723.92,-612.4 2971.87,-612.4 2971.87,-576.8 2723.92,-576.8"/>
<text text-anchor="start" x="2730.92" y="-590.2" font-family="Arial Bold" font-size="18.00">public.scenario</text>
<text text-anchor="start" x="2840.38" y="-590.2" font-family="Arial" font-size="14.00">    </text>
<text text-anchor="start" x="2871.5" y="-590.2" font-family="Arial" font-size="14.00" fill="#666666">[BASE TABLE]</text>
<polygon fill="none" stroke="black" points="2723.92,-546 2723.92,-576.8 2971.87,-576.8 2971.87,-546 2723.92,-546"/>
<text text-anchor="start" x="2730.92" y="-558.2" font-family="Arial" font-size="14.00">model_key </text>
<text text-anchor="start" x="2802.51" y="-558.2" font-family="Arial" font-size="14.00" fill="#666666">[text]</text>
<polygon fill="none" stroke="black" points="2723.92,-515.2 2723.92,-546 2971.87,-546 2971.87,-515.2 2723.92,-515.2"/>
<text text-anchor="start" x="2730.92" y="-527.4" font-family="Arial" font-size="14.00">scenario_key </text>
<text text-anchor="start" x="2817.3" y="-527.4" font-family="Arial" font-size="14.00" fill="#666666">[text]</text>
<polygon fill="none" stroke="black" points="2723.92,-484.4 2723.92,-515.2 2971.87,-515.2 2971.87,-484.4 2723.92,-484.4"/>
<text text-anchor="start" x="2730.92" y="-496.6" font-family="Arial" font-size="14.00">name </text>
<text text-anchor="start" x="2769.83" y="-496.6" font-family="Arial" font-size="14.00" fill="#666666">[text]</text>
<polygon fill="none" stroke="black" points="2723.92,-453.6 2723.92,-484.4 2971.87,-484.4 2971.87,-453.6 2723.92,-453.6"/>
<text text-anchor="start" x="2730.92" y="-465.8" font-family="Arial" font-size="14.00">use_case_key </text>
<text text-anchor="start" x="2824.31" y="-465.8" font-family="Arial" font-size="14.00" fill="#666666">[text]</text>
<polygon fill="none" stroke="black" points="2723.92,-422.8 2723.92,-453.6 2971.87,-453.6 2971.87,-422.8 2723.92,-422.8"/>
<text text-anchor="start" x="2730.92" y="-435" font-family="Arial" font-size="14.00">details </text>
<text text-anchor="start" x="2775.28" y="-435" font-family="Arial" font-size="14.00" fill="#666666">[text]</text>
<polygon fill="none" stroke="black" points="2723.92,-392 2723.92,-422.8 2971.87,-422.8 2971.87,-392 2723.92,-392"/>
<text text-anchor="start" x="2730.92" y="-404.2" font-family="Arial" font-size="14.00">steps </text>
<text text-anchor="start" x="2768.27" y="-404.2" font-family="Arial" font-size="14.00" fill="#666666">[jsonb]</text>
</g>
<!-- public.scenario&#45;&gt;public.model -->
<g id="edge8" class="edge">
<title>public.scenario:model_key&#45;&gt;public.model:model_key</title>
<path fill="none" stroke="black" d="M2712.81,-559.19C2660.96,-534.12 2716.52,-303.61 2671.9,-256.4 2579.64,-158.79 2216.69,-123.2 2082.38,-123.2"/>
<polygon fill="black" stroke="black" points="2712.83,-559.19 2721.63,-565.72 2718.04,-560.33 2722.27,-561.26 2722.27,-561.26 2722.27,-561.26 2718.04,-560.33 2723.56,-556.93 2712.83,-559.19"/>
<text text-anchor="start" x="2729.92" y="-571.4" font-family="Arial" font-size="10.00">FOREIGN KEY (model_key) REFERENCES model(model_key) ON DELETE CASCADE</text>
</g>
<!-- public.scenario_object -->
<g id="node10" class="node">
<title>public.scenario_object</title>
<polygon fill="#efefef" stroke="none" points="3076.43,-623 3076.43,-658.6 3377.36,-658.6 3377.36,-623 3076.43,-623"/>
<polygon fill="none" stroke="black" points="3076.43,-623 3076.43,-658.6 3377.36,-658.6 3377.36,-623 3076.43,-623"/>
<text text-anchor="start" x="3083.43" y="-636.4" font-family="Arial Bold" font-size="18.00">public.scenario_object</text>
<text text-anchor="start" x="3245.87" y="-636.4" font-family="Arial" font-size="14.00">    </text>
<text text-anchor="start" x="3276.99" y="-636.4" font-family="Arial" font-size="14.00" fill="#666666">[BASE TABLE]</text>
<polygon fill="none" stroke="black" points="3076.43,-592.2 3076.43,-623 3377.36,-623 3377.36,-592.2 3076.43,-592.2"/>
<text text-anchor="start" x="3083.43" y="-604.4" font-family="Arial" font-size="14.00">model_key </text>
<text text-anchor="start" x="3155.02" y="-604.4" font-family="Arial" font-size="14.00" fill="#666666">[text]</text>
<polygon fill="none" stroke="black" points="3076.43,-561.4 3076.43,-592.2 3377.36,-592.2 3377.36,-561.4 3076.43,-561.4"/>
<text text-anchor="start" x="3083.43" y="-573.6" font-family="Arial" font-size="14.00">scenario_object_key </text>
<text text-anchor="start" x="3214.95" y="-573.6" font-family="Arial" font-size="14.00" fill="#666666">[text]</text>
<polygon fill="none" stroke="black" points="3076.43,-530.6 3076.43,-561.4 3377.36,-561.4 3377.36,-530.6 3076.43,-530.6"/>
<text text-anchor="start" x="3083.43" y="-542.8" font-family="Arial" font-size="14.00">scenario_key </text>
<text text-anchor="start" x="3169.81" y="-542.8" font-family="Arial" font-size="14.00" fill="#666666">[text]</text>
<polygon fill="none" stroke="black" points="3076.43,-499.8 3076.43,-530.6 3377.36,-530.6 3377.36,-499.8 3076.43,-499.8"/>
<text text-anchor="start" x="3083.43" y="-512" font-family="Arial" font-size="14.00">object_number </text>
<text text-anchor="start" x="3179.93" y="-512" font-family="Arial" font-size="14.00" fill="#666666">[integer]</text>
<polygon fill="none" stroke="black" points="3076.43,-469 3076.43,-499.8 3377.36,-499.8 3377.36,-469 3076.43,-469"/>
<text text-anchor="start" x="3083.43" y="-481.2" font-family="Arial" font-size="14.00">name </text>
<text text-anchor="start" x="3122.34" y="-481.2" font-family="Arial" font-size="14.00" fill="#666666">[text]</text>
<polygon fill="none" stroke="black" points="3076.43,-438.2 3076.43,-469 3377.36,-469 3377.36,-438.2 3076.43,-438.2"/>
<text text-anchor="start" x="3083.43" y="-450.4" font-family="Arial" font-size="14.00">name_style </text>
<text text-anchor="start" x="3158.91" y="-450.4" font-family="Arial" font-size="14.00" fill="#666666">[scenario_object_name_style]</text>
<polygon fill="none" stroke="black" points="3076.43,-407.4 3076.43,-438.2 3377.36,-438.2 3377.36,-407.4 3076.43,-407.4"/>
<text text-anchor="start" x="3083.43" y="-419.6" font-family="Arial" font-size="14.00">class_key </text>
<text text-anchor="start" x="3148.79" y="-419.6" font-family="Arial" font-size="14.00" fill="#666666">[text]</text>
<polygon fill="none" stroke="black" points="3076.43,-376.6 3076.43,-407.4 3377.36,-407.4 3377.36,-376.6 3076.43,-376.6"/>
<text text-anchor="start" x="3083.43" y="-388.8" font-family="Arial" font-size="14.00">multi </text>
<text text-anchor="start" x="3116.88" y="-388.8" font-family="Arial" font-size="14.00" fill="#666666">[boolean]</text>
<polygon fill="none" stroke="black" points="3076.43,-345.8 3076.43,-376.6 3377.36,-376.6 3377.36,-345.8 3076.43,-345.8"/>
<text text-anchor="start" x="3083.43" y="-358" font-family="Arial" font-size="14.00">uml_comment </text>
<text text-anchor="start" x="3175.24" y="-358" font-family="Arial" font-size="14.00" fill="#666666">[text]</text>
</g>
<!-- public.scenario_object&#45;&gt;public.model -->
<g id="edge9" class="edge">
<title>public.scenario_object:model_key&#45;&gt;public.model:model_key</title>
<path fill="none" stroke="black" d="M3065.38,-605.71C3004.05,-580.42 3077.19,-309.42 3023.9,-256.4 2948.99,-181.88 2188.04,-123.2 2082.38,-123.2"/>
<polygon fill="black" stroke="black" points="3065.27,-605.69 3074.27,-611.96 3070.52,-606.67 3074.77,-607.48 3074.77,-607.48 3074.77,-607.48 3070.52,-606.67 3075.93,-603.12 3065.27,-605.69"/>
<text text-anchor="start" x="2675.55" y="-617.6" font-family="Arial" font-size="10.00">FOREIGN KEY (model_key) REFERENCES model(model_key) ON DELETE CASCADE</text>
</g>
<!-- public.flow -->
<g id="node11" class="node">
<title>public.flow</title>
<polygon fill="#efefef" stroke="none" points="3481.41,-561.4 3481.41,-597 3702.38,-597 3702.38,-561.4 3481.41,-561.4"/>
<polygon fill="none" stroke="black" points="3481.41,-561.4 3481.41,-597 3702.38,-597 3702.38,-561.4 3481.41,-561.4"/>
<text text-anchor="start" x="3488.41" y="-574.8" font-family="Arial Bold" font-size="18.00">public.flow</text>
<text text-anchor="start" x="3570.89" y="-574.8" font-family="Arial" font-size="14.00">    </text>
<text text-anchor="start" x="3602.01" y="-574.8" font-family="Arial" font-size="14.00" fill="#666666">[BASE TABLE]</text>
<polygon fill="none" stroke="black" points="3481.41,-530.6 3481.41,-561.4 3702.38,-561.4 3702.38,-530.6 3481.41,-530.6"/>
<text text-anchor="start" x="3488.41" y="-542.8" font-family="Arial" font-size="14.00">flow_id </text>
<text text-anchor="start" x="3535.88" y="-542.8" font-family="Arial" font-size="14.00" fill="#666666">[integer]</text>
<polygon fill="none" stroke="black" points="3481.41,-499.8 3481.41,-530.6 3702.38,-530.6 3702.38,-499.8 3481.41,-499.8"/>
<text text-anchor="start" x="3488.41" y="-512" font-family="Arial" font-size="14.00">model_key </text>
<text text-anchor="start" x="3560" y="-512" font-family="Arial" font-size="14.00" fill="#666666">[text]</text>
<polygon fill="none" stroke="black" points="3481.41,-469 3481.41,-499.8 3702.38,-499.8 3702.38,-469 3481.41,-469"/>
<text text-anchor="start" x="3488.41" y="-481.2" font-family="Arial" font-size="14.00">name </text>
<text text-anchor="start" x="3527.32" y="-481.2" font-family="Arial" font-size="14.00" fill="#666666">[text]</text>
<polygon fill="none" stroke="black" points="3481.41,-438.2 3481.41,-469 3702.38,-469 3702.38,-438.2 3481.41,-438.2"/>
<text text-anchor="start" x="3488.41" y="-450.4" font-family="Arial" font-size="14.00">details </text>
<text text-anchor="start" x="3532.77" y="-450.4" font-family="Arial" font-size="14.00" fill="#666666">[text]</text>
<polygon fill="none" stroke="black" points="3481.41,-407.4 3481.41,-438.2 3702.38,-438.2 3702.38,-407.4 3481.41,-407.4"/>
<text text-anchor="start" x="3488.41" y="-419.6" font-family="Arial" font-size="14.00">uml_comment </text>
<text text-anchor="start" x="3580.21" y="-419.6" font-family="Arial" font-size="14.00" fill="#666666">[text]</text>
</g>
<!-- public.flow&#45;&gt;public.model -->
<g id="edge10" class="edge">
<title>public.flow:model_key&#45;&gt;public.model:model_key</title>
<path fill="none" stroke="black" d="M3470.2,-514.68C3372.57,-504.05 3513.86,-332.81 3429.9,-256.4 3318.62,-155.14 2232.83,-123.2 2082.38,-123.2"/>
<polygon fill="black" stroke="black" points="3470.09,-514.68 3479.85,-519.68 3475.41,-514.95 3479.74,-515.17 3479.74,-515.17 3479.74,-515.17 3475.41,-514.95 3480.3,-510.69 3470.09,-514.68"/>
<text text-anchor="start" x="3487.41" y="-525.2" font-family="Arial" font-size="10.00">FOREIGN KEY (model_key) REFERENCES model(model_key) ON DELETE CASCADE</text>
</g>
</g>
</svg>
