<?xml version="1.0" encoding="UTF-8" standalone="no"?>
<!DOCTYPE svg PUBLIC "-//W3C//DTD SVG 1.1//EN"
 "http://www.w3.org/Graphics/SVG/1.1/DTD/svg11.dtd">
<!-- Generated by graphviz version 12.1.2 (20240928.0832)
 -->
<!-- Title: public.use_case Pages: 1 -->
<svg width="1645pt" height="1160pt"
 viewBox="0.00 0.00 1645.42 1160.40" xmlns="http://www.w3.org/2000/svg" xmlns:xlink="http://www.w3.org/1999/xlink">
<g id="graph0" class="graph" transform="scale(1 1) rotate(0) translate(4 1156.4)">
<title>public.use_case</title>
<polygon fill="white" stroke="none" points="-4,4 -4,-1156.4 1641.42,-1156.4 1641.42,4 -4,4"/>
<!-- public.use_case -->
<g id="node1" class="node">
<title>public.use_case</title>
<polygon fill="#efefef" stroke="none" points="692.99,-727.8 692.99,-763.4 944.94,-763.4 944.94,-727.8 692.99,-727.8"/>
<polygon fill="none" stroke="black" points="692.99,-727.8 692.99,-763.4 944.94,-763.4 944.94,-727.8 692.99,-727.8"/>
<text text-anchor="start" x="699.99" y="-741.2" font-family="Arial Bold" font-size="18.00">public.use_case</text>
<text text-anchor="start" x="813.45" y="-741.2" font-family="Arial" font-size="14.00">    </text>
<text text-anchor="start" x="844.57" y="-741.2" font-family="Arial" font-size="14.00" fill="#666666">[BASE TABLE]</text>
<polygon fill="none" stroke="black" points="692.99,-697 692.99,-727.8 944.94,-727.8 944.94,-697 692.99,-697"/>
<text text-anchor="start" x="699.99" y="-709.2" font-family="Arial" font-size="14.00">model_key </text>
<text text-anchor="start" x="771.59" y="-709.2" font-family="Arial" font-size="14.00" fill="#666666">[text]</text>
<polygon fill="none" stroke="black" points="692.99,-666.2 692.99,-697 944.94,-697 944.94,-666.2 692.99,-666.2"/>
<text text-anchor="start" x="699.99" y="-678.4" font-family="Arial" font-size="14.00">use_case_key </text>
<text text-anchor="start" x="793.39" y="-678.4" font-family="Arial" font-size="14.00" fill="#666666">[text]</text>
<polygon fill="none" stroke="black" points="692.99,-635.4 692.99,-666.2 944.94,-666.2 944.94,-635.4 692.99,-635.4"/>
<text text-anchor="start" x="699.99" y="-647.6" font-family="Arial" font-size="14.00">name </text>
<text text-anchor="start" x="738.9" y="-647.6" font-family="Arial" font-size="14.00" fill="#666666">[text]</text>
<polygon fill="none" stroke="black" points="692.99,-604.6 692.99,-635.4 944.94,-635.4 944.94,-604.6 692.99,-604.6"/>
<text text-anchor="start" x="699.99" y="-616.8" font-family="Arial" font-size="14.00">details </text>
<text text-anchor="start" x="744.35" y="-616.8" font-family="Arial" font-size="14.00" fill="#666666">[text]</text>
<polygon fill="none" stroke="black" points="692.99,-573.8 692.99,-604.6 944.94,-604.6 944.94,-573.8 692.99,-573.8"/>
<text text-anchor="start" x="699.99" y="-586" font-family="Arial" font-size="14.00">level </text>
<text text-anchor="start" x="732.68" y="-586" font-family="Arial" font-size="14.00" fill="#666666">[use_case_level]</text>
<polygon fill="none" stroke="black" points="692.99,-543 692.99,-573.8 944.94,-573.8 944.94,-543 692.99,-543"/>
<text text-anchor="start" x="699.99" y="-555.2" font-family="Arial" font-size="14.00">read_only </text>
<text text-anchor="start" x="765.37" y="-555.2" font-family="Arial" font-size="14.00" fill="#666666">[boolean]</text>
<polygon fill="none" stroke="black" points="692.99,-512.2 692.99,-543 944.94,-543 944.94,-512.2 692.99,-512.2"/>
<text text-anchor="start" x="699.99" y="-524.4" font-family="Arial" font-size="14.00">subdomain_key </text>
<text text-anchor="start" x="801.94" y="-524.4" font-family="Arial" font-size="14.00" fill="#666666">[text]</text>
<polygon fill="none" stroke="black" points="692.99,-481.4 692.99,-512.2 944.94,-512.2 944.94,-481.4 692.99,-481.4"/>
<text text-anchor="start" x="699.99" y="-493.6" font-family="Arial" font-size="14.00">superclass_of_key </text>
<text text-anchor="start" x="819.83" y="-493.6" font-family="Arial" font-size="14.00" fill="#666666">[text]</text>
<polygon fill="none" stroke="black" points="692.99,-450.6 692.99,-481.4 944.94,-481.4 944.94,-450.6 692.99,-450.6"/>
<text text-anchor="start" x="699.99" y="-462.8" font-family="Arial" font-size="14.00">subclass_of_key </text>
<text text-anchor="start" x="807.39" y="-462.8" font-family="Arial" font-size="14.00" fill="#666666">[text]</text>
<polygon fill="none" stroke="black" points="692.99,-419.8 692.99,-450.6 944.94,-450.6 944.94,-419.8 692.99,-419.8"/>
<text text-anchor="start" x="699.99" y="-432" font-family="Arial" font-size="14.00">uml_comment </text>
<text text-anchor="start" x="791.8" y="-432" font-family="Arial" font-size="14.00" fill="#666666">[text]</text>
<polygon fill="none" stroke="black" stroke-width="3" points="691.49,-418.3 691.49,-764.9 946.44,-764.9 946.44,-418.3 691.49,-418.3"/>
</g>
<!-- public.model -->
<g id="node2" class="node">
<title>public.model</title>
<polygon fill="#efefef" stroke="none" points="157.48,-197.2 157.48,-232.8 390.45,-232.8 390.45,-197.2 157.48,-197.2"/>
<polygon fill="none" stroke="black" points="157.48,-197.2 157.48,-232.8 390.45,-232.8 390.45,-197.2 157.48,-197.2"/>
<text text-anchor="start" x="164.48" y="-210.6" font-family="Arial Bold" font-size="18.00">public.model</text>
<text text-anchor="start" x="258.96" y="-210.6" font-family="Arial" font-size="14.00">    </text>
<text text-anchor="start" x="290.08" y="-210.6" font-family="Arial" font-size="14.00" fill="#666666">[BASE TABLE]</text>
<polygon fill="none" stroke="black" points="157.48,-166.4 157.48,-197.2 390.45,-197.2 390.45,-166.4 157.48,-166.4"/>
<text text-anchor="start" x="164.48" y="-178.6" font-family="Arial" font-size="14.00">model_key </text>
<text text-anchor="start" x="236.07" y="-178.6" font-family="Arial" font-size="14.00" fill="#666666">[text]</text>
<polygon fill="none" stroke="black" points="157.48,-135.6 157.48,-166.4 390.45,-166.4 390.45,-135.6 157.48,-135.6"/>
<text text-anchor="start" x="164.48" y="-147.8" font-family="Arial" font-size="14.00">name </text>
<text text-anchor="start" x="203.39" y="-147.8" font-family="Arial" font-size="14.00" fill="#666666">[text]</text>
<polygon fill="none" stroke="black" points="157.48,-104.8 157.48,-135.6 390.45,-135.6 390.45,-104.8 157.48,-104.8"/>
<text text-anchor="start" x="164.48" y="-117" font-family="Arial" font-size="14.00">details </text>
<text text-anchor="start" x="208.84" y="-117" font-family="Arial" font-size="14.00" fill="#666666">[text]</text>
</g>
<!-- public.use_case&#45;&gt;public.model -->
<g id="edge1" class="edge">
<title>public.use_case:model_key&#45;&gt;public.model:model_key</title>
<path fill="none" stroke="black" d="M681.65,-712.22C493.03,-705.56 527.7,-514.66 441.97,-337.6 410.24,-272.08 464.25,-181.8 391.45,-181.8"/>
<polygon fill="black" stroke="black" points="681.66,-712.22 691.58,-716.89 686.99,-712.31 691.32,-712.39 691.32,-712.39 691.32,-712.39 686.99,-712.31 691.74,-707.89 681.66,-712.22"/>
<text text-anchor="start" x="292.11" y="-722.4" font-family="Arial" font-size="10.00">FOREIGN KEY (model_key) REFERENCES model(model_key) ON DELETE CASCADE</text>
</g>
<!-- public.subdomain -->
<g id="node3" class="node">
<title>public.subdomain</title>
<polygon fill="#efefef" stroke="none" points="494.48,-243.4 494.48,-279 761.45,-279 761.45,-243.4 494.48,-243.4"/>
<polygon fill="none" stroke="black" points="494.48,-243.4 494.48,-279 761.45,-279 761.45,-243.4 494.48,-243.4"/>
<text text-anchor="start" x="501.48" y="-256.8" font-family="Arial Bold" font-size="18.00">public.subdomain</text>
<text text-anchor="start" x="629.97" y="-256.8" font-family="Arial" font-size="14.00">    </text>
<text text-anchor="start" x="661.08" y="-256.8" font-family="Arial" font-size="14.00" fill="#666666">[BASE TABLE]</text>
<polygon fill="none" stroke="black" points="494.48,-212.6 494.48,-243.4 761.45,-243.4 761.45,-212.6 494.48,-212.6"/>
<text text-anchor="start" x="501.48" y="-224.8" font-family="Arial" font-size="14.00">subdomain_key </text>
<text text-anchor="start" x="603.43" y="-224.8" font-family="Arial" font-size="14.00" fill="#666666">[text]</text>
<polygon fill="none" stroke="black" points="494.48,-181.8 494.48,-212.6 761.45,-212.6 761.45,-181.8 494.48,-181.8"/>
<text text-anchor="start" x="501.48" y="-194" font-family="Arial" font-size="14.00">model_key </text>
<text text-anchor="start" x="573.07" y="-194" font-family="Arial" font-size="14.00" fill="#666666">[text]</text>
<polygon fill="none" stroke="black" points="494.48,-151 494.48,-181.8 761.45,-181.8 761.45,-151 494.48,-151"/>
<text text-anchor="start" x="501.48" y="-163.2" font-family="Arial" font-size="14.00">domain_key </text>
<text text-anchor="start" x="580.86" y="-163.2" font-family="Arial" font-size="14.00" fill="#666666">[text]</text>
<polygon fill="none" stroke="black" points="494.48,-120.2 494.48,-151 761.45,-151 761.45,-120.2 494.48,-120.2"/>
<text text-anchor="start" x="501.48" y="-132.4" font-family="Arial" font-size="14.00">name </text>
<text text-anchor="start" x="540.39" y="-132.4" font-family="Arial" font-size="14.00" fill="#666666">[text]</text>
<polygon fill="none" stroke="black" points="494.48,-89.4 494.48,-120.2 761.45,-120.2 761.45,-89.4 494.48,-89.4"/>
<text text-anchor="start" x="501.48" y="-101.6" font-family="Arial" font-size="14.00">details </text>
<text text-anchor="start" x="545.84" y="-101.6" font-family="Arial" font-size="14.00" fill="#666666">[text]</text>
<polygon fill="none" stroke="black" points="494.48,-58.6 494.48,-89.4 761.45,-89.4 761.45,-58.6 494.48,-58.6"/>
<text text-anchor="start" x="501.48" y="-70.8" font-family="Arial" font-size="14.00">uml_comment </text>
<text text-anchor="start" x="593.28" y="-70.8" font-family="Arial" font-size="14.00" fill="#666666">[text]</text>
</g>
<!-- public.use_case&#45;&gt;public.subdomain -->
<g id="edge2" class="edge">
<title>public.use_case:model_key&#45;&gt;public.subdomain:model_key</title>
<path fill="none" stroke="black" d="M681.79,-712.07C545.35,-702.87 627.07,-505.04 692.99,-373.6 710.05,-339.59 744.31,-356.17 761.45,-322.2 786.49,-272.6 818.01,-197.2 762.45,-197.2"/>
<polygon fill="black" stroke="black" points="681.66,-712.06 691.51,-716.89 687,-712.24 691.32,-712.38 691.32,-712.38 691.32,-712.38 687,-712.24 691.81,-707.89 681.66,-712.06"/>
<text text-anchor="start" x="119.23" y="-696.4" font-family="Arial" font-size="10.00">FOREIGN KEY (model_key, subdomain_key) REFERENCES subdomain(model_key, subdomain_key) ON DELETE CASCADE</text>
</g>
<!-- public.generalization -->
<g id="node4" class="node">
<title>public.generalization</title>
<polygon fill="#efefef" stroke="none" points="866,-258.8 866,-294.4 1155.93,-294.4 1155.93,-258.8 866,-258.8"/>
<polygon fill="none" stroke="black" points="866,-258.8 866,-294.4 1155.93,-294.4 1155.93,-258.8 866,-258.8"/>
<text text-anchor="start" x="873" y="-272.2" font-family="Arial Bold" font-size="18.00">public.generalization</text>
<text text-anchor="start" x="1024.44" y="-272.2" font-family="Arial" font-size="14.00">    </text>
<text text-anchor="start" x="1055.56" y="-272.2" font-family="Arial" font-size="14.00" fill="#666666">[BASE TABLE]</text>
<polygon fill="none" stroke="black" points="866,-228 866,-258.8 1155.93,-258.8 1155.93,-228 866,-228"/>
<text text-anchor="start" x="873" y="-240.2" font-family="Arial" font-size="14.00">model_key </text>
<text text-anchor="start" x="944.6" y="-240.2" font-family="Arial" font-size="14.00" fill="#666666">[text]</text>
<polygon fill="none" stroke="black" points="866,-197.2 866,-228 1155.93,-228 1155.93,-197.2 866,-197.2"/>
<text text-anchor="start" x="873" y="-209.4" font-family="Arial" font-size="14.00">generalization_key </text>
<text text-anchor="start" x="993.64" y="-209.4" font-family="Arial" font-size="14.00" fill="#666666">[text]</text>
<polygon fill="none" stroke="black" points="866,-166.4 866,-197.2 1155.93,-197.2 1155.93,-166.4 866,-166.4"/>
<text text-anchor="start" x="873" y="-178.6" font-family="Arial" font-size="14.00">name </text>
<text text-anchor="start" x="911.91" y="-178.6" font-family="Arial" font-size="14.00" fill="#666666">[text]</text>
<polygon fill="none" stroke="black" points="866,-135.6 866,-166.4 1155.93,-166.4 1155.93,-135.6 866,-135.6"/>
<text text-anchor="start" x="873" y="-147.8" font-family="Arial" font-size="14.00">is_complete </text>
<text text-anchor="start" x="951.6" y="-147.8" font-family="Arial" font-size="14.00" fill="#666666">[boolean]</text>
<polygon fill="none" stroke="black" points="866,-104.8 866,-135.6 1155.93,-135.6 1155.93,-104.8 866,-104.8"/>
<text text-anchor="start" x="873" y="-117" font-family="Arial" font-size="14.00">is_static </text>
<text text-anchor="start" x="927.47" y="-117" font-family="Arial" font-size="14.00" fill="#666666">[boolean]</text>
<polygon fill="none" stroke="black" points="866,-74 866,-104.8 1155.93,-104.8 1155.93,-74 866,-74"/>
<text text-anchor="start" x="873" y="-86.2" font-family="Arial" font-size="14.00">details </text>
<text text-anchor="start" x="917.36" y="-86.2" font-family="Arial" font-size="14.00" fill="#666666">[text]</text>
<polygon fill="none" stroke="black" points="866,-43.2 866,-74 1155.93,-74 1155.93,-43.2 866,-43.2"/>
<text text-anchor="start" x="873" y="-55.4" font-family="Arial" font-size="14.00">uml_comment </text>
<text text-anchor="start" x="964.81" y="-55.4" font-family="Arial" font-size="14.00" fill="#666666">[text]</text>
</g>
<!-- public.use_case&#45;&gt;public.generalization -->
<g id="edge3" class="edge">
<title>public.use_case:model_key&#45;&gt;public.generalization:model_key</title>
<path fill="none" stroke="black" d="M956.32,-711.99C1083.96,-701.68 1015.5,-496.92 935.94,-373.6 915.04,-341.2 878.03,-369.92 857,-337.6 834.17,-302.5 814.13,-243.4 865,-243.4"/>
<polygon fill="black" stroke="black" points="956.27,-712 946.1,-707.89 950.94,-712.2 946.61,-712.37 946.61,-712.37 946.61,-712.37 950.94,-712.2 946.45,-716.88 956.27,-712"/>
<text text-anchor="start" x="952.94" y="-722.4" font-family="Arial" font-size="10.00">FOREIGN KEY (model_key, subclass_of_key) REFERENCES generalization(model_key, generalization_key) ON DELETE CASCADE</text>
</g>
<!-- public.use_case&#45;&gt;public.generalization -->
<g id="edge4" class="edge">
<title>public.use_case:model_key&#45;&gt;public.generalization:model_key</title>
<path fill="none" stroke="black" d="M956.78,-712.05C1102.24,-702.51 1033.66,-497.17 953.94,-373.6 933.04,-341.2 896.03,-369.92 875,-337.6 852.26,-302.64 832.29,-243.86 864.62,-243.4"/>
<polygon fill="black" stroke="black" points="956.74,-712.06 946.59,-707.89 951.4,-712.23 947.08,-712.38 947.08,-712.38 947.08,-712.38 951.4,-712.23 946.89,-716.89 956.74,-712.06"/>
<text text-anchor="start" x="953.41" y="-696.4" font-family="Arial" font-size="10.00">FOREIGN KEY (model_key, superclass_of_key) REFERENCES generalization(model_key, generalization_key) ON DELETE CASCADE</text>
</g>
<!-- public.use_case_actor -->
<g id="node5" class="node">
<title>public.use_case_actor</title>
<polygon fill="#efefef" stroke="none" points="263.51,-1042.8 263.51,-1078.4 560.43,-1078.4 560.43,-1042.8 263.51,-1042.8"/>
<polygon fill="none" stroke="black" points="263.51,-1042.8 263.51,-1078.4 560.43,-1078.4 560.43,-1042.8 263.51,-1042.8"/>
<text text-anchor="start" x="270.51" y="-1056.2" font-family="Arial Bold" font-size="18.00">public.use_case_actor</text>
<text text-anchor="start" x="428.94" y="-1056.2" font-family="Arial" font-size="14.00">    </text>
<text text-anchor="start" x="460.05" y="-1056.2" font-family="Arial" font-size="14.00" fill="#666666">[BASE TABLE]</text>
<polygon fill="none" stroke="black" points="263.51,-1012 263.51,-1042.8 560.43,-1042.8 560.43,-1012 263.51,-1012"/>
<text text-anchor="start" x="270.51" y="-1024.2" font-family="Arial" font-size="14.00">model_key </text>
<text text-anchor="start" x="342.1" y="-1024.2" font-family="Arial" font-size="14.00" fill="#666666">[text]</text>
<polygon fill="none" stroke="black" points="263.51,-981.2 263.51,-1012 560.43,-1012 560.43,-981.2 263.51,-981.2"/>
<text text-anchor="start" x="270.51" y="-993.4" font-family="Arial" font-size="14.00">use_case_key </text>
<text text-anchor="start" x="363.9" y="-993.4" font-family="Arial" font-size="14.00" fill="#666666">[text]</text>
<polygon fill="none" stroke="black" points="263.51,-950.4 263.51,-981.2 560.43,-981.2 560.43,-950.4 263.51,-950.4"/>
<text text-anchor="start" x="270.51" y="-962.6" font-family="Arial" font-size="14.00">actor_key </text>
<text text-anchor="start" x="335.09" y="-962.6" font-family="Arial" font-size="14.00" fill="#666666">[text]</text>
<polygon fill="none" stroke="black" points="263.51,-919.6 263.51,-950.4 560.43,-950.4 560.43,-919.6 263.51,-919.6"/>
<text text-anchor="start" x="270.51" y="-931.8" font-family="Arial" font-size="14.00">uml_comment </text>
<text text-anchor="start" x="362.31" y="-931.8" font-family="Arial" font-size="14.00" fill="#666666">[text]</text>
</g>
<!-- public.use_case_actor&#45;&gt;public.use_case -->
<g id="edge5" class="edge">
<title>public.use_case_actor:model_key&#45;&gt;public.use_case:model_key</title>
<path fill="none" stroke="black" d="M571.44,-1026.83C639.96,-1018.46 581.23,-919.45 612.97,-845.6 640.14,-782.36 623.16,-712.4 691.99,-712.4"/>
<polygon fill="black" stroke="black" points="571.74,-1026.81 561.51,-1022.89 566.42,-1027.12 562.09,-1027.36 562.09,-1027.36 562.09,-1027.36 566.42,-1027.12 562.02,-1031.87 571.74,-1026.81"/>
<text text-anchor="start" x="7" y="-1037.4" font-family="Arial" font-size="10.00">FOREIGN KEY (model_key, use_case_key) REFERENCES use_case(model_key, use_case_key) ON DELETE CASCADE</text>
</g>
<!-- public.use_case_shared -->
<g id="node6" class="node">
<title>public.use_case_shared</title>
<polygon fill="#efefef" stroke="none" points="665,-1058.2 665,-1093.8 972.93,-1093.8 972.93,-1058.2 665,-1058.2"/>
<polygon fill="none" stroke="black" points="665,-1058.2 665,-1093.8 972.93,-1093.8 972.93,-1058.2 665,-1058.2"/>
<text text-anchor="start" x="672" y="-1071.6" font-family="Arial Bold" font-size="18.00">public.use_case_shared</text>
<text text-anchor="start" x="841.44" y="-1071.6" font-family="Arial" font-size="14.00">    </text>
<text text-anchor="start" x="872.56" y="-1071.6" font-family="Arial" font-size="14.00" fill="#666666">[BASE TABLE]</text>
<polygon fill="none" stroke="black" points="665,-1027.4 665,-1058.2 972.93,-1058.2 972.93,-1027.4 665,-1027.4"/>
<text text-anchor="start" x="672" y="-1039.6" font-family="Arial" font-size="14.00">model_key </text>
<text text-anchor="start" x="743.6" y="-1039.6" font-family="Arial" font-size="14.00" fill="#666666">[text]</text>
<polygon fill="none" stroke="black" points="665,-996.6 665,-1027.4 972.93,-1027.4 972.93,-996.6 665,-996.6"/>
<text text-anchor="start" x="672" y="-1008.8" font-family="Arial" font-size="14.00">sea_use_case_key </text>
<text text-anchor="start" x="795.75" y="-1008.8" font-family="Arial" font-size="14.00" fill="#666666">[text]</text>
<polygon fill="none" stroke="black" points="665,-965.8 665,-996.6 972.93,-996.6 972.93,-965.8 665,-965.8"/>
<text text-anchor="start" x="672" y="-978" font-family="Arial" font-size="14.00">mud_use_case_key </text>
<text text-anchor="start" x="800.42" y="-978" font-family="Arial" font-size="14.00" fill="#666666">[text]</text>
<polygon fill="none" stroke="black" points="665,-935 665,-965.8 972.93,-965.8 972.93,-935 665,-935"/>
<text text-anchor="start" x="672" y="-947.2" font-family="Arial" font-size="14.00">share_type </text>
<text text-anchor="start" x="745.16" y="-947.2" font-family="Arial" font-size="14.00" fill="#666666">[share_type]</text>
<polygon fill="none" stroke="black" points="665,-904.2 665,-935 972.93,-935 972.93,-904.2 665,-904.2"/>
<text text-anchor="start" x="672" y="-916.4" font-family="Arial" font-size="14.00">uml_comment </text>
<text text-anchor="start" x="763.81" y="-916.4" font-family="Arial" font-size="14.00" fill="#666666">[text]</text>
</g>
<!-- public.use_case_shared&#45;&gt;public.use_case -->
<g id="edge6" class="edge">
<title>public.use_case_shared:model_key&#45;&gt;public.use_case:model_key</title>
<path fill="none" stroke="black" d="M983.72,-1039.94C1035.44,-1007.65 1007.09,-712.4 945.94,-712.4"/>
<polygon fill="black" stroke="black" points="983.85,-1039.91 972.99,-1038.39 978.73,-1041.4 974.57,-1042.61 974.57,-1042.61 974.57,-1042.61 978.73,-1041.4 975.51,-1047.03 983.85,-1039.91"/>
<text text-anchor="start" x="980.93" y="-1052.8" font-family="Arial" font-size="10.00">FOREIGN KEY (model_key, mud_use_case_key) REFERENCES use_case(model_key, use_case_key) ON DELETE CASCADE</text>
</g>
<!-- public.use_case_shared&#45;&gt;public.use_case -->
<g id="edge7" class="edge">
<title>public.use_case_shared:model_key&#45;&gt;public.use_case:model_key</title>
<path fill="none" stroke="black" d="M984.37,-1040.87C1053.86,-1013.94 1025.04,-713.63 946.42,-712.4"/>
<polygon fill="black" stroke="black" points="984.56,-1040.84 973.89,-1038.31 979.32,-1041.85 975.07,-1042.67 975.07,-1042.67 975.07,-1042.67 979.32,-1041.85 975.59,-1047.15 984.56,-1040.84"/>
<text text-anchor="start" x="981.41" y="-1026.8" font-family="Arial" font-size="10.00">FOREIGN KEY (model_key, sea_use_case_key) REFERENCES use_case(model_key, use_case_key) ON DELETE CASCADE</text>
</g>
<!-- public.scenario -->
<g id="node7" class="node">
<title>public.scenario</title>
<polygon fill="#efefef" stroke="none" points="1076.99,-1073.6 1076.99,-1109.2 1324.94,-1109.2 1324.94,-1073.6 1076.99,-1073.6"/>
<polygon fill="none" stroke="black" points="1076.99,-1073.6 1076.99,-1109.2 1324.94,-1109.2 1324.94,-1073.6 1076.99,-1073.6"/>
<text text-anchor="start" x="1083.99" y="-1087" font-family="Arial Bold" font-size="18.00">public.scenario</text>
<text text-anchor="start" x="1193.45" y="-1087" font-family="Arial" font-size="14.00">    </text>
<text text-anchor="start" x="1224.57" y="-1087" font-family="Arial" font-size="14.00" fill="#666666">[BASE TABLE]</text>
<polygon fill="none" stroke="black" points="1076.99,-1042.8 1076.99,-1073.6 1324.94,-1073.6 1324.94,-1042.8 1076.99,-1042.8"/>
<text text-anchor="start" x="1083.99" y="-1055" font-family="Arial" font-size="14.00">model_key </text>
<text text-anchor="start" x="1155.58" y="-1055" font-family="Arial" font-size="14.00" fill="#666666">[text]</text>
<polygon fill="none" stroke="black" points="1076.99,-1012 1076.99,-1042.8 1324.94,-1042.8 1324.94,-1012 1076.99,-1012"/>
<text text-anchor="start" x="1083.99" y="-1024.2" font-family="Arial" font-size="14.00">scenario_key </text>
<text text-anchor="start" x="1170.37" y="-1024.2" font-family="Arial" font-size="14.00" fill="#666666">[text]</text>
<polygon fill="none" stroke="black" points="1076.99,-981.2 1076.99,-1012 1324.94,-1012 1324.94,-981.2 1076.99,-981.2"/>
<text text-anchor="start" x="1083.99" y="-993.4" font-family="Arial" font-size="14.00">name </text>
<text text-anchor="start" x="1122.9" y="-993.4" font-family="Arial" font-size="14.00" fill="#666666">[text]</text>
<polygon fill="none" stroke="black" points="1076.99,-950.4 1076.99,-981.2 1324.94,-981.2 1324.94,-950.4 1076.99,-950.4"/>
<text text-anchor="start" x="1083.99" y="-962.6" font-family="Arial" font-size="14.00">use_case_key </text>
<text text-anchor="start" x="1177.38" y="-962.6" font-family="Arial" font-size="14.00" fill="#666666">[text]</text>
<polygon fill="none" stroke="black" points="1076.99,-919.6 1076.99,-950.4 1324.94,-950.4 1324.94,-919.6 1076.99,-919.6"/>
<text text-anchor="start" x="1083.99" y="-931.8" font-family="Arial" font-size="14.00">details </text>
<text text-anchor="start" x="1128.35" y="-931.8" font-family="Arial" font-size="14.00" fill="#666666">[text]</text>
<polygon fill="none" stroke="black" points="1076.99,-888.8 1076.99,-919.6 1324.94,-919.6 1324.94,-888.8 1076.99,-888.8"/>
<text text-anchor="start" x="1083.99" y="-901" font-family="Arial" font-size="14.00">steps </text>
<text text-anchor="start" x="1121.34" y="-901" font-family="Arial" font-size="14.00" fill="#666666">[jsonb]</text>
</g>
<!-- public.scenario&#45;&gt;public.use_case -->
<g id="edge8" class="edge">
<title>public.scenario:model_key&#45;&gt;public.use_case:model_key</title>
<path fill="none" stroke="black" d="M1065.9,-1057.7C984.79,-1049.15 1060.15,-932.3 1024.97,-845.6 999.08,-781.82 1014.77,-712.4 945.94,-712.4"/>
<polygon fill="black" stroke="black" points="1065.67,-1057.69 1075.44,-1062.68 1071,-1057.95 1075.32,-1058.17 1075.32,-1058.17 1075.32,-1058.17 1071,-1057.95 1075.88,-1053.69 1065.67,-1057.69"/>
<text text-anchor="start" x="1082.99" y="-1068.2" font-family="Arial" font-size="10.00">FOREIGN KEY (model_key, use_case_key) REFERENCES use_case(model_key, use_case_key) ON DELETE CASCADE</text>
</g>
</g>
</svg>
