<?xml version="1.0" encoding="UTF-8" standalone="no"?>
<!DOCTYPE svg PUBLIC "-//W3C//DTD SVG 1.1//EN"
 "http://www.w3.org/Graphics/SVG/1.1/DTD/svg11.dtd">
<!-- Generated by graphviz version 12.1.2 (20240928.0832)
 -->
<!-- Title: public.association Pages: 1 -->
<svg width="1242pt" height="941pt"
 viewBox="0.00 0.00 1241.79 940.80" xmlns="http://www.w3.org/2000/svg" xmlns:xlink="http://www.w3.org/1999/xlink">
<g id="graph0" class="graph" transform="scale(1 1) rotate(0) translate(4 936.8)">
<title>public.association</title>
<polygon fill="white" stroke="none" points="-4,4 -4,-936.8 1237.79,-936.8 1237.79,4 -4,4"/>
<!-- public.association -->
<g id="node1" class="node">
<title>public.association</title>
<polygon fill="#efefef" stroke="none" points="407.88,-851 407.88,-886.6 675.84,-886.6 675.84,-851 407.88,-851"/>
<polygon fill="none" stroke="black" points="407.88,-851 407.88,-886.6 675.84,-886.6 675.84,-851 407.88,-851"/>
<text text-anchor="start" x="414.88" y="-864.4" font-family="Arial Bold" font-size="18.00">public.association</text>
<text text-anchor="start" x="544.35" y="-864.4" font-family="Arial" font-size="14.00">    </text>
<text text-anchor="start" x="575.47" y="-864.4" font-family="Arial" font-size="14.00" fill="#666666">[BASE TABLE]</text>
<polygon fill="none" stroke="black" points="407.88,-820.2 407.88,-851 675.84,-851 675.84,-820.2 407.88,-820.2"/>
<text text-anchor="start" x="414.88" y="-832.4" font-family="Arial" font-size="14.00">model_key </text>
<text text-anchor="start" x="486.47" y="-832.4" font-family="Arial" font-size="14.00" fill="#666666">[text]</text>
<polygon fill="none" stroke="black" points="407.88,-789.4 407.88,-820.2 675.84,-820.2 675.84,-789.4 407.88,-789.4"/>
<text text-anchor="start" x="414.88" y="-801.6" font-family="Arial" font-size="14.00">association_key </text>
<text text-anchor="start" x="518.38" y="-801.6" font-family="Arial" font-size="14.00" fill="#666666">[text]</text>
<polygon fill="none" stroke="black" points="407.88,-758.6 407.88,-789.4 675.84,-789.4 675.84,-758.6 407.88,-758.6"/>
<text text-anchor="start" x="414.88" y="-770.8" font-family="Arial" font-size="14.00">from_class_key </text>
<text text-anchor="start" x="516.03" y="-770.8" font-family="Arial" font-size="14.00" fill="#666666">[text]</text>
<polygon fill="none" stroke="black" points="407.88,-727.8 407.88,-758.6 675.84,-758.6 675.84,-727.8 407.88,-727.8"/>
<text text-anchor="start" x="414.88" y="-740" font-family="Arial" font-size="14.00">from_multiplicity_lower </text>
<text text-anchor="start" x="560.36" y="-740" font-family="Arial" font-size="14.00" fill="#666666">[integer]</text>
<polygon fill="none" stroke="black" points="407.88,-697 407.88,-727.8 675.84,-727.8 675.84,-697 407.88,-697"/>
<text text-anchor="start" x="414.88" y="-709.2" font-family="Arial" font-size="14.00">from_multiplicity_higher </text>
<text text-anchor="start" x="565.83" y="-709.2" font-family="Arial" font-size="14.00" fill="#666666">[integer]</text>
<polygon fill="none" stroke="black" points="407.88,-666.2 407.88,-697 675.84,-697 675.84,-666.2 407.88,-666.2"/>
<text text-anchor="start" x="414.88" y="-678.4" font-family="Arial" font-size="14.00">to_class_key </text>
<text text-anchor="start" x="499.7" y="-678.4" font-family="Arial" font-size="14.00" fill="#666666">[text]</text>
<polygon fill="none" stroke="black" points="407.88,-635.4 407.88,-666.2 675.84,-666.2 675.84,-635.4 407.88,-635.4"/>
<text text-anchor="start" x="414.88" y="-647.6" font-family="Arial" font-size="14.00">to_multiplicity_lower </text>
<text text-anchor="start" x="544.04" y="-647.6" font-family="Arial" font-size="14.00" fill="#666666">[integer]</text>
<polygon fill="none" stroke="black" points="407.88,-604.6 407.88,-635.4 675.84,-635.4 675.84,-604.6 407.88,-604.6"/>
<text text-anchor="start" x="414.88" y="-616.8" font-family="Arial" font-size="14.00">to_multiplicity_higher </text>
<text text-anchor="start" x="549.5" y="-616.8" font-family="Arial" font-size="14.00" fill="#666666">[integer]</text>
<polygon fill="none" stroke="black" points="407.88,-573.8 407.88,-604.6 675.84,-604.6 675.84,-573.8 407.88,-573.8"/>
<text text-anchor="start" x="414.88" y="-586" font-family="Arial" font-size="14.00">name </text>
<text text-anchor="start" x="453.79" y="-586" font-family="Arial" font-size="14.00" fill="#666666">[text]</text>
<polygon fill="none" stroke="black" points="407.88,-543 407.88,-573.8 675.84,-573.8 675.84,-543 407.88,-543"/>
<text text-anchor="start" x="414.88" y="-555.2" font-family="Arial" font-size="14.00">association_class_key </text>
<text text-anchor="start" x="558.07" y="-555.2" font-family="Arial" font-size="14.00" fill="#666666">[text]</text>
<polygon fill="none" stroke="black" points="407.88,-512.2 407.88,-543 675.84,-543 675.84,-512.2 407.88,-512.2"/>
<text text-anchor="start" x="414.88" y="-524.4" font-family="Arial" font-size="14.00">details </text>
<text text-anchor="start" x="459.24" y="-524.4" font-family="Arial" font-size="14.00" fill="#666666">[text]</text>
<polygon fill="none" stroke="black" points="407.88,-481.4 407.88,-512.2 675.84,-512.2 675.84,-481.4 407.88,-481.4"/>
<text text-anchor="start" x="414.88" y="-493.6" font-family="Arial" font-size="14.00">uml_comment </text>
<text text-anchor="start" x="506.69" y="-493.6" font-family="Arial" font-size="14.00" fill="#666666">[text]</text>
<polygon fill="none" stroke="black" stroke-width="3" points="406.38,-479.9 406.38,-888.1 677.34,-888.1 677.34,-479.9 406.38,-479.9"/>
</g>
<!-- public.model -->
<g id="node2" class="node">
<title>public.model</title>
<polygon fill="#efefef" stroke="none" points="93.38,-228 93.38,-263.6 326.35,-263.6 326.35,-228 93.38,-228"/>
<polygon fill="none" stroke="black" points="93.38,-228 93.38,-263.6 326.35,-263.6 326.35,-228 93.38,-228"/>
<text text-anchor="start" x="100.38" y="-241.4" font-family="Arial Bold" font-size="18.00">public.model</text>
<text text-anchor="start" x="194.86" y="-241.4" font-family="Arial" font-size="14.00">    </text>
<text text-anchor="start" x="225.98" y="-241.4" font-family="Arial" font-size="14.00" fill="#666666">[BASE TABLE]</text>
<polygon fill="none" stroke="black" points="93.38,-197.2 93.38,-228 326.35,-228 326.35,-197.2 93.38,-197.2"/>
<text text-anchor="start" x="100.38" y="-209.4" font-family="Arial" font-size="14.00">model_key </text>
<text text-anchor="start" x="171.97" y="-209.4" font-family="Arial" font-size="14.00" fill="#666666">[text]</text>
<polygon fill="none" stroke="black" points="93.38,-166.4 93.38,-197.2 326.35,-197.2 326.35,-166.4 93.38,-166.4"/>
<text text-anchor="start" x="100.38" y="-178.6" font-family="Arial" font-size="14.00">name </text>
<text text-anchor="start" x="139.29" y="-178.6" font-family="Arial" font-size="14.00" fill="#666666">[text]</text>
<polygon fill="none" stroke="black" points="93.38,-135.6 93.38,-166.4 326.35,-166.4 326.35,-135.6 93.38,-135.6"/>
<text text-anchor="start" x="100.38" y="-147.8" font-family="Arial" font-size="14.00">details </text>
<text text-anchor="start" x="144.73" y="-147.8" font-family="Arial" font-size="14.00" fill="#666666">[text]</text>
</g>
<!-- public.association&#45;&gt;public.model -->
<g id="edge1" class="edge">
<title>public.association:model_key&#45;&gt;public.model:model_key</title>
<path fill="none" stroke="black" d="M397.56,-831.29C342.65,-776.25 393.72,-212.6 327.35,-212.6"/>
<polygon fill="black" stroke="black" points="397.5,-831.26 404.69,-839.54 402.34,-833.5 406.27,-835.32 406.27,-835.32 406.27,-835.32 402.34,-833.5 408.47,-831.38 397.5,-831.26"/>
<text text-anchor="start" x="7" y="-845.6" font-family="Arial" font-size="10.00">FOREIGN KEY (model_key) REFERENCES model(model_key) ON DELETE CASCADE</text>
</g>
<!-- public.class -->
<g id="node3" class="node">
<title>public.class</title>
<polygon fill="#efefef" stroke="none" points="430.38,-320.4 430.38,-356 653.35,-356 653.35,-320.4 430.38,-320.4"/>
<polygon fill="none" stroke="black" points="430.38,-320.4 430.38,-356 653.35,-356 653.35,-320.4 430.38,-320.4"/>
<text text-anchor="start" x="437.38" y="-333.8" font-family="Arial Bold" font-size="18.00">public.class</text>
<text text-anchor="start" x="521.86" y="-333.8" font-family="Arial" font-size="14.00">    </text>
<text text-anchor="start" x="552.97" y="-333.8" font-family="Arial" font-size="14.00" fill="#666666">[BASE TABLE]</text>
<polygon fill="none" stroke="black" points="430.38,-289.6 430.38,-320.4 653.35,-320.4 653.35,-289.6 430.38,-289.6"/>
<text text-anchor="start" x="437.38" y="-301.8" font-family="Arial" font-size="14.00">model_key </text>
<text text-anchor="start" x="508.97" y="-301.8" font-family="Arial" font-size="14.00" fill="#666666">[text]</text>
<polygon fill="none" stroke="black" points="430.38,-258.8 430.38,-289.6 653.35,-289.6 653.35,-258.8 430.38,-258.8"/>
<text text-anchor="start" x="437.38" y="-271" font-family="Arial" font-size="14.00">class_key </text>
<text text-anchor="start" x="502.73" y="-271" font-family="Arial" font-size="14.00" fill="#666666">[text]</text>
<polygon fill="none" stroke="black" points="430.38,-228 430.38,-258.8 653.35,-258.8 653.35,-228 430.38,-228"/>
<text text-anchor="start" x="437.38" y="-240.2" font-family="Arial" font-size="14.00">name </text>
<text text-anchor="start" x="476.29" y="-240.2" font-family="Arial" font-size="14.00" fill="#666666">[text]</text>
<polygon fill="none" stroke="black" points="430.38,-197.2 430.38,-228 653.35,-228 653.35,-197.2 430.38,-197.2"/>
<text text-anchor="start" x="437.38" y="-209.4" font-family="Arial" font-size="14.00">subdomain_key </text>
<text text-anchor="start" x="539.33" y="-209.4" font-family="Arial" font-size="14.00" fill="#666666">[text]</text>
<polygon fill="none" stroke="black" points="430.38,-166.4 430.38,-197.2 653.35,-197.2 653.35,-166.4 430.38,-166.4"/>
<text text-anchor="start" x="437.38" y="-178.6" font-family="Arial" font-size="14.00">actor_key </text>
<text text-anchor="start" x="501.96" y="-178.6" font-family="Arial" font-size="14.00" fill="#666666">[text]</text>
<polygon fill="none" stroke="black" points="430.38,-135.6 430.38,-166.4 653.35,-166.4 653.35,-135.6 430.38,-135.6"/>
<text text-anchor="start" x="437.38" y="-147.8" font-family="Arial" font-size="14.00">superclass_of_key </text>
<text text-anchor="start" x="557.22" y="-147.8" font-family="Arial" font-size="14.00" fill="#666666">[text]</text>
<polygon fill="none" stroke="black" points="430.38,-104.8 430.38,-135.6 653.35,-135.6 653.35,-104.8 430.38,-104.8"/>
<text text-anchor="start" x="437.38" y="-117" font-family="Arial" font-size="14.00">subclass_of_key </text>
<text text-anchor="start" x="544.77" y="-117" font-family="Arial" font-size="14.00" fill="#666666">[text]</text>
<polygon fill="none" stroke="black" points="430.38,-74 430.38,-104.8 653.35,-104.8 653.35,-74 430.38,-74"/>
<text text-anchor="start" x="437.38" y="-86.2" font-family="Arial" font-size="14.00">details </text>
<text text-anchor="start" x="481.73" y="-86.2" font-family="Arial" font-size="14.00" fill="#666666">[text]</text>
<polygon fill="none" stroke="black" points="430.38,-43.2 430.38,-74 653.35,-74 653.35,-43.2 430.38,-43.2"/>
<text text-anchor="start" x="437.38" y="-55.4" font-family="Arial" font-size="14.00">uml_comment </text>
<text text-anchor="start" x="529.18" y="-55.4" font-family="Arial" font-size="14.00" fill="#666666">[text]</text>
</g>
<!-- public.association&#45;&gt;public.class -->
<g id="edge2" class="edge">
<title>public.association:model_key&#45;&gt;public.class:model_key</title>
<path fill="none" stroke="black" d="M684.38,-828.5C714.69,-765.54 692.55,-305 654.35,-305"/>
<polygon fill="black" stroke="black" points="684.36,-828.51 674,-832.1 680.48,-832.17 677.33,-835.14 677.33,-835.14 677.33,-835.14 680.48,-832.17 680.17,-838.65 684.36,-828.51"/>
<text text-anchor="start" x="683.84" y="-845.6" font-family="Arial" font-size="10.00">FOREIGN KEY (model_key, association_class_key) REFERENCES class(model_key, class_key) ON DELETE CASCADE</text>
</g>
<!-- public.association&#45;&gt;public.class -->
<g id="edge3" class="edge">
<title>public.association:model_key&#45;&gt;public.class:model_key</title>
<path fill="none" stroke="black" d="M686.06,-830.72C733.1,-777.52 710.12,-306.95 654.69,-305.01"/>
<polygon fill="black" stroke="black" points="686.25,-830.62 675.31,-831.49 681.57,-833.19 677.77,-835.27 677.77,-835.27 677.77,-835.27 681.57,-833.19 679.65,-839.38 686.25,-830.62"/>
<text text-anchor="start" x="684.19" y="-819.59" font-family="Arial" font-size="10.00">FOREIGN KEY (model_key, from_class_key) REFERENCES class(model_key, class_key) ON DELETE CASCADE</text>
</g>
<!-- public.association&#45;&gt;public.class -->
<g id="edge4" class="edge">
<title>public.association:model_key&#45;&gt;public.class:model_key</title>
<path fill="none" stroke="black" d="M686.98,-832.24C751.5,-787.29 727.86,-306.97 654.8,-305.01"/>
<polygon fill="black" stroke="black" points="687.06,-832.21 676.14,-831.23 682.02,-833.96 677.92,-835.37 677.92,-835.37 677.92,-835.37 682.02,-833.96 679.08,-839.74 687.06,-832.21"/>
<text text-anchor="start" x="169.04" y="-819.59" font-family="Arial" font-size="10.00">FOREIGN KEY (model_key, to_class_key) REFERENCES class(model_key, class_key) ON DELETE CASCADE</text>
</g>
</g>
</svg>
