<?xml version="1.0" encoding="UTF-8" standalone="no"?>
<!DOCTYPE svg PUBLIC "-//W3C//DTD SVG 1.1//EN"
 "http://www.w3.org/Graphics/SVG/1.1/DTD/svg11.dtd">
<!-- Generated by graphviz version 12.1.2 (20240928.0832)
 -->
<!-- Title: public.field Pages: 1 -->
<svg width="767pt" height="694pt"
 viewBox="0.00 0.00 766.96 694.40" xmlns="http://www.w3.org/2000/svg" xmlns:xlink="http://www.w3.org/1999/xlink">
<g id="graph0" class="graph" transform="scale(1 1) rotate(0) translate(4 690.4)">
<title>public.field</title>
<polygon fill="white" stroke="none" points="-4,4 -4,-690.4 762.96,-690.4 762.96,4 -4,4"/>
<!-- public.field -->
<g id="node1" class="node">
<title>public.field</title>
<polygon fill="#efefef" stroke="none" points="61.69,-604.6 61.69,-640.2 282.66,-640.2 282.66,-604.6 61.69,-604.6"/>
<polygon fill="none" stroke="black" points="61.69,-604.6 61.69,-640.2 282.66,-640.2 282.66,-604.6 61.69,-604.6"/>
<text text-anchor="start" x="68.69" y="-618" font-family="Arial Bold" font-size="18.00">public.field</text>
<text text-anchor="start" x="151.17" y="-618" font-family="Arial" font-size="14.00">    </text>
<text text-anchor="start" x="182.29" y="-618" font-family="Arial" font-size="14.00" fill="#666666">[BASE TABLE]</text>
<polygon fill="none" stroke="black" points="61.69,-573.8 61.69,-604.6 282.66,-604.6 282.66,-573.8 61.69,-573.8"/>
<text text-anchor="start" x="68.69" y="-586" font-family="Arial" font-size="14.00">field_id </text>
<text text-anchor="start" x="116.95" y="-586" font-family="Arial" font-size="14.00" fill="#666666">[integer]</text>
<polygon fill="none" stroke="black" points="61.69,-543 61.69,-573.8 282.66,-573.8 282.66,-543 61.69,-543"/>
<text text-anchor="start" x="68.69" y="-555.2" font-family="Arial" font-size="14.00">record_data_type_id </text>
<text text-anchor="start" x="200.23" y="-555.2" font-family="Arial" font-size="14.00" fill="#666666">[bigint]</text>
<polygon fill="none" stroke="black" points="61.69,-512.2 61.69,-543 282.66,-543 282.66,-512.2 61.69,-512.2"/>
<text text-anchor="start" x="68.69" y="-524.4" font-family="Arial" font-size="14.00">name </text>
<text text-anchor="start" x="107.6" y="-524.4" font-family="Arial" font-size="14.00" fill="#666666">[text]</text>
<polygon fill="none" stroke="black" points="61.69,-481.4 61.69,-512.2 282.66,-512.2 282.66,-481.4 61.69,-481.4"/>
<text text-anchor="start" x="68.69" y="-493.6" font-family="Arial" font-size="14.00">field_data_type_id </text>
<text text-anchor="start" x="186.23" y="-493.6" font-family="Arial" font-size="14.00" fill="#666666">[bigint]</text>
<polygon fill="none" stroke="black" points="61.69,-450.6 61.69,-481.4 282.66,-481.4 282.66,-450.6 61.69,-450.6"/>
<text text-anchor="start" x="68.69" y="-462.8" font-family="Arial" font-size="14.00">details </text>
<text text-anchor="start" x="113.05" y="-462.8" font-family="Arial" font-size="14.00" fill="#666666">[text]</text>
<polygon fill="none" stroke="black" points="61.69,-419.8 61.69,-450.6 282.66,-450.6 282.66,-419.8 61.69,-419.8"/>
<text text-anchor="start" x="68.69" y="-432" font-family="Arial" font-size="14.00">uml_comment </text>
<text text-anchor="start" x="160.5" y="-432" font-family="Arial" font-size="14.00" fill="#666666">[text]</text>
<polygon fill="none" stroke="black" stroke-width="3" points="60.19,-418.3 60.19,-641.7 284.16,-641.7 284.16,-418.3 60.19,-418.3"/>
</g>
<!-- public.data_type -->
<g id="node2" class="node">
<title>public.data_type</title>
<polygon fill="#efefef" stroke="none" points="43.2,-258.8 43.2,-294.4 301.15,-294.4 301.15,-258.8 43.2,-258.8"/>
<polygon fill="none" stroke="black" points="43.2,-258.8 43.2,-294.4 301.15,-294.4 301.15,-258.8 43.2,-258.8"/>
<text text-anchor="start" x="50.2" y="-272.2" font-family="Arial Bold" font-size="18.00">public.data_type</text>
<text text-anchor="start" x="169.66" y="-272.2" font-family="Arial" font-size="14.00">    </text>
<text text-anchor="start" x="200.78" y="-272.2" font-family="Arial" font-size="14.00" fill="#666666">[BASE TABLE]</text>
<polygon fill="none" stroke="black" points="43.2,-228 43.2,-258.8 301.15,-258.8 301.15,-228 43.2,-228"/>
<text text-anchor="start" x="50.2" y="-240.2" font-family="Arial" font-size="14.00">data_type_id </text>
<text text-anchor="start" x="134.27" y="-240.2" font-family="Arial" font-size="14.00" fill="#666666">[bigint]</text>
<polygon fill="none" stroke="black" points="43.2,-197.2 43.2,-228 301.15,-228 301.15,-197.2 43.2,-197.2"/>
<text text-anchor="start" x="50.2" y="-209.4" font-family="Arial" font-size="14.00">collection_type </text>
<text text-anchor="start" x="146.7" y="-209.4" font-family="Arial" font-size="14.00" fill="#666666">[collection_type]</text>
<polygon fill="none" stroke="black" points="43.2,-166.4 43.2,-197.2 301.15,-197.2 301.15,-166.4 43.2,-166.4"/>
<text text-anchor="start" x="50.2" y="-178.6" font-family="Arial" font-size="14.00">collection_unique </text>
<text text-anchor="start" x="162.28" y="-178.6" font-family="Arial" font-size="14.00" fill="#666666">[boolean]</text>
<polygon fill="none" stroke="black" points="43.2,-135.6 43.2,-166.4 301.15,-166.4 301.15,-135.6 43.2,-135.6"/>
<text text-anchor="start" x="50.2" y="-147.8" font-family="Arial" font-size="14.00">collection_min </text>
<text text-anchor="start" x="142.8" y="-147.8" font-family="Arial" font-size="14.00" fill="#666666">[bigint]</text>
<polygon fill="none" stroke="black" points="43.2,-104.8 43.2,-135.6 301.15,-135.6 301.15,-104.8 43.2,-104.8"/>
<text text-anchor="start" x="50.2" y="-117" font-family="Arial" font-size="14.00">collection_max </text>
<text text-anchor="start" x="146.69" y="-117" font-family="Arial" font-size="14.00" fill="#666666">[bigint]</text>
<polygon fill="none" stroke="black" points="43.2,-74 43.2,-104.8 301.15,-104.8 301.15,-74 43.2,-74"/>
<text text-anchor="start" x="50.2" y="-86.2" font-family="Arial" font-size="14.00">details </text>
<text text-anchor="start" x="94.56" y="-86.2" font-family="Arial" font-size="14.00" fill="#666666">[text]</text>
<polygon fill="none" stroke="black" points="43.2,-43.2 43.2,-74 301.15,-74 301.15,-43.2 43.2,-43.2"/>
<text text-anchor="start" x="50.2" y="-55.4" font-family="Arial" font-size="14.00">uml_comment </text>
<text text-anchor="start" x="142.01" y="-55.4" font-family="Arial" font-size="14.00" fill="#666666">[text]</text>
</g>
<!-- public.field&#45;&gt;public.data_type -->
<g id="edge1" class="edge">
<title>public.field:record_data_type_id&#45;&gt;public.data_type:data_type_id</title>
<path fill="none" stroke="black" d="M293.56,-556.22C355.37,-528.39 368.85,-243.4 302.15,-243.4"/>
<polygon fill="black" stroke="black" points="293.75,-556.18 283.02,-553.93 288.54,-557.32 284.31,-558.26 284.31,-558.26 284.31,-558.26 288.54,-557.32 284.95,-562.72 293.75,-556.18"/>
<text text-anchor="start" x="290.66" y="-568.4" font-family="Arial" font-size="10.00">FOREIGN KEY (record_data_type_id) REFERENCES data_type(data_type_id) ON DELETE CASCADE</text>
</g>
<!-- public.field&#45;&gt;public.data_type -->
<g id="edge2" class="edge">
<title>public.field:field_data_type_id&#45;&gt;public.data_type:data_type_id</title>
<path fill="none" stroke="black" d="M293.49,-494.13C342.08,-467.04 355.19,-243.4 302.15,-243.4"/>
<polygon fill="black" stroke="black" points="293.63,-494.09 282.8,-492.37 288.48,-495.49 284.3,-496.62 284.3,-496.62 284.3,-496.62 288.48,-495.49 285.16,-501.05 293.63,-494.09"/>
<text text-anchor="start" x="290.66" y="-506.8" font-family="Arial" font-size="10.00">FOREIGN KEY (field_data_type_id) REFERENCES data_type(data_type_id) ON DELETE CASCADE</text>
</g>
</g>
</svg>
