<?xml version="1.0" encoding="UTF-8" standalone="no"?>
<!DOCTYPE svg PUBLIC "-//W3C//DTD SVG 1.1//EN"
 "http://www.w3.org/Graphics/SVG/1.1/DTD/svg11.dtd">
<!-- Generated by graphviz version 12.1.2 (20240928.0832)
 -->
<!-- Title: public.data_type Pages: 1 -->
<svg width="816pt" height="1068pt"
 viewBox="0.00 0.00 815.55 1068.00" xmlns="http://www.w3.org/2000/svg" xmlns:xlink="http://www.w3.org/1999/xlink">
<g id="graph0" class="graph" transform="scale(1 1) rotate(0) translate(4 1064)">
<title>public.data_type</title>
<polygon fill="white" stroke="none" points="-4,4 -4,-1064 811.55,-1064 811.55,4 -4,4"/>
<!-- public.data_type -->
<g id="node1" class="node">
<title>public.data_type</title>
<polygon fill="#efefef" stroke="none" points="72.19,-635.4 72.19,-671 330.14,-671 330.14,-635.4 72.19,-635.4"/>
<polygon fill="none" stroke="black" points="72.19,-635.4 72.19,-671 330.14,-671 330.14,-635.4 72.19,-635.4"/>
<text text-anchor="start" x="79.19" y="-648.8" font-family="Arial Bold" font-size="18.00">public.data_type</text>
<text text-anchor="start" x="198.65" y="-648.8" font-family="Arial" font-size="14.00">    </text>
<text text-anchor="start" x="229.77" y="-648.8" font-family="Arial" font-size="14.00" fill="#666666">[BASE TABLE]</text>
<polygon fill="none" stroke="black" points="72.19,-604.6 72.19,-635.4 330.14,-635.4 330.14,-604.6 72.19,-604.6"/>
<text text-anchor="start" x="79.19" y="-616.8" font-family="Arial" font-size="14.00">data_type_id </text>
<text text-anchor="start" x="163.26" y="-616.8" font-family="Arial" font-size="14.00" fill="#666666">[bigint]</text>
<polygon fill="none" stroke="black" points="72.19,-573.8 72.19,-604.6 330.14,-604.6 330.14,-573.8 72.19,-573.8"/>
<text text-anchor="start" x="79.19" y="-586" font-family="Arial" font-size="14.00">collection_type </text>
<text text-anchor="start" x="175.69" y="-586" font-family="Arial" font-size="14.00" fill="#666666">[collection_type]</text>
<polygon fill="none" stroke="black" points="72.19,-543 72.19,-573.8 330.14,-573.8 330.14,-543 72.19,-543"/>
<text text-anchor="start" x="79.19" y="-555.2" font-family="Arial" font-size="14.00">collection_unique </text>
<text text-anchor="start" x="191.27" y="-555.2" font-family="Arial" font-size="14.00" fill="#666666">[boolean]</text>
<polygon fill="none" stroke="black" points="72.19,-512.2 72.19,-543 330.14,-543 330.14,-512.2 72.19,-512.2"/>
<text text-anchor="start" x="79.19" y="-524.4" font-family="Arial" font-size="14.00">collection_min </text>
<text text-anchor="start" x="171.79" y="-524.4" font-family="Arial" font-size="14.00" fill="#666666">[bigint]</text>
<polygon fill="none" stroke="black" points="72.19,-481.4 72.19,-512.2 330.14,-512.2 330.14,-481.4 72.19,-481.4"/>
<text text-anchor="start" x="79.19" y="-493.6" font-family="Arial" font-size="14.00">collection_max </text>
<text text-anchor="start" x="175.68" y="-493.6" font-family="Arial" font-size="14.00" fill="#666666">[bigint]</text>
<polygon fill="none" stroke="black" points="72.19,-450.6 72.19,-481.4 330.14,-481.4 330.14,-450.6 72.19,-450.6"/>
<text text-anchor="start" x="79.19" y="-462.8" font-family="Arial" font-size="14.00">details </text>
<text text-anchor="start" x="123.55" y="-462.8" font-family="Arial" font-size="14.00" fill="#666666">[text]</text>
<polygon fill="none" stroke="black" points="72.19,-419.8 72.19,-450.6 330.14,-450.6 330.14,-419.8 72.19,-419.8"/>
<text text-anchor="start" x="79.19" y="-432" font-family="Arial" font-size="14.00">uml_comment </text>
<text text-anchor="start" x="171" y="-432" font-family="Arial" font-size="14.00" fill="#666666">[text]</text>
<polygon fill="none" stroke="black" stroke-width="3" points="70.69,-418.3 70.69,-672.5 331.64,-672.5 331.64,-418.3 70.69,-418.3"/>
</g>
<!-- public.data_type_atomic -->
<g id="node2" class="node">
<title>public.data_type_atomic</title>
<polygon fill="#efefef" stroke="none" points="43.2,-258.8 43.2,-294.4 359.13,-294.4 359.13,-258.8 43.2,-258.8"/>
<polygon fill="none" stroke="black" points="43.2,-258.8 43.2,-294.4 359.13,-294.4 359.13,-258.8 43.2,-258.8"/>
<text text-anchor="start" x="50.2" y="-272.2" font-family="Arial Bold" font-size="18.00">public.data_type_atomic</text>
<text text-anchor="start" x="227.64" y="-272.2" font-family="Arial" font-size="14.00">    </text>
<text text-anchor="start" x="258.76" y="-272.2" font-family="Arial" font-size="14.00" fill="#666666">[BASE TABLE]</text>
<polygon fill="none" stroke="black" points="43.2,-228 43.2,-258.8 359.13,-258.8 359.13,-228 43.2,-228"/>
<text text-anchor="start" x="50.2" y="-240.2" font-family="Arial" font-size="14.00">data_type_id </text>
<text text-anchor="start" x="134.27" y="-240.2" font-family="Arial" font-size="14.00" fill="#666666">[integer]</text>
<polygon fill="none" stroke="black" points="43.2,-197.2 43.2,-228 359.13,-228 359.13,-197.2 43.2,-197.2"/>
<text text-anchor="start" x="50.2" y="-209.4" font-family="Arial" font-size="14.00">constraint_type </text>
<text text-anchor="start" x="149.03" y="-209.4" font-family="Arial" font-size="14.00" fill="#666666">[constraint_type]</text>
<polygon fill="none" stroke="black" points="43.2,-166.4 43.2,-197.2 359.13,-197.2 359.13,-166.4 43.2,-166.4"/>
<text text-anchor="start" x="50.2" y="-178.6" font-family="Arial" font-size="14.00">reference </text>
<text text-anchor="start" x="113.23" y="-178.6" font-family="Arial" font-size="14.00" fill="#666666">[text]</text>
<polygon fill="none" stroke="black" points="43.2,-135.6 43.2,-166.4 359.13,-166.4 359.13,-135.6 43.2,-135.6"/>
<text text-anchor="start" x="50.2" y="-147.8" font-family="Arial" font-size="14.00">enum_ordered </text>
<text text-anchor="start" x="145.15" y="-147.8" font-family="Arial" font-size="14.00" fill="#666666">[boolean]</text>
<polygon fill="none" stroke="black" points="43.2,-104.8 43.2,-135.6 359.13,-135.6 359.13,-104.8 43.2,-104.8"/>
<text text-anchor="start" x="50.2" y="-117" font-family="Arial" font-size="14.00">object_class_key </text>
<text text-anchor="start" x="160.7" y="-117" font-family="Arial" font-size="14.00" fill="#666666">[text]</text>
<polygon fill="none" stroke="black" points="43.2,-74 43.2,-104.8 359.13,-104.8 359.13,-74 43.2,-74"/>
<text text-anchor="start" x="50.2" y="-86.2" font-family="Arial" font-size="14.00">details </text>
<text text-anchor="start" x="94.56" y="-86.2" font-family="Arial" font-size="14.00" fill="#666666">[text]</text>
<polygon fill="none" stroke="black" points="43.2,-43.2 43.2,-74 359.13,-74 359.13,-43.2 43.2,-43.2"/>
<text text-anchor="start" x="50.2" y="-55.4" font-family="Arial" font-size="14.00">uml_comment </text>
<text text-anchor="start" x="142.01" y="-55.4" font-family="Arial" font-size="14.00" fill="#666666">[text]</text>
</g>
<!-- public.data_type&#45;&gt;public.data_type_atomic -->
<g id="edge1" class="edge">
<title>public.data_type:data_type_id&#45;&gt;public.data_type_atomic:data_type_id</title>
<path fill="none" stroke="black" d="M341.19,-618.15C417.27,-589.74 440.63,-243.4 360.13,-243.4"/>
<polygon fill="black" stroke="black" points="341.3,-618.13 330.66,-615.51 336.06,-619.1 331.8,-619.88 331.8,-619.88 331.8,-619.88 336.06,-619.1 332.28,-624.37 341.3,-618.13"/>
<text text-anchor="start" x="338.14" y="-630" font-family="Arial" font-size="10.00">FOREIGN KEY (data_type_id) REFERENCES data_type_atomic(data_type_id) ON DELETE CASCADE</text>
</g>
<!-- public.field -->
<g id="node3" class="node">
<title>public.field</title>
<polygon fill="#efefef" stroke="none" points="90.68,-981.2 90.68,-1016.8 311.65,-1016.8 311.65,-981.2 90.68,-981.2"/>
<polygon fill="none" stroke="black" points="90.68,-981.2 90.68,-1016.8 311.65,-1016.8 311.65,-981.2 90.68,-981.2"/>
<text text-anchor="start" x="97.68" y="-994.6" font-family="Arial Bold" font-size="18.00">public.field</text>
<text text-anchor="start" x="180.16" y="-994.6" font-family="Arial" font-size="14.00">    </text>
<text text-anchor="start" x="211.28" y="-994.6" font-family="Arial" font-size="14.00" fill="#666666">[BASE TABLE]</text>
<polygon fill="none" stroke="black" points="90.68,-950.4 90.68,-981.2 311.65,-981.2 311.65,-950.4 90.68,-950.4"/>
<text text-anchor="start" x="97.68" y="-962.6" font-family="Arial" font-size="14.00">field_id </text>
<text text-anchor="start" x="145.94" y="-962.6" font-family="Arial" font-size="14.00" fill="#666666">[integer]</text>
<polygon fill="none" stroke="black" points="90.68,-919.6 90.68,-950.4 311.65,-950.4 311.65,-919.6 90.68,-919.6"/>
<text text-anchor="start" x="97.68" y="-931.8" font-family="Arial" font-size="14.00">record_data_type_id </text>
<text text-anchor="start" x="229.22" y="-931.8" font-family="Arial" font-size="14.00" fill="#666666">[bigint]</text>
<polygon fill="none" stroke="black" points="90.68,-888.8 90.68,-919.6 311.65,-919.6 311.65,-888.8 90.68,-888.8"/>
<text text-anchor="start" x="97.68" y="-901" font-family="Arial" font-size="14.00">name </text>
<text text-anchor="start" x="136.59" y="-901" font-family="Arial" font-size="14.00" fill="#666666">[text]</text>
<polygon fill="none" stroke="black" points="90.68,-858 90.68,-888.8 311.65,-888.8 311.65,-858 90.68,-858"/>
<text text-anchor="start" x="97.68" y="-870.2" font-family="Arial" font-size="14.00">field_data_type_id </text>
<text text-anchor="start" x="215.22" y="-870.2" font-family="Arial" font-size="14.00" fill="#666666">[bigint]</text>
<polygon fill="none" stroke="black" points="90.68,-827.2 90.68,-858 311.65,-858 311.65,-827.2 90.68,-827.2"/>
<text text-anchor="start" x="97.68" y="-839.4" font-family="Arial" font-size="14.00">details </text>
<text text-anchor="start" x="142.04" y="-839.4" font-family="Arial" font-size="14.00" fill="#666666">[text]</text>
<polygon fill="none" stroke="black" points="90.68,-796.4 90.68,-827.2 311.65,-827.2 311.65,-796.4 90.68,-796.4"/>
<text text-anchor="start" x="97.68" y="-808.6" font-family="Arial" font-size="14.00">uml_comment </text>
<text text-anchor="start" x="189.49" y="-808.6" font-family="Arial" font-size="14.00" fill="#666666">[text]</text>
</g>
<!-- public.field&#45;&gt;public.data_type -->
<g id="edge2" class="edge">
<title>public.field:record_data_type_id&#45;&gt;public.data_type:data_type_id</title>
<path fill="none" stroke="black" d="M322.55,-932.82C384.36,-904.99 397.84,-620 331.14,-620"/>
<polygon fill="black" stroke="black" points="322.74,-932.78 312.01,-930.53 317.53,-933.92 313.3,-934.86 313.3,-934.86 313.3,-934.86 317.53,-933.92 313.94,-939.32 322.74,-932.78"/>
<text text-anchor="start" x="319.65" y="-945" font-family="Arial" font-size="10.00">FOREIGN KEY (record_data_type_id) REFERENCES data_type(data_type_id) ON DELETE CASCADE</text>
</g>
<!-- public.field&#45;&gt;public.data_type -->
<g id="edge3" class="edge">
<title>public.field:field_data_type_id&#45;&gt;public.data_type:data_type_id</title>
<path fill="none" stroke="black" d="M322.96,-872.67C426.6,-857.81 440.53,-620 331.14,-620"/>
<polygon fill="black" stroke="black" points="322.96,-872.67 312.67,-868.89 317.64,-873.05 313.32,-873.35 313.32,-873.35 313.32,-873.35 317.64,-873.05 313.3,-877.87 322.96,-872.67"/>
<text text-anchor="start" x="319.65" y="-883.4" font-family="Arial" font-size="10.00">FOREIGN KEY (field_data_type_id) REFERENCES data_type(data_type_id) ON DELETE CASCADE</text>
</g>
</g>
</svg>
