<?xml version="1.0" encoding="UTF-8" standalone="no"?>
<!DOCTYPE svg PUBLIC "-//W3C//DTD SVG 1.1//EN"
 "http://www.w3.org/Graphics/SVG/1.1/DTD/svg11.dtd">
<!-- Generated by graphviz version 12.1.2 (20240928.0832)
 -->
<!-- Title: public.flow_object Pages: 1 -->
<svg width="818pt" height="1253pt"
 viewBox="0.00 0.00 817.73 1252.80" xmlns="http://www.w3.org/2000/svg" xmlns:xlink="http://www.w3.org/1999/xlink">
<g id="graph0" class="graph" transform="scale(1 1) rotate(0) translate(4 1248.8)">
<title>public.flow_object</title>
<polygon fill="white" stroke="none" points="-4,4 -4,-1248.8 813.73,-1248.8 813.73,4 -4,4"/>
<!-- public.flow_object -->
<g id="node1" class="node">
<title>public.flow_object</title>
<polygon fill="#efefef" stroke="none" points="69.7,-543 69.7,-578.6 343.65,-578.6 343.65,-543 69.7,-543"/>
<polygon fill="none" stroke="black" points="69.7,-543 69.7,-578.6 343.65,-578.6 343.65,-543 69.7,-543"/>
<text text-anchor="start" x="76.7" y="-556.4" font-family="Arial Bold" font-size="18.00">public.flow_object</text>
<text text-anchor="start" x="212.16" y="-556.4" font-family="Arial" font-size="14.00">    </text>
<text text-anchor="start" x="243.28" y="-556.4" font-family="Arial" font-size="14.00" fill="#666666">[BASE TABLE]</text>
<polygon fill="none" stroke="black" points="69.7,-512.2 69.7,-543 343.65,-543 343.65,-512.2 69.7,-512.2"/>
<text text-anchor="start" x="76.7" y="-524.4" font-family="Arial" font-size="14.00">object_id </text>
<text text-anchor="start" x="136.63" y="-524.4" font-family="Arial" font-size="14.00" fill="#666666">[integer]</text>
<polygon fill="none" stroke="black" points="69.7,-481.4 69.7,-512.2 343.65,-512.2 343.65,-481.4 69.7,-481.4"/>
<text text-anchor="start" x="76.7" y="-493.6" font-family="Arial" font-size="14.00">flow_id </text>
<text text-anchor="start" x="124.17" y="-493.6" font-family="Arial" font-size="14.00" fill="#666666">[bigint]</text>
<polygon fill="none" stroke="black" points="69.7,-450.6 69.7,-481.4 343.65,-481.4 343.65,-450.6 69.7,-450.6"/>
<text text-anchor="start" x="76.7" y="-462.8" font-family="Arial" font-size="14.00">class_key </text>
<text text-anchor="start" x="142.06" y="-462.8" font-family="Arial" font-size="14.00" fill="#666666">[text]</text>
<polygon fill="none" stroke="black" points="69.7,-419.8 69.7,-450.6 343.65,-450.6 343.65,-419.8 69.7,-419.8"/>
<text text-anchor="start" x="76.7" y="-432" font-family="Arial" font-size="14.00">name </text>
<text text-anchor="start" x="115.61" y="-432" font-family="Arial" font-size="14.00" fill="#666666">[text]</text>
<polygon fill="none" stroke="black" points="69.7,-389 69.7,-419.8 343.65,-419.8 343.65,-389 69.7,-389"/>
<text text-anchor="start" x="76.7" y="-401.2" font-family="Arial" font-size="14.00">details </text>
<text text-anchor="start" x="121.06" y="-401.2" font-family="Arial" font-size="14.00" fill="#666666">[text]</text>
<polygon fill="none" stroke="black" points="69.7,-358.2 69.7,-389 343.65,-389 343.65,-358.2 69.7,-358.2"/>
<text text-anchor="start" x="76.7" y="-370.4" font-family="Arial" font-size="14.00">uml_comment </text>
<text text-anchor="start" x="168.51" y="-370.4" font-family="Arial" font-size="14.00" fill="#666666">[text]</text>
<polygon fill="none" stroke="black" stroke-width="3" points="68.2,-356.7 68.2,-580.1 345.15,-580.1 345.15,-356.7 68.2,-356.7"/>
</g>
<!-- public.flow -->
<g id="node3" class="node">
<title>public.flow</title>
<polygon fill="#efefef" stroke="none" points="96.19,-197.2 96.19,-232.8 317.16,-232.8 317.16,-197.2 96.19,-197.2"/>
<polygon fill="none" stroke="black" points="96.19,-197.2 96.19,-232.8 317.16,-232.8 317.16,-197.2 96.19,-197.2"/>
<text text-anchor="start" x="103.19" y="-210.6" font-family="Arial Bold" font-size="18.00">public.flow</text>
<text text-anchor="start" x="185.67" y="-210.6" font-family="Arial" font-size="14.00">    </text>
<text text-anchor="start" x="216.79" y="-210.6" font-family="Arial" font-size="14.00" fill="#666666">[BASE TABLE]</text>
<polygon fill="none" stroke="black" points="96.19,-166.4 96.19,-197.2 317.16,-197.2 317.16,-166.4 96.19,-166.4"/>
<text text-anchor="start" x="103.19" y="-178.6" font-family="Arial" font-size="14.00">flow_id </text>
<text text-anchor="start" x="150.66" y="-178.6" font-family="Arial" font-size="14.00" fill="#666666">[integer]</text>
<polygon fill="none" stroke="black" points="96.19,-135.6 96.19,-166.4 317.16,-166.4 317.16,-135.6 96.19,-135.6"/>
<text text-anchor="start" x="103.19" y="-147.8" font-family="Arial" font-size="14.00">model_key </text>
<text text-anchor="start" x="174.78" y="-147.8" font-family="Arial" font-size="14.00" fill="#666666">[text]</text>
<polygon fill="none" stroke="black" points="96.19,-104.8 96.19,-135.6 317.16,-135.6 317.16,-104.8 96.19,-104.8"/>
<text text-anchor="start" x="103.19" y="-117" font-family="Arial" font-size="14.00">name </text>
<text text-anchor="start" x="142.1" y="-117" font-family="Arial" font-size="14.00" fill="#666666">[text]</text>
<polygon fill="none" stroke="black" points="96.19,-74 96.19,-104.8 317.16,-104.8 317.16,-74 96.19,-74"/>
<text text-anchor="start" x="103.19" y="-86.2" font-family="Arial" font-size="14.00">details </text>
<text text-anchor="start" x="147.55" y="-86.2" font-family="Arial" font-size="14.00" fill="#666666">[text]</text>
<polygon fill="none" stroke="black" points="96.19,-43.2 96.19,-74 317.16,-74 317.16,-43.2 96.19,-43.2"/>
<text text-anchor="start" x="103.19" y="-55.4" font-family="Arial" font-size="14.00">uml_comment </text>
<text text-anchor="start" x="195" y="-55.4" font-family="Arial" font-size="14.00" fill="#666666">[text]</text>
</g>
<!-- public.flow_object&#45;&gt;public.flow -->
<g id="edge3" class="edge">
<title>public.flow_object:flow_id&#45;&gt;public.flow:flow_id</title>
<path fill="none" stroke="black" d="M355.03,-496.2C483.73,-481.01 455.09,-181.8 318.16,-181.8"/>
<polygon fill="black" stroke="black" points="354.97,-496.2 344.73,-492.29 349.65,-496.51 345.32,-496.76 345.32,-496.76 345.32,-496.76 349.65,-496.51 345.25,-501.27 354.97,-496.2"/>
<text text-anchor="start" x="351.65" y="-506.8" font-family="Arial" font-size="10.00">FOREIGN KEY (flow_id) REFERENCES flow(flow_id) ON DELETE CASCADE</text>
</g>
<!-- public.flow_message_box -->
<g id="node2" class="node">
<title>public.flow_message_box</title>
<polygon fill="#efefef" stroke="none" points="43.2,-1166 43.2,-1201.6 370.15,-1201.6 370.15,-1166 43.2,-1166"/>
<polygon fill="none" stroke="black" points="43.2,-1166 43.2,-1201.6 370.15,-1201.6 370.15,-1166 43.2,-1166"/>
<text text-anchor="start" x="50.2" y="-1179.4" font-family="Arial Bold" font-size="18.00">public.flow_message_box</text>
<text text-anchor="start" x="238.66" y="-1179.4" font-family="Arial" font-size="14.00">    </text>
<text text-anchor="start" x="269.78" y="-1179.4" font-family="Arial" font-size="14.00" fill="#666666">[BASE TABLE]</text>
<polygon fill="none" stroke="black" points="43.2,-1135.2 43.2,-1166 370.15,-1166 370.15,-1135.2 43.2,-1135.2"/>
<text text-anchor="start" x="50.2" y="-1147.4" font-family="Arial" font-size="14.00">message_box_id </text>
<text text-anchor="start" x="159.94" y="-1147.4" font-family="Arial" font-size="14.00" fill="#666666">[integer]</text>
<polygon fill="none" stroke="black" points="43.2,-1104.4 43.2,-1135.2 370.15,-1135.2 370.15,-1104.4 43.2,-1104.4"/>
<text text-anchor="start" x="50.2" y="-1116.6" font-family="Arial" font-size="14.00">flow_id </text>
<text text-anchor="start" x="97.67" y="-1116.6" font-family="Arial" font-size="14.00" fill="#666666">[bigint]</text>
<polygon fill="none" stroke="black" points="43.2,-1073.6 43.2,-1104.4 370.15,-1104.4 370.15,-1073.6 43.2,-1073.6"/>
<text text-anchor="start" x="50.2" y="-1085.8" font-family="Arial" font-size="14.00">parent_id </text>
<text text-anchor="start" x="112.47" y="-1085.8" font-family="Arial" font-size="14.00" fill="#666666">[bigint]</text>
<polygon fill="none" stroke="black" points="43.2,-1042.8 43.2,-1073.6 370.15,-1073.6 370.15,-1042.8 43.2,-1042.8"/>
<text text-anchor="start" x="50.2" y="-1055" font-family="Arial" font-size="14.00">child_num </text>
<text text-anchor="start" x="117.9" y="-1055" font-family="Arial" font-size="14.00" fill="#666666">[bigint]</text>
<polygon fill="none" stroke="black" points="43.2,-1012 43.2,-1042.8 370.15,-1042.8 370.15,-1012 43.2,-1012"/>
<text text-anchor="start" x="50.2" y="-1024.2" font-family="Arial" font-size="14.00">message_box_type </text>
<text text-anchor="start" x="175.5" y="-1024.2" font-family="Arial" font-size="14.00" fill="#666666">[message_box_type]</text>
<polygon fill="none" stroke="black" points="43.2,-981.2 43.2,-1012 370.15,-1012 370.15,-981.2 43.2,-981.2"/>
<text text-anchor="start" x="50.2" y="-993.4" font-family="Arial" font-size="14.00">from_object_id </text>
<text text-anchor="start" x="145.92" y="-993.4" font-family="Arial" font-size="14.00" fill="#666666">[bigint]</text>
<polygon fill="none" stroke="black" points="43.2,-950.4 43.2,-981.2 370.15,-981.2 370.15,-950.4 43.2,-950.4"/>
<text text-anchor="start" x="50.2" y="-962.6" font-family="Arial" font-size="14.00">to_object_id </text>
<text text-anchor="start" x="129.59" y="-962.6" font-family="Arial" font-size="14.00" fill="#666666">[bigint]</text>
<polygon fill="none" stroke="black" points="43.2,-919.6 43.2,-950.4 370.15,-950.4 370.15,-919.6 43.2,-919.6"/>
<text text-anchor="start" x="50.2" y="-931.8" font-family="Arial" font-size="14.00">association_key </text>
<text text-anchor="start" x="153.7" y="-931.8" font-family="Arial" font-size="14.00" fill="#666666">[text]</text>
<polygon fill="none" stroke="black" points="43.2,-888.8 43.2,-919.6 370.15,-919.6 370.15,-888.8 43.2,-888.8"/>
<text text-anchor="start" x="50.2" y="-901" font-family="Arial" font-size="14.00">event_key </text>
<text text-anchor="start" x="117.91" y="-901" font-family="Arial" font-size="14.00" fill="#666666">[text]</text>
<polygon fill="none" stroke="black" points="43.2,-858 43.2,-888.8 370.15,-888.8 370.15,-858 43.2,-858"/>
<text text-anchor="start" x="50.2" y="-870.2" font-family="Arial" font-size="14.00">attribute_key </text>
<text text-anchor="start" x="134.25" y="-870.2" font-family="Arial" font-size="14.00" fill="#666666">[text]</text>
<polygon fill="none" stroke="black" points="43.2,-827.2 43.2,-858 370.15,-858 370.15,-827.2 43.2,-827.2"/>
<text text-anchor="start" x="50.2" y="-839.4" font-family="Arial" font-size="14.00">is_for_all </text>
<text text-anchor="start" x="110.12" y="-839.4" font-family="Arial" font-size="14.00" fill="#666666">[boolean]</text>
<polygon fill="none" stroke="black" points="43.2,-796.4 43.2,-827.2 370.15,-827.2 370.15,-796.4 43.2,-796.4"/>
<text text-anchor="start" x="50.2" y="-808.6" font-family="Arial" font-size="14.00">guard </text>
<text text-anchor="start" x="89.9" y="-808.6" font-family="Arial" font-size="14.00" fill="#666666">[text]</text>
<polygon fill="none" stroke="black" points="43.2,-765.6 43.2,-796.4 370.15,-796.4 370.15,-765.6 43.2,-765.6"/>
<text text-anchor="start" x="50.2" y="-777.8" font-family="Arial" font-size="14.00">ref_flow_id </text>
<text text-anchor="start" x="121.79" y="-777.8" font-family="Arial" font-size="14.00" fill="#666666">[bigint]</text>
<polygon fill="none" stroke="black" points="43.2,-734.8 43.2,-765.6 370.15,-765.6 370.15,-734.8 43.2,-734.8"/>
<text text-anchor="start" x="50.2" y="-747" font-family="Arial" font-size="14.00">details </text>
<text text-anchor="start" x="94.56" y="-747" font-family="Arial" font-size="14.00" fill="#666666">[text]</text>
<polygon fill="none" stroke="black" points="43.2,-704 43.2,-734.8 370.15,-734.8 370.15,-704 43.2,-704"/>
<text text-anchor="start" x="50.2" y="-716.2" font-family="Arial" font-size="14.00">uml_comment </text>
<text text-anchor="start" x="142.01" y="-716.2" font-family="Arial" font-size="14.00" fill="#666666">[text]</text>
</g>
<!-- public.flow_message_box&#45;&gt;public.flow_object -->
<g id="edge1" class="edge">
<title>public.flow_message_box:from_object_id&#45;&gt;public.flow_object:object_id</title>
<path fill="none" stroke="black" d="M381.4,-994.99C473.64,-965.09 445.47,-527.6 344.65,-527.6"/>
<polygon fill="black" stroke="black" points="381.36,-995 370.79,-992.1 376.09,-995.83 371.81,-996.5 371.81,-996.5 371.81,-996.5 376.09,-995.83 372.18,-1000.99 381.36,-995"/>
<text text-anchor="start" x="378.15" y="-1006.6" font-family="Arial" font-size="10.00">FOREIGN KEY (from_object_id) REFERENCES flow_object(object_id) ON DELETE CASCADE</text>
</g>
<!-- public.flow_message_box&#45;&gt;public.flow_object -->
<g id="edge2" class="edge">
<title>public.flow_message_box:to_object_id&#45;&gt;public.flow_object:object_id</title>
<path fill="none" stroke="black" d="M381.24,-964.13C466.7,-934.71 438.68,-527.6 344.65,-527.6"/>
<polygon fill="black" stroke="black" points="381.35,-964.11 370.75,-961.31 376.09,-964.98 371.81,-965.69 371.81,-965.69 371.81,-965.69 376.09,-964.98 372.22,-970.18 381.35,-964.11"/>
<text text-anchor="start" x="378.15" y="-975.8" font-family="Arial" font-size="10.00">FOREIGN KEY (to_object_id) REFERENCES flow_object(object_id) ON DELETE CASCADE</text>
</g>
</g>
</svg>
