<?xml version="1.0" encoding="UTF-8" standalone="no"?>
<!DOCTYPE svg PUBLIC "-//W3C//DTD SVG 1.1//EN"
 "http://www.w3.org/Graphics/SVG/1.1/DTD/svg11.dtd">
<!-- Generated by graphviz version 12.1.2 (20240928.0832)
 -->
<!-- Title: Classes Pages: 1 -->
<svg width="952pt" height="481pt"
 viewBox="0.00 0.00 952.00 481.20" xmlns="http://www.w3.org/2000/svg" xmlns:xlink="http://www.w3.org/1999/xlink">
<g id="graph0" class="graph" transform="scale(1 1) rotate(0) translate(4 477.2)">
<title>Classes</title>
<polygon fill="white" stroke="none" points="-4,4 -4,-477.2 948,-477.2 948,4 -4,4"/>
<g id="clust1" class="cluster">
<title>cluster_subgraph_medium</title>
<polygon fill="none" stroke="none" points="8,-8 8,-465.2 480,-465.2 480,-8 8,-8"/>
</g>
<!-- generalization_medium&#45;&gt;subclassangle_01_order_fulfillment_medium_ebook -->
<g id="edge3" class="edge">
<title>generalization_medium&#45;&gt;subclassangle_01_order_fulfillment_medium_ebook</title>
<path fill="none" stroke="blue" stroke-width="1.5" d="M123.19,-236.6C135.1,-236.6 147.02,-236.6 158.93,-236.6"/>
</g>
<!-- generalization_medium&#45;&gt;subclassangle_01_order_fulfillment_medium_print -->
<g id="edge5" class="edge">
<title>generalization_medium&#45;&gt;subclassangle_01_order_fulfillment_medium_print</title>
<path fill="none" stroke="blue" stroke-width="1.5" d="M121.78,-238.32C125.37,-245.96 141.12,-276.41 163,-274.4 247.65,-266.62 349.6,-241.06 365.01,-237.11"/>
</g>
<!-- subclassangle_01_order_fulfillment_medium_ebook&#45;&gt;class_01_order_fulfillment_medium_ebook -->
<g id="edge2" class="edge">
<title>subclassangle_01_order_fulfillment_medium_ebook&#45;&gt;class_01_order_fulfillment_medium_ebook</title>
<path fill="none" stroke="blue" stroke-width="1.5" d="M160.65,-234.34C158.4,-226.17 145.58,-179.63 135.12,-141.65"/>
</g>
<!-- subclassangle_01_order_fulfillment_medium_print&#45;&gt;class_01_order_fulfillment_medium_print -->
<g id="edge4" class="edge">
<title>subclassangle_01_order_fulfillment_medium_print&#45;&gt;class_01_order_fulfillment_medium_print</title>
<path fill="none" stroke="blue" stroke-width="1.5" d="M367,-234.34C367,-227.64 367,-195.11 367,-162.67"/>
</g>
<!-- class_01_order_fulfillment_medium&#45;&gt;generalization_medium -->
<g id="edge1" class="edge">
<title>class_01_order_fulfillment_medium&#45;&gt;generalization_medium</title>
<path fill="none" stroke="blue" stroke-width="1.5" d="M121,-288.49C121,-264.53 121,-244.05 121,-238.86"/>
<polygon fill="blue" stroke="blue" stroke-width="1.5" points="114,-288.36 121,-308.36 128,-288.36 114,-288.36"/>
<text text-anchor="middle" x="129.45" y="-261.19" font-family="Helvetica,Arial,sans-serif" font-size="14.00">«complete»</text>
<text text-anchor="middle" x="129.45" y="-244.39" font-family="Helvetica,Arial,sans-serif" font-size="14.00">«static»</text>
</g>
<!-- class_01_order_fulfillment_replenish_order&#45;&gt;midnode_01_order_fulfillment_replenish_order_association_1 -->
<g id="edge6" class="edge">
<title>class_01_order_fulfillment_replenish_order&#45;&gt;midnode_01_order_fulfillment_replenish_order_association_1</title>
<path fill="none" stroke="black" d="M593,-331.61C593,-293.07 593,-245.69 593,-238.53"/>
<text text-anchor="middle" x="567.72" y="-277.5" font-family="Helvetica,Arial,sans-serif" font-size="14.00">Restocks</text>
<text text-anchor="middle" x="584.55" y="-309.28" font-family="Helvetica,Arial,sans-serif" font-size="14.00">1</text>
</g>
<!-- class_01_order_fulfillment_replenish_order_line&#45;&gt;midnode_01_order_fulfillment_replenish_order_association_1 -->
<g id="edge8" class="edge">
<title>class_01_order_fulfillment_replenish_order_line&#45;&gt;midnode_01_order_fulfillment_replenish_order_association_1</title>
<path fill="none" stroke="black" stroke-dasharray="5,2" d="M769.49,-341.77C701.29,-301.52 605.85,-245.18 594.18,-238.3"/>
</g>
<!-- midnode_01_order_fulfillment_replenish_order_association_1&#45;&gt;class_01_order_fulfillment_medium_print -->
<g id="edge7" class="edge">
<title>midnode_01_order_fulfillment_replenish_order_association_1&#45;&gt;class_01_order_fulfillment_medium_print</title>
<path fill="none" stroke="black" d="M591.99,-234.95C584.23,-229.96 532.82,-196.94 481.1,-163.71"/>
<polygon fill="black" stroke="black" points="472.82,-158.39 483.67,-160.01 476,-160.43 481.23,-163.79 481.23,-163.79 481.23,-163.79 476,-160.43 478.8,-167.58 472.82,-158.39"/>
<text text-anchor="middle" x="491.61" y="-156.21" font-family="Helvetica,Arial,sans-serif" font-size="14.00">1..*</text>
</g>
<!-- class_01_order_fulfillment_medium_ebook -->
<g id="node1" class="node">
<title>class_01_order_fulfillment_medium_ebook</title>
<polygon fill="white" stroke="none" points="226,-142 16,-142 16,-36.8 226,-36.8 226,-142"/>
<polygon fill="none" stroke="black" points="16,-115.2 16,-142 226,-142 226,-115.2 16,-115.2"/>
<text text-anchor="start" x="68.31" y="-125.4" font-family="Helvetica,Arial,sans-serif" font-weight="bold" font-size="14.00"> &#160;eBook Medium </text>
<text text-anchor="start" x="170.19" y="-125.4" font-family="Helvetica,Arial,sans-serif" font-size="14.00"> </text>
<polygon fill="none" stroke="black" points="16,-63.6 16,-115.2 226,-115.2 226,-63.6 16,-63.6"/>
<text text-anchor="start" x="23" y="-95.6" font-family="Helvetica,Arial,sans-serif" font-size="14.00">product key</text>
<text text-anchor="start" x="23" y="-74.8" font-family="Helvetica,Arial,sans-serif" font-size="14.00">/user key?</text>
<polygon fill="none" stroke="black" points="16,-36.8 16,-63.6 226,-63.6 226,-36.8 16,-36.8"/>
<text text-anchor="start" x="119.25" y="-46" font-family="Helvetica,Arial,sans-serif" font-size="14.00"> </text>
</g>
<!-- class_01_order_fulfillment_medium_print -->
<g id="node2" class="node">
<title>class_01_order_fulfillment_medium_print</title>
<polygon fill="white" stroke="none" points="472,-162.8 262,-162.8 262,-16 472,-16 472,-162.8"/>
<polygon fill="none" stroke="black" points="262,-136 262,-162.8 472,-162.8 472,-136 262,-136"/>
<text text-anchor="start" x="317.42" y="-146.2" font-family="Helvetica,Arial,sans-serif" font-weight="bold" font-size="14.00"> &#160;Print Medium </text>
<text text-anchor="start" x="413.08" y="-146.2" font-family="Helvetica,Arial,sans-serif" font-size="14.00"> </text>
<polygon fill="none" stroke="black" points="262,-42.8 262,-136 472,-136 472,-42.8 262,-42.8"/>
<text text-anchor="start" x="269" y="-116.4" font-family="Helvetica,Arial,sans-serif" font-size="14.00">reorder level</text>
<text text-anchor="start" x="269" y="-95.6" font-family="Helvetica,Arial,sans-serif" font-size="14.00">reorder quantity</text>
<text text-anchor="start" x="269" y="-74.8" font-family="Helvetica,Arial,sans-serif" font-size="14.00">shipping weight</text>
<text text-anchor="start" x="269" y="-54" font-family="Helvetica,Arial,sans-serif" font-size="14.00">stock level</text>
<polygon fill="none" stroke="black" points="262,-16 262,-42.8 472,-42.8 472,-16 262,-16"/>
<text text-anchor="start" x="365.25" y="-25.2" font-family="Helvetica,Arial,sans-serif" font-size="14.00"> </text>
</g>
<!-- generalization_medium -->
<g id="node3" class="node">
<title>generalization_medium</title>
<ellipse fill="white" stroke="black" cx="121" cy="-236.6" rx="1.8" ry="1.8"/>
</g>
<!-- subclassangle_01_order_fulfillment_medium_ebook -->
<g id="node4" class="node">
<title>subclassangle_01_order_fulfillment_medium_ebook</title>
<ellipse fill="white" stroke="black" cx="161" cy="-236.6" rx="1.8" ry="1.8"/>
</g>
<!-- subclassangle_01_order_fulfillment_medium_print -->
<g id="node5" class="node">
<title>subclassangle_01_order_fulfillment_medium_print</title>
<ellipse fill="white" stroke="black" cx="367" cy="-236.6" rx="1.8" ry="1.8"/>
</g>
<!-- class_01_order_fulfillment_medium -->
<g id="node6" class="node">
<title>class_01_order_fulfillment_medium</title>
<polygon fill="white" stroke="none" points="226,-457.2 16,-457.2 16,-310.4 226,-310.4 226,-457.2"/>
<polygon fill="none" stroke="black" points="16,-430.4 16,-457.2 226,-457.2 226,-430.4 16,-430.4"/>
<text text-anchor="start" x="88.72" y="-440.6" font-family="Helvetica,Arial,sans-serif" font-weight="bold" font-size="14.00"> &#160;Medium </text>
<text text-anchor="start" x="149.78" y="-440.6" font-family="Helvetica,Arial,sans-serif" font-size="14.00"> </text>
<polygon fill="none" stroke="black" points="16,-337.2 16,-430.4 226,-430.4 226,-337.2 16,-337.2"/>
<text text-anchor="start" x="23" y="-410.8" font-family="Helvetica,Arial,sans-serif" font-size="14.00">ISBN</text>
<text text-anchor="start" x="23" y="-390" font-family="Helvetica,Arial,sans-serif" font-size="14.00">acquisition cost</text>
<text text-anchor="start" x="23" y="-369.2" font-family="Helvetica,Arial,sans-serif" font-size="14.00">is visible</text>
<text text-anchor="start" x="23" y="-348.4" font-family="Helvetica,Arial,sans-serif" font-size="14.00">selling price</text>
<polygon fill="none" stroke="black" points="16,-310.4 16,-337.2 226,-337.2 226,-310.4 16,-310.4"/>
<text text-anchor="start" x="119.25" y="-319.6" font-family="Helvetica,Arial,sans-serif" font-size="14.00"> </text>
</g>
<!-- class_01_order_fulfillment_replenish_order -->
<g id="node7" class="node">
<title>class_01_order_fulfillment_replenish_order</title>
<polygon fill="white" stroke="none" points="698,-436.4 488,-436.4 488,-331.2 698,-331.2 698,-436.4"/>
<polygon fill="none" stroke="black" points="488,-409.6 488,-436.4 698,-436.4 698,-409.6 488,-409.6"/>
<text text-anchor="start" x="536.03" y="-419.8" font-family="Helvetica,Arial,sans-serif" font-weight="bold" font-size="14.00"> &#160;Replenish Order </text>
<text text-anchor="start" x="646.47" y="-419.8" font-family="Helvetica,Arial,sans-serif" font-size="14.00"> </text>
<polygon fill="none" stroke="black" points="488,-358 488,-409.6 698,-409.6 698,-358 488,-358"/>
<text text-anchor="start" x="495" y="-390" font-family="Helvetica,Arial,sans-serif" font-size="14.00">date opened</text>
<text text-anchor="start" x="495" y="-369.2" font-family="Helvetica,Arial,sans-serif" font-size="14.00">id</text>
<polygon fill="none" stroke="black" points="488,-331.2 488,-358 698,-358 698,-331.2 488,-331.2"/>
<text text-anchor="start" x="591.25" y="-340.4" font-family="Helvetica,Arial,sans-serif" font-size="14.00"> </text>
</g>
<!-- class_01_order_fulfillment_replenish_order_line -->
<g id="node8" class="node">
<title>class_01_order_fulfillment_replenish_order_line</title>
<polygon fill="white" stroke="none" points="944,-426 734,-426 734,-341.6 944,-341.6 944,-426"/>
<polygon fill="none" stroke="black" points="734,-399.2 734,-426 944,-426 944,-399.2 734,-399.2"/>
<text text-anchor="start" x="766.67" y="-409.4" font-family="Helvetica,Arial,sans-serif" font-weight="bold" font-size="14.00"> &#160;Replenish Order Line </text>
<text text-anchor="start" x="907.83" y="-409.4" font-family="Helvetica,Arial,sans-serif" font-size="14.00"> </text>
<polygon fill="none" stroke="black" points="734,-368.4 734,-399.2 944,-399.2 944,-368.4 734,-368.4"/>
<text text-anchor="start" x="741" y="-379.6" font-family="Helvetica,Arial,sans-serif" font-size="14.00">quantity</text>
<polygon fill="none" stroke="black" points="734,-341.6 734,-368.4 944,-368.4 944,-341.6 734,-341.6"/>
<text text-anchor="start" x="837.25" y="-350.8" font-family="Helvetica,Arial,sans-serif" font-size="14.00"> </text>
</g>
<!-- midnode_01_order_fulfillment_replenish_order_association_1 -->
<g id="node9" class="node">
<title>midnode_01_order_fulfillment_replenish_order_association_1</title>
<ellipse fill="white" stroke="black" cx="593" cy="-236.6" rx="1.8" ry="1.8"/>
</g>
</g>
</svg>
