<?xml version="1.0" encoding="UTF-8" standalone="no"?>
<!DOCTYPE svg PUBLIC "-//W3C//DTD SVG 1.1//EN"
 "http://www.w3.org/Graphics/SVG/1.1/DTD/svg11.dtd">
<!-- Generated by graphviz version 12.1.2 (20240928.0832)
 -->
<!-- Title: Classes Pages: 1 -->
<svg width="208pt" height="83pt"
 viewBox="0.00 0.00 208.00 82.80" xmlns="http://www.w3.org/2000/svg" xmlns:xlink="http://www.w3.org/1999/xlink">
<g id="graph0" class="graph" transform="scale(1 1) rotate(0) translate(4 78.8)">
<title>Classes</title>
<polygon fill="white" stroke="none" points="-4,4 -4,-78.8 204,-78.8 204,4 -4,4"/>
<!-- class_01_order_fulfillment_manager -->
<g id="node1" class="node">
<title>class_01_order_fulfillment_manager</title>
<polygon fill="white" stroke="none" points="200,-74.8 0,-74.8 0,0 200,0 200,-74.8"/>
<polygon fill="none" stroke="black" points="0,-36.8 0,-74.8 78.43,-74.8 78.43,-36.8 0,-36.8"/>
<text text-anchor="start" x="14.72" y="-58.2" font-family="Helvetica,Arial,sans-serif" font-size="14.00"> «actor» </text>
<text text-anchor="start" x="5" y="-44.2" font-family="Helvetica,Arial,sans-serif" font-weight="bold" font-size="14.00"> &#160;Manager </text>
<text text-anchor="start" x="69.93" y="-44.2" font-family="Helvetica,Arial,sans-serif" font-size="14.00"> </text>
<polygon fill="none" stroke="black" points="0,-26.8 0,-36.8 78.43,-36.8 78.43,-26.8 0,-26.8"/>
<polygon fill="none" stroke="black" points="0,0 0,-26.8 78.43,-26.8 78.43,0 0,0"/>
<text text-anchor="start" x="37.46" y="-9.2" font-family="Helvetica,Arial,sans-serif" font-size="14.00"> </text>
</g>
</g>
</svg>
