<?xml version="1.0" encoding="UTF-8" standalone="no"?>
<!DOCTYPE svg PUBLIC "-//W3C//DTD SVG 1.1//EN"
 "http://www.w3.org/Graphics/SVG/1.1/DTD/svg11.dtd">
<!-- Generated by graphviz version 12.1.2 (20240928.0832)
 -->
<!-- Title: UseCases Pages: 1 -->
<svg width="430pt" height="1253pt"
 viewBox="0.00 0.00 429.70 1253.00" xmlns="http://www.w3.org/2000/svg" xmlns:xlink="http://www.w3.org/1999/xlink">
<g id="graph0" class="graph" transform="scale(1 1) rotate(0) translate(4 1249)">
<title>UseCases</title>
<polygon fill="white" stroke="none" points="-4,4 -4,-1249 425.7,-1249 425.7,4 -4,4"/>
<g id="clust1" class="cluster">
<title>cluster_subgraph_01_order_fulfillment</title>
<polygon fill="none" stroke="black" points="192.72,-8 192.72,-1237 413.7,-1237 413.7,-8 192.72,-8"/>
<text text-anchor="middle" x="303.21" y="-1220.4" font-family="Times,serif" font-size="14.00">Order Fulfillment</text>
</g>
<!-- actor_customer&#45;&gt;use_case_01_order_fulfillment_add_to_cart -->
<g id="edge1" class="edge">
<title>actor_customer&#45;&gt;use_case_01_order_fulfillment_add_to_cart</title>
<path fill="none" stroke="black" d="M72.12,-955.22C86.91,-998.3 126.26,-1096.49 192.72,-1150 209.39,-1163.43 231.26,-1171.92 251.06,-1177.26"/>
</g>
<!-- actor_customer&#45;&gt;use_case_01_order_fulfillment_cancel_order -->
<g id="edge2" class="edge">
<title>actor_customer&#45;&gt;use_case_01_order_fulfillment_cancel_order</title>
<path fill="none" stroke="black" d="M72.12,-912.78C86.91,-869.7 126.26,-771.51 192.72,-718 208.38,-705.39 228.62,-697.13 247.43,-691.75"/>
</g>
<!-- actor_customer&#45;&gt;use_case_01_order_fulfillment_catalog -->
<g id="edge3" class="edge">
<title>actor_customer&#45;&gt;use_case_01_order_fulfillment_catalog</title>
<path fill="none" stroke="black" d="M78.76,-912.72C99.49,-881.45 142.26,-823.21 192.72,-790 213.03,-776.63 238.72,-767.84 260.11,-762.3"/>
</g>
<!-- actor_customer&#45;&gt;use_case_01_order_fulfillment_check_out -->
<g id="edge4" class="edge">
<title>actor_customer&#45;&gt;use_case_01_order_fulfillment_check_out</title>
<path fill="none" stroke="black" d="M98.74,-912.72C123.9,-897.28 159.61,-876.63 192.72,-862 214.5,-852.38 239.69,-843.92 260.41,-837.63"/>
</g>
<!-- actor_customer&#45;&gt;use_case_01_order_fulfillment_drop_from_cart -->
<g id="edge5" class="edge">
<title>actor_customer&#45;&gt;use_case_01_order_fulfillment_drop_from_cart</title>
<path fill="none" stroke="black" d="M101.59,-928.49C138.26,-922.92 195.69,-914.19 239.72,-907.5"/>
</g>
<!-- actor_customer&#45;&gt;use_case_01_order_fulfillment_ebook_user_keys -->
<g id="edge6" class="edge">
<title>actor_customer&#45;&gt;use_case_01_order_fulfillment_ebook_user_keys</title>
<path fill="none" stroke="black" d="M101.59,-939.51C136.32,-944.79 189.66,-952.89 232.61,-959.42"/>
</g>
<!-- actor_customer&#45;&gt;use_case_01_order_fulfillment_order -->
<g id="edge9" class="edge">
<title>actor_customer&#45;&gt;use_case_01_order_fulfillment_order</title>
<path fill="none" stroke="black" d="M98.74,-955.28C123.9,-970.72 159.61,-991.37 192.72,-1006 217.43,-1016.92 246.52,-1026.33 268.51,-1032.79"/>
</g>
<!-- actor_customer&#45;&gt;use_case_01_order_fulfillment_order_status -->
<g id="edge10" class="edge">
<title>actor_customer&#45;&gt;use_case_01_order_fulfillment_order_status</title>
<path fill="none" stroke="black" d="M78.76,-955.28C99.49,-986.55 142.26,-1044.79 192.72,-1078 209.93,-1089.33 231.02,-1097.37 250.08,-1102.94"/>
</g>
<!-- actor_manager&#45;&gt;use_case_01_order_fulfillment_inventory -->
<g id="edge7" class="edge">
<title>actor_manager&#45;&gt;use_case_01_order_fulfillment_inventory</title>
<path fill="none" stroke="black" d="M98.74,-523.28C123.9,-538.72 159.61,-559.37 192.72,-574 214.41,-583.58 239.48,-592.01 260.15,-598.29"/>
</g>
<!-- actor_manager&#45;&gt;use_case_01_order_fulfillment_manage_catalog -->
<g id="edge8" class="edge">
<title>actor_manager&#45;&gt;use_case_01_order_fulfillment_manage_catalog</title>
<path fill="none" stroke="black" d="M98.74,-480.72C123.9,-465.28 159.61,-444.63 192.72,-430 210.29,-422.24 230.08,-415.23 247.95,-409.51"/>
</g>
<!-- actor_manager&#45;&gt;use_case_01_order_fulfillment_profit -->
<g id="edge14" class="edge">
<title>actor_manager&#45;&gt;use_case_01_order_fulfillment_profit</title>
<path fill="none" stroke="black" d="M99.29,-496.84C143.3,-490.15 219.77,-478.53 265.22,-471.62"/>
</g>
<!-- actor_manager&#45;&gt;use_case_01_order_fulfillment_sales -->
<g id="edge16" class="edge">
<title>actor_manager&#45;&gt;use_case_01_order_fulfillment_sales</title>
<path fill="none" stroke="black" d="M99.29,-507.16C143.68,-513.9 221.1,-525.67 266.4,-532.56"/>
</g>
<!-- actor_publisher&#45;&gt;use_case_01_order_fulfillment_pack_order -->
<g id="edge11" class="edge">
<title>actor_publisher&#45;&gt;use_case_01_order_fulfillment_pack_order</title>
<path fill="none" stroke="black" d="M100.82,-266.16C139.66,-263.04 202.44,-258 247.58,-254.38"/>
</g>
<!-- actor_publisher&#45;&gt;use_case_01_order_fulfillment_send_replenish -->
<g id="edge17" class="edge">
<title>actor_publisher&#45;&gt;use_case_01_order_fulfillment_send_replenish</title>
<path fill="none" stroke="black" d="M100.82,-276.93C139.66,-285.63 202.44,-299.67 247.58,-309.78"/>
</g>
<!-- actor_warehouse_worker&#45;&gt;use_case_01_order_fulfillment_pack_order -->
<g id="edge12" class="edge">
<title>actor_warehouse_worker&#45;&gt;use_case_01_order_fulfillment_pack_order</title>
<path fill="none" stroke="black" d="M110.9,-179.3C134.99,-190.24 165.2,-203.46 192.72,-214 215.05,-222.56 240.39,-230.97 261.06,-237.51"/>
</g>
<!-- actor_warehouse_worker&#45;&gt;use_case_01_order_fulfillment_packable_orders -->
<g id="edge13" class="edge">
<title>actor_warehouse_worker&#45;&gt;use_case_01_order_fulfillment_packable_orders</title>
<path fill="none" stroke="black" d="M91.29,-136.75C116.09,-117.25 155.17,-88.66 192.72,-70 210.64,-61.1 231.26,-53.66 249.75,-47.89"/>
</g>
<!-- actor_warehouse_worker&#45;&gt;use_case_01_order_fulfillment_receive_replenish -->
<g id="edge15" class="edge">
<title>actor_warehouse_worker&#45;&gt;use_case_01_order_fulfillment_receive_replenish</title>
<path fill="none" stroke="black" d="M129.14,-144C164.49,-136.24 208.16,-126.65 242.79,-119.05"/>
</g>
<!-- actor_warehouse_worker&#45;&gt;use_case_01_order_fulfillment_ship_order -->
<g id="edge18" class="edge">
<title>actor_warehouse_worker&#45;&gt;use_case_01_order_fulfillment_ship_order</title>
<path fill="none" stroke="black" d="M129.14,-163.39C166.55,-166.54 213.27,-170.49 248.73,-173.48"/>
</g>
<!-- use_case_01_order_fulfillment_add_to_cart -->
<g id="node1" class="node">
<title>use_case_01_order_fulfillment_add_to_cart</title>
<ellipse fill="white" stroke="black" cx="303.21" cy="-1186" rx="59.05" ry="18"/>
<text text-anchor="middle" x="303.21" y="-1181.8" font-family="Helvetica,Arial,sans-serif" font-size="14.00">Add to Cart </text>
</g>
<!-- use_case_01_order_fulfillment_cancel_order -->
<g id="node2" class="node">
<title>use_case_01_order_fulfillment_cancel_order</title>
<ellipse fill="white" stroke="black" cx="303.21" cy="-682" rx="65.2" ry="18"/>
<text text-anchor="middle" x="303.21" y="-677.8" font-family="Helvetica,Arial,sans-serif" font-size="14.00">Cancel Order </text>
</g>
<!-- use_case_01_order_fulfillment_catalog -->
<g id="node3" class="node">
<title>use_case_01_order_fulfillment_catalog</title>
<ellipse fill="white" stroke="black" cx="303.21" cy="-754" rx="47.77" ry="18"/>
<text text-anchor="middle" x="303.21" y="-749.8" font-family="Helvetica,Arial,sans-serif" font-size="14.00">Catalog? </text>
</g>
<!-- use_case_01_order_fulfillment_check_out -->
<g id="node4" class="node">
<title>use_case_01_order_fulfillment_check_out</title>
<ellipse fill="white" stroke="black" cx="303.21" cy="-826" rx="55.02" ry="18"/>
<text text-anchor="middle" x="303.21" y="-821.8" font-family="Helvetica,Arial,sans-serif" font-size="14.00">Check Out </text>
</g>
<!-- use_case_01_order_fulfillment_drop_from_cart -->
<g id="node5" class="node">
<title>use_case_01_order_fulfillment_drop_from_cart</title>
<ellipse fill="white" stroke="black" cx="303.21" cy="-898" rx="73.52" ry="18"/>
<text text-anchor="middle" x="303.21" y="-893.8" font-family="Helvetica,Arial,sans-serif" font-size="14.00">Drop from Cart </text>
</g>
<!-- use_case_01_order_fulfillment_ebook_user_keys -->
<g id="node6" class="node">
<title>use_case_01_order_fulfillment_ebook_user_keys</title>
<ellipse fill="white" stroke="black" cx="303.21" cy="-970" rx="85.86" ry="18"/>
<text text-anchor="middle" x="303.21" y="-965.8" font-family="Helvetica,Arial,sans-serif" font-size="14.00">eBook User Keys? </text>
</g>
<!-- use_case_01_order_fulfillment_inventory -->
<g id="node7" class="node">
<title>use_case_01_order_fulfillment_inventory</title>
<ellipse fill="white" stroke="black" cx="303.21" cy="-610" rx="55.28" ry="18"/>
<text text-anchor="middle" x="303.21" y="-605.8" font-family="Helvetica,Arial,sans-serif" font-size="14.00">Inventory? </text>
</g>
<!-- use_case_01_order_fulfillment_manage_catalog -->
<g id="node8" class="node">
<title>use_case_01_order_fulfillment_manage_catalog</title>
<ellipse fill="white" stroke="black" cx="303.21" cy="-394" rx="102.49" ry="18"/>
<text text-anchor="middle" x="303.21" y="-389.8" font-family="Helvetica,Arial,sans-serif" font-size="14.00">«sky» Manage Catalog </text>
</g>
<!-- use_case_01_order_fulfillment_order -->
<g id="node9" class="node">
<title>use_case_01_order_fulfillment_order</title>
<ellipse fill="white" stroke="black" cx="303.21" cy="-1042" rx="40.26" ry="18"/>
<text text-anchor="middle" x="303.21" y="-1037.8" font-family="Helvetica,Arial,sans-serif" font-size="14.00">Order? </text>
</g>
<!-- use_case_01_order_fulfillment_order_status -->
<g id="node10" class="node">
<title>use_case_01_order_fulfillment_order_status</title>
<ellipse fill="white" stroke="black" cx="303.21" cy="-1114" rx="66.28" ry="18"/>
<text text-anchor="middle" x="303.21" y="-1109.8" font-family="Helvetica,Arial,sans-serif" font-size="14.00">Order Status? </text>
</g>
<!-- use_case_01_order_fulfillment_pack_order -->
<g id="node11" class="node">
<title>use_case_01_order_fulfillment_pack_order</title>
<ellipse fill="white" stroke="black" cx="303.21" cy="-250" rx="57.16" ry="18"/>
<text text-anchor="middle" x="303.21" y="-245.8" font-family="Helvetica,Arial,sans-serif" font-size="14.00">Pack Order </text>
</g>
<!-- use_case_01_order_fulfillment_packable_orders -->
<g id="node12" class="node">
<title>use_case_01_order_fulfillment_packable_orders</title>
<ellipse fill="white" stroke="black" cx="303.21" cy="-34" rx="81.29" ry="18"/>
<text text-anchor="middle" x="303.21" y="-29.8" font-family="Helvetica,Arial,sans-serif" font-size="14.00">Packable Orders? </text>
</g>
<!-- use_case_01_order_fulfillment_profit -->
<g id="node13" class="node">
<title>use_case_01_order_fulfillment_profit</title>
<ellipse fill="white" stroke="black" cx="303.21" cy="-466" rx="39.73" ry="18"/>
<text text-anchor="middle" x="303.21" y="-461.8" font-family="Helvetica,Arial,sans-serif" font-size="14.00">Profit? </text>
</g>
<!-- use_case_01_order_fulfillment_receive_replenish -->
<g id="node14" class="node">
<title>use_case_01_order_fulfillment_receive_replenish</title>
<ellipse fill="white" stroke="black" cx="303.21" cy="-106" rx="85.59" ry="18"/>
<text text-anchor="middle" x="303.21" y="-101.8" font-family="Helvetica,Arial,sans-serif" font-size="14.00">Receive Replenish </text>
</g>
<!-- use_case_01_order_fulfillment_sales -->
<g id="node15" class="node">
<title>use_case_01_order_fulfillment_sales</title>
<ellipse fill="white" stroke="black" cx="303.21" cy="-538" rx="38.12" ry="18"/>
<text text-anchor="middle" x="303.21" y="-533.8" font-family="Helvetica,Arial,sans-serif" font-size="14.00">Sales? </text>
</g>
<!-- use_case_01_order_fulfillment_send_replenish -->
<g id="node16" class="node">
<title>use_case_01_order_fulfillment_send_replenish</title>
<ellipse fill="white" stroke="black" cx="303.21" cy="-322" rx="73.8" ry="18"/>
<text text-anchor="middle" x="303.21" y="-317.8" font-family="Helvetica,Arial,sans-serif" font-size="14.00">Send Replenish </text>
</g>
<!-- use_case_01_order_fulfillment_ship_order -->
<g id="node17" class="node">
<title>use_case_01_order_fulfillment_ship_order</title>
<ellipse fill="white" stroke="black" cx="303.21" cy="-178" rx="56.1" ry="18"/>
<text text-anchor="middle" x="303.21" y="-173.8" font-family="Helvetica,Arial,sans-serif" font-size="14.00">Ship Order </text>
</g>
<!-- actor_customer -->
<g id="node18" class="node">
<title>actor_customer</title>
<polygon fill="white" stroke="none" points="101.33,-954.8 27.39,-954.8 27.39,-913.2 101.33,-913.2 101.33,-954.8"/>
<polyline fill="none" stroke="black" points="27.39,-913.2 101.33,-913.2"/>
<text text-anchor="middle" x="64.36" y="-938.2" font-family="Helvetica,Arial,sans-serif" font-size="14.00">«person»</text>
<text text-anchor="middle" x="64.36" y="-921.4" font-family="Helvetica,Arial,sans-serif" font-size="14.00">Customer </text>
</g>
<!-- actor_manager -->
<g id="node19" class="node">
<title>actor_manager</title>
<polygon fill="white" stroke="none" points="98.98,-522.8 29.73,-522.8 29.73,-481.2 98.98,-481.2 98.98,-522.8"/>
<polyline fill="none" stroke="black" points="29.73,-481.2 98.98,-481.2"/>
<text text-anchor="middle" x="64.36" y="-506.2" font-family="Helvetica,Arial,sans-serif" font-size="14.00">«person»</text>
<text text-anchor="middle" x="64.36" y="-489.4" font-family="Helvetica,Arial,sans-serif" font-size="14.00">Manager </text>
</g>
<!-- actor_publisher -->
<g id="node20" class="node">
<title>actor_publisher</title>
<polygon fill="white" stroke="black" points="100.55,-289.8 32.16,-289.8 28.16,-285.8 28.16,-248.2 96.55,-248.2 100.55,-252.2 100.55,-289.8"/>
<polyline fill="none" stroke="black" points="96.55,-285.8 28.16,-285.8"/>
<polyline fill="none" stroke="black" points="96.55,-285.8 96.55,-248.2"/>
<polyline fill="none" stroke="black" points="96.55,-285.8 100.55,-289.8"/>
<text text-anchor="middle" x="64.36" y="-273.2" font-family="Helvetica,Arial,sans-serif" font-size="14.00">«system»</text>
<text text-anchor="middle" x="64.36" y="-256.4" font-family="Helvetica,Arial,sans-serif" font-size="14.00">Publisher </text>
</g>
<!-- actor_warehouse_worker -->
<g id="node21" class="node">
<title>actor_warehouse_worker</title>
<polygon fill="white" stroke="none" points="128.72,-178.8 0,-178.8 0,-137.2 128.72,-137.2 128.72,-178.8"/>
<polyline fill="none" stroke="black" points="0,-137.2 128.72,-137.2"/>
<text text-anchor="middle" x="64.36" y="-162.2" font-family="Helvetica,Arial,sans-serif" font-size="14.00">«person»</text>
<text text-anchor="middle" x="64.36" y="-145.4" font-family="Helvetica,Arial,sans-serif" font-size="14.00">Warehouse Worker </text>
</g>
</g>
</svg>
