<?xml version="1.0" encoding="UTF-8" standalone="no"?>
<!DOCTYPE svg PUBLIC "-//W3C//DTD SVG 1.1//EN"
 "http://www.w3.org/Graphics/SVG/1.1/DTD/svg11.dtd">
<!-- Generated by graphviz version 12.1.2 (20240928.0832)
 -->
<!-- Title: Domains Pages: 1 -->
<svg width="360pt" height="476pt"
 viewBox="0.00 0.00 359.91 476.00" xmlns="http://www.w3.org/2000/svg" xmlns:xlink="http://www.w3.org/1999/xlink">
<g id="graph0" class="graph" transform="scale(1 1) rotate(0) translate(4 472)">
<title>Domains</title>
<polygon fill="white" stroke="none" points="-4,4 -4,-472 355.91,-472 355.91,4 -4,4"/>
<!-- domain_01_order_fulfillment&#45;&gt;domain_02_payment -->
<g id="edge1" class="edge">
<title>domain_01_order_fulfillment&#45;&gt;domain_02_payment</title>
<path fill="none" stroke="black" stroke-dasharray="5,2" d="M253.83,-431.97C240.7,-414.99 220.35,-388.7 205.19,-369.09"/>
<polygon fill="black" stroke="black" points="199.16,-361.3 208.84,-366.46 201.48,-364.3 205.28,-369.21 205.28,-369.21 205.28,-369.21 201.48,-364.3 201.72,-371.97 199.16,-361.3"/>
</g>
<!-- domain_01_order_fulfillment&#45;&gt;domain_03_user_security -->
<g id="edge2" class="edge">
<title>domain_01_order_fulfillment&#45;&gt;domain_03_user_security</title>
<path fill="none" stroke="black" stroke-dasharray="5,2" d="M263.51,-431.58C256.38,-394.04 240.13,-308.41 231.55,-263.2"/>
<polygon fill="black" stroke="black" points="229.72,-253.57 236,-262.55 230.42,-257.28 231.58,-263.39 231.58,-263.39 231.58,-263.39 230.42,-257.28 227.16,-264.23 229.72,-253.57"/>
</g>
<!-- domain_01_order_fulfillment&#45;&gt;domain_04_scalability -->
<g id="edge3" class="edge">
<title>domain_01_order_fulfillment&#45;&gt;domain_04_scalability</title>
<path fill="none" stroke="black" stroke-dasharray="5,2" d="M264.51,-431.65C257.21,-377.85 235.8,-220.2 226.92,-154.87"/>
<polygon fill="black" stroke="black" points="225.63,-145.35 231.44,-154.66 226.14,-149.1 226.98,-155.26 226.98,-155.26 226.98,-155.26 226.14,-149.1 222.52,-155.87 225.63,-145.35"/>
</g>
<!-- domain_01_order_fulfillment&#45;&gt;domain_06_web_ui -->
<g id="edge4" class="edge">
<title>domain_01_order_fulfillment&#45;&gt;domain_06_web_ui</title>
<path fill="none" stroke="black" stroke-dasharray="5,2" d="M270.06,-431.65C279.03,-377.85 305.3,-220.2 316.19,-154.87"/>
<polygon fill="black" stroke="black" points="317.78,-145.35 320.57,-155.95 317.16,-149.08 316.14,-155.21 316.14,-155.21 316.14,-155.21 317.16,-149.08 311.7,-154.47 317.78,-145.35"/>
</g>
<!-- domain_01_order_fulfillment&#45;&gt;domain_07_dedicated_terminal_ui -->
<g id="edge5" class="edge">
<title>domain_01_order_fulfillment&#45;&gt;domain_07_dedicated_terminal_ui</title>
<path fill="none" stroke="black" stroke-dasharray="5,2" d="M255.22,-431.65C220.4,-377.41 117.8,-217.59 76.51,-153.27"/>
<polygon fill="black" stroke="black" points="71.31,-145.17 80.5,-151.16 73.35,-148.35 76.71,-153.59 76.71,-153.59 76.71,-153.59 73.35,-148.35 72.93,-156.02 71.31,-145.17"/>
</g>
<!-- domain_02_payment&#45;&gt;domain_03_user_security -->
<g id="edge6" class="edge">
<title>domain_02_payment&#45;&gt;domain_03_user_security</title>
<path fill="none" stroke="black" stroke-dasharray="5,2" d="M191.59,-323.97C197.98,-307.45 207.78,-282.12 215.29,-262.7"/>
<polygon fill="black" stroke="black" points="218.86,-253.48 219.45,-264.43 217.49,-257 215.25,-262.8 215.25,-262.8 215.25,-262.8 217.49,-257 211.05,-261.18 218.86,-253.48"/>
</g>
<!-- domain_02_payment&#45;&gt;domain_04_scalability -->
<g id="edge7" class="edge">
<title>domain_02_payment&#45;&gt;domain_04_scalability</title>
<path fill="none" stroke="black" stroke-dasharray="5,2" d="M188.24,-323.58C194.85,-286.04 209.91,-200.41 217.87,-155.2"/>
<polygon fill="black" stroke="black" points="219.56,-145.57 222.26,-156.2 218.91,-149.29 217.83,-155.42 217.83,-155.42 217.83,-155.42 218.91,-149.29 213.4,-154.64 219.56,-145.57"/>
</g>
<!-- domain_02_payment&#45;&gt;domain_06_web_ui -->
<g id="edge8" class="edge">
<title>domain_02_payment&#45;&gt;domain_06_web_ui</title>
<path fill="none" stroke="black" stroke-dasharray="5,2" d="M196.6,-323.58C220.49,-285.64 275.3,-198.58 303.52,-153.77"/>
<polygon fill="black" stroke="black" points="308.79,-145.4 307.27,-156.26 306.77,-148.6 303.46,-153.86 303.46,-153.86 303.46,-153.86 306.77,-148.6 299.65,-151.47 308.79,-145.4"/>
</g>
<!-- domain_02_payment&#45;&gt;domain_07_dedicated_terminal_ui -->
<g id="edge9" class="edge">
<title>domain_02_payment&#45;&gt;domain_07_dedicated_terminal_ui</title>
<path fill="none" stroke="black" stroke-dasharray="5,2" d="M174.26,-323.58C152.18,-285.72 101.56,-198.95 75.37,-154.06"/>
<polygon fill="black" stroke="black" points="70.33,-145.42 79.26,-151.79 72.24,-148.69 75.37,-154.06 75.37,-154.06 75.37,-154.06 72.24,-148.69 71.49,-156.33 70.33,-145.42"/>
</g>
<!-- domain_03_user_security&#45;&gt;domain_04_scalability -->
<g id="edge10" class="edge">
<title>domain_03_user_security&#45;&gt;domain_04_scalability</title>
<path fill="none" stroke="black" stroke-dasharray="5,2" d="M225.52,-215.97C225.06,-199.69 224.36,-174.82 223.81,-155.52"/>
<polygon fill="black" stroke="black" points="223.53,-145.56 228.31,-155.43 223.64,-149.34 223.81,-155.55 223.81,-155.55 223.81,-155.55 223.64,-149.34 219.31,-155.68 223.53,-145.56"/>
</g>
<!-- domain_03_user_security&#45;&gt;domain_06_web_ui -->
<g id="edge11" class="edge">
<title>domain_03_user_security&#45;&gt;domain_06_web_ui</title>
<path fill="none" stroke="black" stroke-dasharray="5,2" d="M241.27,-215.97C256.62,-198.84 280.48,-172.22 298.1,-152.56"/>
<polygon fill="black" stroke="black" points="304.65,-145.25 301.33,-155.7 302.13,-148.06 297.98,-152.69 297.98,-152.69 297.98,-152.69 302.13,-148.06 294.62,-149.69 304.65,-145.25"/>
</g>
<!-- domain_03_user_security&#45;&gt;domain_07_dedicated_terminal_ui -->
<g id="edge12" class="edge">
<title>domain_03_user_security&#45;&gt;domain_07_dedicated_terminal_ui</title>
<path fill="none" stroke="black" stroke-dasharray="5,2" d="M198.8,-215.73C170.74,-197.92 126.81,-170.04 95.69,-150.28"/>
<polygon fill="black" stroke="black" points="87.5,-145.09 98.36,-146.65 90.69,-147.12 95.94,-150.45 95.94,-150.45 95.94,-150.45 90.69,-147.12 93.53,-154.25 87.5,-145.09"/>
</g>
<!-- domain_04_scalability&#45;&gt;domain_05_high_availability -->
<g id="edge13" class="edge">
<title>domain_04_scalability&#45;&gt;domain_05_high_availability</title>
<path fill="none" stroke="black" stroke-dasharray="5,2" d="M223,-107.97C223,-91.69 223,-66.82 223,-47.52"/>
<polygon fill="black" stroke="black" points="223,-37.56 227.5,-47.56 223,-41.34 223,-47.56 223,-47.56 223,-47.56 223,-41.34 218.5,-47.56 223,-37.56"/>
</g>
<!-- domain_01_order_fulfillment -->
<g id="node1" class="node">
<title>domain_01_order_fulfillment</title>
<polygon fill="white" stroke="black" points="313.96,-468 310.96,-472 289.96,-472 286.96,-468 220.05,-468 220.05,-432 313.96,-432 313.96,-468"/>
<text text-anchor="middle" x="267" y="-446.7" font-family="Sans-Serif" font-size="11.00">Order Fulfillment</text>
</g>
<!-- domain_02_payment -->
<g id="node2" class="node">
<title>domain_02_payment</title>
<polygon fill="white" stroke="black" points="212.25,-360 209.25,-364 188.25,-364 185.25,-360 157.76,-360 157.76,-324 212.25,-324 212.25,-360"/>
<text text-anchor="middle" x="185" y="-338.7" font-family="Sans-Serif" font-size="11.00">Payment</text>
</g>
<!-- domain_03_user_security -->
<g id="node3" class="node">
<title>domain_03_user_security</title>
<polygon fill="white" stroke="black" points="264.09,-252 261.09,-256 240.09,-256 237.09,-252 187.92,-252 187.92,-216 264.09,-216 264.09,-252"/>
<text text-anchor="middle" x="226" y="-230.7" font-family="Sans-Serif" font-size="11.00">User Security</text>
</g>
<!-- domain_04_scalability -->
<g id="node4" class="node">
<title>domain_04_scalability</title>
<polygon fill="white" stroke="black" points="254.53,-144 251.53,-148 230.53,-148 227.53,-144 191.48,-144 191.48,-108 254.53,-108 254.53,-144"/>
<text text-anchor="middle" x="223" y="-122.7" font-family="Sans-Serif" font-size="11.00">Scalability</text>
</g>
<!-- domain_05_high_availability -->
<g id="node5" class="node">
<title>domain_05_high_availability</title>
<polygon fill="white" stroke="black" points="269.65,-36 266.65,-40 245.65,-40 242.65,-36 176.36,-36 176.36,0 269.65,0 269.65,-36"/>
<text text-anchor="middle" x="223" y="-14.7" font-family="Sans-Serif" font-size="11.00">High Availability</text>
</g>
<!-- domain_06_web_ui -->
<g id="node6" class="node">
<title>domain_06_web_ui</title>
<polygon fill="white" stroke="black" points="351.91,-144 348.91,-148 327.91,-148 324.91,-144 290.1,-144 290.1,-108 351.91,-108 351.91,-144"/>
<text text-anchor="middle" x="321" y="-129.3" font-family="Sans-Serif" font-size="11.00">«realized»</text>
<text text-anchor="middle" x="321" y="-116.1" font-family="Sans-Serif" font-size="11.00">Web UI</text>
</g>
<!-- domain_07_dedicated_terminal_ui -->
<g id="node7" class="node">
<title>domain_07_dedicated_terminal_ui</title>
<polygon fill="white" stroke="black" points="118.01,-144 115.01,-148 94.01,-148 91.01,-144 0,-144 0,-108 118.01,-108 118.01,-144"/>
<text text-anchor="middle" x="59" y="-129.3" font-family="Sans-Serif" font-size="11.00">«realized»</text>
<text text-anchor="middle" x="59" y="-116.1" font-family="Sans-Serif" font-size="11.00">Dedicated Terminal UI</text>
</g>
</g>
</svg>
