<?xml version="1.0" encoding="UTF-8" standalone="no"?>
<!DOCTYPE svg PUBLIC "-//W3C//DTD SVG 1.1//EN"
 "http://www.w3.org/Graphics/SVG/1.1/DTD/svg11.dtd">
<!-- Generated by graphviz version 12.1.2 (20240928.0832)
 -->
<!-- Title: States Pages: 1 -->
<svg width="237pt" height="119pt"
 viewBox="0.00 0.00 236.71 118.60" xmlns="http://www.w3.org/2000/svg" xmlns:xlink="http://www.w3.org/1999/xlink">
<g id="graph0" class="graph" transform="scale(1 1) rotate(0) translate(4 114.6)">
<title>States</title>
<polygon fill="white" stroke="none" points="-4,4 -4,-114.6 232.71,-114.6 232.71,4 -4,4"/>
<!-- in -->
<g id="node1" class="node">
<title>in</title>
<ellipse fill="black" stroke="black" cx="10.8" cy="-25.3" rx="10.8" ry="10.8"/>
<text text-anchor="middle" x="10.8" y="-21.1" font-family="Times,serif" font-size="14.00">in</text>
</g>
<!-- state_01_order_fulfillment_publisher_state_exists -->
<g id="node2" class="node">
<title>state_01_order_fulfillment_publisher_state_exists</title>
<path fill="none" stroke="black" d="M139.58,-0.5C139.58,-0.5 169.58,-0.5 169.58,-0.5 175.58,-0.5 181.58,-6.5 181.58,-12.5 181.58,-12.5 181.58,-38.1 181.58,-38.1 181.58,-44.1 175.58,-50.1 169.58,-50.1 169.58,-50.1 139.58,-50.1 139.58,-50.1 133.58,-50.1 127.58,-44.1 127.58,-38.1 127.58,-38.1 127.58,-12.5 127.58,-12.5 127.58,-6.5 133.58,-0.5 139.58,-0.5"/>
<text text-anchor="middle" x="154.58" y="-33.5" font-family="Times,serif" font-size="14.00">Exists</text>
<polyline fill="none" stroke="black" points="127.58,-25.3 181.58,-25.3"/>
<text text-anchor="middle" x="154.58" y="-8.7" font-family="Times,serif" font-size="14.00"> </text>
</g>
<!-- in&#45;&gt;state_01_order_fulfillment_publisher_state_exists -->
<g id="edge1" class="edge">
<title>in&#45;&gt;state_01_order_fulfillment_publisher_state_exists</title>
<path fill="none" stroke="black" d="M22,-25.3C41.31,-25.3 84.11,-25.3 115.67,-25.3"/>
<polygon fill="black" stroke="black" points="115.64,-28.8 125.64,-25.3 115.64,-21.8 115.64,-28.8"/>
<text text-anchor="middle" x="74.59" y="-28.3" font-family="Sans-Serif" font-size="10.00">«new» / Initialize</text>
</g>
<!-- state_01_order_fulfillment_publisher_state_exists&#45;&gt;state_01_order_fulfillment_publisher_state_exists -->
<g id="edge2" class="edge">
<title>state_01_order_fulfillment_publisher_state_exists&#45;&gt;state_01_order_fulfillment_publisher_state_exists</title>
<path fill="none" stroke="black" d="M147.12,-50.22C146.7,-60.21 149.19,-68.6 154.58,-68.6 157.69,-68.6 159.84,-65.8 161.01,-61.5"/>
<polygon fill="black" stroke="black" points="164.48,-62 161.89,-51.73 157.51,-61.37 164.48,-62"/>
<text text-anchor="middle" x="154.58" y="-71.6" font-family="Sans-Serif" font-size="10.00">Replenish / MakeOrAddToOrder</text>
</g>
<!-- state_01_order_fulfillment_publisher_state_exists&#45;&gt;state_01_order_fulfillment_publisher_state_exists -->
<g id="edge3" class="edge">
<title>state_01_order_fulfillment_publisher_state_exists&#45;&gt;state_01_order_fulfillment_publisher_state_exists</title>
<path fill="none" stroke="black" d="M141.19,-50.49C136.84,-68.58 141.3,-86.6 154.58,-86.6 165.05,-86.6 170.04,-75.38 169.54,-61.76"/>
<polygon fill="black" stroke="black" points="173.02,-61.4 168.17,-51.99 166.09,-62.37 173.02,-61.4"/>
<text text-anchor="middle" x="154.58" y="-89.6" font-family="Sans-Serif" font-size="10.00">PlaceOrder / ProcessOrderPlacement</text>
</g>
</g>
</svg>
