<?xml version="1.0" encoding="UTF-8" standalone="no"?>
<!DOCTYPE svg PUBLIC "-//W3C//DTD SVG 1.1//EN"
 "http://www.w3.org/Graphics/SVG/1.1/DTD/svg11.dtd">
<!-- Generated by graphviz version 12.1.2 (20240928.0832)
 -->
<!-- Title: Classes Pages: 1 -->
<svg width="218pt" height="541pt"
 viewBox="0.00 0.00 218.00 541.20" xmlns="http://www.w3.org/2000/svg" xmlns:xlink="http://www.w3.org/1999/xlink">
<g id="graph0" class="graph" transform="scale(1 1) rotate(0) translate(4 537.2)">
<title>Classes</title>
<polygon fill="white" stroke="none" points="-4,4 -4,-537.2 214,-537.2 214,4 -4,4"/>
<!-- class_01_order_fulfillment_publisher&#45;&gt;class_01_order_fulfillment_replenish_order -->
<g id="edge1" class="edge">
<title>class_01_order_fulfillment_publisher&#45;&gt;class_01_order_fulfillment_replenish_order</title>
<path fill="none" stroke="black" d="M105,-177.39C105,-157.43 105,-135.68 105,-116.05"/>
<polygon fill="black" stroke="black" points="105,-106.3 109.5,-116.3 105,-110.08 105,-116.3 105,-116.3 105,-116.3 105,-110.08 100.5,-116.3 105,-106.3"/>
<text text-anchor="middle" x="92.55" y="-128.65" font-family="Helvetica,Arial,sans-serif" font-size="14.00">Fills</text>
<text text-anchor="middle" x="113.45" y="-119.01" font-family="Helvetica,Arial,sans-serif" font-size="14.00">*</text>
<text text-anchor="middle" x="96.55" y="-155.06" font-family="Helvetica,Arial,sans-serif" font-size="14.00">1</text>
</g>
<!-- class_01_order_fulfillment_title&#45;&gt;class_01_order_fulfillment_publisher -->
<g id="edge2" class="edge">
<title>class_01_order_fulfillment_title&#45;&gt;class_01_order_fulfillment_publisher</title>
<path fill="none" stroke="black" d="M105,-386.43C105,-366.7 105,-345.23 105,-325.17"/>
<polygon fill="black" stroke="black" points="105,-315.42 109.5,-325.42 105,-319.2 105,-325.42 105,-325.42 105,-325.42 105,-319.2 100.5,-325.42 105,-315.42"/>
<text text-anchor="middle" x="63.98" y="-337.99" font-family="Helvetica,Arial,sans-serif" font-size="14.00">Obtained from</text>
<text text-anchor="middle" x="113.45" y="-328.13" font-family="Helvetica,Arial,sans-serif" font-size="14.00">1</text>
<text text-anchor="middle" x="96.55" y="-364.11" font-family="Helvetica,Arial,sans-serif" font-size="14.00">*</text>
</g>
<!-- class_01_order_fulfillment_publisher -->
<g id="node1" class="node">
<title>class_01_order_fulfillment_publisher</title>
<polygon fill="white" stroke="none" points="210,-314.4 0,-314.4 0,-177.2 210,-177.2 210,-314.4"/>
<polygon fill="none" stroke="black" points="0,-276.4 0,-314.4 210,-314.4 210,-276.4 0,-276.4"/>
<text text-anchor="start" x="80.51" y="-297.8" font-family="Helvetica,Arial,sans-serif" font-size="14.00"> «actor» </text>
<text text-anchor="start" x="69.22" y="-283.8" font-family="Helvetica,Arial,sans-serif" font-weight="bold" font-size="14.00"> &#160;Publisher </text>
<text text-anchor="start" x="137.28" y="-283.8" font-family="Helvetica,Arial,sans-serif" font-size="14.00"> </text>
<polygon fill="none" stroke="black" points="0,-204 0,-276.4 210,-276.4 210,-204 0,-204"/>
<text text-anchor="start" x="7" y="-256.8" font-family="Helvetica,Arial,sans-serif" font-size="14.00">email address</text>
<text text-anchor="start" x="7" y="-236" font-family="Helvetica,Arial,sans-serif" font-size="14.00">name</text>
<text text-anchor="start" x="7" y="-215.2" font-family="Helvetica,Arial,sans-serif" font-size="14.00">postal address</text>
<polygon fill="none" stroke="black" points="0,-177.2 0,-204 210,-204 210,-177.2 0,-177.2"/>
<text text-anchor="start" x="103.25" y="-186.4" font-family="Helvetica,Arial,sans-serif" font-size="14.00"> </text>
</g>
<!-- class_01_order_fulfillment_replenish_order -->
<g id="node2" class="node">
<title>class_01_order_fulfillment_replenish_order</title>
<polygon fill="white" stroke="none" points="210,-105.2 0,-105.2 0,0 210,0 210,-105.2"/>
<polygon fill="none" stroke="black" points="0,-78.4 0,-105.2 210,-105.2 210,-78.4 0,-78.4"/>
<text text-anchor="start" x="48.03" y="-88.6" font-family="Helvetica,Arial,sans-serif" font-weight="bold" font-size="14.00"> &#160;Replenish Order </text>
<text text-anchor="start" x="158.47" y="-88.6" font-family="Helvetica,Arial,sans-serif" font-size="14.00"> </text>
<polygon fill="none" stroke="black" points="0,-26.8 0,-78.4 210,-78.4 210,-26.8 0,-26.8"/>
<text text-anchor="start" x="7" y="-58.8" font-family="Helvetica,Arial,sans-serif" font-size="14.00">date opened</text>
<text text-anchor="start" x="7" y="-38" font-family="Helvetica,Arial,sans-serif" font-size="14.00">id</text>
<polygon fill="none" stroke="black" points="0,0 0,-26.8 210,-26.8 210,0 0,0"/>
<text text-anchor="start" x="103.25" y="-9.2" font-family="Helvetica,Arial,sans-serif" font-size="14.00"> </text>
</g>
<!-- class_01_order_fulfillment_title -->
<g id="node3" class="node">
<title>class_01_order_fulfillment_title</title>
<polygon fill="white" stroke="none" points="210,-533.2 0,-533.2 0,-386.4 210,-386.4 210,-533.2"/>
<polygon fill="none" stroke="black" points="0,-506.4 0,-533.2 210,-533.2 210,-506.4 0,-506.4"/>
<text text-anchor="start" x="84" y="-516.6" font-family="Helvetica,Arial,sans-serif" font-weight="bold" font-size="14.00"> &#160;Title </text>
<text text-anchor="start" x="122.5" y="-516.6" font-family="Helvetica,Arial,sans-serif" font-size="14.00"> </text>
<polygon fill="none" stroke="black" points="0,-413.2 0,-506.4 210,-506.4 210,-413.2 0,-413.2"/>
<text text-anchor="start" x="7" y="-486.8" font-family="Helvetica,Arial,sans-serif" font-size="14.00">author</text>
<text text-anchor="start" x="7" y="-466" font-family="Helvetica,Arial,sans-serif" font-size="14.00">copyright year</text>
<text text-anchor="start" x="7" y="-445.2" font-family="Helvetica,Arial,sans-serif" font-size="14.00">subject</text>
<text text-anchor="start" x="7" y="-424.4" font-family="Helvetica,Arial,sans-serif" font-size="14.00">title</text>
<polygon fill="none" stroke="black" points="0,-386.4 0,-413.2 210,-413.2 210,-386.4 0,-386.4"/>
<text text-anchor="start" x="103.25" y="-395.6" font-family="Helvetica,Arial,sans-serif" font-size="14.00"> </text>
</g>
</g>
</svg>
