<?xml version="1.0" encoding="UTF-8" standalone="no"?>
<!DOCTYPE svg PUBLIC "-//W3C//DTD SVG 1.1//EN"
 "http://www.w3.org/Graphics/SVG/1.1/DTD/svg11.dtd">
<!-- Generated by graphviz version 12.1.2 (20240928.0832)
 -->
<!-- Title: Classes Pages: 1 -->
<svg width="952pt" height="1165pt"
 viewBox="0.00 0.00 952.00 1164.80" xmlns="http://www.w3.org/2000/svg" xmlns:xlink="http://www.w3.org/1999/xlink">
<g id="graph0" class="graph" transform="scale(1 1) rotate(0) translate(4 1160.8)">
<title>Classes</title>
<polygon fill="white" stroke="none" points="-4,4 -4,-1160.8 948,-1160.8 948,4 -4,4"/>
<g id="clust1" class="cluster">
<title>cluster_subgraph_medium</title>
<polygon fill="none" stroke="none" points="8,-8 8,-465.2 480,-465.2 480,-8 8,-8"/>
</g>
<!-- generalization_medium&#45;&gt;subclassangle_01_order_fulfillment_medium_ebook -->
<g id="edge3" class="edge">
<title>generalization_medium&#45;&gt;subclassangle_01_order_fulfillment_medium_ebook</title>
<path fill="none" stroke="blue" stroke-width="1.5" d="M123.19,-236.6C135.1,-236.6 147.02,-236.6 158.93,-236.6"/>
</g>
<!-- generalization_medium&#45;&gt;subclassangle_01_order_fulfillment_medium_print -->
<g id="edge5" class="edge">
<title>generalization_medium&#45;&gt;subclassangle_01_order_fulfillment_medium_print</title>
<path fill="none" stroke="blue" stroke-width="1.5" d="M121.78,-238.32C125.37,-245.96 141.12,-276.41 163,-274.4 247.65,-266.62 349.6,-241.06 365.01,-237.11"/>
</g>
<!-- subclassangle_01_order_fulfillment_medium_ebook&#45;&gt;class_01_order_fulfillment_medium_ebook -->
<g id="edge2" class="edge">
<title>subclassangle_01_order_fulfillment_medium_ebook&#45;&gt;class_01_order_fulfillment_medium_ebook</title>
<path fill="none" stroke="blue" stroke-width="1.5" d="M160.65,-234.34C158.4,-226.17 145.58,-179.63 135.12,-141.65"/>
</g>
<!-- subclassangle_01_order_fulfillment_medium_print&#45;&gt;class_01_order_fulfillment_medium_print -->
<g id="edge4" class="edge">
<title>subclassangle_01_order_fulfillment_medium_print&#45;&gt;class_01_order_fulfillment_medium_print</title>
<path fill="none" stroke="blue" stroke-width="1.5" d="M367,-234.34C367,-227.64 367,-195.11 367,-162.67"/>
</g>
<!-- class_01_order_fulfillment_medium&#45;&gt;generalization_medium -->
<g id="edge1" class="edge">
<title>class_01_order_fulfillment_medium&#45;&gt;generalization_medium</title>
<path fill="none" stroke="blue" stroke-width="1.5" d="M121,-288.49C121,-264.53 121,-244.05 121,-238.86"/>
<polygon fill="blue" stroke="blue" stroke-width="1.5" points="114,-288.36 121,-308.36 128,-288.36 114,-288.36"/>
<text text-anchor="middle" x="129.45" y="-261.19" font-family="Helvetica,Arial,sans-serif" font-size="14.00">«complete»</text>
<text text-anchor="middle" x="129.45" y="-244.39" font-family="Helvetica,Arial,sans-serif" font-size="14.00">«static»</text>
</g>
<!-- class_01_order_fulfillment_book_order&#45;&gt;midnode_01_order_fulfillment_book_order_association_1 -->
<g id="edge6" class="edge">
<title>class_01_order_fulfillment_book_order&#45;&gt;midnode_01_order_fulfillment_book_order_association_1</title>
<path fill="none" stroke="black" d="M121,-738.51C121,-676.97 121,-609.1 121,-599.86"/>
<text text-anchor="middle" x="111.28" y="-653.77" font-family="Helvetica,Arial,sans-serif" font-size="14.00">For</text>
<text text-anchor="middle" x="112.55" y="-716.18" font-family="Helvetica,Arial,sans-serif" font-size="14.00">*</text>
</g>
<!-- class_01_order_fulfillment_book_order_line&#45;&gt;midnode_01_order_fulfillment_book_order_association_1 -->
<g id="edge8" class="edge">
<title>class_01_order_fulfillment_book_order_line&#45;&gt;midnode_01_order_fulfillment_book_order_association_1</title>
<path fill="none" stroke="black" stroke-dasharray="5,2" d="M272.94,-749.02C207.84,-684.65 131.26,-608.94 121.94,-599.73"/>
</g>
<!-- class_01_order_fulfillment_customer&#45;&gt;class_01_order_fulfillment_book_order -->
<g id="edge9" class="edge">
<title>class_01_order_fulfillment_customer&#45;&gt;class_01_order_fulfillment_book_order</title>
<path fill="none" stroke="black" d="M121,-1019.78C121,-1000.74 121,-979.49 121,-958.51"/>
<polygon fill="black" stroke="black" points="121,-948.8 125.5,-958.8 121,-952.58 121,-958.8 121,-958.8 121,-958.8 121,-952.58 116.5,-958.8 121,-948.8"/>
<text text-anchor="middle" x="103.12" y="-970.96" font-family="Helvetica,Arial,sans-serif" font-size="14.00">Places</text>
<text text-anchor="middle" x="129.45" y="-961.5" font-family="Helvetica,Arial,sans-serif" font-size="14.00">*</text>
<text text-anchor="middle" x="112.55" y="-997.45" font-family="Helvetica,Arial,sans-serif" font-size="14.00">1</text>
</g>
<!-- class_01_order_fulfillment_publisher&#45;&gt;class_01_order_fulfillment_replenish_order -->
<g id="edge10" class="edge">
<title>class_01_order_fulfillment_publisher&#45;&gt;class_01_order_fulfillment_replenish_order</title>
<path fill="none" stroke="black" d="M800.11,-529.43C807.22,-503.01 815.32,-472.89 822.28,-447"/>
<polygon fill="black" stroke="black" points="824.87,-437.36 826.62,-448.19 823.89,-441.01 822.27,-447.02 822.27,-447.02 822.27,-447.02 823.89,-441.01 817.93,-445.85 824.87,-437.36"/>
<text text-anchor="middle" x="800.13" y="-487.28" font-family="Helvetica,Arial,sans-serif" font-size="14.00">Fills</text>
<text text-anchor="middle" x="828.64" y="-451.68" font-family="Helvetica,Arial,sans-serif" font-size="14.00">*</text>
<text text-anchor="middle" x="796.66" y="-505.53" font-family="Helvetica,Arial,sans-serif" font-size="14.00">1</text>
</g>
<!-- class_01_order_fulfillment_replenish_order&#45;&gt;midnode_01_order_fulfillment_replenish_order_association_1 -->
<g id="edge11" class="edge">
<title>class_01_order_fulfillment_replenish_order&#45;&gt;midnode_01_order_fulfillment_replenish_order_association_1</title>
<path fill="none" stroke="black" d="M751.92,-331.4C686.13,-292.57 605.31,-244.87 594.27,-238.35"/>
<text text-anchor="middle" x="627.29" y="-276.96" font-family="Helvetica,Arial,sans-serif" font-size="14.00">Restocks</text>
<text text-anchor="middle" x="732.02" y="-325.27" font-family="Helvetica,Arial,sans-serif" font-size="14.00">1</text>
</g>
<!-- class_01_order_fulfillment_replenish_order_line&#45;&gt;midnode_01_order_fulfillment_replenish_order_association_1 -->
<g id="edge13" class="edge">
<title>class_01_order_fulfillment_replenish_order_line&#45;&gt;midnode_01_order_fulfillment_replenish_order_association_1</title>
<path fill="none" stroke="black" stroke-dasharray="5,2" d="M593,-341.97C593,-302.38 593,-247.08 593,-238.69"/>
</g>
<!-- class_01_order_fulfillment_title&#45;&gt;class_01_order_fulfillment_medium -->
<g id="edge14" class="edge">
<title>class_01_order_fulfillment_title&#45;&gt;class_01_order_fulfillment_medium</title>
<path fill="none" stroke="black" d="M630.47,-769.81C520.21,-686.49 339.48,-549.91 225.54,-463.8"/>
<polygon fill="black" stroke="black" points="217.75,-457.91 228.44,-460.35 220.77,-460.19 225.73,-463.94 225.73,-463.94 225.73,-463.94 220.77,-460.19 223.01,-467.53 217.75,-457.91"/>
<text text-anchor="middle" x="403.39" y="-617.83" font-family="Helvetica,Arial,sans-serif" font-size="14.00">Sold as</text>
<text text-anchor="middle" x="236.33" y="-457.16" font-family="Helvetica,Arial,sans-serif" font-size="14.00">0..2</text>
<text text-anchor="middle" x="610.91" y="-761.42" font-family="Helvetica,Arial,sans-serif" font-size="14.00">1</text>
</g>
<!-- class_01_order_fulfillment_title&#45;&gt;class_01_order_fulfillment_publisher -->
<g id="edge15" class="edge">
<title>class_01_order_fulfillment_title&#45;&gt;class_01_order_fulfillment_publisher</title>
<path fill="none" stroke="black" d="M742.65,-769.69C749.37,-740.51 757.14,-706.77 763.99,-677.02"/>
<polygon fill="black" stroke="black" points="766.19,-667.44 768.34,-678.2 765.35,-671.13 763.95,-677.19 763.95,-677.19 763.95,-677.19 765.35,-671.13 759.57,-676.18 766.19,-667.44"/>
<text text-anchor="middle" x="713.53" y="-722.21" font-family="Helvetica,Arial,sans-serif" font-size="14.00">Obtained from</text>
<text text-anchor="middle" x="770.64" y="-681.62" font-family="Helvetica,Arial,sans-serif" font-size="14.00">1</text>
<text text-anchor="middle" x="738.48" y="-745.93" font-family="Helvetica,Arial,sans-serif" font-size="14.00">*</text>
</g>
<!-- midnode_01_order_fulfillment_book_order_association_1&#45;&gt;class_01_order_fulfillment_medium -->
<g id="edge7" class="edge">
<title>midnode_01_order_fulfillment_book_order_association_1&#45;&gt;class_01_order_fulfillment_medium</title>
<path fill="none" stroke="black" d="M121,-595.85C121,-587.37 121,-523.33 121,-468"/>
<polygon fill="black" stroke="black" points="121,-458.29 125.5,-468.29 121,-462.07 121,-468.29 121,-468.29 121,-468.29 121,-462.07 116.5,-468.29 121,-458.29"/>
<text text-anchor="middle" x="129.45" y="-470.99" font-family="Helvetica,Arial,sans-serif" font-size="14.00">1..*</text>
</g>
<!-- midnode_01_order_fulfillment_replenish_order_association_1&#45;&gt;class_01_order_fulfillment_medium_print -->
<g id="edge12" class="edge">
<title>midnode_01_order_fulfillment_replenish_order_association_1&#45;&gt;class_01_order_fulfillment_medium_print</title>
<path fill="none" stroke="black" d="M591.99,-234.95C584.23,-229.96 532.82,-196.94 481.1,-163.71"/>
<polygon fill="black" stroke="black" points="472.82,-158.39 483.67,-160.01 476,-160.43 481.23,-163.79 481.23,-163.79 481.23,-163.79 476,-160.43 478.8,-167.58 472.82,-158.39"/>
<text text-anchor="middle" x="491.61" y="-156.21" font-family="Helvetica,Arial,sans-serif" font-size="14.00">1..*</text>
</g>
<!-- class_01_order_fulfillment_medium_ebook -->
<g id="node1" class="node">
<title>class_01_order_fulfillment_medium_ebook</title>
<polygon fill="white" stroke="none" points="226,-142 16,-142 16,-36.8 226,-36.8 226,-142"/>
<polygon fill="none" stroke="black" points="16,-115.2 16,-142 226,-142 226,-115.2 16,-115.2"/>
<text text-anchor="start" x="68.31" y="-125.4" font-family="Helvetica,Arial,sans-serif" font-weight="bold" font-size="14.00"> &#160;eBook Medium </text>
<text text-anchor="start" x="170.19" y="-125.4" font-family="Helvetica,Arial,sans-serif" font-size="14.00"> </text>
<polygon fill="none" stroke="black" points="16,-63.6 16,-115.2 226,-115.2 226,-63.6 16,-63.6"/>
<text text-anchor="start" x="23" y="-95.6" font-family="Helvetica,Arial,sans-serif" font-size="14.00">product key</text>
<text text-anchor="start" x="23" y="-74.8" font-family="Helvetica,Arial,sans-serif" font-size="14.00">/user key?</text>
<polygon fill="none" stroke="black" points="16,-36.8 16,-63.6 226,-63.6 226,-36.8 16,-36.8"/>
<text text-anchor="start" x="119.25" y="-46" font-family="Helvetica,Arial,sans-serif" font-size="14.00"> </text>
</g>
<!-- class_01_order_fulfillment_medium_print -->
<g id="node2" class="node">
<title>class_01_order_fulfillment_medium_print</title>
<polygon fill="white" stroke="none" points="472,-162.8 262,-162.8 262,-16 472,-16 472,-162.8"/>
<polygon fill="none" stroke="black" points="262,-136 262,-162.8 472,-162.8 472,-136 262,-136"/>
<text text-anchor="start" x="317.42" y="-146.2" font-family="Helvetica,Arial,sans-serif" font-weight="bold" font-size="14.00"> &#160;Print Medium </text>
<text text-anchor="start" x="413.08" y="-146.2" font-family="Helvetica,Arial,sans-serif" font-size="14.00"> </text>
<polygon fill="none" stroke="black" points="262,-42.8 262,-136 472,-136 472,-42.8 262,-42.8"/>
<text text-anchor="start" x="269" y="-116.4" font-family="Helvetica,Arial,sans-serif" font-size="14.00">reorder level</text>
<text text-anchor="start" x="269" y="-95.6" font-family="Helvetica,Arial,sans-serif" font-size="14.00">reorder quantity</text>
<text text-anchor="start" x="269" y="-74.8" font-family="Helvetica,Arial,sans-serif" font-size="14.00">shipping weight</text>
<text text-anchor="start" x="269" y="-54" font-family="Helvetica,Arial,sans-serif" font-size="14.00">stock level</text>
<polygon fill="none" stroke="black" points="262,-16 262,-42.8 472,-42.8 472,-16 262,-16"/>
<text text-anchor="start" x="365.25" y="-25.2" font-family="Helvetica,Arial,sans-serif" font-size="14.00"> </text>
</g>
<!-- generalization_medium -->
<g id="node3" class="node">
<title>generalization_medium</title>
<ellipse fill="white" stroke="black" cx="121" cy="-236.6" rx="1.8" ry="1.8"/>
</g>
<!-- subclassangle_01_order_fulfillment_medium_ebook -->
<g id="node4" class="node">
<title>subclassangle_01_order_fulfillment_medium_ebook</title>
<ellipse fill="white" stroke="black" cx="161" cy="-236.6" rx="1.8" ry="1.8"/>
</g>
<!-- subclassangle_01_order_fulfillment_medium_print -->
<g id="node5" class="node">
<title>subclassangle_01_order_fulfillment_medium_print</title>
<ellipse fill="white" stroke="black" cx="367" cy="-236.6" rx="1.8" ry="1.8"/>
</g>
<!-- class_01_order_fulfillment_medium -->
<g id="node6" class="node">
<title>class_01_order_fulfillment_medium</title>
<polygon fill="white" stroke="none" points="226,-457.2 16,-457.2 16,-310.4 226,-310.4 226,-457.2"/>
<polygon fill="none" stroke="black" points="16,-430.4 16,-457.2 226,-457.2 226,-430.4 16,-430.4"/>
<text text-anchor="start" x="88.72" y="-440.6" font-family="Helvetica,Arial,sans-serif" font-weight="bold" font-size="14.00"> &#160;Medium </text>
<text text-anchor="start" x="149.78" y="-440.6" font-family="Helvetica,Arial,sans-serif" font-size="14.00"> </text>
<polygon fill="none" stroke="black" points="16,-337.2 16,-430.4 226,-430.4 226,-337.2 16,-337.2"/>
<text text-anchor="start" x="23" y="-410.8" font-family="Helvetica,Arial,sans-serif" font-size="14.00">ISBN</text>
<text text-anchor="start" x="23" y="-390" font-family="Helvetica,Arial,sans-serif" font-size="14.00">acquisition cost</text>
<text text-anchor="start" x="23" y="-369.2" font-family="Helvetica,Arial,sans-serif" font-size="14.00">is visible</text>
<text text-anchor="start" x="23" y="-348.4" font-family="Helvetica,Arial,sans-serif" font-size="14.00">selling price</text>
<polygon fill="none" stroke="black" points="16,-310.4 16,-337.2 226,-337.2 226,-310.4 16,-310.4"/>
<text text-anchor="start" x="119.25" y="-319.6" font-family="Helvetica,Arial,sans-serif" font-size="14.00"> </text>
</g>
<!-- class_01_order_fulfillment_book_order -->
<g id="node7" class="node">
<title>class_01_order_fulfillment_book_order</title>
<polygon fill="white" stroke="none" points="226,-947.6 16,-947.6 16,-738.4 226,-738.4 226,-947.6"/>
<polygon fill="none" stroke="black" points="16,-920.8 16,-947.6 226,-947.6 226,-920.8 16,-920.8"/>
<text text-anchor="start" x="78.03" y="-931" font-family="Helvetica,Arial,sans-serif" font-weight="bold" font-size="14.00"> &#160;Book Order </text>
<text text-anchor="start" x="160.47" y="-931" font-family="Helvetica,Arial,sans-serif" font-size="14.00"> </text>
<polygon fill="none" stroke="black" points="16,-765.2 16,-920.8 226,-920.8 226,-765.2 16,-765.2"/>
<text text-anchor="start" x="23" y="-901.2" font-family="Helvetica,Arial,sans-serif" font-size="14.00">date opened</text>
<text text-anchor="start" x="23" y="-880.4" font-family="Helvetica,Arial,sans-serif" font-size="14.00">id</text>
<text text-anchor="start" x="23" y="-859.6" font-family="Helvetica,Arial,sans-serif" font-size="14.00">shipping address</text>
<text text-anchor="start" x="23" y="-838.8" font-family="Helvetica,Arial,sans-serif" font-size="14.00">/is packable?</text>
<text text-anchor="start" x="23" y="-818" font-family="Helvetica,Arial,sans-serif" font-size="14.00">/profit?</text>
<text text-anchor="start" x="23" y="-797.2" font-family="Helvetica,Arial,sans-serif" font-size="14.00">/sales?</text>
<text text-anchor="start" x="23" y="-776.4" font-family="Helvetica,Arial,sans-serif" font-size="14.00">/user keys?</text>
<polygon fill="none" stroke="black" points="16,-738.4 16,-765.2 226,-765.2 226,-738.4 16,-738.4"/>
<text text-anchor="start" x="119.25" y="-747.6" font-family="Helvetica,Arial,sans-serif" font-size="14.00"> </text>
</g>
<!-- class_01_order_fulfillment_book_order_line -->
<g id="node8" class="node">
<title>class_01_order_fulfillment_book_order_line</title>
<polygon fill="white" stroke="none" points="472,-937.2 262,-937.2 262,-748.8 472,-748.8 472,-937.2"/>
<polygon fill="none" stroke="black" points="262,-910.4 262,-937.2 472,-937.2 472,-910.4 262,-910.4"/>
<text text-anchor="start" x="308.67" y="-920.6" font-family="Helvetica,Arial,sans-serif" font-weight="bold" font-size="14.00"> &#160;Book Order Line </text>
<text text-anchor="start" x="421.83" y="-920.6" font-family="Helvetica,Arial,sans-serif" font-size="14.00"> </text>
<polygon fill="none" stroke="black" points="262,-775.6 262,-910.4 472,-910.4 472,-775.6 262,-775.6"/>
<text text-anchor="start" x="269" y="-890.8" font-family="Helvetica,Arial,sans-serif" font-size="14.00">price per copy</text>
<text text-anchor="start" x="269" y="-870" font-family="Helvetica,Arial,sans-serif" font-size="14.00">quantity</text>
<text text-anchor="start" x="269" y="-849.2" font-family="Helvetica,Arial,sans-serif" font-size="14.00">/is packable?</text>
<text text-anchor="start" x="269" y="-828.4" font-family="Helvetica,Arial,sans-serif" font-size="14.00">/profit?</text>
<text text-anchor="start" x="269" y="-807.6" font-family="Helvetica,Arial,sans-serif" font-size="14.00">/sales?</text>
<text text-anchor="start" x="269" y="-786.8" font-family="Helvetica,Arial,sans-serif" font-size="14.00">/user keys?</text>
<polygon fill="none" stroke="black" points="262,-748.8 262,-775.6 472,-775.6 472,-748.8 262,-748.8"/>
<text text-anchor="start" x="365.25" y="-758" font-family="Helvetica,Arial,sans-serif" font-size="14.00"> </text>
</g>
<!-- class_01_order_fulfillment_customer -->
<g id="node9" class="node">
<title>class_01_order_fulfillment_customer</title>
<polygon fill="white" stroke="none" points="226,-1156.8 16,-1156.8 16,-1019.6 226,-1019.6 226,-1156.8"/>
<polygon fill="none" stroke="black" points="16,-1118.8 16,-1156.8 226,-1156.8 226,-1118.8 16,-1118.8"/>
<text text-anchor="start" x="96.51" y="-1140.2" font-family="Helvetica,Arial,sans-serif" font-size="14.00"> «actor» </text>
<text text-anchor="start" x="84.45" y="-1126.2" font-family="Helvetica,Arial,sans-serif" font-weight="bold" font-size="14.00"> &#160;Customer </text>
<text text-anchor="start" x="154.05" y="-1126.2" font-family="Helvetica,Arial,sans-serif" font-size="14.00"> </text>
<polygon fill="none" stroke="black" points="16,-1046.4 16,-1118.8 226,-1118.8 226,-1046.4 16,-1046.4"/>
<text text-anchor="start" x="23" y="-1099.2" font-family="Helvetica,Arial,sans-serif" font-size="14.00">email address</text>
<text text-anchor="start" x="23" y="-1078.4" font-family="Helvetica,Arial,sans-serif" font-size="14.00">name</text>
<text text-anchor="start" x="23" y="-1057.6" font-family="Helvetica,Arial,sans-serif" font-size="14.00">postal address</text>
<polygon fill="none" stroke="black" points="16,-1019.6 16,-1046.4 226,-1046.4 226,-1019.6 16,-1019.6"/>
<text text-anchor="start" x="119.25" y="-1028.8" font-family="Helvetica,Arial,sans-serif" font-size="14.00"> </text>
</g>
<!-- class_01_order_fulfillment_manager -->
<g id="node10" class="node">
<title>class_01_order_fulfillment_manager</title>
<polygon fill="white" stroke="none" points="462,-1125.6 262,-1125.6 262,-1050.8 462,-1050.8 462,-1125.6"/>
<polygon fill="none" stroke="black" points="262,-1087.6 262,-1125.6 340.43,-1125.6 340.43,-1087.6 262,-1087.6"/>
<text text-anchor="start" x="276.72" y="-1109" font-family="Helvetica,Arial,sans-serif" font-size="14.00"> «actor» </text>
<text text-anchor="start" x="267" y="-1095" font-family="Helvetica,Arial,sans-serif" font-weight="bold" font-size="14.00"> &#160;Manager </text>
<text text-anchor="start" x="331.93" y="-1095" font-family="Helvetica,Arial,sans-serif" font-size="14.00"> </text>
<polygon fill="none" stroke="black" points="262,-1077.6 262,-1087.6 340.43,-1087.6 340.43,-1077.6 262,-1077.6"/>
<polygon fill="none" stroke="black" points="262,-1050.8 262,-1077.6 340.43,-1077.6 340.43,-1050.8 262,-1050.8"/>
<text text-anchor="start" x="299.46" y="-1060" font-family="Helvetica,Arial,sans-serif" font-size="14.00"> </text>
</g>
<!-- class_01_order_fulfillment_publisher -->
<g id="node11" class="node">
<title>class_01_order_fulfillment_publisher</title>
<polygon fill="white" stroke="none" points="887,-666.4 677,-666.4 677,-529.2 887,-529.2 887,-666.4"/>
<polygon fill="none" stroke="black" points="677,-628.4 677,-666.4 887,-666.4 887,-628.4 677,-628.4"/>
<text text-anchor="start" x="757.51" y="-649.8" font-family="Helvetica,Arial,sans-serif" font-size="14.00"> «actor» </text>
<text text-anchor="start" x="746.22" y="-635.8" font-family="Helvetica,Arial,sans-serif" font-weight="bold" font-size="14.00"> &#160;Publisher </text>
<text text-anchor="start" x="814.28" y="-635.8" font-family="Helvetica,Arial,sans-serif" font-size="14.00"> </text>
<polygon fill="none" stroke="black" points="677,-556 677,-628.4 887,-628.4 887,-556 677,-556"/>
<text text-anchor="start" x="684" y="-608.8" font-family="Helvetica,Arial,sans-serif" font-size="14.00">email address</text>
<text text-anchor="start" x="684" y="-588" font-family="Helvetica,Arial,sans-serif" font-size="14.00">name</text>
<text text-anchor="start" x="684" y="-567.2" font-family="Helvetica,Arial,sans-serif" font-size="14.00">postal address</text>
<polygon fill="none" stroke="black" points="677,-529.2 677,-556 887,-556 887,-529.2 677,-529.2"/>
<text text-anchor="start" x="780.25" y="-538.4" font-family="Helvetica,Arial,sans-serif" font-size="14.00"> </text>
</g>
<!-- class_01_order_fulfillment_replenish_order -->
<g id="node12" class="node">
<title>class_01_order_fulfillment_replenish_order</title>
<polygon fill="white" stroke="none" points="944,-436.4 734,-436.4 734,-331.2 944,-331.2 944,-436.4"/>
<polygon fill="none" stroke="black" points="734,-409.6 734,-436.4 944,-436.4 944,-409.6 734,-409.6"/>
<text text-anchor="start" x="782.03" y="-419.8" font-family="Helvetica,Arial,sans-serif" font-weight="bold" font-size="14.00"> &#160;Replenish Order </text>
<text text-anchor="start" x="892.47" y="-419.8" font-family="Helvetica,Arial,sans-serif" font-size="14.00"> </text>
<polygon fill="none" stroke="black" points="734,-358 734,-409.6 944,-409.6 944,-358 734,-358"/>
<text text-anchor="start" x="741" y="-390" font-family="Helvetica,Arial,sans-serif" font-size="14.00">date opened</text>
<text text-anchor="start" x="741" y="-369.2" font-family="Helvetica,Arial,sans-serif" font-size="14.00">id</text>
<polygon fill="none" stroke="black" points="734,-331.2 734,-358 944,-358 944,-331.2 734,-331.2"/>
<text text-anchor="start" x="837.25" y="-340.4" font-family="Helvetica,Arial,sans-serif" font-size="14.00"> </text>
</g>
<!-- class_01_order_fulfillment_replenish_order_line -->
<g id="node13" class="node">
<title>class_01_order_fulfillment_replenish_order_line</title>
<polygon fill="white" stroke="none" points="698,-426 488,-426 488,-341.6 698,-341.6 698,-426"/>
<polygon fill="none" stroke="black" points="488,-399.2 488,-426 698,-426 698,-399.2 488,-399.2"/>
<text text-anchor="start" x="520.67" y="-409.4" font-family="Helvetica,Arial,sans-serif" font-weight="bold" font-size="14.00"> &#160;Replenish Order Line </text>
<text text-anchor="start" x="661.83" y="-409.4" font-family="Helvetica,Arial,sans-serif" font-size="14.00"> </text>
<polygon fill="none" stroke="black" points="488,-368.4 488,-399.2 698,-399.2 698,-368.4 488,-368.4"/>
<text text-anchor="start" x="495" y="-379.6" font-family="Helvetica,Arial,sans-serif" font-size="14.00">quantity</text>
<polygon fill="none" stroke="black" points="488,-341.6 488,-368.4 698,-368.4 698,-341.6 488,-341.6"/>
<text text-anchor="start" x="591.25" y="-350.8" font-family="Helvetica,Arial,sans-serif" font-size="14.00"> </text>
</g>
<!-- class_01_order_fulfillment_title -->
<g id="node14" class="node">
<title>class_01_order_fulfillment_title</title>
<polygon fill="white" stroke="none" points="831,-916.4 621,-916.4 621,-769.6 831,-769.6 831,-916.4"/>
<polygon fill="none" stroke="black" points="621,-889.6 621,-916.4 831,-916.4 831,-889.6 621,-889.6"/>
<text text-anchor="start" x="705" y="-899.8" font-family="Helvetica,Arial,sans-serif" font-weight="bold" font-size="14.00"> &#160;Title </text>
<text text-anchor="start" x="743.5" y="-899.8" font-family="Helvetica,Arial,sans-serif" font-size="14.00"> </text>
<polygon fill="none" stroke="black" points="621,-796.4 621,-889.6 831,-889.6 831,-796.4 621,-796.4"/>
<text text-anchor="start" x="628" y="-870" font-family="Helvetica,Arial,sans-serif" font-size="14.00">author</text>
<text text-anchor="start" x="628" y="-849.2" font-family="Helvetica,Arial,sans-serif" font-size="14.00">copyright year</text>
<text text-anchor="start" x="628" y="-828.4" font-family="Helvetica,Arial,sans-serif" font-size="14.00">subject</text>
<text text-anchor="start" x="628" y="-807.6" font-family="Helvetica,Arial,sans-serif" font-size="14.00">title</text>
<polygon fill="none" stroke="black" points="621,-769.6 621,-796.4 831,-796.4 831,-769.6 621,-769.6"/>
<text text-anchor="start" x="724.25" y="-778.8" font-family="Helvetica,Arial,sans-serif" font-size="14.00"> </text>
</g>
<!-- class_01_order_fulfillment_warehouse_worker -->
<g id="node15" class="node">
<title>class_01_order_fulfillment_warehouse_worker</title>
<polygon fill="white" stroke="none" points="698,-1125.6 498,-1125.6 498,-1050.8 698,-1050.8 698,-1125.6"/>
<polygon fill="none" stroke="black" points="498,-1087.6 498,-1125.6 640.59,-1125.6 640.59,-1087.6 498,-1087.6"/>
<text text-anchor="start" x="544.81" y="-1109" font-family="Helvetica,Arial,sans-serif" font-size="14.00"> «actor» </text>
<text text-anchor="start" x="503" y="-1095" font-family="Helvetica,Arial,sans-serif" font-weight="bold" font-size="14.00"> &#160;Warehouse Worker </text>
<text text-anchor="start" x="632.09" y="-1095" font-family="Helvetica,Arial,sans-serif" font-size="14.00"> </text>
<polygon fill="none" stroke="black" points="498,-1077.6 498,-1087.6 640.59,-1087.6 640.59,-1077.6 498,-1077.6"/>
<polygon fill="none" stroke="black" points="498,-1050.8 498,-1077.6 640.59,-1077.6 640.59,-1050.8 498,-1050.8"/>
<text text-anchor="start" x="567.54" y="-1060" font-family="Helvetica,Arial,sans-serif" font-size="14.00"> </text>
</g>
<!-- midnode_01_order_fulfillment_book_order_association_1 -->
<g id="node16" class="node">
<title>midnode_01_order_fulfillment_book_order_association_1</title>
<ellipse fill="white" stroke="black" cx="121" cy="-597.8" rx="1.8" ry="1.8"/>
</g>
<!-- midnode_01_order_fulfillment_replenish_order_association_1 -->
<g id="node17" class="node">
<title>midnode_01_order_fulfillment_replenish_order_association_1</title>
<ellipse fill="white" stroke="black" cx="593" cy="-236.6" rx="1.8" ry="1.8"/>
</g>
</g>
</svg>
