<?xml version="1.0" encoding="UTF-8" standalone="no"?>
<!DOCTYPE svg PUBLIC "-//W3C//DTD SVG 1.1//EN"
 "http://www.w3.org/Graphics/SVG/1.1/DTD/svg11.dtd">
<!-- Generated by graphviz version 12.1.2 (20240928.0832)
 -->
<!-- Title: UML Pages: 1 -->
<svg width="728pt" height="494pt"
 viewBox="0.00 0.00 728.00 494.20" xmlns="http://www.w3.org/2000/svg" xmlns:xlink="http://www.w3.org/1999/xlink">
<g id="graph0" class="graph" transform="scale(1 1) rotate(0) translate(4 490.2)">
<title>UML</title>
<polygon fill="white" stroke="none" points="-4,4 -4,-490.2 724,-490.2 724,4 -4,4"/>
<!-- ClassA -->
<g id="node1" class="node">
<title>ClassA</title>
<polygon fill="none" stroke="black" points="81,-288.6 81,-320.6 243.87,-320.6 243.87,-288.6 81,-288.6"/>
<text text-anchor="start" x="137.08" y="-306.7" font-family="Sans-Serif" font-style="italic" font-size="11.00">«Interface»</text>
<text text-anchor="start" x="145.93" y="-295.7" font-family="Sans-Serif" font-weight="bold" font-size="11.00">ClassA</text>
<polygon fill="none" stroke="black" points="81,-244.2 81,-288.6 243.87,-288.6 243.87,-244.2 81,-244.2"/>
<text text-anchor="start" x="88" y="-271.7" font-family="Sans-Serif" font-size="11.00">&#45; attribute1: String</text>
<text text-anchor="start" x="88" y="-254.5" font-family="Sans-Serif" font-size="11.00">&#45; attribute2: int</text>
<polygon fill="none" stroke="black" points="81,-199.8 81,-244.2 243.87,-244.2 243.87,-199.8 81,-199.8"/>
<text text-anchor="start" x="88" y="-227.3" font-family="Sans-Serif" font-size="11.00">+ operation1(): void</text>
<text text-anchor="start" x="88" y="-210.1" font-family="Sans-Serif" font-size="11.00">+ operation2(param: bool): String</text>
<polygon fill="none" stroke="black" points="80,-198.8 80,-321.6 280,-321.6 280,-198.8 80,-198.8"/>
</g>
<!-- dummy -->
<g id="node2" class="node">
<title>dummy</title>
<ellipse fill="black" stroke="black" cx="360" cy="-260.2" rx="0.36" ry="0.36"/>
</g>
<!-- ClassA&#45;&gt;dummy -->
<g id="edge5" class="edge">
<title>ClassA&#45;&gt;dummy</title>
<path fill="none" stroke="black" d="M287.82,-260.2C323.76,-260.2 355.75,-260.2 359.61,-260.2"/>
<text text-anchor="middle" x="295.32" y="-263.2" font-family="Sans-Serif" font-size="10.00">1..*</text>
</g>
<!-- ClassB -->
<g id="node4" class="node">
<title>ClassB</title>
<polygon fill="none" stroke="black" points="261,-82.6 261,-105.8 371,-105.8 371,-82.6 261,-82.6"/>
<text text-anchor="start" x="299.8" y="-91.9" font-family="Sans-Serif" font-weight="bold" font-size="11.00">ClassB</text>
<polygon fill="none" stroke="black" points="261,-38.2 261,-82.6 371,-82.6 371,-38.2 261,-38.2"/>
<text text-anchor="start" x="268" y="-65.7" font-family="Sans-Serif" font-size="11.00">&#45; attrX: float</text>
<text text-anchor="start" x="268" y="-48.5" font-family="Sans-Serif" font-size="11.00">&#45; attrY: Date</text>
<polygon fill="none" stroke="black" points="261,-11 261,-38.2 371,-38.2 371,-11 261,-11"/>
<text text-anchor="start" x="268" y="-21.3" font-family="Sans-Serif" font-size="11.00">+ methodX(): int</text>
<polygon fill="none" stroke="black" points="260,-10 260,-106.8 460,-106.8 460,-10 260,-10"/>
</g>
<!-- ClassA&#45;&gt;ClassB -->
<g id="edge3" class="edge">
<title>ClassA&#45;&gt;ClassB</title>
<path fill="none" stroke="black" d="M270,-194.96C270,-194.96 270,-122.16 270,-122.16"/>
<polygon fill="black" stroke="black" points="273.5,-122.16 270,-112.16 266.5,-122.16 273.5,-122.16"/>
<text text-anchor="middle" x="339.6" y="-149.8" font-family="Sans-Serif" font-size="10.00">relatesTo</text>
<text text-anchor="middle" x="278.45" y="-125.77" font-family="Sans-Serif" font-size="10.00">0..1</text>
<text text-anchor="middle" x="261.55" y="-173.83" font-family="Sans-Serif" font-size="10.00">1</text>
</g>
<!-- ClassC -->
<g id="node3" class="node">
<title>ClassC</title>
<polygon fill="none" stroke="black" points="441,-271.4 441,-303.4 565.06,-303.4 565.06,-271.4 441,-271.4"/>
<text text-anchor="start" x="478.89" y="-289.5" font-family="Sans-Serif" font-style="italic" font-size="11.00">«Abstract»</text>
<text text-anchor="start" x="486.53" y="-278.5" font-family="Sans-Serif" font-weight="bold" font-size="11.00">ClassC</text>
<polygon fill="none" stroke="black" points="441,-244.2 441,-271.4 565.06,-271.4 565.06,-244.2 441,-244.2"/>
<text text-anchor="start" x="448" y="-254.5" font-family="Sans-Serif" font-size="11.00">&#45; field1: bool</text>
<polygon fill="none" stroke="black" points="441,-217 441,-244.2 565.06,-244.2 565.06,-217 441,-217"/>
<text text-anchor="start" x="448" y="-227.3" font-family="Sans-Serif" font-size="11.00">+ abstractMethod(): void</text>
<polygon fill="none" stroke="black" points="440,-216 440,-304.4 640,-304.4 640,-216 440,-216"/>
</g>
<!-- dummy&#45;&gt;ClassC -->
<g id="edge6" class="edge">
<title>dummy&#45;&gt;ClassC</title>
<path fill="none" stroke="black" d="M360.8,-260.2C360.8,-260.2 420.56,-260.2 420.56,-260.2"/>
<polygon fill="black" stroke="black" points="420.56,-263.7 430.56,-260.2 420.56,-256.7 420.56,-263.7"/>
<text text-anchor="middle" x="380.12" y="-263.2" font-family="Sans-Serif" font-size="10.00">owns</text>
<text text-anchor="middle" x="429.57" y="-263.2" font-family="Sans-Serif" font-size="10.00">*</text>
</g>
<!-- ClassC&#45;&gt;ClassB -->
<g id="edge4" class="edge">
<title>ClassC&#45;&gt;ClassB</title>
<path fill="none" stroke="black" d="M450,-212.12C450,-212.12 450,-122.23 450,-122.23"/>
<polygon fill="black" stroke="black" points="453.5,-122.23 450,-112.23 446.5,-122.23 453.5,-122.23"/>
<text text-anchor="middle" x="485.66" y="-149.8" font-family="Sans-Serif" font-size="10.00">contains</text>
<text text-anchor="middle" x="447.5" y="-113.71" font-family="Sans-Serif" font-size="10.00">*</text>
<text text-anchor="middle" x="442.5" y="-203.12" font-family="Sans-Serif" font-size="10.00">1..*</text>
</g>
<!-- AssocClass -->
<g id="node5" class="node">
<title>AssocClass</title>
<polygon fill="none" stroke="black" points="261,-458 261,-481.2 371,-481.2 371,-458 261,-458"/>
<text text-anchor="start" x="290.03" y="-467.3" font-family="Sans-Serif" font-weight="bold" font-size="11.00">AssocClass</text>
<polygon fill="none" stroke="black" points="261,-430.8 261,-458 371,-458 371,-430.8 261,-430.8"/>
<text text-anchor="start" x="268" y="-441.1" font-family="Sans-Serif" font-size="11.00">&#45; assocAttr: String</text>
<polygon fill="none" stroke="black" points="261,-403.6 261,-430.8 371,-430.8 371,-403.6 261,-403.6"/>
<text text-anchor="start" x="268" y="-413.9" font-family="Sans-Serif" font-size="11.00">+ assocOp(): void</text>
<polygon fill="none" stroke="black" points="260,-402.6 260,-482.2 460,-482.2 460,-402.6 260,-402.6"/>
</g>
<!-- AssocClass&#45;&gt;dummy -->
<g id="edge7" class="edge">
<title>AssocClass&#45;&gt;dummy</title>
<path fill="none" stroke="black" stroke-dasharray="5,2" d="M360,-398.76C360,-347.38 360,-268.07 360,-260.75"/>
</g>
<!-- ClassD -->
<g id="node6" class="node">
<title>ClassD</title>
<polygon fill="none" stroke="black" points="513,-458 513,-481.2 640.11,-481.2 640.11,-458 513,-458"/>
<text text-anchor="start" x="560.05" y="-467.3" font-family="Sans-Serif" font-weight="bold" font-size="11.00">ClassD</text>
<polygon fill="none" stroke="black" points="513,-430.8 513,-458 640.11,-458 640.11,-430.8 513,-430.8"/>
<text text-anchor="start" x="520" y="-441.1" font-family="Sans-Serif" font-size="11.00">&#45; specificAttr: double</text>
<polygon fill="none" stroke="black" points="513,-403.6 513,-430.8 640.11,-430.8 640.11,-403.6 513,-403.6"/>
<text text-anchor="start" x="520" y="-413.9" font-family="Sans-Serif" font-size="11.00">+ concreteMethod(): bool</text>
<polygon fill="none" stroke="black" points="512,-402.6 512,-482.2 712,-482.2 712,-402.6 512,-402.6"/>
</g>
<!-- ClassD&#45;&gt;ClassC -->
<g id="edge1" class="edge">
<title>ClassD&#45;&gt;ClassC</title>
<path fill="none" stroke="black" d="M576,-398.76C576,-398.76 576,-319.8 576,-319.8"/>
<polygon fill="none" stroke="black" points="579.5,-319.8 576,-309.8 572.5,-319.8 579.5,-319.8"/>
</g>
<!-- ClassE -->
<g id="node7" class="node">
<title>ClassE</title>
<polygon fill="none" stroke="black" points="9,-458 9,-481.2 128.79,-481.2 128.79,-458 9,-458"/>
<text text-anchor="start" x="52.7" y="-467.3" font-family="Sans-Serif" font-weight="bold" font-size="11.00">ClassE</text>
<polygon fill="none" stroke="black" points="9,-430.8 9,-458 128.79,-458 128.79,-430.8 9,-430.8"/>
<text text-anchor="start" x="16" y="-441.1" font-family="Sans-Serif" font-size="11.00">&#45; implAttr: String</text>
<polygon fill="none" stroke="black" points="9,-403.6 9,-430.8 128.79,-430.8 128.79,-403.6 9,-403.6"/>
<text text-anchor="start" x="16" y="-413.9" font-family="Sans-Serif" font-size="11.00">+ implOperation(): void</text>
<polygon fill="none" stroke="black" points="8,-402.6 8,-482.2 208,-482.2 208,-402.6 8,-402.6"/>
</g>
<!-- ClassE&#45;&gt;ClassA -->
<g id="edge2" class="edge">
<title>ClassE&#45;&gt;ClassA</title>
<path fill="none" stroke="black" stroke-dasharray="5,2" d="M144,-398.76C144,-398.76 144,-337.09 144,-337.09"/>
<polygon fill="none" stroke="black" points="147.5,-337.09 144,-327.09 140.5,-337.09 147.5,-337.09"/>
</g>
</g>
</svg>

